<?xml version="1.0" standalone="no"?>
<!DOCTYPE svg PUBLIC "-//W3C//DTD SVG 1.1//EN" "http://www.w3.org/Graphics/SVG/1.1/DTD/svg11.dtd" >
<svg xmlns="http://www.w3.org/2000/svg" xmlns:xlink="http://www.w3.org/1999/xlink" version="1.1">
<metadata>
Created by FontForge 20201107 at Sun Dec 27 21:40:40 2020
 By 
Copyright (c) 2020 by Adam Ladd. All rights reserved.
</metadata>
<defs>
<font id="Lufga-SemiBoldItalic" horiz-adv-x="1310" >
  <font-face 
    font-family="Lufga SemiBold"
    font-weight="600"
    font-style="italic"
    font-stretch="normal"
    units-per-em="2048"
    panose-1="0 0 7 0 0 0 0 0 0 0"
    ascent="1597"
    descent="-451"
    x-height="1044"
    cap-height="1413"
    bbox="-1526 -502 2714 1913"
    underline-thickness="151"
    underline-position="-354"
    slope="-8"
    unicode-range="U+0020-FB02"
  />
<missing-glyph horiz-adv-x="1024" 
d="M840 1597v-2048h-650v2048h650zM682 1460h-338v-67h133v-76h-135v-68h340v68h-135v76h135v67zM547 1196h-205v-213h340v70h-135v143zM477 1126v-73h-67v73h67zM682 928h-340v-68h135v-76h-135v-67h205v143h135v68zM682 805h-68v-135h-272v-70h340v205zM682 555h-205v-115
h70v47h67v-96h-204v164h-68v-231h340v231zM682 201h-340v-232h340v232zM614 133v-96h-204v96h204zM682 -78h-340v-67h143l-143 -97v-67h340v67h-209l143 97h66v67z" />
    <glyph glyph-name="fi" unicode="fi" horiz-adv-x="1327" 
d="M1208 1530q71 0 112.5 -48t31.5 -118q-9 -70 -64 -118t-127 -48q-71 0 -112 48t-31 118q11 71 65.5 118.5t124.5 47.5zM573 1122l-10 -78h260l-32 -243h-263l-114 -801h-267l115 801h-166l35 243h164l14 95q24 168 125.5 264t276.5 96q110 0 190 -45l-33 -233
q-58 34 -131 34q-146 0 -164 -133zM860 0l148 1044h266l-148 -1044h-266z" />
    <glyph glyph-name="fl" unicode="fl" horiz-adv-x="1327" 
d="M573 1122l-10 -78h260l-32 -243h-263l-114 -801h-267l115 801h-166l35 243h164l14 95q24 168 125.5 264t276.5 96q110 0 190 -45l-33 -233q-58 34 -131 34q-146 0 -164 -133zM1067 1475h266l-207 -1475h-266z" />
    <glyph glyph-name=".notdef" horiz-adv-x="1024" 
d="M840 1597v-2048h-650v2048h650zM682 1460h-338v-67h133v-76h-135v-68h340v68h-135v76h135v67zM547 1196h-205v-213h340v70h-135v143zM477 1126v-73h-67v73h67zM682 928h-340v-68h135v-76h-135v-67h205v143h135v68zM682 805h-68v-135h-272v-70h340v205zM682 555h-205v-115
h70v47h67v-96h-204v164h-68v-231h340v231zM682 201h-340v-232h340v232zM614 133v-96h-204v96h204zM682 -78h-340v-67h143l-143 -97v-67h340v67h-209l143 97h66v67z" />
    <glyph glyph-name=".null" horiz-adv-x="0" 
 />
    <glyph glyph-name="nonmarkingreturn" horiz-adv-x="682" 
 />
    <glyph glyph-name="space" unicode=" " horiz-adv-x="466" 
 />
    <glyph glyph-name="exclam" unicode="!" horiz-adv-x="557" 
d="M145 451l70 614l49 348h281l-49 -348l-103 -614h-248zM203 -18q-78 0 -121.5 50.5t-34.5 127.5q10 76 69.5 127t137.5 51q76 0 120.5 -50.5t35.5 -127.5q-10 -76 -70 -127t-137 -51z" />
    <glyph glyph-name="quotedbl" unicode="&#x22;" horiz-adv-x="894" 
d="M164 864l59 549h264l-94 -549h-229zM598 864l59 549h265l-95 -549h-229z" />
    <glyph glyph-name="numbersign" unicode="#" horiz-adv-x="1570" 
d="M1544 836h-289l-112 -258h254l-33 -232h-322l-151 -346h-246l152 346h-303l-152 -346h-248l152 346h-217l32 232h285l115 258h-254l31 231h323l152 346h245l-151 -346h303l152 346h245l-151 -346h219zM897 578l113 258h-303l-113 -258h303z" />
    <glyph glyph-name="dollar" unicode="$" horiz-adv-x="1191" 
d="M735 834q52 -14 100 -31.5t110 -53.5t104.5 -79.5t67 -112t13.5 -149.5q-26 -169 -169.5 -283t-344.5 -131l-18 -135h-139l18 135q-134 12 -255 70t-199 147l167 195q61 -64 146.5 -110.5t175.5 -59.5l51 360q-90 25 -161 61.5t-124.5 87.5t-77 121.5t-12.5 153.5
q23 163 157.5 271.5t334.5 127.5l18 137h140l-19 -135q118 -12 214 -58t153 -114l-158 -194q-39 44 -104.5 77.5t-139.5 45.5zM465 1028q-13 -98 137 -158l43 306q-74 -14 -122.5 -53.5t-57.5 -94.5zM852 397q15 105 -156 162l-45 -321q82 13 137 54t64 105z" />
    <glyph glyph-name="percent" unicode="%" horiz-adv-x="1763" 
d="M465 750q-149 0 -236 99t-65 247q20 146 134 244t263 98q150 0 236.5 -98t64.5 -244q-20 -148 -134 -247t-263 -99zM154 0l1222 1413h285l-1223 -1413h-284zM494 965q55 0 97 37.5t50 93.5q9 54 -23 90.5t-86 36.5q-55 0 -97 -36.5t-50 -90.5q-9 -56 22.5 -93.5
t86.5 -37.5zM1253 -25q-149 0 -235 99.5t-66 247.5q22 146 135.5 244t262.5 98q151 0 237.5 -98t63.5 -244q-20 -148 -134.5 -247.5t-263.5 -99.5zM1284 190q56 0 98.5 37.5t49.5 94.5q8 54 -24 90.5t-87 36.5t-97 -36.5t-50 -90.5q-8 -57 23.5 -94.5t86.5 -37.5z" />
    <glyph glyph-name="ampersand" unicode="&#x26;" horiz-adv-x="1333" 
d="M1333 625q-98 -217 -233 -365l196 -260h-338l-67 90q-167 -115 -379 -115q-235 0 -364.5 128t-100.5 329q13 93 59 170t103.5 126.5t136.5 94.5q-87 157 -70 293q20 139 141 230.5t281 91.5t257 -90.5t77 -227.5q-17 -111 -101 -191.5t-220 -150.5l250 -332
q87 113 149 252zM532 1114q-8 -64 58 -170q81 41 128.5 82.5t55.5 91.5q6 47 -25 78t-81 31q-49 0 -89 -31t-47 -82zM559 219q101 0 195 51l-285 377q-134 -89 -147 -198q-15 -100 52.5 -165t184.5 -65z" />
    <glyph glyph-name="quotesingle" unicode="'" horiz-adv-x="460" 
d="M164 864l59 549h264l-94 -549h-229z" />
    <glyph glyph-name="parenleft" unicode="(" horiz-adv-x="698" 
d="M301 -389q-106 174 -149 437.5t-5 524.5q37 262 153.5 525.5t272.5 437.5h269q-151 -174 -265 -437.5t-151 -525.5q-38 -261 1.5 -524.5t141.5 -437.5h-268z" />
    <glyph glyph-name="parenright" unicode=")" horiz-adv-x="698" 
d="M-131 -389q152 173 267 436t153 526q37 262 -4 525.5t-144 437.5h269q107 -174 150.5 -437.5t6.5 -525.5q-38 -263 -155.5 -526t-274.5 -436h-268z" />
    <glyph glyph-name="asterisk" unicode="*" horiz-adv-x="768" 
d="M616 1155l56 -25l114 -67l-102 -141l-117 67l-41 39l2 -59l-18 -138h-166l21 138l18 59l-53 -39l-133 -67l-64 141l135 72l56 18l-52 23l-114 67l102 141l117 -65l41 -39l-2 59l18 136h166l-20 -136l-17 -59l51 39l134 65l65 -141l-135 -67z" />
    <glyph glyph-name="plus" unicode="+" horiz-adv-x="1093" 
d="M1004 725l-35 -240h-305l-46 -309h-243l45 309h-307l34 240h306l45 307h243l-45 -307h308z" />
    <glyph glyph-name="comma" unicode="," horiz-adv-x="530" 
d="M-104 -297l225 578h311l-307 -578h-229z" />
    <glyph glyph-name="hyphen" unicode="-" horiz-adv-x="835" 
d="M106 432l37 258h598l-36 -258h-599z" />
    <glyph glyph-name="period" unicode="." horiz-adv-x="522" 
d="M184 -18q-79 0 -124.5 53t-34.5 131q10 78 71.5 131t141.5 53q79 0 124.5 -53t34.5 -131q-10 -78 -71.5 -131t-141.5 -53z" />
    <glyph glyph-name="slash" unicode="/" horiz-adv-x="1087" 
d="M-117 -307l1080 1843h268l-1079 -1843h-269z" />
    <glyph glyph-name="zero" unicode="0" horiz-adv-x="1298" 
d="M571 -25q-161 0 -274 92.5t-159.5 259.5t-16.5 380q44 323 228 527t429 204q162 0 275.5 -92t160 -258.5t17.5 -380.5q-46 -324 -230 -528t-430 -204zM610 248q117 0 209 128t121 331q29 202 -27.5 330t-173.5 128q-116 0 -207.5 -128t-119.5 -330q-29 -202 26.5 -330.5
t171.5 -128.5z" />
    <glyph glyph-name="one" unicode="1" horiz-adv-x="806" 
d="M580 1413h200l-198 -1413h-283l150 1075l-248 -129l-88 228z" />
    <glyph glyph-name="two" unicode="2" horiz-adv-x="1095" 
d="M1059 1010q-29 -205 -238 -394l-381 -350h539l-37 -266h-938l33 229l555 519q73 67 119.5 127t54.5 118q10 73 -37 117.5t-131 44.5q-155 0 -297 -158l-168 185q91 116 230.5 186t291.5 70q205 0 317.5 -120.5t86.5 -307.5z" />
    <glyph glyph-name="three" unicode="3" horiz-adv-x="1171" 
d="M1141 1051q-13 -98 -76 -180t-160 -132q98 -52 145.5 -143t32.5 -205q-28 -183 -192 -299.5t-397 -116.5q-151 0 -283.5 53.5t-208.5 145.5l191 209q52 -64 138 -99.5t181 -35.5q115 0 195 51t92 131q10 81 -53 132.5t-171 51.5h-204l35 244h204q93 0 159 43t75 109
q11 68 -49.5 111.5t-165.5 43.5q-83 0 -164 -27.5t-137 -76.5l-123 205q94 79 227 125.5t268 46.5q220 0 343 -108.5t98 -278.5z" />
    <glyph glyph-name="four" unicode="4" horiz-adv-x="1198" 
d="M1151 541l-37 -267h-153l-39 -274h-283l39 274h-600l-35 230l768 909h309l-123 -872h154zM356 541h359l73 514z" />
    <glyph glyph-name="five" unicode="5" horiz-adv-x="1179" 
d="M690 918q207 0 328.5 -133t93.5 -332q-28 -205 -200.5 -341.5t-409.5 -136.5q-131 0 -253.5 48t-219.5 145l172 227q58 -70 142.5 -108.5t178.5 -38.5q122 0 205.5 61.5t95.5 151.5q12 85 -45.5 141.5t-156.5 56.5q-126 0 -224 -81l-239 73l178 762h813l-37 -266h-577
l-62 -279q95 50 217 50z" />
    <glyph glyph-name="six" unicode="6" horiz-adv-x="1150" 
d="M731 905q124 0 217 -60t136 -163t26 -227q-28 -207 -199.5 -343.5t-400.5 -136.5q-245 0 -369.5 157t-87.5 419q23 164 106 314t212.5 268t307 198.5t380.5 106.5l16 -264q-211 -33 -372 -127t-248 -224q128 82 276 82zM821 449q11 85 -48.5 140.5t-162.5 55.5t-185 -50
t-95 -140q-14 -90 47.5 -148.5t171.5 -58.5q103 0 181 57.5t91 143.5z" />
    <glyph glyph-name="seven" unicode="7" horiz-adv-x="1073" 
d="M203 1413h942l-31 -221l-706 -1192h-320l684 1147h-606z" />
    <glyph glyph-name="eight" unicode="8" horiz-adv-x="1212" 
d="M1186 1042q-13 -96 -75.5 -175.5t-160.5 -133.5q95 -55 141 -143t31 -195q-15 -117 -98.5 -213.5t-214.5 -151.5t-281 -55q-229 0 -365 120.5t-110 299.5q15 107 85 195t181 143q-82 53 -120 133t-25 176q22 168 182 282t379 114q217 0 345.5 -114t105.5 -282zM459 1014
q-9 -65 46.5 -108.5t147.5 -43.5t160.5 43.5t77.5 108.5q9 66 -46.5 108.5t-148.5 42.5t-160.5 -42.5t-76.5 -108.5zM838 424q10 73 -54 123.5t-168 50.5t-180.5 -50t-87.5 -124q-11 -75 52 -125.5t167 -50.5t182.5 50.5t88.5 125.5z" />
    <glyph glyph-name="nine" unicode="9" horiz-adv-x="1150" 
d="M692 1438q244 0 369 -156.5t90 -419.5q-24 -165 -107 -317.5t-211.5 -272.5t-307.5 -199.5t-382 -97.5l-18 265q213 22 375.5 118.5t249.5 231.5q-128 -82 -279 -82q-124 0 -217 60t-136 163t-26 227q19 136 103.5 246t215 172t281.5 62zM872 958q14 90 -47.5 148.5
t-171.5 58.5q-103 0 -180.5 -57t-89.5 -143q-12 -85 47 -141t162 -56t185 50t95 140z" />
    <glyph glyph-name="colon" unicode=":" horiz-adv-x="542" 
d="M289 649q-78 0 -124.5 53.5t-35.5 131.5q10 78 71.5 131t141.5 53q79 0 125 -53t35 -131q-12 -78 -73 -131.5t-140 -53.5zM195 -18q-79 0 -125 53t-35 131q10 78 71.5 131t141.5 53q79 0 125 -53t35 -131q-10 -78 -71.5 -131t-141.5 -53z" />
    <glyph glyph-name="semicolon" unicode=";" horiz-adv-x="573" 
d="M319 649q-78 0 -124 53.5t-35 131.5q10 78 71.5 131t141.5 53q79 0 124.5 -53t34.5 -131t-72.5 -131.5t-140.5 -53.5zM-104 -297l223 578h311l-307 -578h-227z" />
    <glyph glyph-name="less" unicode="&#x3c;" horiz-adv-x="950" 
d="M909 1075l-37 -266l-473 -203l416 -203l-39 -266l-663 348l34 242z" />
    <glyph glyph-name="equal" unicode="=" horiz-adv-x="1093" 
d="M143 686l33 240h856l-35 -240h-854zM86 285l35 239h854l-33 -239h-856z" />
    <glyph glyph-name="greater" unicode="&#x3e;" horiz-adv-x="950" 
d="M197 1075l663 -348l-35 -242l-762 -348l39 266l471 203l-413 203z" />
    <glyph glyph-name="question" unicode="?" horiz-adv-x="1005" 
d="M336 455l8 49q10 67 51 129.5t94 110.5t105.5 92.5t91.5 92.5t45 93q9 63 -34 103t-122 40q-83 0 -165.5 -42.5t-155.5 -121.5l-158 187q110 118 248 184t283 66q194 0 307 -114t90 -280q-11 -78 -54 -148.5t-98 -120.5t-109 -94.5t-93.5 -89.5t-44.5 -87l-9 -49h-280z
M410 -18q-77 0 -120.5 51t-33.5 127t69 127t136 51q78 0 122 -50.5t33 -127.5q-10 -76 -69 -127t-137 -51z" />
    <glyph glyph-name="at" unicode="@" horiz-adv-x="1710" 
d="M973 1311q158 0 290.5 -54t220.5 -147.5t128.5 -226t19.5 -283.5q-27 -188 -131 -302t-260 -114q-86 0 -150.5 32t-93.5 89q-92 -125 -254 -125q-151 0 -235.5 106.5t-61.5 262.5q21 159 134.5 266t253.5 107q126 0 198 -95l10 70h228l-64 -453q-4 -35 15.5 -57t54.5 -22
q58 0 102.5 66t59.5 173q21 147 -37 267t-178 187.5t-277 67.5q-165 0 -307.5 -74.5t-235.5 -206t-116 -294.5q-22 -161 33.5 -292.5t178 -206.5t287.5 -75q203 0 359 101l65 -166q-215 -119 -454 -119q-162 0 -297 58.5t-222.5 159t-127 241t-17.5 299.5q30 213 155 387
t316.5 273.5t409.5 99.5zM815 397q61 0 111 38t65 95l6 39q0 59 -39 97.5t-100 38.5q-67 0 -119 -43.5t-59 -110.5q-9 -66 29.5 -110t105.5 -44z" />
    <glyph glyph-name="A" unicode="A" horiz-adv-x="1466" 
d="M1061 0l-62 274h-606l-139 -274h-305l743 1413h334l344 -1413h-309zM524 535h416l-129 567z" />
    <glyph glyph-name="B" unicode="B" horiz-adv-x="1294" 
d="M1255 1053q-13 -98 -69.5 -180t-134.5 -123q97 -37 148 -139t34 -228q-25 -167 -153.5 -275t-299.5 -108h-710l198 1413h664q160 0 253 -102t70 -258zM958 1004q9 66 -28.5 110.5t-102.5 44.5h-319l-45 -311h319q65 0 116 45t60 111zM948 432q11 74 -32.5 125t-118.5 51
h-367l-51 -354h369q74 0 132 51.5t68 126.5z" />
    <glyph glyph-name="C" unicode="C" horiz-adv-x="1488" 
d="M739 -25q-209 0 -366 95.5t-230.5 263.5t-44.5 373q28 205 149 372.5t305.5 263t393.5 95.5q196 0 347.5 -85t230.5 -233l-264 -151q-50 92 -141.5 144t-211.5 52q-194 0 -342 -131t-176 -327t83.5 -327.5t305.5 -131.5q119 0 225.5 52t180.5 144l223 -151
q-120 -148 -296 -233t-372 -85z" />
    <glyph glyph-name="D" unicode="D" horiz-adv-x="1488" 
d="M821 1413q203 0 355.5 -92t223.5 -253.5t44 -360.5q-21 -149 -94.5 -280t-182.5 -225t-250.5 -148t-293.5 -54h-553l198 1413h553zM1153 707q26 189 -81 314.5t-294 125.5h-264l-125 -881h264q187 0 329.5 126t170.5 315z" />
    <glyph glyph-name="E" unicode="E" horiz-adv-x="1189" 
d="M1182 1147h-668l-43 -303h600l-37 -266h-600l-45 -312h678l-37 -266h-960l198 1413h951z" />
    <glyph glyph-name="F" unicode="F" horiz-adv-x="1122" 
d="M1151 1147h-637l-45 -318h555l-37 -266h-555l-80 -563h-282l198 1413h920z" />
    <glyph glyph-name="G" unicode="G" horiz-adv-x="1589" 
d="M885 795h682l-15 -99q-28 -205 -144 -370t-293.5 -258t-381.5 -93q-156 0 -285 56.5t-213 153.5t-121.5 232.5t-15.5 289.5q28 205 149 372.5t305.5 263t393.5 95.5q184 0 329 -74t222 -203l-237 -170q-52 83 -142.5 129.5t-204.5 46.5q-197 0 -346.5 -131t-177.5 -329
t84 -329.5t309 -131.5q153 0 276 82t173 215h-381z" />
    <glyph glyph-name="H" unicode="H" horiz-adv-x="1478" 
d="M1178 1413h282l-198 -1413h-283l82 578h-627l-82 -578h-282l198 1413h283l-80 -569h627z" />
    <glyph glyph-name="I" unicode="I" horiz-adv-x="569" 
d="M70 0l198 1413h283l-199 -1413h-282z" />
    <glyph glyph-name="J" unicode="J" horiz-adv-x="884" 
d="M205 -25q-126 0 -221 45l36 271q91 -43 193 -43q110 0 180.5 56.5t83.5 158.5l133 950h283l-135 -964q-32 -221 -182 -347.5t-371 -126.5z" />
    <glyph glyph-name="K" unicode="K" horiz-adv-x="1363" 
d="M1491 1413l-721 -682l549 -731h-369l-391 530l-153 -145l-54 -385h-282l198 1413h283l-90 -645l669 645h361z" />
    <glyph glyph-name="L" unicode="L" horiz-adv-x="1091" 
d="M389 266h617l-37 -266h-899l198 1413h283z" />
    <glyph glyph-name="M" unicode="M" horiz-adv-x="1792" 
d="M1425 1413h349l-199 -1413h-283l135 971l-489 -717h-160l-289 717l-137 -971h-282l198 1413h353l299 -735z" />
    <glyph glyph-name="N" unicode="N" horiz-adv-x="1499" 
d="M1198 1413h283l-199 -1413h-287l-512 928l-131 -928h-282l198 1413h287l512 -928z" />
    <glyph glyph-name="O" unicode="O" horiz-adv-x="1634" 
d="M739 -25q-209 0 -366 95.5t-230.5 263.5t-44.5 373q28 205 149 372.5t305.5 263t393.5 95.5q157 0 287 -56t215 -153t123.5 -232.5t17.5 -289.5q-29 -205 -150.5 -373t-306 -263.5t-393.5 -95.5zM778 248q194 0 343 131.5t177 327.5t-84.5 327t-306.5 131t-342 -131
t-176 -327t83.5 -327.5t305.5 -131.5z" />
    <glyph glyph-name="P" unicode="P" horiz-adv-x="1288" 
d="M885 1413q135 0 238 -61.5t151.5 -169.5t30.5 -240q-29 -201 -187.5 -336t-365.5 -135h-334l-66 -471h-282l198 1413h617zM1014 942q12 88 -37 146.5t-135 58.5h-328l-57 -410h327q86 0 152 58.5t78 146.5z" />
    <glyph glyph-name="Q" unicode="Q" horiz-adv-x="1634" 
d="M1589 707q-23 -163 -106 -304t-211 -241l108 -195l-231 -147l-117 207q-145 -52 -293 -52q-209 0 -366 95.5t-230.5 263.5t-44.5 373q28 205 149 372.5t305.5 263t393.5 95.5q157 0 287 -56t215 -153t123.5 -232.5t17.5 -289.5zM1298 707q28 196 -84.5 327t-306.5 131
t-342 -131t-176 -327t83.5 -327.5t305.5 -131.5q66 0 121 14l-98 176l233 148l107 -189q134 130 157 310z" />
    <glyph glyph-name="R" unicode="R" horiz-adv-x="1296" 
d="M1284 950q-22 -152 -125 -266.5t-254 -157.5l281 -526h-340l-254 504h-168l-72 -504h-282l198 1413h602q205 0 324 -133t90 -330zM993 948q12 85 -35.5 142t-130.5 57h-313l-57 -397h315q83 0 147 56.5t74 141.5z" />
    <glyph glyph-name="S" unicode="S" horiz-adv-x="1228" 
d="M557 -25q-161 0 -310.5 60.5t-244.5 161.5l176 215q75 -83 186.5 -134t227.5 -51q110 0 192.5 46t92.5 118q3 25 -4 46.5t-18.5 37t-37 30.5t-45 24t-56.5 20.5t-57.5 17t-62.5 15.5q-102 25 -181.5 61t-141 88.5t-89 126.5t-14.5 164q26 188 190.5 302t403.5 114
q153 0 273.5 -48t189.5 -128l-162 -213q-52 60 -145 98.5t-195 38.5q-106 0 -180.5 -43t-83.5 -109q-4 -31 9.5 -58t36.5 -45.5t60 -34.5t70.5 -26t77.5 -20q35 -8 67.5 -16.5t84.5 -27.5t94 -41.5t87 -58.5t73.5 -77.5t42.5 -100t5 -125.5q-18 -124 -105 -222.5t-220 -152
t-287 -53.5z" />
    <glyph glyph-name="T" unicode="T" horiz-adv-x="1206" 
d="M1278 1413l-37 -266h-407l-162 -1147h-283l162 1147h-410l37 266h1100z" />
    <glyph glyph-name="U" unicode="U" horiz-adv-x="1404" 
d="M625 -25q-165 0 -288.5 74.5t-181 205.5t-34.5 292l121 866h282l-121 -862q-19 -129 56 -216t205 -87t228.5 87t117.5 216l120 862h283l-121 -866q-23 -161 -118 -292t-239.5 -205.5t-309.5 -74.5z" />
    <glyph glyph-name="V" unicode="V" horiz-adv-x="1454" 
d="M1249 1413h310l-760 -1413h-291l-363 1413h316l250 -1036z" />
    <glyph glyph-name="W" unicode="W" horiz-adv-x="2066" 
d="M1870 1413h291l-639 -1413h-283l-139 985l-420 -985h-281l-243 1413h299l145 -1028l438 1028h248l148 -1028z" />
    <glyph glyph-name="X" unicode="X" horiz-adv-x="1472" 
d="M1563 1413l-607 -704l416 -709h-348l-291 514l-434 -514h-346l616 709l-409 704h348l285 -508l424 508h346z" />
    <glyph glyph-name="Y" unicode="Y" horiz-adv-x="1380" 
d="M1192 1413h315l-680 -917l-69 -496h-283l70 496l-422 917h323l285 -633z" />
    <glyph glyph-name="Z" unicode="Z" horiz-adv-x="1257" 
d="M1294 1413l-28 -203l-842 -944h723l-37 -266h-1110l29 203l841 944h-700l37 266h1087z" />
    <glyph glyph-name="bracketleft" unicode="[" horiz-adv-x="716" 
d="M776 1284h-235l-199 -1421h231l-34 -252h-508l272 1925h508z" />
    <glyph glyph-name="backslash" unicode="\" horiz-adv-x="1087" 
d="M702 -307l-559 1843h269l559 -1843h-269z" />
    <glyph glyph-name="bracketright" unicode="]" horiz-adv-x="716" 
d="M193 1536h507l-272 -1925h-508l35 252h235l199 1421h-231z" />
    <glyph glyph-name="asciicircum" unicode="^" horiz-adv-x="878" 
d="M874 897h-239l-100 297l-185 -297h-239l331 516h244z" />
    <glyph glyph-name="underscore" unicode="_" horiz-adv-x="1013" 
d="M-78 -352l31 225h926l-31 -225h-926z" />
    <glyph glyph-name="grave" unicode="`" horiz-adv-x="542" 
d="M352 1159l-221 293h334l168 -293h-281z" />
    <glyph glyph-name="a" unicode="a" 
d="M991 1044h266l-147 -1044h-266l18 125q-160 -150 -362 -150q-143 0 -249.5 71.5t-155 196.5t-27.5 279q32 233 200.5 390t386.5 157q205 0 318 -149zM588 233q124 0 217.5 82t112.5 205v2q15 124 -54.5 206.5t-193.5 82.5q-123 0 -217 -83t-111 -206t53 -206t193 -83z
" />
    <glyph glyph-name="b" unicode="b" 
d="M811 1069q143 0 249 -71.5t154 -196.5t27 -279q-32 -233 -200 -390t-386 -157q-205 0 -317 150l-19 -125h-266l207 1475h266l-77 -555q159 149 362 149zM967 522q17 124 -52.5 206.5t-193.5 82.5q-123 0 -217 -83t-111 -206t53 -206t193 -83q125 0 219 83t109 206z" />
    <glyph glyph-name="c" unicode="c" horiz-adv-x="1144" 
d="M547 -25q-239 0 -377.5 157t-106.5 390q21 153 112.5 278.5t230.5 197t296 71.5q156 0 272 -69.5t173 -190.5l-252 -139q-27 64 -87 102.5t-142 38.5q-123 0 -217 -83t-111 -206t53 -206t193 -83q81 0 153 38.5t119 103.5l211 -139q-91 -121 -227.5 -191t-292.5 -70z" />
    <glyph glyph-name="d" unicode="d" 
d="M1051 1475h266l-207 -1475h-266l18 125q-160 -150 -362 -150q-143 0 -249.5 71.5t-155 196.5t-27.5 279q32 233 200.5 390t386.5 157q207 0 318 -149zM588 233q119 0 211.5 77.5t115.5 193.5l5 33q9 118 -60.5 196t-189.5 78q-123 0 -217 -83t-111 -206t53 -206t193 -83z
" />
    <glyph glyph-name="e" unicode="e" horiz-adv-x="1226" 
d="M696 1069q154 0 270 -71t169.5 -197t31.5 -281q-8 -60 -20 -94h-809q14 -99 85 -157t183 -58q91 0 173 36.5t132 92.5l158 -156q-97 -98 -228 -153.5t-276 -55.5q-248 0 -391 158t-111 393q34 232 215.5 387.5t417.5 155.5zM659 836q-96 0 -177.5 -59t-119.5 -156h535
q-10 98 -75 156.5t-163 58.5z" />
    <glyph glyph-name="f" unicode="f" horiz-adv-x="788" 
d="M737 1255q-146 0 -164 -133l-10 -78h260l-32 -243h-263l-114 -801h-267l115 801h-166l35 243h164l14 95q24 168 125.5 264t276.5 96q110 0 190 -45l-33 -233q-58 34 -131 34z" />
    <glyph glyph-name="g" unicode="g" horiz-adv-x="1155" 
d="M1155 1202h86l-33 -246h-73q-42 0 -73.5 -20t-43.5 -55q72 -118 51 -271q-19 -129 -98 -234t-199 -164.5t-258 -59.5q-87 0 -170 26q-56 -32 -63 -90q-6 -38 20.5 -63t73.5 -25h342q156 0 248 -81.5t98 -225.5l-285 -74q3 57 -37.5 91t-109.5 34h-342q-146 0 -224 77
t-61 202q10 79 58.5 150.5t117.5 111.5q-119 131 -92 325q28 197 186 328t369 131q121 0 221 -49q34 85 112 133.5t179 48.5zM795 610q12 89 -41.5 148t-145.5 59q-94 0 -165 -59t-81 -148q-13 -89 40 -148t147 -59q93 0 163.5 59t82.5 148z" />
    <glyph glyph-name="h" unicode="h" horiz-adv-x="1243" 
d="M803 1069q185 0 279.5 -110.5t68.5 -294.5l-92 -664h-266l81 578q15 106 -38.5 169.5t-157.5 63.5q-105 0 -180 -60.5t-97 -162.5l-82 -588h-266l207 1475h266l-77 -555q149 149 354 149z" />
    <glyph glyph-name="i" unicode="i" horiz-adv-x="520" 
d="M354 1198q-71 0 -112 48t-31 118q11 71 65.5 118.5t124.5 47.5q71 0 112.5 -48t31.5 -118q-9 -70 -64 -118t-127 -48zM53 0l148 1044h266l-148 -1044h-266z" />
    <glyph glyph-name="j" unicode="j" horiz-adv-x="530" 
d="M365 1198q-71 0 -112.5 48t-31.5 118t65 118t126 48t112 -48t31 -118q-9 -71 -63.5 -118.5t-126.5 -47.5zM-55 -414q-84 0 -142 25l35 239q39 -20 90 -20q112 0 127 111l156 1103h266l-160 -1134q-21 -150 -116 -237t-256 -87z" />
    <glyph glyph-name="k" unicode="k" horiz-adv-x="1122" 
d="M1196 1044l-516 -483l383 -561h-348l-252 360l-107 -100l-37 -260h-266l207 1475h266l-120 -859l446 428h344z" />
    <glyph glyph-name="l" unicode="l" horiz-adv-x="520" 
d="M53 0l207 1475h266l-207 -1475h-266z" />
    <glyph glyph-name="m" unicode="m" horiz-adv-x="1886" 
d="M1464 1069q177 0 268 -106t66 -283l-96 -680h-266l86 600q12 96 -35.5 153.5t-140.5 57.5q-94 0 -161.5 -54t-86.5 -143l-86 -614h-267l84 600q12 96 -35.5 153.5t-140.5 57.5q-95 0 -163.5 -56.5t-83.5 -148.5l-87 -606h-266l148 1044h266l-16 -108q139 133 329 133
q109 0 187 -45t114 -125q153 170 383 170z" />
    <glyph glyph-name="n" unicode="n" horiz-adv-x="1243" 
d="M803 1069q185 0 279.5 -110.5t68.5 -294.5l-92 -664h-266l81 578q15 106 -38.5 169.5t-157.5 63.5q-103 0 -177.5 -58.5t-97.5 -156.5l-84 -596h-266l148 1044h266l-16 -116q147 141 352 141z" />
    <glyph glyph-name="o" unicode="o" horiz-adv-x="1249" 
d="M547 -25q-239 0 -377.5 157t-106.5 390q21 153 112.5 278.5t230.5 197t296 71.5q239 0 377.5 -157t106.5 -390q-21 -153 -112.5 -278.5t-230.5 -197t-296 -71.5zM584 233q124 0 218 83t109 206q17 124 -52 206.5t-193 82.5q-123 0 -217 -83t-111 -206t53 -206t193 -83z
" />
    <glyph glyph-name="p" unicode="p" 
d="M811 1069q143 0 249 -71.5t154 -196.5t27 -279q-32 -233 -200 -390t-386 -157q-205 0 -317 150l-74 -514h-266l203 1433h266l-18 -124q155 149 362 149zM967 522q17 124 -52.5 206.5t-193.5 82.5q-123 0 -217 -83t-111 -206t53 -206t193 -83q125 0 219 83t109 206z" />
    <glyph glyph-name="q" unicode="q" 
d="M991 1044h266l-202 -1433h-267l74 514q-156 -150 -362 -150q-143 0 -249.5 71.5t-155 196.5t-27.5 279q32 233 200.5 390t386.5 157q205 0 318 -149zM588 233q121 0 214 79.5t113 199.5l3 16q14 121 -56 202t-192 81q-123 0 -217 -83t-111 -206t53 -206t193 -83z" />
    <glyph glyph-name="r" unicode="r" horiz-adv-x="768" 
d="M770 1061h45l-39 -275h-43q-138 0 -228.5 -72.5t-113.5 -199.5l-72 -514h-266l148 1044h266l-18 -135q139 152 321 152z" />
    <glyph glyph-name="s" unicode="s" horiz-adv-x="985" 
d="M410 -25q-251 0 -418 160l155 176q116 -116 287 -116q82 0 138 26t63 72q3 20 -6 37t-23.5 28t-43 22t-52 17.5t-64.5 16.5q-65 15 -102.5 25.5t-93.5 36.5t-84.5 57t-46.5 84.5t-8 121.5q15 107 85 183t169.5 111.5t218.5 35.5q229 0 385 -137l-154 -178
q-115 96 -256 96q-72 0 -122 -23t-56 -67q-3 -20 6 -36.5t23 -27.5t43 -21.5t52 -16.5t64 -15q64 -15 102 -25.5t94 -36.5t84.5 -57.5t46.5 -85t9 -121.5q-23 -161 -161.5 -251.5t-333.5 -90.5z" />
    <glyph glyph-name="t" unicode="t" horiz-adv-x="839" 
d="M530 801l-61 -434q-18 -134 123 -134q59 0 143 35l-35 -248q-91 -45 -202 -45q-175 0 -250 93.5t-51 255.5l67 477h-166l33 243h168l37 265h266l-37 -265h279l-33 -243h-281z" />
    <glyph glyph-name="u" unicode="u" horiz-adv-x="1196" 
d="M520 -25q-221 0 -337.5 120.5t-88.5 320.5l90 628h267l-86 -591q-12 -100 40 -160t152 -60t170 60.5t82 159.5l84 591h266l-88 -628q-28 -199 -179.5 -320t-371.5 -121z" />
    <glyph glyph-name="v" unicode="v" horiz-adv-x="1163" 
d="M930 1044h297l-582 -1044h-274l-287 1044h303l172 -710z" />
    <glyph glyph-name="w" unicode="w" horiz-adv-x="1765" 
d="M1532 1044h291l-518 -1044h-275l-121 721l-321 -721h-275l-223 1044h297l117 -702l319 702h273l121 -702z" />
    <glyph glyph-name="x" unicode="x" horiz-adv-x="1161" 
d="M1204 1044l-444 -520l303 -524h-324l-186 342l-283 -342h-319l448 524l-295 520h324l180 -335l275 335h321z" />
    <glyph glyph-name="y" unicode="y" horiz-adv-x="1163" 
d="M930 1044h297l-688 -1226q-60 -107 -154 -169.5t-197 -62.5q-71 0 -143 29t-119 76l133 209q46 -56 121 -56q80 0 129 82l56 90l-281 1028h303l172 -710z" />
    <glyph glyph-name="z" unicode="z" horiz-adv-x="1017" 
d="M999 1044l-26 -194l-559 -592h491l-39 -258h-862l27 195l559 591h-469l39 258h839z" />
    <glyph glyph-name="braceleft" unicode="{" horiz-adv-x="860" 
d="M737 1536h217l-34 -252h-117q-50 0 -86 -32.5t-43 -84.5l-60 -422q-7 -58 -45.5 -103t-97.5 -67q52 -23 78 -69t18 -103l-61 -423q-6 -53 20.5 -85t75.5 -32h115l-35 -252h-217q-128 0 -195.5 79t-48.5 208l62 436q7 52 -19 83.5t-76 31.5h-79l34 251h80q49 0 84 32
t41 83l64 434q19 129 108.5 208t216.5 79z" />
    <glyph glyph-name="bar" unicode="|" horiz-adv-x="612" 
d="M55 -389l273 1925h243l-272 -1925h-244z" />
    <glyph glyph-name="braceright" unicode="}" horiz-adv-x="860" 
d="M688 700h80l-35 -251h-80q-51 0 -86 -31.5t-41 -83.5l-63 -436q-19 -129 -108.5 -208t-217.5 -79h-217l35 252h115q51 0 87.5 32.5t43.5 84.5l59 423q7 58 45.5 103t97.5 69q-53 22 -78 67.5t-16 102.5l60 422q6 52 -20.5 84.5t-76.5 32.5h-114l35 252h217q128 0 195 -79
t48 -208l-61 -434q-6 -52 20 -83.5t76 -31.5z" />
    <glyph glyph-name="asciitilde" unicode="~" horiz-adv-x="1187" 
d="M760 428q-53 0 -100.5 16t-76 36t-62 36t-60.5 16q-43 0 -74 -26.5t-37 -67.5h-244q23 162 110.5 260.5t236.5 98.5q53 0 100.5 -16.5t76 -36t62 -36t60.5 -16.5q42 0 73 27t37 67h244q-15 -106 -55 -184t-114.5 -126t-176.5 -48z" />
    <glyph glyph-name="uni00A0" unicode="&#xa0;" horiz-adv-x="466" 
 />
    <glyph glyph-name="exclamdown" unicode="&#xa1;" horiz-adv-x="557" 
d="M305 707q-78 0 -122 50.5t-33 127.5q10 76 69 127t137 51q77 0 120.5 -51t33.5 -127t-69 -127t-136 -51zM14 -369l49 349l103 614h248l-70 -614l-49 -349h-281z" />
    <glyph glyph-name="cent" unicode="&#xa2;" horiz-adv-x="1212" 
d="M723 422q109 29 184 127l215 -131q-77 -104 -190.5 -170.5t-245.5 -83.5l-22 -164h-162l22 162q-102 13 -184.5 60t-136 117.5t-76.5 165.5t-8 200q29 214 186.5 366t372.5 178l22 164h162l-22 -166q125 -17 219.5 -84.5t140.5 -169.5l-250 -129q-47 96 -147 125z
M389 705q-15 -103 32.5 -180.5t139.5 -102.5l80 567q-99 -25 -169 -103t-83 -181z" />
    <glyph glyph-name="sterling" unicode="&#xa3;" horiz-adv-x="1196" 
d="M500 557l-41 -291h637l-37 -266h-1034l36 266h115l41 291h-115l35 242h113l24 168q28 201 189 336t375 135q121 0 224 -46.5t171 -125.5l-174 -207q-48 48 -116.5 77t-139.5 29q-96 0 -165 -55.5t-81 -142.5l-25 -168h394l-35 -242h-391z" />
    <glyph glyph-name="currency" unicode="&#xa4;" horiz-adv-x="1122" 
d="M993 709q-15 -107 -75 -191l106 -125l-184 -162l-115 131q-90 -38 -190 -38q-101 0 -179 38l-153 -131l-142 162l144 127q-36 86 -21 189q14 101 76 188l-110 127l186 162l117 -133q87 41 190 41q98 0 178 -39l152 133l139 -166l-141 -123q37 -82 22 -190zM412 709
q-12 -76 31 -127.5t120 -51.5q75 0 134 51.5t71 127.5q9 76 -35 127t-119 51t-133 -51.5t-69 -126.5z" />
    <glyph glyph-name="yen" unicode="&#xa5;" horiz-adv-x="1327" 
d="M1427 1413l-528 -772h176l-24 -174h-254l-13 -90h254l-24 -174h-254l-29 -203h-280l28 203h-252l25 174h250l12 90h-250l23 174h172l-309 772h317l238 -629l413 629h309z" />
    <glyph glyph-name="brokenbar" unicode="&#xa6;" horiz-adv-x="612" 
d="M209 696l119 840h243l-118 -840h-244zM55 -389l119 840h244l-119 -840h-244z" />
    <glyph glyph-name="section" unicode="&#xa7;" horiz-adv-x="1085" 
d="M680 971q75 -17 130.5 -40t103 -60.5t67.5 -94.5t10 -131q-24 -169 -180 -262q121 -88 98 -240q-23 -158 -157 -249t-318 -91q-121 0 -223.5 39t-165.5 105l131 164q36 -45 105.5 -75t152.5 -30q87 0 145 34.5t66 88.5q5 39 -25.5 69.5t-73.5 48t-106 32.5
q-57 13 -102 29.5t-89 43t-71 60t-40 83t-5 109.5q12 84 58.5 150.5t117.5 109.5q-116 90 -96 240q23 154 156.5 244t316.5 90q110 0 209.5 -34.5t157.5 -92.5l-125 -162q-38 38 -105.5 62t-140.5 24q-84 0 -140.5 -33t-64.5 -84q-7 -54 50 -90t153 -57zM549 492
q69 3 118.5 39t57.5 87q6 52 -33.5 86.5t-122.5 51.5q-67 -3 -115 -38t-55 -87q-7 -51 32.5 -85t117.5 -54z" />
    <glyph glyph-name="dieresis" unicode="&#xa8;" horiz-adv-x="743" 
d="M242 1157q-65 0 -102.5 43t-28.5 107q9 63 58.5 106t113.5 43t101 -43t28 -106q-7 -64 -56.5 -107t-113.5 -43zM682 1157q-63 0 -100.5 43t-30.5 107q9 63 59 106t115 43q64 0 101 -43t28 -106q-7 -64 -57 -107t-115 -43z" />
    <glyph glyph-name="copyright" unicode="&#xa9;" horiz-adv-x="1648" 
d="M748 -25q-154 0 -281.5 56.5t-210.5 153.5t-120 232.5t-15 289.5q28 205 147 372.5t300 263t386 95.5t359 -95.5t226 -263t44 -372.5q-22 -154 -97.5 -289.5t-186 -232.5t-254 -153.5t-297.5 -56.5zM772 154q232 0 411.5 158.5t213.5 394.5q21 155 -33 282t-169 199
t-267 72q-232 0 -410.5 -158.5t-212.5 -394.5q-21 -155 32.5 -282t168.5 -199t266 -72zM807 322q-166 0 -260.5 110.5t-71.5 274.5q23 165 149 275t291 110q111 0 193.5 -51.5t118.5 -139.5l-199 -96q-40 82 -141 82q-76 0 -134 -52t-69 -128t32.5 -128.5t119.5 -52.5
q100 0 163 82l175 -96q-63 -88 -159.5 -139t-207.5 -51z" />
    <glyph glyph-name="ordfeminine" unicode="&#xaa;" horiz-adv-x="768" 
d="M618 1415h197l-78 -557h-196l8 60q-79 -76 -176 -76q-115 0 -181 84.5t-49 210.5q19 126 108 210.5t204 84.5q95 0 155 -76zM444 1016q50 0 89.5 34.5t46.5 86.5v2q7 51 -22.5 84.5t-80.5 33.5t-89.5 -34t-45.5 -86t22 -86.5t80 -34.5z" />
    <glyph glyph-name="guillemotleft" unicode="&#xab;" horiz-adv-x="1300" 
d="M752 958l-371 -417l252 -418h-311l-254 418l370 417h314zM1296 958l-370 -417l254 -418h-312l-254 418l371 417h311z" />
    <glyph glyph-name="logicalnot" unicode="&#xac;" horiz-adv-x="1093" 
d="M147 725h857l-78 -549h-244l45 309h-614z" />
    <glyph glyph-name="uni00AD" unicode="&#xad;" horiz-adv-x="835" 
d="M106 432l37 258h598l-36 -258h-599z" />
    <glyph glyph-name="registered" unicode="&#xae;" horiz-adv-x="870" 
d="M565 1438q161 0 253 -108t69 -271q-22 -161 -144.5 -269t-283.5 -108q-163 0 -256 108t-70 269q22 163 145.5 271t286.5 108zM786 1059q19 121 -49 201.5t-186 80.5q-120 0 -210.5 -80t-107.5 -202q-17 -120 51 -200.5t187 -80.5q118 0 208 80.5t107 200.5zM569 1266
q55 0 87 -36.5t24 -92.5q-6 -39 -30 -70.5t-58 -46.5l63 -137h-102l-55 125h-29l-16 -125h-93l54 383h155zM494 1182l-13 -92h56q20 0 35 13.5t18 33.5t-8 32.5t-31 12.5h-57z" />
    <glyph glyph-name="macron" unicode="&#xaf;" horiz-adv-x="540" 
d="M92 1182l33 223h541l-33 -223h-541z" />
    <glyph glyph-name="degree" unicode="&#xb0;" horiz-adv-x="792" 
d="M434 793q-141 0 -221.5 92.5t-60.5 230.5q19 137 126 229.5t246 92.5q141 0 222 -92.5t61 -229.5q-19 -138 -126 -230.5t-247 -92.5zM463 999q49 0 86 33.5t45 83.5q6 50 -21.5 82.5t-76.5 32.5q-50 0 -87.5 -33t-43.5 -82q-6 -50 21.5 -83.5t76.5 -33.5z" />
    <glyph glyph-name="plusminus" unicode="&#xb1;" horiz-adv-x="1093" 
d="M719 885h307l-35 -240h-307l-33 -235h-241l32 235h-305l33 240h305l33 233h244zM53 61l35 240h856l-35 -240h-856z" />
    <glyph glyph-name="uni00B2" unicode="&#xb2;" horiz-adv-x="661" 
d="M719 1350q-16 -125 -141 -238l-199 -180h293l-25 -182h-567l22 157l318 293q92 87 98 137q4 36 -20.5 58t-65.5 22q-82 0 -166 -84l-114 125q56 70 141.5 112t177.5 42q126 0 194.5 -73.5t53.5 -188.5z" />
    <glyph glyph-name="uni00B3" unicode="&#xb3;" horiz-adv-x="696" 
d="M758 1376q-7 -58 -43 -106t-92 -78q55 -31 81 -85.5t17 -121.5q-15 -110 -115.5 -180t-243.5 -70q-91 0 -172 31.5t-127 87.5l132 143q30 -35 79.5 -55t102.5 -20q61 0 102 26t47 66q6 41 -28 67.5t-90 26.5h-121l24 166h119q51 0 85.5 21t39.5 53q4 33 -29.5 55
t-87.5 22q-44 0 -90 -14.5t-78 -38.5l-84 139q57 46 138.5 73.5t162.5 27.5q133 0 209 -66t62 -170z" />
    <glyph glyph-name="acute" unicode="&#xb4;" horiz-adv-x="542" 
d="M90 1159l248 293h334l-301 -293h-281z" />
    <glyph glyph-name="paragraph" unicode="&#xb6;" 
d="M1298 1413l-254 -1802h-229l223 1577h-143l-223 -1577h-228l134 946h-86q-183 0 -289 122.5t-80 305.5q25 183 164.5 305.5t322.5 122.5h688z" />
    <glyph glyph-name="periodcentered" unicode="&#xb7;" horiz-adv-x="610" 
d="M285 377q-80 0 -126 53t-34 131q10 78 71.5 131t141.5 53q79 0 124 -52.5t36 -131.5q-12 -78 -73 -131t-140 -53z" />
    <glyph glyph-name="cedilla" unicode="&#xb8;" horiz-adv-x="477" 
d="M201 -59q83 -5 130 -66t34 -149q-12 -96 -92 -161t-187 -65q-137 0 -215 105l109 110q49 -69 124 -69q38 0 67 23t34 57q6 33 -15 56t-57 23q-37 0 -65 -28l-140 67l148 156v4h184v-4z" />
    <glyph glyph-name="uni00B9" unicode="&#xb9;" horiz-adv-x="503" 
d="M424 1597h139l-119 -847h-194l88 614l-135 -70l-62 158z" />
    <glyph glyph-name="ordmasculine" unicode="&#xba;" horiz-adv-x="749" 
d="M420 842q-134 0 -214 84.5t-63 210.5q19 126 122 210.5t237 84.5q135 0 215 -84.5t61 -210.5q-17 -126 -120 -210.5t-238 -84.5zM444 1016q50 0 90.5 34.5t47.5 86.5q6 51 -24 85.5t-81 34.5q-50 0 -89 -34t-46 -86t22 -86.5t80 -34.5z" />
    <glyph glyph-name="guillemotright" unicode="&#xbb;" horiz-adv-x="1300" 
d="M446 958l254 -417l-370 -418h-314l375 418l-256 417h311zM993 958l254 -417l-373 -418h-311l373 418l-256 417h313z" />
    <glyph glyph-name="onequarter" unicode="&#xbc;" horiz-adv-x="1634" 
d="M313 1180l-135 -70l-61 158l282 145h140l-119 -848h-195zM1294 1413h246l-1169 -1413h-244zM1559 336l-29 -182h-80l-23 -154h-194l22 154h-346l-22 157l444 537h215l-71 -512h84zM1087 336h193l41 287z" />
    <glyph glyph-name="onehalf" unicode="&#xbd;" horiz-adv-x="1681" 
d="M313 1180l-135 -70l-61 158l282 145h140l-119 -848h-195zM1294 1413h246l-1169 -1413h-244zM1632 600q-16 -125 -141 -238l-199 -180h293l-24 -182h-568l23 158l317 293q93 88 99 137q4 36 -20.5 58t-65.5 22q-82 0 -166 -84l-115 125q56 70 141.5 111.5t177.5 41.5
q126 0 194.5 -73.5t53.5 -188.5z" />
    <glyph glyph-name="threequarters" unicode="&#xbe;" horiz-adv-x="1744" 
d="M696 801q-15 -110 -115 -180t-243 -70q-91 0 -172 31.5t-127 87.5l131 143q31 -35 80 -55.5t102 -20.5q61 0 102.5 26t47.5 66q6 41 -28.5 68t-90.5 27h-121l25 166h119q51 0 85 20.5t39 52.5q4 34 -29 56t-87 22q-44 0 -90 -14.5t-78 -38.5l-84 139q57 46 138.5 73
t162.5 27q133 0 208.5 -65.5t61.5 -169.5q-7 -58 -43 -106t-92 -78q55 -31 81 -85.5t17 -121.5zM1405 1413h246l-1170 -1413h-243zM1669 336l-29 -182h-79l-23 -154h-195l23 154h-346l-23 157l445 537h215l-72 -512h84zM1198 336h193l41 287z" />
    <glyph glyph-name="questiondown" unicode="&#xbf;" horiz-adv-x="962" 
d="M539 707q-76 0 -120.5 50.5t-35.5 127.5q10 76 70 127t137 51t120.5 -50.5t34.5 -127.5q-10 -76 -69 -127t-137 -51zM373 -393q-194 0 -307.5 114t-88.5 279q11 78 54 148.5t97.5 121t108.5 95t94 89.5t46 87l6 49h281l-7 -49q-10 -67 -51 -129.5t-94 -110.5
t-105.5 -92.5t-91.5 -92.5t-45 -93q-9 -63 34 -103.5t122 -40.5q82 0 166 43t156 121l157 -186q-110 -118 -248.5 -184t-283.5 -66z" />
    <glyph glyph-name="Agrave" unicode="&#xc0;" horiz-adv-x="1466" 
d="M1030 1528h-280l-222 293h334zM1061 0l-62 274h-606l-139 -274h-305l743 1413h334l344 -1413h-309zM524 535h416l-129 567z" />
    <glyph glyph-name="Aacute" unicode="&#xc1;" horiz-adv-x="1466" 
d="M1300 1821l-301 -293h-280l248 293h333zM1061 0l-62 274h-606l-139 -274h-305l743 1413h334l344 -1413h-309zM524 535h416l-129 567z" />
    <glyph glyph-name="Acircumflex" unicode="&#xc2;" horiz-adv-x="1466" 
d="M895 1677l-135 -149h-250l244 293h321l162 -293h-250zM1061 0l-62 274h-606l-139 -274h-305l743 1413h334l344 -1413h-309zM524 535h416l-129 567z" />
    <glyph glyph-name="Atilde" unicode="&#xc3;" horiz-adv-x="1466" 
d="M786 1624q-35 0 -60 -22.5t-30 -55.5h-188q18 127 90 209t182 82q51 0 92 -22t73 -44t61 -22q33 0 58 24t30 58h188q-18 -129 -90 -210t-184 -81q-51 0 -91.5 21t-71.5 42t-59 21zM1061 0l-62 274h-606l-139 -274h-305l743 1413h334l344 -1413h-309zM524 535h416
l-129 567z" />
    <glyph glyph-name="Adieresis" unicode="&#xc4;" horiz-adv-x="1466" 
d="M653 1526q-65 0 -102.5 42.5t-28.5 106.5q9 63 58.5 106.5t113.5 43.5t101 -43.5t28 -106.5q-7 -64 -56.5 -106.5t-113.5 -42.5zM1094 1526q-63 0 -100.5 42.5t-30.5 106.5q9 63 59.5 106.5t114.5 43.5t101 -43.5t28 -106.5q-7 -64 -57 -106.5t-115 -42.5zM1061 0
l-62 274h-606l-139 -274h-305l743 1413h334l344 -1413h-309zM524 535h416l-129 567z" />
    <glyph glyph-name="Aring" unicode="&#xc5;" horiz-adv-x="1466" 
d="M870 1503q-89 0 -141.5 58.5t-40.5 146.5t80.5 146.5t159.5 58.5q89 0 140.5 -58.5t39.5 -146.5t-80.5 -146.5t-157.5 -58.5zM829 1708q-5 -31 12 -51.5t48 -20.5q29 0 52.5 20.5t27.5 51.5q3 31 -14 51.5t-46 20.5q-31 0 -54 -20.5t-26 -51.5zM1061 0l-62 274h-606
l-139 -274h-305l743 1413h334l344 -1413h-309zM524 535h416l-129 567z" />
    <glyph glyph-name="AE" unicode="&#xc6;" horiz-adv-x="1863" 
d="M1855 1147h-583l-43 -303h518l-39 -266h-516l-45 -312h594l-37 -266h-877l37 268h-489l-193 -268h-321l1022 1413h1009zM561 528h340l84 588z" />
    <glyph glyph-name="Ccedilla" unicode="&#xc7;" horiz-adv-x="1488" 
d="M778 248q119 0 225.5 52t180.5 144l223 -151q-105 -130 -254 -211t-319 -100l-43 -43q83 -5 129.5 -66t33.5 -149q-12 -96 -91.5 -161t-186.5 -65q-137 0 -215 105l108 110q49 -69 125 -69q38 0 67 23t34 57q6 33 -15 56t-57 23q-38 0 -66 -28l-139 67l131 138
q-185 21 -320 120.5t-196.5 258t-34.5 348.5q28 205 149 372.5t305.5 263t393.5 95.5q196 0 347.5 -85t230.5 -233l-264 -151q-50 92 -141.5 144t-211.5 52q-194 0 -342 -131t-176 -327t83.5 -327.5t305.5 -131.5z" />
    <glyph glyph-name="Egrave" unicode="&#xc8;" horiz-adv-x="1189" 
d="M922 1528h-281l-221 293h334zM1182 1147h-668l-43 -303h600l-37 -266h-600l-45 -312h678l-37 -266h-960l198 1413h951z" />
    <glyph glyph-name="Eacute" unicode="&#xc9;" horiz-adv-x="1189" 
d="M1194 1821l-301 -293h-281l248 293h334zM1182 1147h-668l-43 -303h600l-37 -266h-600l-45 -312h678l-37 -266h-960l198 1413h951z" />
    <glyph glyph-name="Ecircumflex" unicode="&#xca;" horiz-adv-x="1189" 
d="M786 1677l-135 -149h-250l244 293h322l161 -293h-249zM1182 1147h-668l-43 -303h600l-37 -266h-600l-45 -312h678l-37 -266h-960l198 1413h951z" />
    <glyph glyph-name="Edieresis" unicode="&#xcb;" horiz-adv-x="1189" 
d="M545 1526q-65 0 -102.5 42.5t-28.5 106.5q9 63 58.5 106.5t113.5 43.5t101 -43.5t28 -106.5q-7 -64 -56.5 -106.5t-113.5 -42.5zM985 1526q-63 0 -100.5 42.5t-30.5 106.5q9 63 59.5 106.5t114.5 43.5t101 -43.5t28 -106.5q-7 -64 -57 -106.5t-115 -42.5zM1182 1147h-668
l-43 -303h600l-37 -266h-600l-45 -312h678l-37 -266h-960l198 1413h951z" />
    <glyph glyph-name="Igrave" unicode="&#xcc;" horiz-adv-x="569" 
d="M301 1528l-221 293h334l168 -293h-281zM70 0l198 1413h283l-199 -1413h-282z" />
    <glyph glyph-name="Iacute" unicode="&#xcd;" horiz-adv-x="569" 
d="M272 1528l248 293h334l-301 -293h-281zM70 0l198 1413h283l-199 -1413h-282z" />
    <glyph glyph-name="Icircumflex" unicode="&#xce;" horiz-adv-x="569" 
d="M449 1677l-136 -149h-250l244 293h322l162 -293h-250zM70 0l198 1413h283l-199 -1413h-282z" />
    <glyph glyph-name="Idieresis" unicode="&#xcf;" horiz-adv-x="569" 
d="M207 1526q-65 0 -102.5 42.5t-28.5 106.5q9 63 58.5 106.5t113.5 43.5t101 -43.5t28 -106.5q-7 -64 -56.5 -106.5t-113.5 -42.5zM647 1526q-63 0 -100.5 42.5t-30.5 106.5q9 63 59.5 106.5t114.5 43.5t101 -43.5t28 -106.5q-7 -64 -57 -106.5t-115 -42.5zM70 0l198 1413
h283l-199 -1413h-282z" />
    <glyph glyph-name="Eth" unicode="&#xd0;" horiz-adv-x="1488" 
d="M821 1413q203 0 355.5 -92t223.5 -253.5t44 -360.5q-21 -149 -94.5 -280t-182.5 -225t-250.5 -148t-293.5 -54h-553l86 610h-131l28 191h129l86 612h553zM1153 707q26 189 -81 314.5t-294 125.5h-264l-49 -346h215l-29 -191h-213l-49 -344h264q187 0 329.5 126t170.5 315
z" />
    <glyph glyph-name="Ntilde" unicode="&#xd1;" horiz-adv-x="1499" 
d="M811 1624q-35 0 -60 -22.5t-30 -55.5h-189q18 127 90.5 209t182.5 82q40 0 75 -13.5t55.5 -30.5t45.5 -30.5t49 -13.5q33 0 58 24t30 58h189q-18 -129 -90.5 -210t-184.5 -81q-40 0 -74.5 13t-54.5 29t-44.5 29t-47.5 13zM1198 1413h283l-199 -1413h-287l-512 928
l-131 -928h-282l198 1413h287l512 -928z" />
    <glyph glyph-name="Ograve" unicode="&#xd2;" horiz-adv-x="1634" 
d="M834 1528l-222 293h334l168 -293h-280zM739 -25q-209 0 -366 95.5t-230.5 263.5t-44.5 373q28 205 149 372.5t305.5 263t393.5 95.5q157 0 287 -56t215 -153t123.5 -232.5t17.5 -289.5q-29 -205 -150.5 -373t-306 -263.5t-393.5 -95.5zM778 248q194 0 343 131.5
t177 327.5t-84.5 327t-306.5 131t-342 -131t-176 -327t83.5 -327.5t305.5 -131.5z" />
    <glyph glyph-name="Oacute" unicode="&#xd3;" horiz-adv-x="1634" 
d="M805 1528l248 293h333l-301 -293h-280zM739 -25q-209 0 -366 95.5t-230.5 263.5t-44.5 373q28 205 149 372.5t305.5 263t393.5 95.5q157 0 287 -56t215 -153t123.5 -232.5t17.5 -289.5q-29 -205 -150.5 -373t-306 -263.5t-393.5 -95.5zM778 248q194 0 343 131.5
t177 327.5t-84.5 327t-306.5 131t-342 -131t-176 -327t83.5 -327.5t305.5 -131.5z" />
    <glyph glyph-name="Ocircumflex" unicode="&#xd4;" horiz-adv-x="1634" 
d="M979 1677l-135 -149h-250l244 293h321l162 -293h-250zM946 1438q157 0 287 -56t215 -153t123.5 -232.5t17.5 -289.5q-29 -205 -150.5 -373t-306 -263.5t-393.5 -95.5t-366 95.5t-230.5 263.5t-44.5 373q28 205 149 372.5t305.5 263t393.5 95.5zM1298 707
q28 196 -84.5 327t-306.5 131t-342 -131t-176 -327t83.5 -327.5t305.5 -131.5t343 131.5t177 327.5z" />
    <glyph glyph-name="Otilde" unicode="&#xd5;" horiz-adv-x="1634" 
d="M1092 1540q-51 0 -91.5 21t-71.5 42t-59 21q-35 0 -60 -22.5t-30 -55.5h-188q18 127 90 209t182 82q51 0 92 -22t73 -44t61 -22q33 0 58 24t30 58h188q-18 -129 -90 -210t-184 -81zM739 -25q-209 0 -366 95.5t-230.5 263.5t-44.5 373q28 205 149 372.5t305.5 263
t393.5 95.5q157 0 287 -56t215 -153t123.5 -232.5t17.5 -289.5q-29 -205 -150.5 -373t-306 -263.5t-393.5 -95.5zM778 248q194 0 343 131.5t177 327.5t-84.5 327t-306.5 131t-342 -131t-176 -327t83.5 -327.5t305.5 -131.5z" />
    <glyph glyph-name="Odieresis" unicode="&#xd6;" horiz-adv-x="1634" 
d="M737 1526q-65 0 -102.5 42.5t-28.5 106.5q9 63 58.5 106.5t113.5 43.5t101 -43.5t28 -106.5q-7 -64 -56.5 -106.5t-113.5 -42.5zM1178 1526q-63 0 -100.5 42.5t-30.5 106.5q9 63 59.5 106.5t114.5 43.5t101 -43.5t28 -106.5q-7 -64 -57 -106.5t-115 -42.5zM739 -25
q-209 0 -366 95.5t-230.5 263.5t-44.5 373q28 205 149 372.5t305.5 263t393.5 95.5q157 0 287 -56t215 -153t123.5 -232.5t17.5 -289.5q-29 -205 -150.5 -373t-306 -263.5t-393.5 -95.5zM778 248q194 0 343 131.5t177 327.5t-84.5 327t-306.5 131t-342 -131t-176 -327
t83.5 -327.5t305.5 -131.5z" />
    <glyph glyph-name="multiply" unicode="&#xd7;" horiz-adv-x="1017" 
d="M942 819l-246 -215l185 -215l-199 -176l-184 215l-246 -215l-152 176l246 215l-184 215l198 176l185 -215l246 215z" />
    <glyph glyph-name="Oslash" unicode="&#xd8;" horiz-adv-x="1634" 
d="M1667 1413l-203 -203q165 -205 125 -503q-29 -205 -150.5 -373t-306 -263.5t-393.5 -95.5q-229 0 -395 115l-92 -90h-236l205 205q-79 99 -111.5 227.5t-11.5 274.5q28 205 149 372.5t305.5 263t393.5 95.5q230 0 395 -115l91 90h235zM389 707q-21 -166 51 -283l686 684
q-94 57 -219 57q-194 0 -342 -131t-176 -327zM1298 707q23 158 -53 284l-686 -686q91 -57 219 -57q194 0 343 131.5t177 327.5z" />
    <glyph glyph-name="Ugrave" unicode="&#xd9;" horiz-adv-x="1404" 
d="M719 1528l-221 293h333l168 -293h-280zM625 -25q-165 0 -288.5 74.5t-181 205.5t-34.5 292l121 866h282l-121 -862q-19 -129 56 -216t205 -87t228.5 87t117.5 216l120 862h283l-121 -866q-23 -161 -118 -292t-239.5 -205.5t-309.5 -74.5z" />
    <glyph glyph-name="Uacute" unicode="&#xda;" horiz-adv-x="1404" 
d="M690 1528l248 293h334l-301 -293h-281zM625 -25q-165 0 -288.5 74.5t-181 205.5t-34.5 292l121 866h282l-121 -862q-19 -129 56 -216t205 -87t228.5 87t117.5 216l120 862h283l-121 -866q-23 -161 -118 -292t-239.5 -205.5t-309.5 -74.5z" />
    <glyph glyph-name="Ucircumflex" unicode="&#xdb;" horiz-adv-x="1404" 
d="M864 1677l-135 -149h-250l244 293h321l162 -293h-250zM1130 1413h283l-121 -866q-23 -161 -118 -292t-239.5 -205.5t-309.5 -74.5t-288.5 74.5t-181 205.5t-34.5 292l121 866h282l-121 -862q-19 -129 56 -216t205 -87t228.5 87t117.5 216z" />
    <glyph glyph-name="Udieresis" unicode="&#xdc;" horiz-adv-x="1404" 
d="M623 1526q-65 0 -102.5 42.5t-28.5 106.5q9 63 58.5 106.5t113.5 43.5t101 -43.5t28 -106.5q-7 -64 -56.5 -106.5t-113.5 -42.5zM1063 1526q-63 0 -100.5 42.5t-30.5 106.5q9 63 59.5 106.5t114.5 43.5t101 -43.5t28 -106.5q-7 -64 -57 -106.5t-115 -42.5zM625 -25
q-165 0 -288.5 74.5t-181 205.5t-34.5 292l121 866h282l-121 -862q-19 -129 56 -216t205 -87t228.5 87t117.5 216l120 862h283l-121 -866q-23 -161 -118 -292t-239.5 -205.5t-309.5 -74.5z" />
    <glyph glyph-name="Yacute" unicode="&#xdd;" horiz-adv-x="1380" 
d="M1260 1821l-302 -293h-280l248 293h334zM1192 1413h315l-680 -917l-69 -496h-283l70 496l-422 917h323l285 -633z" />
    <glyph glyph-name="Thorn" unicode="&#xde;" horiz-adv-x="1282" 
d="M852 1180q135 0 238 -61.5t151.5 -169.5t30.5 -240q-29 -202 -187.5 -336.5t-365.5 -134.5h-334l-33 -238h-282l198 1413h283l-33 -233h334zM981 709q12 88 -37 146t-135 58h-328l-57 -409h328q86 0 150.5 58t78.5 147z" />
    <glyph glyph-name="germandbls" unicode="&#xdf;" horiz-adv-x="1157" 
d="M1143 1092q-13 -103 -77.5 -190.5t-158.5 -135.5q101 -39 154.5 -138.5t36.5 -228.5q-26 -181 -171.5 -302.5t-340.5 -121.5q-88 0 -158 25l37 258q55 -25 125 -25q96 0 161 57.5t76 141.5q12 87 -38 146t-134 59h-92l35 256h74q70 0 126.5 49.5t65.5 122.5
q10 76 -38 126t-132 50q-89 0 -155 -57t-78 -144l-148 -1040h-266l150 1063q26 186 177 311t355 125q131 0 232 -54t149.5 -147.5t32.5 -205.5z" />
    <glyph glyph-name="agrave" unicode="&#xe0;" 
d="M907 1159h-280l-221 293h333zM991 1044h266l-147 -1044h-266l18 125q-160 -150 -362 -150q-143 0 -249.5 71.5t-155 196.5t-27.5 279q32 233 200.5 390t386.5 157q205 0 318 -149zM588 233q124 0 217.5 82t112.5 205v2q15 124 -54.5 206.5t-193.5 82.5q-123 0 -217 -83
t-111 -206t53 -206t193 -83z" />
    <glyph glyph-name="aacute" unicode="&#xe1;" 
d="M1180 1452l-301 -293h-281l248 293h334zM991 1044h266l-147 -1044h-266l18 125q-160 -150 -362 -150q-143 0 -249.5 71.5t-155 196.5t-27.5 279q32 233 200.5 390t386.5 157q205 0 318 -149zM588 233q124 0 217.5 82t112.5 205v2q15 124 -54.5 206.5t-193.5 82.5
q-123 0 -217 -83t-111 -206t53 -206t193 -83z" />
    <glyph glyph-name="acircumflex" unicode="&#xe2;" 
d="M774 1309l-135 -150h-250l244 293h321l162 -293h-250zM991 1044h266l-147 -1044h-266l18 125q-160 -150 -362 -150q-143 0 -249.5 71.5t-155 196.5t-27.5 279q32 233 200.5 390t386.5 157q205 0 318 -149zM588 233q124 0 217.5 82t112.5 205v2q15 124 -54.5 206.5
t-193.5 82.5q-123 0 -217 -83t-111 -206t53 -206t193 -83z" />
    <glyph glyph-name="atilde" unicode="&#xe3;" 
d="M666 1255q-35 0 -60.5 -22t-30.5 -55h-188q18 127 90 208.5t182 81.5q51 0 92 -22t73 -44t61 -22q33 0 58 24t30 58h188q-18 -129 -90 -210t-184 -81q-40 0 -74.5 13t-54.5 29t-44.5 29t-47.5 13zM991 1044h266l-147 -1044h-266l18 125q-160 -150 -362 -150
q-143 0 -249.5 71.5t-155 196.5t-27.5 279q32 233 200.5 390t386.5 157q205 0 318 -149zM588 233q124 0 217.5 82t112.5 205v2q15 124 -54.5 206.5t-193.5 82.5q-123 0 -217 -83t-111 -206t53 -206t193 -83z" />
    <glyph glyph-name="adieresis" unicode="&#xe4;" 
d="M532 1157q-65 0 -102.5 43t-28.5 107q9 63 58.5 106t113.5 43t101 -43t28 -106q-7 -64 -56.5 -107t-113.5 -43zM973 1157q-63 0 -100.5 43t-30.5 107q9 63 59 106t115 43q64 0 101 -43t28 -106q-7 -64 -57 -107t-115 -43zM991 1044h266l-147 -1044h-266l18 125
q-160 -150 -362 -150q-143 0 -249.5 71.5t-155 196.5t-27.5 279q32 233 200.5 390t386.5 157q205 0 318 -149zM588 233q124 0 217.5 82t112.5 205v2q15 124 -54.5 206.5t-193.5 82.5q-123 0 -217 -83t-111 -206t53 -206t193 -83z" />
    <glyph glyph-name="aring" unicode="&#xe5;" 
d="M750 1135q-90 0 -142.5 58.5t-40.5 145.5q12 88 80.5 146.5t159.5 58.5q89 0 140.5 -58.5t39.5 -146.5t-80 -146t-157 -58zM709 1339q-5 -31 11.5 -51t47.5 -20q29 0 52.5 20t27.5 51q3 31 -14 51.5t-46 20.5q-31 0 -53.5 -20.5t-25.5 -51.5zM991 1044h266l-147 -1044
h-266l18 125q-160 -150 -362 -150q-143 0 -249.5 71.5t-155 196.5t-27.5 279q32 233 200.5 390t386.5 157q205 0 318 -149zM588 233q124 0 217.5 82t112.5 205v2q15 124 -54.5 206.5t-193.5 82.5q-123 0 -217 -83t-111 -206t53 -206t193 -83z" />
    <glyph glyph-name="ae" unicode="&#xe6;" horiz-adv-x="1890" 
d="M1360 1069q116 0 211.5 -42t158 -114.5t89.5 -175.5t10 -221q-10 -65 -17 -84h-811q12 -102 84 -161.5t185 -59.5q87 0 165.5 36t129.5 91l161 -154q-97 -99 -226 -154t-271 -55q-124 0 -224.5 45.5t-166.5 126.5q-77 -77 -195 -124.5t-252 -47.5q-189 0 -291 94t-80 236
q19 138 142.5 230t292.5 92h303l4 28q12 85 -46.5 136t-166.5 51q-148 0 -248 -103l-135 152q73 83 185 130.5t243 47.5q120 0 212.5 -41t147.5 -115q177 156 406 156zM1325 836q-96 0 -175.5 -57t-119.5 -152h531q-12 95 -77 152t-159 57zM461 190q79 0 157.5 31.5
t137.5 83.5q-16 67 -19 127h-264q-73 0 -122.5 -33.5t-55.5 -83.5q-9 -54 37.5 -89.5t128.5 -35.5z" />
    <glyph glyph-name="ccedilla" unicode="&#xe7;" horiz-adv-x="1144" 
d="M584 233q81 0 153 38.5t119 103.5l211 -139q-76 -101 -186 -167.5t-238 -86.5l-45 -43q83 -5 130 -66t34 -149q-12 -96 -92 -161t-187 -65q-137 0 -215 105l109 110q49 -69 125 -69q38 0 66.5 23t33.5 57q6 33 -15 56t-57 23q-37 0 -65 -28l-139 67l133 140
q-202 29 -313.5 179.5t-82.5 360.5q21 153 112.5 278.5t230.5 197t296 71.5q156 0 272 -69.5t173 -190.5l-252 -139q-27 64 -87 102.5t-142 38.5q-123 0 -217 -83t-111 -206t53 -206t193 -83z" />
    <glyph glyph-name="egrave" unicode="&#xe8;" horiz-adv-x="1226" 
d="M870 1159h-280l-221 293h333zM696 1069q154 0 270 -71t169.5 -197t31.5 -281q-8 -60 -20 -94h-809q14 -99 85 -157t183 -58q91 0 173 36.5t132 92.5l158 -156q-97 -98 -228 -153.5t-276 -55.5q-248 0 -391 158t-111 393q34 232 215.5 387.5t417.5 155.5zM659 836
q-96 0 -177.5 -59t-119.5 -156h535q-10 98 -75 156.5t-163 58.5z" />
    <glyph glyph-name="eacute" unicode="&#xe9;" horiz-adv-x="1226" 
d="M1143 1452l-301 -293h-281l248 293h334zM696 1069q154 0 270 -71t169.5 -197t31.5 -281q-8 -60 -20 -94h-809q14 -99 85 -157t183 -58q91 0 173 36.5t132 92.5l158 -156q-97 -98 -228 -153.5t-276 -55.5q-248 0 -391 158t-111 393q34 232 215.5 387.5t417.5 155.5z
M659 836q-96 0 -177.5 -59t-119.5 -156h535q-10 98 -75 156.5t-163 58.5z" />
    <glyph glyph-name="ecircumflex" unicode="&#xea;" horiz-adv-x="1226" 
d="M737 1309l-135 -150h-250l244 293h322l161 -293h-250zM696 1069q154 0 270 -71t169.5 -197t31.5 -281q-8 -60 -20 -94h-809q14 -99 85 -157t183 -58q91 0 173 36.5t132 92.5l158 -156q-97 -98 -228 -153.5t-276 -55.5q-248 0 -391 158t-111 393q34 232 215.5 387.5
t417.5 155.5zM659 836q-96 0 -177.5 -59t-119.5 -156h535q-10 98 -75 156.5t-163 58.5z" />
    <glyph glyph-name="edieresis" unicode="&#xeb;" horiz-adv-x="1226" 
d="M496 1157q-65 0 -102.5 43t-28.5 107q9 63 58.5 106t113.5 43t101 -43t28 -106q-7 -64 -56.5 -107t-113.5 -43zM936 1157q-63 0 -100.5 43t-30.5 107q9 63 59 106t115 43q64 0 101 -43t28 -106q-7 -64 -57 -107t-115 -43zM696 1069q154 0 270 -71t169.5 -197t31.5 -281
q-8 -60 -20 -94h-809q14 -99 85 -157t183 -58q91 0 173 36.5t132 92.5l158 -156q-97 -98 -228 -153.5t-276 -55.5q-248 0 -391 158t-111 393q34 232 215.5 387.5t417.5 155.5zM659 836q-96 0 -177.5 -59t-119.5 -156h535q-10 98 -75 156.5t-163 58.5z" />
    <glyph glyph-name="igrave" unicode="&#xec;" horiz-adv-x="520" 
d="M225 1159l-221 293h334l168 -293h-281zM53 0l148 1044h266l-148 -1044h-266z" />
    <glyph glyph-name="iacute" unicode="&#xed;" horiz-adv-x="520" 
d="M197 1159l247 293h334l-301 -293h-280zM53 0l148 1044h266l-148 -1044h-266z" />
    <glyph glyph-name="icircumflex" unicode="&#xee;" horiz-adv-x="520" 
d="M371 1309l-135 -150h-250l243 293h322l162 -293h-250zM53 0l148 1044h266l-148 -1044h-266z" />
    <glyph glyph-name="idieresis" unicode="&#xef;" horiz-adv-x="520" 
d="M129 1157q-65 0 -102.5 43t-28.5 107q9 63 58.5 106t113.5 43t101 -43t28 -106q-7 -64 -56.5 -107t-113.5 -43zM569 1157q-63 0 -100.5 43t-30.5 107q9 63 59 106t115 43q64 0 101 -43t28 -106q-7 -64 -57 -107t-115 -43zM53 0l148 1044h266l-148 -1044h-266z" />
    <glyph glyph-name="eth" unicode="&#xf0;" horiz-adv-x="1193" 
d="M807 1339q185 -131 271 -347t52 -457q-24 -173 -112.5 -301.5t-216.5 -193.5t-279 -65q-231 0 -362.5 149t-100.5 372q20 144 103.5 263t206 186t256.5 67q114 0 202 -54q-80 122 -211 195l-79 -78h-197l139 135q-80 24 -147 29l37 252q173 -12 315 -78l80 78h197z
M850 494q17 112 -46.5 186t-174.5 74t-195.5 -74t-99.5 -186t48 -186.5t173 -74.5q111 0 195.5 74.5t99.5 186.5z" />
    <glyph glyph-name="ntilde" unicode="&#xf1;" horiz-adv-x="1243" 
d="M635 1255q-35 0 -60 -22t-30 -55h-189q18 127 90.5 208.5t182.5 81.5q40 0 75 -14t55.5 -30t45.5 -30t49 -14q33 0 58 24t30 58h188q-18 -129 -90 -210t-184 -81q-40 0 -74.5 13t-54.5 29t-44.5 29t-47.5 13zM803 1069q185 0 279.5 -110.5t68.5 -294.5l-92 -664h-266
l81 578q15 106 -38.5 169.5t-157.5 63.5q-103 0 -177.5 -58.5t-97.5 -156.5l-84 -596h-266l148 1044h266l-16 -116q147 141 352 141z" />
    <glyph glyph-name="ograve" unicode="&#xf2;" horiz-adv-x="1249" 
d="M590 1159l-221 293h333l168 -293h-280zM547 -25q-239 0 -377.5 157t-106.5 390q21 153 112.5 278.5t230.5 197t296 71.5q239 0 377.5 -157t106.5 -390q-21 -153 -112.5 -278.5t-230.5 -197t-296 -71.5zM584 233q124 0 218 83t109 206q17 124 -52 206.5t-193 82.5
q-123 0 -217 -83t-111 -206t53 -206t193 -83z" />
    <glyph glyph-name="oacute" unicode="&#xf3;" horiz-adv-x="1249" 
d="M561 1159l248 293h334l-301 -293h-281zM547 -25q-239 0 -377.5 157t-106.5 390q21 153 112.5 278.5t230.5 197t296 71.5q239 0 377.5 -157t106.5 -390q-21 -153 -112.5 -278.5t-230.5 -197t-296 -71.5zM584 233q124 0 218 83t109 206q17 124 -52 206.5t-193 82.5
q-123 0 -217 -83t-111 -206t53 -206t193 -83z" />
    <glyph glyph-name="ocircumflex" unicode="&#xf4;" horiz-adv-x="1249" 
d="M737 1309l-135 -150h-250l244 293h322l161 -293h-250zM702 1069q239 0 377.5 -157t106.5 -390q-21 -153 -112.5 -278.5t-230.5 -197t-296 -71.5q-239 0 -377.5 157t-106.5 390q21 153 112.5 278.5t230.5 197t296 71.5zM911 522q17 124 -52 206.5t-193 82.5
q-123 0 -217 -83t-111 -206t53 -206t193 -83q124 0 218 83t109 206z" />
    <glyph glyph-name="otilde" unicode="&#xf5;" horiz-adv-x="1249" 
d="M850 1171q-40 0 -74.5 13t-54.5 29t-44.5 29t-47.5 13q-35 0 -60 -22t-30 -55h-189q18 127 90.5 208.5t182.5 81.5q40 0 75 -14t55.5 -30t45.5 -30t49 -14q33 0 58 24t30 58h188q-18 -129 -90 -210t-184 -81zM547 -25q-239 0 -377.5 157t-106.5 390q21 153 112.5 278.5
t230.5 197t296 71.5q239 0 377.5 -157t106.5 -390q-21 -153 -112.5 -278.5t-230.5 -197t-296 -71.5zM584 233q124 0 218 83t109 206q17 124 -52 206.5t-193 82.5q-123 0 -217 -83t-111 -206t53 -206t193 -83z" />
    <glyph glyph-name="odieresis" unicode="&#xf6;" horiz-adv-x="1249" 
d="M496 1157q-65 0 -102.5 43t-28.5 107q9 63 58.5 106t113.5 43t101 -43t28 -106q-7 -64 -56.5 -107t-113.5 -43zM936 1157q-63 0 -100.5 43t-30.5 107q9 63 59 106t115 43q64 0 101 -43t28 -106q-7 -64 -57 -107t-115 -43zM547 -25q-239 0 -377.5 157t-106.5 390
q21 153 112.5 278.5t230.5 197t296 71.5q239 0 377.5 -157t106.5 -390q-21 -153 -112.5 -278.5t-230.5 -197t-296 -71.5zM584 233q124 0 218 83t109 206q17 124 -52 206.5t-193 82.5q-123 0 -217 -83t-111 -206t53 -206t193 -83z" />
    <glyph glyph-name="divide" unicode="&#xf7;" horiz-adv-x="1093" 
d="M590 823q-62 0 -98 41t-27 101q7 61 54.5 102t109.5 41t98 -41t27 -102q-7 -60 -54.5 -101t-109.5 -41zM115 496l30 221h856l-30 -221h-856zM487 102q-61 0 -97 41t-28 103q9 60 56 100.5t108 40.5q62 0 98 -40.5t29 -100.5q-9 -61 -56.5 -102.5t-109.5 -41.5z" />
    <glyph glyph-name="oslash" unicode="&#xf8;" horiz-adv-x="1249" 
d="M1257 1044l-159 -153q118 -153 88 -369q-21 -153 -112.5 -278.5t-230.5 -197t-296 -71.5q-171 0 -299 88l-66 -63h-190l160 154q-119 154 -89 368q21 153 112.5 278.5t230.5 197t296 71.5q171 0 299 -88l66 63h190zM338 522q-13 -96 24 -162l433 420q-57 31 -129 31
q-123 0 -217 -83t-111 -206zM911 522q13 95 -24 164l-432 -422q57 -31 129 -31q124 0 218 83t109 206z" />
    <glyph glyph-name="ugrave" unicode="&#xf9;" horiz-adv-x="1196" 
d="M561 1159l-221 293h334l168 -293h-281zM520 -25q-221 0 -337.5 120.5t-88.5 320.5l90 628h267l-86 -591q-12 -100 40 -160t152 -60t170 60.5t82 159.5l84 591h266l-88 -628q-28 -199 -179.5 -320t-371.5 -121z" />
    <glyph glyph-name="uacute" unicode="&#xfa;" horiz-adv-x="1196" 
d="M532 1159l248 293h334l-301 -293h-281zM520 -25q-221 0 -337.5 120.5t-88.5 320.5l90 628h267l-86 -591q-12 -100 40 -160t152 -60t170 60.5t82 159.5l84 591h266l-88 -628q-28 -199 -179.5 -320t-371.5 -121z" />
    <glyph glyph-name="ucircumflex" unicode="&#xfb;" horiz-adv-x="1196" 
d="M709 1309l-136 -150h-249l243 293h322l162 -293h-250zM893 1044h266l-88 -628q-28 -199 -179.5 -320t-371.5 -121q-221 0 -337.5 120.5t-88.5 320.5l90 628h267l-86 -591q-12 -100 40 -160t152 -60t170 60.5t82 159.5z" />
    <glyph glyph-name="udieresis" unicode="&#xfc;" horiz-adv-x="1196" 
d="M467 1157q-65 0 -102.5 43t-28.5 107q9 63 58.5 106t113.5 43t101 -43t28 -106q-7 -64 -56.5 -107t-113.5 -43zM907 1157q-63 0 -100.5 43t-30.5 107q9 63 59 106t115 43q64 0 101 -43t28 -106q-7 -64 -57 -107t-115 -43zM520 -25q-221 0 -337.5 120.5t-88.5 320.5
l90 628h267l-86 -591q-12 -100 40 -160t152 -60t170 60.5t82 159.5l84 591h266l-88 -628q-28 -199 -179.5 -320t-371.5 -121z" />
    <glyph glyph-name="yacute" unicode="&#xfd;" horiz-adv-x="1163" 
d="M1100 1452l-301 -293h-281l248 293h334zM930 1044h297l-688 -1226q-60 -107 -154 -169.5t-197 -62.5q-71 0 -143 29t-119 76l133 209q46 -56 121 -56q80 0 129 82l56 90l-281 1028h303l172 -710z" />
    <glyph glyph-name="thorn" unicode="&#xfe;" 
d="M811 1069q143 0 249 -71.5t154 -196.5t27 -279q-32 -233 -200 -390t-386 -157q-204 0 -319 150l-72 -514h-266l262 1864h266l-77 -557q154 151 362 151zM967 522q17 124 -52.5 206.5t-193.5 82.5q-123 0 -217 -83t-111 -206t53 -206t193 -83q125 0 219 83t109 206z" />
    <glyph glyph-name="ydieresis" unicode="&#xff;" horiz-adv-x="1163" 
d="M451 1157q-65 0 -103 43t-29 107q9 63 59 106t114 43t101 -43t28 -106q-7 -64 -56.5 -107t-113.5 -43zM891 1157q-63 0 -100.5 43t-30.5 107q9 63 59 106t115 43q64 0 101 -43t28 -106q-7 -64 -57 -107t-115 -43zM930 1044h297l-688 -1226q-60 -107 -154 -169.5
t-197 -62.5q-71 0 -143 29t-119 76l133 209q46 -56 121 -56q80 0 129 82l56 90l-281 1028h303l172 -710z" />
    <glyph glyph-name="Amacron" unicode="&#x100;" horiz-adv-x="1466" 
d="M1180 1774l-33 -224h-541l33 224h541zM1061 0l-62 274h-606l-139 -274h-305l743 1413h334l344 -1413h-309zM524 535h416l-129 567z" />
    <glyph glyph-name="amacron" unicode="&#x101;" 
d="M1059 1405l-33 -223h-541l33 223h541zM991 1044h266l-147 -1044h-266l18 125q-160 -150 -362 -150q-143 0 -249.5 71.5t-155 196.5t-27.5 279q32 233 200.5 390t386.5 157q205 0 318 -149zM588 233q124 0 217.5 82t112.5 205v2q15 124 -54.5 206.5t-193.5 82.5
q-123 0 -217 -83t-111 -206t53 -206t193 -83z" />
    <glyph glyph-name="Abreve" unicode="&#x102;" horiz-adv-x="1466" 
d="M870 1507q-138 0 -217.5 89t-60.5 221h205q-6 -53 21.5 -86t78.5 -33q50 0 89 33.5t46 85.5h205q-19 -132 -124 -221t-243 -89zM1061 0l-62 274h-606l-139 -274h-305l743 1413h334l344 -1413h-309zM524 535h416l-129 567z" />
    <glyph glyph-name="abreve" unicode="&#x103;" 
d="M750 1139q-138 0 -218 88.5t-61 220.5h205q-6 -53 21.5 -86t78.5 -33q50 0 89 33.5t46 85.5h205q-19 -132 -123.5 -220.5t-242.5 -88.5zM991 1044h266l-147 -1044h-266l18 125q-160 -150 -362 -150q-143 0 -249.5 71.5t-155 196.5t-27.5 279q32 233 200.5 390t386.5 157
q205 0 318 -149zM588 233q124 0 217.5 82t112.5 205v2q15 124 -54.5 206.5t-193.5 82.5q-123 0 -217 -83t-111 -206t53 -206t193 -83z" />
    <glyph glyph-name="Aogonek" unicode="&#x104;" horiz-adv-x="1466" 
d="M1368 0q-231 -95 -244 -207q-7 -42 19 -67t65 -25q48 0 105 31l37 -164q-94 -57 -211 -57t-182.5 63.5t-51.5 161.5q12 84 79 154.5t165 109.5h-88l-62 274h-606l-139 -274h-305l743 1413h334l344 -1413h-2zM524 535h416l-129 567z" />
    <glyph glyph-name="aogonek" unicode="&#x105;" 
d="M991 1044h266l-147 -1044h-4q-231 -95 -244 -207q-7 -42 19 -67t65 -25q48 0 105 31l36 -164q-94 -57 -210 -57q-117 0 -182.5 63.5t-51.5 161.5q12 84 79 154.5t165 109.5h-43l18 125q-160 -150 -362 -150q-143 0 -249.5 71.5t-155 196.5t-27.5 279q32 233 200.5 390
t386.5 157q205 0 318 -149zM588 233q124 0 217.5 82t112.5 205v2q15 124 -54.5 206.5t-193.5 82.5q-123 0 -217 -83t-111 -206t53 -206t193 -83z" />
    <glyph glyph-name="Cacute" unicode="&#x106;" horiz-adv-x="1488" 
d="M805 1528l248 293h333l-301 -293h-280zM739 -25q-209 0 -366 95.5t-230.5 263.5t-44.5 373q28 205 149 372.5t305.5 263t393.5 95.5q196 0 347.5 -85t230.5 -233l-264 -151q-50 92 -141.5 144t-211.5 52q-194 0 -342 -131t-176 -327t83.5 -327.5t305.5 -131.5
q119 0 225.5 52t180.5 144l223 -151q-120 -148 -296 -233t-372 -85z" />
    <glyph glyph-name="cacute" unicode="&#x107;" horiz-adv-x="1144" 
d="M561 1159l248 293h334l-301 -293h-281zM547 -25q-239 0 -377.5 157t-106.5 390q21 153 112.5 278.5t230.5 197t296 71.5q156 0 272 -69.5t173 -190.5l-252 -139q-27 64 -87 102.5t-142 38.5q-123 0 -217 -83t-111 -206t53 -206t193 -83q81 0 153 38.5t119 103.5l211 -139
q-91 -121 -227.5 -191t-292.5 -70z" />
    <glyph glyph-name="Ccircumflex" unicode="&#x108;" horiz-adv-x="1488" 
d="M979 1677l-135 -149h-250l244 293h321l162 -293h-250zM778 248q119 0 225.5 52t180.5 144l223 -151q-120 -148 -296 -233t-372 -85q-209 0 -366 95.5t-230.5 263.5t-44.5 373q28 205 149 372.5t305.5 263t393.5 95.5q196 0 347.5 -85t230.5 -233l-264 -151
q-50 92 -141.5 144t-211.5 52q-194 0 -342 -131t-176 -327t83.5 -327.5t305.5 -131.5z" />
    <glyph glyph-name="ccircumflex" unicode="&#x109;" horiz-adv-x="1144" 
d="M737 1309l-135 -150h-250l244 293h322l161 -293h-250zM584 233q81 0 153 38.5t119 103.5l211 -139q-91 -121 -227.5 -191t-292.5 -70q-239 0 -377.5 157t-106.5 390q21 153 112.5 278.5t230.5 197t296 71.5q156 0 272 -69.5t173 -190.5l-252 -139q-27 64 -87 102.5
t-142 38.5q-123 0 -217 -83t-111 -206t53 -206t193 -83z" />
    <glyph glyph-name="Cdotaccent" unicode="&#x10a;" horiz-adv-x="1488" 
d="M958 1526q-68 0 -107 44t-30 111t61.5 112.5t118.5 45.5q68 0 107.5 -45.5t30.5 -112.5t-61 -111t-120 -44zM739 -25q-209 0 -366 95.5t-230.5 263.5t-44.5 373q28 205 149 372.5t305.5 263t393.5 95.5q196 0 347.5 -85t230.5 -233l-264 -151q-50 92 -141.5 144
t-211.5 52q-194 0 -342 -131t-176 -327t83.5 -327.5t305.5 -131.5q119 0 225.5 52t180.5 144l223 -151q-120 -148 -296 -233t-372 -85z" />
    <glyph glyph-name="cdotaccent" unicode="&#x10b;" horiz-adv-x="1144" 
d="M715 1157q-68 0 -107 44.5t-30 111.5t61 112t119 45q68 0 107 -45t30 -112t-60.5 -111.5t-119.5 -44.5zM547 -25q-239 0 -377.5 157t-106.5 390q21 153 112.5 278.5t230.5 197t296 71.5q156 0 272 -69.5t173 -190.5l-252 -139q-27 64 -87 102.5t-142 38.5
q-123 0 -217 -83t-111 -206t53 -206t193 -83q81 0 153 38.5t119 103.5l211 -139q-91 -121 -227.5 -191t-292.5 -70z" />
    <glyph glyph-name="Ccaron" unicode="&#x10c;" horiz-adv-x="1488" 
d="M1118 1528h-321l-162 293h250l92 -150l135 150h250zM778 248q119 0 225.5 52t180.5 144l223 -151q-120 -148 -296 -233t-372 -85q-209 0 -366 95.5t-230.5 263.5t-44.5 373q28 205 149 372.5t305.5 263t393.5 95.5q196 0 347.5 -85t230.5 -233l-264 -151
q-50 92 -141.5 144t-211.5 52q-194 0 -342 -131t-176 -327t83.5 -327.5t305.5 -131.5z" />
    <glyph glyph-name="ccaron" unicode="&#x10d;" horiz-adv-x="1144" 
d="M877 1159h-322l-162 293h250l92 -149l135 149h250zM584 233q81 0 153 38.5t119 103.5l211 -139q-91 -121 -227.5 -191t-292.5 -70q-239 0 -377.5 157t-106.5 390q21 153 112.5 278.5t230.5 197t296 71.5q156 0 272 -69.5t173 -190.5l-252 -139q-27 64 -87 102.5
t-142 38.5q-123 0 -217 -83t-111 -206t53 -206t193 -83z" />
    <glyph glyph-name="Dcaron" unicode="&#x10e;" horiz-adv-x="1488" 
d="M1030 1528h-321l-162 293h250l92 -150l135 150h250zM821 1413q203 0 355.5 -92t223.5 -253.5t44 -360.5q-21 -149 -94.5 -280t-182.5 -225t-250.5 -148t-293.5 -54h-553l198 1413h553zM1153 707q26 189 -81 314.5t-294 125.5h-264l-125 -881h264q187 0 329.5 126
t170.5 315z" />
    <glyph glyph-name="dcaron" unicode="&#x10f;" horiz-adv-x="1505" 
d="M965 909l79 566h267l-207 -1475h-266l18 135q-72 -76 -164.5 -118t-195.5 -42q-143 0 -250 71.5t-155.5 197t-27.5 278.5q32 233 201 390t387 157q103 0 183.5 -42t130.5 -118zM1464 1475h242l-145 -455h-201zM584 233q118 0 209.5 75.5t113.5 191.5l6 39
q11 118 -58.5 195t-188.5 77q-123 0 -217 -83t-111 -206t53 -206t193 -83z" />
    <glyph glyph-name="Dcroat" unicode="&#x110;" horiz-adv-x="1488" 
d="M821 1413q203 0 355.5 -92t223.5 -253.5t44 -360.5q-21 -149 -94.5 -280t-182.5 -225t-250.5 -148t-293.5 -54h-553l86 610h-131l28 191h129l86 612h553zM1153 707q26 189 -81 314.5t-294 125.5h-264l-49 -346h215l-29 -191h-213l-49 -344h264q187 0 329.5 126t170.5 315
z" />
    <glyph glyph-name="dcroat" unicode="&#x111;" 
d="M1427 1339l-28 -190h-127l-162 -1149h-266l18 125q-160 -150 -362 -150q-143 0 -249.5 71.5t-155 196.5t-27.5 279q32 233 200.5 390t386.5 157q207 0 318 -149l33 229h-234l29 190h231l19 136h266l-19 -136h129zM588 233q119 0 211.5 77.5t115.5 193.5l5 33
q9 118 -60.5 196t-189.5 78q-123 0 -217 -83t-111 -206t53 -206t193 -83z" />
    <glyph glyph-name="Emacron" unicode="&#x112;" horiz-adv-x="1189" 
d="M1071 1774l-33 -224h-540l32 224h541zM1182 1147h-668l-43 -303h600l-37 -266h-600l-45 -312h678l-37 -266h-960l198 1413h951z" />
    <glyph glyph-name="emacron" unicode="&#x113;" horiz-adv-x="1226" 
d="M1022 1405l-33 -223h-540l32 223h541zM696 1069q154 0 270 -71t169.5 -197t31.5 -281q-8 -60 -20 -94h-809q14 -99 85 -157t183 -58q91 0 173 36.5t132 92.5l158 -156q-97 -98 -228 -153.5t-276 -55.5q-248 0 -391 158t-111 393q34 232 215.5 387.5t417.5 155.5zM659 836
q-96 0 -177.5 -59t-119.5 -156h535q-10 98 -75 156.5t-163 58.5z" />
    <glyph glyph-name="Ebreve" unicode="&#x114;" horiz-adv-x="1189" 
d="M762 1507q-138 0 -218 89t-61 221h205q-6 -53 21.5 -86t78.5 -33q50 0 89.5 33.5t46.5 85.5h204q-19 -132 -123.5 -221t-242.5 -89zM1182 1147h-668l-43 -303h600l-37 -266h-600l-45 -312h678l-37 -266h-960l198 1413h951z" />
    <glyph glyph-name="ebreve" unicode="&#x115;" horiz-adv-x="1226" 
d="M713 1139q-138 0 -218 88.5t-61 220.5h205q-6 -53 21.5 -86t78.5 -33q50 0 89 33.5t46 85.5h205q-19 -132 -123.5 -220.5t-242.5 -88.5zM696 1069q154 0 270 -71t169.5 -197t31.5 -281q-8 -60 -20 -94h-809q14 -99 85 -157t183 -58q91 0 173 36.5t132 92.5l158 -156
q-97 -98 -228 -153.5t-276 -55.5q-248 0 -391 158t-111 393q34 232 215.5 387.5t417.5 155.5zM659 836q-96 0 -177.5 -59t-119.5 -156h535q-10 98 -75 156.5t-163 58.5z" />
    <glyph glyph-name="Edotaccent" unicode="&#x116;" horiz-adv-x="1189" 
d="M766 1526q-68 0 -107 44t-30 111t61.5 112.5t118.5 45.5q68 0 107 -45.5t30 -112.5t-60.5 -111t-119.5 -44zM1182 1147h-668l-43 -303h600l-37 -266h-600l-45 -312h678l-37 -266h-960l198 1413h951z" />
    <glyph glyph-name="edotaccent" unicode="&#x117;" horiz-adv-x="1226" 
d="M715 1157q-68 0 -107 44.5t-30 111.5t61 112t119 45q68 0 107 -45t30 -112t-60.5 -111.5t-119.5 -44.5zM696 1069q154 0 270 -71t169.5 -197t31.5 -281q-8 -60 -20 -94h-809q14 -99 85 -157t183 -58q91 0 173 36.5t132 92.5l158 -156q-97 -98 -228 -153.5t-276 -55.5
q-248 0 -391 158t-111 393q34 232 215.5 387.5t417.5 155.5zM659 836q-96 0 -177.5 -59t-119.5 -156h535q-10 98 -75 156.5t-163 58.5z" />
    <glyph glyph-name="Eogonek" unicode="&#x118;" horiz-adv-x="1189" 
d="M1182 1147h-668l-43 -303h600l-37 -266h-600l-45 -312h678l-37 -266h-10q-231 -95 -244 -207q-7 -42 19 -67t65 -25q48 0 105 31l36 -164q-94 -57 -210 -57q-117 0 -182.5 63.5t-51.5 161.5q12 84 79 154.5t165 109.5h-731l198 1413h951z" />
    <glyph glyph-name="eogonek" unicode="&#x119;" horiz-adv-x="1226" 
d="M696 1069q154 0 270 -71t169.5 -197t31.5 -281q-8 -60 -20 -94h-809q14 -99 85 -157t183 -58q91 0 173 36.5t132 92.5l158 -156q-112 -112 -264 -168q-155 -105 -168 -211q-7 -46 17.5 -74t66.5 -28q48 0 102 35l39 -164q-97 -63 -223 -63q-114 0 -178 66.5t-49 172.5
q18 126 131 225q-239 8 -375.5 164.5t-104.5 386.5q34 232 215.5 387.5t417.5 155.5zM659 836q-96 0 -177.5 -59t-119.5 -156h535q-10 98 -75 156.5t-163 58.5z" />
    <glyph glyph-name="Ecaron" unicode="&#x11a;" horiz-adv-x="1189" 
d="M926 1528h-322l-162 293h250l92 -150l136 150h249zM1182 1147h-668l-43 -303h600l-37 -266h-600l-45 -312h678l-37 -266h-960l198 1413h951z" />
    <glyph glyph-name="ecaron" unicode="&#x11b;" horiz-adv-x="1226" 
d="M877 1159h-322l-162 293h250l92 -149l135 149h250zM696 1069q154 0 270 -71t169.5 -197t31.5 -281q-8 -60 -20 -94h-809q14 -99 85 -157t183 -58q91 0 173 36.5t132 92.5l158 -156q-97 -98 -228 -153.5t-276 -55.5q-248 0 -391 158t-111 393q34 232 215.5 387.5
t417.5 155.5zM659 836q-96 0 -177.5 -59t-119.5 -156h535q-10 98 -75 156.5t-163 58.5z" />
    <glyph glyph-name="Gcircumflex" unicode="&#x11c;" horiz-adv-x="1589" 
d="M979 1677l-135 -149h-250l244 293h321l162 -293h-250zM885 795h682l-15 -99q-28 -205 -144 -370t-293.5 -258t-381.5 -93q-156 0 -285 56.5t-213 153.5t-121.5 232.5t-15.5 289.5q28 205 149 372.5t305.5 263t393.5 95.5q184 0 329 -74t222 -203l-237 -170
q-52 83 -142.5 129.5t-204.5 46.5q-197 0 -346.5 -131t-177.5 -329t84 -329.5t309 -131.5q153 0 276 82t173 215h-381z" />
    <glyph glyph-name="gcircumflex" unicode="&#x11d;" horiz-adv-x="1155" 
d="M1155 1202h86l-33 -246h-73q-42 0 -73.5 -20t-43.5 -55q72 -118 51 -271q-19 -129 -98 -234t-199 -164.5t-258 -59.5q-87 0 -170 26q-56 -32 -63 -90q-6 -38 20.5 -63t73.5 -25h342q156 0 248 -81.5t98 -225.5l-285 -74q3 57 -37.5 91t-109.5 34h-342q-146 0 -224 77
t-61 202q10 79 58.5 150.5t117.5 111.5q-119 131 -92 325q28 197 186 328t369 131q121 0 221 -49q35 91 121 139h-211l-92 150l-135 -150h-250l244 293h321l154 -278q64 28 139 28zM795 610q12 89 -41.5 148t-145.5 59q-94 0 -165 -59t-81 -148q-13 -89 40 -148t147 -59
q93 0 163.5 59t82.5 148z" />
    <glyph glyph-name="Gbreve" unicode="&#x11e;" horiz-adv-x="1589" 
d="M954 1507q-138 0 -217.5 89t-60.5 221h205q-6 -53 21.5 -86t78.5 -33q50 0 89 33.5t46 85.5h205q-19 -132 -124 -221t-243 -89zM885 795h682l-15 -99q-28 -205 -144 -370t-293.5 -258t-381.5 -93q-156 0 -285 56.5t-213 153.5t-121.5 232.5t-15.5 289.5q28 205 149 372.5
t305.5 263t393.5 95.5q184 0 329 -74t222 -203l-237 -170q-52 83 -142.5 129.5t-204.5 46.5q-197 0 -346.5 -131t-177.5 -329t84 -329.5t309 -131.5q153 0 276 82t173 215h-381z" />
    <glyph glyph-name="gbreve" unicode="&#x11f;" horiz-adv-x="1155" 
d="M657 1139q-138 0 -217.5 88.5t-60.5 220.5h205q-6 -53 21.5 -86t78.5 -33q50 0 89 33.5t46 85.5h205q-19 -132 -124 -220.5t-243 -88.5zM1155 1202h86l-33 -246h-73q-42 0 -73.5 -20t-43.5 -55q72 -118 51 -271q-19 -129 -98 -234t-199 -164.5t-258 -59.5q-87 0 -170 26
q-56 -32 -63 -90q-6 -38 20.5 -63t73.5 -25h342q156 0 248 -81.5t98 -225.5l-285 -74q3 57 -37.5 91t-109.5 34h-342q-146 0 -224 77t-61 202q10 79 58.5 150.5t117.5 111.5q-119 131 -92 325q28 197 186 328t369 131q121 0 221 -49q34 85 112 133.5t179 48.5zM795 610
q12 89 -41.5 148t-145.5 59q-94 0 -165 -59t-81 -148q-13 -89 40 -148t147 -59q93 0 163.5 59t82.5 148z" />
    <glyph glyph-name="Gdotaccent" unicode="&#x120;" horiz-adv-x="1589" 
d="M958 1526q-68 0 -107 44t-30 111t61.5 112.5t118.5 45.5q68 0 107.5 -45.5t30.5 -112.5t-61 -111t-120 -44zM885 795h682l-15 -99q-28 -205 -144 -370t-293.5 -258t-381.5 -93q-156 0 -285 56.5t-213 153.5t-121.5 232.5t-15.5 289.5q28 205 149 372.5t305.5 263
t393.5 95.5q184 0 329 -74t222 -203l-237 -170q-52 83 -142.5 129.5t-204.5 46.5q-197 0 -346.5 -131t-177.5 -329t84 -329.5t309 -131.5q153 0 276 82t173 215h-381z" />
    <glyph glyph-name="gdotaccent" unicode="&#x121;" horiz-adv-x="1155" 
d="M659 1157q-68 0 -107 44.5t-30 111.5t61 112t119 45q68 0 107.5 -45t30.5 -112t-61 -111.5t-120 -44.5zM1155 1202h86l-33 -246h-73q-42 0 -73.5 -20t-43.5 -55q72 -118 51 -271q-19 -129 -98 -234t-199 -164.5t-258 -59.5q-87 0 -170 26q-56 -32 -63 -90
q-6 -38 20.5 -63t73.5 -25h342q156 0 248 -81.5t98 -225.5l-285 -74q3 57 -37.5 91t-109.5 34h-342q-146 0 -224 77t-61 202q10 79 58.5 150.5t117.5 111.5q-119 131 -92 325q28 197 186 328t369 131q121 0 221 -49q34 85 112 133.5t179 48.5zM795 610q12 89 -41.5 148
t-145.5 59q-94 0 -165 -59t-81 -148q-13 -89 40 -148t147 -59q93 0 163.5 59t82.5 148z" />
    <glyph glyph-name="uni0122" unicode="&#x122;" horiz-adv-x="1589" 
d="M885 795h682l-15 -99q-28 -205 -144 -370t-293.5 -258t-381.5 -93q-156 0 -285 56.5t-213 153.5t-121.5 232.5t-15.5 289.5q28 205 149 372.5t305.5 263t393.5 95.5q184 0 329 -74t222 -203l-237 -170q-52 83 -142.5 129.5t-204.5 46.5q-197 0 -346.5 -131t-177.5 -329
t84 -329.5t309 -131.5q153 0 276 82t173 215h-381zM487 -461l134 348h274l-188 -348h-220z" />
    <glyph glyph-name="uni0123" unicode="&#x123;" horiz-adv-x="1155" 
d="M887 1501l-133 -348h-275l189 348h219zM1155 1202h86l-33 -246h-73q-42 0 -73.5 -20t-43.5 -55q72 -118 51 -271q-19 -129 -98 -234t-199 -164.5t-258 -59.5q-87 0 -170 26q-56 -32 -63 -90q-6 -38 20.5 -63t73.5 -25h342q156 0 248 -81.5t98 -225.5l-285 -74
q3 57 -37.5 91t-109.5 34h-342q-146 0 -224 77t-61 202q10 79 58.5 150.5t117.5 111.5q-119 131 -92 325q28 197 186 328t369 131q121 0 221 -49q34 85 112 133.5t179 48.5zM795 610q12 89 -41.5 148t-145.5 59q-94 0 -165 -59t-81 -148q-13 -89 40 -148t147 -59
q93 0 163.5 59t82.5 148z" />
    <glyph glyph-name="Hcircumflex" unicode="&#x124;" horiz-adv-x="1478" 
d="M903 1677l-135 -149h-250l244 293h321l162 -293h-250zM1178 1413h282l-198 -1413h-283l82 578h-627l-82 -578h-282l198 1413h283l-80 -569h627z" />
    <glyph glyph-name="hcircumflex" unicode="&#x125;" horiz-adv-x="1243" 
d="M426 1706l-135 -150h-250l244 293h321l162 -293h-250zM803 1069q185 0 279.5 -110.5t68.5 -294.5l-92 -664h-266l81 578q15 106 -38.5 169.5t-157.5 63.5q-105 0 -180 -60.5t-97 -162.5l-82 -588h-266l207 1475h266l-77 -555q149 149 354 149z" />
    <glyph glyph-name="Hbar" unicode="&#x126;" horiz-adv-x="1478" 
d="M1546 1212l-28 -194h-113l-143 -1018h-283l82 578h-627l-82 -578h-282l143 1018h-113l29 194h111l28 201h283l-29 -201h627l29 201h282l-28 -201h114zM1098 844l24 174h-626l-25 -174h627z" />
    <glyph glyph-name="hbar" unicode="&#x127;" horiz-adv-x="1243" 
d="M803 1069q185 0 279.5 -110.5t68.5 -294.5l-92 -664h-266l81 578q15 106 -38.5 169.5t-157.5 63.5q-105 0 -180 -60.5t-97 -162.5l-82 -588h-266l162 1149h-129l29 190h127l18 136h266l-18 -136h233l-28 -190h-232l-32 -229q149 149 354 149z" />
    <glyph glyph-name="Itilde" unicode="&#x128;" horiz-adv-x="569" 
d="M561 1540q-40 0 -74.5 13t-54.5 29t-44.5 29t-47.5 13q-35 0 -60 -22.5t-30 -55.5h-189q18 127 90.5 209t182.5 82q40 0 75 -13.5t55.5 -30.5t45.5 -30.5t49 -13.5q33 0 58 24t30 58h189q-18 -129 -90.5 -210t-184.5 -81zM70 0l198 1413h283l-199 -1413h-282z" />
    <glyph glyph-name="itilde" unicode="&#x129;" horiz-adv-x="520" 
d="M483 1171q-40 0 -74.5 13t-54.5 29t-44.5 29t-47.5 13q-35 0 -60 -22t-30 -55h-188q18 127 90 208.5t182 81.5q40 0 75 -14t55.5 -30t45.5 -30t49 -14q33 0 58 24t30 58h189q-18 -129 -90.5 -210t-184.5 -81zM53 0l148 1044h266l-148 -1044h-266z" />
    <glyph glyph-name="Imacron" unicode="&#x12a;" horiz-adv-x="569" 
d="M160 1550l33 224h540l-33 -224h-540zM70 0l198 1413h283l-199 -1413h-282z" />
    <glyph glyph-name="imacron" unicode="&#x12b;" horiz-adv-x="520" 
d="M82 1182l33 223h540l-32 -223h-541zM53 0l148 1044h266l-148 -1044h-266z" />
    <glyph glyph-name="Ibreve" unicode="&#x12c;" horiz-adv-x="569" 
d="M424 1507q-138 0 -218 89t-61 221h205q-6 -53 22 -86t79 -33q50 0 89 33.5t46 85.5h205q-19 -132 -124 -221t-243 -89zM70 0l198 1413h283l-199 -1413h-282z" />
    <glyph glyph-name="ibreve" unicode="&#x12d;" horiz-adv-x="520" 
d="M346 1139q-138 0 -217.5 88.5t-60.5 220.5h204q-6 -53 22 -86t79 -33q50 0 89 33.5t46 85.5h205q-19 -132 -124 -220.5t-243 -88.5zM53 0l148 1044h266l-148 -1044h-266z" />
    <glyph glyph-name="Iogonek" unicode="&#x12e;" horiz-adv-x="569" 
d="M268 1413h283l-199 -1413h-2q-231 -95 -244 -207q-7 -42 19 -67t65 -25q48 0 105 31l37 -164q-94 -57 -211 -57t-182.5 63.5t-51.5 161.5q12 84 79 154.5t165 109.5h-61z" />
    <glyph glyph-name="iogonek" unicode="&#x12f;" horiz-adv-x="520" 
d="M393 1470q68 0 107 -45t30 -112t-60.5 -111.5t-119.5 -44.5t-107 44.5t-30 111.5t61 112t119 45zM53 0l148 1044h266l-148 -1044h-2q-230 -94 -243 -207q-7 -42 19 -67t65 -25q47 0 104 31l37 -164q-94 -57 -211 -57t-182 63.5t-51 161.5q12 84 78.5 154.5t164.5 109.5
h-45z" />
    <glyph glyph-name="Idotaccent" unicode="&#x130;" horiz-adv-x="569" 
d="M426 1526q-68 0 -107 44t-30 111t61.5 112.5t118.5 45.5q68 0 107 -45.5t30 -112.5t-60.5 -111t-119.5 -44zM70 0l198 1413h283l-199 -1413h-282z" />
    <glyph glyph-name="dotlessi" unicode="&#x131;" horiz-adv-x="520" 
d="M53 0l148 1044h266l-148 -1044h-266z" />
    <glyph glyph-name="IJ" unicode="&#x132;" horiz-adv-x="1454" 
d="M70 0l198 1413h283l-199 -1413h-282zM774 -25q-126 0 -221 45l37 271q91 -43 192 -43q110 0 181 56.5t84 158.5l133 950h282l-135 -964q-32 -221 -182 -347.5t-371 -126.5z" />
    <glyph glyph-name="ij" unicode="&#x133;" horiz-adv-x="1050" 
d="M354 1198q-71 0 -112 48t-31 118q11 71 65.5 118.5t124.5 47.5q71 0 112.5 -48t31.5 -118q-9 -70 -64 -118t-127 -48zM885 1198q-71 0 -112.5 48t-31.5 118t65 118t126 48t112 -48t31 -118q-9 -71 -63.5 -118.5t-126.5 -47.5zM53 0l148 1044h266l-148 -1044h-266z
M465 -414q-83 0 -141 25l34 239q39 -20 91 -20q111 0 126 111l156 1103h266l-159 -1134q-21 -150 -116.5 -237t-256.5 -87z" />
    <glyph glyph-name="Jcircumflex" unicode="&#x134;" horiz-adv-x="884" 
d="M788 1677l-135 -149h-250l244 293h322l161 -293h-249zM477 463l133 950h283l-135 -964q-32 -221 -182 -347.5t-371 -126.5q-126 0 -221 45l36 271q91 -43 193 -43q110 0 180.5 56.5t83.5 158.5z" />
    <glyph glyph-name="jcircumflex" unicode="&#x135;" horiz-adv-x="530" 
d="M381 1309l-135 -150h-250l244 293h321l162 -293h-250zM55 -59l156 1103h266l-160 -1134q-21 -150 -116 -237t-256 -87q-84 0 -142 25l35 239q39 -20 90 -20q112 0 127 111z" />
    <glyph glyph-name="uni0136" unicode="&#x136;" horiz-adv-x="1363" 
d="M1491 1413l-721 -682l549 -731h-369l-391 530l-153 -145l-54 -385h-282l198 1413h283l-90 -645l669 645h361zM377 -461l133 348h274l-188 -348h-219z" />
    <glyph glyph-name="uni0137" unicode="&#x137;" horiz-adv-x="1122" 
d="M1196 1044l-516 -483l383 -561h-348l-252 360l-107 -100l-37 -260h-266l207 1475h266l-120 -859l446 428h344zM258 -461l133 348h275l-189 -348h-219z" />
    <glyph glyph-name="Lacute" unicode="&#x139;" horiz-adv-x="1091" 
d="M854 1821l-301 -293h-281l248 293h334zM389 266h617l-37 -266h-899l198 1413h283z" />
    <glyph glyph-name="lacute" unicode="&#x13a;" horiz-adv-x="520" 
d="M252 1556l248 293h334l-302 -293h-280zM53 0l207 1475h266l-207 -1475h-266z" />
    <glyph glyph-name="uni013B" unicode="&#x13b;" horiz-adv-x="1091" 
d="M389 266h617l-37 -266h-899l198 1413h283zM250 -461l133 348h274l-188 -348h-219z" />
    <glyph glyph-name="uni013C" unicode="&#x13c;" horiz-adv-x="520" 
d="M53 0l207 1475h266l-207 -1475h-266zM-70 -461l133 348h275l-188 -348h-220z" />
    <glyph glyph-name="Lcaron" unicode="&#x13d;" horiz-adv-x="1091" 
d="M389 266h617l-37 -266h-899l198 1413h283zM987 1413l-147 -455h-201l106 455h242z" />
    <glyph glyph-name="lcaron" unicode="&#x13e;" horiz-adv-x="720" 
d="M53 0l207 1475h266l-207 -1475h-266zM573 1020l107 455h242l-148 -455h-201z" />
    <glyph glyph-name="Ldot" unicode="&#x13f;" horiz-adv-x="1091" 
d="M389 266h617l-37 -266h-899l198 1413h283zM731 569q-70 0 -111 47.5t-32 118.5q11 71 64.5 118.5t123.5 47.5t111.5 -47.5t32.5 -118.5q-9 -70 -63.5 -118t-125.5 -48z" />
    <glyph glyph-name="ldot" unicode="&#x140;" horiz-adv-x="866" 
d="M53 0l207 1475h266l-207 -1475h-266zM664 571q-71 0 -112.5 48t-31.5 118q9 70 63.5 118t125.5 48q70 0 111 -47.5t32 -118.5q-11 -71 -64.5 -118.5t-123.5 -47.5z" />
    <glyph glyph-name="Lslash" unicode="&#x141;" horiz-adv-x="1091" 
d="M389 266h617l-37 -266h-899l67 477l-129 -67l35 258l131 67l94 678h283l-72 -516l238 125l-37 -258l-238 -125z" />
    <glyph glyph-name="lslash" unicode="&#x142;" horiz-adv-x="663" 
d="M678 1020l-35 -244l-156 -84l-96 -692h-266l76 539l-156 -84l35 243l156 84l96 693h266l-76 -539z" />
    <glyph glyph-name="Nacute" unicode="&#x143;" horiz-adv-x="1499" 
d="M1325 1821l-301 -293h-281l248 293h334zM1198 1413h283l-199 -1413h-287l-512 928l-131 -928h-282l198 1413h287l512 -928z" />
    <glyph glyph-name="nacute" unicode="&#x144;" horiz-adv-x="1243" 
d="M1149 1452l-301 -293h-281l248 293h334zM803 1069q185 0 279.5 -110.5t68.5 -294.5l-92 -664h-266l81 578q15 106 -38.5 169.5t-157.5 63.5q-103 0 -177.5 -58.5t-97.5 -156.5l-84 -596h-266l148 1044h266l-16 -116q147 141 352 141z" />
    <glyph glyph-name="uni0145" unicode="&#x145;" horiz-adv-x="1499" 
d="M1198 1413h283l-199 -1413h-287l-512 928l-131 -928h-282l198 1413h287l512 -928zM420 -461l133 348h274l-188 -348h-219z" />
    <glyph glyph-name="uni0146" unicode="&#x146;" horiz-adv-x="1243" 
d="M803 1069q185 0 279.5 -110.5t68.5 -294.5l-92 -664h-266l81 578q15 106 -38.5 169.5t-157.5 63.5q-103 0 -177.5 -58.5t-97.5 -156.5l-84 -596h-266l148 1044h266l-16 -116q147 141 352 141zM301 -461l133 348h275l-189 -348h-219z" />
    <glyph glyph-name="Ncaron" unicode="&#x147;" horiz-adv-x="1499" 
d="M1059 1528h-322l-162 293h250l93 -150l135 150h250zM1198 1413h283l-199 -1413h-287l-512 928l-131 -928h-282l198 1413h287l512 -928z" />
    <glyph glyph-name="ncaron" unicode="&#x148;" horiz-adv-x="1243" 
d="M883 1159h-322l-162 293h250l92 -149l136 149h249zM803 1069q185 0 279.5 -110.5t68.5 -294.5l-92 -664h-266l81 578q15 106 -38.5 169.5t-157.5 63.5q-103 0 -177.5 -58.5t-97.5 -156.5l-84 -596h-266l148 1044h266l-16 -116q147 141 352 141z" />
    <glyph glyph-name="Eng" unicode="&#x14a;" horiz-adv-x="1499" 
d="M1481 1413l-197 -1403l-10 -61q-52 -371 -483 -371l36 258q148 0 166 121l6 43h-4l-512 928l-131 -928h-282l198 1413h287l512 -928l131 928h283z" />
    <glyph glyph-name="eng" unicode="&#x14b;" horiz-adv-x="1243" 
d="M803 1069q185 0 279.5 -110.5t68.5 -294.5l-98 -715q-52 -371 -461 -371l37 258q141 0 159 121l86 621q15 106 -38.5 169.5t-157.5 63.5q-103 0 -177.5 -58.5t-97.5 -156.5l-84 -596h-266l148 1044h266l-16 -116q147 141 352 141z" />
    <glyph glyph-name="Omacron" unicode="&#x14c;" horiz-adv-x="1634" 
d="M690 1550l33 224h541l-33 -224h-541zM739 -25q-209 0 -366 95.5t-230.5 263.5t-44.5 373q28 205 149 372.5t305.5 263t393.5 95.5q157 0 287 -56t215 -153t123.5 -232.5t17.5 -289.5q-29 -205 -150.5 -373t-306 -263.5t-393.5 -95.5zM778 248q194 0 343 131.5t177 327.5
t-84.5 327t-306.5 131t-342 -131t-176 -327t83.5 -327.5t305.5 -131.5z" />
    <glyph glyph-name="omacron" unicode="&#x14d;" horiz-adv-x="1249" 
d="M446 1182l33 223h541l-33 -223h-541zM547 -25q-239 0 -377.5 157t-106.5 390q21 153 112.5 278.5t230.5 197t296 71.5q239 0 377.5 -157t106.5 -390q-21 -153 -112.5 -278.5t-230.5 -197t-296 -71.5zM584 233q124 0 218 83t109 206q17 124 -52 206.5t-193 82.5
q-123 0 -217 -83t-111 -206t53 -206t193 -83z" />
    <glyph glyph-name="Obreve" unicode="&#x14e;" horiz-adv-x="1634" 
d="M954 1507q-138 0 -217.5 89t-60.5 221h205q-6 -53 21.5 -86t78.5 -33q50 0 89 33.5t46 85.5h205q-19 -132 -124 -221t-243 -89zM739 -25q-209 0 -366 95.5t-230.5 263.5t-44.5 373q28 205 149 372.5t305.5 263t393.5 95.5q157 0 287 -56t215 -153t123.5 -232.5
t17.5 -289.5q-29 -205 -150.5 -373t-306 -263.5t-393.5 -95.5zM778 248q194 0 343 131.5t177 327.5t-84.5 327t-306.5 131t-342 -131t-176 -327t83.5 -327.5t305.5 -131.5z" />
    <glyph glyph-name="obreve" unicode="&#x14f;" horiz-adv-x="1249" 
d="M713 1139q-138 0 -218 88.5t-61 220.5h205q-6 -53 21.5 -86t78.5 -33q50 0 89 33.5t46 85.5h205q-19 -132 -123.5 -220.5t-242.5 -88.5zM547 -25q-239 0 -377.5 157t-106.5 390q21 153 112.5 278.5t230.5 197t296 71.5q239 0 377.5 -157t106.5 -390
q-21 -153 -112.5 -278.5t-230.5 -197t-296 -71.5zM584 233q124 0 218 83t109 206q17 124 -52 206.5t-193 82.5q-123 0 -217 -83t-111 -206t53 -206t193 -83z" />
    <glyph glyph-name="Ohungarumlaut" unicode="&#x150;" horiz-adv-x="1634" 
d="M600 1528l215 293h291l-250 -293h-256zM1042 1528l215 293h289l-248 -293h-256zM739 -25q-209 0 -366 95.5t-230.5 263.5t-44.5 373q28 205 149 372.5t305.5 263t393.5 95.5q157 0 287 -56t215 -153t123.5 -232.5t17.5 -289.5q-29 -205 -150.5 -373t-306 -263.5
t-393.5 -95.5zM778 248q194 0 343 131.5t177 327.5t-84.5 327t-306.5 131t-342 -131t-176 -327t83.5 -327.5t305.5 -131.5z" />
    <glyph glyph-name="ohungarumlaut" unicode="&#x151;" horiz-adv-x="1249" 
d="M358 1159l215 293h291l-250 -293h-256zM801 1159l215 293h289l-248 -293h-256zM547 -25q-239 0 -377.5 157t-106.5 390q21 153 112.5 278.5t230.5 197t296 71.5q239 0 377.5 -157t106.5 -390q-21 -153 -112.5 -278.5t-230.5 -197t-296 -71.5zM584 233q124 0 218 83
t109 206q17 124 -52 206.5t-193 82.5q-123 0 -217 -83t-111 -206t53 -206t193 -83z" />
    <glyph glyph-name="OE" unicode="&#x152;" horiz-adv-x="1863" 
d="M1855 1147h-583l-43 -303h518l-39 -266h-516l-45 -312h596l-39 -266h-985q-152 0 -278.5 54t-208.5 148t-118.5 225t-15.5 280q27 199 143.5 360.5t295 253.5t381.5 92h974zM762 266h102l125 881h-102q-188 0 -330 -125.5t-168 -314.5q-28 -189 78.5 -315t294.5 -126z
" />
    <glyph glyph-name="oe" unicode="&#x153;" horiz-adv-x="2074" 
d="M1565 1069q149 0 259.5 -71t161.5 -198t29 -284q-10 -60 -18 -84h-811q12 -102 83.5 -161.5t184.5 -59.5q88 0 167 36.5t128 90.5l164 -154q-95 -98 -220 -153.5t-261 -55.5q-144 0 -254 62t-170 170q-87 -108 -210 -170t-263 -62q-152 0 -268 71.5t-170.5 197
t-33.5 278.5t111.5 278.5t226.5 197t289 71.5q139 0 244 -60.5t162 -166.5q86 106 209 166.5t260 60.5zM1509 836q-96 0 -175.5 -57t-119.5 -152h531q-12 95 -76.5 152t-159.5 57zM913 522q17 124 -53.5 206.5t-193.5 82.5t-217 -82.5t-111 -206.5q-19 -123 52.5 -206
t195.5 -83q122 0 215 82.5t112 206.5z" />
    <glyph glyph-name="Racute" unicode="&#x154;" horiz-adv-x="1296" 
d="M1217 1821l-302 -293h-280l248 293h334zM1284 950q-22 -152 -125 -266.5t-254 -157.5l281 -526h-340l-254 504h-168l-72 -504h-282l198 1413h602q205 0 324 -133t90 -330zM993 948q12 85 -35.5 142t-130.5 57h-313l-57 -397h315q83 0 147 56.5t74 141.5z" />
    <glyph glyph-name="racute" unicode="&#x155;" horiz-adv-x="768" 
d="M948 1452l-301 -293h-280l247 293h334zM449 909q139 152 321 152h45l-39 -275h-43q-138 0 -228.5 -72.5t-113.5 -199.5l-72 -514h-266l148 1044h266z" />
    <glyph glyph-name="uni0156" unicode="&#x156;" horiz-adv-x="1296" 
d="M1284 950q-22 -152 -125 -266.5t-254 -157.5l281 -526h-340l-254 504h-168l-72 -504h-282l198 1413h602q205 0 324 -133t90 -330zM993 948q12 85 -35.5 142t-130.5 57h-313l-57 -397h315q83 0 147 56.5t74 141.5zM319 -461l134 348h274l-188 -348h-220z" />
    <glyph glyph-name="uni0157" unicode="&#x157;" horiz-adv-x="768" 
d="M770 1061h45l-39 -275h-43q-138 0 -228.5 -72.5t-113.5 -199.5l-72 -514h-266l148 1044h266l-18 -135q139 152 321 152zM-70 -461l133 348h275l-188 -348h-220z" />
    <glyph glyph-name="Rcaron" unicode="&#x158;" horiz-adv-x="1296" 
d="M950 1528h-321l-162 293h250l92 -150l135 150h250zM1284 950q-22 -152 -125 -266.5t-254 -157.5l281 -526h-340l-254 504h-168l-72 -504h-282l198 1413h602q205 0 324 -133t90 -330zM993 948q12 85 -35.5 142t-130.5 57h-313l-57 -397h315q83 0 147 56.5t74 141.5z" />
    <glyph glyph-name="rcaron" unicode="&#x159;" horiz-adv-x="768" 
d="M682 1159h-322l-161 293h250l92 -149l135 149h250zM449 909q139 152 321 152h45l-39 -275h-43q-138 0 -228.5 -72.5t-113.5 -199.5l-72 -514h-266l148 1044h266z" />
    <glyph glyph-name="Sacute" unicode="&#x15a;" horiz-adv-x="1228" 
d="M616 1528l248 293h334l-301 -293h-281zM557 -25q-161 0 -310.5 60.5t-244.5 161.5l176 215q75 -83 186.5 -134t227.5 -51q110 0 192.5 46t92.5 118q3 25 -4 46.5t-18.5 37t-37 30.5t-45 24t-56.5 20.5t-57.5 17t-62.5 15.5q-102 25 -181.5 61t-141 88.5t-89 126.5
t-14.5 164q26 188 190.5 302t403.5 114q153 0 273.5 -48t189.5 -128l-162 -213q-52 60 -145 98.5t-195 38.5q-106 0 -180.5 -43t-83.5 -109q-4 -31 9.5 -58t36.5 -45.5t60 -34.5t70.5 -26t77.5 -20q35 -8 67.5 -16.5t84.5 -27.5t94 -41.5t87 -58.5t73.5 -77.5t42.5 -100
t5 -125.5q-18 -124 -105 -222.5t-220 -152t-287 -53.5z" />
    <glyph glyph-name="sacute" unicode="&#x15b;" horiz-adv-x="985" 
d="M432 1159l248 293h334l-301 -293h-281zM410 -25q-251 0 -418 160l155 176q116 -116 287 -116q82 0 138 26t63 72q3 20 -6 37t-23.5 28t-43 22t-52 17.5t-64.5 16.5q-65 15 -102.5 25.5t-93.5 36.5t-84.5 57t-46.5 84.5t-8 121.5q15 107 85 183t169.5 111.5t218.5 35.5
q229 0 385 -137l-154 -178q-115 96 -256 96q-72 0 -122 -23t-56 -67q-3 -20 6 -36.5t23 -27.5t43 -21.5t52 -16.5t64 -15q64 -15 102 -25.5t94 -36.5t84.5 -57.5t46.5 -85t9 -121.5q-23 -161 -161.5 -251.5t-333.5 -90.5z" />
    <glyph glyph-name="Scircumflex" unicode="&#x15c;" horiz-adv-x="1228" 
d="M793 1677l-136 -149h-249l243 293h322l162 -293h-250zM715 850q35 -8 67.5 -16.5t84.5 -27.5t94 -41.5t87 -58.5t73.5 -77.5t42.5 -100t5 -125.5q-18 -124 -105 -222.5t-220 -152t-287 -53.5q-161 0 -310.5 60.5t-244.5 161.5l176 215q75 -83 186.5 -134t227.5 -51
q110 0 192.5 46t92.5 118q3 25 -4 46.5t-18.5 37t-37 30.5t-45 24t-56.5 20.5t-57.5 17t-62.5 15.5q-102 25 -181.5 61t-141 88.5t-89 126.5t-14.5 164q26 188 190.5 302t403.5 114q153 0 273.5 -48t189.5 -128l-162 -213q-52 60 -145 98.5t-195 38.5q-106 0 -180.5 -43
t-83.5 -109q-4 -31 9.5 -58t36.5 -45.5t60 -34.5t70.5 -26t77.5 -20z" />
    <glyph glyph-name="scircumflex" unicode="&#x15d;" horiz-adv-x="985" 
d="M608 1309l-135 -150h-250l244 293h321l162 -293h-250zM569 643q64 -15 102 -25.5t94 -36.5t84.5 -57.5t46.5 -85t9 -121.5q-23 -161 -161.5 -251.5t-333.5 -90.5q-251 0 -418 160l155 176q116 -116 287 -116q82 0 138 26t63 72q3 20 -6 37t-23.5 28t-43 22t-52 17.5
t-64.5 16.5q-65 15 -102.5 25.5t-93.5 36.5t-84.5 57t-46.5 84.5t-8 121.5q15 107 85 183t169.5 111.5t218.5 35.5q229 0 385 -137l-154 -178q-115 96 -256 96q-72 0 -122 -23t-56 -67q-3 -20 6 -36.5t23 -27.5t43 -21.5t52 -16.5t64 -15z" />
    <glyph glyph-name="Scedilla" unicode="&#x15e;" horiz-adv-x="1228" 
d="M715 850q35 -8 67.5 -16.5t84.5 -27.5t94 -41.5t87 -58.5t73.5 -77.5t42.5 -100t5 -125.5q-24 -169 -170.5 -284t-351.5 -139l-43 -41q83 -5 130 -66t34 -149q-12 -96 -92 -161t-187 -65q-137 0 -215 105l109 110q49 -69 125 -69q38 0 66.5 23t33.5 57q6 34 -14.5 56.5
t-56.5 22.5q-38 0 -66 -28l-139 67l131 140q-137 15 -259.5 72t-201.5 143l176 215q75 -83 186.5 -134t227.5 -51q110 0 192.5 46t92.5 118q3 25 -4 46.5t-18.5 37t-37 30.5t-45 24t-56.5 20.5t-57.5 17t-62.5 15.5q-102 25 -181.5 61t-141 88.5t-89 126.5t-14.5 164
q26 188 190.5 302t403.5 114q153 0 273.5 -48t189.5 -128l-162 -213q-52 60 -145 98.5t-195 38.5q-106 0 -180.5 -43t-83.5 -109q-4 -31 9.5 -58t36.5 -45.5t60 -34.5t70.5 -26t77.5 -20z" />
    <glyph glyph-name="scedilla" unicode="&#x15f;" horiz-adv-x="985" 
d="M569 643q64 -15 102 -25.5t94 -36.5t84.5 -57.5t46.5 -85t9 -121.5q-20 -138 -126.5 -224t-264.5 -109l-45 -45q83 -5 130 -66t34 -149q-12 -96 -92 -161t-187 -65q-137 0 -215 105l109 110q49 -69 125 -69q38 0 66.5 23t33.5 57q6 33 -15 56t-57 23q-37 0 -65 -28
l-139 67l131 138q-201 24 -336 155l155 176q116 -116 287 -116q82 0 138 26t63 72q3 20 -6 37t-23.5 28t-43 22t-52 17.5t-64.5 16.5q-65 15 -102.5 25.5t-93.5 36.5t-84.5 57t-46.5 84.5t-8 121.5q15 107 85 183t169.5 111.5t218.5 35.5q229 0 385 -137l-154 -178
q-115 96 -256 96q-72 0 -122 -23t-56 -67q-3 -20 6 -36.5t23 -27.5t43 -21.5t52 -16.5t64 -15z" />
    <glyph glyph-name="Scaron" unicode="&#x160;" horiz-adv-x="1228" 
d="M932 1528h-322l-161 293h249l93 -150l135 150h250zM715 850q35 -8 67.5 -16.5t84.5 -27.5t94 -41.5t87 -58.5t73.5 -77.5t42.5 -100t5 -125.5q-18 -124 -105 -222.5t-220 -152t-287 -53.5q-161 0 -310.5 60.5t-244.5 161.5l176 215q75 -83 186.5 -134t227.5 -51
q110 0 192.5 46t92.5 118q3 25 -4 46.5t-18.5 37t-37 30.5t-45 24t-56.5 20.5t-57.5 17t-62.5 15.5q-102 25 -181.5 61t-141 88.5t-89 126.5t-14.5 164q26 188 190.5 302t403.5 114q153 0 273.5 -48t189.5 -128l-162 -213q-52 60 -145 98.5t-195 38.5q-106 0 -180.5 -43
t-83.5 -109q-4 -31 9.5 -58t36.5 -45.5t60 -34.5t70.5 -26t77.5 -20z" />
    <glyph glyph-name="scaron" unicode="&#x161;" horiz-adv-x="985" 
d="M748 1159h-322l-162 293h250l92 -149l135 149h250zM559 850q-72 0 -122 -23t-56 -67q-3 -20 6 -36.5t23 -27.5t43 -21.5t52 -16.5t64 -15q64 -15 102 -25.5t94 -36.5t84.5 -57.5t46.5 -85t9 -121.5q-23 -161 -161.5 -251.5t-333.5 -90.5q-251 0 -418 160l155 176
q116 -116 287 -116q82 0 138 26t63 72q3 20 -6 37t-23.5 28t-43 22t-52 17.5t-64.5 16.5q-65 15 -102.5 25.5t-93.5 36.5t-84.5 57t-46.5 84.5t-8 121.5q15 107 85 183t169.5 111.5t218.5 35.5q229 0 385 -137l-154 -178q-115 96 -256 96z" />
    <glyph glyph-name="uni0162" unicode="&#x162;" horiz-adv-x="1206" 
d="M672 0h-47l-60 -59q83 -5 130 -66t34 -149q-12 -96 -91.5 -161t-186.5 -65q-137 0 -215 105l108 110q49 -69 125 -69q38 0 66.5 23t33.5 57q6 34 -14.5 56.5t-56.5 22.5q-38 0 -66 -28l-139 67l147 156h-51l162 1147h-410l37 266h1100l-37 -266h-407z" />
    <glyph glyph-name="uni0163" unicode="&#x163;" horiz-adv-x="839" 
d="M530 801l-61 -434q-18 -134 123 -134q59 0 143 35l-35 -248q-79 -37 -163 -43l-37 -36q83 -5 130 -66t34 -149q-12 -96 -92 -161t-187 -65q-137 0 -215 105l109 110q49 -69 124 -69q38 0 67 23t34 57q6 33 -15 56t-57 23q-37 0 -65 -28l-140 67l142 148q-105 33 -148 119
t-24 213l67 477h-166l33 243h168l37 265h266l-37 -265h279l-33 -243h-281z" />
    <glyph glyph-name="Tcaron" unicode="&#x164;" horiz-adv-x="1206" 
d="M907 1528h-321l-162 293h250l92 -150l135 150h250zM1278 1413l-37 -266h-407l-162 -1147h-283l162 1147h-410l37 266h1100z" />
    <glyph glyph-name="tcaron" unicode="&#x165;" horiz-adv-x="839" 
d="M778 1606h242l-148 -455h-200zM602 1309l-37 -265h279l-33 -243h-281l-61 -434q-18 -134 123 -134q59 0 143 35l-35 -248q-91 -45 -202 -45q-175 0 -250 93.5t-51 255.5l67 477h-166l33 243h168l37 265h266z" />
    <glyph glyph-name="Tbar" unicode="&#x166;" horiz-adv-x="1206" 
d="M1241 1147h-407l-58 -404h174l-28 -190h-172l-78 -553h-283l78 553h-172l29 190h170l57 404h-410l37 266h1100z" />
    <glyph glyph-name="tbar" unicode="&#x167;" horiz-adv-x="839" 
d="M811 801h-281l-22 -166h219l-29 -191h-219l-10 -77q-18 -134 123 -134q59 0 143 35l-35 -248q-91 -45 -202 -45q-175 0 -250 93.5t-51 255.5l16 120h-141l28 191h140l24 166h-166l33 243h168l37 265h266l-37 -265h279z" />
    <glyph glyph-name="Utilde" unicode="&#x168;" horiz-adv-x="1404" 
d="M977 1540q-40 0 -74.5 13t-54.5 29t-44.5 29t-47.5 13q-35 0 -60 -22.5t-30 -55.5h-189q18 127 90.5 209t182.5 82q40 0 75 -13.5t55.5 -30.5t45.5 -30.5t49 -13.5q33 0 58 24t30 58h188q-18 -129 -90 -210t-184 -81zM625 -25q-165 0 -288.5 74.5t-181 205.5t-34.5 292
l121 866h282l-121 -862q-19 -129 56 -216t205 -87t228.5 87t117.5 216l120 862h283l-121 -866q-23 -161 -118 -292t-239.5 -205.5t-309.5 -74.5z" />
    <glyph glyph-name="utilde" unicode="&#x169;" horiz-adv-x="1196" 
d="M821 1171q-40 0 -74.5 13t-54.5 29t-44.5 29t-47.5 13q-35 0 -60 -22t-30 -55h-188q18 127 90 208.5t182 81.5q40 0 75 -14t55.5 -30t45.5 -30t49 -14q33 0 58 24t30 58h189q-18 -129 -90.5 -210t-184.5 -81zM520 -25q-221 0 -337.5 120.5t-88.5 320.5l90 628h267
l-86 -591q-12 -100 40 -160t152 -60t170 60.5t82 159.5l84 591h266l-88 -628q-28 -199 -179.5 -320t-371.5 -121z" />
    <glyph glyph-name="Umacron" unicode="&#x16a;" horiz-adv-x="1404" 
d="M575 1550l33 224h541l-33 -224h-541zM625 -25q-165 0 -288.5 74.5t-181 205.5t-34.5 292l121 866h282l-121 -862q-19 -129 56 -216t205 -87t228.5 87t117.5 216l120 862h283l-121 -866q-23 -161 -118 -292t-239.5 -205.5t-309.5 -74.5z" />
    <glyph glyph-name="umacron" unicode="&#x16b;" horiz-adv-x="1196" 
d="M420 1182l33 223h540l-32 -223h-541zM520 -25q-221 0 -337.5 120.5t-88.5 320.5l90 628h267l-86 -591q-12 -100 40 -160t152 -60t170 60.5t82 159.5l84 591h266l-88 -628q-28 -199 -179.5 -320t-371.5 -121z" />
    <glyph glyph-name="Ubreve" unicode="&#x16c;" horiz-adv-x="1404" 
d="M840 1507q-138 0 -218 89t-61 221h205q-6 -53 21.5 -86t78.5 -33q50 0 89 33.5t46 85.5h205q-19 -132 -123.5 -221t-242.5 -89zM625 -25q-165 0 -288.5 74.5t-181 205.5t-34.5 292l121 866h282l-121 -862q-19 -129 56 -216t205 -87t228.5 87t117.5 216l120 862h283
l-121 -866q-23 -161 -118 -292t-239.5 -205.5t-309.5 -74.5z" />
    <glyph glyph-name="ubreve" unicode="&#x16d;" horiz-adv-x="1196" 
d="M684 1139q-138 0 -217.5 88.5t-60.5 220.5h204q-6 -53 22 -86t79 -33q50 0 89 33.5t46 85.5h205q-19 -132 -124 -220.5t-243 -88.5zM520 -25q-221 0 -337.5 120.5t-88.5 320.5l90 628h267l-86 -591q-12 -100 40 -160t152 -60t170 60.5t82 159.5l84 591h266l-88 -628
q-28 -199 -179.5 -320t-371.5 -121z" />
    <glyph glyph-name="Uring" unicode="&#x16e;" horiz-adv-x="1404" 
d="M840 1503q-90 0 -142.5 58.5t-40.5 146.5t80.5 146.5t159.5 58.5q89 0 140.5 -58.5t39.5 -146.5t-80 -146.5t-157 -58.5zM858 1636q29 0 52.5 20.5t27.5 51.5q3 31 -13.5 51.5t-45.5 20.5q-31 0 -54 -20.5t-26 -51.5q-5 -31 11.5 -51.5t47.5 -20.5zM625 -25
q-165 0 -288.5 74.5t-181 205.5t-34.5 292l121 866h282l-121 -862q-19 -129 56 -216t205 -87t228.5 87t117.5 216l120 862h283l-121 -866q-23 -161 -118 -292t-239.5 -205.5t-309.5 -74.5z" />
    <glyph glyph-name="uring" unicode="&#x16f;" horiz-adv-x="1196" 
d="M684 1135q-89 0 -141.5 58t-40.5 146t80 146.5t159 58.5q89 0 141 -58.5t40 -146.5q-12 -87 -80 -145.5t-158 -58.5zM702 1268q29 0 52.5 20t27.5 51q3 31 -13.5 51.5t-45.5 20.5q-31 0 -54 -20.5t-26 -51.5q-5 -31 11.5 -51t47.5 -20zM520 -25q-221 0 -337.5 120.5
t-88.5 320.5l90 628h267l-86 -591q-12 -100 40 -160t152 -60t170 60.5t82 159.5l84 591h266l-88 -628q-28 -199 -179.5 -320t-371.5 -121z" />
    <glyph glyph-name="Uhungarumlaut" unicode="&#x170;" horiz-adv-x="1404" 
d="M485 1528l215 293h291l-250 -293h-256zM928 1528l215 293h289l-248 -293h-256zM625 -25q-165 0 -288.5 74.5t-181 205.5t-34.5 292l121 866h282l-121 -862q-19 -129 56 -216t205 -87t228.5 87t117.5 216l120 862h283l-121 -866q-23 -161 -118 -292t-239.5 -205.5
t-309.5 -74.5z" />
    <glyph glyph-name="uhungarumlaut" unicode="&#x171;" horiz-adv-x="1196" 
d="M330 1159l215 293h291l-250 -293h-256zM772 1159l215 293h289l-248 -293h-256zM520 -25q-221 0 -337.5 120.5t-88.5 320.5l90 628h267l-86 -591q-12 -100 40 -160t152 -60t170 60.5t82 159.5l84 591h266l-88 -628q-28 -199 -179.5 -320t-371.5 -121z" />
    <glyph glyph-name="Uogonek" unicode="&#x172;" horiz-adv-x="1404" 
d="M1130 1413h283l-121 -866q-28 -192 -156 -338.5t-313 -202.5q-177 -85 -190 -184q-7 -42 19 -67t65 -25q49 0 104 30l37 -163q-96 -58 -211 -58q-117 0 -182 63.5t-51 161.5q18 126 149 213q-148 14 -256.5 91.5t-158 203t-27.5 275.5l121 866h282l-121 -862
q-19 -129 56 -216t205 -87t228.5 87t117.5 216z" />
    <glyph glyph-name="uogonek" unicode="&#x173;" horiz-adv-x="1196" 
d="M893 1044h266l-88 -628q-23 -160 -127.5 -271.5t-263.5 -150.5q-158 -80 -168 -172q-7 -42 19 -67t65 -25q49 0 104 30l37 -163q-96 -58 -211 -58q-117 0 -182 63.5t-51 161.5q9 62 48.5 118t102.5 98q-187 22 -281 138.5t-69 297.5l90 628h267l-86 -591
q-12 -100 40 -160t152 -60t170 60.5t82 159.5z" />
    <glyph glyph-name="Wcircumflex" unicode="&#x174;" horiz-adv-x="2066" 
d="M1196 1677l-135 -149h-250l244 293h321l162 -293h-250zM1870 1413h291l-639 -1413h-283l-139 985l-420 -985h-281l-243 1413h299l145 -1028l438 1028h248l148 -1028z" />
    <glyph glyph-name="wcircumflex" unicode="&#x175;" horiz-adv-x="1765" 
d="M993 1309l-135 -150h-250l244 293h322l161 -293h-250zM1532 1044h291l-518 -1044h-275l-121 721l-321 -721h-275l-223 1044h297l117 -702l319 702h273l121 -702z" />
    <glyph glyph-name="Ycircumflex" unicode="&#x176;" horiz-adv-x="1380" 
d="M854 1677l-135 -149h-250l244 293h321l162 -293h-250zM1192 1413h315l-680 -917l-69 -496h-283l70 496l-422 917h323l285 -633z" />
    <glyph glyph-name="ycircumflex" unicode="&#x177;" horiz-adv-x="1163" 
d="M692 1309l-135 -150h-250l244 293h321l162 -293h-250zM930 1044h297l-688 -1226q-60 -107 -154 -169.5t-197 -62.5q-71 0 -143 29t-119 76l133 209q46 -56 121 -56q80 0 129 82l56 90l-281 1028h303l172 -710z" />
    <glyph glyph-name="Ydieresis" unicode="&#x178;" horiz-adv-x="1380" 
d="M612 1526q-65 0 -102.5 42.5t-28.5 106.5q9 63 58.5 106.5t113.5 43.5t101 -43.5t28 -106.5q-7 -64 -56.5 -106.5t-113.5 -42.5zM1053 1526q-63 0 -100.5 42.5t-30.5 106.5q9 63 59.5 106.5t114.5 43.5t101 -43.5t28 -106.5q-7 -64 -57 -106.5t-115 -42.5zM1192 1413h315
l-680 -917l-69 -496h-283l70 496l-422 917h323l285 -633z" />
    <glyph glyph-name="Zacute" unicode="&#x179;" horiz-adv-x="1257" 
d="M1196 1821l-301 -293h-281l248 293h334zM1294 1413l-28 -203l-842 -944h723l-37 -266h-1110l29 203l841 944h-700l37 266h1087z" />
    <glyph glyph-name="zacute" unicode="&#x17a;" horiz-adv-x="1017" 
d="M1026 1452l-301 -293h-281l248 293h334zM121 786l39 258h839l-26 -194l-559 -592h491l-39 -258h-862l27 195l559 591h-469z" />
    <glyph glyph-name="Zdotaccent" unicode="&#x17b;" horiz-adv-x="1257" 
d="M768 1526q-68 0 -107 44t-30 111t61.5 112.5t118.5 45.5q68 0 107 -45.5t30 -112.5t-60.5 -111t-119.5 -44zM1294 1413l-28 -203l-842 -944h723l-37 -266h-1110l29 203l841 944h-700l37 266h1087z" />
    <glyph glyph-name="zdotaccent" unicode="&#x17c;" horiz-adv-x="1017" 
d="M598 1157q-68 0 -107 44.5t-30 111.5t61 112t119 45q68 0 107 -45t30 -112t-60.5 -111.5t-119.5 -44.5zM999 1044l-26 -194l-559 -592h491l-39 -258h-862l27 195l559 591h-469l39 258h839z" />
    <glyph glyph-name="Zcaron" unicode="&#x17d;" horiz-adv-x="1257" 
d="M928 1528h-322l-162 293h250l92 -150l136 150h249zM1294 1413l-28 -203l-842 -944h723l-37 -266h-1110l29 203l841 944h-700l37 266h1087z" />
    <glyph glyph-name="zcaron" unicode="&#x17e;" horiz-adv-x="1017" 
d="M760 1159h-322l-162 293h250l92 -149l136 149h250zM121 786l39 258h839l-26 -194l-559 -592h491l-39 -258h-862l27 195l559 591h-469z" />
    <glyph glyph-name="florin" unicode="&#x192;" horiz-adv-x="1024" 
d="M1063 1141q-125 0 -193.5 -44.5t-99.5 -140.5l-39 -125h195l-35 -241h-236l-192 -610q-61 -191 -203 -280t-395 -89l39 272q125 0 194.5 44.5t100.5 140.5l163 522h-184l35 241h225l66 213q59 190 202 279.5t396 89.5z" />
    <glyph glyph-name="uni01C4" unicode="&#x1c4;" horiz-adv-x="2676" 
d="M2347 1528h-322l-161 293h250l92 -150l135 150h250zM821 1413q203 0 355.5 -92t223.5 -253.5t44 -360.5q-21 -149 -94.5 -280t-182.5 -225t-250.5 -148t-293.5 -54h-553l198 1413h553zM2714 1413l-29 -203l-842 -944h723l-37 -266h-1110l29 203l842 944h-701l37 266h1088
zM1153 707q26 189 -81 314.5t-294 125.5h-264l-125 -881h264q187 0 329.5 126t170.5 315z" />
    <glyph glyph-name="uni01C5" unicode="&#x1c5;" horiz-adv-x="2506" 
d="M2249 1159h-322l-162 293h250l92 -149l136 149h249zM821 1413q203 0 355.5 -92t223.5 -253.5t44 -360.5q-21 -149 -94.5 -280t-182.5 -225t-250.5 -148t-293.5 -54h-553l198 1413h553zM1153 707q26 189 -81 314.5t-294 125.5h-264l-125 -881h264q187 0 329.5 126
t170.5 315zM1610 786l39 258h839l-26 -194l-559 -592h491l-39 -258h-862l27 195l559 591h-469z" />
    <glyph glyph-name="uni01C6" unicode="&#x1c6;" horiz-adv-x="2328" 
d="M1051 1475h266l-207 -1475h-266l18 125q-160 -150 -362 -150q-143 0 -249.5 71.5t-155 196.5t-27.5 279q32 233 200.5 390t386.5 157q207 0 318 -149zM2071 1159h-322l-162 293h250l92 -149l135 149h250zM1432 786l38 258h840l-26 -194l-560 -592h492l-39 -258h-862
l26 195l560 591h-469zM588 233q119 0 211.5 77.5t115.5 193.5l5 33q9 118 -60.5 196t-189.5 78q-123 0 -217 -83t-111 -206t53 -206t193 -83z" />
    <glyph glyph-name="uni01C7" unicode="&#x1c7;" horiz-adv-x="1984" 
d="M551 1413l-162 -1147h617l-37 -266h-899l198 1413h283zM1712 1413h283l-135 -964q-32 -221 -182 -347.5t-371 -126.5q-127 0 -222 45l37 271q91 -43 193 -43q110 0 180.5 56.5t83.5 158.5z" />
    <glyph glyph-name="uni01C8" unicode="&#x1c8;" horiz-adv-x="1636" 
d="M1518 1530q71 0 112 -48t31 -118q-9 -70 -64 -118t-127 -48q-71 0 -112 48t-31 118t65 118t126 48zM1006 266l-37 -266h-899l198 1413h283l-162 -1147h617zM1161 -59l156 1103h266l-160 -1134q-21 -150 -116 -237t-256 -87q-84 0 -142 25l35 239q39 -20 90 -20
q112 0 127 111z" />
    <glyph glyph-name="uni01C9" unicode="&#x1c9;" horiz-adv-x="1050" 
d="M885 1198q-71 0 -112.5 48t-31.5 118t65 118t126 48t112 -48t31 -118q-9 -71 -63.5 -118.5t-126.5 -47.5zM53 0l207 1475h266l-207 -1475h-266zM465 -414q-83 0 -141 25l34 239q39 -20 91 -20q111 0 126 111l156 1103h266l-159 -1134q-21 -150 -116.5 -237t-256.5 -87z
" />
    <glyph glyph-name="uni01CA" unicode="&#x1ca;" horiz-adv-x="2383" 
d="M1067 485l131 928h283l-199 -1413h-287l-512 928l-131 -928h-282l198 1413h287zM2109 1413h283l-135 -964q-32 -221 -182 -347.5t-371 -126.5q-126 0 -221 45l37 271q91 -43 192 -43q110 0 180.5 56.5t83.5 158.5z" />
    <glyph glyph-name="uni01CB" unicode="&#x1cb;" horiz-adv-x="2029" 
d="M1911 1530q71 0 112 -48t31 -118q-9 -71 -63.5 -118.5t-126.5 -47.5q-71 0 -112.5 48t-31.5 118t65 118t126 48zM1198 1413h283l-199 -1413h-287l-512 928l-131 -928h-282l198 1413h287l512 -928zM1554 -59l156 1103h266l-159 -1134q-21 -150 -116.5 -237t-256.5 -87
q-83 0 -141 25l34 239q39 -20 90 -20q112 0 127 111z" />
    <glyph glyph-name="uni01CC" unicode="&#x1cc;" horiz-adv-x="1773" 
d="M1655 1530q71 0 112 -48t31 -118q-9 -71 -63.5 -118.5t-126.5 -47.5q-71 0 -112.5 48t-31.5 118t65 118t126 48zM793 0l81 578q15 106 -38.5 169.5t-157.5 63.5q-103 0 -177.5 -58.5t-97.5 -156.5l-84 -596h-266l148 1044h266l-16 -116q147 141 352 141
q185 0 279.5 -110.5t68.5 -294.5l-92 -664h-266zM1298 -59l156 1103h266l-159 -1134q-21 -150 -116.5 -237t-256.5 -87q-83 0 -141 25l34 239q39 -20 90 -20q112 0 127 111z" />
    <glyph glyph-name="uni01CD" unicode="&#x1cd;" horiz-adv-x="1466" 
d="M1034 1528h-321l-162 293h250l92 -150l135 150h250zM1061 0l-62 274h-606l-139 -274h-305l743 1413h334l344 -1413h-309zM524 535h416l-129 567z" />
    <glyph glyph-name="uni01CE" unicode="&#x1ce;" 
d="M913 1159h-321l-162 293h250l92 -149l135 149h250zM991 1044h266l-147 -1044h-266l18 125q-160 -150 -362 -150q-143 0 -249.5 71.5t-155 196.5t-27.5 279q32 233 200.5 390t386.5 157q205 0 318 -149zM588 233q124 0 217.5 82t112.5 205v2q15 124 -54.5 206.5
t-193.5 82.5q-123 0 -217 -83t-111 -206t53 -206t193 -83z" />
    <glyph glyph-name="Gcaron" unicode="&#x1e6;" horiz-adv-x="1589" 
d="M1118 1528h-321l-162 293h250l92 -150l135 150h250zM885 795h682l-15 -99q-28 -205 -144 -370t-293.5 -258t-381.5 -93q-156 0 -285 56.5t-213 153.5t-121.5 232.5t-15.5 289.5q28 205 149 372.5t305.5 263t393.5 95.5q184 0 329 -74t222 -203l-237 -170
q-52 83 -142.5 129.5t-204.5 46.5q-197 0 -346.5 -131t-177.5 -329t84 -329.5t309 -131.5q153 0 276 82t173 215h-381z" />
    <glyph glyph-name="gcaron" unicode="&#x1e7;" horiz-adv-x="1155" 
d="M821 1159h-321l-162 293h250l92 -149l135 149h250zM1155 1202h86l-33 -246h-73q-42 0 -73.5 -20t-43.5 -55q72 -118 51 -271q-19 -129 -98 -234t-199 -164.5t-258 -59.5q-87 0 -170 26q-56 -32 -63 -90q-6 -38 20.5 -63t73.5 -25h342q156 0 248 -81.5t98 -225.5l-285 -74
q3 57 -37.5 91t-109.5 34h-342q-146 0 -224 77t-61 202q10 79 58.5 150.5t117.5 111.5q-119 131 -92 325q28 197 186 328t369 131q121 0 221 -49q34 85 112 133.5t179 48.5zM795 610q12 89 -41.5 148t-145.5 59q-94 0 -165 -59t-81 -148q-13 -89 40 -148t147 -59
q93 0 163.5 59t82.5 148z" />
    <glyph glyph-name="uni01EA" unicode="&#x1ea;" horiz-adv-x="1634" 
d="M946 1438q157 0 287 -56t215 -153t123.5 -232.5t17.5 -289.5q-35 -248 -201.5 -437t-404.5 -260q-189 -84 -203 -188q-7 -42 19 -67t65 -25q50 0 105 30l37 -163q-96 -58 -211 -58q-117 0 -182.5 63.5t-51.5 161.5q9 60 47.5 115t98.5 96q-200 8 -349.5 105t-218.5 262
t-41 365q28 205 149 372.5t305.5 263t393.5 95.5zM1298 707q28 196 -84.5 327t-306.5 131t-342 -131t-176 -327t83.5 -327.5t305.5 -131.5t343 131.5t177 327.5z" />
    <glyph glyph-name="uni01EB" unicode="&#x1eb;" horiz-adv-x="1249" 
d="M702 1069q239 0 377.5 -157t106.5 -390q-26 -182 -148 -321.5t-297 -194.5q-177 -85 -190 -184q-7 -42 19 -67t65 -25q49 0 104 30l37 -163q-96 -58 -211 -58q-117 0 -182 63.5t-51 161.5q18 126 149 216q-213 22 -331 174t-87 368q21 153 112.5 278.5t230.5 197
t296 71.5zM911 522q17 124 -52 206.5t-193 82.5q-123 0 -217 -83t-111 -206t53 -206t193 -83q124 0 218 83t109 206z" />
    <glyph glyph-name="uni01F1" unicode="&#x1f1;" horiz-adv-x="2676" 
d="M821 1413q203 0 355.5 -92t223.5 -253.5t44 -360.5q-21 -149 -94.5 -280t-182.5 -225t-250.5 -148t-293.5 -54h-553l198 1413h553zM2714 1413l-29 -203l-842 -944h723l-37 -266h-1110l29 203l842 944h-701l37 266h1088zM1153 707q26 189 -81 314.5t-294 125.5h-264
l-125 -881h264q187 0 329.5 126t170.5 315z" />
    <glyph glyph-name="uni01F2" unicode="&#x1f2;" horiz-adv-x="2506" 
d="M821 1413q203 0 355.5 -92t223.5 -253.5t44 -360.5q-21 -149 -94.5 -280t-182.5 -225t-250.5 -148t-293.5 -54h-553l198 1413h553zM1153 707q26 189 -81 314.5t-294 125.5h-264l-125 -881h264q187 0 329.5 126t170.5 315zM2488 1044l-26 -194l-559 -592h491l-39 -258
h-862l27 195l559 591h-469l39 258h839z" />
    <glyph glyph-name="uni01F3" unicode="&#x1f3;" horiz-adv-x="2328" 
d="M1051 1475h266l-207 -1475h-266l18 125q-160 -150 -362 -150q-143 0 -249.5 71.5t-155 196.5t-27.5 279q32 233 200.5 390t386.5 157q207 0 318 -149zM2310 1044l-26 -194l-560 -592h492l-39 -258h-862l26 195l560 591h-469l38 258h840zM588 233q119 0 211.5 77.5
t115.5 193.5l5 33q9 118 -60.5 196t-189.5 78q-123 0 -217 -83t-111 -206t53 -206t193 -83z" />
    <glyph glyph-name="uni01F4" unicode="&#x1f4;" horiz-adv-x="1589" 
d="M1386 1821l-301 -293h-280l248 293h333zM885 795h682l-15 -99q-28 -205 -144 -370t-293.5 -258t-381.5 -93q-156 0 -285 56.5t-213 153.5t-121.5 232.5t-15.5 289.5q28 205 149 372.5t305.5 263t393.5 95.5q184 0 329 -74t222 -203l-237 -170q-52 83 -142.5 129.5
t-204.5 46.5q-197 0 -346.5 -131t-177.5 -329t84 -329.5t309 -131.5q153 0 276 82t173 215h-381z" />
    <glyph glyph-name="uni01F5" unicode="&#x1f5;" horiz-adv-x="1155" 
d="M1087 1452l-301 -293h-280l248 293h333zM1155 1202h86l-33 -246h-73q-42 0 -73.5 -20t-43.5 -55q72 -118 51 -271q-19 -129 -98 -234t-199 -164.5t-258 -59.5q-87 0 -170 26q-56 -32 -63 -90q-6 -38 20.5 -63t73.5 -25h342q156 0 248 -81.5t98 -225.5l-285 -74
q3 57 -37.5 91t-109.5 34h-342q-146 0 -224 77t-61 202q10 79 58.5 150.5t117.5 111.5q-119 131 -92 325q28 197 186 328t369 131q121 0 221 -49q34 85 112 133.5t179 48.5zM795 610q12 89 -41.5 148t-145.5 59q-94 0 -165 -59t-81 -148q-13 -89 40 -148t147 -59
q93 0 163.5 59t82.5 148z" />
    <glyph glyph-name="AEacute" unicode="&#x1fc;" horiz-adv-x="1863" 
d="M1636 1821l-301 -293h-280l248 293h333zM1855 1147h-583l-43 -303h518l-39 -266h-516l-45 -312h594l-37 -266h-877l37 268h-489l-193 -268h-321l1022 1413h1009zM561 528h340l84 588z" />
    <glyph glyph-name="aeacute" unicode="&#x1fd;" horiz-adv-x="1890" 
d="M1456 1452l-301 -293h-281l248 293h334zM1360 1069q116 0 211.5 -42t158 -114.5t89.5 -175.5t10 -221q-10 -65 -17 -84h-811q12 -102 84 -161.5t185 -59.5q87 0 165.5 36t129.5 91l161 -154q-97 -99 -226 -154t-271 -55q-124 0 -224.5 45.5t-166.5 126.5
q-77 -77 -195 -124.5t-252 -47.5q-189 0 -291 94t-80 236q19 138 142.5 230t292.5 92h303l4 28q12 85 -46.5 136t-166.5 51q-148 0 -248 -103l-135 152q73 83 185 130.5t243 47.5q120 0 212.5 -41t147.5 -115q177 156 406 156zM1325 836q-96 0 -175.5 -57t-119.5 -152h531
q-12 95 -77 152t-159 57zM461 190q79 0 157.5 31.5t137.5 83.5q-16 67 -19 127h-264q-73 0 -122.5 -33.5t-55.5 -83.5q-9 -54 37.5 -89.5t128.5 -35.5z" />
    <glyph glyph-name="Oslashacute" unicode="&#x1fe;" horiz-adv-x="1634" 
d="M1423 1821l-301 -293h-280l248 293h333zM1667 1413l-203 -203q165 -205 125 -503q-29 -205 -150.5 -373t-306 -263.5t-393.5 -95.5q-229 0 -395 115l-92 -90h-236l205 205q-79 99 -111.5 227.5t-11.5 274.5q28 205 149 372.5t305.5 263t393.5 95.5q230 0 395 -115l91 90
h235zM389 707q-21 -166 51 -283l686 684q-94 57 -219 57q-194 0 -342 -131t-176 -327zM1298 707q23 158 -53 284l-686 -686q91 -57 219 -57q194 0 343 131.5t177 327.5z" />
    <glyph glyph-name="oslashacute" unicode="&#x1ff;" horiz-adv-x="1249" 
d="M1163 1452l-301 -293h-280l247 293h334zM1257 1044l-159 -153q118 -153 88 -369q-21 -153 -112.5 -278.5t-230.5 -197t-296 -71.5q-171 0 -299 88l-66 -63h-190l160 154q-119 154 -89 368q21 153 112.5 278.5t230.5 197t296 71.5q171 0 299 -88l66 63h190zM338 522
q-13 -96 24 -162l433 420q-57 31 -129 31q-123 0 -217 -83t-111 -206zM911 522q13 95 -24 164l-432 -422q57 -31 129 -31q124 0 218 83t109 206z" />
    <glyph glyph-name="uni0200" unicode="&#x200;" horiz-adv-x="1466" 
d="M788 1528h-258l-165 293h290zM1231 1528h-258l-166 293h289zM1061 0l-62 274h-606l-139 -274h-305l743 1413h334l344 -1413h-309zM524 535h416l-129 567z" />
    <glyph glyph-name="uni0201" unicode="&#x201;" 
d="M668 1159h-258l-166 293h291zM1110 1159h-258l-166 293h289zM991 1044h266l-147 -1044h-266l18 125q-160 -150 -362 -150q-143 0 -249.5 71.5t-155 196.5t-27.5 279q32 233 200.5 390t386.5 157q205 0 318 -149zM588 233q124 0 217.5 82t112.5 205v2q15 124 -54.5 206.5
t-193.5 82.5q-123 0 -217 -83t-111 -206t53 -206t193 -83z" />
    <glyph glyph-name="uni0202" unicode="&#x202;" horiz-adv-x="1466" 
d="M889 1640q-50 0 -88 -33.5t-45 -84.5h-207q20 132 124 220.5t242 88.5t219 -88.5t62 -220.5h-207q7 51 -21.5 84.5t-78.5 33.5zM1061 0l-62 274h-606l-139 -274h-305l743 1413h334l344 -1413h-309zM524 535h416l-129 567z" />
    <glyph glyph-name="uni0203" unicode="&#x203;" 
d="M768 1272q-50 0 -88 -34t-45 -85h-207q20 132 124.5 220.5t242.5 88.5t218.5 -88.5t61.5 -220.5h-207q7 51 -21.5 85t-78.5 34zM991 1044h266l-147 -1044h-266l18 125q-160 -150 -362 -150q-143 0 -249.5 71.5t-155 196.5t-27.5 279q32 233 200.5 390t386.5 157
q205 0 318 -149zM588 233q124 0 217.5 82t112.5 205v2q15 124 -54.5 206.5t-193.5 82.5q-123 0 -217 -83t-111 -206t53 -206t193 -83z" />
    <glyph glyph-name="uni0204" unicode="&#x204;" horiz-adv-x="1189" 
d="M680 1528h-258l-166 293h291zM1122 1528h-258l-166 293h289zM1182 1147h-668l-43 -303h600l-37 -266h-600l-45 -312h678l-37 -266h-960l198 1413h951z" />
    <glyph glyph-name="uni0205" unicode="&#x205;" horiz-adv-x="1226" 
d="M631 1159h-258l-166 293h291zM1073 1159h-258l-166 293h289zM696 1069q154 0 270 -71t169.5 -197t31.5 -281q-8 -60 -20 -94h-809q14 -99 85 -157t183 -58q91 0 173 36.5t132 92.5l158 -156q-97 -98 -228 -153.5t-276 -55.5q-248 0 -391 158t-111 393q34 232 215.5 387.5
t417.5 155.5zM659 836q-96 0 -177.5 -59t-119.5 -156h535q-10 98 -75 156.5t-163 58.5z" />
    <glyph glyph-name="uni0206" unicode="&#x206;" horiz-adv-x="1189" 
d="M780 1640q-50 0 -88 -33.5t-45 -84.5h-207q20 132 124.5 220.5t242.5 88.5t218.5 -88.5t61.5 -220.5h-206q7 51 -22 84.5t-79 33.5zM1182 1147h-668l-43 -303h600l-37 -266h-600l-45 -312h678l-37 -266h-960l198 1413h951z" />
    <glyph glyph-name="uni0207" unicode="&#x207;" horiz-adv-x="1226" 
d="M731 1272q-49 0 -87 -34t-46 -85h-207q20 132 124.5 220.5t242.5 88.5t218.5 -88.5t61.5 -220.5h-207q7 51 -21.5 85t-78.5 34zM696 1069q154 0 270 -71t169.5 -197t31.5 -281q-8 -60 -20 -94h-809q14 -99 85 -157t183 -58q91 0 173 36.5t132 92.5l158 -156
q-97 -98 -228 -153.5t-276 -55.5q-248 0 -391 158t-111 393q34 232 215.5 387.5t417.5 155.5zM659 836q-96 0 -177.5 -59t-119.5 -156h535q-10 98 -75 156.5t-163 58.5z" />
    <glyph glyph-name="uni0208" unicode="&#x208;" horiz-adv-x="569" 
d="M84 1528l-166 293h291l133 -293h-258zM526 1528l-166 293h289l135 -293h-258zM70 0l198 1413h283l-199 -1413h-282z" />
    <glyph glyph-name="uni0209" unicode="&#x209;" horiz-adv-x="520" 
d="M8 1159l-166 293h291l133 -293h-258zM451 1159l-166 293h288l136 -293h-258zM53 0l148 1044h266l-148 -1044h-266z" />
    <glyph glyph-name="uni020A" unicode="&#x20a;" horiz-adv-x="569" 
d="M102 1522q20 132 124.5 220.5t242.5 88.5t219 -88.5t62 -220.5h-207q7 51 -22 84.5t-79 33.5t-88 -33.5t-45 -84.5h-207zM70 0l198 1413h283l-199 -1413h-282z" />
    <glyph glyph-name="uni020B" unicode="&#x20b;" horiz-adv-x="520" 
d="M25 1153q20 132 124 220.5t242 88.5t219 -88.5t62 -220.5h-207q7 51 -21.5 85t-78.5 34t-88.5 -34t-45.5 -85h-206zM53 0l148 1044h266l-148 -1044h-266z" />
    <glyph glyph-name="uni020C" unicode="&#x20c;" horiz-adv-x="1634" 
d="M614 1528l-165 293h290l133 -293h-258zM1057 1528l-166 293h289l135 -293h-258zM739 -25q-209 0 -366 95.5t-230.5 263.5t-44.5 373q28 205 149 372.5t305.5 263t393.5 95.5q157 0 287 -56t215 -153t123.5 -232.5t17.5 -289.5q-29 -205 -150.5 -373t-306 -263.5
t-393.5 -95.5zM778 248q194 0 343 131.5t177 327.5t-84.5 327t-306.5 131t-342 -131t-176 -327t83.5 -327.5t305.5 -131.5z" />
    <glyph glyph-name="uni020D" unicode="&#x20d;" horiz-adv-x="1249" 
d="M373 1159l-166 293h291l133 -293h-258zM815 1159l-166 293h289l135 -293h-258zM547 -25q-239 0 -377.5 157t-106.5 390q21 153 112.5 278.5t230.5 197t296 71.5q239 0 377.5 -157t106.5 -390q-21 -153 -112.5 -278.5t-230.5 -197t-296 -71.5zM584 233q124 0 218 83
t109 206q17 124 -52 206.5t-193 82.5q-123 0 -217 -83t-111 -206t53 -206t193 -83z" />
    <glyph glyph-name="uni020E" unicode="&#x20e;" horiz-adv-x="1634" 
d="M633 1522q20 132 124 220.5t242 88.5t219 -88.5t62 -220.5h-207q7 51 -21.5 84.5t-78.5 33.5t-88 -33.5t-45 -84.5h-207zM739 -25q-209 0 -366 95.5t-230.5 263.5t-44.5 373q28 205 149 372.5t305.5 263t393.5 95.5q157 0 287 -56t215 -153t123.5 -232.5t17.5 -289.5
q-29 -205 -150.5 -373t-306 -263.5t-393.5 -95.5zM778 248q194 0 343 131.5t177 327.5t-84.5 327t-306.5 131t-342 -131t-176 -327t83.5 -327.5t305.5 -131.5z" />
    <glyph glyph-name="uni020F" unicode="&#x20f;" horiz-adv-x="1249" 
d="M391 1153q20 132 124.5 220.5t242.5 88.5t218.5 -88.5t61.5 -220.5h-207q7 51 -21.5 85t-78.5 34q-49 0 -87 -34t-46 -85h-207zM547 -25q-239 0 -377.5 157t-106.5 390q21 153 112.5 278.5t230.5 197t296 71.5q239 0 377.5 -157t106.5 -390q-21 -153 -112.5 -278.5
t-230.5 -197t-296 -71.5zM584 233q124 0 218 83t109 206q17 124 -52 206.5t-193 82.5q-123 0 -217 -83t-111 -206t53 -206t193 -83z" />
    <glyph glyph-name="uni0210" unicode="&#x210;" horiz-adv-x="1296" 
d="M705 1528h-259l-165 293h290zM1147 1528h-258l-166 293h289zM1284 950q-22 -152 -125 -266.5t-254 -157.5l281 -526h-340l-254 504h-168l-72 -504h-282l198 1413h602q205 0 324 -133t90 -330zM993 948q12 85 -35.5 142t-130.5 57h-313l-57 -397h315q83 0 147 56.5
t74 141.5z" />
    <glyph glyph-name="uni0211" unicode="&#x211;" horiz-adv-x="768" 
d="M436 1159h-258l-166 293h291zM879 1159h-258l-166 293h288zM449 909q139 152 321 152h45l-39 -275h-43q-138 0 -228.5 -72.5t-113.5 -199.5l-72 -514h-266l148 1044h266z" />
    <glyph glyph-name="uni0212" unicode="&#x212;" horiz-adv-x="1296" 
d="M805 1640q-50 0 -88 -33.5t-45 -84.5h-207q20 132 124 220.5t242 88.5t219 -88.5t62 -220.5h-207q7 51 -21.5 84.5t-78.5 33.5zM1284 950q-22 -152 -125 -266.5t-254 -157.5l281 -526h-340l-254 504h-168l-72 -504h-282l198 1413h602q205 0 324 -133t90 -330zM993 948
q12 85 -35.5 142t-130.5 57h-313l-57 -397h315q83 0 147 56.5t74 141.5z" />
    <glyph glyph-name="uni0213" unicode="&#x213;" horiz-adv-x="768" 
d="M563 1462q138 0 219 -88.5t62 -220.5h-207q7 51 -21.5 85t-78.5 34t-88.5 -34t-45.5 -85h-206q20 132 124 220.5t242 88.5zM449 909q139 152 321 152h45l-39 -275h-43q-138 0 -228.5 -72.5t-113.5 -199.5l-72 -514h-266l148 1044h266z" />
    <glyph glyph-name="uni0214" unicode="&#x214;" horiz-adv-x="1404" 
d="M500 1528l-166 293h291l133 -293h-258zM942 1528l-166 293h289l135 -293h-258zM625 -25q-165 0 -288.5 74.5t-181 205.5t-34.5 292l121 866h282l-121 -862q-19 -129 56 -216t205 -87t228.5 87t117.5 216l120 862h283l-121 -866q-23 -161 -118 -292t-239.5 -205.5
t-309.5 -74.5z" />
    <glyph glyph-name="uni0215" unicode="&#x215;" horiz-adv-x="1196" 
d="M344 1159l-166 293h291l133 -293h-258zM786 1159l-165 293h288l135 -293h-258zM520 -25q-221 0 -337.5 120.5t-88.5 320.5l90 628h267l-86 -591q-12 -100 40 -160t152 -60t170 60.5t82 159.5l84 591h266l-88 -628q-28 -199 -179.5 -320t-371.5 -121z" />
    <glyph glyph-name="uni0216" unicode="&#x216;" horiz-adv-x="1404" 
d="M518 1522q20 132 124.5 220.5t242.5 88.5t218.5 -88.5t61.5 -220.5h-207q7 51 -21.5 84.5t-78.5 33.5t-88 -33.5t-45 -84.5h-207zM625 -25q-165 0 -288.5 74.5t-181 205.5t-34.5 292l121 866h282l-121 -862q-19 -129 56 -216t205 -87t228.5 87t117.5 216l120 862h283
l-121 -866q-23 -161 -118 -292t-239.5 -205.5t-309.5 -74.5z" />
    <glyph glyph-name="uni0217" unicode="&#x217;" horiz-adv-x="1196" 
d="M362 1153q20 132 124.5 220.5t242.5 88.5t219 -88.5t62 -220.5h-207q7 51 -22 85t-79 34t-88 -34t-45 -85h-207zM520 -25q-221 0 -337.5 120.5t-88.5 320.5l90 628h267l-86 -591q-12 -100 40 -160t152 -60t170 60.5t82 159.5l84 591h266l-88 -628q-28 -199 -179.5 -320
t-371.5 -121z" />
    <glyph glyph-name="uni0218" unicode="&#x218;" horiz-adv-x="1228" 
d="M557 -25q-161 0 -310.5 60.5t-244.5 161.5l176 215q75 -83 186.5 -134t227.5 -51q110 0 192.5 46t92.5 118q3 25 -4 46.5t-18.5 37t-37 30.5t-45 24t-56.5 20.5t-57.5 17t-62.5 15.5q-102 25 -181.5 61t-141 88.5t-89 126.5t-14.5 164q26 188 190.5 302t403.5 114
q153 0 273.5 -48t189.5 -128l-162 -213q-52 60 -145 98.5t-195 38.5q-106 0 -180.5 -43t-83.5 -109q-4 -31 9.5 -58t36.5 -45.5t60 -34.5t70.5 -26t77.5 -20q35 -8 67.5 -16.5t84.5 -27.5t94 -41.5t87 -58.5t73.5 -77.5t42.5 -100t5 -125.5q-18 -124 -105 -222.5t-220 -152
t-287 -53.5zM301 -461l133 348h275l-189 -348h-219z" />
    <glyph glyph-name="uni0219" unicode="&#x219;" horiz-adv-x="985" 
d="M410 -25q-251 0 -418 160l155 176q116 -116 287 -116q82 0 138 26t63 72q3 20 -6 37t-23.5 28t-43 22t-52 17.5t-64.5 16.5q-65 15 -102.5 25.5t-93.5 36.5t-84.5 57t-46.5 84.5t-8 121.5q15 107 85 183t169.5 111.5t218.5 35.5q229 0 385 -137l-154 -178
q-115 96 -256 96q-72 0 -122 -23t-56 -67q-3 -20 6 -36.5t23 -27.5t43 -21.5t52 -16.5t64 -15q64 -15 102 -25.5t94 -36.5t84.5 -57.5t46.5 -85t9 -121.5q-23 -161 -161.5 -251.5t-333.5 -90.5zM168 -461l133 348h274l-188 -348h-219z" />
    <glyph glyph-name="uni021A" unicode="&#x21a;" horiz-adv-x="1206" 
d="M1278 1413l-37 -266h-407l-162 -1147h-283l162 1147h-410l37 266h1100zM274 -461l134 348h274l-188 -348h-220z" />
    <glyph glyph-name="uni021B" unicode="&#x21b;" horiz-adv-x="839" 
d="M530 801l-61 -434q-18 -134 123 -134q59 0 143 35l-35 -248q-91 -45 -202 -45q-175 0 -250 93.5t-51 255.5l67 477h-166l33 243h168l37 265h266l-37 -265h279l-33 -243h-281zM127 -461l133 348h275l-189 -348h-219z" />
    <glyph glyph-name="uni0232" unicode="&#x232;" horiz-adv-x="1380" 
d="M1139 1774l-33 -224h-541l33 224h541zM1192 1413h315l-680 -917l-69 -496h-283l70 496l-422 917h323l285 -633z" />
    <glyph glyph-name="uni0233" unicode="&#x233;" horiz-adv-x="1163" 
d="M977 1405l-33 -223h-541l33 223h541zM930 1044h297l-688 -1226q-60 -107 -154 -169.5t-197 -62.5q-71 0 -143 29t-119 76l133 209q46 -56 121 -56q80 0 129 82l56 90l-281 1028h303l172 -710z" />
    <glyph glyph-name="uni0237" unicode="&#x237;" horiz-adv-x="530" 
d="M-55 -414q-84 0 -142 25l35 239q39 -20 90 -20q112 0 127 111l156 1103h266l-160 -1134q-21 -150 -116 -237t-256 -87z" />
    <glyph glyph-name="uni02BC" unicode="&#x2bc;" horiz-adv-x="284" 
d="M70 1020l106 455h242l-148 -455h-200z" />
    <glyph glyph-name="circumflex" unicode="&#x2c6;" horiz-adv-x="727" 
d="M817 1159h-250l-92 150l-135 -150h-250l244 293h321z" />
    <glyph glyph-name="caron" unicode="&#x2c7;" horiz-adv-x="727" 
d="M608 1452h250l-244 -293h-321l-162 293h250l92 -149z" />
    <glyph glyph-name="breve" unicode="&#x2d8;" horiz-adv-x="645" 
d="M410 1139q-138 0 -218 88.5t-61 220.5h205q-6 -53 21.5 -86t78.5 -33q50 0 89 33.5t46 85.5h205q-19 -132 -123.5 -220.5t-242.5 -88.5z" />
    <glyph glyph-name="dotaccent" unicode="&#x2d9;" horiz-adv-x="317" 
d="M248 1157q-68 0 -107 44.5t-30 111.5t61 112t119 45q68 0 107 -45t30 -112t-60.5 -111.5t-119.5 -44.5z" />
    <glyph glyph-name="ring" unicode="&#x2da;" horiz-adv-x="419" 
d="M297 1135q-89 0 -141.5 58t-40.5 146t80 146.5t159 58.5q89 0 141 -58.5t40 -146.5q-12 -87 -80 -145.5t-158 -58.5zM315 1268q29 0 52.5 20t27.5 51q3 31 -13.5 51.5t-45.5 20.5q-31 0 -54 -20.5t-26 -51.5q-5 -31 11.5 -51t47.5 -20z" />
    <glyph glyph-name="ogonek" unicode="&#x2db;" horiz-adv-x="466" 
d="M123 -489q-117 0 -182.5 63.5t-51.5 161.5q12 87 84.5 159.5t176.5 110.5h200l2 -6q-230 -94 -243 -207q-7 -42 19 -67t65 -25q47 0 104 31l37 -164q-94 -57 -211 -57z" />
    <glyph glyph-name="tilde" unicode="&#x2dc;" horiz-adv-x="733" 
d="M592 1171q-40 0 -74.5 13t-54.5 29t-44.5 29t-47.5 13q-35 0 -60 -22t-30 -55h-189q18 127 90.5 208.5t182.5 81.5q40 0 75 -14t55.5 -30t45.5 -30t49 -14q33 0 58 24t30 58h188q-18 -129 -90 -210t-184 -81z" />
    <glyph glyph-name="hungarumlaut" unicode="&#x2dd;" horiz-adv-x="907" 
d="M90 1159l215 293h291l-250 -293h-256zM532 1159l216 293h288l-248 -293h-256z" />
    <glyph glyph-name="gravecomb" unicode="&#x300;" horiz-adv-x="0" 
d="M-190 1159l-222 293h334l168 -293h-280z" />
    <glyph glyph-name="acutecomb" unicode="&#x301;" horiz-adv-x="0" 
d="M-453 1159l248 293h334l-301 -293h-281z" />
    <glyph glyph-name="uni0302" unicode="&#x302;" horiz-adv-x="0" 
d="M90 1159h-250l-92 150l-135 -150h-250l244 293h321z" />
    <glyph glyph-name="tildecomb" unicode="&#x303;" horiz-adv-x="0" 
d="M-141 1171q-40 0 -74.5 13t-54.5 29t-44.5 29t-47.5 13q-35 0 -60.5 -22t-30.5 -55h-188q18 127 90 208.5t182 81.5q51 0 92 -22t73 -44t61 -22q33 0 58 24t30 58h188q-18 -129 -90 -210t-184 -81z" />
    <glyph glyph-name="uni0304" unicode="&#x304;" horiz-adv-x="0" 
d="M-449 1182l33 223h541l-33 -223h-541z" />
    <glyph glyph-name="uni0306" unicode="&#x306;" horiz-adv-x="0" 
d="M-236 1139q-138 0 -217.5 88.5t-60.5 220.5h205q-6 -53 21.5 -86t78.5 -33q50 0 89 33.5t46 85.5h205q-19 -132 -124 -220.5t-243 -88.5z" />
    <glyph glyph-name="uni0307" unicode="&#x307;" horiz-adv-x="0" 
d="M-70 1157q-68 0 -107 44.5t-30 111.5t61 112t119 45q68 0 107.5 -45t30.5 -112t-61 -111.5t-120 -44.5z" />
    <glyph glyph-name="uni0308" unicode="&#x308;" horiz-adv-x="0" 
d="M-502 1157q-65 0 -102.5 43t-28.5 107q9 63 58.5 106t113.5 43t101 -43t28 -106q-7 -64 -56.5 -107t-113.5 -43zM-61 1157q-63 0 -101 43t-31 107q9 63 59.5 106t115.5 43q64 0 101 -43t28 -106q-7 -64 -57 -107t-115 -43z" />
    <glyph glyph-name="uni030A" unicode="&#x30a;" horiz-adv-x="0" 
d="M-123 1135q-89 0 -141.5 58t-40.5 146t80 146.5t159 58.5q89 0 141 -58.5t40 -146.5q-12 -87 -80 -145.5t-158 -58.5zM-104 1268q29 0 52 20t27 51q3 31 -13.5 51.5t-45.5 20.5q-31 0 -54 -20.5t-26 -51.5q-5 -31 12 -51t48 -20z" />
    <glyph glyph-name="uni030B" unicode="&#x30b;" horiz-adv-x="0" 
d="M-817 1159l215 293h291l-250 -293h-256zM-375 1159l215 293h289l-248 -293h-256z" />
    <glyph glyph-name="uni030C" unicode="&#x30c;" horiz-adv-x="0" 
d="M-119 1452h250l-244 -293h-321l-162 293h250l92 -149z" />
    <glyph glyph-name="uni030F" unicode="&#x30f;" horiz-adv-x="0" 
d="M-610 1159l-166 293h291l133 -293h-258zM-168 1159l-166 293h289l135 -293h-258z" />
    <glyph glyph-name="uni0311" unicode="&#x311;" horiz-adv-x="0" 
d="M-557 1153q20 132 124.5 220.5t242.5 88.5t218.5 -88.5t61.5 -220.5h-207q7 51 -21.5 85t-78.5 34q-49 0 -87 -34t-46 -85h-207z" />
    <glyph glyph-name="uni0312" unicode="&#x312;" horiz-adv-x="0" 
d="M-270 1153l188 348h219l-133 -348h-274z" />
    <glyph glyph-name="dotbelowcomb" unicode="&#x323;" horiz-adv-x="0" 
d="M-293 -426q-67 0 -105.5 45t-29.5 113q9 67 60.5 111t119.5 44q66 0 105 -44t30 -111t-60.5 -112.5t-119.5 -45.5z" />
    <glyph glyph-name="uni0326" unicode="&#x326;" horiz-adv-x="0" 
d="M-496 -461l134 348h274l-188 -348h-220z" />
    <glyph glyph-name="uni0327" unicode="&#x327;" horiz-adv-x="0" 
d="M-276 -59q83 -5 129.5 -66t33.5 -149q-12 -96 -91.5 -161t-186.5 -65q-137 0 -215 105l108 110q49 -69 125 -69q38 0 67 23t34 57q6 33 -15 56t-57 23q-38 0 -66 -28l-139 67l148 156v4h184v-4z" />
    <glyph glyph-name="uni0328" unicode="&#x328;" horiz-adv-x="0" 
d="M-344 -489q-117 0 -182.5 63.5t-51.5 161.5q12 87 84.5 159.5t176.5 110.5h200l2 -6q-230 -94 -243 -207q-7 -42 19 -67t65 -25q47 0 104 31l37 -164q-94 -57 -211 -57z" />
    <glyph glyph-name="uni0335" unicode="&#x335;" horiz-adv-x="0" 
d="M-635 467l29 190h626l-28 -190h-627z" />
    <glyph glyph-name="uni0336" unicode="&#x336;" horiz-adv-x="0" 
d="M-1425 463l28 194h1417l-28 -194h-1417z" />
    <glyph glyph-name="uni0337" unicode="&#x337;" horiz-adv-x="0" 
d="M-1192 0l1075 1044h191l-1075 -1044h-191z" />
    <glyph glyph-name="uni0338" unicode="&#x338;" horiz-adv-x="0" 
d="M-1526 0l1415 1413h236l-1415 -1413h-236z" />
    <glyph glyph-name="uni03BC" unicode="&#x3bc;" horiz-adv-x="1239" 
d="M920 1044h266l-148 -1044h-266l14 100q-131 -125 -311 -125q-86 0 -156 31l-55 -395h-266l203 1433h266l-82 -587q-14 -102 36.5 -163t149.5 -61q101 0 173 58t92 155z" />
    <glyph glyph-name="uni1E0C" unicode="&#x1e0c;" horiz-adv-x="1488" 
d="M821 1413q203 0 355.5 -92t223.5 -253.5t44 -360.5q-21 -149 -94.5 -280t-182.5 -225t-250.5 -148t-293.5 -54h-553l198 1413h553zM1153 707q26 189 -81 314.5t-294 125.5h-264l-125 -881h264q187 0 329.5 126t170.5 315zM641 -113q66 0 105 -44t30 -111t-60.5 -112.5
t-119.5 -45.5q-67 0 -105.5 45t-29.5 113q9 67 60.5 111t119.5 44z" />
    <glyph glyph-name="uni1E0D" unicode="&#x1e0d;" 
d="M1051 1475h266l-207 -1475h-266l18 125q-160 -150 -362 -150q-143 0 -249.5 71.5t-155 196.5t-27.5 279q32 233 200.5 390t386.5 157q207 0 318 -149zM588 233q119 0 211.5 77.5t115.5 193.5l5 33q9 118 -60.5 196t-189.5 78q-123 0 -217 -83t-111 -206t53 -206t193 -83z
M561 -113q66 0 105 -44t30 -111t-60.5 -112.5t-119.5 -45.5q-67 0 -105.5 45t-29.5 113q9 67 60.5 111t119.5 44z" />
    <glyph glyph-name="uni1E24" unicode="&#x1e24;" horiz-adv-x="1478" 
d="M1178 1413h282l-198 -1413h-283l82 578h-627l-82 -578h-282l198 1413h283l-80 -569h627zM651 -113q66 0 105 -44t30 -111t-60.5 -112.5t-119.5 -45.5q-67 0 -105.5 45t-29.5 113q9 67 60.5 111t119.5 44z" />
    <glyph glyph-name="uni1E25" unicode="&#x1e25;" horiz-adv-x="1243" 
d="M803 1069q185 0 279.5 -110.5t68.5 -294.5l-92 -664h-266l81 578q15 106 -38.5 169.5t-157.5 63.5q-105 0 -180 -60.5t-97 -162.5l-82 -588h-266l207 1475h266l-77 -555q149 149 354 149zM541 -113q66 0 105 -44t30 -111t-60.5 -112.5t-119.5 -45.5q-67 0 -106 45
t-30 113q9 67 61 111t120 44z" />
    <glyph glyph-name="uni1E44" unicode="&#x1e44;" horiz-adv-x="1499" 
d="M897 1526q-68 0 -107 44t-30 111t61.5 112.5t118.5 45.5q68 0 107 -45.5t30 -112.5t-60.5 -111t-119.5 -44zM1198 1413h283l-199 -1413h-287l-512 928l-131 -928h-282l198 1413h287l512 -928z" />
    <glyph glyph-name="uni1E45" unicode="&#x1e45;" horiz-adv-x="1243" 
d="M721 1157q-68 0 -107 44.5t-30 111.5t61 112t119 45q68 0 107 -45t30 -112t-60.5 -111.5t-119.5 -44.5zM803 1069q185 0 279.5 -110.5t68.5 -294.5l-92 -664h-266l81 578q15 106 -38.5 169.5t-157.5 63.5q-103 0 -177.5 -58.5t-97.5 -156.5l-84 -596h-266l148 1044h266
l-16 -116q147 141 352 141z" />
    <glyph glyph-name="uni1E5A" unicode="&#x1e5a;" horiz-adv-x="1296" 
d="M1284 950q-22 -152 -125 -266.5t-254 -157.5l281 -526h-340l-254 504h-168l-72 -504h-282l198 1413h602q205 0 324 -133t90 -330zM993 948q12 85 -35.5 142t-130.5 57h-313l-57 -397h315q83 0 147 56.5t74 141.5zM559 -113q66 0 105 -44t30 -111t-60.5 -112.5
t-119.5 -45.5q-67 0 -105.5 45t-29.5 113q9 67 60.5 111t119.5 44z" />
    <glyph glyph-name="uni1E5B" unicode="&#x1e5b;" horiz-adv-x="768" 
d="M770 1061h45l-39 -275h-43q-138 0 -228.5 -72.5t-113.5 -199.5l-72 -514h-266l148 1044h266l-18 -135q139 152 321 152zM172 -113q66 0 105 -44t30 -111t-60.5 -112.5t-119.5 -45.5q-67 0 -105.5 45t-29.5 113q9 67 60.5 111t119.5 44z" />
    <glyph glyph-name="uni1E62" unicode="&#x1e62;" horiz-adv-x="1228" 
d="M557 -25q-161 0 -310.5 60.5t-244.5 161.5l176 215q75 -83 186.5 -134t227.5 -51q110 0 192.5 46t92.5 118q3 25 -4 46.5t-18.5 37t-37 30.5t-45 24t-56.5 20.5t-57.5 17t-62.5 15.5q-102 25 -181.5 61t-141 88.5t-89 126.5t-14.5 164q26 188 190.5 302t403.5 114
q153 0 273.5 -48t189.5 -128l-162 -213q-52 60 -145 98.5t-195 38.5q-106 0 -180.5 -43t-83.5 -109q-4 -31 9.5 -58t36.5 -45.5t60 -34.5t70.5 -26t77.5 -20q35 -8 67.5 -16.5t84.5 -27.5t94 -41.5t87 -58.5t73.5 -77.5t42.5 -100t5 -125.5q-18 -124 -105 -222.5t-220 -152
t-287 -53.5zM496 -426q-67 0 -106 45t-30 113q9 67 61 111t120 44q66 0 105 -44t30 -111t-60.5 -112.5t-119.5 -45.5z" />
    <glyph glyph-name="uni1E63" unicode="&#x1e63;" horiz-adv-x="985" 
d="M410 -25q-251 0 -418 160l155 176q116 -116 287 -116q82 0 138 26t63 72q3 20 -6 37t-23.5 28t-43 22t-52 17.5t-64.5 16.5q-65 15 -102.5 25.5t-93.5 36.5t-84.5 57t-46.5 84.5t-8 121.5q15 107 85 183t169.5 111.5t218.5 35.5q229 0 385 -137l-154 -178
q-115 96 -256 96q-72 0 -122 -23t-56 -67q-3 -20 6 -36.5t23 -27.5t43 -21.5t52 -16.5t64 -15q64 -15 102 -25.5t94 -36.5t84.5 -57.5t46.5 -85t9 -121.5q-23 -161 -161.5 -251.5t-333.5 -90.5zM362 -426q-67 0 -105.5 45t-29.5 113q9 67 61 111t120 44q66 0 105 -44
t30 -111t-61 -112.5t-120 -45.5z" />
    <glyph glyph-name="uni1E6C" unicode="&#x1e6c;" horiz-adv-x="1206" 
d="M1278 1413l-37 -266h-407l-162 -1147h-283l162 1147h-410l37 266h1100zM516 -113q66 0 105 -44t30 -111t-60.5 -112.5t-119.5 -45.5q-67 0 -105.5 45t-29.5 113q9 67 60.5 111t119.5 44z" />
    <glyph glyph-name="uni1E6D" unicode="&#x1e6d;" horiz-adv-x="839" 
d="M530 801l-61 -434q-18 -134 123 -134q59 0 143 35l-35 -248q-91 -45 -202 -45q-175 0 -250 93.5t-51 255.5l67 477h-166l33 243h168l37 265h266l-37 -265h279l-33 -243h-281zM369 -113q66 0 105 -44t30 -111t-60.5 -112.5t-119.5 -45.5q-67 0 -106 45t-30 113
q9 67 61 111t120 44z" />
    <glyph glyph-name="Wgrave" unicode="&#x1e80;" horiz-adv-x="2066" 
d="M1331 1528h-280l-222 293h334zM1870 1413h291l-639 -1413h-283l-139 985l-420 -985h-281l-243 1413h299l145 -1028l438 1028h248l148 -1028z" />
    <glyph glyph-name="wgrave" unicode="&#x1e81;" horiz-adv-x="1765" 
d="M1126 1159h-280l-221 293h333zM1532 1044h291l-518 -1044h-275l-121 721l-321 -721h-275l-223 1044h297l117 -702l319 702h273l121 -702z" />
    <glyph glyph-name="Wacute" unicode="&#x1e82;" horiz-adv-x="2066" 
d="M1604 1821l-301 -293h-281l248 293h334zM1870 1413h291l-639 -1413h-283l-139 985l-420 -985h-281l-243 1413h299l145 -1028l438 1028h248l148 -1028z" />
    <glyph glyph-name="wacute" unicode="&#x1e83;" horiz-adv-x="1765" 
d="M1399 1452l-301 -293h-281l248 293h334zM1532 1044h291l-518 -1044h-275l-121 721l-321 -721h-275l-223 1044h297l117 -702l319 702h273l121 -702z" />
    <glyph glyph-name="Wdieresis" unicode="&#x1e84;" horiz-adv-x="2066" 
d="M954 1526q-65 0 -102.5 42.5t-28.5 106.5q9 63 58.5 106.5t113.5 43.5t101 -43.5t28 -106.5q-7 -64 -56.5 -106.5t-113.5 -42.5zM1395 1526q-63 0 -100.5 42.5t-30.5 106.5q9 63 59.5 106.5t114.5 43.5t101 -43.5t28 -106.5q-7 -64 -57 -106.5t-115 -42.5zM1870 1413h291
l-639 -1413h-283l-139 985l-420 -985h-281l-243 1413h299l145 -1028l438 1028h248l148 -1028z" />
    <glyph glyph-name="wdieresis" unicode="&#x1e85;" horiz-adv-x="1765" 
d="M752 1157q-65 0 -102.5 43t-28.5 107q9 63 58.5 106t113.5 43t101 -43t28 -106q-7 -64 -56.5 -107t-113.5 -43zM1192 1157q-63 0 -100.5 43t-30.5 107q9 63 59 106t115 43q64 0 101 -43t28 -106q-7 -64 -57 -107t-115 -43zM1532 1044h291l-518 -1044h-275l-121 721
l-321 -721h-275l-223 1044h297l117 -702l319 702h273l121 -702z" />
    <glyph glyph-name="uni1E92" unicode="&#x1e92;" horiz-adv-x="1257" 
d="M1294 1413l-28 -203l-842 -944h723l-37 -266h-1110l29 203l841 944h-700l37 266h1087zM539 -113q66 0 105 -44t30 -111t-60.5 -112.5t-119.5 -45.5q-67 0 -106 45t-30 113q9 67 61 111t120 44z" />
    <glyph glyph-name="uni1E93" unicode="&#x1e93;" horiz-adv-x="1017" 
d="M999 1044l-26 -194l-559 -592h491l-39 -258h-862l27 195l559 591h-469l39 258h839zM420 -113q66 0 105 -44t30 -111t-60.5 -112.5t-119.5 -45.5q-67 0 -105.5 45t-29.5 113q9 67 60.5 111t119.5 44z" />
    <glyph glyph-name="uni1E9E" unicode="&#x1e9e;" horiz-adv-x="1337" 
d="M1327 1413l-33 -233l-282 -322q145 -38 221.5 -157.5t54.5 -278.5q-26 -191 -176.5 -319t-347.5 -128q-62 0 -126 16.5t-103 41.5l38 280q26 -28 79 -46.5t104 -18.5q95 0 164 52.5t79 135.5q11 75 -34 127.5t-123 52.5h-158l29 207l268 324h-344q-59 0 -101 -36.5
t-49 -96.5l-143 -1014h-283l148 1044q23 164 143.5 266.5t290.5 102.5h684z" />
    <glyph glyph-name="uni1EA0" unicode="&#x1ea0;" horiz-adv-x="1466" 
d="M1370 0h-309l-62 274h-606l-139 -274h-305l743 1413h334zM524 535h416l-129 567zM643 -113q66 0 105 -44t30 -111t-60.5 -112.5t-119.5 -45.5q-67 0 -105.5 45t-29.5 113q9 67 60.5 111t119.5 44z" />
    <glyph glyph-name="uni1EA1" unicode="&#x1ea1;" 
d="M991 1044h266l-147 -1044h-266l18 125q-160 -150 -362 -150q-143 0 -249.5 71.5t-155 196.5t-27.5 279q32 233 200.5 390t386.5 157q205 0 318 -149zM588 233q124 0 217.5 82t112.5 205v2q15 124 -54.5 206.5t-193.5 82.5q-123 0 -217 -83t-111 -206t53 -206t193 -83z
M573 -113q67 0 106 -44t30 -111t-61 -112.5t-120 -45.5q-67 0 -105.5 45t-29.5 113q9 67 60.5 111t119.5 44z" />
    <glyph glyph-name="uni1EB8" unicode="&#x1eb8;" horiz-adv-x="1189" 
d="M1182 1147h-668l-43 -303h600l-37 -266h-600l-45 -312h678l-37 -266h-960l198 1413h951zM537 -113q66 0 105 -44t30 -111t-60.5 -112.5t-119.5 -45.5q-67 0 -106 45t-30 113q9 67 61 111t120 44z" />
    <glyph glyph-name="uni1EB9" unicode="&#x1eb9;" horiz-adv-x="1226" 
d="M696 1069q154 0 270 -71t169.5 -197t31.5 -281q-8 -60 -20 -94h-809q14 -99 85 -157t183 -58q91 0 173 36.5t132 92.5l158 -156q-97 -98 -228 -153.5t-276 -55.5q-248 0 -391 158t-111 393q34 232 215.5 387.5t417.5 155.5zM659 836q-96 0 -177.5 -59t-119.5 -156h535
q-10 98 -75 156.5t-163 58.5zM537 -113q66 0 105 -44t30 -111t-60.5 -112.5t-119.5 -45.5q-67 0 -106 45t-30 113q9 67 61 111t120 44z" />
    <glyph glyph-name="uni1EBC" unicode="&#x1ebc;" horiz-adv-x="1189" 
d="M678 1624q-35 0 -60 -22.5t-30 -55.5h-189q18 127 90.5 209t182.5 82q40 0 75 -13.5t55.5 -30.5t45.5 -30.5t49 -13.5q33 0 58 24t30 58h189q-18 -129 -90.5 -210t-184.5 -81q-40 0 -74.5 13t-54.5 29t-44.5 29t-47.5 13zM1182 1147h-668l-43 -303h600l-37 -266h-600
l-45 -312h678l-37 -266h-960l198 1413h951z" />
    <glyph glyph-name="uni1EBD" unicode="&#x1ebd;" horiz-adv-x="1226" 
d="M629 1255q-35 0 -60 -22t-30 -55h-189q18 127 90.5 208.5t182.5 81.5q40 0 75 -14t55.5 -30t45.5 -30t49 -14q33 0 58 24t30 58h188q-18 -129 -90 -210t-184 -81q-40 0 -74.5 13t-54.5 29t-44.5 29t-47.5 13zM696 1069q154 0 270 -71t169.5 -197t31.5 -281
q-8 -60 -20 -94h-809q14 -99 85 -157t183 -58q91 0 173 36.5t132 92.5l158 -156q-97 -98 -228 -153.5t-276 -55.5q-248 0 -391 158t-111 393q34 232 215.5 387.5t417.5 155.5zM659 836q-96 0 -177.5 -59t-119.5 -156h535q-10 98 -75 156.5t-163 58.5z" />
    <glyph glyph-name="uni1ECA" unicode="&#x1eca;" horiz-adv-x="569" 
d="M70 0l198 1413h283l-199 -1413h-282zM152 -426q-67 0 -106 45t-30 113q9 67 61 111t120 44q66 0 105 -44t30 -111t-60.5 -112.5t-119.5 -45.5z" />
    <glyph glyph-name="uni1ECB" unicode="&#x1ecb;" horiz-adv-x="520" 
d="M354 1198q-71 0 -112 48t-31 118q11 71 65.5 118.5t124.5 47.5q71 0 112.5 -48t31.5 -118q-9 -70 -64 -118t-127 -48zM53 0l148 1044h266l-148 -1044h-266zM127 -426q-67 0 -105.5 45t-29.5 113q9 67 60.5 111t119.5 44q66 0 105 -44t30 -111t-60.5 -112.5t-119.5 -45.5z
" />
    <glyph glyph-name="uni1ECC" unicode="&#x1ecc;" horiz-adv-x="1634" 
d="M739 -25q-209 0 -366 95.5t-230.5 263.5t-44.5 373q28 205 149 372.5t305.5 263t393.5 95.5q157 0 287 -56t215 -153t123.5 -232.5t17.5 -289.5q-29 -205 -150.5 -373t-306 -263.5t-393.5 -95.5zM778 248q194 0 343 131.5t177 327.5t-84.5 327t-306.5 131t-342 -131
t-176 -327t83.5 -327.5t305.5 -131.5zM684 -426q-67 0 -105.5 45t-29.5 113q9 67 60.5 111t119.5 44q66 0 105 -44t30 -111t-60.5 -112.5t-119.5 -45.5z" />
    <glyph glyph-name="uni1ECD" unicode="&#x1ecd;" horiz-adv-x="1249" 
d="M547 -25q-239 0 -377.5 157t-106.5 390q21 153 112.5 278.5t230.5 197t296 71.5q239 0 377.5 -157t106.5 -390q-21 -153 -112.5 -278.5t-230.5 -197t-296 -71.5zM584 233q124 0 218 83t109 206q17 124 -52 206.5t-193 82.5q-123 0 -217 -83t-111 -206t53 -206t193 -83z
M492 -426q-67 0 -106 45t-30 113q9 67 61 111t120 44q66 0 105 -44t30 -111t-60.5 -112.5t-119.5 -45.5z" />
    <glyph glyph-name="uni1EE4" unicode="&#x1ee4;" horiz-adv-x="1404" 
d="M625 -25q-165 0 -288.5 74.5t-181 205.5t-34.5 292l121 866h282l-121 -862q-19 -129 56 -216t205 -87t228.5 87t117.5 216l120 862h283l-121 -866q-23 -161 -118 -292t-239.5 -205.5t-309.5 -74.5zM569 -426q-67 0 -105.5 45t-29.5 113q9 67 60.5 111t119.5 44
q67 0 106 -44t30 -111t-61 -112.5t-120 -45.5z" />
    <glyph glyph-name="uni1EE5" unicode="&#x1ee5;" horiz-adv-x="1196" 
d="M520 -25q-221 0 -337.5 120.5t-88.5 320.5l90 628h267l-86 -591q-12 -100 40 -160t152 -60t170 60.5t82 159.5l84 591h266l-88 -628q-28 -199 -179.5 -320t-371.5 -121zM465 -426q-67 0 -105.5 45t-29.5 113q9 67 60.5 111t119.5 44q66 0 105 -44t30 -111t-60.5 -112.5
t-119.5 -45.5z" />
    <glyph glyph-name="Ygrave" unicode="&#x1ef2;" horiz-adv-x="1380" 
d="M987 1528h-280l-222 293h334zM1192 1413h315l-680 -917l-69 -496h-283l70 496l-422 917h323l285 -633z" />
    <glyph glyph-name="ygrave" unicode="&#x1ef3;" horiz-adv-x="1163" 
d="M827 1159h-280l-221 293h333zM930 1044h297l-688 -1226q-60 -107 -154 -169.5t-197 -62.5q-71 0 -143 29t-119 76l133 209q46 -56 121 -56q80 0 129 82l56 90l-281 1028h303l172 -710z" />
    <glyph glyph-name="uni1EF8" unicode="&#x1ef8;" horiz-adv-x="1380" 
d="M745 1624q-35 0 -60 -22.5t-30 -55.5h-188q18 127 90 209t182 82q51 0 92 -22t73 -44t61 -22q33 0 58 24t30 58h188q-18 -129 -90 -210t-184 -81q-51 0 -91.5 21t-71.5 42t-59 21zM1192 1413h315l-680 -917l-69 -496h-283l70 496l-422 917h323l285 -633z" />
    <glyph glyph-name="uni1EF9" unicode="&#x1ef9;" horiz-adv-x="1163" 
d="M584 1255q-35 0 -60 -22t-30 -55h-189q18 127 90.5 208.5t182.5 81.5q40 0 75 -14t55.5 -30t45.5 -30t49 -14q33 0 58 24t30 58h188q-18 -129 -90 -210t-184 -81q-40 0 -74.5 13t-54.5 29t-44.5 29t-47.5 13zM930 1044h297l-688 -1226q-60 -107 -154 -169.5t-197 -62.5
q-71 0 -143 29t-119 76l133 209q46 -56 121 -56q80 0 129 82l56 90l-281 1028h303l172 -710z" />
    <glyph glyph-name="endash" unicode="&#x2013;" horiz-adv-x="1245" 
d="M106 440l35 240h1008l-35 -240h-1008z" />
    <glyph glyph-name="emdash" unicode="&#x2014;" horiz-adv-x="2187" 
d="M106 440l35 240h1950l-35 -240h-1950z" />
    <glyph glyph-name="quoteleft" unicode="&#x2018;" horiz-adv-x="563" 
d="M125 850l305 563h229l-223 -563h-311z" />
    <glyph glyph-name="quoteright" unicode="&#x2019;" horiz-adv-x="563" 
d="M125 850l223 563h311l-305 -563h-229z" />
    <glyph glyph-name="quotesinglbase" unicode="&#x201a;" horiz-adv-x="530" 
d="M-102 -283l223 564h311l-305 -564h-229z" />
    <glyph glyph-name="quotedblleft" unicode="&#x201c;" horiz-adv-x="1040" 
d="M125 850l305 563h229l-223 -563h-311zM602 850l305 563h230l-224 -563h-311z" />
    <glyph glyph-name="quotedblright" unicode="&#x201d;" horiz-adv-x="1040" 
d="M125 850l223 563h311l-305 -563h-229zM602 850l223 563h312l-306 -563h-229z" />
    <glyph glyph-name="quotedblbase" unicode="&#x201e;" horiz-adv-x="1007" 
d="M-102 -283l223 564h311l-305 -564h-229zM375 -283l223 564h311l-305 -564h-229z" />
    <glyph glyph-name="dagger" unicode="&#x2020;" horiz-adv-x="1011" 
d="M967 1044l-35 -239h-266l-168 -1194h-242l168 1194h-266l35 239h266l51 369h242l-52 -369h267z" />
    <glyph glyph-name="daggerdbl" unicode="&#x2021;" horiz-adv-x="1011" 
d="M932 805h-266l-76 -545h266l-33 -240h-268l-57 -409h-242l57 409h-264l33 240h266l76 545h-266l35 239h266l51 369h242l-52 -369h267z" />
    <glyph glyph-name="bullet" unicode="&#x2022;" horiz-adv-x="716" 
d="M330 324q-102 0 -161 68t-44 169q14 101 91.5 169.5t180.5 68.5q101 0 160.5 -68.5t46.5 -169.5q-15 -101 -93 -169t-181 -68z" />
    <glyph glyph-name="ellipsis" unicode="&#x2026;" horiz-adv-x="1628" 
d="M184 -18q-79 0 -124.5 53t-34.5 131q10 78 71.5 131t141.5 53q79 0 124.5 -53t34.5 -131q-10 -78 -71.5 -131t-141.5 -53zM737 -18q-79 0 -124.5 53t-34.5 131q10 78 71.5 131t141.5 53q78 0 124 -53t35 -131q-10 -78 -71.5 -131t-141.5 -53zM1290 -18q-79 0 -125 53
t-35 131q10 78 71.5 131t139.5 53q79 0 126 -53t36 -131q-10 -78 -71.5 -131t-141.5 -53z" />
    <glyph glyph-name="perthousand" unicode="&#x2030;" horiz-adv-x="2543" 
d="M465 750q-149 0 -236 99t-65 247q20 146 134 244t263 98q150 0 236.5 -98t64.5 -244q-20 -148 -134 -247t-263 -99zM154 0l1222 1413h285l-1223 -1413h-284zM494 965q55 0 97 37.5t50 93.5q9 54 -23 90.5t-86 36.5q-55 0 -97 -36.5t-50 -90.5q-9 -56 22.5 -93.5
t86.5 -37.5zM1253 -25q-149 0 -235 99.5t-66 247.5q22 146 135.5 244t262.5 98q151 0 237.5 -98t63.5 -244q-20 -148 -134.5 -247.5t-263.5 -99.5zM2034 -25q-149 0 -236 99.5t-65 247.5q22 147 135 244.5t262 97.5q151 0 237.5 -98t63.5 -244q-20 -148 -134 -247.5
t-263 -99.5zM1284 190q56 0 98.5 37.5t49.5 94.5q8 54 -24 90.5t-87 36.5t-97 -36.5t-50 -90.5q-8 -57 23.5 -94.5t86.5 -37.5zM2064 190q56 0 98 37.5t48 94.5q9 54 -22.5 90.5t-86.5 36.5t-97 -36.5t-50 -90.5q-8 -57 23.5 -94.5t86.5 -37.5z" />
    <glyph glyph-name="guilsinglleft" unicode="&#x2039;" horiz-adv-x="753" 
d="M752 958l-371 -417l252 -418h-311l-254 418l370 417h314z" />
    <glyph glyph-name="guilsinglright" unicode="&#x203a;" horiz-adv-x="753" 
d="M446 958l254 -417l-370 -418h-314l375 418l-256 417h311z" />
    <glyph glyph-name="fraction" unicode="&#x2044;" horiz-adv-x="401" 
d="M-479 0l1167 1413h246l-1170 -1413h-243z" />
    <glyph glyph-name="uni2070" unicode="&#x2070;" horiz-adv-x="808" 
d="M416 735q-148 0 -224.5 122.5t-50.5 316.5q28 193 139 315.5t259 122.5q149 0 225.5 -122t48.5 -316q-26 -194 -137 -316.5t-260 -122.5zM442 922q61 0 109 70.5t63 181.5t-12.5 181t-87.5 70t-107.5 -69t-64.5 -182q-15 -112 13 -182t87 -70z" />
    <glyph glyph-name="uni2074" unicode="&#x2074;" horiz-adv-x="747" 
d="M778 1085l-28 -182h-80l-23 -153h-194l22 153h-346l-23 158l445 536h215l-72 -512h84zM307 1085h193l41 287z" />
    <glyph glyph-name="uni2075" unicode="&#x2075;" horiz-adv-x="724" 
d="M498 1300q125 0 198 -80t56 -198q-17 -124 -121.5 -205.5t-249.5 -81.5q-164 0 -287 111l119 155q32 -37 81 -58t101 -21q64 0 108 31t50 77q6 42 -22.5 70t-79.5 28q-66 0 -115 -43l-164 50l107 462h495l-26 -180h-330l-31 -139q49 22 111 22z" />
    <glyph glyph-name="uni2076" unicode="&#x2076;" horiz-adv-x="702" 
d="M522 1296q112 0 176.5 -78.5t49.5 -193.5q-19 -124 -123.5 -206.5t-241.5 -82.5q-148 0 -223.5 96t-53.5 254q19 133 98 246t212.5 188t298.5 93l10 -180q-116 -17 -205.5 -63t-138.5 -109q63 36 141 36zM547 1022q6 42 -25.5 71t-83.5 29t-92.5 -27t-46.5 -71
q-6 -45 24.5 -74.5t84.5 -29.5q53 0 93 29t46 73z" />
    <glyph glyph-name="uni2077" unicode="&#x2077;" horiz-adv-x="663" 
d="M193 1597h571l-21 -153l-407 -694h-219l393 665h-342z" />
    <glyph glyph-name="uni2078" unicode="&#x2078;" horiz-adv-x="729" 
d="M793 1372q-7 -56 -43 -103t-91 -79q54 -34 80 -86.5t17 -112.5q-15 -108 -119.5 -182t-243.5 -74t-222.5 73.5t-68.5 182.5q9 61 49.5 113t102.5 86q-45 32 -67 79t-13 103q14 101 112 170.5t230 69.5q133 0 212.5 -70t64.5 -170zM369 1352q-3 -35 25 -57.5t73 -22.5
q48 0 83.5 22.5t39.5 57.5q6 35 -22.5 57.5t-75.5 22.5q-46 0 -81.5 -22.5t-41.5 -57.5zM559 1010q6 38 -27.5 64t-87.5 26t-93.5 -26t-45.5 -64q-5 -39 27 -64.5t86 -25.5q55 0 95.5 26t45.5 64z" />
    <glyph glyph-name="uni2079" unicode="&#x2079;" horiz-adv-x="702" 
d="M502 1612q148 0 223.5 -96t52.5 -254q-20 -135 -99.5 -250t-213 -190.5t-295.5 -86.5l-12 180q115 10 204.5 57t141.5 115q-65 -36 -142 -36q-110 0 -174 79t-49 193q17 124 121 206.5t242 82.5zM588 1323q6 45 -25 74.5t-86 29.5q-53 0 -92.5 -29t-46.5 -73
q-5 -43 25.5 -71.5t82.5 -28.5t94 27t48 71z" />
    <glyph glyph-name="franc" unicode="&#x20a3;" horiz-adv-x="1140" 
d="M1153 1147h-596l-41 -287h516l-37 -266h-516l-24 -168h356l-35 -244h-354l-27 -182h-282l26 182h-114l36 244h111l139 987h879z" />
    <glyph glyph-name="lira" unicode="&#x20a4;" horiz-adv-x="1196" 
d="M483 449l-24 -183h637l-37 -266h-1034l36 266h115l25 183h-115l27 172h112l13 92h-113l22 172h113l12 82q19 132 100 240t204.5 169.5t263.5 61.5q121 0 223 -46.5t170 -125.5l-174 -207q-47 49 -115.5 77.5t-140.5 28.5q-96 0 -165 -55.5t-81 -142.5l-12 -82h393
l-25 -172h-393l-12 -92h393l-24 -172h-394z" />
    <glyph glyph-name="peseta" unicode="&#x20a7;" horiz-adv-x="1357" 
d="M1407 1001l-27 -180h-90q-57 -184 -215.5 -301t-355.5 -117h-252l-55 -399h-283l115 817h-115l27 180h112l60 416h532q198 0 323.5 -116.5t131.5 -299.5h92zM573 1151l-22 -150h465q-15 68 -69 109t-130 41h-244zM750 670q77 0 141 41t100 110h-465l-20 -151h244z" />
    <glyph glyph-name="uni20A8" unicode="&#x20a8;" horiz-adv-x="2277" 
d="M1284 950q-22 -152 -125 -266.5t-254 -157.5l281 -526h-340l-254 504h-168l-72 -504h-282l198 1413h602q205 0 324 -133t90 -330zM993 948q12 85 -35.5 142t-130.5 57h-313l-57 -397h315q83 0 147 56.5t74 141.5zM1862 643q64 -15 102 -25.5t94 -36.5t84.5 -57.5
t46.5 -85t9 -121.5q-23 -161 -162 -251.5t-334 -90.5q-252 0 -416 160l154 176q116 -116 286 -116q82 0 138 26t63 72q3 20 -6 37t-23 28t-42.5 22t-52 17.5t-64.5 16.5q-65 15 -102.5 25.5t-94 36.5t-85 57t-46.5 84.5t-8 121.5q15 107 85 183t169.5 111.5t218.5 35.5
q229 0 385 -137l-154 -178q-115 96 -256 96q-72 0 -122 -23t-56 -67q-3 -20 6 -36.5t23 -27.5t43.5 -21.5t52.5 -16.5t64 -15z" />
    <glyph glyph-name="Euro" unicode="&#x20ac;" horiz-adv-x="1542" 
d="M1075 1438q280 0 469 -164l-43 -303q-75 91 -187.5 142.5t-242.5 51.5q-147 0 -271 -64t-200 -175h715l-70 -174h-721q-3 -11 -8 -45q-4 -28 -4 -45h698l-69 -175h-602q45 -111 150.5 -175t252.5 -64q129 0 257 52t228 142l-43 -301q-108 -78 -241 -122t-275 -44
q-258 0 -431.5 141t-209.5 371h-172l70 175h96l6 45q4 27 9 45h-144l72 174h125q101 229 315 370.5t471 141.5z" />
    <glyph glyph-name="uni20B1" unicode="&#x20b1;" horiz-adv-x="1357" 
d="M1315 938q-1 -5 -2 -15.5t-2 -15.5l-6 -33h84l-21 -141h-111q-74 -151 -220.5 -242.5t-319.5 -91.5h-252l-55 -399h-283l102 733h-110l20 141h111l8 64h-111l21 141h111l47 334h534q173 0 293.5 -91.5t153.5 -242.5h110l-18 -141h-84zM573 1163l-12 -84h418
q-64 84 -184 84h-222zM532 874h480l6 33q2 10 2 31h-479zM721 649q118 0 209 84h-418l-10 -84h219z" />
    <glyph glyph-name="uni20B5" unicode="&#x20b5;" horiz-adv-x="1509" 
d="M881 262q185 31 309 180l219 -155q-105 -126 -252.5 -205t-314.5 -96l-19 -129h-182l18 131q-181 21 -313 119.5t-192 255.5t-33 344q25 187 129.5 343.5t264.5 255t347 119.5l19 131h182l-19 -129q163 -17 289 -95.5t195 -205.5l-262 -155q-87 150 -260 180zM410 707
q-25 -166 55.5 -288.5t232.5 -154.5l125 885q-159 -32 -273.5 -154t-139.5 -288z" />
    <glyph glyph-name="uni20B9" unicode="&#x20b9;" horiz-adv-x="1206" 
d="M1001 1231q46 -69 58 -164h176l-88 -180h-103q-44 -179 -189.5 -296.5t-330.5 -121.5l437 -469h-383l-449 479l35 250h362q74 0 136 44t90 114h-566l27 180h537q-21 43 -63 68.5t-97 25.5h-365l35 252h1024l-88 -182h-195z" />
    <glyph glyph-name="uni2116" unicode="&#x2116;" horiz-adv-x="2342" 
d="M2009 1438q167 0 263 -110t73 -273q-22 -164 -149 -274.5t-293 -110.5q-167 0 -263 110.5t-73 274.5q22 163 149 273t293 110zM1067 485l131 928h283l-199 -1413h-287l-512 928l-131 -928h-282l198 1413h287zM2116 1055q9 69 -30.5 114t-107.5 45t-120.5 -45.5
t-61.5 -113.5q-10 -70 29.5 -116t107.5 -46t120.5 46t62.5 116zM1491 311l35 240h719l-35 -240h-719z" />
    <glyph glyph-name="trademark" unicode="&#x2122;" horiz-adv-x="1341" 
d="M129 1276l21 137h460l-20 -137h-156l-67 -471h-146l68 471h-160zM1190 1413h178l-86 -608h-141l57 399l-190 -317h-88l-101 313l-55 -395h-146l87 608h182l104 -332z" />
    <glyph glyph-name="uni2150" unicode="&#x2150;" horiz-adv-x="1781" 
d="M313 1180l-135 -70l-61 158l282 145h140l-119 -848h-195zM1294 1413h246l-1169 -1413h-244zM1204 848h572l-21 -154l-407 -694h-220l394 666h-342z" />
    <glyph glyph-name="uni2151" unicode="&#x2151;" horiz-adv-x="1712" 
d="M313 1180l-135 -70l-61 158l282 145h140l-119 -848h-195zM1294 1413h246l-1169 -1413h-244zM1405 862q148 0 223.5 -96t52.5 -254q-20 -135 -99.5 -249.5t-213 -190t-295.5 -86.5l-12 180q115 10 204.5 57t141.5 115q-67 -37 -141 -37q-110 0 -174.5 79t-49.5 193
q17 124 121 206.5t242 82.5zM1491 573q6 45 -25 75t-86 30q-52 0 -91.5 -29.5t-47.5 -73.5q-5 -43 26 -71.5t83 -28.5t93.5 27t47.5 71z" />
    <glyph glyph-name="uni2152" unicode="&#x2152;" horiz-adv-x="2381" 
d="M313 1180l-135 -70l-61 158l282 145h140l-119 -848h-195zM127 0l1167 1413h246l-1169 -1413h-244zM2007 862q149 0 225.5 -122t48.5 -316q-26 -194 -137 -316t-260 -122q-148 0 -224 122t-50 316q28 194 138.5 316t258.5 122zM1106 702l283 146h139l-119 -848h-195
l89 614l-136 -69zM2083 424q15 111 -13 181.5t-88 70.5t-107.5 -69.5t-64.5 -182.5q-15 -112 13.5 -182t87.5 -70q61 0 109 70.5t63 181.5z" />
    <glyph glyph-name="uni2153" unicode="&#x2153;" horiz-adv-x="1714" 
d="M313 1180l-135 -70l-61 158l282 145h140l-119 -848h-195zM1294 1413h246l-1169 -1413h-244zM1671 627q-7 -58 -43 -107t-92 -78q55 -31 81 -85t17 -121q-15 -110 -115 -180t-243 -70q-91 0 -172 31t-127 87l131 144q31 -35 80 -55.5t102 -20.5q61 0 102.5 26t47.5 66
q6 41 -28.5 67.5t-90.5 26.5h-121l25 166h118q51 0 85.5 21t39.5 53q4 34 -29 56t-87 22q-44 0 -90 -14.5t-78 -38.5l-84 139q57 46 138.5 73t162.5 27q133 0 208.5 -65.5t61.5 -169.5z" />
    <glyph glyph-name="uni2154" unicode="&#x2154;" horiz-adv-x="1851" 
d="M647 748l-24 -183h-568l23 158l317 293q93 88 99 137q4 36 -20.5 58t-65.5 22q-82 0 -166 -84l-115 125q56 70 141.5 111.5t177.5 41.5q126 0 194.5 -73.5t53.5 -188.5q-16 -124 -141 -237l-199 -180h293zM1432 1413h245l-1169 -1413h-244zM1808 627q-7 -58 -43 -107
t-92 -78q55 -31 81.5 -85t17.5 -121q-15 -110 -115.5 -180t-243.5 -70q-91 0 -172 31t-127 87l131 144q31 -35 80 -55.5t102 -20.5q61 0 102.5 26t47.5 66q6 41 -28.5 67.5t-90.5 26.5h-121l25 166h119q51 0 85.5 21t39.5 53q4 34 -29.5 56t-87.5 22q-44 0 -90 -14.5
t-78 -38.5l-84 139q57 46 138 73t163 27q133 0 208.5 -65.5t61.5 -169.5z" />
    <glyph glyph-name="uni2155" unicode="&#x2155;" horiz-adv-x="1761" 
d="M313 1180l-135 -70l-61 158l282 145h140l-119 -848h-195zM1294 1413h246l-1169 -1413h-244zM1427 551q125 0 198 -80.5t56 -198.5q-17 -124 -121 -205t-249 -81q-165 0 -287 110l119 156q32 -37 81 -58.5t101 -21.5q64 0 108 31.5t50 77.5q6 42 -23 70t-80 28
q-65 0 -114 -43l-164 49l106 463h496l-27 -180h-329l-31 -140q51 23 110 23z" />
    <glyph glyph-name="uni2156" unicode="&#x2156;" horiz-adv-x="1898" 
d="M647 748l-24 -183h-568l23 158l317 293q93 88 99 137q4 36 -20.5 58t-65.5 22q-82 0 -166 -84l-115 125q56 70 141.5 111.5t177.5 41.5q126 0 194.5 -73.5t53.5 -188.5q-16 -124 -141 -237l-199 -180h293zM1432 1413h245l-1169 -1413h-244zM1565 551q125 0 198 -80.5
t56 -198.5q-17 -124 -121.5 -205t-249.5 -81q-165 0 -287 110l119 156q32 -37 81 -58.5t101 -21.5q64 0 108 31.5t50 77.5q6 42 -22.5 70t-79.5 28q-66 0 -115 -43l-164 49l107 463h495l-26 -180h-330l-31 -140q51 23 111 23z" />
    <glyph glyph-name="uni2157" unicode="&#x2157;" horiz-adv-x="1871" 
d="M696 801q-15 -110 -115 -180t-243 -70q-91 0 -172 31.5t-127 87.5l131 143q31 -35 80 -55.5t102 -20.5q61 0 102.5 26t47.5 66q6 41 -28.5 68t-90.5 27h-121l25 166h119q51 0 85 20.5t39 52.5q4 34 -29 56t-87 22q-44 0 -90 -14.5t-78 -38.5l-84 139q57 46 138.5 73
t162.5 27q133 0 208.5 -65.5t61.5 -169.5q-7 -58 -43 -106t-92 -78q55 -31 81 -85.5t17 -121.5zM1405 1413h246l-1170 -1413h-243zM1538 551q125 0 198 -80.5t56 -198.5q-17 -124 -121.5 -205t-249.5 -81q-164 0 -286 110l118 156q32 -37 81.5 -58.5t101.5 -21.5
q64 0 107.5 31.5t49.5 77.5q6 42 -22.5 70t-79.5 28q-66 0 -115 -43l-164 49l107 463h496l-27 -180h-330l-31 -140q51 23 111 23z" />
    <glyph glyph-name="uni2158" unicode="&#x2158;" horiz-adv-x="1931" 
d="M428 565l23 154h-347l-22 158l444 536h215l-71 -512h84l-29 -182h-80l-22 -154h-195zM1464 1413h246l-1169 -1413h-244zM283 901h192l41 287zM1597 551q125 0 198 -80.5t56 -198.5q-17 -124 -121 -205t-249 -81q-165 0 -287 110l119 156q32 -37 81 -58.5t101 -21.5
q64 0 108 31.5t50 77.5q6 42 -23 70t-80 28q-65 0 -114 -43l-164 49l106 463h496l-27 -180h-329l-31 -140q51 23 110 23z" />
    <glyph glyph-name="uni2159" unicode="&#x2159;" horiz-adv-x="1617" 
d="M313 1180l-135 -70l-61 158l282 145h140l-119 -848h-195zM1294 1413h246l-1169 -1413h-244zM1333 547q112 0 176.5 -79t49.5 -194q-19 -124 -123.5 -206t-241.5 -82q-147 0 -222.5 95.5t-53.5 254.5q19 133 98 245.5t212 187.5t298 93l10 -180q-116 -17 -205.5 -63
t-138.5 -109q64 37 141 37zM1358 272q6 42 -25.5 71.5t-83.5 29.5t-92.5 -27.5t-46.5 -71.5q-6 -45 24.5 -74.5t84.5 -29.5q53 0 93 29t46 73z" />
    <glyph glyph-name="uni215A" unicode="&#x215a;" horiz-adv-x="1736" 
d="M371 737q64 0 107.5 31.5t49.5 77.5q6 42 -22.5 70t-79.5 28q-66 0 -115 -43l-164 49l107 463h496l-27 -180h-330l-31 -139q49 22 111 22q125 0 198 -80t56 -198q-17 -124 -121.5 -205.5t-249.5 -81.5q-163 0 -286 111l118 155q32 -37 81.5 -58.5t101.5 -21.5zM1413 1413
h246l-1170 -1413h-243zM1452 547q112 0 176 -79t49 -194q-19 -124 -123 -206t-241 -82q-148 0 -223.5 96t-53.5 254q19 133 98 245.5t212.5 187.5t298.5 93l10 -180q-116 -17 -205.5 -63t-138.5 -109q64 37 141 37zM1477 272q6 42 -25.5 71.5t-83.5 29.5t-92.5 -27.5
t-46.5 -71.5q-6 -45 24 -74.5t84 -29.5q53 0 93.5 29t46.5 73z" />
    <glyph glyph-name="oneeighth" unicode="&#x215b;" horiz-adv-x="1748" 
d="M313 1180l-135 -70l-61 158l282 145h140l-119 -848h-195zM1294 1413h246l-1169 -1413h-244zM1706 623q-7 -56 -42.5 -104t-90.5 -79q53 -34 79 -86t17 -112q-15 -108 -119 -182t-243 -74t-222.5 73.5t-68.5 182.5q9 61 49 112.5t102 85.5q-45 32 -67 79.5t-13 103.5
q14 100 112 169.5t231 69.5t212 -69.5t64 -169.5zM1282 602q-3 -35 25 -57.5t73 -22.5q48 0 83.5 22.5t39.5 57.5q6 35 -22.5 57.5t-75.5 22.5q-46 0 -81.5 -22.5t-41.5 -57.5zM1473 260q6 38 -27.5 64t-87.5 26t-93.5 -26t-45.5 -64q-5 -39 26.5 -64.5t85.5 -25.5
q56 0 97 26t45 64z" />
    <glyph glyph-name="threeeighths" unicode="&#x215c;" horiz-adv-x="1859" 
d="M696 801q-15 -110 -115 -180t-243 -70q-91 0 -172 31.5t-127 87.5l131 143q31 -35 80 -55.5t102 -20.5q61 0 102.5 26t47.5 66q6 41 -28.5 68t-90.5 27h-121l25 166h119q51 0 85 20.5t39 52.5q4 34 -29 56t-87 22q-44 0 -90 -14.5t-78 -38.5l-84 139q57 46 138.5 73
t162.5 27q133 0 208.5 -65.5t61.5 -169.5q-7 -58 -43 -106t-92 -78q55 -31 81 -85.5t17 -121.5zM1405 1413h246l-1170 -1413h-243zM1817 623q-7 -56 -43 -104t-91 -79q54 -34 80 -86t17 -112q-15 -108 -119.5 -182t-243.5 -74t-222.5 73.5t-68.5 182.5q9 60 49 112t103 86
q-45 32 -67 79.5t-13 103.5q14 101 111.5 170t230.5 69t212.5 -69.5t64.5 -169.5zM1393 602q-3 -35 25 -57.5t73 -22.5q48 0 83.5 22.5t39.5 57.5q6 35 -22.5 57.5t-75.5 22.5q-46 0 -81.5 -22.5t-41.5 -57.5zM1583 260q6 38 -27.5 64t-87.5 26t-93.5 -26t-45.5 -64
q-5 -39 27 -64.5t86 -25.5q55 0 95.5 26t45.5 64z" />
    <glyph glyph-name="fiveeighths" unicode="&#x215d;" horiz-adv-x="1867" 
d="M371 737q64 0 107.5 31.5t49.5 77.5q6 42 -22.5 70t-79.5 28q-66 0 -115 -43l-164 49l107 463h496l-27 -180h-330l-31 -139q49 22 111 22q125 0 198 -80t56 -198q-17 -124 -121.5 -205.5t-249.5 -81.5q-163 0 -286 111l118 155q32 -37 81.5 -58.5t101.5 -21.5zM1413 1413
h246l-1170 -1413h-243zM1825 623q-7 -56 -42.5 -104t-90.5 -79q53 -34 79 -86t17 -112q-15 -108 -119.5 -182t-243.5 -74t-222 73.5t-68 182.5q9 61 49 112.5t102 85.5q-45 32 -67 79.5t-13 103.5q14 101 111.5 170t230.5 69t212.5 -69.5t64.5 -169.5zM1401 602
q-3 -35 25 -57.5t73 -22.5q48 0 83.5 22.5t39.5 57.5q6 35 -22.5 57.5t-75.5 22.5q-46 0 -81.5 -22.5t-41.5 -57.5zM1591 260q6 38 -27 64t-87 26t-94 -26t-46 -64q-5 -39 27 -64.5t86 -25.5q55 0 95.5 26t45.5 64z" />
    <glyph glyph-name="seveneighths" unicode="&#x215e;" horiz-adv-x="1703" 
d="M1249 1413h246l-1169 -1413h-244zM311 565h-219l393 666h-342l25 182h571l-20 -153zM1661 623q-7 -56 -42.5 -104t-90.5 -79q53 -34 79 -86t17 -112q-15 -108 -119 -182t-243 -74t-222.5 73.5t-68.5 182.5q9 61 49 112.5t102 85.5q-45 32 -67 79.5t-13 103.5
q14 101 111.5 170t230.5 69t212.5 -69.5t64.5 -169.5zM1237 602q-3 -35 25 -57.5t73 -22.5q48 0 83.5 22.5t39.5 57.5q6 35 -22.5 57.5t-75.5 22.5q-46 0 -81.5 -22.5t-41.5 -57.5zM1427 260q6 38 -27 64t-87 26t-93.5 -26t-45.5 -64q-5 -39 26.5 -64.5t85.5 -25.5
q55 0 95.5 26t45.5 64z" />
    <glyph glyph-name="uni215F" unicode="&#x215f;" horiz-adv-x="1007" 
d="M313 1180l-135 -70l-61 158l282 145h140l-119 -848h-195zM1294 1413h246l-1169 -1413h-244z" />
    <glyph glyph-name="uni2189" unicode="&#x2189;" horiz-adv-x="1902" 
d="M788 989q-26 -194 -137 -316t-260 -122q-148 0 -224 122t-50 316q28 194 138.5 316t258.5 122q149 0 225.5 -122t48.5 -316zM1483 1413h246l-1170 -1413h-244zM317 989q-15 -112 13.5 -182t87.5 -70q61 0 109 70.5t63 181.5t-13 181.5t-88 70.5t-107.5 -69.5
t-64.5 -182.5zM1860 627q-7 -58 -43.5 -106.5t-92.5 -78.5q55 -31 81.5 -85t17.5 -121q-15 -110 -115.5 -180t-243.5 -70q-91 0 -172 31t-127 87l131 144q31 -35 80.5 -55.5t102.5 -20.5q61 0 102 26t47 66q6 41 -28.5 67.5t-90.5 26.5h-120l24 166h119q51 0 85.5 21
t39.5 53q4 34 -29.5 56t-87.5 22q-44 0 -90 -14.5t-78 -38.5l-84 139q57 46 138.5 73t162.5 27q134 0 209 -65.5t62 -169.5z" />
    <glyph glyph-name="arrowleft" unicode="&#x2190;" horiz-adv-x="1339" 
d="M1253 825l-32 -239h-656l172 -193l-182 -157l-401 469l534 471l137 -158l-225 -193h653z" />
    <glyph glyph-name="arrowup" unicode="&#x2191;" horiz-adv-x="1339" 
d="M1178 780l-181 -159l-166 198l-92 -655h-239l92 653l-219 -196l-135 159l536 469z" />
    <glyph glyph-name="arrowright" unicode="&#x2192;" horiz-adv-x="1339" 
d="M836 1176l403 -471l-537 -469l-135 157l226 193h-656l33 241h653l-168 191z" />
    <glyph glyph-name="arrowdown" unicode="&#x2193;" horiz-adv-x="1339" 
d="M1020 793l137 -160l-536 -469l-406 469l182 160l162 -195l92 651h242l-92 -655z" />
    <glyph glyph-name="uni2196" unicode="&#x2196;" horiz-adv-x="1339" 
d="M1087 451l-194 -172l-397 462l-35 -274h-225l94 663l663 5l-32 -228l-269 4z" />
    <glyph glyph-name="uni2197" unicode="&#x2197;" horiz-adv-x="1339" 
d="M518 1135l662 -5l-93 -663h-223l45 278l-530 -464l-146 170l527 462l-275 -4z" />
    <glyph glyph-name="uni2198" unicode="&#x2198;" horiz-adv-x="1339" 
d="M932 946h225l-94 -663l-664 -4l33 227l270 -4l-395 461l195 172l397 -463z" />
    <glyph glyph-name="uni2199" unicode="&#x2199;" horiz-adv-x="1339" 
d="M1159 963l-526 -461l272 4l-31 -227l-663 4l92 663h225l-45 -274l529 463z" />
    <glyph glyph-name="minus" unicode="&#x2212;" horiz-adv-x="1093" 
d="M113 485l34 240h857l-35 -240h-856z" />
    <glyph glyph-name="approxequal" unicode="&#x2248;" horiz-adv-x="1187" 
d="M793 662q-53 0 -100.5 16.5t-76 36.5t-62 36.5t-60.5 16.5q-43 0 -74 -27.5t-37 -68.5h-244q25 164 111 262t235 98q53 0 100.5 -16.5t76.5 -36.5t62.5 -36.5t61.5 -16.5q42 0 73.5 27.5t35.5 68.5h244q-23 -164 -109 -262t-237 -98zM727 193q-53 0 -101 16.5t-77 36.5
t-62.5 36.5t-60.5 16.5q-41 0 -72 -27.5t-37 -68.5h-243q23 163 109.5 261.5t236.5 98.5q53 0 100.5 -16.5t76.5 -36.5t62.5 -36.5t61.5 -16.5q41 0 72.5 27.5t35.5 68.5h244q-23 -164 -109 -262t-237 -98z" />
    <glyph glyph-name="notequal" unicode="&#x2260;" horiz-adv-x="1093" 
d="M997 686h-274l-94 -162h346l-33 -239h-450l-89 -152h-233l88 152h-172l35 239h274l94 162h-346l33 240h451l86 149h233l-86 -149h172z" />
    <glyph glyph-name="lessequal" unicode="&#x2264;" horiz-adv-x="950" 
d="M928 1200l-37 -264l-477 -141l436 -142l-37 -266l-676 272l39 269zM55 66l33 239h713l-35 -239h-711z" />
    <glyph glyph-name="greaterequal" unicode="&#x2265;" horiz-adv-x="950" 
d="M215 1200l674 -272l-39 -269l-750 -272l37 266l475 142l-434 141zM55 66l33 239h713l-35 -239h-711z" />
    <glyph glyph-name="uni279D" unicode="&#x279d;" horiz-adv-x="2215" 
d="M2087 707l-500 -439l45 318h-1468l35 241h1466l45 318z" />
    <glyph glyph-name="uni27F5" unicode="&#x27f5;" horiz-adv-x="2215" 
d="M2103 825l-32 -239h-1477l172 -193l-182 -157l-402 469l535 471l137 -158l-225 -193h1474z" />
    <glyph glyph-name="uni27F6" unicode="&#x27f6;" horiz-adv-x="2215" 
d="M1683 1176l404 -471l-537 -469l-135 157l225 193h-1476l33 239h1476l-170 193z" />
    <glyph glyph-name="G.ss05" horiz-adv-x="1630" 
d="M885 795h682l-113 -795h-248l27 190q-202 -215 -500 -215q-156 0 -285 56.5t-213 153.5t-121.5 232.5t-15.5 289.5q28 205 149 372.5t305.5 263t393.5 95.5q184 0 329 -74t222 -203l-237 -170q-52 83 -142.5 129.5t-204.5 46.5q-197 0 -346.5 -131t-177.5 -329t84 -329.5
t309 -131.5q152 0 277.5 82t183.5 215h-393z" />
    <glyph glyph-name="uni01F4.ss05" horiz-adv-x="1630" 
d="M1386 1821l-301 -293h-280l248 293h333zM885 795h682l-113 -795h-248l27 190q-202 -215 -500 -215q-156 0 -285 56.5t-213 153.5t-121.5 232.5t-15.5 289.5q28 205 149 372.5t305.5 263t393.5 95.5q184 0 329 -74t222 -203l-237 -170q-52 83 -142.5 129.5t-204.5 46.5
q-197 0 -346.5 -131t-177.5 -329t84 -329.5t309 -131.5q152 0 277.5 82t183.5 215h-393z" />
    <glyph glyph-name="Gbreve.ss05" horiz-adv-x="1630" 
d="M954 1507q-138 0 -217.5 89t-60.5 221h205q-6 -53 21.5 -86t78.5 -33q50 0 89 33.5t46 85.5h205q-19 -132 -124 -221t-243 -89zM885 795h682l-113 -795h-248l27 190q-202 -215 -500 -215q-156 0 -285 56.5t-213 153.5t-121.5 232.5t-15.5 289.5q28 205 149 372.5
t305.5 263t393.5 95.5q184 0 329 -74t222 -203l-237 -170q-52 83 -142.5 129.5t-204.5 46.5q-197 0 -346.5 -131t-177.5 -329t84 -329.5t309 -131.5q152 0 277.5 82t183.5 215h-393z" />
    <glyph glyph-name="Gcaron.ss05" horiz-adv-x="1630" 
d="M1118 1528h-321l-162 293h250l92 -150l135 150h250zM885 795h682l-113 -795h-248l27 190q-202 -215 -500 -215q-156 0 -285 56.5t-213 153.5t-121.5 232.5t-15.5 289.5q28 205 149 372.5t305.5 263t393.5 95.5q184 0 329 -74t222 -203l-237 -170q-52 83 -142.5 129.5
t-204.5 46.5q-197 0 -346.5 -131t-177.5 -329t84 -329.5t309 -131.5q152 0 277.5 82t183.5 215h-393z" />
    <glyph glyph-name="Gcircumflex.ss05" horiz-adv-x="1630" 
d="M979 1677l-135 -149h-250l244 293h321l162 -293h-250zM885 795h682l-113 -795h-248l27 190q-202 -215 -500 -215q-156 0 -285 56.5t-213 153.5t-121.5 232.5t-15.5 289.5q28 205 149 372.5t305.5 263t393.5 95.5q184 0 329 -74t222 -203l-237 -170q-52 83 -142.5 129.5
t-204.5 46.5q-197 0 -346.5 -131t-177.5 -329t84 -329.5t309 -131.5q152 0 277.5 82t183.5 215h-393z" />
    <glyph glyph-name="uni0122.ss05" horiz-adv-x="1630" 
d="M885 795h682l-113 -795h-248l27 190q-202 -215 -500 -215q-156 0 -285 56.5t-213 153.5t-121.5 232.5t-15.5 289.5q28 205 149 372.5t305.5 263t393.5 95.5q184 0 329 -74t222 -203l-237 -170q-52 83 -142.5 129.5t-204.5 46.5q-197 0 -346.5 -131t-177.5 -329t84 -329.5
t309 -131.5q152 0 277.5 82t183.5 215h-393zM487 -461l134 348h274l-188 -348h-220z" />
    <glyph glyph-name="Gdotaccent.ss05" horiz-adv-x="1630" 
d="M958 1526q-68 0 -107 44t-30 111t61.5 112.5t118.5 45.5q68 0 107.5 -45.5t30.5 -112.5t-61 -111t-120 -44zM885 795h682l-113 -795h-248l27 190q-202 -215 -500 -215q-156 0 -285 56.5t-213 153.5t-121.5 232.5t-15.5 289.5q28 205 149 372.5t305.5 263t393.5 95.5
q184 0 329 -74t222 -203l-237 -170q-52 83 -142.5 129.5t-204.5 46.5q-197 0 -346.5 -131t-177.5 -329t84 -329.5t309 -131.5q152 0 277.5 82t183.5 215h-393z" />
    <glyph glyph-name="i.loclTRK" horiz-adv-x="520" 
d="M350 1157q-68 0 -107 44.5t-30 111.5t61 112t119 45q68 0 107 -45t30 -112t-60.5 -111.5t-119.5 -44.5zM53 0l148 1044h266l-148 -1044h-266z" />
    <glyph glyph-name="a.ss01" horiz-adv-x="1126" 
d="M616 1069q211 0 327.5 -114t90.5 -304l-92 -651h-244l13 82q-130 -107 -318 -107q-178 0 -282 94t-84 240q22 145 151.5 239.5t302.5 94.5q171 0 273 -92l10 78q15 95 -42.5 150t-168.5 55q-150 0 -277 -99l-114 166q88 77 206 122.5t248 45.5zM487 182q92 0 158 36.5
t74 90.5q7 55 -48.5 91t-148.5 36q-88 0 -150 -35t-71 -92q-7 -57 45 -92t141 -35z" />
    <glyph glyph-name="aacute.ss01" horiz-adv-x="1126" 
d="M1069 1452l-301 -293h-281l248 293h334zM616 1069q211 0 327.5 -114t90.5 -304l-92 -651h-244l13 82q-130 -107 -318 -107q-178 0 -282 94t-84 240q22 145 151.5 239.5t302.5 94.5q171 0 273 -92l10 78q15 95 -42.5 150t-168.5 55q-150 0 -277 -99l-114 166
q88 77 206 122.5t248 45.5zM487 182q92 0 158 36.5t74 90.5q7 55 -48.5 91t-148.5 36q-88 0 -150 -35t-71 -92q-7 -57 45 -92t141 -35z" />
    <glyph glyph-name="abreve.ss01" horiz-adv-x="1126" 
d="M639 1139q-138 0 -218 88.5t-61 220.5h205q-6 -53 22 -86t79 -33q50 0 89 33.5t46 85.5h205q-19 -132 -124 -220.5t-243 -88.5zM616 1069q211 0 327.5 -114t90.5 -304l-92 -651h-244l13 82q-130 -107 -318 -107q-178 0 -282 94t-84 240q22 145 151.5 239.5t302.5 94.5
q171 0 273 -92l10 78q15 95 -42.5 150t-168.5 55q-150 0 -277 -99l-114 166q88 77 206 122.5t248 45.5zM487 182q92 0 158 36.5t74 90.5q7 55 -48.5 91t-148.5 36q-88 0 -150 -35t-71 -92q-7 -57 45 -92t141 -35z" />
    <glyph glyph-name="uni01CE.ss01" horiz-adv-x="1126" 
d="M803 1159h-322l-162 293h250l93 -149l135 149h250zM616 1069q211 0 327.5 -114t90.5 -304l-92 -651h-244l13 82q-130 -107 -318 -107q-178 0 -282 94t-84 240q22 145 151.5 239.5t302.5 94.5q171 0 273 -92l10 78q15 95 -42.5 150t-168.5 55q-150 0 -277 -99l-114 166
q88 77 206 122.5t248 45.5zM487 182q92 0 158 36.5t74 90.5q7 55 -48.5 91t-148.5 36q-88 0 -150 -35t-71 -92q-7 -57 45 -92t141 -35z" />
    <glyph glyph-name="acircumflex.ss01" horiz-adv-x="1126" 
d="M664 1309l-136 -150h-249l243 293h322l162 -293h-250zM616 1069q211 0 327.5 -114t90.5 -304l-92 -651h-244l13 82q-130 -107 -318 -107q-178 0 -282 94t-84 240q22 145 151.5 239.5t302.5 94.5q171 0 273 -92l10 78q15 95 -42.5 150t-168.5 55q-150 0 -277 -99l-114 166
q88 77 206 122.5t248 45.5zM487 182q92 0 158 36.5t74 90.5q7 55 -48.5 91t-148.5 36q-88 0 -150 -35t-71 -92q-7 -57 45 -92t141 -35z" />
    <glyph glyph-name="uni0201.ss01" horiz-adv-x="1126" 
d="M557 1159h-258l-166 293h291zM999 1159h-258l-166 293h289zM616 1069q211 0 327.5 -114t90.5 -304l-92 -651h-244l13 82q-130 -107 -318 -107q-178 0 -282 94t-84 240q22 145 151.5 239.5t302.5 94.5q171 0 273 -92l10 78q15 95 -42.5 150t-168.5 55q-150 0 -277 -99
l-114 166q88 77 206 122.5t248 45.5zM487 182q92 0 158 36.5t74 90.5q7 55 -48.5 91t-148.5 36q-88 0 -150 -35t-71 -92q-7 -57 45 -92t141 -35z" />
    <glyph glyph-name="adieresis.ss01" horiz-adv-x="1126" 
d="M422 1157q-65 0 -102.5 43t-28.5 107q9 63 58.5 106t113.5 43t101 -43t28 -106q-7 -64 -56.5 -107t-113.5 -43zM862 1157q-63 0 -100.5 43t-30.5 107q9 63 59 106t115 43q64 0 101 -43t28 -106q-7 -64 -57 -107t-115 -43zM616 1069q211 0 327.5 -114t90.5 -304l-92 -651
h-244l13 82q-130 -107 -318 -107q-178 0 -282 94t-84 240q22 145 151.5 239.5t302.5 94.5q171 0 273 -92l10 78q15 95 -42.5 150t-168.5 55q-150 0 -277 -99l-114 166q88 77 206 122.5t248 45.5zM487 182q92 0 158 36.5t74 90.5q7 55 -48.5 91t-148.5 36q-88 0 -150 -35
t-71 -92q-7 -57 45 -92t141 -35z" />
    <glyph glyph-name="uni1EA1.ss01" horiz-adv-x="1126" 
d="M616 1069q211 0 327.5 -114t90.5 -304l-92 -651h-244l13 82q-130 -107 -318 -107q-178 0 -282 94t-84 240q22 145 151.5 239.5t302.5 94.5q171 0 273 -92l10 78q15 95 -42.5 150t-168.5 55q-150 0 -277 -99l-114 166q88 77 206 122.5t248 45.5zM487 182q92 0 158 36.5
t74 90.5q7 55 -48.5 91t-148.5 36q-88 0 -150 -35t-71 -92q-7 -57 45 -92t141 -35zM463 -113q66 0 105 -44t30 -111t-60.5 -112.5t-119.5 -45.5q-67 0 -105.5 45t-29.5 113q9 67 60.5 111t119.5 44z" />
    <glyph glyph-name="agrave.ss01" horiz-adv-x="1126" 
d="M797 1159h-281l-221 293h334zM616 1069q211 0 327.5 -114t90.5 -304l-92 -651h-244l13 82q-130 -107 -318 -107q-178 0 -282 94t-84 240q22 145 151.5 239.5t302.5 94.5q171 0 273 -92l10 78q15 95 -42.5 150t-168.5 55q-150 0 -277 -99l-114 166q88 77 206 122.5
t248 45.5zM487 182q92 0 158 36.5t74 90.5q7 55 -48.5 91t-148.5 36q-88 0 -150 -35t-71 -92q-7 -57 45 -92t141 -35z" />
    <glyph glyph-name="uni0203.ss01" horiz-adv-x="1126" 
d="M657 1272q-49 0 -87.5 -34t-45.5 -85h-207q20 132 124.5 220.5t242.5 88.5t219 -88.5t62 -220.5h-207q7 51 -22 85t-79 34zM616 1069q211 0 327.5 -114t90.5 -304l-92 -651h-244l13 82q-130 -107 -318 -107q-178 0 -282 94t-84 240q22 145 151.5 239.5t302.5 94.5
q171 0 273 -92l10 78q15 95 -42.5 150t-168.5 55q-150 0 -277 -99l-114 166q88 77 206 122.5t248 45.5zM487 182q92 0 158 36.5t74 90.5q7 55 -48.5 91t-148.5 36q-88 0 -150 -35t-71 -92q-7 -57 45 -92t141 -35z" />
    <glyph glyph-name="amacron.ss01" horiz-adv-x="1126" 
d="M946 1405l-33 -223h-540l33 223h540zM616 1069q211 0 327.5 -114t90.5 -304l-92 -651h-244l13 82q-130 -107 -318 -107q-178 0 -282 94t-84 240q22 145 151.5 239.5t302.5 94.5q171 0 273 -92l10 78q15 95 -42.5 150t-168.5 55q-150 0 -277 -99l-114 166q88 77 206 122.5
t248 45.5zM487 182q92 0 158 36.5t74 90.5q7 55 -48.5 91t-148.5 36q-88 0 -150 -35t-71 -92q-7 -57 45 -92t141 -35z" />
    <glyph glyph-name="aogonek.ss01" horiz-adv-x="1126" 
d="M616 1069q211 0 327.5 -114t90.5 -304l-92 -651h-27q-230 -94 -243 -207q-7 -42 19 -67t65 -25q47 0 104 31l37 -164q-94 -57 -211 -57t-182 63.5t-51 161.5q12 84 79 154.5t166 109.5l13 82q-130 -107 -318 -107q-178 0 -282 94t-84 240q22 145 151.5 239.5t302.5 94.5
q171 0 273 -92l10 78q15 95 -42.5 150t-168.5 55q-150 0 -277 -99l-114 166q88 77 206 122.5t248 45.5zM487 182q92 0 158 36.5t74 90.5q7 55 -48.5 91t-148.5 36q-88 0 -150 -35t-71 -92q-7 -57 45 -92t141 -35z" />
    <glyph glyph-name="aring.ss01" horiz-adv-x="1126" 
d="M639 1135q-89 0 -141.5 58t-40.5 146t80 146.5t159 58.5q89 0 141 -58.5t40 -146.5q-12 -87 -80 -145.5t-158 -58.5zM598 1339q-5 -31 11.5 -51t47.5 -20q29 0 52.5 20t27.5 51q3 31 -13.5 51.5t-45.5 20.5q-31 0 -54 -20.5t-26 -51.5zM616 1069q211 0 327.5 -114
t90.5 -304l-92 -651h-244l13 82q-130 -107 -318 -107q-178 0 -282 94t-84 240q22 145 151.5 239.5t302.5 94.5q171 0 273 -92l10 78q15 95 -42.5 150t-168.5 55q-150 0 -277 -99l-114 166q88 77 206 122.5t248 45.5zM487 182q92 0 158 36.5t74 90.5q7 55 -48.5 91t-148.5 36
q-88 0 -150 -35t-71 -92q-7 -57 45 -92t141 -35z" />
    <glyph glyph-name="atilde.ss01" horiz-adv-x="1126" 
d="M555 1255q-35 0 -60 -22t-30 -55h-189q18 127 90.5 208.5t182.5 81.5q40 0 75 -14t55.5 -30t45.5 -30t49 -14q33 0 58 24t30 58h189q-18 -129 -90.5 -210t-184.5 -81q-40 0 -74.5 13t-54.5 29t-44.5 29t-47.5 13zM616 1069q211 0 327.5 -114t90.5 -304l-92 -651h-244
l13 82q-130 -107 -318 -107q-178 0 -282 94t-84 240q22 145 151.5 239.5t302.5 94.5q171 0 273 -92l10 78q15 95 -42.5 150t-168.5 55q-150 0 -277 -99l-114 166q88 77 206 122.5t248 45.5zM487 182q92 0 158 36.5t74 90.5q7 55 -48.5 91t-148.5 36q-88 0 -150 -35t-71 -92
q-7 -57 45 -92t141 -35z" />
    <glyph glyph-name="g.ss02" 
d="M991 1044h266l-131 -931q-34 -238 -210 -382.5t-435 -144.5q-148 0 -264 50t-188 141l159 182q48 -61 127 -95t179 -34q150 0 248.5 77.5t117.5 207.5l8 55q-153 -143 -360 -143q-107 0 -196 40t-146.5 109.5t-83 166t-10.5 206.5q31 221 198 370.5t385 149.5
q206 0 320 -143zM594 268q124 0 216.5 80t109.5 201q17 119 -53 198.5t-193 79.5q-124 0 -217.5 -79.5t-110.5 -198.5q-17 -120 54 -200.5t194 -80.5z" />
    <glyph glyph-name="uni01F5.ss02" 
d="M1169 1452l-301 -293h-280l248 293h333zM991 1044h266l-131 -931q-34 -238 -210 -382.5t-435 -144.5q-148 0 -264 50t-188 141l159 182q48 -61 127 -95t179 -34q150 0 248.5 77.5t117.5 207.5l8 55q-153 -143 -360 -143q-107 0 -196 40t-146.5 109.5t-83 166t-10.5 206.5
q31 221 198 370.5t385 149.5q206 0 320 -143zM594 268q124 0 216.5 80t109.5 201q17 119 -53 198.5t-193 79.5q-124 0 -217.5 -79.5t-110.5 -198.5q-17 -120 54 -200.5t194 -80.5z" />
    <glyph glyph-name="gbreve.ss02" 
d="M739 1139q-138 0 -217.5 88.5t-60.5 220.5h205q-6 -53 21.5 -86t78.5 -33q50 0 89 33.5t46 85.5h205q-19 -132 -124 -220.5t-243 -88.5zM991 1044h266l-131 -931q-34 -238 -210 -382.5t-435 -144.5q-148 0 -264 50t-188 141l159 182q48 -61 127 -95t179 -34
q150 0 248.5 77.5t117.5 207.5l8 55q-153 -143 -360 -143q-107 0 -196 40t-146.5 109.5t-83 166t-10.5 206.5q31 221 198 370.5t385 149.5q206 0 320 -143zM594 268q124 0 216.5 80t109.5 201q17 119 -53 198.5t-193 79.5q-124 0 -217.5 -79.5t-110.5 -198.5
q-17 -120 54 -200.5t194 -80.5z" />
    <glyph glyph-name="gcaron.ss02" 
d="M903 1159h-321l-162 293h250l92 -149l135 149h250zM991 1044h266l-131 -931q-34 -238 -210 -382.5t-435 -144.5q-148 0 -264 50t-188 141l159 182q48 -61 127 -95t179 -34q150 0 248.5 77.5t117.5 207.5l8 55q-153 -143 -360 -143q-107 0 -196 40t-146.5 109.5t-83 166
t-10.5 206.5q31 221 198 370.5t385 149.5q206 0 320 -143zM594 268q124 0 216.5 80t109.5 201q17 119 -53 198.5t-193 79.5q-124 0 -217.5 -79.5t-110.5 -198.5q-17 -120 54 -200.5t194 -80.5z" />
    <glyph glyph-name="gcircumflex.ss02" 
d="M764 1309l-135 -150h-250l244 293h321l162 -293h-250zM991 1044h266l-131 -931q-34 -238 -210 -382.5t-435 -144.5q-148 0 -264 50t-188 141l159 182q48 -61 127 -95t179 -34q150 0 248.5 77.5t117.5 207.5l8 55q-153 -143 -360 -143q-107 0 -196 40t-146.5 109.5
t-83 166t-10.5 206.5q31 221 198 370.5t385 149.5q206 0 320 -143zM594 268q124 0 216.5 80t109.5 201q17 119 -53 198.5t-193 79.5q-124 0 -217.5 -79.5t-110.5 -198.5q-17 -120 54 -200.5t194 -80.5z" />
    <glyph glyph-name="uni0123.ss02" 
d="M969 1501l-133 -348h-275l189 348h219zM991 1044h266l-131 -931q-34 -238 -210 -382.5t-435 -144.5q-148 0 -264 50t-188 141l159 182q48 -61 127 -95t179 -34q150 0 248.5 77.5t117.5 207.5l8 55q-153 -143 -360 -143q-107 0 -196 40t-146.5 109.5t-83 166t-10.5 206.5
q31 221 198 370.5t385 149.5q206 0 320 -143zM594 268q124 0 216.5 80t109.5 201q17 119 -53 198.5t-193 79.5q-124 0 -217.5 -79.5t-110.5 -198.5q-17 -120 54 -200.5t194 -80.5z" />
    <glyph glyph-name="gdotaccent.ss02" 
d="M743 1157q-68 0 -107 44.5t-30 111.5t61 112t119 45q68 0 107.5 -45t30.5 -112t-61 -111.5t-120 -44.5zM991 1044h266l-131 -931q-34 -238 -210 -382.5t-435 -144.5q-148 0 -264 50t-188 141l159 182q48 -61 127 -95t179 -34q150 0 248.5 77.5t117.5 207.5l8 55
q-153 -143 -360 -143q-107 0 -196 40t-146.5 109.5t-83 166t-10.5 206.5q31 221 198 370.5t385 149.5q206 0 320 -143zM594 268q124 0 216.5 80t109.5 201q17 119 -53 198.5t-193 79.5q-124 0 -217.5 -79.5t-110.5 -198.5q-17 -120 54 -200.5t194 -80.5z" />
    <glyph glyph-name="u.ss03" horiz-adv-x="1222" 
d="M901 1044h266l-147 -1044h-266l16 111q-145 -136 -342 -136q-179 0 -272 108t-68 288l96 673h267l-84 -587q-14 -102 36.5 -163t151.5 -61q100 0 170.5 57t89.5 152z" />
    <glyph glyph-name="uacute.ss03" horiz-adv-x="1222" 
d="M1120 1452l-301 -293h-280l247 293h334zM901 1044h266l-147 -1044h-266l16 111q-145 -136 -342 -136q-179 0 -272 108t-68 288l96 673h267l-84 -587q-14 -102 36.5 -163t151.5 -61q100 0 170.5 57t89.5 152z" />
    <glyph glyph-name="ubreve.ss03" horiz-adv-x="1222" 
d="M688 1139q-138 0 -217.5 88.5t-60.5 220.5h204q-6 -53 22 -86t79 -33q50 0 89 33.5t46 85.5h205q-19 -132 -124 -220.5t-243 -88.5zM901 1044h266l-147 -1044h-266l16 111q-145 -136 -342 -136q-179 0 -272 108t-68 288l96 673h267l-84 -587q-14 -102 36.5 -163
t151.5 -61q100 0 170.5 57t89.5 152z" />
    <glyph glyph-name="ucircumflex.ss03" horiz-adv-x="1222" 
d="M713 1309l-135 -150h-250l243 293h322l162 -293h-250zM901 1044h266l-147 -1044h-266l16 111q-145 -136 -342 -136q-179 0 -272 108t-68 288l96 673h267l-84 -587q-14 -102 36.5 -163t151.5 -61q100 0 170.5 57t89.5 152z" />
    <glyph glyph-name="uni0215.ss03" horiz-adv-x="1222" 
d="M606 1159h-258l-166 293h291zM1049 1159h-258l-166 293h288zM901 1044h266l-147 -1044h-266l16 111q-145 -136 -342 -136q-179 0 -272 108t-68 288l96 673h267l-84 -587q-14 -102 36.5 -163t151.5 -61q100 0 170.5 57t89.5 152z" />
    <glyph glyph-name="udieresis.ss03" horiz-adv-x="1222" 
d="M471 1157q-65 0 -102.5 43t-28.5 107q9 63 58.5 106t113.5 43t101 -43t28 -106q-7 -64 -56.5 -107t-113.5 -43zM911 1157q-63 0 -100.5 43t-30.5 107q9 63 59 106t115 43q64 0 101 -43t28 -106q-7 -64 -57 -107t-115 -43zM901 1044h266l-147 -1044h-266l16 111
q-145 -136 -342 -136q-179 0 -272 108t-68 288l96 673h267l-84 -587q-14 -102 36.5 -163t151.5 -61q100 0 170.5 57t89.5 152z" />
    <glyph glyph-name="uni1EE5.ss03" horiz-adv-x="1222" 
d="M901 1044h266l-147 -1044h-266l16 111q-145 -136 -342 -136q-179 0 -272 108t-68 288l96 673h267l-84 -587q-14 -102 36.5 -163t151.5 -61q100 0 170.5 57t89.5 152zM514 -113q66 0 105 -44t30 -111t-60.5 -112.5t-119.5 -45.5q-67 0 -105.5 45t-29.5 113q9 67 60.5 111
t119.5 44z" />
    <glyph glyph-name="ugrave.ss03" horiz-adv-x="1222" 
d="M848 1159h-281l-221 293h334zM901 1044h266l-147 -1044h-266l16 111q-145 -136 -342 -136q-179 0 -272 108t-68 288l96 673h267l-84 -587q-14 -102 36.5 -163t151.5 -61q100 0 170.5 57t89.5 152z" />
    <glyph glyph-name="uhungarumlaut.ss03" horiz-adv-x="1222" 
d="M840 1452l-250 -293h-256l215 293h291zM1032 1159h-256l215 293h289zM815 442l86 602h266l-147 -1044h-266l16 111q-145 -136 -342 -136q-179 0 -272 108t-68 288l96 673h267l-84 -587q-14 -102 36.5 -163t151.5 -61q100 0 170.5 57t89.5 152z" />
    <glyph glyph-name="uni0217.ss03" horiz-adv-x="1222" 
d="M707 1272q-50 0 -88.5 -34t-45.5 -85h-206q20 132 124 220.5t242 88.5t219 -88.5t62 -220.5h-207q7 51 -21.5 85t-78.5 34zM901 1044h266l-147 -1044h-266l16 111q-145 -136 -342 -136q-179 0 -272 108t-68 288l96 673h267l-84 -587q-14 -102 36.5 -163t151.5 -61
q100 0 170.5 57t89.5 152z" />
    <glyph glyph-name="umacron.ss03" horiz-adv-x="1222" 
d="M997 1405l-32 -223h-541l33 223h540zM901 1044h266l-147 -1044h-266l16 111q-145 -136 -342 -136q-179 0 -272 108t-68 288l96 673h267l-84 -587q-14 -102 36.5 -163t151.5 -61q100 0 170.5 57t89.5 152z" />
    <glyph glyph-name="uogonek.ss03" horiz-adv-x="1222" 
d="M901 1044h266l-147 -1044h-2q-231 -95 -244 -207q-7 -42 19 -67t65 -25q48 0 105 31l36 -164q-94 -57 -211 -57t-182 63.5t-51 161.5q12 84 79 154.5t165 109.5h-45l16 111q-145 -136 -342 -136q-179 0 -272 108t-68 288l96 673h267l-84 -587q-14 -102 36.5 -163
t151.5 -61q100 0 170.5 57t89.5 152z" />
    <glyph glyph-name="uring.ss03" horiz-adv-x="1222" 
d="M688 1135q-89 0 -141.5 58t-40.5 146t80 146.5t159 58.5q89 0 141 -58.5t40 -146.5q-12 -87 -80 -145.5t-158 -58.5zM647 1339q-5 -31 12 -51t48 -20q29 0 52 20t27 51q3 31 -13.5 51.5t-45.5 20.5q-31 0 -54 -20.5t-26 -51.5zM901 1044h266l-147 -1044h-266l16 111
q-145 -136 -342 -136q-179 0 -272 108t-68 288l96 673h267l-84 -587q-14 -102 36.5 -163t151.5 -61q100 0 170.5 57t89.5 152z" />
    <glyph glyph-name="utilde.ss03" horiz-adv-x="1222" 
d="M604 1255q-35 0 -60 -22t-30 -55h-188q18 127 90 208.5t182 81.5q40 0 75 -14t55.5 -30t45.5 -30t49 -14q33 0 58 24t30 58h189q-18 -129 -90.5 -210t-184.5 -81q-40 0 -74.5 13t-54.5 29t-44.5 29t-47.5 13zM901 1044h266l-147 -1044h-266l16 111q-145 -136 -342 -136
q-179 0 -272 108t-68 288l96 673h267l-84 -587q-14 -102 36.5 -163t151.5 -61q100 0 170.5 57t89.5 152z" />
    <glyph glyph-name="w.ss04" horiz-adv-x="1792" 
d="M1489 1044h266l-92 -655q-26 -187 -163 -300.5t-335 -113.5q-232 0 -325 154q-138 -154 -371 -154q-198 0 -301.5 113.5t-75.5 300.5l92 655h267l-89 -620q-12 -86 33 -138.5t133 -52.5t148 52.5t72 138.5l88 620h266l-88 -620q-12 -86 34 -138.5t134 -52.5
q86 0 146.5 52.5t72.5 138.5z" />
    <glyph glyph-name="wacute.ss04" horiz-adv-x="1792" 
d="M1413 1452l-301 -293h-281l248 293h334zM1489 1044h266l-92 -655q-26 -187 -163 -300.5t-335 -113.5q-232 0 -325 154q-138 -154 -371 -154q-198 0 -301.5 113.5t-75.5 300.5l92 655h267l-89 -620q-12 -86 33 -138.5t133 -52.5t148 52.5t72 138.5l88 620h266l-88 -620
q-12 -86 34 -138.5t134 -52.5q86 0 146.5 52.5t72.5 138.5z" />
    <glyph glyph-name="wcircumflex.ss04" horiz-adv-x="1792" 
d="M1008 1309l-136 -150h-249l243 293h322l162 -293h-250zM1489 1044h266l-92 -655q-26 -187 -163 -300.5t-335 -113.5q-232 0 -325 154q-138 -154 -371 -154q-198 0 -301.5 113.5t-75.5 300.5l92 655h267l-89 -620q-12 -86 33 -138.5t133 -52.5t148 52.5t72 138.5l88 620
h266l-88 -620q-12 -86 34 -138.5t134 -52.5q86 0 146.5 52.5t72.5 138.5z" />
    <glyph glyph-name="wdieresis.ss04" horiz-adv-x="1792" 
d="M766 1157q-65 0 -102.5 43t-28.5 107q9 63 58.5 106t113.5 43t101 -43t28 -106q-7 -64 -56.5 -107t-113.5 -43zM1206 1157q-63 0 -100.5 43t-30.5 107q9 63 59 106t115 43q64 0 101 -43t28 -106q-7 -64 -57 -107t-115 -43zM1489 1044h266l-92 -655q-26 -187 -163 -300.5
t-335 -113.5q-232 0 -325 154q-138 -154 -371 -154q-198 0 -301.5 113.5t-75.5 300.5l92 655h267l-89 -620q-12 -86 33 -138.5t133 -52.5t148 52.5t72 138.5l88 620h266l-88 -620q-12 -86 34 -138.5t134 -52.5q86 0 146.5 52.5t72.5 138.5z" />
    <glyph glyph-name="wgrave.ss04" horiz-adv-x="1792" 
d="M1141 1159h-281l-221 293h334zM1489 1044h266l-92 -655q-26 -187 -163 -300.5t-335 -113.5q-232 0 -325 154q-138 -154 -371 -154q-198 0 -301.5 113.5t-75.5 300.5l92 655h267l-89 -620q-12 -86 33 -138.5t133 -52.5t148 52.5t72 138.5l88 620h266l-88 -620
q-12 -86 34 -138.5t134 -52.5q86 0 146.5 52.5t72.5 138.5z" />
    <glyph glyph-name="zero.subs" horiz-adv-x="808" 
d="M279 -248q-148 0 -224.5 122t-50.5 316q28 194 138.5 316.5t258.5 122.5q149 0 226 -122.5t49 -316.5q-26 -194 -137 -316t-260 -122zM305 -61q61 0 109 70t63 181t-12.5 181.5t-87.5 70.5t-107.5 -69.5t-64.5 -182.5q-15 -112 13 -181.5t87 -69.5z" />
    <glyph glyph-name="one.subs" horiz-adv-x="503" 
d="M287 614h139l-119 -847h-194l88 614l-135 -70l-62 158z" />
    <glyph glyph-name="two.subs" horiz-adv-x="661" 
d="M582 367q-16 -124 -142 -238l-198 -180h293l-25 -182h-567l22 157l318 293q92 87 98 137q4 36 -20.5 58t-65.5 22q-82 0 -166 -84l-115 125q56 70 142 112t178 42q126 0 194.5 -73.5t53.5 -188.5z" />
    <glyph glyph-name="three.subs" horiz-adv-x="696" 
d="M621 393q-7 -58 -43.5 -106t-92.5 -78q55 -31 81.5 -85.5t17.5 -121.5q-15 -110 -115.5 -180t-243.5 -70q-91 0 -172 31.5t-127 87.5l131 143q30 -35 80 -55t103 -20q61 0 102 26t47 66q6 41 -28.5 67.5t-90.5 26.5h-120l24 166h119q51 0 85.5 21t39.5 53q4 33 -29.5 55
t-87.5 22q-44 0 -90 -14.5t-78 -38.5l-84 139q57 46 138.5 73.5t162.5 27.5q133 0 209 -66t62 -170z" />
    <glyph glyph-name="four.subs" horiz-adv-x="747" 
d="M641 102l-29 -182h-80l-22 -153h-195l23 153h-346l-23 158l445 536h215l-72 -512h84zM170 102h192l41 287z" />
    <glyph glyph-name="five.subs" horiz-adv-x="724" 
d="M360 317q125 0 198 -80t56 -198q-17 -124 -121 -205.5t-249 -81.5q-164 0 -287 111l119 155q32 -37 81 -58t101 -21q64 0 108 31t50 77q6 42 -23 70t-80 28q-65 0 -114 -43l-164 50l106 462h496l-27 -180h-329l-31 -139q49 22 110 22z" />
    <glyph glyph-name="six.subs" horiz-adv-x="702" 
d="M385 313q112 0 176 -78.5t49 -193.5q-19 -124 -123 -206.5t-241 -82.5q-148 0 -223.5 96t-53.5 254q19 133 98 246t212.5 188t298.5 93l10 -180q-116 -17 -205 -63.5t-139 -109.5q64 37 141 37zM410 39q6 42 -25.5 71t-83.5 29t-92.5 -27t-46.5 -71q-6 -45 24 -74.5
t84 -29.5q53 0 93.5 29t46.5 73z" />
    <glyph glyph-name="seven.subs" horiz-adv-x="663" 
d="M55 614h572l-21 -153l-407 -694h-219l393 665h-342z" />
    <glyph glyph-name="eight.subs" horiz-adv-x="729" 
d="M655 389q-7 -56 -42.5 -103.5t-90.5 -78.5q53 -34 79 -86t17 -113q-15 -108 -119 -182t-243 -74t-222.5 73.5t-68.5 182.5q9 61 49.5 113t102.5 86q-45 32 -67 79t-13 103q14 101 112 170.5t230 69.5q133 0 212 -70t64 -170zM231 369q-3 -35 25.5 -57.5t73.5 -22.5
q48 0 83.5 22.5t39.5 57.5q6 35 -23 57.5t-76 22.5q-46 0 -81.5 -22.5t-41.5 -57.5zM422 27q6 38 -27.5 64t-87.5 26t-93.5 -26t-45.5 -64q-5 -39 27 -64.5t86 -25.5q55 0 95.5 26t45.5 64z" />
    <glyph glyph-name="nine.subs" horiz-adv-x="702" 
d="M365 629q148 0 223.5 -96t52.5 -254q-20 -135 -99.5 -250t-213 -190.5t-295.5 -86.5l-13 180q115 10 205 57t142 115q-65 -36 -142 -36q-110 0 -174 79t-49 193q17 124 121 206.5t242 82.5zM451 340q6 45 -25 74.5t-86 29.5q-53 0 -92.5 -29t-46.5 -73q-5 -43 25.5 -71.5
t82.5 -28.5t94 27t48 71z" />
    <glyph glyph-name="zero.dnom" horiz-adv-x="808" 
d="M311 -14q-148 0 -224 122t-50 316q28 194 138.5 316t258.5 122q149 0 226 -122t49 -316q-26 -193 -137.5 -315.5t-260.5 -122.5zM338 172q61 0 109 70.5t63 181.5t-12.5 181.5t-87.5 70.5t-107.5 -69.5t-64.5 -182.5q-15 -112 13 -182t87 -70z" />
    <glyph glyph-name="one.dnom" horiz-adv-x="503" 
d="M319 848h140l-119 -848h-195l88 614l-135 -69l-61 157z" />
    <glyph glyph-name="two.dnom" horiz-adv-x="661" 
d="M614 600q-16 -125 -141 -238l-199 -180h293l-24 -182h-568l23 158l317 293q93 88 99 137q4 36 -20.5 58t-65.5 22q-82 0 -166 -84l-115 125q56 70 141.5 111.5t178.5 41.5q126 0 194 -73.5t53 -188.5z" />
    <glyph glyph-name="three.dnom" horiz-adv-x="696" 
d="M653 627q-7 -58 -43 -107t-92 -78q55 -31 81 -85t17 -121q-15 -110 -115 -180t-243 -70q-91 0 -172 31t-127 87l131 144q31 -35 80 -55.5t102 -20.5q61 0 102.5 26t47.5 66q6 41 -28.5 67.5t-90.5 26.5h-121l25 166h119q51 0 85.5 21t39.5 53q4 34 -29.5 56t-87.5 22
q-44 0 -90 -14.5t-78 -38.5l-84 139q57 46 138.5 73t162.5 27q133 0 208.5 -65.5t61.5 -169.5z" />
    <glyph glyph-name="four.dnom" horiz-adv-x="747" 
d="M674 336l-29 -182h-80l-22 -154h-195l23 154h-346l-23 157l444 537h216l-72 -512h84zM203 336h192l41 287z" />
    <glyph glyph-name="five.dnom" horiz-adv-x="724" 
d="M393 551q125 0 198 -80.5t56 -198.5q-17 -124 -121.5 -205t-249.5 -81q-164 0 -286 110l119 156q32 -37 81 -58.5t101 -21.5q64 0 108 31.5t50 77.5q6 42 -23 70t-80 28q-66 0 -115 -43l-163 49l106 463h496l-27 -180h-330l-30 -140q51 23 110 23z" />
    <glyph glyph-name="six.dnom" horiz-adv-x="702" 
d="M418 547q112 0 176 -79t49 -194q-19 -124 -123 -206t-241 -82q-148 0 -223.5 96t-53.5 254q19 133 98 245.5t212 187.5t298 93l11 -180q-116 -17 -206 -63t-139 -109q64 37 142 37zM442 272q6 42 -25 71.5t-83 29.5t-92.5 -27.5t-46.5 -71.5q-6 -45 24 -74.5t84 -29.5
q53 0 93 29t46 73z" />
    <glyph glyph-name="seven.dnom" horiz-adv-x="663" 
d="M88 848h571l-20 -154l-408 -694h-219l394 666h-343z" />
    <glyph glyph-name="eight.dnom" horiz-adv-x="729" 
d="M688 623q-7 -56 -42.5 -104t-90.5 -79q53 -34 79 -86t17 -112q-15 -108 -119 -182t-243 -74t-222.5 73.5t-68.5 182.5q9 60 49 112t103 86q-45 32 -67 79.5t-13 103.5q14 101 111.5 170t230.5 69t212 -69.5t64 -169.5zM264 602q-3 -35 25 -57.5t73 -22.5q48 0 83.5 22.5
t39.5 57.5q6 35 -22.5 57.5t-75.5 22.5q-46 0 -81.5 -22.5t-41.5 -57.5zM455 260q6 38 -27.5 64t-87.5 26t-93.5 -26t-45.5 -64q-5 -39 26.5 -64.5t85.5 -25.5q56 0 97 26t45 64z" />
    <glyph glyph-name="nine.dnom" horiz-adv-x="702" 
d="M397 862q148 0 224 -96t53 -254q-20 -135 -99.5 -249.5t-213 -190t-295.5 -86.5l-13 180q115 10 204.5 57t141.5 115q-67 -37 -141 -37q-110 0 -174 79t-49 193q17 124 120.5 206.5t241.5 82.5zM483 573q6 45 -24.5 75t-85.5 30q-53 0 -93 -29.5t-47 -73.5
q-5 -43 26 -71.5t83 -28.5t93.5 27t47.5 71z" />
    <glyph glyph-name="zero.numr" horiz-adv-x="808" 
d="M391 551q-148 0 -224 122t-50 316q28 194 138.5 316t258.5 122q149 0 225.5 -122t48.5 -316q-26 -194 -137 -316t-260 -122zM418 737q61 0 109 70.5t63 181.5t-13 181.5t-88 70.5t-107.5 -69.5t-64.5 -182.5q-15 -112 13.5 -182t87.5 -70z" />
    <glyph glyph-name="one.numr" horiz-adv-x="503" 
d="M399 1413h140l-119 -848h-195l88 615l-135 -70l-61 158z" />
    <glyph glyph-name="two.numr" horiz-adv-x="661" 
d="M694 1165q-16 -124 -141 -237l-199 -180h293l-24 -183h-568l23 158l317 293q93 88 99 137q4 36 -20.5 58t-65.5 22q-82 0 -166 -84l-115 125q56 70 141.5 111.5t177.5 41.5q126 0 194.5 -73.5t53.5 -188.5z" />
    <glyph glyph-name="three.numr" horiz-adv-x="696" 
d="M733 1192q-7 -58 -43 -106t-92 -78q55 -31 81 -85.5t17 -121.5q-15 -110 -115 -180t-243 -70q-91 0 -172 31.5t-127 87.5l131 143q31 -35 80 -55.5t102 -20.5q61 0 102.5 26t47.5 66q6 41 -28.5 68t-90.5 27h-121l25 166h119q51 0 85 20.5t39 52.5q4 34 -29 56t-87 22
q-44 0 -90 -14.5t-78 -38.5l-84 139q57 46 138.5 73t162.5 27q133 0 208.5 -65.5t61.5 -169.5z" />
    <glyph glyph-name="four.numr" horiz-adv-x="747" 
d="M754 901l-29 -182h-80l-22 -154h-195l23 154h-347l-22 158l444 536h215l-71 -512h84zM283 901h192l41 287z" />
    <glyph glyph-name="five.numr" horiz-adv-x="724" 
d="M473 1116q125 0 198 -80t56 -198q-17 -124 -121.5 -205.5t-249.5 -81.5q-163 0 -286 111l118 155q32 -37 81.5 -58.5t101.5 -21.5q64 0 107.5 31.5t49.5 77.5q6 42 -22.5 70t-79.5 28q-66 0 -115 -43l-164 49l107 463h496l-27 -180h-330l-31 -139q49 22 111 22z" />
    <glyph glyph-name="six.numr" horiz-adv-x="702" 
d="M498 1112q112 0 176 -78.5t49 -193.5q-19 -124 -123.5 -206.5t-241.5 -82.5q-147 0 -222.5 95.5t-53.5 254.5q19 133 98 245.5t212 187.5t298 93l10 -180q-116 -17 -205.5 -63t-138.5 -109q64 37 142 37zM522 838q6 42 -25 71t-83 29t-93 -27t-47 -71q-6 -45 24.5 -75
t84.5 -30q53 0 93 29.5t46 73.5z" />
    <glyph glyph-name="seven.numr" horiz-adv-x="663" 
d="M168 1413h571l-20 -153l-408 -695h-219l393 666h-342z" />
    <glyph glyph-name="eight.numr" horiz-adv-x="729" 
d="M768 1188q-7 -56 -42.5 -103.5t-90.5 -78.5q53 -34 79 -86t17 -113q-15 -108 -119 -182t-243 -74t-222.5 73.5t-68.5 182.5q9 61 49 113t102 86q-45 31 -66.5 78.5t-12.5 103.5q14 101 111.5 170t230.5 69t212 -69.5t64 -169.5zM344 1167q-3 -35 25 -57.5t73 -22.5
q48 0 83.5 22.5t39.5 57.5q6 35 -22.5 57.5t-75.5 22.5q-46 0 -81.5 -22.5t-41.5 -57.5zM535 825q6 38 -27.5 64t-87.5 26t-93.5 -26t-45.5 -64q-5 -39 26.5 -64.5t85.5 -25.5q56 0 97 26t45 64z" />
    <glyph glyph-name="nine.numr" horiz-adv-x="702" 
d="M477 1427q148 0 224 -96t53 -254q-30 -207 -197.5 -358t-411.5 -168l-12 180q115 10 204.5 57t141.5 115q-67 -37 -141 -37q-110 0 -174 79t-49 194q17 124 120.5 206t241.5 82zM563 1139q6 45 -24.5 74.5t-85.5 29.5q-53 0 -93 -29t-47 -73q-5 -43 26 -72t83 -29
t93.5 27.5t47.5 71.5z" />
    <glyph glyph-name="exclamdown.case" horiz-adv-x="557" 
d="M356 1075q-77 0 -121 51t-32 127q9 76 68 127.5t137 51.5q76 0 120 -51t35 -128q-12 -76 -71 -127t-136 -51zM66 0l49 348l102 615h248l-70 -615l-49 -348h-280z" />
    <glyph glyph-name="questiondown.case" horiz-adv-x="1044" 
d="M633 1075q-78 0 -122.5 50.5t-33.5 127.5t70 128t137 51q76 0 120.5 -51t35.5 -128q-12 -76 -71 -127t-136 -51zM465 -25q-193 0 -305.5 114t-89.5 280q11 78 54 148.5t97.5 120.5t108 94.5t93.5 89.5t46 87l6 49h281l-6 -49q-10 -67 -51.5 -129.5t-94.5 -110.5
t-105.5 -92.5t-91.5 -92.5t-45 -93q-9 -63 34 -103t122 -40q82 0 166 43t156 121l157 -187q-108 -118 -247.5 -184t-284.5 -66z" />
    <glyph glyph-name="periodcentered.case" horiz-adv-x="610" 
d="M305 522q-79 0 -125.5 53.5t-34.5 131.5q10 78 71.5 131t141.5 53q79 0 124 -52.5t36 -131.5q-12 -78 -73 -131.5t-140 -53.5z" />
    <glyph glyph-name="bullet.case" horiz-adv-x="716" 
d="M350 469q-101 0 -160.5 68.5t-44.5 169.5q13 101 91.5 169t181.5 68q101 0 160.5 -68t46.5 -169q-15 -101 -93.5 -169.5t-181.5 -68.5z" />
    <glyph glyph-name="asterisk.case" horiz-adv-x="808" 
d="M629 1094l55 -25l115 -68l-103 -141l-116 68l-41 39l2 -60l-19 -137h-166l21 137l16 58l-51 -37l-133 -68l-64 141l134 72l57 21l-51 20l-115 68l102 141l117 -66l41 -38l-2 59l18 135h166l-20 -135l-17 -57l52 36l133 66l63 -141l-133 -68z" />
    <glyph glyph-name="slash.case" horiz-adv-x="1099" 
d="M-98 -215l1079 1843h268l-1079 -1843h-268z" />
    <glyph glyph-name="backslash.case" horiz-adv-x="1099" 
d="M721 -215l-559 1843h268l559 -1843h-268z" />
    <glyph glyph-name="parenleft.case" horiz-adv-x="739" 
d="M342 -256q-107 173 -150 437t-6 526t153.5 525t272.5 437h269q-151 -174 -265 -437t-151 -525q-37 -263 2.5 -526.5t142.5 -436.5h-268z" />
    <glyph glyph-name="parenright.case" horiz-adv-x="739" 
d="M-90 -256q152 174 266.5 438t151.5 525q37 262 -4 525t-144 437h269q107 -174 150.5 -437t6.5 -525q-37 -261 -154.5 -525t-273.5 -438h-268z" />
    <glyph glyph-name="braceleft.case" horiz-adv-x="872" 
d="M756 1669h217l-35 -252h-117q-50 0 -86 -32.5t-43 -84.5l-57 -421q-9 -58 -48 -103t-98 -67q53 -23 78.5 -69t18.5 -103l-62 -424q-6 -52 20.5 -84.5t76.5 -32.5h114l-33 -252h-217q-128 0 -196 79t-49 208l61 436q7 52 -18.5 83.5t-75.5 31.5h-80l35 252h80
q51 0 85 31.5t42 82.5l61 434q19 129 108.5 208t217.5 79z" />
    <glyph glyph-name="braceright.case" horiz-adv-x="872" 
d="M719 834h80l-35 -252h-80q-50 0 -85 -31.5t-42 -83.5l-61 -436q-17 -128 -107 -207.5t-217 -79.5h-219l35 252h114q50 0 86.5 32.5t42.5 84.5l62 424q7 57 45.5 103t95.5 69q-53 22 -78 67t-16 103l59 421q8 53 -18.5 85t-77.5 32h-115l35 252h219q127 0 195 -79.5
t49 -207.5l-61 -434q-7 -51 18.5 -82.5t75.5 -31.5z" />
    <glyph glyph-name="bracketleft.case" horiz-adv-x="749" 
d="M815 1417h-235l-199 -1421h231l-32 -252h-508l270 1925h508z" />
    <glyph glyph-name="bracketright.case" horiz-adv-x="749" 
d="M223 1669h510l-270 -1925h-510l35 252h235l199 1421h-234z" />
    <glyph glyph-name="hyphen.case" horiz-adv-x="835" 
d="M127 580l37 258h598l-37 -258h-598z" />
    <glyph glyph-name="endash.case" horiz-adv-x="1245" 
d="M127 588l35 239h1007l-34 -239h-1008z" />
    <glyph glyph-name="emdash.case" horiz-adv-x="2187" 
d="M127 588l35 239h1949l-34 -239h-1950z" />
    <glyph glyph-name="guillemotleft.case" horiz-adv-x="1341" 
d="M797 1124l-373 -417l254 -418h-311l-254 418l370 417h314zM1341 1124l-372 -417l256 -418h-312l-254 418l371 417h311z" />
    <glyph glyph-name="guillemotright.case" horiz-adv-x="1341" 
d="M492 1124l253 -417l-370 -418h-314l373 418l-254 417h312zM1038 1124l254 -417l-372 -418h-312l371 418l-254 417h313z" />
    <glyph glyph-name="guilsinglleft.case" horiz-adv-x="794" 
d="M797 1124l-373 -417l254 -418h-311l-254 418l370 417h314z" />
    <glyph glyph-name="guilsinglright.case" horiz-adv-x="794" 
d="M492 1124l253 -417l-370 -418h-314l373 418l-254 417h312z" />
    <glyph glyph-name="plus.case" horiz-adv-x="1093" 
d="M1018 827l-35 -239h-305l-45 -309h-244l45 309h-307l35 239h305l45 308h244l-45 -308h307z" />
    <glyph glyph-name="at.case" horiz-adv-x="1705" 
d="M995 1464q158 0 290.5 -53.5t221 -147t129 -226t19.5 -283.5q-27 -188 -131 -302t-260 -114q-86 0 -150.5 32t-93.5 89q-92 -125 -254 -125q-151 0 -235.5 106t-61.5 262q21 159 134 266t253 107q127 0 199 -94l10 70h227l-63 -453q-5 -35 14.5 -57.5t54.5 -22.5
q58 0 102.5 66.5t59.5 173.5q16 110 -14 207.5t-96 166t-165 108.5t-216 40q-165 0 -308 -74.5t-236 -206t-116 -294.5q-22 -161 34 -292.5t178.5 -206.5t287.5 -75q204 0 358 100l66 -165q-215 -119 -455 -119q-162 0 -297 58.5t-222.5 159t-126.5 241t-17 299.5
q30 213 155 387t316 273t409 99zM838 551q61 0 111 38t65 95l6 39q0 59 -39 97t-100 38q-67 0 -119.5 -43.5t-59.5 -109.5q-9 -66 30 -110t106 -44z" />
    <glyph glyph-name="uni030C.alt" horiz-adv-x="0" 
d="M-215 1020l106 455h242l-147 -455h-201z" />
    <glyph glyph-name="caron.alt" horiz-adv-x="284" 
d="M70 1020l106 455h242l-148 -455h-200z" />
    </font>
</defs>
</svg>
