<?xml version="1.0" standalone="no"?>
<!DOCTYPE svg PUBLIC "-//W3C//DTD SVG 1.1//EN" "http://www.w3.org/Graphics/SVG/1.1/DTD/svg11.dtd" >
<svg xmlns="http://www.w3.org/2000/svg" xmlns:xlink="http://www.w3.org/1999/xlink" version="1.1">
<metadata>
Created by FontForge 20201107 at Sun Dec 27 21:40:38 2020
 By 
Copyright (c) 2020 by Adam Ladd. All rights reserved.
</metadata>
<defs>
<font id="Lufga-MediumItalic" horiz-adv-x="1323" >
  <font-face 
    font-family="Lufga Medium"
    font-weight="500"
    font-style="italic"
    font-stretch="normal"
    units-per-em="2048"
    panose-1="0 0 6 0 0 0 0 0 0 0"
    ascent="1597"
    descent="-451"
    x-height="1044"
    cap-height="1413"
    bbox="-1503 -487 2720 1896"
    underline-thickness="131"
    underline-position="-334"
    slope="-8"
    unicode-range="U+0020-FB02"
  />
<missing-glyph horiz-adv-x="1024" 
d="M840 1597v-2048h-650v2048h650zM682 1460h-338v-67h133v-76h-135v-68h340v68h-135v76h135v67zM547 1196h-205v-213h340v70h-135v143zM477 1126v-73h-67v73h67zM682 928h-340v-68h135v-76h-135v-67h205v143h135v68zM682 805h-68v-135h-272v-70h340v205zM682 555h-205v-115
h70v47h67v-96h-204v164h-68v-231h340v231zM682 201h-340v-232h340v232zM614 133v-96h-204v96h204zM682 -78h-340v-67h143l-143 -97v-67h340v67h-209l143 97h66v67z" />
    <glyph glyph-name="fi" unicode="fi" horiz-adv-x="1306" 
d="M1194 1511q63 0 99.5 -41t27.5 -104q-9 -62 -57 -103.5t-111 -41.5t-99 41.5t-28 103.5q9 62 57.5 103.5t110.5 41.5zM729 1288q-156 0 -174 -143l-14 -101h278l-31 -208h-276l-119 -836h-229l119 836h-177l29 208h176l17 115q22 161 119 250.5t262 89.5q103 0 182 -43
l-27 -203q-59 35 -135 35zM866 0l148 1044h229l-147 -1044h-230z" />
    <glyph glyph-name="fl" unicode="fl" horiz-adv-x="1306" 
d="M729 1288q-156 0 -174 -143l-14 -101h278l-31 -208h-276l-119 -836h-229l119 836h-177l29 208h176l17 115q22 161 119 250.5t262 89.5q103 0 182 -43l-27 -203q-59 35 -135 35zM1073 1475h230l-207 -1475h-230z" />
    <glyph glyph-name=".notdef" horiz-adv-x="1024" 
d="M840 1597v-2048h-650v2048h650zM682 1460h-338v-67h133v-76h-135v-68h340v68h-135v76h135v67zM547 1196h-205v-213h340v70h-135v143zM477 1126v-73h-67v73h67zM682 928h-340v-68h135v-76h-135v-67h205v143h135v68zM682 805h-68v-135h-272v-70h340v205zM682 555h-205v-115
h70v47h67v-96h-204v164h-68v-231h340v231zM682 201h-340v-232h340v232zM614 133v-96h-204v96h204zM682 -78h-340v-67h143l-143 -97v-67h340v67h-209l143 97h66v67z" />
    <glyph glyph-name=".null" horiz-adv-x="0" 
 />
    <glyph glyph-name="nonmarkingreturn" horiz-adv-x="682" 
 />
    <glyph glyph-name="space" unicode=" " horiz-adv-x="483" 
 />
    <glyph glyph-name="exclam" unicode="!" horiz-adv-x="542" 
d="M152 428l73 637l49 348h244l-49 -348l-104 -637h-213zM195 -16q-67 0 -106 44.5t-30 112.5q7 67 60 112.5t121 45.5t107 -45.5t30 -112.5t-61 -112t-121 -45z" />
    <glyph glyph-name="quotedbl" unicode="&#x22;" horiz-adv-x="866" 
d="M176 887l60 526h227l-88 -526h-199zM594 887l59 526h228l-88 -526h-199z" />
    <glyph glyph-name="numbersign" unicode="#" horiz-adv-x="1564" 
d="M1534 852h-289l-125 -291h264l-28 -201h-324l-158 -360h-210l157 360h-344l-158 -360h-213l158 360h-227l29 201h284l127 291h-260l25 201h321l158 360h215l-158 -360h342l158 360h213l-158 -360h228zM907 561l127 291h-344l-125 -291h342z" />
    <glyph glyph-name="dollar" unicode="$" horiz-adv-x="1185" 
d="M731 819q53 -14 101 -31t109 -51.5t102 -77t65.5 -109t13.5 -144.5q-24 -168 -166 -279t-340 -129l-20 -139h-147l20 139q-132 13 -249 71t-191 146l145 172q63 -66 147.5 -113t176.5 -61l57 403q-87 23 -155 57t-121.5 82t-77.5 116t-13 149q23 160 154 267.5t326 127.5
l20 141h148l-21 -141q116 -10 209.5 -55.5t151.5 -114.5l-142 -172q-39 45 -105.5 80.5t-144.5 46.5zM436 1032q-18 -113 154 -176l47 344q-83 -15 -137.5 -60.5t-63.5 -107.5zM874 393q17 120 -176 185l-53 -367q93 14 155 61t74 121z" />
    <glyph glyph-name="percent" unicode="%" horiz-adv-x="1742" 
d="M465 764q-146 0 -230.5 96.5t-64.5 241.5q20 143 132 239.5t259 96.5q146 0 229.5 -96.5t63.5 -239.5q-20 -145 -131.5 -241.5t-257.5 -96.5zM164 0l1222 1413h246l-1222 -1413h-246zM489 948q64 0 114 44.5t61 109.5q9 64 -27.5 106.5t-101.5 42.5t-114.5 -42.5
t-58.5 -106.5q-10 -64 27 -109t100 -45zM1233 -25q-146 0 -230.5 96.5t-64.5 241.5q22 145 133.5 240.5t257.5 95.5q147 0 231 -95.5t64 -240.5q-22 -145 -133.5 -241.5t-257.5 -96.5zM1260 162q64 0 113.5 43t58.5 108t-28 108.5t-101 43.5t-114 -43.5t-59 -108.5
q-9 -64 28 -107.5t102 -43.5z" />
    <glyph glyph-name="ampersand" unicode="&#x26;" 
d="M1321 623q-97 -209 -234 -361l199 -262h-301l-76 100q-175 -125 -399 -125q-230 0 -358 127.5t-99 327.5q20 139 103 234t213 167q-97 163 -78 295q19 134 135.5 223t269.5 89q156 0 249.5 -87.5t74.5 -220.5q-16 -111 -102 -191t-226 -151l273 -362q96 119 161 264z
M518 1126q-11 -71 66 -190q92 46 144 91t60 101q7 54 -27 89.5t-91 35.5q-55 0 -99 -35.5t-53 -91.5zM551 190q120 0 235 72l-311 414q-160 -100 -178 -232q-15 -110 57 -182t197 -72z" />
    <glyph glyph-name="quotesingle" unicode="'" horiz-adv-x="446" 
d="M176 887l60 526h227l-88 -526h-199z" />
    <glyph glyph-name="parenleft" unicode="(" horiz-adv-x="679" 
d="M307 -389q-106 174 -148.5 437.5t-4.5 524.5q37 262 153.5 525.5t272.5 437.5h231q-151 -174 -265 -437.5t-151 -525.5q-38 -261 2 -524.5t142 -437.5h-232z" />
    <glyph glyph-name="parenright" unicode=")" horiz-adv-x="679" 
d="M-117 -389q152 173 266 436t152 526q37 263 -2.5 526.5t-142.5 436.5h231q106 -174 149.5 -438t6.5 -525q-38 -262 -155.5 -525.5t-272.5 -436.5h-232z" />
    <glyph glyph-name="asterisk" unicode="*" horiz-adv-x="770" 
d="M602 1159l47 -20l127 -76l-90 -123l-129 76l-35 33v-54l-20 -151h-144l21 151l16 56l-47 -35l-147 -76l-56 123l150 78l53 18l-49 21l-127 75l88 123l129 -75l37 -35l-2 53l22 154h144l-23 -154l-14 -53l47 35l148 75l55 -123l-148 -77z" />
    <glyph glyph-name="plus" unicode="+" horiz-adv-x="1093" 
d="M997 709l-30 -207h-318l-45 -322h-211l45 322h-317l29 207h317l45 319h211l-45 -319h319z" />
    <glyph glyph-name="comma" unicode="," horiz-adv-x="514" 
d="M-92 -297l221 551h268l-291 -551h-198z" />
    <glyph glyph-name="hyphen" unicode="-" horiz-adv-x="835" 
d="M113 451l32 221h588l-31 -221h-589z" />
    <glyph glyph-name="period" unicode="." horiz-adv-x="505" 
d="M176 -16q-69 0 -109.5 46t-31.5 115q11 69 64.5 116.5t123.5 47.5q69 0 110 -47.5t32 -116.5q-11 -69 -65 -115t-124 -46z" />
    <glyph glyph-name="slash" unicode="/" horiz-adv-x="1069" 
d="M-106 -307l1079 1843h231l-1079 -1843h-231z" />
    <glyph glyph-name="zero" unicode="0" horiz-adv-x="1306" 
d="M575 -25q-160 0 -272.5 92.5t-158 259t-15.5 380.5q29 213 122 380t232 259t299 92t272.5 -92t159 -258.5t17.5 -380.5q-46 -323 -229.5 -527.5t-426.5 -204.5zM610 211q132 0 235.5 138t135.5 358q29 220 -35 357.5t-196 137.5t-236 -138t-135 -357t34 -357.5
t197 -138.5z" />
    <glyph glyph-name="one" unicode="1" horiz-adv-x="790" 
d="M580 1413h172l-199 -1413h-242l158 1122l-272 -139l-76 195z" />
    <glyph glyph-name="two" unicode="2" horiz-adv-x="1097" 
d="M1055 1020q-17 -117 -79 -210.5t-159 -180.5l-432 -400h586l-31 -229h-930l29 197l579 544q80 76 128 138.5t57 126.5q12 84 -42.5 136t-150.5 52q-171 0 -317 -172l-146 158q89 118 225.5 188t286.5 70q200 0 310.5 -118t85.5 -300z" />
    <glyph glyph-name="three" unicode="3" horiz-adv-x="1173" 
d="M1137 1057q-13 -101 -79.5 -184.5t-168.5 -131.5q103 -50 154 -143t36 -211q-28 -181 -190 -296.5t-391 -115.5q-150 0 -279 53t-205 148l166 178q55 -68 144 -105.5t190 -37.5q127 0 216.5 59.5t103.5 151.5q12 92 -57 151.5t-189 59.5h-207l29 211h208q103 0 178 50
t85 128q11 79 -55.5 129.5t-182.5 50.5q-87 0 -173.5 -31t-145.5 -86l-107 177q93 83 224 129.5t266 46.5q213 0 333 -107.5t97 -273.5z" />
    <glyph glyph-name="four" unicode="4" horiz-adv-x="1198" 
d="M1145 522l-31 -229h-166l-41 -293h-243l41 293h-627l-31 196l791 924h268l-125 -891h164zM319 522h416l82 582z" />
    <glyph glyph-name="five" unicode="5" horiz-adv-x="1185" 
d="M1116 1184h-600l-76 -336q112 61 248 61q135 0 238.5 -60t152.5 -165.5t31 -234.5q-19 -134 -103 -242t-215.5 -170t-285.5 -62q-132 0 -253 51t-214 150l149 195q60 -75 148.5 -117.5t187.5 -42.5q134 0 227.5 70t108.5 174q14 99 -52 165t-181 66q-68 0 -134.5 -25
t-117.5 -67l-207 63l176 756h803z" />
    <glyph glyph-name="six" unicode="6" horiz-adv-x="1146" 
d="M717 899q126 0 220.5 -59.5t138.5 -162t28 -226.5q-29 -204 -199.5 -340t-398.5 -136q-241 0 -365.5 153.5t-87.5 412.5q23 164 106.5 315t212.5 269.5t304.5 201t374.5 111.5l16 -228q-230 -40 -403 -151t-263 -262q137 102 316 102zM852 446q14 97 -54 163.5t-184 66.5
q-74 0 -141.5 -23t-118.5 -75t-61 -123q-17 -106 52 -175t196 -69q120 0 208 66t103 169z" />
    <glyph glyph-name="seven" unicode="7" horiz-adv-x="1075" 
d="M209 1413h934l-27 -190l-735 -1223h-275l715 1184h-645z" />
    <glyph glyph-name="eight" unicode="8" horiz-adv-x="1208" 
d="M1176 1049q-15 -99 -80.5 -181.5t-167.5 -134.5q101 -55 150 -144t34 -198q-25 -177 -193 -296.5t-393 -119.5q-226 0 -359.5 119t-107.5 297q15 108 89 197.5t190 144.5q-87 52 -129 134.5t-29 181.5q23 165 181 277t372 112q213 0 339.5 -112t103.5 -277zM428 1024
q-11 -77 52.5 -128.5t168.5 -51.5q106 0 184 51.5t89 128.5q10 76 -53.5 127t-168.5 51q-106 0 -184 -51t-88 -127zM864 414q13 86 -58 144t-190 58q-117 0 -204 -58t-99 -144q-12 -88 58.5 -145.5t187.5 -57.5q119 0 206 57.5t99 145.5z" />
    <glyph glyph-name="nine" unicode="9" horiz-adv-x="1146" 
d="M692 1438q242 0 366 -153t89 -413q-24 -165 -107 -318t-210.5 -274t-305 -202.5t-377.5 -102.5l-14 228q232 31 405 144.5t263 270.5q-136 -104 -320 -104q-126 0 -220.5 60t-138 162.5t-26.5 226.5q29 204 199 339.5t397 135.5zM907 958q15 107 -53.5 175.5t-196.5 68.5
q-119 0 -207.5 -66.5t-101.5 -168.5q-15 -97 52.5 -163.5t183.5 -66.5q74 0 142 23t119.5 75t61.5 123z" />
    <glyph glyph-name="colon" unicode=":" horiz-adv-x="526" 
d="M285 674q-71 0 -111.5 47t-30.5 117q9 69 63.5 115t125.5 46q69 0 108.5 -46t30.5 -115q-9 -70 -62 -117t-124 -47zM186 -16q-69 0 -109.5 46t-31.5 115q11 69 64.5 116.5t123.5 47.5q69 0 110 -47.5t32 -116.5q-11 -69 -65 -115t-124 -46z" />
    <glyph glyph-name="semicolon" unicode=";" horiz-adv-x="555" 
d="M315 674q-71 0 -111 47t-30 117q9 69 63 115t123 46q70 0 110.5 -46t31.5 -115q-10 -70 -64 -117t-123 -47zM-92 -297l219 551h270l-293 -551h-196z" />
    <glyph glyph-name="less" unicode="&#x3c;" horiz-adv-x="950" 
d="M903 1059l-33 -230l-505 -223l442 -223l-33 -229l-653 348l29 209z" />
    <glyph glyph-name="equal" unicode="=" horiz-adv-x="1093" 
d="M147 694l29 207h848l-29 -207h-848zM94 311l29 207h848l-31 -207h-846z" />
    <glyph glyph-name="greater" unicode="&#x3e;" horiz-adv-x="950" 
d="M199 1059l655 -348l-31 -209l-751 -348l32 229l506 223l-442 223z" />
    <glyph glyph-name="question" unicode="?" horiz-adv-x="1001" 
d="M352 432l6 57q9 57 41 112t73.5 96.5t90 85.5t89 80.5t70.5 81t36 87.5q11 74 -38.5 123t-139.5 49q-89 0 -177.5 -46t-162.5 -130l-138 160q105 118 242 184t281 66q189 0 299.5 -111.5t85.5 -273.5q-11 -79 -55 -150.5t-99.5 -124t-111 -99.5t-96.5 -95.5t-48 -94.5
l-6 -57h-242zM410 -16q-69 0 -108 44.5t-28 112.5q7 67 59.5 112.5t121.5 45.5q68 0 107 -45.5t30 -112.5t-61.5 -112t-120.5 -45z" />
    <glyph glyph-name="at" unicode="@" horiz-adv-x="1718" 
d="M975 1309q158 0 290 -54t219 -148t127 -227t19 -284q-25 -186 -126.5 -300t-250.5 -114q-85 0 -148 33t-89 92q-97 -127 -264 -127q-153 0 -238 106.5t-63 264.5q23 159 137.5 266t257.5 107q142 0 213 -107l12 82h203l-66 -467q-5 -39 15.5 -63.5t58.5 -24.5
q61 0 109 71.5t63 182.5q32 232 -112.5 386.5t-391.5 154.5q-167 0 -312.5 -76t-240.5 -210t-118 -300t34 -300.5t181.5 -211t291.5 -76.5q214 0 373 107l66 -150q-220 -125 -465 -125q-161 0 -295 58t-221 158.5t-126.5 240.5t-17.5 299q23 158 101.5 298t194.5 240.5
t266.5 159t312.5 58.5zM815 373q72 0 129 43.5t76 111.5l6 45q0 68 -45 112t-115 44q-77 0 -137 -50t-70 -126q-10 -78 34.5 -129t121.5 -51z" />
    <glyph glyph-name="A" unicode="A" horiz-adv-x="1464" 
d="M1092 0l-72 301h-643l-158 -301h-262l756 1413h288l359 -1413h-268zM494 526h473l-150 621z" />
    <glyph glyph-name="B" unicode="B" horiz-adv-x="1286" 
d="M1239 1057q-13 -100 -73 -184t-142 -123q103 -34 157.5 -136.5t35.5 -230.5q-23 -166 -151 -274.5t-298 -108.5h-688l199 1413h641q157 0 249 -101.5t70 -254.5zM829 1194h-346l-51 -360h346q74 0 134.5 52t70.5 128q11 77 -33.5 128.5t-120.5 51.5zM971 424
q12 87 -37 145t-135 58h-396l-57 -408h395q86 0 153 59.5t77 145.5z" />
    <glyph glyph-name="C" unicode="C" horiz-adv-x="1501" 
d="M743 -25q-156 0 -285.5 56.5t-214 153.5t-122 232.5t-15.5 289.5q28 205 148.5 372.5t304 263t391.5 95.5q195 0 346 -85t230 -233l-228 -129q-53 98 -152.5 154.5t-227.5 56.5q-138 0 -260 -64t-202.5 -178t-99.5 -253q-20 -139 28 -253t151.5 -178.5t242.5 -64.5
q129 0 244.5 56.5t196.5 154.5l190 -129q-120 -148 -295 -233t-371 -85z" />
    <glyph glyph-name="D" unicode="D" horiz-adv-x="1499" 
d="M827 1413q203 0 355 -92t222.5 -253.5t43.5 -360.5q-21 -149 -94.5 -280t-181.5 -225t-249.5 -148t-293.5 -54h-549l199 1413h548zM1198 707q28 204 -88.5 340.5t-318.5 136.5h-302l-133 -955h299q202 0 357 137t186 341z" />
    <glyph glyph-name="E" unicode="E" horiz-adv-x="1193" 
d="M1186 1184h-697l-49 -359h629l-33 -229h-628l-52 -367h705l-31 -229h-950l199 1413h940z" />
    <glyph glyph-name="F" unicode="F" horiz-adv-x="1128" 
d="M1155 1184h-666l-51 -373h582l-33 -229h-581l-82 -582h-244l199 1413h909z" />
    <glyph glyph-name="G" unicode="G" horiz-adv-x="1601" 
d="M897 776h672l-10 -82q-29 -204 -145 -368.5t-293.5 -257.5t-381.5 -93q-155 0 -284 56.5t-212.5 153.5t-121 232.5t-15.5 289.5q28 205 148.5 372.5t304 263t391.5 95.5q186 0 332 -75.5t223 -207.5l-205 -145q-55 91 -153.5 142.5t-222.5 51.5q-213 0 -376 -142
t-192 -355q-20 -140 28.5 -254.5t153 -179t244.5 -64.5q173 0 311 97t191 253h-418z" />
    <glyph glyph-name="H" unicode="H" horiz-adv-x="1484" 
d="M1214 1413h242l-199 -1413h-241l84 596h-692l-84 -596h-244l199 1413h243l-82 -588h693z" />
    <glyph glyph-name="I" unicode="I" horiz-adv-x="548" 
d="M80 0l199 1413h243l-198 -1413h-244z" />
    <glyph glyph-name="J" unicode="J" horiz-adv-x="880" 
d="M211 -25q-123 0 -225 50l32 235q90 -49 201 -49q117 0 193.5 62.5t89.5 170.5l137 969h244l-138 -981q-31 -211 -176.5 -334t-357.5 -123z" />
    <glyph glyph-name="K" unicode="K" horiz-adv-x="1345" 
d="M1470 1413l-739 -686l565 -727h-317l-432 555l-166 -154l-57 -401h-244l199 1413h243l-96 -680l731 680h313z" />
    <glyph glyph-name="L" unicode="L" horiz-adv-x="1095" 
d="M356 229h643l-30 -229h-889l199 1413h243z" />
    <glyph glyph-name="M" unicode="M" horiz-adv-x="1781" 
d="M1454 1413h301l-199 -1413h-243l145 1036l-534 -764h-138l-319 764l-143 -1036h-244l199 1413h303l327 -776z" />
    <glyph glyph-name="N" unicode="N" horiz-adv-x="1505" 
d="M1233 1413h244l-199 -1413h-248l-567 999l-139 -999h-244l199 1413h247l568 -1001z" />
    <glyph glyph-name="O" unicode="O" horiz-adv-x="1644" 
d="M743 -25q-156 0 -285.5 56.5t-214 153.5t-122 232.5t-15.5 289.5q28 205 148.5 372.5t304 263t391.5 95.5q156 0 286.5 -56t215 -153t122.5 -232.5t17 -289.5q-29 -205 -150 -373t-305 -263.5t-393 -95.5zM778 211q211 0 371.5 142t191.5 354q29 212 -91.5 353.5
t-331.5 141.5q-138 0 -260 -64t-202.5 -178t-99.5 -253q-20 -139 28 -253t151.5 -178.5t242.5 -64.5z" />
    <glyph glyph-name="P" unicode="P" horiz-adv-x="1277" 
d="M879 1413q201 0 318 -131.5t91 -329.5q-29 -196 -183 -327t-355 -131h-357l-69 -494h-244l199 1413h600zM1036 952q13 100 -42 166t-152 66h-353l-63 -461h352q97 0 171 65.5t87 163.5z" />
    <glyph glyph-name="Q" unicode="Q" horiz-adv-x="1644" 
d="M1591 707q-24 -168 -110.5 -311.5t-218.5 -243.5l112 -199l-203 -129l-118 211q-148 -60 -310 -60q-156 0 -285.5 56.5t-214 153.5t-122 232.5t-15.5 289.5q28 205 148.5 372.5t304 263t391.5 95.5q156 0 286.5 -56t215 -153t122.5 -232.5t17 -289.5zM1341 707
q29 212 -91.5 353.5t-331.5 141.5q-138 0 -260 -64t-202.5 -178t-99.5 -253q-20 -139 28 -253t151.5 -178.5t242.5 -64.5q82 0 162 25l-104 186l202 127l111 -197q76 67 126.5 159t65.5 196z" />
    <glyph glyph-name="R" unicode="R" horiz-adv-x="1284" 
d="M1268 965q-21 -159 -135 -276t-273 -150l305 -539h-293l-290 526h-185l-73 -526h-244l199 1413h587q130 0 228.5 -58t145 -161t28.5 -229zM1018 963q13 95 -40.5 158t-146.5 63h-342l-61 -445h340q94 0 165 64.5t85 159.5z" />
    <glyph glyph-name="S" unicode="S" horiz-adv-x="1220" 
d="M553 -25q-159 0 -305 60.5t-236 161.5l152 186q72 -85 185 -136.5t235 -51.5q123 0 214 53t103 137q6 40 -11.5 73t-44.5 53.5t-75 39.5t-82 28t-88 21q-99 24 -176.5 58.5t-140 85.5t-90.5 124.5t-15 163.5q25 182 186 294t394 112q149 0 267 -48t185 -128l-139 -185
q-51 62 -146 102t-202 40q-118 0 -201.5 -50t-93.5 -129q-6 -45 15.5 -81t66.5 -60t90 -38.5t102 -26.5q37 -8 68.5 -16.5t84 -28t94 -41.5t86 -57.5t72 -76t41.5 -97.5t5 -122q-26 -185 -197 -302.5t-403 -117.5z" />
    <glyph glyph-name="T" unicode="T" horiz-adv-x="1208" 
d="M1278 1413l-33 -229h-426l-166 -1184h-243l165 1184h-425l30 229h1098z" />
    <glyph glyph-name="U" unicode="U" horiz-adv-x="1411" 
d="M627 -25q-122 0 -223.5 43.5t-167.5 119t-96 181.5t-13 226l123 868h242l-119 -864q-22 -145 60.5 -241.5t228.5 -96.5q144 0 253.5 96.5t131.5 241.5l120 864h244l-121 -868q-23 -161 -117.5 -291.5t-238 -204.5t-307.5 -74z" />
    <glyph glyph-name="V" unicode="V" horiz-adv-x="1452" 
d="M1280 1413h266l-768 -1413h-252l-372 1413h274l272 -1094z" />
    <glyph glyph-name="W" unicode="W" horiz-adv-x="2074" 
d="M1909 1413h252l-643 -1413h-246l-160 1047l-457 -1047h-243l-248 1413h260l162 -1083l473 1083h215l168 -1083z" />
    <glyph glyph-name="X" unicode="X" horiz-adv-x="1468" 
d="M1548 1413l-620 -704l430 -709h-301l-322 545l-473 -545h-299l629 709l-422 704h301l315 -539l463 539h299z" />
    <glyph glyph-name="Y" unicode="Y" horiz-adv-x="1380" 
d="M1227 1413h272l-690 -907l-70 -506h-243l71 506l-436 907h279l317 -663z" />
    <glyph glyph-name="Z" unicode="Z" horiz-adv-x="1257" 
d="M1290 1413l-24 -174l-895 -1010h766l-31 -229h-1102l25 174l895 1010h-744l31 229h1079z" />
    <glyph glyph-name="bracketleft" unicode="[" horiz-adv-x="702" 
d="M760 1319h-246l-209 -1491h244l-31 -217h-481l272 1925h482z" />
    <glyph glyph-name="backslash" unicode="\" horiz-adv-x="1069" 
d="M713 -307l-559 1843h231l559 -1843h-231z" />
    <glyph glyph-name="bracketright" unicode="]" horiz-adv-x="702" 
d="M197 1536h481l-272 -1925h-482l31 217h248l207 1491h-244z" />
    <glyph glyph-name="asciicircum" unicode="^" horiz-adv-x="866" 
d="M850 905h-209l-111 320l-198 -320h-209l330 508h211z" />
    <glyph glyph-name="underscore" unicode="_" horiz-adv-x="1032" 
d="M-63 -336l28 195h916l-27 -195h-917z" />
    <glyph glyph-name="grave" unicode="`" horiz-adv-x="499" 
d="M348 1167l-217 283h291l170 -283h-244z" />
    <glyph glyph-name="a" unicode="a" 
d="M1030 1044h230l-148 -1044h-229l20 150q-76 -83 -176.5 -129t-214.5 -46q-145 0 -252.5 71.5t-156 196.5t-27.5 279q21 153 105.5 278.5t213 197t273.5 71.5q227 0 342 -174zM588 197q136 0 241 91.5t127 227.5v6q19 139 -60 232.5t-216 93.5q-138 0 -244 -94t-125 -232
t60 -231.5t217 -93.5z" />
    <glyph glyph-name="b" unicode="b" 
d="M811 1069q144 0 251.5 -71.5t156.5 -197t28 -278.5t-106 -278.5t-213.5 -197t-272.5 -71.5q-229 0 -344 177l-20 -152h-230l207 1475h230l-82 -582q78 83 180 129.5t215 46.5zM1010 522q20 138 -59 232t-218 94q-137 0 -242.5 -93.5t-125.5 -232.5q-19 -139 60 -232
t218 -93q138 0 243 93.5t124 231.5z" />
    <glyph glyph-name="c" unicode="c" horiz-adv-x="1159" 
d="M553 -25q-157 0 -275 71.5t-172.5 197t-33.5 278.5t112 278.5t229.5 197t295.5 71.5q154 0 269.5 -69.5t172.5 -190.5l-217 -121q-31 73 -99 116.5t-159 43.5q-138 0 -243.5 -94t-125.5 -232q-19 -138 60 -231.5t217 -93.5q92 0 172.5 43t132.5 116l182 -120
q-91 -121 -227.5 -191t-290.5 -70z" />
    <glyph glyph-name="d" unicode="d" 
d="M1090 1475h229l-207 -1475h-229l20 150q-76 -83 -176.5 -129t-214.5 -46q-145 0 -252.5 71.5t-156 196.5t-27.5 279q21 153 105.5 278.5t213 197t273.5 71.5q112 0 199.5 -45.5t140.5 -128.5zM588 197q133 0 236 87t128 218l6 37q12 133 -66.5 221t-211.5 88
q-138 0 -244 -94t-125 -232t60 -231.5t217 -93.5z" />
    <glyph glyph-name="e" unicode="e" horiz-adv-x="1236" 
d="M700 1069q154 0 270 -71t169.5 -197t31.5 -281q-7 -49 -18 -90h-848q14 -113 94.5 -180.5t206.5 -67.5q99 0 188.5 41t147.5 103l137 -133q-97 -102 -230 -160t-278 -58q-163 0 -285 72t-178.5 198t-35.5 281q34 232 213.5 387.5t414.5 155.5zM670 862q-112 0 -204.5 -67
t-135.5 -177h610q-11 110 -84.5 177t-185.5 67z" />
    <glyph glyph-name="f" unicode="f" horiz-adv-x="786" 
d="M729 1288q-156 0 -174 -143l-14 -101h278l-31 -208h-276l-119 -836h-229l119 836h-177l29 208h176l17 115q22 161 119 250.5t262 89.5q103 0 182 -43l-27 -203q-59 35 -135 35z" />
    <glyph glyph-name="g" unicode="g" horiz-adv-x="1153" 
d="M1153 1194h84l-29 -213h-73q-46 0 -82.5 -24.5t-46.5 -65.5q78 -117 57 -279q-28 -195 -185.5 -325.5t-363.5 -130.5q-106 0 -190 34q-64 -38 -70 -100q-6 -45 23.5 -72.5t84.5 -27.5h359q152 0 242.5 -79.5t93.5 -217.5l-246 -64q4 63 -40.5 100.5t-121.5 37.5h-360
q-139 0 -214.5 73.5t-58.5 192.5q10 78 56 146t114 106q-121 131 -94 327q28 195 186 326t365 131q130 0 229 -55q32 84 107 132t174 48zM827 612q12 103 -49 171.5t-166 68.5q-107 0 -187.5 -68.5t-94.5 -171.5q-15 -102 46.5 -170.5t168.5 -68.5q105 0 186 68.5t96 170.5z
" />
    <glyph glyph-name="h" unicode="h" horiz-adv-x="1249" 
d="M795 1069q186 0 283 -113t71 -299l-92 -657h-230l82 582q17 120 -43.5 193t-177.5 73q-124 0 -210 -74t-105 -196l-82 -578h-230l207 1475h230l-80 -572q153 166 377 166z" />
    <glyph glyph-name="i" unicode="i" horiz-adv-x="501" 
d="M348 1221q-63 0 -99 41.5t-28 103.5q9 62 57.5 103.5t110.5 41.5q63 0 99.5 -41t27.5 -104q-9 -62 -57 -103.5t-111 -41.5zM61 0l148 1044h229l-147 -1044h-230z" />
    <glyph glyph-name="j" unicode="j" horiz-adv-x="512" 
d="M358 1221q-62 0 -98 42t-27 103q7 62 55.5 103.5t112.5 41.5q62 0 98 -41t27 -104q-9 -62 -57 -103.5t-111 -41.5zM-66 -414q-77 0 -135 25l29 207q44 -21 94 -21q121 0 139 123l160 1124h230l-162 -1150q-21 -144 -112 -226t-243 -82z" />
    <glyph glyph-name="k" unicode="k" horiz-adv-x="1103" 
d="M1169 1044l-526 -487l393 -557h-303l-276 385l-129 -119l-37 -266h-230l207 1475h230l-127 -902l499 471h299z" />
    <glyph glyph-name="l" unicode="l" horiz-adv-x="501" 
d="M61 0l207 1475h230l-207 -1475h-230z" />
    <glyph glyph-name="m" unicode="m" horiz-adv-x="1902" 
d="M1468 1069q178 0 269.5 -107t66.5 -284l-96 -678h-229l88 610q14 108 -41 173t-160 65q-108 0 -185 -65t-96 -171l-86 -612h-229l88 610q14 108 -41 173t-160 65q-110 0 -187.5 -66.5t-92.5 -175.5l-86 -606h-230l148 1044h229l-18 -122q141 147 346 147q115 0 194 -48
t115 -136q152 184 393 184z" />
    <glyph glyph-name="n" unicode="n" horiz-adv-x="1249" 
d="M795 1069q186 0 283 -113t71 -299l-92 -657h-230l82 582q17 120 -44 193t-179 73q-123 0 -208.5 -74t-104.5 -196l-82 -578h-230l148 1044h229l-18 -133q152 158 375 158z" />
    <glyph glyph-name="o" unicode="o" horiz-adv-x="1261" 
d="M553 -25q-157 0 -275 71.5t-172.5 197t-33.5 278.5t112 278.5t229.5 197t295.5 71.5q156 0 274 -71.5t173 -197t34 -278.5t-112 -278.5t-230 -197t-295 -71.5zM584 197q139 0 244 93.5t124 231.5q20 139 -58.5 232.5t-217.5 93.5q-138 0 -243.5 -94t-125.5 -232
q-19 -138 60 -231.5t217 -93.5z" />
    <glyph glyph-name="p" unicode="p" 
d="M811 1069q144 0 251.5 -71.5t156.5 -197t28 -278.5t-106 -278.5t-213.5 -197t-272.5 -71.5q-113 0 -201 46.5t-143 130.5l-75 -541h-230l203 1433h229l-20 -151q162 176 393 176zM1010 522q20 138 -59 232t-218 94q-137 0 -242.5 -93.5t-125.5 -232.5q-19 -139 60 -232
t218 -93q138 0 243 93.5t124 231.5z" />
    <glyph glyph-name="q" unicode="q" 
d="M1030 1044h230l-203 -1433h-230l76 539q-164 -175 -391 -175q-145 0 -252.5 71.5t-156 196.5t-27.5 279q21 153 105.5 278.5t213 197t273.5 71.5q227 0 342 -174zM588 197q135 0 239 89.5t127 223.5l2 20q15 136 -63 227t-213 91q-138 0 -244 -94t-125 -232t60 -231.5
t217 -93.5z" />
    <glyph glyph-name="r" unicode="r" horiz-adv-x="763" 
d="M766 1061h39l-33 -236h-39q-151 0 -250 -84.5t-121 -226.5l-71 -514h-230l148 1044h229l-22 -153q147 170 350 170z" />
    <glyph glyph-name="s" unicode="s" horiz-adv-x="985" 
d="M412 -25q-254 0 -410 160l141 162q110 -123 293 -123q91 0 153.5 30.5t69.5 84.5q3 24 -7 43t-25.5 32t-47 25t-57 19t-69.5 18q-80 19 -128 36t-108 52.5t-84 94t-12 139.5q21 154 151.5 237.5t309.5 83.5q226 0 376 -139l-141 -162q-110 102 -260 102q-81 0 -137.5 -27
t-63.5 -79q-3 -24 7 -43t25 -31.5t47 -24.5t57 -18.5t71 -17.5q62 -14 102 -25.5t93.5 -37t82.5 -56.5t46 -82.5t8 -116.5q-23 -158 -158 -247t-325 -89z" />
    <glyph glyph-name="t" unicode="t" horiz-adv-x="835" 
d="M514 836l-70 -494q-21 -145 131 -145q67 0 148 36l-31 -215q-90 -43 -196 -43q-165 0 -237 87t-50 243l76 531h-176l28 208h176l39 271h230l-39 -271h295l-31 -208h-293z" />
    <glyph glyph-name="u" unicode="u" horiz-adv-x="1202" 
d="M524 -25q-218 0 -333 120.5t-87 320.5l89 628h229l-84 -598q-15 -113 44 -181t173 -68q115 0 194.5 68.5t92.5 180.5l86 598h229l-90 -628q-28 -199 -177 -320t-366 -121z" />
    <glyph glyph-name="v" unicode="v" horiz-adv-x="1163" 
d="M963 1044h256l-592 -1044h-238l-297 1044h262l197 -763z" />
    <glyph glyph-name="w" unicode="w" horiz-adv-x="1771" 
d="M1573 1044h248l-523 -1044h-237l-141 770l-357 -770h-237l-228 1044h256l138 -759l354 759h233l142 -755z" />
    <glyph glyph-name="x" unicode="x" horiz-adv-x="1161" 
d="M1192 1044l-455 -520l314 -524h-281l-213 369l-315 -369h-279l461 524l-307 520h280l207 -364l309 364h279z" />
    <glyph glyph-name="y" unicode="y" horiz-adv-x="1163" 
d="M963 1044h256l-709 -1243q-57 -100 -145.5 -157.5t-184.5 -57.5q-66 0 -134.5 28.5t-111.5 74.5l117 178q21 -27 54 -43.5t69 -16.5q83 0 137 89l74 116l-293 1032h262l197 -761z" />
    <glyph glyph-name="z" unicode="z" horiz-adv-x="1019" 
d="M997 1044l-24 -165l-613 -658h535l-31 -221h-856l25 166l612 657h-512l31 221h833z" />
    <glyph glyph-name="braceleft" unicode="{" horiz-adv-x="843" 
d="M727 1536h207l-31 -217h-119q-53 0 -91.5 -34.5t-45.5 -88.5l-63 -457q-9 -55 -46.5 -98.5t-93.5 -65.5q50 -24 75 -67t18 -98l-66 -459q-8 -54 21 -88.5t81 -34.5h119l-30 -217h-207q-119 0 -183 75t-47 195l68 471q6 51 -19.5 83t-74.5 32h-80l28 217h80
q50 0 85.5 31.5t41.5 83.5l66 467q17 120 102.5 195t204.5 75z" />
    <glyph glyph-name="bar" unicode="|" horiz-adv-x="598" 
d="M66 -389l272 1925h209l-273 -1925h-208z" />
    <glyph glyph-name="braceright" unicode="}" horiz-adv-x="843" 
d="M662 684h79l-28 -217h-80q-50 0 -85.5 -32t-41.5 -83l-68 -471q-17 -120 -102.5 -195t-204.5 -75h-207l31 217h119q54 0 91.5 34.5t45.5 88.5l65 459q7 55 44 98t94 67q-50 22 -74.5 65.5t-15.5 98.5l63 457q8 54 -20 88.5t-82 34.5h-119l31 217h206q119 0 183 -75
t47 -195l-66 -467q-6 -53 20 -84t75 -31z" />
    <glyph glyph-name="asciitilde" unicode="~" horiz-adv-x="1165" 
d="M750 438q-53 0 -100 19t-75.5 41.5t-63 41.5t-65.5 19q-47 0 -81.5 -30.5t-40.5 -77.5h-211q21 151 104 243t223 92q53 0 100.5 -19t75.5 -41t62 -41t65 -19q47 0 82 31t43 77h209q-22 -152 -104 -244t-223 -92z" />
    <glyph glyph-name="uni00A0" unicode="&#xa0;" horiz-adv-x="483" 
 />
    <glyph glyph-name="exclamdown" unicode="&#xa1;" horiz-adv-x="542" 
d="M301 745q-67 0 -106 45t-31 113q11 68 63 113t119 45q69 0 107.5 -45t29.5 -113t-61 -113t-121 -45zM25 -369l49 349l104 636h213l-74 -636l-49 -349h-243z" />
    <glyph glyph-name="cent" unicode="&#xa2;" horiz-adv-x="1226" 
d="M719 387q132 27 219 141l188 -108q-79 -106 -193 -173.5t-247 -84.5l-22 -162h-152l23 162q-210 25 -325.5 176.5t-84.5 366.5q29 216 187 367.5t376 176.5l23 164h151l-22 -164q126 -17 221 -84.5t143 -171.5l-219 -110q-54 111 -178 141zM360 705q-17 -119 40.5 -207
t166.5 -111l88 637q-115 -23 -197.5 -111.5t-97.5 -207.5z" />
    <glyph glyph-name="sterling" unicode="&#xa3;" horiz-adv-x="1191" 
d="M471 569l-47 -340h657l-30 -229h-1026l32 229h123l47 340h-121l29 209h121l27 197q29 198 186.5 330.5t366.5 132.5q120 0 220.5 -47t166.5 -129l-152 -177q-50 55 -120 86t-146 31q-107 0 -185 -64.5t-92 -162.5l-28 -197h411l-30 -209h-410z" />
    <glyph glyph-name="currency" unicode="&#xa4;" horiz-adv-x="1112" 
d="M983 709q-15 -110 -86 -201l109 -125l-160 -141l-113 131q-95 -45 -203 -45q-109 0 -188 45l-152 -131l-124 141l147 127q-43 84 -27 199q15 109 82 198l-108 127l159 142l115 -134q94 48 203 48q104 0 188 -46l152 132l121 -142l-144 -127q44 -87 29 -198zM383 709
q-13 -87 36 -145t136 -58t153 58t78 145t-37.5 144.5t-136.5 57.5q-86 0 -152.5 -58t-76.5 -144z" />
    <glyph glyph-name="yen" unicode="&#xa5;" horiz-adv-x="1320" 
d="M1411 1413l-530 -764h186l-23 -170h-268l-14 -98h268l-24 -170h-267l-30 -211h-242l29 211h-265l25 170h264l12 98h-264l25 170h184l-317 764h274l262 -661l449 661h266z" />
    <glyph glyph-name="brokenbar" unicode="&#xa6;" horiz-adv-x="598" 
d="M219 696l119 840h209l-119 -840h-209zM66 -389l118 840h209l-119 -840h-208z" />
    <glyph glyph-name="section" unicode="&#xa7;" horiz-adv-x="1085" 
d="M668 961q75 -16 132.5 -39.5t103 -60t65.5 -91.5t10 -125q-13 -87 -65 -155.5t-132 -110.5q138 -86 115 -244q-21 -152 -153.5 -242t-313.5 -90q-117 0 -216.5 38.5t-158.5 103.5l113 141q37 -46 108 -76t156 -30q97 0 163 40t75 103q8 61 -52 101.5t-167 64.5
q-73 17 -128.5 40.5t-101.5 60t-66 92t-10 126.5q13 85 63 153.5t126 108.5q-130 88 -109 244q21 148 152 236t309 88q109 0 204 -34t152 -93l-108 -142q-39 42 -107.5 68.5t-144.5 26.5q-92 0 -156 -40t-73 -100q-7 -59 52 -99t163 -64zM545 473q79 3 137 45.5t66 102.5
q7 58 -37.5 96t-139.5 59q-77 -3 -132 -44t-62 -101q-9 -58 35 -97.5t133 -60.5z" />
    <glyph glyph-name="dieresis" unicode="&#xa8;" horiz-adv-x="702" 
d="M225 1171q-57 0 -89.5 38t-24.5 94q7 57 51.5 95t101.5 38t90 -38t25 -95q-7 -55 -52 -93.5t-102 -38.5zM659 1171q-57 0 -89.5 38t-24.5 94q7 57 51.5 95t101.5 38t90 -38t25 -95q-7 -55 -52 -93.5t-102 -38.5z" />
    <glyph glyph-name="copyright" unicode="&#xa9;" horiz-adv-x="1665" 
d="M754 -25q-154 0 -281.5 56.5t-210.5 153.5t-120 232.5t-15 289.5q28 205 147 372.5t300.5 263t386.5 95.5t359 -95.5t225.5 -263t43.5 -372.5q-22 -154 -97.5 -289.5t-186 -232.5t-254 -153.5t-297.5 -56.5zM778 131q159 0 299.5 75t233.5 207t116 294
q22 162 -33.5 293.5t-175.5 206.5t-280 75q-159 0 -299.5 -75t-233 -206.5t-114.5 -293.5q-23 -162 32.5 -294t175 -207t279.5 -75zM813 311q-168 0 -265.5 114t-72.5 282q23 168 152 281.5t297 113.5q114 0 197.5 -52.5t119.5 -142.5l-172 -82q-21 46 -65 72.5t-105 26.5
q-92 0 -162 -62.5t-82 -154.5q-14 -93 38.5 -155.5t144.5 -62.5q122 0 198 99l150 -82q-62 -91 -160.5 -143t-212.5 -52z" />
    <glyph glyph-name="ordfeminine" unicode="&#xaa;" horiz-adv-x="784" 
d="M649 1415h170l-78 -557h-170l11 72q-88 -88 -195 -88q-116 0 -182 84.5t-49 210.5q19 126 108.5 210.5t204.5 84.5q105 0 170 -89zM449 993q59 0 105.5 40t55.5 100v8q7 60 -27.5 99.5t-93.5 39.5q-60 0 -106 -41t-55 -102q-8 -62 26.5 -103t94.5 -41z" />
    <glyph glyph-name="guillemotleft" unicode="&#xab;" horiz-adv-x="1273" 
d="M729 958l-383 -417l266 -418h-270l-266 418l383 417h270zM1257 958l-383 -417l267 -418h-271l-266 418l383 417h270z" />
    <glyph glyph-name="logicalnot" unicode="&#xac;" horiz-adv-x="1093" 
d="M150 709h847l-75 -529h-211l47 322h-637z" />
    <glyph glyph-name="uni00AD" unicode="&#xad;" horiz-adv-x="835" 
d="M113 451l32 221h588l-31 -221h-589z" />
    <glyph glyph-name="registered" unicode="&#xae;" horiz-adv-x="888" 
d="M573 1438q161 0 253 -107.5t69 -267.5q-23 -161 -145 -268t-283 -107q-160 0 -252.5 107t-69.5 268q22 160 145 267.5t283 107.5zM805 1063q19 123 -51.5 206t-192.5 83t-215.5 -82.5t-112.5 -206.5q-17 -124 54 -207.5t194 -83.5q121 0 214 83t110 208zM582 1270
q55 0 86.5 -36.5t23.5 -90.5q-6 -41 -33.5 -73t-66.5 -44l76 -143h-95l-67 135h-35l-18 -135h-82l53 387h158zM610 1143q4 23 -9 38t-36 15h-67l-17 -106h70q24 0 41 15t18 38z" />
    <glyph glyph-name="macron" unicode="&#xaf;" horiz-adv-x="518" 
d="M94 1194l27 192h520l-29 -192h-518z" />
    <glyph glyph-name="degree" unicode="&#xb0;" horiz-adv-x="792" 
d="M436 813q-135 0 -213 89.5t-59 223.5q19 133 122 222.5t238 89.5q136 0 214 -89t61 -223q-20 -134 -124 -223.5t-239 -89.5zM463 993q56 0 99 38t50 95t-24.5 94t-87.5 37q-57 0 -100 -37t-50 -94q-8 -57 24 -95t89 -38z" />
    <glyph glyph-name="plusminus" unicode="&#xb1;" horiz-adv-x="1093" 
d="M698 858h320l-29 -207h-319l-35 -241h-209l33 241h-318l31 207h317l33 242h211zM61 84l29 207h848l-29 -207h-848z" />
    <glyph glyph-name="uni00B2" unicode="&#xb2;" horiz-adv-x="659" 
d="M713 1356q-14 -122 -140 -236l-231 -211h324l-23 -159h-561l20 137l334 311q99 94 105 148q6 43 -24 70.5t-79 27.5q-92 0 -178 -96l-102 110q57 71 140 112.5t173 41.5q124 0 191.5 -72.5t50.5 -183.5z" />
    <glyph glyph-name="uni00B3" unicode="&#xb3;" horiz-adv-x="690" 
d="M752 1380q-7 -59 -45.5 -107.5t-98.5 -78.5q60 -31 89 -86.5t20 -124.5q-15 -109 -115 -178.5t-240 -69.5q-89 0 -167 31.5t-127 87.5l114 125q32 -38 84.5 -60t108.5 -22q68 0 116 31.5t56 79.5q6 49 -32.5 80.5t-102.5 31.5h-123l22 144h123q56 0 96.5 26t44.5 66
q6 41 -31.5 67.5t-99.5 26.5q-47 0 -96 -17.5t-84 -46.5l-74 123q57 48 136.5 75.5t160.5 27.5q130 0 204.5 -65.5t60.5 -166.5z" />
    <glyph glyph-name="acute" unicode="&#xb4;" horiz-adv-x="499" 
d="M90 1167l250 283h291l-297 -283h-244z" />
    <glyph glyph-name="paragraph" unicode="&#xb6;" horiz-adv-x="1277" 
d="M1260 1413l-254 -1802h-199l227 1608h-153l-228 -1608h-198l135 954h-98q-181 0 -285.5 122t-79.5 302q25 181 163 302.5t320 121.5h650z" />
    <glyph glyph-name="periodcentered" unicode="&#xb7;" horiz-adv-x="573" 
d="M270 399q-71 0 -111 46.5t-30 115.5q9 69 63 115.5t123 46.5q70 0 110.5 -46.5t31.5 -115.5t-62.5 -115.5t-124.5 -46.5z" />
    <glyph glyph-name="cedilla" unicode="&#xb8;" horiz-adv-x="450" 
d="M172 -63q84 -1 132 -60.5t34 -144.5q-11 -92 -86 -154.5t-176 -62.5q-65 0 -117.5 28t-85.5 76l94 96q21 -33 54 -53t69 -20q41 0 73 26t36 64q6 36 -16.5 61t-59.5 25q-41 0 -70 -29l-121 59l142 152v4h162v-4z" />
    <glyph glyph-name="uni00B9" unicode="&#xb9;" horiz-adv-x="489" 
d="M424 1597h121l-119 -847h-170l92 647l-149 -78l-54 135z" />
    <glyph glyph-name="ordmasculine" unicode="&#xba;" horiz-adv-x="765" 
d="M428 842q-133 0 -211 84.5t-61 210.5q19 126 120 210.5t234 84.5q134 0 213.5 -84.5t60.5 -210.5q-17 -126 -119.5 -210.5t-236.5 -84.5zM449 993q60 0 107 41.5t56 102.5q7 61 -28 102t-95 41t-106 -41t-55 -102q-7 -61 27.5 -102.5t93.5 -41.5z" />
    <glyph glyph-name="guillemotright" unicode="&#xbb;" horiz-adv-x="1273" 
d="M416 958l266 -417l-383 -418h-270l385 418l-269 417h271zM944 958l266 -417l-383 -418h-270l385 418l-268 417h270z" />
    <glyph glyph-name="onequarter" unicode="&#xbc;" horiz-adv-x="1597" 
d="M1294 1413h213l-1177 -1413h-211zM324 1212l-150 -77l-53 135l278 143h121l-119 -848h-170zM1526 324l-23 -160h-90l-22 -164h-170l22 164h-360l-21 139l461 545h186l-73 -524h90zM1038 324h228l47 327z" />
    <glyph glyph-name="onehalf" unicode="&#xbd;" horiz-adv-x="1652" 
d="M1294 1413h213l-1177 -1413h-211zM324 1212l-150 -77l-53 135l278 143h121l-119 -848h-170zM1599 606q-14 -122 -139 -235l-231 -211h323l-22 -160h-561l20 137l334 312q98 93 104 147q6 43 -24 70.5t-78 27.5q-92 0 -178 -96l-103 111q56 70 139.5 111.5t174.5 41.5
q124 0 191 -72.5t50 -183.5z" />
    <glyph glyph-name="threequarters" unicode="&#xbe;" horiz-adv-x="1716" 
d="M692 799q-15 -109 -114.5 -178.5t-239.5 -69.5q-89 0 -167.5 31.5t-127.5 87.5l115 125q32 -38 84 -60t108 -22q68 0 116 31t56 79q6 49 -32.5 81t-102.5 32h-123l23 143h123q56 0 96.5 26t44.5 66q6 41 -31.5 68t-99.5 27q-47 0 -96 -17.5t-84 -46.5l-74 123
q57 47 136.5 74.5t160.5 27.5q130 0 204 -65t60 -166q-7 -59 -45 -107.5t-98 -78.5q60 -31 88.5 -86.5t19.5 -124.5zM1413 1413h213l-1177 -1413h-211zM1645 324l-23 -160h-90l-23 -164h-170l23 164h-361l-20 139l461 545h186l-74 -524h91zM1157 324h227l48 327z" />
    <glyph glyph-name="questiondown" unicode="&#xbf;" horiz-adv-x="962" 
d="M543 745q-67 0 -106 45t-31 113q11 68 63 113t119 45q69 0 107.5 -45t29.5 -113t-61 -113t-121 -45zM373 -393q-188 0 -298 111.5t-87 273.5q9 67 42 129t76 106.5t92 90t90.5 80.5t72 76.5t36.5 80.5l9 57h239l-6 -57q-9 -57 -41 -112t-73.5 -96.5t-89.5 -85.5
t-88.5 -80.5t-70.5 -81t-36 -87.5q-11 -74 38.5 -123t139.5 -49q89 0 178.5 46.5t161.5 129.5l137 -159q-105 -118 -241.5 -184t-280.5 -66z" />
    <glyph glyph-name="Agrave" unicode="&#xc0;" horiz-adv-x="1464" 
d="M1010 1536h-244l-217 283h291zM1092 0l-72 301h-643l-158 -301h-262l756 1413h288l359 -1413h-268zM494 526h473l-150 621z" />
    <glyph glyph-name="Aacute" unicode="&#xc1;" horiz-adv-x="1464" 
d="M1278 1819l-297 -283h-244l250 283h291zM1092 0l-72 301h-643l-158 -301h-262l756 1413h288l359 -1413h-268zM494 526h473l-150 621z" />
    <glyph glyph-name="Acircumflex" unicode="&#xc2;" horiz-adv-x="1464" 
d="M895 1696l-147 -160h-218l244 283h279l164 -283h-216zM1092 0l-72 301h-643l-158 -301h-262l756 1413h288l359 -1413h-268zM494 526h473l-150 621z" />
    <glyph glyph-name="Atilde" unicode="&#xc3;" horiz-adv-x="1464" 
d="M780 1645q-38 0 -66 -26t-34 -63h-162q16 118 85.5 194.5t174.5 76.5q40 0 75 -15t55.5 -33t48 -33t53.5 -15q37 0 65.5 26t32.5 64h164q-15 -120 -85 -195.5t-175 -75.5q-41 0 -76.5 15t-56 32.5t-47 32.5t-52.5 15zM1092 0l-72 301h-643l-158 -301h-262l756 1413h288
l359 -1413h-268zM494 526h473l-150 621z" />
    <glyph glyph-name="Adieresis" unicode="&#xc4;" horiz-adv-x="1464" 
d="M657 1540q-57 0 -89.5 37.5t-24.5 93.5q7 57 51.5 95t101.5 38t90 -38t25 -95q-7 -55 -52 -93t-102 -38zM1092 1540q-57 0 -90 37.5t-25 93.5q7 57 51.5 95t101.5 38t90 -38t25 -95q-7 -55 -51.5 -93t-101.5 -38zM1092 0l-72 301h-643l-158 -301h-262l756 1413h288
l359 -1413h-268zM494 526h473l-150 621z" />
    <glyph glyph-name="Aring" unicode="&#xc5;" horiz-adv-x="1464" 
d="M870 1511q-85 0 -133.5 55.5t-36.5 137.5q10 81 75 136.5t149 55.5q85 0 133.5 -55t36.5 -137q-10 -81 -75 -137t-149 -56zM823 1704q-4 -34 14 -55t50 -21q31 0 55.5 21.5t28.5 54.5q5 32 -13.5 54t-50.5 22q-31 0 -55.5 -22t-28.5 -54zM1092 0l-72 301h-643l-158 -301
h-262l756 1413h288l359 -1413h-268zM494 526h473l-150 621z" />
    <glyph glyph-name="AE" unicode="&#xc6;" horiz-adv-x="1859" 
d="M1851 1184h-614l-49 -359h547l-33 -229h-547l-51 -367h622l-30 -229h-869l41 297h-506l-217 -297h-278l1036 1413h981zM526 522h375l90 637z" />
    <glyph glyph-name="Ccedilla" unicode="&#xc7;" horiz-adv-x="1501" 
d="M778 211q129 0 244.5 56.5t196.5 154.5l190 -129q-106 -131 -259 -213.5t-325 -99.5l-45 -46q84 -1 132 -60t34 -144q-11 -92 -86 -154.5t-176 -62.5q-65 0 -117.5 28t-85.5 76l94 96q21 -33 54 -53t69 -20q41 0 73 26t36 64q6 36 -16.5 61t-59.5 25q-40 0 -69 -29
l-121 59l123 134q-139 14 -253 75t-188 156t-105.5 223.5t-11.5 272.5q28 205 148.5 372.5t304 263t391.5 95.5q195 0 346 -85t230 -233l-228 -129q-53 98 -152.5 154.5t-227.5 56.5q-138 0 -260 -64t-202.5 -178t-99.5 -253q-20 -139 28 -253t151.5 -178.5t242.5 -64.5z
" />
    <glyph glyph-name="Egrave" unicode="&#xc8;" horiz-adv-x="1193" 
d="M907 1536h-243l-218 283h291zM1186 1184h-697l-49 -359h629l-33 -229h-628l-52 -367h705l-31 -229h-950l199 1413h940z" />
    <glyph glyph-name="Eacute" unicode="&#xc9;" horiz-adv-x="1193" 
d="M1176 1819l-297 -283h-244l250 283h291zM1186 1184h-697l-49 -359h629l-33 -229h-628l-52 -367h705l-31 -229h-950l199 1413h940z" />
    <glyph glyph-name="Ecircumflex" unicode="&#xca;" horiz-adv-x="1193" 
d="M793 1696l-148 -160h-217l244 283h278l164 -283h-215zM1186 1184h-697l-49 -359h629l-33 -229h-628l-52 -367h705l-31 -229h-950l199 1413h940z" />
    <glyph glyph-name="Edieresis" unicode="&#xcb;" horiz-adv-x="1193" 
d="M555 1540q-57 0 -90 37.5t-25 93.5q7 57 52 95t102 38t90 -38t25 -95q-7 -55 -52 -93t-102 -38zM989 1540q-57 0 -90 37.5t-25 93.5q7 57 52 95t102 38t90 -38t25 -95q-7 -55 -52 -93t-102 -38zM1186 1184h-697l-49 -359h629l-33 -229h-628l-52 -367h705l-31 -229h-950
l199 1413h940z" />
    <glyph glyph-name="Igrave" unicode="&#xcc;" horiz-adv-x="548" 
d="M311 1536l-217 283h291l170 -283h-244zM80 0l199 1413h243l-198 -1413h-244z" />
    <glyph glyph-name="Iacute" unicode="&#xcd;" horiz-adv-x="548" 
d="M281 1536l249 283h291l-297 -283h-243zM80 0l199 1413h243l-198 -1413h-244z" />
    <glyph glyph-name="Icircumflex" unicode="&#xce;" horiz-adv-x="548" 
d="M596 1819l164 -283h-215l-107 160l-147 -160h-217l243 283h279zM80 0l199 1413h243l-198 -1413h-244z" />
    <glyph glyph-name="Idieresis" unicode="&#xcf;" horiz-adv-x="548" 
d="M201 1540q-57 0 -90 37.5t-25 93.5q7 57 52 95t102 38t89.5 -38t24.5 -95q-7 -55 -51.5 -93t-101.5 -38zM635 1540q-57 0 -90 37.5t-25 93.5q7 57 52 95t102 38t89.5 -38t24.5 -95q-7 -55 -51.5 -93t-101.5 -38zM80 0l199 1413h243l-198 -1413h-244z" />
    <glyph glyph-name="Eth" unicode="&#xd0;" horiz-adv-x="1499" 
d="M827 1413q203 0 355 -92t222.5 -253.5t43.5 -360.5q-21 -149 -94.5 -280t-181.5 -225t-249.5 -148t-293.5 -54h-549l88 623h-137l24 165h135l89 625h548zM1198 707q28 204 -88.5 340.5t-318.5 136.5h-302l-55 -396h234l-23 -165h-233l-56 -394h299q202 0 357 137t186 341
z" />
    <glyph glyph-name="Ntilde" unicode="&#xd1;" horiz-adv-x="1505" 
d="M807 1645q-38 0 -66 -26t-34 -63h-162q16 118 85.5 194.5t174.5 76.5q40 0 75 -15t55.5 -33t47.5 -33t53 -15q37 0 66 26t33 64h163q-15 -120 -85 -195.5t-175 -75.5q-41 0 -76 15t-55.5 32.5t-47 32.5t-52.5 15zM1233 1413h244l-199 -1413h-248l-567 999l-139 -999h-244
l199 1413h247l568 -1001z" />
    <glyph glyph-name="Ograve" unicode="&#xd2;" horiz-adv-x="1644" 
d="M856 1536l-217 283h291l170 -283h-244zM743 -25q-156 0 -285.5 56.5t-214 153.5t-122 232.5t-15.5 289.5q28 205 148.5 372.5t304 263t391.5 95.5q156 0 286.5 -56t215 -153t122.5 -232.5t17 -289.5q-29 -205 -150 -373t-305 -263.5t-393 -95.5zM778 211q211 0 371.5 142
t191.5 354q29 212 -91.5 353.5t-331.5 141.5q-138 0 -260 -64t-202.5 -178t-99.5 -253q-20 -139 28 -253t151.5 -178.5t242.5 -64.5z" />
    <glyph glyph-name="Oacute" unicode="&#xd3;" horiz-adv-x="1644" 
d="M827 1536l250 283h291l-297 -283h-244zM743 -25q-156 0 -285.5 56.5t-214 153.5t-122 232.5t-15.5 289.5q28 205 148.5 372.5t304 263t391.5 95.5q156 0 286.5 -56t215 -153t122.5 -232.5t17 -289.5q-29 -205 -150 -373t-305 -263.5t-393 -95.5zM778 211q211 0 371.5 142
t191.5 354q29 212 -91.5 353.5t-331.5 141.5q-138 0 -260 -64t-202.5 -178t-99.5 -253q-20 -139 28 -253t151.5 -178.5t242.5 -64.5z" />
    <glyph glyph-name="Ocircumflex" unicode="&#xd4;" horiz-adv-x="1644" 
d="M985 1696l-147 -160h-217l243 283h279l164 -283h-215zM950 1438q156 0 286.5 -56t215 -153t122.5 -232.5t17 -289.5q-29 -205 -150 -373t-305 -263.5t-393 -95.5q-156 0 -285.5 56.5t-214 153.5t-122 232.5t-15.5 289.5q28 205 148.5 372.5t304 263t391.5 95.5zM1341 707
q29 212 -91.5 353.5t-331.5 141.5q-138 0 -260 -64t-202.5 -178t-99.5 -253q-20 -139 28 -253t151.5 -178.5t242.5 -64.5q211 0 371.5 142t191.5 354z" />
    <glyph glyph-name="Otilde" unicode="&#xd5;" horiz-adv-x="1644" 
d="M1102 1550q-41 0 -76.5 15t-56 32.5t-47 32.5t-52.5 15q-38 0 -66 -26t-34 -63h-162q16 118 85.5 194.5t174.5 76.5q40 0 75 -15t55.5 -33t48 -33t53.5 -15q37 0 65.5 26t32.5 64h164q-15 -120 -85 -195.5t-175 -75.5zM743 -25q-156 0 -285.5 56.5t-214 153.5t-122 232.5
t-15.5 289.5q28 205 148.5 372.5t304 263t391.5 95.5q156 0 286.5 -56t215 -153t122.5 -232.5t17 -289.5q-29 -205 -150 -373t-305 -263.5t-393 -95.5zM778 211q211 0 371.5 142t191.5 354q29 212 -91.5 353.5t-331.5 141.5q-138 0 -260 -64t-202.5 -178t-99.5 -253
q-20 -139 28 -253t151.5 -178.5t242.5 -64.5z" />
    <glyph glyph-name="Odieresis" unicode="&#xd6;" horiz-adv-x="1644" 
d="M748 1540q-57 0 -90 37.5t-25 93.5q7 57 51.5 95t101.5 38t90 -38t25 -95q-7 -55 -51.5 -93t-101.5 -38zM1182 1540q-57 0 -90 37.5t-25 93.5q7 57 52 95t102 38t89.5 -38t24.5 -95q-7 -55 -51.5 -93t-101.5 -38zM743 -25q-156 0 -285.5 56.5t-214 153.5t-122 232.5
t-15.5 289.5q28 205 148.5 372.5t304 263t391.5 95.5q156 0 286.5 -56t215 -153t122.5 -232.5t17 -289.5q-29 -205 -150 -373t-305 -263.5t-393 -95.5zM778 211q211 0 371.5 142t191.5 354q29 212 -91.5 353.5t-331.5 141.5q-138 0 -260 -64t-202.5 -178t-99.5 -253
q-20 -139 28 -253t151.5 -178.5t242.5 -64.5z" />
    <glyph glyph-name="multiply" unicode="&#xd7;" horiz-adv-x="997" 
d="M918 827l-256 -223l192 -223l-172 -152l-193 224l-256 -224l-129 152l254 223l-192 223l172 152l192 -223l256 223z" />
    <glyph glyph-name="Oslash" unicode="&#xd8;" horiz-adv-x="1644" 
d="M1661 1413l-199 -196q81 -101 115.5 -231.5t13.5 -278.5q-29 -205 -150 -373t-305 -263.5t-393 -95.5q-239 0 -405 125l-100 -100h-205l200 199q-81 99 -114.5 229.5t-12.5 278.5q28 205 148.5 372.5t304 263t391.5 95.5q239 0 406 -123l100 98h205zM356 707
q-26 -183 66 -322l749 745q-112 72 -253 72q-138 0 -260 -64t-202.5 -178t-99.5 -253zM1341 707q24 191 -67 321l-750 -743q107 -74 254 -74q211 0 371.5 142t191.5 354z" />
    <glyph glyph-name="Ugrave" unicode="&#xd9;" horiz-adv-x="1411" 
d="M739 1536l-217 283h291l170 -283h-244zM627 -25q-122 0 -223.5 43.5t-167.5 119t-96 181.5t-13 226l123 868h242l-119 -864q-22 -145 60.5 -241.5t228.5 -96.5q144 0 253.5 96.5t131.5 241.5l120 864h244l-121 -868q-23 -161 -117.5 -291.5t-238 -204.5t-307.5 -74z" />
    <glyph glyph-name="Uacute" unicode="&#xda;" horiz-adv-x="1411" 
d="M711 1536l250 283h290l-297 -283h-243zM627 -25q-122 0 -223.5 43.5t-167.5 119t-96 181.5t-13 226l123 868h242l-119 -864q-22 -145 60.5 -241.5t228.5 -96.5q144 0 253.5 96.5t131.5 241.5l120 864h244l-121 -868q-23 -161 -117.5 -291.5t-238 -204.5t-307.5 -74z" />
    <glyph glyph-name="Ucircumflex" unicode="&#xdb;" horiz-adv-x="1411" 
d="M868 1696l-147 -160h-217l244 283h278l164 -283h-215zM1167 1413h244l-121 -868q-23 -161 -117.5 -291.5t-238 -204.5t-307.5 -74q-122 0 -223.5 43.5t-167.5 119t-96 181.5t-13 226l123 868h242l-119 -864q-22 -145 60.5 -241.5t228.5 -96.5q144 0 253.5 96.5
t131.5 241.5z" />
    <glyph glyph-name="Udieresis" unicode="&#xdc;" horiz-adv-x="1411" 
d="M631 1540q-57 0 -90 37.5t-25 93.5q7 57 52 95t102 38t89.5 -38t24.5 -95q-7 -55 -51.5 -93t-101.5 -38zM1065 1540q-57 0 -90 37.5t-25 93.5q7 57 52 95t102 38t90 -38t25 -95q-7 -55 -52 -93t-102 -38zM627 -25q-122 0 -223.5 43.5t-167.5 119t-96 181.5t-13 226
l123 868h242l-119 -864q-22 -145 60.5 -241.5t228.5 -96.5q144 0 253.5 96.5t131.5 241.5l120 864h244l-121 -868q-23 -161 -117.5 -291.5t-238 -204.5t-307.5 -74z" />
    <glyph glyph-name="Yacute" unicode="&#xdd;" horiz-adv-x="1380" 
d="M1237 1819l-297 -283h-244l250 283h291zM1227 1413h272l-690 -907l-70 -506h-243l71 506l-436 907h279l317 -663z" />
    <glyph glyph-name="Thorn" unicode="&#xde;" horiz-adv-x="1271" 
d="M846 1167q201 0 318 -131t89 -327q-19 -129 -95.5 -235t-192.5 -166t-248 -60h-359l-34 -248h-244l199 1413h243l-35 -246h359zM1004 709q13 98 -42.5 163.5t-152.5 65.5h-354l-64 -461h352q97 0 171.5 66t89.5 166z" />
    <glyph glyph-name="germandbls" unicode="&#xdf;" horiz-adv-x="1155" 
d="M1128 1100q-13 -103 -79.5 -192.5t-161.5 -135.5q105 -39 161.5 -140.5t38.5 -232.5q-26 -182 -169 -303t-336 -121q-95 0 -168 27l32 223q65 -28 140 -28q107 0 181.5 66t86.5 163q15 100 -43 168t-154 68h-100l31 221h84q79 0 143 56t76 140q11 86 -44.5 142.5
t-150.5 56.5q-99 0 -173.5 -65t-88.5 -162l-149 -1051h-230l152 1069q25 184 172.5 307t347.5 123q128 0 226 -53t144.5 -144.5t30.5 -201.5z" />
    <glyph glyph-name="agrave" unicode="&#xe0;" 
d="M895 1167h-244l-217 283h291zM1030 1044h230l-148 -1044h-229l20 150q-76 -83 -176.5 -129t-214.5 -46q-145 0 -252.5 71.5t-156 196.5t-27.5 279q21 153 105.5 278.5t213 197t273.5 71.5q227 0 342 -174zM588 197q136 0 241 91.5t127 227.5v6q19 139 -60 232.5
t-216 93.5q-138 0 -244 -94t-125 -232t60 -231.5t217 -93.5z" />
    <glyph glyph-name="aacute" unicode="&#xe1;" 
d="M1163 1450l-297 -283h-243l249 283h291zM1030 1044h230l-148 -1044h-229l20 150q-76 -83 -176.5 -129t-214.5 -46q-145 0 -252.5 71.5t-156 196.5t-27.5 279q21 153 105.5 278.5t213 197t273.5 71.5q227 0 342 -174zM588 197q136 0 241 91.5t127 227.5v6
q19 139 -60 232.5t-216 93.5q-138 0 -244 -94t-125 -232t60 -231.5t217 -93.5z" />
    <glyph glyph-name="acircumflex" unicode="&#xe2;" 
d="M780 1327l-147 -160h-217l243 283h279l164 -283h-215zM1030 1044h230l-148 -1044h-229l20 150q-76 -83 -176.5 -129t-214.5 -46q-145 0 -252.5 71.5t-156 196.5t-27.5 279q21 153 105.5 278.5t213 197t273.5 71.5q227 0 342 -174zM588 197q136 0 241 91.5t127 227.5v6
q19 139 -60 232.5t-216 93.5q-138 0 -244 -94t-125 -232t60 -231.5t217 -93.5z" />
    <glyph glyph-name="atilde" unicode="&#xe3;" 
d="M666 1276q-38 0 -66.5 -25.5t-34.5 -62.5h-162q16 118 85.5 194t175.5 76q40 0 75 -15t55.5 -33t47.5 -33t53 -15q37 0 65.5 26t32.5 64h164q-15 -120 -85 -195t-175 -75q-41 0 -76 14.5t-55.5 32.5t-47 32.5t-52.5 14.5zM1030 1044h230l-148 -1044h-229l20 150
q-76 -83 -176.5 -129t-214.5 -46q-145 0 -252.5 71.5t-156 196.5t-27.5 279q21 153 105.5 278.5t213 197t273.5 71.5q227 0 342 -174zM588 197q136 0 241 91.5t127 227.5v6q19 139 -60 232.5t-216 93.5q-138 0 -244 -94t-125 -232t60 -231.5t217 -93.5z" />
    <glyph glyph-name="adieresis" unicode="&#xe4;" 
d="M543 1171q-57 0 -90 38t-25 94q7 57 52 95t102 38t89.5 -38t24.5 -95q-8 -56 -52 -94t-101 -38zM977 1171q-57 0 -90 38t-25 94q7 57 52 95t102 38t89.5 -38t24.5 -95q-8 -56 -52 -94t-101 -38zM1030 1044h230l-148 -1044h-229l20 150q-76 -83 -176.5 -129t-214.5 -46
q-145 0 -252.5 71.5t-156 196.5t-27.5 279q21 153 105.5 278.5t213 197t273.5 71.5q227 0 342 -174zM588 197q136 0 241 91.5t127 227.5v6q19 139 -60 232.5t-216 93.5q-138 0 -244 -94t-125 -232t60 -231.5t217 -93.5z" />
    <glyph glyph-name="aring" unicode="&#xe5;" 
d="M756 1143q-85 0 -133.5 55t-36.5 137q10 82 75 137.5t148 55.5q85 0 133.5 -55.5t36.5 -137.5q-10 -81 -74.5 -136.5t-148.5 -55.5zM709 1335q-4 -34 13.5 -54.5t49.5 -20.5q31 0 55.5 21t28.5 54q5 32 -13 54t-50 22q-31 0 -55.5 -22t-28.5 -54zM1030 1044h230
l-148 -1044h-229l20 150q-76 -83 -176.5 -129t-214.5 -46q-145 0 -252.5 71.5t-156 196.5t-27.5 279q21 153 105.5 278.5t213 197t273.5 71.5q227 0 342 -174zM588 197q136 0 241 91.5t127 227.5v6q19 139 -60 232.5t-216 93.5q-138 0 -244 -94t-125 -232t60 -231.5
t217 -93.5z" />
    <glyph glyph-name="ae" unicode="&#xe6;" horiz-adv-x="1925" 
d="M1391 1069q154 0 269 -71t168.5 -197.5t31.5 -282.5q-8 -51 -19 -82h-846q11 -115 91 -184.5t206 -69.5q95 0 181.5 40t142.5 102l143 -131q-98 -102 -227.5 -160t-274.5 -58q-130 0 -233.5 50t-167.5 139q-82 -84 -206 -136.5t-261 -52.5q-183 0 -284 93.5t-80 232.5
q19 139 144.5 231.5t293.5 92.5h325l7 37q12 92 -52.5 148t-183.5 56q-163 0 -270 -110l-117 131q72 85 183.5 133.5t242.5 48.5q127 0 222 -45.5t147 -126.5q85 81 195 126.5t229 45.5zM1360 862q-112 0 -203 -65t-133 -172h602q-9 107 -83 172t-183 65zM444 174
q92 0 185 38t157 99q-14 47 -18 125h-307q-82 0 -137.5 -36t-61.5 -91q-9 -59 42 -97t140 -38z" />
    <glyph glyph-name="ccedilla" unicode="&#xe7;" horiz-adv-x="1159" 
d="M584 197q92 0 172.5 43t132.5 116l182 -120q-77 -103 -191 -170t-245 -84l-47 -48q84 -1 132 -60t34 -144q-11 -92 -86 -154.5t-176 -62.5q-65 0 -117.5 28t-85.5 76l94 96q21 -33 54 -53t69 -20q41 0 72.5 26t35.5 64q6 36 -16 61t-59 25q-41 0 -70 -29l-121 59l125 134
q-205 28 -317.5 178.5t-83.5 363.5q21 153 112 278.5t229.5 197t295.5 71.5q154 0 269.5 -69.5t172.5 -190.5l-217 -121q-31 73 -99 116.5t-159 43.5q-138 0 -243.5 -94t-125.5 -232q-19 -138 60 -231.5t217 -93.5z" />
    <glyph glyph-name="egrave" unicode="&#xe8;" horiz-adv-x="1236" 
d="M858 1167h-244l-217 283h291zM700 1069q154 0 270 -71t169.5 -197t31.5 -281q-7 -49 -18 -90h-848q14 -113 94.5 -180.5t206.5 -67.5q99 0 188.5 41t147.5 103l137 -133q-97 -102 -230 -160t-278 -58q-163 0 -285 72t-178.5 198t-35.5 281q34 232 213.5 387.5
t414.5 155.5zM670 862q-112 0 -204.5 -67t-135.5 -177h610q-11 110 -84.5 177t-185.5 67z" />
    <glyph glyph-name="eacute" unicode="&#xe9;" horiz-adv-x="1236" 
d="M1126 1450l-297 -283h-243l250 283h290zM700 1069q154 0 270 -71t169.5 -197t31.5 -281q-7 -49 -18 -90h-848q14 -113 94.5 -180.5t206.5 -67.5q99 0 188.5 41t147.5 103l137 -133q-97 -102 -230 -160t-278 -58q-163 0 -285 72t-178.5 198t-35.5 281q34 232 213.5 387.5
t414.5 155.5zM670 862q-112 0 -204.5 -67t-135.5 -177h610q-11 110 -84.5 177t-185.5 67z" />
    <glyph glyph-name="ecircumflex" unicode="&#xea;" horiz-adv-x="1236" 
d="M743 1327l-147 -160h-217l244 283h278l164 -283h-215zM700 1069q154 0 270 -71t169.5 -197t31.5 -281q-7 -49 -18 -90h-848q14 -113 94.5 -180.5t206.5 -67.5q99 0 188.5 41t147.5 103l137 -133q-97 -102 -230 -160t-278 -58q-163 0 -285 72t-178.5 198t-35.5 281
q34 232 213.5 387.5t414.5 155.5zM670 862q-112 0 -204.5 -67t-135.5 -177h610q-11 110 -84.5 177t-185.5 67z" />
    <glyph glyph-name="edieresis" unicode="&#xeb;" horiz-adv-x="1236" 
d="M506 1171q-57 0 -90 38t-25 94q7 57 52 95t102 38t89.5 -38t24.5 -95q-8 -56 -52 -94t-101 -38zM940 1171q-57 0 -90 38t-25 94q7 57 52 95t102 38t90 -38t25 -95q-7 -55 -52 -93.5t-102 -38.5zM700 1069q154 0 270 -71t169.5 -197t31.5 -281q-7 -49 -18 -90h-848
q14 -113 94.5 -180.5t206.5 -67.5q99 0 188.5 41t147.5 103l137 -133q-97 -102 -230 -160t-278 -58q-163 0 -285 72t-178.5 198t-35.5 281q34 232 213.5 387.5t414.5 155.5zM670 862q-112 0 -204.5 -67t-135.5 -177h610q-11 110 -84.5 177t-185.5 67z" />
    <glyph glyph-name="igrave" unicode="&#xec;" horiz-adv-x="501" 
d="M233 1167l-217 283h291l170 -283h-244zM61 0l148 1044h229l-147 -1044h-230z" />
    <glyph glyph-name="iacute" unicode="&#xed;" horiz-adv-x="501" 
d="M205 1167l250 283h290l-296 -283h-244zM61 0l148 1044h229l-147 -1044h-230z" />
    <glyph glyph-name="icircumflex" unicode="&#xee;" horiz-adv-x="501" 
d="M520 1450l164 -283h-215l-107 160l-147 -160h-217l244 283h278zM61 0l148 1044h229l-147 -1044h-230z" />
    <glyph glyph-name="idieresis" unicode="&#xef;" horiz-adv-x="501" 
d="M125 1171q-57 0 -90 38t-25 94q7 57 52 95t102 38t90 -38t25 -95q-7 -55 -52 -93.5t-102 -38.5zM559 1171q-57 0 -90 38t-25 94q7 57 52 95t102 38t90 -38t25 -95q-7 -55 -52 -93.5t-102 -38.5zM61 0l148 1044h229l-147 -1044h-230z" />
    <glyph glyph-name="eth" unicode="&#xf0;" horiz-adv-x="1212" 
d="M813 1341q188 -133 276 -349.5t54 -459.5q-24 -169 -113 -297t-218.5 -194t-279.5 -66q-232 0 -363.5 150t-100.5 375q21 146 105 265.5t208 187t262 67.5q141 0 242 -78q-82 151 -242 242l-92 -86h-172l147 137q-80 28 -164 37l31 217q172 -15 314 -84l90 84h174z
M901 498q19 129 -54.5 215t-201.5 86t-225.5 -86t-114.5 -215q-19 -129 54 -215t202 -86q127 0 224 86t116 215z" />
    <glyph glyph-name="ntilde" unicode="&#xf1;" horiz-adv-x="1249" 
d="M631 1276q-38 0 -66.5 -25.5t-34.5 -62.5h-161q16 118 85 194t175 76q40 0 75 -15t55.5 -33t47.5 -33t53 -15q37 0 65.5 26t32.5 64h164q-15 -120 -85 -195t-175 -75q-41 0 -76 14.5t-55.5 32.5t-47 32.5t-52.5 14.5zM795 1069q186 0 283 -113t71 -299l-92 -657h-230
l82 582q17 120 -44 193t-179 73q-123 0 -208.5 -74t-104.5 -196l-82 -578h-230l148 1044h229l-18 -133q152 158 375 158z" />
    <glyph glyph-name="ograve" unicode="&#xf2;" horiz-adv-x="1261" 
d="M614 1167l-217 283h291l170 -283h-244zM553 -25q-157 0 -275 71.5t-172.5 197t-33.5 278.5t112 278.5t229.5 197t295.5 71.5q156 0 274 -71.5t173 -197t34 -278.5t-112 -278.5t-230 -197t-295 -71.5zM584 197q139 0 244 93.5t124 231.5q20 139 -58.5 232.5t-217.5 93.5
q-138 0 -243.5 -94t-125.5 -232q-19 -138 60 -231.5t217 -93.5z" />
    <glyph glyph-name="oacute" unicode="&#xf3;" horiz-adv-x="1261" 
d="M586 1167l250 283h290l-297 -283h-243zM553 -25q-157 0 -275 71.5t-172.5 197t-33.5 278.5t112 278.5t229.5 197t295.5 71.5q156 0 274 -71.5t173 -197t34 -278.5t-112 -278.5t-230 -197t-295 -71.5zM584 197q139 0 244 93.5t124 231.5q20 139 -58.5 232.5t-217.5 93.5
q-138 0 -243.5 -94t-125.5 -232q-19 -138 60 -231.5t217 -93.5z" />
    <glyph glyph-name="ocircumflex" unicode="&#xf4;" horiz-adv-x="1261" 
d="M741 1327l-147 -160h-217l244 283h278l164 -283h-215zM709 1069q156 0 274 -71.5t173 -197t34 -278.5t-112 -278.5t-230 -197t-295 -71.5q-157 0 -275 71.5t-172.5 197t-33.5 278.5t112 278.5t229.5 197t295.5 71.5zM952 522q20 139 -58.5 232.5t-217.5 93.5
q-138 0 -243.5 -94t-125.5 -232q-19 -138 60 -231.5t217 -93.5q139 0 244 93.5t124 231.5z" />
    <glyph glyph-name="otilde" unicode="&#xf5;" horiz-adv-x="1261" 
d="M858 1182q-41 0 -76 14.5t-55.5 32.5t-47 32.5t-52.5 14.5q-38 0 -66.5 -25.5t-34.5 -62.5h-161q16 118 85 194t175 76q40 0 75 -15t55.5 -33t47.5 -33t53 -15q37 0 65.5 26t32.5 64h164q-15 -120 -85 -195t-175 -75zM553 -25q-157 0 -275 71.5t-172.5 197t-33.5 278.5
t112 278.5t229.5 197t295.5 71.5q156 0 274 -71.5t173 -197t34 -278.5t-112 -278.5t-230 -197t-295 -71.5zM584 197q139 0 244 93.5t124 231.5q20 139 -58.5 232.5t-217.5 93.5q-138 0 -243.5 -94t-125.5 -232q-19 -138 60 -231.5t217 -93.5z" />
    <glyph glyph-name="odieresis" unicode="&#xf6;" horiz-adv-x="1261" 
d="M504 1171q-57 0 -90 38t-25 94q7 57 52 95t102 38t89.5 -38t24.5 -95q-8 -56 -52 -94t-101 -38zM938 1171q-57 0 -90 38t-25 94q7 57 52 95t102 38t90 -38t25 -95q-7 -55 -52 -93.5t-102 -38.5zM553 -25q-157 0 -275 71.5t-172.5 197t-33.5 278.5t112 278.5t229.5 197
t295.5 71.5q156 0 274 -71.5t173 -197t34 -278.5t-112 -278.5t-230 -197t-295 -71.5zM584 197q139 0 244 93.5t124 231.5q20 139 -58.5 232.5t-217.5 93.5q-138 0 -243.5 -94t-125.5 -232q-19 -138 60 -231.5t217 -93.5z" />
    <glyph glyph-name="divide" unicode="&#xf7;" horiz-adv-x="1093" 
d="M590 827q-55 0 -87 35.5t-24 89.5t49.5 90.5t96.5 36.5t87.5 -36.5t24.5 -90.5q-7 -54 -50 -89.5t-97 -35.5zM121 510l29 190h845l-26 -190h-848zM492 131q-55 0 -87 36.5t-24 90.5q7 54 49 89.5t96 35.5q56 0 88 -35.5t25 -89.5q-8 -54 -50 -90.5t-97 -36.5z" />
    <glyph glyph-name="oslash" unicode="&#xf8;" horiz-adv-x="1261" 
d="M1251 1044l-153 -149q122 -150 92 -373q-21 -153 -112 -278.5t-230 -197t-295 -71.5q-178 0 -307 95l-72 -70h-168l156 150q-120 152 -90 372q21 153 112 278.5t229.5 197t295.5 71.5q177 0 305 -92l69 67h168zM307 522q-15 -111 35 -196l494 479q-68 43 -160 43
q-138 0 -243.5 -94t-125.5 -232zM952 522q15 117 -34 199l-496 -479q70 -45 162 -45q139 0 244 93.5t124 231.5z" />
    <glyph glyph-name="ugrave" unicode="&#xf9;" horiz-adv-x="1202" 
d="M586 1167l-217 283h290l170 -283h-243zM524 -25q-218 0 -333 120.5t-87 320.5l89 628h229l-84 -598q-15 -113 44 -181t173 -68q115 0 194.5 68.5t92.5 180.5l86 598h229l-90 -628q-28 -199 -177 -320t-366 -121z" />
    <glyph glyph-name="uacute" unicode="&#xfa;" horiz-adv-x="1202" 
d="M555 1167l250 283h291l-297 -283h-244zM524 -25q-218 0 -333 120.5t-87 320.5l89 628h229l-84 -598q-15 -113 44 -181t173 -68q115 0 194.5 68.5t92.5 180.5l86 598h229l-90 -628q-28 -199 -177 -320t-366 -121z" />
    <glyph glyph-name="ucircumflex" unicode="&#xfb;" horiz-adv-x="1202" 
d="M713 1327l-148 -160h-217l244 283h278l164 -283h-215zM928 1044h229l-90 -628q-28 -199 -177 -320t-366 -121q-218 0 -333 120.5t-87 320.5l89 628h229l-84 -598q-15 -113 44 -181t173 -68q115 0 194.5 68.5t92.5 180.5z" />
    <glyph glyph-name="udieresis" unicode="&#xfc;" horiz-adv-x="1202" 
d="M475 1171q-57 0 -90 38t-25 94q7 57 52 95t102 38t90 -38t25 -95q-7 -55 -52 -93.5t-102 -38.5zM909 1171q-57 0 -89.5 38t-24.5 94q7 57 51.5 95t101.5 38t90 -38t25 -95q-7 -55 -52 -93.5t-102 -38.5zM524 -25q-218 0 -333 120.5t-87 320.5l89 628h229l-84 -598
q-15 -113 44 -181t173 -68q115 0 194.5 68.5t92.5 180.5l86 598h229l-90 -628q-28 -199 -177 -320t-366 -121z" />
    <glyph glyph-name="yacute" unicode="&#xfd;" horiz-adv-x="1163" 
d="M1077 1450l-297 -283h-243l249 283h291zM963 1044h256l-709 -1243q-57 -100 -145.5 -157.5t-184.5 -57.5q-66 0 -134.5 28.5t-111.5 74.5l117 178q21 -27 54 -43.5t69 -16.5q83 0 137 89l74 116l-293 1032h262l197 -761z" />
    <glyph glyph-name="thorn" unicode="&#xfe;" 
d="M811 1069q144 0 251.5 -71.5t156.5 -197t28 -278.5t-106 -278.5t-213.5 -197t-272.5 -71.5q-113 0 -201 46.5t-143 130.5l-75 -541h-230l262 1864h230l-82 -582q78 83 180 129.5t215 46.5zM1010 522q20 138 -59 232t-218 94q-137 0 -242.5 -93.5t-125.5 -232.5
q-19 -139 60 -232t218 -93q138 0 243 93.5t124 231.5z" />
    <glyph glyph-name="ydieresis" unicode="&#xff;" horiz-adv-x="1163" 
d="M457 1171q-57 0 -90 38t-25 94q7 57 52 95t102 38t89.5 -38t24.5 -95q-8 -56 -52 -94t-101 -38zM891 1171q-57 0 -90 38t-25 94q7 57 52 95t102 38t89.5 -38t24.5 -95q-8 -56 -52 -94t-101 -38zM963 1044h256l-709 -1243q-57 -100 -145.5 -157.5t-184.5 -57.5
q-66 0 -134.5 28.5t-111.5 74.5l117 178q21 -27 54 -43.5t69 -16.5q83 0 137 89l74 116l-293 1032h262l197 -761z" />
    <glyph glyph-name="Amacron" unicode="&#x100;" horiz-adv-x="1464" 
d="M1165 1755l-28 -192h-519l27 192h520zM1092 0l-72 301h-643l-158 -301h-262l756 1413h288l359 -1413h-268zM494 526h473l-150 621z" />
    <glyph glyph-name="amacron" unicode="&#x101;" 
d="M1049 1386l-29 -192h-518l26 192h521zM1030 1044h230l-148 -1044h-229l20 150q-76 -83 -176.5 -129t-214.5 -46q-145 0 -252.5 71.5t-156 196.5t-27.5 279q21 153 105.5 278.5t213 197t273.5 71.5q227 0 342 -174zM588 197q136 0 241 91.5t127 227.5v6q19 139 -60 232.5
t-216 93.5q-138 0 -244 -94t-125 -232t60 -231.5t217 -93.5z" />
    <glyph glyph-name="Abreve" unicode="&#x102;" horiz-adv-x="1464" 
d="M870 1516q-132 0 -207.5 84t-58.5 210h180q-9 -55 22 -92t87 -37q54 0 96 37t51 92h179q-19 -126 -118.5 -210t-230.5 -84zM1092 0l-72 301h-643l-158 -301h-262l756 1413h288l359 -1413h-268zM494 526h473l-150 621z" />
    <glyph glyph-name="abreve" unicode="&#x103;" 
d="M756 1147q-132 0 -208 84.5t-59 210.5h181q-9 -56 22 -92.5t86 -36.5q54 0 96.5 37t51.5 92h178q-19 -126 -118.5 -210.5t-229.5 -84.5zM1030 1044h230l-148 -1044h-229l20 150q-76 -83 -176.5 -129t-214.5 -46q-145 0 -252.5 71.5t-156 196.5t-27.5 279
q21 153 105.5 278.5t213 197t273.5 71.5q227 0 342 -174zM588 197q136 0 241 91.5t127 227.5v6q19 139 -60 232.5t-216 93.5q-138 0 -244 -94t-125 -232t60 -231.5t217 -93.5z" />
    <glyph glyph-name="Aogonek" unicode="&#x104;" horiz-adv-x="1464" 
d="M1356 0q-226 -93 -246 -213q-6 -44 21 -71t69 -27q54 0 107 32l32 -143q-86 -53 -198 -53q-109 0 -171 61t-48 152q12 83 78.5 153t164.5 109h-73l-72 301h-643l-158 -301h-262l756 1413h288l359 -1413h-4zM494 526h473l-150 621z" />
    <glyph glyph-name="aogonek" unicode="&#x105;" 
d="M1030 1044h230l-148 -1044h-2q-226 -93 -246 -213q-6 -44 21 -71t69 -27q54 0 107 32l33 -143q-86 -53 -199 -53q-109 0 -171 61t-48 152q12 83 79 153t165 109h-37l20 150q-76 -83 -176.5 -129t-214.5 -46q-145 0 -252.5 71.5t-156 196.5t-27.5 279q21 153 105.5 278.5
t213 197t273.5 71.5q227 0 342 -174zM588 197q136 0 241 91.5t127 227.5v6q19 139 -60 232.5t-216 93.5q-138 0 -244 -94t-125 -232t60 -231.5t217 -93.5z" />
    <glyph glyph-name="Cacute" unicode="&#x106;" horiz-adv-x="1501" 
d="M827 1536l250 283h291l-297 -283h-244zM743 -25q-156 0 -285.5 56.5t-214 153.5t-122 232.5t-15.5 289.5q28 205 148.5 372.5t304 263t391.5 95.5q195 0 346 -85t230 -233l-228 -129q-53 98 -152.5 154.5t-227.5 56.5q-138 0 -260 -64t-202.5 -178t-99.5 -253
q-20 -139 28 -253t151.5 -178.5t242.5 -64.5q129 0 244.5 56.5t196.5 154.5l190 -129q-120 -148 -295 -233t-371 -85z" />
    <glyph glyph-name="cacute" unicode="&#x107;" horiz-adv-x="1159" 
d="M586 1167l250 283h290l-297 -283h-243zM553 -25q-157 0 -275 71.5t-172.5 197t-33.5 278.5t112 278.5t229.5 197t295.5 71.5q154 0 269.5 -69.5t172.5 -190.5l-217 -121q-31 73 -99 116.5t-159 43.5q-138 0 -243.5 -94t-125.5 -232q-19 -138 60 -231.5t217 -93.5
q92 0 172.5 43t132.5 116l182 -120q-91 -121 -227.5 -191t-290.5 -70z" />
    <glyph glyph-name="Ccircumflex" unicode="&#x108;" horiz-adv-x="1501" 
d="M985 1696l-147 -160h-217l243 283h279l164 -283h-215zM778 211q129 0 244.5 56.5t196.5 154.5l190 -129q-120 -148 -295 -233t-371 -85q-156 0 -285.5 56.5t-214 153.5t-122 232.5t-15.5 289.5q28 205 148.5 372.5t304 263t391.5 95.5q195 0 346 -85t230 -233l-228 -129
q-53 98 -152.5 154.5t-227.5 56.5q-138 0 -260 -64t-202.5 -178t-99.5 -253q-20 -139 28 -253t151.5 -178.5t242.5 -64.5z" />
    <glyph glyph-name="ccircumflex" unicode="&#x109;" horiz-adv-x="1159" 
d="M741 1327l-147 -160h-217l244 283h278l164 -283h-215zM584 197q92 0 172.5 43t132.5 116l182 -120q-91 -121 -227.5 -191t-290.5 -70q-157 0 -275 71.5t-172.5 197t-33.5 278.5t112 278.5t229.5 197t295.5 71.5q154 0 269.5 -69.5t172.5 -190.5l-217 -121
q-31 73 -99 116.5t-159 43.5q-138 0 -243.5 -94t-125.5 -232q-19 -138 60 -231.5t217 -93.5z" />
    <glyph glyph-name="Cdotaccent" unicode="&#x10a;" horiz-adv-x="1501" 
d="M965 1540q-60 0 -94.5 39t-26.5 98q7 60 53.5 100t106.5 40t94 -40t26 -100q-9 -59 -54 -98t-105 -39zM743 -25q-156 0 -285.5 56.5t-214 153.5t-122 232.5t-15.5 289.5q28 205 148.5 372.5t304 263t391.5 95.5q195 0 346 -85t230 -233l-228 -129q-53 98 -152.5 154.5
t-227.5 56.5q-138 0 -260 -64t-202.5 -178t-99.5 -253q-20 -139 28 -253t151.5 -178.5t242.5 -64.5q129 0 244.5 56.5t196.5 154.5l190 -129q-120 -148 -295 -233t-371 -85z" />
    <glyph glyph-name="cdotaccent" unicode="&#x10b;" horiz-adv-x="1159" 
d="M721 1171q-60 0 -94.5 39.5t-26.5 98.5q7 60 53.5 99.5t106.5 39.5t94.5 -39.5t26.5 -99.5q-9 -59 -54.5 -98.5t-105.5 -39.5zM553 -25q-157 0 -275 71.5t-172.5 197t-33.5 278.5t112 278.5t229.5 197t295.5 71.5q154 0 269.5 -69.5t172.5 -190.5l-217 -121
q-31 73 -99 116.5t-159 43.5q-138 0 -243.5 -94t-125.5 -232q-19 -138 60 -231.5t217 -93.5q92 0 172.5 43t132.5 116l182 -120q-91 -121 -227.5 -191t-290.5 -70z" />
    <glyph glyph-name="Ccaron" unicode="&#x10c;" horiz-adv-x="1501" 
d="M1104 1536h-279l-163 283h215l104 -158l149 158h218zM778 211q129 0 244.5 56.5t196.5 154.5l190 -129q-120 -148 -295 -233t-371 -85q-156 0 -285.5 56.5t-214 153.5t-122 232.5t-15.5 289.5q28 205 148.5 372.5t304 263t391.5 95.5q195 0 346 -85t230 -233l-228 -129
q-53 98 -152.5 154.5t-227.5 56.5q-138 0 -260 -64t-202.5 -178t-99.5 -253q-20 -139 28 -253t151.5 -178.5t242.5 -64.5z" />
    <glyph glyph-name="ccaron" unicode="&#x10d;" horiz-adv-x="1159" 
d="M860 1167h-278l-164 283h215l104 -158l150 158h217zM584 197q92 0 172.5 43t132.5 116l182 -120q-91 -121 -227.5 -191t-290.5 -70q-157 0 -275 71.5t-172.5 197t-33.5 278.5t112 278.5t229.5 197t295.5 71.5q154 0 269.5 -69.5t172.5 -190.5l-217 -121q-31 73 -99 116.5
t-159 43.5q-138 0 -243.5 -94t-125.5 -232q-19 -138 60 -231.5t217 -93.5z" />
    <glyph glyph-name="Dcaron" unicode="&#x10e;" horiz-adv-x="1499" 
d="M1016 1536h-279l-164 283h215l105 -158l149 158h218zM827 1413q203 0 355 -92t222.5 -253.5t43.5 -360.5q-21 -149 -94.5 -280t-181.5 -225t-249.5 -148t-293.5 -54h-549l199 1413h548zM1198 707q28 204 -88.5 340.5t-318.5 136.5h-302l-133 -955h299q202 0 357 137
t186 341z" />
    <glyph glyph-name="dcaron" unicode="&#x10f;" horiz-adv-x="1497" 
d="M1004 885l81 590h230l-207 -1475h-229l22 160q-76 -88 -177.5 -136.5t-215.5 -48.5q-145 0 -252.5 71.5t-156 196.5t-27.5 279q21 153 105.5 278.5t213 197t273.5 71.5q113 0 199.5 -48t140.5 -136zM1477 1475h211l-142 -437h-172zM584 197q133 0 236 87t128 218l6 41
q12 131 -66 218t-212 87q-138 0 -243.5 -94t-125.5 -232q-19 -138 60 -231.5t217 -93.5z" />
    <glyph glyph-name="Dcroat" unicode="&#x110;" horiz-adv-x="1499" 
d="M827 1413q203 0 355 -92t222.5 -253.5t43.5 -360.5q-21 -149 -94.5 -280t-181.5 -225t-249.5 -148t-293.5 -54h-549l88 623h-137l24 165h135l89 625h548zM1198 707q28 204 -88.5 340.5t-318.5 136.5h-302l-55 -396h234l-23 -165h-233l-56 -394h299q202 0 357 137t186 341
z" />
    <glyph glyph-name="dcroat" unicode="&#x111;" 
d="M1436 1327l-23 -166h-137l-164 -1161h-229l20 150q-76 -83 -176.5 -129t-214.5 -46q-145 0 -252.5 71.5t-156 196.5t-27.5 279q21 153 105.5 278.5t213 197t273.5 71.5q112 0 199.5 -45.5t140.5 -128.5l39 266h-248l24 166h246l21 148h229l-21 -148h138zM588 197
q133 0 236 87t128 218l6 37q12 133 -66.5 221t-211.5 88q-138 0 -244 -94t-125 -232t60 -231.5t217 -93.5z" />
    <glyph glyph-name="Emacron" unicode="&#x112;" horiz-adv-x="1193" 
d="M1063 1755l-29 -192h-518l27 192h520zM1186 1184h-697l-49 -359h629l-33 -229h-628l-52 -367h705l-31 -229h-950l199 1413h940z" />
    <glyph glyph-name="emacron" unicode="&#x113;" horiz-adv-x="1236" 
d="M1014 1386l-29 -192h-518l27 192h520zM700 1069q154 0 270 -71t169.5 -197t31.5 -281q-7 -49 -18 -90h-848q14 -113 94.5 -180.5t206.5 -67.5q99 0 188.5 41t147.5 103l137 -133q-97 -102 -230 -160t-278 -58q-163 0 -285 72t-178.5 198t-35.5 281q34 232 213.5 387.5
t414.5 155.5zM670 862q-112 0 -204.5 -67t-135.5 -177h610q-11 110 -84.5 177t-185.5 67z" />
    <glyph glyph-name="Ebreve" unicode="&#x114;" horiz-adv-x="1193" 
d="M770 1516q-132 0 -207.5 84t-58.5 210h180q-9 -55 22 -92t87 -37q54 0 96 37t51 92h178q-19 -126 -118.5 -210t-229.5 -84zM1186 1184h-697l-49 -359h629l-33 -229h-628l-52 -367h705l-31 -229h-950l199 1413h940z" />
    <glyph glyph-name="ebreve" unicode="&#x115;" horiz-adv-x="1236" 
d="M721 1147q-132 0 -207.5 84.5t-58.5 210.5h180q-9 -56 22 -92.5t86 -36.5q54 0 96.5 37t51.5 92h178q-19 -126 -118.5 -210.5t-229.5 -84.5zM700 1069q154 0 270 -71t169.5 -197t31.5 -281q-7 -49 -18 -90h-848q14 -113 94.5 -180.5t206.5 -67.5q99 0 188.5 41t147.5 103
l137 -133q-97 -102 -230 -160t-278 -58q-163 0 -285 72t-178.5 198t-35.5 281q34 232 213.5 387.5t414.5 155.5zM670 862q-112 0 -204.5 -67t-135.5 -177h610q-11 110 -84.5 177t-185.5 67z" />
    <glyph glyph-name="Edotaccent" unicode="&#x116;" horiz-adv-x="1193" 
d="M772 1540q-60 0 -94.5 39t-26.5 98q7 60 53.5 100t106.5 40t94.5 -40t26.5 -100q-9 -59 -54.5 -98t-105.5 -39zM1186 1184h-697l-49 -359h629l-33 -229h-628l-52 -367h705l-31 -229h-950l199 1413h940z" />
    <glyph glyph-name="edotaccent" unicode="&#x117;" horiz-adv-x="1236" 
d="M723 1171q-60 0 -94.5 39.5t-26.5 98.5q7 60 53.5 99.5t106.5 39.5t94.5 -39.5t26.5 -99.5q-9 -59 -54.5 -98.5t-105.5 -39.5zM700 1069q154 0 270 -71t169.5 -197t31.5 -281q-7 -49 -18 -90h-848q14 -113 94.5 -180.5t206.5 -67.5q99 0 188.5 41t147.5 103l137 -133
q-97 -102 -230 -160t-278 -58q-163 0 -285 72t-178.5 198t-35.5 281q34 232 213.5 387.5t414.5 155.5zM670 862q-112 0 -204.5 -67t-135.5 -177h610q-11 110 -84.5 177t-185.5 67z" />
    <glyph glyph-name="Eogonek" unicode="&#x118;" horiz-adv-x="1193" 
d="M1186 1184h-697l-49 -359h629l-33 -229h-628l-52 -367h705l-31 -229h-10q-226 -93 -246 -213q-6 -44 21 -71t69 -27q54 0 107 32l33 -143q-86 -53 -199 -53q-109 0 -171 61t-48 152q12 83 78.5 153t164.5 109h-749l199 1413h940z" />
    <glyph glyph-name="eogonek" unicode="&#x119;" horiz-adv-x="1236" 
d="M700 1069q154 0 270 -71t169.5 -197t31.5 -281q-7 -49 -18 -90h-848q14 -113 94.5 -180.5t206.5 -67.5q99 0 188.5 41t147.5 103l137 -133q-120 -126 -282 -181q-153 -105 -168 -213q-7 -48 19 -78t71 -30q54 0 104 37l37 -142q-95 -63 -213 -63q-105 0 -166.5 64.5
t-46.5 164.5q18 124 131 223q-161 1 -282 73.5t-176.5 198t-34.5 279.5q34 232 213.5 387.5t414.5 155.5zM670 862q-112 0 -204.5 -67t-135.5 -177h610q-11 110 -84.5 177t-185.5 67z" />
    <glyph glyph-name="Ecaron" unicode="&#x11a;" horiz-adv-x="1193" 
d="M911 1536h-278l-164 283h215l104 -158l150 158h217zM1186 1184h-697l-49 -359h629l-33 -229h-628l-52 -367h705l-31 -229h-950l199 1413h940z" />
    <glyph glyph-name="ecaron" unicode="&#x11b;" horiz-adv-x="1236" 
d="M862 1167h-278l-164 283h215l104 -158l150 158h217zM700 1069q154 0 270 -71t169.5 -197t31.5 -281q-7 -49 -18 -90h-848q14 -113 94.5 -180.5t206.5 -67.5q99 0 188.5 41t147.5 103l137 -133q-97 -102 -230 -160t-278 -58q-163 0 -285 72t-178.5 198t-35.5 281
q34 232 213.5 387.5t414.5 155.5zM670 862q-112 0 -204.5 -67t-135.5 -177h610q-11 110 -84.5 177t-185.5 67z" />
    <glyph glyph-name="Gcircumflex" unicode="&#x11c;" horiz-adv-x="1601" 
d="M985 1696l-147 -160h-217l243 283h279l164 -283h-215zM897 776h672l-10 -82q-29 -204 -145 -368.5t-293.5 -257.5t-381.5 -93q-155 0 -284 56.5t-212.5 153.5t-121 232.5t-15.5 289.5q28 205 148.5 372.5t304 263t391.5 95.5q186 0 332 -75.5t223 -207.5l-205 -145
q-55 91 -153.5 142.5t-222.5 51.5q-213 0 -376 -142t-192 -355q-20 -140 28.5 -254.5t153 -179t244.5 -64.5q173 0 311 97t191 253h-418z" />
    <glyph glyph-name="gcircumflex" unicode="&#x11d;" horiz-adv-x="1153" 
d="M686 1327l-147 -160h-217l243 283h279l164 -283h-215zM1153 1194h84l-29 -213h-73q-46 0 -82.5 -24.5t-46.5 -65.5q78 -117 57 -279q-28 -195 -185.5 -325.5t-363.5 -130.5q-106 0 -190 34q-64 -38 -70 -100q-6 -45 23.5 -72.5t84.5 -27.5h359q152 0 242.5 -79.5
t93.5 -217.5l-246 -64q4 63 -40.5 100.5t-121.5 37.5h-360q-139 0 -214.5 73.5t-58.5 192.5q10 78 56 146t114 106q-121 131 -94 327q28 195 186 326t365 131q130 0 229 -55q32 84 107 132t174 48zM827 612q12 103 -49 171.5t-166 68.5q-107 0 -187.5 -68.5t-94.5 -171.5
q-15 -102 46.5 -170.5t168.5 -68.5q105 0 186 68.5t96 170.5z" />
    <glyph glyph-name="Gbreve" unicode="&#x11e;" horiz-adv-x="1601" 
d="M963 1516q-132 0 -208 84t-59 210h181q-9 -56 22 -92.5t86 -36.5q54 0 96.5 37t51.5 92h178q-19 -126 -118.5 -210t-229.5 -84zM897 776h672l-10 -82q-29 -204 -145 -368.5t-293.5 -257.5t-381.5 -93q-155 0 -284 56.5t-212.5 153.5t-121 232.5t-15.5 289.5
q28 205 148.5 372.5t304 263t391.5 95.5q186 0 332 -75.5t223 -207.5l-205 -145q-55 91 -153.5 142.5t-222.5 51.5q-213 0 -376 -142t-192 -355q-20 -140 28.5 -254.5t153 -179t244.5 -64.5q173 0 311 97t191 253h-418z" />
    <glyph glyph-name="gbreve" unicode="&#x11f;" horiz-adv-x="1153" 
d="M664 1147q-132 0 -208 84.5t-59 210.5h181q-9 -56 22 -92.5t86 -36.5q54 0 96.5 37t51.5 92h178q-19 -126 -118.5 -210.5t-229.5 -84.5zM1153 1194h84l-29 -213h-73q-46 0 -82.5 -24.5t-46.5 -65.5q78 -117 57 -279q-28 -195 -185.5 -325.5t-363.5 -130.5q-106 0 -190 34
q-64 -38 -70 -100q-6 -45 23.5 -72.5t84.5 -27.5h359q152 0 242.5 -79.5t93.5 -217.5l-246 -64q4 63 -40.5 100.5t-121.5 37.5h-360q-139 0 -214.5 73.5t-58.5 192.5q10 78 56 146t114 106q-121 131 -94 327q28 195 186 326t365 131q130 0 229 -55q32 84 107 132t174 48z
M827 612q12 103 -49 171.5t-166 68.5q-107 0 -187.5 -68.5t-94.5 -171.5q-15 -102 46.5 -170.5t168.5 -68.5q105 0 186 68.5t96 170.5z" />
    <glyph glyph-name="Gdotaccent" unicode="&#x120;" horiz-adv-x="1601" 
d="M965 1540q-60 0 -94.5 39t-26.5 98q7 60 53.5 100t106.5 40t94 -40t26 -100q-9 -59 -54 -98t-105 -39zM897 776h672l-10 -82q-29 -204 -145 -368.5t-293.5 -257.5t-381.5 -93q-155 0 -284 56.5t-212.5 153.5t-121 232.5t-15.5 289.5q28 205 148.5 372.5t304 263
t391.5 95.5q186 0 332 -75.5t223 -207.5l-205 -145q-55 91 -153.5 142.5t-222.5 51.5q-213 0 -376 -142t-192 -355q-20 -140 28.5 -254.5t153 -179t244.5 -64.5q173 0 311 97t191 253h-418z" />
    <glyph glyph-name="gdotaccent" unicode="&#x121;" horiz-adv-x="1153" 
d="M666 1171q-60 0 -94.5 39.5t-26.5 98.5q7 60 53.5 99.5t106.5 39.5t94 -39.5t26 -99.5q-9 -59 -54 -98.5t-105 -39.5zM1153 1194h84l-29 -213h-73q-46 0 -82.5 -24.5t-46.5 -65.5q78 -117 57 -279q-28 -195 -185.5 -325.5t-363.5 -130.5q-106 0 -190 34q-64 -38 -70 -100
q-6 -45 23.5 -72.5t84.5 -27.5h359q152 0 242.5 -79.5t93.5 -217.5l-246 -64q4 63 -40.5 100.5t-121.5 37.5h-360q-139 0 -214.5 73.5t-58.5 192.5q10 78 56 146t114 106q-121 131 -94 327q28 195 186 326t365 131q130 0 229 -55q32 84 107 132t174 48zM827 612
q12 103 -49 171.5t-166 68.5q-107 0 -187.5 -68.5t-94.5 -171.5q-15 -102 46.5 -170.5t168.5 -68.5q105 0 186 68.5t96 170.5z" />
    <glyph glyph-name="uni0122" unicode="&#x122;" horiz-adv-x="1601" 
d="M897 776h672l-10 -82q-29 -204 -145 -368.5t-293.5 -257.5t-381.5 -93q-155 0 -284 56.5t-212.5 153.5t-121 232.5t-15.5 289.5q28 205 148.5 372.5t304 263t391.5 95.5q186 0 332 -75.5t223 -207.5l-205 -145q-55 91 -153.5 142.5t-222.5 51.5q-213 0 -376 -142
t-192 -355q-20 -140 28.5 -254.5t153 -179t244.5 -64.5q173 0 311 97t191 253h-418zM514 -457l127 334h238l-174 -334h-191z" />
    <glyph glyph-name="uni0123" unicode="&#x123;" horiz-adv-x="1153" 
d="M868 1495l-125 -336h-237l174 336h188zM1153 1194h84l-29 -213h-73q-46 0 -82.5 -24.5t-46.5 -65.5q78 -117 57 -279q-28 -195 -185.5 -325.5t-363.5 -130.5q-106 0 -190 34q-64 -38 -70 -100q-6 -45 23.5 -72.5t84.5 -27.5h359q152 0 242.5 -79.5t93.5 -217.5l-246 -64
q4 63 -40.5 100.5t-121.5 37.5h-360q-139 0 -214.5 73.5t-58.5 192.5q10 78 56 146t114 106q-121 131 -94 327q28 195 186 326t365 131q130 0 229 -55q32 84 107 132t174 48zM827 612q12 103 -49 171.5t-166 68.5q-107 0 -187.5 -68.5t-94.5 -171.5q-15 -102 46.5 -170.5
t168.5 -68.5q105 0 186 68.5t96 170.5z" />
    <glyph glyph-name="Hcircumflex" unicode="&#x124;" horiz-adv-x="1484" 
d="M907 1696l-147 -160h-217l243 283h279l164 -283h-215zM1214 1413h242l-199 -1413h-241l84 596h-692l-84 -596h-244l199 1413h243l-82 -588h693z" />
    <glyph glyph-name="hcircumflex" unicode="&#x125;" horiz-adv-x="1249" 
d="M418 1720l-148 -159h-217l244 282h278l164 -282h-215zM795 1069q186 0 283 -113t71 -299l-92 -657h-230l82 582q17 120 -43.5 193t-177.5 73q-124 0 -210 -74t-105 -196l-82 -578h-230l207 1475h230l-80 -572q153 166 377 166z" />
    <glyph glyph-name="Hbar" unicode="&#x126;" horiz-adv-x="1484" 
d="M1540 1196l-22 -168h-115l-146 -1028h-241l84 596h-692l-84 -596h-244l145 1028h-116l24 168h115l31 217h243l-30 -217h692l30 217h242l-31 -217h115zM1133 825l28 203h-692l-29 -203h693z" />
    <glyph glyph-name="hbar" unicode="&#x127;" horiz-adv-x="1249" 
d="M795 1069q186 0 283 -113t71 -299l-92 -657h-230l82 582q17 120 -43.5 193t-177.5 73q-124 0 -210 -74t-105 -196l-82 -578h-230l164 1161h-135l25 166h133l20 148h230l-21 -148h250l-22 -166h-250l-37 -258q153 166 377 166z" />
    <glyph glyph-name="Itilde" unicode="&#x128;" horiz-adv-x="548" 
d="M555 1550q-41 0 -76 15t-55.5 32.5t-47 32.5t-52.5 15q-38 0 -66.5 -26t-34.5 -63h-162q16 118 85.5 194.5t175.5 76.5q40 0 75 -15t55.5 -33t47.5 -33t53 -15q37 0 65.5 26t32.5 64h164q-15 -120 -85 -195.5t-175 -75.5zM80 0l199 1413h243l-198 -1413h-244z" />
    <glyph glyph-name="itilde" unicode="&#x129;" horiz-adv-x="501" 
d="M479 1182q-41 0 -76 14.5t-55.5 32.5t-47 32.5t-52.5 14.5q-38 0 -66.5 -25.5t-34.5 -62.5h-161q16 118 85 194t175 76q40 0 75 -15t55.5 -33t47.5 -33t53 -15q37 0 65.5 26t32.5 64h164q-15 -120 -85 -195t-175 -75zM61 0l148 1044h229l-147 -1044h-230z" />
    <glyph glyph-name="Imacron" unicode="&#x12a;" horiz-adv-x="548" 
d="M162 1563l26 192h521l-29 -192h-518zM80 0l199 1413h243l-198 -1413h-244z" />
    <glyph glyph-name="imacron" unicode="&#x12b;" horiz-adv-x="501" 
d="M86 1194l27 192h520l-29 -192h-518zM61 0l148 1044h229l-147 -1044h-230z" />
    <glyph glyph-name="Ibreve" unicode="&#x12c;" horiz-adv-x="548" 
d="M416 1516q-132 0 -207.5 84t-58.5 210h180q-9 -56 22 -92.5t86 -36.5q54 0 96.5 37t51.5 92h178q-19 -126 -118.5 -210t-229.5 -84zM80 0l199 1413h243l-198 -1413h-244z" />
    <glyph glyph-name="ibreve" unicode="&#x12d;" horiz-adv-x="501" 
d="M340 1147q-132 0 -207.5 84.5t-58.5 210.5h180q-9 -56 22 -92.5t86 -36.5q54 0 96.5 37t51.5 92h178q-19 -126 -118.5 -210.5t-229.5 -84.5zM61 0l148 1044h229l-147 -1044h-230z" />
    <glyph glyph-name="Iogonek" unicode="&#x12e;" horiz-adv-x="548" 
d="M279 1413h243l-198 -1413h-5q-225 -93 -245 -213q-6 -44 21 -71t69 -27q53 0 106 32l33 -143q-86 -53 -199 -53q-109 0 -171 61t-48 152q12 83 79 153t165 109h-49z" />
    <glyph glyph-name="iogonek" unicode="&#x12f;" horiz-adv-x="501" 
d="M381 1448q60 0 94.5 -39.5t26.5 -99.5q-9 -59 -54.5 -98.5t-105.5 -39.5t-94.5 39.5t-26.5 98.5q7 60 53.5 99.5t106.5 39.5zM61 0l148 1044h229l-147 -1044h-2q-226 -93 -246 -213q-6 -44 21 -71t69 -27q54 0 107 32l32 -143q-86 -53 -198 -53q-109 0 -171 61t-48 152
q12 83 78.5 153t164.5 109h-37z" />
    <glyph glyph-name="Idotaccent" unicode="&#x130;" horiz-adv-x="548" 
d="M418 1540q-60 0 -94.5 39t-26.5 98q7 60 53.5 100t106.5 40t94.5 -40t26.5 -100q-9 -59 -54.5 -98t-105.5 -39zM80 0l199 1413h243l-198 -1413h-244z" />
    <glyph glyph-name="dotlessi" unicode="&#x131;" horiz-adv-x="501" 
d="M61 0l148 1044h229l-147 -1044h-230z" />
    <glyph glyph-name="IJ" unicode="&#x132;" horiz-adv-x="1429" 
d="M80 0l199 1413h243l-198 -1413h-244zM760 -25q-123 0 -225 50l32 235q90 -49 201 -49q117 0 193.5 62.5t89.5 170.5l137 969h244l-138 -981q-31 -211 -176.5 -334t-357.5 -123z" />
    <glyph glyph-name="ij" unicode="&#x133;" horiz-adv-x="1013" 
d="M348 1221q-63 0 -99 41.5t-28 103.5q9 62 57.5 103.5t110.5 41.5q63 0 99.5 -41t27.5 -104q-9 -62 -57 -103.5t-111 -41.5zM860 1221q-62 0 -98 42t-27 103q7 62 55.5 103.5t112.5 41.5q62 0 98 -41t27 -104q-9 -62 -57 -103.5t-111 -41.5zM61 0l148 1044h229l-147 -1044
h-230zM436 -414q-77 0 -135 25l29 207q44 -21 94 -21q121 0 139 123l160 1124h229l-161 -1150q-21 -144 -112 -226t-243 -82z" />
    <glyph glyph-name="Jcircumflex" unicode="&#x134;" horiz-adv-x="880" 
d="M954 1819l164 -283h-215l-106 160l-148 -160h-217l244 283h278zM502 444l137 969h244l-138 -981q-31 -211 -176.5 -334t-357.5 -123q-123 0 -225 50l32 235q90 -49 201 -49q117 0 193.5 62.5t89.5 170.5z" />
    <glyph glyph-name="jcircumflex" unicode="&#x135;" horiz-adv-x="512" 
d="M530 1450l164 -283h-215l-106 160l-148 -160h-217l244 283h278zM61 -80l160 1124h230l-162 -1150q-21 -144 -112 -226t-243 -82q-77 0 -135 25l29 207q44 -21 94 -21q121 0 139 123z" />
    <glyph glyph-name="uni0136" unicode="&#x136;" horiz-adv-x="1345" 
d="M1470 1413l-739 -686l565 -727h-317l-432 555l-166 -154l-57 -401h-244l199 1413h243l-96 -680l731 680h313zM393 -457l127 334h238l-174 -334h-191z" />
    <glyph glyph-name="uni0137" unicode="&#x137;" horiz-adv-x="1103" 
d="M1169 1044l-526 -487l393 -557h-303l-276 385l-129 -119l-37 -266h-230l207 1475h230l-127 -902l499 471h299zM274 -457l127 334h238l-174 -334h-191z" />
    <glyph glyph-name="Lacute" unicode="&#x139;" horiz-adv-x="1095" 
d="M821 1819l-297 -283h-243l249 283h291zM356 229h643l-30 -229h-889l199 1413h243z" />
    <glyph glyph-name="lacute" unicode="&#x13a;" horiz-adv-x="501" 
d="M260 1561l250 282h291l-297 -282h-244zM61 0l207 1475h230l-207 -1475h-230z" />
    <glyph glyph-name="uni013B" unicode="&#x13b;" horiz-adv-x="1095" 
d="M356 229h643l-30 -229h-889l199 1413h243zM276 -457l127 334h238l-174 -334h-191z" />
    <glyph glyph-name="uni013C" unicode="&#x13c;" horiz-adv-x="501" 
d="M61 0l207 1475h230l-207 -1475h-230zM-57 -457l127 334h237l-174 -334h-190z" />
    <glyph glyph-name="Lcaron" unicode="&#x13d;" horiz-adv-x="1095" 
d="M356 229h643l-30 -229h-889l199 1413h243zM946 1413l-139 -436h-174l102 436h211z" />
    <glyph glyph-name="lcaron" unicode="&#x13e;" horiz-adv-x="679" 
d="M61 0l207 1475h230l-207 -1475h-230zM557 1038l102 437h211l-141 -437h-172z" />
    <glyph glyph-name="Ldot" unicode="&#x13f;" horiz-adv-x="1095" 
d="M356 229h643l-30 -229h-889l199 1413h243zM707 584q-63 0 -99 42t-28 105q9 62 56.5 104t108.5 42q63 0 99.5 -42t27.5 -104q-9 -63 -56 -105t-109 -42z" />
    <glyph glyph-name="ldot" unicode="&#x140;" horiz-adv-x="817" 
d="M61 0l207 1475h230l-207 -1475h-230zM627 592q-63 0 -99 41t-26 104q7 63 55 104.5t111 41.5t98 -41.5t27 -104.5q-9 -63 -56.5 -104t-109.5 -41z" />
    <glyph glyph-name="Lslash" unicode="&#x141;" horiz-adv-x="1095" 
d="M356 229h643l-30 -229h-889l70 498l-134 -74l31 225l135 74l97 690h243l-78 -547l252 138l-30 -226l-252 -137z" />
    <glyph glyph-name="lslash" unicode="&#x142;" horiz-adv-x="647" 
d="M649 997l-31 -211l-155 -86l-98 -700h-230l80 563l-158 -86l31 211l156 86l98 701h229l-79 -564z" />
    <glyph glyph-name="Nacute" unicode="&#x143;" horiz-adv-x="1505" 
d="M1305 1819l-297 -283h-244l250 283h291zM1233 1413h244l-199 -1413h-248l-567 999l-139 -999h-244l199 1413h247l568 -1001z" />
    <glyph glyph-name="nacute" unicode="&#x144;" horiz-adv-x="1249" 
d="M1128 1450l-297 -283h-243l250 283h290zM795 1069q186 0 283 -113t71 -299l-92 -657h-230l82 582q17 120 -44 193t-179 73q-123 0 -208.5 -74t-104.5 -196l-82 -578h-230l148 1044h229l-18 -133q152 158 375 158z" />
    <glyph glyph-name="uni0145" unicode="&#x145;" horiz-adv-x="1505" 
d="M1233 1413h244l-199 -1413h-248l-567 999l-139 -999h-244l199 1413h247l568 -1001zM444 -457l127 334h238l-174 -334h-191z" />
    <glyph glyph-name="uni0146" unicode="&#x146;" horiz-adv-x="1249" 
d="M795 1069q186 0 283 -113t71 -299l-92 -657h-230l82 582q17 120 -44 193t-179 73q-123 0 -208.5 -74t-104.5 -196l-82 -578h-230l148 1044h229l-18 -133q152 158 375 158zM326 -457l127 334h237l-174 -334h-190z" />
    <glyph glyph-name="Ncaron" unicode="&#x147;" horiz-adv-x="1505" 
d="M1040 1536h-278l-164 283h215l105 -158l149 158h217zM1233 1413h244l-199 -1413h-248l-567 999l-139 -999h-244l199 1413h247l568 -1001z" />
    <glyph glyph-name="ncaron" unicode="&#x148;" horiz-adv-x="1249" 
d="M864 1167h-278l-164 283h215l104 -158l150 158h217zM795 1069q186 0 283 -113t71 -299l-92 -657h-230l82 582q17 120 -44 193t-179 73q-123 0 -208.5 -74t-104.5 -196l-82 -578h-230l148 1044h229l-18 -133q152 158 375 158z" />
    <glyph glyph-name="Eng" unicode="&#x14a;" horiz-adv-x="1505" 
d="M1477 1413l-197 -1403h2l-10 -71q-52 -357 -459 -357l33 223q164 0 182 140l8 55h-6l-567 999l-139 -999h-244l199 1413h247l568 -1001l139 1001h244z" />
    <glyph glyph-name="eng" unicode="&#x14b;" horiz-adv-x="1249" 
d="M795 1069q186 0 283 -113t71 -299l-100 -718q-52 -357 -439 -357l33 223q74 0 121 35t57 105l88 637q17 120 -43.5 193t-177.5 73q-124 0 -210 -74t-105 -196l-82 -578h-230l148 1044h229l-18 -133q152 158 375 158z" />
    <glyph glyph-name="Omacron" unicode="&#x14c;" horiz-adv-x="1644" 
d="M709 1563l26 192h520l-28 -192h-518zM743 -25q-156 0 -285.5 56.5t-214 153.5t-122 232.5t-15.5 289.5q28 205 148.5 372.5t304 263t391.5 95.5q156 0 286.5 -56t215 -153t122.5 -232.5t17 -289.5q-29 -205 -150 -373t-305 -263.5t-393 -95.5zM778 211q211 0 371.5 142
t191.5 354q29 212 -91.5 353.5t-331.5 141.5q-138 0 -260 -64t-202.5 -178t-99.5 -253q-20 -139 28 -253t151.5 -178.5t242.5 -64.5z" />
    <glyph glyph-name="omacron" unicode="&#x14d;" horiz-adv-x="1261" 
d="M465 1194l27 192h520l-29 -192h-518zM553 -25q-157 0 -275 71.5t-172.5 197t-33.5 278.5t112 278.5t229.5 197t295.5 71.5q156 0 274 -71.5t173 -197t34 -278.5t-112 -278.5t-230 -197t-295 -71.5zM584 197q139 0 244 93.5t124 231.5q20 139 -58.5 232.5t-217.5 93.5
q-138 0 -243.5 -94t-125.5 -232q-19 -138 60 -231.5t217 -93.5z" />
    <glyph glyph-name="Obreve" unicode="&#x14e;" horiz-adv-x="1644" 
d="M963 1516q-132 0 -208 84t-59 210h181q-9 -56 22 -92.5t86 -36.5q54 0 96.5 37t51.5 92h178q-19 -126 -118.5 -210t-229.5 -84zM743 -25q-156 0 -285.5 56.5t-214 153.5t-122 232.5t-15.5 289.5q28 205 148.5 372.5t304 263t391.5 95.5q156 0 286.5 -56t215 -153
t122.5 -232.5t17 -289.5q-29 -205 -150 -373t-305 -263.5t-393 -95.5zM778 211q211 0 371.5 142t191.5 354q29 212 -91.5 353.5t-331.5 141.5q-138 0 -260 -64t-202.5 -178t-99.5 -253q-20 -139 28 -253t151.5 -178.5t242.5 -64.5z" />
    <glyph glyph-name="obreve" unicode="&#x14f;" horiz-adv-x="1261" 
d="M719 1147q-132 0 -207.5 84.5t-58.5 210.5h180q-9 -56 22 -92.5t86 -36.5q54 0 96.5 37t51.5 92h178q-19 -126 -118.5 -210.5t-229.5 -84.5zM553 -25q-157 0 -275 71.5t-172.5 197t-33.5 278.5t112 278.5t229.5 197t295.5 71.5q156 0 274 -71.5t173 -197t34 -278.5
t-112 -278.5t-230 -197t-295 -71.5zM584 197q139 0 244 93.5t124 231.5q20 139 -58.5 232.5t-217.5 93.5q-138 0 -243.5 -94t-125.5 -232q-19 -138 60 -231.5t217 -93.5z" />
    <glyph glyph-name="Ohungarumlaut" unicode="&#x150;" horiz-adv-x="1644" 
d="M633 1536l211 283h254l-242 -283h-223zM1059 1536l211 283h252l-242 -283h-221zM743 -25q-156 0 -285.5 56.5t-214 153.5t-122 232.5t-15.5 289.5q28 205 148.5 372.5t304 263t391.5 95.5q156 0 286.5 -56t215 -153t122.5 -232.5t17 -289.5q-29 -205 -150 -373
t-305 -263.5t-393 -95.5zM778 211q211 0 371.5 142t191.5 354q29 212 -91.5 353.5t-331.5 141.5q-138 0 -260 -64t-202.5 -178t-99.5 -253q-20 -139 28 -253t151.5 -178.5t242.5 -64.5z" />
    <glyph glyph-name="ohungarumlaut" unicode="&#x151;" horiz-adv-x="1261" 
d="M389 1167l211 283h254l-242 -283h-223zM815 1167l211 283h252l-242 -283h-221zM553 -25q-157 0 -275 71.5t-172.5 197t-33.5 278.5t112 278.5t229.5 197t295.5 71.5q156 0 274 -71.5t173 -197t34 -278.5t-112 -278.5t-230 -197t-295 -71.5zM584 197q139 0 244 93.5
t124 231.5q20 139 -58.5 232.5t-217.5 93.5q-138 0 -243.5 -94t-125.5 -232q-19 -138 60 -231.5t217 -93.5z" />
    <glyph glyph-name="OE" unicode="&#x152;" horiz-adv-x="1882" 
d="M1874 1184h-614l-50 -359h547l-33 -229h-546l-52 -367h623l-31 -229h-995q-151 0 -277 54t-207.5 148t-117.5 225t-15 280q27 199 143 360.5t293.5 253.5t379.5 92h985zM883 229l133 955h-121q-203 0 -357 -136.5t-182 -340.5q-20 -134 25.5 -243.5t145.5 -172t233 -62.5
h123z" />
    <glyph glyph-name="oe" unicode="&#x153;" horiz-adv-x="2117" 
d="M1599 1069q112 0 204.5 -42t152.5 -114.5t86.5 -175t9.5 -219.5q-11 -67 -16 -82h-848q12 -115 92.5 -184.5t206.5 -69.5q94 0 179.5 40t141.5 102l146 -131q-96 -102 -223 -160t-265 -58q-150 0 -263 67t-171 185q-86 -117 -214.5 -184.5t-274.5 -67.5
q-152 0 -267.5 71.5t-170 197t-33.5 278.5t111 278.5t226.5 197t288.5 71.5q144 0 252.5 -66t163.5 -182q86 116 213.5 182t271.5 66zM1552 862q-110 0 -202 -65.5t-133 -171.5h604q-10 107 -85 172t-184 65zM954 522q20 138 -59.5 231t-216.5 93q-139 0 -245 -93t-126 -231
t60 -230.5t219 -92.5q137 0 242.5 92.5t125.5 230.5z" />
    <glyph glyph-name="Racute" unicode="&#x154;" horiz-adv-x="1284" 
d="M1190 1819l-297 -283h-244l250 283h291zM1268 965q-21 -159 -135 -276t-273 -150l305 -539h-293l-290 526h-185l-73 -526h-244l199 1413h587q130 0 228.5 -58t145 -161t28.5 -229zM1018 963q13 95 -40.5 158t-146.5 63h-342l-61 -445h340q94 0 165 64.5t85 159.5z" />
    <glyph glyph-name="racute" unicode="&#x155;" horiz-adv-x="763" 
d="M926 1450l-297 -283h-244l250 283h291zM416 891q147 170 350 170h39l-33 -236h-39q-151 0 -250 -84.5t-121 -226.5l-71 -514h-230l148 1044h229z" />
    <glyph glyph-name="uni0156" unicode="&#x156;" horiz-adv-x="1284" 
d="M1268 965q-21 -159 -135 -276t-273 -150l305 -539h-293l-290 526h-185l-73 -526h-244l199 1413h587q130 0 228.5 -58t145 -161t28.5 -229zM1018 963q13 95 -40.5 158t-146.5 63h-342l-61 -445h340q94 0 165 64.5t85 159.5zM336 -457l127 334h237l-174 -334h-190z" />
    <glyph glyph-name="uni0157" unicode="&#x157;" horiz-adv-x="763" 
d="M766 1061h39l-33 -236h-39q-151 0 -250 -84.5t-121 -226.5l-71 -514h-230l148 1044h229l-22 -153q147 170 350 170zM-57 -457l127 334h237l-174 -334h-190z" />
    <glyph glyph-name="Rcaron" unicode="&#x158;" horiz-adv-x="1284" 
d="M926 1536h-279l-164 283h215l105 -158l149 158h217zM1268 965q-21 -159 -135 -276t-273 -150l305 -539h-293l-290 526h-185l-73 -526h-244l199 1413h587q130 0 228.5 -58t145 -161t28.5 -229zM1018 963q13 95 -40.5 158t-146.5 63h-342l-61 -445h340q94 0 165 64.5
t85 159.5z" />
    <glyph glyph-name="rcaron" unicode="&#x159;" horiz-adv-x="763" 
d="M662 1167h-279l-164 283h215l105 -158l149 158h217zM416 891q147 170 350 170h39l-33 -236h-39q-151 0 -250 -84.5t-121 -226.5l-71 -514h-230l148 1044h229z" />
    <glyph glyph-name="Sacute" unicode="&#x15a;" horiz-adv-x="1220" 
d="M631 1536l250 283h290l-297 -283h-243zM553 -25q-159 0 -305 60.5t-236 161.5l152 186q72 -85 185 -136.5t235 -51.5q123 0 214 53t103 137q6 40 -11.5 73t-44.5 53.5t-75 39.5t-82 28t-88 21q-99 24 -176.5 58.5t-140 85.5t-90.5 124.5t-15 163.5q25 182 186 294
t394 112q149 0 267 -48t185 -128l-139 -185q-51 62 -146 102t-202 40q-118 0 -201.5 -50t-93.5 -129q-6 -45 15.5 -81t66.5 -60t90 -38.5t102 -26.5q37 -8 68.5 -16.5t84 -28t94 -41.5t86 -57.5t72 -76t41.5 -97.5t5 -122q-26 -185 -197 -302.5t-403 -117.5z" />
    <glyph glyph-name="sacute" unicode="&#x15b;" horiz-adv-x="985" 
d="M451 1167l249 283h291l-297 -283h-243zM412 -25q-254 0 -410 160l141 162q110 -123 293 -123q91 0 153.5 30.5t69.5 84.5q3 24 -7 43t-25.5 32t-47 25t-57 19t-69.5 18q-80 19 -128 36t-108 52.5t-84 94t-12 139.5q21 154 151.5 237.5t309.5 83.5q226 0 376 -139
l-141 -162q-110 102 -260 102q-81 0 -137.5 -27t-63.5 -79q-3 -24 7 -43t25 -31.5t47 -24.5t57 -18.5t71 -17.5q62 -14 102 -25.5t93.5 -37t82.5 -56.5t46 -82.5t8 -116.5q-23 -158 -158 -247t-325 -89z" />
    <glyph glyph-name="Scircumflex" unicode="&#x15c;" horiz-adv-x="1220" 
d="M788 1696l-147 -160h-217l244 283h278l164 -283h-215zM702 834q37 -8 68.5 -16.5t84 -28t94 -41.5t86 -57.5t72 -76t41.5 -97.5t5 -122q-26 -185 -197 -302.5t-403 -117.5q-159 0 -305 60.5t-236 161.5l152 186q72 -85 185 -136.5t235 -51.5q123 0 214 53t103 137
q6 40 -11.5 73t-44.5 53.5t-75 39.5t-82 28t-88 21q-99 24 -176.5 58.5t-140 85.5t-90.5 124.5t-15 163.5q25 182 186 294t394 112q149 0 267 -48t185 -128l-139 -185q-51 62 -146 102t-202 40q-118 0 -201.5 -50t-93.5 -129q-6 -45 15.5 -81t66.5 -60t90 -38.5t102 -26.5z
" />
    <glyph glyph-name="scircumflex" unicode="&#x15d;" horiz-adv-x="985" 
d="M608 1327l-147 -160h-217l243 283h279l164 -283h-215zM563 629q62 -14 102 -25.5t93.5 -37t82.5 -56.5t46 -82.5t8 -116.5q-23 -158 -158 -247t-325 -89q-254 0 -410 160l141 162q110 -123 293 -123q91 0 153.5 30.5t69.5 84.5q3 24 -7 43t-25.5 32t-47 25t-57 19
t-69.5 18q-80 19 -128 36t-108 52.5t-84 94t-12 139.5q21 154 151.5 237.5t309.5 83.5q226 0 376 -139l-141 -162q-110 102 -260 102q-81 0 -137.5 -27t-63.5 -79q-3 -24 7 -43t25 -31.5t47 -24.5t57 -18.5t71 -17.5z" />
    <glyph glyph-name="Scedilla" unicode="&#x15e;" horiz-adv-x="1220" 
d="M702 834q37 -8 68.5 -16.5t84 -28t94 -41.5t86 -57.5t72 -76t41.5 -97.5t5 -122q-24 -169 -171 -282.5t-353 -132.5l-45 -46q84 -1 132 -60t34 -144q-10 -92 -86 -154.5t-177 -62.5q-131 0 -202 104l94 96q21 -33 54 -53t69 -20q41 0 72.5 26t35.5 64q6 36 -16 61t-59 25
q-41 0 -70 -29l-121 59l125 134q-138 15 -259 72.5t-198 144.5l152 186q72 -85 185 -136.5t235 -51.5q123 0 214 53t103 137q6 40 -11.5 73t-44.5 53.5t-75 39.5t-82 28t-88 21q-99 24 -176.5 58.5t-140 85.5t-90.5 124.5t-15 163.5q25 182 186 294t394 112q149 0 267 -48
t185 -128l-139 -185q-51 62 -146 102t-202 40q-118 0 -201.5 -50t-93.5 -129q-6 -45 15.5 -81t66.5 -60t90 -38.5t102 -26.5z" />
    <glyph glyph-name="scedilla" unicode="&#x15f;" horiz-adv-x="985" 
d="M563 629q62 -14 102 -25.5t93.5 -37t82.5 -56.5t46 -82.5t8 -116.5q-20 -138 -127.5 -224t-265.5 -105l-47 -48q84 -1 132 -60t34 -144q-10 -92 -86 -154.5t-177 -62.5q-131 0 -202 104l94 96q21 -33 54 -53t69 -20q41 0 72.5 26t35.5 64q6 36 -16 61t-59 25
q-41 0 -70 -29l-121 59l123 134q-203 19 -336 155l141 162q110 -123 293 -123q91 0 153.5 30.5t69.5 84.5q3 24 -7 43t-25.5 32t-47 25t-57 19t-69.5 18q-80 19 -128 36t-108 52.5t-84 94t-12 139.5q21 154 151.5 237.5t309.5 83.5q226 0 376 -139l-141 -162
q-110 102 -260 102q-81 0 -137.5 -27t-63.5 -79q-3 -24 7 -43t25 -31.5t47 -24.5t57 -18.5t71 -17.5z" />
    <glyph glyph-name="Scaron" unicode="&#x160;" horiz-adv-x="1220" 
d="M907 1536h-278l-164 283h215l104 -158l150 158h217zM702 834q37 -8 68.5 -16.5t84 -28t94 -41.5t86 -57.5t72 -76t41.5 -97.5t5 -122q-26 -185 -197 -302.5t-403 -117.5q-159 0 -305 60.5t-236 161.5l152 186q72 -85 185 -136.5t235 -51.5q123 0 214 53t103 137
q6 40 -11.5 73t-44.5 53.5t-75 39.5t-82 28t-88 21q-99 24 -176.5 58.5t-140 85.5t-90.5 124.5t-15 163.5q25 182 186 294t394 112q149 0 267 -48t185 -128l-139 -185q-51 62 -146 102t-202 40q-118 0 -201.5 -50t-93.5 -129q-6 -45 15.5 -81t66.5 -60t90 -38.5t102 -26.5z
" />
    <glyph glyph-name="scaron" unicode="&#x161;" horiz-adv-x="985" 
d="M727 1167h-278l-164 283h215l104 -158l150 158h217zM557 870q-81 0 -137.5 -27t-63.5 -79q-3 -24 7 -43t25 -31.5t47 -24.5t57 -18.5t71 -17.5q62 -14 102 -25.5t93.5 -37t82.5 -56.5t46 -82.5t8 -116.5q-23 -158 -158 -247t-325 -89q-254 0 -410 160l141 162
q110 -123 293 -123q91 0 153.5 30.5t69.5 84.5q3 24 -7 43t-25.5 32t-47 25t-57 19t-69.5 18q-80 19 -128 36t-108 52.5t-84 94t-12 139.5q21 154 151.5 237.5t309.5 83.5q226 0 376 -139l-141 -162q-110 102 -260 102z" />
    <glyph glyph-name="uni0162" unicode="&#x162;" horiz-adv-x="1208" 
d="M653 0h-39l-63 -63q84 -1 132 -60.5t34 -144.5q-11 -92 -86 -154.5t-176 -62.5q-65 0 -117.5 28t-85.5 76l94 96q21 -33 54 -53t69 -20q41 0 73 26t36 64q6 36 -16.5 61t-59.5 25q-41 0 -70 -29l-121 59l142 152h-43l165 1184h-425l30 229h1098l-33 -229h-426z" />
    <glyph glyph-name="uni0163" unicode="&#x163;" horiz-adv-x="835" 
d="M514 836l-70 -494q-21 -145 131 -145q67 0 148 36l-31 -215q-75 -37 -174 -43l-39 -38q84 -1 132 -60.5t34 -144.5q-11 -92 -86 -154.5t-176 -62.5q-65 0 -117.5 28t-85.5 76l94 96q21 -33 54 -53t69 -20q41 0 73 26t36 64q6 36 -16.5 61t-59.5 25q-41 0 -70 -29l-120 59
l133 144q-100 29 -141 110t-23 203l76 531h-176l28 208h176l39 271h230l-39 -271h295l-31 -208h-293z" />
    <glyph glyph-name="Tcaron" unicode="&#x164;" horiz-adv-x="1208" 
d="M887 1536h-279l-164 283h215l105 -158l149 158h217zM1278 1413l-33 -229h-426l-166 -1184h-243l165 1184h-425l30 229h1098z" />
    <glyph glyph-name="tcaron" unicode="&#x165;" horiz-adv-x="835" 
d="M975 1591l-139 -436h-172l102 436h209zM582 1315l-39 -271h295l-31 -208h-293l-70 -494q-21 -145 131 -145q67 0 148 36l-31 -215q-90 -43 -196 -43q-165 0 -237 87t-50 243l76 531h-176l28 208h176l39 271h230z" />
    <glyph glyph-name="Tbar" unicode="&#x166;" horiz-adv-x="1208" 
d="M1245 1184h-426l-61 -443h184l-22 -166h-187l-80 -575h-243l79 575h-184l25 166h184l61 443h-425l30 229h1098z" />
    <glyph glyph-name="tbar" unicode="&#x167;" horiz-adv-x="835" 
d="M807 836h-293l-29 -209h232l-23 -166h-233l-17 -119q-21 -145 131 -145q67 0 148 36l-31 -215q-90 -43 -196 -43q-165 0 -237 87t-50 243l22 156h-151l24 166h150l31 209h-176l28 208h176l39 271h230l-39 -271h295z" />
    <glyph glyph-name="Utilde" unicode="&#x168;" horiz-adv-x="1411" 
d="M985 1550q-41 0 -76 15t-55.5 32.5t-47 32.5t-52.5 15q-38 0 -66.5 -26t-34.5 -63h-161q16 118 85.5 194.5t174.5 76.5q40 0 75 -15t55.5 -33t47.5 -33t53 -15q37 0 65.5 26t32.5 64h164q-15 -120 -85 -195.5t-175 -75.5zM627 -25q-122 0 -223.5 43.5t-167.5 119
t-96 181.5t-13 226l123 868h242l-119 -864q-22 -145 60.5 -241.5t228.5 -96.5q144 0 253.5 96.5t131.5 241.5l120 864h244l-121 -868q-23 -161 -117.5 -291.5t-238 -204.5t-307.5 -74z" />
    <glyph glyph-name="utilde" unicode="&#x169;" horiz-adv-x="1202" 
d="M829 1182q-41 0 -76 14.5t-55.5 32.5t-47 32.5t-52.5 14.5q-38 0 -66 -25.5t-34 -62.5h-162q16 118 85 194t175 76q40 0 75 -15t55.5 -33t47.5 -33t53 -15q37 0 66 26t33 64h164q-15 -120 -85.5 -195t-175.5 -75zM524 -25q-218 0 -333 120.5t-87 320.5l89 628h229
l-84 -598q-15 -113 44 -181t173 -68q115 0 194.5 68.5t92.5 180.5l86 598h229l-90 -628q-28 -199 -177 -320t-366 -121z" />
    <glyph glyph-name="Umacron" unicode="&#x16a;" horiz-adv-x="1411" 
d="M592 1563l26 192h521l-29 -192h-518zM627 -25q-122 0 -223.5 43.5t-167.5 119t-96 181.5t-13 226l123 868h242l-119 -864q-22 -145 60.5 -241.5t228.5 -96.5q144 0 253.5 96.5t131.5 241.5l120 864h244l-121 -868q-23 -161 -117.5 -291.5t-238 -204.5t-307.5 -74z" />
    <glyph glyph-name="umacron" unicode="&#x16b;" horiz-adv-x="1202" 
d="M436 1194l27 192h520l-29 -192h-518zM524 -25q-218 0 -333 120.5t-87 320.5l89 628h229l-84 -598q-15 -113 44 -181t173 -68q115 0 194.5 68.5t92.5 180.5l86 598h229l-90 -628q-28 -199 -177 -320t-366 -121z" />
    <glyph glyph-name="Ubreve" unicode="&#x16c;" horiz-adv-x="1411" 
d="M846 1516q-132 0 -207.5 84t-58.5 210h180q-9 -56 22 -92.5t86 -36.5q54 0 96.5 37t51.5 92h178q-19 -126 -118.5 -210t-229.5 -84zM627 -25q-122 0 -223.5 43.5t-167.5 119t-96 181.5t-13 226l123 868h242l-119 -864q-22 -145 60.5 -241.5t228.5 -96.5q144 0 253.5 96.5
t131.5 241.5l120 864h244l-121 -868q-23 -161 -117.5 -291.5t-238 -204.5t-307.5 -74z" />
    <glyph glyph-name="ubreve" unicode="&#x16d;" horiz-adv-x="1202" 
d="M690 1147q-132 0 -207.5 84.5t-58.5 210.5h180q-9 -55 22 -92t87 -37q54 0 96 37t51 92h178q-19 -126 -118.5 -210.5t-229.5 -84.5zM524 -25q-218 0 -333 120.5t-87 320.5l89 628h229l-84 -598q-15 -113 44 -181t173 -68q115 0 194.5 68.5t92.5 180.5l86 598h229
l-90 -628q-28 -199 -177 -320t-366 -121z" />
    <glyph glyph-name="Uring" unicode="&#x16e;" horiz-adv-x="1411" 
d="M844 1511q-85 0 -133.5 55.5t-36.5 137.5q10 81 74.5 136.5t148.5 55.5q85 0 133.5 -55t36.5 -137q-10 -82 -75 -137.5t-148 -55.5zM860 1628q31 0 55.5 21.5t28.5 54.5q5 32 -13 54t-50 22q-31 0 -55.5 -22t-28.5 -54q-4 -34 13.5 -55t49.5 -21zM627 -25
q-122 0 -223.5 43.5t-167.5 119t-96 181.5t-13 226l123 868h242l-119 -864q-22 -145 60.5 -241.5t228.5 -96.5q144 0 253.5 96.5t131.5 241.5l120 864h244l-121 -868q-23 -161 -117.5 -291.5t-238 -204.5t-307.5 -74z" />
    <glyph glyph-name="uring" unicode="&#x16f;" horiz-adv-x="1202" 
d="M688 1143q-85 0 -133.5 55t-36.5 137q10 82 75 137.5t148 55.5q85 0 133.5 -55.5t36.5 -137.5q-10 -81 -74.5 -136.5t-148.5 -55.5zM705 1260q31 0 55 21t28 54q5 32 -13 54t-50 22q-31 0 -55.5 -22t-28.5 -54q-4 -33 13.5 -54t50.5 -21zM524 -25q-218 0 -333 120.5
t-87 320.5l89 628h229l-84 -598q-15 -113 44 -181t173 -68q115 0 194.5 68.5t92.5 180.5l86 598h229l-90 -628q-28 -199 -177 -320t-366 -121z" />
    <glyph glyph-name="Uhungarumlaut" unicode="&#x170;" horiz-adv-x="1411" 
d="M516 1536l211 283h254l-242 -283h-223zM942 1536l211 283h252l-242 -283h-221zM627 -25q-122 0 -223.5 43.5t-167.5 119t-96 181.5t-13 226l123 868h242l-119 -864q-22 -145 60.5 -241.5t228.5 -96.5q144 0 253.5 96.5t131.5 241.5l120 864h244l-121 -868
q-23 -161 -117.5 -291.5t-238 -204.5t-307.5 -74z" />
    <glyph glyph-name="uhungarumlaut" unicode="&#x171;" horiz-adv-x="1202" 
d="M360 1167l211 283h254l-241 -283h-224zM786 1167l211 283h252l-241 -283h-222zM524 -25q-218 0 -333 120.5t-87 320.5l89 628h229l-84 -598q-15 -113 44 -181t173 -68q115 0 194.5 68.5t92.5 180.5l86 598h229l-90 -628q-28 -199 -177 -320t-366 -121z" />
    <glyph glyph-name="Uogonek" unicode="&#x172;" horiz-adv-x="1411" 
d="M1167 1413h244l-121 -868q-27 -193 -157 -339.5t-316 -201.5q-179 -88 -196 -192q-6 -44 21 -71.5t69 -27.5q52 0 106 33l33 -143q-88 -54 -199 -54q-109 0 -171 61t-48 152q18 126 154 215q-231 14 -361 174.5t-98 393.5l123 868h242l-119 -864q-22 -145 60.5 -241.5
t228.5 -96.5q144 0 253.5 96.5t131.5 241.5z" />
    <glyph glyph-name="uogonek" unicode="&#x173;" horiz-adv-x="1202" 
d="M928 1044h229l-90 -628q-23 -160 -126 -272t-261 -150q-162 -81 -178 -182q-6 -44 21 -71.5t69 -27.5q52 0 106 33l33 -143q-88 -54 -199 -54q-109 0 -171 61t-48 152q18 124 154 215q-191 17 -290 135.5t-73 303.5l89 628h229l-84 -598q-15 -113 44 -181t173 -68
q115 0 194.5 68.5t92.5 180.5z" />
    <glyph glyph-name="Wcircumflex" unicode="&#x174;" horiz-adv-x="2074" 
d="M1202 1696l-147 -160h-217l243 283h279l164 -283h-215zM1909 1413h252l-643 -1413h-246l-160 1047l-457 -1047h-243l-248 1413h260l162 -1083l473 1083h215l168 -1083z" />
    <glyph glyph-name="wcircumflex" unicode="&#x175;" horiz-adv-x="1771" 
d="M997 1327l-147 -160h-217l244 283h278l164 -283h-215zM1573 1044h248l-523 -1044h-237l-141 770l-357 -770h-237l-228 1044h256l138 -759l354 759h233l142 -755z" />
    <glyph glyph-name="Ycircumflex" unicode="&#x176;" horiz-adv-x="1380" 
d="M854 1696l-147 -160h-218l244 283h279l164 -283h-215zM1227 1413h272l-690 -907l-70 -506h-243l71 506l-436 907h279l317 -663z" />
    <glyph glyph-name="ycircumflex" unicode="&#x177;" horiz-adv-x="1163" 
d="M694 1327l-147 -160h-217l243 283h279l164 -283h-215zM963 1044h256l-709 -1243q-57 -100 -145.5 -157.5t-184.5 -57.5q-66 0 -134.5 28.5t-111.5 74.5l117 178q21 -27 54 -43.5t69 -16.5q83 0 137 89l74 116l-293 1032h262l197 -761z" />
    <glyph glyph-name="Ydieresis" unicode="&#x178;" horiz-adv-x="1380" 
d="M616 1540q-57 0 -89.5 37.5t-24.5 93.5q7 57 51.5 95t101.5 38t90 -38t25 -95q-7 -55 -52 -93t-102 -38zM1051 1540q-57 0 -90 37.5t-25 93.5q7 57 52 95t102 38t89.5 -38t24.5 -95q-7 -55 -51.5 -93t-101.5 -38zM1227 1413h272l-690 -907l-70 -506h-243l71 506l-436 907
h279l317 -663z" />
    <glyph glyph-name="Zacute" unicode="&#x179;" horiz-adv-x="1257" 
d="M1174 1819l-297 -283h-244l250 283h291zM1290 1413l-24 -174l-895 -1010h766l-31 -229h-1102l25 174l895 1010h-744l31 229h1079z" />
    <glyph glyph-name="zacute" unicode="&#x17a;" horiz-adv-x="1019" 
d="M1006 1450l-297 -283h-244l250 283h291zM133 823l31 221h833l-24 -165l-613 -658h535l-31 -221h-856l25 166l612 657h-512z" />
    <glyph glyph-name="Zdotaccent" unicode="&#x17b;" horiz-adv-x="1257" 
d="M770 1540q-60 0 -94.5 39t-26.5 98q7 60 53.5 100t106.5 40t94.5 -40t26.5 -100q-9 -59 -54.5 -98t-105.5 -39zM1290 1413l-24 -174l-895 -1010h766l-31 -229h-1102l25 174l895 1010h-744l31 229h1079z" />
    <glyph glyph-name="zdotaccent" unicode="&#x17c;" horiz-adv-x="1019" 
d="M602 1171q-60 0 -94.5 39.5t-26.5 98.5q7 60 53.5 99.5t106.5 39.5t94.5 -39.5t26.5 -99.5q-9 -59 -54.5 -98.5t-105.5 -39.5zM997 1044l-24 -165l-613 -658h535l-31 -221h-856l25 166l612 657h-512l31 221h833z" />
    <glyph glyph-name="Zcaron" unicode="&#x17d;" horiz-adv-x="1257" 
d="M909 1536h-278l-164 283h215l104 -158l150 158h217zM1290 1413l-24 -174l-895 -1010h766l-31 -229h-1102l25 174l895 1010h-744l31 229h1079z" />
    <glyph glyph-name="zcaron" unicode="&#x17e;" horiz-adv-x="1019" 
d="M741 1167h-278l-164 283h215l104 -158l150 158h217zM997 1044l-24 -165l-613 -658h535l-31 -221h-856l25 166l612 657h-512l31 221h833z" />
    <glyph glyph-name="florin" unicode="&#x192;" horiz-adv-x="1015" 
d="M1057 1178q-131 0 -201.5 -47t-103.5 -152l-52 -164h207l-28 -209h-244l-201 -635q-59 -187 -194.5 -273.5t-376.5 -86.5l33 235q133 0 204.5 47.5t104.5 151.5l176 561h-197l29 209h233l74 238q59 188 194 274t378 86z" />
    <glyph glyph-name="uni01C4" unicode="&#x1c4;" horiz-adv-x="2686" 
d="M2337 1536h-277l-166 283h217l105 -160l147 160h217zM827 1413q203 0 355 -92t222.5 -253.5t43.5 -360.5q-21 -149 -94.5 -280t-181.5 -225t-249.5 -148t-293.5 -54h-549l199 1413h548zM2720 1413l-25 -174l-895 -1010h766l-31 -229h-1101l24 174l895 1010h-743l30 229
h1080zM1198 707q28 204 -88.5 340.5t-318.5 136.5h-302l-133 -955h299q202 0 357 137t186 341z" />
    <glyph glyph-name="uni01C5" unicode="&#x1c5;" horiz-adv-x="2521" 
d="M2238 1167h-276l-166 283h217l105 -160l147 160h217zM827 1413q203 0 355 -92t222.5 -253.5t43.5 -360.5q-21 -149 -94.5 -280t-181.5 -225t-249.5 -148t-293.5 -54h-549l199 1413h548zM1198 707q28 204 -88.5 340.5t-318.5 136.5h-302l-133 -955h299q202 0 357 137
t186 341zM2497 1044l-25 -165l-612 -658h534l-31 -221h-856l25 166l612 657h-512l31 221h834z" />
    <glyph glyph-name="uni01C6" unicode="&#x1c6;" horiz-adv-x="2342" 
d="M1008 895l82 580h229l-207 -1475h-229l20 150q-76 -83 -176.5 -129t-214.5 -46q-145 0 -252.5 71.5t-156 196.5t-27.5 279q21 153 105.5 278.5t213 197t273.5 71.5q112 0 199.5 -45.5t140.5 -128.5zM2062 1167h-276l-166 283h217l105 -160l147 160h217zM2320 1044
l-24 -165l-613 -658h535l-31 -221h-856l25 166l612 657h-512l31 221h833zM588 197q133 0 236 87t128 218l6 37q12 133 -66.5 221t-211.5 88q-138 0 -244 -94t-125 -232t60 -231.5t217 -93.5z" />
    <glyph glyph-name="uni01C7" unicode="&#x1c7;" horiz-adv-x="1982" 
d="M522 1413l-166 -1184h643l-30 -229h-889l199 1413h243zM1741 1413h244l-138 -981q-31 -211 -176.5 -334t-357.5 -123q-124 0 -226 50l33 235q90 -49 201 -49q117 0 193.5 62.5t89.5 170.5z" />
    <glyph glyph-name="uni01C8" unicode="&#x1c8;" horiz-adv-x="1619" 
d="M1509 1511q62 0 98 -41t27 -104q-9 -62 -57 -103.5t-111 -41.5q-62 0 -98 42t-27 103q7 62 55.5 103.5t112.5 41.5zM999 229l-30 -229h-889l199 1413h243l-166 -1184h643zM1169 -80l160 1124h230l-162 -1150q-21 -144 -112 -226t-243 -82q-77 0 -135 25l29 207
q44 -21 94 -21q121 0 139 123z" />
    <glyph glyph-name="uni01C9" unicode="&#x1c9;" horiz-adv-x="1013" 
d="M860 1221q-62 0 -98 42t-27 103q7 62 55.5 103.5t112.5 41.5q62 0 98 -41t27 -104q-9 -62 -57 -103.5t-111 -41.5zM61 0l207 1475h230l-207 -1475h-230zM436 -414q-77 0 -135 25l29 207q44 -21 94 -21q121 0 139 123l160 1124h229l-161 -1150q-21 -144 -112 -226
t-243 -82z" />
    <glyph glyph-name="uni01CA" unicode="&#x1ca;" horiz-adv-x="2385" 
d="M1094 412l139 1001h244l-199 -1413h-248l-567 999l-139 -999h-244l199 1413h247zM2144 1413h244l-137 -981q-31 -211 -177 -334t-358 -123q-123 0 -225 50l33 235q90 -49 200 -49q117 0 193.5 62.5t89.5 170.5z" />
    <glyph glyph-name="uni01CB" unicode="&#x1cb;" horiz-adv-x="2017" 
d="M1907 1511q62 0 98 -41t27 -104q-9 -62 -57 -103.5t-111 -41.5q-62 0 -98 42t-27 103q7 62 55.5 103.5t112.5 41.5zM1233 1413h244l-199 -1413h-248l-567 999l-139 -999h-244l199 1413h247l568 -1001zM1567 -80l159 1124h230l-162 -1150q-21 -144 -111.5 -226t-242.5 -82
q-77 0 -135 25l28 207q43 -21 94 -21q122 0 140 123z" />
    <glyph glyph-name="uni01CC" unicode="&#x1cc;" horiz-adv-x="1761" 
d="M1651 1511q62 0 98 -41t27 -104q-9 -62 -57 -103.5t-111 -41.5q-62 0 -98 42t-27 103q7 62 55.5 103.5t112.5 41.5zM827 0l82 582q17 120 -44 193t-179 73q-123 0 -208.5 -74t-104.5 -196l-82 -578h-230l148 1044h229l-18 -133q152 158 375 158q186 0 283 -113t71 -299
l-92 -657h-230zM1311 -80l159 1124h230l-162 -1150q-21 -144 -111.5 -226t-242.5 -82q-77 0 -135 25l28 207q43 -21 94 -21q122 0 140 123z" />
    <glyph glyph-name="uni01CD" unicode="&#x1cd;" horiz-adv-x="1464" 
d="M1014 1536h-279l-164 283h215l105 -158l149 158h217zM1092 0l-72 301h-643l-158 -301h-262l756 1413h288l359 -1413h-268zM494 526h473l-150 621z" />
    <glyph glyph-name="uni01CE" unicode="&#x1ce;" 
d="M899 1167h-278l-164 283h215l104 -158l150 158h217zM1030 1044h230l-148 -1044h-229l20 150q-76 -83 -176.5 -129t-214.5 -46q-145 0 -252.5 71.5t-156 196.5t-27.5 279q21 153 105.5 278.5t213 197t273.5 71.5q227 0 342 -174zM588 197q136 0 241 91.5t127 227.5v6
q19 139 -60 232.5t-216 93.5q-138 0 -244 -94t-125 -232t60 -231.5t217 -93.5z" />
    <glyph glyph-name="Gcaron" unicode="&#x1e6;" horiz-adv-x="1601" 
d="M1104 1536h-279l-163 283h215l104 -158l149 158h218zM897 776h672l-10 -82q-29 -204 -145 -368.5t-293.5 -257.5t-381.5 -93q-155 0 -284 56.5t-212.5 153.5t-121 232.5t-15.5 289.5q28 205 148.5 372.5t304 263t391.5 95.5q186 0 332 -75.5t223 -207.5l-205 -145
q-55 91 -153.5 142.5t-222.5 51.5q-213 0 -376 -142t-192 -355q-20 -140 28.5 -254.5t153 -179t244.5 -64.5q173 0 311 97t191 253h-418z" />
    <glyph glyph-name="gcaron" unicode="&#x1e7;" horiz-adv-x="1153" 
d="M805 1167h-279l-164 283h216l104 -158l149 158h218zM1153 1194h84l-29 -213h-73q-46 0 -82.5 -24.5t-46.5 -65.5q78 -117 57 -279q-28 -195 -185.5 -325.5t-363.5 -130.5q-106 0 -190 34q-64 -38 -70 -100q-6 -45 23.5 -72.5t84.5 -27.5h359q152 0 242.5 -79.5
t93.5 -217.5l-246 -64q4 63 -40.5 100.5t-121.5 37.5h-360q-139 0 -214.5 73.5t-58.5 192.5q10 78 56 146t114 106q-121 131 -94 327q28 195 186 326t365 131q130 0 229 -55q32 84 107 132t174 48zM827 612q12 103 -49 171.5t-166 68.5q-107 0 -187.5 -68.5t-94.5 -171.5
q-15 -102 46.5 -170.5t168.5 -68.5q105 0 186 68.5t96 170.5z" />
    <glyph glyph-name="uni01EA" unicode="&#x1ea;" horiz-adv-x="1644" 
d="M950 1438q156 0 286.5 -56t215 -153t122.5 -232.5t17 -289.5q-36 -251 -205.5 -441t-410.5 -258q-191 -87 -207 -196q-6 -44 21 -71.5t69 -27.5q53 0 107 33l32 -143q-88 -54 -198 -54q-109 0 -171 61t-48 152q9 60 48.5 115.5t102.5 97.5q-154 2 -281 59t-210 154
t-119.5 232t-14.5 287q28 205 148.5 372.5t304 263t391.5 95.5zM1341 707q29 212 -91.5 353.5t-331.5 141.5q-138 0 -260 -64t-202.5 -178t-99.5 -253q-20 -139 28 -253t151.5 -178.5t242.5 -64.5q211 0 371.5 142t191.5 354z" />
    <glyph glyph-name="uni01EB" unicode="&#x1eb;" horiz-adv-x="1261" 
d="M709 1069q156 0 274 -71.5t173 -197t34 -278.5q-26 -185 -151 -326t-304 -194q-177 -84 -194 -190q-6 -44 21 -71.5t69 -27.5q52 0 106 33l33 -143q-88 -54 -199 -54q-109 0 -171 61t-48 152q18 124 154 215q-220 17 -342.5 170.5t-91.5 374.5q21 153 112 278.5
t229.5 197t295.5 71.5zM952 522q20 139 -58.5 232.5t-217.5 93.5q-138 0 -243.5 -94t-125.5 -232q-19 -138 60 -231.5t217 -93.5q139 0 244 93.5t124 231.5z" />
    <glyph glyph-name="uni01F1" unicode="&#x1f1;" horiz-adv-x="2686" 
d="M827 1413q203 0 355 -92t222.5 -253.5t43.5 -360.5q-21 -149 -94.5 -280t-181.5 -225t-249.5 -148t-293.5 -54h-549l199 1413h548zM2720 1413l-25 -174l-895 -1010h766l-31 -229h-1101l24 174l895 1010h-743l30 229h1080zM1198 707q28 204 -88.5 340.5t-318.5 136.5h-302
l-133 -955h299q202 0 357 137t186 341z" />
    <glyph glyph-name="uni01F2" unicode="&#x1f2;" horiz-adv-x="2521" 
d="M827 1413q203 0 355 -92t222.5 -253.5t43.5 -360.5q-21 -149 -94.5 -280t-181.5 -225t-249.5 -148t-293.5 -54h-549l199 1413h548zM1198 707q28 204 -88.5 340.5t-318.5 136.5h-302l-133 -955h299q202 0 357 137t186 341zM2497 1044l-25 -165l-612 -658h534l-31 -221
h-856l25 166l612 657h-512l31 221h834z" />
    <glyph glyph-name="uni01F3" unicode="&#x1f3;" horiz-adv-x="2342" 
d="M1008 895l82 580h229l-207 -1475h-229l20 150q-76 -83 -176.5 -129t-214.5 -46q-145 0 -252.5 71.5t-156 196.5t-27.5 279q21 153 105.5 278.5t213 197t273.5 71.5q112 0 199.5 -45.5t140.5 -128.5zM2320 1044l-24 -165l-613 -658h535l-31 -221h-856l25 166l612 657h-512
l31 221h833zM588 197q133 0 236 87t128 218l6 37q12 133 -66.5 221t-211.5 88q-138 0 -244 -94t-125 -232t60 -231.5t217 -93.5z" />
    <glyph glyph-name="uni01F4" unicode="&#x1f4;" horiz-adv-x="1601" 
d="M1368 1819l-297 -283h-244l250 283h291zM897 776h672l-10 -82q-29 -204 -145 -368.5t-293.5 -257.5t-381.5 -93q-155 0 -284 56.5t-212.5 153.5t-121 232.5t-15.5 289.5q28 205 148.5 372.5t304 263t391.5 95.5q186 0 332 -75.5t223 -207.5l-205 -145
q-55 91 -153.5 142.5t-222.5 51.5q-213 0 -376 -142t-192 -355q-20 -140 28.5 -254.5t153 -179t244.5 -64.5q173 0 311 97t191 253h-418z" />
    <glyph glyph-name="uni01F5" unicode="&#x1f5;" horiz-adv-x="1153" 
d="M1071 1450l-297 -283h-244l250 283h291zM1153 1194h84l-29 -213h-73q-46 0 -82.5 -24.5t-46.5 -65.5q78 -117 57 -279q-28 -195 -185.5 -325.5t-363.5 -130.5q-106 0 -190 34q-64 -38 -70 -100q-6 -45 23.5 -72.5t84.5 -27.5h359q152 0 242.5 -79.5t93.5 -217.5l-246 -64
q4 63 -40.5 100.5t-121.5 37.5h-360q-139 0 -214.5 73.5t-58.5 192.5q10 78 56 146t114 106q-121 131 -94 327q28 195 186 326t365 131q130 0 229 -55q32 84 107 132t174 48zM827 612q12 103 -49 171.5t-166 68.5q-107 0 -187.5 -68.5t-94.5 -171.5q-15 -102 46.5 -170.5
t168.5 -68.5q105 0 186 68.5t96 170.5z" />
    <glyph glyph-name="AEacute" unicode="&#x1fc;" horiz-adv-x="1859" 
d="M1604 1819l-297 -283h-244l250 283h291zM1851 1184h-614l-49 -359h547l-33 -229h-547l-51 -367h622l-30 -229h-869l41 297h-506l-217 -297h-278l1036 1413h981zM526 522h375l90 637z" />
    <glyph glyph-name="aeacute" unicode="&#x1fd;" horiz-adv-x="1925" 
d="M1454 1450l-297 -283h-244l250 283h291zM1391 1069q154 0 269 -71t168.5 -197.5t31.5 -282.5q-8 -51 -19 -82h-846q11 -115 91 -184.5t206 -69.5q95 0 181.5 40t142.5 102l143 -131q-98 -102 -227.5 -160t-274.5 -58q-130 0 -233.5 50t-167.5 139q-82 -84 -206 -136.5
t-261 -52.5q-183 0 -284 93.5t-80 232.5q19 139 144.5 231.5t293.5 92.5h325l7 37q12 92 -52.5 148t-183.5 56q-163 0 -270 -110l-117 131q72 85 183.5 133.5t242.5 48.5q127 0 222 -45.5t147 -126.5q85 81 195 126.5t229 45.5zM1360 862q-112 0 -203 -65t-133 -172h602
q-9 107 -83 172t-183 65zM444 174q92 0 185 38t157 99q-14 47 -18 125h-307q-82 0 -137.5 -36t-61.5 -91q-9 -59 42 -97t140 -38z" />
    <glyph glyph-name="Oslashacute" unicode="&#x1fe;" horiz-adv-x="1644" 
d="M1401 1819l-297 -283h-244l250 283h291zM1661 1413l-199 -196q81 -101 115.5 -231.5t13.5 -278.5q-29 -205 -150 -373t-305 -263.5t-393 -95.5q-239 0 -405 125l-100 -100h-205l200 199q-81 99 -114.5 229.5t-12.5 278.5q28 205 148.5 372.5t304 263t391.5 95.5
q239 0 406 -123l100 98h205zM356 707q-26 -183 66 -322l749 745q-112 72 -253 72q-138 0 -260 -64t-202.5 -178t-99.5 -253zM1341 707q24 191 -67 321l-750 -743q107 -74 254 -74q211 0 371.5 142t191.5 354z" />
    <glyph glyph-name="oslashacute" unicode="&#x1ff;" horiz-adv-x="1261" 
d="M1143 1450l-297 -283h-244l250 283h291zM1251 1044l-153 -149q122 -150 92 -373q-21 -153 -112 -278.5t-230 -197t-295 -71.5q-178 0 -307 95l-72 -70h-168l156 150q-120 152 -90 372q21 153 112 278.5t229.5 197t295.5 71.5q177 0 305 -92l69 67h168zM307 522
q-15 -111 35 -196l494 479q-68 43 -160 43q-138 0 -243.5 -94t-125.5 -232zM952 522q15 117 -34 199l-496 -479q70 -45 162 -45q139 0 244 93.5t124 231.5z" />
    <glyph glyph-name="uni0200" unicode="&#x200;" horiz-adv-x="1464" 
d="M778 1536h-221l-162 283h252zM1204 1536h-223l-162 283h252zM1092 0l-72 301h-643l-158 -301h-262l756 1413h288l359 -1413h-268zM494 526h473l-150 621z" />
    <glyph glyph-name="uni0201" unicode="&#x201;" 
d="M664 1167h-222l-161 283h251zM1090 1167h-224l-161 283h251zM1030 1044h230l-148 -1044h-229l20 150q-76 -83 -176.5 -129t-214.5 -46q-145 0 -252.5 71.5t-156 196.5t-27.5 279q21 153 105.5 278.5t213 197t273.5 71.5q227 0 342 -174zM588 197q136 0 241 91.5
t127 227.5v6q19 139 -60 232.5t-216 93.5q-138 0 -244 -94t-125 -232t60 -231.5t217 -93.5z" />
    <glyph glyph-name="uni0202" unicode="&#x202;" horiz-adv-x="1464" 
d="M889 1659q-54 0 -96.5 -37t-49.5 -94h-178q19 126 117.5 210.5t230.5 84.5q131 0 207.5 -84.5t57.5 -210.5h-179q8 57 -23.5 94t-86.5 37zM1092 0l-72 301h-643l-158 -301h-262l756 1413h288l359 -1413h-268zM494 526h473l-150 621z" />
    <glyph glyph-name="uni0203" unicode="&#x203;" 
d="M774 1290q-54 0 -96 -37t-49 -94h-178q19 126 117.5 210.5t230.5 84.5q131 0 207 -84.5t57 -210.5h-178q7 57 -24 94t-87 37zM1030 1044h230l-148 -1044h-229l20 150q-76 -83 -176.5 -129t-214.5 -46q-145 0 -252.5 71.5t-156 196.5t-27.5 279q21 153 105.5 278.5
t213 197t273.5 71.5q227 0 342 -174zM588 197q136 0 241 91.5t127 227.5v6q19 139 -60 232.5t-216 93.5q-138 0 -244 -94t-125 -232t60 -231.5t217 -93.5z" />
    <glyph glyph-name="uni0204" unicode="&#x204;" horiz-adv-x="1193" 
d="M676 1536h-221l-162 283h252zM1102 1536h-223l-162 283h252zM1186 1184h-697l-49 -359h629l-33 -229h-628l-52 -367h705l-31 -229h-950l199 1413h940z" />
    <glyph glyph-name="uni0205" unicode="&#x205;" horiz-adv-x="1236" 
d="M627 1167h-221l-162 283h252zM1053 1167h-224l-161 283h252zM700 1069q154 0 270 -71t169.5 -197t31.5 -281q-7 -49 -18 -90h-848q14 -113 94.5 -180.5t206.5 -67.5q99 0 188.5 41t147.5 103l137 -133q-97 -102 -230 -160t-278 -58q-163 0 -285 72t-178.5 198t-35.5 281
q34 232 213.5 387.5t414.5 155.5zM670 862q-112 0 -204.5 -67t-135.5 -177h610q-11 110 -84.5 177t-185.5 67z" />
    <glyph glyph-name="uni0206" unicode="&#x206;" horiz-adv-x="1193" 
d="M788 1659q-54 0 -96 -37t-49 -94h-178q19 126 117.5 210.5t230.5 84.5q131 0 207 -84.5t57 -210.5h-178q7 57 -24 94t-87 37zM1186 1184h-697l-49 -359h629l-33 -229h-628l-52 -367h705l-31 -229h-950l199 1413h940z" />
    <glyph glyph-name="uni0207" unicode="&#x207;" horiz-adv-x="1236" 
d="M739 1290q-54 0 -96 -37t-49 -94h-178q19 126 117.5 210.5t230.5 84.5q131 0 207 -84.5t57 -210.5h-178q7 57 -24 94t-87 37zM700 1069q154 0 270 -71t169.5 -197t31.5 -281q-7 -49 -18 -90h-848q14 -113 94.5 -180.5t206.5 -67.5q99 0 188.5 41t147.5 103l137 -133
q-97 -102 -230 -160t-278 -58q-163 0 -285 72t-178.5 198t-35.5 281q34 232 213.5 387.5t414.5 155.5zM670 862q-112 0 -204.5 -67t-135.5 -177h610q-11 110 -84.5 177t-185.5 67z" />
    <glyph glyph-name="uni0208" unicode="&#x208;" horiz-adv-x="548" 
d="M100 1536l-161 283h251l132 -283h-222zM524 1536l-162 283h252l134 -283h-224zM80 0l199 1413h243l-198 -1413h-244z" />
    <glyph glyph-name="uni0209" unicode="&#x209;" horiz-adv-x="501" 
d="M25 1167l-162 283h252l131 -283h-221zM449 1167l-162 283h252l133 -283h-223zM61 0l148 1044h229l-147 -1044h-230z" />
    <glyph glyph-name="uni020A" unicode="&#x20a;" horiz-adv-x="548" 
d="M111 1528q19 126 117.5 210.5t230.5 84.5q131 0 207 -84.5t57 -210.5h-178q7 57 -24 94t-87 37q-54 0 -96 -37t-49 -94h-178zM80 0l199 1413h243l-198 -1413h-244z" />
    <glyph glyph-name="uni020B" unicode="&#x20b;" horiz-adv-x="501" 
d="M35 1159q19 126 117.5 210.5t230.5 84.5q131 0 207 -84.5t57 -210.5h-178q7 57 -24 94t-87 37q-54 0 -96 -37t-49 -94h-178zM61 0l148 1044h229l-147 -1044h-230z" />
    <glyph glyph-name="uni020C" unicode="&#x20c;" horiz-adv-x="1644" 
d="M647 1536l-162 283h252l131 -283h-221zM1071 1536l-162 283h252l133 -283h-223zM743 -25q-156 0 -285.5 56.5t-214 153.5t-122 232.5t-15.5 289.5q28 205 148.5 372.5t304 263t391.5 95.5q156 0 286.5 -56t215 -153t122.5 -232.5t17 -289.5q-29 -205 -150 -373
t-305 -263.5t-393 -95.5zM778 211q211 0 371.5 142t191.5 354q29 212 -91.5 353.5t-331.5 141.5q-138 0 -260 -64t-202.5 -178t-99.5 -253q-20 -139 28 -253t151.5 -178.5t242.5 -64.5z" />
    <glyph glyph-name="uni020D" unicode="&#x20d;" horiz-adv-x="1261" 
d="M406 1167l-162 283h252l131 -283h-221zM829 1167l-161 283h252l133 -283h-224zM553 -25q-157 0 -275 71.5t-172.5 197t-33.5 278.5t112 278.5t229.5 197t295.5 71.5q156 0 274 -71.5t173 -197t34 -278.5t-112 -278.5t-230 -197t-295 -71.5zM584 197q139 0 244 93.5
t124 231.5q20 139 -58.5 232.5t-217.5 93.5q-138 0 -243.5 -94t-125.5 -232q-19 -138 60 -231.5t217 -93.5z" />
    <glyph glyph-name="uni020E" unicode="&#x20e;" horiz-adv-x="1644" 
d="M657 1528q19 126 118 210.5t231 84.5q131 0 207 -84.5t57 -210.5h-178q7 57 -24 94t-87 37q-54 0 -96 -37t-49 -94h-179zM743 -25q-156 0 -285.5 56.5t-214 153.5t-122 232.5t-15.5 289.5q28 205 148.5 372.5t304 263t391.5 95.5q156 0 286.5 -56t215 -153t122.5 -232.5
t17 -289.5q-29 -205 -150 -373t-305 -263.5t-393 -95.5zM778 211q211 0 371.5 142t191.5 354q29 212 -91.5 353.5t-331.5 141.5q-138 0 -260 -64t-202.5 -178t-99.5 -253q-20 -139 28 -253t151.5 -178.5t242.5 -64.5z" />
    <glyph glyph-name="uni020F" unicode="&#x20f;" horiz-adv-x="1261" 
d="M414 1159q19 126 117.5 210.5t230.5 84.5q131 0 207 -84.5t57 -210.5h-178q7 57 -24 94t-87 37q-54 0 -96 -37t-49 -94h-178zM553 -25q-157 0 -275 71.5t-172.5 197t-33.5 278.5t112 278.5t229.5 197t295.5 71.5q156 0 274 -71.5t173 -197t34 -278.5t-112 -278.5
t-230 -197t-295 -71.5zM584 197q139 0 244 93.5t124 231.5q20 139 -58.5 232.5t-217.5 93.5q-138 0 -243.5 -94t-125.5 -232q-19 -138 60 -231.5t217 -93.5z" />
    <glyph glyph-name="uni0210" unicode="&#x210;" horiz-adv-x="1284" 
d="M690 1536h-221l-162 283h252zM1116 1536h-223l-162 283h252zM1268 965q-21 -159 -135 -276t-273 -150l305 -539h-293l-290 526h-185l-73 -526h-244l199 1413h587q130 0 228.5 -58t145 -161t28.5 -229zM1018 963q13 95 -40.5 158t-146.5 63h-342l-61 -445h340
q94 0 165 64.5t85 159.5z" />
    <glyph glyph-name="uni0211" unicode="&#x211;" horiz-adv-x="763" 
d="M426 1167h-221l-162 283h252zM852 1167h-223l-162 283h252zM416 891q147 170 350 170h39l-33 -236h-39q-151 0 -250 -84.5t-121 -226.5l-71 -514h-230l148 1044h229z" />
    <glyph glyph-name="uni0212" unicode="&#x212;" horiz-adv-x="1284" 
d="M801 1659q-54 0 -96.5 -37t-49.5 -94h-178q19 126 117.5 210.5t230.5 84.5q131 0 207.5 -84.5t57.5 -210.5h-179q8 57 -23.5 94t-86.5 37zM1268 965q-21 -159 -135 -276t-273 -150l305 -539h-293l-290 526h-185l-73 -526h-244l199 1413h587q130 0 228.5 -58t145 -161
t28.5 -229zM1018 963q13 95 -40.5 158t-146.5 63h-342l-61 -445h340q94 0 165 64.5t85 159.5z" />
    <glyph glyph-name="uni0213" unicode="&#x213;" horiz-adv-x="763" 
d="M561 1454q131 0 207 -84.5t57 -210.5h-178q8 57 -23.5 94t-86.5 37q-54 0 -96.5 -37t-49.5 -94h-178q19 126 117.5 210.5t230.5 84.5zM416 891q147 170 350 170h39l-33 -236h-39q-151 0 -250 -84.5t-121 -226.5l-71 -514h-230l148 1044h229z" />
    <glyph glyph-name="uni0214" unicode="&#x214;" horiz-adv-x="1411" 
d="M530 1536l-161 283h252l131 -283h-222zM954 1536l-161 283h251l134 -283h-224zM627 -25q-122 0 -223.5 43.5t-167.5 119t-96 181.5t-13 226l123 868h242l-119 -864q-22 -145 60.5 -241.5t228.5 -96.5q144 0 253.5 96.5t131.5 241.5l120 864h244l-121 -868
q-23 -161 -117.5 -291.5t-238 -204.5t-307.5 -74z" />
    <glyph glyph-name="uni0215" unicode="&#x215;" horiz-adv-x="1202" 
d="M375 1167l-162 283h252l131 -283h-221zM799 1167l-162 283h252l133 -283h-223zM524 -25q-218 0 -333 120.5t-87 320.5l89 628h229l-84 -598q-15 -113 44 -181t173 -68q115 0 194.5 68.5t92.5 180.5l86 598h229l-90 -628q-28 -199 -177 -320t-366 -121z" />
    <glyph glyph-name="uni0216" unicode="&#x216;" horiz-adv-x="1411" 
d="M541 1528q19 126 117.5 210.5t230.5 84.5q131 0 207 -84.5t57 -210.5h-178q7 57 -24 94t-87 37q-54 0 -96 -37t-49 -94h-178zM627 -25q-122 0 -223.5 43.5t-167.5 119t-96 181.5t-13 226l123 868h242l-119 -864q-22 -145 60.5 -241.5t228.5 -96.5q144 0 253.5 96.5
t131.5 241.5l120 864h244l-121 -868q-23 -161 -117.5 -291.5t-238 -204.5t-307.5 -74z" />
    <glyph glyph-name="uni0217" unicode="&#x217;" horiz-adv-x="1202" 
d="M385 1159q19 126 117.5 210.5t230.5 84.5q131 0 207 -84.5t57 -210.5h-178q8 57 -23.5 94t-86.5 37q-54 0 -96.5 -37t-49.5 -94h-178zM524 -25q-218 0 -333 120.5t-87 320.5l89 628h229l-84 -598q-15 -113 44 -181t173 -68q115 0 194.5 68.5t92.5 180.5l86 598h229
l-90 -628q-28 -199 -177 -320t-366 -121z" />
    <glyph glyph-name="uni0218" unicode="&#x218;" horiz-adv-x="1220" 
d="M553 -25q-159 0 -305 60.5t-236 161.5l152 186q72 -85 185 -136.5t235 -51.5q123 0 214 53t103 137q6 40 -11.5 73t-44.5 53.5t-75 39.5t-82 28t-88 21q-99 24 -176.5 58.5t-140 85.5t-90.5 124.5t-15 163.5q25 182 186 294t394 112q149 0 267 -48t185 -128l-139 -185
q-51 62 -146 102t-202 40q-118 0 -201.5 -50t-93.5 -129q-6 -45 15.5 -81t66.5 -60t90 -38.5t102 -26.5q37 -8 68.5 -16.5t84 -28t94 -41.5t86 -57.5t72 -76t41.5 -97.5t5 -122q-26 -185 -197 -302.5t-403 -117.5zM317 -457l127 334h238l-174 -334h-191z" />
    <glyph glyph-name="uni0219" unicode="&#x219;" horiz-adv-x="985" 
d="M412 -25q-254 0 -410 160l141 162q110 -123 293 -123q91 0 153.5 30.5t69.5 84.5q3 24 -7 43t-25.5 32t-47 25t-57 19t-69.5 18q-80 19 -128 36t-108 52.5t-84 94t-12 139.5q21 154 151.5 237.5t309.5 83.5q226 0 376 -139l-141 -162q-110 102 -260 102q-81 0 -137.5 -27
t-63.5 -79q-3 -24 7 -43t25 -31.5t47 -24.5t57 -18.5t71 -17.5q62 -14 102 -25.5t93.5 -37t82.5 -56.5t46 -82.5t8 -116.5q-23 -158 -158 -247t-325 -89zM188 -457l127 334h238l-174 -334h-191z" />
    <glyph glyph-name="uni021A" unicode="&#x21a;" horiz-adv-x="1208" 
d="M1278 1413l-33 -229h-426l-166 -1184h-243l165 1184h-425l30 229h1098zM297 -457l127 334h238l-175 -334h-190z" />
    <glyph glyph-name="uni021B" unicode="&#x21b;" horiz-adv-x="835" 
d="M514 836l-70 -494q-21 -145 131 -145q67 0 148 36l-31 -215q-90 -43 -196 -43q-165 0 -237 87t-50 243l76 531h-176l28 208h176l39 271h230l-39 -271h295l-31 -208h-293zM150 -457l126 334h238l-174 -334h-190z" />
    <glyph glyph-name="uni0232" unicode="&#x232;" horiz-adv-x="1380" 
d="M1124 1755l-28 -192h-518l26 192h520zM1227 1413h272l-690 -907l-70 -506h-243l71 506l-436 907h279l317 -663z" />
    <glyph glyph-name="uni0233" unicode="&#x233;" horiz-adv-x="1163" 
d="M963 1386l-29 -192h-518l26 192h521zM963 1044h256l-709 -1243q-57 -100 -145.5 -157.5t-184.5 -57.5q-66 0 -134.5 28.5t-111.5 74.5l117 178q21 -27 54 -43.5t69 -16.5q83 0 137 89l74 116l-293 1032h262l197 -761z" />
    <glyph glyph-name="uni0237" unicode="&#x237;" horiz-adv-x="512" 
d="M-66 -414q-77 0 -135 25l29 207q44 -21 94 -21q121 0 139 123l160 1124h230l-162 -1150q-21 -144 -112 -226t-243 -82z" />
    <glyph glyph-name="uni02BC" unicode="&#x2bc;" horiz-adv-x="251" 
d="M74 1038l102 437h209l-139 -437h-172z" />
    <glyph glyph-name="circumflex" unicode="&#x2c6;" horiz-adv-x="686" 
d="M776 1167h-215l-106 160l-148 -160h-217l244 283h278z" />
    <glyph glyph-name="caron" unicode="&#x2c7;" horiz-adv-x="686" 
d="M600 1450h217l-244 -283h-278l-164 283h215l105 -158z" />
    <glyph glyph-name="breve" unicode="&#x2d8;" horiz-adv-x="612" 
d="M395 1147q-132 0 -207.5 84.5t-58.5 210.5h180q-9 -55 22 -92t87 -37q54 0 96 37t51 92h178q-19 -126 -118.5 -210.5t-229.5 -84.5z" />
    <glyph glyph-name="dotaccent" unicode="&#x2d9;" horiz-adv-x="280" 
d="M231 1171q-60 0 -94 39.5t-26 98.5q7 60 53 99.5t106 39.5t94.5 -39.5t26.5 -99.5q-9 -59 -54.5 -98.5t-105.5 -39.5z" />
    <glyph glyph-name="ring" unicode="&#x2da;" horiz-adv-x="393" 
d="M285 1143q-85 0 -133.5 55t-36.5 137q10 82 75 137.5t148 55.5q85 0 133.5 -55.5t36.5 -137.5q-10 -81 -74.5 -136.5t-148.5 -55.5zM301 1260q31 0 55.5 21t28.5 54q5 32 -13 54t-50 22q-31 0 -55.5 -22t-28.5 -54q-4 -34 13.5 -54.5t49.5 -20.5z" />
    <glyph glyph-name="ogonek" unicode="&#x2db;" horiz-adv-x="440" 
d="M109 -475q-110 0 -172 61t-48 152q12 86 84.5 158t176.5 110h172l2 -6q-226 -93 -246 -213q-6 -44 21 -71t69 -27q53 0 106 32l33 -143q-86 -53 -198 -53z" />
    <glyph glyph-name="tilde" unicode="&#x2dc;" horiz-adv-x="716" 
d="M588 1182q-41 0 -76.5 14.5t-56 32.5t-47 32.5t-52.5 14.5q-38 0 -66 -25.5t-34 -62.5h-162q16 118 85 194t175 76q40 0 75 -15t55.5 -33t48 -33t53.5 -15q37 0 65.5 26t32.5 64h164q-15 -120 -85 -195t-175 -75z" />
    <glyph glyph-name="hungarumlaut" unicode="&#x2dd;" horiz-adv-x="847" 
d="M90 1167l211 283h254l-242 -283h-223zM516 1167l211 283h252l-242 -283h-221z" />
    <glyph glyph-name="gravecomb" unicode="&#x300;" horiz-adv-x="0" 
d="M-152 1167l-217 283h291l170 -283h-244z" />
    <glyph glyph-name="acutecomb" unicode="&#x301;" horiz-adv-x="0" 
d="M-410 1167l250 283h291l-297 -283h-244z" />
    <glyph glyph-name="uni0302" unicode="&#x302;" horiz-adv-x="0" 
d="M90 1167h-215l-106 160l-148 -160h-217l244 283h278z" />
    <glyph glyph-name="tildecomb" unicode="&#x303;" horiz-adv-x="0" 
d="M-129 1182q-41 0 -76 14.5t-55.5 32.5t-47 32.5t-52.5 14.5q-38 0 -66.5 -25.5t-34.5 -62.5h-162q16 118 85.5 194t175.5 76q40 0 75 -15t55.5 -33t47.5 -33t53 -15q37 0 65.5 26t32.5 64h164q-15 -120 -85 -195t-175 -75z" />
    <glyph glyph-name="uni0304" unicode="&#x304;" horiz-adv-x="0" 
d="M-424 1194l27 192h520l-29 -192h-518z" />
    <glyph glyph-name="uni0306" unicode="&#x306;" horiz-adv-x="0" 
d="M-217 1147q-132 0 -207.5 84.5t-58.5 210.5h180q-9 -56 22 -92.5t86 -36.5q54 0 96.5 37t51.5 92h178q-19 -126 -118.5 -210.5t-229.5 -84.5z" />
    <glyph glyph-name="uni0307" unicode="&#x307;" horiz-adv-x="0" 
d="M-49 1171q-60 0 -94.5 39.5t-26.5 98.5q7 60 53.5 99.5t106.5 39.5t94.5 -39.5t26.5 -99.5q-9 -59 -54.5 -98.5t-105.5 -39.5z" />
    <glyph glyph-name="uni0308" unicode="&#x308;" horiz-adv-x="0" 
d="M-477 1171q-57 0 -90 38t-25 94q7 57 52 95t102 38t89.5 -38t24.5 -95q-8 -56 -52 -94t-101 -38zM-43 1171q-57 0 -90 38t-25 94q7 57 52 95t102 38t90 -38t25 -95q-7 -55 -52 -93.5t-102 -38.5z" />
    <glyph glyph-name="uni030A" unicode="&#x30a;" horiz-adv-x="0" 
d="M-109 1143q-85 0 -133.5 55t-36.5 137q10 81 75 137t149 56q85 0 133.5 -55.5t36.5 -137.5q-10 -81 -75 -136.5t-149 -55.5zM-92 1260q31 0 55.5 21t28.5 54q5 32 -13.5 54t-50.5 22q-31 0 -55.5 -22t-28.5 -54q-4 -33 14 -54t50 -21z" />
    <glyph glyph-name="uni030B" unicode="&#x30b;" horiz-adv-x="0" 
d="M-758 1167l211 283h254l-242 -283h-223zM-332 1167l211 283h252l-242 -283h-221z" />
    <glyph glyph-name="uni030C" unicode="&#x30c;" horiz-adv-x="0" 
d="M-86 1450h217l-244 -283h-278l-164 283h215l104 -158z" />
    <glyph glyph-name="uni030F" unicode="&#x30f;" horiz-adv-x="0" 
d="M-555 1167l-162 283h252l131 -283h-221zM-131 1167l-162 283h252l133 -283h-223z" />
    <glyph glyph-name="uni0311" unicode="&#x311;" horiz-adv-x="0" 
d="M-522 1159q19 126 117.5 210.5t230.5 84.5q131 0 207 -84.5t57 -210.5h-178q7 57 -24 94t-87 37q-54 0 -96 -37t-49 -94h-178z" />
    <glyph glyph-name="uni0312" unicode="&#x312;" horiz-adv-x="0" 
d="M-227 1159l174 336h188l-125 -336h-237z" />
    <glyph glyph-name="dotbelowcomb" unicode="&#x323;" horiz-adv-x="0" 
d="M-270 -403q-60 0 -94.5 39.5t-26.5 99.5q7 58 53.5 97.5t106.5 39.5q59 0 93 -39.5t27 -97.5q-7 -59 -53.5 -99t-105.5 -40z" />
    <glyph glyph-name="uni0326" unicode="&#x326;" horiz-adv-x="0" 
d="M-455 -457l127 334h238l-174 -334h-191z" />
    <glyph glyph-name="uni0327" unicode="&#x327;" horiz-adv-x="0" 
d="M-279 -63q84 -1 132 -60.5t34 -144.5q-11 -92 -86 -154.5t-176 -62.5q-65 0 -117.5 28t-85.5 76l95 96q21 -33 54 -53t69 -20q41 0 72.5 26t35.5 64q6 36 -16.5 61t-59.5 25q-40 0 -69 -29l-121 59l141 152v4h162v-4z" />
    <glyph glyph-name="uni0328" unicode="&#x328;" horiz-adv-x="0" 
d="M-332 -475q-109 0 -171 61t-48 152q12 86 84 158t176 110h172l2 -6q-225 -93 -245 -213q-6 -44 21 -71t69 -27q53 0 106 32l33 -143q-86 -53 -199 -53z" />
    <glyph glyph-name="uni0335" unicode="&#x335;" horiz-adv-x="0" 
d="M-618 479l24 166h612l-22 -166h-614z" />
    <glyph glyph-name="uni0336" unicode="&#x336;" horiz-adv-x="0" 
d="M-1415 477l24 168h1407l-22 -168h-1409z" />
    <glyph glyph-name="uni0337" unicode="&#x337;" horiz-adv-x="0" 
d="M-1171 0l1077 1044h168l-1078 -1044h-167z" />
    <glyph glyph-name="uni0338" unicode="&#x338;" horiz-adv-x="0" 
d="M-1503 0l1423 1413h205l-1423 -1413h-205z" />
    <glyph glyph-name="uni03BC" unicode="&#x3bc;" horiz-adv-x="1245" 
d="M954 1044h230l-148 -1044h-229l16 119q-138 -144 -336 -144q-115 0 -192 50l-59 -414h-230l203 1433h229l-82 -591q-17 -116 41 -186t172 -70q120 0 203 71.5t98 188.5z" />
    <glyph glyph-name="uni1E0C" unicode="&#x1e0c;" horiz-adv-x="1499" 
d="M827 1413q203 0 355 -92t222.5 -253.5t43.5 -360.5q-21 -149 -94.5 -280t-181.5 -225t-249.5 -148t-293.5 -54h-549l199 1413h548zM1198 707q28 204 -88.5 340.5t-318.5 136.5h-302l-133 -955h299q202 0 357 137t186 341zM643 -127q59 0 93.5 -39.5t27.5 -97.5
q-7 -59 -54 -99t-106 -40q-60 0 -94.5 39.5t-26.5 99.5q7 58 53.5 97.5t106.5 39.5z" />
    <glyph glyph-name="uni1E0D" unicode="&#x1e0d;" 
d="M1090 1475h229l-207 -1475h-229l20 150q-76 -83 -176.5 -129t-214.5 -46q-145 0 -252.5 71.5t-156 196.5t-27.5 279q21 153 105.5 278.5t213 197t273.5 71.5q112 0 199.5 -45.5t140.5 -128.5zM588 197q133 0 236 87t128 218l6 37q12 133 -66.5 221t-211.5 88
q-138 0 -244 -94t-125 -232t60 -231.5t217 -93.5zM565 -127q59 0 93.5 -39.5t27.5 -97.5q-7 -59 -54 -99t-106 -40q-60 0 -94 39.5t-26 99.5q7 58 53 97.5t106 39.5z" />
    <glyph glyph-name="uni1E24" unicode="&#x1e24;" horiz-adv-x="1484" 
d="M1214 1413h242l-199 -1413h-241l84 596h-692l-84 -596h-244l199 1413h243l-82 -588h693zM653 -127q59 0 93.5 -39.5t27.5 -97.5q-7 -59 -54 -99t-106 -40q-60 0 -94 39.5t-26 99.5q7 58 53 97.5t106 39.5z" />
    <glyph glyph-name="uni1E25" unicode="&#x1e25;" horiz-adv-x="1249" 
d="M795 1069q186 0 283 -113t71 -299l-92 -657h-230l82 582q17 120 -43.5 193t-177.5 73q-124 0 -210 -74t-105 -196l-82 -578h-230l207 1475h230l-80 -572q153 166 377 166zM543 -127q59 0 93.5 -39.5t27.5 -97.5q-7 -59 -54 -99t-106 -40q-60 0 -94.5 39.5t-26.5 99.5
q7 58 53.5 97.5t106.5 39.5z" />
    <glyph glyph-name="uni1E44" unicode="&#x1e44;" horiz-adv-x="1505" 
d="M901 1540q-60 0 -94.5 39t-26.5 98q7 60 53.5 100t106.5 40t94.5 -40t26.5 -100q-9 -59 -54.5 -98t-105.5 -39zM1233 1413h244l-199 -1413h-248l-567 999l-139 -999h-244l199 1413h247l568 -1001z" />
    <glyph glyph-name="uni1E45" unicode="&#x1e45;" horiz-adv-x="1249" 
d="M725 1171q-60 0 -94.5 39.5t-26.5 98.5q7 60 53.5 99.5t106.5 39.5t94.5 -39.5t26.5 -99.5q-9 -59 -54.5 -98.5t-105.5 -39.5zM795 1069q186 0 283 -113t71 -299l-92 -657h-230l82 582q17 120 -44 193t-179 73q-123 0 -208.5 -74t-104.5 -196l-82 -578h-230l148 1044h229
l-18 -133q152 158 375 158z" />
    <glyph glyph-name="uni1E5A" unicode="&#x1e5a;" horiz-adv-x="1284" 
d="M1268 965q-21 -159 -135 -276t-273 -150l305 -539h-293l-290 526h-185l-73 -526h-244l199 1413h587q130 0 228.5 -58t145 -161t28.5 -229zM1018 963q13 95 -40.5 158t-146.5 63h-342l-61 -445h340q94 0 165 64.5t85 159.5zM553 -127q59 0 93.5 -39.5t27.5 -97.5
q-7 -59 -54 -99t-106 -40q-60 0 -94.5 39.5t-26.5 99.5q7 58 53.5 97.5t106.5 39.5z" />
    <glyph glyph-name="uni1E5B" unicode="&#x1e5b;" horiz-adv-x="763" 
d="M766 1061h39l-33 -236h-39q-151 0 -250 -84.5t-121 -226.5l-71 -514h-230l148 1044h229l-22 -153q147 170 350 170zM160 -127q59 0 93.5 -39.5t27.5 -97.5q-7 -59 -54 -99t-106 -40q-60 0 -94.5 39.5t-26.5 99.5q7 58 53.5 97.5t106.5 39.5z" />
    <glyph glyph-name="uni1E62" unicode="&#x1e62;" horiz-adv-x="1220" 
d="M553 -25q-159 0 -305 60.5t-236 161.5l152 186q72 -85 185 -136.5t235 -51.5q123 0 214 53t103 137q6 40 -11.5 73t-44.5 53.5t-75 39.5t-82 28t-88 21q-99 24 -176.5 58.5t-140 85.5t-90.5 124.5t-15 163.5q25 182 186 294t394 112q149 0 267 -48t185 -128l-139 -185
q-51 62 -146 102t-202 40q-118 0 -201.5 -50t-93.5 -129q-6 -45 15.5 -81t66.5 -60t90 -38.5t102 -26.5q37 -8 68.5 -16.5t84 -28t94 -41.5t86 -57.5t72 -76t41.5 -97.5t5 -122q-26 -185 -197 -302.5t-403 -117.5zM496 -403q-60 0 -94.5 39.5t-26.5 99.5q7 58 53.5 97.5
t106.5 39.5q59 0 93 -39.5t27 -97.5q-7 -59 -53.5 -99t-105.5 -40z" />
    <glyph glyph-name="uni1E63" unicode="&#x1e63;" horiz-adv-x="985" 
d="M412 -25q-254 0 -410 160l141 162q110 -123 293 -123q91 0 153.5 30.5t69.5 84.5q3 24 -7 43t-25.5 32t-47 25t-57 19t-69.5 18q-80 19 -128 36t-108 52.5t-84 94t-12 139.5q21 154 151.5 237.5t309.5 83.5q226 0 376 -139l-141 -162q-110 102 -260 102q-81 0 -137.5 -27
t-63.5 -79q-3 -24 7 -43t25 -31.5t47 -24.5t57 -18.5t71 -17.5q62 -14 102 -25.5t93.5 -37t82.5 -56.5t46 -82.5t8 -116.5q-23 -158 -158 -247t-325 -89zM367 -403q-60 0 -94.5 39.5t-26.5 99.5q7 58 53.5 97.5t106.5 39.5q59 0 93 -39.5t27 -97.5q-7 -59 -53.5 -99
t-105.5 -40z" />
    <glyph glyph-name="uni1E6C" unicode="&#x1e6c;" horiz-adv-x="1208" 
d="M1278 1413l-33 -229h-426l-166 -1184h-243l165 1184h-425l30 229h1098zM514 -127q59 0 93.5 -39.5t27.5 -97.5q-7 -59 -54 -99t-106 -40q-60 0 -94.5 39.5t-26.5 99.5q7 58 53.5 97.5t106.5 39.5z" />
    <glyph glyph-name="uni1E6D" unicode="&#x1e6d;" horiz-adv-x="835" 
d="M514 836l-70 -494q-21 -145 131 -145q67 0 148 36l-31 -215q-90 -43 -196 -43q-165 0 -237 87t-50 243l76 531h-176l28 208h176l39 271h230l-39 -271h295l-31 -208h-293zM367 -127q59 0 93 -39.5t27 -97.5q-7 -59 -53.5 -99t-105.5 -40q-60 0 -94.5 39.5t-26.5 99.5
q7 58 53.5 97.5t106.5 39.5z" />
    <glyph glyph-name="Wgrave" unicode="&#x1e80;" horiz-adv-x="2074" 
d="M1317 1536h-244l-217 283h291zM1909 1413h252l-643 -1413h-246l-160 1047l-457 -1047h-243l-248 1413h260l162 -1083l473 1083h215l168 -1083z" />
    <glyph glyph-name="wgrave" unicode="&#x1e81;" horiz-adv-x="1771" 
d="M1114 1167h-244l-217 283h291zM1573 1044h248l-523 -1044h-237l-141 770l-357 -770h-237l-228 1044h256l138 -759l354 759h233l142 -755z" />
    <glyph glyph-name="Wacute" unicode="&#x1e82;" horiz-adv-x="2074" 
d="M1585 1819l-297 -283h-244l250 283h291zM1909 1413h252l-643 -1413h-246l-160 1047l-457 -1047h-243l-248 1413h260l162 -1083l473 1083h215l168 -1083z" />
    <glyph glyph-name="wacute" unicode="&#x1e83;" horiz-adv-x="1771" 
d="M1380 1450l-297 -283h-243l250 283h290zM1573 1044h248l-523 -1044h-237l-141 770l-357 -770h-237l-228 1044h256l138 -759l354 759h233l142 -755z" />
    <glyph glyph-name="Wdieresis" unicode="&#x1e84;" horiz-adv-x="2074" 
d="M965 1540q-57 0 -90 37.5t-25 93.5q7 57 52 95t102 38t89.5 -38t24.5 -95q-7 -55 -51.5 -93t-101.5 -38zM1399 1540q-57 0 -90 37.5t-25 93.5q7 57 52 95t102 38t89.5 -38t24.5 -95q-7 -55 -51.5 -93t-101.5 -38zM1909 1413h252l-643 -1413h-246l-160 1047l-457 -1047
h-243l-248 1413h260l162 -1083l473 1083h215l168 -1083z" />
    <glyph glyph-name="wdieresis" unicode="&#x1e85;" horiz-adv-x="1771" 
d="M760 1171q-57 0 -90 38t-25 94q7 57 52 95t102 38t89.5 -38t24.5 -95q-8 -56 -52 -94t-101 -38zM1194 1171q-57 0 -90 38t-25 94q7 57 52 95t102 38t90 -38t25 -95q-7 -55 -52 -93.5t-102 -38.5zM1573 1044h248l-523 -1044h-237l-141 770l-357 -770h-237l-228 1044h256
l138 -759l354 759h233l142 -755z" />
    <glyph glyph-name="uni1E92" unicode="&#x1e92;" horiz-adv-x="1257" 
d="M1290 1413l-24 -174l-895 -1010h766l-31 -229h-1102l25 174l895 1010h-744l31 229h1079zM537 -127q59 0 93 -39.5t27 -97.5q-7 -59 -53.5 -99t-105.5 -40q-60 0 -94.5 39.5t-26.5 99.5q7 58 53.5 97.5t106.5 39.5z" />
    <glyph glyph-name="uni1E93" unicode="&#x1e93;" horiz-adv-x="1019" 
d="M997 1044l-24 -165l-613 -658h535l-31 -221h-856l25 166l612 657h-512l31 221h833zM420 -127q59 0 93.5 -39.5t27.5 -97.5q-7 -59 -54 -99t-106 -40q-60 0 -94.5 39.5t-26.5 99.5q7 58 53.5 97.5t106.5 39.5z" />
    <glyph glyph-name="uni1E9E" unicode="&#x1e9e;" horiz-adv-x="1329" 
d="M1307 1413l-27 -201l-307 -350q156 -32 240 -154.5t61 -287.5q-26 -190 -175 -317.5t-343 -127.5q-63 0 -128 17.5t-104 44.5l35 244q26 -30 81 -50t110 -20q106 0 184.5 62.5t91.5 158.5q12 91 -41.5 153t-146.5 62h-152l25 178l297 359h-387q-62 0 -106.5 -39.5
t-53.5 -102.5l-146 -1042h-243l149 1069q22 152 135 248t271 96h680z" />
    <glyph glyph-name="uni1EA0" unicode="&#x1ea0;" horiz-adv-x="1464" 
d="M1360 0h-268l-72 301h-643l-158 -301h-262l756 1413h288zM494 526h473l-150 621zM639 -127q59 0 93.5 -39.5t27.5 -97.5q-7 -59 -54 -99t-106 -40q-60 0 -94.5 39.5t-26.5 99.5q7 58 53.5 97.5t106.5 39.5z" />
    <glyph glyph-name="uni1EA1" unicode="&#x1ea1;" 
d="M1030 1044h230l-148 -1044h-229l20 150q-76 -83 -176.5 -129t-214.5 -46q-145 0 -252.5 71.5t-156 196.5t-27.5 279q21 153 105.5 278.5t213 197t273.5 71.5q227 0 342 -174zM588 197q136 0 241 91.5t127 227.5v6q19 139 -60 232.5t-216 93.5q-138 0 -244 -94t-125 -232
t60 -231.5t217 -93.5zM578 -127q59 0 93 -39.5t27 -97.5q-7 -59 -53.5 -99t-105.5 -40q-60 0 -94.5 39.5t-26.5 99.5q7 58 53.5 97.5t106.5 39.5z" />
    <glyph glyph-name="uni1EB8" unicode="&#x1eb8;" horiz-adv-x="1193" 
d="M1186 1184h-697l-49 -359h629l-33 -229h-628l-52 -367h705l-31 -229h-950l199 1413h940zM539 -127q59 0 93 -39.5t27 -97.5q-7 -59 -53.5 -99t-105.5 -40q-60 0 -94.5 39.5t-26.5 99.5q7 58 53.5 97.5t106.5 39.5z" />
    <glyph glyph-name="uni1EB9" unicode="&#x1eb9;" horiz-adv-x="1236" 
d="M700 1069q154 0 270 -71t169.5 -197t31.5 -281q-7 -49 -18 -90h-848q14 -113 94.5 -180.5t206.5 -67.5q99 0 188.5 41t147.5 103l137 -133q-97 -102 -230 -160t-278 -58q-163 0 -285 72t-178.5 198t-35.5 281q34 232 213.5 387.5t414.5 155.5zM670 862q-112 0 -204.5 -67
t-135.5 -177h610q-11 110 -84.5 177t-185.5 67zM541 -127q59 0 93.5 -39.5t27.5 -97.5q-7 -59 -54 -99t-106 -40q-60 0 -94.5 39.5t-26.5 99.5q7 58 53.5 97.5t106.5 39.5z" />
    <glyph glyph-name="uni1EBC" unicode="&#x1ebc;" horiz-adv-x="1193" 
d="M678 1645q-38 0 -66 -26t-34 -63h-162q16 118 85.5 194.5t174.5 76.5q40 0 75 -15t55.5 -33t47.5 -33t53 -15q37 0 66 26t33 64h163q-15 -120 -85 -195.5t-175 -75.5q-41 0 -76 15t-55.5 32.5t-47 32.5t-52.5 15zM1186 1184h-697l-49 -359h629l-33 -229h-628l-52 -367
h705l-31 -229h-950l199 1413h940z" />
    <glyph glyph-name="uni1EBD" unicode="&#x1ebd;" horiz-adv-x="1236" 
d="M629 1276q-38 0 -66.5 -25.5t-34.5 -62.5h-161q16 118 85 194t175 76q40 0 75 -15t55.5 -33t47.5 -33t53 -15q37 0 65.5 26t32.5 64h164q-15 -120 -85 -195t-175 -75q-41 0 -76 14.5t-55.5 32.5t-47 32.5t-52.5 14.5zM700 1069q154 0 270 -71t169.5 -197t31.5 -281
q-7 -49 -18 -90h-848q14 -113 94.5 -180.5t206.5 -67.5q99 0 188.5 41t147.5 103l137 -133q-97 -102 -230 -160t-278 -58q-163 0 -285 72t-178.5 198t-35.5 281q34 232 213.5 387.5t414.5 155.5zM670 862q-112 0 -204.5 -67t-135.5 -177h610q-11 110 -84.5 177t-185.5 67z
" />
    <glyph glyph-name="uni1ECA" unicode="&#x1eca;" horiz-adv-x="548" 
d="M80 0l199 1413h243l-198 -1413h-244zM145 -403q-60 0 -94 39.5t-26 99.5q7 58 53 97.5t106 39.5q59 0 93.5 -39.5t27.5 -97.5q-7 -59 -54 -99t-106 -40z" />
    <glyph glyph-name="uni1ECB" unicode="&#x1ecb;" horiz-adv-x="501" 
d="M348 1221q-63 0 -99 41.5t-28 103.5q9 62 57.5 103.5t110.5 41.5q63 0 99.5 -41t27.5 -104q-9 -62 -57 -103.5t-111 -41.5zM61 0l148 1044h229l-147 -1044h-230zM121 -403q-60 0 -94.5 39.5t-26.5 99.5q7 58 53.5 97.5t106.5 39.5q59 0 93.5 -39.5t27.5 -97.5
q-7 -59 -54 -99t-106 -40z" />
    <glyph glyph-name="uni1ECC" unicode="&#x1ecc;" horiz-adv-x="1644" 
d="M743 -25q-156 0 -285.5 56.5t-214 153.5t-122 232.5t-15.5 289.5q28 205 148.5 372.5t304 263t391.5 95.5q156 0 286.5 -56t215 -153t122.5 -232.5t17 -289.5q-29 -205 -150 -373t-305 -263.5t-393 -95.5zM778 211q211 0 371.5 142t191.5 354q29 212 -91.5 353.5
t-331.5 141.5q-138 0 -260 -64t-202.5 -178t-99.5 -253q-20 -139 28 -253t151.5 -178.5t242.5 -64.5zM692 -403q-60 0 -94.5 39.5t-26.5 99.5q7 58 53.5 97.5t106.5 39.5q59 0 93.5 -39.5t27.5 -97.5q-7 -59 -54 -99t-106 -40z" />
    <glyph glyph-name="uni1ECD" unicode="&#x1ecd;" horiz-adv-x="1261" 
d="M553 -25q-157 0 -275 71.5t-172.5 197t-33.5 278.5t112 278.5t229.5 197t295.5 71.5q156 0 274 -71.5t173 -197t34 -278.5t-112 -278.5t-230 -197t-295 -71.5zM584 197q139 0 244 93.5t124 231.5q20 139 -58.5 232.5t-217.5 93.5q-138 0 -243.5 -94t-125.5 -232
q-19 -138 60 -231.5t217 -93.5zM500 -403q-60 0 -94.5 39.5t-26.5 99.5q7 58 53.5 97.5t106.5 39.5q59 0 93 -39.5t27 -97.5q-7 -59 -53.5 -99t-105.5 -40z" />
    <glyph glyph-name="uni1EE4" unicode="&#x1ee4;" horiz-adv-x="1411" 
d="M627 -25q-122 0 -223.5 43.5t-167.5 119t-96 181.5t-13 226l123 868h242l-119 -864q-22 -145 60.5 -241.5t228.5 -96.5q144 0 253.5 96.5t131.5 241.5l120 864h244l-121 -868q-23 -161 -117.5 -291.5t-238 -204.5t-307.5 -74zM575 -403q-60 0 -94 39.5t-26 99.5
q7 58 53 97.5t106 39.5q59 0 93.5 -39.5t27.5 -97.5q-7 -59 -54 -99t-106 -40z" />
    <glyph glyph-name="uni1EE5" unicode="&#x1ee5;" horiz-adv-x="1202" 
d="M524 -25q-218 0 -333 120.5t-87 320.5l89 628h229l-84 -598q-15 -113 44 -181t173 -68q115 0 194.5 68.5t92.5 180.5l86 598h229l-90 -628q-28 -199 -177 -320t-366 -121zM471 -403q-60 0 -94.5 39.5t-26.5 99.5q7 58 53.5 97.5t106.5 39.5q59 0 93.5 -39.5t27.5 -97.5
q-7 -59 -54 -99t-106 -40z" />
    <glyph glyph-name="Ygrave" unicode="&#x1ef2;" horiz-adv-x="1380" 
d="M971 1536h-244l-217 283h291zM1227 1413h272l-690 -907l-70 -506h-243l71 506l-436 907h279l317 -663z" />
    <glyph glyph-name="ygrave" unicode="&#x1ef3;" horiz-adv-x="1163" 
d="M809 1167h-244l-217 283h291zM963 1044h256l-709 -1243q-57 -100 -145.5 -157.5t-184.5 -57.5q-66 0 -134.5 28.5t-111.5 74.5l117 178q21 -27 54 -43.5t69 -16.5q83 0 137 89l74 116l-293 1032h262l197 -761z" />
    <glyph glyph-name="uni1EF8" unicode="&#x1ef8;" horiz-adv-x="1380" 
d="M739 1645q-38 0 -66 -26t-34 -63h-162q16 118 85.5 194.5t174.5 76.5q40 0 75 -15t55.5 -33t48 -33t53.5 -15q37 0 65.5 26t32.5 64h164q-15 -120 -85 -195.5t-175 -75.5q-41 0 -76.5 15t-56 32.5t-47 32.5t-52.5 15zM1227 1413h272l-690 -907l-70 -506h-243l71 506
l-436 907h279l317 -663z" />
    <glyph glyph-name="uni1EF9" unicode="&#x1ef9;" horiz-adv-x="1163" 
d="M580 1276q-38 0 -66.5 -25.5t-34.5 -62.5h-162q16 118 85.5 194t175.5 76q40 0 75 -15t55.5 -33t47.5 -33t53 -15q37 0 65.5 26t32.5 64h164q-15 -120 -85 -195t-175 -75q-41 0 -76 14.5t-55.5 32.5t-47 32.5t-52.5 14.5zM963 1044h256l-709 -1243
q-57 -100 -145.5 -157.5t-184.5 -57.5q-66 0 -134.5 28.5t-111.5 74.5l117 178q21 -27 54 -43.5t69 -16.5q83 0 137 89l74 116l-293 1032h262l197 -761z" />
    <glyph glyph-name="endash" unicode="&#x2013;" horiz-adv-x="1245" 
d="M115 457l28 207h1000l-31 -207h-997z" />
    <glyph glyph-name="emdash" unicode="&#x2014;" horiz-adv-x="2187" 
d="M115 457l28 207h1942l-31 -207h-1939z" />
    <glyph glyph-name="quoteleft" unicode="&#x2018;" horiz-adv-x="538" 
d="M139 874l289 539h199l-217 -539h-271z" />
    <glyph glyph-name="quoteright" unicode="&#x2019;" horiz-adv-x="538" 
d="M139 874l217 539h271l-289 -539h-199z" />
    <glyph glyph-name="quotesinglbase" unicode="&#x201a;" horiz-adv-x="514" 
d="M-90 -285l219 539h268l-288 -539h-199z" />
    <glyph glyph-name="quotedblleft" unicode="&#x201c;" horiz-adv-x="995" 
d="M139 874l289 539h199l-217 -539h-271zM596 874l289 539h198l-217 -539h-270z" />
    <glyph glyph-name="quotedblright" unicode="&#x201d;" horiz-adv-x="995" 
d="M139 874l217 539h271l-289 -539h-199zM596 874l217 539h270l-288 -539h-199z" />
    <glyph glyph-name="quotedblbase" unicode="&#x201e;" horiz-adv-x="970" 
d="M-90 -285l219 539h268l-288 -539h-199zM367 -285l219 539h268l-289 -539h-198z" />
    <glyph glyph-name="dagger" unicode="&#x2020;" horiz-adv-x="1011" 
d="M963 1044l-31 -206h-279l-172 -1227h-209l172 1227h-276l29 206h278l51 369h209l-51 -369h279z" />
    <glyph glyph-name="daggerdbl" unicode="&#x2021;" horiz-adv-x="1011" 
d="M932 838h-279l-86 -611h279l-27 -207h-280l-58 -409h-209l58 409h-277l29 207h276l86 611h-276l29 206h278l51 369h209l-51 -369h279z" />
    <glyph glyph-name="bullet" unicode="&#x2022;" horiz-adv-x="690" 
d="M319 340q-95 0 -149 63t-41 158q14 95 85.5 158t166.5 63q94 0 149 -63t43 -158q-13 -95 -86.5 -158t-167.5 -63z" />
    <glyph glyph-name="ellipsis" unicode="&#x2026;" horiz-adv-x="1566" 
d="M176 -16q-69 0 -109.5 46t-31.5 115q11 69 64.5 116.5t123.5 47.5q69 0 110 -47.5t32 -116.5q-11 -69 -65 -115t-124 -46zM707 -16q-69 0 -109.5 46t-30.5 115q9 69 63 116.5t124 47.5q69 0 109.5 -47.5t31.5 -116.5q-11 -69 -64.5 -115t-123.5 -46zM1237 -16
q-69 0 -109 46t-30 115q9 69 62.5 116.5t123.5 47.5t110 -47t31 -117q-11 -69 -64.5 -115t-123.5 -46z" />
    <glyph glyph-name="perthousand" unicode="&#x2030;" horiz-adv-x="2514" 
d="M465 764q-146 0 -230.5 96.5t-64.5 241.5q20 143 132 239.5t259 96.5q146 0 229.5 -96.5t63.5 -239.5q-20 -145 -131.5 -241.5t-257.5 -96.5zM164 0l1222 1413h246l-1222 -1413h-246zM489 948q64 0 114 44.5t61 109.5q9 64 -27.5 106.5t-101.5 42.5t-114.5 -42.5
t-58.5 -106.5q-10 -64 27 -109t100 -45zM1233 -25q-146 0 -230.5 96.5t-64.5 241.5q22 145 133.5 240.5t257.5 95.5q147 0 231 -95.5t64 -240.5q-22 -145 -133.5 -241.5t-257.5 -96.5zM2007 -25q-146 0 -230.5 96.5t-64.5 241.5q22 145 132.5 240.5t258.5 95.5
q147 0 231 -96t62 -240q-20 -145 -131.5 -241.5t-257.5 -96.5zM1260 162q64 0 113.5 43t58.5 108t-28 108.5t-101 43.5t-114 -43.5t-59 -108.5q-9 -64 28 -107.5t102 -43.5zM2034 162q64 0 113.5 43t58.5 108t-28 108.5t-101 43.5t-113.5 -43.5t-58.5 -108.5t28 -108
t101 -43z" />
    <glyph glyph-name="guilsinglleft" unicode="&#x2039;" horiz-adv-x="745" 
d="M729 958l-383 -417l266 -418h-270l-266 418l383 417h270z" />
    <glyph glyph-name="guilsinglright" unicode="&#x203a;" horiz-adv-x="745" 
d="M416 958l266 -417l-383 -418h-270l385 418l-269 417h271z" />
    <glyph glyph-name="fraction" unicode="&#x2044;" horiz-adv-x="389" 
d="M-473 0l1175 1413h213l-1177 -1413h-211z" />
    <glyph glyph-name="uni2070" unicode="&#x2070;" horiz-adv-x="808" 
d="M420 735q-147 0 -223 122.5t-50 316.5q28 194 138 316t258 122q146 0 222 -122.5t48 -315.5q-26 -193 -136.5 -316t-256.5 -123zM442 897q70 0 125 77.5t72 199.5q19 121 -15 198.5t-104 77.5q-69 0 -124 -76.5t-74 -199.5q-17 -122 17 -199.5t103 -77.5z" />
    <glyph glyph-name="uni2074" unicode="&#x2074;" horiz-adv-x="739" 
d="M772 1073l-22 -160h-91l-22 -163h-170l22 163h-360l-20 140l460 544h187l-74 -524h90zM285 1073h227l47 328z" />
    <glyph glyph-name="uni2075" unicode="&#x2075;" horiz-adv-x="720" 
d="M496 1294q124 0 196.5 -78.5t57.5 -195.5q-17 -122 -121 -203.5t-246 -81.5q-168 0 -283 115l103 137q34 -42 85 -66t107 -24q72 0 122 37.5t58 91.5q8 51 -26 85t-94 34q-78 0 -136 -49l-141 45l105 456h487l-20 -157h-347l-38 -174q65 28 131 28z" />
    <glyph glyph-name="uni2076" unicode="&#x2076;" horiz-adv-x="698" 
d="M514 1292q113 0 178.5 -78.5t50.5 -191.5q-19 -124 -122 -205.5t-240 -81.5q-146 0 -221.5 93.5t-53.5 250.5q28 202 193.5 351.5t411.5 181.5l8 -158q-127 -21 -224 -78.5t-149 -134.5q70 51 168 51zM567 1020q8 51 -28 86t-99 35q-60 0 -109.5 -31.5t-56.5 -85.5
q-8 -56 28 -92.5t101 -36.5q63 0 110 35.5t54 89.5z" />
    <glyph glyph-name="uni2077" unicode="&#x2077;" horiz-adv-x="661" 
d="M197 1597h565l-17 -133l-426 -714h-190l410 688h-365z" />
    <glyph glyph-name="uni2078" unicode="&#x2078;" horiz-adv-x="716" 
d="M780 1376q-15 -116 -139 -186q56 -33 83.5 -86t18.5 -117q-15 -106 -117.5 -179t-238.5 -73t-218 72.5t-67 179.5q9 63 51 115.5t107 87.5q-48 31 -71.5 80t-14.5 106q14 99 109.5 167.5t226.5 68.5q130 0 207.5 -68.5t62.5 -167.5zM344 1358q-6 -41 28 -69.5t89 -28.5
q56 0 97.5 28.5t45.5 69.5q6 42 -27 70t-90 28q-54 0 -95.5 -28.5t-47.5 -69.5zM573 1004q6 46 -33 77t-102 31q-61 0 -107 -31t-52 -77t31 -77.5t98 -31.5q64 0 111.5 31.5t53.5 77.5z" />
    <glyph glyph-name="uni2079" unicode="&#x2079;" horiz-adv-x="698" 
d="M500 1612q147 0 222 -94t52 -250q-28 -206 -195 -359t-407 -174l-10 158q127 14 224.5 72.5t150.5 140.5q-74 -51 -168 -51q-113 0 -178 78.5t-50 191.5q17 124 119.5 205.5t239.5 81.5zM608 1323q8 56 -29 92.5t-102 36.5q-62 0 -108.5 -35.5t-53.5 -89.5q-8 -51 28 -86
t97 -35t111 31.5t57 85.5z" />
    <glyph glyph-name="franc" unicode="&#x20a3;" horiz-adv-x="1140" 
d="M1157 1184h-625l-47 -344h541l-31 -230h-542l-27 -194h379l-31 -211h-379l-28 -205h-244l29 205h-121l30 211h121l140 997h868z" />
    <glyph glyph-name="lira" unicode="&#x20a4;" horiz-adv-x="1191" 
d="M453 440l-29 -211h659l-32 -229h-1026l32 229h121l29 211h-121l25 170h120l15 99h-121l22 170h121l15 96q28 198 187 330.5t366 132.5q120 0 220 -46.5t167 -127.5l-152 -179q-50 55 -120 86t-146 31q-108 0 -186 -64t-93 -163l-14 -96h412l-23 -170h-412l-14 -99h412
l-25 -170h-409z" />
    <glyph glyph-name="peseta" unicode="&#x20a7;" horiz-adv-x="1343" 
d="M1393 1006l-23 -158h-92q-54 -181 -208 -296.5t-347 -115.5h-279l-61 -432h-244l119 844h-123l23 158h123l57 411h522q192 0 313.5 -115t124.5 -296h95zM549 1188l-25 -182h518q-12 82 -71 132t-148 50h-274zM750 666q88 0 162 50.5t110 131.5h-520l-27 -182h275z" />
    <glyph glyph-name="uni20A8" unicode="&#x20a8;" horiz-adv-x="2265" 
d="M866 1413q130 0 228.5 -58t145 -161t28.5 -229q-21 -159 -135 -276t-273 -150l305 -539h-293l-290 526h-185l-73 -526h-244l199 1413h587zM1018 963q13 95 -40.5 158t-146.5 63h-342l-61 -445h340q94 0 165 64.5t85 159.5zM1843 629q62 -14 102 -25.5t93.5 -37
t82.5 -56.5t46 -82.5t8 -116.5q-23 -158 -158 -247t-325 -89q-254 0 -410 160l141 162q110 -123 293 -123q91 0 153.5 30.5t69.5 84.5q3 24 -7 43t-25.5 32t-47 25t-57 19t-69.5 18q-80 19 -128 36t-108 52.5t-84 94t-12 139.5q21 154 151.5 237.5t309.5 83.5
q226 0 376 -139l-141 -162q-110 102 -260 102q-81 0 -137.5 -27t-63.5 -79q-3 -24 7 -43t25 -31.5t47 -24.5t57 -18.5t71 -17.5z" />
    <glyph glyph-name="Euro" unicode="&#x20ac;" horiz-adv-x="1546" 
d="M1079 1438q278 0 469 -166l-35 -264q-78 91 -191.5 142.5t-246.5 51.5q-161 0 -296.5 -75t-213.5 -201h758l-74 -170h-755q-1 -8 -4.5 -24.5t-4.5 -24.5q-4 -32 -4 -50h729l-71 -170h-635q42 -126 157 -201t277 -75q131 0 259 52t230 143l-36 -265q-111 -78 -244.5 -122
t-274.5 -44q-256 0 -429.5 141.5t-209.5 370.5h-174l70 170h98l6 50q3 26 9 49h-146l72 170h127q101 230 314 371t470 141z" />
    <glyph glyph-name="uni20B1" unicode="&#x20b1;" horiz-adv-x="1343" 
d="M1296 958l-4 -34q-1 -6 -3 -17.5t-3 -17.5h92l-20 -146h-123q-71 -141 -210 -226t-302 -85h-281l-61 -432h-242l105 743h-121l20 146h121l10 69h-122l20 144h123l43 311h522q164 0 278.5 -85t147.5 -226h121l-21 -144h-90zM549 1194l-12 -92h464q-66 92 -198 92h-254z
M506 889h530l6 35q2 12 2 34h-528zM725 651q133 0 225 92h-465l-12 -92h252z" />
    <glyph glyph-name="uni20B5" unicode="&#x20b5;" horiz-adv-x="1517" 
d="M868 225q103 13 194.5 64.5t156.5 130.5l190 -133q-107 -127 -255.5 -205.5t-317.5 -93.5l-19 -131h-158l19 131q-184 19 -318.5 116.5t-196.5 255t-36 347.5q40 287 252.5 488.5t501.5 229.5l18 131h158l-19 -131q164 -15 291 -93.5t197 -205.5l-226 -133
q-45 79 -121 130.5t-173 64.5zM379 707q-28 -186 66 -320t266 -162l137 963q-181 -28 -312 -161.5t-157 -319.5z" />
    <glyph glyph-name="uni20B9" unicode="&#x20b9;" horiz-adv-x="1202" 
d="M993 1239q42 -67 54 -149h184l-88 -175h-105q-38 -180 -184.5 -297.5t-333.5 -117.5h-41l469 -500h-330l-481 510l31 211h367q87 0 157 53.5t96 140.5h-593l24 175h561q-24 50 -70 78t-108 28h-366l30 217h1010l-86 -174h-197z" />
    <glyph glyph-name="uni2116" unicode="&#x2116;" horiz-adv-x="2351" 
d="M2015 1438q165 0 260.5 -109t73.5 -272q-23 -163 -148.5 -272t-291.5 -109q-164 0 -259.5 109t-72.5 272t148.5 272t289.5 109zM1094 412l139 1001h244l-199 -1413h-248l-567 999l-139 -999h-244l199 1413h247zM2148 1057q10 82 -34.5 135t-124.5 53q-79 0 -140 -53.5
t-71 -134.5q-12 -79 33.5 -134t123.5 -55q79 0 140 54.5t73 134.5zM1505 336l29 207h713l-31 -207h-711z" />
    <glyph glyph-name="trademark" unicode="&#x2122;" horiz-adv-x="1355" 
d="M139 1294l19 119h456l-18 -119h-164l-67 -487h-127l67 487h-166zM1212 1413h158l-86 -606h-125l60 422l-207 -340h-80l-113 340l-59 -422h-127l84 606h164l114 -356z" />
    <glyph glyph-name="uni2150" unicode="&#x2150;" horiz-adv-x="1755" 
d="M1294 1413h213l-1177 -1413h-211zM324 1212l-150 -77l-53 135l278 143h121l-119 -848h-170zM1184 848h565l-16 -133l-426 -715h-191l410 688h-365z" />
    <glyph glyph-name="uni2151" unicode="&#x2151;" horiz-adv-x="1681" 
d="M1294 1413h213l-1177 -1413h-211zM324 1212l-150 -77l-53 135l278 143h121l-119 -848h-170zM1376 862q147 0 222.5 -94t52.5 -250q-28 -206 -195 -358.5t-407 -173.5l-11 157q127 14 224.5 72.5t150.5 140.5q-74 -51 -168 -51q-113 0 -177.5 78t-49.5 192
q17 124 119 205.5t239 81.5zM1485 573q8 56 -28.5 92.5t-102.5 36.5q-62 0 -108.5 -35t-53.5 -89q-8 -51 28 -86t97 -35t111 31t57 85z" />
    <glyph glyph-name="uni2152" unicode="&#x2152;" horiz-adv-x="2342" 
d="M119 0l1175 1413h213l-1177 -1413h-211zM324 1212l-150 -77l-53 135l278 143h121l-119 -848h-170zM1972 862q147 0 223 -122.5t48 -315.5q-26 -193 -136.5 -315.5t-257.5 -122.5t-222.5 122t-49.5 316q28 194 137.5 316t257.5 122zM1083 705l279 143h121l-119 -848h-170
l92 647l-149 -78zM2068 424q19 121 -15 198.5t-103 77.5t-124.5 -76.5t-74.5 -199.5q-17 -122 17.5 -199.5t103.5 -77.5q70 0 124.5 77.5t71.5 199.5z" />
    <glyph glyph-name="uni2153" unicode="&#x2153;" horiz-adv-x="1681" 
d="M1294 1413h213l-1177 -1413h-211zM324 1212l-150 -77l-53 135l278 143h121l-119 -848h-170zM1638 631q-7 -59 -45.5 -108t-97.5 -79q60 -31 89 -86.5t20 -124.5q-15 -108 -115 -177.5t-240 -69.5q-89 0 -167.5 31t-127.5 87l115 125q32 -38 84.5 -60t108.5 -22
q68 0 116 31.5t56 79.5q6 49 -33 81t-103 32h-122l22 143h123q56 0 96.5 26t44.5 66q6 41 -31.5 67.5t-99.5 26.5q-104 0 -180 -63l-74 123q57 47 136.5 74.5t160.5 27.5q130 0 204 -65t60 -166z" />
    <glyph glyph-name="uni2154" unicode="&#x2154;" horiz-adv-x="1830" 
d="M641 725l-23 -160h-561l21 137l334 312q98 93 104 147q6 43 -24 71t-78 28q-91 0 -178 -97l-103 111q57 70 139.5 111.5t173.5 41.5q124 0 191.5 -72.5t50.5 -183.5q-14 -122 -139 -235l-232 -211h324zM1444 1413h213l-1178 -1413h-211zM1788 631q-7 -59 -45.5 -108
t-97.5 -79q60 -31 88.5 -86.5t19.5 -124.5q-15 -109 -114.5 -178t-239.5 -69q-89 0 -167.5 31t-127.5 87l115 125q32 -38 84 -60t108 -22q68 0 116 31.5t56 79.5q6 49 -32.5 81t-102.5 32h-123l23 143h122q56 0 97 26t45 66q6 41 -31.5 67.5t-99.5 26.5q-48 0 -97 -17
t-84 -46l-73 123q57 47 136.5 74.5t160.5 27.5q130 0 204 -65t60 -166z" />
    <glyph glyph-name="uni2155" unicode="&#x2155;" horiz-adv-x="1730" 
d="M1294 1413h213l-1177 -1413h-211zM324 1212l-150 -77l-53 135l278 143h121l-119 -848h-170zM1399 545q124 0 196.5 -79t57.5 -196q-17 -122 -121 -203t-246 -81q-168 0 -282 114l102 138q34 -42 85 -66.5t107 -24.5q72 0 122.5 37.5t58.5 91.5q8 51 -26.5 85t-94.5 34
q-77 0 -135 -49l-142 45l105 457h487l-20 -158h-346l-39 -174q67 29 131 29z" />
    <glyph glyph-name="uni2156" unicode="&#x2156;" horiz-adv-x="1880" 
d="M641 725l-23 -160h-561l21 137l334 312q98 93 104 147q6 43 -24 71t-78 28q-91 0 -178 -97l-103 111q57 70 139.5 111.5t173.5 41.5q124 0 191.5 -72.5t50.5 -183.5q-14 -122 -139 -235l-232 -211h324zM1444 1413h213l-1178 -1413h-211zM1548 545q124 0 196.5 -79
t57.5 -196q-17 -122 -120.5 -203t-245.5 -81q-169 0 -283 114l102 138q34 -42 85.5 -66.5t107.5 -24.5q72 0 122 37.5t58 91.5q8 51 -26.5 85t-94.5 34q-77 0 -135 -49l-141 45l104 457h488l-21 -158h-346l-39 -174q67 29 131 29z" />
    <glyph glyph-name="uni2157" unicode="&#x2157;" horiz-adv-x="1849" 
d="M692 799q-15 -109 -114.5 -178.5t-239.5 -69.5q-89 0 -167.5 31.5t-127.5 87.5l115 125q32 -38 84 -60t108 -22q68 0 116 31t56 79q6 49 -32.5 81t-102.5 32h-123l23 143h123q56 0 96.5 26t44.5 66q6 41 -31.5 68t-99.5 27q-47 0 -96 -17.5t-84 -46.5l-74 123
q57 47 136.5 74.5t160.5 27.5q130 0 204 -65t60 -166q-7 -59 -45 -107.5t-98 -78.5q60 -31 88.5 -86.5t19.5 -124.5zM1413 1413h213l-1177 -1413h-211zM1518 545q124 0 196.5 -79t57.5 -196q-17 -122 -121 -203t-246 -81q-169 0 -283 114l103 138q34 -42 85 -66.5t107 -24.5
q72 0 122 37.5t58 91.5q8 51 -26 85t-94 34q-78 0 -136 -49l-141 45l105 457h487l-20 -158h-347l-39 -174q67 29 132 29z" />
    <glyph glyph-name="uni2158" unicode="&#x2158;" horiz-adv-x="1902" 
d="M442 565l23 164h-361l-20 139l461 545h186l-74 -524h91l-23 -160h-90l-23 -164h-170zM1466 1413h213l-1177 -1413h-211zM260 889h227l48 328zM1571 545q124 0 196.5 -79t57.5 -196q-17 -122 -121 -203t-246 -81q-168 0 -282 114l102 138q34 -42 85 -66.5t107 -24.5
q72 0 122.5 37.5t58.5 91.5q8 51 -26.5 85t-94.5 34q-77 0 -135 -49l-142 45l105 457h487l-20 -158h-346l-39 -174q67 29 131 29z" />
    <glyph glyph-name="uni2159" unicode="&#x2159;" horiz-adv-x="1589" 
d="M1294 1413h213l-1177 -1413h-211zM324 1212l-150 -77l-53 135l278 143h121l-119 -848h-170zM1298 543q113 0 179 -79t51 -192q-19 -124 -122.5 -205t-240.5 -81q-146 0 -221 93.5t-53 250.5q28 202 193 351t411 181l8 -157q-127 -21 -224 -78.5t-149 -134.5q70 51 168 51
zM1352 270q8 51 -28 86t-99 35q-60 0 -109.5 -31.5t-56.5 -85.5q-8 -56 28 -92.5t101 -36.5q63 0 110 35.5t54 89.5z" />
    <glyph glyph-name="uni215A" unicode="&#x215a;" horiz-adv-x="1718" 
d="M371 713q72 0 122 37.5t58 91.5q8 51 -26.5 85t-94.5 34q-75 0 -135 -50l-141 45l104 457h487l-20 -158h-346l-39 -174q67 29 131 29q124 0 196.5 -78.5t57.5 -195.5q-17 -122 -121 -203.5t-246 -81.5q-167 0 -282 115l102 137q34 -42 85.5 -66t107.5 -24zM1423 1413h213
l-1177 -1413h-211zM1427 543q113 0 179 -79t51 -192q-19 -124 -122.5 -205t-240.5 -81q-146 0 -221 93.5t-53 250.5q28 202 193 351t411 181l8 -157q-127 -21 -223.5 -78.5t-148.5 -134.5q70 51 167 51zM1481 270q8 51 -28 86t-99 35q-60 0 -109.5 -31.5t-56.5 -85.5
q-8 -56 28 -92.5t101 -36.5q63 0 110 35.5t54 89.5z" />
    <glyph glyph-name="oneeighth" unicode="&#x215b;" horiz-adv-x="1710" 
d="M1294 1413h213l-1177 -1413h-211zM324 1212l-150 -77l-53 135l278 143h121l-119 -848h-170zM1667 627q-15 -117 -139 -187q56 -33 83.5 -85.5t18.5 -116.5q-15 -106 -117.5 -179t-238.5 -73t-218 72.5t-67 179.5q9 63 51 115t107 87q-48 31 -71.5 80.5t-14.5 106.5
q14 99 109.5 167t226.5 68q130 0 207.5 -68t62.5 -167zM1231 608q-6 -41 28 -69.5t89 -28.5q56 0 97.5 28.5t45.5 69.5q6 42 -27.5 70.5t-89.5 28.5q-54 0 -95.5 -29t-47.5 -70zM1460 254q6 46 -33 77t-102 31q-62 0 -108 -31t-52 -77t31 -77.5t98 -31.5q64 0 112 31.5
t54 77.5z" />
    <glyph glyph-name="threeeighths" unicode="&#x215c;" horiz-adv-x="1826" 
d="M692 799q-15 -109 -114.5 -178.5t-239.5 -69.5q-89 0 -167.5 31.5t-127.5 87.5l115 125q32 -38 84 -60t108 -22q68 0 116 31t56 79q6 49 -32.5 81t-102.5 32h-123l23 143h123q56 0 96.5 26t44.5 66q6 41 -31.5 68t-99.5 27q-47 0 -96 -17.5t-84 -46.5l-74 123
q57 47 136.5 74.5t160.5 27.5q130 0 204 -65t60 -166q-7 -59 -45 -107.5t-98 -78.5q60 -31 88.5 -86.5t19.5 -124.5zM1413 1413h213l-1177 -1413h-211zM1786 627q-15 -117 -139 -187q56 -33 83.5 -85.5t18.5 -116.5q-15 -106 -117.5 -179t-238.5 -73t-218 72.5t-67 179.5
q9 63 51 115t107 87q-48 31 -71.5 80.5t-14.5 106.5q14 99 109.5 167t226.5 68q130 0 207.5 -68t62.5 -167zM1350 608q-6 -41 27.5 -69.5t88.5 -28.5q56 0 98 28.5t46 69.5q6 42 -27.5 70.5t-89.5 28.5q-54 0 -95.5 -29t-47.5 -70zM1579 254q6 46 -33 77t-102 31
q-62 0 -108 -31t-52 -77t31 -77.5t98 -31.5q64 0 112 31.5t54 77.5z" />
    <glyph glyph-name="fiveeighths" unicode="&#x215d;" horiz-adv-x="1839" 
d="M371 713q72 0 122 37.5t58 91.5q8 51 -26.5 85t-94.5 34q-75 0 -135 -50l-141 45l104 457h487l-20 -158h-346l-39 -174q67 29 131 29q124 0 196.5 -78.5t57.5 -195.5q-17 -122 -121 -203.5t-246 -81.5q-167 0 -282 115l102 137q34 -42 85.5 -66t107.5 -24zM1423 1413h213
l-1177 -1413h-211zM1796 627q-15 -117 -139 -187q56 -33 83.5 -85.5t18.5 -116.5q-15 -106 -117.5 -179t-238.5 -73t-218 72.5t-67 179.5q9 63 51 115t107 87q-48 31 -71.5 80.5t-14.5 106.5q14 99 109.5 167t226.5 68q130 0 207.5 -68t62.5 -167zM1360 608q-6 -41 28 -69.5
t89 -28.5q56 0 97.5 28.5t45.5 69.5q6 42 -27.5 70.5t-89.5 28.5q-54 0 -95.5 -29t-47.5 -70zM1589 254q6 46 -33 77t-102 31q-62 0 -108 -31t-52 -77t31 -77.5t98 -31.5q64 0 112 31.5t54 77.5z" />
    <glyph glyph-name="seveneighths" unicode="&#x215e;" horiz-adv-x="1677" 
d="M1262 1413h213l-1178 -1413h-211zM295 565h-191l410 688h-364l22 160h565l-16 -133zM1634 627q-15 -117 -139 -187q56 -33 83.5 -85.5t18.5 -116.5q-15 -106 -117.5 -179t-238.5 -73t-218 72.5t-67 179.5q9 63 51 115t107 87q-48 31 -71.5 80.5t-14.5 106.5
q14 99 109.5 167t226.5 68q130 0 207.5 -68t62.5 -167zM1198 608q-6 -41 28 -69.5t89 -28.5q56 0 97.5 28.5t45.5 69.5q6 42 -27.5 70.5t-89.5 28.5q-54 0 -95.5 -29t-47.5 -70zM1427 254q6 46 -33 77t-102 31q-61 0 -107 -31t-52 -77t31 -77.5t98 -31.5q64 0 111.5 31.5
t53.5 77.5z" />
    <glyph glyph-name="uni215F" unicode="&#x215f;" horiz-adv-x="980" 
d="M1294 1413h213l-1177 -1413h-211zM324 1212l-150 -77l-53 135l278 143h121l-119 -848h-170z" />
    <glyph glyph-name="uni2189" unicode="&#x2189;" horiz-adv-x="1886" 
d="M788 989q-26 -193 -136 -315.5t-257 -122.5t-222.5 122t-49.5 316q28 194 137.5 316t257.5 122q146 0 222 -122.5t48 -315.5zM1499 1413h213l-1177 -1413h-211zM297 989q-17 -122 17 -199t104 -77t124.5 77t71.5 199q19 121 -15 199t-103 78t-124.5 -77t-74.5 -200z
M1843 631q-7 -59 -45.5 -108t-97.5 -79q60 -31 88.5 -86.5t19.5 -124.5q-15 -109 -114.5 -178t-239.5 -69q-89 0 -167.5 31t-127.5 87l115 125q32 -38 84 -60t108 -22q68 0 116 31.5t56 79.5q6 49 -32.5 81t-102.5 32h-123l23 143h123q56 0 96.5 26t44.5 66q6 41 -31.5 67.5
t-99.5 26.5q-104 0 -180 -63l-74 123q57 47 136.5 74.5t160.5 27.5q130 0 204 -65t60 -166z" />
    <glyph glyph-name="arrowleft" unicode="&#x2190;" horiz-adv-x="1347" 
d="M1251 809l-28 -207h-705l195 -221l-156 -135l-395 459l524 462l117 -137l-256 -221h704z" />
    <glyph glyph-name="arrowup" unicode="&#x2191;" horiz-adv-x="1347" 
d="M1174 784l-156 -137l-191 227l-98 -706h-209l101 704l-252 -225l-117 137l526 461z" />
    <glyph glyph-name="arrowright" unicode="&#x2192;" horiz-adv-x="1347" 
d="M844 1167l395 -462l-526 -459l-117 135l258 221h-707l31 209h703l-193 219z" />
    <glyph glyph-name="arrowdown" unicode="&#x2193;" horiz-adv-x="1347" 
d="M1034 766l117 -137l-524 -461l-398 461l156 137l188 -225l99 704h209l-101 -706z" />
    <glyph glyph-name="uni2196" unicode="&#x2196;" horiz-adv-x="1347" 
d="M1081 436l-170 -147l-428 497l-39 -313h-194l92 649l651 2l-28 -194l-310 4z" />
    <glyph glyph-name="uni2197" unicode="&#x2197;" horiz-adv-x="1347" 
d="M524 1124l650 -2l-93 -649h-192l51 315l-571 -499l-125 147l569 498l-317 -2z" />
    <glyph glyph-name="uni2198" unicode="&#x2198;" horiz-adv-x="1347" 
d="M956 940h195l-92 -649l-649 -2l26 194l312 -4l-426 498l167 147l429 -497z" />
    <glyph glyph-name="uni2199" unicode="&#x2199;" horiz-adv-x="1347" 
d="M1157 977l-567 -498l311 4l-27 -194l-649 2l90 649h195l-49 -313l569 497z" />
    <glyph glyph-name="minus" unicode="&#x2212;" horiz-adv-x="1093" 
d="M121 502l29 207h847l-30 -207h-846z" />
    <glyph glyph-name="approxequal" unicode="&#x2248;" horiz-adv-x="1165" 
d="M782 666q-53 0 -100.5 18.5t-76 40.5t-63 40.5t-65.5 18.5q-46 0 -80.5 -30t-42.5 -76h-209q21 151 104 242.5t224 91.5q53 0 100 -18.5t75 -41t62.5 -41t65.5 -18.5q47 0 82 30t41 76h211q-21 -149 -104.5 -241t-223.5 -92zM719 213q-53 0 -100.5 18.5t-76 41t-63 41
t-65.5 18.5q-47 0 -81 -30.5t-42 -76.5h-209q21 151 104.5 242.5t223.5 91.5q53 0 100.5 -18.5t75.5 -41t62 -41t65 -18.5q47 0 82 30.5t41 76.5h208q-20 -149 -102.5 -241.5t-222.5 -92.5z" />
    <glyph glyph-name="notequal" unicode="&#x2260;" horiz-adv-x="1093" 
d="M995 694h-284l-103 -176h363l-31 -207h-453l-98 -168h-201l99 168h-193l29 207h285l102 176h-363l29 207h455l96 164h201l-97 -164h193z" />
    <glyph glyph-name="lessequal" unicode="&#x2264;" horiz-adv-x="950" 
d="M918 1167l-31 -227l-514 -162l467 -162l-31 -229l-666 275l33 231zM61 88l31 207h703l-29 -207h-705z" />
    <glyph glyph-name="greaterequal" unicode="&#x2265;" horiz-adv-x="950" 
d="M215 1167l664 -274l-33 -231l-742 -275l33 229l510 162l-465 162zM61 88l31 207h703l-29 -207h-705z" />
    <glyph glyph-name="uni279D" unicode="&#x279d;" horiz-adv-x="2215" 
d="M2083 707l-496 -435l47 330h-1462l29 209h1462l47 330z" />
    <glyph glyph-name="uni27F5" unicode="&#x27f5;" horiz-adv-x="2215" 
d="M2097 809l-29 -207h-1525l194 -221l-157 -135l-394 459l525 462l116 -137l-256 -221h1526z" />
    <glyph glyph-name="uni27F6" unicode="&#x27f6;" horiz-adv-x="2215" 
d="M1688 1167l395 -462l-527 -459l-116 135l256 221h-1526l29 207h1525l-194 221z" />
    <glyph glyph-name="G.ss05" horiz-adv-x="1642" 
d="M897 776h672l-111 -776h-213l33 225q-101 -120 -238.5 -185t-300.5 -65q-155 0 -284 56.5t-212.5 153.5t-121 232.5t-15.5 289.5q28 205 148.5 372.5t304 263t391.5 95.5q186 0 332 -75.5t223 -207.5l-205 -145q-55 91 -153.5 142.5t-222.5 51.5q-213 0 -376 -142
t-192 -355q-20 -140 28.5 -254.5t153 -179t244.5 -64.5q172 0 312.5 96.5t197.5 253.5h-426z" />
    <glyph glyph-name="uni01F4.ss05" horiz-adv-x="1642" 
d="M1368 1819l-297 -283h-244l250 283h291zM897 776h672l-111 -776h-213l33 225q-101 -120 -238.5 -185t-300.5 -65q-155 0 -284 56.5t-212.5 153.5t-121 232.5t-15.5 289.5q28 205 148.5 372.5t304 263t391.5 95.5q186 0 332 -75.5t223 -207.5l-205 -145
q-55 91 -153.5 142.5t-222.5 51.5q-213 0 -376 -142t-192 -355q-20 -140 28.5 -254.5t153 -179t244.5 -64.5q172 0 312.5 96.5t197.5 253.5h-426z" />
    <glyph glyph-name="Gbreve.ss05" horiz-adv-x="1642" 
d="M963 1516q-132 0 -208 84t-59 210h181q-9 -56 22 -92.5t86 -36.5q54 0 96.5 37t51.5 92h178q-19 -126 -118.5 -210t-229.5 -84zM897 776h672l-111 -776h-213l33 225q-101 -120 -238.5 -185t-300.5 -65q-155 0 -284 56.5t-212.5 153.5t-121 232.5t-15.5 289.5
q28 205 148.5 372.5t304 263t391.5 95.5q186 0 332 -75.5t223 -207.5l-205 -145q-55 91 -153.5 142.5t-222.5 51.5q-213 0 -376 -142t-192 -355q-20 -140 28.5 -254.5t153 -179t244.5 -64.5q172 0 312.5 96.5t197.5 253.5h-426z" />
    <glyph glyph-name="Gcaron.ss05" horiz-adv-x="1642" 
d="M1104 1536h-279l-163 283h215l104 -158l149 158h218zM897 776h672l-111 -776h-213l33 225q-101 -120 -238.5 -185t-300.5 -65q-155 0 -284 56.5t-212.5 153.5t-121 232.5t-15.5 289.5q28 205 148.5 372.5t304 263t391.5 95.5q186 0 332 -75.5t223 -207.5l-205 -145
q-55 91 -153.5 142.5t-222.5 51.5q-213 0 -376 -142t-192 -355q-20 -140 28.5 -254.5t153 -179t244.5 -64.5q172 0 312.5 96.5t197.5 253.5h-426z" />
    <glyph glyph-name="Gcircumflex.ss05" horiz-adv-x="1642" 
d="M985 1696l-147 -160h-217l243 283h279l164 -283h-215zM897 776h672l-111 -776h-213l33 225q-101 -120 -238.5 -185t-300.5 -65q-155 0 -284 56.5t-212.5 153.5t-121 232.5t-15.5 289.5q28 205 148.5 372.5t304 263t391.5 95.5q186 0 332 -75.5t223 -207.5l-205 -145
q-55 91 -153.5 142.5t-222.5 51.5q-213 0 -376 -142t-192 -355q-20 -140 28.5 -254.5t153 -179t244.5 -64.5q172 0 312.5 96.5t197.5 253.5h-426z" />
    <glyph glyph-name="uni0122.ss05" horiz-adv-x="1642" 
d="M897 776h672l-111 -776h-213l33 225q-101 -120 -238.5 -185t-300.5 -65q-155 0 -284 56.5t-212.5 153.5t-121 232.5t-15.5 289.5q28 205 148.5 372.5t304 263t391.5 95.5q186 0 332 -75.5t223 -207.5l-205 -145q-55 91 -153.5 142.5t-222.5 51.5q-213 0 -376 -142
t-192 -355q-20 -140 28.5 -254.5t153 -179t244.5 -64.5q172 0 312.5 96.5t197.5 253.5h-426zM514 -457l127 334h238l-174 -334h-191z" />
    <glyph glyph-name="Gdotaccent.ss05" horiz-adv-x="1642" 
d="M965 1540q-60 0 -94.5 39t-26.5 98q7 60 53.5 100t106.5 40t94 -40t26 -100q-9 -59 -54 -98t-105 -39zM897 776h672l-111 -776h-213l33 225q-101 -120 -238.5 -185t-300.5 -65q-155 0 -284 56.5t-212.5 153.5t-121 232.5t-15.5 289.5q28 205 148.5 372.5t304 263
t391.5 95.5q186 0 332 -75.5t223 -207.5l-205 -145q-55 91 -153.5 142.5t-222.5 51.5q-213 0 -376 -142t-192 -355q-20 -140 28.5 -254.5t153 -179t244.5 -64.5q172 0 312.5 96.5t197.5 253.5h-426z" />
    <glyph glyph-name="i.loclTRK" horiz-adv-x="501" 
d="M342 1171q-60 0 -94.5 39.5t-26.5 98.5q7 60 53.5 99.5t106.5 39.5t94.5 -39.5t26.5 -99.5q-9 -59 -54.5 -98.5t-105.5 -39.5zM61 0l148 1044h229l-147 -1044h-230z" />
    <glyph glyph-name="a.ss01" horiz-adv-x="1130" 
d="M621 1069q207 0 321 -113.5t88 -302.5l-92 -653h-213l12 88q-132 -113 -331 -113q-181 0 -286 93.5t-85 240.5q20 146 151 240t310 94q183 0 288 -100l13 94q17 105 -45 166t-181 61q-164 0 -297 -108l-104 143q86 78 204 124t247 46zM485 166q106 0 182 41t85 102
q8 62 -57 103t-171 41q-103 0 -174 -39.5t-80 -104.5t51.5 -104t163.5 -39z" />
    <glyph glyph-name="aacute.ss01" horiz-adv-x="1130" 
d="M1044 1450l-296 -283h-244l250 283h290zM621 1069q207 0 321 -113.5t88 -302.5l-92 -653h-213l12 88q-132 -113 -331 -113q-181 0 -286 93.5t-85 240.5q20 146 151 240t310 94q183 0 288 -100l13 94q17 105 -45 166t-181 61q-164 0 -297 -108l-104 143q86 78 204 124
t247 46zM485 166q106 0 182 41t85 102q8 62 -57 103t-171 41q-103 0 -174 -39.5t-80 -104.5t51.5 -104t163.5 -39z" />
    <glyph glyph-name="abreve.ss01" horiz-adv-x="1130" 
d="M637 1147q-132 0 -207.5 84.5t-58.5 210.5h180q-9 -56 22 -92.5t86 -36.5q54 0 96.5 37t51.5 92h178q-19 -126 -118.5 -210.5t-229.5 -84.5zM621 1069q207 0 321 -113.5t88 -302.5l-92 -653h-213l12 88q-132 -113 -331 -113q-181 0 -286 93.5t-85 240.5q20 146 151 240
t310 94q183 0 288 -100l13 94q17 105 -45 166t-181 61q-164 0 -297 -108l-104 143q86 78 204 124t247 46zM485 166q106 0 182 41t85 102q8 62 -57 103t-171 41q-103 0 -174 -39.5t-80 -104.5t51.5 -104t163.5 -39z" />
    <glyph glyph-name="uni01CE.ss01" horiz-adv-x="1130" 
d="M778 1167h-278l-164 283h215l104 -158l150 158h217zM621 1069q207 0 321 -113.5t88 -302.5l-92 -653h-213l12 88q-132 -113 -331 -113q-181 0 -286 93.5t-85 240.5q20 146 151 240t310 94q183 0 288 -100l13 94q17 105 -45 166t-181 61q-164 0 -297 -108l-104 143
q86 78 204 124t247 46zM485 166q106 0 182 41t85 102q8 62 -57 103t-171 41q-103 0 -174 -39.5t-80 -104.5t51.5 -104t163.5 -39z" />
    <glyph glyph-name="acircumflex.ss01" horiz-adv-x="1130" 
d="M659 1327l-147 -160h-217l244 283h278l164 -283h-215zM621 1069q207 0 321 -113.5t88 -302.5l-92 -653h-213l12 88q-132 -113 -331 -113q-181 0 -286 93.5t-85 240.5q20 146 151 240t310 94q183 0 288 -100l13 94q17 105 -45 166t-181 61q-164 0 -297 -108l-104 143
q86 78 204 124t247 46zM485 166q106 0 182 41t85 102q8 62 -57 103t-171 41q-103 0 -174 -39.5t-80 -104.5t51.5 -104t163.5 -39z" />
    <glyph glyph-name="uni0201.ss01" horiz-adv-x="1130" 
d="M545 1167h-221l-162 283h252zM971 1167h-223l-162 283h252zM621 1069q207 0 321 -113.5t88 -302.5l-92 -653h-213l12 88q-132 -113 -331 -113q-181 0 -286 93.5t-85 240.5q20 146 151 240t310 94q183 0 288 -100l13 94q17 105 -45 166t-181 61q-164 0 -297 -108l-104 143
q86 78 204 124t247 46zM485 166q106 0 182 41t85 102q8 62 -57 103t-171 41q-103 0 -174 -39.5t-80 -104.5t51.5 -104t163.5 -39z" />
    <glyph glyph-name="adieresis.ss01" horiz-adv-x="1130" 
d="M422 1171q-57 0 -90 38t-25 94q7 57 52 95t102 38t89.5 -38t24.5 -95q-8 -56 -52 -94t-101 -38zM856 1171q-57 0 -90 38t-25 94q7 57 52 95t102 38t90 -38t25 -95q-7 -55 -52 -93.5t-102 -38.5zM621 1069q207 0 321 -113.5t88 -302.5l-92 -653h-213l12 88
q-132 -113 -331 -113q-181 0 -286 93.5t-85 240.5q20 146 151 240t310 94q183 0 288 -100l13 94q17 105 -45 166t-181 61q-164 0 -297 -108l-104 143q86 78 204 124t247 46zM485 166q106 0 182 41t85 102q8 62 -57 103t-171 41q-103 0 -174 -39.5t-80 -104.5t51.5 -104
t163.5 -39z" />
    <glyph glyph-name="uni1EA1.ss01" horiz-adv-x="1130" 
d="M621 1069q207 0 321 -113.5t88 -302.5l-92 -653h-213l12 88q-132 -113 -331 -113q-181 0 -286 93.5t-85 240.5q20 146 151 240t310 94q183 0 288 -100l13 94q17 105 -45 166t-181 61q-164 0 -297 -108l-104 143q86 78 204 124t247 46zM485 166q106 0 182 41t85 102
q8 62 -57 103t-171 41q-103 0 -174 -39.5t-80 -104.5t51.5 -104t163.5 -39zM457 -127q59 0 93.5 -39.5t27.5 -97.5q-7 -59 -54 -99t-106 -40q-60 0 -94.5 39.5t-26.5 99.5q7 58 53.5 97.5t106.5 39.5z" />
    <glyph glyph-name="agrave.ss01" horiz-adv-x="1130" 
d="M776 1167h-244l-217 283h291zM621 1069q207 0 321 -113.5t88 -302.5l-92 -653h-213l12 88q-132 -113 -331 -113q-181 0 -286 93.5t-85 240.5q20 146 151 240t310 94q183 0 288 -100l13 94q17 105 -45 166t-181 61q-164 0 -297 -108l-104 143q86 78 204 124t247 46z
M485 166q106 0 182 41t85 102q8 62 -57 103t-171 41q-103 0 -174 -39.5t-80 -104.5t51.5 -104t163.5 -39z" />
    <glyph glyph-name="uni0203.ss01" horiz-adv-x="1130" 
d="M655 1290q-54 0 -96 -37t-49 -94h-178q19 126 117.5 210.5t230.5 84.5q131 0 207 -84.5t57 -210.5h-178q7 57 -24 94t-87 37zM621 1069q207 0 321 -113.5t88 -302.5l-92 -653h-213l12 88q-132 -113 -331 -113q-181 0 -286 93.5t-85 240.5q20 146 151 240t310 94
q183 0 288 -100l13 94q17 105 -45 166t-181 61q-164 0 -297 -108l-104 143q86 78 204 124t247 46zM485 166q106 0 182 41t85 102q8 62 -57 103t-171 41q-103 0 -174 -39.5t-80 -104.5t51.5 -104t163.5 -39z" />
    <glyph glyph-name="amacron.ss01" horiz-adv-x="1130" 
d="M930 1386l-29 -192h-518l27 192h520zM621 1069q207 0 321 -113.5t88 -302.5l-92 -653h-213l12 88q-132 -113 -331 -113q-181 0 -286 93.5t-85 240.5q20 146 151 240t310 94q183 0 288 -100l13 94q17 105 -45 166t-181 61q-164 0 -297 -108l-104 143q86 78 204 124t247 46
zM485 166q106 0 182 41t85 102q8 62 -57 103t-171 41q-103 0 -174 -39.5t-80 -104.5t51.5 -104t163.5 -39z" />
    <glyph glyph-name="aogonek.ss01" horiz-adv-x="1130" 
d="M621 1069q207 0 321 -113.5t88 -302.5l-92 -653h-37q-226 -93 -246 -213q-6 -44 21 -71t69 -27q54 0 107 32l33 -143q-86 -53 -199 -53q-109 0 -171 61t-48 152q12 85 83.5 157.5t174.5 110.5l12 82q-132 -113 -331 -113q-181 0 -286 93.5t-85 240.5q20 146 151 240
t310 94q183 0 288 -100l13 94q17 105 -45 166t-181 61q-164 0 -297 -108l-104 143q86 78 204 124t247 46zM485 166q106 0 182 41t85 102q8 62 -57 103t-171 41q-103 0 -174 -39.5t-80 -104.5t51.5 -104t163.5 -39z" />
    <glyph glyph-name="aring.ss01" horiz-adv-x="1130" 
d="M637 1143q-85 0 -133.5 55t-36.5 137q10 82 75 137.5t148 55.5q85 0 133.5 -55.5t36.5 -137.5q-10 -81 -74.5 -136.5t-148.5 -55.5zM590 1335q-4 -34 13.5 -54.5t49.5 -20.5q31 0 55.5 21t28.5 54q5 32 -13 54t-50 22q-31 0 -55.5 -22t-28.5 -54zM621 1069
q207 0 321 -113.5t88 -302.5l-92 -653h-213l12 88q-132 -113 -331 -113q-181 0 -286 93.5t-85 240.5q20 146 151 240t310 94q183 0 288 -100l13 94q17 105 -45 166t-181 61q-164 0 -297 -108l-104 143q86 78 204 124t247 46zM485 166q106 0 182 41t85 102q8 62 -57 103
t-171 41q-103 0 -174 -39.5t-80 -104.5t51.5 -104t163.5 -39z" />
    <glyph glyph-name="atilde.ss01" horiz-adv-x="1130" 
d="M545 1276q-38 0 -66.5 -25.5t-34.5 -62.5h-161q16 118 85 194t175 76q40 0 75 -15t55.5 -33t47.5 -33t53 -15q37 0 65.5 26t32.5 64h164q-15 -120 -85 -195t-175 -75q-41 0 -76 14.5t-55.5 32.5t-47 32.5t-52.5 14.5zM621 1069q207 0 321 -113.5t88 -302.5l-92 -653h-213
l12 88q-132 -113 -331 -113q-181 0 -286 93.5t-85 240.5q20 146 151 240t310 94q183 0 288 -100l13 94q17 105 -45 166t-181 61q-164 0 -297 -108l-104 143q86 78 204 124t247 46zM485 166q106 0 182 41t85 102q8 62 -57 103t-171 41q-103 0 -174 -39.5t-80 -104.5
t51.5 -104t163.5 -39z" />
    <glyph glyph-name="g.ss02" 
d="M1030 1044h230l-132 -931q-34 -238 -209 -382.5t-432 -144.5q-151 0 -267 53t-185 148l139 158q48 -70 132 -109t192 -39q164 0 272.5 86.5t128.5 231.5l10 73q-77 -78 -177 -121.5t-212 -43.5q-145 0 -253.5 68t-158.5 187.5t-30 266.5q32 224 200.5 374t389.5 150
q225 0 342 -166zM594 231q131 0 233.5 83t128.5 210l7 43q9 126 -70.5 209.5t-210.5 83.5q-138 0 -243 -90t-124 -225q-20 -134 60 -224t219 -90z" />
    <glyph glyph-name="uni01F5.ss02" 
d="M1153 1450l-297 -283h-244l250 283h291zM1030 1044h230l-132 -931q-34 -238 -209 -382.5t-432 -144.5q-151 0 -267 53t-185 148l139 158q48 -70 132 -109t192 -39q164 0 272.5 86.5t128.5 231.5l10 73q-77 -78 -177 -121.5t-212 -43.5q-145 0 -253.5 68t-158.5 187.5
t-30 266.5q32 224 200.5 374t389.5 150q225 0 342 -166zM594 231q131 0 233.5 83t128.5 210l7 43q9 126 -70.5 209.5t-210.5 83.5q-138 0 -243 -90t-124 -225q-20 -134 60 -224t219 -90z" />
    <glyph glyph-name="gbreve.ss02" 
d="M748 1147q-132 0 -208 84.5t-59 210.5h181q-9 -56 22 -92.5t86 -36.5q54 0 96.5 37t51.5 92h178q-19 -126 -118.5 -210.5t-229.5 -84.5zM1030 1044h230l-132 -931q-34 -238 -209 -382.5t-432 -144.5q-151 0 -267 53t-185 148l139 158q48 -70 132 -109t192 -39
q164 0 272.5 86.5t128.5 231.5l10 73q-77 -78 -177 -121.5t-212 -43.5q-145 0 -253.5 68t-158.5 187.5t-30 266.5q32 224 200.5 374t389.5 150q225 0 342 -166zM594 231q131 0 233.5 83t128.5 210l7 43q9 126 -70.5 209.5t-210.5 83.5q-138 0 -243 -90t-124 -225
q-20 -134 60 -224t219 -90z" />
    <glyph glyph-name="gcaron.ss02" 
d="M889 1167h-279l-164 283h216l104 -158l149 158h218zM1030 1044h230l-132 -931q-34 -238 -209 -382.5t-432 -144.5q-151 0 -267 53t-185 148l139 158q48 -70 132 -109t192 -39q164 0 272.5 86.5t128.5 231.5l10 73q-77 -78 -177 -121.5t-212 -43.5q-145 0 -253.5 68
t-158.5 187.5t-30 266.5q32 224 200.5 374t389.5 150q225 0 342 -166zM594 231q131 0 233.5 83t128.5 210l7 43q9 126 -70.5 209.5t-210.5 83.5q-138 0 -243 -90t-124 -225q-20 -134 60 -224t219 -90z" />
    <glyph glyph-name="gcircumflex.ss02" 
d="M770 1327l-147 -160h-217l243 283h279l164 -283h-215zM1030 1044h230l-132 -931q-34 -238 -209 -382.5t-432 -144.5q-151 0 -267 53t-185 148l139 158q48 -70 132 -109t192 -39q164 0 272.5 86.5t128.5 231.5l10 73q-77 -78 -177 -121.5t-212 -43.5q-145 0 -253.5 68
t-158.5 187.5t-30 266.5q32 224 200.5 374t389.5 150q225 0 342 -166zM594 231q131 0 233.5 83t128.5 210l7 43q9 126 -70.5 209.5t-210.5 83.5q-138 0 -243 -90t-124 -225q-20 -134 60 -224t219 -90z" />
    <glyph glyph-name="uni0123.ss02" 
d="M952 1495l-125 -336h-237l174 336h188zM1030 1044h230l-132 -931q-34 -238 -209 -382.5t-432 -144.5q-151 0 -267 53t-185 148l139 158q48 -70 132 -109t192 -39q164 0 272.5 86.5t128.5 231.5l10 73q-77 -78 -177 -121.5t-212 -43.5q-145 0 -253.5 68t-158.5 187.5
t-30 266.5q32 224 200.5 374t389.5 150q225 0 342 -166zM594 231q131 0 233.5 83t128.5 210l7 43q9 126 -70.5 209.5t-210.5 83.5q-138 0 -243 -90t-124 -225q-20 -134 60 -224t219 -90z" />
    <glyph glyph-name="gdotaccent.ss02" 
d="M750 1171q-60 0 -94.5 39.5t-26.5 98.5q7 60 53 99.5t106 39.5t94.5 -39.5t26.5 -99.5q-9 -59 -54 -98.5t-105 -39.5zM1030 1044h230l-132 -931q-34 -238 -209 -382.5t-432 -144.5q-151 0 -267 53t-185 148l139 158q48 -70 132 -109t192 -39q164 0 272.5 86.5
t128.5 231.5l10 73q-77 -78 -177 -121.5t-212 -43.5q-145 0 -253.5 68t-158.5 187.5t-30 266.5q32 224 200.5 374t389.5 150q225 0 342 -166zM594 231q131 0 233.5 83t128.5 210l7 43q9 126 -70.5 209.5t-210.5 83.5q-138 0 -243 -90t-124 -225q-20 -134 60 -224t219 -90z
" />
    <glyph glyph-name="u.ss03" horiz-adv-x="1228" 
d="M938 1044h229l-147 -1044h-229l18 127q-149 -152 -363 -152q-183 0 -278 110t-70 292l95 667h229l-82 -591q-17 -116 41 -186t172 -70q120 0 203 71.5t98 188.5z" />
    <glyph glyph-name="uacute.ss03" horiz-adv-x="1228" 
d="M1102 1450l-297 -283h-244l250 283h291zM938 1044h229l-147 -1044h-229l18 127q-149 -152 -363 -152q-183 0 -278 110t-70 292l95 667h229l-82 -591q-17 -116 41 -186t172 -70q120 0 203 71.5t98 188.5z" />
    <glyph glyph-name="ubreve.ss03" horiz-adv-x="1228" 
d="M696 1147q-132 0 -207.5 84.5t-58.5 210.5h180q-9 -55 22 -92t87 -37q54 0 96 37t51 92h178q-19 -126 -118.5 -210.5t-229.5 -84.5zM938 1044h229l-147 -1044h-229l18 127q-149 -152 -363 -152q-183 0 -278 110t-70 292l95 667h229l-82 -591q-17 -116 41 -186t172 -70
q120 0 203 71.5t98 188.5z" />
    <glyph glyph-name="ucircumflex.ss03" horiz-adv-x="1228" 
d="M719 1327l-148 -160h-217l244 283h279l163 -283h-215zM938 1044h229l-147 -1044h-229l18 127q-149 -152 -363 -152q-183 0 -278 110t-70 292l95 667h229l-82 -591q-17 -116 41 -186t172 -70q120 0 203 71.5t98 188.5z" />
    <glyph glyph-name="uni0215.ss03" horiz-adv-x="1228" 
d="M602 1167h-221l-162 283h252zM1028 1167h-223l-162 283h252zM938 1044h229l-147 -1044h-229l18 127q-149 -152 -363 -152q-183 0 -278 110t-70 292l95 667h229l-82 -591q-17 -116 41 -186t172 -70q120 0 203 71.5t98 188.5z" />
    <glyph glyph-name="udieresis.ss03" horiz-adv-x="1228" 
d="M481 1171q-57 0 -89.5 38t-24.5 94q7 57 51.5 95t101.5 38t90 -38t25 -95q-7 -55 -52 -93.5t-102 -38.5zM915 1171q-57 0 -89.5 38t-24.5 94q7 57 51.5 95t101.5 38t90 -38t25 -95q-7 -55 -52 -93.5t-102 -38.5zM938 1044h229l-147 -1044h-229l18 127
q-149 -152 -363 -152q-183 0 -278 110t-70 292l95 667h229l-82 -591q-17 -116 41 -186t172 -70q120 0 203 71.5t98 188.5z" />
    <glyph glyph-name="uni1EE5.ss03" horiz-adv-x="1228" 
d="M938 1044h229l-147 -1044h-229l18 127q-149 -152 -363 -152q-183 0 -278 110t-70 292l95 667h229l-82 -591q-17 -116 41 -186t172 -70q120 0 203 71.5t98 188.5zM516 -127q59 0 93.5 -39.5t27.5 -97.5q-7 -59 -54 -99t-106 -40q-60 0 -94.5 39.5t-26.5 99.5
q7 58 53.5 97.5t106.5 39.5z" />
    <glyph glyph-name="ugrave.ss03" horiz-adv-x="1228" 
d="M834 1167h-244l-217 283h291zM938 1044h229l-147 -1044h-229l18 127q-149 -152 -363 -152q-183 0 -278 110t-70 292l95 667h229l-82 -591q-17 -116 41 -186t172 -70q120 0 203 71.5t98 188.5z" />
    <glyph glyph-name="uhungarumlaut.ss03" horiz-adv-x="1228" 
d="M831 1450l-241 -283h-223l211 283h253zM1014 1167h-221l211 283h251zM854 457l84 587h229l-147 -1044h-229l18 127q-149 -152 -363 -152q-183 0 -278 110t-70 292l95 667h229l-82 -591q-17 -116 41 -186t172 -70q120 0 203 71.5t98 188.5z" />
    <glyph glyph-name="uni0217.ss03" horiz-adv-x="1228" 
d="M715 1290q-54 0 -96.5 -37t-49.5 -94h-178q19 126 117.5 210.5t230.5 84.5q131 0 207.5 -84.5t57.5 -210.5h-179q8 57 -23.5 94t-86.5 37zM938 1044h229l-147 -1044h-229l18 127q-149 -152 -363 -152q-183 0 -278 110t-70 292l95 667h229l-82 -591q-17 -116 41 -186
t172 -70q120 0 203 71.5t98 188.5z" />
    <glyph glyph-name="umacron.ss03" horiz-adv-x="1228" 
d="M989 1386l-28 -192h-519l27 192h520zM938 1044h229l-147 -1044h-229l18 127q-149 -152 -363 -152q-183 0 -278 110t-70 292l95 667h229l-82 -591q-17 -116 41 -186t172 -70q120 0 203 71.5t98 188.5z" />
    <glyph glyph-name="uogonek.ss03" horiz-adv-x="1228" 
d="M938 1044h229l-147 -1044h-2q-226 -93 -246 -213q-6 -44 21 -71t69 -27q54 0 107 32l32 -143q-86 -53 -198 -53q-109 0 -171 61t-48 152q12 83 78.5 153t164.5 109h-36l18 127q-149 -152 -363 -152q-183 0 -278 110t-70 292l95 667h229l-82 -591q-17 -116 41 -186
t172 -70q120 0 203 71.5t98 188.5z" />
    <glyph glyph-name="uring.ss03" horiz-adv-x="1228" 
d="M694 1143q-85 0 -133.5 55t-36.5 137q10 81 75 137t149 56q85 0 133.5 -55.5t36.5 -137.5q-10 -81 -75 -136.5t-149 -55.5zM647 1335q-4 -33 13.5 -54t50.5 -21q31 0 55.5 21t28.5 54q5 32 -13.5 54t-50.5 22q-31 0 -55.5 -22t-28.5 -54zM938 1044h229l-147 -1044h-229
l18 127q-149 -152 -363 -152q-183 0 -278 110t-70 292l95 667h229l-82 -591q-17 -116 41 -186t172 -70q120 0 203 71.5t98 188.5z" />
    <glyph glyph-name="utilde.ss03" horiz-adv-x="1228" 
d="M604 1276q-38 0 -66 -25.5t-34 -62.5h-162q16 118 85 194t175 76q40 0 75 -15t55.5 -33t48 -33t53.5 -15q37 0 65.5 26t32.5 64h164q-15 -120 -85 -195t-175 -75q-41 0 -76.5 14.5t-56 32.5t-47 32.5t-52.5 14.5zM938 1044h229l-147 -1044h-229l18 127
q-149 -152 -363 -152q-183 0 -278 110t-70 292l95 667h229l-82 -591q-17 -116 41 -186t172 -70q120 0 203 71.5t98 188.5z" />
    <glyph glyph-name="w.ss04" horiz-adv-x="1810" 
d="M1536 1044h229l-94 -659q-26 -186 -160 -298t-329 -112q-118 0 -203 43.5t-127 122.5q-65 -79 -163 -122.5t-216 -43.5q-195 0 -297 112t-76 298l93 659h229l-88 -628q-14 -98 38 -158.5t152 -60.5q99 0 168 60t84 159l88 628h230l-88 -628q-15 -98 37 -158.5t151 -60.5
q100 0 169 60.5t83 158.5z" />
    <glyph glyph-name="wacute.ss04" horiz-adv-x="1810" 
d="M1401 1450l-297 -283h-244l250 283h291zM1536 1044h229l-94 -659q-26 -186 -160 -298t-329 -112q-118 0 -203 43.5t-127 122.5q-65 -79 -163 -122.5t-216 -43.5q-195 0 -297 112t-76 298l93 659h229l-88 -628q-14 -98 38 -158.5t152 -60.5q99 0 168 60t84 159l88 628h230
l-88 -628q-15 -98 37 -158.5t151 -60.5q100 0 169 60.5t83 158.5z" />
    <glyph glyph-name="wcircumflex.ss04" horiz-adv-x="1810" 
d="M1018 1327l-148 -160h-217l244 283h279l163 -283h-215zM1536 1044h229l-94 -659q-26 -186 -160 -298t-329 -112q-118 0 -203 43.5t-127 122.5q-65 -79 -163 -122.5t-216 -43.5q-195 0 -297 112t-76 298l93 659h229l-88 -628q-14 -98 38 -158.5t152 -60.5q99 0 168 60
t84 159l88 628h230l-88 -628q-15 -98 37 -158.5t151 -60.5q100 0 169 60.5t83 158.5z" />
    <glyph glyph-name="wdieresis.ss04" horiz-adv-x="1810" 
d="M780 1171q-57 0 -89.5 38t-24.5 94q7 57 51.5 95t101.5 38t90 -38t25 -95q-7 -55 -52 -93.5t-102 -38.5zM1214 1171q-57 0 -89.5 38t-24.5 94q7 57 51.5 95t101.5 38t90 -38t25 -95q-7 -55 -52 -93.5t-102 -38.5zM1536 1044h229l-94 -659q-26 -186 -160 -298t-329 -112
q-118 0 -203 43.5t-127 122.5q-65 -79 -163 -122.5t-216 -43.5q-195 0 -297 112t-76 298l93 659h229l-88 -628q-14 -98 38 -158.5t152 -60.5q99 0 168 60t84 159l88 628h230l-88 -628q-15 -98 37 -158.5t151 -60.5q100 0 169 60.5t83 158.5z" />
    <glyph glyph-name="wgrave.ss04" horiz-adv-x="1810" 
d="M1133 1167h-244l-217 283h291zM1536 1044h229l-94 -659q-26 -186 -160 -298t-329 -112q-118 0 -203 43.5t-127 122.5q-65 -79 -163 -122.5t-216 -43.5q-195 0 -297 112t-76 298l93 659h229l-88 -628q-14 -98 38 -158.5t152 -60.5q99 0 168 60t84 159l88 628h230l-88 -628
q-15 -98 37 -158.5t151 -60.5q100 0 169 60.5t83 158.5z" />
    <glyph glyph-name="zero.subs" horiz-adv-x="808" 
d="M283 -248q-148 0 -223.5 122t-49.5 316q28 194 138 316.5t258 122.5q146 0 222 -123t48 -316q-26 -193 -136 -315.5t-257 -122.5zM305 -86q70 0 125 77t72 199q19 121 -15.5 199t-103.5 78t-124.5 -77t-74.5 -200q-17 -122 17 -199t104 -77z" />
    <glyph glyph-name="one.subs" horiz-adv-x="489" 
d="M287 614h121l-119 -847h-170l92 647l-150 -78l-53 135z" />
    <glyph glyph-name="two.subs" horiz-adv-x="659" 
d="M575 373q-14 -123 -139 -236l-231 -211h323l-22 -159h-561l20 137l334 311q98 93 104 147q6 43 -24 71t-78 28q-92 0 -178 -96l-103 110q57 70 140 112t174 42q124 0 191 -72.5t50 -183.5z" />
    <glyph glyph-name="three.subs" horiz-adv-x="690" 
d="M614 397q-7 -59 -45 -107.5t-98 -78.5q60 -31 89 -86.5t20 -124.5q-15 -109 -115 -178.5t-240 -69.5q-89 0 -167.5 31.5t-127.5 87.5l115 125q32 -38 84.5 -60t108.5 -22q68 0 116 31.5t56 79.5q6 49 -33 80.5t-103 31.5h-122l22 144h123q56 0 96.5 26t44.5 66
q6 41 -31.5 67.5t-99.5 26.5q-47 0 -96 -17.5t-84 -46.5l-74 123q57 48 136.5 75.5t160.5 27.5q130 0 204 -65t60 -167z" />
    <glyph glyph-name="four.subs" horiz-adv-x="739" 
d="M635 90l-23 -160h-90l-22 -163h-170l22 163h-360l-21 140l461 544h186l-73 -524h90zM147 90h228l47 328z" />
    <glyph glyph-name="five.subs" horiz-adv-x="720" 
d="M358 311q124 0 196.5 -78.5t57.5 -195.5q-17 -122 -120.5 -203.5t-245.5 -81.5q-168 0 -283 115l103 137q34 -42 85 -66t107 -24q72 0 122 37.5t58 91.5q8 51 -26.5 85t-94.5 34q-77 0 -135 -49l-141 45l104 456h488l-21 -157h-346l-39 -174q65 28 131 28z" />
    <glyph glyph-name="six.subs" horiz-adv-x="698" 
d="M377 309q113 0 178.5 -78.5t50.5 -191.5q-19 -124 -122 -205.5t-240 -81.5q-146 0 -221.5 93.5t-53.5 250.5q28 202 193 351.5t411 181.5l9 -158q-127 -21 -224 -78.5t-149 -134.5q70 51 168 51zM430 37q8 51 -28 86t-99 35q-60 0 -109.5 -31.5t-56.5 -85.5
q-8 -56 28 -92.5t101 -36.5q63 0 110 35.5t54 89.5z" />
    <glyph glyph-name="seven.subs" horiz-adv-x="661" 
d="M59 614h566l-17 -133l-426 -714h-190l409 688h-364z" />
    <glyph glyph-name="eight.subs" horiz-adv-x="716" 
d="M643 393q-15 -116 -139 -186q56 -33 83.5 -86t18.5 -117q-15 -106 -117.5 -179t-238.5 -73t-218 72.5t-67 179.5q9 63 51 115.5t107 87.5q-48 31 -71.5 80t-14.5 106q14 99 109.5 167.5t226.5 68.5q130 0 207.5 -68.5t62.5 -167.5zM207 375q-6 -41 28 -70t89 -29t96.5 29
t46.5 70q6 42 -27 70t-90 28q-54 0 -95.5 -28.5t-47.5 -69.5zM436 20q6 46 -33 77.5t-102 31.5q-61 0 -107.5 -31.5t-52.5 -77.5t31 -77t98 -31q64 0 112 31t54 77z" />
    <glyph glyph-name="nine.subs" horiz-adv-x="698" 
d="M362 629q147 0 222.5 -94t52.5 -250q-28 -206 -195 -359t-407 -174l-10 158q127 14 224 72.5t150 140.5q-74 -51 -168 -51q-113 0 -177.5 78t-49.5 192q17 124 119 205.5t239 81.5zM471 340q8 56 -28.5 92.5t-102.5 36.5q-62 0 -108.5 -35.5t-53.5 -89.5q-8 -51 28 -86
t97 -35t111 31.5t57 85.5z" />
    <glyph glyph-name="zero.dnom" horiz-adv-x="808" 
d="M315 -14q-147 0 -222.5 122t-49.5 316q28 194 137.5 316t257.5 122q147 0 223 -122.5t48 -315.5q-26 -193 -136.5 -315.5t-257.5 -122.5zM338 147q70 0 125 77.5t72 199.5q19 121 -15 198.5t-104 77.5q-69 0 -124.5 -76.5t-74.5 -199.5q-17 -122 17.5 -199.5t103.5 -77.5
z" />
    <glyph glyph-name="one.dnom" horiz-adv-x="489" 
d="M319 848h121l-118 -848h-170l92 647l-150 -78l-53 136z" />
    <glyph glyph-name="two.dnom" horiz-adv-x="659" 
d="M608 606q-14 -122 -139 -235l-231 -211h323l-22 -160h-562l21 137l334 312q98 93 104 147q6 43 -24 70.5t-78 27.5q-92 0 -178 -96l-103 111q56 70 139.5 111.5t174.5 41.5q124 0 191 -72.5t50 -183.5z" />
    <glyph glyph-name="three.dnom" horiz-adv-x="690" 
d="M647 631q-7 -59 -45.5 -108t-97.5 -79q60 -31 88.5 -86.5t19.5 -124.5q-15 -109 -114.5 -178t-239.5 -69q-89 0 -167.5 31t-127.5 87l115 125q32 -38 84 -60t108 -22q68 0 116 31.5t56 79.5q6 49 -32.5 81t-102.5 32h-123l23 143h123q56 0 96.5 26t44.5 66
q6 41 -31.5 67.5t-99.5 26.5q-104 0 -180 -63l-74 123q57 47 136.5 74.5t160.5 27.5q130 0 204 -65t60 -166z" />
    <glyph glyph-name="four.dnom" horiz-adv-x="739" 
d="M668 324l-23 -160h-90l-23 -164h-170l23 164h-360l-21 139l461 545h186l-73 -524h90zM180 324h228l47 327z" />
    <glyph glyph-name="five.dnom" horiz-adv-x="720" 
d="M391 545q124 0 196.5 -79t57.5 -196q-17 -122 -120.5 -203t-245.5 -81q-169 0 -283 114l102 138q34 -42 85.5 -66.5t107.5 -24.5q72 0 122 37.5t58 91.5q8 51 -26.5 85t-94.5 34q-77 0 -135 -49l-141 45l104 457h488l-21 -158h-346l-39 -174q67 29 131 29z" />
    <glyph glyph-name="six.dnom" horiz-adv-x="698" 
d="M410 543q113 0 178.5 -79t50.5 -192q-19 -124 -122.5 -205t-240.5 -81q-146 0 -221 93.5t-53 250.5q28 202 193 351t411 181l8 -157q-127 -21 -223.5 -78.5t-148.5 -134.5q70 51 168 51zM463 270q8 51 -28 86t-99 35q-60 0 -109.5 -31.5t-56.5 -85.5q-8 -56 28 -92.5
t101 -36.5q63 0 110 35.5t54 89.5z" />
    <glyph glyph-name="seven.dnom" horiz-adv-x="661" 
d="M92 848h565l-16 -133l-426 -715h-190l409 688h-364z" />
    <glyph glyph-name="eight.dnom" horiz-adv-x="716" 
d="M676 627q-15 -117 -139 -187q56 -33 83.5 -85.5t18.5 -116.5q-15 -106 -117.5 -179t-238.5 -73t-218 72.5t-67 179.5q9 63 51 115t107 87q-48 31 -71.5 80.5t-14.5 106.5q14 99 109.5 167t226.5 68q130 0 207.5 -68t62.5 -167zM240 608q-6 -41 27.5 -69.5t88.5 -28.5
q56 0 98 28.5t46 69.5q6 42 -27.5 70.5t-89.5 28.5q-54 0 -95.5 -29t-47.5 -70zM469 254q6 46 -33 77t-102 31q-62 0 -108 -31t-52 -77t31 -77.5t98 -31.5q64 0 112 31.5t54 77.5z" />
    <glyph glyph-name="nine.dnom" horiz-adv-x="698" 
d="M395 862q147 0 222.5 -94t52.5 -250q-28 -206 -195 -358.5t-407 -173.5l-11 157q127 14 224.5 72.5t150.5 140.5q-74 -51 -168 -51q-113 0 -177.5 78t-49.5 192q17 124 119 205.5t239 81.5zM504 573q8 56 -29 92.5t-102 36.5q-62 0 -108.5 -35t-53.5 -89q-8 -51 28 -86
t97 -35t111 31t57 85z" />
    <glyph glyph-name="zero.numr" horiz-adv-x="808" 
d="M395 551q-147 0 -222.5 122t-49.5 316q28 194 137.5 316t257.5 122q146 0 222 -122.5t48 -315.5q-26 -193 -136 -315.5t-257 -122.5zM418 713q70 0 124.5 77t71.5 199q19 121 -15 199t-103 78t-124.5 -77t-74.5 -200q-17 -122 17 -199t104 -77z" />
    <glyph glyph-name="one.numr" horiz-adv-x="489" 
d="M399 1413h121l-119 -848h-170l93 647l-150 -77l-53 135z" />
    <glyph glyph-name="two.numr" horiz-adv-x="659" 
d="M688 1171q-14 -122 -139 -235l-232 -211h324l-23 -160h-561l21 137l334 312q98 93 104 147q6 43 -24 71t-78 28q-91 0 -178 -97l-103 111q57 70 139.5 111.5t173.5 41.5q124 0 191.5 -72.5t50.5 -183.5z" />
    <glyph glyph-name="three.numr" horiz-adv-x="690" 
d="M727 1196q-7 -59 -45 -107.5t-98 -78.5q60 -31 88.5 -86.5t19.5 -124.5q-15 -109 -114.5 -178.5t-239.5 -69.5q-89 0 -167.5 31.5t-127.5 87.5l115 125q32 -38 84 -60t108 -22q68 0 116 31t56 79q6 49 -32.5 81t-102.5 32h-123l23 143h123q56 0 96.5 26t44.5 66
q6 41 -31.5 68t-99.5 27q-47 0 -96 -17.5t-84 -46.5l-74 123q57 47 136.5 74.5t160.5 27.5q130 0 204 -65t60 -166z" />
    <glyph glyph-name="four.numr" horiz-adv-x="739" 
d="M748 889l-23 -160h-90l-23 -164h-170l23 164h-361l-20 139l461 545h186l-74 -524h91zM260 889h227l48 328z" />
    <glyph glyph-name="five.numr" horiz-adv-x="720" 
d="M471 1110q124 0 196.5 -78.5t57.5 -195.5q-17 -122 -121 -203.5t-246 -81.5q-167 0 -282 115l102 137q34 -42 85.5 -66t107.5 -24q72 0 122 37.5t58 91.5q8 51 -26.5 85t-94.5 34q-75 0 -135 -50l-141 45l104 457h487l-20 -158h-346l-39 -174q67 29 131 29z" />
    <glyph glyph-name="six.numr" horiz-adv-x="698" 
d="M489 1108q113 0 179 -78.5t51 -191.5q-19 -124 -122.5 -205.5t-240.5 -81.5q-146 0 -221 93.5t-53 250.5q28 202 193 351t411 181l8 -157q-127 -21 -223.5 -78.5t-148.5 -134.5q70 51 167 51zM543 836q8 51 -28 85.5t-99 34.5q-60 0 -109.5 -31t-56.5 -85
q-8 -56 28 -92.5t101 -36.5q63 0 110 35.5t54 89.5z" />
    <glyph glyph-name="seven.numr" horiz-adv-x="661" 
d="M172 1413h565l-16 -133l-426 -715h-191l410 688h-364z" />
    <glyph glyph-name="eight.numr" horiz-adv-x="716" 
d="M756 1192q-15 -115 -140 -186q56 -33 84 -86t19 -117q-15 -106 -118 -179t-239 -73t-217.5 72.5t-66.5 179.5q9 63 51 115.5t107 87.5q-48 31 -71.5 80t-14.5 106q14 99 109 167t226 68q130 0 208 -68t63 -167zM319 1174q-6 -41 28 -70t89 -29q56 0 98 29t46 70
q6 42 -27 70t-90 28q-54 0 -96 -28.5t-48 -69.5zM549 819q6 46 -33 77.5t-102 31.5q-61 0 -107.5 -31.5t-52.5 -77.5t31 -77t98 -31q64 0 112 31t54 77z" />
    <glyph glyph-name="nine.numr" horiz-adv-x="698" 
d="M475 1427q147 0 222.5 -94t52.5 -250q-19 -134 -98.5 -249.5t-212 -192t-292.5 -90.5l-10 158q127 14 224.5 72.5t150.5 140.5q-76 -52 -168 -52q-113 0 -177.5 78.5t-49.5 192.5q17 124 119 205t239 81zM584 1139q8 56 -29 92.5t-102 36.5q-62 0 -108.5 -35.5
t-53.5 -89.5q-8 -51 28 -86t97 -35t111 31.5t57 85.5z" />
    <glyph glyph-name="exclamdown.case" horiz-adv-x="542" 
d="M354 1114q-69 0 -107.5 45t-29.5 113t61 113t121 45q68 0 107.5 -45.5t30.5 -112.5q-10 -67 -62.5 -112.5t-120.5 -45.5zM76 0l49 348l104 637h213l-73 -637l-50 -348h-243z" />
    <glyph glyph-name="questiondown.case" horiz-adv-x="1044" 
d="M637 1114q-69 0 -107.5 45t-29.5 113t61 113t121 45q67 0 106 -45t31 -113q-11 -68 -63 -113t-119 -45zM465 -25q-188 0 -298 111.5t-87 273.5q8 58 33.5 112t60.5 95.5t75.5 80.5t80.5 73.5t73.5 66.5t57 67t28.5 69l9 57h239l-6 -57q-10 -67 -52 -131t-96.5 -113.5
t-108.5 -96.5t-94.5 -99.5t-47.5 -102.5q-11 -74 38.5 -123t139.5 -49q89 0 178.5 46.5t161.5 129.5l137 -160q-103 -118 -240.5 -184t-281.5 -66z" />
    <glyph glyph-name="periodcentered.case" horiz-adv-x="573" 
d="M291 545q-71 0 -111 46.5t-30 115.5q9 69 63 115t123 46q70 0 110 -46t31 -115t-62.5 -115.5t-123.5 -46.5z" />
    <glyph glyph-name="bullet.case" horiz-adv-x="690" 
d="M340 485q-95 0 -149.5 63.5t-40.5 158.5t85 158t166 63q94 0 149.5 -63t43.5 -158q-13 -95 -86.5 -158.5t-167.5 -63.5z" />
    <glyph glyph-name="asterisk.case" horiz-adv-x="811" 
d="M614 1098l48 -21l126 -76l-90 -122l-129 75l-34 33v-53l-21 -152h-143l20 152l17 55l-48 -35l-147 -75l-57 122l149 78l55 19l-49 20l-127 76l88 123l129 -76l37 -35l-2 54l23 153h143l-22 -153l-15 -54l47 35l148 76l55 -123l-147 -78z" />
    <glyph glyph-name="slash.case" horiz-adv-x="1083" 
d="M-88 -215l1079 1843h232l-1080 -1843h-231z" />
    <glyph glyph-name="backslash.case" horiz-adv-x="1083" 
d="M731 -215l-559 1843h231l560 -1843h-232z" />
    <glyph glyph-name="parenleft.case" horiz-adv-x="720" 
d="M348 -256q-107 173 -149.5 436.5t-5.5 526.5q37 262 153.5 525t271.5 437h232q-151 -174 -265 -437t-151 -525t3 -526t143 -437h-232z" />
    <glyph glyph-name="parenright.case" horiz-adv-x="720" 
d="M-76 -256q151 174 265 437.5t151 525.5q37 263 -2.5 526t-142.5 436h231q106 -174 149.5 -437.5t6.5 -524.5t-154 -525t-272 -438h-232z" />
    <glyph glyph-name="braceleft.case" horiz-adv-x="858" 
d="M745 1669h207l-30 -217h-119q-53 0 -91.5 -34.5t-45.5 -88.5l-64 -457q-9 -55 -46 -98t-93 -65q50 -24 74.5 -67.5t17.5 -98.5l-66 -459q-7 -54 21.5 -88.5t81.5 -34.5h119l-29 -217h-207q-119 0 -183.5 75t-47.5 195l67 471q6 51 -19.5 83t-74.5 32h-80l31 217h80
q50 0 85 31.5t42 83.5l63 467q17 120 102.5 195t204.5 75z" />
    <glyph glyph-name="braceright.case" horiz-adv-x="858" 
d="M696 817h80l-31 -217h-79q-50 0 -85.5 -32t-41.5 -83l-68 -471q-15 -120 -100 -195t-205 -75h-207l29 217h118q54 0 93 34.5t45 88.5l65 459q7 55 44 98.5t93 67.5q-50 22 -74.5 65t-15.5 98l64 457q8 54 -20.5 88.5t-82.5 34.5h-118l30 217h207q120 0 183.5 -75
t46.5 -195l-64 -467q-7 -52 18.5 -83.5t75.5 -31.5z" />
    <glyph glyph-name="bracketleft.case" horiz-adv-x="737" 
d="M799 1452h-246l-207 -1491h242l-29 -217h-481l270 1925h481z" />
    <glyph glyph-name="bracketright.case" horiz-adv-x="737" 
d="M229 1669h482l-271 -1925h-481l29 217h248l206 1491h-243z" />
    <glyph glyph-name="hyphen.case" horiz-adv-x="835" 
d="M135 598l31 221h588l-31 -221h-588z" />
    <glyph glyph-name="endash.case" horiz-adv-x="1245" 
d="M135 604l29 207h999l-30 -207h-998z" />
    <glyph glyph-name="emdash.case" horiz-adv-x="2187" 
d="M135 604l29 207h1941l-30 -207h-1940z" />
    <glyph glyph-name="guillemotleft.case" horiz-adv-x="1314" 
d="M774 1124l-385 -417l268 -418h-270l-266 418l383 417h270zM1303 1124l-385 -417l268 -418h-271l-266 418l383 417h271z" />
    <glyph glyph-name="guillemotright.case" horiz-adv-x="1314" 
d="M461 1124l266 -417l-383 -418h-270l383 418l-267 417h271zM989 1124l266 -417l-383 -418h-270l383 418l-266 417h270z" />
    <glyph glyph-name="guilsinglleft.case" horiz-adv-x="786" 
d="M774 1124l-385 -417l268 -418h-270l-266 418l383 417h270z" />
    <glyph glyph-name="guilsinglright.case" horiz-adv-x="786" 
d="M461 1124l266 -417l-383 -418h-270l383 418l-267 417h271z" />
    <glyph glyph-name="plus.case" horiz-adv-x="1093" 
d="M1012 811l-31 -207h-317l-46 -321h-210l45 321h-318l29 207h317l45 319h211l-45 -319h320z" />
    <glyph glyph-name="at.case" horiz-adv-x="1714" 
d="M997 1462q158 0 290 -54t219.5 -148t127.5 -226.5t19 -283.5q-25 -186 -126.5 -300t-250.5 -114q-85 0 -148.5 33.5t-89.5 91.5q-97 -127 -264 -127q-153 0 -238 106.5t-63 264.5q23 159 137.5 265.5t257.5 106.5t213 -106l13 82h202l-65 -467q-5 -39 15.5 -63.5
t58.5 -24.5q61 0 109 71.5t63 182.5q32 232 -112.5 386t-391.5 154q-167 0 -312.5 -75.5t-241 -209.5t-118.5 -300t34 -300.5t181.5 -211t292.5 -76.5q216 0 373 106l65 -149q-220 -125 -465 -125q-161 0 -295 58t-221 158.5t-126 240.5t-17 299q23 158 101.5 298t194 240.5
t266 158.5t312.5 58zM838 526q71 0 128 44t76 112l7 45q0 68 -45 112t-115 44q-77 0 -137 -50t-70 -126q-10 -78 34.5 -129.5t121.5 -51.5z" />
    <glyph glyph-name="uni030C.alt" horiz-adv-x="0" 
d="M-178 1038l102 437h209l-139 -437h-172z" />
    <glyph glyph-name="caron.alt" horiz-adv-x="251" 
d="M74 1038l102 437h209l-139 -437h-172z" />
    </font>
</defs>
</svg>
