<?xml version="1.0" standalone="no"?>
<!DOCTYPE svg PUBLIC "-//W3C//DTD SVG 1.1//EN" "http://www.w3.org/Graphics/SVG/1.1/DTD/svg11.dtd" >
<svg xmlns="http://www.w3.org/2000/svg" xmlns:xlink="http://www.w3.org/1999/xlink" version="1.1">
<metadata>
Created by FontForge 20201107 at Sun Dec 27 21:40:31 2020
 By 
Copyright (c) 2020 by Adam Ladd. All rights reserved.
</metadata>
<defs>
<font id="Lufga-ExtraBoldItalic" horiz-adv-x="1288" >
  <font-face 
    font-family="Lufga ExtraBold"
    font-weight="800"
    font-style="italic"
    font-stretch="normal"
    units-per-em="2048"
    panose-1="0 0 9 0 0 0 0 0 0 0"
    ascent="1597"
    descent="-451"
    x-height="1044"
    cap-height="1413"
    bbox="-1563 -528 2703 1942"
    underline-thickness="186"
    underline-position="-390"
    slope="-8"
    unicode-range="U+0020-FB02"
  />
<missing-glyph horiz-adv-x="1024" 
d="M840 1597v-2048h-650v2048h650zM682 1460h-338v-67h133v-76h-135v-68h340v68h-135v76h135v67zM547 1196h-205v-213h340v70h-135v143zM477 1126v-73h-67v73h67zM682 928h-340v-68h135v-76h-135v-67h205v143h135v68zM682 805h-68v-135h-272v-70h340v205zM682 555h-205v-115
h70v47h67v-96h-204v164h-68v-231h340v231zM682 201h-340v-232h340v232zM614 133v-96h-204v96h204zM682 -78h-340v-67h143l-143 -97v-67h340v67h-209l143 97h66v67z" />
    <glyph glyph-name="fi" unicode="fi" horiz-adv-x="1363" 
d="M1233 1561q88 0 138 -57.5t38 -145.5q-12 -86 -78.5 -143.5t-152.5 -57.5q-88 0 -138.5 57.5t-38.5 143.5q13 88 79.5 145.5t152.5 57.5zM606 1081l-6 -37h234l-41 -303h-236l-104 -741h-332l106 741h-149l43 303h149l9 60q24 181 134.5 288t303.5 107q117 0 198 -47
l-41 -291q-53 35 -124 35q-128 0 -144 -115zM848 0l147 1044h332l-147 -1044h-332z" />
    <glyph glyph-name="fl" unicode="fl" horiz-adv-x="1363" 
d="M606 1081l-6 -37h234l-41 -303h-236l-104 -741h-332l106 741h-149l43 303h149l9 60q24 181 134.5 288t303.5 107q117 0 198 -47l-41 -291q-53 35 -124 35q-128 0 -144 -115zM1055 1475h331l-206 -1475h-332z" />
    <glyph glyph-name=".notdef" horiz-adv-x="1024" 
d="M840 1597v-2048h-650v2048h650zM682 1460h-338v-67h133v-76h-135v-68h340v68h-135v76h135v67zM547 1196h-205v-213h340v70h-135v143zM477 1126v-73h-67v73h67zM682 928h-340v-68h135v-76h-135v-67h205v143h135v68zM682 805h-68v-135h-272v-70h340v205zM682 555h-205v-115
h70v47h67v-96h-204v164h-68v-231h340v231zM682 201h-340v-232h340v232zM614 133v-96h-204v96h204zM682 -78h-340v-67h143l-143 -97v-67h340v67h-209l143 97h66v67z" />
    <glyph glyph-name=".null" horiz-adv-x="0" 
 />
    <glyph glyph-name="nonmarkingreturn" horiz-adv-x="682" 
 />
    <glyph glyph-name="space" unicode=" " horiz-adv-x="436" 
 />
    <glyph glyph-name="exclam" unicode="!" horiz-adv-x="585" 
d="M135 489l60 576l49 348h350l-49 -348l-103 -576h-307zM215 -23q-93 0 -145.5 62.5t-40.5 155.5q12 92 82.5 153.5t164.5 61.5t148 -61.5t41 -153.5q-12 -92 -84 -155t-166 -63z" />
    <glyph glyph-name="quotedbl" unicode="&#x22;" horiz-adv-x="946" 
d="M141 823l62 590h327l-104 -590h-285zM604 823l62 590h327l-104 -590h-285z" />
    <glyph glyph-name="numbersign" unicode="#" horiz-adv-x="1579" 
d="M1561 809h-289l-88 -205h237l-41 -287h-323l-139 -317h-306l140 317h-232l-139 -317h-305l139 317h-203l41 287h287l90 205h-237l38 287h324l139 317h307l-139 -317h230l139 317h307l-139 -317h200zM877 604l90 205h-232l-88 -205h230z" />
    <glyph glyph-name="dollar" unicode="$" horiz-adv-x="1206" 
d="M741 864q34 -10 65.5 -21t78 -32t84 -45.5t76 -61t62.5 -77.5t35.5 -97t2.5 -118q-26 -172 -174 -290.5t-353 -137.5l-18 -125h-123l19 125q-138 11 -268.5 70t-213.5 149l205 235q60 -63 144.5 -106t173.5 -53l41 284q-204 57 -311 171t-83 282q23 169 163.5 283
t350.5 131l19 126h123l-19 -126q122 -10 222 -56t163 -114l-190 -236q-41 41 -104 70.5t-132 38.5zM518 1020q-11 -72 107 -121l32 231q-58 -10 -95.5 -40t-43.5 -70zM811 406q6 41 -24 68.5t-93 51.5l-35 -241q62 11 104 43t48 78z" />
    <glyph glyph-name="percent" unicode="%" horiz-adv-x="1802" 
d="M463 727q-155 0 -244 101.5t-69 254.5q22 151 140 253t273 102t245.5 -102t68.5 -253q-22 -152 -140.5 -254t-273.5 -102zM139 0l1223 1413h352l-1222 -1413h-353zM500 991q38 0 68 27t36 65q5 37 -17.5 62.5t-60.5 25.5t-67 -25.5t-35 -62.5q-6 -38 16 -65t60 -27z
M1288 -25q-155 0 -244 102.5t-69 256.5q23 151 141 251.5t273 100.5q156 0 246 -101t67 -251q-22 -154 -140.5 -256.5t-273.5 -102.5zM1327 242q39 0 69 26.5t34 65.5q5 37 -17.5 62.5t-60.5 25.5t-67.5 -25.5t-35.5 -62.5q-5 -40 17.5 -66t60.5 -26z" />
    <glyph glyph-name="ampersand" unicode="&#x26;" horiz-adv-x="1349" 
d="M1356 631q-89 -217 -234 -377l191 -254h-400l-55 72q-137 -97 -344 -97q-244 0 -376 127.5t-103 333.5q19 129 91 220t183 159q-75 153 -55 285q20 147 147.5 242.5t298.5 95.5q111 0 196.5 -43t128 -120.5t28.5 -172.5q-16 -110 -97.5 -191.5t-214.5 -152.5l205 -273
q79 98 133 228zM555 1096q-9 -55 43 -140q136 72 147 144q6 37 -17.5 59.5t-63.5 22.5q-41 0 -72 -22.5t-37 -63.5zM571 272q61 0 119 21l-233 303q-81 -62 -92 -141q-12 -79 46 -131t160 -52z" />
    <glyph glyph-name="quotesingle" unicode="'" horiz-adv-x="483" 
d="M141 823l62 590h327l-104 -590h-285z" />
    <glyph glyph-name="parenleft" unicode="(" horiz-adv-x="729" 
d="M291 -389q-108 175 -152 438t-6 524q37 262 155 525.5t275 437.5h334q-151 -173 -264 -436.5t-150 -526.5q-38 -261 1 -524.5t141 -437.5h-334z" />
    <glyph glyph-name="parenright" unicode=")" horiz-adv-x="729" 
d="M-154 -389q152 173 266 436t152 526q37 263 -2.5 526.5t-142.5 436.5h334q108 -174 152 -438t7 -525q-38 -262 -156.5 -525t-275.5 -437h-334z" />
    <glyph glyph-name="asterisk" unicode="*" horiz-adv-x="765" 
d="M649 1145l64 -27l92 -53l-127 -174l-94 53l-47 45l2 -69l-15 -107h-202l14 107l22 67l-61 -43l-107 -53l-77 174l108 55l70 25l-64 26l-92 52l125 174l94 -51l47 -48l-2 72l17 105h200l-14 -105l-20 -67l61 43l107 51l77 -174l-106 -54z" />
    <glyph glyph-name="plus" unicode="+" horiz-adv-x="1093" 
d="M1016 754l-43 -299h-285l-41 -287h-303l41 287h-285l43 299h285l41 286h303l-41 -286h285z" />
    <glyph glyph-name="comma" unicode="," horiz-adv-x="559" 
d="M-127 -297l233 627h386l-334 -627h-285z" />
    <glyph glyph-name="hyphen" unicode="-" horiz-adv-x="835" 
d="M92 401l47 320h615l-47 -320h-615z" />
    <glyph glyph-name="period" unicode="." horiz-adv-x="552" 
d="M199 -23q-96 0 -151.5 64t-43.5 160q14 95 87.5 160t170.5 65t153 -65t42 -160t-87.5 -159.5t-170.5 -64.5z" />
    <glyph glyph-name="slash" unicode="/" horiz-adv-x="1118" 
d="M-133 -307l1079 1843h334l-1079 -1843h-334z" />
    <glyph glyph-name="zero" unicode="0" horiz-adv-x="1286" 
d="M565 -25q-164 0 -279 92.5t-162.5 259t-17.5 380.5q44 323 230.5 527t435.5 204q164 0 279.5 -92t163 -258.5t18.5 -380.5q-46 -324 -232.5 -528t-435.5 -204zM612 315q89 0 161 109.5t97 282.5q25 174 -15.5 282.5t-131.5 108.5q-88 0 -159.5 -109t-96.5 -282t16 -282.5
t129 -109.5z" />
    <glyph glyph-name="one" unicode="1" horiz-adv-x="837" 
d="M578 1413h249l-198 -1413h-353l142 993l-209 -110l-111 284z" />
    <glyph glyph-name="two" unicode="2" horiz-adv-x="1091" 
d="M1067 993q-14 -87 -55 -167.5t-83 -129t-98 -100.5l-292 -264h452l-47 -332h-948l39 287l508 469q41 39 68.5 67t56 71t34.5 77q7 52 -28.5 83t-100.5 31q-118 0 -256 -131l-206 230q94 115 236.5 184.5t297.5 69.5q216 0 332.5 -126t89.5 -319z" />
    <glyph glyph-name="three" unicode="3" horiz-adv-x="1165" 
d="M1151 1040q-13 -96 -71 -174.5t-150 -130.5q90 -53 132.5 -142t27.5 -198q-28 -186 -196 -303t-409 -117q-154 0 -290 53.5t-213 143.5l235 260q47 -54 126.5 -85.5t164.5 -31.5q92 0 155 36.5t72 94.5q8 60 -42.5 98t-139.5 38h-197l43 301h197q75 0 126.5 29t57.5 75
q8 50 -41.5 80.5t-138.5 30.5q-69 0 -141 -21.5t-125 -56.5l-148 256q94 74 231.5 118t274.5 44q229 0 356.5 -110.5t102.5 -287.5z" />
    <glyph glyph-name="four" unicode="4" horiz-adv-x="1200" 
d="M1159 575l-45 -331h-129l-35 -244h-352l35 244h-555l-41 286l723 883h389l-117 -838h127zM420 575h258l55 390z" />
    <glyph glyph-name="five" unicode="5" horiz-adv-x="1167" 
d="M696 932q135 0 238.5 -61t152.5 -168.5t31 -239.5q-19 -138 -105 -249.5t-223 -175t-298 -63.5q-127 0 -253 44.5t-231 136.5l213 282q58 -59 136 -91t159 -32q101 0 167 45t75 111q8 60 -35.5 99.5t-116.5 39.5q-99 0 -168 -63l-301 90l182 776h834l-45 -332h-539
l-39 -178q76 29 166 29z" />
    <glyph glyph-name="six" unicode="6" horiz-adv-x="1155" 
d="M754 915q121 0 212 -60t133 -164t25 -228q-19 -139 -106 -251t-219.5 -174.5t-284.5 -62.5q-248 0 -374 162.5t-89 429.5q23 166 106 315.5t213.5 266t312 193t390.5 96.5l21 -328q-176 -20 -315 -84t-222 -156q93 45 197 45zM764 455q7 60 -39 99.5t-123 39.5
t-136.5 -37.5t-68.5 -99.5t37 -102t127 -40q77 0 135 40t68 100z" />
    <glyph glyph-name="seven" unicode="7" horiz-adv-x="1071" 
d="M193 1413h958l-39 -276l-659 -1137h-396l629 1081h-541z" />
    <glyph glyph-name="eight" unicode="8" horiz-adv-x="1218" 
d="M1204 1034q-27 -184 -213 -301q85 -56 125 -141t27 -186q-25 -182 -201 -306.5t-412 -124.5q-234 0 -373.5 124t-113.5 307q15 101 79 186t165 141q-73 55 -106.5 132.5t-20.5 168.5q15 111 95 203.5t207 146.5t275 54q224 0 357 -117t110 -287zM516 997q-6 -44 35.5 -74
t110.5 -30t119.5 30t56.5 74q6 43 -37 72t-111 29q-69 0 -118.5 -29t-55.5 -72zM786 440q8 54 -41.5 90.5t-130.5 36.5q-79 0 -137.5 -36.5t-66.5 -90.5q-7 -54 41.5 -89.5t128.5 -35.5t139.5 35.5t66.5 89.5z" />
    <glyph glyph-name="nine" unicode="9" horiz-adv-x="1155" 
d="M694 1438q247 0 373.5 -163t89.5 -429q-24 -167 -107.5 -318.5t-213 -270t-312 -194t-391.5 -88.5l-20 328q177 10 318 77t224 165q-100 -47 -202 -47q-121 0 -212.5 60t-133.5 164t-25 228q31 211 205 349.5t407 138.5zM811 956q9 61 -37.5 101.5t-126.5 40.5
q-78 0 -136 -40t-65 -100q-9 -60 36 -99.5t122 -39.5q78 0 138 37.5t69 99.5z" />
    <glyph glyph-name="colon" unicode=":" horiz-adv-x="573" 
d="M299 602q-97 0 -153 65t-42 160q12 95 86.5 159.5t171.5 64.5q95 0 150 -64t43 -160q-14 -95 -87.5 -160t-168.5 -65zM209 -23q-96 0 -151.5 64t-43.5 160q14 95 87.5 160t170.5 65t153 -65t42 -160t-87.5 -159.5t-170.5 -64.5z" />
    <glyph glyph-name="semicolon" unicode=";" horiz-adv-x="604" 
d="M330 602q-97 0 -152.5 65t-40.5 160q12 95 85.5 159.5t170.5 64.5q96 0 151.5 -64t43.5 -160q-14 -95 -87.5 -160t-170.5 -65zM-127 -297l233 627h386l-334 -627h-285z" />
    <glyph glyph-name="less" unicode="&#x3c;" horiz-adv-x="950" 
d="M922 1104l-48 -330l-411 -168l364 -168l-47 -329l-680 348l43 299z" />
    <glyph glyph-name="equal" unicode="=" horiz-adv-x="1093" 
d="M133 674l41 299h873l-43 -299h-871zM72 240l43 299h870l-41 -299h-872z" />
    <glyph glyph-name="greater" unicode="&#x3e;" horiz-adv-x="950" 
d="M193 1104l679 -348l-43 -299l-778 -348l49 329l410 168l-363 168z" />
    <glyph glyph-name="question" unicode="?" horiz-adv-x="1015" 
d="M309 492l6 36q10 67 49.5 127.5t90 105t100 84.5t86 80t41.5 76q6 44 -24.5 70.5t-90.5 26.5q-146 0 -291 -142l-192 234q118 118 260 183t289 65q202 0 320.5 -118.5t93.5 -287.5q-11 -77 -52.5 -145.5t-94 -116t-103.5 -88t-88.5 -80t-42.5 -74.5l-7 -36h-350zM412 -23
q-93 0 -146 62.5t-41 155.5q12 92 83.5 153.5t166.5 61.5q94 0 147.5 -61.5t41.5 -153.5q-14 -92 -86 -155t-166 -63z" />
    <glyph glyph-name="at" unicode="@" horiz-adv-x="1695" 
d="M967 1317q159 0 293 -54t223.5 -147t130.5 -225.5t20 -282.5q-27 -192 -137 -308t-276 -116q-85 0 -153 30t-105 83q-88 -115 -236 -115q-149 0 -231 105.5t-60 261.5q23 158 132.5 264.5t244.5 106.5q108 0 172 -76l6 51h273l-60 -426q-5 -31 12.5 -50.5t49.5 -19.5
q52 0 90.5 59t52.5 154q20 139 -35.5 252t-171 176.5t-266.5 63.5q-119 0 -228.5 -42t-193 -115t-139.5 -176t-72 -220q-17 -116 10.5 -218t90.5 -175t161.5 -115.5t218.5 -42.5q190 0 336 88l68 -197q-206 -104 -438 -104q-220 0 -384.5 100t-241 275t-46.5 389
t155.5 389.5t319 276t414.5 100.5zM813 442q46 0 83 28t46 71l2 20q3 42 -25 70t-73 28q-48 0 -86.5 -31t-44.5 -77t22.5 -77.5t75.5 -31.5z" />
    <glyph glyph-name="A" unicode="A" horiz-adv-x="1472" 
d="M1006 0l-43 223h-543l-107 -223h-379l719 1413h416l322 -1413h-385zM575 547h322l-94 477z" />
    <glyph glyph-name="B" unicode="B" horiz-adv-x="1308" 
d="M1286 1049q-13 -94 -66 -175t-126 -124q90 -40 136.5 -141.5t29.5 -223.5q-25 -169 -155.5 -277t-303.5 -108h-748l199 1413h702q163 0 259 -103.5t73 -260.5zM915 985q6 47 -21 79t-73 32h-274l-31 -222h272q47 0 84 32t43 79zM905 446q8 54 -24 91.5t-86 37.5h-320
l-37 -258h320q54 0 97 37.5t50 91.5z" />
    <glyph glyph-name="C" unicode="C" horiz-adv-x="1466" 
d="M729 -25q-210 0 -367.5 95.5t-231 263.5t-44.5 373q28 205 149 372.5t306 263t395 95.5q198 0 350.5 -85t231.5 -233l-330 -188q-42 78 -120 122t-179 44q-165 0 -292.5 -112t-150.5 -279t71.5 -279.5t260.5 -112.5q101 0 191.5 44t154.5 122l277 -188
q-120 -148 -297 -233t-375 -85z" />
    <glyph glyph-name="D" unicode="D" horiz-adv-x="1468" 
d="M811 1413q153 0 280 -54t210 -147.5t120 -224.5t17 -280q-28 -199 -145.5 -361t-297 -254t-383.5 -92h-559l199 1413h559zM1075 707q23 160 -68 267t-249 107h-201l-104 -749h198q158 0 279.5 107.5t144.5 267.5z" />
    <glyph glyph-name="E" unicode="E" horiz-adv-x="1179" 
d="M1171 1081h-614l-29 -204h549l-47 -332h-549l-28 -213h622l-45 -332h-977l199 1413h967z" />
    <glyph glyph-name="F" unicode="F" horiz-adv-x="1114" 
d="M1141 1081h-584l-31 -221h506l-47 -332h-506l-73 -528h-353l199 1413h936z" />
    <glyph glyph-name="G" unicode="G" horiz-adv-x="1566" 
d="M866 825h695l-17 -123q-29 -207 -145 -373.5t-293.5 -260t-382.5 -93.5q-156 0 -286 56.5t-214 153.5t-121.5 232.5t-15.5 289.5q28 205 149 372.5t306 263t395 95.5q182 0 327 -70t222 -194l-295 -213q-47 66 -123 103.5t-170 37.5q-169 0 -298.5 -113t-152.5 -282
t73.5 -282.5t264.5 -113.5q114 0 208.5 54.5t144.5 146.5h-314z" />
    <glyph glyph-name="H" unicode="H" horiz-adv-x="1464" 
d="M1112 1413h352l-198 -1413h-353l76 545h-508l-75 -545h-353l199 1413h352l-76 -536h508z" />
    <glyph glyph-name="I" unicode="I" horiz-adv-x="604" 
d="M53 0l199 1413h352l-198 -1413h-353z" />
    <glyph glyph-name="J" unicode="J" horiz-adv-x="888" 
d="M190 -25q-127 0 -213 39l48 334q93 -33 176 -33q98 0 157.5 45.5t71.5 133.5l129 919h352l-131 -938q-33 -235 -193 -367.5t-397 -132.5z" />
    <glyph glyph-name="K" unicode="K" horiz-adv-x="1394" 
d="M1526 1413l-688 -678l520 -735h-457l-323 479l-121 -121l-51 -358h-353l199 1413h352l-80 -571l555 571h447z" />
    <glyph glyph-name="L" unicode="L" horiz-adv-x="1081" 
d="M453 332h561l-45 -332h-916l199 1413h352z" />
    <glyph glyph-name="M" unicode="M" horiz-adv-x="1806" 
d="M1374 1413h430l-198 -1413h-353l119 848l-411 -625h-199l-238 625l-118 -848h-353l199 1413h436l250 -659z" />
    <glyph glyph-name="N" unicode="N" horiz-adv-x="1488" 
d="M1135 1413h352l-199 -1413h-352l-420 797l-110 -797h-353l199 1413h352l420 -797z" />
    <glyph glyph-name="O" unicode="O" horiz-adv-x="1615" 
d="M729 -25q-210 0 -367.5 95.5t-231 263.5t-44.5 373q28 205 149 372.5t306 263t395 95.5q211 0 369 -95.5t232 -263t46 -372.5q-29 -205 -150.5 -373t-307 -263.5t-396.5 -95.5zM778 315q166 0 293 112.5t152 279.5q23 167 -72.5 279t-261.5 112q-165 0 -292.5 -112
t-150.5 -279t71.5 -279.5t260.5 -112.5z" />
    <glyph glyph-name="P" unicode="P" horiz-adv-x="1304" 
d="M893 1413q217 0 343 -140.5t97 -350.5q-31 -210 -196 -350t-383 -140h-287l-61 -432h-353l199 1413h641zM971 922q9 69 -28 114t-103 45h-283l-45 -317h283q66 0 116.5 45.5t59.5 112.5z" />
    <glyph glyph-name="Q" unicode="Q" horiz-adv-x="1615" 
d="M1583 707q-23 -156 -99 -291t-194 -234l105 -186l-289 -184l-115 204q-128 -41 -262 -41q-210 0 -367.5 95.5t-231 263.5t-44.5 373q28 205 149 372.5t306 263t395 95.5q211 0 369 -95.5t232 -263t46 -372.5zM1026 649l96 -170q84 103 101 228q23 167 -72.5 279
t-261.5 112q-165 0 -292.5 -112t-150.5 -279t71.5 -279.5t260.5 -112.5q29 0 43 2l-84 148z" />
    <glyph glyph-name="R" unicode="R" horiz-adv-x="1314" 
d="M1313 928q-20 -139 -107.5 -249.5t-216.5 -166.5l234 -512h-422l-191 461h-139l-65 -461h-353l199 1413h622q142 0 249.5 -62.5t158.5 -174t31 -248.5zM557 1081l-43 -313h262q66 0 116.5 45.5t59.5 112.5q9 66 -28.5 110.5t-102.5 44.5h-264z" />
    <glyph glyph-name="S" unicode="S" horiz-adv-x="1241" 
d="M565 -25q-164 0 -321 60.5t-258 161.5l217 268q79 -79 189 -127.5t216 -48.5q87 0 152 32.5t71 84.5q3 19 -2.5 34t-22 28t-34.5 23t-51 20.5t-59.5 17.5t-71.5 18q-479 122 -432 461q26 195 195.5 312.5t420.5 117.5q157 0 283.5 -48t199.5 -126l-200 -269
q-54 58 -145 93.5t-185 35.5q-86 0 -143.5 -29t-63.5 -75q-7 -49 51.5 -81t165.5 -58q36 -8 66.5 -16.5t84 -28t95.5 -42.5t88.5 -60t75.5 -80t44 -104t5 -130q-18 -130 -108 -232.5t-227 -157.5t-296 -55z" />
    <glyph glyph-name="T" unicode="T" horiz-adv-x="1204" 
d="M1280 1413l-45 -332h-379l-151 -1081h-353l152 1081h-377l45 332h1108z" />
    <glyph glyph-name="U" unicode="U" horiz-adv-x="1394" 
d="M618 -25q-166 0 -291 75t-184 207t-37 294l123 862h351l-119 -856q-15 -104 44 -173t163 -69t182.5 69t93.5 173l119 856h352l-121 -862q-23 -162 -119.5 -294t-243 -207t-313.5 -75z" />
    <glyph glyph-name="V" unicode="V" horiz-adv-x="1460" 
d="M1196 1413h385l-743 -1413h-361l-348 1413h393l205 -940z" />
    <glyph glyph-name="W" unicode="W" horiz-adv-x="2050" 
d="M1798 1413h363l-631 -1413h-352l-105 858l-348 -858h-350l-236 1413h373l117 -917l372 917h308l114 -921z" />
    <glyph glyph-name="X" unicode="X" horiz-adv-x="1480" 
d="M1589 1413l-581 -702l391 -711h-434l-236 459l-364 -459h-431l592 709l-385 704h434l232 -452l352 452h430z" />
    <glyph glyph-name="Y" unicode="Y" horiz-adv-x="1382" 
d="M1130 1413h394l-664 -938l-67 -475h-353l68 475l-399 938h401l231 -571z" />
    <glyph glyph-name="Z" unicode="Z" horiz-adv-x="1257" 
d="M1303 1413l-35 -252l-746 -829h641l-45 -332h-1126l35 252l745 829h-618l45 332h1104z" />
    <glyph glyph-name="bracketleft" unicode="[" horiz-adv-x="743" 
d="M803 1223h-215l-182 -1299h212l-45 -313h-557l273 1925h557z" />
    <glyph glyph-name="backslash" unicode="\" horiz-adv-x="1118" 
d="M686 -307l-559 1843h334l559 -1843h-334z" />
    <glyph glyph-name="bracketright" unicode="]" horiz-adv-x="743" 
d="M182 1536h557l-272 -1925h-557l45 313h215l182 1299h-213z" />
    <glyph glyph-name="asciicircum" unicode="^" horiz-adv-x="903" 
d="M918 881h-297l-82 256l-154 -256h-299l340 532h303z" />
    <glyph glyph-name="underscore" unicode="_" horiz-adv-x="980" 
d="M-106 -379l38 281h940l-38 -281h-940z" />
    <glyph glyph-name="grave" unicode="`" horiz-adv-x="616" 
d="M356 1143l-225 313h414l160 -313h-349z" />
    <glyph glyph-name="a" unicode="a" 
d="M920 1044h331l-147 -1044h-332l12 86q-136 -111 -307 -111q-140 0 -244.5 71.5t-151.5 197t-26 278.5t104 278.5t208.5 197t265.5 71.5q169 0 274 -111zM590 297q97 0 169.5 64t86.5 161q12 97 -42.5 161.5t-150.5 64.5q-97 0 -170.5 -64.5t-85.5 -161.5t42.5 -161
t150.5 -64z" />
    <glyph glyph-name="b" unicode="b" 
d="M811 1069q140 0 244.5 -71.5t151.5 -197t26 -278.5t-104 -278.5t-208.5 -197t-265.5 -71.5q-169 0 -274 111l-12 -86h-332l207 1475h331l-71 -517q136 111 307 111zM891 522q12 97 -42.5 161.5t-150.5 64.5q-97 0 -169.5 -64.5t-86.5 -161.5q-12 -97 42.5 -161t150.5 -64
q97 0 170.5 64.5t85.5 160.5z" />
    <glyph glyph-name="c" unicode="c" horiz-adv-x="1118" 
d="M539 -25q-242 0 -381 156.5t-107 390.5q21 153 112 278.5t231 197t300 71.5q155 0 273 -69t174 -189l-314 -176q-22 52 -69.5 82.5t-110.5 30.5q-97 0 -169.5 -64.5t-86.5 -161.5q-12 -97 42.5 -161t150.5 -64q65 0 121 30.5t92 82.5l262 -177q-90 -120 -227.5 -189
t-292.5 -69z" />
    <glyph glyph-name="d" unicode="d" 
d="M979 1475h332l-207 -1475h-332l12 86q-136 -111 -307 -111q-140 0 -244.5 71.5t-151.5 197t-26 278.5t104 278.5t208.5 197t265.5 71.5q166 0 274 -108zM590 297q93 0 164 59t90 152l4 27q6 93 -48 153t-147 60q-97 0 -170.5 -64.5t-85.5 -161.5t42.5 -161t150.5 -64z
" />
    <glyph glyph-name="e" unicode="e" horiz-adv-x="1208" 
d="M686 1069q237 0 372.5 -157.5t100.5 -395.5q-9 -64 -20 -94h-746q15 -75 72 -118.5t143 -43.5q74 0 141.5 30t110.5 72l193 -190q-99 -93 -227.5 -145t-268.5 -52q-165 0 -288 72t-181 198.5t-37 282.5q34 231 216 386t419 155zM643 786q-70 0 -129.5 -42.5t-93.5 -116.5
h401q-10 73 -58.5 116t-119.5 43z" />
    <glyph glyph-name="f" unicode="f" horiz-adv-x="794" 
d="M750 1196q-128 0 -144 -115l-6 -37h234l-41 -303h-236l-104 -741h-332l106 741h-149l43 303h149l9 60q24 181 134.5 288t303.5 107q117 0 198 -47l-41 -291q-53 35 -124 35z" />
    <glyph glyph-name="g" unicode="g" horiz-adv-x="1157" 
d="M1161 1219h90l-43 -308h-73q-32 0 -58.5 -14t-38.5 -37q59 -109 41 -254q-29 -198 -191 -330.5t-374 -132.5q-54 0 -131 15q-50 -24 -57 -72q-3 -30 16 -48t55 -18h310q162 0 259 -86t107 -241l-354 -94q0 46 -33 74t-88 28h-311q-156 0 -240 83t-65 218
q14 86 64.5 162.5t123.5 118.5q-119 132 -92 323q28 198 190 330.5t377 132.5q111 0 203 -39q37 87 121 138t192 51zM739 606q8 65 -32 107.5t-107 42.5q-69 0 -121 -43t-59 -107q-9 -64 30.5 -106.5t108.5 -42.5q67 0 118 42t62 107z" />
    <glyph glyph-name="h" unicode="h" horiz-adv-x="1228" 
d="M821 1069q177 0 269.5 -107t66.5 -284l-94 -678h-332l80 567q12 82 -28.5 131.5t-118.5 49.5q-85 0 -144 -51t-71 -134l-80 -563h-332l207 1475h331l-73 -531q137 125 319 125z" />
    <glyph glyph-name="i" unicode="i" horiz-adv-x="555" 
d="M367 1157q-88 0 -138.5 57.5t-38.5 143.5q13 88 79.5 145.5t152.5 57.5q88 0 138 -57.5t38 -145.5q-12 -86 -78.5 -143.5t-152.5 -57.5zM37 0l147 1044h332l-147 -1044h-332z" />
    <glyph glyph-name="j" unicode="j" horiz-adv-x="563" 
d="M375 1157q-86 0 -136 57.5t-38 143.5q12 88 77.5 145.5t153.5 57.5q86 0 136 -57.5t38 -145.5q-12 -86 -77.5 -143.5t-153.5 -57.5zM-41 -414q-85 0 -149 25l43 297q46 -19 86 -19q91 0 104 88l152 1067h331l-155 -1105q-23 -161 -127 -257t-285 -96z" />
    <glyph glyph-name="k" unicode="k" horiz-adv-x="1157" 
d="M1247 1044l-502 -475l369 -569h-434l-205 313l-72 -67l-34 -246h-332l207 1475h331l-108 -781l352 350h428z" />
    <glyph glyph-name="l" unicode="l" horiz-adv-x="555" 
d="M37 0l207 1475h331l-206 -1475h-332z" />
    <glyph glyph-name="m" unicode="m" horiz-adv-x="1855" 
d="M1456 1069q176 0 265.5 -105t64.5 -280l-96 -684h-332l84 584q9 74 -27.5 119t-107.5 45q-70 0 -122 -40t-71 -106l-84 -602h-332l82 584q11 74 -26 119t-109 45q-75 0 -129.5 -46.5t-64.5 -121.5l-82 -580h-332l147 1044h332l-12 -88q131 113 301 113q102 0 176 -39
t113 -112q151 151 362 151z" />
    <glyph glyph-name="n" unicode="n" horiz-adv-x="1228" 
d="M821 1069q177 0 269.5 -107t66.5 -284l-94 -678h-332l80 567q12 82 -29 131.5t-120 49.5q-83 0 -142 -51t-71 -134l-80 -563h-332l147 1044h332l-12 -92q135 117 317 117z" />
    <glyph glyph-name="o" unicode="o" horiz-adv-x="1230" 
d="M539 -25q-242 0 -381 156.5t-107 390.5q21 153 112 278.5t231 197t300 71.5q159 0 278 -71.5t175 -197t35 -278.5t-112.5 -278.5t-231.5 -197t-299 -71.5zM584 297q97 0 170.5 64.5t85.5 160.5q12 97 -42.5 161.5t-150.5 64.5q-97 0 -169.5 -64.5t-86.5 -161.5
q-12 -97 42.5 -161t150.5 -64z" />
    <glyph glyph-name="p" unicode="p" 
d="M811 1069q140 0 244.5 -71.5t151.5 -197t26 -278.5t-104 -278.5t-208.5 -197t-265.5 -71.5q-169 0 -274 111l-68 -475h-331l202 1433h332l-12 -86q136 111 307 111zM891 522q12 97 -42.5 161.5t-150.5 64.5q-97 0 -169.5 -64.5t-86.5 -161.5q-12 -97 42.5 -161t150.5 -64
q97 0 170.5 64.5t85.5 160.5z" />
    <glyph glyph-name="q" unicode="q" 
d="M920 1044h331l-202 -1433h-332l67 475q-136 -111 -307 -111q-140 0 -244.5 71.5t-151.5 197t-26 278.5t104 278.5t208.5 197t265.5 71.5q169 0 274 -111zM590 297q95 0 167 61.5t87 155.5l2 14q11 94 -43.5 157t-149.5 63q-97 0 -170.5 -64.5t-85.5 -161.5t42.5 -161
t150.5 -64z" />
    <glyph glyph-name="r" unicode="r" horiz-adv-x="776" 
d="M780 1061h49l-49 -342h-47q-127 0 -204.5 -65t-92.5 -177l-67 -477h-332l147 1044h332l-14 -104q124 121 278 121z" />
    <glyph glyph-name="s" unicode="s" horiz-adv-x="985" 
d="M408 -25q-250 0 -433 156l177 209q128 -109 280 -109q67 0 110.5 18.5t47.5 51.5q5 34 -34 52t-124 36q-64 14 -101.5 24.5t-94.5 37t-87 58.5t-48.5 88t-8.5 128q24 166 162.5 255t331.5 89q229 0 403 -135l-176 -209q-131 88 -252 88q-56 0 -93.5 -15t-43.5 -46
q-4 -33 34 -50.5t124 -35.5q61 -12 101.5 -22.5t95.5 -36.5t86 -58.5t49.5 -88.5t7.5 -128q-15 -113 -88.5 -195t-183 -122t-242.5 -40z" />
    <glyph glyph-name="t" unicode="t" horiz-adv-x="849" 
d="M559 741l-47 -329q-8 -55 19 -85t87 -30t140 35l-43 -309q-99 -48 -213 -48q-193 0 -273.5 103.5t-56.5 277.5l55 385h-149l43 303h149l35 252h332l-35 -252h256l-43 -303h-256z" />
    <glyph glyph-name="u" unicode="u" horiz-adv-x="1181" 
d="M514 -25q-225 0 -344.5 121.5t-91.5 321.5l88 626h332l-84 -579q-9 -76 30.5 -122t114.5 -46q76 0 129 46t62 122l84 579h331l-90 -626q-28 -200 -181.5 -321.5t-379.5 -121.5z" />
    <glyph glyph-name="v" unicode="v" horiz-adv-x="1163" 
d="M870 1044h371l-563 -1044h-340l-268 1044h379l124 -614z" />
    <glyph glyph-name="w" unicode="w" horiz-adv-x="1751" 
d="M1462 1044h363l-510 -1044h-340l-84 629l-262 -629h-340l-213 1044h370l82 -606l258 606h336l86 -604z" />
    <glyph glyph-name="x" unicode="x" horiz-adv-x="1159" 
d="M1227 1044l-426 -520l284 -524h-403l-139 287l-219 -287h-398l430 524l-276 520h401l135 -280l211 280h400z" />
    <glyph glyph-name="y" unicode="y" horiz-adv-x="1163" 
d="M870 1044h371l-649 -1200q-65 -119 -169.5 -188.5t-221.5 -69.5q-76 0 -155.5 30t-131.5 79l164 260q44 -47 110 -47q75 0 119 72l25 40l-262 1024h379l124 -612z" />
    <glyph glyph-name="z" unicode="z" horiz-adv-x="1013" 
d="M1006 1044l-35 -241l-463 -481h412l-48 -322h-878l35 242l463 481h-390l48 321h856z" />
    <glyph glyph-name="braceleft" unicode="{" horiz-adv-x="886" 
d="M752 1536h239l-45 -313h-108q-44 0 -76.5 -29.5t-38.5 -75.5l-51 -360q-7 -60 -49 -109t-105 -74q56 -26 83 -74.5t20 -109.5l-52 -362q-6 -46 17.5 -75.5t68.5 -29.5h109l-45 -313h-240q-140 0 -214 86t-54 227l55 379q7 52 -18.5 83.5t-75.5 31.5h-80l43 313h80
q51 0 85 32t40 83l55 377q20 141 118.5 227t238.5 86z" />
    <glyph glyph-name="bar" unicode="|" horiz-adv-x="636" 
d="M39 -389l272 1925h301l-272 -1925h-301z" />
    <glyph glyph-name="braceright" unicode="}" horiz-adv-x="886" 
d="M733 731h80l-45 -313h-80q-51 0 -85 -31t-42 -84l-53 -379q-20 -141 -118 -227t-238 -86h-242l45 313h108q45 0 77 29.5t40 75.5l51 362q7 61 48.5 109t105.5 75q-57 25 -84 72.5t-18 110.5l51 360q6 46 -18 75.5t-68 29.5h-109l43 313h242q140 0 213 -86t53 -227
l-53 -377q-6 -52 20 -83.5t76 -31.5z" />
    <glyph glyph-name="asciitilde" unicode="~" horiz-adv-x="1226" 
d="M776 408q-66 0 -124 20t-99.5 39.5t-67.5 19.5q-34 0 -58.5 -20.5t-27.5 -52.5h-303q25 185 117.5 294t261.5 109q67 0 125 -20t99 -40t67 -20q34 0 59 21t29 53h303q-27 -185 -119.5 -294t-261.5 -109z" />
    <glyph glyph-name="uni00A0" unicode="&#xa0;" horiz-adv-x="436" 
 />
    <glyph glyph-name="exclamdown" unicode="&#xa1;" horiz-adv-x="585" 
d="M309 635q-93 0 -146.5 61t-41.5 154q12 92 84 154.5t166 62.5q93 0 145.5 -62t40.5 -155q-12 -92 -83 -153.5t-165 -61.5zM-6 -369l49 349l102 575h308l-60 -575l-49 -349h-350z" />
    <glyph glyph-name="cent" unicode="&#xa2;" horiz-adv-x="1189" 
d="M731 485q78 31 125 99l260 -168q-76 -101 -188 -167t-242 -85l-22 -164h-183l23 164q-204 29 -316.5 180.5t-81.5 360.5q29 210 183 360.5t366 179.5l25 168h182l-24 -168q124 -19 217 -85.5t139 -166.5l-303 -166q-28 67 -98 95zM438 705q-10 -74 20 -132.5t91 -85.5
l61 435q-68 -25 -115 -83.5t-57 -133.5z" />
    <glyph glyph-name="sterling" unicode="&#xa3;" horiz-adv-x="1204" 
d="M549 535l-29 -203h600l-45 -332h-1052l47 332h98l29 203h-99l43 303h99l16 112q29 209 197 348.5t391 139.5q124 0 230 -45t179 -123l-215 -258q-48 39 -112 62.5t-125 23.5q-77 0 -130.5 -41.5t-62.5 -106.5l-16 -112h360l-43 -303h-360z" />
    <glyph glyph-name="currency" unicode="&#xa4;" horiz-adv-x="1138" 
d="M1014 709q-11 -87 -66 -172l107 -123l-230 -203l-116 137q-85 -29 -166 -29q-82 0 -158 29l-158 -137l-176 203l146 127q-27 74 -15 168q11 87 62 170l-109 127l232 200l118 -135q82 29 166 29t160 -29l156 135l172 -202l-142 -123q29 -81 17 -172zM463 709
q-9 -59 24 -97.5t91 -38.5t102 38.5t53 97.5q7 60 -25.5 98.5t-91.5 38.5q-57 0 -101.5 -39.5t-51.5 -97.5z" />
    <glyph glyph-name="yen" unicode="&#xa5;" horiz-adv-x="1339" 
d="M1456 1413l-518 -788h152l-25 -179h-229l-13 -79h232l-25 -179h-231l-27 -188h-352l26 188h-227l25 179h227l12 79h-229l25 179h151l-297 788h393l193 -569l352 569h385z" />
    <glyph glyph-name="brokenbar" unicode="&#xa6;" horiz-adv-x="636" 
d="M193 696l118 840h301l-118 -840h-301zM39 -389l119 840h301l-119 -840h-301z" />
    <glyph glyph-name="section" unicode="&#xa7;" horiz-adv-x="1087" 
d="M705 985q55 -13 99.5 -29t89.5 -43.5t73 -62t42 -87t5 -116.5q-24 -162 -158 -256q95 -89 76 -231q-16 -112 -88.5 -194t-177.5 -121.5t-228 -39.5q-126 0 -235.5 40.5t-173.5 107.5l159 203q33 -42 101 -71.5t149 -29.5q70 0 114.5 23.5t49.5 62.5q2 20 -9 37
t-27.5 28.5t-44 22.5t-49.5 17.5t-52 13.5q-55 13 -97.5 28t-88.5 42.5t-74.5 61.5t-43 87.5t-5.5 118.5q24 165 155 256q-93 90 -73 233q23 163 162 257t329 94q115 0 219.5 -33.5t165.5 -91.5l-151 -203q-38 34 -103 56t-133 22t-112 -23.5t-50 -60.5q-5 -44 47.5 -72
t137.5 -47zM682 612q4 40 -27 67.5t-92 41.5q-48 -5 -82.5 -29t-38.5 -59q-6 -40 25.5 -67.5t89.5 -41.5q51 4 85.5 29t39.5 59z" />
    <glyph glyph-name="dieresis" unicode="&#xa8;" horiz-adv-x="819" 
d="M268 1130q-78 0 -123 52t-34 129q10 76 69.5 128t136.5 52q78 0 122.5 -51.5t33.5 -128.5q-9 -76 -68.5 -128.5t-136.5 -52.5zM723 1130q-76 0 -121.5 52t-36.5 129q10 76 70.5 128t138.5 52q77 0 121.5 -52t34.5 -128t-70 -128.5t-137 -52.5z" />
    <glyph glyph-name="copyright" unicode="&#xa9;" horiz-adv-x="1622" 
d="M733 -25q-154 0 -281.5 56.5t-210.5 153.5t-120 232.5t-15 289.5q28 205 147 372.5t300.5 263t386.5 95.5t359 -95.5t226 -263t44 -372.5q-29 -205 -148.5 -373t-301 -263.5t-386.5 -95.5zM764 195q214 0 379 147t196 365q20 143 -29.5 260.5t-155.5 184.5t-247 67
q-213 0 -377.5 -147t-195.5 -365q-20 -143 29.5 -260.5t155 -184.5t245.5 -67zM795 338q-158 0 -249 106t-69 263q23 158 143 263t279 105q106 0 185.5 -50.5t113.5 -137.5l-246 -117q-24 53 -90 53q-49 0 -85 -34t-42 -82q-8 -48 18.5 -82.5t75.5 -34.5q64 0 105 53
l215 -117q-59 -87 -152.5 -137.5t-201.5 -50.5z" />
    <glyph glyph-name="ordfeminine" unicode="&#xaa;" horiz-adv-x="737" 
d="M563 1417h242l-78 -561h-242l7 43q-70 -57 -148 -57q-111 0 -174.5 84.5t-46.5 210.5q19 126 106 210.5t197 84.5q76 0 131 -58zM434 1055q34 0 59.5 23t30.5 57v8q4 32 -15 54t-50 22q-35 0 -60.5 -23t-31.5 -59q-5 -35 14 -58.5t53 -23.5z" />
    <glyph glyph-name="guillemotleft" unicode="&#xab;" horiz-adv-x="1347" 
d="M791 961l-351 -420l232 -420h-387l-234 420l352 420h388zM1368 961l-350 -420l233 -420h-389l-231 420l350 420h387z" />
    <glyph glyph-name="logicalnot" unicode="&#xac;" horiz-adv-x="1093" 
d="M143 754h873l-84 -586h-303l41 287h-570z" />
    <glyph glyph-name="uni00AD" unicode="&#xad;" horiz-adv-x="835" 
d="M92 401l47 320h615l-47 -320h-615z" />
    <glyph glyph-name="registered" unicode="&#xae;" horiz-adv-x="835" 
d="M549 1438q163 0 255.5 -109.5t69.5 -273.5q-23 -163 -147 -272t-287 -109t-257.5 109t-71.5 272q23 164 148.5 273.5t289.5 109.5zM754 1055q17 114 -47 191t-177 77q-112 0 -197 -76.5t-102 -191.5q-17 -114 48 -190.5t178 -76.5q112 0 197 76.5t100 190.5zM545 1257
q57 0 90.5 -38.5t26.5 -96.5q-12 -69 -74 -108l49 -131h-123l-33 108h-14l-14 -108h-111l51 374h152zM489 1159l-8 -72h31q15 0 26 10.5t13 24.5q3 15 -5.5 26t-23.5 11h-33z" />
    <glyph glyph-name="macron" unicode="&#xaf;" horiz-adv-x="579" 
d="M90 1159l39 277h580l-39 -277h-580z" />
    <glyph glyph-name="degree" unicode="&#xb0;" horiz-adv-x="790" 
d="M428 754q-149 0 -235 98t-66 246q20 145 134 242.5t263 97.5t235 -97.5t66 -242.5q-20 -147 -134.5 -245.5t-262.5 -98.5zM465 1012q35 0 62.5 24.5t33.5 61.5q5 36 -16.5 60t-57.5 24q-37 0 -64 -24.5t-30 -59.5q-6 -37 14.5 -61.5t57.5 -24.5z" />
    <glyph glyph-name="plusminus" unicode="&#xb1;" horiz-adv-x="1093" 
d="M756 930h284l-43 -299h-284l-31 -221h-303l31 221h-283l41 299h285l30 219h303zM41 23l41 299h872l-43 -299h-870z" />
    <glyph glyph-name="uni00B2" unicode="&#xb2;" horiz-adv-x="665" 
d="M727 1337q-18 -130 -139 -237l-142 -125h238l-33 -225h-573l26 196l289 260l10.5 10.5l13.5 13.5t13 13.5t14 16t12.5 16t12 16.5t8 15.5t4.5 15.5q1 23 -16 36t-45 13q-59 0 -139 -67l-140 155q58 69 145.5 110.5t182.5 41.5q132 0 203.5 -77.5t54.5 -197.5z" />
    <glyph glyph-name="uni00B3" unicode="&#xb3;" horiz-adv-x="706" 
d="M768 1370q-7 -55 -40 -102t-85 -78q50 -33 73.5 -85t14.5 -116q-15 -113 -118.5 -183.5t-250.5 -70.5q-92 0 -176 31t-133 86l162 178q28 -29 73 -47t91 -18q47 0 77 16.5t33 42.5q4 27 -22 44t-70 17h-116l30 205h115q39 0 64 11.5t28 31.5q3 22 -24 35.5t-70 13.5
q-75 0 -145 -39l-103 175q58 43 142.5 68.5t166.5 25.5q141 0 219.5 -67.5t63.5 -174.5z" />
    <glyph glyph-name="acute" unicode="&#xb4;" horiz-adv-x="616" 
d="M88 1143l246 313h414l-314 -313h-346z" />
    <glyph glyph-name="paragraph" unicode="&#xb6;" horiz-adv-x="1366" 
d="M1368 1413l-254 -1802h-285l215 1522h-122l-215 -1522h-283l131 930h-66q-186 0 -293 125t-81 311t168.5 311t328.5 125h756z" />
    <glyph glyph-name="periodcentered" unicode="&#xb7;" horiz-adv-x="673" 
d="M311 338q-97 0 -152.5 64t-41.5 159q12 95 86.5 159t171.5 64q96 0 151 -63.5t41 -159.5q-14 -95 -86.5 -159t-169.5 -64z" />
    <glyph glyph-name="cedilla" unicode="&#xb8;" horiz-adv-x="524" 
d="M252 -55q82 -11 126.5 -75t31.5 -153q-12 -103 -99 -173t-205 -70q-147 0 -239 106l131 137q58 -65 129 -65q34 0 58.5 18.5t27.5 46.5q6 27 -11.5 45.5t-47.5 18.5q-37 0 -58 -25l-172 82l154 162v4h229v-4z" />
    <glyph glyph-name="uni00B9" unicode="&#xb9;" horiz-adv-x="526" 
d="M424 1597h172l-119 -847h-241l79 561l-106 -58l-76 193z" />
    <glyph glyph-name="ordmasculine" unicode="&#xba;" horiz-adv-x="720" 
d="M406 842q-137 0 -218.5 84.5t-64.5 210.5q19 126 123 210.5t241 84.5t219.5 -85t63.5 -210q-17 -126 -122 -210.5t-242 -84.5zM434 1055q34 0 61 23.5t31 58.5q5 34 -15 58t-52 24q-34 0 -60 -23.5t-32 -58.5q-4 -35 15.5 -58.5t51.5 -23.5z" />
    <glyph glyph-name="guillemotright" unicode="&#xbb;" horiz-adv-x="1347" 
d="M502 961l233 -420l-352 -420h-387l352 420l-233 420h387zM1079 961l234 -420l-352 -420h-388l355 420l-236 420h387z" />
    <glyph glyph-name="onequarter" unicode="&#xbc;" horiz-adv-x="1693" 
d="M291 1126l-107 -57l-75 193l290 151h172l-118 -848h-242zM1292 1413h301l-1153 -1413h-301zM1612 848l-68 -490h68l-35 -225h-66l-18 -133h-240l19 133h-316l-26 195l416 520h266zM1174 358h129l30 209z" />
    <glyph glyph-name="onehalf" unicode="&#xbd;" horiz-adv-x="1728" 
d="M291 1126l-107 -57l-75 193l290 151h172l-118 -848h-242zM1292 1413h301l-1153 -1413h-301zM1686 588q-18 -130 -140 -238l-141 -125h237l-32 -225h-574l27 197l289 260l12 12l15.5 15.5t15.5 16t16 18.5t13 18t11 19t5 17q1 23 -16.5 36.5t-45.5 13.5q-58 0 -139 -68
l-139 156q58 69 145 110t182 41q133 0 204.5 -77.5t54.5 -196.5z" />
    <glyph glyph-name="threequarters" unicode="&#xbe;" horiz-adv-x="1794" 
d="M707 805q-15 -113 -118.5 -183.5t-250.5 -70.5q-92 0 -176 31t-133 86l161 178q28 -29 73 -47.5t91 -18.5q47 0 77.5 17t33.5 43q4 27 -22 44t-70 17h-117l31 205h114q39 0 64.5 11.5t28.5 31.5q3 21 -24.5 35t-70.5 14q-75 0 -145 -39l-102 174q58 43 142.5 68.5
t166.5 25.5q141 0 219 -67t63 -174q-7 -55 -40 -102t-85 -78q50 -33 74 -85t15 -116zM1391 1413h301l-1153 -1413h-301zM1710 848l-68 -490h68l-35 -225h-65l-19 -133h-239l18 133h-315l-27 195l416 520h266zM1272 358h129l31 209z" />
    <glyph glyph-name="questiondown" unicode="&#xbf;" horiz-adv-x="964" 
d="M532 635q-93 0 -146.5 61t-41.5 154q12 92 84 154.5t166 62.5q93 0 145.5 -62t40.5 -155q-12 -92 -83 -153.5t-165 -61.5zM373 -393q-202 0 -320.5 118t-93.5 287q9 66 40.5 125t72 100.5t87 82t85 70t66.5 63t32 63.5l4 37h350l-4 -37q-10 -67 -49.5 -127.5t-90 -105
t-100.5 -84.5t-86.5 -80t-41.5 -76q-6 -44 24 -70t90 -26q150 0 291 141l193 -233q-118 -118 -260 -183t-289 -65z" />
    <glyph glyph-name="Agrave" unicode="&#xc0;" horiz-adv-x="1472" 
d="M1063 1511h-348l-226 314h414zM1006 0l-43 223h-543l-107 -223h-379l719 1413h416l322 -1413h-385zM575 547h322l-94 477z" />
    <glyph glyph-name="Aacute" unicode="&#xc1;" horiz-adv-x="1472" 
d="M1346 1825l-314 -314h-346l246 314h414zM1006 0l-43 223h-543l-107 -223h-379l719 1413h416l322 -1413h-385zM575 547h322l-94 477z" />
    <glyph glyph-name="Acircumflex" unicode="&#xc2;" horiz-adv-x="1472" 
d="M893 1647l-111 -136h-309l244 314h399l158 -314h-309zM1006 0l-43 223h-543l-107 -223h-379l719 1413h416l322 -1413h-385zM575 547h322l-94 477z" />
    <glyph glyph-name="Atilde" unicode="&#xc3;" horiz-adv-x="1472" 
d="M797 1589q-29 0 -49 -18t-23 -45h-231q20 143 96.5 234t197.5 91q38 0 72.5 -10.5t54.5 -23t43 -23t41 -10.5q27 0 47 18t23 45h231q-20 -144 -96 -233.5t-198 -89.5q-50 0 -90 16.5t-69 32.5t-50 16zM1006 0l-43 223h-543l-107 -223h-379l719 1413h416l322 -1413h-385z
M575 547h322l-94 477z" />
    <glyph glyph-name="Adieresis" unicode="&#xc4;" horiz-adv-x="1472" 
d="M645 1499q-78 0 -123.5 51.5t-34.5 128.5q10 76 70 128.5t137 52.5q78 0 122.5 -52t33.5 -129q-9 -76 -68.5 -128t-136.5 -52zM1100 1499q-76 0 -121.5 51.5t-36.5 128.5q11 77 71 129t138 52q76 0 121.5 -52t34.5 -129q-10 -76 -70 -128t-137 -52zM1006 0l-43 223h-543
l-107 -223h-379l719 1413h416l322 -1413h-385zM575 547h322l-94 477z" />
    <glyph glyph-name="Aring" unicode="&#xc5;" horiz-adv-x="1472" 
d="M872 1491q-99 0 -156 64.5t-44 160.5q12 95 88 160.5t176 65.5q98 0 156.5 -65.5t44.5 -160.5q-12 -96 -88.5 -160.5t-176.5 -64.5zM842 1716q-3 -28 12 -45.5t41 -17.5t47 17.5t25 45.5q3 28 -12.5 46t-41.5 18q-27 0 -47.5 -18.5t-23.5 -45.5zM1006 0l-43 223h-543
l-107 -223h-379l719 1413h416l322 -1413h-385zM575 547h322l-94 477z" />
    <glyph glyph-name="AE" unicode="&#xc6;" horiz-adv-x="1869" 
d="M1864 1081h-535l-29 -204h469l-47 -332h-469l-28 -213h542l-47 -332h-895l31 215h-455l-151 -215h-400l998 1413h1061zM629 541h272l70 487z" />
    <glyph glyph-name="Ccedilla" unicode="&#xc7;" horiz-adv-x="1466" 
d="M778 315q101 0 191.5 44t154.5 122l277 -188q-100 -125 -243 -205.5t-308 -103.5l-41 -41q82 -11 126.5 -75t31.5 -153q-12 -103 -98.5 -173t-204.5 -70q-148 0 -240 106l131 137q58 -65 129 -65q34 0 58.5 18.5t27.5 46.5q6 27 -11.5 45.5t-47.5 18.5q-37 0 -58 -25
l-172 82l140 148q-179 23 -310 122.5t-191 256.5t-34 344q28 205 149 372.5t306 263t395 95.5q198 0 350.5 -85t231.5 -233l-330 -188q-42 78 -120 122t-179 44q-165 0 -292.5 -112t-150.5 -279t71.5 -279.5t260.5 -112.5z" />
    <glyph glyph-name="Egrave" unicode="&#xc8;" horiz-adv-x="1179" 
d="M942 1511h-348l-225 314h413zM1171 1081h-614l-29 -204h549l-47 -332h-549l-28 -213h622l-45 -332h-977l199 1413h967z" />
    <glyph glyph-name="Eacute" unicode="&#xc9;" horiz-adv-x="1179" 
d="M1227 1825l-314 -314h-346l246 314h414zM1219 1413l-48 -332h-614l-29 -204h549l-47 -332h-549l-28 -213h622l-45 -332h-977l199 1413h967z" />
    <glyph glyph-name="Ecircumflex" unicode="&#xca;" horiz-adv-x="1179" 
d="M774 1647l-110 -136h-310l244 314h399l158 -314h-309zM1171 1081h-614l-29 -204h549l-47 -332h-549l-28 -213h622l-45 -332h-977l199 1413h967z" />
    <glyph glyph-name="Edieresis" unicode="&#xcb;" horiz-adv-x="1179" 
d="M526 1499q-78 0 -123 51.5t-34 128.5q10 76 69.5 128.5t136.5 52.5q78 0 122.5 -52t33.5 -129q-9 -76 -68.5 -128t-136.5 -52zM981 1499q-76 0 -121.5 51.5t-36.5 128.5q11 77 71 129t138 52q76 0 121.5 -52t34.5 -129q-10 -76 -70 -128t-137 -52zM1171 1081h-614
l-29 -204h549l-47 -332h-549l-28 -213h622l-45 -332h-977l199 1413h967z" />
    <glyph glyph-name="Igrave" unicode="&#xcc;" horiz-adv-x="604" 
d="M283 1511l-226 314h414l160 -314h-348zM53 0l199 1413h352l-198 -1413h-353z" />
    <glyph glyph-name="Iacute" unicode="&#xcd;" horiz-adv-x="604" 
d="M254 1511l246 314h413l-313 -314h-346zM53 0l199 1413h352l-198 -1413h-353z" />
    <glyph glyph-name="Icircumflex" unicode="&#xce;" horiz-adv-x="604" 
d="M461 1647l-111 -136h-309l244 314h399l158 -314h-310zM53 0l199 1413h352l-198 -1413h-353z" />
    <glyph glyph-name="Idieresis" unicode="&#xcf;" horiz-adv-x="604" 
d="M213 1499q-78 0 -123.5 51.5t-34.5 128.5q10 76 70 128.5t137 52.5q78 0 122.5 -52t33.5 -129q-9 -76 -68.5 -128t-136.5 -52zM668 1499q-76 0 -121.5 51.5t-36.5 128.5q11 77 71 129t138 52q76 0 121 -52t34 -129q-10 -76 -69.5 -128t-136.5 -52zM53 0l199 1413h352
l-198 -1413h-353z" />
    <glyph glyph-name="Eth" unicode="&#xd0;" horiz-adv-x="1468" 
d="M811 1413q153 0 280 -54t210 -147.5t120 -224.5t17 -280q-28 -199 -145.5 -361t-297 -254t-383.5 -92h-559l82 588h-121l33 237h123l82 588h559zM1075 707q23 160 -68 267t-249 107h-201l-35 -256h176l-34 -237h-177l-34 -256h198q158 0 279.5 107.5t144.5 267.5z" />
    <glyph glyph-name="Ntilde" unicode="&#xd1;" horiz-adv-x="1488" 
d="M815 1589q-29 0 -49 -18t-23 -45h-231q20 143 97 234t198 91q38 0 72.5 -10.5t54.5 -23t43 -23t41 -10.5q27 0 46.5 18t22.5 45h232q-20 -144 -96.5 -233.5t-198.5 -89.5q-50 0 -90 16.5t-69 32.5t-50 16zM1135 1413h352l-199 -1413h-352l-420 797l-110 -797h-353
l199 1413h352l420 -797z" />
    <glyph glyph-name="Ograve" unicode="&#xd2;" horiz-adv-x="1615" 
d="M786 1511l-225 314h414l160 -314h-349zM729 -25q-210 0 -367.5 95.5t-231 263.5t-44.5 373q28 205 149 372.5t306 263t395 95.5q211 0 369 -95.5t232 -263t46 -372.5q-29 -205 -150.5 -373t-307 -263.5t-396.5 -95.5zM778 315q166 0 293 112.5t152 279.5
q23 167 -72.5 279t-261.5 112q-165 0 -292.5 -112t-150.5 -279t71.5 -279.5t260.5 -112.5z" />
    <glyph glyph-name="Oacute" unicode="&#xd3;" horiz-adv-x="1615" 
d="M760 1511l246 314h413l-313 -314h-346zM729 -25q-210 0 -367.5 95.5t-231 263.5t-44.5 373q28 205 149 372.5t306 263t395 95.5q211 0 369 -95.5t232 -263t46 -372.5q-29 -205 -150.5 -373t-307 -263.5t-396.5 -95.5zM778 315q166 0 293 112.5t152 279.5
q23 167 -72.5 279t-261.5 112q-165 0 -292.5 -112t-150.5 -279t71.5 -279.5t260.5 -112.5z" />
    <glyph glyph-name="Ocircumflex" unicode="&#xd4;" horiz-adv-x="1615" 
d="M967 1647l-111 -136h-309l244 314h399l158 -314h-310zM936 1438q211 0 369 -95.5t232 -263t46 -372.5q-29 -205 -150.5 -373t-307 -263.5t-396.5 -95.5q-210 0 -367.5 95.5t-231 263.5t-44.5 373q28 205 149 372.5t306 263t395 95.5zM1223 707q23 167 -72.5 279
t-261.5 112q-165 0 -292.5 -112t-150.5 -279t71.5 -279.5t260.5 -112.5t293 112.5t152 279.5z" />
    <glyph glyph-name="Otilde" unicode="&#xd5;" horiz-adv-x="1615" 
d="M1079 1524q-50 0 -90 16.5t-69 32.5t-50 16q-29 0 -48.5 -18t-22.5 -45h-232q20 143 97 234t198 91q38 0 72.5 -10.5t54.5 -23t43 -23t41 -10.5q27 0 47 18t23 45h231q-20 -144 -96.5 -233.5t-198.5 -89.5zM729 -25q-210 0 -367.5 95.5t-231 263.5t-44.5 373
q28 205 149 372.5t306 263t395 95.5q211 0 369 -95.5t232 -263t46 -372.5q-29 -205 -150.5 -373t-307 -263.5t-396.5 -95.5zM778 315q166 0 293 112.5t152 279.5q23 167 -72.5 279t-261.5 112q-165 0 -292.5 -112t-150.5 -279t71.5 -279.5t260.5 -112.5z" />
    <glyph glyph-name="Odieresis" unicode="&#xd6;" horiz-adv-x="1615" 
d="M719 1499q-78 0 -123.5 51.5t-34.5 128.5q10 76 70 128.5t137 52.5q78 0 122.5 -52t33.5 -129q-9 -76 -68.5 -128t-136.5 -52zM1174 1499q-76 0 -121.5 51.5t-36.5 128.5q11 77 71 129t138 52q76 0 121 -52t34 -129q-10 -76 -69.5 -128t-136.5 -52zM729 -25
q-210 0 -367.5 95.5t-231 263.5t-44.5 373q28 205 149 372.5t306 263t395 95.5q211 0 369 -95.5t232 -263t46 -372.5q-29 -205 -150.5 -373t-307 -263.5t-396.5 -95.5zM778 315q166 0 293 112.5t152 279.5q23 167 -72.5 279t-261.5 112q-165 0 -292.5 -112t-150.5 -279
t71.5 -279.5t260.5 -112.5z" />
    <glyph glyph-name="multiply" unicode="&#xd7;" horiz-adv-x="1056" 
d="M985 803l-227 -199l172 -198l-250 -220l-170 199l-227 -199l-187 220l226 198l-170 199l245 219l172 -199l228 199z" />
    <glyph glyph-name="Oslash" unicode="&#xd8;" horiz-adv-x="1615" 
d="M1677 1413l-213 -213q159 -205 119 -493q-29 -205 -150.5 -373t-307 -263.5t-396.5 -95.5q-215 0 -377 103l-76 -78h-286l211 215q-75 97 -105 223t-10 269q28 205 149 372.5t306 263t395 95.5q213 0 377 -101l76 76h288zM446 707q-15 -124 31 -215l567 573
q-74 33 -155 33q-165 0 -292.5 -112t-150.5 -279zM1223 707q15 126 -31 217l-569 -576q74 -33 155 -33q166 0 293 112.5t152 279.5z" />
    <glyph glyph-name="Ugrave" unicode="&#xd9;" horiz-adv-x="1394" 
d="M676 1511l-225 314h413l160 -314h-348zM618 -25q-166 0 -291 75t-184 207t-37 294l123 862h351l-119 -856q-15 -104 44 -173t163 -69t182.5 69t93.5 173l119 856h352l-121 -862q-23 -162 -119.5 -294t-243 -207t-313.5 -75z" />
    <glyph glyph-name="Uacute" unicode="&#xda;" horiz-adv-x="1394" 
d="M649 1511l246 314h414l-314 -314h-346zM618 -25q-166 0 -291 75t-184 207t-37 294l123 862h351l-119 -856q-15 -104 44 -173t163 -69t182.5 69t93.5 173l119 856h352l-121 -862q-23 -162 -119.5 -294t-243 -207t-313.5 -75z" />
    <glyph glyph-name="Ucircumflex" unicode="&#xdb;" horiz-adv-x="1394" 
d="M856 1647l-111 -136h-309l244 314h399l158 -314h-309zM1063 1413h352l-121 -862q-23 -162 -119.5 -294t-243 -207t-313.5 -75q-166 0 -291 75t-184 207t-37 294l123 862h351l-119 -856q-15 -104 44 -173t163 -69t182.5 69t93.5 173z" />
    <glyph glyph-name="Udieresis" unicode="&#xdc;" horiz-adv-x="1394" 
d="M608 1499q-78 0 -123 51.5t-34 128.5q10 76 69.5 128.5t136.5 52.5q78 0 122.5 -52t33.5 -129q-9 -76 -68.5 -128t-136.5 -52zM1063 1499q-76 0 -121.5 51.5t-36.5 128.5q11 77 71 129t138 52q76 0 121.5 -52t34.5 -129q-10 -76 -70 -128t-137 -52zM618 -25
q-166 0 -291 75t-184 207t-37 294l123 862h351l-119 -856q-15 -104 44 -173t163 -69t182.5 69t93.5 173l119 856h352l-121 -862q-23 -162 -119.5 -294t-243 -207t-313.5 -75z" />
    <glyph glyph-name="Yacute" unicode="&#xdd;" horiz-adv-x="1382" 
d="M1303 1825l-314 -314h-346l246 314h414zM1130 1413h394l-664 -938l-67 -475h-353l68 475l-399 938h401l231 -571z" />
    <glyph glyph-name="Thorn" unicode="&#xde;" horiz-adv-x="1298" 
d="M862 1198q217 0 343.5 -140.5t97.5 -350.5t-195 -350t-383 -140h-289l-30 -217h-353l199 1413h352l-31 -215h289zM942 707q9 68 -29 113.5t-104 45.5h-283l-43 -317h281q66 0 116.5 45t61.5 113z" />
    <glyph glyph-name="germandbls" unicode="&#xdf;" horiz-adv-x="1159" 
d="M1165 1075q-13 -98 -74.5 -184.5t-150.5 -136.5q94 -41 142.5 -135.5t31.5 -217.5q-26 -181 -173.5 -303.5t-344.5 -122.5q-78 0 -141 19l45 319q43 -16 100 -16q75 0 122.5 42.5t55.5 104.5q10 64 -27.5 107t-99.5 43h-78l45 317h54q54 0 97 38t50 93q7 60 -29.5 98
t-101.5 38q-68 0 -119.5 -44.5t-60.5 -111.5l-146 -1022h-331l149 1049q26 193 182.5 321.5t370.5 128.5q208 0 332.5 -123t99.5 -301z" />
    <glyph glyph-name="agrave" unicode="&#xe0;" 
d="M930 1143h-348l-226 313h414zM920 1044h331l-147 -1044h-332l12 86q-136 -111 -307 -111q-140 0 -244.5 71.5t-151.5 197t-26 278.5t104 278.5t208.5 197t265.5 71.5q169 0 274 -111zM590 297q97 0 169.5 64t86.5 161q12 97 -42.5 161.5t-150.5 64.5q-97 0 -170.5 -64.5
t-85.5 -161.5t42.5 -161t150.5 -64z" />
    <glyph glyph-name="aacute" unicode="&#xe1;" 
d="M1214 1456l-313 -313h-346l246 313h413zM920 1044h331l-147 -1044h-332l12 86q-136 -111 -307 -111q-140 0 -244.5 71.5t-151.5 197t-26 278.5t104 278.5t208.5 197t265.5 71.5q169 0 274 -111zM590 297q97 0 169.5 64t86.5 161q12 97 -42.5 161.5t-150.5 64.5
q-97 0 -170.5 -64.5t-85.5 -161.5t42.5 -161t150.5 -64z" />
    <glyph glyph-name="acircumflex" unicode="&#xe2;" 
d="M762 1278l-111 -135h-309l244 313h399l158 -313h-309zM920 1044h331l-147 -1044h-332l12 86q-136 -111 -307 -111q-140 0 -244.5 71.5t-151.5 197t-26 278.5t104 278.5t208.5 197t265.5 71.5q169 0 274 -111zM590 297q97 0 169.5 64t86.5 161q12 97 -42.5 161.5
t-150.5 64.5q-97 0 -170.5 -64.5t-85.5 -161.5t42.5 -161t150.5 -64z" />
    <glyph glyph-name="atilde" unicode="&#xe3;" 
d="M666 1221q-29 0 -49 -18.5t-23 -45.5h-232q20 143 97 234.5t198 91.5q49 0 89.5 -17t70 -34t51.5 -17q27 0 47 18.5t23 45.5h231q-20 -144 -96.5 -234t-198.5 -90q-50 0 -90 16.5t-68.5 33t-49.5 16.5zM920 1044h331l-147 -1044h-332l12 86q-136 -111 -307 -111
q-140 0 -244.5 71.5t-151.5 197t-26 278.5t104 278.5t208.5 197t265.5 71.5q169 0 274 -111zM590 297q97 0 169.5 64t86.5 161q12 97 -42.5 161.5t-150.5 64.5q-97 0 -170.5 -64.5t-85.5 -161.5t42.5 -161t150.5 -64z" />
    <glyph glyph-name="adieresis" unicode="&#xe4;" 
d="M514 1130q-78 0 -123.5 52t-34.5 129q10 76 70 128t137 52q78 0 122.5 -51.5t33.5 -128.5q-9 -76 -68.5 -128.5t-136.5 -52.5zM969 1130q-76 0 -121.5 52t-36.5 129q10 76 70.5 128t138.5 52q77 0 121.5 -52t34.5 -128t-70 -128.5t-137 -52.5zM920 1044h331l-147 -1044
h-332l12 86q-136 -111 -307 -111q-140 0 -244.5 71.5t-151.5 197t-26 278.5t104 278.5t208.5 197t265.5 71.5q169 0 274 -111zM590 297q97 0 169.5 64t86.5 161q12 97 -42.5 161.5t-150.5 64.5q-97 0 -170.5 -64.5t-85.5 -161.5t42.5 -161t150.5 -64z" />
    <glyph glyph-name="aring" unicode="&#xe5;" 
d="M739 1122q-98 0 -155.5 64.5t-44.5 161.5q12 95 88 160t176 65q98 0 156 -65t45 -160q-12 -96 -88.5 -161t-176.5 -65zM709 1348q-3 -28 12 -46t41 -18t47 18t25 46q3 28 -12.5 45.5t-41.5 17.5q-27 0 -47.5 -18t-23.5 -45zM920 1044h331l-147 -1044h-332l12 86
q-136 -111 -307 -111q-140 0 -244.5 71.5t-151.5 197t-26 278.5t104 278.5t208.5 197t265.5 71.5q169 0 274 -111zM590 297q97 0 169.5 64t86.5 161q12 97 -42.5 161.5t-150.5 64.5q-97 0 -170.5 -64.5t-85.5 -161.5t42.5 -161t150.5 -64z" />
    <glyph glyph-name="ae" unicode="&#xe6;" horiz-adv-x="1826" 
d="M1307 1069q236 0 371 -157.5t100 -397.5q-8 -56 -19 -92h-745q15 -76 71 -119t142 -43q73 0 139.5 29.5t110.5 72.5l192 -190q-99 -93 -226 -145t-267 -52q-229 0 -369 146q-72 -66 -179 -106t-235 -40q-196 0 -300.5 95t-82.5 239q19 140 139.5 230t292.5 90h263l2 18
q9 69 -39 110.5t-136 41.5q-119 0 -213 -88l-163 188q77 78 189.5 124t240.5 46q223 0 346 -129q164 129 375 129zM1262 786q-70 0 -130 -42.5t-92 -114.5h400q-10 73 -59 115t-119 42zM489 221q118 0 216 74q-18 62 -21 127h-190q-55 0 -96 -28.5t-46 -69.5q-6 -45 32 -74
t105 -29z" />
    <glyph glyph-name="ccedilla" unicode="&#xe7;" horiz-adv-x="1118" 
d="M584 297q65 0 121 30.5t92 82.5l262 -177q-70 -95 -173 -158.5t-224 -86.5l-46 -45q82 -11 126.5 -75t31.5 -153q-12 -103 -98.5 -173t-204.5 -70q-148 0 -240 106l131 137q58 -65 130 -65q34 0 58.5 18.5t27.5 46.5q6 27 -12 45.5t-48 18.5q-36 0 -57 -25l-172 82
l141 150q-196 34 -302 182.5t-77 353.5q21 153 112 278.5t231 197t300 71.5q155 0 273 -69t174 -189l-314 -176q-22 52 -69.5 82.5t-110.5 30.5q-97 0 -169.5 -64.5t-86.5 -161.5q-12 -97 42.5 -161t150.5 -64z" />
    <glyph glyph-name="egrave" unicode="&#xe8;" horiz-adv-x="1208" 
d="M891 1143h-348l-226 313h414zM686 1069q237 0 372.5 -157.5t100.5 -395.5q-9 -64 -20 -94h-746q15 -75 72 -118.5t143 -43.5q74 0 141.5 30t110.5 72l193 -190q-99 -93 -227.5 -145t-268.5 -52q-165 0 -288 72t-181 198.5t-37 282.5q34 231 216 386t419 155zM643 786
q-70 0 -129.5 -42.5t-93.5 -116.5h401q-10 73 -58.5 116t-119.5 43z" />
    <glyph glyph-name="eacute" unicode="&#xe9;" horiz-adv-x="1208" 
d="M1176 1456l-314 -313h-346l246 313h414zM686 1069q237 0 372.5 -157.5t100.5 -395.5q-9 -64 -20 -94h-746q15 -75 72 -118.5t143 -43.5q74 0 141.5 30t110.5 72l193 -190q-99 -93 -227.5 -145t-268.5 -52q-165 0 -288 72t-181 198.5t-37 282.5q34 231 216 386t419 155z
M643 786q-70 0 -129.5 -42.5t-93.5 -116.5h401q-10 73 -58.5 116t-119.5 43z" />
    <glyph glyph-name="ecircumflex" unicode="&#xea;" horiz-adv-x="1208" 
d="M723 1278l-111 -135h-309l244 313h399l158 -313h-309zM686 1069q237 0 372.5 -157.5t100.5 -395.5q-9 -64 -20 -94h-746q15 -75 72 -118.5t143 -43.5q74 0 141.5 30t110.5 72l193 -190q-99 -93 -227.5 -145t-268.5 -52q-165 0 -288 72t-181 198.5t-37 282.5
q34 231 216 386t419 155zM643 786q-70 0 -129.5 -42.5t-93.5 -116.5h401q-10 73 -58.5 116t-119.5 43z" />
    <glyph glyph-name="edieresis" unicode="&#xeb;" horiz-adv-x="1208" 
d="M475 1130q-78 0 -123.5 52t-34.5 129q10 76 70 128t137 52q78 0 122.5 -51.5t33.5 -128.5q-9 -76 -68.5 -128.5t-136.5 -52.5zM930 1130q-76 0 -121.5 52t-36.5 129q10 76 70.5 128t138.5 52q77 0 121.5 -52t34.5 -128t-70 -128.5t-137 -52.5zM686 1069
q237 0 372.5 -157.5t100.5 -395.5q-9 -64 -20 -94h-746q15 -75 72 -118.5t143 -43.5q74 0 141.5 30t110.5 72l193 -190q-99 -93 -227.5 -145t-268.5 -52q-165 0 -288 72t-181 198.5t-37 282.5q34 231 216 386t419 155zM643 786q-70 0 -129.5 -42.5t-93.5 -116.5h401
q-10 73 -58.5 116t-119.5 43z" />
    <glyph glyph-name="igrave" unicode="&#xec;" horiz-adv-x="555" 
d="M205 1143l-225 313h413l160 -313h-348zM37 0l147 1044h332l-147 -1044h-332z" />
    <glyph glyph-name="iacute" unicode="&#xed;" horiz-adv-x="555" 
d="M178 1143l246 313h414l-314 -313h-346zM37 0l147 1044h332l-147 -1044h-332z" />
    <glyph glyph-name="icircumflex" unicode="&#xee;" horiz-adv-x="555" 
d="M385 1278l-111 -135h-309l244 313h399l158 -313h-309zM37 0l147 1044h332l-147 -1044h-332z" />
    <glyph glyph-name="idieresis" unicode="&#xef;" horiz-adv-x="555" 
d="M137 1130q-78 0 -123 52t-34 129q10 76 69.5 128t136.5 52q78 0 122.5 -51.5t33.5 -128.5q-9 -76 -68.5 -128.5t-136.5 -52.5zM592 1130q-76 0 -121.5 52t-36.5 129q10 76 70.5 128t138.5 52q77 0 121.5 -52t34.5 -128t-70 -128.5t-137 -52.5zM37 0l147 1044h332
l-147 -1044h-332z" />
    <glyph glyph-name="eth" unicode="&#xf0;" horiz-adv-x="1159" 
d="M797 1337q178 -133 262.5 -348.5t50.5 -451.5q-19 -134 -74.5 -241.5t-136.5 -177t-181.5 -106.5t-211.5 -37q-231 0 -361.5 146t-99.5 366q20 141 101.5 258.5t200 183.5t247.5 66q78 0 139 -24q-67 79 -160 131l-63 -68h-238l127 135q-59 12 -118 15l43 313
q172 -3 319 -70l66 70h237zM762 485q10 82 -36 136.5t-126 54.5t-141.5 -55t-71.5 -136q-12 -81 34 -134.5t126 -53.5t141.5 53.5t73.5 134.5z" />
    <glyph glyph-name="ntilde" unicode="&#xf1;" horiz-adv-x="1228" 
d="M637 1221q-29 0 -49 -18.5t-23 -45.5h-231q20 143 97 234.5t198 91.5q49 0 89.5 -17t70 -34t51.5 -17q27 0 46.5 18.5t22.5 45.5h232q-20 -144 -96.5 -234t-198.5 -90q-50 0 -90 16.5t-69 33t-50 16.5zM821 1069q177 0 269.5 -107t66.5 -284l-94 -678h-332l80 567
q12 82 -29 131.5t-120 49.5q-83 0 -142 -51t-71 -134l-80 -563h-332l147 1044h332l-12 -92q135 117 317 117z" />
    <glyph glyph-name="ograve" unicode="&#xf2;" horiz-adv-x="1230" 
d="M543 1143l-226 313h414l160 -313h-348zM539 -25q-242 0 -381 156.5t-107 390.5q21 153 112 278.5t231 197t300 71.5q159 0 278 -71.5t175 -197t35 -278.5t-112.5 -278.5t-231.5 -197t-299 -71.5zM584 297q97 0 170.5 64.5t85.5 160.5q12 97 -42.5 161.5t-150.5 64.5
q-97 0 -169.5 -64.5t-86.5 -161.5q-12 -97 42.5 -161t150.5 -64z" />
    <glyph glyph-name="oacute" unicode="&#xf3;" horiz-adv-x="1230" 
d="M516 1143l246 313h414l-314 -313h-346zM539 -25q-242 0 -381 156.5t-107 390.5q21 153 112 278.5t231 197t300 71.5q159 0 278 -71.5t175 -197t35 -278.5t-112.5 -278.5t-231.5 -197t-299 -71.5zM584 297q97 0 170.5 64.5t85.5 160.5q12 97 -42.5 161.5t-150.5 64.5
q-97 0 -169.5 -64.5t-86.5 -161.5q-12 -97 42.5 -161t150.5 -64z" />
    <glyph glyph-name="ocircumflex" unicode="&#xf4;" horiz-adv-x="1230" 
d="M723 1278l-111 -135h-309l244 313h399l158 -313h-309zM694 1069q159 0 278 -71.5t175 -197t35 -278.5t-112.5 -278.5t-231.5 -197t-299 -71.5q-242 0 -381 156.5t-107 390.5q21 153 112 278.5t231 197t300 71.5zM840 522q12 97 -42.5 161.5t-150.5 64.5
q-97 0 -169.5 -64.5t-86.5 -161.5q-12 -97 42.5 -161t150.5 -64q97 0 170.5 64.5t85.5 160.5z" />
    <glyph glyph-name="otilde" unicode="&#xf5;" horiz-adv-x="1230" 
d="M836 1155q-50 0 -90 16.5t-69 33t-50 16.5q-29 0 -49 -18.5t-23 -45.5h-231q20 144 96.5 235t197.5 91q49 0 89.5 -17t70 -34t51.5 -17q27 0 47 18.5t23 45.5h231q-20 -144 -96.5 -234t-197.5 -90zM539 -25q-242 0 -381 156.5t-107 390.5q21 153 112 278.5t231 197
t300 71.5q159 0 278 -71.5t175 -197t35 -278.5t-112.5 -278.5t-231.5 -197t-299 -71.5zM584 297q97 0 170.5 64.5t85.5 160.5q12 97 -42.5 161.5t-150.5 64.5q-97 0 -169.5 -64.5t-86.5 -161.5q-12 -97 42.5 -161t150.5 -64z" />
    <glyph glyph-name="odieresis" unicode="&#xf6;" horiz-adv-x="1230" 
d="M475 1130q-78 0 -123.5 52t-34.5 129q10 76 70 128t137 52q78 0 122.5 -51.5t33.5 -128.5q-9 -76 -68.5 -128.5t-136.5 -52.5zM930 1130q-76 0 -121.5 52t-36.5 129q10 76 70.5 128t138.5 52q77 0 121.5 -52t34.5 -128t-70 -128.5t-137 -52.5zM539 -25q-242 0 -381 156.5
t-107 390.5q21 153 112 278.5t231 197t300 71.5q159 0 278 -71.5t175 -197t35 -278.5t-112.5 -278.5t-231.5 -197t-299 -71.5zM584 297q97 0 170.5 64.5t85.5 160.5q12 97 -42.5 161.5t-150.5 64.5q-97 0 -169.5 -64.5t-86.5 -161.5q-12 -97 42.5 -161t150.5 -64z" />
    <glyph glyph-name="divide" unicode="&#xf7;" horiz-adv-x="1093" 
d="M588 819q-72 0 -115 48t-33 120q9 72 65 121t130 49t116.5 -49t32.5 -121q-9 -72 -65.5 -120t-130.5 -48zM102 469l39 274h873l-39 -274h-873zM481 53q-74 0 -116.5 49t-32.5 121t66 120t130 48q73 0 116.5 -48.5t33.5 -119.5q-11 -72 -67.5 -121t-129.5 -49z" />
    <glyph glyph-name="oslash" unicode="&#xf8;" horiz-adv-x="1230" 
d="M1268 1044l-168 -163q109 -147 82 -359q-21 -153 -112.5 -278.5t-231.5 -197t-299 -71.5q-163 0 -287 78l-55 -53h-234l168 164q-107 148 -80 358q21 153 112 278.5t231 197t300 71.5t287 -78l53 53h234zM391 522q-6 -54 8 -98l320 313q-42 11 -72 11q-97 0 -169.5 -64.5
t-86.5 -161.5zM840 522q6 52 -9 99l-319 -314q38 -10 72 -10q97 0 170.5 64.5t85.5 160.5z" />
    <glyph glyph-name="ugrave" unicode="&#xf9;" horiz-adv-x="1181" 
d="M518 1143l-225 313h414l159 -313h-348zM514 -25q-225 0 -344.5 121.5t-91.5 321.5l88 626h332l-84 -579q-9 -76 30.5 -122t114.5 -46q76 0 129 46t62 122l84 579h331l-90 -626q-28 -200 -181.5 -321.5t-379.5 -121.5z" />
    <glyph glyph-name="uacute" unicode="&#xfa;" horiz-adv-x="1181" 
d="M492 1143l245 313h414l-313 -313h-346zM514 -25q-225 0 -344.5 121.5t-91.5 321.5l88 626h332l-84 -579q-9 -76 30.5 -122t114.5 -46q76 0 129 46t62 122l84 579h331l-90 -626q-28 -200 -181.5 -321.5t-379.5 -121.5z" />
    <glyph glyph-name="ucircumflex" unicode="&#xfb;" horiz-adv-x="1181" 
d="M698 1278l-110 -135h-309l243 313h400l157 -313h-309zM834 1044h331l-90 -626q-28 -200 -181.5 -321.5t-379.5 -121.5q-225 0 -344.5 121.5t-91.5 321.5l88 626h332l-84 -579q-9 -76 30.5 -122t114.5 -46q76 0 129 46t62 122z" />
    <glyph glyph-name="udieresis" unicode="&#xfc;" horiz-adv-x="1181" 
d="M451 1130q-78 0 -123.5 52t-34.5 129q10 76 70 128t137 52q78 0 122 -51.5t33 -128.5q-9 -76 -68 -128.5t-136 -52.5zM905 1130q-76 0 -121 52t-36 129q11 77 70.5 128.5t137.5 51.5q77 0 121.5 -52t34.5 -128t-70 -128.5t-137 -52.5zM514 -25q-225 0 -344.5 121.5
t-91.5 321.5l88 626h332l-84 -579q-9 -76 30.5 -122t114.5 -46q76 0 129 46t62 122l84 579h331l-90 -626q-28 -200 -181.5 -321.5t-379.5 -121.5z" />
    <glyph glyph-name="yacute" unicode="&#xfd;" horiz-adv-x="1163" 
d="M1141 1456l-314 -313h-346l246 313h414zM870 1044h371l-649 -1200q-65 -119 -169.5 -188.5t-221.5 -69.5q-76 0 -155.5 30t-131.5 79l164 260q44 -47 110 -47q75 0 119 72l25 40l-262 1024h379l124 -612z" />
    <glyph glyph-name="thorn" unicode="&#xfe;" 
d="M811 1069q140 0 244.5 -71.5t151.5 -197t26 -278.5t-104 -278.5t-208.5 -197t-265.5 -71.5q-169 0 -274 111l-68 -475h-331l262 1864h331l-71 -517q136 111 307 111zM891 522q12 97 -42.5 161.5t-150.5 64.5q-97 0 -169.5 -64.5t-86.5 -161.5q-12 -97 42.5 -161
t150.5 -64q97 0 170.5 64.5t85.5 160.5z" />
    <glyph glyph-name="ydieresis" unicode="&#xff;" horiz-adv-x="1163" 
d="M440 1130q-78 0 -123 52t-34 129q10 76 69.5 128t136.5 52q78 0 122.5 -51.5t33.5 -128.5q-9 -76 -68.5 -128.5t-136.5 -52.5zM895 1130q-76 0 -121.5 52t-36.5 129q10 76 70.5 128t138.5 52q77 0 121.5 -52t34.5 -128t-70 -128.5t-137 -52.5zM870 1044h371l-649 -1200
q-65 -119 -169.5 -188.5t-221.5 -69.5q-76 0 -155.5 30t-131.5 79l164 260q44 -47 110 -47q75 0 119 72l25 40l-262 1024h379l124 -612z" />
    <glyph glyph-name="Amacron" unicode="&#x100;" horiz-adv-x="1472" 
d="M1206 1804l-39 -276h-579l39 276h579zM1006 0l-43 223h-543l-107 -223h-379l719 1413h416l322 -1413h-385zM575 547h322l-94 477z" />
    <glyph glyph-name="amacron" unicode="&#x101;" 
d="M1073 1436l-39 -277h-579l39 277h579zM920 1044h331l-147 -1044h-332l12 86q-136 -111 -307 -111q-140 0 -244.5 71.5t-151.5 197t-26 278.5t104 278.5t208.5 197t265.5 71.5q169 0 274 -111zM590 297q97 0 169.5 64t86.5 161q12 97 -42.5 161.5t-150.5 64.5
q-97 0 -170.5 -64.5t-85.5 -161.5t42.5 -161t150.5 -64z" />
    <glyph glyph-name="Abreve" unicode="&#x102;" horiz-adv-x="1472" 
d="M872 1491q-152 0 -239.5 95.5t-65.5 238.5h254q-6 -43 17.5 -71t64.5 -28q42 0 74.5 28.5t38.5 70.5h256q-22 -143 -136 -238.5t-264 -95.5zM1006 0l-43 223h-543l-107 -223h-379l719 1413h416l322 -1413h-385zM575 547h322l-94 477z" />
    <glyph glyph-name="abreve" unicode="&#x103;" 
d="M739 1122q-152 0 -239.5 95.5t-65.5 238.5h254q-6 -43 17.5 -70.5t64.5 -27.5q42 0 74.5 28t38.5 70h256q-22 -143 -136 -238.5t-264 -95.5zM920 1044h331l-147 -1044h-332l12 86q-136 -111 -307 -111q-140 0 -244.5 71.5t-151.5 197t-26 278.5t104 278.5t208.5 197
t265.5 71.5q169 0 274 -111zM590 297q97 0 169.5 64t86.5 161q12 97 -42.5 161.5t-150.5 64.5q-97 0 -170.5 -64.5t-85.5 -161.5t42.5 -161t150.5 -64z" />
    <glyph glyph-name="Aogonek" unicode="&#x104;" horiz-adv-x="1472" 
d="M1389 0q-228 -92 -242 -197q-6 -38 18 -58.5t60 -20.5q52 0 100 28l45 -203q-101 -61 -233 -61q-131 0 -204 68.5t-59 173.5q13 87 80.5 159.5t165.5 110.5h-114l-43 223h-543l-107 -223h-379l719 1413h416l322 -1413h-2zM575 547h322l-94 477z" />
    <glyph glyph-name="aogonek" unicode="&#x105;" 
d="M920 1044h331l-147 -1044h-4q-228 -92 -242 -197q-6 -38 18 -58.5t60 -20.5q52 0 100 28l45 -203q-101 -61 -233 -61q-131 0 -203.5 68.5t-58.5 173.5q13 88 80.5 160t164.5 110h-59l12 86q-136 -111 -307 -111q-140 0 -244.5 71.5t-151.5 197t-26 278.5t104 278.5
t208.5 197t265.5 71.5q169 0 274 -111zM590 297q97 0 169.5 64t86.5 161q12 97 -42.5 161.5t-150.5 64.5q-97 0 -170.5 -64.5t-85.5 -161.5t42.5 -161t150.5 -64z" />
    <glyph glyph-name="Cacute" unicode="&#x106;" horiz-adv-x="1466" 
d="M760 1511l246 314h413l-313 -314h-346zM729 -25q-210 0 -367.5 95.5t-231 263.5t-44.5 373q28 205 149 372.5t306 263t395 95.5q198 0 350.5 -85t231.5 -233l-330 -188q-42 78 -120 122t-179 44q-165 0 -292.5 -112t-150.5 -279t71.5 -279.5t260.5 -112.5q101 0 191.5 44
t154.5 122l277 -188q-120 -148 -297 -233t-375 -85z" />
    <glyph glyph-name="cacute" unicode="&#x107;" horiz-adv-x="1118" 
d="M516 1143l246 313h414l-314 -313h-346zM539 -25q-242 0 -381 156.5t-107 390.5q21 153 112 278.5t231 197t300 71.5q155 0 273 -69t174 -189l-314 -176q-22 52 -69.5 82.5t-110.5 30.5q-97 0 -169.5 -64.5t-86.5 -161.5q-12 -97 42.5 -161t150.5 -64q65 0 121 30.5
t92 82.5l262 -177q-90 -120 -227.5 -189t-292.5 -69z" />
    <glyph glyph-name="Ccircumflex" unicode="&#x108;" horiz-adv-x="1466" 
d="M967 1647l-111 -136h-309l244 314h399l158 -314h-310zM778 315q101 0 191.5 44t154.5 122l277 -188q-120 -148 -297 -233t-375 -85q-210 0 -367.5 95.5t-231 263.5t-44.5 373q28 205 149 372.5t306 263t395 95.5q198 0 350.5 -85t231.5 -233l-330 -188q-42 78 -120 122
t-179 44q-165 0 -292.5 -112t-150.5 -279t71.5 -279.5t260.5 -112.5z" />
    <glyph glyph-name="ccircumflex" unicode="&#x109;" horiz-adv-x="1118" 
d="M723 1278l-111 -135h-309l244 313h399l158 -313h-309zM584 297q65 0 121 30.5t92 82.5l262 -177q-90 -120 -227.5 -189t-292.5 -69q-242 0 -381 156.5t-107 390.5q21 153 112 278.5t231 197t300 71.5q155 0 273 -69t174 -189l-314 -176q-22 52 -69.5 82.5t-110.5 30.5
q-97 0 -169.5 -64.5t-86.5 -161.5q-12 -97 42.5 -161t150.5 -64z" />
    <glyph glyph-name="Cdotaccent" unicode="&#x10a;" horiz-adv-x="1466" 
d="M944 1499q-82 0 -129 54t-35 135q10 81 72.5 134.5t144.5 53.5t128 -53t36 -135q-10 -81 -72.5 -135t-144.5 -54zM729 -25q-210 0 -367.5 95.5t-231 263.5t-44.5 373q28 205 149 372.5t306 263t395 95.5q198 0 350.5 -85t231.5 -233l-330 -188q-42 78 -120 122t-179 44
q-165 0 -292.5 -112t-150.5 -279t71.5 -279.5t260.5 -112.5q101 0 191.5 44t154.5 122l277 -188q-120 -148 -297 -233t-375 -85z" />
    <glyph glyph-name="cdotaccent" unicode="&#x10b;" horiz-adv-x="1118" 
d="M700 1130q-82 0 -128.5 53.5t-34.5 135.5q10 81 72.5 134.5t144.5 53.5t128 -53t36 -135q-10 -81 -73 -135t-145 -54zM539 -25q-242 0 -381 156.5t-107 390.5q21 153 112 278.5t231 197t300 71.5q155 0 273 -69t174 -189l-314 -176q-22 52 -69.5 82.5t-110.5 30.5
q-97 0 -169.5 -64.5t-86.5 -161.5q-12 -97 42.5 -161t150.5 -64q65 0 121 30.5t92 82.5l262 -177q-90 -120 -227.5 -189t-292.5 -69z" />
    <glyph glyph-name="Ccaron" unicode="&#x10c;" horiz-adv-x="1466" 
d="M1147 1511h-399l-158 314h309l74 -133l108 133h312zM778 315q101 0 191.5 44t154.5 122l277 -188q-120 -148 -297 -233t-375 -85q-210 0 -367.5 95.5t-231 263.5t-44.5 373q28 205 149 372.5t306 263t395 95.5q198 0 350.5 -85t231.5 -233l-330 -188q-42 78 -120 122
t-179 44q-165 0 -292.5 -112t-150.5 -279t71.5 -279.5t260.5 -112.5z" />
    <glyph glyph-name="ccaron" unicode="&#x10d;" horiz-adv-x="1118" 
d="M903 1143h-399l-158 313h309l74 -133l109 133h311zM647 748q-97 0 -169.5 -64.5t-86.5 -161.5q-12 -97 42.5 -161t150.5 -64q65 0 121 30.5t92 82.5l262 -177q-90 -120 -227.5 -189t-292.5 -69q-242 0 -381 156.5t-107 390.5q21 153 112 278.5t231 197t300 71.5
q155 0 273 -69t174 -189l-314 -176q-22 52 -69.5 82.5t-110.5 30.5z" />
    <glyph glyph-name="Dcaron" unicode="&#x10e;" horiz-adv-x="1468" 
d="M1059 1511h-400l-157 314h309l74 -133l108 133h312zM811 1413q153 0 280 -54t210 -147.5t120 -224.5t17 -280q-28 -199 -145.5 -361t-297 -254t-383.5 -92h-559l199 1413h559zM1075 707q23 160 -68 267t-249 107h-201l-104 -749h198q158 0 279.5 107.5t144.5 267.5z" />
    <glyph glyph-name="dcaron" unicode="&#x10f;" horiz-adv-x="1521" 
d="M899 948l74 527h332l-207 -1475h-332l14 96q-137 -121 -309 -121q-140 0 -244 71.5t-150.5 196.5t-25.5 279q32 233 197 390t379 157q172 0 272 -121zM1444 1475h297l-158 -486h-250zM584 297q92 0 163.5 58t88.5 149l6 31q6 93 -48 153t-147 60q-97 0 -169.5 -64.5
t-86.5 -161.5q-12 -97 42.5 -161t150.5 -64z" />
    <glyph glyph-name="Dcroat" unicode="&#x110;" horiz-adv-x="1468" 
d="M811 1413q153 0 280 -54t210 -147.5t120 -224.5t17 -280q-28 -199 -145.5 -361t-297 -254t-383.5 -92h-559l82 588h-121l33 237h123l82 588h559zM1075 707q23 160 -68 267t-249 107h-201l-35 -256h176l-34 -237h-177l-34 -256h198q158 0 279.5 107.5t144.5 267.5z" />
    <glyph glyph-name="dcroat" unicode="&#x111;" 
d="M1411 1364l-35 -238h-114l-158 -1126h-332l12 86q-136 -111 -307 -111q-140 0 -244.5 71.5t-151.5 197t-26 278.5t104 278.5t208.5 197t265.5 71.5q166 0 274 -108l23 165h-203l33 238h203l16 111h332l-17 -111h117zM590 297q93 0 164 59t90 152l4 27q6 93 -48 153
t-147 60q-97 0 -170.5 -64.5t-85.5 -161.5t42.5 -161t150.5 -64z" />
    <glyph glyph-name="Emacron" unicode="&#x112;" horiz-adv-x="1179" 
d="M1085 1804l-38 -276h-580l39 276h579zM1171 1081h-614l-29 -204h549l-47 -332h-549l-28 -213h622l-45 -332h-977l199 1413h967z" />
    <glyph glyph-name="emacron" unicode="&#x113;" horiz-adv-x="1208" 
d="M1034 1436l-39 -277h-579l39 277h579zM686 1069q237 0 372.5 -157.5t100.5 -395.5q-9 -64 -20 -94h-746q15 -75 72 -118.5t143 -43.5q74 0 141.5 30t110.5 72l193 -190q-99 -93 -227.5 -145t-268.5 -52q-165 0 -288 72t-181 198.5t-37 282.5q34 231 216 386t419 155z
M643 786q-70 0 -129.5 -42.5t-93.5 -116.5h401q-10 73 -58.5 116t-119.5 43z" />
    <glyph glyph-name="Ebreve" unicode="&#x114;" horiz-adv-x="1179" 
d="M754 1491q-152 0 -239.5 95.5t-65.5 238.5h253q-6 -43 17.5 -71t64.5 -28q42 0 74.5 28.5t38.5 70.5h256q-22 -143 -135.5 -238.5t-263.5 -95.5zM1171 1081h-614l-29 -204h549l-47 -332h-549l-28 -213h622l-45 -332h-977l199 1413h967z" />
    <glyph glyph-name="ebreve" unicode="&#x115;" horiz-adv-x="1208" 
d="M702 1122q-152 0 -239.5 95.5t-65.5 238.5h254q-6 -43 17.5 -70.5t64.5 -27.5q42 0 74.5 28t38.5 70h256q-22 -143 -136 -238.5t-264 -95.5zM686 1069q237 0 372.5 -157.5t100.5 -395.5q-9 -64 -20 -94h-746q15 -75 72 -118.5t143 -43.5q74 0 141.5 30t110.5 72l193 -190
q-99 -93 -227.5 -145t-268.5 -52q-165 0 -288 72t-181 198.5t-37 282.5q34 231 216 386t419 155zM643 786q-70 0 -129.5 -42.5t-93.5 -116.5h401q-10 73 -58.5 116t-119.5 43z" />
    <glyph glyph-name="Edotaccent" unicode="&#x116;" horiz-adv-x="1179" 
d="M752 1499q-82 0 -129 54t-35 135q10 81 72.5 134.5t144.5 53.5t128 -53t36 -135q-10 -81 -72.5 -135t-144.5 -54zM1171 1081h-614l-29 -204h549l-47 -332h-549l-28 -213h622l-45 -332h-977l199 1413h967z" />
    <glyph glyph-name="edotaccent" unicode="&#x117;" horiz-adv-x="1208" 
d="M702 1130q-82 0 -128.5 53.5t-34.5 135.5q10 81 72.5 134.5t144.5 53.5t128 -53t36 -135q-10 -81 -73 -135t-145 -54zM686 1069q237 0 372.5 -157.5t100.5 -395.5q-9 -64 -20 -94h-746q15 -75 72 -118.5t143 -43.5q74 0 141.5 30t110.5 72l193 -190q-99 -93 -227.5 -145
t-268.5 -52q-165 0 -288 72t-181 198.5t-37 282.5q34 231 216 386t419 155zM643 786q-70 0 -129.5 -42.5t-93.5 -116.5h401q-10 73 -58.5 116t-119.5 43z" />
    <glyph glyph-name="Eogonek" unicode="&#x118;" horiz-adv-x="1179" 
d="M1171 1081h-614l-29 -204h549l-47 -332h-549l-28 -213h622l-45 -332h-10q-228 -92 -242 -197q-6 -38 18 -58.5t60 -20.5q52 0 100 28l45 -203q-101 -61 -233 -61q-131 0 -203.5 68.5t-58.5 173.5q13 87 80.5 159.5t165.5 110.5h-699l199 1413h967z" />
    <glyph glyph-name="eogonek" unicode="&#x119;" horiz-adv-x="1208" 
d="M686 1069q237 0 372.5 -157.5t100.5 -395.5q-9 -64 -20 -94h-746q15 -75 72 -118.5t143 -43.5q74 0 141.5 30t110.5 72l193 -190q-96 -89 -224 -143q-164 -103 -178 -211q-6 -43 16 -67.5t62 -24.5q45 0 92 30l45 -202q-108 -68 -243 -68q-124 0 -195.5 72t-56.5 188
q18 133 131 231q-226 19 -354 174t-97 377q34 231 216 386t419 155zM643 786q-70 0 -129.5 -42.5t-93.5 -116.5h401q-10 73 -58.5 116t-119.5 43z" />
    <glyph glyph-name="Ecaron" unicode="&#x11a;" horiz-adv-x="1179" 
d="M954 1511h-399l-158 314h310l73 -133l109 133h311zM1171 1081h-614l-29 -204h549l-47 -332h-549l-28 -213h622l-45 -332h-977l199 1413h967z" />
    <glyph glyph-name="ecaron" unicode="&#x11b;" horiz-adv-x="1208" 
d="M903 1143h-399l-158 313h309l74 -133l109 133h311zM686 1069q237 0 372.5 -157.5t100.5 -395.5q-9 -64 -20 -94h-746q15 -75 72 -118.5t143 -43.5q74 0 141.5 30t110.5 72l193 -190q-99 -93 -227.5 -145t-268.5 -52q-165 0 -288 72t-181 198.5t-37 282.5q34 231 216 386
t419 155zM643 786q-70 0 -129.5 -42.5t-93.5 -116.5h401q-10 73 -58.5 116t-119.5 43z" />
    <glyph glyph-name="Gcircumflex" unicode="&#x11c;" horiz-adv-x="1566" 
d="M967 1647l-111 -136h-309l244 314h399l158 -314h-310zM866 825h695l-17 -123q-29 -207 -145 -373.5t-293.5 -260t-382.5 -93.5q-156 0 -286 56.5t-214 153.5t-121.5 232.5t-15.5 289.5q28 205 149 372.5t306 263t395 95.5q182 0 327 -70t222 -194l-295 -213
q-47 66 -123 103.5t-170 37.5q-169 0 -298.5 -113t-152.5 -282t73.5 -282.5t264.5 -113.5q114 0 208.5 54.5t144.5 146.5h-314z" />
    <glyph glyph-name="gcircumflex" unicode="&#x11d;" horiz-adv-x="1157" 
d="M1161 1219h90l-43 -308h-73q-32 0 -58.5 -14t-38.5 -37q59 -109 41 -254q-29 -198 -191 -330.5t-374 -132.5q-54 0 -131 15q-50 -24 -57 -72q-3 -30 16 -48t55 -18h310q162 0 259 -86t107 -241l-354 -94q0 46 -33 74t-88 28h-311q-156 0 -240 83t-65 218
q14 86 64.5 162.5t123.5 118.5q-119 132 -92 323q28 198 190 330.5t377 132.5q111 0 203 -39q26 65 86 113h-193l-71 135l-111 -135h-309l244 313h399l131 -262q64 25 137 25zM739 606q8 65 -32 107.5t-107 42.5q-69 0 -121 -43t-59 -107q-9 -64 30.5 -106.5t108.5 -42.5
q67 0 118 42t62 107z" />
    <glyph glyph-name="Gbreve" unicode="&#x11e;" horiz-adv-x="1566" 
d="M946 1491q-152 0 -239.5 95.5t-65.5 238.5h254q-6 -43 17.5 -71t64.5 -28q42 0 74.5 28.5t38.5 70.5h256q-22 -143 -136 -238.5t-264 -95.5zM866 825h695l-17 -123q-29 -207 -145 -373.5t-293.5 -260t-382.5 -93.5q-156 0 -286 56.5t-214 153.5t-121.5 232.5t-15.5 289.5
q28 205 149 372.5t306 263t395 95.5q182 0 327 -70t222 -194l-295 -213q-47 66 -123 103.5t-170 37.5q-169 0 -298.5 -113t-152.5 -282t73.5 -282.5t264.5 -113.5q114 0 208.5 54.5t144.5 146.5h-314z" />
    <glyph glyph-name="gbreve" unicode="&#x11f;" horiz-adv-x="1157" 
d="M649 1122q-152 0 -239.5 95.5t-65.5 238.5h254q-6 -43 17.5 -70.5t64.5 -27.5q42 0 74.5 28t38.5 70h256q-22 -143 -136 -238.5t-264 -95.5zM1161 1219h90l-43 -308h-73q-32 0 -58.5 -14t-38.5 -37q59 -109 41 -254q-29 -198 -191 -330.5t-374 -132.5q-54 0 -131 15
q-50 -24 -57 -72q-3 -30 16 -48t55 -18h310q162 0 259 -86t107 -241l-354 -94q0 46 -33 74t-88 28h-311q-156 0 -240 83t-65 218q14 86 64.5 162.5t123.5 118.5q-119 132 -92 323q28 198 190 330.5t377 132.5q111 0 203 -39q37 87 121 138t192 51zM739 606q8 65 -32 107.5
t-107 42.5q-69 0 -121 -43t-59 -107q-9 -64 30.5 -106.5t108.5 -42.5q67 0 118 42t62 107z" />
    <glyph glyph-name="Gdotaccent" unicode="&#x120;" horiz-adv-x="1566" 
d="M944 1499q-82 0 -129 54t-35 135q10 81 72.5 134.5t144.5 53.5t128 -53t36 -135q-10 -81 -72.5 -135t-144.5 -54zM866 825h695l-17 -123q-29 -207 -145 -373.5t-293.5 -260t-382.5 -93.5q-156 0 -286 56.5t-214 153.5t-121.5 232.5t-15.5 289.5q28 205 149 372.5t306 263
t395 95.5q182 0 327 -70t222 -194l-295 -213q-47 66 -123 103.5t-170 37.5q-169 0 -298.5 -113t-152.5 -282t73.5 -282.5t264.5 -113.5q114 0 208.5 54.5t144.5 146.5h-314z" />
    <glyph glyph-name="gdotaccent" unicode="&#x121;" horiz-adv-x="1157" 
d="M649 1130q-82 0 -129 54t-35 135q10 81 72.5 134.5t144.5 53.5t128 -53t36 -135q-10 -81 -72.5 -135t-144.5 -54zM1161 1219h90l-43 -308h-73q-32 0 -58.5 -14t-38.5 -37q59 -109 41 -254q-29 -198 -191 -330.5t-374 -132.5q-54 0 -131 15q-50 -24 -57 -72q-3 -30 16 -48
t55 -18h310q162 0 259 -86t107 -241l-354 -94q0 46 -33 74t-88 28h-311q-156 0 -240 83t-65 218q14 86 64.5 162.5t123.5 118.5q-119 132 -92 323q28 198 190 330.5t377 132.5q111 0 203 -39q37 87 121 138t192 51zM739 606q8 65 -32 107.5t-107 42.5q-69 0 -121 -43
t-59 -107q-9 -64 30.5 -106.5t108.5 -42.5q67 0 118 42t62 107z" />
    <glyph glyph-name="uni0122" unicode="&#x122;" horiz-adv-x="1566" 
d="M866 825h695l-17 -123q-29 -207 -145 -373.5t-293.5 -260t-382.5 -93.5q-156 0 -286 56.5t-214 153.5t-121.5 232.5t-15.5 289.5q28 205 149 372.5t306 263t395 95.5q182 0 327 -70t222 -194l-295 -213q-47 66 -123 103.5t-170 37.5q-169 0 -298.5 -113t-152.5 -282
t73.5 -282.5t264.5 -113.5q114 0 208.5 54.5t144.5 146.5h-314zM438 -471l146 373h340l-211 -373h-275z" />
    <glyph glyph-name="uni0123" unicode="&#x123;" horiz-adv-x="1157" 
d="M918 1513l-146 -372h-340l213 372h273zM1161 1219h90l-43 -308h-73q-32 0 -58.5 -14t-38.5 -37q59 -109 41 -254q-29 -198 -191 -330.5t-374 -132.5q-54 0 -131 15q-50 -24 -57 -72q-3 -30 16 -48t55 -18h310q162 0 259 -86t107 -241l-354 -94q0 46 -33 74t-88 28h-311
q-156 0 -240 83t-65 218q14 86 64.5 162.5t123.5 118.5q-119 132 -92 323q28 198 190 330.5t377 132.5q111 0 203 -39q37 87 121 138t192 51zM739 606q8 65 -32 107.5t-107 42.5q-69 0 -121 -43t-59 -107q-9 -64 30.5 -106.5t108.5 -42.5q67 0 118 42t62 107z" />
    <glyph glyph-name="Hcircumflex" unicode="&#x124;" horiz-adv-x="1464" 
d="M893 1647l-111 -136h-309l244 314h399l158 -314h-309zM1112 1413h352l-198 -1413h-353l76 545h-508l-75 -545h-353l199 1413h352l-76 -536h508z" />
    <glyph glyph-name="hcircumflex" unicode="&#x125;" horiz-adv-x="1228" 
d="M440 1683l-110 -135h-310l244 314h400l157 -314h-309zM821 1069q177 0 269.5 -107t66.5 -284l-94 -678h-332l80 567q12 82 -28.5 131.5t-118.5 49.5q-85 0 -144 -51t-71 -134l-80 -563h-332l207 1475h331l-73 -531q137 125 319 125z" />
    <glyph glyph-name="Hbar" unicode="&#x126;" horiz-adv-x="1464" 
d="M1550 1241l-32 -242h-111l-141 -999h-353l76 545h-508l-75 -545h-353l142 999h-111l33 242h110l25 172h352l-24 -172h507l25 172h352l-24 -172h110zM1036 877l19 122h-508l-19 -122h508z" />
    <glyph glyph-name="hbar" unicode="&#x127;" horiz-adv-x="1228" 
d="M821 1069q177 0 269.5 -107t66.5 -284l-94 -678h-332l80 567q12 82 -28.5 131.5t-118.5 49.5q-85 0 -144 -51t-71 -134l-80 -563h-332l158 1126h-113l33 238h112l17 111h331l-16 -111h207l-35 -238h-205l-24 -182q137 125 319 125z" />
    <glyph glyph-name="Itilde" unicode="&#x128;" horiz-adv-x="604" 
d="M573 1524q-50 0 -90 16.5t-68.5 32.5t-49.5 16q-29 0 -49 -18t-23 -45h-232q20 143 97 234t198 91q38 0 72.5 -10.5t54.5 -23t43 -23t41 -10.5q27 0 47 18t23 45h231q-20 -144 -96.5 -233.5t-198.5 -89.5zM53 0l199 1413h352l-198 -1413h-353z" />
    <glyph glyph-name="itilde" unicode="&#x129;" horiz-adv-x="555" 
d="M496 1155q-50 0 -90 16.5t-69 33t-50 16.5q-29 0 -49 -18.5t-23 -45.5h-231q20 143 97 234.5t198 91.5q49 0 89 -17t69.5 -34t51.5 -17q27 0 47 18.5t23 45.5h232q-20 -144 -96.5 -234t-198.5 -90zM37 0l147 1044h332l-147 -1044h-332z" />
    <glyph glyph-name="Imacron" unicode="&#x12a;" horiz-adv-x="604" 
d="M156 1528l39 276h579l-39 -276h-579zM53 0l199 1413h352l-198 -1413h-353z" />
    <glyph glyph-name="imacron" unicode="&#x12b;" horiz-adv-x="555" 
d="M78 1159l39 277h579l-39 -277h-579zM37 0l147 1044h332l-147 -1044h-332z" />
    <glyph glyph-name="Ibreve" unicode="&#x12c;" horiz-adv-x="604" 
d="M440 1491q-152 0 -239.5 95.5t-65.5 238.5h254q-6 -43 17.5 -71t64.5 -28q42 0 74.5 28.5t38.5 70.5h256q-22 -143 -136 -238.5t-264 -95.5zM53 0l199 1413h352l-198 -1413h-353z" />
    <glyph glyph-name="ibreve" unicode="&#x12d;" horiz-adv-x="555" 
d="M362 1122q-152 0 -239.5 95.5t-65.5 238.5h254q-6 -43 17.5 -70.5t64.5 -27.5q42 0 74.5 28t38.5 70h256q-22 -143 -136 -238.5t-264 -95.5zM37 0l147 1044h332l-147 -1044h-332z" />
    <glyph glyph-name="Iogonek" unicode="&#x12e;" horiz-adv-x="604" 
d="M252 1413h352l-198 -1413h-5q-227 -91 -241 -197q-6 -38 18 -58.5t60 -20.5q52 0 100 28l45 -203q-101 -61 -233 -61q-131 0 -204 68.5t-59 173.5q13 87 80.5 159.5t165.5 110.5h-80z" />
    <glyph glyph-name="iogonek" unicode="&#x12f;" horiz-adv-x="555" 
d="M416 1507q82 0 128 -53t36 -135q-10 -81 -73 -135t-145 -54t-128.5 53.5t-34.5 135.5q10 81 72.5 134.5t144.5 53.5zM37 0l147 1044h332l-147 -1044h-2q-228 -92 -242 -197q-6 -38 18 -58.5t60 -20.5q52 0 100 28l45 -203q-101 -61 -233 -61q-131 0 -203.5 68.5
t-58.5 173.5q13 88 80.5 160t164.5 110h-61z" />
    <glyph glyph-name="Idotaccent" unicode="&#x130;" horiz-adv-x="604" 
d="M440 1499q-82 0 -129 54t-35 135q10 81 73 134.5t145 53.5t128 -53t35 -135q-10 -81 -72.5 -135t-144.5 -54zM53 0l199 1413h352l-198 -1413h-353z" />
    <glyph glyph-name="dotlessi" unicode="&#x131;" horiz-adv-x="555" 
d="M37 0l147 1044h332l-147 -1044h-332z" />
    <glyph glyph-name="IJ" unicode="&#x132;" horiz-adv-x="1495" 
d="M53 0l199 1413h352l-198 -1413h-353zM795 -25q-127 0 -213 39l47 334q93 -33 176 -33q98 0 157.5 45.5t71.5 133.5l129 919h353l-132 -938q-33 -235 -193 -367.5t-396 -132.5z" />
    <glyph glyph-name="ij" unicode="&#x133;" horiz-adv-x="1118" 
d="M367 1157q-88 0 -138.5 57.5t-38.5 143.5q13 88 79.5 145.5t152.5 57.5q88 0 138 -57.5t38 -145.5q-12 -86 -78.5 -143.5t-152.5 -57.5zM930 1157q-86 0 -136 57.5t-38 143.5q12 88 77.5 145.5t153.5 57.5q86 0 136 -57.5t38 -145.5q-12 -86 -77.5 -143.5t-153.5 -57.5z
M37 0l147 1044h332l-147 -1044h-332zM514 -414q-85 0 -149 25l43 297q46 -19 86 -19q91 0 104 88l152 1067h331l-155 -1105q-23 -161 -127 -257t-285 -96z" />
    <glyph glyph-name="Jcircumflex" unicode="&#x134;" horiz-adv-x="888" 
d="M768 1647l-111 -136h-309l244 314h399l158 -314h-309zM430 494l129 919h352l-131 -938q-33 -235 -193 -367.5t-397 -132.5q-127 0 -213 39l48 334q93 -33 176 -33q98 0 157.5 45.5t71.5 133.5z" />
    <glyph glyph-name="jcircumflex" unicode="&#x135;" horiz-adv-x="563" 
d="M393 1278l-110 -135h-310l244 313h399l158 -313h-309zM43 -23l152 1067h331l-155 -1105q-23 -161 -127 -257t-285 -96q-85 0 -149 25l43 297q46 -19 86 -19q91 0 104 88z" />
    <glyph glyph-name="uni0136" unicode="&#x136;" horiz-adv-x="1394" 
d="M1526 1413l-688 -678l520 -735h-457l-323 479l-121 -121l-51 -358h-353l199 1413h352l-80 -571l555 571h447zM348 -471l146 373h340l-211 -373h-275z" />
    <glyph glyph-name="uni0137" unicode="&#x137;" horiz-adv-x="1157" 
d="M1247 1044l-502 -475l369 -569h-434l-205 313l-72 -67l-34 -246h-332l207 1475h331l-108 -781l352 350h428zM229 -471l146 373h340l-211 -373h-275z" />
    <glyph glyph-name="Lacute" unicode="&#x139;" horiz-adv-x="1081" 
d="M913 1825l-313 -314h-346l246 314h413zM453 332h561l-45 -332h-916l199 1413h352z" />
    <glyph glyph-name="lacute" unicode="&#x13a;" horiz-adv-x="555" 
d="M233 1548l246 314h414l-313 -314h-347zM37 0l207 1475h331l-206 -1475h-332z" />
    <glyph glyph-name="uni013B" unicode="&#x13b;" horiz-adv-x="1081" 
d="M453 332h561l-45 -332h-916l199 1413h352zM199 -471l145 373h340l-211 -373h-274z" />
    <glyph glyph-name="uni013C" unicode="&#x13c;" horiz-adv-x="555" 
d="M37 0l207 1475h331l-206 -1475h-332zM-92 -471l145 373h340l-211 -373h-274z" />
    <glyph glyph-name="Lcaron" unicode="&#x13d;" horiz-adv-x="1081" 
d="M604 1413l-151 -1081h561l-45 -332h-916l199 1413h352zM1061 1413l-160 -485h-248l109 485h299z" />
    <glyph glyph-name="lcaron" unicode="&#x13e;" horiz-adv-x="792" 
d="M37 0l207 1475h331l-206 -1475h-332zM604 989l111 486h299l-160 -486h-250z" />
    <glyph glyph-name="Ldot" unicode="&#x13f;" horiz-adv-x="1081" 
d="M453 332h561l-45 -332h-916l199 1413h352zM774 543q-86 0 -134.5 56.5t-37.5 143.5q12 85 77 142t150 57q86 0 135 -57t37 -142q-10 -86 -75 -143t-152 -57z" />
    <glyph glyph-name="ldot" unicode="&#x140;" horiz-adv-x="954" 
d="M37 0l207 1475h331l-206 -1475h-332zM727 537q-85 0 -134.5 57t-37.5 143t77.5 143.5t151.5 57.5q85 0 133.5 -57.5t36.5 -143.5t-76.5 -143t-150.5 -57z" />
    <glyph glyph-name="Lslash" unicode="&#x141;" horiz-adv-x="1081" 
d="M453 332h561l-45 -332h-916l62 440l-119 -59l45 319l119 60l92 653h352l-65 -467l215 107l-43 -318l-217 -108z" />
    <glyph glyph-name="lslash" unicode="&#x142;" horiz-adv-x="692" 
d="M727 1057l-43 -299l-149 -78l-97 -680h-332l70 496l-151 -78l43 299l149 78l96 680h332l-70 -496z" />
    <glyph glyph-name="Nacute" unicode="&#x143;" horiz-adv-x="1488" 
d="M1364 1825l-313 -314h-346l245 314h414zM1135 1413h352l-199 -1413h-352l-420 797l-110 -797h-353l199 1413h352l420 -797z" />
    <glyph glyph-name="nacute" unicode="&#x144;" horiz-adv-x="1228" 
d="M1186 1456l-314 -313h-346l246 313h414zM821 1069q177 0 269.5 -107t66.5 -284l-94 -678h-332l80 567q12 82 -29 131.5t-120 49.5q-83 0 -142 -51t-71 -134l-80 -563h-332l147 1044h332l-12 -92q135 117 317 117z" />
    <glyph glyph-name="uni0145" unicode="&#x145;" horiz-adv-x="1488" 
d="M1135 1413h352l-199 -1413h-352l-420 797l-110 -797h-353l199 1413h352l420 -797zM375 -471l145 373h340l-211 -373h-274z" />
    <glyph glyph-name="uni0146" unicode="&#x146;" horiz-adv-x="1228" 
d="M821 1069q177 0 269.5 -107t66.5 -284l-94 -678h-332l80 567q12 82 -29 131.5t-120 49.5q-83 0 -142 -51t-71 -134l-80 -563h-332l147 1044h332l-12 -92q135 117 317 117zM254 -471l145 373h340l-211 -373h-274z" />
    <glyph glyph-name="Ncaron" unicode="&#x147;" horiz-adv-x="1488" 
d="M1092 1511h-400l-157 314h309l74 -133l108 133h311zM1135 1413h352l-199 -1413h-352l-420 797l-110 -797h-353l199 1413h352l420 -797z" />
    <glyph glyph-name="ncaron" unicode="&#x148;" horiz-adv-x="1228" 
d="M913 1143h-399l-158 313h310l73 -133l109 133h311zM821 1069q177 0 269.5 -107t66.5 -284l-94 -678h-332l80 567q12 82 -29 131.5t-120 49.5q-83 0 -142 -51t-71 -134l-80 -563h-332l147 1044h332l-12 -92q135 117 317 117z" />
    <glyph glyph-name="Eng" unicode="&#x14a;" horiz-adv-x="1488" 
d="M1487 1413l-197 -1403l-6 -41q-28 -201 -159.5 -300t-372.5 -99l47 321q123 0 135 89l2 20l-420 797l-110 -797h-353l199 1413h352l420 -797l111 797h352z" />
    <glyph glyph-name="eng" unicode="&#x14b;" horiz-adv-x="1228" 
d="M821 1069q177 0 269.5 -107t66.5 -284l-98 -709q-55 -399 -502 -399l45 321q115 0 127 89l82 587q12 82 -28.5 131.5t-118.5 49.5q-85 0 -144 -51t-71 -134l-80 -563h-332l147 1044h332l-12 -92q135 117 317 117z" />
    <glyph glyph-name="Omacron" unicode="&#x14c;" horiz-adv-x="1615" 
d="M659 1528l39 276h580l-39 -276h-580zM729 -25q-210 0 -367.5 95.5t-231 263.5t-44.5 373q28 205 149 372.5t306 263t395 95.5q211 0 369 -95.5t232 -263t46 -372.5q-29 -205 -150.5 -373t-307 -263.5t-396.5 -95.5zM778 315q166 0 293 112.5t152 279.5q23 167 -72.5 279
t-261.5 112q-165 0 -292.5 -112t-150.5 -279t71.5 -279.5t260.5 -112.5z" />
    <glyph glyph-name="omacron" unicode="&#x14d;" horiz-adv-x="1230" 
d="M416 1159l39 277h579l-39 -277h-579zM539 -25q-242 0 -381 156.5t-107 390.5q21 153 112 278.5t231 197t300 71.5q159 0 278 -71.5t175 -197t35 -278.5t-112.5 -278.5t-231.5 -197t-299 -71.5zM584 297q97 0 170.5 64.5t85.5 160.5q12 97 -42.5 161.5t-150.5 64.5
q-97 0 -169.5 -64.5t-86.5 -161.5q-12 -97 42.5 -161t150.5 -64z" />
    <glyph glyph-name="Obreve" unicode="&#x14e;" horiz-adv-x="1615" 
d="M946 1491q-152 0 -239.5 95.5t-65.5 238.5h254q-6 -43 17.5 -71t64.5 -28q42 0 74.5 28.5t38.5 70.5h256q-22 -143 -136 -238.5t-264 -95.5zM729 -25q-210 0 -367.5 95.5t-231 263.5t-44.5 373q28 205 149 372.5t306 263t395 95.5q211 0 369 -95.5t232 -263t46 -372.5
q-29 -205 -150.5 -373t-307 -263.5t-396.5 -95.5zM778 315q166 0 293 112.5t152 279.5q23 167 -72.5 279t-261.5 112q-165 0 -292.5 -112t-150.5 -279t71.5 -279.5t260.5 -112.5z" />
    <glyph glyph-name="obreve" unicode="&#x14f;" horiz-adv-x="1230" 
d="M702 1122q-152 0 -239.5 95.5t-65.5 238.5h254q-6 -43 17.5 -70.5t64.5 -27.5q42 0 74.5 28t38.5 70h256q-22 -143 -136 -238.5t-264 -95.5zM539 -25q-242 0 -381 156.5t-107 390.5q21 153 112 278.5t231 197t300 71.5q159 0 278 -71.5t175 -197t35 -278.5t-112.5 -278.5
t-231.5 -197t-299 -71.5zM584 297q97 0 170.5 64.5t85.5 160.5q12 97 -42.5 161.5t-150.5 64.5q-97 0 -169.5 -64.5t-86.5 -161.5q-12 -97 42.5 -161t150.5 -64z" />
    <glyph glyph-name="Ohungarumlaut" unicode="&#x150;" horiz-adv-x="1615" 
d="M543 1511l221 314h358l-260 -314h-319zM1016 1511l221 314h358l-260 -314h-319zM729 -25q-210 0 -367.5 95.5t-231 263.5t-44.5 373q28 205 149 372.5t306 263t395 95.5q211 0 369 -95.5t232 -263t46 -372.5q-29 -205 -150.5 -373t-307 -263.5t-396.5 -95.5zM778 315
q166 0 293 112.5t152 279.5q23 167 -72.5 279t-261.5 112q-165 0 -292.5 -112t-150.5 -279t71.5 -279.5t260.5 -112.5z" />
    <glyph glyph-name="ohungarumlaut" unicode="&#x151;" horiz-adv-x="1230" 
d="M299 1143l221 313h359l-261 -313h-319zM772 1143l221 313h359l-260 -313h-320zM539 -25q-242 0 -381 156.5t-107 390.5q21 153 112 278.5t231 197t300 71.5q159 0 278 -71.5t175 -197t35 -278.5t-112.5 -278.5t-231.5 -197t-299 -71.5zM584 297q97 0 170.5 64.5
t85.5 160.5q12 97 -42.5 161.5t-150.5 64.5q-97 0 -169.5 -64.5t-86.5 -161.5q-12 -97 42.5 -161t150.5 -64z" />
    <glyph glyph-name="OE" unicode="&#x152;" horiz-adv-x="1830" 
d="M1825 1081h-535l-28 -204h469l-50 -332h-467l-28 -213h543l-48 -332h-972q-204 0 -356.5 92t-223.5 254t-43 361q27 199 143.5 360.5t295 253.5t382.5 92h963zM764 332h70l104 749h-68q-160 0 -281 -107t-143 -267q-23 -160 67.5 -267.5t250.5 -107.5z" />
    <glyph glyph-name="oe" unicode="&#x153;" horiz-adv-x="1996" 
d="M1501 1069q111 0 203 -42t151.5 -114.5t84.5 -176t8 -222.5q-8 -56 -19 -92h-745q15 -76 71 -119t142 -43q73 0 139.5 29.5t110.5 72.5l192 -190q-94 -92 -215.5 -144.5t-251.5 -52.5q-133 0 -238 53t-167 148q-86 -95 -201 -148t-244 -53q-152 0 -267.5 71.5t-170 197
t-33.5 278.5t111.5 278.5t226.5 197t289 71.5q127 0 225.5 -51.5t157.5 -145.5q86 93 200.5 145t239.5 52zM1432 786q-70 0 -130 -42.5t-92 -114.5h400q-10 73 -59 115t-119 42zM840 522q14 97 -41 161.5t-152 64.5t-169.5 -64.5t-86.5 -161.5q-12 -97 42.5 -161t150.5 -64
q97 0 169.5 64t86.5 161z" />
    <glyph glyph-name="Racute" unicode="&#x154;" horiz-adv-x="1314" 
d="M1270 1825l-314 -314h-346l246 314h414zM1313 928q-20 -139 -107.5 -249.5t-216.5 -166.5l234 -512h-422l-191 461h-139l-65 -461h-353l199 1413h622q142 0 249.5 -62.5t158.5 -174t31 -248.5zM557 1081l-43 -313h262q66 0 116.5 45.5t59.5 112.5q9 66 -28.5 110.5
t-102.5 44.5h-264z" />
    <glyph glyph-name="racute" unicode="&#x155;" horiz-adv-x="776" 
d="M991 1456l-313 -313h-346l246 313h413zM502 940q124 121 278 121h49l-49 -342h-47q-127 0 -204.5 -65t-92.5 -177l-67 -477h-332l147 1044h332z" />
    <glyph glyph-name="uni0156" unicode="&#x156;" horiz-adv-x="1314" 
d="M1313 928q-20 -139 -107.5 -249.5t-216.5 -166.5l234 -512h-422l-191 461h-139l-65 -461h-353l199 1413h622q142 0 249.5 -62.5t158.5 -174t31 -248.5zM557 1081l-43 -313h262q66 0 116.5 45.5t59.5 112.5q9 66 -28.5 110.5t-102.5 44.5h-264zM289 -471l145 373h340
l-211 -373h-274z" />
    <glyph glyph-name="uni0157" unicode="&#x157;" horiz-adv-x="776" 
d="M780 1061h49l-49 -342h-47q-127 0 -204.5 -65t-92.5 -177l-67 -477h-332l147 1044h332l-14 -104q124 121 278 121zM-92 -471l145 373h340l-211 -373h-274z" />
    <glyph glyph-name="Rcaron" unicode="&#x158;" horiz-adv-x="1314" 
d="M997 1511h-399l-158 314h310l73 -133l109 133h311zM1313 928q-20 -139 -107.5 -249.5t-216.5 -166.5l234 -512h-422l-191 461h-139l-65 -461h-353l199 1413h622q142 0 249.5 -62.5t158.5 -174t31 -248.5zM557 1081l-43 -313h262q66 0 116.5 45.5t59.5 112.5
q9 66 -28.5 110.5t-102.5 44.5h-264z" />
    <glyph glyph-name="rcaron" unicode="&#x159;" horiz-adv-x="776" 
d="M719 1143h-400l-157 313h309l74 -133l108 133h312zM502 940q124 121 278 121h49l-49 -342h-47q-127 0 -204.5 -65t-92.5 -177l-67 -477h-332l147 1044h332z" />
    <glyph glyph-name="Sacute" unicode="&#x15a;" horiz-adv-x="1241" 
d="M590 1511l246 314h413l-313 -314h-346zM565 -25q-164 0 -321 60.5t-258 161.5l217 268q79 -79 189 -127.5t216 -48.5q87 0 152 32.5t71 84.5q3 19 -2.5 34t-22 28t-34.5 23t-51 20.5t-59.5 17.5t-71.5 18q-479 122 -432 461q26 195 195.5 312.5t420.5 117.5
q157 0 283.5 -48t199.5 -126l-200 -269q-54 58 -145 93.5t-185 35.5q-86 0 -143.5 -29t-63.5 -75q-7 -49 51.5 -81t165.5 -58q36 -8 66.5 -16.5t84 -28t95.5 -42.5t88.5 -60t75.5 -80t44 -104t5 -130q-18 -130 -108 -232.5t-227 -157.5t-296 -55z" />
    <glyph glyph-name="sacute" unicode="&#x15b;" horiz-adv-x="985" 
d="M397 1143l246 313h414l-314 -313h-346zM408 -25q-250 0 -433 156l177 209q128 -109 280 -109q67 0 110.5 18.5t47.5 51.5q5 34 -34 52t-124 36q-64 14 -101.5 24.5t-94.5 37t-87 58.5t-48.5 88t-8.5 128q24 166 162.5 255t331.5 89q229 0 403 -135l-176 -209
q-131 88 -252 88q-56 0 -93.5 -15t-43.5 -46q-4 -33 34 -50.5t124 -35.5q61 -12 101.5 -22.5t95.5 -36.5t86 -58.5t49.5 -88.5t7.5 -128q-15 -113 -88.5 -195t-183 -122t-242.5 -40z" />
    <glyph glyph-name="Scircumflex" unicode="&#x15c;" horiz-adv-x="1241" 
d="M797 1647l-111 -136h-309l244 314h399l158 -314h-310zM737 881q36 -8 66.5 -16.5t84 -28t95.5 -42.5t88.5 -60t75.5 -80t44 -104t5 -130q-18 -130 -108 -232.5t-227 -157.5t-296 -55q-164 0 -321 60.5t-258 161.5l217 268q79 -79 189 -127.5t216 -48.5q87 0 152 32.5
t71 84.5q3 19 -2.5 34t-22 28t-34.5 23t-51 20.5t-59.5 17.5t-71.5 18q-479 122 -432 461q26 195 195.5 312.5t420.5 117.5q157 0 283.5 -48t199.5 -126l-200 -269q-54 58 -145 93.5t-185 35.5q-86 0 -143.5 -29t-63.5 -75q-7 -49 51.5 -81t165.5 -58z" />
    <glyph glyph-name="scircumflex" unicode="&#x15d;" horiz-adv-x="985" 
d="M604 1278l-110 -135h-310l244 313h399l158 -313h-309zM582 666q61 -12 101.5 -22.5t95.5 -36.5t86 -58.5t49.5 -88.5t7.5 -128q-15 -113 -88.5 -195t-183 -122t-242.5 -40q-250 0 -433 156l177 209q128 -109 280 -109q67 0 110.5 18.5t47.5 51.5q5 34 -34 52t-124 36
q-64 14 -101.5 24.5t-94.5 37t-87 58.5t-48.5 88t-8.5 128q24 166 162.5 255t331.5 89q229 0 403 -135l-176 -209q-131 88 -252 88q-56 0 -93.5 -15t-43.5 -46q-4 -33 34 -50.5t124 -35.5z" />
    <glyph glyph-name="Scedilla" unicode="&#x15e;" horiz-adv-x="1241" 
d="M737 881q36 -8 66.5 -16.5t84 -28t95.5 -42.5t88.5 -60t75.5 -80t44 -104t5 -130q-24 -172 -167.5 -290t-348.5 -146l-41 -41q82 -11 126.5 -75t31.5 -153q-12 -103 -98.5 -173t-204.5 -70q-148 0 -240 106l131 137q58 -65 129 -65q34 0 58.5 18.5t27.5 46.5
q6 27 -11.5 45.5t-47.5 18.5q-37 0 -58 -25l-172 82l140 148q-138 19 -260 74.5t-205 138.5l217 268q79 -79 189 -127.5t216 -48.5q87 0 152 32.5t71 84.5q3 19 -2.5 34t-22 28t-34.5 23t-51 20.5t-59.5 17.5t-71.5 18q-479 122 -432 461q26 195 195.5 312.5t420.5 117.5
q157 0 283.5 -48t199.5 -126l-200 -269q-54 58 -145 93.5t-185 35.5q-86 0 -143.5 -29t-63.5 -75q-7 -49 51.5 -81t165.5 -58z" />
    <glyph glyph-name="scedilla" unicode="&#x15f;" horiz-adv-x="985" 
d="M582 666q61 -12 101.5 -22.5t95.5 -36.5t86 -58.5t49.5 -88.5t7.5 -128q-18 -140 -121 -228.5t-260 -115.5l-43 -45q82 -11 126 -75t31 -153q-12 -103 -98.5 -173t-204.5 -70q-147 0 -239 106l131 137q58 -65 129 -65q34 0 58.5 18.5t27.5 46.5q6 27 -12 45.5t-48 18.5
q-36 0 -57 -25l-172 82l139 146q-187 25 -334 149l177 209q128 -109 280 -109q67 0 110.5 18.5t47.5 51.5q5 34 -34 52t-124 36q-64 14 -101.5 24.5t-94.5 37t-87 58.5t-48.5 88t-8.5 128q24 166 162.5 255t331.5 89q229 0 403 -135l-176 -209q-131 88 -252 88
q-56 0 -93.5 -15t-43.5 -46q-4 -33 34 -50.5t124 -35.5z" />
    <glyph glyph-name="Scaron" unicode="&#x160;" horiz-adv-x="1241" 
d="M977 1511h-399l-158 314h309l74 -133l108 133h312zM737 881q36 -8 66.5 -16.5t84 -28t95.5 -42.5t88.5 -60t75.5 -80t44 -104t5 -130q-18 -130 -108 -232.5t-227 -157.5t-296 -55q-164 0 -321 60.5t-258 161.5l217 268q79 -79 189 -127.5t216 -48.5q87 0 152 32.5
t71 84.5q3 19 -2.5 34t-22 28t-34.5 23t-51 20.5t-59.5 17.5t-71.5 18q-479 122 -432 461q26 195 195.5 312.5t420.5 117.5q157 0 283.5 -48t199.5 -126l-200 -269q-54 58 -145 93.5t-185 35.5q-86 0 -143.5 -29t-63.5 -75q-7 -49 51.5 -81t165.5 -58z" />
    <glyph glyph-name="scaron" unicode="&#x161;" horiz-adv-x="985" 
d="M784 1143h-399l-158 313h310l73 -133l109 133h311zM561 813q-56 0 -93.5 -15t-43.5 -46q-4 -33 34 -50.5t124 -35.5q61 -12 101.5 -22.5t95.5 -36.5t86 -58.5t49.5 -88.5t7.5 -128q-15 -113 -88.5 -195t-183 -122t-242.5 -40q-250 0 -433 156l177 209q128 -109 280 -109
q67 0 110.5 18.5t47.5 51.5q5 34 -34 52t-124 36q-64 14 -101.5 24.5t-94.5 37t-87 58.5t-48.5 88t-8.5 128q24 166 162.5 255t331.5 89q229 0 403 -135l-176 -209q-131 88 -252 88z" />
    <glyph glyph-name="uni0162" unicode="&#x162;" horiz-adv-x="1204" 
d="M705 0h-58l-55 -55q82 -11 126.5 -75t31.5 -153q-12 -103 -99 -173t-205 -70q-147 0 -239 106l131 137q58 -65 129 -65q34 0 58.5 18.5t27.5 46.5q6 27 -11.5 45.5t-47.5 18.5q-37 0 -58 -25l-172 82l154 162h-66l152 1081h-377l45 332h1108l-45 -332h-379z" />
    <glyph glyph-name="uni0163" unicode="&#x163;" horiz-adv-x="849" 
d="M559 741l-47 -329q-8 -55 19 -85t87 -30t140 35l-43 -309q-73 -34 -148 -43l-35 -35q82 -11 126.5 -75t31.5 -153q-12 -103 -98.5 -173t-204.5 -70q-148 0 -240 106l132 137q58 -65 129 -65q34 0 58.5 18.5t27.5 46.5q6 27 -12 45.5t-48 18.5q-36 0 -57 -25l-172 82
l149 158q-112 36 -156.5 130.5t-25.5 229.5l55 385h-149l43 303h149l35 252h332l-35 -252h256l-43 -303h-256z" />
    <glyph glyph-name="Tcaron" unicode="&#x164;" horiz-adv-x="1204" 
d="M942 1511h-399l-158 314h309l74 -133l109 133h311zM1280 1413l-45 -332h-379l-151 -1081h-353l152 1081h-377l45 332h1108z" />
    <glyph glyph-name="tcaron" unicode="&#x165;" horiz-adv-x="849" 
d="M799 1628h297l-158 -485h-250zM637 1296l-35 -252h256l-43 -303h-256l-47 -329q-8 -55 19 -85t87 -30t140 35l-43 -309q-99 -48 -213 -48q-193 0 -273.5 103.5t-56.5 277.5l55 385h-149l43 303h149l35 252h332z" />
    <glyph glyph-name="Tbar" unicode="&#x166;" horiz-adv-x="1204" 
d="M1235 1081h-379l-47 -329h152l-35 -238h-150l-71 -514h-353l72 514h-148l33 238h148l47 329h-377l45 332h1108z" />
    <glyph glyph-name="tbar" unicode="&#x167;" horiz-adv-x="849" 
d="M815 741h-256l-14 -92h198l-34 -237h-197q-8 -55 19 -85t87 -30t140 35l-43 -309q-99 -48 -213 -48q-193 0 -273.5 103.5t-56.5 277.5l8 56h-121l33 237h121l14 92h-149l43 303h149l35 252h332l-35 -252h256z" />
    <glyph glyph-name="Utilde" unicode="&#x168;" horiz-adv-x="1394" 
d="M969 1524q-50 0 -90 16.5t-69 32.5t-50 16q-29 0 -49 -18t-23 -45h-231q20 143 97 234t198 91q38 0 72.5 -10.5t54.5 -23t43 -23t41 -10.5q27 0 46.5 18t22.5 45h232q-20 -144 -96.5 -233.5t-198.5 -89.5zM618 -25q-166 0 -291 75t-184 207t-37 294l123 862h351
l-119 -856q-15 -104 44 -173t163 -69t182.5 69t93.5 173l119 856h352l-121 -862q-23 -162 -119.5 -294t-243 -207t-313.5 -75z" />
    <glyph glyph-name="utilde" unicode="&#x169;" horiz-adv-x="1181" 
d="M811 1155q-50 0 -90 16.5t-69 33t-50 16.5q-29 0 -49 -18.5t-23 -45.5h-231q20 143 97 234.5t198 91.5q49 0 89.5 -17t70 -34t51.5 -17q27 0 46.5 18.5t22.5 45.5h232q-20 -144 -96.5 -234t-198.5 -90zM514 -25q-225 0 -344.5 121.5t-91.5 321.5l88 626h332l-84 -579
q-9 -76 30.5 -122t114.5 -46q76 0 129 46t62 122l84 579h331l-90 -626q-28 -200 -181.5 -321.5t-379.5 -121.5z" />
    <glyph glyph-name="Umacron" unicode="&#x16a;" horiz-adv-x="1394" 
d="M549 1528l39 276h579l-39 -276h-579zM618 -25q-166 0 -291 75t-184 207t-37 294l123 862h351l-119 -856q-15 -104 44 -173t163 -69t182.5 69t93.5 173l119 856h352l-121 -862q-23 -162 -119.5 -294t-243 -207t-313.5 -75z" />
    <glyph glyph-name="umacron" unicode="&#x16b;" horiz-adv-x="1181" 
d="M391 1159l39 277h580l-39 -277h-580zM514 -25q-225 0 -344.5 121.5t-91.5 321.5l88 626h332l-84 -579q-9 -76 30.5 -122t114.5 -46q76 0 129 46t62 122l84 579h331l-90 -626q-28 -200 -181.5 -321.5t-379.5 -121.5z" />
    <glyph glyph-name="Ubreve" unicode="&#x16c;" horiz-adv-x="1394" 
d="M834 1491q-152 0 -240 96t-66 238h254q-6 -43 17.5 -71t64.5 -28q42 0 74.5 28.5t38.5 70.5h256q-22 -143 -135.5 -238.5t-263.5 -95.5zM618 -25q-166 0 -291 75t-184 207t-37 294l123 862h351l-119 -856q-15 -104 44 -173t163 -69t182.5 69t93.5 173l119 856h352
l-121 -862q-23 -162 -119.5 -294t-243 -207t-313.5 -75z" />
    <glyph glyph-name="ubreve" unicode="&#x16d;" horiz-adv-x="1181" 
d="M678 1122q-152 0 -239.5 95.5t-65.5 238.5h254q-6 -43 17.5 -70.5t64.5 -27.5q42 0 74 28t38 70h256q-22 -143 -135.5 -238.5t-263.5 -95.5zM514 -25q-225 0 -344.5 121.5t-91.5 321.5l88 626h332l-84 -579q-9 -76 30.5 -122t114.5 -46q76 0 129 46t62 122l84 579h331
l-90 -626q-28 -200 -181.5 -321.5t-379.5 -121.5z" />
    <glyph glyph-name="Uring" unicode="&#x16e;" horiz-adv-x="1394" 
d="M834 1491q-99 0 -156.5 64.5t-44.5 160.5q12 95 88 160.5t176 65.5q98 0 156.5 -65.5t44.5 -160.5q-12 -96 -88 -160.5t-176 -64.5zM856 1653q26 0 47 17.5t25 45.5q3 28 -12.5 46t-41.5 18q-27 0 -47.5 -18.5t-23.5 -45.5q-3 -28 12 -45.5t41 -17.5zM618 -25
q-166 0 -291 75t-184 207t-37 294l123 862h351l-119 -856q-15 -104 44 -173t163 -69t182.5 69t93.5 173l119 856h352l-121 -862q-23 -162 -119.5 -294t-243 -207t-313.5 -75z" />
    <glyph glyph-name="uring" unicode="&#x16f;" horiz-adv-x="1181" 
d="M676 1122q-99 0 -156.5 65t-44.5 161q12 95 88 160t176 65q98 0 156 -65t45 -160q-12 -96 -88 -161t-176 -65zM698 1284q26 0 47 18t25 46q3 28 -12 45.5t-41 17.5q-27 0 -48 -18t-24 -45q-3 -28 12 -46t41 -18zM514 -25q-225 0 -344.5 121.5t-91.5 321.5l88 626h332
l-84 -579q-9 -76 30.5 -122t114.5 -46q76 0 129 46t62 122l84 579h331l-90 -626q-28 -200 -181.5 -321.5t-379.5 -121.5z" />
    <glyph glyph-name="Uhungarumlaut" unicode="&#x170;" horiz-adv-x="1394" 
d="M432 1511l221 314h359l-260 -314h-320zM905 1511l221 314h359l-260 -314h-320zM618 -25q-166 0 -291 75t-184 207t-37 294l123 862h351l-119 -856q-15 -104 44 -173t163 -69t182.5 69t93.5 173l119 856h352l-121 -862q-23 -162 -119.5 -294t-243 -207t-313.5 -75z" />
    <glyph glyph-name="uhungarumlaut" unicode="&#x171;" horiz-adv-x="1181" 
d="M274 1143l222 313h358l-260 -313h-320zM748 1143l221 313h358l-260 -313h-319zM514 -25q-225 0 -344.5 121.5t-91.5 321.5l88 626h332l-84 -579q-9 -76 30.5 -122t114.5 -46q76 0 129 46t62 122l84 579h331l-90 -626q-28 -200 -181.5 -321.5t-379.5 -121.5z" />
    <glyph glyph-name="Uogonek" unicode="&#x172;" horiz-adv-x="1394" 
d="M1063 1413h352l-121 -862q-27 -192 -155.5 -338.5t-313.5 -204.5q-163 -78 -174 -168q-6 -39 18 -59.5t60 -20.5q50 0 100 29l45 -203q-101 -61 -233 -61q-131 0 -203.5 68.5t-58.5 173.5q9 62 47.5 118.5t97.5 96.5q-140 21 -242.5 99.5t-149 201.5t-26.5 268l123 862
h351l-119 -856q-15 -104 44 -173t163 -69t182.5 69t93.5 173z" />
    <glyph glyph-name="uogonek" unicode="&#x173;" horiz-adv-x="1181" 
d="M834 1044h331l-90 -626q-23 -161 -129.5 -273.5t-269.5 -150.5q-138 -74 -148 -154q-6 -39 18 -59.5t60 -20.5q51 0 101 29l45 -203q-101 -61 -234 -61q-131 0 -203.5 68.5t-58.5 173.5q18 126 147 217q-174 29 -262 145.5t-63 288.5l88 626h332l-84 -579
q-9 -76 30.5 -122t114.5 -46q76 0 129 46t62 122z" />
    <glyph glyph-name="Wcircumflex" unicode="&#x174;" horiz-adv-x="2050" 
d="M1184 1647l-111 -136h-309l244 314h399l158 -314h-310zM1798 1413h363l-631 -1413h-352l-105 858l-348 -858h-350l-236 1413h373l117 -917l372 917h308l114 -921z" />
    <glyph glyph-name="wcircumflex" unicode="&#x175;" horiz-adv-x="1751" 
d="M983 1278l-111 -135h-309l244 313h399l158 -313h-309zM1462 1044h363l-510 -1044h-340l-84 629l-262 -629h-340l-213 1044h370l82 -606l258 606h336l86 -604z" />
    <glyph glyph-name="Ycircumflex" unicode="&#x176;" horiz-adv-x="1382" 
d="M850 1647l-111 -136h-309l244 314h399l158 -314h-309zM1130 1413h394l-664 -938l-67 -475h-353l68 475l-399 938h401l231 -571z" />
    <glyph glyph-name="ycircumflex" unicode="&#x177;" horiz-adv-x="1163" 
d="M688 1278l-110 -135h-310l244 313h399l158 -313h-309zM870 1044h371l-649 -1200q-65 -119 -169.5 -188.5t-221.5 -69.5q-76 0 -155.5 30t-131.5 79l164 260q44 -47 110 -47q75 0 119 72l25 40l-262 1024h379l124 -612z" />
    <glyph glyph-name="Ydieresis" unicode="&#x178;" horiz-adv-x="1382" 
d="M602 1499q-78 0 -123.5 51.5t-34.5 128.5q10 76 70 128.5t137 52.5q78 0 122.5 -52t33.5 -129q-9 -76 -68.5 -128t-136.5 -52zM1057 1499q-76 0 -121.5 51.5t-36.5 128.5q11 77 71 129t138 52q76 0 121.5 -52t34.5 -129q-10 -76 -70 -128t-137 -52zM1130 1413h394
l-664 -938l-67 -475h-353l68 475l-399 938h401l231 -571z" />
    <glyph glyph-name="Zacute" unicode="&#x179;" horiz-adv-x="1257" 
d="M1237 1825l-313 -314h-346l245 314h414zM1303 1413l-35 -252l-746 -829h641l-45 -332h-1126l35 252l745 829h-618l45 332h1104z" />
    <glyph glyph-name="zacute" unicode="&#x17a;" horiz-adv-x="1013" 
d="M1067 1456l-313 -313h-346l245 313h414zM102 723l48 321h856l-35 -241l-463 -481h412l-48 -322h-878l35 242l463 481h-390z" />
    <glyph glyph-name="Zdotaccent" unicode="&#x17b;" horiz-adv-x="1257" 
d="M764 1499q-82 0 -129 54t-35 135q10 81 72.5 134.5t144.5 53.5t128 -53t36 -135q-10 -81 -72.5 -135t-144.5 -54zM1303 1413l-35 -252l-746 -829h641l-45 -332h-1126l35 252l745 829h-618l45 332h1104z" />
    <glyph glyph-name="zdotaccent" unicode="&#x17c;" horiz-adv-x="1013" 
d="M592 1130q-82 0 -129 54t-35 135q10 81 72.5 134.5t144.5 53.5t128 -53t36 -135q-10 -81 -72.5 -135t-144.5 -54zM1006 1044l-35 -241l-463 -481h412l-48 -322h-878l35 242l463 481h-390l48 321h856z" />
    <glyph glyph-name="Zcaron" unicode="&#x17d;" horiz-adv-x="1257" 
d="M965 1511h-400l-157 314h309l74 -133l108 133h311zM1303 1413l-35 -252l-746 -829h641l-45 -332h-1126l35 252l745 829h-618l45 332h1104z" />
    <glyph glyph-name="zcaron" unicode="&#x17e;" horiz-adv-x="1013" 
d="M795 1143h-400l-157 313h309l74 -133l108 133h311zM102 723l48 321h856l-35 -241l-463 -481h412l-48 -322h-878l35 242l463 481h-390z" />
    <glyph glyph-name="florin" unicode="&#x192;" horiz-adv-x="1040" 
d="M1073 1073q-115 0 -179 -38.5t-89 -116.5l-17 -56h168l-41 -303h-223l-176 -563q-62 -196 -218.5 -290.5t-428.5 -94.5l47 340q115 0 180 38.5t90 116.5l142 453h-158l43 303h211l51 166q61 195 217.5 290t429.5 95z" />
    <glyph glyph-name="uni01C4" unicode="&#x1c4;" horiz-adv-x="2658" 
d="M2365 1511h-399l-158 314h312l71 -133l109 133h311zM811 1413q153 0 280 -54t210 -147.5t120 -224.5t17 -280q-28 -199 -145.5 -361t-297 -254t-383.5 -92h-559l199 1413h559zM2703 1413l-34 -252l-746 -829h641l-45 -332h-1126l34 252l746 829h-619l45 332h1104z
M1075 707q23 160 -68 267t-249 107h-201l-104 -749h198q158 0 279.5 107.5t144.5 267.5z" />
    <glyph glyph-name="uni01C5" unicode="&#x1c5;" horiz-adv-x="2484" 
d="M2263 1143h-399l-158 313h309l72 -135l111 135h309zM811 1413q153 0 280 -54t210 -147.5t120 -224.5t17 -280q-28 -199 -145.5 -361t-297 -254t-383.5 -92h-559l199 1413h559zM1075 707q23 160 -68 267t-249 107h-201l-104 -749h198q158 0 279.5 107.5t144.5 267.5z
M1571 723l47 321h856l-35 -241l-463 -481h412l-47 -322h-879l35 242l463 481h-389z" />
    <glyph glyph-name="uni01C6" unicode="&#x1c6;" horiz-adv-x="2301" 
d="M979 1475h332l-207 -1475h-332l12 86q-136 -111 -307 -111q-140 0 -244.5 71.5t-151.5 197t-26 278.5t104 278.5t208.5 197t265.5 71.5q166 0 274 -108zM2083 1143h-400l-157 313h309l72 -135l110 135h310zM1391 723l47 321h856l-35 -241l-463 -481h412l-47 -322h-879
l35 242l463 481h-389zM590 297q93 0 164 59t90 152l4 27q6 93 -48 153t-147 60q-97 0 -170.5 -64.5t-85.5 -161.5t42.5 -161t150.5 -64z" />
    <glyph glyph-name="uni01C7" unicode="&#x1c7;" horiz-adv-x="1992" 
d="M604 1413l-151 -1081h561l-45 -332h-916l199 1413h352zM1661 1413h352l-131 -938q-33 -235 -193 -367.5t-397 -132.5q-127 0 -213 39l47 334q94 -33 177 -33q98 0 157.5 45.5t71.5 133.5z" />
    <glyph glyph-name="uni01C8" unicode="&#x1c8;" horiz-adv-x="1662" 
d="M1532 1561q86 0 136 -57.5t38 -145.5q-12 -86 -77.5 -143.5t-153.5 -57.5q-86 0 -136.5 57.5t-38.5 143.5q12 88 78 145.5t154 57.5zM1014 332l-45 -332h-916l199 1413h352l-151 -1081h561zM1143 -23l151 1067h332l-156 -1105q-23 -161 -126.5 -257t-284.5 -96
q-86 0 -150 25l43 297q46 -19 86 -19q92 0 105 88z" />
    <glyph glyph-name="uni01C9" unicode="&#x1c9;" horiz-adv-x="1118" 
d="M930 1157q-86 0 -136 57.5t-38 143.5q12 88 77.5 145.5t153.5 57.5q86 0 136 -57.5t38 -145.5q-12 -86 -77.5 -143.5t-153.5 -57.5zM37 0l207 1475h331l-206 -1475h-332zM514 -414q-85 0 -149 25l43 297q46 -19 86 -19q91 0 104 88l152 1067h331l-155 -1105
q-23 -161 -127 -257t-285 -96z" />
    <glyph glyph-name="uni01CA" unicode="&#x1ca;" horiz-adv-x="2377" 
d="M1135 1413h352l-199 -1413h-352l-420 797l-110 -797h-353l199 1413h352l420 -797zM2048 1413h352l-131 -938q-33 -235 -193 -367.5t-397 -132.5q-127 0 -213 39l47 334q93 -33 177 -33q98 0 157.5 45.5t71.5 133.5z" />
    <glyph glyph-name="uni01CB" unicode="&#x1cb;" horiz-adv-x="2052" 
d="M1921 1561q86 0 136 -57.5t38 -145.5q-12 -86 -77.5 -143.5t-153.5 -57.5q-86 0 -136 57.5t-38 143.5q12 88 77.5 145.5t153.5 57.5zM1135 1413h352l-199 -1413h-352l-420 797l-110 -797h-353l199 1413h352l420 -797zM1532 -23l151 1067h332l-155 -1105
q-23 -161 -127 -257t-285 -96q-86 0 -150 25l43 297q46 -19 86 -19q92 0 105 88z" />
    <glyph glyph-name="uni01CC" unicode="&#x1cc;" horiz-adv-x="1792" 
d="M1661 1561q86 0 136 -57.5t38 -145.5q-12 -86 -77.5 -143.5t-153.5 -57.5q-86 0 -136 57.5t-38 143.5q12 88 77.5 145.5t153.5 57.5zM731 0l80 567q12 82 -29 131.5t-120 49.5q-83 0 -142 -51t-71 -134l-80 -563h-332l147 1044h332l-12 -92q135 117 317 117
q177 0 269.5 -107t66.5 -284l-94 -678h-332zM1272 -23l151 1067h332l-156 -1105q-23 -161 -126.5 -257t-284.5 -96q-86 0 -150 25l43 297q46 -19 86 -19q92 0 105 88z" />
    <glyph glyph-name="uni01CD" unicode="&#x1cd;" horiz-adv-x="1472" 
d="M1073 1511h-399l-158 314h309l74 -133l109 133h311zM1006 0l-43 223h-543l-107 -223h-379l719 1413h416l322 -1413h-385zM575 547h322l-94 477z" />
    <glyph glyph-name="uni01CE" unicode="&#x1ce;" 
d="M942 1143h-399l-158 313h309l74 -133l109 133h311zM920 1044h331l-147 -1044h-332l12 86q-136 -111 -307 -111q-140 0 -244.5 71.5t-151.5 197t-26 278.5t104 278.5t208.5 197t265.5 71.5q169 0 274 -111zM590 297q97 0 169.5 64t86.5 161q12 97 -42.5 161.5t-150.5 64.5
q-97 0 -170.5 -64.5t-85.5 -161.5t42.5 -161t150.5 -64z" />
    <glyph glyph-name="Gcaron" unicode="&#x1e6;" horiz-adv-x="1566" 
d="M1147 1511h-399l-158 314h309l74 -133l108 133h312zM866 825h695l-17 -123q-29 -207 -145 -373.5t-293.5 -260t-382.5 -93.5q-156 0 -286 56.5t-214 153.5t-121.5 232.5t-15.5 289.5q28 205 149 372.5t306 263t395 95.5q182 0 327 -70t222 -194l-295 -213
q-47 66 -123 103.5t-170 37.5q-169 0 -298.5 -113t-152.5 -282t73.5 -282.5t264.5 -113.5q114 0 208.5 54.5t144.5 146.5h-314z" />
    <glyph glyph-name="gcaron" unicode="&#x1e7;" horiz-adv-x="1157" 
d="M850 1143h-399l-158 313h309l74 -133l108 133h312zM1161 1219h90l-43 -308h-73q-32 0 -58.5 -14t-38.5 -37q59 -109 41 -254q-29 -198 -191 -330.5t-374 -132.5q-54 0 -131 15q-50 -24 -57 -72q-3 -30 16 -48t55 -18h310q162 0 259 -86t107 -241l-354 -94q0 46 -33 74
t-88 28h-311q-156 0 -240 83t-65 218q14 86 64.5 162.5t123.5 118.5q-119 132 -92 323q28 198 190 330.5t377 132.5q111 0 203 -39q37 87 121 138t192 51zM739 606q8 65 -32 107.5t-107 42.5q-69 0 -121 -43t-59 -107q-9 -64 30.5 -106.5t108.5 -42.5q67 0 118 42t62 107z
" />
    <glyph glyph-name="uni01EA" unicode="&#x1ea;" horiz-adv-x="1615" 
d="M936 1438q211 0 369 -95.5t232 -263t46 -372.5q-35 -245 -198.5 -432.5t-399.5 -260.5q-174 -80 -188 -174q-6 -39 17.5 -59.5t59.5 -20.5q51 0 101 29l45 -203q-101 -61 -234 -61q-131 0 -203.5 68.5t-58.5 173.5q18 123 140 210q-192 15 -333.5 114t-206.5 260.5
t-38 355.5q28 205 149 372.5t306 263t395 95.5zM1223 707q23 167 -72.5 279t-261.5 112q-165 0 -292.5 -112t-150.5 -279t71.5 -279.5t260.5 -112.5t293 112.5t152 279.5z" />
    <glyph glyph-name="uni01EB" unicode="&#x1eb;" horiz-adv-x="1230" 
d="M694 1069q159 0 278 -71.5t175 -197t35 -278.5q-26 -182 -150 -322.5t-301 -195.5q-157 -77 -168 -164q-6 -39 18 -59.5t60 -20.5q50 0 100 29l45 -203q-101 -61 -233 -61q-131 0 -203.5 68.5t-58.5 173.5q9 62 47 118.5t98 98.5q-199 34 -306.5 183t-78.5 355
q21 153 112 278.5t231 197t300 71.5zM840 522q12 97 -42.5 161.5t-150.5 64.5q-97 0 -169.5 -64.5t-86.5 -161.5q-12 -97 42.5 -161t150.5 -64q97 0 170.5 64.5t85.5 160.5z" />
    <glyph glyph-name="uni01F1" unicode="&#x1f1;" horiz-adv-x="2658" 
d="M811 1413q153 0 280 -54t210 -147.5t120 -224.5t17 -280q-28 -199 -145.5 -361t-297 -254t-383.5 -92h-559l199 1413h559zM2703 1413l-34 -252l-746 -829h641l-45 -332h-1126l34 252l746 829h-619l45 332h1104zM1075 707q23 160 -68 267t-249 107h-201l-104 -749h198
q158 0 279.5 107.5t144.5 267.5z" />
    <glyph glyph-name="uni01F2" unicode="&#x1f2;" horiz-adv-x="2484" 
d="M811 1413q153 0 280 -54t210 -147.5t120 -224.5t17 -280q-28 -199 -145.5 -361t-297 -254t-383.5 -92h-559l199 1413h559zM1075 707q23 160 -68 267t-249 107h-201l-104 -749h198q158 0 279.5 107.5t144.5 267.5zM2474 1044l-35 -241l-463 -481h412l-47 -322h-879l35 242
l463 481h-389l47 321h856z" />
    <glyph glyph-name="uni01F3" unicode="&#x1f3;" horiz-adv-x="2301" 
d="M979 1475h332l-207 -1475h-332l12 86q-136 -111 -307 -111q-140 0 -244.5 71.5t-151.5 197t-26 278.5t104 278.5t208.5 197t265.5 71.5q166 0 274 -108zM2294 1044l-35 -241l-463 -481h412l-47 -322h-879l35 242l463 481h-389l47 321h856zM590 297q93 0 164 59t90 152
l4 27q6 93 -48 153t-147 60q-97 0 -170.5 -64.5t-85.5 -161.5t42.5 -161t150.5 -64z" />
    <glyph glyph-name="uni01F4" unicode="&#x1f4;" horiz-adv-x="1566" 
d="M1419 1825l-313 -314h-346l246 314h413zM866 825h695l-17 -123q-29 -207 -145 -373.5t-293.5 -260t-382.5 -93.5q-156 0 -286 56.5t-214 153.5t-121.5 232.5t-15.5 289.5q28 205 149 372.5t306 263t395 95.5q182 0 327 -70t222 -194l-295 -213q-47 66 -123 103.5
t-170 37.5q-169 0 -298.5 -113t-152.5 -282t73.5 -282.5t264.5 -113.5q114 0 208.5 54.5t144.5 146.5h-314z" />
    <glyph glyph-name="uni01F5" unicode="&#x1f5;" horiz-adv-x="1157" 
d="M1122 1456l-313 -313h-346l246 313h413zM1161 1219h90l-43 -308h-73q-32 0 -58.5 -14t-38.5 -37q59 -109 41 -254q-29 -198 -191 -330.5t-374 -132.5q-54 0 -131 15q-50 -24 -57 -72q-3 -30 16 -48t55 -18h310q162 0 259 -86t107 -241l-354 -94q0 46 -33 74t-88 28h-311
q-156 0 -240 83t-65 218q14 86 64.5 162.5t123.5 118.5q-119 132 -92 323q28 198 190 330.5t377 132.5q111 0 203 -39q37 87 121 138t192 51zM739 606q8 65 -32 107.5t-107 42.5q-69 0 -121 -43t-59 -107q-9 -64 30.5 -106.5t108.5 -42.5q67 0 118 42t62 107z" />
    <glyph glyph-name="AEacute" unicode="&#x1fc;" horiz-adv-x="1869" 
d="M1700 1825l-314 -314h-346l246 314h414zM1864 1081h-535l-29 -204h469l-47 -332h-469l-28 -213h542l-47 -332h-895l31 215h-455l-151 -215h-400l998 1413h1061zM629 541h272l70 487z" />
    <glyph glyph-name="aeacute" unicode="&#x1fd;" horiz-adv-x="1826" 
d="M1464 1456l-313 -313h-346l246 313h413zM1307 1069q236 0 371 -157.5t100 -397.5q-8 -56 -19 -92h-745q15 -76 71 -119t142 -43q73 0 139.5 29.5t110.5 72.5l192 -190q-99 -93 -226 -145t-267 -52q-229 0 -369 146q-72 -66 -179 -106t-235 -40q-196 0 -300.5 95
t-82.5 239q19 140 139.5 230t292.5 90h263l2 18q9 69 -39 110.5t-136 41.5q-119 0 -213 -88l-163 188q77 78 189.5 124t240.5 46q223 0 346 -129q164 129 375 129zM1262 786q-70 0 -130 -42.5t-92 -114.5h400q-10 73 -59 115t-119 42zM489 221q118 0 216 74q-18 62 -21 127
h-190q-55 0 -96 -28.5t-46 -69.5q-6 -45 32 -74t105 -29z" />
    <glyph glyph-name="Oslashacute" unicode="&#x1fe;" horiz-adv-x="1615" 
d="M1464 1825l-313 -314h-346l246 314h413zM1677 1413l-213 -213q159 -205 119 -493q-29 -205 -150.5 -373t-307 -263.5t-396.5 -95.5q-215 0 -377 103l-76 -78h-286l211 215q-75 97 -105 223t-10 269q28 205 149 372.5t306 263t395 95.5q213 0 377 -101l76 76h288zM446 707
q-15 -124 31 -215l567 573q-74 33 -155 33q-165 0 -292.5 -112t-150.5 -279zM1223 707q15 126 -31 217l-569 -576q74 -33 155 -33q166 0 293 112.5t152 279.5z" />
    <glyph glyph-name="oslashacute" unicode="&#x1ff;" horiz-adv-x="1230" 
d="M1200 1456l-313 -313h-346l245 313h414zM1268 1044l-168 -163q109 -147 82 -359q-21 -153 -112.5 -278.5t-231.5 -197t-299 -71.5q-163 0 -287 78l-55 -53h-234l168 164q-107 148 -80 358q21 153 112 278.5t231 197t300 71.5t287 -78l53 53h234zM391 522q-6 -54 8 -98
l320 313q-42 11 -72 11q-97 0 -169.5 -64.5t-86.5 -161.5zM840 522q6 52 -9 99l-319 -314q38 -10 72 -10q97 0 170.5 64.5t85.5 160.5z" />
    <glyph glyph-name="uni0200" unicode="&#x200;" horiz-adv-x="1472" 
d="M807 1511h-320l-174 314h359zM1280 1511h-319l-175 314h359zM1006 0l-43 223h-543l-107 -223h-379l719 1413h416l322 -1413h-385zM575 547h322l-94 477z" />
    <glyph glyph-name="uni0201" unicode="&#x201;" 
d="M674 1143h-320l-174 313h359zM1147 1143h-320l-174 313h359zM920 1044h331l-147 -1044h-332l12 86q-136 -111 -307 -111q-140 0 -244.5 71.5t-151.5 197t-26 278.5t104 278.5t208.5 197t265.5 71.5q169 0 274 -111zM590 297q97 0 169.5 64t86.5 161q12 97 -42.5 161.5
t-150.5 64.5q-97 0 -170.5 -64.5t-85.5 -161.5t42.5 -161t150.5 -64z" />
    <glyph glyph-name="uni0202" unicode="&#x202;" horiz-adv-x="1472" 
d="M887 1610q-41 0 -73 -29t-38 -72h-256q22 143 136 238.5t264 95.5q152 0 239.5 -95.5t65.5 -238.5h-254q6 43 -18.5 72t-65.5 29zM1006 0l-43 223h-543l-107 -223h-379l719 1413h416l322 -1413h-385zM575 547h322l-94 477z" />
    <glyph glyph-name="uni0203" unicode="&#x203;" 
d="M754 1241q-41 0 -73 -28.5t-38 -71.5h-256q22 143 135.5 238.5t263.5 95.5q152 0 240 -96t66 -238h-254q6 43 -18.5 71.5t-65.5 28.5zM920 1044h331l-147 -1044h-332l12 86q-136 -111 -307 -111q-140 0 -244.5 71.5t-151.5 197t-26 278.5t104 278.5t208.5 197t265.5 71.5
q169 0 274 -111zM590 297q97 0 169.5 64t86.5 161q12 97 -42.5 161.5t-150.5 64.5q-97 0 -170.5 -64.5t-85.5 -161.5t42.5 -161t150.5 -64z" />
    <glyph glyph-name="uni0204" unicode="&#x204;" horiz-adv-x="1179" 
d="M686 1511h-319l-174 314h358zM1159 1511h-319l-174 314h358zM1171 1081h-614l-29 -204h549l-47 -332h-549l-28 -213h622l-45 -332h-977l199 1413h967z" />
    <glyph glyph-name="uni0205" unicode="&#x205;" horiz-adv-x="1208" 
d="M635 1143h-320l-174 313h359zM1108 1143h-320l-174 313h359zM686 1069q237 0 372.5 -157.5t100.5 -395.5q-9 -64 -20 -94h-746q15 -75 72 -118.5t143 -43.5q74 0 141.5 30t110.5 72l193 -190q-99 -93 -227.5 -145t-268.5 -52q-165 0 -288 72t-181 198.5t-37 282.5
q34 231 216 386t419 155zM643 786q-70 0 -129.5 -42.5t-93.5 -116.5h401q-10 73 -58.5 116t-119.5 43z" />
    <glyph glyph-name="uni0206" unicode="&#x206;" horiz-adv-x="1179" 
d="M768 1610q-41 0 -73 -29t-38 -72h-256q22 143 136 238.5t264 95.5q152 0 239.5 -95.5t65.5 -238.5h-254q6 43 -18.5 72t-65.5 29zM1171 1081h-614l-29 -204h549l-47 -332h-549l-28 -213h622l-45 -332h-977l199 1413h967z" />
    <glyph glyph-name="uni0207" unicode="&#x207;" horiz-adv-x="1208" 
d="M717 1241q-41 0 -73 -28.5t-38 -71.5h-256q22 143 136 238.5t264 95.5q152 0 239.5 -95.5t65.5 -238.5h-254q6 43 -18.5 71.5t-65.5 28.5zM686 1069q237 0 372.5 -157.5t100.5 -395.5q-9 -64 -20 -94h-746q15 -75 72 -118.5t143 -43.5q74 0 141.5 30t110.5 72l193 -190
q-99 -93 -227.5 -145t-268.5 -52q-165 0 -288 72t-181 198.5t-37 282.5q34 231 216 386t419 155zM643 786q-70 0 -129.5 -42.5t-93.5 -116.5h401q-10 73 -58.5 116t-119.5 43z" />
    <glyph glyph-name="uni0208" unicode="&#x208;" horiz-adv-x="604" 
d="M53 1511l-174 314h359l135 -314h-320zM526 1511l-174 314h359l135 -314h-320zM53 0l199 1413h352l-198 -1413h-353z" />
    <glyph glyph-name="uni0209" unicode="&#x209;" horiz-adv-x="555" 
d="M-23 1143l-174 313h359l135 -313h-320zM451 1143l-175 313h359l135 -313h-319zM37 0l147 1044h332l-147 -1044h-332z" />
    <glyph glyph-name="uni020A" unicode="&#x20a;" horiz-adv-x="604" 
d="M88 1509q22 143 135.5 238.5t263.5 95.5q152 0 240 -96t66 -238h-254q6 43 -18.5 72t-65.5 29t-73 -29t-38 -72h-256zM53 0l199 1413h352l-198 -1413h-353z" />
    <glyph glyph-name="uni020B" unicode="&#x20b;" horiz-adv-x="555" 
d="M10 1141q22 143 136 238.5t264 95.5q152 0 239.5 -95.5t65.5 -238.5h-254q6 43 -18.5 71.5t-65.5 28.5t-73 -28.5t-38 -71.5h-256zM37 0l147 1044h332l-147 -1044h-332z" />
    <glyph glyph-name="uni020C" unicode="&#x20c;" horiz-adv-x="1615" 
d="M559 1511l-174 314h358l136 -314h-320zM1032 1511l-174 314h359l135 -314h-320zM729 -25q-210 0 -367.5 95.5t-231 263.5t-44.5 373q28 205 149 372.5t306 263t395 95.5q211 0 369 -95.5t232 -263t46 -372.5q-29 -205 -150.5 -373t-307 -263.5t-396.5 -95.5zM778 315
q166 0 293 112.5t152 279.5q23 167 -72.5 279t-261.5 112q-165 0 -292.5 -112t-150.5 -279t71.5 -279.5t260.5 -112.5z" />
    <glyph glyph-name="uni020D" unicode="&#x20d;" horiz-adv-x="1230" 
d="M315 1143l-174 313h359l135 -313h-320zM788 1143l-174 313h359l135 -313h-320zM539 -25q-242 0 -381 156.5t-107 390.5q21 153 112 278.5t231 197t300 71.5q159 0 278 -71.5t175 -197t35 -278.5t-112.5 -278.5t-231.5 -197t-299 -71.5zM584 297q97 0 170.5 64.5
t85.5 160.5q12 97 -42.5 161.5t-150.5 64.5q-97 0 -169.5 -64.5t-86.5 -161.5q-12 -97 42.5 -161t150.5 -64z" />
    <glyph glyph-name="uni020E" unicode="&#x20e;" horiz-adv-x="1615" 
d="M594 1509q22 143 135.5 238.5t263.5 95.5q152 0 239.5 -95.5t65.5 -238.5h-254q6 43 -18 72t-65 29t-73 -29t-38 -72h-256zM729 -25q-210 0 -367.5 95.5t-231 263.5t-44.5 373q28 205 149 372.5t306 263t395 95.5q211 0 369 -95.5t232 -263t46 -372.5
q-29 -205 -150.5 -373t-307 -263.5t-396.5 -95.5zM778 315q166 0 293 112.5t152 279.5q23 167 -72.5 279t-261.5 112q-165 0 -292.5 -112t-150.5 -279t71.5 -279.5t260.5 -112.5z" />
    <glyph glyph-name="uni020F" unicode="&#x20f;" horiz-adv-x="1230" 
d="M350 1141q22 143 136 238.5t264 95.5q152 0 239.5 -95.5t65.5 -238.5h-254q6 43 -18.5 71.5t-65.5 28.5t-73 -28.5t-38 -71.5h-256zM539 -25q-242 0 -381 156.5t-107 390.5q21 153 112 278.5t231 197t300 71.5q159 0 278 -71.5t175 -197t35 -278.5t-112.5 -278.5
t-231.5 -197t-299 -71.5zM584 297q97 0 170.5 64.5t85.5 160.5q12 97 -42.5 161.5t-150.5 64.5q-97 0 -169.5 -64.5t-86.5 -161.5q-12 -97 42.5 -161t150.5 -64z" />
    <glyph glyph-name="uni0210" unicode="&#x210;" horiz-adv-x="1314" 
d="M729 1511h-319l-174 314h358zM1202 1511h-319l-174 314h358zM1313 928q-20 -139 -107.5 -249.5t-216.5 -166.5l234 -512h-422l-191 461h-139l-65 -461h-353l199 1413h622q142 0 249.5 -62.5t158.5 -174t31 -248.5zM557 1081l-43 -313h262q66 0 116.5 45.5t59.5 112.5
q9 66 -28.5 110.5t-102.5 44.5h-264z" />
    <glyph glyph-name="uni0211" unicode="&#x211;" horiz-adv-x="776" 
d="M451 1143h-320l-174 313h358zM924 1143h-320l-174 313h358zM502 940q124 121 278 121h49l-49 -342h-47q-127 0 -204.5 -65t-92.5 -177l-67 -477h-332l147 1044h332z" />
    <glyph glyph-name="uni0212" unicode="&#x212;" horiz-adv-x="1314" 
d="M809 1610q-41 0 -73 -29t-38 -72h-256q22 143 136 238.5t264 95.5q152 0 239.5 -95.5t65.5 -238.5h-254q6 43 -18.5 72t-65.5 29zM1313 928q-20 -139 -107.5 -249.5t-216.5 -166.5l234 -512h-422l-191 461h-139l-65 -461h-353l199 1413h622q142 0 249.5 -62.5t158.5 -174
t31 -248.5zM557 1081l-43 -313h262q66 0 116.5 45.5t59.5 112.5q9 66 -28.5 110.5t-102.5 44.5h-264z" />
    <glyph glyph-name="uni0213" unicode="&#x213;" horiz-adv-x="776" 
d="M565 1475q152 0 239.5 -95.5t65.5 -238.5h-254q6 43 -18.5 71.5t-65.5 28.5t-72.5 -28.5t-37.5 -71.5h-256q22 143 135.5 238.5t263.5 95.5zM502 940q124 121 278 121h49l-49 -342h-47q-127 0 -204.5 -65t-92.5 -177l-67 -477h-332l147 1044h332z" />
    <glyph glyph-name="uni0214" unicode="&#x214;" horiz-adv-x="1394" 
d="M449 1511l-175 314h359l135 -314h-319zM922 1511l-174 314h358l135 -314h-319zM618 -25q-166 0 -291 75t-184 207t-37 294l123 862h351l-119 -856q-15 -104 44 -173t163 -69t182.5 69t93.5 173l119 856h352l-121 -862q-23 -162 -119.5 -294t-243 -207t-313.5 -75z" />
    <glyph glyph-name="uni0215" unicode="&#x215;" horiz-adv-x="1181" 
d="M291 1143l-174 313h358l135 -313h-319zM764 1143l-174 313h358l135 -313h-319zM514 -25q-225 0 -344.5 121.5t-91.5 321.5l88 626h332l-84 -579q-9 -76 30.5 -122t114.5 -46q76 0 129 46t62 122l84 579h331l-90 -626q-28 -200 -181.5 -321.5t-379.5 -121.5z" />
    <glyph glyph-name="uni0216" unicode="&#x216;" horiz-adv-x="1394" 
d="M481 1509q22 143 136 238.5t264 95.5q152 0 239.5 -95.5t65.5 -238.5h-254q6 43 -18.5 72t-65.5 29t-73 -29t-38 -72h-256zM618 -25q-166 0 -291 75t-184 207t-37 294l123 862h351l-119 -856q-15 -104 44 -173t163 -69t182.5 69t93.5 173l119 856h352l-121 -862
q-23 -162 -119.5 -294t-243 -207t-313.5 -75z" />
    <glyph glyph-name="uni0217" unicode="&#x217;" horiz-adv-x="1181" 
d="M326 1141q22 143 135.5 238.5t263.5 95.5q152 0 239.5 -95.5t65.5 -238.5h-254q6 43 -18.5 71.5t-65.5 28.5t-72.5 -28.5t-37.5 -71.5h-256zM514 -25q-225 0 -344.5 121.5t-91.5 321.5l88 626h332l-84 -579q-9 -76 30.5 -122t114.5 -46q76 0 129 46t62 122l84 579h331
l-90 -626q-28 -200 -181.5 -321.5t-379.5 -121.5z" />
    <glyph glyph-name="uni0218" unicode="&#x218;" horiz-adv-x="1241" 
d="M565 -25q-164 0 -321 60.5t-258 161.5l217 268q79 -79 189 -127.5t216 -48.5q87 0 152 32.5t71 84.5q3 19 -2.5 34t-22 28t-34.5 23t-51 20.5t-59.5 17.5t-71.5 18q-479 122 -432 461q26 195 195.5 312.5t420.5 117.5q157 0 283.5 -48t199.5 -126l-200 -269
q-54 58 -145 93.5t-185 35.5q-86 0 -143.5 -29t-63.5 -75q-7 -49 51.5 -81t165.5 -58q36 -8 66.5 -16.5t84 -28t95.5 -42.5t88.5 -60t75.5 -80t44 -104t5 -130q-18 -130 -108 -232.5t-227 -157.5t-296 -55zM268 -471l146 373h340l-211 -373h-275z" />
    <glyph glyph-name="uni0219" unicode="&#x219;" horiz-adv-x="985" 
d="M408 -25q-250 0 -433 156l177 209q128 -109 280 -109q67 0 110.5 18.5t47.5 51.5q5 34 -34 52t-124 36q-64 14 -101.5 24.5t-94.5 37t-87 58.5t-48.5 88t-8.5 128q24 166 162.5 255t331.5 89q229 0 403 -135l-176 -209q-131 88 -252 88q-56 0 -93.5 -15t-43.5 -46
q-4 -33 34 -50.5t124 -35.5q61 -12 101.5 -22.5t95.5 -36.5t86 -58.5t49.5 -88.5t7.5 -128q-15 -113 -88.5 -195t-183 -122t-242.5 -40zM127 -471l145 373h340l-211 -373h-274z" />
    <glyph glyph-name="uni021A" unicode="&#x21a;" horiz-adv-x="1204" 
d="M1280 1413l-45 -332h-379l-151 -1081h-353l152 1081h-377l45 332h1108zM233 -471l146 373h340l-211 -373h-275z" />
    <glyph glyph-name="uni021B" unicode="&#x21b;" horiz-adv-x="849" 
d="M559 741l-47 -329q-8 -55 19 -85t87 -30t140 35l-43 -309q-99 -48 -213 -48q-193 0 -273.5 103.5t-56.5 277.5l55 385h-149l43 303h149l35 252h332l-35 -252h256l-43 -303h-256zM86 -471l145 373h340l-211 -373h-274z" />
    <glyph glyph-name="uni0232" unicode="&#x232;" horiz-adv-x="1382" 
d="M1161 1804l-39 -276h-579l39 276h579zM1130 1413h394l-664 -938l-67 -475h-353l68 475l-399 938h401l231 -571z" />
    <glyph glyph-name="uni0233" unicode="&#x233;" horiz-adv-x="1163" 
d="M999 1436l-38 -277h-580l39 277h579zM870 1044h371l-649 -1200q-65 -119 -169.5 -188.5t-221.5 -69.5q-76 0 -155.5 30t-131.5 79l164 260q44 -47 110 -47q75 0 119 72l25 40l-262 1024h379l124 -612z" />
    <glyph glyph-name="uni0237" unicode="&#x237;" horiz-adv-x="563" 
d="M-41 -414q-85 0 -149 25l43 297q46 -19 86 -19q91 0 104 88l152 1067h331l-155 -1105q-23 -161 -127 -257t-285 -96z" />
    <glyph glyph-name="uni02BC" unicode="&#x2bc;" horiz-adv-x="339" 
d="M66 989l110 486h297l-158 -486h-249z" />
    <glyph glyph-name="circumflex" unicode="&#x2c6;" horiz-adv-x="802" 
d="M889 1143h-309l-72 135l-111 -135h-309l244 313h399z" />
    <glyph glyph-name="caron" unicode="&#x2c7;" horiz-adv-x="802" 
d="M623 1456h311l-246 -313h-399l-158 313h309l74 -133z" />
    <glyph glyph-name="breve" unicode="&#x2d8;" horiz-adv-x="704" 
d="M438 1122q-152 0 -239.5 95.5t-65.5 238.5h254q-6 -43 17.5 -70.5t64.5 -27.5q42 0 74.5 28t38.5 70h256q-22 -143 -136 -238.5t-264 -95.5z" />
    <glyph glyph-name="dotaccent" unicode="&#x2d9;" horiz-adv-x="380" 
d="M276 1130q-82 0 -128.5 53.5t-34.5 135.5q10 81 72.5 134.5t144.5 53.5t128 -53t36 -135q-10 -81 -73 -135t-145 -54z" />
    <glyph glyph-name="ring" unicode="&#x2da;" horiz-adv-x="464" 
d="M317 1122q-98 0 -155.5 64.5t-44.5 161.5q12 95 88 160t176 65q98 0 156 -65t45 -160q-12 -96 -88.5 -161t-176.5 -65zM340 1284q26 0 47 18t25 46q3 28 -12.5 45.5t-41.5 17.5q-27 0 -47.5 -18t-23.5 -45q-3 -28 12 -46t41 -18z" />
    <glyph glyph-name="ogonek" unicode="&#x2db;" horiz-adv-x="518" 
d="M150 -512q-131 0 -204 68.5t-59 173.5q13 90 86 165t177 111h249l2 -6q-227 -91 -241 -197q-6 -38 18 -58.5t60 -20.5q52 0 100 28l45 -203q-101 -61 -233 -61z" />
    <glyph glyph-name="tilde" unicode="&#x2dc;" horiz-adv-x="763" 
d="M602 1155q-50 0 -90 16.5t-69 33t-50 16.5q-29 0 -48.5 -18.5t-22.5 -45.5h-232q20 143 97 234.5t198 91.5q49 0 89.5 -17t70 -34t51.5 -17q27 0 47 18.5t23 45.5h231q-20 -144 -96.5 -234t-198.5 -90z" />
    <glyph glyph-name="hungarumlaut" unicode="&#x2dd;" horiz-adv-x="1009" 
d="M88 1143l221 313h359l-260 -313h-320zM561 1143l221 313h359l-260 -313h-320z" />
    <glyph glyph-name="gravecomb" unicode="&#x300;" horiz-adv-x="0" 
d="M-260 1143l-225 313h413l160 -313h-348z" />
    <glyph glyph-name="acutecomb" unicode="&#x301;" horiz-adv-x="0" 
d="M-528 1143l245 313h414l-313 -313h-346z" />
    <glyph glyph-name="uni0302" unicode="&#x302;" horiz-adv-x="0" 
d="M86 1143h-309l-72 135l-111 -135h-309l244 313h399z" />
    <glyph glyph-name="tildecomb" unicode="&#x303;" horiz-adv-x="0" 
d="M-162 1155q-50 0 -90 16.5t-69 33t-50 16.5q-29 0 -48.5 -18.5t-22.5 -45.5h-232q20 143 97 234.5t198 91.5q49 0 89.5 -17t70 -34t51.5 -17q27 0 47 18.5t23 45.5h231q-20 -144 -96.5 -234t-198.5 -90z" />
    <glyph glyph-name="uni0304" unicode="&#x304;" horiz-adv-x="0" 
d="M-489 1159l38 277h580l-39 -277h-579z" />
    <glyph glyph-name="uni0306" unicode="&#x306;" horiz-adv-x="0" 
d="M-266 1122q-152 0 -239.5 95.5t-65.5 238.5h254q-6 -43 17 -70.5t64 -27.5q42 0 74.5 28t38.5 70h256q-22 -143 -135.5 -238.5t-263.5 -95.5z" />
    <glyph glyph-name="uni0307" unicode="&#x307;" horiz-adv-x="0" 
d="M-104 1130q-82 0 -129 54t-35 135q10 81 72.5 134.5t144.5 53.5t128 -53t36 -135q-10 -81 -72.5 -135t-144.5 -54z" />
    <glyph glyph-name="uni0308" unicode="&#x308;" horiz-adv-x="0" 
d="M-551 1130q-78 0 -123.5 52t-34.5 129q10 76 70 128t137 52q78 0 122.5 -51.5t33.5 -128.5q-9 -76 -68.5 -128.5t-136.5 -52.5zM-96 1130q-76 0 -121.5 52t-36.5 129q10 76 70.5 128t138.5 52q77 0 121.5 -52t34.5 -128t-70 -128.5t-137 -52.5z" />
    <glyph glyph-name="uni030A" unicode="&#x30a;" horiz-adv-x="0" 
d="M-147 1122q-99 0 -156.5 65t-44.5 161q12 95 88 160t176 65q98 0 156 -65t45 -160q-12 -96 -88 -161t-176 -65zM-125 1284q26 0 47 18t25 46q3 28 -12 45.5t-41 17.5q-27 0 -48 -18t-24 -45q-3 -28 12 -46t41 -18z" />
    <glyph glyph-name="uni030B" unicode="&#x30b;" horiz-adv-x="0" 
d="M-922 1143l222 313h358l-260 -313h-320zM-449 1143l222 313h358l-260 -313h-320z" />
    <glyph glyph-name="uni030C" unicode="&#x30c;" horiz-adv-x="0" 
d="M-180 1456h311l-246 -313h-399l-158 313h310l73 -133z" />
    <glyph glyph-name="uni030F" unicode="&#x30f;" horiz-adv-x="0" 
d="M-705 1143l-174 313h359l135 -313h-320zM-231 1143l-175 313h359l135 -313h-319z" />
    <glyph glyph-name="uni0311" unicode="&#x311;" horiz-adv-x="0" 
d="M-618 1141q22 143 135.5 238.5t263.5 95.5q152 0 239.5 -95.5t65.5 -238.5h-254q6 43 -18.5 71.5t-65.5 28.5t-72.5 -28.5t-37.5 -71.5h-256z" />
    <glyph glyph-name="uni0312" unicode="&#x312;" horiz-adv-x="0" 
d="M-348 1141l213 372h272l-145 -372h-340z" />
    <glyph glyph-name="dotbelowcomb" unicode="&#x323;" horiz-adv-x="0" 
d="M-328 -463q-82 0 -129 53.5t-37 135.5q12 82 74 135t144 53t128.5 -53.5t34.5 -134.5q-10 -81 -72.5 -135t-142.5 -54z" />
    <glyph glyph-name="uni0326" unicode="&#x326;" horiz-adv-x="0" 
d="M-573 -471l145 373h340l-211 -373h-274z" />
    <glyph glyph-name="uni0327" unicode="&#x327;" horiz-adv-x="0" 
d="M-272 -55q82 -11 126 -75t31 -153q-12 -103 -98.5 -173t-204.5 -70q-147 0 -239 106l131 137q58 -65 129 -65q34 0 58.5 18.5t27.5 46.5q6 27 -12 45.5t-48 18.5q-36 0 -57 -25l-172 82l154 162v4h229v-4z" />
    <glyph glyph-name="uni0328" unicode="&#x328;" horiz-adv-x="0" 
d="M-369 -512q-131 0 -203.5 68.5t-58.5 173.5q13 90 85.5 165t176.5 111h250l2 -6q-227 -91 -241 -197q-6 -39 17.5 -59t59.5 -20q53 0 101 28l45 -203q-101 -61 -234 -61z" />
    <glyph glyph-name="uni0335" unicode="&#x335;" horiz-adv-x="0" 
d="M-659 444l32 238h652l-35 -238h-649z" />
    <glyph glyph-name="uni0336" unicode="&#x336;" horiz-adv-x="0" 
d="M-1444 440l33 242h1434l-33 -242h-1434z" />
    <glyph glyph-name="uni0337" unicode="&#x337;" horiz-adv-x="0" 
d="M-1231 0l1071 1044h234l-1071 -1044h-234z" />
    <glyph glyph-name="uni0338" unicode="&#x338;" horiz-adv-x="0" 
d="M-1563 0l1399 1413h289l-1401 -1413h-287z" />
    <glyph glyph-name="uni03BC" unicode="&#x3bc;" horiz-adv-x="1226" 
d="M858 1044h332l-148 -1044h-331l10 74q-117 -99 -268 -99q-36 0 -86 11l-54 -375h-331l202 1433h332l-80 -577q-11 -77 26.5 -123.5t112.5 -46.5q78 0 134.5 48t66.5 126z" />
    <glyph glyph-name="uni1E0C" unicode="&#x1e0c;" horiz-adv-x="1468" 
d="M811 1413q153 0 280 -54t210 -147.5t120 -224.5t17 -280q-28 -199 -145.5 -361t-297 -254t-383.5 -92h-559l199 1413h559zM1075 707q23 160 -68 267t-249 107h-201l-104 -749h198q158 0 279.5 107.5t144.5 267.5zM633 -86q82 0 129 -53.5t35 -134.5q-10 -81 -72.5 -135
t-142.5 -54q-82 0 -129 53.5t-37 135.5q12 82 73.5 135t143.5 53z" />
    <glyph glyph-name="uni1E0D" unicode="&#x1e0d;" 
d="M979 1475h332l-207 -1475h-332l12 86q-136 -111 -307 -111q-140 0 -244.5 71.5t-151.5 197t-26 278.5t104 278.5t208.5 197t265.5 71.5q166 0 274 -108zM590 297q93 0 164 59t90 152l4 27q6 93 -48 153t-147 60q-97 0 -170.5 -64.5t-85.5 -161.5t42.5 -161t150.5 -64z
M551 -86q82 0 129 -53.5t35 -134.5q-10 -81 -72.5 -135t-142.5 -54q-82 0 -129 53.5t-37 135.5q12 82 73.5 135t143.5 53z" />
    <glyph glyph-name="uni1E24" unicode="&#x1e24;" horiz-adv-x="1464" 
d="M1112 1413h352l-198 -1413h-353l76 545h-508l-75 -545h-353l199 1413h352l-76 -536h508zM647 -86q82 0 129 -53.5t35 -134.5q-10 -81 -72.5 -135t-142.5 -54q-82 0 -129 53.5t-37 135.5q12 82 73.5 135t143.5 53z" />
    <glyph glyph-name="uni1E25" unicode="&#x1e25;" horiz-adv-x="1228" 
d="M821 1069q177 0 269.5 -107t66.5 -284l-94 -678h-332l80 567q12 82 -28.5 131.5t-118.5 49.5q-85 0 -144 -51t-71 -134l-80 -563h-332l207 1475h331l-73 -531q137 125 319 125zM539 -86q82 0 128.5 -53.5t34.5 -134.5q-10 -81 -72.5 -135t-142.5 -54q-82 0 -128.5 53.5
t-36.5 135.5q12 82 73.5 135t143.5 53z" />
    <glyph glyph-name="uni1E44" unicode="&#x1e44;" horiz-adv-x="1488" 
d="M891 1499q-82 0 -129 54t-35 135q10 81 72.5 134.5t144.5 53.5t128 -53t36 -135q-10 -81 -72.5 -135t-144.5 -54zM1135 1413h352l-199 -1413h-352l-420 797l-110 -797h-353l199 1413h352l420 -797z" />
    <glyph glyph-name="uni1E45" unicode="&#x1e45;" horiz-adv-x="1228" 
d="M713 1130q-82 0 -129 54t-35 135q10 81 72.5 134.5t144.5 53.5t128 -53t36 -135q-10 -81 -72.5 -135t-144.5 -54zM821 1069q177 0 269.5 -107t66.5 -284l-94 -678h-332l80 567q12 82 -29 131.5t-120 49.5q-83 0 -142 -51t-71 -134l-80 -563h-332l147 1044h332l-12 -92
q135 117 317 117z" />
    <glyph glyph-name="uni1E5A" unicode="&#x1e5a;" horiz-adv-x="1314" 
d="M1313 928q-20 -139 -107.5 -249.5t-216.5 -166.5l234 -512h-422l-191 461h-139l-65 -461h-353l199 1413h622q142 0 249.5 -62.5t158.5 -174t31 -248.5zM557 1081l-43 -313h262q66 0 116.5 45.5t59.5 112.5q9 66 -28.5 110.5t-102.5 44.5h-264zM571 -86q82 0 129 -53.5
t35 -134.5q-10 -81 -72.5 -135t-142.5 -54q-82 0 -129 53.5t-37 135.5q12 82 73.5 135t143.5 53z" />
    <glyph glyph-name="uni1E5B" unicode="&#x1e5b;" horiz-adv-x="776" 
d="M780 1061h49l-49 -342h-47q-127 0 -204.5 -65t-92.5 -177l-67 -477h-332l147 1044h332l-14 -104q124 121 278 121zM190 -86q82 0 129 -53.5t35 -134.5q-10 -81 -72.5 -135t-142.5 -54q-82 0 -129 53.5t-37 135.5q12 82 73.5 135t143.5 53z" />
    <glyph glyph-name="uni1E62" unicode="&#x1e62;" horiz-adv-x="1241" 
d="M565 -25q-164 0 -321 60.5t-258 161.5l217 268q79 -79 189 -127.5t216 -48.5q87 0 152 32.5t71 84.5q3 19 -2.5 34t-22 28t-34.5 23t-51 20.5t-59.5 17.5t-71.5 18q-479 122 -432 461q26 195 195.5 312.5t420.5 117.5q157 0 283.5 -48t199.5 -126l-200 -269
q-54 58 -145 93.5t-185 35.5q-86 0 -143.5 -29t-63.5 -75q-7 -49 51.5 -81t165.5 -58q36 -8 66.5 -16.5t84 -28t95.5 -42.5t88.5 -60t75.5 -80t44 -104t5 -130q-18 -130 -108 -232.5t-227 -157.5t-296 -55zM502 -463q-82 0 -129 53.5t-37 135.5q12 82 73.5 135t143.5 53
t129 -53.5t35 -134.5q-10 -81 -72.5 -135t-142.5 -54z" />
    <glyph glyph-name="uni1E63" unicode="&#x1e63;" horiz-adv-x="985" 
d="M408 -25q-250 0 -433 156l177 209q128 -109 280 -109q67 0 110.5 18.5t47.5 51.5q5 34 -34 52t-124 36q-64 14 -101.5 24.5t-94.5 37t-87 58.5t-48.5 88t-8.5 128q24 166 162.5 255t331.5 89q229 0 403 -135l-176 -209q-131 88 -252 88q-56 0 -93.5 -15t-43.5 -46
q-4 -33 34 -50.5t124 -35.5q61 -12 101.5 -22.5t95.5 -36.5t86 -58.5t49.5 -88.5t7.5 -128q-15 -113 -88.5 -195t-183 -122t-242.5 -40zM360 -463q-82 0 -128.5 53.5t-36.5 135.5q12 82 73.5 135t143.5 53t128.5 -53.5t34.5 -134.5q-10 -81 -72.5 -135t-142.5 -54z" />
    <glyph glyph-name="uni1E6C" unicode="&#x1e6c;" horiz-adv-x="1204" 
d="M1280 1413l-45 -332h-379l-151 -1081h-353l152 1081h-377l45 332h1108zM516 -86q82 0 129 -53.5t35 -134.5q-10 -81 -72.5 -135t-142.5 -54q-82 0 -129 53.5t-37 135.5q12 82 73.5 135t143.5 53z" />
    <glyph glyph-name="uni1E6D" unicode="&#x1e6d;" horiz-adv-x="849" 
d="M559 741l-47 -329q-8 -55 19 -85t87 -30t140 35l-43 -309q-99 -48 -213 -48q-193 0 -273.5 103.5t-56.5 277.5l55 385h-149l43 303h149l35 252h332l-35 -252h256l-43 -303h-256zM369 -86q82 0 128.5 -53.5t34.5 -134.5q-10 -81 -72.5 -135t-142.5 -54q-82 0 -128.5 53.5
t-36.5 135.5q12 82 73.5 135t143.5 53z" />
    <glyph glyph-name="Wgrave" unicode="&#x1e80;" horiz-adv-x="2050" 
d="M1354 1511h-348l-226 314h414zM1798 1413h363l-631 -1413h-352l-105 858l-348 -858h-350l-236 1413h373l117 -917l372 917h308l114 -921z" />
    <glyph glyph-name="wgrave" unicode="&#x1e81;" horiz-adv-x="1751" 
d="M1151 1143h-348l-225 313h413zM1462 1044h363l-510 -1044h-340l-84 629l-262 -629h-340l-213 1044h370l82 -606l258 606h336l86 -604z" />
    <glyph glyph-name="Wacute" unicode="&#x1e82;" horiz-adv-x="2050" 
d="M1636 1825l-313 -314h-346l246 314h413zM1798 1413h363l-631 -1413h-352l-105 858l-348 -858h-350l-236 1413h373l117 -917l372 917h308l114 -921z" />
    <glyph glyph-name="wacute" unicode="&#x1e83;" horiz-adv-x="1751" 
d="M1436 1456l-314 -313h-346l246 313h414zM1462 1044h363l-510 -1044h-340l-84 629l-262 -629h-340l-213 1044h370l82 -606l258 606h336l86 -604z" />
    <glyph glyph-name="Wdieresis" unicode="&#x1e84;" horiz-adv-x="2050" 
d="M936 1499q-78 0 -123.5 51.5t-34.5 128.5q10 76 70 128.5t137 52.5q78 0 122.5 -52t33.5 -129q-9 -76 -68.5 -128t-136.5 -52zM1391 1499q-76 0 -121.5 51.5t-36.5 128.5q11 77 71 129t138 52q76 0 121 -52t34 -129q-10 -76 -69.5 -128t-136.5 -52zM1798 1413h363
l-631 -1413h-352l-105 858l-348 -858h-350l-236 1413h373l117 -917l372 917h308l114 -921z" />
    <glyph glyph-name="wdieresis" unicode="&#x1e85;" horiz-adv-x="1751" 
d="M735 1130q-78 0 -123 52t-34 129q10 76 69.5 128t136.5 52q78 0 122.5 -51.5t33.5 -128.5q-9 -76 -68.5 -128.5t-136.5 -52.5zM1190 1130q-76 0 -121.5 52t-36.5 129q10 76 70.5 128t138.5 52q77 0 121.5 -52t34.5 -128t-70 -128.5t-137 -52.5zM1462 1044h363l-510 -1044
h-340l-84 629l-262 -629h-340l-213 1044h370l82 -606l258 606h336l86 -604z" />
    <glyph glyph-name="uni1E92" unicode="&#x1e92;" horiz-adv-x="1257" 
d="M1303 1413l-35 -252l-746 -829h641l-45 -332h-1126l35 252l745 829h-618l45 332h1104zM541 -86q82 0 129 -53.5t35 -134.5q-10 -81 -73 -135t-143 -54q-82 0 -128.5 53.5t-36.5 135.5q12 82 73.5 135t143.5 53z" />
    <glyph glyph-name="uni1E93" unicode="&#x1e93;" horiz-adv-x="1013" 
d="M1006 1044l-35 -241l-463 -481h412l-48 -322h-878l35 242l463 481h-390l48 321h856zM420 -86q82 0 129 -53.5t35 -134.5q-10 -81 -72.5 -135t-142.5 -54q-82 0 -129 53.5t-37 135.5q12 82 73.5 135t143.5 53z" />
    <glyph glyph-name="uni1E9E" unicode="&#x1e9e;" horiz-adv-x="1349" 
d="M1362 1413l-41 -291l-240 -270q126 -50 190 -165.5t44 -260.5q-28 -193 -181 -322t-352 -129q-61 0 -125 14.5t-102 35.5l47 348q25 -25 73.5 -41.5t94.5 -16.5q73 0 125 35.5t59 91.5q8 51 -22 86t-84 35h-166l37 256l213 262h-264q-54 0 -91.5 -32t-44.5 -86l-135 -963
h-352l139 1001q26 185 161.5 298.5t328.5 113.5h688z" />
    <glyph glyph-name="uni1EA0" unicode="&#x1ea0;" horiz-adv-x="1472" 
d="M1391 0h-385l-43 223h-543l-107 -223h-379l719 1413h416zM575 547h322l-94 477zM647 -86q82 0 129 -53.5t35 -134.5q-10 -81 -72.5 -135t-142.5 -54q-82 0 -129 53.5t-37 135.5q12 82 73.5 135t143.5 53z" />
    <glyph glyph-name="uni1EA1" unicode="&#x1ea1;" 
d="M920 1044h331l-147 -1044h-332l12 86q-136 -111 -307 -111q-140 0 -244.5 71.5t-151.5 197t-26 278.5t104 278.5t208.5 197t265.5 71.5q169 0 274 -111zM590 297q97 0 169.5 64t86.5 161q12 97 -42.5 161.5t-150.5 64.5q-97 0 -170.5 -64.5t-85.5 -161.5t42.5 -161
t150.5 -64zM567 -86q82 0 129 -53.5t35 -134.5q-10 -81 -72.5 -135t-142.5 -54q-82 0 -129 53.5t-37 135.5q12 82 73.5 135t143.5 53z" />
    <glyph glyph-name="uni1EB8" unicode="&#x1eb8;" horiz-adv-x="1179" 
d="M1171 1081h-614l-29 -204h549l-47 -332h-549l-28 -213h622l-45 -332h-977l199 1413h967zM528 -86q82 0 129 -53.5t35 -134.5q-10 -81 -72.5 -135t-142.5 -54q-82 0 -129 53.5t-37 135.5q12 82 73.5 135t143.5 53z" />
    <glyph glyph-name="uni1EB9" unicode="&#x1eb9;" horiz-adv-x="1208" 
d="M686 1069q237 0 372.5 -157.5t100.5 -395.5q-9 -64 -20 -94h-746q15 -75 72 -118.5t143 -43.5q74 0 141.5 30t110.5 72l193 -190q-99 -93 -227.5 -145t-268.5 -52q-165 0 -288 72t-181 198.5t-37 282.5q34 231 216 386t419 155zM643 786q-70 0 -129.5 -42.5t-93.5 -116.5
h401q-10 73 -58.5 116t-119.5 43zM530 -86q82 0 129 -53.5t35 -134.5q-10 -81 -72.5 -135t-142.5 -54q-82 0 -129 53.5t-37 135.5q12 82 73.5 135t143.5 53z" />
    <glyph glyph-name="uni1EBC" unicode="&#x1ebc;" horiz-adv-x="1179" 
d="M678 1589q-29 0 -49 -18t-23 -45h-231q20 143 97 234t198 91q38 0 72.5 -10.5t54.5 -23t43 -23t41 -10.5q27 0 46.5 18t22.5 45h232q-20 -144 -96.5 -233.5t-198.5 -89.5q-50 0 -90 16.5t-69 32.5t-50 16zM1171 1081h-614l-29 -204h549l-47 -332h-549l-28 -213h622
l-45 -332h-977l199 1413h967z" />
    <glyph glyph-name="uni1EBD" unicode="&#x1ebd;" horiz-adv-x="1208" 
d="M627 1221q-29 0 -49 -18.5t-23 -45.5h-231q20 144 96.5 235t197.5 91q49 0 89.5 -17t70 -34t51.5 -17q27 0 47 18.5t23 45.5h231q-20 -144 -96.5 -234t-197.5 -90q-50 0 -90 16.5t-69 33t-50 16.5zM686 1069q237 0 372.5 -157.5t100.5 -395.5q-9 -64 -20 -94h-746
q15 -75 72 -118.5t143 -43.5q74 0 141.5 30t110.5 72l193 -190q-99 -93 -227.5 -145t-268.5 -52q-165 0 -288 72t-181 198.5t-37 282.5q34 231 216 386t419 155zM643 786q-70 0 -129.5 -42.5t-93.5 -116.5h401q-10 73 -58.5 116t-119.5 43z" />
    <glyph glyph-name="uni1ECA" unicode="&#x1eca;" horiz-adv-x="604" 
d="M53 0l199 1413h352l-198 -1413h-353zM166 -463q-82 0 -129 53.5t-37 135.5q12 82 73.5 135t143.5 53t129 -53.5t35 -134.5q-10 -81 -72.5 -135t-142.5 -54z" />
    <glyph glyph-name="uni1ECB" unicode="&#x1ecb;" horiz-adv-x="555" 
d="M367 1157q-88 0 -138.5 57.5t-38.5 143.5q13 88 79.5 145.5t152.5 57.5q88 0 138 -57.5t38 -145.5q-12 -86 -78.5 -143.5t-152.5 -57.5zM37 0l147 1044h332l-147 -1044h-332zM139 -463q-82 0 -129 53.5t-37 135.5q12 82 73.5 135t143.5 53t129 -53.5t35 -134.5
q-10 -81 -72.5 -135t-142.5 -54z" />
    <glyph glyph-name="uni1ECC" unicode="&#x1ecc;" horiz-adv-x="1615" 
d="M729 -25q-210 0 -367.5 95.5t-231 263.5t-44.5 373q28 205 149 372.5t306 263t395 95.5q211 0 369 -95.5t232 -263t46 -372.5q-29 -205 -150.5 -373t-307 -263.5t-396.5 -95.5zM778 315q166 0 293 112.5t152 279.5q23 167 -72.5 279t-261.5 112q-165 0 -292.5 -112
t-150.5 -279t71.5 -279.5t260.5 -112.5zM670 -463q-82 0 -129 53.5t-37 135.5q12 82 73.5 135t143.5 53t129 -53.5t35 -134.5q-10 -81 -72.5 -135t-142.5 -54z" />
    <glyph glyph-name="uni1ECD" unicode="&#x1ecd;" horiz-adv-x="1230" 
d="M539 -25q-242 0 -381 156.5t-107 390.5q21 153 112 278.5t231 197t300 71.5q159 0 278 -71.5t175 -197t35 -278.5t-112.5 -278.5t-231.5 -197t-299 -71.5zM584 297q97 0 170.5 64.5t85.5 160.5q12 97 -42.5 161.5t-150.5 64.5q-97 0 -169.5 -64.5t-86.5 -161.5
q-12 -97 42.5 -161t150.5 -64zM477 -463q-82 0 -129 53.5t-37 135.5q12 82 73.5 135t143.5 53t129 -53.5t35 -134.5q-10 -81 -72.5 -135t-142.5 -54z" />
    <glyph glyph-name="uni1EE4" unicode="&#x1ee4;" horiz-adv-x="1394" 
d="M618 -25q-166 0 -291 75t-184 207t-37 294l123 862h351l-119 -856q-15 -104 44 -173t163 -69t182.5 69t93.5 173l119 856h352l-121 -862q-23 -162 -119.5 -294t-243 -207t-313.5 -75zM559 -463q-82 0 -129 53.5t-37 135.5q12 82 73.5 135t143.5 53t129 -53.5t35 -134.5
q-10 -81 -72.5 -135t-142.5 -54z" />
    <glyph glyph-name="uni1EE5" unicode="&#x1ee5;" horiz-adv-x="1181" 
d="M514 -25q-225 0 -344.5 121.5t-91.5 321.5l88 626h332l-84 -579q-9 -76 30.5 -122t114.5 -46q76 0 129 46t62 122l84 579h331l-90 -626q-28 -200 -181.5 -321.5t-379.5 -121.5zM455 -463q-82 0 -129 53.5t-37 135.5q12 82 73.5 135t143.5 53t129 -53.5t35 -134.5
q-10 -81 -72.5 -135t-142.5 -54z" />
    <glyph glyph-name="Ygrave" unicode="&#x1ef2;" horiz-adv-x="1382" 
d="M1018 1511h-348l-226 314h414zM1130 1413h394l-664 -938l-67 -475h-353l68 475l-399 938h401l231 -571z" />
    <glyph glyph-name="ygrave" unicode="&#x1ef3;" horiz-adv-x="1163" 
d="M856 1143h-348l-225 313h413zM870 1044h371l-649 -1200q-65 -119 -169.5 -188.5t-221.5 -69.5q-76 0 -155.5 30t-131.5 79l164 260q44 -47 110 -47q75 0 119 72l25 40l-262 1024h379l124 -612z" />
    <glyph glyph-name="uni1EF8" unicode="&#x1ef8;" horiz-adv-x="1382" 
d="M754 1589q-29 0 -49 -18t-23 -45h-231q20 143 96.5 234t197.5 91q38 0 72.5 -10.5t54.5 -23t43 -23t41 -10.5q27 0 47 18t23 45h231q-20 -144 -96 -233.5t-198 -89.5q-50 0 -90 16.5t-69 32.5t-50 16zM1130 1413h394l-664 -938l-67 -475h-353l68 475l-399 938h401
l231 -571z" />
    <glyph glyph-name="uni1EF9" unicode="&#x1ef9;" horiz-adv-x="1163" 
d="M592 1221q-29 0 -49 -18.5t-23 -45.5h-231q20 143 97 234.5t198 91.5q49 0 89.5 -17t70 -34t51.5 -17q27 0 46.5 18.5t22.5 45.5h232q-20 -144 -96.5 -234t-198.5 -90q-50 0 -90 16.5t-69 33t-50 16.5zM870 1044h371l-649 -1200q-65 -119 -169.5 -188.5t-221.5 -69.5
q-76 0 -155.5 30t-131.5 79l164 260q44 -47 110 -47q75 0 119 72l25 40l-262 1024h379l124 -612z" />
    <glyph glyph-name="endash" unicode="&#x2013;" horiz-adv-x="1245" 
d="M94 412l43 299h1024l-43 -299h-1024z" />
    <glyph glyph-name="emdash" unicode="&#x2014;" horiz-adv-x="2187" 
d="M94 412l43 299h1966l-43 -299h-1966z" />
    <glyph glyph-name="quoteleft" unicode="&#x2018;" horiz-adv-x="606" 
d="M102 805l330 608h285l-230 -608h-385z" />
    <glyph glyph-name="quoteright" unicode="&#x2019;" horiz-adv-x="606" 
d="M102 805l230 608h385l-332 -608h-283z" />
    <glyph glyph-name="quotesinglbase" unicode="&#x201a;" horiz-adv-x="559" 
d="M-125 -279l231 609h386l-332 -609h-285z" />
    <glyph glyph-name="quotedblleft" unicode="&#x201c;" horiz-adv-x="1118" 
d="M102 805l330 608h285l-230 -608h-385zM614 805l330 608h285l-230 -608h-385z" />
    <glyph glyph-name="quotedblright" unicode="&#x201d;" horiz-adv-x="1118" 
d="M102 805l230 608h385l-332 -608h-283zM614 805l230 608h385l-330 -608h-285z" />
    <glyph glyph-name="quotedblbase" unicode="&#x201e;" horiz-adv-x="1071" 
d="M-125 -279l231 609h386l-332 -609h-285zM387 -279l231 609h388l-334 -609h-285z" />
    <glyph glyph-name="dagger" unicode="&#x2020;" horiz-adv-x="1011" 
d="M975 1044l-43 -299h-244l-160 -1134h-303l160 1134h-244l43 299h244l51 369h303l-51 -369h244z" />
    <glyph glyph-name="daggerdbl" unicode="&#x2021;" horiz-adv-x="1011" 
d="M932 745h-244l-59 -426h243l-41 -299h-245l-58 -409h-303l58 409h-242l41 299h244l59 426h-244l43 299h244l51 369h303l-51 -369h244z" />
    <glyph glyph-name="bullet" unicode="&#x2022;" horiz-adv-x="763" 
d="M350 293q-116 0 -183 76.5t-50 191.5q17 116 104.5 192t202.5 76q116 0 183 -76.5t52 -191.5q-17 -115 -105 -191.5t-204 -76.5z" />
    <glyph glyph-name="ellipsis" unicode="&#x2026;" horiz-adv-x="1736" 
d="M199 -23q-96 0 -151.5 64t-43.5 160q14 95 87.5 160t170.5 65t153 -65t42 -160t-87.5 -159.5t-170.5 -64.5zM791 -23q-96 0 -151.5 64t-41.5 160t87 160.5t169 64.5q97 0 153 -65t42 -160q-12 -95 -86.5 -159.5t-171.5 -64.5zM1382 -23q-95 0 -150.5 64.5t-41.5 159.5
t87.5 160t168.5 65q96 0 152 -64.5t42 -160.5q-12 -95 -86.5 -159.5t-171.5 -64.5z" />
    <glyph glyph-name="perthousand" unicode="&#x2030;" horiz-adv-x="2592" 
d="M463 727q-155 0 -244 101.5t-69 254.5q22 151 140 253t273 102t245.5 -102t68.5 -253q-22 -152 -140.5 -254t-273.5 -102zM139 0l1223 1413h352l-1222 -1413h-353zM500 991q38 0 68 27t36 65q5 37 -17.5 62.5t-60.5 25.5t-67 -25.5t-35 -62.5q-6 -38 16 -65t60 -27z
M1288 -25q-155 0 -244 102.5t-69 256.5q23 151 141 251.5t273 100.5q156 0 246 -101t67 -251q-22 -154 -140.5 -256.5t-273.5 -102.5zM2081 -25q-155 0 -245.5 102.5t-68.5 256.5q23 151 141 251.5t273 100.5q156 0 246 -101t67 -251q-22 -154 -140 -256.5t-273 -102.5z
M1327 242q39 0 69 26.5t34 65.5q5 37 -17.5 62.5t-60.5 25.5t-67.5 -25.5t-35.5 -62.5q-5 -40 17.5 -66t60.5 -26zM2120 242q38 0 67 26t33 66q6 37 -16 62.5t-60 25.5t-67 -25.5t-35 -62.5q-5 -40 17.5 -66t60.5 -26z" />
    <glyph glyph-name="guilsinglleft" unicode="&#x2039;" horiz-adv-x="770" 
d="M791 961l-351 -420l232 -420h-387l-234 420l352 420h388z" />
    <glyph glyph-name="guilsinglright" unicode="&#x203a;" horiz-adv-x="770" 
d="M502 961l233 -420l-352 -420h-387l352 420l-233 420h387z" />
    <glyph glyph-name="fraction" unicode="&#x2044;" horiz-adv-x="423" 
d="M-489 0l1153 1413h301l-1153 -1413h-301z" />
    <glyph glyph-name="uni2070" unicode="&#x2070;" horiz-adv-x="808" 
d="M412 735q-150 0 -227.5 122.5t-51.5 316.5q28 194 139.5 316t262.5 122t229.5 -122.5t50.5 -315.5q-26 -193 -139 -316t-264 -123zM444 965q42 0 76.5 59t46.5 150q14 91 -4 149.5t-59 58.5t-76.5 -58t-48.5 -150q-12 -92 6.5 -150.5t58.5 -58.5z" />
    <glyph glyph-name="uni2074" unicode="&#x2074;" horiz-adv-x="763" 
d="M786 1597l-67 -489h67l-34 -225h-66l-18 -133h-240l18 133h-315l-27 194l416 520h266zM348 1108h129l31 209z" />
    <glyph glyph-name="uni2075" unicode="&#x2075;" horiz-adv-x="733" 
d="M504 1309q124 0 196.5 -81t57.5 -200q-17 -127 -124 -210t-257 -83q-164 0 -293 101l145 194q32 -30 76.5 -47.5t87.5 -17.5q51 0 82.5 20.5t36.5 50.5q5 26 -14.5 44t-53.5 18q-41 0 -79 -33l-203 61l108 471h508l-33 -223h-303l-16 -78q33 13 78 13z" />
    <glyph glyph-name="uni2076" unicode="&#x2076;" horiz-adv-x="708" 
d="M539 1303q107 0 170.5 -80t48.5 -193q-19 -127 -126 -211t-247 -84q-150 0 -226.5 100.5t-54.5 262.5q30 205 197.5 349t423.5 165l12 -223q-180 -11 -284 -101q46 15 86 15zM508 1026q5 26 -17 45t-59 19q-33 0 -59 -18.5t-31 -45.5q-3 -28 18.5 -46.5t55.5 -18.5
q35 0 62 18.5t30 46.5z" />
    <glyph glyph-name="uni2077" unicode="&#x2077;" horiz-adv-x="667" 
d="M186 1597h582l-27 -188l-374 -659h-271l359 622h-301z" />
    <glyph glyph-name="uni2078" unicode="&#x2078;" horiz-adv-x="751" 
d="M813 1366q-15 -105 -119 -176q100 -74 82 -193q-15 -111 -122 -186.5t-251 -75.5q-143 0 -228.5 75t-70.5 187q18 120 138 193q-83 70 -68 176q15 104 115 175t237 71t219.5 -71.5t67.5 -174.5zM416 1339q-3 -21 16 -35t49 -14q33 0 57 14t25 35q4 23 -15 37.5t-52 14.5
q-30 0 -53.5 -14.5t-26.5 -37.5zM537 1022q3 25 -22 42t-62 17t-66 -17t-33 -42q-2 -25 21 -43t59 -18q40 0 70 18t33 43z" />
    <glyph glyph-name="uni2079" unicode="&#x2079;" horiz-adv-x="708" 
d="M504 1612q150 0 226.5 -100.5t53.5 -262.5q-15 -101 -65.5 -192t-129 -161t-188.5 -113t-235 -48l-12 223q174 6 284 101q-47 -15 -86 -15q-107 0 -169.5 80t-47.5 193q19 127 124.5 211t244.5 84zM549 1321q3 28 -18 46.5t-56 18.5t-62.5 -18.5t-31.5 -46.5
q-3 -28 19 -46t57 -18t62 19t30 45z" />
    <glyph glyph-name="franc" unicode="&#x20a3;" horiz-adv-x="1138" 
d="M1143 1081h-543l-25 -182h465l-47 -332h-465l-16 -121h313l-45 -303h-311l-20 -143h-353l21 143h-101l45 303h99l135 967h895z" />
    <glyph glyph-name="lira" unicode="&#x20a4;" horiz-adv-x="1204" 
d="M539 461l-19 -129h600l-45 -332h-1052l47 332h98l18 129h-98l27 178h98l10 80h-98l25 178h98l8 53q29 209 197 348.5t391 139.5q124 0 230 -45t179 -123l-215 -258q-48 39 -112 62.5t-125 23.5q-77 0 -130.5 -41.5t-62.5 -106.5l-8 -53h361l-25 -178h-361l-10 -80h359
l-25 -178h-360z" />
    <glyph glyph-name="peseta" unicode="&#x20a7;" horiz-adv-x="1380" 
d="M1430 993l-33 -221h-82q-65 -189 -231 -307.5t-373 -118.5h-201l-47 -340h-352l108 766h-100l31 221h100l59 426h553q205 0 338.5 -119t145.5 -307h84zM614 1087l-12 -94h363q-21 44 -62 69t-96 25h-193zM750 678q55 0 103 25t81 69h-363l-14 -94h193z" />
    <glyph glyph-name="uni20A8" unicode="&#x20a8;" horiz-adv-x="2297" 
d="M1313 928q-20 -139 -107.5 -249.5t-216.5 -166.5l234 -512h-422l-191 461h-139l-65 -461h-353l199 1413h622q142 0 249.5 -62.5t158.5 -174t31 -248.5zM557 1081l-43 -313h262q66 0 116.5 45.5t59.5 112.5q9 66 -28.5 110.5t-102.5 44.5h-264zM1894 666
q61 -12 101.5 -22.5t95.5 -36.5t86 -58.5t49.5 -88.5t7.5 -128q-15 -113 -88.5 -195t-183 -122t-242.5 -40q-251 0 -430 156l174 209q128 -109 281 -109q67 0 110.5 18.5t47.5 51.5q5 34 -34 52t-124 36q-64 14 -101.5 24.5t-94.5 37t-87 58.5t-48.5 88t-8.5 128
q24 166 162 255t331 89q230 0 404 -135l-176 -209q-131 88 -252 88q-56 0 -93.5 -15t-43.5 -46q-4 -33 34 -50.5t123 -35.5z" />
    <glyph glyph-name="Euro" unicode="&#x20ac;" horiz-adv-x="1531" 
d="M1065 1438q283 0 469 -162l-51 -373q-72 90 -183 142.5t-239 52.5q-119 0 -220.5 -46.5t-168.5 -127.5h631l-68 -176h-653q-6 -22 -9 -41q-4 -28 -4 -41h639l-65 -177h-533q44 -81 132.5 -127.5t207.5 -46.5q128 0 254.5 53t222.5 142l-53 -373q-108 -77 -241 -119.5
t-275 -42.5q-260 0 -434.5 142t-210.5 372h-162l64 177h94q0 13 4 41l6 41h-133l68 176h120q101 229 316.5 371.5t474.5 142.5z" />
    <glyph glyph-name="uni20B1" unicode="&#x20b1;" horiz-adv-x="1380" 
d="M1343 903q-1 -4 -2 -13t-2 -13t-2 -13.5t-2 -13.5h74l-20 -137h-97q-74 -167 -232.5 -270t-350.5 -103h-201l-47 -340h-352l100 713h-98l20 137h96l9 53h-99l21 139h98l51 371h553q190 0 319.5 -102.5t157.5 -268.5h99l-19 -139h-74zM616 1108l-8 -66h326q-60 66 -156 66
h-162zM580 850h393q1 4 2 13.5t2 13.5q2 8 2 26h-391zM711 645q104 0 178 68h-328l-10 -68h160z" />
    <glyph glyph-name="uni20B5" unicode="&#x20b5;" horiz-adv-x="1492" 
d="M901 330q146 37 236 149l274 -194q-105 -124 -249.5 -202.5t-309.5 -98.5l-18 -127h-224l19 129q-177 27 -305 127t-186 255t-32 339q38 278 241.5 478t483.5 242l19 129h223l-18 -126q160 -20 282.5 -99t192.5 -203l-328 -194q-63 114 -196 149zM467 707
q-19 -134 39 -234t172 -137l104 741q-123 -37 -209 -137t-106 -233z" />
    <glyph glyph-name="uni20B9" unicode="&#x20b9;" horiz-adv-x="1214" 
d="M1018 1217q50 -80 59 -187h164l-90 -196h-96q-50 -159 -175.5 -269.5t-287.5 -138.5l393 -426h-483l-387 428l43 313h356q50 0 93.5 25.5t72.5 67.5h-510l29 196h495q-41 70 -129 70h-356l43 313h1044l-90 -196h-188z" />
    <glyph glyph-name="uni2116" unicode="&#x2116;" horiz-adv-x="2326" 
d="M1999 1438q170 0 267.5 -111.5t74.5 -277.5q-23 -167 -153 -279.5t-300 -112.5q-169 0 -267 112.5t-75 279.5q23 166 153 277.5t300 111.5zM1135 1413h352l-199 -1413h-352l-420 797l-110 -797h-353l199 1413h352l420 -797zM2056 1049q6 49 -21.5 81.5t-74.5 32.5
q-48 0 -85.5 -32.5t-43.5 -81.5q-7 -50 20.5 -82.5t75.5 -32.5q50 0 86 32t43 83zM1468 268l43 299h732l-43 -299h-732z" />
    <glyph glyph-name="trademark" unicode="&#x2122;" horiz-adv-x="1318" 
d="M602 1413l-24 -168h-144l-61 -444h-178l63 444h-145l24 168h465zM1151 1413h215l-86 -612h-174l49 346l-154 -264h-102l-80 268l-49 -350h-176l86 612h221l84 -289z" />
    <glyph glyph-name="uni2150" unicode="&#x2150;" horiz-adv-x="1824" 
d="M291 1126l-107 -57l-75 193l290 151h172l-118 -848h-242zM1292 1413h301l-1153 -1413h-301zM1239 848h582l-27 -189l-375 -659h-270l358 623h-301z" />
    <glyph glyph-name="uni2151" unicode="&#x2151;" horiz-adv-x="1761" 
d="M291 1126l-107 -57l-75 193l290 151h172l-118 -848h-242zM1292 1413h301l-1153 -1413h-301zM1452 862q150 0 227 -100t54 -262q-20 -136 -100.5 -249.5t-216.5 -185.5t-302 -79l-12 223q175 6 284 100q-43 -14 -86 -14q-107 0 -169.5 79.5t-47.5 192.5q19 127 124.5 211
t244.5 84zM1497 571q3 28 -18 47t-56 19t-62 -19t-32 -47q-3 -28 18.5 -45.5t57.5 -17.5q35 0 62 18.5t30 44.5z" />
    <glyph glyph-name="uni2152" unicode="&#x2152;" horiz-adv-x="2449" 
d="M291 1126l-107 -57l-75 193l290 151h172l-118 -848h-242zM1292 1413h301l-1153 -1413h-301zM2071 862q151 0 229.5 -122.5t50.5 -315.5q-26 -193 -139 -315.5t-264 -122.5q-150 0 -227.5 122t-51.5 316q28 194 139.5 316t262.5 122zM1143 696l291 152h172l-119 -848h-242
l80 561l-106 -57zM2103 424q14 91 -4 150t-59 59t-76.5 -58.5t-48.5 -150.5q-12 -92 6.5 -150.5t58.5 -58.5q42 0 76.5 59t46.5 150z" />
    <glyph glyph-name="uni2153" unicode="&#x2153;" horiz-adv-x="1769" 
d="M291 1126l-107 -57l-75 193l290 151h172l-118 -848h-242zM1292 1413h301l-1153 -1413h-301zM1726 621q-7 -55 -40 -102.5t-84 -78.5q106 -69 88 -200q-15 -113 -118.5 -183.5t-250.5 -70.5q-93 0 -176.5 31t-132.5 85l162 179q28 -29 73 -47.5t90 -18.5q47 0 77.5 16.5
t33.5 42.5q4 27 -22.5 44.5t-69.5 17.5h-117l31 205h114q39 0 64.5 11.5t28.5 31.5q3 21 -24.5 35t-70.5 14q-75 0 -145 -39l-102 174q58 43 142.5 68.5t166.5 25.5q141 0 219 -67t63 -174z" />
    <glyph glyph-name="uni2154" unicode="&#x2154;" horiz-adv-x="1888" 
d="M659 791l-32 -226h-574l27 197l289 260l10.5 10.5l13.5 13.5t13 13.5t14 16t12.5 16t12 16.5t8 15.5t4.5 15.5q1 23 -16 36t-46 13q-58 0 -139 -68l-139 156q58 69 145 110t182 41q132 0 203.5 -77t54.5 -197q-18 -131 -139 -238l-141 -124h237zM1411 1413h301
l-1153 -1413h-301zM1845 621q-16 -115 -125 -181q106 -69 88 -200q-15 -113 -118 -183.5t-250 -70.5q-93 0 -177 31t-133 85l162 179q28 -29 73 -47.5t91 -18.5q47 0 77.5 16.5t33.5 42.5q4 27 -22.5 44.5t-69.5 17.5h-117l31 205h114q39 0 64 11.5t28 31.5q3 22 -24 35.5
t-70 13.5q-75 0 -145 -39l-103 174q58 43 143 68.5t167 25.5q141 0 219 -67t63 -174z" />
    <glyph glyph-name="uni2155" unicode="&#x2155;" horiz-adv-x="1814" 
d="M291 1126l-107 -57l-75 193l290 151h172l-118 -848h-242zM1292 1413h301l-1153 -1413h-301zM1481 559q124 0 196.5 -80.5t57.5 -199.5q-17 -127 -124 -210t-257 -83q-165 0 -293 100l145 195q32 -31 76.5 -48.5t87.5 -17.5q51 0 82.5 21t36.5 51q4 26 -15 43.5t-53 17.5
q-42 0 -80 -33l-202 62l108 471h508l-33 -223h-303l-16 -78q30 12 78 12z" />
    <glyph glyph-name="uni2156" unicode="&#x2156;" horiz-adv-x="1933" 
d="M659 791l-32 -226h-574l27 197l289 260l10.5 10.5l13.5 13.5t13 13.5t14 16t12.5 16t12 16.5t8 15.5t4.5 15.5q1 23 -16 36t-46 13q-58 0 -139 -68l-139 156q58 69 145 110t182 41q132 0 203.5 -77t54.5 -197q-18 -131 -139 -238l-141 -124h237zM1411 1413h301
l-1153 -1413h-301zM1599 559q124 0 196.5 -80.5t57.5 -199.5q-17 -127 -123.5 -210t-256.5 -83q-165 0 -293 100l145 195q32 -31 76.5 -48.5t87.5 -17.5q51 0 82.5 21t36.5 51q4 26 -15 43.5t-53 17.5q-42 0 -80 -33l-203 62l109 471h508l-33 -223h-303l-16 -78q30 12 77 12
z" />
    <glyph glyph-name="uni2157" unicode="&#x2157;" horiz-adv-x="1912" 
d="M707 805q-15 -113 -118.5 -183.5t-250.5 -70.5q-92 0 -176 31t-133 86l161 178q28 -29 73 -47.5t91 -18.5q47 0 77.5 17t33.5 43q4 27 -22 44t-70 17h-117l31 205h114q39 0 64.5 11.5t28.5 31.5q3 21 -24.5 35t-70.5 14q-75 0 -145 -39l-102 174q58 43 142.5 68.5
t166.5 25.5q141 0 219 -67t63 -174q-7 -55 -40 -102t-85 -78q50 -33 74 -85t15 -116zM1391 1413h301l-1153 -1413h-301zM1579 559q124 0 196.5 -80.5t57.5 -199.5q-17 -127 -124 -210t-257 -83q-165 0 -293 100l146 195q32 -31 76 -48.5t87 -17.5q51 0 82.5 21t36.5 51
q5 26 -14 43.5t-53 17.5q-42 0 -80 -33l-203 62l109 471h507l-32 -223h-303l-17 -78q30 12 78 12z" />
    <glyph glyph-name="uni2158" unicode="&#x2158;" horiz-adv-x="1986" 
d="M403 565l19 133h-316l-26 195l416 520h266l-68 -489h68l-35 -226h-65l-19 -133h-240zM1464 1413h301l-1153 -1413h-301zM324 924h129l30 209zM1653 559q124 0 196.5 -80.5t57.5 -199.5q-17 -127 -124 -210t-257 -83q-165 0 -293 100l145 195q32 -31 76.5 -48.5
t87.5 -17.5q51 0 82.5 21t36.5 51q4 26 -15 43.5t-53 17.5q-42 0 -80 -33l-202 62l108 471h508l-33 -223h-303l-16 -78q30 12 78 12z" />
    <glyph glyph-name="uni2159" unicode="&#x2159;" horiz-adv-x="1669" 
d="M291 1126l-107 -57l-75 193l290 151h172l-118 -848h-242zM1292 1413h301l-1153 -1413h-301zM1395 553q107 0 170.5 -79.5t48.5 -192.5q-19 -127 -126 -211t-247 -84q-150 0 -226 100t-54 262q30 205 197 349t423 165l12 -223q-182 -11 -284 -100q43 14 86 14zM1364 276
q5 26 -17 45t-59 19q-33 0 -59 -18.5t-31 -45.5q-3 -28 18.5 -46.5t55.5 -18.5q35 0 62 18.5t30 46.5z" />
    <glyph glyph-name="uni215A" unicode="&#x215a;" horiz-adv-x="1773" 
d="M369 780q51 0 82 21t36 51q5 26 -14 43.5t-53 17.5q-43 0 -80 -32l-203 61l109 471h508l-33 -223h-303l-17 -78q30 12 78 12q124 0 196.5 -80.5t57.5 -199.5q-17 -127 -124 -210t-257 -83q-165 0 -293 100l146 195q32 -31 76.5 -48.5t87.5 -17.5zM1397 1413h301
l-1153 -1413h-301zM1499 553q107 0 170.5 -79.5t48.5 -192.5q-19 -127 -125.5 -211t-246.5 -84q-150 0 -226.5 100t-54.5 262q30 205 197.5 349t423.5 165l12 -223q-183 -12 -285 -100q43 14 86 14zM1468 276q5 27 -17 45.5t-58 18.5q-33 0 -59 -18.5t-31 -45.5
q-3 -28 18 -46.5t55 -18.5q35 0 62 18.5t30 46.5z" />
    <glyph glyph-name="oneeighth" unicode="&#x215b;" horiz-adv-x="1814" 
d="M291 1126l-107 -57l-75 193l290 151h172l-118 -848h-242zM1292 1413h301l-1153 -1413h-301zM1772 616q-15 -105 -119 -176q100 -74 82 -192q-15 -111 -122 -186.5t-251 -75.5q-143 0 -228.5 75t-70.5 187q18 120 137 192q-82 69 -67 176q15 104 115 175t237 71
t219.5 -71.5t67.5 -174.5zM1374 590q-3 -21 16.5 -35t49.5 -14q33 0 57 14t25 35q4 23 -15.5 37t-52.5 14q-30 0 -53.5 -14t-26.5 -37zM1495 272q3 25 -22 42.5t-62 17.5t-65 -17.5t-33 -42.5q-2 -25 21 -43t59 -18q39 0 69 18t33 43z" />
    <glyph glyph-name="threeeighths" unicode="&#x215c;" horiz-adv-x="1912" 
d="M707 805q-15 -113 -118.5 -183.5t-250.5 -70.5q-92 0 -176 31t-133 86l161 178q28 -29 73 -47.5t91 -18.5q47 0 77.5 17t33.5 43q4 27 -22 44t-70 17h-117l31 205h114q39 0 64.5 11.5t28.5 31.5q3 21 -24.5 35t-70.5 14q-75 0 -145 -39l-102 174q58 43 142.5 68.5
t166.5 25.5q141 0 219 -67t63 -174q-7 -55 -40 -102t-85 -78q50 -33 74 -85t15 -116zM1391 1413h301l-1153 -1413h-301zM1870 616q-15 -105 -119 -176q100 -74 82 -192q-15 -111 -122 -186.5t-251 -75.5q-143 0 -228.5 75t-70.5 187q18 120 137 192q-82 69 -67 176
q15 104 115 175t237 71t219.5 -71.5t67.5 -174.5zM1473 590q-3 -21 16 -35t49 -14q33 0 57 14t25 35q4 23 -15.5 37t-52.5 14q-30 0 -53 -14t-26 -37zM1593 272q3 25 -22 42.5t-62 17.5t-65 -17.5t-33 -42.5q-2 -25 21 -43t59 -18q39 0 69 18t33 43z" />
    <glyph glyph-name="fiveeighths" unicode="&#x215d;" horiz-adv-x="1918" 
d="M369 780q51 0 82 21t36 51q5 26 -14 43.5t-53 17.5q-43 0 -80 -32l-203 61l109 471h508l-33 -223h-303l-17 -78q30 12 78 12q124 0 196.5 -80.5t57.5 -199.5q-17 -127 -124 -210t-257 -83q-165 0 -293 100l146 195q32 -31 76.5 -48.5t87.5 -17.5zM1397 1413h301
l-1153 -1413h-301zM1876 616q-15 -105 -119 -176q100 -74 82 -192q-15 -111 -122 -186.5t-251 -75.5q-143 0 -228.5 75t-70.5 187q18 119 138 192q-83 70 -68 176q15 104 115 175t237 71t219.5 -71.5t67.5 -174.5zM1479 590q-3 -21 16 -35t49 -14q33 0 57 14t25 35
q4 23 -15 37t-52 14q-30 0 -53.5 -14t-26.5 -37zM1599 272q3 25 -21.5 42.5t-61.5 17.5t-65.5 -17.5t-33.5 -42.5q-2 -25 21 -43t59 -18q39 0 69 18t33 43z" />
    <glyph glyph-name="seveneighths" unicode="&#x215e;" horiz-adv-x="1751" 
d="M342 565h-270l358 623h-301l33 225h581l-26 -188zM1229 1413h301l-1153 -1413h-301zM1708 616q-15 -105 -119 -176q100 -74 82 -192q-15 -111 -122 -186.5t-251 -75.5q-143 0 -228.5 75t-70.5 187q18 119 138 192q-83 70 -68 176q15 104 115 175t237 71t219.5 -71.5
t67.5 -174.5zM1311 590q-3 -21 16 -35t49 -14q33 0 57 14t25 35q4 23 -15 37t-52 14q-30 0 -53.5 -14t-26.5 -37zM1432 272q3 25 -22 42.5t-62 17.5t-65.5 -17.5t-33.5 -42.5q-2 -25 21 -43t59 -18q40 0 70 18t33 43z" />
    <glyph glyph-name="uni215F" unicode="&#x215f;" horiz-adv-x="1052" 
d="M291 1126l-107 -57l-75 193l290 151h172l-118 -848h-242zM1292 1413h301l-1153 -1413h-301z" />
    <glyph glyph-name="uni2189" unicode="&#x2189;" horiz-adv-x="1931" 
d="M791 989q-26 -193 -139.5 -315.5t-264.5 -122.5q-150 0 -227 122t-51 316q28 194 139.5 316t261.5 122q151 0 230 -122.5t51 -315.5zM1454 1413h301l-1153 -1413h-301zM354 989q-12 -92 7 -150.5t59 -58.5q42 0 76.5 59t46.5 150q13 91 -5 150t-59 59t-76.5 -58.5
t-48.5 -150.5zM1888 621q-16 -115 -125 -181q106 -69 88 -200q-15 -113 -118 -183.5t-250 -70.5q-93 0 -176.5 31t-132.5 85l161 179q28 -29 73 -47.5t91 -18.5q47 0 77.5 16.5t33.5 42.5q4 27 -22.5 44.5t-69.5 17.5h-117l31 205h114q39 0 64 11.5t28 31.5q3 22 -24 35.5
t-70 13.5q-75 0 -145 -39l-103 174q58 43 143 68.5t167 25.5q141 0 219 -67t63 -174z" />
    <glyph glyph-name="arrowleft" unicode="&#x2190;" horiz-adv-x="1323" 
d="M1260 856l-43 -299h-566l129 -141l-227 -197l-416 486l555 487l170 -197l-166 -139h564z" />
    <glyph glyph-name="arrowup" unicode="&#x2191;" horiz-adv-x="1323" 
d="M1186 770l-225 -197l-121 148l-80 -565h-299l80 563l-160 -146l-170 197l557 487z" />
    <glyph glyph-name="arrowright" unicode="&#x2192;" horiz-adv-x="1323" 
d="M821 1192l418 -487l-557 -486l-168 197l168 141h-565l41 299h563l-125 139z" />
    <glyph glyph-name="arrowdown" unicode="&#x2193;" horiz-adv-x="1323" 
d="M997 840l170 -197l-555 -487l-419 487l225 197l119 -146l79 563h299l-79 -565z" />
    <glyph glyph-name="uni2196" unicode="&#x2196;" horiz-adv-x="1323" 
d="M1100 475l-242 -213l-344 400l-25 -203h-278l96 688l688 4l-39 -281l-198 4z" />
    <glyph glyph-name="uni2197" unicode="&#x2197;" horiz-adv-x="1323" 
d="M506 1151l686 -4l-96 -688h-279l35 205l-457 -400l-182 211l455 399l-203 -4z" />
    <glyph glyph-name="uni2198" unicode="&#x2198;" horiz-adv-x="1323" 
d="M887 954h278l-96 -688l-686 -4l39 281l199 -4l-342 399l241 213l344 -399z" />
    <glyph glyph-name="uni2199" unicode="&#x2199;" horiz-adv-x="1323" 
d="M1165 938l-454 -399l198 4l-37 -281l-688 4l97 688h278l-33 -202l455 399z" />
    <glyph glyph-name="minus" unicode="&#x2212;" horiz-adv-x="1093" 
d="M100 455l43 299h873l-43 -299h-873z" />
    <glyph glyph-name="approxequal" unicode="&#x2248;" horiz-adv-x="1226" 
d="M813 655q-67 0 -125.5 20.5t-100.5 41t-67 20.5q-33 0 -57.5 -21t-30.5 -54h-301q27 185 119.5 295t259.5 110q67 0 125.5 -20.5t100 -41t67.5 -20.5q34 0 57.5 21t28.5 53h303q-27 -184 -119.5 -294t-259.5 -110zM743 158q-67 0 -125.5 20.5t-100 41t-66.5 20.5
q-34 0 -58.5 -21t-30.5 -53h-301q13 89 40.5 160t72.5 126.5t112.5 86t153.5 30.5q67 0 125.5 -20.5t100 -41t67.5 -20.5q33 0 57 21.5t29 54.5h303q-12 -89 -39.5 -160.5t-72.5 -127.5t-113 -86.5t-154 -30.5z" />
    <glyph glyph-name="notequal" unicode="&#x2260;" horiz-adv-x="1093" 
d="M1004 674h-263l-75 -135h319l-41 -299h-444l-72 -127h-289l72 127h-139l43 299h262l76 135h-320l41 299h447l67 123h289l-68 -123h138z" />
    <glyph glyph-name="lessequal" unicode="&#x2264;" horiz-adv-x="950" 
d="M944 1260l-47 -330l-401 -107l370 -106l-45 -330l-692 268l49 336zM41 23l43 299h727l-43 -299h-727z" />
    <glyph glyph-name="greaterequal" unicode="&#x2265;" horiz-adv-x="950" 
d="M215 1260l690 -269l-47 -336l-766 -268l47 330l400 106l-371 107zM41 23l43 299h727l-43 -299h-727z" />
    <glyph glyph-name="uni279D" unicode="&#x279d;" horiz-adv-x="2215" 
d="M2095 707l-510 -447l43 297h-1476l43 299h1474l43 297z" />
    <glyph glyph-name="uni27F5" unicode="&#x27f5;" horiz-adv-x="2215" 
d="M2116 856l-43 -299h-1385l129 -141l-227 -197l-416 486l555 487l170 -197l-166 -139h1383z" />
    <glyph glyph-name="uni27F6" unicode="&#x27f6;" horiz-adv-x="2215" 
d="M1677 1192l418 -487l-557 -486l-168 197l168 141h-1386l43 299h1382l-125 139z" />
    <glyph glyph-name="G.ss05" horiz-adv-x="1607" 
d="M866 825h695l-117 -825h-305l18 135q-187 -160 -434 -160q-156 0 -286 56.5t-214 153.5t-121.5 232.5t-15.5 289.5q28 205 149 372.5t306 263t395 95.5q182 0 327 -70t222 -194l-295 -213q-47 66 -123 103.5t-170 37.5q-169 0 -298.5 -113t-152.5 -282t73.5 -282.5
t264.5 -113.5q113 0 210 54.5t155 146.5h-326z" />
    <glyph glyph-name="uni01F4.ss05" horiz-adv-x="1607" 
d="M1419 1825l-313 -314h-346l246 314h413zM866 825h695l-117 -825h-305l18 135q-187 -160 -434 -160q-156 0 -286 56.5t-214 153.5t-121.5 232.5t-15.5 289.5q28 205 149 372.5t306 263t395 95.5q182 0 327 -70t222 -194l-295 -213q-47 66 -123 103.5t-170 37.5
q-169 0 -298.5 -113t-152.5 -282t73.5 -282.5t264.5 -113.5q113 0 210 54.5t155 146.5h-326z" />
    <glyph glyph-name="Gbreve.ss05" horiz-adv-x="1607" 
d="M946 1491q-152 0 -239.5 95.5t-65.5 238.5h254q-6 -43 17.5 -71t64.5 -28q42 0 74.5 28.5t38.5 70.5h256q-22 -143 -136 -238.5t-264 -95.5zM866 825h695l-117 -825h-305l18 135q-187 -160 -434 -160q-156 0 -286 56.5t-214 153.5t-121.5 232.5t-15.5 289.5
q28 205 149 372.5t306 263t395 95.5q182 0 327 -70t222 -194l-295 -213q-47 66 -123 103.5t-170 37.5q-169 0 -298.5 -113t-152.5 -282t73.5 -282.5t264.5 -113.5q113 0 210 54.5t155 146.5h-326z" />
    <glyph glyph-name="Gcaron.ss05" horiz-adv-x="1607" 
d="M1147 1511h-399l-158 314h309l74 -133l108 133h312zM866 825h695l-117 -825h-305l18 135q-187 -160 -434 -160q-156 0 -286 56.5t-214 153.5t-121.5 232.5t-15.5 289.5q28 205 149 372.5t306 263t395 95.5q182 0 327 -70t222 -194l-295 -213q-47 66 -123 103.5t-170 37.5
q-169 0 -298.5 -113t-152.5 -282t73.5 -282.5t264.5 -113.5q113 0 210 54.5t155 146.5h-326z" />
    <glyph glyph-name="Gcircumflex.ss05" horiz-adv-x="1607" 
d="M967 1647l-111 -136h-309l244 314h399l158 -314h-310zM866 825h695l-117 -825h-305l18 135q-187 -160 -434 -160q-156 0 -286 56.5t-214 153.5t-121.5 232.5t-15.5 289.5q28 205 149 372.5t306 263t395 95.5q182 0 327 -70t222 -194l-295 -213q-47 66 -123 103.5
t-170 37.5q-169 0 -298.5 -113t-152.5 -282t73.5 -282.5t264.5 -113.5q113 0 210 54.5t155 146.5h-326z" />
    <glyph glyph-name="uni0122.ss05" horiz-adv-x="1607" 
d="M866 825h695l-117 -825h-305l18 135q-187 -160 -434 -160q-156 0 -286 56.5t-214 153.5t-121.5 232.5t-15.5 289.5q28 205 149 372.5t306 263t395 95.5q182 0 327 -70t222 -194l-295 -213q-47 66 -123 103.5t-170 37.5q-169 0 -298.5 -113t-152.5 -282t73.5 -282.5
t264.5 -113.5q113 0 210 54.5t155 146.5h-326zM438 -471l146 373h340l-211 -373h-275z" />
    <glyph glyph-name="Gdotaccent.ss05" horiz-adv-x="1607" 
d="M944 1499q-82 0 -129 54t-35 135q10 81 72.5 134.5t144.5 53.5t128 -53t36 -135q-10 -81 -72.5 -135t-144.5 -54zM866 825h695l-117 -825h-305l18 135q-187 -160 -434 -160q-156 0 -286 56.5t-214 153.5t-121.5 232.5t-15.5 289.5q28 205 149 372.5t306 263t395 95.5
q182 0 327 -70t222 -194l-295 -213q-47 66 -123 103.5t-170 37.5q-169 0 -298.5 -113t-152.5 -282t73.5 -282.5t264.5 -113.5q113 0 210 54.5t155 146.5h-326z" />
    <glyph glyph-name="i.loclTRK" horiz-adv-x="555" 
d="M362 1130q-82 0 -128.5 53.5t-34.5 135.5q10 81 72.5 134.5t144.5 53.5t128 -53t36 -135q-10 -81 -73 -135t-145 -54zM37 0l147 1044h332l-147 -1044h-332z" />
    <glyph glyph-name="a.ss01" horiz-adv-x="1116" 
d="M606 1069q218 0 340.5 -115.5t95.5 -306.5l-90 -647h-303l10 70q-123 -95 -288 -95q-173 0 -275 95t-82 239t148 239t295 95q146 0 241 -76l7 45q12 78 -37 124t-146 46q-129 0 -239 -82l-136 205q90 77 210 120.5t249 43.5zM492 211q66 0 116 28.5t56 69.5
q6 42 -36.5 70.5t-109.5 28.5q-64 0 -110 -28t-54 -71q-6 -42 33.5 -70t104.5 -28z" />
    <glyph glyph-name="aacute.ss01" horiz-adv-x="1116" 
d="M1116 1456l-313 -313h-346l245 313h414zM606 1069q218 0 340.5 -115.5t95.5 -306.5l-90 -647h-303l10 70q-123 -95 -288 -95q-173 0 -275 95t-82 239t148 239t295 95q146 0 241 -76l7 45q12 78 -37 124t-146 46q-129 0 -239 -82l-136 205q90 77 210 120.5t249 43.5z
M492 211q66 0 116 28.5t56 69.5q6 42 -36.5 70.5t-109.5 28.5q-64 0 -110 -28t-54 -71q-6 -42 33.5 -70t104.5 -28z" />
    <glyph glyph-name="abreve.ss01" horiz-adv-x="1116" 
d="M643 1122q-152 0 -239.5 95.5t-65.5 238.5h254q-6 -43 17.5 -70.5t64.5 -27.5q42 0 74 28t38 70h256q-22 -143 -135.5 -238.5t-263.5 -95.5zM606 1069q218 0 340.5 -115.5t95.5 -306.5l-90 -647h-303l10 70q-123 -95 -288 -95q-173 0 -275 95t-82 239t148 239t295 95
q146 0 241 -76l7 45q12 78 -37 124t-146 46q-129 0 -239 -82l-136 205q90 77 210 120.5t249 43.5zM492 211q66 0 116 28.5t56 69.5q6 42 -36.5 70.5t-109.5 28.5q-64 0 -110 -28t-54 -71q-6 -42 33.5 -70t104.5 -28z" />
    <glyph glyph-name="uni01CE.ss01" horiz-adv-x="1116" 
d="M844 1143h-400l-157 313h309l74 -133l108 133h312zM606 1069q218 0 340.5 -115.5t95.5 -306.5l-90 -647h-303l10 70q-123 -95 -288 -95q-173 0 -275 95t-82 239t148 239t295 95q146 0 241 -76l7 45q12 78 -37 124t-146 46q-129 0 -239 -82l-136 205q90 77 210 120.5
t249 43.5zM492 211q66 0 116 28.5t56 69.5q6 42 -36.5 70.5t-109.5 28.5q-64 0 -110 -28t-54 -71q-6 -42 33.5 -70t104.5 -28z" />
    <glyph glyph-name="acircumflex.ss01" horiz-adv-x="1116" 
d="M664 1278l-111 -135h-309l243 313h400l157 -313h-309zM606 1069q218 0 340.5 -115.5t95.5 -306.5l-90 -647h-303l10 70q-123 -95 -288 -95q-173 0 -275 95t-82 239t148 239t295 95q146 0 241 -76l7 45q12 78 -37 124t-146 46q-129 0 -239 -82l-136 205q90 77 210 120.5
t249 43.5zM492 211q66 0 116 28.5t56 69.5q6 42 -36.5 70.5t-109.5 28.5q-64 0 -110 -28t-54 -71q-6 -42 33.5 -70t104.5 -28z" />
    <glyph glyph-name="uni0201.ss01" horiz-adv-x="1116" 
d="M575 1143h-319l-174 313h358zM1049 1143h-320l-174 313h358zM606 1069q218 0 340.5 -115.5t95.5 -306.5l-90 -647h-303l10 70q-123 -95 -288 -95q-173 0 -275 95t-82 239t148 239t295 95q146 0 241 -76l7 45q12 78 -37 124t-146 46q-129 0 -239 -82l-136 205
q90 77 210 120.5t249 43.5zM492 211q66 0 116 28.5t56 69.5q6 42 -36.5 70.5t-109.5 28.5q-64 0 -110 -28t-54 -71q-6 -42 33.5 -70t104.5 -28z" />
    <glyph glyph-name="adieresis.ss01" horiz-adv-x="1116" 
d="M416 1130q-78 0 -123.5 52t-34.5 129q10 76 70 128t137 52q78 0 122.5 -51.5t33.5 -128.5q-9 -76 -68.5 -128.5t-136.5 -52.5zM922 1491q76 0 121 -51.5t34 -128.5q-10 -76 -70 -128.5t-137 -52.5q-76 0 -121 52t-36 129q10 76 70.5 128t138.5 52zM606 1069
q218 0 340.5 -115.5t95.5 -306.5l-90 -647h-303l10 70q-123 -95 -288 -95q-173 0 -275 95t-82 239t148 239t295 95q146 0 241 -76l7 45q12 78 -37 124t-146 46q-129 0 -239 -82l-136 205q90 77 210 120.5t249 43.5zM492 211q66 0 116 28.5t56 69.5q6 42 -36.5 70.5
t-109.5 28.5q-64 0 -110 -28t-54 -71q-6 -42 33.5 -70t104.5 -28z" />
    <glyph glyph-name="uni1EA1.ss01" horiz-adv-x="1116" 
d="M606 1069q218 0 340.5 -115.5t95.5 -306.5l-90 -647h-303l10 70q-123 -95 -288 -95q-173 0 -275 95t-82 239t148 239t295 95q146 0 241 -76l7 45q12 78 -37 124t-146 46q-129 0 -239 -82l-136 205q90 77 210 120.5t249 43.5zM492 211q66 0 116 28.5t56 69.5
q6 42 -36.5 70.5t-109.5 28.5q-64 0 -110 -28t-54 -71q-6 -42 33.5 -70t104.5 -28zM471 -86q82 0 129 -53.5t35 -134.5q-10 -81 -72.5 -135t-142.5 -54q-82 0 -129 53.5t-37 135.5q12 82 73.5 135t143.5 53z" />
    <glyph glyph-name="agrave.ss01" horiz-adv-x="1116" 
d="M831 1143h-348l-225 313h414zM606 1069q218 0 340.5 -115.5t95.5 -306.5l-90 -647h-303l10 70q-123 -95 -288 -95q-173 0 -275 95t-82 239t148 239t295 95q146 0 241 -76l7 45q12 78 -37 124t-146 46q-129 0 -239 -82l-136 205q90 77 210 120.5t249 43.5zM492 211
q66 0 116 28.5t56 69.5q6 42 -36.5 70.5t-109.5 28.5q-64 0 -110 -28t-54 -71q-6 -42 33.5 -70t104.5 -28z" />
    <glyph glyph-name="uni0203.ss01" horiz-adv-x="1116" 
d="M657 1241q-41 0 -72.5 -28.5t-37.5 -71.5h-256q22 143 135.5 238.5t263.5 95.5q152 0 239.5 -95.5t65.5 -238.5h-254q6 43 -18.5 71.5t-65.5 28.5zM606 1069q218 0 340.5 -115.5t95.5 -306.5l-90 -647h-303l10 70q-123 -95 -288 -95q-173 0 -275 95t-82 239t148 239
t295 95q146 0 241 -76l7 45q12 78 -37 124t-146 46q-129 0 -239 -82l-136 205q90 77 210 120.5t249 43.5zM492 211q66 0 116 28.5t56 69.5q6 42 -36.5 70.5t-109.5 28.5q-64 0 -110 -28t-54 -71q-6 -42 33.5 -70t104.5 -28z" />
    <glyph glyph-name="amacron.ss01" horiz-adv-x="1116" 
d="M975 1436l-39 -277h-580l39 277h580zM606 1069q218 0 340.5 -115.5t95.5 -306.5l-90 -647h-303l10 70q-123 -95 -288 -95q-173 0 -275 95t-82 239t148 239t295 95q146 0 241 -76l7 45q12 78 -37 124t-146 46q-129 0 -239 -82l-136 205q90 77 210 120.5t249 43.5zM492 211
q66 0 116 28.5t56 69.5q6 42 -36.5 70.5t-109.5 28.5q-64 0 -110 -28t-54 -71q-6 -42 33.5 -70t104.5 -28z" />
    <glyph glyph-name="aogonek.ss01" horiz-adv-x="1116" 
d="M606 1069q218 0 340.5 -115.5t95.5 -306.5l-90 -647h-12q-228 -92 -242 -197q-6 -38 18 -58.5t60 -20.5q53 0 101 28l45 -203q-101 -61 -234 -61q-131 0 -203.5 68.5t-58.5 173.5q13 87 80.5 159.5t165.5 110.5h-23l10 70q-123 -95 -288 -95q-173 0 -275 95t-82 239
t148 239t295 95q146 0 241 -76l7 45q12 78 -37 124t-146 46q-129 0 -239 -82l-136 205q90 77 210 120.5t249 43.5zM492 211q66 0 116 28.5t56 69.5q6 42 -36.5 70.5t-109.5 28.5q-64 0 -110 -28t-54 -71q-6 -42 33.5 -70t104.5 -28z" />
    <glyph glyph-name="aring.ss01" horiz-adv-x="1116" 
d="M641 1122q-99 0 -156.5 65t-44.5 161q12 95 88.5 160t176.5 65q98 0 156 -65t44 -160q-12 -96 -88 -161t-176 -65zM610 1348q-3 -28 12.5 -46t41.5 -18t46.5 18t24.5 46q3 28 -12 45.5t-41 17.5q-27 0 -48 -18t-24 -45zM606 1069q218 0 340.5 -115.5t95.5 -306.5
l-90 -647h-303l10 70q-123 -95 -288 -95q-173 0 -275 95t-82 239t148 239t295 95q146 0 241 -76l7 45q12 78 -37 124t-146 46q-129 0 -239 -82l-136 205q90 77 210 120.5t249 43.5zM492 211q66 0 116 28.5t56 69.5q6 42 -36.5 70.5t-109.5 28.5q-64 0 -110 -28t-54 -71
q-6 -42 33.5 -70t104.5 -28z" />
    <glyph glyph-name="atilde.ss01" horiz-adv-x="1116" 
d="M567 1221q-29 0 -48.5 -18.5t-22.5 -45.5h-232q20 143 97 234.5t198 91.5q49 0 89.5 -17t70 -34t51.5 -17q27 0 47 18.5t23 45.5h231q-20 -144 -96.5 -234t-198.5 -90q-50 0 -90 16.5t-69 33t-50 16.5zM606 1069q218 0 340.5 -115.5t95.5 -306.5l-90 -647h-303l10 70
q-123 -95 -288 -95q-173 0 -275 95t-82 239t148 239t295 95q146 0 241 -76l7 45q12 78 -37 124t-146 46q-129 0 -239 -82l-136 205q90 77 210 120.5t249 43.5zM492 211q66 0 116 28.5t56 69.5q6 42 -36.5 70.5t-109.5 28.5q-64 0 -110 -28t-54 -71q-6 -42 33.5 -70
t104.5 -28z" />
    <glyph glyph-name="g.ss02" 
d="M920 1044h331l-131 -931q-34 -238 -211.5 -382.5t-439.5 -144.5q-143 0 -259.5 45t-195.5 125l197 230q109 -97 272 -97q127 0 208.5 61t96.5 165l5 24q-139 -102 -306 -102q-215 0 -337 147.5t-91 368.5q31 220 195.5 368t378.5 148q169 0 276 -104zM596 336
q96 0 168 62t86 155q12 92 -43 153.5t-150 61.5q-97 0 -170.5 -61.5t-85.5 -153.5q-14 -92 42 -154.5t153 -62.5z" />
    <glyph glyph-name="uni01F5.ss02" 
d="M1202 1456l-313 -313h-346l245 313h414zM920 1044h331l-131 -931q-34 -238 -211.5 -382.5t-439.5 -144.5q-143 0 -259.5 45t-195.5 125l197 230q109 -97 272 -97q127 0 208.5 61t96.5 165l5 24q-139 -102 -306 -102q-215 0 -337 147.5t-91 368.5q31 220 195.5 368
t378.5 148q169 0 276 -104zM596 336q96 0 168 62t86 155q12 92 -43 153.5t-150 61.5q-97 0 -170.5 -61.5t-85.5 -153.5q-14 -92 42 -154.5t153 -62.5z" />
    <glyph glyph-name="gbreve.ss02" 
d="M729 1122q-152 0 -239.5 95.5t-65.5 238.5h254q-6 -43 17.5 -70.5t64.5 -27.5q42 0 74 28t38 70h256q-22 -143 -135.5 -238.5t-263.5 -95.5zM920 1044h331l-131 -931q-34 -238 -211.5 -382.5t-439.5 -144.5q-143 0 -259.5 45t-195.5 125l197 230q109 -97 272 -97
q127 0 208.5 61t96.5 165l5 24q-139 -102 -306 -102q-215 0 -337 147.5t-91 368.5q31 220 195.5 368t378.5 148q169 0 276 -104zM596 336q96 0 168 62t86 155q12 92 -43 153.5t-150 61.5q-97 0 -170.5 -61.5t-85.5 -153.5q-14 -92 42 -154.5t153 -62.5z" />
    <glyph glyph-name="gcaron.ss02" 
d="M930 1143h-400l-157 313h309l74 -133l108 133h312zM920 1044h331l-131 -931q-34 -238 -211.5 -382.5t-439.5 -144.5q-143 0 -259.5 45t-195.5 125l197 230q109 -97 272 -97q127 0 208.5 61t96.5 165l5 24q-139 -102 -306 -102q-215 0 -337 147.5t-91 368.5
q31 220 195.5 368t378.5 148q169 0 276 -104zM596 336q96 0 168 62t86 155q12 92 -43 153.5t-150 61.5q-97 0 -170.5 -61.5t-85.5 -153.5q-14 -92 42 -154.5t153 -62.5z" />
    <glyph glyph-name="gcircumflex.ss02" 
d="M750 1278l-111 -135h-309l243 313h400l157 -313h-309zM920 1044h331l-131 -931q-34 -238 -211.5 -382.5t-439.5 -144.5q-143 0 -259.5 45t-195.5 125l197 230q109 -97 272 -97q127 0 208.5 61t96.5 165l5 24q-139 -102 -306 -102q-215 0 -337 147.5t-91 368.5
q31 220 195.5 368t378.5 148q169 0 276 -104zM596 336q96 0 168 62t86 155q12 92 -43 153.5t-150 61.5q-97 0 -170.5 -61.5t-85.5 -153.5q-14 -92 42 -154.5t153 -62.5z" />
    <glyph glyph-name="uni0123.ss02" 
d="M997 1513l-145 -372h-340l213 372h272zM920 1044h331l-131 -931q-34 -238 -211.5 -382.5t-439.5 -144.5q-143 0 -259.5 45t-195.5 125l197 230q109 -97 272 -97q127 0 208.5 61t96.5 165l5 24q-139 -102 -306 -102q-215 0 -337 147.5t-91 368.5q31 220 195.5 368
t378.5 148q169 0 276 -104zM596 336q96 0 168 62t86 155q12 92 -43 153.5t-150 61.5q-97 0 -170.5 -61.5t-85.5 -153.5q-14 -92 42 -154.5t153 -62.5z" />
    <glyph glyph-name="gdotaccent.ss02" 
d="M729 1130q-82 0 -129 54t-35 135q10 81 72.5 134.5t144.5 53.5t128 -53t36 -135q-10 -81 -72.5 -135t-144.5 -54zM920 1044h331l-131 -931q-34 -238 -211.5 -382.5t-439.5 -144.5q-143 0 -259.5 45t-195.5 125l197 230q109 -97 272 -97q127 0 208.5 61t96.5 165l5 24
q-139 -102 -306 -102q-215 0 -337 147.5t-91 368.5q31 220 195.5 368t378.5 148q169 0 276 -104zM596 336q96 0 168 62t86 155q12 92 -43 153.5t-150 61.5q-97 0 -170.5 -61.5t-85.5 -153.5q-14 -92 42 -154.5t153 -62.5z" />
    <glyph glyph-name="u.ss03" horiz-adv-x="1208" 
d="M838 1044h331l-147 -1044h-332l12 84q-133 -109 -305 -109q-173 0 -262.5 104.5t-66.5 276.5l98 688h332l-82 -577q-11 -77 27 -123.5t114 -46.5q72 0 126 41.5t71 110.5z" />
    <glyph glyph-name="uacute.ss03" horiz-adv-x="1208" 
d="M1153 1456l-313 -313h-346l245 313h414zM838 1044h331l-147 -1044h-332l12 84q-133 -109 -305 -109q-173 0 -262.5 104.5t-66.5 276.5l98 688h332l-82 -577q-11 -77 27 -123.5t114 -46.5q72 0 126 41.5t71 110.5z" />
    <glyph glyph-name="ubreve.ss03" horiz-adv-x="1208" 
d="M680 1122q-152 0 -239.5 95.5t-65.5 238.5h254q-6 -43 17.5 -70.5t64.5 -27.5q42 0 74 28t38 70h256q-22 -143 -135.5 -238.5t-263.5 -95.5zM838 1044h331l-147 -1044h-332l12 84q-133 -109 -305 -109q-173 0 -262.5 104.5t-66.5 276.5l98 688h332l-82 -577
q-11 -77 27 -123.5t114 -46.5q72 0 126 41.5t71 110.5z" />
    <glyph glyph-name="ucircumflex.ss03" horiz-adv-x="1208" 
d="M700 1278l-110 -135h-309l243 313h400l157 -313h-309zM838 1044h331l-147 -1044h-332l12 84q-133 -109 -305 -109q-173 0 -262.5 104.5t-66.5 276.5l98 688h332l-82 -577q-11 -77 27 -123.5t114 -46.5q72 0 126 41.5t71 110.5z" />
    <glyph glyph-name="uni0215.ss03" horiz-adv-x="1208" 
d="M612 1143h-319l-174 313h358zM1085 1143h-319l-174 313h358zM838 1044h331l-147 -1044h-332l12 84q-133 -109 -305 -109q-173 0 -262.5 104.5t-66.5 276.5l98 688h332l-82 -577q-11 -77 27 -123.5t114 -46.5q72 0 126 41.5t71 110.5z" />
    <glyph glyph-name="udieresis.ss03" horiz-adv-x="1208" 
d="M453 1130q-78 0 -123.5 52t-34.5 129q10 76 70 128t137 52q78 0 122 -51.5t33 -128.5q-9 -76 -68 -128.5t-136 -52.5zM907 1130q-76 0 -121 52t-36 129q11 77 70.5 128.5t137.5 51.5q77 0 121.5 -52t34.5 -128t-70 -128.5t-137 -52.5zM838 1044h331l-147 -1044h-332
l12 84q-133 -109 -305 -109q-173 0 -262.5 104.5t-66.5 276.5l98 688h332l-82 -577q-11 -77 27 -123.5t114 -46.5q72 0 126 41.5t71 110.5z" />
    <glyph glyph-name="uni1EE5.ss03" horiz-adv-x="1208" 
d="M838 1044h331l-147 -1044h-332l12 84q-133 -109 -305 -109q-173 0 -262.5 104.5t-66.5 276.5l98 688h332l-82 -577q-11 -77 27 -123.5t114 -46.5q72 0 126 41.5t71 110.5zM508 -86q82 0 129 -53.5t35 -134.5q-10 -81 -72.5 -135t-142.5 -54q-82 0 -129 53.5t-37 135.5
q12 82 73.5 135t143.5 53z" />
    <glyph glyph-name="ugrave.ss03" horiz-adv-x="1208" 
d="M870 1143h-348l-225 313h414zM838 1044h331l-147 -1044h-332l12 84q-133 -109 -305 -109q-173 0 -262.5 104.5t-66.5 276.5l98 688h332l-82 -577q-11 -77 27 -123.5t114 -46.5q72 0 126 41.5t71 110.5z" />
    <glyph glyph-name="uhungarumlaut.ss03" horiz-adv-x="1208" 
d="M856 1456l-260 -313h-320l222 313h358zM1069 1143h-319l221 313h358zM754 449l84 595h331l-147 -1044h-332l12 84q-133 -109 -305 -109q-173 0 -262.5 104.5t-66.5 276.5l98 688h332l-82 -577q-11 -77 27 -123.5t114 -46.5q72 0 126 41.5t71 110.5z" />
    <glyph glyph-name="uni0217.ss03" horiz-adv-x="1208" 
d="M694 1241q-41 0 -72.5 -28.5t-37.5 -71.5h-256q22 143 135.5 238.5t263.5 95.5q152 0 239.5 -95.5t65.5 -238.5h-254q6 43 -18.5 71.5t-65.5 28.5zM838 1044h331l-147 -1044h-332l12 84q-133 -109 -305 -109q-173 0 -262.5 104.5t-66.5 276.5l98 688h332l-82 -577
q-11 -77 27 -123.5t114 -46.5q72 0 126 41.5t71 110.5z" />
    <glyph glyph-name="umacron.ss03" horiz-adv-x="1208" 
d="M1014 1436l-39 -277h-580l39 277h580zM838 1044h331l-147 -1044h-332l12 84q-133 -109 -305 -109q-173 0 -262.5 104.5t-66.5 276.5l98 688h332l-82 -577q-11 -77 27 -123.5t114 -46.5q72 0 126 41.5t71 110.5z" />
    <glyph glyph-name="uogonek.ss03" horiz-adv-x="1208" 
d="M838 1044h331l-147 -1044h-2q-228 -92 -242 -197q-6 -38 18 -58.5t60 -20.5q52 0 100 28l45 -203q-101 -61 -233 -61q-131 0 -203.5 68.5t-58.5 173.5q13 87 80.5 159.5t165.5 110.5h-62l12 84q-133 -109 -305 -109q-173 0 -262.5 104.5t-66.5 276.5l98 688h332l-82 -577
q-11 -77 27 -123.5t114 -46.5q72 0 126 41.5t71 110.5z" />
    <glyph glyph-name="uring.ss03" horiz-adv-x="1208" 
d="M678 1122q-99 0 -156.5 65t-44.5 161q12 95 88 160t176 65q98 0 156 -65t45 -160q-12 -96 -88 -161t-176 -65zM647 1348q-3 -28 12 -46t41 -18t47 18t25 46q3 28 -12 45.5t-41 17.5q-27 0 -48 -18t-24 -45zM838 1044h331l-147 -1044h-332l12 84q-133 -109 -305 -109
q-173 0 -262.5 104.5t-66.5 276.5l98 688h332l-82 -577q-11 -77 27 -123.5t114 -46.5q72 0 126 41.5t71 110.5z" />
    <glyph glyph-name="utilde.ss03" horiz-adv-x="1208" 
d="M604 1221q-29 0 -49 -18.5t-23 -45.5h-231q20 143 97 234.5t198 91.5q49 0 89.5 -17t70 -34t51.5 -17q27 0 47 18.5t23 45.5h231q-20 -144 -96.5 -234t-198.5 -90q-50 0 -90 16.5t-69 33t-50 16.5zM838 1044h331l-147 -1044h-332l12 84q-133 -109 -305 -109
q-173 0 -262.5 104.5t-66.5 276.5l98 688h332l-82 -577q-11 -77 27 -123.5t114 -46.5q72 0 126 41.5t71 110.5z" />
    <glyph glyph-name="w.ss04" horiz-adv-x="1757" 
d="M1407 1044h332l-92 -649q-26 -190 -165.5 -305t-342.5 -115q-219 0 -320 134q-140 -134 -356 -134q-203 0 -309 115t-78 305l90 649h332l-86 -604q-9 -64 25.5 -103.5t99.5 -39.5t109.5 39.5t53.5 103.5l86 604h332l-86 -604q-9 -64 25.5 -103.5t99.5 -39.5t110 39.5
t54 103.5z" />
    <glyph glyph-name="wacute.ss04" horiz-adv-x="1757" 
d="M1438 1456l-314 -313h-346l246 313h414zM1407 1044h332l-92 -649q-26 -190 -165.5 -305t-342.5 -115q-219 0 -320 134q-140 -134 -356 -134q-203 0 -309 115t-78 305l90 649h332l-86 -604q-9 -64 25.5 -103.5t99.5 -39.5t109.5 39.5t53.5 103.5l86 604h332l-86 -604
q-9 -64 25.5 -103.5t99.5 -39.5t110 39.5t54 103.5z" />
    <glyph glyph-name="wcircumflex.ss04" horiz-adv-x="1757" 
d="M985 1278l-111 -135h-309l244 313h399l158 -313h-309zM1407 1044h332l-92 -649q-26 -190 -165.5 -305t-342.5 -115q-219 0 -320 134q-140 -134 -356 -134q-203 0 -309 115t-78 305l90 649h332l-86 -604q-9 -64 25.5 -103.5t99.5 -39.5t109.5 39.5t53.5 103.5l86 604h332
l-86 -604q-9 -64 25.5 -103.5t99.5 -39.5t110 39.5t54 103.5z" />
    <glyph glyph-name="wdieresis.ss04" horiz-adv-x="1757" 
d="M737 1130q-78 0 -123 52t-34 129q10 76 69.5 128t136.5 52q78 0 122.5 -51.5t33.5 -128.5q-9 -76 -68.5 -128.5t-136.5 -52.5zM1192 1130q-76 0 -121.5 52t-36.5 129q10 76 70.5 128t138.5 52q77 0 121.5 -52t34.5 -128t-70 -128.5t-137 -52.5zM1407 1044h332l-92 -649
q-26 -190 -165.5 -305t-342.5 -115q-219 0 -320 134q-140 -134 -356 -134q-203 0 -309 115t-78 305l90 649h332l-86 -604q-9 -64 25.5 -103.5t99.5 -39.5t109.5 39.5t53.5 103.5l86 604h332l-86 -604q-9 -64 25.5 -103.5t99.5 -39.5t110 39.5t54 103.5z" />
    <glyph glyph-name="wgrave.ss04" horiz-adv-x="1757" 
d="M1153 1143h-348l-225 313h413zM1407 1044h332l-92 -649q-26 -190 -165.5 -305t-342.5 -115q-219 0 -320 134q-140 -134 -356 -134q-203 0 -309 115t-78 305l90 649h332l-86 -604q-9 -64 25.5 -103.5t99.5 -39.5t109.5 39.5t53.5 103.5l86 604h332l-86 -604
q-9 -64 25.5 -103.5t99.5 -39.5t110 39.5t54 103.5z" />
    <glyph glyph-name="zero.subs" horiz-adv-x="808" 
d="M274 -248q-150 0 -227 122t-51 316q28 194 139.5 316.5t261.5 122.5q151 0 230 -123t51 -316q-26 -193 -139.5 -315.5t-264.5 -122.5zM307 -18q42 0 76.5 58.5t46.5 149.5q14 91 -4 150t-59 59t-76.5 -58.5t-48.5 -150.5q-12 -92 6.5 -150t58.5 -58z" />
    <glyph glyph-name="one.subs" horiz-adv-x="526" 
d="M287 614h172l-119 -847h-242l80 561l-106 -58l-76 193z" />
    <glyph glyph-name="two.subs" horiz-adv-x="665" 
d="M590 354q-18 -130 -139 -237l-142 -125h238l-33 -225h-573l26 196l289 260l10.5 10.5l13.5 13.5t13 13.5t14 16t12.5 16t12 16.5t8 15.5t4.5 15.5q1 23 -16 36t-45 13q-60 0 -140 -67l-139 155q58 69 145.5 110.5t182.5 41.5q132 0 203.5 -77.5t54.5 -197.5z" />
    <glyph glyph-name="three.subs" horiz-adv-x="706" 
d="M631 387q-7 -55 -40 -102t-85 -78q50 -33 73.5 -85t14.5 -116q-15 -113 -118.5 -183.5t-250.5 -70.5q-92 0 -176 31t-133 86l162 178q28 -29 73 -47t91 -18q47 0 77 16.5t33 42.5q4 27 -22 44t-70 17h-117l31 205h115q39 0 64 11.5t28 31.5q3 22 -24 35.5t-70 13.5
q-76 0 -146 -39l-102 175q58 43 142.5 68.5t166.5 25.5q141 0 219.5 -67.5t63.5 -174.5z" />
    <glyph glyph-name="four.subs" horiz-adv-x="763" 
d="M649 614l-67 -489h67l-35 -225h-65l-19 -133h-239l18 133h-315l-27 194l416 520h266zM211 125h129l31 209z" />
    <glyph glyph-name="five.subs" horiz-adv-x="733" 
d="M367 326q124 0 196.5 -81t57.5 -200q-17 -127 -124 -210t-257 -83q-164 0 -293 101l145 194q32 -30 76.5 -47.5t87.5 -17.5q51 0 82.5 20.5t36.5 50.5q5 26 -14.5 44t-53.5 18q-42 0 -80 -33l-202 61l108 471h508l-33 -223h-303l-16 -78q33 13 78 13z" />
    <glyph glyph-name="six.subs" horiz-adv-x="708" 
d="M401 319q107 0 171 -79.5t49 -192.5q-19 -127 -126 -211t-247 -84q-150 0 -226.5 100.5t-54.5 262.5q30 205 197.5 349t423.5 165l12 -223q-181 -11 -285 -101q43 14 86 14zM371 43q5 26 -17 44.5t-59 18.5q-34 0 -59.5 -18.5t-30.5 -44.5q-3 -28 18.5 -47t55.5 -19
q35 0 62 19t30 47z" />
    <glyph glyph-name="seven.subs" horiz-adv-x="667" 
d="M49 614h582l-27 -188l-375 -659h-270l358 622h-301z" />
    <glyph glyph-name="eight.subs" horiz-adv-x="751" 
d="M676 383q-15 -105 -119 -176q100 -74 82 -193q-15 -111 -122 -186.5t-251 -75.5q-143 0 -228.5 75t-70.5 187q18 121 137 193q-82 69 -67 176q15 104 115 175t237 71t219.5 -71.5t67.5 -174.5zM279 356q-3 -21 16 -35t49 -14q33 0 57 14t25 35q4 23 -15.5 37.5
t-52.5 14.5q-30 0 -53 -14.5t-26 -37.5zM399 39q3 25 -22 42t-62 17t-65 -17t-33 -42q-2 -25 21 -43.5t59 -18.5q39 0 69 18.5t33 43.5z" />
    <glyph glyph-name="nine.subs" horiz-adv-x="708" 
d="M367 629q150 0 226.5 -100.5t53.5 -262.5q-15 -101 -65.5 -192t-129 -161t-188.5 -113t-235 -48l-13 223q175 6 285 101q-47 -15 -86 -15q-107 0 -169.5 80t-47.5 193q19 127 124.5 211t244.5 84zM412 338q3 28 -18 46.5t-56 18.5t-62.5 -18.5t-31.5 -46.5
q-3 -28 18.5 -46t56.5 -18t62.5 19t30.5 45z" />
    <glyph glyph-name="zero.dnom" horiz-adv-x="808" 
d="M307 -14q-150 0 -227 122t-51 316q28 194 139.5 316t261.5 122q151 0 230 -122.5t51 -315.5q-26 -193 -139.5 -315.5t-264.5 -122.5zM340 215q42 0 76.5 59t46.5 150q13 91 -5 150t-59 59t-76.5 -58.5t-48.5 -150.5q-12 -92 7 -150.5t59 -58.5z" />
    <glyph glyph-name="one.dnom" horiz-adv-x="526" 
d="M319 848h173l-119 -848h-242l80 561l-107 -57l-75 192z" />
    <glyph glyph-name="two.dnom" horiz-adv-x="665" 
d="M623 588q-18 -130 -140 -238l-141 -125h238l-33 -225h-574l27 197l289 260l12 12l15.5 15.5t15.5 16t16 18.5t13 18t11 19t5 17q1 23 -16.5 36.5t-45.5 13.5q-58 0 -139 -68l-139 156q58 69 145.5 110t182.5 41q132 0 203.5 -77t54.5 -197z" />
    <glyph glyph-name="three.dnom" horiz-adv-x="706" 
d="M664 621q-16 -115 -125 -181q106 -69 88 -200q-15 -113 -118.5 -183.5t-250.5 -70.5q-93 0 -176.5 31t-132.5 85l162 179q28 -29 73 -47.5t90 -18.5q47 0 77.5 16.5t33.5 42.5q4 27 -22.5 44.5t-69.5 17.5h-117l31 205h115q39 0 64 11.5t28 31.5q3 21 -24.5 35t-70.5 14
q-75 0 -145 -39l-102 174q58 43 142.5 68.5t166.5 25.5q141 0 219.5 -67t63.5 -174z" />
    <glyph glyph-name="four.dnom" horiz-adv-x="763" 
d="M682 848l-68 -490h68l-35 -225h-65l-19 -133h-239l18 133h-315l-27 195l416 520h266zM244 358h129l30 209z" />
    <glyph glyph-name="five.dnom" horiz-adv-x="733" 
d="M399 559q124 0 196.5 -80.5t57.5 -199.5q-17 -127 -124 -210t-257 -83q-164 0 -292 100l145 195q32 -31 76.5 -48.5t87.5 -17.5q51 0 82.5 21t36.5 51q4 26 -15 43.5t-53 17.5q-42 0 -80 -33l-203 62l109 471h508l-33 -223h-303l-16 -78q30 12 77 12z" />
    <glyph glyph-name="six.dnom" horiz-adv-x="708" 
d="M434 553q107 0 170.5 -79.5t48.5 -192.5q-19 -127 -125.5 -211t-246.5 -84q-150 0 -226.5 100t-54.5 262q30 205 197.5 349t423.5 165l12 -223q-183 -12 -285 -100q43 14 86 14zM403 276q5 27 -17 45.5t-58 18.5q-33 0 -59 -18.5t-31 -45.5q-3 -28 18 -46.5t55 -18.5
q35 0 62 18.5t30 46.5z" />
    <glyph glyph-name="seven.dnom" horiz-adv-x="667" 
d="M82 848h582l-27 -189l-375 -659h-270l358 623h-301z" />
    <glyph glyph-name="eight.dnom" horiz-adv-x="751" 
d="M709 616q-15 -105 -119 -176q100 -74 82 -192q-15 -111 -122 -186.5t-251 -75.5q-143 0 -228.5 75t-70.5 187q18 120 137 192q-82 69 -67 176q15 104 115 175t237 71t219.5 -71.5t67.5 -174.5zM311 590q-3 -21 16.5 -35t49.5 -14q33 0 57 14t25 35q4 23 -15.5 37
t-52.5 14q-30 0 -53.5 -14t-26.5 -37zM432 272q3 25 -22 42.5t-62 17.5t-65 -17.5t-33 -42.5q-2 -25 21 -43t59 -18q39 0 69 18t33 43z" />
    <glyph glyph-name="nine.dnom" horiz-adv-x="708" 
d="M399 862q150 0 227 -100t54 -262q-20 -136 -100.5 -249.5t-216.5 -185.5t-302 -79l-12 223q177 6 285 100q-43 -14 -86 -14q-107 0 -169.5 79.5t-47.5 192.5q19 127 124 211t244 84zM444 571q3 28 -17.5 47t-55.5 19t-63 -19t-32 -47q-3 -28 18.5 -45.5t57.5 -17.5
q35 0 62 18.5t30 44.5z" />
    <glyph glyph-name="zero.numr" horiz-adv-x="808" 
d="M387 551q-150 0 -227 122t-51 316q28 194 139.5 316t261.5 122q151 0 230 -122.5t51 -315.5q-26 -193 -139.5 -315.5t-264.5 -122.5zM420 780q42 0 76.5 59t46.5 150q13 91 -5 150t-59 59t-76.5 -58.5t-48.5 -150.5q-12 -92 7 -150.5t59 -58.5z" />
    <glyph glyph-name="one.numr" horiz-adv-x="526" 
d="M399 1413h172l-118 -848h-242l80 561l-107 -57l-75 193z" />
    <glyph glyph-name="two.numr" horiz-adv-x="665" 
d="M702 1153q-18 -131 -139 -238l-141 -124h237l-32 -226h-574l27 197l289 260l10.5 10.5l13.5 13.5t13 13.5t14 16t12.5 16t12 16.5t8 15.5t4.5 15.5q1 23 -16 36t-46 13q-58 0 -139 -68l-139 156q58 69 145 110t182 41q132 0 203.5 -77t54.5 -197z" />
    <glyph glyph-name="three.numr" horiz-adv-x="706" 
d="M743 1186q-7 -55 -40 -102t-85 -78q50 -33 74 -85t15 -116q-15 -113 -118.5 -183.5t-250.5 -70.5q-92 0 -176 31t-133 86l161 178q28 -29 73 -47.5t91 -18.5q47 0 77.5 17t33.5 43q4 27 -22 44t-70 17h-117l31 205h114q39 0 64.5 11.5t28.5 31.5q3 21 -24.5 35t-70.5 14
q-75 0 -145 -39l-102 174q58 43 142.5 68.5t166.5 25.5q141 0 219 -67t63 -174z" />
    <glyph glyph-name="four.numr" horiz-adv-x="763" 
d="M762 1413l-68 -489h68l-35 -226h-65l-19 -133h-240l19 133h-316l-26 195l416 520h266zM324 924h129l30 209z" />
    <glyph glyph-name="five.numr" horiz-adv-x="733" 
d="M479 1124q124 0 196.5 -80.5t57.5 -199.5q-17 -127 -124 -210t-257 -83q-165 0 -293 100l146 195q32 -31 76.5 -48.5t87.5 -17.5q51 0 82 21t36 51q5 26 -14 43.5t-53 17.5q-43 0 -80 -32l-203 61l109 471h508l-33 -223h-303l-17 -78q30 12 78 12z" />
    <glyph glyph-name="six.numr" horiz-adv-x="708" 
d="M514 1118q107 0 170.5 -79.5t48.5 -192.5q-19 -127 -126 -211t-247 -84q-150 0 -226 100t-54 262q30 205 197 349t423 165l13 -223q-183 -12 -285 -100q43 14 86 14zM483 842q5 26 -16.5 44.5t-58.5 18.5q-34 0 -60 -18.5t-31 -44.5q-3 -28 18.5 -47t55.5 -19q35 0 62 19
t30 47z" />
    <glyph glyph-name="seven.numr" horiz-adv-x="667" 
d="M162 1413h581l-26 -188l-375 -660h-270l358 623h-301z" />
    <glyph glyph-name="eight.numr" horiz-adv-x="751" 
d="M788 1182q-15 -105 -118 -176q100 -74 82 -193q-15 -111 -122 -186.5t-251 -75.5q-143 0 -228.5 75t-70.5 187q18 121 137 193q-82 69 -67 176q15 104 115 174.5t237 70.5t219 -71t67 -174zM391 1155q-3 -21 16.5 -35t49.5 -14q33 0 57 14t25 35q4 23 -15.5 37t-52.5 14
q-30 0 -53.5 -14t-26.5 -37zM512 838q3 25 -22 42t-62 17t-65 -17t-33 -42q-2 -25 21 -43.5t59 -18.5q39 0 69 18.5t33 43.5z" />
    <glyph glyph-name="nine.numr" horiz-adv-x="708" 
d="M479 1427q150 0 227 -100t54 -262q-20 -136 -100.5 -249.5t-216.5 -185.5t-302 -79l-12 223q177 6 285 100q-43 -14 -86 -14q-107 0 -169.5 80t-47.5 193q19 127 124 210.5t244 83.5zM524 1137q3 28 -17.5 46.5t-55.5 18.5t-63 -18.5t-32 -46.5q-3 -28 19 -46t57 -18
t62 19t30 45z" />
    <glyph glyph-name="exclamdown.case" horiz-adv-x="585" 
d="M360 1004q-94 0 -147 61.5t-39 153.5q12 92 83 154.5t165 62.5q93 0 146.5 -62t41.5 -155q-13 -92 -84.5 -153.5t-165.5 -61.5zM45 0l49 348l103 576h307l-60 -576l-49 -348h-350z" />
    <glyph glyph-name="questiondown.case" horiz-adv-x="1046" 
d="M625 1004q-94 0 -147.5 61.5t-39.5 153.5q12 92 83 154.5t165 62.5q93 0 146.5 -62t41.5 -155q-14 -92 -84.5 -153.5t-164.5 -61.5zM465 -25q-202 0 -320.5 118.5t-93.5 287.5q9 66 40.5 125t72 100.5t87 82t85 70t66.5 63t32 63.5l4 37h350l-4 -37q-10 -67 -49.5 -127.5
t-90 -105t-100.5 -84.5t-86.5 -80t-41.5 -76q-6 -44 24 -70.5t90 -26.5q149 0 291 142l193 -234q-117 -118 -259 -183t-290 -65z" />
    <glyph glyph-name="periodcentered.case" horiz-adv-x="673" 
d="M332 483q-97 0 -153 64.5t-42 159.5q12 95 86.5 159t171.5 64t152 -64t41 -159q-14 -96 -87 -160t-169 -64z" />
    <glyph glyph-name="bullet.case" horiz-adv-x="763" 
d="M371 438q-116 0 -183.5 77t-50.5 192q17 116 104.5 192t202.5 76q116 0 183.5 -76.5t52.5 -191.5q-17 -116 -105.5 -192.5t-203.5 -76.5z" />
    <glyph glyph-name="asterisk.case" horiz-adv-x="806" 
d="M662 1083l63 -26l92 -53l-127 -175l-94 54l-47 45l2 -70l-14 -106h-203l14 106l21 68l-60 -43l-106 -54l-78 175l106 55l72 24l-63 27l-93 51l125 174l95 -51l47 -47l-2 72l16 104h201l-15 -104l-20 -68l61 43l107 51l78 -174l-107 -53z" />
    <glyph glyph-name="slash.case" horiz-adv-x="1128" 
d="M-117 -215l1080 1843h333l-1079 -1843h-334z" />
    <glyph glyph-name="backslash.case" horiz-adv-x="1128" 
d="M702 -215l-559 1843h334l559 -1843h-334z" />
    <glyph glyph-name="parenleft.case" horiz-adv-x="770" 
d="M332 -256q-109 173 -153 437t-7 526t155 525t275 437h334q-151 -173 -264 -436.5t-150 -525.5q-37 -263 2.5 -526.5t141.5 -436.5h-334z" />
    <glyph glyph-name="parenright.case" horiz-adv-x="770" 
d="M-113 -256q151 174 265 437.5t151 525.5q37 263 -2.5 526t-142.5 436h334q108 -174 152 -437.5t7 -524.5q-36 -261 -155 -524.5t-275 -438.5h-334z" />
    <glyph glyph-name="braceleft.case" horiz-adv-x="899" 
d="M770 1669h240l-45 -313h-109q-44 0 -76.5 -29.5t-38.5 -75.5l-51 -360q-7 -60 -48.5 -108.5t-104.5 -73.5q56 -26 82.5 -75t19.5 -110l-51 -362q-6 -46 17.5 -75.5t68.5 -29.5h108l-43 -313h-239q-140 0 -215 86t-56 227l56 379q7 52 -19 83.5t-76 31.5h-79l43 313h79
q50 0 84.5 31.5t42.5 83.5l54 377q20 141 118 227t238 86z" />
    <glyph glyph-name="braceright.case" horiz-adv-x="899" 
d="M762 864h80l-43 -313h-80q-51 0 -85 -31t-42 -84l-55 -379q-19 -141 -117 -227t-238 -86h-239l43 313h106q46 0 78.5 29.5t38.5 75.5l53 362q7 61 48 110t106 75q-57 25 -84.5 73t-18.5 109l49 360q6 46 -17.5 75.5t-68.5 29.5h-108l45 313h240q140 0 214 -86t54 -227
l-53 -377q-8 -51 18.5 -83t75.5 -32z" />
    <glyph glyph-name="bracketleft.case" horiz-adv-x="774" 
d="M842 1356h-215l-183 -1299h213l-43 -313h-557l271 1925h557z" />
    <glyph glyph-name="bracketright.case" horiz-adv-x="774" 
d="M213 1669h557l-270 -1925h-557l43 313h213l184 1299h-215z" />
    <glyph glyph-name="hyphen.case" horiz-adv-x="835" 
d="M115 549l45 319h614l-45 -319h-614z" />
    <glyph glyph-name="endash.case" horiz-adv-x="1245" 
d="M115 559l43 299h1024l-43 -299h-1024z" />
    <glyph glyph-name="emdash.case" horiz-adv-x="2187" 
d="M115 559l43 299h1966l-43 -299h-1966z" />
    <glyph glyph-name="guillemotleft.case" horiz-adv-x="1388" 
d="M836 1126l-353 -419l234 -420h-387l-234 420l353 419h387zM1413 1126l-352 -419l235 -420h-389l-231 420l350 419h387z" />
    <glyph glyph-name="guillemotright.case" horiz-adv-x="1388" 
d="M547 1126l233 -419l-352 -420h-387l350 420l-231 419h387zM1124 1126l234 -419l-352 -420h-388l353 420l-234 419h387z" />
    <glyph glyph-name="guilsinglleft.case" horiz-adv-x="811" 
d="M836 1126l-353 -419l234 -420h-387l-234 420l353 419h387z" />
    <glyph glyph-name="guilsinglright.case" horiz-adv-x="811" 
d="M547 1126l233 -419l-352 -420h-387l350 420l-231 419h387z" />
    <glyph glyph-name="plus.case" horiz-adv-x="1093" 
d="M1030 856l-43 -299h-285l-40 -287h-304l41 287h-284l43 299h284l41 287h303l-41 -287h285z" />
    <glyph glyph-name="at.case" horiz-adv-x="1693" 
d="M989 1470q159 0 293.5 -53.5t223.5 -147t130.5 -225.5t20.5 -282q-27 -192 -137.5 -308t-276.5 -116q-85 0 -153 30t-105 83q-88 -115 -235 -115q-149 0 -231 105.5t-60 260.5q23 158 132.5 264.5t244.5 106.5q108 0 172 -76l6 52h272l-59 -426q-5 -31 12 -50.5t49 -19.5
q52 0 91 59t53 154q15 104 -14 195.5t-92.5 156.5t-159 102t-208.5 37q-159 0 -296 -71.5t-226 -197.5t-110 -283q-17 -116 10.5 -218t90.5 -175t161.5 -115.5t218.5 -42.5q190 0 336 88l67 -197q-206 -104 -438 -104q-220 0 -384.5 100t-241 275t-46.5 389q23 160 102 302
t196.5 243.5t271 160.5t319.5 59zM836 596q46 0 83 28t46 70l2 21q3 42 -25.5 70t-73.5 28q-48 0 -86.5 -31t-44.5 -77t23 -77.5t76 -31.5z" />
    <glyph glyph-name="uni030C.alt" horiz-adv-x="0" 
d="M-274 989l110 486h297l-158 -486h-249z" />
    <glyph glyph-name="caron.alt" horiz-adv-x="339" 
d="M66 989l110 486h297l-158 -486h-249z" />
    </font>
</defs>
</svg>
