<?xml version="1.0" standalone="no"?>
<!DOCTYPE svg PUBLIC "-//W3C//DTD SVG 1.1//EN" "http://www.w3.org/Graphics/SVG/1.1/DTD/svg11.dtd" >
<svg xmlns="http://www.w3.org/2000/svg" xmlns:xlink="http://www.w3.org/1999/xlink" version="1.1">
<metadata>
Created by FontForge 20201107 at Sun Dec 27 21:40:40 2020
 By 
Copyright (c) 2020 by Adam Ladd. All rights reserved.
</metadata>
<defs>
<font id="Lufga-SemiBold" horiz-adv-x="1310" >
  <font-face 
    font-family="Lufga SemiBold"
    font-weight="600"
    font-stretch="normal"
    units-per-em="2048"
    panose-1="0 0 7 0 0 0 0 0 0 0"
    ascent="1597"
    descent="-451"
    x-height="1044"
    cap-height="1413"
    bbox="-1452 -502 2603 1913"
    underline-thickness="151"
    underline-position="-354"
    unicode-range="U+0020-FB02"
  />
<missing-glyph horiz-adv-x="1024" 
d="M840 1597v-2048h-650v2048h650zM682 1460h-338v-67h133v-76h-135v-68h340v68h-135v76h135v67zM547 1196h-205v-213h340v70h-135v143zM477 1126v-73h-67v73h67zM682 928h-340v-68h135v-76h-135v-67h205v143h135v68zM682 805h-68v-135h-272v-70h340v205zM682 555h-205v-115
h70v47h67v-96h-204v164h-68v-231h340v231zM682 201h-340v-232h340v232zM614 133v-96h-204v96h204zM682 -78h-340v-67h143l-143 -97v-67h340v67h-209l143 97h66v67z" />
    <glyph glyph-name="fi" unicode="fi" horiz-adv-x="1327" 
d="M1067 1198q-71 0 -119.5 48t-48.5 118t48.5 118t119.5 48t119.5 -48t48.5 -118t-48.5 -118t-119.5 -48zM221 1139q0 168 88.5 264t263.5 96q111 0 197 -45v-233q-61 34 -137 34q-71 0 -108.5 -33.5t-37.5 -99.5v-78h263v-243h-263v-801h-266v801h-164v243h164v95zM934 0
v1044h266v-1044h-266z" />
    <glyph glyph-name="fl" unicode="fl" horiz-adv-x="1327" 
d="M221 1139q0 168 88.5 264t263.5 96q111 0 197 -45v-233q-61 34 -137 34q-71 0 -108.5 -33.5t-37.5 -99.5v-78h263v-243h-263v-801h-266v801h-164v243h164v95zM934 1475h266v-1475h-266v1475z" />
    <glyph glyph-name=".notdef" horiz-adv-x="1024" 
d="M840 1597v-2048h-650v2048h650zM682 1460h-338v-67h133v-76h-135v-68h340v68h-135v76h135v67zM547 1196h-205v-213h340v70h-135v143zM477 1126v-73h-67v73h67zM682 928h-340v-68h135v-76h-135v-67h205v143h135v68zM682 805h-68v-135h-272v-70h340v205zM682 555h-205v-115
h70v47h67v-96h-204v164h-68v-231h340v231zM682 201h-340v-232h340v232zM614 133v-96h-204v96h204zM682 -78h-340v-67h143l-143 -97v-67h340v67h-209l143 97h66v67z" />
    <glyph glyph-name=".null" horiz-adv-x="0" 
 />
    <glyph glyph-name="nonmarkingreturn" horiz-adv-x="682" 
 />
    <glyph glyph-name="space" unicode=" " horiz-adv-x="466" 
 />
    <glyph glyph-name="exclam" unicode="!" horiz-adv-x="557" 
d="M156 451l-17 614v348h281v-348l-17 -614h-247zM279 -18q-77 0 -129 51t-52 127t52 127t129 51q78 0 129 -50.5t51 -127.5t-51 -127.5t-129 -50.5z" />
    <glyph glyph-name="quotedbl" unicode="&#x22;" horiz-adv-x="894" 
d="M115 864l-17 549h264l-18 -549h-229zM551 864l-19 549h265l-19 -549h-227z" />
    <glyph glyph-name="numbersign" unicode="#" horiz-adv-x="1570" 
d="M1499 836h-287l-77 -258h254v-232h-322l-102 -346h-246l102 346h-303l-102 -346h-248l102 346h-217v232h287l76 258h-254v231h323l103 346h246l-103 -346h303l103 346h245l-102 -346h219v-231zM889 578l78 258h-303l-78 -258h303z" />
    <glyph glyph-name="dollar" unicode="$" horiz-adv-x="1191" 
d="M1145 408q0 -168 -127.5 -281.5t-325.5 -132.5v-135h-139v135q-137 12 -266.5 70t-218.5 147l139 195q71 -65 162 -111t184 -59v360q-95 26 -170.5 62.5t-136.5 87.5t-94 121t-33 153q0 163 118.5 271.5t315.5 127.5v137h139v-135q121 -12 222.5 -58t168.5 -114
l-131 -194q-44 44 -114 77.5t-146 45.5v-344q54 -14 104.5 -31.5t117.5 -53.5t115 -79.5t82 -112t34 -149.5zM393 1028q0 -98 160 -158v306q-73 -14 -116.5 -53.5t-43.5 -94.5zM692 238q79 12 127.5 53.5t48.5 105.5q0 59 -47.5 97t-128.5 65v-321z" />
    <glyph glyph-name="percent" unicode="%" horiz-adv-x="1763" 
d="M432 750q-149 0 -249.5 99t-100.5 247q0 146 100.5 244t249.5 98t249.5 -98t100.5 -244q0 -148 -100.5 -247t-249.5 -99zM227 0l1024 1413h285l-1024 -1413h-285zM432 965q55 0 92 37.5t37 93.5q0 54 -37 90.5t-92 36.5t-92 -36.5t-37 -90.5q0 -56 37 -93.5t92 -37.5z
M1331 -25q-149 0 -249.5 99.5t-100.5 247.5q0 146 100.5 244t249.5 98t249.5 -98t100.5 -244q0 -148 -100.5 -247.5t-249.5 -99.5zM1331 190q56 0 92.5 37.5t36.5 94.5q0 54 -37 90.5t-92 36.5t-92 -36.5t-37 -90.5q0 -57 36.5 -94.5t92.5 -37.5z" />
    <glyph glyph-name="ampersand" unicode="&#x26;" horiz-adv-x="1333" 
d="M1370 0h-338l-80 90q-147 -115 -362 -115q-234 0 -382.5 128t-148.5 329q0 70 19 130.5t54.5 108.5t76 84t94.5 70q-110 152 -110 291t108 230.5t268 91.5t269.5 -90.5t109.5 -227.5q0 -58 -21.5 -109.5t-62 -93.5t-85.5 -74t-105 -65l297 -332q69 108 114 252l234 -73
q-68 -220 -182 -365zM569 1227q-51 0 -85.5 -31t-34.5 -82q0 -64 79 -170q78 41 120 82.5t42 91.5q0 47 -35.5 78t-85.5 31zM600 219q103 0 191 51l-340 379q-119 -88 -119 -200q0 -100 75.5 -165t192.5 -65z" />
    <glyph glyph-name="quotesingle" unicode="'" horiz-adv-x="460" 
d="M115 864l-17 549h264l-18 -549h-229z" />
    <glyph glyph-name="parenleft" unicode="(" horiz-adv-x="698" 
d="M430 -389q-131 174 -211 437.5t-80 524.5q0 262 80 525.5t211 437.5h268q-126 -174 -203 -437.5t-77 -525.5t77 -525t203 -437h-268z" />
    <glyph glyph-name="parenright" unicode=")" horiz-adv-x="698" 
d="M-2 -389q128 174 205.5 437t77.5 525t-77.5 525.5t-205.5 437.5h268q132 -174 212.5 -437.5t80.5 -525.5t-80.5 -525t-212.5 -437h-268z" />
    <glyph glyph-name="asterisk" unicode="*" horiz-adv-x="768" 
d="M526 1155l60 -25l125 -67l-82 -141l-127 67l-45 39l10 -59v-138h-166v138l10 59l-47 -39l-123 -67l-84 141l125 72l56 20l-56 21l-125 67l84 141l125 -65l45 -39l-10 59v136h166v-136l-10 -57l47 37l125 65l82 -141l-125 -67z" />
    <glyph glyph-name="plus" unicode="+" horiz-adv-x="1093" 
d="M975 725v-240h-307v-309h-242v309h-307v240h307v307h242v-307h307z" />
    <glyph glyph-name="comma" unicode="," horiz-adv-x="530" 
d="M10 -297l144 578h311l-225 -578h-230z" />
    <glyph glyph-name="hyphen" unicode="-" horiz-adv-x="835" 
d="M119 432v258h598v-258h-598z" />
    <glyph glyph-name="period" unicode="." horiz-adv-x="522" 
d="M262 -18q-79 0 -132.5 53t-53.5 131t53.5 131t132.5 53q78 0 131 -53t53 -131t-53 -131t-131 -53z" />
    <glyph glyph-name="slash" unicode="/" horiz-adv-x="1087" 
d="M0 -307l819 1843h268l-819 -1843h-268z" />
    <glyph glyph-name="zero" unicode="0" horiz-adv-x="1298" 
d="M649 -25q-161 0 -287.5 92.5t-197 259.5t-70.5 380t70.5 380t197 259t287.5 92q162 0 288.5 -92t196.5 -258.5t70 -380.5t-70 -380.5t-196.5 -259t-288.5 -92.5zM649 248q117 0 190.5 128t73.5 331t-73.5 330.5t-190.5 127.5q-116 0 -190 -128t-74 -330t74 -330.5
t190 -128.5z" />
    <glyph glyph-name="one" unicode="1" horiz-adv-x="806" 
d="M455 1413h200v-1413h-282v1077l-232 -131l-121 228z" />
    <glyph glyph-name="two" unicode="2" horiz-adv-x="1095" 
d="M475 266h541v-266h-938v229l483 519q64 70 101.5 128.5t37.5 116.5q0 73 -54 117.5t-138 44.5q-153 0 -275 -158l-192 185q73 116 202.5 186t282.5 70q204 0 333.5 -120.5t129.5 -307.5q0 -118 -49 -212.5t-131 -181.5z" />
    <glyph glyph-name="three" unicode="3" horiz-adv-x="1171" 
d="M874 739q105 -50 165.5 -142t60.5 -206q0 -183 -148 -299.5t-381 -116.5q-151 0 -290 53.5t-230 145.5l162 209q61 -64 152 -99.5t186 -35.5q115 0 186.5 51t71.5 131q0 81 -69 132.5t-177 51.5h-205v244h205q93 0 153 43t60 109q0 68 -66 111.5t-171 43.5
q-83 0 -160 -27.5t-127 -76.5l-152 205q83 80 209.5 126t261.5 46q219 0 357.5 -108t138.5 -279q0 -99 -51.5 -180.5t-141.5 -131.5z" />
    <glyph glyph-name="four" unicode="4" horiz-adv-x="1198" 
d="M1147 541v-267h-152v-274h-282v274h-600l-68 230l641 909h309v-872h152zM352 541h361v516z" />
    <glyph glyph-name="five" unicode="5" horiz-adv-x="1179" 
d="M635 918q206 0 346.5 -133t140.5 -332q0 -205 -153 -341.5t-389 -136.5q-131 0 -260.5 48t-241.5 145l141 227q67 -70 157.5 -108.5t184.5 -38.5q121 0 195.5 61.5t74.5 151.5q0 85 -65 141.5t-166 56.5q-123 0 -211 -81l-250 73l72 762h813v-266h-575l-23 -279
q89 50 209 50z" />
    <glyph glyph-name="six" unicode="6" horiz-adv-x="1150" 
d="M678 905q188 0 315 -130.5t127 -319.5q0 -207 -151.5 -343.5t-380.5 -136.5q-245 0 -392 157t-147 419q0 164 62 314t174.5 268t279 198.5t365.5 106.5l55 -264q-208 -33 -356 -127t-215 -224q116 82 264 82zM588 248q103 0 172 57.5t69 143.5q0 85 -67 140.5t-170 55.5
q-102 0 -178 -50t-76 -140t70 -148.5t180 -58.5z" />
    <glyph glyph-name="seven" unicode="7" horiz-adv-x="1073" 
d="M78 1413h942v-221l-539 -1192h-319l522 1147h-606v266z" />
    <glyph glyph-name="eight" unicode="8" horiz-adv-x="1212" 
d="M922 733q102 -55 160.5 -143t58.5 -195q0 -179 -153.5 -299.5t-381.5 -120.5t-381 120.5t-153 299.5q0 107 58 195t161 143q-90 54 -140.5 134t-50.5 175q0 168 144 282t362 114q217 0 361.5 -114t144.5 -282q0 -96 -50 -175.5t-140 -133.5zM606 1165q-94 0 -155.5 -42.5
t-61.5 -108.5q0 -65 62 -108.5t155 -43.5q92 0 153.5 43.5t61.5 108.5q0 66 -61 108.5t-154 42.5zM606 248q104 0 174 50.5t70 125.5q0 74 -70 124t-174 50t-174 -50t-70 -124q0 -75 70 -125.5t174 -50.5z" />
    <glyph glyph-name="nine" unicode="9" horiz-adv-x="1150" 
d="M563 1438q245 0 392 -157t147 -419q0 -165 -61.5 -317.5t-173 -272.5t-279 -199.5t-367.5 -97.5l-55 265q209 22 357.5 119t215.5 233q-115 -84 -266 -84q-188 0 -315 130.5t-127 319.5q0 207 151.5 343.5t380.5 136.5zM322 965q0 -85 67 -141t168 -56q103 0 178.5 50
t75.5 140t-69.5 148.5t-178.5 58.5q-104 0 -172.5 -57t-68.5 -143z" />
    <glyph glyph-name="colon" unicode=":" horiz-adv-x="542" 
d="M272 649q-79 0 -132.5 53.5t-53.5 131.5t53.5 131t132.5 53q78 0 131.5 -53t53.5 -131t-53.5 -131.5t-131.5 -53.5zM272 -18q-79 0 -132.5 53t-53.5 131t53.5 131t132.5 53q78 0 131.5 -53t53.5 -131t-53.5 -131t-131.5 -53z" />
    <glyph glyph-name="semicolon" unicode=";" horiz-adv-x="573" 
d="M303 649q-79 0 -132.5 53.5t-53.5 131.5t53.5 131t132.5 53q78 0 132 -53t54 -131t-54 -131.5t-132 -53.5zM10 -297l144 578h311l-227 -578h-228z" />
    <glyph glyph-name="less" unicode="&#x3c;" horiz-adv-x="950" 
d="M831 1075v-266l-444 -203l444 -203v-266l-712 348v242z" />
    <glyph glyph-name="equal" unicode="=" horiz-adv-x="1093" 
d="M119 686v240h856v-240h-856zM119 285v239h856v-239h-856z" />
    <glyph glyph-name="greater" unicode="&#x3e;" horiz-adv-x="950" 
d="M119 1075l712 -348v-242l-712 -348v266l444 203l-444 203v266z" />
    <glyph glyph-name="question" unicode="?" horiz-adv-x="1005" 
d="M346 455v49q0 67 32.5 129.5t79 110.5t93 92.5t79 92.5t32.5 93q0 64 -49 103.5t-130 39.5t-158 -43t-139 -121l-184 187q93 118 222 184t274 66q193 0 322.5 -114t129.5 -280q0 -78 -33.5 -148.5t-81 -120.5t-94.5 -94.5t-80.5 -89.5t-33.5 -87v-49h-281zM487 -18
q-78 0 -129 50.5t-51 127.5t51 127.5t129 50.5q77 0 129 -51t52 -127t-52 -127t-129 -51z" />
    <glyph glyph-name="at" unicode="@" horiz-adv-x="1710" 
d="M991 897h228v-453q0 -36 21.5 -57.5t57.5 -21.5q58 0 93.5 66.5t35.5 172.5q0 110 -44 207.5t-119.5 166t-180 108.5t-221.5 40q-165 0 -297.5 -74.5t-207 -206t-74.5 -294.5q0 -121 43.5 -227t119.5 -182.5t184 -120.5t232 -44q99 0 189.5 27t154.5 74l90 -166
q-199 -119 -436 -119q-163 0 -306.5 58.5t-245.5 159t-161 241t-59 299.5q0 213 100.5 387t278 273.5t395.5 99.5q158 0 298.5 -54t242 -147.5t160.5 -226t59 -283.5q0 -188 -89 -302t-245 -114q-86 0 -154 32t-106 89q-77 -125 -237 -125q-151 0 -250 106t-99 263
q0 160 97.5 266.5t236.5 106.5q131 0 215 -97v72zM831 397q69 0 114.5 44.5t45.5 109.5q0 66 -46 110t-114 44q-66 0 -110.5 -43.5t-44.5 -110.5q0 -66 44.5 -110t110.5 -44z" />
    <glyph glyph-name="A" unicode="A" horiz-adv-x="1466" 
d="M1135 0l-101 274h-606l-100 -274h-305l544 1413h334l543 -1413h-309zM522 535h416l-207 567z" />
    <glyph glyph-name="B" unicode="B" horiz-adv-x="1294" 
d="M1018 750q103 -37 168 -139t65 -228q0 -167 -113 -275t-284 -108h-711v1413h664q159 0 267 -102t108 -258q0 -98 -46 -180t-118 -123zM737 1159h-319v-311h319q63 0 108.5 45t45.5 111t-44 110.5t-110 44.5zM784 254q75 0 126 51.5t51 126.5q0 74 -51 125t-126 51h-366
v-354h366z" />
    <glyph glyph-name="C" unicode="C" horiz-adv-x="1488" 
d="M817 -25q-157 0 -295 56.5t-237 153.5t-156 232.5t-57 289.5t57 289.5t156 232.5t237 153t295 56q196 0 360 -85t263 -233l-244 -151q-62 92 -161 144t-218 52q-194 0 -324.5 -131t-130.5 -327t130.5 -327.5t324.5 -131.5q119 0 218 52t161 144l244 -151
q-99 -148 -263 -233t-360 -85z" />
    <glyph glyph-name="D" unicode="D" horiz-adv-x="1488" 
d="M696 1413q152 0 286 -54t229.5 -147.5t150.5 -224.5t55 -280t-55 -280t-150.5 -225t-229.5 -148t-286 -54h-553v1413h553zM690 266q187 0 311.5 126t124.5 315t-124.5 314.5t-311.5 125.5h-264v-881h264z" />
    <glyph glyph-name="E" unicode="E" horiz-adv-x="1189" 
d="M426 266h678v-266h-961v1413h951v-266h-668v-303h600v-266h-600v-312z" />
    <glyph glyph-name="F" unicode="F" horiz-adv-x="1122" 
d="M1063 1147h-637v-318h555v-266h-555v-563h-283v1413h920v-266z" />
    <glyph glyph-name="G" unicode="G" horiz-adv-x="1589" 
d="M848 795h680v-99q0 -205 -92.5 -370t-256.5 -258t-368 -93q-156 0 -293 56.5t-235 153.5t-154.5 232.5t-56.5 289.5t57 289.5t156 232.5t237 153t295 56q184 0 339.5 -74t250.5 -203l-213 -170q-64 83 -160.5 129.5t-210.5 46.5q-197 0 -329 -131t-132 -329t131 -329.5
t328 -131.5q152 0 265 82.5t145 214.5h-383v252z" />
    <glyph glyph-name="H" unicode="H" horiz-adv-x="1478" 
d="M1053 1413h282v-1413h-282v578h-627v-578h-283v1413h283v-569h627v569z" />
    <glyph glyph-name="I" unicode="I" horiz-adv-x="569" 
d="M143 0v1413h283v-1413h-283z" />
    <glyph glyph-name="J" unicode="J" horiz-adv-x="884" 
d="M283 -25q-128 0 -230 45v271q95 -43 199 -43q109 0 171 56.5t62 158.5v950h283v-964q0 -221 -132 -347.5t-353 -126.5z" />
    <glyph glyph-name="K" unicode="K" horiz-adv-x="1363" 
d="M1024 0l-467 528l-131 -143v-385h-283v1413h283v-645l580 645h360l-625 -682l652 -731h-369z" />
    <glyph glyph-name="L" unicode="L" horiz-adv-x="1091" 
d="M426 266h616v-266h-899v1413h283v-1147z" />
    <glyph glyph-name="M" unicode="M" horiz-adv-x="1792" 
d="M1300 1413h349v-1413h-283v971l-391 -717h-160l-389 717v-971h-283v1413h353l401 -735z" />
    <glyph glyph-name="N" unicode="N" horiz-adv-x="1499" 
d="M1073 1413h283v-1413h-287l-643 928v-928h-283v1413h287l643 -928v928z" />
    <glyph glyph-name="O" unicode="O" horiz-adv-x="1634" 
d="M817 -25q-157 0 -295 56.5t-237 153.5t-156 232.5t-57 289.5t57 289.5t156 232.5t237 153t295 56q209 0 380 -95.5t268.5 -263t97.5 -372.5q0 -154 -57.5 -289.5t-156 -232.5t-237 -153.5t-295.5 -56.5zM817 248q194 0 324.5 131.5t130.5 327.5t-130.5 327t-324.5 131
t-324.5 -131t-130.5 -327t130.5 -327.5t324.5 -131.5z" />
    <glyph glyph-name="P" unicode="P" horiz-adv-x="1288" 
d="M760 1413q206 0 345.5 -135t139.5 -336t-139.5 -336t-345.5 -135h-334v-471h-283v1413h617zM754 737q86 0 143 58.5t57 146.5t-57 146.5t-143 58.5h-328v-410h328z" />
    <glyph glyph-name="Q" unicode="Q" horiz-adv-x="1634" 
d="M1563 707q0 -164 -63 -304.5t-177 -240.5l135 -195l-211 -147l-145 207q-136 -52 -285 -52q-157 0 -295 56.5t-237 153.5t-156 232.5t-57 289.5t57 289.5t156 232.5t237 153t295 56q209 0 380 -95.5t268.5 -263t97.5 -372.5zM817 248q67 0 119 14l-123 176l213 148
l131 -189q115 128 115 310q0 196 -130.5 327t-324.5 131t-324.5 -131t-130.5 -327t130.5 -327.5t324.5 -131.5z" />
    <glyph glyph-name="R" unicode="R" horiz-adv-x="1296" 
d="M920 0l-326 504h-168v-504h-283v1413h602q204 0 342 -132.5t138 -330.5q0 -150 -87.5 -264.5t-230.5 -159.5l353 -526h-340zM426 1147v-397h313q83 0 139 56.5t56 141.5t-56 142t-139 57h-313z" />
    <glyph glyph-name="S" unicode="S" horiz-adv-x="1228" 
d="M635 -25q-161 0 -320.5 60.5t-267.5 161.5l146 215q88 -84 206.5 -134.5t235.5 -50.5q108 0 184 46t76 118q0 25 -10.5 46.5t-23.5 37t-41.5 31t-48 24t-59 20.5t-59 16.5t-63.5 15.5q-84 20 -155 46t-134.5 64.5t-107.5 85.5t-69.5 109.5t-25.5 134.5q0 188 149 302
t388 114q153 0 280.5 -48t208.5 -128l-131 -213q-62 60 -160.5 98.5t-201.5 38.5q-106 0 -174 -43t-68 -109q0 -39 24 -70t68 -52.5t87 -35t100 -26.5q37 -8 70.5 -16.5t88.5 -27.5t100.5 -41.5t95.5 -58.5t84 -77.5t56.5 -100t22.5 -125.5q0 -124 -73 -222.5t-198.5 -152
t-279.5 -53.5z" />
    <glyph glyph-name="T" unicode="T" horiz-adv-x="1206" 
d="M1153 1413v-266h-408v-1147h-282v1147h-410v266h1100z" />
    <glyph glyph-name="U" unicode="U" horiz-adv-x="1404" 
d="M702 -25q-165 0 -299 74.5t-210 205.5t-76 292v866h282v-862q0 -129 86.5 -216t216.5 -87t217 87t87 216v862h282v-866q0 -161 -76.5 -292t-210.5 -205.5t-299 -74.5z" />
    <glyph glyph-name="V" unicode="V" horiz-adv-x="1454" 
d="M1124 1413h310l-562 -1413h-290l-562 1413h316l395 -1038z" />
    <glyph glyph-name="W" unicode="W" horiz-adv-x="2066" 
d="M1745 1413h291l-441 -1413h-282l-279 981l-280 -981h-281l-442 1413h299l291 -1028l292 1028h248l293 -1028z" />
    <glyph glyph-name="X" unicode="X" horiz-adv-x="1472" 
d="M1446 0h-348l-363 514l-362 -514h-346l516 709l-508 704h348l356 -508l353 508h346l-508 -704z" />
    <glyph glyph-name="Y" unicode="Y" horiz-adv-x="1380" 
d="M1067 1413h315l-551 -917v-496h-282v496l-551 917h324l372 -631z" />
    <glyph glyph-name="Z" unicode="Z" horiz-adv-x="1257" 
d="M461 266h723v-266h-1110v203l708 944h-700v266h1087v-203z" />
    <glyph glyph-name="bracketleft" unicode="[" horiz-adv-x="716" 
d="M668 1284h-234v-1421h234v-252h-508v1925h508v-252z" />
    <glyph glyph-name="backslash" unicode="\" horiz-adv-x="1087" 
d="M819 -307l-819 1843h268l819 -1843h-268z" />
    <glyph glyph-name="bracketright" unicode="]" horiz-adv-x="716" 
d="M49 1536h508v-1925h-508v252h234v1421h-234v252z" />
    <glyph glyph-name="asciicircum" unicode="^" horiz-adv-x="878" 
d="M821 897h-239l-142 297l-141 -297h-242l260 516h244z" />
    <glyph glyph-name="underscore" unicode="_" horiz-adv-x="1013" 
d="M45 -352v225h926v-225h-926z" />
    <glyph glyph-name="grave" unicode="`" horiz-adv-x="542" 
d="M262 1159l-262 293h336l207 -293h-281z" />
    <glyph glyph-name="a" unicode="a" 
d="M918 1044h266v-1044h-266v125q-137 -150 -340 -150q-218 0 -364 157t-146 390t146 390t364 157q204 0 340 -149v124zM629 233q124 0 206.5 83t82.5 206t-82.5 206t-206.5 83q-123 0 -205 -83t-82 -206t82 -206t205 -83z" />
    <glyph glyph-name="b" unicode="b" 
d="M733 1069q143 0 259.5 -71.5t182.5 -197t66 -278.5t-66 -278.5t-182.5 -197t-259.5 -71.5q-206 0 -340 150v-125h-266v1475h266v-555q133 149 340 149zM680 233q124 0 205.5 82.5t81.5 206.5t-81.5 206.5t-205.5 82.5q-123 0 -205 -83t-82 -206t82 -206t205 -83z" />
    <glyph glyph-name="c" unicode="c" horiz-adv-x="1144" 
d="M625 -25q-239 0 -400.5 157t-161.5 390t161.5 390t400.5 157q156 0 282.5 -70t198.5 -190l-232 -139q-36 64 -101.5 102.5t-147.5 38.5q-123 0 -205 -83t-82 -206t82 -206t205 -83q81 0 147 38.5t102 103.5l232 -139q-72 -121 -198.5 -191t-282.5 -70z" />
    <glyph glyph-name="d" unicode="d" 
d="M918 1475h266v-1475h-266v125q-137 -150 -340 -150q-218 0 -364 157t-146 390t146 390t364 157q204 0 340 -149v555zM629 233q124 0 206.5 83t82.5 206t-82.5 206t-206.5 83q-123 0 -205 -83t-82 -206t82 -206t205 -83z" />
    <glyph glyph-name="e" unicode="e" horiz-adv-x="1226" 
d="M1167 520q0 -50 -6 -94h-809q28 -99 107 -157t192 -58q91 0 167 36.5t120 92.5l178 -156q-83 -99 -205.5 -154t-267.5 -55q-164 0 -297 72t-208 198.5t-75 280.5q0 152 72.5 276.5t200 195.5t282.5 71q235 0 392 -156.5t157 -392.5zM616 836q-97 0 -169 -58.5t-97 -156.5
h533q-25 98 -97.5 156.5t-169.5 58.5z" />
    <glyph glyph-name="f" unicode="f" horiz-adv-x="788" 
d="M633 1255q-71 0 -108.5 -33.5t-37.5 -99.5v-78h263v-243h-263v-801h-266v801h-164v243h164v95q0 168 88.5 264t263.5 96q111 0 197 -45v-233q-61 34 -137 34z" />
    <glyph glyph-name="g" unicode="g" horiz-adv-x="1155" 
d="M791 0q156 0 259.5 -81.5t129.5 -225.5l-275 -74q-6 57 -51 91t-115 34h-342q-146 0 -234.5 77t-88.5 202q0 80 38.5 151t102.5 111q-139 130 -139 325q0 197 139.5 328t349.5 131q121 0 228 -49q23 85 94.5 133.5t173.5 48.5h86v-246h-74q-40 0 -69.5 -20t-36.5 -55
q90 -117 90 -271q0 -196 -141 -327t-351 -131q-86 0 -172 26q-53 -32 -53 -90q0 -38 31 -63t80 -25h340zM565 817q-94 0 -155.5 -59t-61.5 -148t61.5 -148t155.5 -59q93 0 155 59t62 148t-62 148t-155 59z" />
    <glyph glyph-name="h" unicode="h" horiz-adv-x="1243" 
d="M725 1069q185 0 296.5 -110.5t111.5 -294.5v-664h-267v578q0 106 -62 169.5t-165 63.5q-110 0 -178 -65.5t-68 -172.5v-573h-266v1475h266v-553q126 147 332 147z" />
    <glyph glyph-name="i" unicode="i" horiz-adv-x="520" 
d="M260 1198q-71 0 -119.5 48t-48.5 118t48.5 118t119.5 48t119.5 -48t48.5 -118t-48.5 -118t-119.5 -48zM127 0v1044h266v-1044h-266z" />
    <glyph glyph-name="j" unicode="j" horiz-adv-x="530" 
d="M270 1198q-71 0 -119.5 48t-48.5 118t48.5 118t119.5 48t119.5 -48t48.5 -118t-48.5 -118t-119.5 -48zM76 -414q-83 0 -144 25v239q41 -20 93 -20q112 0 112 111v1103h266v-1134q0 -150 -83 -237t-244 -87z" />
    <glyph glyph-name="k" unicode="k" horiz-adv-x="1122" 
d="M788 0l-303 360l-92 -100v-260h-266v1475h266v-859l385 428h344l-448 -483l463 -561h-349z" />
    <glyph glyph-name="l" unicode="l" horiz-adv-x="520" 
d="M127 0v1475h266v-1475h-266z" />
    <glyph glyph-name="m" unicode="m" horiz-adv-x="1886" 
d="M1386 1069q177 0 283.5 -106t106.5 -283v-680h-267v600q0 96 -55.5 153.5t-148.5 57.5q-98 0 -159 -59t-61 -156v-596h-266v600q0 95 -56.5 153t-150.5 58q-97 0 -158 -59.5t-61 -155.5v-596h-266v1044h266v-108q118 133 309 133q109 0 193.5 -44.5t134.5 -125.5
q129 170 356 170z" />
    <glyph glyph-name="n" unicode="n" horiz-adv-x="1243" 
d="M725 1069q185 0 296.5 -110.5t111.5 -294.5v-664h-267v578q0 106 -62.5 169.5t-166.5 63.5q-109 0 -176.5 -65.5t-67.5 -172.5v-573h-266v1044h266v-116q126 141 332 141z" />
    <glyph glyph-name="o" unicode="o" horiz-adv-x="1249" 
d="M625 -25q-239 0 -400.5 157t-161.5 390t161.5 390t400.5 157t400 -157t161 -390t-161 -390t-400 -157zM625 233q124 0 205 82.5t81 206.5t-81 206.5t-205 82.5q-123 0 -205 -83t-82 -206t82 -206t205 -83z" />
    <glyph glyph-name="p" unicode="p" 
d="M733 1069q143 0 259.5 -71.5t182.5 -197t66 -278.5t-66 -278.5t-182.5 -197t-259.5 -71.5q-206 0 -340 150v-514h-266v1433h266v-124q133 149 340 149zM680 233q124 0 205.5 82.5t81.5 206.5t-81.5 206.5t-205.5 82.5q-123 0 -205 -83t-82 -206t82 -206t205 -83z" />
    <glyph glyph-name="q" unicode="q" 
d="M918 1044h266v-1433h-266v514q-137 -150 -340 -150q-218 0 -364 157t-146 390t146 390t364 157q204 0 340 -149v124zM629 233q124 0 206.5 83t82.5 206t-82.5 206t-206.5 83q-123 0 -205 -83t-82 -206t82 -206t205 -83z" />
    <glyph glyph-name="r" unicode="r" horiz-adv-x="768" 
d="M694 1061h45v-275h-45q-142 0 -221.5 -78t-79.5 -212v-496h-266v1044h266v-135q120 152 301 152z" />
    <glyph glyph-name="s" unicode="s" horiz-adv-x="985" 
d="M487 -25q-254 0 -440 160l129 176q133 -116 305 -116q82 0 133.5 26t51.5 72q0 25 -14.5 44t-46.5 33t-61.5 23t-82.5 21q-36 8 -57 13t-57.5 15.5t-59 19.5t-53.5 24.5t-50.5 31.5t-41 39t-34 49t-20.5 60t-8 73q0 107 59 183t153.5 111.5t213.5 35.5q231 0 405 -137
l-129 -178q-128 96 -270 96q-72 0 -118 -23t-46 -67q0 -25 14 -43.5t46 -32t62 -22t83 -19.5q46 -10 74 -17t73 -22t73.5 -30t62 -40.5t52.5 -54.5t32.5 -71t13.5 -91q0 -107 -60 -186t-160 -117.5t-227 -38.5z" />
    <glyph glyph-name="t" unicode="t" horiz-adv-x="839" 
d="M770 801h-281v-434q0 -134 144 -134q61 0 137 35v-248q-83 -45 -195 -45q-175 0 -263.5 93.5t-88.5 255.5v477h-166v243h166v265h266v-265h281v-243z" />
    <glyph glyph-name="u" unicode="u" horiz-adv-x="1196" 
d="M598 -25q-221 0 -354 120.5t-133 320.5v628h266v-591q0 -100 60.5 -160t160.5 -60t160.5 60t60.5 160v591h266v-628q0 -199 -133.5 -320t-353.5 -121z" />
    <glyph glyph-name="v" unicode="v" horiz-adv-x="1163" 
d="M856 1044h297l-434 -1044h-275l-434 1044h303l273 -710z" />
    <glyph glyph-name="w" unicode="w" horiz-adv-x="1765" 
d="M1458 1044h291l-371 -1044h-274l-221 721l-221 -721h-275l-371 1044h297l217 -704l220 704h272l221 -704z" />
    <glyph glyph-name="x" unicode="x" horiz-adv-x="1161" 
d="M1137 0h-324l-233 342l-236 -342h-319l374 524l-368 520h323l228 -335l227 335h321l-370 -520z" />
    <glyph glyph-name="y" unicode="y" horiz-adv-x="1163" 
d="M856 1044h297l-516 -1226q-43 -107 -129 -169.5t-189 -62.5q-71 0 -146.5 29t-127.5 76l102 209q53 -56 127 -56q81 0 119 82l43 90l-426 1028h303l273 -710z" />
    <glyph glyph-name="z" unicode="z" horiz-adv-x="1017" 
d="M451 258h489v-258h-862v195l475 591h-467v258h840v-194z" />
    <glyph glyph-name="braceleft" unicode="{" horiz-adv-x="860" 
d="M584 745q0 -58 -32.5 -103t-88.5 -67q56 -24 88.5 -69t32.5 -103v-423q0 -53 30.5 -85t81.5 -32h115v-252h-217q-128 0 -206.5 79t-78.5 208v436q0 52 -30 83.5t-80 31.5h-80v251h80q49 0 79.5 32t30.5 83v434q0 129 78.5 208t206.5 79h217v-252h-115q-51 0 -81.5 -32
t-30.5 -85v-422z" />
    <glyph glyph-name="bar" unicode="|" horiz-adv-x="612" 
d="M184 -389v1925h244v-1925h-244z" />
    <glyph glyph-name="braceright" unicode="}" horiz-adv-x="860" 
d="M662 700h79v-251h-79q-50 0 -80.5 -31.5t-30.5 -83.5v-436q0 -129 -78.5 -208t-206.5 -79h-217v252h115q51 0 81.5 32t30.5 85v423q0 58 31.5 103.5t87.5 68.5q-56 22 -87.5 67t-31.5 103v422q0 53 -30.5 85t-81.5 32h-115v252h217q128 0 206.5 -79t78.5 -208v-434
q0 -51 31 -83t80 -32z" />
    <glyph glyph-name="asciitilde" unicode="~" horiz-adv-x="1187" 
d="M774 428q-67 0 -127.5 26t-107.5 52t-80 26q-43 0 -70 -26.5t-27 -67.5h-243q0 162 73 260.5t222 98.5q53 0 103 -16.5t81.5 -36t67.5 -36t63 -16.5q41 0 68.5 27t27.5 67h244q0 -162 -73 -260t-222 -98z" />
    <glyph glyph-name="uni00A0" unicode="&#xa0;" horiz-adv-x="466" 
 />
    <glyph glyph-name="exclamdown" unicode="&#xa1;" horiz-adv-x="557" 
d="M279 707q-77 0 -129 51t-52 127t52 127t129 51q78 0 129 -50.5t51 -127.5t-51 -127.5t-129 -50.5zM139 -369v349l17 614h247l17 -614v-349h-281z" />
    <glyph glyph-name="cent" unicode="&#xa2;" horiz-adv-x="1212" 
d="M1137 418q-64 -104 -167.5 -170.5t-232.5 -83.5v-164h-162v162q-211 26 -347 178t-136 365q0 214 135.5 366t347.5 178v164h162v-166q128 -17 232 -84.5t166 -169.5l-232 -129q-61 97 -166 123v-565q107 30 166 127zM362 705q0 -103 59 -180.5t154 -102.5v567
q-95 -25 -154 -102.5t-59 -181.5z" />
    <glyph glyph-name="sterling" unicode="&#xa3;" horiz-adv-x="1196" 
d="M494 266h639v-266h-1035v266h113v291h-113v242h113v168q0 201 142.5 336t355.5 135q121 0 230.5 -46.5t188.5 -125.5l-145 -207q-55 48 -127 77t-143 29q-96 0 -157.5 -55.5t-61.5 -142.5v-168h393v-242h-393v-291z" />
    <glyph glyph-name="currency" unicode="&#xa4;" horiz-adv-x="1122" 
d="M967 709q0 -104 -49 -191l124 -125l-161 -162l-133 131q-84 -38 -187 -38q-101 0 -182 38l-135 -131l-164 162l127 127q-49 87 -49 189q0 101 49 188l-127 127l164 162l133 -131q86 39 184 39t184 -39l136 133l161 -166l-124 -123q49 -87 49 -190zM561 530
q77 0 128.5 51.5t51.5 127.5t-51.5 127t-128.5 51q-75 0 -125.5 -51.5t-50.5 -126.5q0 -76 50.5 -127.5t125.5 -51.5z" />
    <glyph glyph-name="yen" unicode="&#xa5;" horiz-adv-x="1327" 
d="M1303 1413l-418 -772h174v-174h-254v-90h254v-174h-254v-203h-281v203h-254v174h254v90h-254v174h174l-419 772h317l326 -629l325 629h310z" />
    <glyph glyph-name="brokenbar" unicode="&#xa6;" horiz-adv-x="612" 
d="M184 696v840h244v-840h-244zM184 -389v840h244v-840h-244z" />
    <glyph glyph-name="section" unicode="&#xa7;" horiz-adv-x="1085" 
d="M829 383q134 -88 134 -240q0 -105 -58 -183.5t-154.5 -117.5t-215.5 -39q-121 0 -229.5 39t-178.5 105l106 164q42 -45 116 -75t157 -30q87 0 140.5 34.5t53.5 88.5q0 56 -61.5 91t-163.5 59q-59 13 -106.5 29.5t-95 43t-79 60t-51.5 83t-20 109.5q0 170 137 260
q-129 92 -129 240q0 154 121.5 244t304.5 90q110 0 213.5 -34t171.5 -93l-102 -162q-42 38 -113 62t-145 24q-84 0 -135.5 -33t-51.5 -84q0 -100 223 -147q60 -13 108.5 -30t96 -43.5t79.5 -60.5t51.5 -83t19.5 -109q0 -169 -144 -262zM555 492q67 3 111.5 39t44.5 87
q0 103 -174 138q-66 -3 -109 -38t-43 -87q0 -99 170 -139z" />
    <glyph glyph-name="dieresis" unicode="&#xa8;" horiz-adv-x="743" 
d="M152 1157q-65 0 -108.5 43t-43.5 107q0 63 44 106t108 43t107.5 -43t43.5 -106q0 -64 -43 -107t-108 -43zM594 1157q-65 0 -108.5 43t-43.5 107q0 63 44 106t108 43q63 0 106 -43t43 -106q0 -64 -43 -107t-106 -43z" />
    <glyph glyph-name="copyright" unicode="&#xa9;" horiz-adv-x="1648" 
d="M825 -25q-205 0 -372.5 95.5t-263 263.5t-95.5 373t95.5 372.5t263 263t372.5 95.5t372.5 -95.5t263 -263t95.5 -372.5t-95.5 -373t-263 -263.5t-372.5 -95.5zM825 154q151 0 276 72t197 199t72 282t-72 282t-197 199t-276 72q-152 0 -277.5 -72t-197 -199t-71.5 -282
t71.5 -282t197 -199t277.5 -72zM836 322q-166 0 -276.5 110.5t-110.5 274.5t110.5 274.5t276.5 110.5q111 0 200.5 -51.5t137.5 -139.5l-187 -96q-50 82 -151 82q-76 0 -127.5 -52.5t-51.5 -127.5q0 -76 51.5 -128.5t127.5 -52.5q101 0 151 82l187 -96q-48 -88 -137.5 -139
t-200.5 -51z" />
    <glyph glyph-name="ordfeminine" unicode="&#xaa;" horiz-adv-x="768" 
d="M494 1415h196v-557h-196v60q-70 -76 -166 -76q-116 0 -193.5 84.5t-77.5 210.5t77.5 210.5t193.5 84.5q96 0 166 -76v59zM375 1016q51 0 85 34.5t34 86.5t-34 86t-85 34t-85 -34t-34 -86t34 -86.5t85 -34.5z" />
    <glyph glyph-name="guillemotleft" unicode="&#xab;" horiz-adv-x="1300" 
d="M690 958l-311 -417l311 -418h-311l-313 418l313 417h311zM1237 958l-313 -417l313 -418h-313l-312 418l312 417h313z" />
    <glyph glyph-name="logicalnot" unicode="&#xac;" horiz-adv-x="1093" 
d="M119 725h856v-549h-244v309h-612v240z" />
    <glyph glyph-name="uni00AD" unicode="&#xad;" horiz-adv-x="835" 
d="M119 432v258h598v-258h-598z" />
    <glyph glyph-name="registered" unicode="&#xae;" horiz-adv-x="870" 
d="M436 1438q161 0 269 -108t108 -271q0 -161 -108 -269t-269 -108q-163 0 -271 108t-108 269q0 163 108 271t271 108zM436 778q117 0 196 80.5t79 200.5q0 121 -79 201.5t-196 80.5q-120 0 -199 -80t-79 -202q0 -120 79 -200.5t199 -80.5zM594 1137q0 -39 -19.5 -70.5
t-52.5 -46.5l82 -137h-102l-72 125h-29v-125h-92v383h156q55 0 92 -37t37 -92zM401 1182v-92h56q20 0 33.5 13.5t13.5 33.5t-13.5 32.5t-33.5 12.5h-56z" />
    <glyph glyph-name="macron" unicode="&#xaf;" horiz-adv-x="540" 
d="M0 1182v223h541v-223h-541z" />
    <glyph glyph-name="degree" unicode="&#xb0;" horiz-adv-x="792" 
d="M395 793q-140 0 -233.5 92.5t-93.5 230.5q0 137 94 229.5t233 92.5q141 0 235.5 -92.5t94.5 -229.5q0 -138 -94.5 -230.5t-235.5 -92.5zM395 999q49 0 82 33.5t33 83.5t-33 82.5t-82 32.5t-81.5 -32.5t-32.5 -82.5t32.5 -83.5t81.5 -33.5z" />
    <glyph glyph-name="plusminus" unicode="&#xb1;" horiz-adv-x="1093" 
d="M668 885h307v-240h-307v-235h-242v235h-307v240h307v233h242v-233zM119 61v240h856v-240h-856z" />
    <glyph glyph-name="uni00B2" unicode="&#xb2;" horiz-adv-x="661" 
d="M322 932h294v-182h-567v157l277 293q80 85 80 137q0 36 -29 58t-70 22q-82 0 -153 -84l-131 125q45 70 124.5 112t171.5 42q126 0 204.5 -73.5t78.5 -188.5q0 -128 -106 -238z" />
    <glyph glyph-name="uni00B3" unicode="&#xb3;" horiz-adv-x="696" 
d="M528 1192q60 -31 94.5 -85.5t34.5 -121.5q0 -110 -90.5 -180t-232.5 -70q-91 0 -176 31.5t-140 87.5l111 143q35 -35 87 -55t106 -20q60 0 98.5 26t38.5 66q0 41 -38 67.5t-95 26.5h-119v166h119q51 0 82.5 21t31.5 53q0 34 -36.5 55.5t-92.5 21.5q-96 0 -159 -53
l-105 139q51 46 129.5 73.5t159.5 27.5q134 0 218.5 -66t84.5 -170q0 -119 -111 -184z" />
    <glyph glyph-name="acute" unicode="&#xb4;" horiz-adv-x="542" 
d="M0 1159l207 293h336l-262 -293h-281z" />
    <glyph glyph-name="paragraph" unicode="&#xb6;" 
d="M1174 1413v-1802h-230v1577h-143v-1577h-228v946h-88q-183 0 -305.5 122.5t-122.5 305.5t122.5 305.5t305.5 122.5h689z" />
    <glyph glyph-name="periodcentered" unicode="&#xb7;" horiz-adv-x="610" 
d="M305 377q-79 0 -132.5 53t-53.5 131t53.5 131t132.5 53t133 -53t54 -131t-54 -131t-133 -53z" />
    <glyph glyph-name="cedilla" unicode="&#xb8;" horiz-adv-x="477" 
d="M285 -59q82 -6 137 -67t55 -148q0 -96 -70.5 -161t-175.5 -65q-140 0 -231 105l92 110q59 -69 133 -69q40 0 66 23t26 57t-23.5 56.5t-57.5 22.5q-43 0 -64 -28l-147 67l125 156v4h184v-4z" />
    <glyph glyph-name="uni00B9" unicode="&#xb9;" horiz-adv-x="503" 
d="M274 1597h140v-847h-195v614l-123 -70l-86 158z" />
    <glyph glyph-name="ordmasculine" unicode="&#xba;" horiz-adv-x="749" 
d="M375 842q-134 0 -226 84.5t-92 210.5t92 210.5t226 84.5q135 0 226 -84.5t91 -210.5t-91 -210.5t-226 -84.5zM375 1016q51 0 86 34.5t35 86.5q0 51 -35 85.5t-86 34.5q-50 0 -84.5 -34t-34.5 -86t34.5 -86.5t84.5 -34.5z" />
    <glyph glyph-name="guillemotright" unicode="&#xbb;" horiz-adv-x="1300" 
d="M385 958l313 -417l-313 -418h-311l313 418l-313 417h311zM932 958l313 -417l-313 -418h-311l311 418l-311 417h311z" />
    <glyph glyph-name="onequarter" unicode="&#xbc;" horiz-adv-x="1634" 
d="M219 565v615l-123 -70l-86 158l264 145h140v-848h-195zM1169 1413h246l-971 -1413h-243zM1583 336v-182h-82v-154h-194v154h-344l-45 157l368 537h215v-512h82zM1114 336h193v289z" />
    <glyph glyph-name="onehalf" unicode="&#xbd;" horiz-adv-x="1681" 
d="M219 565v615l-123 -70l-86 158l264 145h140v-848h-195zM1169 1413h246l-971 -1413h-243zM1339 182h295v-182h-567v158l276 293q80 85 80 137q0 36 -28.5 58t-69.5 22q-83 0 -154 -84l-131 125q45 70 124.5 111.5t172.5 41.5q126 0 204.5 -73.5t78.5 -188.5
q0 -127 -107 -238z" />
    <glyph glyph-name="threequarters" unicode="&#xbe;" horiz-adv-x="1744" 
d="M657 801q0 -110 -90.5 -180t-232.5 -70q-91 0 -176 31.5t-140 87.5l111 143q35 -35 87 -55.5t106 -20.5q60 0 98.5 26t38.5 66q0 41 -38 68t-95 27h-119v166h119q51 0 82.5 20.5t31.5 52.5q0 34 -36.5 56t-92.5 22q-96 0 -159 -53l-105 139q51 46 129 73t160 27
q134 0 218.5 -65.5t84.5 -169.5q0 -119 -111 -184q60 -31 94.5 -85.5t34.5 -121.5zM1280 1413h246l-971 -1413h-244zM1694 336v-182h-82v-154h-195v154h-344l-45 157l369 537h215v-512h82zM1225 336h192v289z" />
    <glyph glyph-name="questiondown" unicode="&#xbf;" horiz-adv-x="962" 
d="M514 707q-78 0 -129 50.5t-51 127.5t51 127.5t129 50.5q77 0 128.5 -51t51.5 -127t-51.5 -127t-128.5 -51zM502 -393q-194 0 -323.5 114t-129.5 279q0 78 33.5 148.5t81 121t95 95t81 89.5t33.5 87v49h280v-49q0 -57 -23 -111t-58 -94t-75.5 -82.5t-75.5 -76.5t-58 -74.5
t-23 -79.5q0 -63 48.5 -103.5t127.5 -40.5q83 0 160 42.5t139 121.5l182 -186q-92 -118 -221 -184t-274 -66z" />
    <glyph glyph-name="Agrave" unicode="&#xc0;" horiz-adv-x="1466" 
d="M889 1528h-281l-262 293h336zM1135 0l-101 274h-606l-100 -274h-305l544 1413h334l543 -1413h-309zM522 535h416l-207 567z" />
    <glyph glyph-name="Aacute" unicode="&#xc1;" horiz-adv-x="1466" 
d="M1120 1821l-262 -293h-280l206 293h336zM1135 0l-101 274h-606l-100 -274h-305l544 1413h334l543 -1413h-309zM522 535h416l-207 567z" />
    <glyph glyph-name="Acircumflex" unicode="&#xc2;" horiz-adv-x="1466" 
d="M733 1677l-115 -149h-249l202 293h322l203 -293h-250zM1135 0l-101 274h-606l-100 -274h-305l544 1413h334l543 -1413h-309zM522 535h416l-207 567z" />
    <glyph glyph-name="Atilde" unicode="&#xc3;" horiz-adv-x="1466" 
d="M631 1624q-35 0 -56.5 -22.5t-21.5 -55.5h-188q0 127 61 209t172 82q39 0 75.5 -13.5t59 -30.5t49 -30.5t49.5 -13.5q34 0 57 24t23 58h187q0 -129 -60.5 -210t-171.5 -81q-40 0 -77 13t-59 29t-49 29t-50 13zM1135 0l-101 274h-606l-100 -274h-305l544 1413h334
l543 -1413h-309zM522 535h416l-207 567z" />
    <glyph glyph-name="Adieresis" unicode="&#xc4;" horiz-adv-x="1466" 
d="M512 1526q-65 0 -108.5 42.5t-43.5 106.5q0 63 44 106.5t108 43.5t108 -43.5t44 -106.5q0 -64 -43.5 -106.5t-108.5 -42.5zM954 1526q-65 0 -108 42.5t-43 106.5q0 63 43.5 106.5t107.5 43.5q63 0 106.5 -43.5t43.5 -106.5q0 -64 -43.5 -106.5t-106.5 -42.5zM1135 0
l-101 274h-606l-100 -274h-305l544 1413h334l543 -1413h-309zM522 535h416l-207 567z" />
    <glyph glyph-name="Aring" unicode="&#xc5;" horiz-adv-x="1466" 
d="M733 1503q-91 0 -151 58.5t-60 146.5t60 146.5t151 58.5q89 0 149 -58.5t60 -146.5t-60 -146.5t-149 -58.5zM733 1780q-30 0 -49.5 -20.5t-19.5 -51.5t19.5 -51.5t49.5 -20.5q29 0 49.5 20.5t20.5 51.5t-20.5 51.5t-49.5 20.5zM1135 0l-101 274h-606l-100 -274h-305
l544 1413h334l543 -1413h-309zM522 535h416l-207 567z" />
    <glyph glyph-name="AE" unicode="&#xc6;" horiz-adv-x="1863" 
d="M1184 266h594v-266h-877v268h-489l-156 -268h-322l824 1413h1009v-266h-583v-303h518v-266h-518v-312zM561 528h340v588z" />
    <glyph glyph-name="Ccedilla" unicode="&#xc7;" horiz-adv-x="1488" 
d="M817 248q119 0 218 52t161 144l244 -151q-87 -129 -225 -211t-306 -102l-35 -41q82 -6 137.5 -67t55.5 -148q0 -96 -70.5 -161t-175.5 -65q-140 0 -231 105l92 110q59 -69 133 -69q40 0 66 23t26 57q0 33 -24 56t-58 23q-42 0 -63 -28l-148 67l111 138
q-187 21 -335.5 120.5t-233 258t-84.5 348.5q0 154 57 289.5t156 232.5t237 153t295 56q196 0 360 -85t263 -233l-244 -151q-62 92 -161 144t-218 52q-194 0 -324.5 -131t-130.5 -327t130.5 -327.5t324.5 -131.5z" />
    <glyph glyph-name="Egrave" unicode="&#xc8;" horiz-adv-x="1189" 
d="M780 1528h-280l-262 293h335zM426 266h678v-266h-961v1413h951v-266h-668v-303h600v-266h-600v-312z" />
    <glyph glyph-name="Eacute" unicode="&#xc9;" horiz-adv-x="1189" 
d="M1014 1821l-262 -293h-281l207 293h336zM426 266h678v-266h-961v1413h951v-266h-668v-303h600v-266h-600v-312z" />
    <glyph glyph-name="Ecircumflex" unicode="&#xca;" horiz-adv-x="1189" 
d="M625 1677l-115 -149h-250l203 293h321l203 -293h-250zM426 266h678v-266h-961v1413h951v-266h-668v-303h600v-266h-600v-312z" />
    <glyph glyph-name="Edieresis" unicode="&#xcb;" horiz-adv-x="1189" 
d="M403 1526q-65 0 -108 42.5t-43 106.5q0 63 43.5 106.5t107.5 43.5t108 -43.5t44 -106.5q0 -64 -43.5 -106.5t-108.5 -42.5zM846 1526q-65 0 -108.5 42.5t-43.5 106.5q0 63 44 106.5t108 43.5q63 0 106 -43.5t43 -106.5q0 -64 -43 -106.5t-106 -42.5zM426 266h678v-266
h-961v1413h951v-266h-668v-303h600v-266h-600v-312z" />
    <glyph glyph-name="Igrave" unicode="&#xcc;" horiz-adv-x="569" 
d="M160 1528l-262 293h335l207 -293h-280zM143 0v1413h283v-1413h-283z" />
    <glyph glyph-name="Iacute" unicode="&#xcd;" horiz-adv-x="569" 
d="M131 1528l207 293h336l-262 -293h-281zM143 0v1413h283v-1413h-283z" />
    <glyph glyph-name="Icircumflex" unicode="&#xce;" horiz-adv-x="569" 
d="M287 1677l-115 -149h-250l203 293h321l203 -293h-250zM143 0v1413h283v-1413h-283z" />
    <glyph glyph-name="Idieresis" unicode="&#xcf;" horiz-adv-x="569" 
d="M66 1526q-65 0 -108.5 42.5t-43.5 106.5q0 63 44 106.5t108 43.5t107.5 -43.5t43.5 -106.5q0 -64 -43 -106.5t-108 -42.5zM508 1526q-65 0 -108.5 42.5t-43.5 106.5q0 63 44 106.5t108 43.5q63 0 106 -43.5t43 -106.5q0 -64 -43 -106.5t-106 -42.5zM143 0v1413h283v-1413
h-283z" />
    <glyph glyph-name="Eth" unicode="&#xd0;" horiz-adv-x="1488" 
d="M696 1413q152 0 286 -54t229.5 -147.5t150.5 -224.5t55 -280t-55 -280t-150.5 -225t-229.5 -148t-286 -54h-553v610h-131v191h131v612h553zM690 266q187 0 311.5 126t124.5 315t-124.5 314.5t-311.5 125.5h-264v-346h213v-191h-213v-344h264z" />
    <glyph glyph-name="Ntilde" unicode="&#xd1;" horiz-adv-x="1499" 
d="M655 1624q-34 0 -55.5 -22.5t-21.5 -55.5h-189q0 127 61.5 209t172.5 82q39 0 75.5 -13.5t59 -30.5t49 -30.5t49.5 -13.5q34 0 57 24t23 58h186q0 -129 -60.5 -210t-170.5 -81q-51 0 -95 21t-78.5 42t-62.5 21zM1073 1413h283v-1413h-287l-643 928v-928h-283v1413h287
l643 -928v928z" />
    <glyph glyph-name="Ograve" unicode="&#xd2;" horiz-adv-x="1634" 
d="M692 1528l-262 293h336l207 -293h-281zM817 -25q-157 0 -295 56.5t-237 153.5t-156 232.5t-57 289.5t57 289.5t156 232.5t237 153t295 56q209 0 380 -95.5t268.5 -263t97.5 -372.5q0 -154 -57.5 -289.5t-156 -232.5t-237 -153.5t-295.5 -56.5zM817 248q194 0 324.5 131.5
t130.5 327.5t-130.5 327t-324.5 131t-324.5 -131t-130.5 -327t130.5 -327.5t324.5 -131.5z" />
    <glyph glyph-name="Oacute" unicode="&#xd3;" horiz-adv-x="1634" 
d="M664 1528l206 293h336l-262 -293h-280zM817 -25q-157 0 -295 56.5t-237 153.5t-156 232.5t-57 289.5t57 289.5t156 232.5t237 153t295 56q209 0 380 -95.5t268.5 -263t97.5 -372.5q0 -154 -57.5 -289.5t-156 -232.5t-237 -153.5t-295.5 -56.5zM817 248q194 0 324.5 131.5
t130.5 327.5t-130.5 327t-324.5 131t-324.5 -131t-130.5 -327t130.5 -327.5t324.5 -131.5z" />
    <glyph glyph-name="Ocircumflex" unicode="&#xd4;" horiz-adv-x="1634" 
d="M817 1677l-115 -149h-249l202 293h322l203 -293h-250zM817 1438q209 0 380 -95.5t268.5 -263t97.5 -372.5q0 -154 -57.5 -289.5t-156 -232.5t-237 -153.5t-295.5 -56.5t-295 56.5t-237 153.5t-156 232.5t-57 289.5t57 289.5t156 232.5t237 153t295 56zM817 248
q194 0 324.5 131.5t130.5 327.5t-130.5 327t-324.5 131t-324.5 -131t-130.5 -327t130.5 -327.5t324.5 -131.5z" />
    <glyph glyph-name="Otilde" unicode="&#xd5;" horiz-adv-x="1634" 
d="M950 1540q-40 0 -77 13t-59 29t-49 29t-50 13q-35 0 -56.5 -22.5t-21.5 -55.5h-188q0 127 61 209t172 82q39 0 75.5 -13.5t59 -30.5t49 -30.5t49.5 -13.5q34 0 57 24t23 58h187q0 -129 -60.5 -210t-171.5 -81zM817 -25q-157 0 -295 56.5t-237 153.5t-156 232.5t-57 289.5
t57 289.5t156 232.5t237 153t295 56q209 0 380 -95.5t268.5 -263t97.5 -372.5q0 -154 -57.5 -289.5t-156 -232.5t-237 -153.5t-295.5 -56.5zM817 248q194 0 324.5 131.5t130.5 327.5t-130.5 327t-324.5 131t-324.5 -131t-130.5 -327t130.5 -327.5t324.5 -131.5z" />
    <glyph glyph-name="Odieresis" unicode="&#xd6;" horiz-adv-x="1634" 
d="M596 1526q-65 0 -108.5 42.5t-43.5 106.5q0 63 44 106.5t108 43.5t108 -43.5t44 -106.5q0 -64 -43.5 -106.5t-108.5 -42.5zM1038 1526q-65 0 -108 42.5t-43 106.5q0 63 43.5 106.5t107.5 43.5q63 0 106.5 -43.5t43.5 -106.5q0 -64 -43.5 -106.5t-106.5 -42.5zM817 -25
q-157 0 -295 56.5t-237 153.5t-156 232.5t-57 289.5t57 289.5t156 232.5t237 153t295 56q209 0 380 -95.5t268.5 -263t97.5 -372.5q0 -154 -57.5 -289.5t-156 -232.5t-237 -153.5t-295.5 -56.5zM817 248q194 0 324.5 131.5t130.5 327.5t-130.5 327t-324.5 131t-324.5 -131
t-130.5 -327t130.5 -327.5t324.5 -131.5z" />
    <glyph glyph-name="multiply" unicode="&#xd7;" horiz-adv-x="1017" 
d="M899 819l-215 -215l215 -215l-174 -176l-215 217l-217 -217l-174 176l215 215l-215 215l174 176l217 -215l215 215z" />
    <glyph glyph-name="Oslash" unicode="&#xd8;" horiz-adv-x="1634" 
d="M1366 1210q197 -210 197 -503q0 -154 -57.5 -289.5t-156 -232.5t-237 -153.5t-295.5 -56.5q-229 0 -414 117l-77 -92h-236l176 205q-194 207 -194 502q0 154 57 289.5t156 232.5t237 153t295 56q230 0 412 -115l78 90h235zM362 707q0 -159 93 -283l589 684
q-105 57 -227 57q-194 0 -324.5 -131t-130.5 -327zM817 248q194 0 324.5 131.5t130.5 327.5q0 158 -92 284l-590 -686q102 -57 227 -57z" />
    <glyph glyph-name="Ugrave" unicode="&#xd9;" horiz-adv-x="1404" 
d="M578 1528l-263 293h336l207 -293h-280zM702 -25q-165 0 -299 74.5t-210 205.5t-76 292v866h282v-862q0 -129 86.5 -216t216.5 -87t217 87t87 216v862h282v-866q0 -161 -76.5 -292t-210.5 -205.5t-299 -74.5z" />
    <glyph glyph-name="Uacute" unicode="&#xda;" horiz-adv-x="1404" 
d="M549 1528l207 293h336l-263 -293h-280zM702 -25q-165 0 -299 74.5t-210 205.5t-76 292v866h282v-862q0 -129 86.5 -216t216.5 -87t217 87t87 216v862h282v-866q0 -161 -76.5 -292t-210.5 -205.5t-299 -74.5z" />
    <glyph glyph-name="Ucircumflex" unicode="&#xdb;" horiz-adv-x="1404" 
d="M702 1677l-114 -149h-250l203 293h321l203 -293h-250zM1006 1413h282v-866q0 -161 -76.5 -292t-210.5 -205.5t-299 -74.5t-299 74.5t-210 205.5t-76 292v866h282v-862q0 -129 86.5 -216t216.5 -87t217 87t87 216v862z" />
    <glyph glyph-name="Udieresis" unicode="&#xdc;" horiz-adv-x="1404" 
d="M481 1526q-65 0 -108 42.5t-43 106.5q0 63 43.5 106.5t107.5 43.5t108 -43.5t44 -106.5q0 -64 -43.5 -106.5t-108.5 -42.5zM924 1526q-65 0 -108.5 42.5t-43.5 106.5q0 63 44 106.5t108 43.5q63 0 106 -43.5t43 -106.5q0 -64 -43 -106.5t-106 -42.5zM702 -25
q-165 0 -299 74.5t-210 205.5t-76 292v866h282v-862q0 -129 86.5 -216t216.5 -87t217 87t87 216v862h282v-866q0 -161 -76.5 -292t-210.5 -205.5t-299 -74.5z" />
    <glyph glyph-name="Yacute" unicode="&#xdd;" horiz-adv-x="1380" 
d="M1079 1821l-262 -293h-280l206 293h336zM1067 1413h315l-551 -917v-496h-282v496l-551 917h324l372 -631z" />
    <glyph glyph-name="Thorn" unicode="&#xde;" horiz-adv-x="1282" 
d="M760 1180q206 0 345.5 -135t139.5 -336q0 -202 -139.5 -336.5t-345.5 -134.5h-334v-238h-283v1413h283v-233h334zM754 504q86 0 143 58t57 147q0 88 -57 146t-143 58h-328v-409h328z" />
    <glyph glyph-name="germandbls" unicode="&#xdf;" horiz-adv-x="1157" 
d="M872 766q107 -39 174.5 -138.5t67.5 -228.5q0 -181 -127.5 -302.5t-322.5 -121.5q-90 0 -160 25v258q55 -25 127 -25q95 0 152 57t57 142q0 87 -58.5 146t-142.5 59h-92v256h74q70 0 118.5 49.5t48.5 122.5q0 76 -55.5 126t-140.5 50q-88 0 -146.5 -57.5t-58.5 -143.5
v-1040h-266v1063q0 186 133.5 311t337.5 125q199 0 335 -118t136 -289q0 -103 -52 -190.5t-139 -135.5z" />
    <glyph glyph-name="agrave" unicode="&#xe0;" 
d="M817 1159h-280l-263 293h336zM918 1044h266v-1044h-266v125q-137 -150 -340 -150q-218 0 -364 157t-146 390t146 390t364 157q204 0 340 -149v124zM629 233q124 0 206.5 83t82.5 206t-82.5 206t-206.5 83q-123 0 -205 -83t-82 -206t82 -206t205 -83z" />
    <glyph glyph-name="aacute" unicode="&#xe1;" 
d="M1051 1452l-263 -293h-280l207 293h336zM918 1044h266v-1044h-266v125q-137 -150 -340 -150q-218 0 -364 157t-146 390t146 390t364 157q204 0 340 -149v124zM629 233q124 0 206.5 83t82.5 206t-82.5 206t-206.5 83q-123 0 -205 -83t-82 -206t82 -206t205 -83z" />
    <glyph glyph-name="acircumflex" unicode="&#xe2;" 
d="M664 1309l-115 -150h-250l203 293h321l203 -293h-250zM918 1044h266v-1044h-266v125q-137 -150 -340 -150q-218 0 -364 157t-146 390t146 390t364 157q204 0 340 -149v124zM629 233q124 0 206.5 83t82.5 206t-82.5 206t-206.5 83q-123 0 -205 -83t-82 -206t82 -206
t205 -83z" />
    <glyph glyph-name="atilde" unicode="&#xe3;" 
d="M561 1255q-35 0 -56.5 -22t-21.5 -55h-188q0 127 61 208.5t172 81.5q50 0 93.5 -22t78 -44t62.5 -22q34 0 57 24t23 58h186q0 -129 -60.5 -210t-170.5 -81q-51 0 -95 21t-78.5 42t-62.5 21zM918 1044h266v-1044h-266v125q-137 -150 -340 -150q-218 0 -364 157t-146 390
t146 390t364 157q204 0 340 -149v124zM629 233q124 0 206.5 83t82.5 206t-82.5 206t-206.5 83q-123 0 -205 -83t-82 -206t82 -206t205 -83z" />
    <glyph glyph-name="adieresis" unicode="&#xe4;" 
d="M442 1157q-65 0 -108 43t-43 107q0 63 43.5 106t107.5 43t108 -43t44 -106q0 -64 -43.5 -107t-108.5 -43zM885 1157q-65 0 -108.5 43t-43.5 107q0 63 44 106t108 43q63 0 106 -43t43 -106q0 -64 -43 -107t-106 -43zM918 1044h266v-1044h-266v125q-137 -150 -340 -150
q-218 0 -364 157t-146 390t146 390t364 157q204 0 340 -149v124zM629 233q124 0 206.5 83t82.5 206t-82.5 206t-206.5 83q-123 0 -205 -83t-82 -206t82 -206t205 -83z" />
    <glyph glyph-name="aring" unicode="&#xe5;" 
d="M664 1135q-91 0 -151 58t-60 146t60 146.5t151 58.5q89 0 148.5 -58.5t59.5 -146.5t-59.5 -146t-148.5 -58zM664 1411q-31 0 -50.5 -20.5t-19.5 -51.5t19.5 -51t50.5 -20q29 0 49 20t20 51t-20 51.5t-49 20.5zM918 1044h266v-1044h-266v125q-137 -150 -340 -150
q-218 0 -364 157t-146 390t146 390t364 157q204 0 340 -149v124zM629 233q124 0 206.5 83t82.5 206t-82.5 206t-206.5 83q-123 0 -205 -83t-82 -206t82 -206t205 -83z" />
    <glyph glyph-name="ae" unicode="&#xe6;" horiz-adv-x="1890" 
d="M1831 516q0 -50 -6 -84h-811q26 -102 106.5 -161.5t192.5 -59.5q88 0 161.5 36t116.5 91l185 -154q-85 -99 -206 -154t-263 -55q-124 0 -232 45.5t-184 126.5q-66 -77 -177 -124.5t-245 -47.5q-189 0 -304.5 94t-115.5 236q0 138 111.5 230t279.5 92h303v28
q0 85 -65.5 136t-173.5 51q-147 0 -234 -103l-155 152q61 83 165.5 130.5t235.5 47.5q120 0 218.5 -41t164.5 -115q153 156 383 156q116 0 217.5 -42t174.5 -114.5t115 -175.5t42 -221zM1280 836q-96 0 -166.5 -57t-97.5 -152h530q-26 95 -98.5 152t-167.5 57zM508 190
q80 0 153 31.5t125 83.5q-26 66 -34 127h-267q-71 0 -116 -33.5t-45 -83.5q0 -54 51.5 -89.5t132.5 -35.5z" />
    <glyph glyph-name="ccedilla" unicode="&#xe7;" horiz-adv-x="1144" 
d="M625 233q81 0 147 38.5t102 103.5l232 -139q-61 -101 -161.5 -167.5t-225.5 -86.5l-37 -43q82 -6 137 -67t55 -148q0 -96 -70 -161t-175 -65q-141 0 -232 105l92 110q27 -31 63 -50t71 -19q40 0 66 23t26 57q0 33 -24 56t-58 23q-43 0 -64 -28l-147 67l113 140
q-207 31 -339.5 181t-132.5 359q0 233 161.5 390t400.5 157q156 0 282.5 -70t198.5 -190l-232 -139q-36 64 -101.5 102.5t-147.5 38.5q-123 0 -205 -83t-82 -206t82 -206t205 -83z" />
    <glyph glyph-name="egrave" unicode="&#xe8;" horiz-adv-x="1226" 
d="M780 1159h-280l-262 293h335zM1167 520q0 -50 -6 -94h-809q28 -99 107 -157t192 -58q91 0 167 36.5t120 92.5l178 -156q-83 -99 -205.5 -154t-267.5 -55q-164 0 -297 72t-208 198.5t-75 280.5q0 152 72.5 276.5t200 195.5t282.5 71q235 0 392 -156.5t157 -392.5zM616 836
q-97 0 -169 -58.5t-97 -156.5h533q-25 98 -97.5 156.5t-169.5 58.5z" />
    <glyph glyph-name="eacute" unicode="&#xe9;" horiz-adv-x="1226" 
d="M1014 1452l-262 -293h-281l207 293h336zM1167 520q0 -50 -6 -94h-809q28 -99 107 -157t192 -58q91 0 167 36.5t120 92.5l178 -156q-83 -99 -205.5 -154t-267.5 -55q-164 0 -297 72t-208 198.5t-75 280.5q0 152 72.5 276.5t200 195.5t282.5 71q235 0 392 -156.5
t157 -392.5zM616 836q-97 0 -169 -58.5t-97 -156.5h533q-25 98 -97.5 156.5t-169.5 58.5z" />
    <glyph glyph-name="ecircumflex" unicode="&#xea;" horiz-adv-x="1226" 
d="M627 1309l-115 -150h-250l203 293h321l203 -293h-250zM1167 520q0 -50 -6 -94h-809q28 -99 107 -157t192 -58q91 0 167 36.5t120 92.5l178 -156q-83 -99 -205.5 -154t-267.5 -55q-164 0 -297 72t-208 198.5t-75 280.5q0 152 72.5 276.5t200 195.5t282.5 71
q235 0 392 -156.5t157 -392.5zM616 836q-97 0 -169 -58.5t-97 -156.5h533q-25 98 -97.5 156.5t-169.5 58.5z" />
    <glyph glyph-name="edieresis" unicode="&#xeb;" horiz-adv-x="1226" 
d="M406 1157q-65 0 -108.5 43t-43.5 107q0 63 44 106t108 43t107.5 -43t43.5 -106q0 -64 -43 -107t-108 -43zM848 1157q-65 0 -108.5 43t-43.5 107q0 63 44 106t108 43q63 0 106 -43t43 -106q0 -64 -43 -107t-106 -43zM1167 520q0 -50 -6 -94h-809q28 -99 107 -157t192 -58
q91 0 167 36.5t120 92.5l178 -156q-83 -99 -205.5 -154t-267.5 -55q-164 0 -297 72t-208 198.5t-75 280.5q0 152 72.5 276.5t200 195.5t282.5 71q235 0 392 -156.5t157 -392.5zM616 836q-97 0 -169 -58.5t-97 -156.5h533q-25 98 -97.5 156.5t-169.5 58.5z" />
    <glyph glyph-name="igrave" unicode="&#xec;" horiz-adv-x="520" 
d="M135 1159l-262 293h336l207 -293h-281zM127 0v1044h266v-1044h-266z" />
    <glyph glyph-name="iacute" unicode="&#xed;" horiz-adv-x="520" 
d="M106 1159l207 293h336l-262 -293h-281zM127 0v1044h266v-1044h-266z" />
    <glyph glyph-name="icircumflex" unicode="&#xee;" horiz-adv-x="520" 
d="M260 1309l-115 -150h-249l202 293h322l203 -293h-250zM127 0v1044h266v-1044h-266z" />
    <glyph glyph-name="idieresis" unicode="&#xef;" horiz-adv-x="520" 
d="M39 1157q-65 0 -108.5 43t-43.5 107q0 63 44 106t108 43t107.5 -43t43.5 -106q0 -64 -43 -107t-108 -43zM481 1157q-65 0 -108 43t-43 107q0 63 43.5 106t107.5 43q63 0 106.5 -43t43.5 -106q0 -64 -43.5 -107t-106.5 -43zM127 0v1044h266v-1044h-266z" />
    <glyph glyph-name="eth" unicode="&#xf0;" horiz-adv-x="1193" 
d="M692 1339q202 -133 319 -349t117 -455q0 -130 -40.5 -236.5t-111.5 -177t-167.5 -108.5t-208.5 -38q-231 0 -384 149t-153 372q0 108 39 204t105.5 164t157 108t190.5 40q118 0 213 -56q-93 122 -240 197l-69 -78h-197l121 137q-91 22 -152 27v252q177 -12 328 -80l70 80
h196zM596 233q110 0 184 74.5t74 186.5t-73.5 186t-184.5 74t-184.5 -74t-73.5 -186t74 -186.5t184 -74.5z" />
    <glyph glyph-name="ntilde" unicode="&#xf1;" horiz-adv-x="1243" 
d="M530 1255q-35 0 -56 -22t-21 -55h-189q0 127 61.5 208.5t172.5 81.5q39 0 75.5 -14t59 -30t49 -30t49.5 -14q34 0 57 24t23 58h186q0 -129 -60.5 -210t-170.5 -81q-51 0 -95 21t-78.5 42t-62.5 21zM725 1069q185 0 296.5 -110.5t111.5 -294.5v-664h-267v578
q0 106 -62.5 169.5t-166.5 63.5q-109 0 -176.5 -65.5t-67.5 -172.5v-573h-266v1044h266v-116q126 141 332 141z" />
    <glyph glyph-name="ograve" unicode="&#xf2;" horiz-adv-x="1249" 
d="M500 1159l-262 293h335l207 -293h-280zM625 -25q-239 0 -400.5 157t-161.5 390t161.5 390t400.5 157t400 -157t161 -390t-161 -390t-400 -157zM625 233q124 0 205 82.5t81 206.5t-81 206.5t-205 82.5q-123 0 -205 -83t-82 -206t82 -206t205 -83z" />
    <glyph glyph-name="oacute" unicode="&#xf3;" horiz-adv-x="1249" 
d="M471 1159l207 293h336l-262 -293h-281zM625 -25q-239 0 -400.5 157t-161.5 390t161.5 390t400.5 157t400 -157t161 -390t-161 -390t-400 -157zM625 233q124 0 205 82.5t81 206.5t-81 206.5t-205 82.5q-123 0 -205 -83t-82 -206t82 -206t205 -83z" />
    <glyph glyph-name="ocircumflex" unicode="&#xf4;" horiz-adv-x="1249" 
d="M627 1309l-115 -150h-250l203 293h321l203 -293h-250zM625 1069q239 0 400 -157t161 -390t-161 -390t-400 -157t-400.5 157t-161.5 390t161.5 390t400.5 157zM625 233q124 0 205 82.5t81 206.5t-81 206.5t-205 82.5q-123 0 -205 -83t-82 -206t82 -206t205 -83z" />
    <glyph glyph-name="otilde" unicode="&#xf5;" horiz-adv-x="1249" 
d="M760 1171q-51 0 -95 21t-78.5 42t-62.5 21q-35 0 -56.5 -22t-21.5 -55h-188q0 127 61.5 208.5t172.5 81.5q39 0 75.5 -14t59 -30t49 -30t49.5 -14q34 0 57 24t23 58h186q0 -129 -60.5 -210t-170.5 -81zM625 -25q-239 0 -400.5 157t-161.5 390t161.5 390t400.5 157
t400 -157t161 -390t-161 -390t-400 -157zM625 233q124 0 205 82.5t81 206.5t-81 206.5t-205 82.5q-123 0 -205 -83t-82 -206t82 -206t205 -83z" />
    <glyph glyph-name="odieresis" unicode="&#xf6;" horiz-adv-x="1249" 
d="M406 1157q-65 0 -108.5 43t-43.5 107q0 63 44 106t108 43t107.5 -43t43.5 -106q0 -64 -43 -107t-108 -43zM848 1157q-65 0 -108.5 43t-43.5 107q0 63 44 106t108 43q63 0 106 -43t43 -106q0 -64 -43 -107t-106 -43zM625 -25q-239 0 -400.5 157t-161.5 390t161.5 390
t400.5 157t400 -157t161 -390t-161 -390t-400 -157zM625 233q124 0 205 82.5t81 206.5t-81 206.5t-205 82.5q-123 0 -205 -83t-82 -206t82 -206t205 -83z" />
    <glyph glyph-name="divide" unicode="&#xf7;" horiz-adv-x="1093" 
d="M547 823q-62 0 -104 41t-42 101q0 61 42 102t104 41t103.5 -41t41.5 -102q0 -60 -42 -101t-103 -41zM119 496v221h856v-221h-856zM547 102q-62 0 -104 41.5t-42 102.5q0 60 42 100.5t104 40.5t103.5 -40.5t41.5 -100.5q0 -61 -41.5 -102.5t-103.5 -41.5z" />
    <glyph glyph-name="oslash" unicode="&#xf8;" horiz-adv-x="1249" 
d="M1047 891q139 -152 139 -369q0 -233 -161 -390t-400 -157q-173 0 -314 88l-55 -63h-190l137 154q-140 153 -140 368q0 233 161.5 390t400.5 157q172 0 313 -88l55 63h191zM338 522q0 -94 47 -162l373 420q-60 31 -133 31q-123 0 -205 -83t-82 -206zM625 233
q124 0 205 82.5t81 206.5q0 93 -47 164l-372 -422q60 -31 133 -31z" />
    <glyph glyph-name="ugrave" unicode="&#xf9;" horiz-adv-x="1196" 
d="M471 1159l-262 293h336l207 -293h-281zM598 -25q-221 0 -354 120.5t-133 320.5v628h266v-591q0 -100 60.5 -160t160.5 -60t160.5 60t60.5 160v591h266v-628q0 -199 -133.5 -320t-353.5 -121z" />
    <glyph glyph-name="uacute" unicode="&#xfa;" horiz-adv-x="1196" 
d="M442 1159l207 293h336l-262 -293h-281zM598 -25q-221 0 -354 120.5t-133 320.5v628h266v-591q0 -100 60.5 -160t160.5 -60t160.5 60t60.5 160v591h266v-628q0 -199 -133.5 -320t-353.5 -121z" />
    <glyph glyph-name="ucircumflex" unicode="&#xfb;" horiz-adv-x="1196" 
d="M598 1309l-115 -150h-250l203 293h322l203 -293h-250zM819 1044h266v-628q0 -199 -133.5 -320t-353.5 -121q-221 0 -354 120.5t-133 320.5v628h266v-591q0 -100 60.5 -160t160.5 -60t160.5 60t60.5 160v591z" />
    <glyph glyph-name="udieresis" unicode="&#xfc;" horiz-adv-x="1196" 
d="M377 1157q-65 0 -108.5 43t-43.5 107q0 63 44 106t108 43t107.5 -43t43.5 -106q0 -64 -43 -107t-108 -43zM819 1157q-65 0 -108 43t-43 107q0 63 43.5 106t107.5 43q63 0 106.5 -43t43.5 -106q0 -64 -43.5 -107t-106.5 -43zM598 -25q-221 0 -354 120.5t-133 320.5v628
h266v-591q0 -100 60.5 -160t160.5 -60t160.5 60t60.5 160v591h266v-628q0 -199 -133.5 -320t-353.5 -121z" />
    <glyph glyph-name="yacute" unicode="&#xfd;" horiz-adv-x="1163" 
d="M971 1452l-262 -293h-281l207 293h336zM856 1044h297l-516 -1226q-43 -107 -129 -169.5t-189 -62.5q-71 0 -146.5 29t-127.5 76l102 209q53 -56 127 -56q81 0 119 82l43 90l-426 1028h303l273 -710z" />
    <glyph glyph-name="thorn" unicode="&#xfe;" 
d="M733 1069q143 0 259.5 -71.5t182.5 -197t66 -278.5t-66 -278.5t-182.5 -197t-259.5 -71.5q-206 0 -340 150v-514h-266v1864h266v-555q133 149 340 149zM680 233q124 0 205.5 82.5t81.5 206.5t-81.5 206.5t-205.5 82.5q-123 0 -205 -83t-82 -206t82 -206t205 -83z" />
    <glyph glyph-name="ydieresis" unicode="&#xff;" horiz-adv-x="1163" 
d="M360 1157q-65 0 -108 43t-43 107q0 63 43.5 106t107.5 43t108 -43t44 -106q0 -64 -43.5 -107t-108.5 -43zM803 1157q-65 0 -108.5 43t-43.5 107q0 63 44 106t108 43q63 0 106 -43t43 -106q0 -64 -43 -107t-106 -43zM856 1044h297l-516 -1226q-43 -107 -129 -169.5
t-189 -62.5q-71 0 -146.5 29t-127.5 76l102 209q53 -56 127 -56q81 0 119 82l43 90l-426 1028h303l273 -710z" />
    <glyph glyph-name="Amacron" unicode="&#x100;" horiz-adv-x="1466" 
d="M1004 1774v-224h-541v224h541zM1135 0l-101 274h-606l-100 -274h-305l544 1413h334l543 -1413h-309zM522 535h416l-207 567z" />
    <glyph glyph-name="amacron" unicode="&#x101;" 
d="M934 1405v-223h-541v223h541zM918 1044h266v-1044h-266v125q-137 -150 -340 -150q-218 0 -364 157t-146 390t146 390t364 157q204 0 340 -149v124zM629 233q124 0 206.5 83t82.5 206t-82.5 206t-206.5 83q-123 0 -205 -83t-82 -206t82 -206t205 -83z" />
    <glyph glyph-name="Abreve" unicode="&#x102;" horiz-adv-x="1466" 
d="M733 1507q-138 0 -230.5 89t-92.5 221h206q0 -52 33 -85.5t84 -33.5q50 0 83.5 33.5t33.5 85.5h205q0 -132 -92 -221t-230 -89zM1135 0l-101 274h-606l-100 -274h-305l544 1413h334l543 -1413h-309zM522 535h416l-207 567z" />
    <glyph glyph-name="abreve" unicode="&#x103;" 
d="M664 1139q-138 0 -231 88.5t-93 220.5h207q0 -52 33 -85.5t84 -33.5q50 0 83 33.5t33 85.5h205q0 -132 -91.5 -220.5t-229.5 -88.5zM918 1044h266v-1044h-266v125q-137 -150 -340 -150q-218 0 -364 157t-146 390t146 390t364 157q204 0 340 -149v124zM629 233
q124 0 206.5 83t82.5 206t-82.5 206t-206.5 83q-123 0 -205 -83t-82 -206t82 -206t205 -83z" />
    <glyph glyph-name="Aogonek" unicode="&#x104;" horiz-adv-x="1466" 
d="M1423 -268l60 -164q-85 -57 -201 -57q-118 0 -192 63.5t-74 161.5q0 84 57 154.5t150 109.5h-88l-101 274h-606l-100 -274h-305l544 1413h334l543 -1413h-2q-215 -94 -215 -207q0 -42 29.5 -67t68.5 -25q45 0 98 31zM522 535h416l-207 567z" />
    <glyph glyph-name="aogonek" unicode="&#x105;" 
d="M1161 -268l60 -164q-85 -57 -201 -57q-118 0 -192 63.5t-74 161.5q0 84 57 154.5t150 109.5h-43v125q-137 -150 -340 -150q-218 0 -364 157t-146 390t146 390t364 157q204 0 340 -149v124h266v-1044h-4q-215 -94 -215 -207q0 -42 29.5 -67t68.5 -25q45 0 98 31zM629 233
q124 0 206.5 83t82.5 206t-82.5 206t-206.5 83q-123 0 -205 -83t-82 -206t82 -206t205 -83z" />
    <glyph glyph-name="Cacute" unicode="&#x106;" horiz-adv-x="1488" 
d="M664 1528l206 293h336l-262 -293h-280zM817 -25q-157 0 -295 56.5t-237 153.5t-156 232.5t-57 289.5t57 289.5t156 232.5t237 153t295 56q196 0 360 -85t263 -233l-244 -151q-62 92 -161 144t-218 52q-194 0 -324.5 -131t-130.5 -327t130.5 -327.5t324.5 -131.5
q119 0 218 52t161 144l244 -151q-99 -148 -263 -233t-360 -85z" />
    <glyph glyph-name="cacute" unicode="&#x107;" horiz-adv-x="1144" 
d="M471 1159l207 293h336l-262 -293h-281zM625 -25q-239 0 -400.5 157t-161.5 390t161.5 390t400.5 157q156 0 282.5 -70t198.5 -190l-232 -139q-36 64 -101.5 102.5t-147.5 38.5q-123 0 -205 -83t-82 -206t82 -206t205 -83q81 0 147 38.5t102 103.5l232 -139
q-72 -121 -198.5 -191t-282.5 -70z" />
    <glyph glyph-name="Ccircumflex" unicode="&#x108;" horiz-adv-x="1488" 
d="M817 1677l-115 -149h-249l202 293h322l203 -293h-250zM817 248q119 0 218 52t161 144l244 -151q-99 -148 -263 -233t-360 -85q-157 0 -295 56.5t-237 153.5t-156 232.5t-57 289.5t57 289.5t156 232.5t237 153t295 56q196 0 360 -85t263 -233l-244 -151q-62 92 -161 144
t-218 52q-194 0 -324.5 -131t-130.5 -327t130.5 -327.5t324.5 -131.5z" />
    <glyph glyph-name="ccircumflex" unicode="&#x109;" horiz-adv-x="1144" 
d="M627 1309l-115 -150h-250l203 293h321l203 -293h-250zM625 233q81 0 147 38.5t102 103.5l232 -139q-72 -121 -198.5 -191t-282.5 -70q-239 0 -400.5 157t-161.5 390t161.5 390t400.5 157q156 0 282.5 -70t198.5 -190l-232 -139q-36 64 -101.5 102.5t-147.5 38.5
q-123 0 -205 -83t-82 -206t82 -206t205 -83z" />
    <glyph glyph-name="Cdotaccent" unicode="&#x10a;" horiz-adv-x="1488" 
d="M817 1526q-68 0 -113 44t-45 111t45.5 112.5t112.5 45.5q68 0 114 -45.5t46 -112.5t-46 -111t-114 -44zM817 -25q-157 0 -295 56.5t-237 153.5t-156 232.5t-57 289.5t57 289.5t156 232.5t237 153t295 56q196 0 360 -85t263 -233l-244 -151q-62 92 -161 144t-218 52
q-194 0 -324.5 -131t-130.5 -327t130.5 -327.5t324.5 -131.5q119 0 218 52t161 144l244 -151q-99 -148 -263 -233t-360 -85z" />
    <glyph glyph-name="cdotaccent" unicode="&#x10b;" horiz-adv-x="1144" 
d="M625 1157q-68 0 -113 44.5t-45 111.5t45 112t113 45t113.5 -45t45.5 -112t-45.5 -111.5t-113.5 -44.5zM625 -25q-239 0 -400.5 157t-161.5 390t161.5 390t400.5 157q156 0 282.5 -70t198.5 -190l-232 -139q-36 64 -101.5 102.5t-147.5 38.5q-123 0 -205 -83t-82 -206
t82 -206t205 -83q81 0 147 38.5t102 103.5l232 -139q-72 -121 -198.5 -191t-282.5 -70z" />
    <glyph glyph-name="Ccaron" unicode="&#x10c;" horiz-adv-x="1488" 
d="M977 1528h-322l-202 293h249l115 -150l113 150h250zM817 248q119 0 218 52t161 144l244 -151q-99 -148 -263 -233t-360 -85q-157 0 -295 56.5t-237 153.5t-156 232.5t-57 289.5t57 289.5t156 232.5t237 153t295 56q196 0 360 -85t263 -233l-244 -151q-62 92 -161 144
t-218 52q-194 0 -324.5 -131t-130.5 -327t130.5 -327.5t324.5 -131.5z" />
    <glyph glyph-name="ccaron" unicode="&#x10d;" horiz-adv-x="1144" 
d="M786 1159h-321l-203 293h250l115 -149l112 149h250zM625 233q81 0 147 38.5t102 103.5l232 -139q-72 -121 -198.5 -191t-282.5 -70q-239 0 -400.5 157t-161.5 390t161.5 390t400.5 157q156 0 282.5 -70t198.5 -190l-232 -139q-36 64 -101.5 102.5t-147.5 38.5
q-123 0 -205 -83t-82 -206t82 -206t205 -83z" />
    <glyph glyph-name="Dcaron" unicode="&#x10e;" horiz-adv-x="1488" 
d="M889 1528h-322l-202 293h249l115 -150l113 150h250zM696 1413q152 0 286 -54t229.5 -147.5t150.5 -224.5t55 -280t-55 -280t-150.5 -225t-229.5 -148t-286 -54h-553v1413h553zM690 266q187 0 311.5 126t124.5 315t-124.5 314.5t-311.5 125.5h-264v-881h264z" />
    <glyph glyph-name="dcaron" unicode="&#x10f;" horiz-adv-x="1505" 
d="M911 909v566h267v-1475h-267v135q-131 -160 -338 -160q-218 0 -364 157t-146 390t146 390t364 157q207 0 338 -160zM1331 1475h242l-84 -455h-201zM625 233q124 0 205 82.5t81 206.5t-81 206.5t-205 82.5q-123 0 -205 -83t-82 -206t82 -206t205 -83z" />
    <glyph glyph-name="Dcroat" unicode="&#x110;" horiz-adv-x="1488" 
d="M696 1413q152 0 286 -54t229.5 -147.5t150.5 -224.5t55 -280t-55 -280t-150.5 -225t-229.5 -148t-286 -54h-553v610h-131v191h131v612h553zM690 266q187 0 311.5 126t124.5 315t-124.5 314.5t-311.5 125.5h-264v-346h213v-191h-213v-344h264z" />
    <glyph glyph-name="dcroat" unicode="&#x111;" 
d="M1311 1339v-190h-127v-1149h-266v125q-137 -150 -340 -150q-218 0 -364 157t-146 390t146 390t364 157q204 0 340 -149v229h-234v190h234v136h266v-136h127zM629 233q124 0 206.5 83t82.5 206t-82.5 206t-206.5 83q-123 0 -205 -83t-82 -206t82 -206t205 -83z" />
    <glyph glyph-name="Emacron" unicode="&#x112;" horiz-adv-x="1189" 
d="M895 1774v-224h-541v224h541zM426 266h678v-266h-961v1413h951v-266h-668v-303h600v-266h-600v-312z" />
    <glyph glyph-name="emacron" unicode="&#x113;" horiz-adv-x="1226" 
d="M897 1405v-223h-541v223h541zM1167 520q0 -50 -6 -94h-809q28 -99 107 -157t192 -58q91 0 167 36.5t120 92.5l178 -156q-83 -99 -205.5 -154t-267.5 -55q-164 0 -297 72t-208 198.5t-75 280.5q0 152 72.5 276.5t200 195.5t282.5 71q235 0 392 -156.5t157 -392.5zM616 836
q-97 0 -169 -58.5t-97 -156.5h533q-25 98 -97.5 156.5t-169.5 58.5z" />
    <glyph glyph-name="Ebreve" unicode="&#x114;" horiz-adv-x="1189" 
d="M625 1507q-138 0 -231 89t-93 221h207q0 -52 33 -85.5t84 -33.5q50 0 83 33.5t33 85.5h205q0 -132 -91.5 -221t-229.5 -89zM426 266h678v-266h-961v1413h951v-266h-668v-303h600v-266h-600v-312z" />
    <glyph glyph-name="ebreve" unicode="&#x115;" horiz-adv-x="1226" 
d="M627 1139q-138 0 -231 88.5t-93 220.5h207q0 -52 33 -85.5t84 -33.5q50 0 83 33.5t33 85.5h205q0 -132 -91.5 -220.5t-229.5 -88.5zM1167 520q0 -50 -6 -94h-809q28 -99 107 -157t192 -58q91 0 167 36.5t120 92.5l178 -156q-83 -99 -205.5 -154t-267.5 -55
q-164 0 -297 72t-208 198.5t-75 280.5q0 152 72.5 276.5t200 195.5t282.5 71q235 0 392 -156.5t157 -392.5zM616 836q-97 0 -169 -58.5t-97 -156.5h533q-25 98 -97.5 156.5t-169.5 58.5z" />
    <glyph glyph-name="Edotaccent" unicode="&#x116;" horiz-adv-x="1189" 
d="M625 1526q-68 0 -113 44t-45 111t45.5 112.5t112.5 45.5q68 0 113.5 -45.5t45.5 -112.5t-45.5 -111t-113.5 -44zM426 266h678v-266h-961v1413h951v-266h-668v-303h600v-266h-600v-312z" />
    <glyph glyph-name="edotaccent" unicode="&#x117;" horiz-adv-x="1226" 
d="M625 1157q-68 0 -113 44.5t-45 111.5t45 112t113 45t113.5 -45t45.5 -112t-45.5 -111.5t-113.5 -44.5zM1167 520q0 -50 -6 -94h-809q28 -99 107 -157t192 -58q91 0 167 36.5t120 92.5l178 -156q-83 -99 -205.5 -154t-267.5 -55q-164 0 -297 72t-208 198.5t-75 280.5
q0 152 72.5 276.5t200 195.5t282.5 71q235 0 392 -156.5t157 -392.5zM616 836q-97 0 -169 -58.5t-97 -156.5h533q-25 98 -97.5 156.5t-169.5 58.5z" />
    <glyph glyph-name="Eogonek" unicode="&#x118;" horiz-adv-x="1189" 
d="M1075 -268l60 -164q-85 -57 -201 -57q-118 0 -192 63.5t-74 161.5q0 84 56.5 154.5t149.5 109.5h-731v1413h951v-266h-668v-303h600v-266h-600v-312h678v-266h-10q-215 -94 -215 -207q0 -42 29.5 -67t68.5 -25q45 0 98 31z" />
    <glyph glyph-name="eogonek" unicode="&#x119;" horiz-adv-x="1226" 
d="M1167 520q0 -50 -6 -94h-809q28 -99 107 -157t192 -58q91 0 167 36.5t120 92.5l178 -156q-92 -111 -239 -168q-140 -105 -140 -211q0 -46 29 -74t72 -28q47 0 94 35l61 -164q-85 -63 -211 -63q-114 0 -188 66.5t-74 172.5q0 124 101 225q-159 5 -286.5 78.5t-199.5 197.5
t-72 275q0 152 72.5 276.5t200 195.5t282.5 71q235 0 392 -156.5t157 -392.5zM616 836q-97 0 -169 -58.5t-97 -156.5h533q-25 98 -97.5 156.5t-169.5 58.5z" />
    <glyph glyph-name="Ecaron" unicode="&#x11a;" horiz-adv-x="1189" 
d="M784 1528h-321l-203 293h250l115 -150l112 150h250zM426 266h678v-266h-961v1413h951v-266h-668v-303h600v-266h-600v-312z" />
    <glyph glyph-name="ecaron" unicode="&#x11b;" horiz-adv-x="1226" 
d="M786 1159h-321l-203 293h250l115 -149l112 149h250zM1167 520q0 -50 -6 -94h-809q28 -99 107 -157t192 -58q91 0 167 36.5t120 92.5l178 -156q-83 -99 -205.5 -154t-267.5 -55q-164 0 -297 72t-208 198.5t-75 280.5q0 152 72.5 276.5t200 195.5t282.5 71
q235 0 392 -156.5t157 -392.5zM616 836q-97 0 -169 -58.5t-97 -156.5h533q-25 98 -97.5 156.5t-169.5 58.5z" />
    <glyph glyph-name="Gcircumflex" unicode="&#x11c;" horiz-adv-x="1589" 
d="M817 1677l-115 -149h-249l202 293h322l203 -293h-250zM848 795h680v-99q0 -205 -92.5 -370t-256.5 -258t-368 -93q-156 0 -293 56.5t-235 153.5t-154.5 232.5t-56.5 289.5t57 289.5t156 232.5t237 153t295 56q184 0 339.5 -74t250.5 -203l-213 -170q-64 83 -160.5 129.5
t-210.5 46.5q-197 0 -329 -131t-132 -329t131 -329.5t328 -131.5q152 0 265 82.5t145 214.5h-383v252z" />
    <glyph glyph-name="gcircumflex" unicode="&#x11d;" horiz-adv-x="1155" 
d="M791 0q156 0 259.5 -81.5t129.5 -225.5l-275 -74q-6 57 -51 91t-115 34h-342q-146 0 -234.5 77t-88.5 202q0 80 38.5 151t102.5 111q-139 130 -139 325q0 197 139.5 328t349.5 131q121 0 228 -49q24 90 102 139h-211l-113 150l-114 -150h-250l203 293h321l193 -278
q61 28 137 28h86v-246h-74q-40 0 -69.5 -20t-36.5 -55q90 -117 90 -271q0 -196 -141 -327t-351 -131q-86 0 -172 26q-53 -32 -53 -90q0 -38 31 -63t80 -25h340zM565 817q-94 0 -155.5 -59t-61.5 -148t61.5 -148t155.5 -59q93 0 155 59t62 148t-62 148t-155 59z" />
    <glyph glyph-name="Gbreve" unicode="&#x11e;" horiz-adv-x="1589" 
d="M817 1507q-138 0 -230.5 89t-92.5 221h206q0 -52 33 -85.5t84 -33.5q50 0 83.5 33.5t33.5 85.5h205q0 -132 -92 -221t-230 -89zM848 795h680v-99q0 -205 -92.5 -370t-256.5 -258t-368 -93q-156 0 -293 56.5t-235 153.5t-154.5 232.5t-56.5 289.5t57 289.5t156 232.5
t237 153t295 56q184 0 339.5 -74t250.5 -203l-213 -170q-64 83 -160.5 129.5t-210.5 46.5q-197 0 -329 -131t-132 -329t131 -329.5t328 -131.5q152 0 265 82.5t145 214.5h-383v252z" />
    <glyph glyph-name="gbreve" unicode="&#x11f;" horiz-adv-x="1155" 
d="M571 1139q-138 0 -230.5 88.5t-92.5 220.5h207q0 -52 32.5 -85.5t83.5 -33.5q50 0 83.5 33.5t33.5 85.5h205q0 -132 -92 -220.5t-230 -88.5zM791 0q156 0 259.5 -81.5t129.5 -225.5l-275 -74q-6 57 -51 91t-115 34h-342q-146 0 -234.5 77t-88.5 202q0 80 38.5 151
t102.5 111q-139 130 -139 325q0 197 139.5 328t349.5 131q121 0 228 -49q23 85 94.5 133.5t173.5 48.5h86v-246h-74q-40 0 -69.5 -20t-36.5 -55q90 -117 90 -271q0 -196 -141 -327t-351 -131q-86 0 -172 26q-53 -32 -53 -90q0 -38 31 -63t80 -25h340zM565 817
q-94 0 -155.5 -59t-61.5 -148t61.5 -148t155.5 -59q93 0 155 59t62 148t-62 148t-155 59z" />
    <glyph glyph-name="Gdotaccent" unicode="&#x120;" horiz-adv-x="1589" 
d="M817 1526q-68 0 -113 44t-45 111t45.5 112.5t112.5 45.5q68 0 114 -45.5t46 -112.5t-46 -111t-114 -44zM848 795h680v-99q0 -205 -92.5 -370t-256.5 -258t-368 -93q-156 0 -293 56.5t-235 153.5t-154.5 232.5t-56.5 289.5t57 289.5t156 232.5t237 153t295 56
q184 0 339.5 -74t250.5 -203l-213 -170q-64 83 -160.5 129.5t-210.5 46.5q-197 0 -329 -131t-132 -329t131 -329.5t328 -131.5q152 0 265 82.5t145 214.5h-383v252z" />
    <glyph glyph-name="gdotaccent" unicode="&#x121;" horiz-adv-x="1155" 
d="M569 1157q-68 0 -112.5 44.5t-44.5 111.5t45 112t112 45q68 0 114 -45t46 -112t-46 -111.5t-114 -44.5zM791 0q156 0 259.5 -81.5t129.5 -225.5l-275 -74q-6 57 -51 91t-115 34h-342q-146 0 -234.5 77t-88.5 202q0 80 38.5 151t102.5 111q-139 130 -139 325
q0 197 139.5 328t349.5 131q121 0 228 -49q23 85 94.5 133.5t173.5 48.5h86v-246h-74q-40 0 -69.5 -20t-36.5 -55q90 -117 90 -271q0 -196 -141 -327t-351 -131q-86 0 -172 26q-53 -32 -53 -90q0 -38 31 -63t80 -25h340zM565 817q-94 0 -155.5 -59t-61.5 -148t61.5 -148
t155.5 -59q93 0 155 59t62 148t-62 148t-155 59z" />
    <glyph glyph-name="uni0122" unicode="&#x122;" horiz-adv-x="1589" 
d="M848 795h680v-99q0 -205 -92.5 -370t-256.5 -258t-368 -93q-156 0 -293 56.5t-235 153.5t-154.5 232.5t-56.5 289.5t57 289.5t156 232.5t237 153t295 56q184 0 339.5 -74t250.5 -203l-213 -170q-64 83 -160.5 129.5t-210.5 46.5q-197 0 -329 -131t-132 -329t131 -329.5
t328 -131.5q152 0 265 82.5t145 214.5h-383v252zM625 -461l84 348h274l-139 -348h-219z" />
    <glyph glyph-name="uni0123" unicode="&#x123;" horiz-adv-x="1155" 
d="M750 1501l-84 -348h-275l139 348h220zM791 0q156 0 259.5 -81.5t129.5 -225.5l-275 -74q-6 57 -51 91t-115 34h-342q-146 0 -234.5 77t-88.5 202q0 80 38.5 151t102.5 111q-139 130 -139 325q0 197 139.5 328t349.5 131q121 0 228 -49q23 85 94.5 133.5t173.5 48.5h86
v-246h-74q-40 0 -69.5 -20t-36.5 -55q90 -117 90 -271q0 -196 -141 -327t-351 -131q-86 0 -172 26q-53 -32 -53 -90q0 -38 31 -63t80 -25h340zM565 817q-94 0 -155.5 -59t-61.5 -148t61.5 -148t155.5 -59q93 0 155 59t62 148t-62 148t-155 59z" />
    <glyph glyph-name="Hcircumflex" unicode="&#x124;" horiz-adv-x="1478" 
d="M741 1677l-114 -149h-250l203 293h321l203 -293h-250zM1053 1413h282v-1413h-282v578h-627v-578h-283v1413h283v-569h627v569z" />
    <glyph glyph-name="hcircumflex" unicode="&#x125;" horiz-adv-x="1243" 
d="M260 1706l-115 -150h-249l202 293h322l203 -293h-250zM725 1069q185 0 296.5 -110.5t111.5 -294.5v-664h-267v578q0 106 -62 169.5t-165 63.5q-110 0 -178 -65.5t-68 -172.5v-573h-266v1475h266v-553q126 147 332 147z" />
    <glyph glyph-name="Hbar" unicode="&#x126;" horiz-adv-x="1478" 
d="M1448 1212v-194h-113v-1018h-282v578h-627v-578h-283v1018h-112v194h112v201h283v-201h627v201h282v-201h113zM1053 844v174h-627v-174h627z" />
    <glyph glyph-name="hbar" unicode="&#x127;" horiz-adv-x="1243" 
d="M725 1069q185 0 296.5 -110.5t111.5 -294.5v-664h-267v578q0 106 -62 169.5t-165 63.5q-110 0 -178 -65.5t-68 -172.5v-573h-266v1149h-129v190h129v136h266v-136h232v-190h-232v-227q126 147 332 147z" />
    <glyph glyph-name="Itilde" unicode="&#x128;" horiz-adv-x="569" 
d="M420 1540q-51 0 -95 21t-78.5 42t-62.5 21q-35 0 -56.5 -22.5t-21.5 -55.5h-188q0 127 61.5 209t172.5 82q39 0 75.5 -13.5t59 -30.5t49 -30.5t49.5 -13.5q34 0 57 24t23 58h186q0 -129 -60.5 -210t-170.5 -81zM143 0v1413h283v-1413h-283z" />
    <glyph glyph-name="itilde" unicode="&#x129;" horiz-adv-x="520" 
d="M393 1171q-40 0 -77 13t-59 29t-49 29t-50 13q-35 0 -56.5 -22t-21.5 -55h-189q0 127 61.5 208.5t172.5 81.5q39 0 75.5 -14t59 -30t49 -30t49.5 -14q34 0 57 24t23 58h187q0 -129 -60.5 -210t-171.5 -81zM127 0v1044h266v-1044h-266z" />
    <glyph glyph-name="Imacron" unicode="&#x12a;" horiz-adv-x="569" 
d="M16 1550v224h541v-224h-541zM143 0v1413h283v-1413h-283z" />
    <glyph glyph-name="imacron" unicode="&#x12b;" horiz-adv-x="520" 
d="M-10 1182v223h540v-223h-540zM127 0v1044h266v-1044h-266z" />
    <glyph glyph-name="Ibreve" unicode="&#x12c;" horiz-adv-x="569" 
d="M287 1507q-138 0 -231 89t-93 221h207q0 -52 33 -85.5t84 -33.5q50 0 83 33.5t33 85.5h205q0 -132 -91.5 -221t-229.5 -89zM143 0v1413h283v-1413h-283z" />
    <glyph glyph-name="ibreve" unicode="&#x12d;" horiz-adv-x="520" 
d="M260 1139q-138 0 -230.5 88.5t-92.5 220.5h206q0 -52 33 -85.5t84 -33.5q50 0 83.5 33.5t33.5 85.5h205q0 -132 -92 -220.5t-230 -88.5zM127 0v1044h266v-1044h-266z" />
    <glyph glyph-name="Iogonek" unicode="&#x12e;" horiz-adv-x="569" 
d="M406 -268l59 -164q-85 -57 -201 -57q-118 0 -192 63.5t-74 161.5q0 84 57 154.5t150 109.5h-62v1413h283v-1413h-2q-215 -94 -215 -207q0 -42 29.5 -67t68.5 -25q46 0 99 31z" />
    <glyph glyph-name="iogonek" unicode="&#x12f;" horiz-adv-x="520" 
d="M260 1157q-68 0 -113 44.5t-45 111.5t45 112t113 45t114 -45t46 -112t-46 -111.5t-114 -44.5zM373 -268l59 -164q-85 -57 -201 -57q-118 0 -192 63.5t-74 161.5q0 84 57 154.5t150 109.5h-45v1044h266v-1044h-2q-215 -94 -215 -207q0 -42 29.5 -67t68.5 -25q46 0 99 31z
" />
    <glyph glyph-name="Idotaccent" unicode="&#x130;" horiz-adv-x="569" 
d="M285 1526q-68 0 -113 44t-45 111t45.5 112.5t112.5 45.5q68 0 113.5 -45.5t45.5 -112.5t-45.5 -111t-113.5 -44zM143 0v1413h283v-1413h-283z" />
    <glyph glyph-name="dotlessi" unicode="&#x131;" horiz-adv-x="520" 
d="M127 0v1044h266v-1044h-266z" />
    <glyph glyph-name="IJ" unicode="&#x132;" horiz-adv-x="1454" 
d="M143 0v1413h283v-1413h-283zM852 -25q-127 0 -229 45v271q95 -43 198 -43q110 0 172 56.5t62 158.5v950h282v-964q0 -221 -132 -347.5t-353 -126.5z" />
    <glyph glyph-name="ij" unicode="&#x133;" horiz-adv-x="1050" 
d="M260 1198q-71 0 -119.5 48t-48.5 118t48.5 118t119.5 48t119.5 -48t48.5 -118t-48.5 -118t-119.5 -48zM791 1198q-71 0 -119.5 48t-48.5 118t48.5 118t119.5 48t119 -48t48 -118t-48 -118t-119 -48zM127 0v1044h266v-1044h-266zM596 -414q-82 0 -143 25v239
q41 -20 92 -20q112 0 112 111v1103h267v-1134q0 -150 -83.5 -237t-244.5 -87z" />
    <glyph glyph-name="Jcircumflex" unicode="&#x134;" horiz-adv-x="884" 
d="M627 1677l-115 -149h-250l203 293h321l203 -293h-250zM485 463v950h283v-964q0 -221 -132 -347.5t-353 -126.5q-128 0 -230 45v271q95 -43 199 -43q109 0 171 56.5t62 158.5z" />
    <glyph glyph-name="jcircumflex" unicode="&#x135;" horiz-adv-x="530" 
d="M270 1309l-114 -150h-250l203 293h321l203 -293h-250zM137 -59v1103h266v-1134q0 -150 -83 -237t-244 -87q-83 0 -144 25v239q41 -20 93 -20q112 0 112 111z" />
    <glyph glyph-name="uni0136" unicode="&#x136;" horiz-adv-x="1363" 
d="M741 731l652 -731h-369l-467 528l-131 -143v-385h-283v1413h283v-645l580 645h360zM514 -461l84 348h274l-139 -348h-219z" />
    <glyph glyph-name="uni0137" unicode="&#x137;" horiz-adv-x="1122" 
d="M674 561l463 -561h-349l-303 360l-92 -100v-260h-266v1475h266v-859l385 428h344zM395 -461l84 348h275l-140 -348h-219z" />
    <glyph glyph-name="Lacute" unicode="&#x139;" horiz-adv-x="1091" 
d="M674 1821l-262 -293h-281l207 293h336zM426 266h616v-266h-899v1413h283v-1147z" />
    <glyph glyph-name="lacute" unicode="&#x13a;" horiz-adv-x="520" 
d="M106 1556l207 293h336l-262 -293h-281zM127 0v1475h266v-1475h-266z" />
    <glyph glyph-name="uni013B" unicode="&#x13b;" horiz-adv-x="1091" 
d="M426 266h616v-266h-899v1413h283v-1147zM387 -461l84 348h274l-139 -348h-219z" />
    <glyph glyph-name="uni013C" unicode="&#x13c;" horiz-adv-x="520" 
d="M127 0v1475h266v-1475h-266zM68 -461l84 348h274l-139 -348h-219z" />
    <glyph glyph-name="Lcaron" unicode="&#x13d;" horiz-adv-x="1091" 
d="M426 266h616v-266h-899v1413h283v-1147zM862 1413l-84 -455h-200l43 455h241z" />
    <glyph glyph-name="lcaron" unicode="&#x13e;" horiz-adv-x="720" 
d="M127 0v1475h266v-1475h-266zM504 1020l43 455h241l-83 -455h-201z" />
    <glyph glyph-name="Ldot" unicode="&#x13f;" horiz-adv-x="1091" 
d="M426 266h616v-266h-899v1413h283v-1147zM725 569q-71 0 -118.5 47.5t-47.5 118.5t47.5 118.5t118.5 47.5q69 0 116.5 -48t47.5 -118t-47.5 -118t-116.5 -48z" />
    <glyph glyph-name="ldot" unicode="&#x140;" horiz-adv-x="866" 
d="M127 0v1475h266v-1475h-266zM655 571q-71 0 -118.5 47.5t-47.5 118.5t47.5 118.5t118.5 47.5t118.5 -47.5t47.5 -118.5t-47.5 -118.5t-118.5 -47.5z" />
    <glyph glyph-name="Lslash" unicode="&#x141;" horiz-adv-x="1091" 
d="M426 266h616v-266h-899v479l-120 -69v258l120 69v676h283v-516l219 125v-258l-219 -125v-373z" />
    <glyph glyph-name="lslash" unicode="&#x142;" horiz-adv-x="663" 
d="M608 1020v-244l-143 -84v-692h-266v539l-144 -84v243l144 84v693h266v-539z" />
    <glyph glyph-name="Nacute" unicode="&#x143;" horiz-adv-x="1499" 
d="M1145 1821l-262 -293h-281l207 293h336zM1073 1413h283v-1413h-287l-643 928v-928h-283v1413h287l643 -928v928z" />
    <glyph glyph-name="nacute" unicode="&#x144;" horiz-adv-x="1243" 
d="M1020 1452l-262 -293h-281l207 293h336zM725 1069q185 0 296.5 -110.5t111.5 -294.5v-664h-267v578q0 106 -62.5 169.5t-166.5 63.5q-109 0 -176.5 -65.5t-67.5 -172.5v-573h-266v1044h266v-116q126 141 332 141z" />
    <glyph glyph-name="uni0145" unicode="&#x145;" horiz-adv-x="1499" 
d="M1073 1413h283v-1413h-287l-643 928v-928h-283v1413h287l643 -928v928zM557 -461l84 348h274l-139 -348h-219z" />
    <glyph glyph-name="uni0146" unicode="&#x146;" horiz-adv-x="1243" 
d="M725 1069q185 0 296.5 -110.5t111.5 -294.5v-664h-267v578q0 106 -62.5 169.5t-166.5 63.5q-109 0 -176.5 -65.5t-67.5 -172.5v-573h-266v1044h266v-116q126 141 332 141zM438 -461l84 348h275l-140 -348h-219z" />
    <glyph glyph-name="Ncaron" unicode="&#x147;" horiz-adv-x="1499" 
d="M918 1528h-322l-203 293h250l115 -150l112 150h250zM1073 1413h283v-1413h-287l-643 928v-928h-283v1413h287l643 -928v928z" />
    <glyph glyph-name="ncaron" unicode="&#x148;" horiz-adv-x="1243" 
d="M793 1159h-322l-203 293h250l115 -149l112 149h250zM725 1069q185 0 296.5 -110.5t111.5 -294.5v-664h-267v578q0 106 -62.5 169.5t-166.5 63.5q-109 0 -176.5 -65.5t-67.5 -172.5v-573h-266v1044h266v-116q126 141 332 141z" />
    <glyph glyph-name="Eng" unicode="&#x14a;" horiz-adv-x="1499" 
d="M1073 1413h283v-1464q0 -371 -432 -371v258q149 0 149 121v43h-4l-643 928v-928h-283v1413h287l643 -928v928z" />
    <glyph glyph-name="eng" unicode="&#x14b;" horiz-adv-x="1243" 
d="M725 1069q185 0 296.5 -110.5t111.5 -294.5v-715q0 -371 -408 -371v258q67 0 104 30.5t37 90.5v621q0 106 -62 169.5t-165 63.5q-110 0 -178 -65.5t-68 -172.5v-573h-266v1044h266v-116q126 141 332 141z" />
    <glyph glyph-name="Omacron" unicode="&#x14c;" horiz-adv-x="1634" 
d="M547 1550v224h540v-224h-540zM817 -25q-157 0 -295 56.5t-237 153.5t-156 232.5t-57 289.5t57 289.5t156 232.5t237 153t295 56q209 0 380 -95.5t268.5 -263t97.5 -372.5q0 -154 -57.5 -289.5t-156 -232.5t-237 -153.5t-295.5 -56.5zM817 248q194 0 324.5 131.5
t130.5 327.5t-130.5 327t-324.5 131t-324.5 -131t-130.5 -327t130.5 -327.5t324.5 -131.5z" />
    <glyph glyph-name="omacron" unicode="&#x14d;" horiz-adv-x="1249" 
d="M354 1182v223h541v-223h-541zM625 -25q-239 0 -400.5 157t-161.5 390t161.5 390t400.5 157t400 -157t161 -390t-161 -390t-400 -157zM625 233q124 0 205 82.5t81 206.5t-81 206.5t-205 82.5q-123 0 -205 -83t-82 -206t82 -206t205 -83z" />
    <glyph glyph-name="Obreve" unicode="&#x14e;" horiz-adv-x="1634" 
d="M817 1507q-138 0 -230.5 89t-92.5 221h206q0 -52 33 -85.5t84 -33.5q50 0 83.5 33.5t33.5 85.5h205q0 -132 -92 -221t-230 -89zM817 -25q-157 0 -295 56.5t-237 153.5t-156 232.5t-57 289.5t57 289.5t156 232.5t237 153t295 56q209 0 380 -95.5t268.5 -263t97.5 -372.5
q0 -154 -57.5 -289.5t-156 -232.5t-237 -153.5t-295.5 -56.5zM817 248q194 0 324.5 131.5t130.5 327.5t-130.5 327t-324.5 131t-324.5 -131t-130.5 -327t130.5 -327.5t324.5 -131.5z" />
    <glyph glyph-name="obreve" unicode="&#x14f;" horiz-adv-x="1249" 
d="M627 1139q-138 0 -231 88.5t-93 220.5h207q0 -52 33 -85.5t84 -33.5q50 0 83 33.5t33 85.5h205q0 -132 -91.5 -220.5t-229.5 -88.5zM625 -25q-239 0 -400.5 157t-161.5 390t161.5 390t400.5 157t400 -157t161 -390t-161 -390t-400 -157zM625 233q124 0 205 82.5t81 206.5
t-81 206.5t-205 82.5q-123 0 -205 -83t-82 -206t82 -206t205 -83z" />
    <glyph glyph-name="Ohungarumlaut" unicode="&#x150;" horiz-adv-x="1634" 
d="M459 1528l174 293h291l-209 -293h-256zM901 1528l174 293h291l-209 -293h-256zM817 -25q-157 0 -295 56.5t-237 153.5t-156 232.5t-57 289.5t57 289.5t156 232.5t237 153t295 56q209 0 380 -95.5t268.5 -263t97.5 -372.5q0 -154 -57.5 -289.5t-156 -232.5t-237 -153.5
t-295.5 -56.5zM817 248q194 0 324.5 131.5t130.5 327.5t-130.5 327t-324.5 131t-324.5 -131t-130.5 -327t130.5 -327.5t324.5 -131.5z" />
    <glyph glyph-name="ohungarumlaut" unicode="&#x151;" horiz-adv-x="1249" 
d="M268 1159l174 293h291l-209 -293h-256zM711 1159l174 293h291l-209 -293h-256zM625 -25q-239 0 -400.5 157t-161.5 390t161.5 390t400.5 157t400 -157t161 -390t-161 -390t-400 -157zM625 233q124 0 205 82.5t81 206.5t-81 206.5t-205 82.5q-123 0 -205 -83t-82 -206
t82 -206t205 -83z" />
    <glyph glyph-name="OE" unicode="&#x152;" horiz-adv-x="1863" 
d="M1184 266h594v-266h-985q-152 0 -286 54t-229.5 148t-150.5 225t-55 280t55 280t150.5 224.5t229.5 147.5t286 54h974v-266h-583v-303h518v-266h-518v-312zM799 266h102v881h-102q-188 0 -312.5 -125.5t-124.5 -314.5t125 -315t312 -126z" />
    <glyph glyph-name="oe" unicode="&#x153;" horiz-adv-x="2074" 
d="M2015 516q0 -61 -6 -84h-811q26 -102 106.5 -161.5t192.5 -59.5q89 0 162.5 36t116.5 91l184 -154q-81 -98 -198 -153.5t-253 -55.5q-143 0 -262 62t-194 170q-70 -108 -185.5 -170t-255.5 -62q-152 0 -278 71.5t-198.5 197t-72.5 278.5t72.5 278.5t198.5 197t278 71.5
q139 0 253 -60.5t184 -166.5q72 106 186.5 166.5t251.5 60.5q226 0 377 -157t151 -396zM1464 836q-96 0 -166.5 -57t-97.5 -152h531q-26 95 -99 152t-168 57zM627 233q122 0 204 83t82 206q0 124 -82 206.5t-204 82.5q-125 0 -207 -82.5t-82 -206.5q0 -123 82.5 -206
t206.5 -83z" />
    <glyph glyph-name="Racute" unicode="&#x154;" horiz-adv-x="1296" 
d="M1036 1821l-262 -293h-280l206 293h336zM920 0l-326 504h-168v-504h-283v1413h602q204 0 342 -132.5t138 -330.5q0 -150 -87.5 -264.5t-230.5 -159.5l353 -526h-340zM426 1147v-397h313q83 0 139 56.5t56 141.5t-56 142t-139 57h-313z" />
    <glyph glyph-name="racute" unicode="&#x155;" horiz-adv-x="768" 
d="M819 1452l-262 -293h-281l207 293h336zM393 909q120 152 301 152h45v-275h-45q-142 0 -221.5 -78t-79.5 -212v-496h-266v1044h266v-135z" />
    <glyph glyph-name="uni0156" unicode="&#x156;" horiz-adv-x="1296" 
d="M907 526l353 -526h-340l-326 504h-168v-504h-283v1413h602q204 0 342 -132.5t138 -330.5q0 -150 -87.5 -264.5t-230.5 -159.5zM426 1147v-397h313q83 0 139 56.5t56 141.5t-56 142t-139 57h-313zM457 -461l84 348h274l-139 -348h-219z" />
    <glyph glyph-name="uni0157" unicode="&#x157;" horiz-adv-x="768" 
d="M694 1061h45v-275h-45q-142 0 -221.5 -78t-79.5 -212v-496h-266v1044h266v-135q120 152 301 152zM68 -461l84 348h274l-139 -348h-219z" />
    <glyph glyph-name="Rcaron" unicode="&#x158;" horiz-adv-x="1296" 
d="M809 1528h-322l-202 293h250l114 -150l113 150h250zM920 0l-326 504h-168v-504h-283v1413h602q204 0 342 -132.5t138 -330.5q0 -150 -87.5 -264.5t-230.5 -159.5l353 -526h-340zM426 1147v-397h313q83 0 139 56.5t56 141.5t-56 142t-139 57h-313z" />
    <glyph glyph-name="rcaron" unicode="&#x159;" horiz-adv-x="768" 
d="M592 1159h-322l-202 293h249l115 -149l113 149h250zM393 909q120 152 301 152h45v-275h-45q-142 0 -221.5 -78t-79.5 -212v-496h-266v1044h266v-135z" />
    <glyph glyph-name="Sacute" unicode="&#x15a;" horiz-adv-x="1228" 
d="M475 1528l207 293h336l-262 -293h-281zM635 -25q-161 0 -320.5 60.5t-267.5 161.5l146 215q88 -84 206.5 -134.5t235.5 -50.5q108 0 184 46t76 118q0 25 -10.5 46.5t-23.5 37t-41.5 31t-48 24t-59 20.5t-59 16.5t-63.5 15.5q-84 20 -155 46t-134.5 64.5t-107.5 85.5
t-69.5 109.5t-25.5 134.5q0 188 149 302t388 114q153 0 280.5 -48t208.5 -128l-131 -213q-62 60 -160.5 98.5t-201.5 38.5q-106 0 -174 -43t-68 -109q0 -39 24 -70t68 -52.5t87 -35t100 -26.5q37 -8 70.5 -16.5t88.5 -27.5t100.5 -41.5t95.5 -58.5t84 -77.5t56.5 -100
t22.5 -125.5q0 -124 -73 -222.5t-198.5 -152t-279.5 -53.5z" />
    <glyph glyph-name="sacute" unicode="&#x15b;" horiz-adv-x="985" 
d="M342 1159l207 293h336l-262 -293h-281zM487 -25q-254 0 -440 160l129 176q133 -116 305 -116q82 0 133.5 26t51.5 72q0 25 -14.5 44t-46.5 33t-61.5 23t-82.5 21q-36 8 -57 13t-57.5 15.5t-59 19.5t-53.5 24.5t-50.5 31.5t-41 39t-34 49t-20.5 60t-8 73q0 107 59 183
t153.5 111.5t213.5 35.5q231 0 405 -137l-129 -178q-128 96 -270 96q-72 0 -118 -23t-46 -67q0 -25 14 -43.5t46 -32t62 -22t83 -19.5q46 -10 74 -17t73 -22t73.5 -30t62 -40.5t52.5 -54.5t32.5 -71t13.5 -91q0 -107 -60 -186t-160 -117.5t-227 -38.5z" />
    <glyph glyph-name="Scircumflex" unicode="&#x15c;" horiz-adv-x="1228" 
d="M631 1677l-115 -149h-250l203 293h322l202 -293h-250zM668 850q37 -8 70.5 -16.5t88.5 -27.5t100.5 -41.5t95.5 -58.5t84 -77.5t56.5 -100t22.5 -125.5q0 -124 -73 -222.5t-198.5 -152t-279.5 -53.5q-161 0 -320.5 60.5t-267.5 161.5l146 215q88 -84 206.5 -134.5
t235.5 -50.5q108 0 184 46t76 118q0 25 -10.5 46.5t-23.5 37t-41.5 31t-48 24t-59 20.5t-59 16.5t-63.5 15.5q-84 20 -155 46t-134.5 64.5t-107.5 85.5t-69.5 109.5t-25.5 134.5q0 188 149 302t388 114q153 0 280.5 -48t208.5 -128l-131 -213q-62 60 -160.5 98.5
t-201.5 38.5q-106 0 -174 -43t-68 -109q0 -39 24 -70t68 -52.5t87 -35t100 -26.5z" />
    <glyph glyph-name="scircumflex" unicode="&#x15d;" horiz-adv-x="985" 
d="M498 1309l-115 -150h-250l203 293h321l203 -293h-250zM553 643q46 -10 74 -17t73 -22t73.5 -30t62 -40.5t52.5 -54.5t32.5 -71t13.5 -91q0 -107 -60 -186t-160 -117.5t-227 -38.5q-254 0 -440 160l129 176q133 -116 305 -116q82 0 133.5 26t51.5 72q0 25 -14.5 44
t-46.5 33t-61.5 23t-82.5 21q-36 8 -57 13t-57.5 15.5t-59 19.5t-53.5 24.5t-50.5 31.5t-41 39t-34 49t-20.5 60t-8 73q0 107 59 183t153.5 111.5t213.5 35.5q231 0 405 -137l-129 -178q-128 96 -270 96q-72 0 -118 -23t-46 -67q0 -25 14 -43.5t46 -32t62 -22t83 -19.5z" />
    <glyph glyph-name="Scedilla" unicode="&#x15e;" horiz-adv-x="1228" 
d="M1186 403q0 -169 -130 -284t-333 -139l-35 -41q82 -6 137.5 -67t55.5 -148q0 -96 -70.5 -161t-175.5 -65q-141 0 -232 105l93 110q59 -69 133 -69q40 0 66 23t26 57q0 33 -24 56t-58 23q-43 0 -64 -28l-147 67l111 140q-138 15 -268.5 72.5t-223.5 142.5l146 215
q88 -84 206.5 -134.5t235.5 -50.5q108 0 184 46t76 118q0 25 -10.5 46.5t-23.5 37t-41.5 31t-48 24t-59 20.5t-59 16.5t-63.5 15.5q-84 20 -155 46t-134.5 64.5t-107.5 85.5t-69.5 109.5t-25.5 134.5q0 188 149 302t388 114q153 0 280.5 -48t208.5 -128l-131 -213
q-62 60 -160.5 98.5t-201.5 38.5q-106 0 -174 -43t-68 -109q0 -39 24 -70t68 -52.5t87 -35t100 -26.5q37 -8 70.5 -16.5t88.5 -27.5t100.5 -41.5t95.5 -58.5t84 -77.5t56.5 -100t22.5 -125.5z" />
    <glyph glyph-name="scedilla" unicode="&#x15f;" horiz-adv-x="985" 
d="M934 317q0 -138 -94 -224.5t-250 -110.5l-37 -43q82 -6 137 -67t55 -148q0 -96 -70 -161t-175 -65q-141 0 -232 105l92 110q27 -31 63 -50t71 -19q40 0 66 23t26 57q0 33 -24 56t-58 23q-43 0 -64 -28l-147 67l110 138q-204 24 -356 155l129 176q133 -116 305 -116
q82 0 133.5 26t51.5 72q0 25 -14.5 44t-46.5 33t-61.5 23t-82.5 21q-36 8 -57 13t-57.5 15.5t-59 19.5t-53.5 24.5t-50.5 31.5t-41 39t-34 49t-20.5 60t-8 73q0 107 59 183t153.5 111.5t213.5 35.5q231 0 405 -137l-129 -178q-128 96 -270 96q-72 0 -118 -23t-46 -67
q0 -25 14 -43.5t46 -32t62 -22t83 -19.5q46 -10 74 -17t73 -22t73.5 -30t62 -40.5t52.5 -54.5t32.5 -71t13.5 -91z" />
    <glyph glyph-name="Scaron" unicode="&#x160;" horiz-adv-x="1228" 
d="M791 1528h-322l-203 293h250l115 -150l112 150h250zM668 850q37 -8 70.5 -16.5t88.5 -27.5t100.5 -41.5t95.5 -58.5t84 -77.5t56.5 -100t22.5 -125.5q0 -124 -73 -222.5t-198.5 -152t-279.5 -53.5q-161 0 -320.5 60.5t-267.5 161.5l146 215q88 -84 206.5 -134.5
t235.5 -50.5q108 0 184 46t76 118q0 25 -10.5 46.5t-23.5 37t-41.5 31t-48 24t-59 20.5t-59 16.5t-63.5 15.5q-84 20 -155 46t-134.5 64.5t-107.5 85.5t-69.5 109.5t-25.5 134.5q0 188 149 302t388 114q153 0 280.5 -48t208.5 -128l-131 -213q-62 60 -160.5 98.5
t-201.5 38.5q-106 0 -174 -43t-68 -109q0 -39 24 -70t68 -52.5t87 -35t100 -26.5z" />
    <glyph glyph-name="scaron" unicode="&#x161;" horiz-adv-x="985" 
d="M657 1159h-321l-203 293h250l115 -149l112 149h250zM553 643q46 -10 74 -17t73 -22t73.5 -30t62 -40.5t52.5 -54.5t32.5 -71t13.5 -91q0 -107 -60 -186t-160 -117.5t-227 -38.5q-254 0 -440 160l129 176q133 -116 305 -116q82 0 133.5 26t51.5 72q0 25 -14.5 44t-46.5 33
t-61.5 23t-82.5 21q-36 8 -57 13t-57.5 15.5t-59 19.5t-53.5 24.5t-50.5 31.5t-41 39t-34 49t-20.5 60t-8 73q0 107 59 183t153.5 111.5t213.5 35.5q231 0 405 -137l-129 -178q-128 96 -270 96q-72 0 -118 -23t-46 -67q0 -25 14 -43.5t46 -32t62 -22t83 -19.5z" />
    <glyph glyph-name="uni0162" unicode="&#x162;" horiz-adv-x="1206" 
d="M745 0h-47l-49 -59q82 -6 137.5 -67t55.5 -148q0 -96 -70.5 -161t-175.5 -65q-140 0 -231 105l92 110q59 -69 133 -69q40 0 66 23t26 57q0 33 -24 56t-58 23q-42 0 -63 -28l-148 67l125 156h-51v1147h-410v266h1100v-266h-408v-1147z" />
    <glyph glyph-name="uni0163" unicode="&#x163;" horiz-adv-x="839" 
d="M584 -59q82 -6 137 -67t55 -148q0 -96 -70.5 -161t-175.5 -65q-140 0 -231 105l92 110q59 -69 133 -69q40 0 66 23t26 57t-23.5 56.5t-57.5 22.5q-43 0 -64 -28l-147 67l118 148q-108 33 -163.5 119t-55.5 213v477h-166v243h166v265h266v-265h281v-243h-281v-434
q0 -134 144 -134q61 0 137 35v-248q-70 -37 -158 -43z" />
    <glyph glyph-name="Tcaron" unicode="&#x164;" horiz-adv-x="1206" 
d="M766 1528h-322l-202 293h250l114 -150l113 150h250zM1153 1413v-266h-408v-1147h-282v1147h-410v266h1100z" />
    <glyph glyph-name="tcaron" unicode="&#x165;" horiz-adv-x="839" 
d="M627 1606h241l-84 -455h-200zM489 1309v-265h281v-243h-281v-434q0 -134 144 -134q61 0 137 35v-248q-83 -45 -195 -45q-175 0 -263.5 93.5t-88.5 255.5v477h-166v243h166v265h266z" />
    <glyph glyph-name="Tbar" unicode="&#x166;" horiz-adv-x="1206" 
d="M1153 1147h-408v-404h173v-190h-173v-553h-282v553h-172v190h172v404h-410v266h1100v-266z" />
    <glyph glyph-name="tbar" unicode="&#x167;" horiz-adv-x="839" 
d="M770 801h-281v-166h222v-191h-222v-77q0 -134 144 -134q61 0 137 35v-248q-83 -45 -195 -45q-175 0 -263.5 93.5t-88.5 255.5v120h-139v191h139v166h-166v243h166v265h266v-265h281v-243z" />
    <glyph glyph-name="Utilde" unicode="&#x168;" horiz-adv-x="1404" 
d="M836 1540q-51 0 -95 21t-78.5 42t-62.5 21q-35 0 -56.5 -22.5t-21.5 -55.5h-188q0 127 61 209t172 82q50 0 93.5 -22t78 -44t62.5 -22q34 0 57 24t23 58h186q0 -129 -60.5 -210t-170.5 -81zM702 -25q-165 0 -299 74.5t-210 205.5t-76 292v866h282v-862q0 -129 86.5 -216
t216.5 -87t217 87t87 216v862h282v-866q0 -161 -76.5 -292t-210.5 -205.5t-299 -74.5z" />
    <glyph glyph-name="utilde" unicode="&#x169;" horiz-adv-x="1196" 
d="M731 1171q-40 0 -77 13t-59 29t-49 29t-50 13q-35 0 -56.5 -22t-21.5 -55h-189q0 127 61.5 208.5t172.5 81.5q39 0 75.5 -14t59 -30t49 -30t49.5 -14q34 0 57 24t23 58h187q0 -129 -60.5 -210t-171.5 -81zM598 -25q-221 0 -354 120.5t-133 320.5v628h266v-591
q0 -100 60.5 -160t160.5 -60t160.5 60t60.5 160v591h266v-628q0 -199 -133.5 -320t-353.5 -121z" />
    <glyph glyph-name="Umacron" unicode="&#x16a;" horiz-adv-x="1404" 
d="M432 1550v224h541v-224h-541zM702 -25q-165 0 -299 74.5t-210 205.5t-76 292v866h282v-862q0 -129 86.5 -216t216.5 -87t217 87t87 216v862h282v-866q0 -161 -76.5 -292t-210.5 -205.5t-299 -74.5z" />
    <glyph glyph-name="umacron" unicode="&#x16b;" horiz-adv-x="1196" 
d="M328 1182v223h540v-223h-540zM598 -25q-221 0 -354 120.5t-133 320.5v628h266v-591q0 -100 60.5 -160t160.5 -60t160.5 60t60.5 160v591h266v-628q0 -199 -133.5 -320t-353.5 -121z" />
    <glyph glyph-name="Ubreve" unicode="&#x16c;" horiz-adv-x="1404" 
d="M702 1507q-138 0 -230.5 89t-92.5 221h207q0 -52 32.5 -85.5t83.5 -33.5q50 0 83.5 33.5t33.5 85.5h205q0 -132 -92 -221t-230 -89zM702 -25q-165 0 -299 74.5t-210 205.5t-76 292v866h282v-862q0 -129 86.5 -216t216.5 -87t217 87t87 216v862h282v-866
q0 -161 -76.5 -292t-210.5 -205.5t-299 -74.5z" />
    <glyph glyph-name="ubreve" unicode="&#x16d;" horiz-adv-x="1196" 
d="M598 1139q-138 0 -231 88.5t-93 220.5h207q0 -52 33 -85.5t84 -33.5q50 0 83.5 33.5t33.5 85.5h205q0 -132 -92 -220.5t-230 -88.5zM598 -25q-221 0 -354 120.5t-133 320.5v628h266v-591q0 -100 60.5 -160t160.5 -60t160.5 60t60.5 160v591h266v-628q0 -199 -133.5 -320
t-353.5 -121z" />
    <glyph glyph-name="Uring" unicode="&#x16e;" horiz-adv-x="1404" 
d="M702 1503q-91 0 -150.5 58.5t-59.5 146.5t59.5 146.5t150.5 58.5q89 0 149 -58.5t60 -146.5t-60 -146.5t-149 -58.5zM702 1636q29 0 49.5 20.5t20.5 51.5t-20.5 51.5t-49.5 20.5q-30 0 -49.5 -20.5t-19.5 -51.5t19.5 -51.5t49.5 -20.5zM702 -25q-165 0 -299 74.5
t-210 205.5t-76 292v866h282v-862q0 -129 86.5 -216t216.5 -87t217 87t87 216v862h282v-866q0 -161 -76.5 -292t-210.5 -205.5t-299 -74.5z" />
    <glyph glyph-name="uring" unicode="&#x16f;" horiz-adv-x="1196" 
d="M598 1135q-91 0 -151 58t-60 146t60 146.5t151 58.5q89 0 149 -58.5t60 -146.5t-60 -146t-149 -58zM598 1268q30 0 50 20t20 51t-20.5 51.5t-49.5 20.5q-31 0 -50.5 -20.5t-19.5 -51.5t19.5 -51t50.5 -20zM598 -25q-221 0 -354 120.5t-133 320.5v628h266v-591
q0 -100 60.5 -160t160.5 -60t160.5 60t60.5 160v591h266v-628q0 -199 -133.5 -320t-353.5 -121z" />
    <glyph glyph-name="Uhungarumlaut" unicode="&#x170;" horiz-adv-x="1404" 
d="M344 1528l174 293h291l-209 -293h-256zM786 1528l175 293h290l-209 -293h-256zM702 -25q-165 0 -299 74.5t-210 205.5t-76 292v866h282v-862q0 -129 86.5 -216t216.5 -87t217 87t87 216v862h282v-866q0 -161 -76.5 -292t-210.5 -205.5t-299 -74.5z" />
    <glyph glyph-name="uhungarumlaut" unicode="&#x171;" horiz-adv-x="1196" 
d="M240 1159l174 293h291l-209 -293h-256zM682 1159l174 293h291l-209 -293h-256zM598 -25q-221 0 -354 120.5t-133 320.5v628h266v-591q0 -100 60.5 -160t160.5 -60t160.5 60t60.5 160v591h266v-628q0 -199 -133.5 -320t-353.5 -121z" />
    <glyph glyph-name="Uogonek" unicode="&#x172;" horiz-adv-x="1404" 
d="M1006 1413h282v-866q0 -191 -108 -338t-285 -205q-164 -83 -164 -182q0 -42 29.5 -67t68.5 -25q47 0 99 30l59 -163q-86 -58 -201 -58q-118 0 -192 63.5t-74 161.5q0 125 119 213q-227 23 -374.5 183t-147.5 387v866h282v-862q0 -129 86.5 -216t216.5 -87t217 87t87 216
v862z" />
    <glyph glyph-name="uogonek" unicode="&#x173;" horiz-adv-x="1196" 
d="M819 1044h266v-628q0 -160 -87 -271t-240 -151q-146 -80 -146 -172q0 -42 30 -67t69 -25q46 0 98 30l59 -163q-86 -58 -200 -58q-118 0 -192.5 64t-74.5 161q0 126 121 216q-189 20 -300 137.5t-111 298.5v628h266v-591q0 -100 60.5 -160t160.5 -60t160.5 60t60.5 160
v591z" />
    <glyph glyph-name="Wcircumflex" unicode="&#x174;" horiz-adv-x="2066" 
d="M1034 1677l-114 -149h-250l202 293h322l203 -293h-250zM1745 1413h291l-441 -1413h-282l-279 981l-280 -981h-281l-442 1413h299l291 -1028l292 1028h248l293 -1028z" />
    <glyph glyph-name="wcircumflex" unicode="&#x175;" horiz-adv-x="1765" 
d="M883 1309l-115 -150h-250l203 293h321l203 -293h-250zM1458 1044h291l-371 -1044h-274l-221 721l-221 -721h-275l-371 1044h297l217 -704l220 704h272l221 -704z" />
    <glyph glyph-name="Ycircumflex" unicode="&#x176;" horiz-adv-x="1380" 
d="M692 1677l-114 -149h-250l202 293h322l203 -293h-250zM1067 1413h315l-551 -917v-496h-282v496l-551 917h324l372 -631z" />
    <glyph glyph-name="ycircumflex" unicode="&#x177;" horiz-adv-x="1163" 
d="M582 1309l-115 -150h-250l203 293h321l203 -293h-250zM856 1044h297l-516 -1226q-43 -107 -129 -169.5t-189 -62.5q-71 0 -146.5 29t-127.5 76l102 209q53 -56 127 -56q81 0 119 82l43 90l-426 1028h303l273 -710z" />
    <glyph glyph-name="Ydieresis" unicode="&#x178;" horiz-adv-x="1380" 
d="M471 1526q-65 0 -108.5 42.5t-43.5 106.5q0 63 44 106.5t108 43.5t108 -43.5t44 -106.5q0 -64 -43.5 -106.5t-108.5 -42.5zM913 1526q-65 0 -108 42.5t-43 106.5q0 63 43.5 106.5t107.5 43.5q63 0 106.5 -43.5t43.5 -106.5q0 -64 -43.5 -106.5t-106.5 -42.5zM1067 1413
h315l-551 -917v-496h-282v496l-551 917h324l372 -631z" />
    <glyph glyph-name="Zacute" unicode="&#x179;" horiz-adv-x="1257" 
d="M1016 1821l-262 -293h-281l207 293h336zM461 266h723v-266h-1110v203l708 944h-700v266h1087v-203z" />
    <glyph glyph-name="zacute" unicode="&#x17a;" horiz-adv-x="1017" 
d="M897 1452l-262 -293h-281l207 293h336zM451 258h489v-258h-862v195l475 591h-467v258h840v-194z" />
    <glyph glyph-name="Zdotaccent" unicode="&#x17b;" horiz-adv-x="1257" 
d="M627 1526q-68 0 -113 44t-45 111t45.5 112.5t112.5 45.5q68 0 113.5 -45.5t45.5 -112.5t-45.5 -111t-113.5 -44zM461 266h723v-266h-1110v203l708 944h-700v266h1087v-203z" />
    <glyph glyph-name="zdotaccent" unicode="&#x17c;" horiz-adv-x="1017" 
d="M508 1157q-68 0 -113 44.5t-45 111.5t45 112t113 45t114 -45t46 -112t-46 -111.5t-114 -44.5zM451 258h489v-258h-862v195l475 591h-467v258h840v-194z" />
    <glyph glyph-name="Zcaron" unicode="&#x17d;" horiz-adv-x="1257" 
d="M786 1528h-321l-203 293h250l115 -150l112 150h250zM461 266h723v-266h-1110v203l708 944h-700v266h1087v-203z" />
    <glyph glyph-name="zcaron" unicode="&#x17e;" horiz-adv-x="1017" 
d="M670 1159h-322l-203 293h250l115 -149l113 149h249zM451 258h489v-258h-862v195l475 591h-467v258h840v-194z" />
    <glyph glyph-name="florin" unicode="&#x192;" horiz-adv-x="1024" 
d="M977 1141q-125 0 -187.5 -44.5t-80.5 -140.5l-23 -125h197v-241h-238l-106 -610q-33 -191 -162.5 -280t-382.5 -89v272q125 0 187.5 44.5t80.5 140.5l90 522h-182v241h223l37 213q34 191 164 280t383 89v-272z" />
    <glyph glyph-name="uni01C4" unicode="&#x1c4;" horiz-adv-x="2676" 
d="M2206 1528h-320l-205 293h252l113 -150l113 150h251zM696 1413q152 0 286 -54t229.5 -147.5t150.5 -224.5t55 -280t-55 -280t-150.5 -225t-229.5 -148t-286 -54h-553v1413h553zM1880 266h723v-266h-1110v203l709 944h-701v266h1088v-203zM690 266q187 0 311.5 126
t124.5 315t-124.5 314.5t-311.5 125.5h-264v-881h264z" />
    <glyph glyph-name="uni01C5" unicode="&#x1c5;" horiz-adv-x="2506" 
d="M2159 1159h-322l-203 293h250l115 -149l112 149h250zM696 1413q152 0 286 -54t229.5 -147.5t150.5 -224.5t55 -280t-55 -280t-150.5 -225t-229.5 -148t-286 -54h-553v1413h553zM690 266q187 0 311.5 126t124.5 315t-124.5 314.5t-311.5 125.5h-264v-881h264zM1939 258
h490v-258h-862v195l475 591h-467v258h840v-194z" />
    <glyph glyph-name="uni01C6" unicode="&#x1c6;" horiz-adv-x="2328" 
d="M918 920v555h266v-1475h-266v125q-137 -150 -340 -150q-218 0 -364 157t-146 390t146 390t364 157q204 0 340 -149zM1980 1159h-321l-203 293h250l115 -149l112 149h250zM1761 258h490v-258h-862v195l475 591h-467v258h839v-194zM629 233q124 0 206.5 83t82.5 206
t-82.5 206t-206.5 83q-123 0 -205 -83t-82 -206t82 -206t205 -83z" />
    <glyph glyph-name="uni01C7" unicode="&#x1c7;" horiz-adv-x="1984" 
d="M426 1413v-1147h616v-266h-899v1413h283zM1587 1413h283v-964q0 -220 -132.5 -347t-353.5 -127q-127 0 -229 45v271q95 -43 199 -43q109 0 171 56.5t62 158.5v950z" />
    <glyph glyph-name="uni01C8" unicode="&#x1c8;" horiz-adv-x="1636" 
d="M1376 1198q-71 0 -119.5 48t-48.5 118t48.5 118t119.5 48t119.5 -48t48.5 -118t-48.5 -118t-119.5 -48zM1042 266v-266h-899v1413h283v-1147h616zM1243 -59v1103h266v-1134q0 -150 -83 -237t-244 -87q-83 0 -144 25v239q41 -20 92 -20q113 0 113 111z" />
    <glyph glyph-name="uni01C9" unicode="&#x1c9;" horiz-adv-x="1050" 
d="M791 1198q-71 0 -119.5 48t-48.5 118t48.5 118t119.5 48t119 -48t48 -118t-48 -118t-119 -48zM127 0v1475h266v-1475h-266zM596 -414q-82 0 -143 25v239q41 -20 92 -20q112 0 112 111v1103h267v-1134q0 -150 -83.5 -237t-244.5 -87z" />
    <glyph glyph-name="uni01CA" unicode="&#x1ca;" horiz-adv-x="2383" 
d="M1073 485v928h283v-1413h-287l-643 928v-928h-283v1413h287zM1985 1413h282v-964q0 -221 -132 -347.5t-353 -126.5q-128 0 -230 45v271q95 -43 199 -43q110 0 172 56.5t62 158.5v950z" />
    <glyph glyph-name="uni01CB" unicode="&#x1cb;" horiz-adv-x="2029" 
d="M1769 1198q-71 0 -119 48t-48 118t48 118t119 48t119.5 -48t48.5 -118t-48.5 -118t-119.5 -48zM1073 485v928h283v-1413h-287l-643 928v-928h-283v1413h287zM1636 -59v1103h267v-1134q0 -150 -83.5 -237t-244.5 -87q-82 0 -143 25v239q41 -20 92 -20q112 0 112 111z" />
    <glyph glyph-name="uni01CC" unicode="&#x1cc;" horiz-adv-x="1773" 
d="M1513 1198q-71 0 -119 48t-48 118t48 118t119 48t119.5 -48t48.5 -118t-48.5 -118t-119.5 -48zM725 1069q185 0 296.5 -110.5t111.5 -294.5v-664h-267v578q0 106 -62.5 169.5t-166.5 63.5q-109 0 -176.5 -65.5t-67.5 -172.5v-573h-266v1044h266v-116q126 141 332 141z
M1380 -59v1103h267v-1134q0 -150 -83.5 -237t-244.5 -87q-82 0 -143 25v239q41 -20 92 -20q112 0 112 111z" />
    <glyph glyph-name="uni01CD" unicode="&#x1cd;" horiz-adv-x="1466" 
d="M893 1528h-322l-202 293h249l115 -150l113 150h250zM1135 0l-101 274h-606l-100 -274h-305l544 1413h334l543 -1413h-309zM522 535h416l-207 567z" />
    <glyph glyph-name="uni01CE" unicode="&#x1ce;" 
d="M823 1159h-321l-203 293h250l115 -149l112 149h250zM918 1044h266v-1044h-266v125q-137 -150 -340 -150q-218 0 -364 157t-146 390t146 390t364 157q204 0 340 -149v124zM629 233q124 0 206.5 83t82.5 206t-82.5 206t-206.5 83q-123 0 -205 -83t-82 -206t82 -206t205 -83
z" />
    <glyph glyph-name="Gcaron" unicode="&#x1e6;" horiz-adv-x="1589" 
d="M977 1528h-322l-202 293h249l115 -150l113 150h250zM848 795h680v-99q0 -205 -92.5 -370t-256.5 -258t-368 -93q-156 0 -293 56.5t-235 153.5t-154.5 232.5t-56.5 289.5t57 289.5t156 232.5t237 153t295 56q184 0 339.5 -74t250.5 -203l-213 -170q-64 83 -160.5 129.5
t-210.5 46.5q-197 0 -329 -131t-132 -329t131 -329.5t328 -131.5q152 0 265 82.5t145 214.5h-383v252z" />
    <glyph glyph-name="gcaron" unicode="&#x1e7;" horiz-adv-x="1155" 
d="M731 1159h-321l-203 293h250l114 -149l113 149h250zM791 0q156 0 259.5 -81.5t129.5 -225.5l-275 -74q-6 57 -51 91t-115 34h-342q-146 0 -234.5 77t-88.5 202q0 80 38.5 151t102.5 111q-139 130 -139 325q0 197 139.5 328t349.5 131q121 0 228 -49q23 85 94.5 133.5
t173.5 48.5h86v-246h-74q-40 0 -69.5 -20t-36.5 -55q90 -117 90 -271q0 -196 -141 -327t-351 -131q-86 0 -172 26q-53 -32 -53 -90q0 -38 31 -63t80 -25h340zM565 817q-94 0 -155.5 -59t-61.5 -148t61.5 -148t155.5 -59q93 0 155 59t62 148t-62 148t-155 59z" />
    <glyph glyph-name="uni01EA" unicode="&#x1ea;" horiz-adv-x="1634" 
d="M1061 12q-180 -88 -180 -190q0 -42 29.5 -67t68.5 -25q46 0 98 30l60 -163q-86 -58 -201 -58q-118 0 -192 63.5t-74 161.5q0 61 30.5 116t85.5 95q-202 8 -365.5 105t-256 262t-92.5 365q0 154 57 289.5t156 232.5t237 153t295 56q209 0 380 -95.5t268.5 -263
t97.5 -372.5q0 -246 -138.5 -435t-363.5 -260zM362 707q0 -196 130.5 -327.5t324.5 -131.5t324.5 131.5t130.5 327.5t-130.5 327t-324.5 131t-324.5 -131t-130.5 -327z" />
    <glyph glyph-name="uni01EB" unicode="&#x1eb;" horiz-adv-x="1249" 
d="M815 6q-166 -85 -166 -184q0 -42 30 -67t69 -25q46 0 98 30l59 -163q-86 -58 -200 -58q-118 0 -192.5 64t-74.5 161q0 125 119 216q-215 22 -354.5 174t-139.5 368q0 233 161.5 390t400.5 157t400 -157t161 -390q0 -182 -102 -321.5t-269 -194.5zM338 522q0 -123 82 -206
t205 -83q124 0 205 82.5t81 206.5t-81 206.5t-205 82.5q-123 0 -205 -83t-82 -206z" />
    <glyph glyph-name="uni01F1" unicode="&#x1f1;" horiz-adv-x="2676" 
d="M696 1413q152 0 286 -54t229.5 -147.5t150.5 -224.5t55 -280t-55 -280t-150.5 -225t-229.5 -148t-286 -54h-553v1413h553zM1880 266h723v-266h-1110v203l709 944h-701v266h1088v-203zM690 266q187 0 311.5 126t124.5 315t-124.5 314.5t-311.5 125.5h-264v-881h264z" />
    <glyph glyph-name="uni01F2" unicode="&#x1f2;" horiz-adv-x="2506" 
d="M696 1413q152 0 286 -54t229.5 -147.5t150.5 -224.5t55 -280t-55 -280t-150.5 -225t-229.5 -148t-286 -54h-553v1413h553zM690 266q187 0 311.5 126t124.5 315t-124.5 314.5t-311.5 125.5h-264v-881h264zM1939 258h490v-258h-862v195l475 591h-467v258h840v-194z" />
    <glyph glyph-name="uni01F3" unicode="&#x1f3;" horiz-adv-x="2328" 
d="M918 920v555h266v-1475h-266v125q-137 -150 -340 -150q-218 0 -364 157t-146 390t146 390t364 157q204 0 340 -149zM1761 258h490v-258h-862v195l475 591h-467v258h839v-194zM629 233q124 0 206.5 83t82.5 206t-82.5 206t-206.5 83q-123 0 -205 -83t-82 -206t82 -206
t205 -83z" />
    <glyph glyph-name="uni01F4" unicode="&#x1f4;" horiz-adv-x="1589" 
d="M1206 1821l-262 -293h-280l206 293h336zM848 795h680v-99q0 -205 -92.5 -370t-256.5 -258t-368 -93q-156 0 -293 56.5t-235 153.5t-154.5 232.5t-56.5 289.5t57 289.5t156 232.5t237 153t295 56q184 0 339.5 -74t250.5 -203l-213 -170q-64 83 -160.5 129.5t-210.5 46.5
q-197 0 -329 -131t-132 -329t131 -329.5t328 -131.5q152 0 265 82.5t145 214.5h-383v252z" />
    <glyph glyph-name="uni01F5" unicode="&#x1f5;" horiz-adv-x="1155" 
d="M958 1452l-262 -293h-280l207 293h335zM791 0q156 0 259.5 -81.5t129.5 -225.5l-275 -74q-6 57 -51 91t-115 34h-342q-146 0 -234.5 77t-88.5 202q0 80 38.5 151t102.5 111q-139 130 -139 325q0 197 139.5 328t349.5 131q121 0 228 -49q23 85 94.5 133.5t173.5 48.5h86
v-246h-74q-40 0 -69.5 -20t-36.5 -55q90 -117 90 -271q0 -196 -141 -327t-351 -131q-86 0 -172 26q-53 -32 -53 -90q0 -38 31 -63t80 -25h340zM565 817q-94 0 -155.5 -59t-61.5 -148t61.5 -148t155.5 -59q93 0 155 59t62 148t-62 148t-155 59z" />
    <glyph glyph-name="AEacute" unicode="&#x1fc;" horiz-adv-x="1863" 
d="M1456 1821l-262 -293h-281l207 293h336zM1184 266h594v-266h-877v268h-489l-156 -268h-322l824 1413h1009v-266h-583v-303h518v-266h-518v-312zM561 528h340v588z" />
    <glyph glyph-name="aeacute" unicode="&#x1fd;" horiz-adv-x="1890" 
d="M1327 1452l-262 -293h-281l207 293h336zM1831 516q0 -50 -6 -84h-811q26 -102 106.5 -161.5t192.5 -59.5q88 0 161.5 36t116.5 91l185 -154q-85 -99 -206 -154t-263 -55q-124 0 -232 45.5t-184 126.5q-66 -77 -177 -124.5t-245 -47.5q-189 0 -304.5 94t-115.5 236
q0 138 111.5 230t279.5 92h303v28q0 85 -65.5 136t-173.5 51q-147 0 -234 -103l-155 152q61 83 165.5 130.5t235.5 47.5q120 0 218.5 -41t164.5 -115q153 156 383 156q116 0 217.5 -42t174.5 -114.5t115 -175.5t42 -221zM1280 836q-96 0 -166.5 -57t-97.5 -152h530
q-26 95 -98.5 152t-167.5 57zM508 190q80 0 153 31.5t125 83.5q-26 66 -34 127h-267q-71 0 -116 -33.5t-45 -83.5q0 -54 51.5 -89.5t132.5 -35.5z" />
    <glyph glyph-name="Oslashacute" unicode="&#x1fe;" horiz-adv-x="1634" 
d="M1243 1821l-262 -293h-281l207 293h336zM1366 1210q197 -210 197 -503q0 -154 -57.5 -289.5t-156 -232.5t-237 -153.5t-295.5 -56.5q-229 0 -414 117l-77 -92h-236l176 205q-194 207 -194 502q0 154 57 289.5t156 232.5t237 153t295 56q230 0 412 -115l78 90h235z
M362 707q0 -159 93 -283l589 684q-105 57 -227 57q-194 0 -324.5 -131t-130.5 -327zM817 248q194 0 324.5 131.5t130.5 327.5q0 158 -92 284l-590 -686q102 -57 227 -57z" />
    <glyph glyph-name="oslashacute" unicode="&#x1ff;" horiz-adv-x="1249" 
d="M1034 1452l-262 -293h-280l206 293h336zM1047 891q139 -152 139 -369q0 -233 -161 -390t-400 -157q-173 0 -314 88l-55 -63h-190l137 154q-140 153 -140 368q0 233 161.5 390t400.5 157q172 0 313 -88l55 63h191zM338 522q0 -94 47 -162l373 420q-60 31 -133 31
q-123 0 -205 -83t-82 -206zM625 233q124 0 205 82.5t81 206.5q0 93 -47 164l-372 -422q60 -31 133 -31z" />
    <glyph glyph-name="uni0200" unicode="&#x200;" horiz-adv-x="1466" 
d="M647 1528h-258l-207 293h291zM1090 1528h-259l-206 293h290zM1135 0l-101 274h-606l-100 -274h-305l544 1413h334l543 -1413h-309zM522 535h416l-207 567z" />
    <glyph glyph-name="uni0201" unicode="&#x201;" 
d="M578 1159h-259l-206 293h290zM1020 1159h-258l-207 293h291zM918 1044h266v-1044h-266v125q-137 -150 -340 -150q-218 0 -364 157t-146 390t146 390t364 157q204 0 340 -149v124zM629 233q124 0 206.5 83t82.5 206t-82.5 206t-206.5 83q-123 0 -205 -83t-82 -206t82 -206
t205 -83z" />
    <glyph glyph-name="uni0202" unicode="&#x202;" horiz-adv-x="1466" 
d="M733 1640q-51 0 -84 -33.5t-33 -84.5h-206q0 132 92.5 220.5t230.5 88.5t230 -88.5t92 -220.5h-205q0 51 -33.5 84.5t-83.5 33.5zM1135 0l-101 274h-606l-100 -274h-305l544 1413h334l543 -1413h-309zM522 535h416l-207 567z" />
    <glyph glyph-name="uni0203" unicode="&#x203;" 
d="M664 1272q-51 0 -84 -34t-33 -85h-207q0 132 93 220.5t231 88.5t229.5 -88.5t91.5 -220.5h-205q0 51 -33 85t-83 34zM918 1044h266v-1044h-266v125q-137 -150 -340 -150q-218 0 -364 157t-146 390t146 390t364 157q204 0 340 -149v124zM629 233q124 0 206.5 83t82.5 206
t-82.5 206t-206.5 83q-123 0 -205 -83t-82 -206t82 -206t205 -83z" />
    <glyph glyph-name="uni0204" unicode="&#x204;" horiz-adv-x="1189" 
d="M539 1528h-258l-207 293h291zM981 1528h-258l-207 293h291zM426 266h678v-266h-961v1413h951v-266h-668v-303h600v-266h-600v-312z" />
    <glyph glyph-name="uni0205" unicode="&#x205;" horiz-adv-x="1226" 
d="M541 1159h-258l-207 293h291zM983 1159h-258l-207 293h291zM1167 520q0 -50 -6 -94h-809q28 -99 107 -157t192 -58q91 0 167 36.5t120 92.5l178 -156q-83 -99 -205.5 -154t-267.5 -55q-164 0 -297 72t-208 198.5t-75 280.5q0 152 72.5 276.5t200 195.5t282.5 71
q235 0 392 -156.5t157 -392.5zM616 836q-97 0 -169 -58.5t-97 -156.5h533q-25 98 -97.5 156.5t-169.5 58.5z" />
    <glyph glyph-name="uni0206" unicode="&#x206;" horiz-adv-x="1189" 
d="M625 1640q-51 0 -84 -33.5t-33 -84.5h-207q0 132 93 220.5t231 88.5t229.5 -88.5t91.5 -220.5h-205q0 51 -33 84.5t-83 33.5zM426 266h678v-266h-961v1413h951v-266h-668v-303h600v-266h-600v-312z" />
    <glyph glyph-name="uni0207" unicode="&#x207;" horiz-adv-x="1226" 
d="M627 1272q-51 0 -84 -34t-33 -85h-207q0 132 93 220.5t231 88.5t229.5 -88.5t91.5 -220.5h-205q0 51 -33 85t-83 34zM1167 520q0 -50 -6 -94h-809q28 -99 107 -157t192 -58q91 0 167 36.5t120 92.5l178 -156q-83 -99 -205.5 -154t-267.5 -55q-164 0 -297 72t-208 198.5
t-75 280.5q0 152 72.5 276.5t200 195.5t282.5 71q235 0 392 -156.5t157 -392.5zM616 836q-97 0 -169 -58.5t-97 -156.5h533q-25 98 -97.5 156.5t-169.5 58.5z" />
    <glyph glyph-name="uni0208" unicode="&#x208;" horiz-adv-x="569" 
d="M-57 1528l-207 293h291l174 -293h-258zM385 1528l-207 293h291l174 -293h-258zM143 0v1413h283v-1413h-283z" />
    <glyph glyph-name="uni0209" unicode="&#x209;" horiz-adv-x="520" 
d="M-82 1159l-207 293h291l174 -293h-258zM360 1159l-206 293h290l174 -293h-258zM127 0v1044h266v-1044h-266z" />
    <glyph glyph-name="uni020A" unicode="&#x20a;" horiz-adv-x="569" 
d="M-37 1522q0 132 93 220.5t231 88.5t229.5 -88.5t91.5 -220.5h-205q0 51 -33 84.5t-83 33.5q-51 0 -84 -33.5t-33 -84.5h-207zM143 0v1413h283v-1413h-283z" />
    <glyph glyph-name="uni020B" unicode="&#x20b;" horiz-adv-x="520" 
d="M-63 1153q0 132 92.5 220.5t230.5 88.5t230 -88.5t92 -220.5h-205q0 51 -33.5 85t-83.5 34q-51 0 -84 -34t-33 -85h-206zM127 0v1044h266v-1044h-266z" />
    <glyph glyph-name="uni020C" unicode="&#x20c;" horiz-adv-x="1634" 
d="M473 1528l-207 293h291l174 -293h-258zM915 1528l-206 293h290l175 -293h-259zM817 -25q-157 0 -295 56.5t-237 153.5t-156 232.5t-57 289.5t57 289.5t156 232.5t237 153t295 56q209 0 380 -95.5t268.5 -263t97.5 -372.5q0 -154 -57.5 -289.5t-156 -232.5t-237 -153.5
t-295.5 -56.5zM817 248q194 0 324.5 131.5t130.5 327.5t-130.5 327t-324.5 131t-324.5 -131t-130.5 -327t130.5 -327.5t324.5 -131.5z" />
    <glyph glyph-name="uni020D" unicode="&#x20d;" horiz-adv-x="1249" 
d="M283 1159l-207 293h291l174 -293h-258zM725 1159l-207 293h291l174 -293h-258zM625 -25q-239 0 -400.5 157t-161.5 390t161.5 390t400.5 157t400 -157t161 -390t-161 -390t-400 -157zM625 233q124 0 205 82.5t81 206.5t-81 206.5t-205 82.5q-123 0 -205 -83t-82 -206
t82 -206t205 -83z" />
    <glyph glyph-name="uni020E" unicode="&#x20e;" horiz-adv-x="1634" 
d="M494 1522q0 132 92.5 220.5t230.5 88.5t230 -88.5t92 -220.5h-205q0 51 -33.5 84.5t-83.5 33.5q-51 0 -84 -33.5t-33 -84.5h-206zM817 -25q-157 0 -295 56.5t-237 153.5t-156 232.5t-57 289.5t57 289.5t156 232.5t237 153t295 56q209 0 380 -95.5t268.5 -263t97.5 -372.5
q0 -154 -57.5 -289.5t-156 -232.5t-237 -153.5t-295.5 -56.5zM817 248q194 0 324.5 131.5t130.5 327.5t-130.5 327t-324.5 131t-324.5 -131t-130.5 -327t130.5 -327.5t324.5 -131.5z" />
    <glyph glyph-name="uni020F" unicode="&#x20f;" horiz-adv-x="1249" 
d="M303 1153q0 132 93 220.5t231 88.5t229.5 -88.5t91.5 -220.5h-205q0 51 -33 85t-83 34q-51 0 -84 -34t-33 -85h-207zM625 -25q-239 0 -400.5 157t-161.5 390t161.5 390t400.5 157t400 -157t161 -390t-161 -390t-400 -157zM625 233q124 0 205 82.5t81 206.5t-81 206.5
t-205 82.5q-123 0 -205 -83t-82 -206t82 -206t205 -83z" />
    <glyph glyph-name="uni0210" unicode="&#x210;" horiz-adv-x="1296" 
d="M563 1528h-258l-207 293h291zM1006 1528h-258l-207 293h290zM920 0l-326 504h-168v-504h-283v1413h602q204 0 342 -132.5t138 -330.5q0 -150 -87.5 -264.5t-230.5 -159.5l353 -526h-340zM426 1147v-397h313q83 0 139 56.5t56 141.5t-56 142t-139 57h-313z" />
    <glyph glyph-name="uni0211" unicode="&#x211;" horiz-adv-x="768" 
d="M172 1452l174 -293h-258l-207 293h291zM788 1159h-258l-206 293h290zM393 909q120 152 301 152h45v-275h-45q-142 0 -221.5 -78t-79.5 -212v-496h-266v1044h266v-135z" />
    <glyph glyph-name="uni0212" unicode="&#x212;" horiz-adv-x="1296" 
d="M649 1640q-51 0 -84 -33.5t-33 -84.5h-206q0 132 92.5 220.5t230.5 88.5t230 -88.5t92 -220.5h-205q0 51 -33.5 84.5t-83.5 33.5zM920 0l-326 504h-168v-504h-283v1413h602q204 0 342 -132.5t138 -330.5q0 -150 -87.5 -264.5t-230.5 -159.5l353 -526h-340zM426 1147v-397
h313q83 0 139 56.5t56 141.5t-56 142t-139 57h-313z" />
    <glyph glyph-name="uni0213" unicode="&#x213;" horiz-adv-x="768" 
d="M432 1272q-51 0 -84 -34t-33 -85h-206q0 132 92.5 220.5t230.5 88.5t230 -88.5t92 -220.5h-205q0 51 -33.5 85t-83.5 34zM393 909q120 152 301 152h45v-275h-45q-142 0 -221.5 -78t-79.5 -212v-496h-266v1044h266v-135z" />
    <glyph glyph-name="uni0214" unicode="&#x214;" horiz-adv-x="1404" 
d="M358 1528l-206 293h290l174 -293h-258zM801 1528l-207 293h291l174 -293h-258zM702 -25q-165 0 -299 74.5t-210 205.5t-76 292v866h282v-862q0 -129 86.5 -216t216.5 -87t217 87t87 216v862h282v-866q0 -161 -76.5 -292t-210.5 -205.5t-299 -74.5z" />
    <glyph glyph-name="uni0215" unicode="&#x215;" horiz-adv-x="1196" 
d="M254 1159l-207 293h291l174 -293h-258zM696 1159l-207 293h291l174 -293h-258zM598 -25q-221 0 -354 120.5t-133 320.5v628h266v-591q0 -100 60.5 -160t160.5 -60t160.5 60t60.5 160v591h266v-628q0 -199 -133.5 -320t-353.5 -121z" />
    <glyph glyph-name="uni0216" unicode="&#x216;" horiz-adv-x="1404" 
d="M379 1522q0 132 92.5 220.5t230.5 88.5t230 -88.5t92 -220.5h-205q0 51 -33.5 84.5t-83.5 33.5q-51 0 -83.5 -33.5t-32.5 -84.5h-207zM702 -25q-165 0 -299 74.5t-210 205.5t-76 292v866h282v-862q0 -129 86.5 -216t216.5 -87t217 87t87 216v862h282v-866
q0 -161 -76.5 -292t-210.5 -205.5t-299 -74.5z" />
    <glyph glyph-name="uni0217" unicode="&#x217;" horiz-adv-x="1196" 
d="M274 1153q0 132 93 220.5t231 88.5t230 -88.5t92 -220.5h-205q0 51 -33.5 85t-83.5 34q-51 0 -84 -34t-33 -85h-207zM598 -25q-221 0 -354 120.5t-133 320.5v628h266v-591q0 -100 60.5 -160t160.5 -60t160.5 60t60.5 160v591h266v-628q0 -199 -133.5 -320t-353.5 -121z
" />
    <glyph glyph-name="uni0218" unicode="&#x218;" horiz-adv-x="1228" 
d="M635 -25q-161 0 -320.5 60.5t-267.5 161.5l146 215q88 -84 206.5 -134.5t235.5 -50.5q108 0 184 46t76 118q0 25 -10.5 46.5t-23.5 37t-41.5 31t-48 24t-59 20.5t-59 16.5t-63.5 15.5q-84 20 -155 46t-134.5 64.5t-107.5 85.5t-69.5 109.5t-25.5 134.5q0 188 149 302
t388 114q153 0 280.5 -48t208.5 -128l-131 -213q-62 60 -160.5 98.5t-201.5 38.5q-106 0 -174 -43t-68 -109q0 -39 24 -70t68 -52.5t87 -35t100 -26.5q37 -8 70.5 -16.5t88.5 -27.5t100.5 -41.5t95.5 -58.5t84 -77.5t56.5 -100t22.5 -125.5q0 -124 -73 -222.5t-198.5 -152
t-279.5 -53.5zM438 -461l84 348h275l-140 -348h-219z" />
    <glyph glyph-name="uni0219" unicode="&#x219;" horiz-adv-x="985" 
d="M487 -25q-254 0 -440 160l129 176q133 -116 305 -116q82 0 133.5 26t51.5 72q0 25 -14.5 44t-46.5 33t-61.5 23t-82.5 21q-36 8 -57 13t-57.5 15.5t-59 19.5t-53.5 24.5t-50.5 31.5t-41 39t-34 49t-20.5 60t-8 73q0 107 59 183t153.5 111.5t213.5 35.5q231 0 405 -137
l-129 -178q-128 96 -270 96q-72 0 -118 -23t-46 -67q0 -25 14 -43.5t46 -32t62 -22t83 -19.5q46 -10 74 -17t73 -22t73.5 -30t62 -40.5t52.5 -54.5t32.5 -71t13.5 -91q0 -107 -60 -186t-160 -117.5t-227 -38.5zM305 -461l84 348h275l-140 -348h-219z" />
    <glyph glyph-name="uni021A" unicode="&#x21a;" horiz-adv-x="1206" 
d="M53 1413h1100v-266h-408v-1147h-282v1147h-410v266zM412 -461l84 348h274l-139 -348h-219z" />
    <glyph glyph-name="uni021B" unicode="&#x21b;" horiz-adv-x="839" 
d="M770 801h-281v-434q0 -134 144 -134q61 0 137 35v-248q-83 -45 -195 -45q-175 0 -263.5 93.5t-88.5 255.5v477h-166v243h166v265h266v-265h281v-243zM264 -461l84 348h275l-140 -348h-219z" />
    <glyph glyph-name="uni0232" unicode="&#x232;" horiz-adv-x="1380" 
d="M963 1774v-224h-541v224h541zM1067 1413h315l-551 -917v-496h-282v496l-551 917h324l372 -631z" />
    <glyph glyph-name="uni0233" unicode="&#x233;" horiz-adv-x="1163" 
d="M852 1405v-223h-541v223h541zM856 1044h297l-516 -1226q-43 -107 -129 -169.5t-189 -62.5q-71 0 -146.5 29t-127.5 76l102 209q53 -56 127 -56q81 0 119 82l43 90l-426 1028h303l273 -710z" />
    <glyph glyph-name="uni0237" unicode="&#x237;" horiz-adv-x="530" 
d="M76 -414q-83 0 -144 25v239q41 -20 93 -20q112 0 112 111v1103h266v-1134q0 -150 -83 -237t-244 -87z" />
    <glyph glyph-name="uni02BC" unicode="&#x2bc;" horiz-adv-x="284" 
d="M0 1020l43 455h242l-84 -455h-201z" />
    <glyph glyph-name="circumflex" unicode="&#x2c6;" horiz-adv-x="727" 
d="M727 1159h-250l-112 150l-115 -150h-250l203 293h321z" />
    <glyph glyph-name="caron" unicode="&#x2c7;" horiz-adv-x="727" 
d="M477 1452h250l-203 -293h-321l-203 293h250l115 -149z" />
    <glyph glyph-name="breve" unicode="&#x2d8;" horiz-adv-x="645" 
d="M324 1139q-138 0 -231 88.5t-93 220.5h207q0 -52 33 -85.5t84 -33.5q50 0 83 33.5t33 85.5h205q0 -132 -91.5 -220.5t-229.5 -88.5z" />
    <glyph glyph-name="dotaccent" unicode="&#x2d9;" horiz-adv-x="317" 
d="M158 1157q-68 0 -113 44.5t-45 111.5t45 112t113 45t113.5 -45t45.5 -112t-45.5 -111.5t-113.5 -44.5z" />
    <glyph glyph-name="ring" unicode="&#x2da;" horiz-adv-x="419" 
d="M211 1135q-91 0 -151 58t-60 146t60 146.5t151 58.5q89 0 149 -58.5t60 -146.5t-60 -146t-149 -58zM211 1268q29 0 49.5 20t20.5 51t-20.5 51.5t-49.5 20.5q-31 0 -50.5 -20.5t-19.5 -51.5t19.5 -51t50.5 -20z" />
    <glyph glyph-name="ogonek" unicode="&#x2db;" horiz-adv-x="466" 
d="M266 -489q-118 0 -192 63.5t-74 161.5q0 87 61.5 159.5t159.5 110.5h201l4 -6q-215 -94 -215 -207q0 -42 29.5 -67t68.5 -25q46 0 99 31l59 -164q-85 -57 -201 -57z" />
    <glyph glyph-name="tilde" unicode="&#x2dc;" horiz-adv-x="733" 
d="M502 1171q-51 0 -95 21t-78.5 42t-62.5 21q-35 0 -56.5 -22t-21.5 -55h-188q0 127 61 208.5t172 81.5q50 0 93.5 -22t78 -44t62.5 -22q34 0 57 24t23 58h186q0 -129 -60.5 -210t-170.5 -81z" />
    <glyph glyph-name="hungarumlaut" unicode="&#x2dd;" horiz-adv-x="907" 
d="M0 1159l174 293h291l-209 -293h-256zM442 1159l174 293h291l-209 -293h-256z" />
    <glyph glyph-name="gravecomb" unicode="&#x300;" horiz-adv-x="0" 
d="M-281 1159l-262 293h336l207 -293h-281z" />
    <glyph glyph-name="acutecomb" unicode="&#x301;" horiz-adv-x="0" 
d="M-543 1159l207 293h336l-262 -293h-281z" />
    <glyph glyph-name="uni0302" unicode="&#x302;" horiz-adv-x="0" 
d="M0 1159h-250l-112 150l-115 -150h-250l203 293h321z" />
    <glyph glyph-name="tildecomb" unicode="&#x303;" horiz-adv-x="0" 
d="M-231 1171q-51 0 -95 21t-78.5 42t-62.5 21q-35 0 -56.5 -22t-21.5 -55h-188q0 127 61 208.5t172 81.5q50 0 93.5 -22t78 -44t62.5 -22q34 0 57 24t23 58h186q0 -129 -60.5 -210t-170.5 -81z" />
    <glyph glyph-name="uni0304" unicode="&#x304;" horiz-adv-x="0" 
d="M-541 1182v223h541v-223h-541z" />
    <glyph glyph-name="uni0306" unicode="&#x306;" horiz-adv-x="0" 
d="M-322 1139q-138 0 -230.5 88.5t-92.5 220.5h207q0 -52 32.5 -85.5t83.5 -33.5q50 0 83.5 33.5t33.5 85.5h205q0 -132 -92 -220.5t-230 -88.5z" />
    <glyph glyph-name="uni0307" unicode="&#x307;" horiz-adv-x="0" 
d="M-160 1157q-68 0 -112.5 44.5t-44.5 111.5t44.5 112t112.5 45t114 -45t46 -112t-46 -111.5t-114 -44.5z" />
    <glyph glyph-name="uni0308" unicode="&#x308;" horiz-adv-x="0" 
d="M-592 1157q-65 0 -108 43t-43 107q0 63 43.5 106t107.5 43t108 -43t44 -106q0 -64 -43.5 -107t-108.5 -43zM-150 1157q-65 0 -108 43t-43 107q0 63 43.5 106t107.5 43q63 0 106.5 -43t43.5 -106q0 -64 -43.5 -107t-106.5 -43z" />
    <glyph glyph-name="uni030A" unicode="&#x30a;" horiz-adv-x="0" 
d="M-209 1135q-91 0 -151 58t-60 146t60 146.5t151 58.5q89 0 149 -58.5t60 -146.5t-60 -146t-149 -58zM-209 1268q29 0 49.5 20t20.5 51t-20.5 51.5t-49.5 20.5q-31 0 -50.5 -20.5t-19.5 -51.5t19.5 -51t50.5 -20z" />
    <glyph glyph-name="uni030B" unicode="&#x30b;" horiz-adv-x="0" 
d="M-907 1159l174 293h291l-209 -293h-256zM-465 1159l174 293h291l-209 -293h-256z" />
    <glyph glyph-name="uni030C" unicode="&#x30c;" horiz-adv-x="0" 
d="M-250 1452h250l-203 -293h-321l-203 293h250l115 -149z" />
    <glyph glyph-name="uni030F" unicode="&#x30f;" horiz-adv-x="0" 
d="M-700 1159l-207 293h291l174 -293h-258zM-258 1159l-207 293h291l174 -293h-258z" />
    <glyph glyph-name="uni0311" unicode="&#x311;" horiz-adv-x="0" 
d="M-645 1153q0 132 92.5 220.5t230.5 88.5t230 -88.5t92 -220.5h-205q0 51 -33.5 85t-83.5 34q-51 0 -83.5 -34t-32.5 -85h-207z" />
    <glyph glyph-name="uni0312" unicode="&#x312;" horiz-adv-x="0" 
d="M-358 1153l139 348h219l-84 -348h-274z" />
    <glyph glyph-name="dotbelowcomb" unicode="&#x323;" horiz-adv-x="0" 
d="M-160 -426q-67 0 -112 45t-45 113q0 67 44.5 111t112.5 44t114 -44t46 -111t-46 -112.5t-114 -45.5z" />
    <glyph glyph-name="uni0326" unicode="&#x326;" horiz-adv-x="0" 
d="M-358 -461l84 348h274l-139 -348h-219z" />
    <glyph glyph-name="uni0327" unicode="&#x327;" horiz-adv-x="0" 
d="M-193 -59q82 -6 137.5 -67t55.5 -148q0 -96 -70.5 -161t-175.5 -65q-140 0 -231 105l92 110q59 -69 133 -69q40 0 66 23t26 57q0 33 -24 56t-58 23q-42 0 -63 -28l-148 67l125 156v4h185v-4z" />
    <glyph glyph-name="uni0328" unicode="&#x328;" horiz-adv-x="0" 
d="M-201 -489q-118 0 -192 63.5t-74 161.5q0 87 61.5 159.5t159.5 110.5h201l4 -6q-215 -94 -215 -207q0 -42 29.5 -67t68.5 -25q46 0 99 31l59 -164q-85 -57 -201 -57z" />
    <glyph glyph-name="uni0335" unicode="&#x335;" horiz-adv-x="0" 
d="M-627 467v190h627v-190h-627z" />
    <glyph glyph-name="uni0336" unicode="&#x336;" horiz-adv-x="0" 
d="M-1417 463v194h1417v-194h-1417z" />
    <glyph glyph-name="uni0337" unicode="&#x337;" horiz-adv-x="0" 
d="M-1118 0l928 1044h190l-928 -1044h-190z" />
    <glyph glyph-name="uni0338" unicode="&#x338;" horiz-adv-x="0" 
d="M-1452 0l1216 1413h236l-1217 -1413h-235z" />
    <glyph glyph-name="uni03BC" unicode="&#x3bc;" horiz-adv-x="1239" 
d="M846 1044h266v-1044h-266v100q-113 -125 -293 -125q-87 0 -160 31v-395h-266v1433h266v-587q0 -101 59.5 -162.5t159.5 -61.5q105 0 169.5 63t64.5 165v583z" />
    <glyph glyph-name="uni1E0C" unicode="&#x1e0c;" horiz-adv-x="1488" 
d="M696 1413q152 0 286 -54t229.5 -147.5t150.5 -224.5t55 -280t-55 -280t-150.5 -225t-229.5 -148t-286 -54h-553v1413h553zM690 266q187 0 311.5 126t124.5 315t-124.5 314.5t-311.5 125.5h-264v-881h264zM729 -113q68 0 114 -44t46 -111t-46 -112.5t-114 -45.5
q-67 0 -112.5 45t-45.5 113q0 67 45 111t113 44z" />
    <glyph glyph-name="uni1E0D" unicode="&#x1e0d;" 
d="M918 1475h266v-1475h-266v125q-137 -150 -340 -150q-218 0 -364 157t-146 390t146 390t364 157q204 0 340 -149v555zM629 233q124 0 206.5 83t82.5 206t-82.5 206t-206.5 83q-123 0 -205 -83t-82 -206t82 -206t205 -83zM649 -113q68 0 114 -44t46 -111t-46 -112.5
t-114 -45.5q-67 0 -112 45t-45 113q0 67 44.5 111t112.5 44z" />
    <glyph glyph-name="uni1E24" unicode="&#x1e24;" horiz-adv-x="1478" 
d="M1053 1413h282v-1413h-282v578h-627v-578h-283v1413h283v-569h627v569zM739 -113q68 0 114 -44t46 -111t-46 -112.5t-114 -45.5q-67 0 -112 45t-45 113q0 67 44.5 111t112.5 44z" />
    <glyph glyph-name="uni1E25" unicode="&#x1e25;" horiz-adv-x="1243" 
d="M725 1069q185 0 296.5 -110.5t111.5 -294.5v-664h-267v578q0 106 -62 169.5t-165 63.5q-110 0 -178 -65.5t-68 -172.5v-573h-266v1475h266v-553q126 147 332 147zM629 -113q68 0 113.5 -44t45.5 -111t-45.5 -112.5t-113.5 -45.5q-67 0 -112.5 45t-45.5 113q0 67 45 111
t113 44z" />
    <glyph glyph-name="uni1E44" unicode="&#x1e44;" horiz-adv-x="1499" 
d="M756 1526q-68 0 -113 44t-45 111t45 112.5t113 45.5t113.5 -45.5t45.5 -112.5t-45.5 -111t-113.5 -44zM1073 1413h283v-1413h-287l-643 928v-928h-283v1413h287l643 -928v928z" />
    <glyph glyph-name="uni1E45" unicode="&#x1e45;" horiz-adv-x="1243" 
d="M631 1157q-68 0 -113 44.5t-45 111.5t45 112t113 45t114 -45t46 -112t-46 -111.5t-114 -44.5zM725 1069q185 0 296.5 -110.5t111.5 -294.5v-664h-267v578q0 106 -62.5 169.5t-166.5 63.5q-109 0 -176.5 -65.5t-67.5 -172.5v-573h-266v1044h266v-116q126 141 332 141z" />
    <glyph glyph-name="uni1E5A" unicode="&#x1e5a;" horiz-adv-x="1296" 
d="M907 526l353 -526h-340l-326 504h-168v-504h-283v1413h602q204 0 342 -132.5t138 -330.5q0 -150 -87.5 -264.5t-230.5 -159.5zM426 1147v-397h313q83 0 139 56.5t56 141.5t-56 142t-139 57h-313zM647 -113q68 0 114 -44t46 -111t-46 -112.5t-114 -45.5q-67 0 -112.5 45
t-45.5 113q0 67 45 111t113 44z" />
    <glyph glyph-name="uni1E5B" unicode="&#x1e5b;" horiz-adv-x="768" 
d="M694 1061h45v-275h-45q-142 0 -221.5 -78t-79.5 -212v-496h-266v1044h266v-135q120 152 301 152zM260 -113q68 0 114 -44t46 -111t-46 -112.5t-114 -45.5t-113 45t-45 113q0 67 45 111t113 44z" />
    <glyph glyph-name="uni1E62" unicode="&#x1e62;" horiz-adv-x="1228" 
d="M635 -25q-161 0 -320.5 60.5t-267.5 161.5l146 215q88 -84 206.5 -134.5t235.5 -50.5q108 0 184 46t76 118q0 25 -10.5 46.5t-23.5 37t-41.5 31t-48 24t-59 20.5t-59 16.5t-63.5 15.5q-84 20 -155 46t-134.5 64.5t-107.5 85.5t-69.5 109.5t-25.5 134.5q0 188 149 302
t388 114q153 0 280.5 -48t208.5 -128l-131 -213q-62 60 -160.5 98.5t-201.5 38.5q-106 0 -174 -43t-68 -109q0 -39 24 -70t68 -52.5t87 -35t100 -26.5q37 -8 70.5 -16.5t88.5 -27.5t100.5 -41.5t95.5 -58.5t84 -77.5t56.5 -100t22.5 -125.5q0 -124 -73 -222.5t-198.5 -152
t-279.5 -53.5zM629 -426q-67 0 -112.5 45t-45.5 113q0 67 45 111t113 44t113.5 -44t45.5 -111t-45.5 -112.5t-113.5 -45.5z" />
    <glyph glyph-name="uni1E63" unicode="&#x1e63;" horiz-adv-x="985" 
d="M487 -25q-254 0 -440 160l129 176q133 -116 305 -116q82 0 133.5 26t51.5 72q0 25 -14.5 44t-46.5 33t-61.5 23t-82.5 21q-36 8 -57 13t-57.5 15.5t-59 19.5t-53.5 24.5t-50.5 31.5t-41 39t-34 49t-20.5 60t-8 73q0 107 59 183t153.5 111.5t213.5 35.5q231 0 405 -137
l-129 -178q-128 96 -270 96q-72 0 -118 -23t-46 -67q0 -25 14 -43.5t46 -32t62 -22t83 -19.5q46 -10 74 -17t73 -22t73.5 -30t62 -40.5t52.5 -54.5t32.5 -71t13.5 -91q0 -107 -60 -186t-160 -117.5t-227 -38.5zM496 -426q-68 0 -113 45t-45 113q0 67 45 111t113 44
t113.5 -44t45.5 -111t-45.5 -112.5t-113.5 -45.5z" />
    <glyph glyph-name="uni1E6C" unicode="&#x1e6c;" horiz-adv-x="1206" 
d="M53 1413h1100v-266h-408v-1147h-282v1147h-410v266zM604 -113q68 0 114 -44t46 -111t-46 -112.5t-114 -45.5t-113 45t-45 113q0 67 45 111t113 44z" />
    <glyph glyph-name="uni1E6D" unicode="&#x1e6d;" horiz-adv-x="839" 
d="M770 801h-281v-434q0 -134 144 -134q61 0 137 35v-248q-83 -45 -195 -45q-175 0 -263.5 93.5t-88.5 255.5v477h-166v243h166v265h266v-265h281v-243zM457 -113q68 0 113.5 -44t45.5 -111t-45.5 -112.5t-113.5 -45.5q-67 0 -112.5 45t-45.5 113q0 67 45 111t113 44z" />
    <glyph glyph-name="Wgrave" unicode="&#x1e80;" horiz-adv-x="2066" 
d="M1190 1528h-281l-262 293h336zM1745 1413h291l-441 -1413h-282l-279 981l-280 -981h-281l-442 1413h299l291 -1028l292 1028h248l293 -1028z" />
    <glyph glyph-name="wgrave" unicode="&#x1e81;" horiz-adv-x="1765" 
d="M1036 1159h-280l-262 293h335zM1458 1044h291l-371 -1044h-274l-221 721l-221 -721h-275l-371 1044h297l217 -704l220 704h272l221 -704z" />
    <glyph glyph-name="Wacute" unicode="&#x1e82;" horiz-adv-x="2066" 
d="M1423 1821l-262 -293h-280l206 293h336zM1745 1413h291l-441 -1413h-282l-279 981l-280 -981h-281l-442 1413h299l291 -1028l292 1028h248l293 -1028z" />
    <glyph glyph-name="wacute" unicode="&#x1e83;" horiz-adv-x="1765" 
d="M1270 1452l-262 -293h-281l207 293h336zM1458 1044h291l-371 -1044h-274l-221 721l-221 -721h-275l-371 1044h297l217 -704l220 704h272l221 -704z" />
    <glyph glyph-name="Wdieresis" unicode="&#x1e84;" horiz-adv-x="2066" 
d="M813 1526q-65 0 -108 42.5t-43 106.5q0 63 43.5 106.5t107.5 43.5t108 -43.5t44 -106.5q0 -64 -43.5 -106.5t-108.5 -42.5zM1255 1526q-65 0 -108 42.5t-43 106.5q0 63 43.5 106.5t107.5 43.5q63 0 106.5 -43.5t43.5 -106.5q0 -64 -43.5 -106.5t-106.5 -42.5zM1745 1413
h291l-441 -1413h-282l-279 981l-280 -981h-281l-442 1413h299l291 -1028l292 1028h248l293 -1028z" />
    <glyph glyph-name="wdieresis" unicode="&#x1e85;" horiz-adv-x="1765" 
d="M662 1157q-65 0 -108.5 43t-43.5 107q0 63 44 106t108 43t107.5 -43t43.5 -106q0 -64 -43 -107t-108 -43zM1104 1157q-65 0 -108.5 43t-43.5 107q0 63 44 106t108 43q63 0 106 -43t43 -106q0 -64 -43 -107t-106 -43zM1458 1044h291l-371 -1044h-274l-221 721l-221 -721
h-275l-371 1044h297l217 -704l220 704h272l221 -704z" />
    <glyph glyph-name="uni1E92" unicode="&#x1e92;" horiz-adv-x="1257" 
d="M461 266h723v-266h-1110v203l708 944h-700v266h1087v-203zM627 -113q68 0 113.5 -44t45.5 -111t-45.5 -112.5t-113.5 -45.5q-67 0 -112.5 45t-45.5 113q0 67 45 111t113 44z" />
    <glyph glyph-name="uni1E93" unicode="&#x1e93;" horiz-adv-x="1017" 
d="M451 258h489v-258h-862v195l475 591h-467v258h840v-194zM508 -113q68 0 114 -44t46 -111t-46 -112.5t-114 -45.5t-113 45t-45 113q0 67 45 111t113 44z" />
    <glyph glyph-name="uni1E9E" unicode="&#x1e9e;" horiz-adv-x="1337" 
d="M965 858q151 -39 244.5 -158.5t93.5 -277.5q0 -192 -132 -319.5t-329 -127.5q-62 0 -129 16.5t-109 41.5v280q29 -28 84.5 -46.5t106.5 -18.5q94 0 155.5 52.5t61.5 135.5q0 76 -53 128t-132 52h-157v207l221 324h-342q-59 0 -95 -36.5t-36 -96.5v-1014h-283v1044
q0 164 106.5 266.5t276.5 102.5h684v-233z" />
    <glyph glyph-name="uni1EA0" unicode="&#x1ea0;" horiz-adv-x="1466" 
d="M1444 0h-309l-101 274h-606l-100 -274h-305l544 1413h334zM522 535h416l-207 567zM731 -113q68 0 114 -44t46 -111t-46 -112.5t-114 -45.5q-67 0 -112.5 45t-45.5 113q0 67 45 111t113 44z" />
    <glyph glyph-name="uni1EA1" unicode="&#x1ea1;" 
d="M918 1044h266v-1044h-266v125q-137 -150 -340 -150q-218 0 -364 157t-146 390t146 390t364 157q204 0 340 -149v124zM629 233q124 0 206.5 83t82.5 206t-82.5 206t-206.5 83q-123 0 -205 -83t-82 -206t82 -206t205 -83zM662 -113q68 0 113.5 -44t45.5 -111t-45.5 -112.5
t-113.5 -45.5t-113 45t-45 113q0 67 45 111t113 44z" />
    <glyph glyph-name="uni1EB8" unicode="&#x1eb8;" horiz-adv-x="1189" 
d="M426 266h678v-266h-961v1413h951v-266h-668v-303h600v-266h-600v-312zM625 -113q68 0 113.5 -44t45.5 -111t-45.5 -112.5t-113.5 -45.5q-67 0 -112.5 45t-45.5 113q0 67 45 111t113 44z" />
    <glyph glyph-name="uni1EB9" unicode="&#x1eb9;" horiz-adv-x="1226" 
d="M1167 520q0 -50 -6 -94h-809q28 -99 107 -157t192 -58q91 0 167 36.5t120 92.5l178 -156q-83 -99 -205.5 -154t-267.5 -55q-164 0 -297 72t-208 198.5t-75 280.5q0 152 72.5 276.5t200 195.5t282.5 71q235 0 392 -156.5t157 -392.5zM616 836q-97 0 -169 -58.5t-97 -156.5
h533q-25 98 -97.5 156.5t-169.5 58.5zM625 -113q68 0 113.5 -44t45.5 -111t-45.5 -112.5t-113.5 -45.5q-67 0 -112.5 45t-45.5 113q0 67 45 111t113 44z" />
    <glyph glyph-name="uni1EBC" unicode="&#x1ebc;" horiz-adv-x="1189" 
d="M522 1624q-35 0 -56.5 -22.5t-21.5 -55.5h-188q0 127 61 209t172 82q50 0 93.5 -22t78 -44t62.5 -22q34 0 57 24t23 58h186q0 -129 -60.5 -210t-170.5 -81q-51 0 -95 21t-78.5 42t-62.5 21zM426 266h678v-266h-961v1413h951v-266h-668v-303h600v-266h-600v-312z" />
    <glyph glyph-name="uni1EBD" unicode="&#x1ebd;" horiz-adv-x="1226" 
d="M524 1255q-35 0 -56.5 -22t-21.5 -55h-188q0 127 61.5 208.5t172.5 81.5q39 0 75.5 -14t59 -30t49 -30t49.5 -14q34 0 57 24t23 58h186q0 -129 -60.5 -210t-170.5 -81q-51 0 -95 21t-78.5 42t-62.5 21zM1167 520q0 -50 -6 -94h-809q28 -99 107 -157t192 -58
q91 0 167 36.5t120 92.5l178 -156q-83 -99 -205.5 -154t-267.5 -55q-164 0 -297 72t-208 198.5t-75 280.5q0 152 72.5 276.5t200 195.5t282.5 71q235 0 392 -156.5t157 -392.5zM616 836q-97 0 -169 -58.5t-97 -156.5h533q-25 98 -97.5 156.5t-169.5 58.5z" />
    <glyph glyph-name="uni1ECA" unicode="&#x1eca;" horiz-adv-x="569" 
d="M143 0v1413h283v-1413h-283zM285 -426q-67 0 -112.5 45t-45.5 113q0 67 45 111t113 44t113.5 -44t45.5 -111t-45.5 -112.5t-113.5 -45.5z" />
    <glyph glyph-name="uni1ECB" unicode="&#x1ecb;" horiz-adv-x="520" 
d="M260 1198q-71 0 -119.5 48t-48.5 118t48.5 118t119.5 48t119.5 -48t48.5 -118t-48.5 -118t-119.5 -48zM127 0v1044h266v-1044h-266zM260 -426q-68 0 -113 45t-45 113q0 67 45 111t113 44t114 -44t46 -111t-46 -112.5t-114 -45.5z" />
    <glyph glyph-name="uni1ECC" unicode="&#x1ecc;" horiz-adv-x="1634" 
d="M817 -25q-157 0 -295 56.5t-237 153.5t-156 232.5t-57 289.5t57 289.5t156 232.5t237 153t295 56q209 0 380 -95.5t268.5 -263t97.5 -372.5q0 -154 -57.5 -289.5t-156 -232.5t-237 -153.5t-295.5 -56.5zM817 248q194 0 324.5 131.5t130.5 327.5t-130.5 327t-324.5 131
t-324.5 -131t-130.5 -327t130.5 -327.5t324.5 -131.5zM817 -426q-67 0 -112.5 45t-45.5 113q0 67 45 111t113 44t114 -44t46 -111t-46 -112.5t-114 -45.5z" />
    <glyph glyph-name="uni1ECD" unicode="&#x1ecd;" horiz-adv-x="1249" 
d="M625 -25q-239 0 -400.5 157t-161.5 390t161.5 390t400.5 157t400 -157t161 -390t-161 -390t-400 -157zM625 233q124 0 205 82.5t81 206.5t-81 206.5t-205 82.5q-123 0 -205 -83t-82 -206t82 -206t205 -83zM625 -426q-67 0 -112.5 45t-45.5 113q0 67 45 111t113 44
t113.5 -44t45.5 -111t-45.5 -112.5t-113.5 -45.5z" />
    <glyph glyph-name="uni1EE4" unicode="&#x1ee4;" horiz-adv-x="1404" 
d="M702 -25q-165 0 -299 74.5t-210 205.5t-76 292v866h282v-862q0 -129 86.5 -216t216.5 -87t217 87t87 216v862h282v-866q0 -161 -76.5 -292t-210.5 -205.5t-299 -74.5zM702 -426q-67 0 -112 45t-45 113q0 67 44.5 111t112.5 44t114 -44t46 -111t-46 -112.5t-114 -45.5z
" />
    <glyph glyph-name="uni1EE5" unicode="&#x1ee5;" horiz-adv-x="1196" 
d="M598 -25q-221 0 -354 120.5t-133 320.5v628h266v-591q0 -100 60.5 -160t160.5 -60t160.5 60t60.5 160v591h266v-628q0 -199 -133.5 -320t-353.5 -121zM598 -426q-68 0 -113 45t-45 113q0 67 45 111t113 44t114 -44t46 -111t-46 -112.5t-114 -45.5z" />
    <glyph glyph-name="Ygrave" unicode="&#x1ef2;" horiz-adv-x="1380" 
d="M846 1528h-281l-262 293h336zM1067 1413h315l-551 -917v-496h-282v496l-551 917h324l372 -631z" />
    <glyph glyph-name="ygrave" unicode="&#x1ef3;" horiz-adv-x="1163" 
d="M737 1159h-280l-262 293h335zM856 1044h297l-516 -1226q-43 -107 -129 -169.5t-189 -62.5q-71 0 -146.5 29t-127.5 76l102 209q53 -56 127 -56q81 0 119 82l43 90l-426 1028h303l273 -710z" />
    <glyph glyph-name="uni1EF8" unicode="&#x1ef8;" horiz-adv-x="1380" 
d="M590 1624q-35 0 -56.5 -22.5t-21.5 -55.5h-188q0 127 61 209t172 82q50 0 93.5 -22t78 -44t62.5 -22q33 0 56 24t23 58h187q0 -129 -60.5 -210t-171.5 -81q-40 0 -77 13t-59 29t-49 29t-50 13zM1067 1413h315l-551 -917v-496h-282v496l-551 917h324l372 -631z" />
    <glyph glyph-name="uni1EF9" unicode="&#x1ef9;" horiz-adv-x="1163" 
d="M479 1255q-35 0 -56.5 -22t-21.5 -55h-188q0 127 61 208.5t172 81.5q50 0 93.5 -22t78 -44t62.5 -22q34 0 57 24t23 58h186q0 -129 -60.5 -210t-170.5 -81q-51 0 -95 21t-78.5 42t-62.5 21zM856 1044h297l-516 -1226q-43 -107 -129 -169.5t-189 -62.5q-71 0 -146.5 29
t-127.5 76l102 209q53 -56 127 -56q81 0 119 82l43 90l-426 1028h303l273 -710z" />
    <glyph glyph-name="endash" unicode="&#x2013;" horiz-adv-x="1245" 
d="M119 440v240h1007v-240h-1007z" />
    <glyph glyph-name="emdash" unicode="&#x2014;" horiz-adv-x="2187" 
d="M119 440v240h1949v-240h-1949z" />
    <glyph glyph-name="quoteleft" unicode="&#x2018;" horiz-adv-x="563" 
d="M80 850l225 563h230l-144 -563h-311z" />
    <glyph glyph-name="quoteright" unicode="&#x2019;" horiz-adv-x="563" 
d="M80 850l143 563h312l-228 -563h-227z" />
    <glyph glyph-name="quotesinglbase" unicode="&#x201a;" horiz-adv-x="530" 
d="M10 -283l144 564h311l-225 -564h-230z" />
    <glyph glyph-name="quotedblleft" unicode="&#x201c;" horiz-adv-x="1040" 
d="M80 850l225 563h230l-144 -563h-311zM555 850l227 563h230l-144 -563h-313z" />
    <glyph glyph-name="quotedblright" unicode="&#x201d;" horiz-adv-x="1040" 
d="M80 850l143 563h312l-228 -563h-227zM555 850l145 563h312l-228 -563h-229z" />
    <glyph glyph-name="quotedblbase" unicode="&#x201e;" horiz-adv-x="1007" 
d="M10 -283l144 564h311l-225 -564h-230zM487 -283l144 564h311l-225 -564h-230z" />
    <glyph glyph-name="dagger" unicode="&#x2020;" horiz-adv-x="1011" 
d="M893 1044v-239h-266v-1194h-242v1194h-266v239h266v369h242v-369h266z" />
    <glyph glyph-name="daggerdbl" unicode="&#x2021;" horiz-adv-x="1011" 
d="M893 805h-266v-545h266v-240h-266v-409h-242v409h-266v240h266v545h-266v239h266v369h242v-369h266v-239z" />
    <glyph glyph-name="bullet" unicode="&#x2022;" horiz-adv-x="716" 
d="M358 324q-103 0 -171 68t-68 169t68.5 169.5t170.5 68.5q101 0 170.5 -68.5t69.5 -169.5t-69 -169t-171 -68z" />
    <glyph glyph-name="ellipsis" unicode="&#x2026;" horiz-adv-x="1628" 
d="M262 -18q-79 0 -132.5 53t-53.5 131t53.5 131t132.5 53q78 0 131 -53t53 -131t-53 -131t-131 -53zM813 -18q-78 0 -131 53t-53 131t53 131t131 53q79 0 132.5 -53t53.5 -131t-53.5 -131t-132.5 -53zM1366 -18q-79 0 -132.5 53t-53.5 131t53.5 131t132.5 53t132.5 -53
t53.5 -131t-53.5 -131t-132.5 -53z" />
    <glyph glyph-name="perthousand" unicode="&#x2030;" horiz-adv-x="2543" 
d="M432 750q-149 0 -249.5 99t-100.5 247q0 146 100.5 244t249.5 98t249.5 -98t100.5 -244q0 -148 -100.5 -247t-249.5 -99zM227 0l1024 1413h285l-1024 -1413h-285zM432 965q55 0 92 37.5t37 93.5q0 54 -37 90.5t-92 36.5t-92 -36.5t-37 -90.5q0 -56 37 -93.5t92 -37.5z
M1331 -25q-149 0 -249.5 99.5t-100.5 247.5q0 146 100.5 244t249.5 98t249.5 -98t100.5 -244q0 -148 -100.5 -247.5t-249.5 -99.5zM2111 -25q-149 0 -249.5 99.5t-100.5 247.5q0 146 100.5 244t249.5 98t250 -98t101 -244q0 -148 -101 -247.5t-250 -99.5zM1331 190
q56 0 92.5 37.5t36.5 94.5q0 54 -37 90.5t-92 36.5t-92 -36.5t-37 -90.5q0 -57 36.5 -94.5t92.5 -37.5zM2111 190q56 0 93 37.5t37 94.5q0 54 -37.5 90.5t-92.5 36.5t-92 -36.5t-37 -90.5q0 -57 36.5 -94.5t92.5 -37.5z" />
    <glyph glyph-name="guilsinglleft" unicode="&#x2039;" horiz-adv-x="753" 
d="M690 958l-311 -417l311 -418h-311l-313 418l313 417h311z" />
    <glyph glyph-name="guilsinglright" unicode="&#x203a;" horiz-adv-x="753" 
d="M385 958l313 -417l-313 -418h-311l313 418l-313 417h311z" />
    <glyph glyph-name="fraction" unicode="&#x2044;" horiz-adv-x="401" 
d="M-406 0l969 1413h246l-971 -1413h-244z" />
    <glyph glyph-name="uni2070" unicode="&#x2070;" horiz-adv-x="808" 
d="M387 735q-148 0 -242 123t-94 316t94 315.5t242 122.5q149 0 242.5 -122t93.5 -316t-93.5 -316.5t-242.5 -122.5zM387 922q60 0 98.5 71t38.5 181t-38.5 180.5t-98.5 70.5q-59 0 -97 -69.5t-38 -181.5t38 -182t97 -70z" />
    <glyph glyph-name="uni2074" unicode="&#x2074;" horiz-adv-x="747" 
d="M698 1085v-182h-82v-153h-194v153h-344l-45 158l368 536h215v-512h82zM229 1085h193v289z" />
    <glyph glyph-name="uni2075" unicode="&#x2075;" horiz-adv-x="724" 
d="M389 1300q125 0 209 -80t84 -198q0 -124 -92.5 -205.5t-237.5 -81.5q-166 0 -303 111l96 155q38 -37 90 -58t103 -21q66 0 105.5 31t39.5 77q0 42 -33 70t-83 28q-66 0 -109 -43l-172 50l43 462h496v-180h-332l-10 -139q46 22 106 22z" />
    <glyph glyph-name="uni2076" unicode="&#x2076;" horiz-adv-x="702" 
d="M416 1296q110 0 186 -79t76 -193q0 -124 -93.5 -206.5t-230.5 -82.5q-148 0 -236.5 96t-88.5 254q0 204 144.5 352t389.5 175l37 -180q-114 -17 -195.5 -62t-123.5 -108q58 34 135 34zM352 920q54 0 89.5 29t35.5 73q0 42 -35 71t-88 29q-50 0 -87.5 -27t-37.5 -71
q0 -45 34.5 -74.5t88.5 -29.5z" />
    <glyph glyph-name="uni2077" unicode="&#x2077;" horiz-adv-x="663" 
d="M43 1597h571v-153l-309 -694h-219l299 665h-342v182z" />
    <glyph glyph-name="uni2078" unicode="&#x2078;" horiz-adv-x="729" 
d="M567 1190q123 -73 123 -199q0 -108 -93 -182t-232 -74t-232.5 73.5t-93.5 182.5q0 61 32.5 113t90.5 86q-107 70 -107 182q0 101 89 170.5t221 69.5t220.5 -69.5t88.5 -170.5q0 -112 -107 -182zM365 1432q-46 0 -78.5 -22.5t-32.5 -57.5t32.5 -57.5t78.5 -22.5t78 22.5
t32 57.5t-32 57.5t-78 22.5zM365 920q54 0 90.5 26t36.5 64t-36.5 64t-90.5 26t-89.5 -26t-35.5 -64t35.5 -64t89.5 -26z" />
    <glyph glyph-name="uni2079" unicode="&#x2079;" horiz-adv-x="702" 
d="M350 1612q148 0 237 -96t89 -254q0 -207 -147 -358.5t-388 -168.5l-37 180q112 10 195.5 57.5t124.5 114.5q-59 -36 -135 -36q-110 0 -186 79t-76 193q0 124 92.5 206.5t230.5 82.5zM227 1325q0 -43 34.5 -71.5t86.5 -28.5t89.5 27t37.5 71q0 45 -35 74.5t-90 29.5
q-52 0 -87.5 -29t-35.5 -73z" />
    <glyph glyph-name="franc" unicode="&#x20a3;" horiz-adv-x="1140" 
d="M1065 1147h-596v-287h516v-266h-516v-168h354v-244h-354v-182h-283v182h-112v244h112v987h879v-266z" />
    <glyph glyph-name="lira" unicode="&#x20a4;" horiz-adv-x="1196" 
d="M494 266h639v-266h-1035v266h113v183h-113v172h113v92h-113v172h113v82q0 201 143 336t357 135q121 0 229.5 -46.5t187.5 -125.5l-145 -207q-54 49 -126 77.5t-144 28.5q-96 0 -157.5 -55.5t-61.5 -142.5v-82h393v-172h-393v-92h393v-172h-393v-183z" />
    <glyph glyph-name="peseta" unicode="&#x20a7;" horiz-adv-x="1357" 
d="M1339 1001v-180h-92q-31 -184 -173 -301t-339 -117h-252v-399h-282v817h-113v180h113v416h534q197 0 339 -116.5t173 -299.5h92zM483 1151v-150h465q-25 68 -84 109t-135 41h-246zM729 670q77 0 135.5 41t83.5 110h-465v-151h246z" />
    <glyph glyph-name="uni20A8" unicode="&#x20a8;" horiz-adv-x="2277" 
d="M1225 950q0 -150 -87.5 -264.5t-230.5 -159.5l353 -526h-340l-326 504h-168v-504h-283v1413h602q204 0 342 -132.5t138 -330.5zM426 1147v-397h313q83 0 139 56.5t56 141.5t-56 142t-139 57h-313zM1845 643q46 -10 74 -17t73 -22t73.5 -30t62 -40.5t52.5 -54.5t32.5 -71
t13.5 -91q0 -107 -60 -186t-159.5 -117.5t-226.5 -38.5q-255 0 -441 160l129 176q133 -116 306 -116q82 0 133 26t51 72q0 25 -14.5 44t-46.5 33t-61.5 23t-82.5 21q-36 8 -57 13t-57.5 15.5t-59 19.5t-53.5 24.5t-50.5 31.5t-41 39t-34 49t-20.5 60t-8 73q0 107 59 183
t153.5 111.5t213.5 35.5q232 0 406 -137l-129 -178q-128 96 -271 96q-72 0 -118 -23t-46 -67q0 -25 14 -43.5t46 -32t62 -22t83 -19.5z" />
    <glyph glyph-name="Euro" unicode="&#x20ac;" horiz-adv-x="1542" 
d="M981 1165q-147 0 -262 -64t-174 -175h712l-45 -174h-720q-3 -21 -3 -45t3 -45h698l-45 -175h-600q59 -111 174 -175t262 -64q129 0 250 52t209 142v-301q-210 -166 -494 -166q-258 0 -451.5 141t-263.5 371h-172l47 175h97q-2 14 -2 45t2 45h-144l47 174h125
q70 229 264.5 370.5t450.5 141.5q282 0 494 -164v-303q-87 90 -208 142t-251 52z" />
    <glyph glyph-name="uni20B1" unicode="&#x20b1;" horiz-adv-x="1357" 
d="M1339 1079v-141h-84v-31v-33h84v-141h-112q-53 -151 -186 -242.5t-306 -91.5h-252v-399h-282v733h-113v141h113v64h-113v141h113v334h534q173 0 306 -91.5t186 -242.5h112zM483 1163v-84h416q-77 84 -197 84h-219zM965 907q0 21 -2 31h-480v-64h480q2 10 2 33zM702 649
q120 0 197 84h-416v-84h219z" />
    <glyph glyph-name="uni20B5" unicode="&#x20b5;" horiz-adv-x="1509" 
d="M918 262q179 30 284 180l240 -155q-88 -127 -223.5 -205.5t-300.5 -95.5v-129h-183v131q-281 34 -461 235t-180 484t180 483.5t461 234.5v131h183v-129q165 -17 300.5 -95.5t223.5 -205.5l-240 -155q-105 150 -284 180v-889zM383 707q0 -166 98 -288.5t254 -154.5v885
q-156 -32 -254 -154t-98 -288z" />
    <glyph glyph-name="uni20B9" unicode="&#x20b9;" horiz-adv-x="1206" 
d="M901 1231q60 -76 80 -164h178l-63 -180h-103q-19 -179 -148 -296.5t-315 -121.5l504 -469h-383l-516 479v250h365q74 0 128 44t72 114h-565v180h539q-28 44 -73.5 69t-100.5 25h-365v252h1024l-63 -182h-195z" />
    <glyph glyph-name="uni2116" unicode="&#x2116;" horiz-adv-x="2342" 
d="M1880 670q-166 0 -277.5 110.5t-111.5 274.5q0 163 111.5 273t277.5 110q167 0 279 -110t112 -273q0 -164 -112 -274.5t-279 -110.5zM1073 485v928h283v-1413h-287l-643 928v-928h-283v1413h287zM1880 1214q-68 0 -113 -45t-45 -114q0 -70 45 -116t113 -46q69 0 114.5 46
t45.5 116q0 69 -45.5 114t-114.5 45zM1522 311v240h719v-240h-719z" />
    <glyph glyph-name="trademark" unicode="&#x2122;" horiz-adv-x="1341" 
d="M25 1276v137h460v-137h-157v-471h-146v471h-157zM1065 1413h178v-608h-143v395l-144 -313h-88l-145 317v-399h-143v608h182l151 -332z" />
    <glyph glyph-name="uni2150" unicode="&#x2150;" horiz-adv-x="1781" 
d="M219 565v615l-123 -70l-86 158l264 145h140v-848h-195zM1169 1413h246l-971 -1413h-243zM1159 848h572v-154l-310 -694h-219l299 666h-342v182z" />
    <glyph glyph-name="uni2151" unicode="&#x2151;" horiz-adv-x="1712" 
d="M219 565v615l-123 -70l-86 158l264 145h140v-848h-195zM1169 1413h246l-971 -1413h-243zM1358 862q148 0 236.5 -96t88.5 -254q0 -207 -146.5 -358t-387.5 -168l-37 180q112 10 195.5 57.5t124.5 114.5q-61 -37 -136 -37q-110 0 -186 79t-76 193q0 124 93 206.5t231 82.5
zM1235 575q0 -43 34.5 -71.5t86.5 -28.5t89.5 27t37.5 71q0 45 -35 75t-90 30q-51 0 -87 -29.5t-36 -73.5z" />
    <glyph glyph-name="uni2152" unicode="&#x2152;" horiz-adv-x="2381" 
d="M219 565v615l-123 -70l-86 158l264 145h140v-848h-195zM1169 1413h246l-971 -1413h-243zM1960 862q149 0 242.5 -122t93.5 -316t-93.5 -316t-242.5 -122q-148 0 -242 122.5t-94 315.5t94 315.5t242 122.5zM1079 702l264 146h140v-848h-195v614l-123 -69zM1960 172
q60 0 98.5 71t38.5 181t-38.5 181t-98.5 71q-59 0 -97 -70t-38 -182t38 -182t97 -70z" />
    <glyph glyph-name="uni2153" unicode="&#x2153;" horiz-adv-x="1714" 
d="M219 565v615l-123 -70l-86 158l264 145h140v-848h-195zM1169 1413h246l-971 -1413h-243zM1546 442q61 -31 95 -85t34 -121q0 -110 -90.5 -180t-232.5 -70q-91 0 -176.5 31t-139.5 87l111 144q35 -35 86.5 -55.5t105.5 -20.5q60 0 99 26t39 66q0 41 -38.5 67.5t-95.5 26.5
h-118v166h118q51 0 83 21t32 53q0 34 -36.5 56t-92.5 22q-97 0 -160 -53l-104 139q51 46 129 73t160 27q134 0 218.5 -65.5t84.5 -169.5q0 -120 -111 -185z" />
    <glyph glyph-name="uni2154" unicode="&#x2154;" horiz-adv-x="1851" 
d="M49 723l277 293q80 85 80 137q0 36 -29 58t-70 22q-82 0 -153 -84l-131 125q45 70 124 111.5t172 41.5q126 0 204.5 -73.5t78.5 -188.5q0 -127 -106 -237l-174 -180h294v-183h-567v158zM1307 1413h245l-970 -1413h-244zM1683 442q61 -31 95 -85t34 -121
q0 -110 -90.5 -180t-232.5 -70q-91 0 -176 31t-139 87l110 144q35 -35 87 -55.5t106 -20.5q60 0 98.5 26t38.5 66q0 41 -38 67.5t-95 26.5h-119v166h119q51 0 82.5 21t31.5 53q0 34 -36.5 56t-92.5 22q-96 0 -159 -53l-105 139q51 46 129 73t160 27q134 0 218.5 -65.5
t84.5 -169.5q0 -120 -111 -185z" />
    <glyph glyph-name="uni2155" unicode="&#x2155;" horiz-adv-x="1761" 
d="M219 565v615l-123 -70l-86 158l264 145h140v-848h-195zM1169 1413h246l-971 -1413h-243zM1423 551q124 0 208.5 -80t84.5 -199q0 -124 -92.5 -205t-237.5 -81q-167 0 -303 110l97 156q38 -37 89.5 -58.5t102.5 -21.5q66 0 106 31.5t40 77.5q0 42 -33 70t-84 28
q-66 0 -109 -43l-172 49l43 463h496v-180h-332l-10 -140q48 23 106 23z" />
    <glyph glyph-name="uni2156" unicode="&#x2156;" horiz-adv-x="1898" 
d="M49 723l277 293q80 85 80 137q0 36 -29 58t-70 22q-82 0 -153 -84l-131 125q45 70 124 111.5t172 41.5q126 0 204.5 -73.5t78.5 -188.5q0 -127 -106 -237l-174 -180h294v-183h-567v158zM1307 1413h245l-970 -1413h-244zM1561 551q124 0 208 -80t84 -199q0 -124 -92 -205
t-237 -81q-167 0 -303 110l96 156q38 -37 89.5 -58.5t102.5 -21.5q66 0 106 31.5t40 77.5q0 42 -33 70t-84 28q-65 0 -108 -43l-173 49l43 463h496v-180h-332l-10 -140q48 23 107 23z" />
    <glyph glyph-name="uni2157" unicode="&#x2157;" horiz-adv-x="1871" 
d="M657 801q0 -110 -90.5 -180t-232.5 -70q-91 0 -176 31.5t-140 87.5l111 143q35 -35 87 -55.5t106 -20.5q60 0 98.5 26t38.5 66q0 41 -38 68t-95 27h-119v166h119q51 0 82.5 20.5t31.5 52.5q0 34 -36.5 56t-92.5 22q-96 0 -159 -53l-105 139q51 46 129 73t160 27
q134 0 218.5 -65.5t84.5 -169.5q0 -119 -111 -184q60 -31 94.5 -85.5t34.5 -121.5zM1280 1413h246l-971 -1413h-244zM1534 551q124 0 208.5 -80t84.5 -199q0 -124 -92.5 -205t-237.5 -81q-167 0 -303 110l96 156q38 -37 90 -58.5t103 -21.5q66 0 105.5 31.5t39.5 77.5
q0 42 -33 70t-84 28q-65 0 -108 -43l-172 49l43 463h495v-180h-331l-11 -140q48 23 107 23z" />
    <glyph glyph-name="uni2158" unicode="&#x2158;" horiz-adv-x="1931" 
d="M422 565v154h-344l-45 158l368 536h215v-512h82v-182h-82v-154h-194zM1339 1413h246l-971 -1413h-243zM229 901h193v289zM1593 551q124 0 208.5 -80t84.5 -199q0 -124 -92.5 -205t-237.5 -81q-167 0 -303 110l97 156q38 -37 89.5 -58.5t102.5 -21.5q66 0 106 31.5
t40 77.5q0 42 -33 70t-84 28q-66 0 -109 -43l-172 49l43 463h496v-180h-332l-10 -140q48 23 106 23z" />
    <glyph glyph-name="uni2159" unicode="&#x2159;" horiz-adv-x="1617" 
d="M219 565v615l-123 -70l-86 158l264 145h140v-848h-195zM1169 1413h246l-971 -1413h-243zM1331 547q110 0 186 -79.5t76 -193.5q0 -124 -93 -206t-230 -82q-148 0 -237 96t-89 254q0 204 145 351.5t390 174.5l37 -180q-114 -17 -196 -62t-124 -108q60 35 135 35zM1268 170
q54 0 89.5 29t35.5 73q0 42 -35 71.5t-88 29.5q-50 0 -87.5 -27.5t-37.5 -71.5q0 -45 34.5 -74.5t88.5 -29.5z" />
    <glyph glyph-name="uni215A" unicode="&#x215a;" horiz-adv-x="1736" 
d="M338 737q66 0 105.5 31.5t39.5 77.5q0 42 -33 70t-83 28q-66 0 -109 -43l-172 49l43 463h496v-180h-332l-10 -139q46 22 106 22q125 0 209 -80t84 -198q0 -124 -92.5 -205.5t-237.5 -81.5q-166 0 -303 111l96 155q38 -37 90 -58.5t103 -21.5zM1288 1413h246l-971 -1413
h-244zM1450 547q110 0 186 -79.5t76 -193.5q0 -124 -93 -206t-230 -82q-148 0 -237 96t-89 254q0 204 144.5 351.5t389.5 174.5l37 -180q-114 -17 -195.5 -62t-123.5 -108q60 35 135 35zM1386 170q54 0 89.5 29t35.5 73q0 42 -34.5 71.5t-87.5 29.5q-50 0 -87.5 -27.5
t-37.5 -71.5q0 -45 34 -74.5t88 -29.5z" />
    <glyph glyph-name="oneeighth" unicode="&#x215b;" horiz-adv-x="1748" 
d="M219 565v615l-123 -70l-86 158l264 145h140v-848h-195zM1169 1413h246l-971 -1413h-243zM1585 440q123 -73 123 -198q0 -108 -93.5 -182t-232.5 -74t-232 73.5t-93 182.5q0 61 32.5 112.5t90.5 85.5q-107 70 -107 183q0 101 88.5 170t220.5 69q133 0 221.5 -69.5
t88.5 -169.5q0 -113 -107 -183zM1382 682q-46 0 -78 -22.5t-32 -57.5t32 -57.5t78 -22.5t78.5 22.5t32.5 57.5t-32.5 57.5t-78.5 22.5zM1382 170q54 0 90.5 26t36.5 64t-36.5 64t-90.5 26t-89.5 -26t-35.5 -64t35.5 -64t89.5 -26z" />
    <glyph glyph-name="threeeighths" unicode="&#x215c;" horiz-adv-x="1859" 
d="M657 801q0 -110 -90.5 -180t-232.5 -70q-91 0 -176 31.5t-140 87.5l111 143q35 -35 87 -55.5t106 -20.5q60 0 98.5 26t38.5 66q0 41 -38 68t-95 27h-119v166h119q51 0 82.5 20.5t31.5 52.5q0 34 -36.5 56t-92.5 22q-96 0 -159 -53l-105 139q51 46 129 73t160 27
q134 0 218.5 -65.5t84.5 -169.5q0 -119 -111 -184q60 -31 94.5 -85.5t34.5 -121.5zM1280 1413h246l-971 -1413h-244zM1696 440q123 -73 123 -198q0 -108 -93.5 -182t-232.5 -74t-232.5 73.5t-93.5 182.5q0 61 32.5 112.5t90.5 85.5q-106 69 -106 183q0 101 88.5 170
t220.5 69t220.5 -69t88.5 -170q0 -114 -106 -183zM1493 682q-46 0 -78.5 -22.5t-32.5 -57.5t32.5 -57.5t78.5 -22.5t78.5 22.5t32.5 57.5t-32.5 57.5t-78.5 22.5zM1493 170q54 0 90.5 26t36.5 64t-36.5 64t-90.5 26t-89.5 -26t-35.5 -64t35.5 -64t89.5 -26z" />
    <glyph glyph-name="fiveeighths" unicode="&#x215d;" horiz-adv-x="1867" 
d="M338 737q66 0 105.5 31.5t39.5 77.5q0 42 -33 70t-83 28q-66 0 -109 -43l-172 49l43 463h496v-180h-332l-10 -139q46 22 106 22q125 0 209 -80t84 -198q0 -124 -92.5 -205.5t-237.5 -81.5q-166 0 -303 111l96 155q38 -37 90 -58.5t103 -21.5zM1288 1413h246l-971 -1413
h-244zM1704 440q123 -73 123 -198q0 -108 -93.5 -182t-232.5 -74t-232 73.5t-93 182.5q0 61 32 112.5t90 85.5q-106 69 -106 183q0 101 88.5 170t220.5 69t220.5 -69t88.5 -170q0 -114 -106 -183zM1501 682q-46 0 -78 -22.5t-32 -57.5t32 -57.5t78 -22.5t78.5 22.5
t32.5 57.5t-32.5 57.5t-78.5 22.5zM1501 170q54 0 90.5 26t36.5 64t-36.5 64t-90.5 26t-89.5 -26t-35.5 -64t35.5 -64t89.5 -26z" />
    <glyph glyph-name="seveneighths" unicode="&#x215e;" horiz-adv-x="1703" 
d="M305 565h-219l299 666h-342v182h571v-153zM1124 1413h246l-971 -1413h-243zM1540 440q123 -73 123 -198q0 -108 -93.5 -182t-232.5 -74t-232 73.5t-93 182.5q0 61 32.5 112.5t90.5 85.5q-107 70 -107 183q0 101 88.5 170t220.5 69q133 0 221.5 -69.5t88.5 -169.5
q0 -113 -107 -183zM1337 682q-46 0 -78 -22.5t-32 -57.5t32 -57.5t78 -22.5t78.5 22.5t32.5 57.5t-32.5 57.5t-78.5 22.5zM1337 170q54 0 90.5 26t36.5 64t-36.5 64t-90.5 26t-89.5 -26t-35.5 -64t35.5 -64t89.5 -26z" />
    <glyph glyph-name="uni215F" unicode="&#x215f;" horiz-adv-x="1007" 
d="M219 565v615l-123 -70l-86 158l264 145h140v-848h-195zM1169 1413h246l-971 -1413h-243z" />
    <glyph glyph-name="uni2189" unicode="&#x2189;" horiz-adv-x="1902" 
d="M723 989q0 -194 -93.5 -316t-242.5 -122q-148 0 -242 122.5t-94 315.5t94 315.5t242 122.5q149 0 242.5 -122t93.5 -316zM1358 1413h246l-971 -1413h-244zM387 737q60 0 98.5 71t38.5 181t-38.5 181t-98.5 71q-59 0 -97 -70t-38 -182t38 -182t97 -70zM1735 442
q61 -31 95 -85t34 -121q0 -110 -90.5 -180t-233.5 -70q-91 0 -176 31t-139 87l110 144q35 -35 87 -55.5t106 -20.5q60 0 98.5 26t38.5 66q0 41 -38 67.5t-95 26.5h-119v166h119q51 0 83 21t32 53q0 34 -36.5 56t-92.5 22q-97 0 -160 -53l-105 139q51 46 129 73t160 27
q134 0 218.5 -65.5t84.5 -169.5q0 -58 -28.5 -106t-81.5 -79z" />
    <glyph glyph-name="arrowleft" unicode="&#x2190;" horiz-adv-x="1339" 
d="M1212 825v-239h-655l199 -193l-160 -157l-469 469l469 471l160 -158l-197 -193h653z" />
    <glyph glyph-name="arrowup" unicode="&#x2191;" horiz-adv-x="1339" 
d="M1141 780l-158 -159l-192 198v-655h-242v651l-191 -194l-157 159l471 469z" />
    <glyph glyph-name="arrowright" unicode="&#x2192;" horiz-adv-x="1339" 
d="M743 1176l469 -471l-469 -469l-159 157l198 193h-655v241h651l-194 191z" />
    <glyph glyph-name="arrowdown" unicode="&#x2193;" horiz-adv-x="1339" 
d="M983 793l158 -160l-469 -469l-471 469l157 160l191 -195v651h242v-655z" />
    <glyph glyph-name="uni2196" unicode="&#x2196;" horiz-adv-x="1339" 
d="M1098 451l-172 -172l-461 460l4 -272h-225v663l663 5v-228l-270 4z" />
    <glyph glyph-name="uni2197" unicode="&#x2197;" horiz-adv-x="1339" 
d="M432 1135l664 -5v-663h-224l5 276l-463 -462l-172 170l463 462l-273 -4v226z" />
    <glyph glyph-name="uni2198" unicode="&#x2198;" horiz-adv-x="1339" 
d="M872 946h226v-663l-664 -4v227l271 -4l-461 461l170 172l463 -463z" />
    <glyph glyph-name="uni2199" unicode="&#x2199;" horiz-adv-x="1339" 
d="M1098 963l-461 -461l270 4v-227l-663 4v663h225l-4 -272l461 461z" />
    <glyph glyph-name="minus" unicode="&#x2212;" horiz-adv-x="1093" 
d="M119 485v240h856v-240h-856z" />
    <glyph glyph-name="approxequal" unicode="&#x2248;" horiz-adv-x="1187" 
d="M774 662q-53 0 -103 16.5t-81.5 36.5t-67.5 36.5t-63 16.5q-43 0 -70 -27t-27 -69h-243q0 163 72.5 261.5t222.5 98.5q53 0 103 -16.5t81.5 -36.5t67.5 -36.5t63 -16.5q41 0 68.5 27.5t27.5 68.5h244q0 -163 -72.5 -261.5t-222.5 -98.5zM774 193q-53 0 -103 16.5
t-81.5 36.5t-67.5 36.5t-63 16.5q-43 0 -70 -27.5t-27 -68.5h-243q0 163 72.5 261.5t222.5 98.5q53 0 103 -16.5t81.5 -36.5t67.5 -36.5t63 -16.5q41 0 68.5 27.5t27.5 68.5h244q0 -163 -72.5 -261.5t-222.5 -98.5z" />
    <glyph glyph-name="notequal" unicode="&#x2260;" horiz-adv-x="1093" 
d="M975 686h-277l-69 -162h346v-239h-451l-65 -152h-234l66 152h-172v239h276l70 162h-346v240h450l66 149h233l-65 -149h172v-240z" />
    <glyph glyph-name="lessequal" unicode="&#x2264;" horiz-adv-x="950" 
d="M831 1200v-264l-454 -141l454 -142v-266l-712 272v269zM119 66v239h712v-239h-712z" />
    <glyph glyph-name="greaterequal" unicode="&#x2265;" horiz-adv-x="950" 
d="M119 1200l712 -272v-269l-712 -272v266l454 142l-454 141v264zM119 66v239h712v-239h-712z" />
    <glyph glyph-name="uni279D" unicode="&#x279d;" horiz-adv-x="2215" 
d="M2060 707l-438 -439v318h-1466v241h1466v318z" />
    <glyph glyph-name="uni27F5" unicode="&#x27f5;" horiz-adv-x="2215" 
d="M2060 825v-239h-1474l198 -193l-159 -157l-469 469l469 471l159 -158l-196 -193h1472z" />
    <glyph glyph-name="uni27F6" unicode="&#x27f6;" horiz-adv-x="2215" 
d="M1591 1176l469 -471l-469 -469l-159 157l198 193h-1474v239h1472l-196 193z" />
    <glyph glyph-name="G.ss05" horiz-adv-x="1630" 
d="M848 795h680v-795h-248v190q-174 -215 -469 -215q-156 0 -293 56.5t-235 153.5t-154.5 232.5t-56.5 289.5t57 289.5t156 232.5t237 153t295 56q184 0 339.5 -74t250.5 -203l-213 -170q-64 83 -160.5 129.5t-210.5 46.5q-197 0 -329 -131t-132 -329t131 -329.5t328 -131.5
q152 0 266.5 82t153.5 215h-393v252z" />
    <glyph glyph-name="uni01F4.ss05" horiz-adv-x="1630" 
d="M1206 1821l-262 -293h-280l206 293h336zM848 795h680v-795h-248v190q-174 -215 -469 -215q-156 0 -293 56.5t-235 153.5t-154.5 232.5t-56.5 289.5t57 289.5t156 232.5t237 153t295 56q184 0 339.5 -74t250.5 -203l-213 -170q-64 83 -160.5 129.5t-210.5 46.5
q-197 0 -329 -131t-132 -329t131 -329.5t328 -131.5q152 0 266.5 82t153.5 215h-393v252z" />
    <glyph glyph-name="Gbreve.ss05" horiz-adv-x="1630" 
d="M817 1507q-138 0 -230.5 89t-92.5 221h206q0 -52 33 -85.5t84 -33.5q50 0 83.5 33.5t33.5 85.5h205q0 -132 -92 -221t-230 -89zM848 795h680v-795h-248v190q-174 -215 -469 -215q-156 0 -293 56.5t-235 153.5t-154.5 232.5t-56.5 289.5t57 289.5t156 232.5t237 153
t295 56q184 0 339.5 -74t250.5 -203l-213 -170q-64 83 -160.5 129.5t-210.5 46.5q-197 0 -329 -131t-132 -329t131 -329.5t328 -131.5q152 0 266.5 82t153.5 215h-393v252z" />
    <glyph glyph-name="Gcaron.ss05" horiz-adv-x="1630" 
d="M977 1528h-322l-202 293h249l115 -150l113 150h250zM848 795h680v-795h-248v190q-174 -215 -469 -215q-156 0 -293 56.5t-235 153.5t-154.5 232.5t-56.5 289.5t57 289.5t156 232.5t237 153t295 56q184 0 339.5 -74t250.5 -203l-213 -170q-64 83 -160.5 129.5t-210.5 46.5
q-197 0 -329 -131t-132 -329t131 -329.5t328 -131.5q152 0 266.5 82t153.5 215h-393v252z" />
    <glyph glyph-name="Gcircumflex.ss05" horiz-adv-x="1630" 
d="M817 1677l-115 -149h-249l202 293h322l203 -293h-250zM848 795h680v-795h-248v190q-174 -215 -469 -215q-156 0 -293 56.5t-235 153.5t-154.5 232.5t-56.5 289.5t57 289.5t156 232.5t237 153t295 56q184 0 339.5 -74t250.5 -203l-213 -170q-64 83 -160.5 129.5
t-210.5 46.5q-197 0 -329 -131t-132 -329t131 -329.5t328 -131.5q152 0 266.5 82t153.5 215h-393v252z" />
    <glyph glyph-name="uni0122.ss05" horiz-adv-x="1630" 
d="M848 795h680v-795h-248v190q-174 -215 -469 -215q-156 0 -293 56.5t-235 153.5t-154.5 232.5t-56.5 289.5t57 289.5t156 232.5t237 153t295 56q184 0 339.5 -74t250.5 -203l-213 -170q-64 83 -160.5 129.5t-210.5 46.5q-197 0 -329 -131t-132 -329t131 -329.5t328 -131.5
q152 0 266.5 82t153.5 215h-393v252zM625 -461l84 348h274l-139 -348h-219z" />
    <glyph glyph-name="Gdotaccent.ss05" horiz-adv-x="1630" 
d="M817 1526q-68 0 -113 44t-45 111t45.5 112.5t112.5 45.5q68 0 114 -45.5t46 -112.5t-46 -111t-114 -44zM848 795h680v-795h-248v190q-174 -215 -469 -215q-156 0 -293 56.5t-235 153.5t-154.5 232.5t-56.5 289.5t57 289.5t156 232.5t237 153t295 56q184 0 339.5 -74
t250.5 -203l-213 -170q-64 83 -160.5 129.5t-210.5 46.5q-197 0 -329 -131t-132 -329t131 -329.5t328 -131.5q152 0 266.5 82t153.5 215h-393v252z" />
    <glyph glyph-name="i.loclTRK" horiz-adv-x="520" 
d="M260 1157q-68 0 -113 44.5t-45 111.5t45 112t113 45t114 -45t46 -112t-46 -111.5t-114 -44.5zM127 0v1044h266v-1044h-266z" />
    <glyph glyph-name="a.ss01" horiz-adv-x="1126" 
d="M539 1069q212 0 344.5 -114t132.5 -304v-651h-244v82q-113 -107 -301 -107q-178 0 -296 94.5t-118 239.5t117.5 239.5t290.5 94.5q169 0 285 -92v78q0 95 -64.5 150t-175.5 55q-152 0 -262 -99l-139 166q76 77 188 122.5t242 45.5zM535 182q92 0 153.5 36.5t61.5 90.5
q0 55 -61 91t-154 36q-89 0 -146 -35t-57 -92t57 -92t146 -35z" />
    <glyph glyph-name="aacute.ss01" horiz-adv-x="1126" 
d="M940 1452l-262 -293h-281l207 293h336zM539 1069q212 0 344.5 -114t132.5 -304v-651h-244v82q-113 -107 -301 -107q-178 0 -296 94.5t-118 239.5t117.5 239.5t290.5 94.5q169 0 285 -92v78q0 95 -64.5 150t-175.5 55q-152 0 -262 -99l-139 166q76 77 188 122.5t242 45.5z
M535 182q92 0 153.5 36.5t61.5 90.5q0 55 -61 91t-154 36q-89 0 -146 -35t-57 -92t57 -92t146 -35z" />
    <glyph glyph-name="abreve.ss01" horiz-adv-x="1126" 
d="M553 1139q-138 0 -231 88.5t-93 220.5h207q0 -52 33 -85.5t84 -33.5q50 0 83.5 33.5t33.5 85.5h204q0 -132 -91.5 -220.5t-229.5 -88.5zM539 1069q212 0 344.5 -114t132.5 -304v-651h-244v82q-113 -107 -301 -107q-178 0 -296 94.5t-118 239.5t117.5 239.5t290.5 94.5
q169 0 285 -92v78q0 95 -64.5 150t-175.5 55q-152 0 -262 -99l-139 166q76 77 188 122.5t242 45.5zM535 182q92 0 153.5 36.5t61.5 90.5q0 55 -61 91t-154 36q-89 0 -146 -35t-57 -92t57 -92t146 -35z" />
    <glyph glyph-name="uni01CE.ss01" horiz-adv-x="1126" 
d="M713 1159h-322l-203 293h250l115 -149l113 149h249zM539 1069q212 0 344.5 -114t132.5 -304v-651h-244v82q-113 -107 -301 -107q-178 0 -296 94.5t-118 239.5t117.5 239.5t290.5 94.5q169 0 285 -92v78q0 95 -64.5 150t-175.5 55q-152 0 -262 -99l-139 166
q76 77 188 122.5t242 45.5zM535 182q92 0 153.5 36.5t61.5 90.5q0 55 -61 91t-154 36q-89 0 -146 -35t-57 -92t57 -92t146 -35z" />
    <glyph glyph-name="acircumflex.ss01" horiz-adv-x="1126" 
d="M553 1309l-115 -150h-250l203 293h322l202 -293h-249zM539 1069q212 0 344.5 -114t132.5 -304v-651h-244v82q-113 -107 -301 -107q-178 0 -296 94.5t-118 239.5t117.5 239.5t290.5 94.5q169 0 285 -92v78q0 95 -64.5 150t-175.5 55q-152 0 -262 -99l-139 166
q76 77 188 122.5t242 45.5zM535 182q92 0 153.5 36.5t61.5 90.5q0 55 -61 91t-154 36q-89 0 -146 -35t-57 -92t57 -92t146 -35z" />
    <glyph glyph-name="uni0201.ss01" horiz-adv-x="1126" 
d="M467 1159h-258l-207 293h291zM909 1159h-258l-207 293h291zM539 1069q212 0 344.5 -114t132.5 -304v-651h-244v82q-113 -107 -301 -107q-178 0 -296 94.5t-118 239.5t117.5 239.5t290.5 94.5q169 0 285 -92v78q0 95 -64.5 150t-175.5 55q-152 0 -262 -99l-139 166
q76 77 188 122.5t242 45.5zM535 182q92 0 153.5 36.5t61.5 90.5q0 55 -61 91t-154 36q-89 0 -146 -35t-57 -92t57 -92t146 -35z" />
    <glyph glyph-name="adieresis.ss01" horiz-adv-x="1126" 
d="M332 1157q-65 0 -108.5 43t-43.5 107q0 63 44 106t108 43t107.5 -43t43.5 -106q0 -64 -43 -107t-108 -43zM774 1157q-65 0 -108 43t-43 107q0 63 43.5 106t107.5 43q63 0 106.5 -43t43.5 -106q0 -64 -43.5 -107t-106.5 -43zM539 1069q212 0 344.5 -114t132.5 -304v-651
h-244v82q-113 -107 -301 -107q-178 0 -296 94.5t-118 239.5t117.5 239.5t290.5 94.5q169 0 285 -92v78q0 95 -64.5 150t-175.5 55q-152 0 -262 -99l-139 166q76 77 188 122.5t242 45.5zM535 182q92 0 153.5 36.5t61.5 90.5q0 55 -61 91t-154 36q-89 0 -146 -35t-57 -92
t57 -92t146 -35z" />
    <glyph glyph-name="uni1EA1.ss01" horiz-adv-x="1126" 
d="M539 1069q212 0 344.5 -114t132.5 -304v-651h-244v82q-113 -107 -301 -107q-178 0 -296 94.5t-118 239.5t117.5 239.5t290.5 94.5q169 0 285 -92v78q0 95 -64.5 150t-175.5 55q-152 0 -262 -99l-139 166q76 77 188 122.5t242 45.5zM535 182q92 0 153.5 36.5t61.5 90.5
q0 55 -61 91t-154 36q-89 0 -146 -35t-57 -92t57 -92t146 -35zM551 -113q68 0 114 -44t46 -111t-46 -112.5t-114 -45.5q-67 0 -112.5 45t-45.5 113q0 67 45 111t113 44z" />
    <glyph glyph-name="agrave.ss01" horiz-adv-x="1126" 
d="M707 1159h-281l-262 293h336zM539 1069q212 0 344.5 -114t132.5 -304v-651h-244v82q-113 -107 -301 -107q-178 0 -296 94.5t-118 239.5t117.5 239.5t290.5 94.5q169 0 285 -92v78q0 95 -64.5 150t-175.5 55q-152 0 -262 -99l-139 166q76 77 188 122.5t242 45.5zM535 182
q92 0 153.5 36.5t61.5 90.5q0 55 -61 91t-154 36q-89 0 -146 -35t-57 -92t57 -92t146 -35z" />
    <glyph glyph-name="uni0203.ss01" horiz-adv-x="1126" 
d="M553 1272q-51 0 -84 -34t-33 -85h-207q0 132 93 220.5t231 88.5t229.5 -88.5t91.5 -220.5h-204q0 51 -33.5 85t-83.5 34zM539 1069q212 0 344.5 -114t132.5 -304v-651h-244v82q-113 -107 -301 -107q-178 0 -296 94.5t-118 239.5t117.5 239.5t290.5 94.5q169 0 285 -92v78
q0 95 -64.5 150t-175.5 55q-152 0 -262 -99l-139 166q76 77 188 122.5t242 45.5zM535 182q92 0 153.5 36.5t61.5 90.5q0 55 -61 91t-154 36q-89 0 -146 -35t-57 -92t57 -92t146 -35z" />
    <glyph glyph-name="amacron.ss01" horiz-adv-x="1126" 
d="M821 1405v-223h-540v223h540zM539 1069q212 0 344.5 -114t132.5 -304v-651h-244v82q-113 -107 -301 -107q-178 0 -296 94.5t-118 239.5t117.5 239.5t290.5 94.5q169 0 285 -92v78q0 95 -64.5 150t-175.5 55q-152 0 -262 -99l-139 166q76 77 188 122.5t242 45.5zM535 182
q92 0 153.5 36.5t61.5 90.5q0 55 -61 91t-154 36q-89 0 -146 -35t-57 -92t57 -92t146 -35z" />
    <glyph glyph-name="aogonek.ss01" horiz-adv-x="1126" 
d="M971 -268l59 -164q-85 -57 -201 -57q-118 0 -192 63.5t-74 161.5q0 84 58 155.5t151 110.5v80q-113 -107 -301 -107q-178 0 -296 94.5t-118 239.5t117.5 239.5t290.5 94.5q169 0 285 -92v78q0 95 -64.5 150t-175.5 55q-152 0 -262 -99l-139 166q76 77 188 122.5t242 45.5
q212 0 344.5 -114t132.5 -304v-651h-27q-215 -94 -215 -207q0 -42 29.5 -67t68.5 -25q46 0 99 31zM535 182q92 0 153.5 36.5t61.5 90.5q0 55 -61 91t-154 36q-89 0 -146 -35t-57 -92t57 -92t146 -35z" />
    <glyph glyph-name="aring.ss01" horiz-adv-x="1126" 
d="M553 1135q-91 0 -151 58t-60 146t60 146.5t151 58.5q89 0 149 -58.5t60 -146.5t-60 -146t-149 -58zM553 1411q-31 0 -50.5 -20.5t-19.5 -51.5t19.5 -51t50.5 -20q29 0 49.5 20t20.5 51t-20.5 51.5t-49.5 20.5zM539 1069q212 0 344.5 -114t132.5 -304v-651h-244v82
q-113 -107 -301 -107q-178 0 -296 94.5t-118 239.5t117.5 239.5t290.5 94.5q169 0 285 -92v78q0 95 -64.5 150t-175.5 55q-152 0 -262 -99l-139 166q76 77 188 122.5t242 45.5zM535 182q92 0 153.5 36.5t61.5 90.5q0 55 -61 91t-154 36q-89 0 -146 -35t-57 -92t57 -92
t146 -35z" />
    <glyph glyph-name="atilde.ss01" horiz-adv-x="1126" 
d="M451 1255q-35 0 -56.5 -22t-21.5 -55h-189q0 127 61.5 208.5t172.5 81.5q39 0 75.5 -14t59 -30t49 -30t49.5 -14q34 0 57 24t23 58h187q0 -129 -60.5 -210t-171.5 -81q-40 0 -77 13t-59 29t-49 29t-50 13zM539 1069q212 0 344.5 -114t132.5 -304v-651h-244v82
q-113 -107 -301 -107q-178 0 -296 94.5t-118 239.5t117.5 239.5t290.5 94.5q169 0 285 -92v78q0 95 -64.5 150t-175.5 55q-152 0 -262 -99l-139 166q76 77 188 122.5t242 45.5zM535 182q92 0 153.5 36.5t61.5 90.5q0 55 -61 91t-154 36q-89 0 -146 -35t-57 -92t57 -92
t146 -35z" />
    <glyph glyph-name="g.ss02" 
d="M918 1044h266v-931q0 -238 -156.5 -382.5t-415.5 -144.5q-148 0 -271 50t-208 141l135 182q56 -61 140 -95t182 -34q150 0 239 78t89 207v55q-133 -143 -340 -143q-218 0 -364 149.5t-146 372.5q0 146 66.5 265t183.5 187t260 68q207 0 340 -143v118zM629 268
q124 0 206.5 80.5t82.5 200.5q0 119 -82.5 198.5t-206.5 79.5q-123 0 -205 -79.5t-82 -198.5q0 -120 82 -200.5t205 -80.5z" />
    <glyph glyph-name="uni01F5.ss02" 
d="M1040 1452l-262 -293h-280l207 293h335zM918 1044h266v-931q0 -238 -156.5 -382.5t-415.5 -144.5q-148 0 -271 50t-208 141l135 182q56 -61 140 -95t182 -34q150 0 239 78t89 207v55q-133 -143 -340 -143q-218 0 -364 149.5t-146 372.5q0 146 66.5 265t183.5 187t260 68
q207 0 340 -143v118zM629 268q124 0 206.5 80.5t82.5 200.5q0 119 -82.5 198.5t-206.5 79.5q-123 0 -205 -79.5t-82 -198.5q0 -120 82 -200.5t205 -80.5z" />
    <glyph glyph-name="gbreve.ss02" 
d="M653 1139q-138 0 -230.5 88.5t-92.5 220.5h207q0 -52 32.5 -85.5t83.5 -33.5q50 0 83.5 33.5t33.5 85.5h205q0 -132 -92 -220.5t-230 -88.5zM918 1044h266v-931q0 -238 -156.5 -382.5t-415.5 -144.5q-148 0 -271 50t-208 141l135 182q56 -61 140 -95t182 -34
q150 0 239 78t89 207v55q-133 -143 -340 -143q-218 0 -364 149.5t-146 372.5q0 146 66.5 265t183.5 187t260 68q207 0 340 -143v118zM629 268q124 0 206.5 80.5t82.5 200.5q0 119 -82.5 198.5t-206.5 79.5q-123 0 -205 -79.5t-82 -198.5q0 -120 82 -200.5t205 -80.5z" />
    <glyph glyph-name="gcaron.ss02" 
d="M813 1159h-321l-203 293h250l114 -149l113 149h250zM918 1044h266v-931q0 -238 -156.5 -382.5t-415.5 -144.5q-148 0 -271 50t-208 141l135 182q56 -61 140 -95t182 -34q150 0 239 78t89 207v55q-133 -143 -340 -143q-218 0 -364 149.5t-146 372.5q0 146 66.5 265
t183.5 187t260 68q207 0 340 -143v118zM629 268q124 0 206.5 80.5t82.5 200.5q0 119 -82.5 198.5t-206.5 79.5q-123 0 -205 -79.5t-82 -198.5q0 -120 82 -200.5t205 -80.5z" />
    <glyph glyph-name="gcircumflex.ss02" 
d="M653 1309l-114 -150h-250l203 293h321l203 -293h-250zM918 1044h266v-931q0 -238 -156.5 -382.5t-415.5 -144.5q-148 0 -271 50t-208 141l135 182q56 -61 140 -95t182 -34q150 0 239 78t89 207v55q-133 -143 -340 -143q-218 0 -364 149.5t-146 372.5q0 146 66.5 265
t183.5 187t260 68q207 0 340 -143v118zM629 268q124 0 206.5 80.5t82.5 200.5q0 119 -82.5 198.5t-206.5 79.5q-123 0 -205 -79.5t-82 -198.5q0 -120 82 -200.5t205 -80.5z" />
    <glyph glyph-name="uni0123.ss02" 
d="M831 1501l-83 -348h-275l139 348h219zM918 1044h266v-931q0 -238 -156.5 -382.5t-415.5 -144.5q-148 0 -271 50t-208 141l135 182q56 -61 140 -95t182 -34q150 0 239 78t89 207v55q-133 -143 -340 -143q-218 0 -364 149.5t-146 372.5q0 146 66.5 265t183.5 187t260 68
q207 0 340 -143v118zM629 268q124 0 206.5 80.5t82.5 200.5q0 119 -82.5 198.5t-206.5 79.5q-123 0 -205 -79.5t-82 -198.5q0 -120 82 -200.5t205 -80.5z" />
    <glyph glyph-name="gdotaccent.ss02" 
d="M653 1157q-68 0 -112.5 44.5t-44.5 111.5t45 112t112 45q68 0 114 -45t46 -112t-46 -111.5t-114 -44.5zM918 1044h266v-931q0 -238 -156.5 -382.5t-415.5 -144.5q-148 0 -271 50t-208 141l135 182q56 -61 140 -95t182 -34q150 0 239 78t89 207v55q-133 -143 -340 -143
q-218 0 -364 149.5t-146 372.5q0 146 66.5 265t183.5 187t260 68q207 0 340 -143v118zM629 268q124 0 206.5 80.5t82.5 200.5q0 119 -82.5 198.5t-206.5 79.5q-123 0 -205 -79.5t-82 -198.5q0 -120 82 -200.5t205 -80.5z" />
    <glyph glyph-name="u.ss03" horiz-adv-x="1222" 
d="M827 1044h267v-1044h-267v111q-124 -136 -321 -136q-179 0 -287 108t-108 288v673h266v-587q0 -102 59 -163t160 -61q104 0 167.5 62.5t63.5 165.5v583z" />
    <glyph glyph-name="uacute.ss03" horiz-adv-x="1222" 
d="M991 1452l-262 -293h-280l206 293h336zM827 1044h267v-1044h-267v111q-124 -136 -321 -136q-179 0 -287 108t-108 288v673h266v-587q0 -102 59 -163t160 -61q104 0 167.5 62.5t63.5 165.5v583z" />
    <glyph glyph-name="ubreve.ss03" horiz-adv-x="1222" 
d="M602 1139q-138 0 -230.5 88.5t-92.5 220.5h206q0 -52 33 -85.5t84 -33.5q50 0 83.5 33.5t33.5 85.5h205q0 -132 -92 -220.5t-230 -88.5zM827 1044h267v-1044h-267v111q-124 -136 -321 -136q-179 0 -287 108t-108 288v673h266v-587q0 -102 59 -163t160 -61
q104 0 167.5 62.5t63.5 165.5v583z" />
    <glyph glyph-name="ucircumflex.ss03" horiz-adv-x="1222" 
d="M602 1309l-115 -150h-249l202 293h322l203 -293h-250zM827 1044h267v-1044h-267v111q-124 -136 -321 -136q-179 0 -287 108t-108 288v673h266v-587q0 -102 59 -163t160 -61q104 0 167.5 62.5t63.5 165.5v583z" />
    <glyph glyph-name="uni0215.ss03" horiz-adv-x="1222" 
d="M516 1159h-258l-207 293h291zM958 1159h-258l-206 293h290zM827 1044h267v-1044h-267v111q-124 -136 -321 -136q-179 0 -287 108t-108 288v673h266v-587q0 -102 59 -163t160 -61q104 0 167.5 62.5t63.5 165.5v583z" />
    <glyph glyph-name="udieresis.ss03" horiz-adv-x="1222" 
d="M381 1157q-65 0 -108.5 43t-43.5 107q0 63 44 106t108 43t107.5 -43t43.5 -106q0 -64 -43 -107t-108 -43zM823 1157q-65 0 -108 43t-43 107q0 63 43.5 106t107.5 43q63 0 106.5 -43t43.5 -106q0 -64 -43.5 -107t-106.5 -43zM827 1044h267v-1044h-267v111
q-124 -136 -321 -136q-179 0 -287 108t-108 288v673h266v-587q0 -102 59 -163t160 -61q104 0 167.5 62.5t63.5 165.5v583z" />
    <glyph glyph-name="uni1EE5.ss03" horiz-adv-x="1222" 
d="M827 1044h267v-1044h-267v111q-124 -136 -321 -136q-179 0 -287 108t-108 288v673h266v-587q0 -102 59 -163t160 -61q104 0 167.5 62.5t63.5 165.5v583zM602 -113q68 0 114 -44t46 -111t-46 -112.5t-114 -45.5t-113 45t-45 113q0 67 45 111t113 44z" />
    <glyph glyph-name="ugrave.ss03" horiz-adv-x="1222" 
d="M758 1159h-281l-262 293h336zM827 1044h267v-1044h-267v111q-124 -136 -321 -136q-179 0 -287 108t-108 288v673h266v-587q0 -102 59 -163t160 -61q104 0 167.5 62.5t63.5 165.5v583z" />
    <glyph glyph-name="uhungarumlaut.ss03" horiz-adv-x="1222" 
d="M709 1452l-209 -293h-256l174 293h291zM942 1159h-256l174 293h291zM827 461v583h267v-1044h-267v111q-124 -136 -321 -136q-179 0 -287 108t-108 288v673h266v-587q0 -102 59 -163t160 -61q104 0 167.5 62.5t63.5 165.5z" />
    <glyph glyph-name="uni0217.ss03" horiz-adv-x="1222" 
d="M602 1272q-51 0 -84 -34t-33 -85h-206q0 132 92.5 220.5t230.5 88.5t230 -88.5t92 -220.5h-205q0 51 -33.5 85t-83.5 34zM827 1044h267v-1044h-267v111q-124 -136 -321 -136q-179 0 -287 108t-108 288v673h266v-587q0 -102 59 -163t160 -61q104 0 167.5 62.5t63.5 165.5
v583z" />
    <glyph glyph-name="umacron.ss03" horiz-adv-x="1222" 
d="M872 1405v-223h-540v223h540zM827 1044h267v-1044h-267v111q-124 -136 -321 -136q-179 0 -287 108t-108 288v673h266v-587q0 -102 59 -163t160 -61q104 0 167.5 62.5t63.5 165.5v583z" />
    <glyph glyph-name="uogonek.ss03" horiz-adv-x="1222" 
d="M1073 -268l60 -164q-85 -57 -201 -57q-118 0 -192 63.5t-74 161.5q0 84 56.5 154.5t149.5 109.5h-45v111q-124 -136 -321 -136q-179 0 -287 108t-108 288v673h266v-587q0 -102 59 -163t160 -61q104 0 167.5 62.5t63.5 165.5v583h267v-1044h-2q-215 -94 -215 -207
q0 -42 29.5 -67t68.5 -25q45 0 98 31z" />
    <glyph glyph-name="uring.ss03" horiz-adv-x="1222" 
d="M602 1135q-91 0 -151 58t-60 146t60 146.5t151 58.5q89 0 149 -58.5t60 -146.5t-60 -146t-149 -58zM602 1411q-31 0 -50.5 -20.5t-19.5 -51.5t19.5 -51t50.5 -20q30 0 50 20t20 51t-20.5 51.5t-49.5 20.5zM827 1044h267v-1044h-267v111q-124 -136 -321 -136
q-179 0 -287 108t-108 288v673h266v-587q0 -102 59 -163t160 -61q104 0 167.5 62.5t63.5 165.5v583z" />
    <glyph glyph-name="utilde.ss03" horiz-adv-x="1222" 
d="M500 1255q-35 0 -56.5 -22t-21.5 -55h-189q0 127 61.5 208.5t172.5 81.5q39 0 75.5 -14t59 -30t49 -30t49.5 -14q34 0 57 24t23 58h187q0 -129 -60.5 -210t-171.5 -81q-40 0 -77 13t-59 29t-49 29t-50 13zM827 1044h267v-1044h-267v111q-124 -136 -321 -136
q-179 0 -287 108t-108 288v673h266v-587q0 -102 59 -163t160 -61q104 0 167.5 62.5t63.5 165.5v583z" />
    <glyph glyph-name="w.ss04" horiz-adv-x="1792" 
d="M1415 1044h266v-655q0 -187 -120 -300.5t-318 -113.5q-229 0 -348 154q-119 -154 -348 -154q-198 0 -317 113t-119 301v655h266v-620q0 -86 52.5 -138.5t139.5 -52.5q86 0 139.5 52.5t53.5 138.5v620h266v-620q0 -86 53.5 -138.5t141.5 -52.5q86 0 139 52.5t53 138.5v620
z" />
    <glyph glyph-name="wacute.ss04" horiz-adv-x="1792" 
d="M1284 1452l-262 -293h-281l207 293h336zM1415 1044h266v-655q0 -187 -120 -300.5t-318 -113.5q-229 0 -348 154q-119 -154 -348 -154q-198 0 -317 113t-119 301v655h266v-620q0 -86 52.5 -138.5t139.5 -52.5q86 0 139.5 52.5t53.5 138.5v620h266v-620q0 -86 53.5 -138.5
t141.5 -52.5q86 0 139 52.5t53 138.5v620z" />
    <glyph glyph-name="wcircumflex.ss04" horiz-adv-x="1792" 
d="M897 1309l-115 -150h-250l203 293h322l203 -293h-250zM1415 1044h266v-655q0 -187 -120 -300.5t-318 -113.5q-229 0 -348 154q-119 -154 -348 -154q-198 0 -317 113t-119 301v655h266v-620q0 -86 52.5 -138.5t139.5 -52.5q86 0 139.5 52.5t53.5 138.5v620h266v-620
q0 -86 53.5 -138.5t141.5 -52.5q86 0 139 52.5t53 138.5v620z" />
    <glyph glyph-name="wdieresis.ss04" horiz-adv-x="1792" 
d="M676 1157q-65 0 -108.5 43t-43.5 107q0 63 44 106t108 43t107.5 -43t43.5 -106q0 -64 -43 -107t-108 -43zM1118 1157q-65 0 -108 43t-43 107q0 63 43.5 106t107.5 43q63 0 106.5 -43t43.5 -106q0 -64 -43.5 -107t-106.5 -43zM1415 1044h266v-655q0 -187 -120 -300.5
t-318 -113.5q-229 0 -348 154q-119 -154 -348 -154q-198 0 -317 113t-119 301v655h266v-620q0 -86 52.5 -138.5t139.5 -52.5q86 0 139.5 52.5t53.5 138.5v620h266v-620q0 -86 53.5 -138.5t141.5 -52.5q86 0 139 52.5t53 138.5v620z" />
    <glyph glyph-name="wgrave.ss04" horiz-adv-x="1792" 
d="M1051 1159h-281l-262 293h336zM1415 1044h266v-655q0 -187 -120 -300.5t-318 -113.5q-229 0 -348 154q-119 -154 -348 -154q-198 0 -317 113t-119 301v655h266v-620q0 -86 52.5 -138.5t139.5 -52.5q86 0 139.5 52.5t53.5 138.5v620h266v-620q0 -86 53.5 -138.5
t141.5 -52.5q86 0 139 52.5t53 138.5v620z" />
    <glyph glyph-name="zero.subs" horiz-adv-x="808" 
d="M387 -248q-148 0 -242 122.5t-94 315.5t94 316t242 123q149 0 242.5 -122.5t93.5 -316.5t-93.5 -316t-242.5 -122zM387 -61q60 0 98.5 70.5t38.5 180.5t-38.5 181t-98.5 71q-59 0 -97 -70t-38 -182t38 -181.5t97 -69.5z" />
    <glyph glyph-name="one.subs" horiz-adv-x="503" 
d="M274 614h140v-847h-195v614l-123 -70l-86 158z" />
    <glyph glyph-name="two.subs" horiz-adv-x="661" 
d="M322 -51h294v-182h-567v157l277 293q80 85 80 137q0 36 -29 58t-70 22q-82 0 -153 -84l-131 125q45 70 124.5 112t171.5 42q126 0 204.5 -73.5t78.5 -188.5q0 -128 -106 -238z" />
    <glyph glyph-name="three.subs" horiz-adv-x="696" 
d="M528 209q60 -31 94.5 -85.5t34.5 -121.5q0 -110 -90.5 -180t-232.5 -70q-91 0 -176 31.5t-140 87.5l111 143q35 -35 87 -55t106 -20q60 0 98.5 26t38.5 66q0 41 -38 67.5t-95 26.5h-119v166h119q51 0 82.5 21t31.5 53q0 34 -36.5 55.5t-92.5 21.5q-96 0 -159 -53
l-105 139q51 46 129.5 73.5t159.5 27.5q134 0 218.5 -66t84.5 -170q0 -119 -111 -184z" />
    <glyph glyph-name="four.subs" horiz-adv-x="747" 
d="M698 102v-182h-82v-153h-194v153h-344l-45 158l368 536h215v-512h82zM229 102h193v289z" />
    <glyph glyph-name="five.subs" horiz-adv-x="724" 
d="M389 317q125 0 209 -80t84 -198q0 -124 -92.5 -205.5t-237.5 -81.5q-166 0 -303 111l96 155q38 -37 90 -58t103 -21q66 0 105.5 31t39.5 77q0 42 -33 70t-83 28q-66 0 -109 -43l-172 50l43 462h496v-180h-332l-10 -139q46 22 106 22z" />
    <glyph glyph-name="six.subs" horiz-adv-x="702" 
d="M416 313q110 0 186 -79t76 -193q0 -124 -93.5 -206.5t-230.5 -82.5q-148 0 -236.5 96t-88.5 254q0 204 144.5 352t389.5 175l37 -180q-114 -17 -195.5 -62t-123.5 -108q58 34 135 34zM352 -63q54 0 89.5 29t35.5 73q0 42 -35 71t-88 29q-50 0 -87.5 -27t-37.5 -71
q0 -45 34.5 -74.5t88.5 -29.5z" />
    <glyph glyph-name="seven.subs" horiz-adv-x="663" 
d="M43 614h571v-153l-309 -694h-219l299 665h-342v182z" />
    <glyph glyph-name="eight.subs" horiz-adv-x="729" 
d="M567 207q123 -73 123 -199q0 -108 -93 -182t-232 -74t-232.5 73.5t-93.5 182.5q0 61 32.5 113t90.5 86q-107 70 -107 182q0 101 89 170.5t221 69.5t220.5 -69.5t88.5 -170.5q0 -112 -107 -182zM365 449q-46 0 -78.5 -22.5t-32.5 -57.5t32.5 -57.5t78.5 -22.5t78 22.5
t32 57.5t-32 57.5t-78 22.5zM365 -63q54 0 90.5 26t36.5 64t-36.5 64t-90.5 26t-89.5 -26t-35.5 -64t35.5 -64t89.5 -26z" />
    <glyph glyph-name="nine.subs" horiz-adv-x="702" 
d="M350 629q148 0 237 -96t89 -254q0 -207 -147 -358.5t-388 -168.5l-37 180q112 10 195.5 57.5t124.5 114.5q-59 -36 -135 -36q-110 0 -186 79t-76 193q0 124 92.5 206.5t230.5 82.5zM227 342q0 -43 34.5 -71.5t86.5 -28.5t89.5 27t37.5 71q0 45 -35 74.5t-90 29.5
q-52 0 -87.5 -29t-35.5 -73z" />
    <glyph glyph-name="zero.dnom" horiz-adv-x="808" 
d="M387 -14q-148 0 -242 122.5t-94 315.5t94 315.5t242 122.5q149 0 242.5 -122t93.5 -316t-93.5 -316t-242.5 -122zM387 172q60 0 98.5 71t38.5 181t-38.5 181t-98.5 71q-59 0 -97 -70t-38 -182t38 -182t97 -70z" />
    <glyph glyph-name="one.dnom" horiz-adv-x="503" 
d="M274 848h140v-848h-195v614l-123 -69l-86 157z" />
    <glyph glyph-name="two.dnom" horiz-adv-x="661" 
d="M322 182h294v-182h-567v158l277 293q80 85 80 137q0 36 -29 58t-70 22q-82 0 -153 -84l-131 125q45 70 124 111.5t172 41.5q126 0 204.5 -73.5t78.5 -188.5q0 -128 -106 -238z" />
    <glyph glyph-name="three.dnom" horiz-adv-x="696" 
d="M528 442q61 -31 95 -85t34 -121q0 -110 -90.5 -180t-232.5 -70q-91 0 -176.5 31t-139.5 87l111 144q35 -35 87 -55.5t106 -20.5q60 0 98.5 26t38.5 66q0 41 -38 67.5t-95 26.5h-119v166h119q51 0 82.5 21t31.5 53q0 34 -36.5 56t-92.5 22q-96 0 -159 -53l-105 139
q51 46 129 73t160 27q134 0 218.5 -65.5t84.5 -169.5q0 -120 -111 -185z" />
    <glyph glyph-name="four.dnom" horiz-adv-x="747" 
d="M698 336v-182h-82v-154h-194v154h-344l-45 157l368 537h215v-512h82zM229 336h193v289z" />
    <glyph glyph-name="five.dnom" horiz-adv-x="724" 
d="M389 551q124 0 208.5 -80t84.5 -199q0 -124 -92.5 -205t-237.5 -81q-167 0 -303 110l96 156q38 -37 90 -58.5t103 -21.5q66 0 105.5 31.5t39.5 77.5q0 42 -33 70t-83 28q-66 0 -109 -43l-172 49l43 463h496v-180h-332l-10 -140q48 23 106 23z" />
    <glyph glyph-name="six.dnom" horiz-adv-x="702" 
d="M416 547q110 0 186 -79.5t76 -193.5q0 -124 -93.5 -206t-230.5 -82q-148 0 -236.5 96t-88.5 254q0 204 144.5 351.5t389.5 174.5l37 -180q-114 -17 -195.5 -62t-123.5 -108q60 35 135 35zM352 170q54 0 89.5 29t35.5 73q0 42 -35 71.5t-88 29.5q-50 0 -87.5 -27.5
t-37.5 -71.5q0 -45 34.5 -74.5t88.5 -29.5z" />
    <glyph glyph-name="seven.dnom" horiz-adv-x="663" 
d="M43 848h571v-154l-309 -694h-219l299 666h-342v182z" />
    <glyph glyph-name="eight.dnom" horiz-adv-x="729" 
d="M567 440q123 -73 123 -198q0 -108 -93 -182t-232 -74t-232.5 73.5t-93.5 182.5q0 61 32.5 112.5t90.5 85.5q-107 70 -107 183q0 100 88.5 169.5t221.5 69.5q132 0 220.5 -69t88.5 -170q0 -113 -107 -183zM365 682q-46 0 -78.5 -22.5t-32.5 -57.5t32.5 -57.5t78.5 -22.5
t78 22.5t32 57.5t-32 57.5t-78 22.5zM365 170q54 0 90.5 26t36.5 64t-36.5 64t-90.5 26t-89.5 -26t-35.5 -64t35.5 -64t89.5 -26z" />
    <glyph glyph-name="nine.dnom" horiz-adv-x="702" 
d="M350 862q148 0 237 -96t89 -254q0 -207 -147 -358t-388 -168l-37 180q112 10 195.5 57.5t124.5 114.5q-61 -37 -135 -37q-110 0 -186 79t-76 193q0 124 92.5 206.5t230.5 82.5zM227 575q0 -43 34.5 -71.5t86.5 -28.5t89.5 27t37.5 71q0 45 -35 75t-90 30q-51 0 -87 -29.5
t-36 -73.5z" />
    <glyph glyph-name="zero.numr" horiz-adv-x="808" 
d="M387 551q-148 0 -242 122.5t-94 315.5t94 315.5t242 122.5q149 0 242.5 -122t93.5 -316t-93.5 -316t-242.5 -122zM387 737q60 0 98.5 71t38.5 181t-38.5 181t-98.5 71q-59 0 -97 -70t-38 -182t38 -182t97 -70z" />
    <glyph glyph-name="one.numr" horiz-adv-x="503" 
d="M274 1413h140v-848h-195v615l-123 -70l-86 158z" />
    <glyph glyph-name="two.numr" horiz-adv-x="661" 
d="M322 748h294v-183h-567v158l277 293q80 85 80 137q0 36 -29 58t-70 22q-82 0 -153 -84l-131 125q45 70 124 111.5t172 41.5q126 0 204.5 -73.5t78.5 -188.5q0 -127 -106 -237z" />
    <glyph glyph-name="three.numr" horiz-adv-x="696" 
d="M528 1008q60 -31 94.5 -85.5t34.5 -121.5q0 -110 -90.5 -180t-232.5 -70q-91 0 -176 31.5t-140 87.5l111 143q35 -35 87 -55.5t106 -20.5q60 0 98.5 26t38.5 66q0 41 -38 68t-95 27h-119v166h119q51 0 82.5 20.5t31.5 52.5q0 34 -36.5 56t-92.5 22q-96 0 -159 -53
l-105 139q51 46 129 73t160 27q134 0 218.5 -65.5t84.5 -169.5q0 -119 -111 -184z" />
    <glyph glyph-name="four.numr" horiz-adv-x="747" 
d="M698 901v-182h-82v-154h-194v154h-344l-45 158l368 536h215v-512h82zM229 901h193v289z" />
    <glyph glyph-name="five.numr" horiz-adv-x="724" 
d="M389 1116q125 0 209 -80t84 -198q0 -124 -92.5 -205.5t-237.5 -81.5q-166 0 -303 111l96 155q38 -37 90 -58.5t103 -21.5q66 0 105.5 31.5t39.5 77.5q0 42 -33 70t-83 28q-66 0 -109 -43l-172 49l43 463h496v-180h-332l-10 -139q46 22 106 22z" />
    <glyph glyph-name="six.numr" horiz-adv-x="702" 
d="M416 1112q110 0 186 -79t76 -193q0 -124 -93.5 -206.5t-230.5 -82.5q-148 0 -236.5 96t-88.5 254q0 204 144.5 351.5t389.5 174.5l37 -180q-114 -17 -195.5 -62t-123.5 -108q60 35 135 35zM352 735q54 0 89.5 29.5t35.5 73.5q0 42 -35 71t-88 29q-50 0 -87.5 -27
t-37.5 -71q0 -45 35 -75t88 -30z" />
    <glyph glyph-name="seven.numr" horiz-adv-x="663" 
d="M43 1413h571v-153l-309 -695h-219l299 666h-342v182z" />
    <glyph glyph-name="eight.numr" horiz-adv-x="729" 
d="M567 1006q123 -73 123 -199q0 -108 -93 -182t-232 -74t-232.5 73.5t-93.5 182.5q0 61 32.5 113t90.5 86q-107 70 -107 182q0 100 88.5 169.5t221.5 69.5q132 0 220.5 -69t88.5 -170q0 -112 -107 -182zM365 1247q-46 0 -78.5 -22.5t-32.5 -57.5t32.5 -57.5t78.5 -22.5
t78 22.5t32 57.5t-32 57.5t-78 22.5zM365 735q54 0 90.5 26t36.5 64t-36.5 64t-90.5 26t-89.5 -26t-35.5 -64t35.5 -64t89.5 -26z" />
    <glyph glyph-name="nine.numr" horiz-adv-x="702" 
d="M350 1427q148 0 237 -96t89 -254q0 -207 -147 -358t-388 -168l-37 180q112 10 195.5 57.5t124.5 114.5q-61 -37 -135 -37q-110 0 -186 79.5t-76 193.5q0 124 92.5 206t230.5 82zM227 1141q0 -43 34.5 -72t86.5 -29t89.5 27.5t37.5 71.5q0 45 -35 74.5t-90 29.5
q-52 0 -87.5 -29t-35.5 -73z" />
    <glyph glyph-name="exclamdown.case" horiz-adv-x="557" 
d="M279 1075q-77 0 -129 51t-52 127t52 127.5t129 51.5q78 0 129 -51t51 -128t-51 -127.5t-129 -50.5zM139 0v348l17 615h247l17 -615v-348h-281z" />
    <glyph glyph-name="questiondown.case" horiz-adv-x="1044" 
d="M555 1075q-78 0 -129 50.5t-51 127.5t51 128t129 51q77 0 128.5 -51.5t51.5 -127.5t-51.5 -127t-128.5 -51zM543 -25q-194 0 -323.5 114t-129.5 280q0 78 33.5 148.5t81 120.5t95 94.5t81 89.5t33.5 87v49h280v-49q0 -57 -23 -111t-58 -94t-75.5 -82.5t-75.5 -76.5
t-58 -74.5t-23 -79.5q0 -63 48.5 -103t127.5 -40q83 0 160 42.5t139 121.5l182 -187q-92 -118 -221 -184t-274 -66z" />
    <glyph glyph-name="periodcentered.case" horiz-adv-x="610" 
d="M305 522q-79 0 -132.5 53.5t-53.5 131.5t53.5 131t132.5 53t133 -53t54 -131t-54 -131.5t-133 -53.5z" />
    <glyph glyph-name="bullet.case" horiz-adv-x="716" 
d="M358 469q-102 0 -170.5 68.5t-68.5 169.5t68 169t171 68q102 0 171 -68t69 -169t-69.5 -169.5t-170.5 -68.5z" />
    <glyph glyph-name="asterisk.case" horiz-adv-x="808" 
d="M547 1094l59 -25l125 -68l-82 -141l-127 68l-45 39l10 -60v-137h-165v137l10 60l-47 -39l-123 -68l-84 141l125 72l55 21l-55 20l-125 68l84 141l125 -66l45 -38l-10 59v135h165v-135l-10 -57l47 36l125 66l82 -141l-125 -68z" />
    <glyph glyph-name="slash.case" horiz-adv-x="1099" 
d="M6 -215l819 1843h269l-820 -1843h-268z" />
    <glyph glyph-name="backslash.case" horiz-adv-x="1099" 
d="M825 -215l-819 1843h268l820 -1843h-269z" />
    <glyph glyph-name="parenleft.case" horiz-adv-x="739" 
d="M451 -256q-131 174 -211 437.5t-80 525.5q0 261 80 524.5t211 437.5h268q-127 -174 -204 -437.5t-77 -524.5q0 -262 77.5 -525.5t203.5 -437.5h-268z" />
    <glyph glyph-name="parenright.case" horiz-adv-x="739" 
d="M18 -256q128 174 205.5 437.5t77.5 525.5t-77.5 525t-205.5 437h269q132 -174 212.5 -437t80.5 -525t-80.5 -525.5t-212.5 -437.5h-269z" />
    <glyph glyph-name="braceleft.case" horiz-adv-x="872" 
d="M584 879q0 -58 -32.5 -103t-88.5 -67q56 -24 88.5 -69t32.5 -103v-424q0 -53 30.5 -85t81.5 -32h115v-252h-217q-128 0 -206.5 79t-78.5 208v436q0 52 -30 83.5t-80 31.5h-80v252h80q49 0 79.5 31.5t30.5 82.5v434q0 129 78.5 208t206.5 79h217v-252h-115
q-51 0 -81.5 -32t-30.5 -85v-421z" />
    <glyph glyph-name="braceright.case" horiz-adv-x="872" 
d="M676 834h80v-252h-80q-51 0 -81 -31t-30 -84v-436q0 -129 -79 -208t-205 -79h-220v252h117q50 0 81.5 32.5t31.5 84.5v424q0 58 31.5 103.5t87.5 68.5q-56 22 -87.5 67t-31.5 103v421q0 52 -31.5 84.5t-81.5 32.5h-117v252h220q126 0 205 -79t79 -208v-434
q0 -51 30 -82.5t81 -31.5z" />
    <glyph glyph-name="bracketleft.case" horiz-adv-x="749" 
d="M688 1417h-233v-1421h233v-252h-508v1925h508v-252z" />
    <glyph glyph-name="bracketright.case" horiz-adv-x="749" 
d="M61 1669h510v-1925h-510v252h234v1421h-234v252z" />
    <glyph glyph-name="hyphen.case" horiz-adv-x="835" 
d="M119 580v258h598v-258h-598z" />
    <glyph glyph-name="endash.case" horiz-adv-x="1245" 
d="M119 588v239h1007v-239h-1007z" />
    <glyph glyph-name="emdash.case" horiz-adv-x="2187" 
d="M119 588v239h1949v-239h-1949z" />
    <glyph glyph-name="guillemotleft.case" horiz-adv-x="1341" 
d="M711 1124l-312 -417l312 -418h-312l-313 418l313 417h312zM1257 1124l-313 -417l313 -418h-313l-311 418l311 417h313z" />
    <glyph glyph-name="guillemotright.case" horiz-adv-x="1341" 
d="M406 1124l313 -417l-313 -418h-312l314 418l-314 417h312zM952 1124l314 -417l-314 -418h-311l311 418l-311 417h311z" />
    <glyph glyph-name="guilsinglleft.case" horiz-adv-x="794" 
d="M711 1124l-312 -417l312 -418h-312l-313 418l313 417h312z" />
    <glyph glyph-name="guilsinglright.case" horiz-adv-x="794" 
d="M406 1124l313 -417l-313 -418h-312l314 418l-314 417h312z" />
    <glyph glyph-name="plus.case" horiz-adv-x="1093" 
d="M975 827v-239h-307v-309h-242v309h-307v239h307v308h242v-308h307z" />
    <glyph glyph-name="at.case" horiz-adv-x="1705" 
d="M991 1051h228v-453q0 -36 21.5 -58t57.5 -22q58 0 93.5 67t35.5 173q0 110 -44 207.5t-119.5 166t-180 108.5t-221.5 40q-165 0 -297.5 -74.5t-207 -206t-74.5 -294.5q0 -121 43.5 -227t119.5 -182.5t184 -120.5t232 -44q100 0 190 26.5t154 73.5l90 -165
q-199 -119 -436 -119q-163 0 -306.5 58.5t-245.5 159t-161 241t-59 299.5q0 160 59 300.5t161.5 241.5t246.5 159t307 58q126 0 242 -34t209.5 -98t163 -150.5t107.5 -196.5t38 -231q0 -188 -89 -302t-245 -114q-86 0 -154 32t-106 89q-77 -125 -237 -125q-151 0 -250 106
t-99 262q0 160 97.5 266.5t236.5 106.5q132 0 215 -96v72zM831 551q69 0 114.5 44.5t45.5 109.5q0 66 -46 109.5t-114 43.5q-67 0 -111 -43t-44 -110q0 -66 44.5 -110t110.5 -44z" />
    <glyph glyph-name="uni030C.alt" horiz-adv-x="0" 
d="M-285 1020l43 455h242l-84 -455h-201z" />
    <glyph glyph-name="caron.alt" horiz-adv-x="284" 
d="M0 1020l43 455h242l-84 -455h-201z" />
    </font>
</defs>
</svg>
