<?xml version="1.0" standalone="no"?>
<!DOCTYPE svg PUBLIC "-//W3C//DTD SVG 1.1//EN" "http://www.w3.org/Graphics/SVG/1.1/DTD/svg11.dtd" >
<svg xmlns="http://www.w3.org/2000/svg" xmlns:xlink="http://www.w3.org/1999/xlink" version="1.1">
<metadata>
Created by FontForge 20201107 at Sun Dec 27 21:40:33 2020
 By 
Copyright (c) 2020 by Adam Ladd. All rights reserved.
</metadata>
<defs>
<font id="Lufga-Black" horiz-adv-x="1275" >
  <font-face 
    font-family="Lufga Black"
    font-weight="900"
    font-stretch="normal"
    units-per-em="2048"
    panose-1="0 0 10 0 0 0 0 0 0 0"
    ascent="1597"
    descent="-451"
    x-height="1044"
    cap-height="1413"
    bbox="-1509 -543 2587 1958"
    underline-thickness="204"
    underline-position="-409"
    unicode-range="U+0020-FB02"
  />
<missing-glyph horiz-adv-x="1024" 
d="M840 1597v-2048h-650v2048h650zM682 1460h-338v-67h133v-76h-135v-68h340v68h-135v76h135v67zM547 1196h-205v-213h340v70h-135v143zM477 1126v-73h-67v73h67zM682 928h-340v-68h135v-76h-135v-67h205v143h135v68zM682 805h-68v-135h-272v-70h340v205zM682 555h-205v-115
h70v47h67v-96h-204v164h-68v-231h340v231zM682 201h-340v-232h340v232zM614 133v-96h-204v96h204zM682 -78h-340v-67h143l-143 -97v-67h340v67h-209l143 97h66v67z" />
    <glyph glyph-name="fi" unicode="fi" horiz-adv-x="1386" 
d="M1100 1135q-95 0 -159 63t-64 158t64 158t159 63t159 -63t64 -158t-64 -158t-159 -63zM180 1083q0 189 100 302.5t304 113.5q119 0 209 -47v-324q-56 35 -125 35q-59 0 -89 -28t-30 -76v-15h217v-335h-217v-709h-369v709h-139v335h139v39zM915 0v1044h369v-1044h-369z
" />
    <glyph glyph-name="fl" unicode="fl" horiz-adv-x="1386" 
d="M180 1083q0 189 100 302.5t304 113.5q119 0 209 -47v-324q-56 35 -125 35q-59 0 -89 -28t-30 -76v-15h217v-335h-217v-709h-369v709h-139v335h139v39zM915 1475h369v-1475h-369v1475z" />
    <glyph glyph-name=".notdef" horiz-adv-x="1024" 
d="M840 1597v-2048h-650v2048h650zM682 1460h-338v-67h133v-76h-135v-68h340v68h-135v76h135v67zM547 1196h-205v-213h340v70h-135v143zM477 1126v-73h-67v73h67zM682 928h-340v-68h135v-76h-135v-67h205v143h135v68zM682 805h-68v-135h-272v-70h340v205zM682 555h-205v-115
h70v47h67v-96h-204v164h-68v-231h340v231zM682 201h-340v-232h340v232zM614 133v-96h-204v96h204zM682 -78h-340v-67h143l-143 -97v-67h340v67h-209l143 97h66v67z" />
    <glyph glyph-name=".null" horiz-adv-x="0" 
 />
    <glyph glyph-name="nonmarkingreturn" horiz-adv-x="682" 
 />
    <glyph glyph-name="space" unicode=" " horiz-adv-x="419" 
 />
    <glyph glyph-name="exclam" unicode="!" horiz-adv-x="602" 
d="M131 512l-25 553v348h392v-348l-25 -553h-342zM301 -25q-103 0 -171.5 68.5t-68.5 169.5t68.5 169.5t171.5 68.5t171.5 -68.5t68.5 -169.5t-68.5 -169.5t-171.5 -68.5z" />
    <glyph glyph-name="quotedbl" unicode="&#x22;" horiz-adv-x="974" 
d="M90 801l-24 612h364l-24 -612h-316zM569 801l-24 612h364l-24 -612h-316z" />
    <glyph glyph-name="numbersign" unicode="#" horiz-adv-x="1585" 
d="M1532 793h-289l-51 -172h229v-320h-325l-90 -301h-338l90 301h-191l-90 -301h-340l90 301h-192v320h287l53 172h-230v319h324l90 301h340l-90 -301h190l91 301h340l-91 -301h193v-319zM852 621l53 172h-190l-53 -172h190z" />
    <glyph glyph-name="dollar" unicode="$" horiz-adv-x="1214" 
d="M1167 414q0 -172 -133 -293.5t-338 -140.5v-121h-114v121q-143 9 -286 68t-241 151l189 258q69 -61 159.5 -103t178.5 -51v240q-1 0 -3.5 1t-3.5 1q-217 60 -339.5 179.5t-122.5 289.5q0 174 128 290.5t341 129.5v122h114v-122q126 -10 235 -56.5t181 -113.5l-170 -258
q-47 39 -112.5 67t-133.5 35v-229q34 -9 67.5 -20.5t82 -33t90.5 -46.5t86 -62.5t74.5 -80.5t50.5 -100.5t20 -121.5zM477 1016q0 -58 105 -103v193q-48 -11 -76.5 -34.5t-28.5 -55.5zM696 309q48 13 78.5 39.5t30.5 61.5q0 31 -27 54t-82 44v-199z" />
    <glyph glyph-name="percent" unicode="%" horiz-adv-x="1822" 
d="M436 713q-158 0 -264 104.5t-106 259.5q0 154 106 257.5t264 103.5t264.5 -103.5t106.5 -257.5q0 -155 -106.5 -259.5t-264.5 -104.5zM205 0l1024 1413h391l-1024 -1413h-391zM436 1008q29 0 48.5 20t19.5 49q0 28 -19.5 47t-48.5 19t-48 -19t-19 -47q0 -29 19 -49
t48 -20zM1386 -25q-158 0 -264 105t-106 260q0 154 106 257t264 103t264.5 -103t106.5 -257q0 -155 -106.5 -260t-264.5 -105zM1386 270q29 0 48.5 20.5t19.5 49.5q0 28 -19.5 47t-48.5 19t-48 -19t-19 -47q0 -30 19 -50t48 -20z" />
    <glyph glyph-name="ampersand" unicode="&#x26;" horiz-adv-x="1359" 
d="M1397 0h-434l-56 61q-114 -86 -313 -86q-249 0 -401 128t-152 335q0 227 209 369q-90 154 -90 283q0 151 117.5 249.5t293.5 98.5q175 0 294.5 -98.5t119.5 -247.5q0 -112 -68 -193t-190 -154l215 -239q63 98 92 215l318 -88q-51 -210 -181 -383zM571 1157
q-35 0 -58.5 -18.5t-23.5 -53.5q0 -48 52 -120q110 65 110 125q0 31 -23 49t-57 18zM608 303q39 0 70 8l-234 254q-47 -50 -47 -106q0 -68 59 -112t152 -44z" />
    <glyph glyph-name="quotesingle" unicode="'" horiz-adv-x="495" 
d="M90 801l-24 612h364l-24 -612h-316z" />
    <glyph glyph-name="parenleft" unicode="(" horiz-adv-x="747" 
d="M414 -389q-133 174 -214 437.5t-81 524.5t81 525t214 438h370q-126 -173 -202 -436.5t-76 -526.5t76 -526t202 -436h-370z" />
    <glyph glyph-name="parenright" unicode=")" horiz-adv-x="747" 
d="M-37 -389q126 173 202.5 436.5t76.5 525.5t-76.5 526t-202.5 437h371q133 -174 214 -438t81 -525t-81 -524.5t-214 -437.5h-371z" />
    <glyph glyph-name="asterisk" unicode="*" horiz-adv-x="763" 
d="M578 1139l75 -29l86 -43l-112 -193l-88 44l-58 49l13 -76v-88h-224v88l13 76l-60 -49l-86 -44l-112 193l86 47l71 25l-71 28l-86 43l112 193l88 -43l58 -49l-13 75v89h224v-89l-13 -73l60 47l86 43l112 -193l-86 -45z" />
    <glyph glyph-name="plus" unicode="+" horiz-adv-x="1093" 
d="M987 770v-332h-272v-274h-336v274h-273v332h273v274h336v-274h272z" />
    <glyph glyph-name="comma" unicode="," horiz-adv-x="575" 
d="M-25 -297l146 653h428l-258 -653h-316z" />
    <glyph glyph-name="hyphen" unicode="-" horiz-adv-x="835" 
d="M106 383v356h623v-356h-623z" />
    <glyph glyph-name="period" unicode="." horiz-adv-x="569" 
d="M285 -25q-106 0 -177 71t-71 175t71 175t177 71q105 0 176 -70.5t71 -175.5t-71 -175.5t-176 -70.5z" />
    <glyph glyph-name="slash" unicode="/" horiz-adv-x="1136" 
d="M-27 -307l820 1843h370l-819 -1843h-371z" />
    <glyph glyph-name="zero" unicode="0" horiz-adv-x="1277" 
d="M639 -25q-165 0 -294.5 92.5t-201 259.5t-71.5 380t71.5 380t201 259t294.5 92t294.5 -92t201 -259t71.5 -380t-71.5 -380t-201 -259.5t-294.5 -92.5zM639 352q73 0 119.5 99t46.5 256t-46 255.5t-120 98.5q-72 0 -119 -99t-47 -255t47 -255.5t119 -99.5z" />
    <glyph glyph-name="one" unicode="1" horiz-adv-x="854" 
d="M451 1413h278v-1413h-391v946l-170 -98l-168 315z" />
    <glyph glyph-name="two" unicode="2" horiz-adv-x="1089" 
d="M616 369h404v-369h-957v319l420 443q35 39 54.5 61.5t43 63.5t23.5 71q0 40 -32.5 64.5t-84.5 24.5q-102 0 -219 -117l-264 256q79 113 214.5 182.5t293.5 69.5q220 0 357 -129t137 -326q0 -69 -16 -131t-45 -112.5t-56 -85t-62 -70.5z" />
    <glyph glyph-name="three" unicode="3" horiz-adv-x="1163" 
d="M915 735q92 -55 143.5 -142.5t51.5 -193.5q0 -189 -152.5 -306.5t-398.5 -117.5q-158 0 -304.5 53.5t-236.5 143.5l222 289q52 -49 132 -79t158 -30q80 0 129.5 29t49.5 76t-48 76.5t-126 29.5h-193v334h193q66 0 106.5 21.5t40.5 56.5q0 38 -47 62t-125 24
q-63 0 -128 -18.5t-110 -47.5l-204 285q87 71 220 114.5t271 43.5q233 0 378.5 -112t145.5 -292q0 -92 -44.5 -169.5t-123.5 -129.5z" />
    <glyph glyph-name="four" unicode="4" horiz-adv-x="1200" 
d="M1155 594v-369h-115v-225h-391v225h-530l-90 320l577 868h434v-819h115zM440 594h209v324z" />
    <glyph glyph-name="five" unicode="5" horiz-adv-x="1161" 
d="M639 940q206 0 347.5 -135.5t141.5 -337.5q0 -212 -158 -352t-405 -140q-280 0 -514 172l191 316q63 -53 142.5 -82t154.5 -29q88 0 138 36.5t50 88.5q0 46 -38.5 76.5t-98.5 30.5q-77 0 -131 -54l-346 101l73 782h844v-369h-516l-6 -122q56 18 131 18z" />
    <glyph glyph-name="six" unicode="6" horiz-adv-x="1159" 
d="M713 922q119 0 217.5 -61t154.5 -165.5t56 -228.5q0 -140 -72 -253t-197 -176t-278 -63q-249 0 -400 166.5t-151 436.5q0 167 62 315.5t176 263.5t287 189.5t384 91.5l74 -365q-152 -12 -271 -59.5t-190 -118.5q77 27 148 27zM592 352q63 0 105 30.5t42 76.5t-42 76
t-105 30t-105.5 -30t-42.5 -76t42.5 -76.5t105.5 -30.5z" />
    <glyph glyph-name="seven" unicode="7" horiz-adv-x="1069" 
d="M61 1413h967v-307l-475 -1106h-440l454 1044h-506v369z" />
    <glyph glyph-name="eight" unicode="8" horiz-adv-x="1222" 
d="M983 733q88 -58 137 -140.5t49 -180.5q0 -185 -160.5 -311t-398.5 -126q-156 0 -284 57t-200.5 157.5t-72.5 222.5q0 98 49 180.5t138 140.5q-160 118 -160 295q0 173 151 291.5t379 118.5q229 0 381 -118.5t152 -291.5q0 -177 -160 -295zM610 1061q-56 0 -92.5 -21
t-36.5 -53t37 -54t92 -22q56 0 93.5 22t37.5 54t-37.5 53t-93.5 21zM610 352q67 0 112.5 29t45.5 70t-45.5 69.5t-112.5 28.5q-66 0 -110.5 -28.5t-44.5 -69.5t44.5 -70t110.5 -29z" />
    <glyph glyph-name="nine" unicode="9" horiz-adv-x="1159" 
d="M565 1438q249 0 400 -166t151 -436q0 -167 -62 -318t-176 -268.5t-287.5 -191t-383.5 -83.5l-74 365q153 3 273.5 53t191.5 127q-74 -28 -152 -28q-181 0 -304.5 132t-123.5 322q0 140 72 253t197 176t278 63zM420 954q0 -46 42 -76t105 -30t105.5 30t42.5 76t-42.5 76.5
t-105.5 30.5t-105 -30.5t-42 -76.5z" />
    <glyph glyph-name="colon" unicode=":" horiz-adv-x="589" 
d="M295 578q-106 0 -177 70.5t-71 174.5t71 175t177 71t177 -71t71 -175t-71 -174.5t-177 -70.5zM295 -25q-106 0 -177 71t-71 175t71 175t177 71t177 -71t71 -175t-71 -175t-177 -71z" />
    <glyph glyph-name="semicolon" unicode=";" horiz-adv-x="622" 
d="M328 578q-106 0 -177 70.5t-71 174.5t71 175t177 71t176.5 -70.5t70.5 -175.5q0 -104 -70.5 -174.5t-176.5 -70.5zM-25 -297l146 653h428l-258 -653h-316z" />
    <glyph glyph-name="less" unicode="&#x3c;" horiz-adv-x="950" 
d="M844 1120v-366l-355 -148l355 -147v-367l-738 348v332z" />
    <glyph glyph-name="equal" unicode="=" horiz-adv-x="1093" 
d="M106 666v331h881v-331h-881zM106 215v332h881v-332h-881z" />
    <glyph glyph-name="greater" unicode="&#x3e;" horiz-adv-x="950" 
d="M106 1120l738 -348v-332l-738 -348v367l355 147l-355 148v366z" />
    <glyph glyph-name="question" unicode="?" horiz-adv-x="1019" 
d="M297 512v31q0 48 16 93t42 79.5t57 66.5t62.5 59t57.5 51.5t42 50t16 48.5q0 32 -26.5 51t-76.5 19q-132 0 -254 -131l-249 260q105 119 239.5 183.5t284.5 64.5q207 0 345 -121t138 -293q0 -77 -31.5 -144t-76.5 -112t-89.5 -83.5t-76 -74.5t-31.5 -67v-31h-389z
M492 -25q-103 0 -171.5 68.5t-68.5 169.5t68.5 169.5t171.5 68.5q102 0 170.5 -68.5t68.5 -169.5t-68.5 -169.5t-170.5 -68.5z" />
    <glyph glyph-name="at" unicode="@" horiz-adv-x="1687" 
d="M911 893h297v-410q0 -29 18.5 -47t47.5 -18q49 0 77.5 54.5t28.5 143.5q0 134 -70 243.5t-191 171t-267 61.5q-155 0 -280 -70.5t-195 -194t-70 -276.5q0 -151 69.5 -274t195 -194t282.5 -71q184 0 311 82l99 -213q-191 -98 -414 -98q-166 0 -312 59t-249.5 161
t-163 244.5t-59.5 303.5t59.5 303.5t163 245t250 162t313.5 59.5q214 0 390 -91.5t278 -254.5t102 -363q0 -195 -97.5 -311.5t-269.5 -116.5q-86 0 -159.5 29t-120.5 82q-66 -111 -211 -111q-146 0 -241 105t-95 260q0 158 93 263.5t224 105.5q97 0 166 -66v41zM821 467
q38 0 64 24.5t26 59.5q0 36 -26.5 60t-63.5 24t-63.5 -24t-26.5 -60q0 -35 26 -59.5t64 -24.5z" />
    <glyph glyph-name="A" unicode="A" horiz-adv-x="1476" 
d="M1049 0l-64 195h-502l-63 -195h-420l508 1413h461l508 -1413h-428zM598 555h272l-135 424z" />
    <glyph glyph-name="B" unicode="B" horiz-adv-x="1316" 
d="M1085 750q91 -41 149 -142.5t58 -222.5q0 -169 -115 -277t-290 -108h-770v1413h725q164 0 275.5 -104t111.5 -262q0 -93 -39.5 -173.5t-104.5 -123.5zM741 1061h-245v-172h245q37 0 61.5 24.5t24.5 61.5t-24.5 61.5t-61.5 24.5zM788 352q43 0 73 30t30 73t-30 72.5
t-73 29.5h-292v-205h292z" />
    <glyph glyph-name="C" unicode="C" horiz-adv-x="1454" 
d="M803 -25q-158 0 -297.5 56.5t-239.5 153.5t-157.5 232.5t-57.5 289.5q0 205 98 372.5t270.5 263t383.5 95.5q198 0 363 -85t266 -233l-338 -209q-48 70 -124 110t-167 40q-150 0 -250 -101t-100 -253t100.5 -253.5t249.5 -101.5q91 0 167 40t124 110l338 -209
q-101 -148 -266 -233t-363 -85z" />
    <glyph glyph-name="D" unicode="D" horiz-adv-x="1458" 
d="M680 1413q205 0 371.5 -92t261 -253.5t94.5 -360.5t-94.5 -361t-261 -254t-371.5 -92h-563v1413h563zM672 369q143 0 238.5 96.5t95.5 241.5t-95.5 241t-238.5 96h-164v-675h164z" />
    <glyph glyph-name="E" unicode="E" horiz-adv-x="1173" 
d="M508 369h596v-369h-987v1413h977v-369h-586v-149h520v-369h-520v-157z" />
    <glyph glyph-name="F" unicode="F" horiz-adv-x="1107" 
d="M1063 1044h-555v-165h479v-369h-479v-510h-391v1413h946v-369z" />
    <glyph glyph-name="G" unicode="G" horiz-adv-x="1554" 
d="M811 842h702v-135q0 -156 -54 -292t-148 -232.5t-228 -152t-288 -55.5q-157 0 -295 56.5t-236.5 153.5t-155.5 232.5t-57 289.5q0 205 98 372.5t270.5 263t383.5 95.5q180 0 333.5 -68.5t247.5 -189.5l-294 -236q-50 57 -123 89t-156 32q-153 0 -255.5 -102.5
t-102.5 -255.5q0 -154 102 -256.5t254 -102.5q91 0 163 39.5t111 106.5h-272v348z" />
    <glyph glyph-name="H" unicode="H" horiz-adv-x="1458" 
d="M950 1413h391v-1413h-391v526h-442v-526h-391v1413h391v-518h442v518z" />
    <glyph glyph-name="I" unicode="I" horiz-adv-x="624" 
d="M117 0v1413h391v-1413h-391z" />
    <glyph glyph-name="J" unicode="J" horiz-adv-x="892" 
d="M262 -25q-128 0 -215 35v371q92 -29 172 -29q187 0 187 160v901h391v-921q0 -245 -145 -381t-390 -136z" />
    <glyph glyph-name="K" unicode="K" horiz-adv-x="1413" 
d="M948 0l-348 451l-92 -109v-342h-391v1413h391v-534l418 534h495l-575 -676l608 -737h-506z" />
    <glyph glyph-name="L" unicode="L" horiz-adv-x="1077" 
d="M508 369h534v-369h-925v1413h391v-1044z" />
    <glyph glyph-name="M" unicode="M" horiz-adv-x="1814" 
d="M1221 1413h477v-1413h-391v778l-289 -573h-221l-289 573v-778h-391v1413h483l311 -614z" />
    <glyph glyph-name="N" unicode="N" horiz-adv-x="1482" 
d="M975 1413h391v-1413h-391l-467 723v-723h-391v1413h391l467 -723v723z" />
    <glyph glyph-name="O" unicode="O" horiz-adv-x="1605" 
d="M803 -25q-158 0 -297.5 56.5t-239.5 153.5t-157.5 232.5t-57.5 289.5q0 205 98 372.5t270.5 263t383.5 95.5t383 -95.5t270 -263t98 -372.5t-98 -373t-270 -263.5t-383 -95.5zM803 352q149 0 249.5 101.5t100.5 253.5t-100 253t-250 101t-250 -101t-100 -253
t100.5 -253.5t249.5 -101.5z" />
    <glyph glyph-name="P" unicode="P" horiz-adv-x="1314" 
d="M772 1413q223 0 372.5 -143.5t149.5 -358.5t-149.5 -358t-372.5 -143h-264v-410h-391v1413h655zM764 778q55 0 92 38t37 95t-37 95t-92 38h-256v-266h256z" />
    <glyph glyph-name="Q" unicode="Q" horiz-adv-x="1605" 
d="M1554 707q0 -152 -54 -284.5t-154 -232.5l127 -180l-291 -203l-142 203q-113 -35 -237 -35q-158 0 -297.5 56.5t-239.5 153.5t-157.5 232.5t-57.5 289.5q0 205 98 372.5t270.5 263t383.5 95.5t383 -95.5t270 -263t98 -372.5zM453 707q0 -151 99 -252t247 -103l-90 129
l290 203l109 -156q45 79 45 179q0 152 -100 253t-250 101t-250 -101t-100 -253z" />
    <glyph glyph-name="R" unicode="R" horiz-adv-x="1325" 
d="M848 0l-217 438h-123v-438h-391v1413h635q223 0 372.5 -142.5t149.5 -355.5q0 -132 -64.5 -239t-175.5 -170l283 -506h-469zM508 1044v-266h235q55 0 92 38t37 95t-37 95t-92 38h-235z" />
    <glyph glyph-name="S" unicode="S" horiz-adv-x="1249" 
d="M647 -25q-166 0 -336 61t-288 161l198 299q91 -78 207 -125t217 -47q74 0 126 24t52 64q0 37 -52 60t-185 56q-504 125 -504 471q0 198 155.5 318.5t413.5 120.5q161 0 296 -47.5t222 -124.5l-178 -299q-65 56 -159 89.5t-185 33.5q-73 0 -118.5 -21t-45.5 -55
q0 -67 213 -115q37 -8 67.5 -16.5t88.5 -28.5t103 -43t98 -61.5t88.5 -82.5t59.5 -106t24 -133q0 -132 -76.5 -236t-208 -160.5t-293.5 -56.5z" />
    <glyph glyph-name="T" unicode="T" horiz-adv-x="1202" 
d="M1157 1413v-369h-360v-1044h-391v1044h-361v369h1112z" />
    <glyph glyph-name="U" unicode="U" horiz-adv-x="1388" 
d="M694 -25q-126 0 -237 44t-190 120.5t-125 184t-46 229.5v860h391v-854q0 -89 59 -148t148 -59t148 59t59 148v854h391v-860q0 -122 -46 -229.5t-125 -184t-190 -120.5t-237 -44z" />
    <glyph glyph-name="V" unicode="V" horiz-adv-x="1464" 
d="M1040 1413h428l-536 -1413h-400l-536 1413h436l305 -881z" />
    <glyph glyph-name="W" unicode="W" horiz-adv-x="2041" 
d="M1632 1413h404l-428 -1413h-389l-197 786l-199 -786h-387l-430 1413h414l219 -858l217 858h340l219 -858z" />
    <glyph glyph-name="X" unicode="X" horiz-adv-x="1484" 
d="M1487 0h-481l-267 426l-264 -426h-477l477 711l-469 702h481l258 -418l256 418h478l-469 -702z" />
    <glyph glyph-name="Y" unicode="Y" horiz-adv-x="1382" 
d="M971 1413h436l-520 -948v-465h-391v465l-521 948h445l276 -534z" />
    <glyph glyph-name="Z" unicode="Z" horiz-adv-x="1257" 
d="M600 369h596v-369h-1135v281l582 763h-573v369h1112v-280z" />
    <glyph glyph-name="bracketleft" unicode="[" horiz-adv-x="757" 
d="M723 1188h-203v-1229h203v-348h-584v1925h584v-348z" />
    <glyph glyph-name="backslash" unicode="\" horiz-adv-x="1136" 
d="M793 -307l-820 1843h371l819 -1843h-370z" />
    <glyph glyph-name="bracketright" unicode="]" horiz-adv-x="757" 
d="M35 1536h583v-1925h-583v348h203v1229h-203v348z" />
    <glyph glyph-name="asciicircum" unicode="^" horiz-adv-x="917" 
d="M893 872h-330l-104 234l-105 -234h-329l266 541h336z" />
    <glyph glyph-name="underscore" unicode="_" horiz-adv-x="962" 
d="M6 -395v311h950v-311h-950z" />
    <glyph glyph-name="grave" unicode="`" horiz-adv-x="659" 
d="M274 1135l-274 323h459l200 -323h-385z" />
    <glyph glyph-name="a" unicode="a" 
d="M805 1044h369v-1044h-369v66q-115 -91 -262 -91q-139 0 -252.5 71.5t-177.5 197t-64 278.5t64 278.5t177.5 197t252.5 71.5q148 0 262 -90v65zM616 332q82 0 135.5 54t53.5 136t-53.5 136.5t-135.5 54.5q-81 0 -134.5 -54.5t-53.5 -136.5t53 -136t135 -54z" />
    <glyph glyph-name="b" unicode="b" 
d="M733 1069q139 0 252.5 -71.5t177.5 -197t64 -278.5t-64 -278.5t-177.5 -197t-252.5 -71.5q-147 0 -262 91v-66h-369v1475h369v-496q114 90 262 90zM659 332q82 0 135.5 54t53.5 136t-53.5 136.5t-135.5 54.5q-81 0 -134.5 -54.5t-53.5 -136.5t53 -136t135 -54z" />
    <glyph glyph-name="c" unicode="c" horiz-adv-x="1103" 
d="M610 -25q-160 0 -290 71.5t-203.5 197t-73.5 278.5t73.5 278.5t203.5 197t290 71.5q157 0 285 -69t201 -189l-320 -195q-24 44 -68 70.5t-98 26.5q-81 0 -134.5 -54.5t-53.5 -136.5t53 -136t135 -54q54 0 98 26t68 70l320 -195q-73 -120 -201 -189t-285 -69z" />
    <glyph glyph-name="d" unicode="d" 
d="M805 1475h369v-1475h-369v66q-115 -91 -262 -91q-139 0 -252.5 71.5t-177.5 197t-64 278.5t64 278.5t177.5 197t252.5 71.5q148 0 262 -90v496zM616 332q82 0 135.5 54t53.5 136t-53.5 136.5t-135.5 54.5q-81 0 -134.5 -54.5t-53.5 -136.5t53 -136t135 -54z" />
    <glyph glyph-name="e" unicode="e" horiz-adv-x="1198" 
d="M1157 514q0 -60 -8 -96h-709q25 -62 77.5 -96.5t123.5 -34.5q66 0 121 27t90 63l242 -213q-86 -89 -206 -139t-257 -50q-252 0 -420 158.5t-168 394.5q0 230 161 385.5t400 155.5q237 0 395 -157.5t158 -397.5zM600 758q-56 0 -99 -34t-65 -95h328q-20 61 -64 95t-100 34
z" />
    <glyph glyph-name="f" unicode="f" horiz-adv-x="796" 
d="M668 1163q-59 0 -89 -28t-30 -76v-15h217v-335h-217v-709h-369v709h-139v335h139v39q0 189 100 302.5t304 113.5q119 0 209 -47v-324q-56 35 -125 35z" />
    <glyph glyph-name="g" unicode="g" horiz-adv-x="1159" 
d="M770 33q165 0 277 -89.5t149 -250.5l-379 -107q-8 41 -40 65.5t-79 24.5h-292q-162 0 -261.5 87t-99.5 227q0 90 41 169.5t111 121.5q-136 133 -136 323q0 199 144.5 332t361.5 133q107 0 197 -35q28 90 108 141.5t193 51.5h92v-340h-74q-61 0 -79 -41q69 -107 69 -242
q0 -199 -145 -332t-361 -133q-44 0 -108 11q-45 -25 -45 -66q0 -23 18 -37t47 -14h291zM567 721q-55 0 -91 -33t-36 -84t36 -84t91 -33q54 0 90.5 33t36.5 84t-36.5 84t-90.5 33z" />
    <glyph glyph-name="h" unicode="h" horiz-adv-x="1220" 
d="M754 1069q173 0 279 -105t106 -278v-686h-369v561q0 69 -38.5 110.5t-102.5 41.5q-71 0 -114.5 -43t-43.5 -113v-557h-369v1475h369v-517q117 111 283 111z" />
    <glyph glyph-name="i" unicode="i" horiz-adv-x="573" 
d="M287 1135q-96 0 -160 63t-64 158t64 158t160 63q95 0 159 -63t64 -158t-64 -158t-159 -63zM102 0v1044h369v-1044h-369z" />
    <glyph glyph-name="j" unicode="j" horiz-adv-x="581" 
d="M295 1135q-95 0 -159 63t-64 158t64 158t159 63t159 -63t64 -158t-64 -158t-159 -63zM98 -414q-85 0 -155 25v330q49 -19 86 -19q41 0 61.5 20.5t20.5 55.5v1046h368v-1089q0 -166 -94.5 -267.5t-286.5 -101.5z" />
    <glyph glyph-name="k" unicode="k" horiz-adv-x="1177" 
d="M733 0l-219 289l-43 -49v-240h-369v1475h369v-734l256 303h475l-428 -471l443 -573h-484z" />
    <glyph glyph-name="l" unicode="l" horiz-adv-x="573" 
d="M102 0v1475h369v-1475h-369z" />
    <glyph glyph-name="m" unicode="m" horiz-adv-x="1839" 
d="M1374 1069q174 0 278.5 -104.5t104.5 -278.5v-686h-368v573q0 63 -36 101.5t-96 38.5q-63 0 -103 -40t-40 -104v-569h-369v573q0 63 -35.5 101.5t-95.5 38.5q-63 0 -103 -40t-40 -104v-569h-369v1044h369v-77q111 102 270 102q198 0 301 -141q129 141 332 141z" />
    <glyph glyph-name="n" unicode="n" horiz-adv-x="1220" 
d="M754 1069q173 0 279 -105t106 -278v-686h-369v561q0 69 -38.5 110.5t-104.5 41.5q-69 0 -112.5 -43t-43.5 -113v-557h-369v1044h369v-77q117 102 283 102z" />
    <glyph glyph-name="o" unicode="o" horiz-adv-x="1220" 
d="M610 -25q-160 0 -290 71.5t-203.5 197t-73.5 278.5t73.5 278.5t203.5 197t290 71.5q243 0 405.5 -157t162.5 -390t-162.5 -390t-405.5 -157zM610 332q82 0 135.5 54t53.5 136t-53.5 136.5t-135.5 54.5q-81 0 -134.5 -54.5t-53.5 -136.5t53 -136t135 -54z" />
    <glyph glyph-name="p" unicode="p" 
d="M733 1069q139 0 252.5 -71.5t177.5 -197t64 -278.5t-64 -278.5t-177.5 -197t-252.5 -71.5q-147 0 -262 91v-455h-369v1433h369v-65q114 90 262 90zM659 332q82 0 135.5 54t53.5 136t-53.5 136.5t-135.5 54.5q-81 0 -134.5 -54.5t-53.5 -136.5t53 -136t135 -54z" />
    <glyph glyph-name="q" unicode="q" 
d="M805 1044h369v-1433h-369v455q-115 -91 -262 -91q-139 0 -252.5 71.5t-177.5 197t-64 278.5t64 278.5t177.5 197t252.5 71.5q148 0 262 -90v65zM616 332q82 0 135.5 54t53.5 136t-53.5 136.5t-135.5 54.5q-81 0 -134.5 -54.5t-53.5 -136.5t53 -136t135 -54z" />
    <glyph glyph-name="r" unicode="r" horiz-adv-x="780" 
d="M711 1061h51v-379h-51q-118 0 -179 -57t-61 -158v-467h-369v1044h369v-88q105 105 240 105z" />
    <glyph glyph-name="s" unicode="s" horiz-adv-x="985" 
d="M485 -25q-253 0 -462 154l157 225q145 -102 291 -102q125 0 125 53q0 27 -36 41.5t-116 30.5q-46 9 -73 15.5t-73.5 21t-75 30t-64 42t-55.5 57.5t-34 75.5t-14 98.5q0 115 62 196t163 118.5t230 37.5q232 0 432 -133l-158 -225q-147 82 -260 82q-106 0 -106 -45
q0 -25 36 -39.5t111 -28.5q44 -9 73 -15.5t74 -20.5t75.5 -29.5t65.5 -42t56 -58t35 -76t14 -98.5q0 -117 -63.5 -200.5t-169 -124t-240.5 -40.5z" />
    <glyph glyph-name="t" unicode="t" horiz-adv-x="854" 
d="M793 709h-244v-273q0 -48 28.5 -76t84.5 -28q59 0 131 35v-344q-92 -48 -211 -48q-137 0 -229 53.5t-132.5 141.5t-40.5 205v334h-139v335h139v246h369v-246h244v-335z" />
    <glyph glyph-name="u" unicode="u" horiz-adv-x="1175" 
d="M588 -25q-229 0 -367.5 122t-138.5 323v624h369v-573q0 -63 37.5 -101t99.5 -38t99.5 38t37.5 101v573h369v-624q0 -201 -138.5 -323t-367.5 -122z" />
    <glyph glyph-name="v" unicode="v" horiz-adv-x="1163" 
d="M764 1044h412l-406 -1044h-377l-405 1044h420l178 -555z" />
    <glyph glyph-name="w" unicode="w" horiz-adv-x="1744" 
d="M1350 1044h401l-356 -1044h-377l-146 569l-145 -569h-377l-356 1044h412l141 -542l143 542h373l145 -546z" />
    <glyph glyph-name="x" unicode="x" horiz-adv-x="1157" 
d="M1171 0h-446l-150 254l-147 -254h-442l346 524l-340 520h446l144 -247l141 247h442l-340 -520z" />
    <glyph glyph-name="y" unicode="y" horiz-adv-x="1163" 
d="M764 1044h412l-461 -1183q-50 -125 -151.5 -200t-225.5 -75q-79 0 -165.5 30.5t-147.5 80.5l139 289q49 -43 112 -43q72 0 101 67l6 15l-395 1019h420l178 -552z" />
    <glyph glyph-name="z" unicode="z" horiz-adv-x="1011" 
d="M584 356h366v-356h-889v268l353 420h-344v356h866v-268z" />
    <glyph glyph-name="braceleft" unicode="{" horiz-adv-x="903" 
d="M670 764q0 -63 -35.5 -113t-97.5 -76q62 -28 97.5 -78t35.5 -112v-328q0 -44 25.5 -71t68.5 -27h104v-348h-252q-148 0 -237.5 90.5t-89.5 239.5v346q0 52 -30 83t-81 31h-80v349h80q51 0 81 31t30 83v342q0 149 89.5 239.5t237.5 90.5h252v-348h-104q-43 0 -68.5 -27
t-25.5 -71v-326z" />
    <glyph glyph-name="bar" unicode="|" horiz-adv-x="651" 
d="M158 -389v1925h336v-1925h-336z" />
    <glyph glyph-name="braceright" unicode="}" horiz-adv-x="903" 
d="M725 750h80v-349h-80q-51 0 -81 -31t-30 -83v-346q0 -149 -89.5 -239.5t-237.5 -90.5h-252v348h104q43 0 68.5 27t25.5 71v328q0 62 36 112t98 78q-62 27 -98 77t-36 112v326q0 44 -25.5 71t-68.5 27h-104v348h252q148 0 237.5 -90.5t89.5 -239.5v-342q0 -52 30 -83
t81 -31z" />
    <glyph glyph-name="asciitilde" unicode="~" horiz-adv-x="1249" 
d="M805 395q-66 0 -127.5 17t-105 34t-64.5 17q-29 0 -47.5 -18t-18.5 -46h-336q0 95 18 170.5t56 135t105 92t159 32.5q66 0 127.5 -16.5t105 -33.5t64.5 -17q29 0 47.5 17.5t18.5 45.5h336q0 -95 -18 -170.5t-56 -135t-105 -92t-159 -32.5z" />
    <glyph glyph-name="uni00A0" unicode="&#xa0;" horiz-adv-x="419" 
 />
    <glyph glyph-name="exclamdown" unicode="&#xa1;" horiz-adv-x="602" 
d="M301 594q-103 0 -171.5 68t-68.5 169t68.5 169.5t171.5 68.5t171.5 -68.5t68.5 -169.5t-68.5 -169t-171.5 -68zM106 -369v349l25 552h342l25 -552v-349h-392z" />
    <glyph glyph-name="cent" unicode="&#xa2;" horiz-adv-x="1175" 
d="M1126 416q-63 -100 -163.5 -166t-225.5 -84v-166h-192v164q-207 33 -339 182.5t-132 358.5t132 358t339 182v168h192v-170q124 -19 225.5 -84.5t161.5 -165.5l-309 -186q-28 52 -78 76v-357q48 23 78 78zM440 705q0 -59 28.5 -106.5t76.5 -74.5v361q-48 -27 -76.5 -74
t-28.5 -106z" />
    <glyph glyph-name="sterling" unicode="&#xa3;" horiz-adv-x="1208" 
d="M578 522v-153h579v-369h-1061v369h90v153h-90v336h90v84q0 212 152 354t381 142q125 0 239 -45t201 -121l-198 -287q-52 34 -117 55t-121 21q-67 0 -106 -33t-39 -86v-84h342v-336h-342z" />
    <glyph glyph-name="currency" unicode="&#xa4;" horiz-adv-x="1148" 
d="M999 709q0 -90 -34 -162l122 -123l-223 -223l-139 137q-77 -23 -150 -23t-147 23l-141 -137l-226 223l125 125q-32 78 -32 160q0 90 34 159l-127 127l224 224l141 -140q73 25 149 25q73 0 150 -23l139 138l223 -226l-122 -123q34 -72 34 -161zM575 598q47 0 80 32t33 79
q0 49 -32.5 80.5t-80.5 31.5q-47 0 -78.5 -32.5t-31.5 -79.5t31.5 -79t78.5 -32z" />
    <glyph glyph-name="yen" unicode="&#xa5;" horiz-adv-x="1345" 
d="M1348 1413l-404 -799h141v-180h-217v-74h217v-180h-217v-180h-391v180h-215v180h215v74h-215v180h139l-403 799h436l244 -534l242 534h428z" />
    <glyph glyph-name="brokenbar" unicode="&#xa6;" horiz-adv-x="651" 
d="M158 696v840h336v-840h-336zM158 -389v840h336v-840h-336z" />
    <glyph glyph-name="section" unicode="&#xa7;" horiz-adv-x="1089" 
d="M897 395q96 -89 96 -227q0 -116 -62.5 -200t-163 -123.5t-226.5 -39.5q-129 0 -248.5 42t-194.5 110l146 223q36 -40 107.5 -69t150.5 -29q61 0 95 17.5t34 47.5q0 21 -17 38t-50 30t-56.5 20t-58.5 15q-40 10 -71 19t-70 24.5t-68.5 33t-59.5 44.5t-49 58t-31 73t-12 92
q0 158 111 254q-97 94 -97 229q0 170 129 265.5t324 95.5q117 0 230 -33.5t184 -91.5l-138 -226q-40 31 -107 52.5t-132 21.5q-59 0 -93 -17.5t-34 -47.5q0 -20 16.5 -37t47.5 -29.5t58 -20.5t64 -16q56 -13 100.5 -28.5t95 -43t84 -62.5t55.5 -89t22 -121q0 -157 -111 -254
zM559 543q38 4 62 23t24 44q0 64 -108 90q-39 -5 -62.5 -23t-23.5 -44q0 -62 108 -90z" />
    <glyph glyph-name="dieresis" unicode="&#xa8;" horiz-adv-x="860" 
d="M199 1116q-85 0 -142 56t-57 141q0 84 57 140t142 56t141.5 -55.5t56.5 -140.5t-56.5 -141t-141.5 -56zM662 1116q-85 0 -142 56t-57 141q0 84 57 140t142 56t141.5 -55.5t56.5 -140.5t-56.5 -141t-141.5 -56z" />
    <glyph glyph-name="copyright" unicode="&#xa9;" horiz-adv-x="1605" 
d="M803 -25q-205 0 -372.5 95.5t-263 263.5t-95.5 373t95.5 372.5t263 263t372.5 95.5t372.5 -95.5t263 -263t95.5 -372.5t-95.5 -373t-263 -263.5t-372.5 -95.5zM803 217q203 0 341 140.5t138 349.5t-138 349t-341 140t-341 -140t-138 -349t138 -349.5t341 -140.5zM813 346
q-155 0 -257.5 103.5t-102.5 257.5t102.5 257t257.5 103q105 0 190 -50.5t130 -137.5l-256 -129q-17 36 -64 36q-33 0 -54.5 -23t-21.5 -56t21.5 -56.5t54.5 -23.5q43 0 64 37l256 -129q-45 -87 -130 -138t-190 -51z" />
    <glyph glyph-name="ordfeminine" unicode="&#xaa;" horiz-adv-x="720" 
d="M408 1417h268v-561h-268v33q-57 -47 -123 -47q-110 0 -185 84.5t-75 210.5t75 210.5t185 84.5q65 0 123 -48v33zM352 1077q24 0 40 17t16 43t-16 42.5t-40 16.5q-25 0 -41 -16.5t-16 -42.5t16 -43t41 -17z" />
    <glyph glyph-name="guillemotleft" unicode="&#xab;" horiz-adv-x="1374" 
d="M752 963l-283 -422l283 -422h-430l-281 422l281 422h430zM1348 963l-283 -422l283 -422h-430l-281 422l281 422h430z" />
    <glyph glyph-name="logicalnot" unicode="&#xac;" horiz-adv-x="1093" 
d="M106 770h881v-606h-336v274h-545v332z" />
    <glyph glyph-name="uni00AD" unicode="&#xad;" horiz-adv-x="835" 
d="M106 383v356h623v-356h-623z" />
    <glyph glyph-name="registered" unicode="&#xae;" horiz-adv-x="817" 
d="M410 1438q164 0 273.5 -110.5t109.5 -274.5t-109.5 -273.5t-273.5 -109.5t-274.5 109.5t-110.5 273.5t110.5 274.5t274.5 110.5zM410 795q107 0 179.5 74t72.5 184t-72.5 185t-179.5 75q-109 0 -181.5 -75t-72.5 -185t72.5 -184t181.5 -74zM565 1116q0 -64 -49 -104
l59 -129h-133l-34 98h-7v-98h-120v370h147q58 0 97.5 -39.5t39.5 -97.5zM401 1145v-58h17q12 0 20 8.5t8 20.5t-8 20.5t-20 8.5h-17z" />
    <glyph glyph-name="macron" unicode="&#xaf;" horiz-adv-x="602" 
d="M0 1147v307h602v-307h-602z" />
    <glyph glyph-name="degree" unicode="&#xb0;" horiz-adv-x="790" 
d="M395 733q-154 0 -257 101t-103 253q0 149 103 250t257 101t257.5 -101t103.5 -250q0 -152 -103.5 -253t-257.5 -101zM395 1018q29 0 48.5 20t19.5 49q0 28 -19.5 47t-48.5 19t-48 -19t-19 -47q0 -29 19 -49t48 -20z" />
    <glyph glyph-name="plusminus" unicode="&#xb1;" horiz-adv-x="1093" 
d="M715 954h272v-331h-272v-213h-336v213h-273v331h273v213h336v-213zM106 0v332h881v-332h-881z" />
    <glyph glyph-name="uni00B2" unicode="&#xb2;" horiz-adv-x="667" 
d="M422 999h203v-249h-580v217l236 243q67 67 67 105q0 15 -14 24t-35 9q-47 0 -117 -60l-178 174q48 68 131.5 109t179.5 41q136 0 219.5 -79.5t83.5 -201.5q0 -135 -104 -239z" />
    <glyph glyph-name="uni00B3" unicode="&#xb3;" horiz-adv-x="712" 
d="M561 1188q111 -68 111 -197q0 -115 -94 -185.5t-244 -70.5q-94 0 -184 31t-146 86l150 197q30 -26 74.5 -43t86.5 -17q38 0 61 11t23 30q0 20 -23.5 31.5t-60.5 11.5h-112v225h112q70 0 70 27q0 15 -24 24t-60 9q-66 0 -129 -29l-139 193q53 40 135.5 65t165.5 25
q144 0 233.5 -68.5t89.5 -177.5q0 -111 -96 -178z" />
    <glyph glyph-name="acute" unicode="&#xb4;" horiz-adv-x="659" 
d="M0 1135l201 323h458l-274 -323h-385z" />
    <glyph glyph-name="paragraph" unicode="&#xb6;" horiz-adv-x="1398" 
d="M1282 1413v-1802h-315v1491h-111v-1491h-315v921h-54q-187 0 -313.5 126.5t-126.5 314.5q0 187 126.5 313.5t313.5 126.5h795z" />
    <glyph glyph-name="periodcentered" unicode="&#xb7;" horiz-adv-x="708" 
d="M354 315q-106 0 -177 71t-71 175t71 175t177 71t177 -71t71 -175t-71 -175t-177 -71z" />
    <glyph glyph-name="cedilla" unicode="&#xb8;" horiz-adv-x="550" 
d="M360 -53q83 -14 137 -79.5t54 -154.5q0 -108 -80.5 -181t-204.5 -73q-150 0 -266 107l121 153q70 -63 139 -63q32 0 53 16t21 41q0 23 -18 39.5t-44 16.5q-35 0 -53 -25l-203 90l138 166v4h254v-4z" />
    <glyph glyph-name="uni00B9" unicode="&#xb9;" horiz-adv-x="538" 
d="M274 1597h191v-847h-266v530l-84 -49l-115 213z" />
    <glyph glyph-name="ordmasculine" unicode="&#xba;" horiz-adv-x="704" 
d="M352 842q-138 0 -232.5 84.5t-94.5 210.5t94.5 210.5t232.5 84.5t233 -84.5t95 -210.5t-95 -210.5t-233 -84.5zM352 1077q24 0 41 17t17 43q0 25 -17 42t-41 17t-40.5 -16.5t-16.5 -42.5t16.5 -43t40.5 -17z" />
    <glyph glyph-name="guillemotright" unicode="&#xbb;" horiz-adv-x="1374" 
d="M471 963l281 -422l-281 -422h-430l283 422l-283 422h430zM1067 963l281 -422l-281 -422h-430l283 422l-283 422h430z" />
    <glyph glyph-name="onequarter" unicode="&#xbc;" horiz-adv-x="1728" 
d="M465 565h-266v531l-84 -49l-115 213l274 153h191v-848zM1165 1413h334l-946 -1413h-334zM1661 371v-250h-57v-121h-267v121h-297l-61 217l330 510h295v-477h57zM1239 371h98v166z" />
    <glyph glyph-name="onehalf" unicode="&#xbd;" horiz-adv-x="1755" 
d="M465 565h-266v531l-84 -49l-115 213l274 153h191v-848zM1165 1413h334l-946 -1413h-334zM1509 250h203v-250h-579v217l235 244q68 68 68 104q0 15 -14.5 24t-35.5 9q-47 0 -116 -59l-178 174q48 67 131.5 108t179.5 41q136 0 219.5 -79t83.5 -201q0 -136 -104 -240z" />
    <glyph glyph-name="threequarters" unicode="&#xbe;" horiz-adv-x="1820" 
d="M315 805q38 0 61 11t23 30q0 20 -23.5 31.5t-60.5 11.5h-112v225h112q70 0 70 27q0 15 -24 24t-60 9q-66 0 -129 -29l-139 192q53 40 135.5 65t165.5 25q144 0 233.5 -68t89.5 -177q0 -111 -96 -178q111 -68 111 -197q0 -115 -94 -185.5t-244 -70.5q-94 0 -184 31
t-146 86l150 196q29 -26 73.5 -42.5t87.5 -16.5zM1257 1413h334l-946 -1413h-334zM1753 371v-250h-57v-121h-266v121h-297l-62 217l330 510h295v-477h57zM1331 371h99v166z" />
    <glyph glyph-name="questiondown" unicode="&#xbf;" horiz-adv-x="966" 
d="M518 594q-103 0 -171 68t-68 169t68.5 169.5t170.5 68.5q103 0 171.5 -68.5t68.5 -169.5t-68.5 -169t-171.5 -68zM502 -393q-207 0 -345.5 120.5t-138.5 292.5q0 65 22.5 123.5t56.5 98.5t74 78.5t74 66t56.5 58t22.5 57.5v30h389v-30q0 -48 -16 -93t-42 -80t-57 -66.5
t-62.5 -59t-57.5 -52t-42 -50t-16 -48.5q0 -32 26 -50.5t76 -18.5q132 0 254 131l250 -260q-105 -119 -239.5 -183.5t-284.5 -64.5z" />
    <glyph glyph-name="Agrave" unicode="&#xc0;" horiz-adv-x="1476" 
d="M944 1503h-385l-274 324h458zM1049 0l-64 195h-502l-63 -195h-420l508 1413h461l508 -1413h-428zM598 555h272l-135 424z" />
    <glyph glyph-name="Aacute" unicode="&#xc1;" horiz-adv-x="1476" 
d="M1190 1827l-275 -324h-385l201 324h459zM1049 0l-64 195h-502l-63 -195h-420l508 1413h461l508 -1413h-428zM598 555h272l-135 424z" />
    <glyph glyph-name="Acircumflex" unicode="&#xc2;" horiz-adv-x="1476" 
d="M737 1626l-78 -123h-344l201 324h442l201 -324h-344zM1049 0l-64 195h-502l-63 -195h-420l508 1413h461l508 -1413h-428zM598 555h272l-135 424z" />
    <glyph glyph-name="Atilde" unicode="&#xc3;" horiz-adv-x="1476" 
d="M655 1569q-24 0 -38.5 -15.5t-14.5 -37.5h-256q0 152 67 248t195 96q47 0 88.5 -14.5t71.5 -29t49 -14.5q23 0 38 16t15 40h256q0 -155 -66.5 -250t-195.5 -95q-48 0 -90 14t-71.5 28t-47.5 14zM1049 0l-64 195h-502l-63 -195h-420l508 1413h461l508 -1413h-428zM598 555
h272l-135 424z" />
    <glyph glyph-name="Adieresis" unicode="&#xc4;" horiz-adv-x="1476" 
d="M506 1485q-85 0 -142 56t-57 140q0 85 57 141t142 56t142 -56t57 -141q0 -84 -57 -140t-142 -56zM969 1485q-85 0 -142 56t-57 140q0 85 57 141t142 56t141.5 -56t56.5 -141t-56.5 -140.5t-141.5 -55.5zM1049 0l-64 195h-502l-63 -195h-420l508 1413h461l508 -1413h-428z
M598 555h272l-135 424z" />
    <glyph glyph-name="Aring" unicode="&#xc5;" horiz-adv-x="1476" 
d="M737 1483q-104 0 -174.5 68t-70.5 169t70.5 169.5t174.5 68.5t175 -68.5t71 -169.5t-71 -169t-175 -68zM737 1780q-25 0 -41 -17t-16 -43t16 -42.5t41 -16.5t41.5 16.5t16.5 42.5t-16.5 43t-41.5 17zM1049 0l-64 195h-502l-63 -195h-420l508 1413h461l508 -1413h-428z
M598 555h272l-135 424z" />
    <glyph glyph-name="AE" unicode="&#xc6;" horiz-adv-x="1873" 
d="M1290 369h514v-369h-905v186h-434l-103 -186h-444l784 1413h1092v-369h-504v-149h439v-369h-439v-157zM662 547h237v432z" />
    <glyph glyph-name="Ccedilla" unicode="&#xc7;" horiz-adv-x="1454" 
d="M803 352q91 0 167 40t124 110l338 -209q-84 -122 -212 -202t-284 -105l-37 -41q83 -14 137 -79.5t54 -154.5q0 -108 -80.5 -181t-204.5 -73q-150 0 -266 107l120 153q70 -63 140 -63q32 0 52.5 16t20.5 41q0 23 -17.5 39.5t-43.5 16.5q-35 0 -53 -25l-203 90l125 152
q-275 40 -452 241.5t-177 481.5q0 205 98 372.5t270.5 263t383.5 95.5q198 0 363 -85t266 -233l-338 -209q-48 70 -124 110t-167 40q-150 0 -250 -101t-100 -253t100.5 -253.5t249.5 -101.5z" />
    <glyph glyph-name="Egrave" unicode="&#xc8;" horiz-adv-x="1173" 
d="M817 1503h-385l-274 324h458zM508 369h596v-369h-987v1413h977v-369h-586v-149h520v-369h-520v-157z" />
    <glyph glyph-name="Eacute" unicode="&#xc9;" horiz-adv-x="1173" 
d="M1063 1827l-275 -324h-385l201 324h459zM508 369h596v-369h-987v1413h977v-369h-586v-149h520v-369h-520v-157z" />
    <glyph glyph-name="Ecircumflex" unicode="&#xca;" horiz-adv-x="1173" 
d="M610 1626l-78 -123h-344l201 324h442l201 -324h-344zM508 369h596v-369h-987v1413h977v-369h-586v-149h520v-369h-520v-157z" />
    <glyph glyph-name="Edieresis" unicode="&#xcb;" horiz-adv-x="1173" 
d="M379 1485q-85 0 -142 56t-57 140q0 85 57 141t142 56t142 -56t57 -141q0 -84 -57 -140t-142 -56zM842 1485q-85 0 -142 56t-57 140q0 85 57 141t142 56t141.5 -56t56.5 -141t-56.5 -140.5t-141.5 -55.5zM508 369h596v-369h-987v1413h977v-369h-586v-149h520v-369h-520
v-157z" />
    <glyph glyph-name="Igrave" unicode="&#xcc;" horiz-adv-x="624" 
d="M135 1503l-274 324h458l201 -324h-385zM117 0v1413h391v-1413h-391z" />
    <glyph glyph-name="Iacute" unicode="&#xcd;" horiz-adv-x="624" 
d="M106 1503l201 324h459l-274 -324h-386zM117 0v1413h391v-1413h-391z" />
    <glyph glyph-name="Icircumflex" unicode="&#xce;" horiz-adv-x="624" 
d="M313 1626l-77 -123h-345l201 324h443l200 -324h-344zM117 0v1413h391v-1413h-391z" />
    <glyph glyph-name="Idieresis" unicode="&#xcf;" horiz-adv-x="624" 
d="M82 1485q-85 0 -142 56t-57 140q0 85 57 141t142 56t142 -56t57 -141q0 -84 -57 -140t-142 -56zM545 1485q-85 0 -142 56t-57 140q0 85 57 141t142 56t141.5 -56t56.5 -141t-56.5 -140.5t-141.5 -55.5zM117 0v1413h391v-1413h-391z" />
    <glyph glyph-name="Eth" unicode="&#xd0;" horiz-adv-x="1458" 
d="M680 1413q205 0 371.5 -92t261 -253.5t94.5 -360.5t-94.5 -361t-261 -254t-371.5 -92h-563v575h-117v263h117v575h563zM672 369q143 0 238.5 96.5t95.5 241.5t-95.5 241t-238.5 96h-164v-206h156v-263h-156v-206h164z" />
    <glyph glyph-name="Ntilde" unicode="&#xd1;" horiz-adv-x="1482" 
d="M670 1569q-24 0 -39 -15.5t-15 -37.5h-256q0 152 67.5 248t195.5 96q47 0 88.5 -14.5t71 -29t48.5 -14.5q23 0 38.5 16.5t15.5 39.5h256q0 -155 -66.5 -250t-195.5 -95q-63 0 -128 28t-81 28zM975 1413h391v-1413h-391l-467 723v-723h-391v1413h391l467 -723v723z" />
    <glyph glyph-name="Ograve" unicode="&#xd2;" horiz-adv-x="1605" 
d="M625 1503l-275 324h459l201 -324h-385zM803 -25q-158 0 -297.5 56.5t-239.5 153.5t-157.5 232.5t-57.5 289.5q0 205 98 372.5t270.5 263t383.5 95.5t383 -95.5t270 -263t98 -372.5t-98 -373t-270 -263.5t-383 -95.5zM803 352q149 0 249.5 101.5t100.5 253.5t-100 253
t-250 101t-250 -101t-100 -253t100.5 -253.5t249.5 -101.5z" />
    <glyph glyph-name="Oacute" unicode="&#xd3;" horiz-adv-x="1605" 
d="M596 1503l201 324h458l-274 -324h-385zM803 -25q-158 0 -297.5 56.5t-239.5 153.5t-157.5 232.5t-57.5 289.5q0 205 98 372.5t270.5 263t383.5 95.5t383 -95.5t270 -263t98 -372.5t-98 -373t-270 -263.5t-383 -95.5zM803 352q149 0 249.5 101.5t100.5 253.5t-100 253
t-250 101t-250 -101t-100 -253t100.5 -253.5t249.5 -101.5z" />
    <glyph glyph-name="Ocircumflex" unicode="&#xd4;" horiz-adv-x="1605" 
d="M803 1626l-78 -123h-344l201 324h442l201 -324h-344zM803 1438q211 0 383 -95.5t270 -263t98 -372.5t-98 -373t-270 -263.5t-383 -95.5q-158 0 -297.5 56.5t-239.5 153.5t-157.5 232.5t-57.5 289.5q0 205 98 372.5t270.5 263t383.5 95.5zM803 352q149 0 249.5 101.5
t100.5 253.5t-100 253t-250 101t-250 -101t-100 -253t100.5 -253.5t249.5 -101.5z" />
    <glyph glyph-name="Otilde" unicode="&#xd5;" horiz-adv-x="1605" 
d="M930 1513q-48 0 -90 14t-71.5 28t-47.5 14q-24 0 -38.5 -15.5t-14.5 -37.5h-256q0 152 67 248t195 96q47 0 88.5 -14.5t71.5 -29t49 -14.5q23 0 38 16t15 40h256q0 -155 -66.5 -250t-195.5 -95zM803 -25q-158 0 -297.5 56.5t-239.5 153.5t-157.5 232.5t-57.5 289.5
q0 205 98 372.5t270.5 263t383.5 95.5t383 -95.5t270 -263t98 -372.5t-98 -373t-270 -263.5t-383 -95.5zM803 352q149 0 249.5 101.5t100.5 253.5t-100 253t-250 101t-250 -101t-100 -253t100.5 -253.5t249.5 -101.5z" />
    <glyph glyph-name="Odieresis" unicode="&#xd6;" horiz-adv-x="1605" 
d="M571 1485q-85 0 -141.5 55.5t-56.5 140.5t56.5 141t141.5 56t142 -56t57 -141q0 -84 -57 -140t-142 -56zM1034 1485q-85 0 -141.5 55.5t-56.5 140.5t56.5 141t141.5 56t142 -56t57 -141q0 -84 -57 -140t-142 -56zM803 -25q-158 0 -297.5 56.5t-239.5 153.5t-157.5 232.5
t-57.5 289.5q0 205 98 372.5t270.5 263t383.5 95.5t383 -95.5t270 -263t98 -372.5t-98 -373t-270 -263.5t-383 -95.5zM803 352q149 0 249.5 101.5t100.5 253.5t-100 253t-250 101t-250 -101t-100 -253t100.5 -253.5t249.5 -101.5z" />
    <glyph glyph-name="multiply" unicode="&#xd7;" horiz-adv-x="1077" 
d="M971 795l-191 -191l191 -190l-242 -242l-190 190l-191 -190l-242 242l191 190l-191 191l242 241l191 -190l190 190z" />
    <glyph glyph-name="Oslash" unicode="&#xd8;" horiz-adv-x="1605" 
d="M1556 1413l-184 -219q182 -201 182 -487q0 -205 -98 -373t-270 -263.5t-383 -95.5q-203 0 -379 95l-59 -70h-318l186 221q-182 201 -182 486q0 205 98 372.5t270.5 263t383.5 95.5q206 0 379 -95l57 70h317zM453 707q0 -97 43 -175l428 508q-55 21 -121 21
q-150 0 -250 -101t-100 -253zM1153 707q0 95 -43 176l-430 -510q65 -21 123 -21q149 0 249.5 101.5t100.5 253.5z" />
    <glyph glyph-name="Ugrave" unicode="&#xd9;" horiz-adv-x="1388" 
d="M516 1503l-274 324h458l201 -324h-385zM694 -25q-126 0 -237 44t-190 120.5t-125 184t-46 229.5v860h391v-854q0 -89 59 -148t148 -59t148 59t59 148v854h391v-860q0 -122 -46 -229.5t-125 -184t-190 -120.5t-237 -44z" />
    <glyph glyph-name="Uacute" unicode="&#xda;" horiz-adv-x="1388" 
d="M487 1503l201 324h459l-275 -324h-385zM694 -25q-126 0 -237 44t-190 120.5t-125 184t-46 229.5v860h391v-854q0 -89 59 -148t148 -59t148 59t59 148v854h391v-860q0 -122 -46 -229.5t-125 -184t-190 -120.5t-237 -44z" />
    <glyph glyph-name="Ucircumflex" unicode="&#xdb;" horiz-adv-x="1388" 
d="M694 1626l-78 -123h-344l201 324h442l201 -324h-344zM901 1413h391v-860q0 -122 -46 -229.5t-125 -184t-190 -120.5t-237 -44t-237 44t-190 120.5t-125 184t-46 229.5v860h391v-854q0 -89 59 -148t148 -59t148 59t59 148v854z" />
    <glyph glyph-name="Udieresis" unicode="&#xdc;" horiz-adv-x="1388" 
d="M463 1485q-85 0 -142 56t-57 140q0 85 57 141t142 56t142 -56t57 -141q0 -84 -57 -140t-142 -56zM926 1485q-85 0 -142 56t-57 140q0 85 57 141t142 56t141.5 -56t56.5 -141t-56.5 -140.5t-141.5 -55.5zM694 -25q-126 0 -237 44t-190 120.5t-125 184t-46 229.5v860h391
v-854q0 -89 59 -148t148 -59t148 59t59 148v854h391v-860q0 -122 -46 -229.5t-125 -184t-190 -120.5t-237 -44z" />
    <glyph glyph-name="Yacute" unicode="&#xdd;" horiz-adv-x="1382" 
d="M1145 1827l-275 -324h-385l201 324h459zM971 1413h436l-520 -948v-465h-391v465l-521 948h445l276 -534z" />
    <glyph glyph-name="Thorn" unicode="&#xde;" horiz-adv-x="1308" 
d="M772 1208q223 0 372.5 -143t149.5 -358t-149.5 -358.5t-372.5 -143.5h-264v-205h-391v1413h391v-205h264zM764 573q55 0 92 38.5t37 95.5t-37 95t-92 38h-256v-267h256z" />
    <glyph glyph-name="germandbls" unicode="&#xdf;" horiz-adv-x="1161" 
d="M928 748q95 -43 154 -135t59 -210q0 -181 -132 -304.5t-329 -123.5q-81 0 -135 15v356q40 -14 88 -14q62 0 95.5 35.5t33.5 83.5q0 51 -34.5 84.5t-84.5 33.5h-70v353h43q44 0 75.5 31t31.5 77q0 49 -35.5 81t-89.5 32q-57 0 -95 -37t-38 -94v-1012h-369v1042
q0 195 142 326t360 131q214 0 359 -125.5t145 -306.5q0 -98 -47 -183.5t-127 -135.5z" />
    <glyph glyph-name="agrave" unicode="&#xe0;" 
d="M856 1135h-385l-274 323h458zM805 1044h369v-1044h-369v66q-115 -91 -262 -91q-139 0 -252.5 71.5t-177.5 197t-64 278.5t64 278.5t177.5 197t252.5 71.5q148 0 262 -90v65zM616 332q82 0 135.5 54t53.5 136t-53.5 136.5t-135.5 54.5q-81 0 -134.5 -54.5t-53.5 -136.5
t53 -136t135 -54z" />
    <glyph glyph-name="aacute" unicode="&#xe1;" 
d="M1102 1458l-275 -323h-385l201 323h459zM805 1044h369v-1044h-369v66q-115 -91 -262 -91q-139 0 -252.5 71.5t-177.5 197t-64 278.5t64 278.5t177.5 197t252.5 71.5q148 0 262 -90v65zM616 332q82 0 135.5 54t53.5 136t-53.5 136.5t-135.5 54.5q-81 0 -134.5 -54.5
t-53.5 -136.5t53 -136t135 -54z" />
    <glyph glyph-name="acircumflex" unicode="&#xe2;" 
d="M649 1257l-78 -122h-344l201 323h442l201 -323h-344zM805 1044h369v-1044h-369v66q-115 -91 -262 -91q-139 0 -252.5 71.5t-177.5 197t-64 278.5t64 278.5t177.5 197t252.5 71.5q148 0 262 -90v65zM616 332q82 0 135.5 54t53.5 136t-53.5 136.5t-135.5 54.5
q-81 0 -134.5 -54.5t-53.5 -136.5t53 -136t135 -54z" />
    <glyph glyph-name="atilde" unicode="&#xe3;" 
d="M567 1200q-24 0 -38.5 -15.5t-14.5 -37.5h-256q0 152 67 248t195 96q47 0 88.5 -14.5t71.5 -28.5t49 -14q23 0 38 16t15 39h256q0 -155 -66.5 -249.5t-195.5 -94.5q-48 0 -90 13.5t-71.5 27.5t-47.5 14zM805 1044h369v-1044h-369v66q-115 -91 -262 -91
q-139 0 -252.5 71.5t-177.5 197t-64 278.5t64 278.5t177.5 197t252.5 71.5q148 0 262 -90v65zM616 332q82 0 135.5 54t53.5 136t-53.5 136.5t-135.5 54.5q-81 0 -134.5 -54.5t-53.5 -136.5t53 -136t135 -54z" />
    <glyph glyph-name="adieresis" unicode="&#xe4;" 
d="M418 1116q-85 0 -142 56t-57 141q0 84 57 140t142 56t141.5 -55.5t56.5 -140.5t-56.5 -141t-141.5 -56zM881 1116q-85 0 -142 56t-57 141q0 84 57 140t142 56t141.5 -55.5t56.5 -140.5t-56.5 -141t-141.5 -56zM805 1044h369v-1044h-369v66q-115 -91 -262 -91
q-139 0 -252.5 71.5t-177.5 197t-64 278.5t64 278.5t177.5 197t252.5 71.5q148 0 262 -90v65zM616 332q82 0 135.5 54t53.5 136t-53.5 136.5t-135.5 54.5q-81 0 -134.5 -54.5t-53.5 -136.5t53 -136t135 -54z" />
    <glyph glyph-name="aring" unicode="&#xe5;" 
d="M649 1114q-104 0 -175 68.5t-71 169.5t71 169t175 68t175 -68t71 -169t-71 -169.5t-175 -68.5zM649 1411q-25 0 -41 -16.5t-16 -42.5t16 -43t41 -17t41.5 17t16.5 43t-16.5 42.5t-41.5 16.5zM805 1044h369v-1044h-369v66q-115 -91 -262 -91q-139 0 -252.5 71.5
t-177.5 197t-64 278.5t64 278.5t177.5 197t252.5 71.5q148 0 262 -90v65zM616 332q82 0 135.5 54t53.5 136t-53.5 136.5t-135.5 54.5q-81 0 -134.5 -54.5t-53.5 -136.5t53 -136t135 -54z" />
    <glyph glyph-name="ae" unicode="&#xe6;" horiz-adv-x="1792" 
d="M1751 514q0 -60 -8 -96h-709q25 -62 77.5 -96.5t123.5 -34.5q66 0 121 27t90 63l242 -213q-86 -89 -206 -139t-257 -50q-218 0 -375 131q-135 -131 -377 -131q-200 0 -320 95t-120 243q0 139 107 227.5t280 88.5h237v14q0 60 -46.5 95.5t-123.5 35.5q-102 0 -182 -80
l-209 209q68 77 174 121.5t234 44.5q211 0 352 -115q147 115 342 115q237 0 395 -157.5t158 -397.5zM1194 758q-56 0 -99 -34t-65 -95h328q-20 61 -64 95t-100 34zM412 330q0 -40 37.5 -66t97.5 -26q90 0 162 55q-31 66 -41 125h-148q-46 0 -77 -25.5t-31 -62.5z" />
    <glyph glyph-name="ccedilla" unicode="&#xe7;" horiz-adv-x="1103" 
d="M610 332q54 0 98 26t68 70l320 -195q-56 -92 -146 -155t-202 -88l-41 -45q83 -14 136.5 -79.5t53.5 -154.5q0 -108 -80.5 -181t-204.5 -73q-150 0 -266 107l121 153q70 -63 139 -63q32 0 53 16t21 41q0 23 -18 39.5t-44 16.5q-35 0 -53 -25l-203 90l127 154
q-198 39 -322 186t-124 350q0 153 73.5 278.5t203.5 197t290 71.5q157 0 285 -69t201 -189l-320 -195q-24 44 -68 70.5t-98 26.5q-81 0 -134.5 -54.5t-53.5 -136.5t53 -136t135 -54z" />
    <glyph glyph-name="egrave" unicode="&#xe8;" horiz-adv-x="1198" 
d="M817 1135h-385l-274 323h458zM1157 514q0 -60 -8 -96h-709q25 -62 77.5 -96.5t123.5 -34.5q66 0 121 27t90 63l242 -213q-86 -89 -206 -139t-257 -50q-252 0 -420 158.5t-168 394.5q0 230 161 385.5t400 155.5q237 0 395 -157.5t158 -397.5zM600 758q-56 0 -99 -34
t-65 -95h328q-20 61 -64 95t-100 34z" />
    <glyph glyph-name="eacute" unicode="&#xe9;" horiz-adv-x="1198" 
d="M1063 1458l-275 -323h-385l201 323h459zM1157 514q0 -60 -8 -96h-709q25 -62 77.5 -96.5t123.5 -34.5q66 0 121 27t90 63l242 -213q-86 -89 -206 -139t-257 -50q-252 0 -420 158.5t-168 394.5q0 230 161 385.5t400 155.5q237 0 395 -157.5t158 -397.5zM600 758
q-56 0 -99 -34t-65 -95h328q-20 61 -64 95t-100 34z" />
    <glyph glyph-name="ecircumflex" unicode="&#xea;" horiz-adv-x="1198" 
d="M610 1257l-78 -122h-344l201 323h442l201 -323h-344zM1157 514q0 -60 -8 -96h-709q25 -62 77.5 -96.5t123.5 -34.5q66 0 121 27t90 63l242 -213q-86 -89 -206 -139t-257 -50q-252 0 -420 158.5t-168 394.5q0 230 161 385.5t400 155.5q237 0 395 -157.5t158 -397.5z
M600 758q-56 0 -99 -34t-65 -95h328q-20 61 -64 95t-100 34z" />
    <glyph glyph-name="edieresis" unicode="&#xeb;" horiz-adv-x="1198" 
d="M379 1116q-85 0 -142 56t-57 141q0 84 57 140t142 56t142 -56t57 -140q0 -85 -57 -141t-142 -56zM842 1116q-85 0 -142 56t-57 141q0 84 57 140t142 56t141.5 -55.5t56.5 -140.5t-56.5 -141t-141.5 -56zM1157 514q0 -60 -8 -96h-709q25 -62 77.5 -96.5t123.5 -34.5
q66 0 121 27t90 63l242 -213q-86 -89 -206 -139t-257 -50q-252 0 -420 158.5t-168 394.5q0 230 161 385.5t400 155.5q237 0 395 -157.5t158 -397.5zM600 758q-56 0 -99 -34t-65 -95h328q-20 61 -64 95t-100 34z" />
    <glyph glyph-name="igrave" unicode="&#xec;" horiz-adv-x="573" 
d="M109 1135l-275 323h459l201 -323h-385zM102 0v1044h369v-1044h-369z" />
    <glyph glyph-name="iacute" unicode="&#xed;" horiz-adv-x="573" 
d="M80 1135l201 323h458l-274 -323h-385zM102 0v1044h369v-1044h-369z" />
    <glyph glyph-name="icircumflex" unicode="&#xee;" horiz-adv-x="573" 
d="M287 1257l-78 -122h-344l201 323h442l201 -323h-344zM102 0v1044h369v-1044h-369z" />
    <glyph glyph-name="idieresis" unicode="&#xef;" horiz-adv-x="573" 
d="M55 1116q-85 0 -141.5 56t-56.5 141t56.5 140.5t141.5 55.5t142 -56t57 -140q0 -85 -57 -141t-142 -56zM518 1116q-85 0 -142 56t-57 141q0 84 57 140t142 56t142 -56t57 -140q0 -85 -57 -141t-142 -56zM102 0v1044h369v-1044h-369z" />
    <glyph glyph-name="eth" unicode="&#xf0;" horiz-adv-x="1138" 
d="M676 1337q194 -135 307 -349.5t113 -448.5q0 -136 -40 -244t-110.5 -177.5t-165 -106t-205.5 -36.5q-231 0 -381.5 144.5t-150.5 363.5q0 140 64 256.5t171.5 182t233.5 65.5q57 0 106 -14q-66 60 -145 100l-47 -61h-260l100 131q-47 8 -104 8v348q176 0 330 -63l49 63
h260zM569 332q63 0 105.5 42.5t42.5 106.5t-42.5 107t-105.5 43t-105 -43t-42 -107t42 -106.5t105 -42.5z" />
    <glyph glyph-name="ntilde" unicode="&#xf1;" horiz-adv-x="1220" 
d="M543 1200q-24 0 -39 -15.5t-15 -37.5h-256q0 152 67.5 248t195.5 96q47 0 88.5 -14.5t71.5 -28.5t49 -14q23 0 38 16t15 39h256q0 -155 -66.5 -249.5t-195.5 -94.5q-48 0 -90 13.5t-71.5 27.5t-47.5 14zM754 1069q173 0 279 -105t106 -278v-686h-369v561
q0 69 -38.5 110.5t-104.5 41.5q-69 0 -112.5 -43t-43.5 -113v-557h-369v1044h369v-77q117 102 283 102z" />
    <glyph glyph-name="ograve" unicode="&#xf2;" horiz-adv-x="1220" 
d="M432 1135l-274 323h458l201 -323h-385zM610 -25q-160 0 -290 71.5t-203.5 197t-73.5 278.5t73.5 278.5t203.5 197t290 71.5q243 0 405.5 -157t162.5 -390t-162.5 -390t-405.5 -157zM610 332q82 0 135.5 54t53.5 136t-53.5 136.5t-135.5 54.5q-81 0 -134.5 -54.5
t-53.5 -136.5t53 -136t135 -54z" />
    <glyph glyph-name="oacute" unicode="&#xf3;" horiz-adv-x="1220" 
d="M403 1135l201 323h459l-275 -323h-385zM610 -25q-160 0 -290 71.5t-203.5 197t-73.5 278.5t73.5 278.5t203.5 197t290 71.5q243 0 405.5 -157t162.5 -390t-162.5 -390t-405.5 -157zM610 332q82 0 135.5 54t53.5 136t-53.5 136.5t-135.5 54.5q-81 0 -134.5 -54.5
t-53.5 -136.5t53 -136t135 -54z" />
    <glyph glyph-name="ocircumflex" unicode="&#xf4;" horiz-adv-x="1220" 
d="M610 1257l-78 -122h-344l201 323h442l201 -323h-344zM610 1069q243 0 405.5 -157t162.5 -390t-162.5 -390t-405.5 -157q-160 0 -290 71.5t-203.5 197t-73.5 278.5t73.5 278.5t203.5 197t290 71.5zM610 332q82 0 135.5 54t53.5 136t-53.5 136.5t-135.5 54.5
q-81 0 -134.5 -54.5t-53.5 -136.5t53 -136t135 -54z" />
    <glyph glyph-name="otilde" unicode="&#xf5;" horiz-adv-x="1220" 
d="M737 1145q-63 0 -128 27.5t-81 27.5q-24 0 -38.5 -15.5t-14.5 -37.5h-256q0 152 67 248t195 96q47 0 88.5 -14.5t71.5 -28.5t49 -14q23 0 38 16t15 39h256q0 -155 -66.5 -249.5t-195.5 -94.5zM610 -25q-160 0 -290 71.5t-203.5 197t-73.5 278.5t73.5 278.5t203.5 197
t290 71.5q243 0 405.5 -157t162.5 -390t-162.5 -390t-405.5 -157zM610 332q82 0 135.5 54t53.5 136t-53.5 136.5t-135.5 54.5q-81 0 -134.5 -54.5t-53.5 -136.5t53 -136t135 -54z" />
    <glyph glyph-name="odieresis" unicode="&#xf6;" horiz-adv-x="1220" 
d="M379 1116q-85 0 -142 56t-57 141q0 84 57 140t142 56t142 -56t57 -140q0 -85 -57 -141t-142 -56zM842 1116q-85 0 -142 56t-57 141q0 84 57 140t142 56t141.5 -55.5t56.5 -140.5t-56.5 -141t-141.5 -56zM610 -25q-160 0 -290 71.5t-203.5 197t-73.5 278.5t73.5 278.5
t203.5 197t290 71.5q243 0 405.5 -157t162.5 -390t-162.5 -390t-405.5 -157zM610 332q82 0 135.5 54t53.5 136t-53.5 136.5t-135.5 54.5q-81 0 -134.5 -54.5t-53.5 -136.5t53 -136t135 -54z" />
    <glyph glyph-name="divide" unicode="&#xf7;" horiz-adv-x="1093" 
d="M547 815q-80 0 -134.5 53t-54.5 131t54.5 131.5t134.5 53.5q79 0 133.5 -53.5t54.5 -131.5t-54 -131t-134 -53zM106 455v303h881v-303h-881zM547 27q-80 0 -134.5 53t-54.5 131t54.5 131t134.5 53t134 -53t54 -131t-54 -131t-134 -53z" />
    <glyph glyph-name="oslash" unicode="&#xf8;" horiz-adv-x="1220" 
d="M1198 1044l-149 -167q129 -148 129 -355q0 -233 -162.5 -390t-405.5 -157q-159 0 -291 74l-43 -49h-256l150 170q-127 149 -127 352q0 153 73.5 278.5t203.5 197t290 71.5q157 0 291 -72l41 47h256zM422 522q0 -33 8 -57l217 244q-24 4 -37 4q-81 0 -134.5 -54.5
t-53.5 -136.5zM799 522q0 36 -8 60l-220 -246q24 -4 39 -4q82 0 135.5 54t53.5 136z" />
    <glyph glyph-name="ugrave" unicode="&#xf9;" horiz-adv-x="1175" 
d="M410 1135l-275 323h459l201 -323h-385zM588 -25q-229 0 -367.5 122t-138.5 323v624h369v-573q0 -63 37.5 -101t99.5 -38t99.5 38t37.5 101v573h369v-624q0 -201 -138.5 -323t-367.5 -122z" />
    <glyph glyph-name="uacute" unicode="&#xfa;" horiz-adv-x="1175" 
d="M381 1135l201 323h458l-274 -323h-385zM588 -25q-229 0 -367.5 122t-138.5 323v624h369v-573q0 -63 37.5 -101t99.5 -38t99.5 38t37.5 101v573h369v-624q0 -201 -138.5 -323t-367.5 -122z" />
    <glyph glyph-name="ucircumflex" unicode="&#xfb;" horiz-adv-x="1175" 
d="M588 1257l-78 -122h-344l201 323h442l201 -323h-344zM725 1044h369v-624q0 -201 -138.5 -323t-367.5 -122t-367.5 122t-138.5 323v624h369v-573q0 -63 37.5 -101t99.5 -38t99.5 38t37.5 101v573z" />
    <glyph glyph-name="udieresis" unicode="&#xfc;" horiz-adv-x="1175" 
d="M356 1116q-85 0 -141.5 56t-56.5 141t56.5 140.5t141.5 55.5t142 -56t57 -140q0 -85 -57 -141t-142 -56zM819 1116q-85 0 -141.5 56t-56.5 141t56.5 140.5t141.5 55.5t142 -56t57 -140q0 -85 -57 -141t-142 -56zM588 -25q-229 0 -367.5 122t-138.5 323v624h369v-573
q0 -63 37.5 -101t99.5 -38t99.5 38t37.5 101v573h369v-624q0 -201 -138.5 -323t-367.5 -122z" />
    <glyph glyph-name="yacute" unicode="&#xfd;" horiz-adv-x="1163" 
d="M1034 1458l-274 -323h-385l200 323h459zM764 1044h412l-461 -1183q-50 -125 -151.5 -200t-225.5 -75q-79 0 -165.5 30.5t-147.5 80.5l139 289q49 -43 112 -43q72 0 101 67l6 15l-395 1019h420l178 -552z" />
    <glyph glyph-name="thorn" unicode="&#xfe;" 
d="M733 1069q139 0 252.5 -71.5t177.5 -197t64 -278.5t-64 -278.5t-177.5 -197t-252.5 -71.5q-147 0 -262 91v-455h-369v1864h369v-496q114 90 262 90zM659 332q82 0 135.5 54t53.5 136t-53.5 136.5t-135.5 54.5q-81 0 -134.5 -54.5t-53.5 -136.5t53 -136t135 -54z" />
    <glyph glyph-name="ydieresis" unicode="&#xff;" horiz-adv-x="1163" 
d="M350 1116q-85 0 -141.5 56t-56.5 141t56.5 140.5t141.5 55.5t142 -56t57 -140q0 -85 -57 -141t-142 -56zM813 1116q-85 0 -142 56t-57 141q0 84 57 140t142 56t142 -56t57 -140q0 -85 -57 -141t-142 -56zM764 1044h412l-461 -1183q-50 -125 -151.5 -200t-225.5 -75
q-79 0 -165.5 30.5t-147.5 80.5l139 289q49 -43 112 -43q72 0 101 67l6 15l-395 1019h420l178 -552z" />
    <glyph glyph-name="Amacron" unicode="&#x100;" horiz-adv-x="1476" 
d="M1038 1823v-307h-602v307h602zM1049 0l-64 195h-502l-63 -195h-420l508 1413h461l508 -1413h-428zM598 555h272l-135 424z" />
    <glyph glyph-name="amacron" unicode="&#x101;" 
d="M950 1454v-307h-602v307h602zM805 1044h369v-1044h-369v66q-115 -91 -262 -91q-139 0 -252.5 71.5t-177.5 197t-64 278.5t64 278.5t177.5 197t252.5 71.5q148 0 262 -90v65zM616 332q82 0 135.5 54t53.5 136t-53.5 136.5t-135.5 54.5q-81 0 -134.5 -54.5t-53.5 -136.5
t53 -136t135 -54z" />
    <glyph glyph-name="Abreve" unicode="&#x102;" horiz-adv-x="1476" 
d="M737 1483q-158 0 -263 99.5t-105 248.5h282q0 -38 24.5 -63t61.5 -25t61.5 25t24.5 63h283q0 -149 -105.5 -248.5t-263.5 -99.5zM1049 0l-64 195h-502l-63 -195h-420l508 1413h461l508 -1413h-428zM598 555h272l-135 424z" />
    <glyph glyph-name="abreve" unicode="&#x103;" 
d="M649 1114q-158 0 -263 99.5t-105 248.5h282q0 -38 24.5 -63t61.5 -25t61.5 25t24.5 63h283q0 -149 -105.5 -248.5t-263.5 -99.5zM805 1044h369v-1044h-369v66q-115 -91 -262 -91q-139 0 -252.5 71.5t-177.5 197t-64 278.5t64 278.5t177.5 197t252.5 71.5q148 0 262 -90
v65zM616 332q82 0 135.5 54t53.5 136t-53.5 136.5t-135.5 54.5q-81 0 -134.5 -54.5t-53.5 -136.5t53 -136t135 -54z" />
    <glyph glyph-name="Aogonek" unicode="&#x104;" horiz-adv-x="1476" 
d="M1438 -236l80 -225q-95 -65 -236 -65q-138 0 -224.5 71.5t-86.5 180.5q0 88 57 162.5t148 111.5h-127l-64 195h-502l-63 -195h-420l508 1413h461l508 -1413h-2q-215 -91 -215 -190q0 -37 25 -55.5t58 -18.5q50 0 95 28zM598 555h272l-135 424z" />
    <glyph glyph-name="aogonek" unicode="&#x105;" 
d="M1135 -236l79 -225q-95 -65 -235 -65q-138 0 -224.5 71.5t-86.5 180.5q0 88 56.5 162.5t147.5 111.5h-67v66q-115 -91 -262 -91q-139 0 -252.5 71.5t-177.5 197t-64 278.5t64 278.5t177.5 197t252.5 71.5q148 0 262 -90v65h369v-1044h-3q-215 -91 -215 -190
q0 -37 25.5 -55.5t58.5 -18.5q50 0 95 28zM616 332q82 0 135.5 54t53.5 136t-53.5 136.5t-135.5 54.5q-81 0 -134.5 -54.5t-53.5 -136.5t53 -136t135 -54z" />
    <glyph glyph-name="Cacute" unicode="&#x106;" horiz-adv-x="1454" 
d="M596 1503l201 324h458l-274 -324h-385zM803 -25q-158 0 -297.5 56.5t-239.5 153.5t-157.5 232.5t-57.5 289.5q0 205 98 372.5t270.5 263t383.5 95.5q198 0 363 -85t266 -233l-338 -209q-48 70 -124 110t-167 40q-150 0 -250 -101t-100 -253t100.5 -253.5t249.5 -101.5
q91 0 167 40t124 110l338 -209q-101 -148 -266 -233t-363 -85z" />
    <glyph glyph-name="cacute" unicode="&#x107;" horiz-adv-x="1103" 
d="M403 1135l201 323h459l-275 -323h-385zM610 -25q-160 0 -290 71.5t-203.5 197t-73.5 278.5t73.5 278.5t203.5 197t290 71.5q157 0 285 -69t201 -189l-320 -195q-24 44 -68 70.5t-98 26.5q-81 0 -134.5 -54.5t-53.5 -136.5t53 -136t135 -54q54 0 98 26t68 70l320 -195
q-73 -120 -201 -189t-285 -69z" />
    <glyph glyph-name="Ccircumflex" unicode="&#x108;" horiz-adv-x="1454" 
d="M803 1626l-78 -123h-344l201 324h442l201 -324h-344zM803 352q91 0 167 40t124 110l338 -209q-101 -148 -266 -233t-363 -85q-158 0 -297.5 56.5t-239.5 153.5t-157.5 232.5t-57.5 289.5q0 205 98 372.5t270.5 263t383.5 95.5q198 0 363 -85t266 -233l-338 -209
q-48 70 -124 110t-167 40q-150 0 -250 -101t-100 -253t100.5 -253.5t249.5 -101.5z" />
    <glyph glyph-name="ccircumflex" unicode="&#x109;" horiz-adv-x="1103" 
d="M610 1257l-78 -122h-344l201 323h442l201 -323h-344zM610 332q54 0 98 26t68 70l320 -195q-73 -120 -201 -189t-285 -69q-160 0 -290 71.5t-203.5 197t-73.5 278.5t73.5 278.5t203.5 197t290 71.5q157 0 285 -69t201 -189l-320 -195q-24 44 -68 70.5t-98 26.5
q-81 0 -134.5 -54.5t-53.5 -136.5t53 -136t135 -54z" />
    <glyph glyph-name="Cdotaccent" unicode="&#x10a;" horiz-adv-x="1454" 
d="M803 1485q-89 0 -149 59t-60 148t59.5 147.5t149.5 58.5t149.5 -58.5t59.5 -147.5t-60 -148t-149 -59zM803 -25q-158 0 -297.5 56.5t-239.5 153.5t-157.5 232.5t-57.5 289.5q0 205 98 372.5t270.5 263t383.5 95.5q198 0 363 -85t266 -233l-338 -209q-48 70 -124 110
t-167 40q-150 0 -250 -101t-100 -253t100.5 -253.5t249.5 -101.5q91 0 167 40t124 110l338 -209q-101 -148 -266 -233t-363 -85z" />
    <glyph glyph-name="cdotaccent" unicode="&#x10b;" horiz-adv-x="1103" 
d="M610 1116q-89 0 -149 59t-60 148t60 148t149 59t149 -59t60 -148t-60 -148t-149 -59zM610 -25q-160 0 -290 71.5t-203.5 197t-73.5 278.5t73.5 278.5t203.5 197t290 71.5q157 0 285 -69t201 -189l-320 -195q-24 44 -68 70.5t-98 26.5q-81 0 -134.5 -54.5t-53.5 -136.5
t53 -136t135 -54q54 0 98 26t68 70l320 -195q-73 -120 -201 -189t-285 -69z" />
    <glyph glyph-name="Ccaron" unicode="&#x10c;" horiz-adv-x="1454" 
d="M1024 1503h-442l-201 324h344l78 -123l78 123h344zM803 352q91 0 167 40t124 110l338 -209q-101 -148 -266 -233t-363 -85q-158 0 -297.5 56.5t-239.5 153.5t-157.5 232.5t-57.5 289.5q0 205 98 372.5t270.5 263t383.5 95.5q198 0 363 -85t266 -233l-338 -209
q-48 70 -124 110t-167 40q-150 0 -250 -101t-100 -253t100.5 -253.5t249.5 -101.5z" />
    <glyph glyph-name="ccaron" unicode="&#x10d;" horiz-adv-x="1103" 
d="M831 1135h-442l-201 323h344l78 -123l78 123h344zM610 332q54 0 98 26t68 70l320 -195q-73 -120 -201 -189t-285 -69q-160 0 -290 71.5t-203.5 197t-73.5 278.5t73.5 278.5t203.5 197t290 71.5q157 0 285 -69t201 -189l-320 -195q-24 44 -68 70.5t-98 26.5
q-81 0 -134.5 -54.5t-53.5 -136.5t53 -136t135 -54z" />
    <glyph glyph-name="Dcaron" unicode="&#x10e;" horiz-adv-x="1458" 
d="M936 1503h-442l-201 324h344l78 -123l78 123h344zM680 1413q205 0 371.5 -92t261 -253.5t94.5 -360.5t-94.5 -361t-261 -254t-371.5 -92h-563v1413h563zM672 369q143 0 238.5 96.5t95.5 241.5t-95.5 241t-238.5 96h-164v-675h164z" />
    <glyph glyph-name="dcaron" unicode="&#x10f;" horiz-adv-x="1529" 
d="M799 969v506h368v-1475h-368v76q-112 -101 -262 -101q-139 0 -252.5 71.5t-177.5 197t-64 278.5t64 278.5t177.5 197t252.5 71.5q151 0 262 -100zM1298 1475h330l-96 -504h-277zM610 332q82 0 135.5 54t53.5 136t-53.5 136.5t-135.5 54.5q-81 0 -134.5 -54.5
t-53.5 -136.5t53 -136t135 -54z" />
    <glyph glyph-name="Dcroat" unicode="&#x110;" horiz-adv-x="1458" 
d="M680 1413q205 0 371.5 -92t261 -253.5t94.5 -360.5t-94.5 -361t-261 -254t-371.5 -92h-563v575h-117v263h117v575h563zM672 369q143 0 238.5 96.5t95.5 241.5t-95.5 241t-238.5 96h-164v-206h156v-263h-156v-206h164z" />
    <glyph glyph-name="dcroat" unicode="&#x111;" 
d="M1280 1376v-262h-106v-1114h-369v66q-115 -91 -262 -91q-139 0 -252.5 71.5t-177.5 197t-64 278.5t64 278.5t177.5 197t252.5 71.5q148 0 262 -90v135h-189v262h189v99h369v-99h106zM616 332q82 0 135.5 54t53.5 136t-53.5 136.5t-135.5 54.5q-81 0 -134.5 -54.5
t-53.5 -136.5t53 -136t135 -54z" />
    <glyph glyph-name="Emacron" unicode="&#x112;" horiz-adv-x="1173" 
d="M911 1823v-307h-602v307h602zM508 369h596v-369h-987v1413h977v-369h-586v-149h520v-369h-520v-157z" />
    <glyph glyph-name="emacron" unicode="&#x113;" horiz-adv-x="1198" 
d="M911 1454v-307h-602v307h602zM1157 514q0 -60 -8 -96h-709q25 -62 77.5 -96.5t123.5 -34.5q66 0 121 27t90 63l242 -213q-86 -89 -206 -139t-257 -50q-252 0 -420 158.5t-168 394.5q0 230 161 385.5t400 155.5q237 0 395 -157.5t158 -397.5zM600 758q-56 0 -99 -34
t-65 -95h328q-20 61 -64 95t-100 34z" />
    <glyph glyph-name="Ebreve" unicode="&#x114;" horiz-adv-x="1173" 
d="M610 1483q-158 0 -263 99.5t-105 248.5h282q0 -38 24.5 -63t61.5 -25t61.5 25t24.5 63h283q0 -149 -105.5 -248.5t-263.5 -99.5zM508 369h596v-369h-987v1413h977v-369h-586v-149h520v-369h-520v-157z" />
    <glyph glyph-name="ebreve" unicode="&#x115;" horiz-adv-x="1198" 
d="M610 1114q-158 0 -263 99.5t-105 248.5h282q0 -38 24.5 -63t61.5 -25t61.5 25t24.5 63h283q0 -149 -105.5 -248.5t-263.5 -99.5zM1157 514q0 -60 -8 -96h-709q25 -62 77.5 -96.5t123.5 -34.5q66 0 121 27t90 63l242 -213q-86 -89 -206 -139t-257 -50q-252 0 -420 158.5
t-168 394.5q0 230 161 385.5t400 155.5q237 0 395 -157.5t158 -397.5zM600 758q-56 0 -99 -34t-65 -95h328q-20 61 -64 95t-100 34z" />
    <glyph glyph-name="Edotaccent" unicode="&#x116;" horiz-adv-x="1173" 
d="M610 1485q-89 0 -149 59t-60 148t59.5 147.5t149.5 58.5t149.5 -58.5t59.5 -147.5t-60 -148t-149 -59zM508 369h596v-369h-987v1413h977v-369h-586v-149h520v-369h-520v-157z" />
    <glyph glyph-name="edotaccent" unicode="&#x117;" horiz-adv-x="1198" 
d="M610 1116q-89 0 -149 59t-60 148t60 148t149 59t149 -59t60 -148t-60 -148t-149 -59zM1157 514q0 -60 -8 -96h-709q25 -62 77.5 -96.5t123.5 -34.5q66 0 121 27t90 63l242 -213q-86 -89 -206 -139t-257 -50q-252 0 -420 158.5t-168 394.5q0 230 161 385.5t400 155.5
q237 0 395 -157.5t158 -397.5zM600 758q-56 0 -99 -34t-65 -95h328q-20 61 -64 95t-100 34z" />
    <glyph glyph-name="Eogonek" unicode="&#x118;" horiz-adv-x="1173" 
d="M1057 -236l80 -225q-95 -65 -236 -65q-138 0 -224.5 71.5t-86.5 180.5q0 88 57 162.5t148 111.5h-678v1413h977v-369h-586v-149h520v-369h-520v-157h596v-369h-10q-215 -91 -215 -190q0 -37 25.5 -55.5t58.5 -18.5q49 0 94 28z" />
    <glyph glyph-name="eogonek" unicode="&#x119;" horiz-adv-x="1198" 
d="M1157 514q0 -60 -8 -96h-709q25 -62 77.5 -96.5t123.5 -34.5q66 0 121 27t90 63l242 -213q-78 -81 -187 -131q-149 -101 -149 -209q0 -41 23.5 -63.5t60.5 -22.5q40 0 84 29l80 -226q-106 -69 -244 -69q-132 0 -217.5 75t-85.5 197q0 131 98 236q-225 23 -369.5 176
t-144.5 372q0 230 161 385.5t400 155.5q237 0 395 -157.5t158 -397.5zM600 758q-56 0 -99 -34t-65 -95h328q-20 61 -64 95t-100 34z" />
    <glyph glyph-name="Ecaron" unicode="&#x11a;" horiz-adv-x="1173" 
d="M831 1503h-442l-201 324h344l78 -123l78 123h344zM508 369h596v-369h-987v1413h977v-369h-586v-149h520v-369h-520v-157z" />
    <glyph glyph-name="ecaron" unicode="&#x11b;" horiz-adv-x="1198" 
d="M831 1135h-442l-201 323h344l78 -123l78 123h344zM1157 514q0 -60 -8 -96h-709q25 -62 77.5 -96.5t123.5 -34.5q66 0 121 27t90 63l242 -213q-86 -89 -206 -139t-257 -50q-252 0 -420 158.5t-168 394.5q0 230 161 385.5t400 155.5q237 0 395 -157.5t158 -397.5zM600 758
q-56 0 -99 -34t-65 -95h328q-20 61 -64 95t-100 34z" />
    <glyph glyph-name="Gcircumflex" unicode="&#x11c;" horiz-adv-x="1554" 
d="M803 1626l-78 -123h-344l201 324h442l201 -324h-344zM811 842h702v-135q0 -156 -54 -292t-148 -232.5t-228 -152t-288 -55.5q-157 0 -295 56.5t-236.5 153.5t-155.5 232.5t-57 289.5q0 205 98 372.5t270.5 263t383.5 95.5q180 0 333.5 -68.5t247.5 -189.5l-294 -236
q-50 57 -123 89t-156 32q-153 0 -255.5 -102.5t-102.5 -255.5q0 -154 102 -256.5t254 -102.5q91 0 163 39.5t111 106.5h-272v348z" />
    <glyph glyph-name="gcircumflex" unicode="&#x11d;" horiz-adv-x="1159" 
d="M770 33q165 0 277 -89.5t149 -250.5l-379 -107q-8 41 -40 65.5t-79 24.5h-292q-162 0 -261.5 87t-99.5 227q0 90 41 169.5t111 121.5q-136 133 -136 323q0 199 144.5 332t361.5 133q107 0 197 -35q17 56 59 101h-186l-78 122l-78 -122h-344l201 323h442l156 -252
q58 21 129 21h92v-340h-74q-61 0 -79 -41q69 -107 69 -242q0 -199 -145 -332t-361 -133q-44 0 -108 11q-45 -25 -45 -66q0 -23 18 -37t47 -14h291zM567 721q-55 0 -91 -33t-36 -84t36 -84t91 -33q54 0 90.5 33t36.5 84t-36.5 84t-90.5 33z" />
    <glyph glyph-name="Gbreve" unicode="&#x11e;" horiz-adv-x="1554" 
d="M803 1483q-158 0 -263.5 99.5t-105.5 248.5h283q0 -38 24.5 -63t61.5 -25t61.5 25t24.5 63h282q0 -149 -105 -248.5t-263 -99.5zM811 842h702v-135q0 -156 -54 -292t-148 -232.5t-228 -152t-288 -55.5q-157 0 -295 56.5t-236.5 153.5t-155.5 232.5t-57 289.5
q0 205 98 372.5t270.5 263t383.5 95.5q180 0 333.5 -68.5t247.5 -189.5l-294 -236q-50 57 -123 89t-156 32q-153 0 -255.5 -102.5t-102.5 -255.5q0 -154 102 -256.5t254 -102.5q91 0 163 39.5t111 106.5h-272v348z" />
    <glyph glyph-name="gbreve" unicode="&#x11f;" horiz-adv-x="1159" 
d="M559 1114q-158 0 -263.5 99.5t-105.5 248.5h283q0 -38 24.5 -63t61.5 -25t61.5 25t24.5 63h283q0 -149 -105.5 -248.5t-263.5 -99.5zM770 33q165 0 277 -89.5t149 -250.5l-379 -107q-8 41 -40 65.5t-79 24.5h-292q-162 0 -261.5 87t-99.5 227q0 90 41 169.5t111 121.5
q-136 133 -136 323q0 199 144.5 332t361.5 133q107 0 197 -35q28 90 108 141.5t193 51.5h92v-340h-74q-61 0 -79 -41q69 -107 69 -242q0 -199 -145 -332t-361 -133q-44 0 -108 11q-45 -25 -45 -66q0 -23 18 -37t47 -14h291zM567 721q-55 0 -91 -33t-36 -84t36 -84t91 -33
q54 0 90.5 33t36.5 84t-36.5 84t-90.5 33z" />
    <glyph glyph-name="Gdotaccent" unicode="&#x120;" horiz-adv-x="1554" 
d="M803 1485q-89 0 -149 59t-60 148t59.5 147.5t149.5 58.5t149.5 -58.5t59.5 -147.5t-60 -148t-149 -59zM811 842h702v-135q0 -156 -54 -292t-148 -232.5t-228 -152t-288 -55.5q-157 0 -295 56.5t-236.5 153.5t-155.5 232.5t-57 289.5q0 205 98 372.5t270.5 263t383.5 95.5
q180 0 333.5 -68.5t247.5 -189.5l-294 -236q-50 57 -123 89t-156 32q-153 0 -255.5 -102.5t-102.5 -255.5q0 -154 102 -256.5t254 -102.5q91 0 163 39.5t111 106.5h-272v348z" />
    <glyph glyph-name="gdotaccent" unicode="&#x121;" horiz-adv-x="1159" 
d="M559 1116q-89 0 -149 59t-60 148t60 148t149 59t149 -59t60 -148t-60 -148t-149 -59zM770 33q165 0 277 -89.5t149 -250.5l-379 -107q-8 41 -40 65.5t-79 24.5h-292q-162 0 -261.5 87t-99.5 227q0 90 41 169.5t111 121.5q-136 133 -136 323q0 199 144.5 332t361.5 133
q107 0 197 -35q28 90 108 141.5t193 51.5h92v-340h-74q-61 0 -79 -41q69 -107 69 -242q0 -199 -145 -332t-361 -133q-44 0 -108 11q-45 -25 -45 -66q0 -23 18 -37t47 -14h291zM567 721q-55 0 -91 -33t-36 -84t36 -84t91 -33q54 0 90.5 33t36.5 84t-36.5 84t-90.5 33z" />
    <glyph glyph-name="uni0122" unicode="&#x122;" horiz-adv-x="1554" 
d="M811 842h702v-135q0 -156 -54 -292t-148 -232.5t-228 -152t-288 -55.5q-157 0 -295 56.5t-236.5 153.5t-155.5 232.5t-57 289.5q0 205 98 372.5t270.5 263t383.5 95.5q180 0 333.5 -68.5t247.5 -189.5l-294 -236q-50 57 -123 89t-156 32q-153 0 -255.5 -102.5
t-102.5 -255.5q0 -154 102 -256.5t254 -102.5q91 0 163 39.5t111 106.5h-272v348zM551 -475l98 385h377l-172 -385h-303z" />
    <glyph glyph-name="uni0123" unicode="&#x123;" horiz-adv-x="1159" 
d="M797 1520l-99 -385h-376l172 385h303zM770 33q165 0 277 -89.5t149 -250.5l-379 -107q-8 41 -40 65.5t-79 24.5h-292q-162 0 -261.5 87t-99.5 227q0 90 41 169.5t111 121.5q-136 133 -136 323q0 199 144.5 332t361.5 133q107 0 197 -35q28 90 108 141.5t193 51.5h92v-340
h-74q-61 0 -79 -41q69 -107 69 -242q0 -199 -145 -332t-361 -133q-44 0 -108 11q-45 -25 -45 -66q0 -23 18 -37t47 -14h291zM567 721q-55 0 -91 -33t-36 -84t36 -84t91 -33q54 0 90.5 33t36.5 84t-36.5 84t-90.5 33z" />
    <glyph glyph-name="Hcircumflex" unicode="&#x124;" horiz-adv-x="1458" 
d="M731 1626l-78 -123h-344l201 324h442l201 -324h-344zM950 1413h391v-1413h-391v526h-442v-526h-391v1413h391v-518h442v518z" />
    <glyph glyph-name="hcircumflex" unicode="&#x125;" horiz-adv-x="1220" 
d="M287 1667l-78 -123h-344l201 324h442l201 -324h-344zM754 1069q173 0 279 -105t106 -278v-686h-369v561q0 69 -38.5 110.5t-102.5 41.5q-71 0 -114.5 -43t-43.5 -113v-557h-369v1475h369v-517q117 111 283 111z" />
    <glyph glyph-name="Hbar" unicode="&#x126;" horiz-adv-x="1458" 
d="M1450 1257v-266h-109v-991h-391v526h-442v-526h-391v991h-109v266h109v156h391v-156h442v156h391v-156h109zM950 895v96h-442v-96h442z" />
    <glyph glyph-name="hbar" unicode="&#x127;" horiz-adv-x="1220" 
d="M754 1069q173 0 279 -105t106 -278v-686h-369v561q0 69 -38.5 110.5t-102.5 41.5q-71 0 -114.5 -43t-43.5 -113v-557h-369v1114h-106v262h106v99h369v-99h188v-262h-188v-156q117 111 283 111z" />
    <glyph glyph-name="Itilde" unicode="&#x128;" horiz-adv-x="624" 
d="M440 1513q-48 0 -90 14t-71.5 28t-47.5 14q-24 0 -38.5 -15.5t-14.5 -37.5h-256q0 152 67 248t195 96q47 0 88.5 -14.5t71.5 -29t49 -14.5q23 0 38 16t15 40h256q0 -155 -66.5 -250t-195.5 -95zM117 0v1413h391v-1413h-391z" />
    <glyph glyph-name="itilde" unicode="&#x129;" horiz-adv-x="573" 
d="M414 1145q-48 0 -90 13.5t-71.5 27.5t-47.5 14q-24 0 -38.5 -15.5t-14.5 -37.5h-256q0 152 67 248t195 96q47 0 88.5 -14.5t71.5 -28.5t49 -14q23 0 38 16t15 39h256q0 -155 -66.5 -249.5t-195.5 -94.5zM102 0v1044h369v-1044h-369z" />
    <glyph glyph-name="Imacron" unicode="&#x12a;" horiz-adv-x="624" 
d="M12 1516v307h602v-307h-602zM117 0v1413h391v-1413h-391z" />
    <glyph glyph-name="imacron" unicode="&#x12b;" horiz-adv-x="573" 
d="M-14 1147v307h602v-307h-602zM102 0v1044h369v-1044h-369z" />
    <glyph glyph-name="Ibreve" unicode="&#x12c;" horiz-adv-x="624" 
d="M313 1483q-158 0 -263 99.5t-105 248.5h282q0 -38 24.5 -63t61.5 -25t61.5 25t24.5 63h283q0 -149 -105.5 -248.5t-263.5 -99.5zM117 0v1413h391v-1413h-391z" />
    <glyph glyph-name="ibreve" unicode="&#x12d;" horiz-adv-x="573" 
d="M287 1114q-158 0 -263.5 99.5t-105.5 248.5h283q0 -38 24.5 -63t61.5 -25t61.5 25t24.5 63h282q0 -149 -105 -248.5t-263 -99.5zM102 0v1044h369v-1044h-369z" />
    <glyph glyph-name="Iogonek" unicode="&#x12e;" horiz-adv-x="624" 
d="M469 -236l80 -225q-95 -65 -236 -65q-138 0 -224.5 71.5t-86.5 180.5q0 88 57 162.5t148 111.5h-90v1413h391v-1413h-2q-215 -91 -215 -190q0 -37 25.5 -55.5t58.5 -18.5q49 0 94 28z" />
    <glyph glyph-name="iogonek" unicode="&#x12f;" horiz-adv-x="573" 
d="M287 1116q-89 0 -149 59t-60 148t60 148t149 59t149 -59t60 -148t-60 -148t-149 -59zM432 -236l80 -225q-95 -65 -236 -65q-138 0 -224.5 71.5t-86.5 180.5q0 88 57 162.5t148 111.5h-68v1044h369v-1044h-2q-215 -91 -215 -190q0 -37 25.5 -55.5t58.5 -18.5q49 0 94 28z
" />
    <glyph glyph-name="Idotaccent" unicode="&#x130;" horiz-adv-x="624" 
d="M313 1485q-89 0 -149 59t-60 148t59.5 147.5t149.5 58.5t149.5 -58.5t59.5 -147.5t-60 -148t-149 -59zM117 0v1413h391v-1413h-391z" />
    <glyph glyph-name="dotlessi" unicode="&#x131;" horiz-adv-x="573" 
d="M102 0v1044h369v-1044h-369z" />
    <glyph glyph-name="IJ" unicode="&#x132;" horiz-adv-x="1517" 
d="M117 0v1413h391v-1413h-391zM887 -25q-128 0 -215 35v371q92 -29 172 -29q186 0 186 160v901h391v-921q0 -245 -144.5 -381t-389.5 -136z" />
    <glyph glyph-name="ij" unicode="&#x133;" horiz-adv-x="1155" 
d="M287 1135q-96 0 -160 63t-64 158t64 158t160 63q95 0 159 -63t64 -158t-64 -158t-159 -63zM868 1135q-95 0 -159 63t-64 158t64 158t159 63q96 0 160 -63t64 -158t-64 -158t-160 -63zM102 0v1044h369v-1044h-369zM672 -414q-86 0 -156 25v330q49 -19 86 -19
q41 0 61.5 20.5t20.5 55.5v1046h369v-1089q0 -166 -94.5 -267.5t-286.5 -101.5z" />
    <glyph glyph-name="Jcircumflex" unicode="&#x134;" horiz-adv-x="892" 
d="M600 1626l-78 -123h-344l201 324h442l201 -324h-344zM406 512v901h391v-921q0 -245 -145 -381t-390 -136q-128 0 -215 35v371q92 -29 172 -29q187 0 187 160z" />
    <glyph glyph-name="jcircumflex" unicode="&#x135;" horiz-adv-x="581" 
d="M295 1257l-78 -122h-344l201 323h442l201 -323h-344zM111 -2v1046h368v-1089q0 -166 -94.5 -267.5t-286.5 -101.5q-85 0 -155 25v330q49 -19 86 -19q41 0 61.5 20.5t20.5 55.5z" />
    <glyph glyph-name="uni0136" unicode="&#x136;" horiz-adv-x="1413" 
d="M846 737l608 -737h-506l-348 451l-92 -109v-342h-391v1413h391v-534l418 534h495zM473 -475l98 385h377l-172 -385h-303z" />
    <glyph glyph-name="uni0137" unicode="&#x137;" horiz-adv-x="1177" 
d="M471 240v-240h-369v1475h369v-734l256 303h475l-428 -471l443 -573h-484l-219 289zM354 -475l99 385h376l-172 -385h-303z" />
    <glyph glyph-name="Lacute" unicode="&#x139;" horiz-adv-x="1077" 
d="M766 1827l-274 -324h-386l201 324h459zM508 369h534v-369h-925v1413h391v-1044z" />
    <glyph glyph-name="lacute" unicode="&#x13a;" horiz-adv-x="573" 
d="M80 1544l201 324h458l-274 -324h-385zM102 0v1475h369v-1475h-369z" />
    <glyph glyph-name="uni013B" unicode="&#x13b;" horiz-adv-x="1077" 
d="M508 369h534v-369h-925v1413h391v-1044zM309 -475l99 385h376l-172 -385h-303z" />
    <glyph glyph-name="uni013C" unicode="&#x13c;" horiz-adv-x="573" 
d="M102 0v1475h369v-1475h-369zM35 -475l98 385h377l-172 -385h-303z" />
    <glyph glyph-name="Lcaron" unicode="&#x13d;" horiz-adv-x="1077" 
d="M508 369h534v-369h-925v1413h391v-1044zM977 1413l-96 -504h-277l43 504h330z" />
    <glyph glyph-name="lcaron" unicode="&#x13e;" horiz-adv-x="833" 
d="M102 0v1475h369v-1475h-369zM559 971l43 504h330l-96 -504h-277z" />
    <glyph glyph-name="Ldot" unicode="&#x13f;" horiz-adv-x="1077" 
d="M508 369h534v-369h-925v1413h391v-1044zM799 528q-94 0 -156.5 63t-62.5 157t62.5 156.5t156.5 62.5t156.5 -62.5t62.5 -156.5t-62.5 -157t-156.5 -63z" />
    <glyph glyph-name="ldot" unicode="&#x140;" horiz-adv-x="1003" 
d="M102 0v1475h369v-1475h-369zM764 518q-94 0 -156.5 62.5t-62.5 156.5t62.5 156.5t156.5 62.5t156.5 -62.5t62.5 -156.5t-62.5 -156.5t-156.5 -62.5z" />
    <glyph glyph-name="Lslash" unicode="&#x141;" horiz-adv-x="1077" 
d="M508 369h534v-369h-925v422l-107 -55v352l107 55v639h391v-440l190 98v-352l-190 -98v-252z" />
    <glyph glyph-name="lslash" unicode="&#x142;" horiz-adv-x="708" 
d="M678 1079v-331l-139 -76v-672h-369v471l-139 -76v332l139 76v672h369v-471z" />
    <glyph glyph-name="Nacute" unicode="&#x143;" horiz-adv-x="1482" 
d="M1204 1827l-274 -324h-385l200 324h459zM975 1413h391v-1413h-391l-467 723v-723h-391v1413h391l467 -723v723z" />
    <glyph glyph-name="nacute" unicode="&#x144;" horiz-adv-x="1220" 
d="M1077 1458l-274 -323h-385l200 323h459zM754 1069q173 0 279 -105t106 -278v-686h-369v561q0 69 -38.5 110.5t-104.5 41.5q-69 0 -112.5 -43t-43.5 -113v-557h-369v1044h369v-77q117 102 283 102z" />
    <glyph glyph-name="uni0145" unicode="&#x145;" horiz-adv-x="1482" 
d="M975 1413h391v-1413h-391l-467 723v-723h-391v1413h391l467 -723v723zM489 -475l99 385h377l-172 -385h-304z" />
    <glyph glyph-name="uni0146" unicode="&#x146;" horiz-adv-x="1220" 
d="M754 1069q173 0 279 -105t106 -278v-686h-369v561q0 69 -38.5 110.5t-104.5 41.5q-69 0 -112.5 -43t-43.5 -113v-557h-369v1044h369v-77q117 102 283 102zM369 -475l98 385h377l-172 -385h-303z" />
    <glyph glyph-name="Ncaron" unicode="&#x147;" horiz-adv-x="1482" 
d="M973 1503h-443l-200 324h344l78 -123l77 123h345zM975 1413h391v-1413h-391l-467 723v-723h-391v1413h391l467 -723v723z" />
    <glyph glyph-name="ncaron" unicode="&#x148;" horiz-adv-x="1220" 
d="M846 1135h-443l-200 323h344l78 -123l77 123h345zM754 1069q173 0 279 -105t106 -278v-686h-369v561q0 69 -38.5 110.5t-104.5 41.5q-69 0 -112.5 -43t-43.5 -113v-557h-369v1044h369v-77q117 102 283 102z" />
    <glyph glyph-name="Eng" unicode="&#x14a;" horiz-adv-x="1482" 
d="M975 1413h391v-1433q0 -208 -123 -311t-377 -103v356q109 0 109 70v8l-467 723v-723h-391v1413h391l467 -723v723z" />
    <glyph glyph-name="eng" unicode="&#x14b;" horiz-adv-x="1220" 
d="M754 1069q173 0 279 -105t106 -278v-706q0 -414 -467 -414v356q98 0 98 70v569q0 69 -38.5 110.5t-102.5 41.5q-71 0 -114.5 -43t-43.5 -113v-557h-369v1044h369v-77q117 102 283 102z" />
    <glyph glyph-name="Omacron" unicode="&#x14c;" horiz-adv-x="1605" 
d="M502 1516v307h602v-307h-602zM803 -25q-158 0 -297.5 56.5t-239.5 153.5t-157.5 232.5t-57.5 289.5q0 205 98 372.5t270.5 263t383.5 95.5t383 -95.5t270 -263t98 -372.5t-98 -373t-270 -263.5t-383 -95.5zM803 352q149 0 249.5 101.5t100.5 253.5t-100 253t-250 101
t-250 -101t-100 -253t100.5 -253.5t249.5 -101.5z" />
    <glyph glyph-name="omacron" unicode="&#x14d;" horiz-adv-x="1220" 
d="M309 1147v307h602v-307h-602zM610 -25q-160 0 -290 71.5t-203.5 197t-73.5 278.5t73.5 278.5t203.5 197t290 71.5q243 0 405.5 -157t162.5 -390t-162.5 -390t-405.5 -157zM610 332q82 0 135.5 54t53.5 136t-53.5 136.5t-135.5 54.5q-81 0 -134.5 -54.5t-53.5 -136.5
t53 -136t135 -54z" />
    <glyph glyph-name="Obreve" unicode="&#x14e;" horiz-adv-x="1605" 
d="M803 1483q-158 0 -263.5 99.5t-105.5 248.5h283q0 -38 24.5 -63t61.5 -25t61.5 25t24.5 63h282q0 -149 -105 -248.5t-263 -99.5zM803 -25q-158 0 -297.5 56.5t-239.5 153.5t-157.5 232.5t-57.5 289.5q0 205 98 372.5t270.5 263t383.5 95.5t383 -95.5t270 -263t98 -372.5
t-98 -373t-270 -263.5t-383 -95.5zM803 352q149 0 249.5 101.5t100.5 253.5t-100 253t-250 101t-250 -101t-100 -253t100.5 -253.5t249.5 -101.5z" />
    <glyph glyph-name="obreve" unicode="&#x14f;" horiz-adv-x="1220" 
d="M610 1114q-158 0 -263 99.5t-105 248.5h282q0 -38 24.5 -63t61.5 -25t61.5 25t24.5 63h283q0 -149 -105.5 -248.5t-263.5 -99.5zM610 -25q-160 0 -290 71.5t-203.5 197t-73.5 278.5t73.5 278.5t203.5 197t290 71.5q243 0 405.5 -157t162.5 -390t-162.5 -390t-405.5 -157z
M610 332q82 0 135.5 54t53.5 136t-53.5 136.5t-135.5 54.5q-81 0 -134.5 -54.5t-53.5 -136.5t53 -136t135 -54z" />
    <glyph glyph-name="Ohungarumlaut" unicode="&#x150;" horiz-adv-x="1605" 
d="M371 1503l180 324h397l-223 -324h-354zM862 1503l180 324h398l-223 -324h-355zM803 -25q-158 0 -297.5 56.5t-239.5 153.5t-157.5 232.5t-57.5 289.5q0 205 98 372.5t270.5 263t383.5 95.5t383 -95.5t270 -263t98 -372.5t-98 -373t-270 -263.5t-383 -95.5zM803 352
q149 0 249.5 101.5t100.5 253.5t-100 253t-250 101t-250 -101t-100 -253t100.5 -253.5t249.5 -101.5z" />
    <glyph glyph-name="ohungarumlaut" unicode="&#x151;" horiz-adv-x="1220" 
d="M178 1135l180 323h398l-224 -323h-354zM670 1135l180 323h397l-223 -323h-354zM610 -25q-160 0 -290 71.5t-203.5 197t-73.5 278.5t73.5 278.5t203.5 197t290 71.5q243 0 405.5 -157t162.5 -390t-162.5 -390t-405.5 -157zM610 332q82 0 135.5 54t53.5 136t-53.5 136.5
t-135.5 54.5q-81 0 -134.5 -54.5t-53.5 -136.5t53 -136t135 -54z" />
    <glyph glyph-name="OE" unicode="&#x152;" horiz-adv-x="1812" 
d="M1229 369h514v-369h-965q-205 0 -371.5 92t-261 254t-94.5 361t94.5 360.5t261 253.5t371.5 92h955v-369h-504v-149h438v-369h-438v-157zM786 369h52v675h-52q-143 0 -238 -96t-95 -241t95 -241.5t238 -96.5z" />
    <glyph glyph-name="oe" unicode="&#x153;" horiz-adv-x="1953" 
d="M1913 514q0 -60 -8 -96h-709q25 -62 77.5 -96.5t123.5 -34.5q66 0 121 27t90 63l241 -213q-81 -89 -193.5 -139t-240.5 -50q-127 0 -236.5 48.5t-185.5 136.5q-72 -88 -175 -136.5t-226 -48.5q-152 0 -277.5 71.5t-198.5 197t-73 278.5t73 278.5t198.5 197t277.5 71.5
q121 0 223.5 -47t173.5 -133q71 86 174.5 133t225.5 47q148 0 267.5 -71t188 -198.5t68.5 -285.5zM1356 758q-56 0 -99 -34t-65 -95h328q-20 61 -64 95t-100 34zM610 332q82 0 135.5 54t53.5 136t-53.5 136.5t-135.5 54.5q-81 0 -134.5 -54.5t-53.5 -136.5t53 -136t135 -54z
" />
    <glyph glyph-name="Racute" unicode="&#x154;" horiz-adv-x="1325" 
d="M1116 1827l-274 -324h-385l200 324h459zM848 0l-217 438h-123v-438h-391v1413h635q223 0 372.5 -142.5t149.5 -355.5q0 -132 -64.5 -239t-175.5 -170l283 -506h-469zM508 1044v-266h235q55 0 92 38t37 95t-37 95t-92 38h-235z" />
    <glyph glyph-name="racute" unicode="&#x155;" horiz-adv-x="780" 
d="M885 1458l-275 -323h-385l201 323h459zM471 956q105 105 240 105h51v-379h-51q-118 0 -179 -57t-61 -158v-467h-369v1044h369v-88z" />
    <glyph glyph-name="uni0156" unicode="&#x156;" horiz-adv-x="1325" 
d="M508 438v-438h-391v1413h635q223 0 372.5 -142.5t149.5 -355.5q0 -132 -64.5 -239t-175.5 -170l283 -506h-469l-217 438h-123zM743 1044h-235v-266h235q55 0 92 38t37 95t-37 95t-92 38zM412 -475l98 385h377l-172 -385h-303z" />
    <glyph glyph-name="uni0157" unicode="&#x157;" horiz-adv-x="780" 
d="M711 1061h51v-379h-51q-118 0 -179 -57t-61 -158v-467h-369v1044h369v-88q105 105 240 105zM35 -475l98 385h377l-172 -385h-303z" />
    <glyph glyph-name="Rcaron" unicode="&#x158;" horiz-adv-x="1325" 
d="M885 1503h-443l-200 324h344l78 -123l77 123h344zM848 0l-217 438h-123v-438h-391v1413h635q223 0 372.5 -142.5t149.5 -355.5q0 -132 -64.5 -239t-175.5 -170l283 -506h-469zM508 1044v-266h235q55 0 92 38t37 95t-37 95t-92 38h-235z" />
    <glyph glyph-name="rcaron" unicode="&#x159;" horiz-adv-x="780" 
d="M653 1135h-442l-201 323h344l78 -123l78 123h344zM471 956q105 105 240 105h51v-379h-51q-118 0 -179 -57t-61 -158v-467h-369v1044h369v-88z" />
    <glyph glyph-name="Sacute" unicode="&#x15a;" horiz-adv-x="1249" 
d="M436 1503l201 324h459l-275 -324h-385zM647 -25q-166 0 -336 61t-288 161l198 299q91 -78 207 -125t217 -47q74 0 126 24t52 64q0 37 -52 60t-185 56q-504 125 -504 471q0 198 155.5 318.5t413.5 120.5q161 0 296 -47.5t222 -124.5l-178 -299q-65 56 -159 89.5t-185 33.5
q-73 0 -118.5 -21t-45.5 -55q0 -67 213 -115q37 -8 67.5 -16.5t88.5 -28.5t103 -43t98 -61.5t88.5 -82.5t59.5 -106t24 -133q0 -132 -76.5 -236t-208 -160.5t-293.5 -56.5z" />
    <glyph glyph-name="sacute" unicode="&#x15b;" horiz-adv-x="985" 
d="M291 1135l201 323h458l-274 -323h-385zM485 -25q-253 0 -462 154l157 225q145 -102 291 -102q125 0 125 53q0 27 -36 41.5t-116 30.5q-46 9 -73 15.5t-73.5 21t-75 30t-64 42t-55.5 57.5t-34 75.5t-14 98.5q0 115 62 196t163 118.5t230 37.5q232 0 432 -133l-158 -225
q-147 82 -260 82q-106 0 -106 -45q0 -25 36 -39.5t111 -28.5q44 -9 73 -15.5t74 -20.5t75.5 -29.5t65.5 -42t56 -58t35 -76t14 -98.5q0 -117 -63.5 -200.5t-169 -124t-240.5 -40.5z" />
    <glyph glyph-name="Scircumflex" unicode="&#x15c;" horiz-adv-x="1249" 
d="M643 1626l-78 -123h-344l201 324h442l201 -324h-344zM696 899q37 -8 67.5 -16.5t88.5 -28.5t103 -43t98 -61.5t88.5 -82.5t59.5 -106t24 -133q0 -132 -76.5 -236t-208 -160.5t-293.5 -56.5q-166 0 -336 61t-288 161l198 299q91 -78 207 -125t217 -47q74 0 126 24t52 64
q0 37 -52 60t-185 56q-504 125 -504 471q0 198 155.5 318.5t413.5 120.5q161 0 296 -47.5t222 -124.5l-178 -299q-65 56 -159 89.5t-185 33.5q-73 0 -118.5 -21t-45.5 -55q0 -67 213 -115z" />
    <glyph glyph-name="scircumflex" unicode="&#x15d;" horiz-adv-x="985" 
d="M498 1257l-78 -122h-344l200 323h443l201 -323h-345zM565 680q44 -9 73 -15.5t74 -20.5t75.5 -29.5t65.5 -42t56 -58t35 -76t14 -98.5q0 -117 -63.5 -200.5t-169 -124t-240.5 -40.5q-253 0 -462 154l157 225q145 -102 291 -102q125 0 125 53q0 27 -36 41.5t-116 30.5
q-46 9 -73 15.5t-73.5 21t-75 30t-64 42t-55.5 57.5t-34 75.5t-14 98.5q0 115 62 196t163 118.5t230 37.5q232 0 432 -133l-158 -225q-147 82 -260 82q-106 0 -106 -45q0 -25 36 -39.5t111 -28.5z" />
    <glyph glyph-name="Scedilla" unicode="&#x15e;" horiz-adv-x="1249" 
d="M1225 428q0 -172 -125.5 -291.5t-325.5 -150.5l-35 -41q83 -14 137 -79.5t54 -154.5q0 -108 -80.5 -181t-204.5 -73q-150 0 -266 107l121 153q70 -63 139 -63q32 0 53 16t21 41q0 23 -18 39.5t-44 16.5q-35 0 -53 -25l-203 90l125 152q-140 21 -271.5 76.5t-225.5 136.5
l198 299q91 -78 207 -125t217 -47q74 0 126 24t52 64q0 37 -52 60t-185 56q-504 125 -504 471q0 198 155.5 318.5t413.5 120.5q161 0 296 -47.5t222 -124.5l-178 -299q-65 56 -159 89.5t-185 33.5q-73 0 -118.5 -21t-45.5 -55q0 -67 213 -115q37 -8 67.5 -16.5t88.5 -28.5
t103 -43t98 -61.5t88.5 -82.5t59.5 -106t24 -133z" />
    <glyph glyph-name="scedilla" unicode="&#x15f;" horiz-adv-x="985" 
d="M958 340q0 -140 -87.5 -230t-237.5 -120l-39 -45q83 -14 136.5 -79.5t53.5 -154.5q0 -108 -80.5 -181t-203.5 -73q-151 0 -267 107l121 153q70 -63 140 -63q32 0 52.5 16t20.5 41q0 23 -17.5 39.5t-43.5 16.5q-35 0 -53 -25l-203 90l125 152q-188 25 -352 145l157 225
q145 -102 291 -102q125 0 125 53q0 27 -36 41.5t-116 30.5q-46 9 -73 15.5t-73.5 21t-75 30t-64 42t-55.5 57.5t-34 75.5t-14 98.5q0 115 62 196t163 118.5t230 37.5q232 0 432 -133l-158 -225q-147 82 -260 82q-106 0 -106 -45q0 -25 36 -39.5t111 -28.5q44 -9 73 -15.5
t74 -20.5t75.5 -29.5t65.5 -42t56 -58t35 -76t14 -98.5z" />
    <glyph glyph-name="Scaron" unicode="&#x160;" horiz-adv-x="1249" 
d="M864 1503h-442l-201 324h344l78 -123l78 123h344zM696 899q37 -8 67.5 -16.5t88.5 -28.5t103 -43t98 -61.5t88.5 -82.5t59.5 -106t24 -133q0 -132 -76.5 -236t-208 -160.5t-293.5 -56.5q-166 0 -336 61t-288 161l198 299q91 -78 207 -125t217 -47q74 0 126 24t52 64
q0 37 -52 60t-185 56q-504 125 -504 471q0 198 155.5 318.5t413.5 120.5q161 0 296 -47.5t222 -124.5l-178 -299q-65 56 -159 89.5t-185 33.5q-73 0 -118.5 -21t-45.5 -55q0 -67 213 -115z" />
    <glyph glyph-name="scaron" unicode="&#x161;" horiz-adv-x="985" 
d="M719 1135h-443l-200 323h344l78 -123l77 123h345zM565 680q44 -9 73 -15.5t74 -20.5t75.5 -29.5t65.5 -42t56 -58t35 -76t14 -98.5q0 -117 -63.5 -200.5t-169 -124t-240.5 -40.5q-253 0 -462 154l157 225q145 -102 291 -102q125 0 125 53q0 27 -36 41.5t-116 30.5
q-46 9 -73 15.5t-73.5 21t-75 30t-64 42t-55.5 57.5t-34 75.5t-14 98.5q0 115 62 196t163 118.5t230 37.5q232 0 432 -133l-158 -225q-147 82 -260 82q-106 0 -106 -45q0 -25 36 -39.5t111 -28.5z" />
    <glyph glyph-name="uni0162" unicode="&#x162;" horiz-adv-x="1202" 
d="M797 0h-64l-47 -53q83 -14 137 -79.5t54 -154.5q0 -108 -80.5 -181t-204.5 -73q-150 0 -266 107l120 153q70 -63 140 -63q32 0 52.5 16t20.5 41q0 23 -17.5 39.5t-43.5 16.5q-35 0 -53 -25l-203 90l137 166h-73v1044h-361v369h1112v-369h-360v-1044z" />
    <glyph glyph-name="uni0163" unicode="&#x163;" horiz-adv-x="854" 
d="M631 -53q83 -14 136.5 -79.5t53.5 -154.5q0 -108 -80.5 -181t-203.5 -73q-151 0 -267 107l121 153q70 -63 139 -63q32 0 53 16t21 41q0 23 -17.5 39.5t-43.5 16.5q-36 0 -54 -25l-202 90l135 164q-122 38 -182 138t-60 239v334h-139v335h139v246h369v-246h244v-335h-244
v-273q0 -48 28.5 -76t84.5 -28q59 0 131 35v-344q-56 -31 -131 -41z" />
    <glyph glyph-name="Tcaron" unicode="&#x164;" horiz-adv-x="1202" 
d="M823 1503h-442l-201 324h344l78 -123l78 123h344zM1157 1413v-369h-360v-1044h-391v1044h-361v369h1112z" />
    <glyph glyph-name="tcaron" unicode="&#x165;" horiz-adv-x="854" 
d="M653 1642h330l-96 -503h-277zM549 1290v-246h244v-335h-244v-273q0 -48 28.5 -76t84.5 -28q59 0 131 35v-344q-92 -48 -211 -48q-137 0 -229 53.5t-132.5 141.5t-40.5 205v334h-139v335h139v246h369z" />
    <glyph glyph-name="Tbar" unicode="&#x166;" horiz-adv-x="1202" 
d="M1157 1044h-360v-288h137v-262h-137v-494h-391v494h-136v262h136v288h-361v369h1112v-369z" />
    <glyph glyph-name="tbar" unicode="&#x167;" horiz-adv-x="854" 
d="M793 709h-244v-52h184v-262h-178q19 -63 107 -63q59 0 131 35v-344q-92 -48 -211 -48q-137 0 -229 53.5t-132.5 141.5t-40.5 205v20h-110v262h110v52h-139v335h139v246h369v-246h244v-335z" />
    <glyph glyph-name="Utilde" unicode="&#x168;" horiz-adv-x="1388" 
d="M821 1513q-63 0 -128 28t-81 28q-24 0 -38.5 -15.5t-14.5 -37.5h-256q0 152 67 248t195 96q47 0 88.5 -14.5t71.5 -29t49 -14.5q23 0 38 16t15 40h256q0 -155 -66.5 -250t-195.5 -95zM694 -25q-126 0 -237 44t-190 120.5t-125 184t-46 229.5v860h391v-854q0 -89 59 -148
t148 -59t148 59t59 148v854h391v-860q0 -122 -46 -229.5t-125 -184t-190 -120.5t-237 -44z" />
    <glyph glyph-name="utilde" unicode="&#x169;" horiz-adv-x="1175" 
d="M715 1145q-63 0 -128 27.5t-81 27.5q-24 0 -38.5 -15.5t-14.5 -37.5h-256q0 152 67 248t195 96q47 0 88.5 -14.5t71.5 -28.5t49 -14q23 0 38 16t15 39h256q0 -155 -66.5 -249.5t-195.5 -94.5zM588 -25q-229 0 -367.5 122t-138.5 323v624h369v-573q0 -63 37.5 -101
t99.5 -38t99.5 38t37.5 101v573h369v-624q0 -201 -138.5 -323t-367.5 -122z" />
    <glyph glyph-name="Umacron" unicode="&#x16a;" horiz-adv-x="1388" 
d="M393 1516v307h602v-307h-602zM694 -25q-126 0 -237 44t-190 120.5t-125 184t-46 229.5v860h391v-854q0 -89 59 -148t148 -59t148 59t59 148v854h391v-860q0 -122 -46 -229.5t-125 -184t-190 -120.5t-237 -44z" />
    <glyph glyph-name="umacron" unicode="&#x16b;" horiz-adv-x="1175" 
d="M287 1147v307h602v-307h-602zM588 -25q-229 0 -367.5 122t-138.5 323v624h369v-573q0 -63 37.5 -101t99.5 -38t99.5 38t37.5 101v573h369v-624q0 -201 -138.5 -323t-367.5 -122z" />
    <glyph glyph-name="Ubreve" unicode="&#x16c;" horiz-adv-x="1388" 
d="M694 1483q-158 0 -263 99.5t-105 248.5h282q0 -38 24.5 -63t61.5 -25t61.5 25t24.5 63h283q0 -149 -105.5 -248.5t-263.5 -99.5zM694 -25q-126 0 -237 44t-190 120.5t-125 184t-46 229.5v860h391v-854q0 -89 59 -148t148 -59t148 59t59 148v854h391v-860
q0 -122 -46 -229.5t-125 -184t-190 -120.5t-237 -44z" />
    <glyph glyph-name="ubreve" unicode="&#x16d;" horiz-adv-x="1175" 
d="M588 1114q-158 0 -263.5 99.5t-105.5 248.5h283q0 -38 24.5 -63t61.5 -25t61.5 25t24.5 63h282q0 -149 -105 -248.5t-263 -99.5zM588 -25q-229 0 -367.5 122t-138.5 323v624h369v-573q0 -63 37.5 -101t99.5 -38t99.5 38t37.5 101v573h369v-624q0 -201 -138.5 -323
t-367.5 -122z" />
    <glyph glyph-name="Uring" unicode="&#x16e;" horiz-adv-x="1388" 
d="M694 1483q-104 0 -174.5 68t-70.5 169t70.5 169.5t174.5 68.5t175 -68.5t71 -169.5t-71 -169t-175 -68zM694 1661q25 0 41.5 16.5t16.5 42.5t-16.5 43t-41.5 17t-41 -17t-16 -43t16 -42.5t41 -16.5zM694 -25q-126 0 -237 44t-190 120.5t-125 184t-46 229.5v860h391v-854
q0 -89 59 -148t148 -59t148 59t59 148v854h391v-860q0 -122 -46 -229.5t-125 -184t-190 -120.5t-237 -44z" />
    <glyph glyph-name="uring" unicode="&#x16f;" horiz-adv-x="1175" 
d="M588 1114q-104 0 -175 68.5t-71 169.5t71 169t175 68t175 -68t71 -169t-71 -169.5t-175 -68.5zM588 1292q25 0 41 17t16 43t-16 42.5t-41 16.5t-41.5 -16.5t-16.5 -42.5t16.5 -43t41.5 -17zM588 -25q-229 0 -367.5 122t-138.5 323v624h369v-573q0 -63 37.5 -101t99.5 -38
t99.5 38t37.5 101v573h369v-624q0 -201 -138.5 -323t-367.5 -122z" />
    <glyph glyph-name="Uhungarumlaut" unicode="&#x170;" horiz-adv-x="1388" 
d="M262 1503l180 324h398l-224 -324h-354zM754 1503l180 324h397l-223 -324h-354zM694 -25q-126 0 -237 44t-190 120.5t-125 184t-46 229.5v860h391v-854q0 -89 59 -148t148 -59t148 59t59 148v854h391v-860q0 -122 -46 -229.5t-125 -184t-190 -120.5t-237 -44z" />
    <glyph glyph-name="uhungarumlaut" unicode="&#x171;" horiz-adv-x="1175" 
d="M156 1135l180 323h397l-223 -323h-354zM647 1135l180 323h398l-224 -323h-354zM588 -25q-229 0 -367.5 122t-138.5 323v624h369v-573q0 -63 37.5 -101t99.5 -38t99.5 38t37.5 101v573h369v-624q0 -201 -138.5 -323t-367.5 -122z" />
    <glyph glyph-name="Uogonek" unicode="&#x172;" horiz-adv-x="1388" 
d="M901 1413h391v-860q0 -190 -105.5 -336t-279.5 -207q-149 -75 -149 -160q0 -37 25 -55t59 -18q49 0 94 28l80 -225q-95 -65 -236 -65q-138 0 -224.5 71.5t-86.5 180.5q0 62 29.5 119.5t81.5 99.5q-212 36 -348 193t-136 374v860h391v-854q0 -89 59 -148t148 -59t148 59
t59 148v854z" />
    <glyph glyph-name="uogonek" unicode="&#x173;" horiz-adv-x="1175" 
d="M725 1044h369v-624q0 -161 -91 -273.5t-249 -152.5q-121 -68 -121 -144q0 -37 25 -55t59 -18q49 0 94 28l80 -225q-95 -65 -236 -65q-138 0 -224.5 71.5t-86.5 180.5q0 63 30.5 121t82.5 100q-173 32 -274 147.5t-101 284.5v624h369v-573q0 -63 37.5 -101t99.5 -38
t99.5 38t37.5 101v573z" />
    <glyph glyph-name="Wcircumflex" unicode="&#x174;" horiz-adv-x="2041" 
d="M1022 1626l-78 -123h-344l201 324h442l201 -324h-344zM1632 1413h404l-428 -1413h-389l-197 786l-199 -786h-387l-430 1413h414l219 -858l217 858h340l219 -858z" />
    <glyph glyph-name="wcircumflex" unicode="&#x175;" horiz-adv-x="1744" 
d="M872 1257l-77 -122h-344l200 323h443l200 -323h-344zM1350 1044h401l-356 -1044h-377l-146 569l-145 -569h-377l-356 1044h412l141 -542l143 542h373l145 -546z" />
    <glyph glyph-name="Ycircumflex" unicode="&#x176;" horiz-adv-x="1382" 
d="M692 1626l-78 -123h-344l201 324h442l201 -324h-344zM971 1413h436l-520 -948v-465h-391v465l-521 948h445l276 -534z" />
    <glyph glyph-name="ycircumflex" unicode="&#x177;" horiz-adv-x="1163" 
d="M582 1257l-78 -122h-344l200 323h443l201 -323h-345zM764 1044h412l-461 -1183q-50 -125 -151.5 -200t-225.5 -75q-79 0 -165.5 30.5t-147.5 80.5l139 289q49 -43 112 -43q72 0 101 67l6 15l-395 1019h420l178 -552z" />
    <glyph glyph-name="Ydieresis" unicode="&#x178;" horiz-adv-x="1382" 
d="M461 1485q-85 0 -142 56t-57 140q0 85 57 141t142 56t141.5 -56t56.5 -141t-56.5 -140.5t-141.5 -55.5zM924 1485q-85 0 -142 56t-57 140q0 85 57 141t142 56t141.5 -56t56.5 -141t-56.5 -140.5t-141.5 -55.5zM971 1413h436l-520 -948v-465h-391v465l-521 948h445
l276 -534z" />
    <glyph glyph-name="Zacute" unicode="&#x179;" horiz-adv-x="1257" 
d="M1079 1827l-274 -324h-385l201 324h458zM600 369h596v-369h-1135v281l582 763h-573v369h1112v-280z" />
    <glyph glyph-name="zacute" unicode="&#x17a;" horiz-adv-x="1011" 
d="M958 1458l-274 -323h-385l201 323h458zM936 776l-352 -420h366v-356h-889v268l353 420h-344v356h866v-268z" />
    <glyph glyph-name="Zdotaccent" unicode="&#x17b;" horiz-adv-x="1257" 
d="M627 1485q-89 0 -149 59t-60 148t59.5 147.5t149.5 58.5t149.5 -58.5t59.5 -147.5t-60 -148t-149 -59zM600 369h596v-369h-1135v281l582 763h-573v369h1112v-280z" />
    <glyph glyph-name="zdotaccent" unicode="&#x17c;" horiz-adv-x="1011" 
d="M506 1116q-89 0 -149 59t-60 148t60 148t149 59t149 -59t60 -148t-60 -148t-149 -59zM584 356h366v-356h-889v268l353 420h-344v356h866v-268z" />
    <glyph glyph-name="Zcaron" unicode="&#x17d;" horiz-adv-x="1257" 
d="M848 1503h-442l-201 324h344l78 -123l78 123h344zM600 369h596v-369h-1135v281l582 763h-573v369h1112v-280z" />
    <glyph glyph-name="zcaron" unicode="&#x17e;" horiz-adv-x="1011" 
d="M727 1135h-442l-201 323h344l78 -123l78 123h344zM584 356h366v-356h-889v268l353 420h-344v356h866v-268z" />
    <glyph glyph-name="florin" unicode="&#x192;" horiz-adv-x="1048" 
d="M1008 1036q-211 0 -236 -141l-2 -16h156v-336h-215l-93 -539q-34 -198 -184.5 -295.5t-433.5 -97.5v377q211 0 236 141l71 414h-143v336h201l24 141q34 198 185 295.5t434 97.5v-377z" />
    <glyph glyph-name="uni01C4" unicode="&#x1c4;" horiz-adv-x="2648" 
d="M2238 1503h-442l-201 324h344l78 -123l78 123h344zM680 1413q205 0 371.5 -92t261 -253.5t94.5 -360.5t-94.5 -361t-261 -254t-371.5 -92h-563v1413h563zM1991 369h596v-369h-1135v281l582 763h-574v369h1112v-280zM672 369q143 0 238.5 96.5t95.5 241.5t-95.5 241
t-238.5 96h-164v-675h164z" />
    <glyph glyph-name="uni01C5" unicode="&#x1c5;" horiz-adv-x="2469" 
d="M2185 1135h-442l-201 323h344l78 -123l78 123h344zM680 1413q205 0 371.5 -92t261 -253.5t94.5 -360.5t-94.5 -361t-261 -254t-371.5 -92h-563v1413h563zM672 369q143 0 238.5 96.5t95.5 241.5t-95.5 241t-238.5 96h-164v-675h164zM2042 356h366v-356h-888v268l352 420
h-344v356h866v-268z" />
    <glyph glyph-name="uni01C6" unicode="&#x1c6;" horiz-adv-x="2287" 
d="M805 979v496h369v-1475h-369v66q-115 -91 -262 -91q-139 0 -252.5 71.5t-177.5 197t-64 278.5t64 278.5t177.5 197t252.5 71.5q148 0 262 -90zM2003 1135h-442l-201 323h344l78 -123l78 123h344zM1860 356h366v-356h-889v268l353 420h-344v356h866v-268zM616 332
q82 0 135.5 54t53.5 136t-53.5 136.5t-135.5 54.5q-81 0 -134.5 -54.5t-53.5 -136.5t53 -136t135 -54z" />
    <glyph glyph-name="uni01C7" unicode="&#x1c7;" horiz-adv-x="1994" 
d="M508 1413v-1044h534v-369h-925v1413h391zM1507 1413h391v-921q0 -245 -144.5 -381t-389.5 -136q-128 0 -215 35v371q92 -29 172 -29q186 0 186 160v901z" />
    <glyph glyph-name="uni01C8" unicode="&#x1c8;" horiz-adv-x="1679" 
d="M1393 1135q-96 0 -160 63t-64 158t64 158t160 63q95 0 159 -63t64 -158t-64 -158t-159 -63zM1042 369v-369h-925v1413h391v-1044h534zM1208 -2v1046h369v-1089q0 -166 -94.5 -267.5t-286.5 -101.5q-86 0 -156 25v330q49 -19 86 -19q41 0 61.5 20.5t20.5 55.5z" />
    <glyph glyph-name="uni01C9" unicode="&#x1c9;" horiz-adv-x="1155" 
d="M868 1135q-95 0 -159 63t-64 158t64 158t159 63q96 0 160 -63t64 -158t-64 -158t-160 -63zM102 0v1475h369v-1475h-369zM672 -414q-86 0 -156 25v330q49 -19 86 -19q41 0 61.5 20.5t20.5 55.5v1046h369v-1089q0 -166 -94.5 -267.5t-286.5 -101.5z" />
    <glyph glyph-name="uni01CA" unicode="&#x1ca;" horiz-adv-x="2375" 
d="M975 690v723h391v-1413h-391l-467 723v-723h-391v1413h391zM1888 1413h391v-921q0 -245 -144.5 -381t-389.5 -136q-128 0 -215 35v371q92 -29 172 -29q186 0 186 160v901z" />
    <glyph glyph-name="uni01CB" unicode="&#x1cb;" horiz-adv-x="2064" 
d="M1778 1135q-96 0 -160 63t-64 158t64 158t160 63q95 0 159 -63t64 -158t-64 -158t-159 -63zM975 690v723h391v-1413h-391l-467 723v-723h-391v1413h391zM1593 -2v1046h369v-1089q0 -166 -94.5 -267.5t-286.5 -101.5q-86 0 -156 25v330q49 -19 86 -19q41 0 61.5 20.5
t20.5 55.5z" />
    <glyph glyph-name="uni01CC" unicode="&#x1cc;" horiz-adv-x="1802" 
d="M1516 1135q-96 0 -160 63t-64 158t64 158t160 63q95 0 159 -63t64 -158t-64 -158t-159 -63zM754 1069q173 0 279 -105t106 -278v-686h-369v561q0 69 -38.5 110.5t-104.5 41.5q-69 0 -112.5 -43t-43.5 -113v-557h-369v1044h369v-77q117 102 283 102zM1331 -2v1046h369
v-1089q0 -166 -94.5 -267.5t-286.5 -101.5q-86 0 -156 25v330q49 -19 86 -19q41 0 61.5 20.5t20.5 55.5z" />
    <glyph glyph-name="uni01CD" unicode="&#x1cd;" horiz-adv-x="1476" 
d="M958 1503h-442l-201 324h344l78 -123l78 123h344zM1049 0l-64 195h-502l-63 -195h-420l508 1413h461l508 -1413h-428zM598 555h272l-135 424z" />
    <glyph glyph-name="uni01CE" unicode="&#x1ce;" 
d="M870 1135h-442l-201 323h344l78 -123l78 123h344zM805 1044h369v-1044h-369v66q-115 -91 -262 -91q-139 0 -252.5 71.5t-177.5 197t-64 278.5t64 278.5t177.5 197t252.5 71.5q148 0 262 -90v65zM616 332q82 0 135.5 54t53.5 136t-53.5 136.5t-135.5 54.5
q-81 0 -134.5 -54.5t-53.5 -136.5t53 -136t135 -54z" />
    <glyph glyph-name="Gcaron" unicode="&#x1e6;" horiz-adv-x="1554" 
d="M1024 1503h-442l-201 324h344l78 -123l78 123h344zM811 842h702v-135q0 -156 -54 -292t-148 -232.5t-228 -152t-288 -55.5q-157 0 -295 56.5t-236.5 153.5t-155.5 232.5t-57 289.5q0 205 98 372.5t270.5 263t383.5 95.5q180 0 333.5 -68.5t247.5 -189.5l-294 -236
q-50 57 -123 89t-156 32q-153 0 -255.5 -102.5t-102.5 -255.5q0 -154 102 -256.5t254 -102.5q91 0 163 39.5t111 106.5h-272v348z" />
    <glyph glyph-name="gcaron" unicode="&#x1e7;" horiz-adv-x="1159" 
d="M780 1135h-442l-201 323h344l78 -123l78 123h344zM770 33q165 0 277 -89.5t149 -250.5l-379 -107q-8 41 -40 65.5t-79 24.5h-292q-162 0 -261.5 87t-99.5 227q0 90 41 169.5t111 121.5q-136 133 -136 323q0 199 144.5 332t361.5 133q107 0 197 -35q28 90 108 141.5
t193 51.5h92v-340h-74q-61 0 -79 -41q69 -107 69 -242q0 -199 -145 -332t-361 -133q-44 0 -108 11q-45 -25 -45 -66q0 -23 18 -37t47 -14h291zM567 721q-55 0 -91 -33t-36 -84t36 -84t91 -33q54 0 90.5 33t36.5 84t-36.5 84t-90.5 33z" />
    <glyph glyph-name="uni01EA" unicode="&#x1ea;" horiz-adv-x="1605" 
d="M1073 20q-170 -81 -170 -170q0 -37 25 -55t59 -18q49 0 94 28l80 -225q-95 -65 -235 -65q-138 0 -225 71.5t-87 180.5q0 121 105 213q-191 19 -343 118t-238.5 258.5t-86.5 350.5q0 205 98 372.5t270.5 263t383.5 95.5t383 -95.5t270 -263t98 -372.5
q0 -239 -131.5 -424.5t-349.5 -262.5zM453 707q0 -152 100.5 -253.5t249.5 -101.5t249.5 101.5t100.5 253.5t-100 253t-250 101t-250 -101t-100 -253z" />
    <glyph glyph-name="uni01EB" unicode="&#x1eb;" horiz-adv-x="1220" 
d="M815 10q-147 -75 -147 -160q0 -37 25 -55t59 -18q49 0 94 28l80 -225q-95 -65 -236 -65q-138 0 -224.5 71.5t-86.5 180.5q0 63 30 120t83 99q-198 39 -323.5 186.5t-125.5 349.5q0 153 73.5 278.5t203.5 197t290 71.5q243 0 405.5 -157t162.5 -390q0 -179 -99 -316.5
t-264 -195.5zM422 522q0 -82 53 -136t135 -54t135.5 54t53.5 136t-53.5 136.5t-135.5 54.5q-81 0 -134.5 -54.5t-53.5 -136.5z" />
    <glyph glyph-name="uni01F1" unicode="&#x1f1;" horiz-adv-x="2648" 
d="M680 1413q205 0 371.5 -92t261 -253.5t94.5 -360.5t-94.5 -361t-261 -254t-371.5 -92h-563v1413h563zM1991 369h596v-369h-1135v281l582 763h-574v369h1112v-280zM672 369q143 0 238.5 96.5t95.5 241.5t-95.5 241t-238.5 96h-164v-675h164z" />
    <glyph glyph-name="uni01F2" unicode="&#x1f2;" horiz-adv-x="2469" 
d="M680 1413q205 0 371.5 -92t261 -253.5t94.5 -360.5t-94.5 -361t-261 -254t-371.5 -92h-563v1413h563zM672 369q143 0 238.5 96.5t95.5 241.5t-95.5 241t-238.5 96h-164v-675h164zM2042 356h366v-356h-888v268l352 420h-344v356h866v-268z" />
    <glyph glyph-name="uni01F3" unicode="&#x1f3;" horiz-adv-x="2287" 
d="M805 979v496h369v-1475h-369v66q-115 -91 -262 -91q-139 0 -252.5 71.5t-177.5 197t-64 278.5t64 278.5t177.5 197t252.5 71.5q148 0 262 -90zM1860 356h366v-356h-889v268l353 420h-344v356h866v-268zM616 332q82 0 135.5 54t53.5 136t-53.5 136.5t-135.5 54.5
q-81 0 -134.5 -54.5t-53.5 -136.5t53 -136t135 -54z" />
    <glyph glyph-name="uni01F4" unicode="&#x1f4;" horiz-adv-x="1554" 
d="M1255 1827l-274 -324h-385l201 324h458zM811 842h702v-135q0 -156 -54 -292t-148 -232.5t-228 -152t-288 -55.5q-157 0 -295 56.5t-236.5 153.5t-155.5 232.5t-57 289.5q0 205 98 372.5t270.5 263t383.5 95.5q180 0 333.5 -68.5t247.5 -189.5l-294 -236q-50 57 -123 89
t-156 32q-153 0 -255.5 -102.5t-102.5 -255.5q0 -154 102 -256.5t254 -102.5q91 0 163 39.5t111 106.5h-272v348z" />
    <glyph glyph-name="uni01F5" unicode="&#x1f5;" horiz-adv-x="1159" 
d="M1012 1458l-275 -323h-385l201 323h459zM770 33q165 0 277 -89.5t149 -250.5l-379 -107q-8 41 -40 65.5t-79 24.5h-292q-162 0 -261.5 87t-99.5 227q0 90 41 169.5t111 121.5q-136 133 -136 323q0 199 144.5 332t361.5 133q107 0 197 -35q28 90 108 141.5t193 51.5h92
v-340h-74q-61 0 -79 -41q69 -107 69 -242q0 -199 -145 -332t-361 -133q-44 0 -108 11q-45 -25 -45 -66q0 -23 18 -37t47 -14h291zM567 721q-55 0 -91 -33t-36 -84t36 -84t91 -33q54 0 90.5 33t36.5 84t-36.5 84t-90.5 33z" />
    <glyph glyph-name="AEacute" unicode="&#x1fc;" horiz-adv-x="1873" 
d="M1552 1827l-274 -324h-385l201 324h458zM1290 369h514v-369h-905v186h-434l-103 -186h-444l784 1413h1092v-369h-504v-149h439v-369h-439v-157zM662 547h237v432z" />
    <glyph glyph-name="aeacute" unicode="&#x1fd;" horiz-adv-x="1792" 
d="M1339 1458l-274 -323h-385l201 323h458zM1751 514q0 -60 -8 -96h-709q25 -62 77.5 -96.5t123.5 -34.5q66 0 121 27t90 63l242 -213q-86 -89 -206 -139t-257 -50q-218 0 -375 131q-135 -131 -377 -131q-200 0 -320 95t-120 243q0 139 107 227.5t280 88.5h237v14
q0 60 -46.5 95.5t-123.5 35.5q-102 0 -182 -80l-209 209q68 77 174 121.5t234 44.5q211 0 352 -115q147 115 342 115q237 0 395 -157.5t158 -397.5zM1194 758q-56 0 -99 -34t-65 -95h328q-20 61 -64 95t-100 34zM412 330q0 -40 37.5 -66t97.5 -26q90 0 162 55
q-31 66 -41 125h-148q-46 0 -77 -25.5t-31 -62.5z" />
    <glyph glyph-name="Oslashacute" unicode="&#x1fe;" horiz-adv-x="1605" 
d="M1307 1827l-275 -324h-385l201 324h459zM1556 1413l-184 -219q182 -201 182 -487q0 -205 -98 -373t-270 -263.5t-383 -95.5q-203 0 -379 95l-59 -70h-318l186 221q-182 201 -182 486q0 205 98 372.5t270.5 263t383.5 95.5q206 0 379 -95l57 70h317zM453 707
q0 -97 43 -175l428 508q-55 21 -121 21q-150 0 -250 -101t-100 -253zM1153 707q0 95 -43 176l-430 -510q65 -21 123 -21q149 0 249.5 101.5t100.5 253.5z" />
    <glyph glyph-name="oslashacute" unicode="&#x1ff;" horiz-adv-x="1220" 
d="M1092 1458l-275 -323h-385l201 323h459zM1198 1044l-149 -167q129 -148 129 -355q0 -233 -162.5 -390t-405.5 -157q-159 0 -291 74l-43 -49h-256l150 170q-127 149 -127 352q0 153 73.5 278.5t203.5 197t290 71.5q157 0 291 -72l41 47h256zM422 522q0 -33 8 -57l217 244
q-24 4 -37 4q-81 0 -134.5 -54.5t-53.5 -136.5zM799 522q0 36 -8 60l-220 -246q24 -4 39 -4q82 0 135.5 54t53.5 136z" />
    <glyph glyph-name="uni0200" unicode="&#x200;" horiz-adv-x="1476" 
d="M678 1503h-354l-224 324h398zM1169 1503h-354l-223 324h397zM1049 0l-64 195h-502l-63 -195h-420l508 1413h461l508 -1413h-428zM598 555h272l-135 424z" />
    <glyph glyph-name="uni0201" unicode="&#x201;" 
d="M590 1135h-354l-224 323h398zM1081 1135h-354l-223 323h397zM805 1044h369v-1044h-369v66q-115 -91 -262 -91q-139 0 -252.5 71.5t-177.5 197t-64 278.5t64 278.5t177.5 197t252.5 71.5q148 0 262 -90v65zM616 332q82 0 135.5 54t53.5 136t-53.5 136.5t-135.5 54.5
q-81 0 -134.5 -54.5t-53.5 -136.5t53 -136t135 -54z" />
    <glyph glyph-name="uni0202" unicode="&#x202;" horiz-adv-x="1476" 
d="M737 1591q-37 0 -61.5 -25t-24.5 -63h-282q0 149 105 248.5t263 99.5t263.5 -99.5t105.5 -248.5h-283q0 38 -24.5 63t-61.5 25zM1049 0l-64 195h-502l-63 -195h-420l508 1413h461l508 -1413h-428zM598 555h272l-135 424z" />
    <glyph glyph-name="uni0203" unicode="&#x203;" 
d="M649 1223q-37 0 -61.5 -25t-24.5 -63h-282q0 149 105 248.5t263 99.5t263.5 -99.5t105.5 -248.5h-283q0 38 -24.5 63t-61.5 25zM805 1044h369v-1044h-369v66q-115 -91 -262 -91q-139 0 -252.5 71.5t-177.5 197t-64 278.5t64 278.5t177.5 197t252.5 71.5q148 0 262 -90v65
zM616 332q82 0 135.5 54t53.5 136t-53.5 136.5t-135.5 54.5q-81 0 -134.5 -54.5t-53.5 -136.5t53 -136t135 -54z" />
    <glyph glyph-name="uni0204" unicode="&#x204;" horiz-adv-x="1173" 
d="M551 1503h-354l-224 324h398zM1042 1503h-354l-223 324h397zM508 369h596v-369h-987v1413h977v-369h-586v-149h520v-369h-520v-157z" />
    <glyph glyph-name="uni0205" unicode="&#x205;" horiz-adv-x="1198" 
d="M551 1135h-354l-224 323h398zM1042 1135h-354l-223 323h397zM1157 514q0 -60 -8 -96h-709q25 -62 77.5 -96.5t123.5 -34.5q66 0 121 27t90 63l242 -213q-86 -89 -206 -139t-257 -50q-252 0 -420 158.5t-168 394.5q0 230 161 385.5t400 155.5q237 0 395 -157.5t158 -397.5
zM600 758q-56 0 -99 -34t-65 -95h328q-20 61 -64 95t-100 34z" />
    <glyph glyph-name="uni0206" unicode="&#x206;" horiz-adv-x="1173" 
d="M610 1591q-37 0 -61.5 -25t-24.5 -63h-282q0 149 105 248.5t263 99.5t263.5 -99.5t105.5 -248.5h-283q0 38 -24.5 63t-61.5 25zM508 369h596v-369h-987v1413h977v-369h-586v-149h520v-369h-520v-157z" />
    <glyph glyph-name="uni0207" unicode="&#x207;" horiz-adv-x="1198" 
d="M610 1223q-37 0 -61.5 -25t-24.5 -63h-282q0 149 105 248.5t263 99.5t263.5 -99.5t105.5 -248.5h-283q0 38 -24.5 63t-61.5 25zM1157 514q0 -60 -8 -96h-709q25 -62 77.5 -96.5t123.5 -34.5q66 0 121 27t90 63l242 -213q-86 -89 -206 -139t-257 -50q-252 0 -420 158.5
t-168 394.5q0 230 161 385.5t400 155.5q237 0 395 -157.5t158 -397.5zM600 758q-56 0 -99 -34t-65 -95h328q-20 61 -64 95t-100 34z" />
    <glyph glyph-name="uni0208" unicode="&#x208;" horiz-adv-x="624" 
d="M-100 1503l-224 324h398l180 -324h-354zM391 1503l-223 324h397l180 -324h-354zM117 0v1413h391v-1413h-391z" />
    <glyph glyph-name="uni0209" unicode="&#x209;" horiz-adv-x="573" 
d="M-127 1135l-223 323h397l180 -323h-354zM365 1135l-224 323h398l180 -323h-354zM102 0v1044h369v-1044h-369z" />
    <glyph glyph-name="uni020A" unicode="&#x20a;" horiz-adv-x="624" 
d="M-55 1503q0 149 105 248.5t263 99.5t263.5 -99.5t105.5 -248.5h-283q0 38 -24.5 63t-61.5 25t-61.5 -25t-24.5 -63h-282zM117 0v1413h391v-1413h-391z" />
    <glyph glyph-name="uni020B" unicode="&#x20b;" horiz-adv-x="573" 
d="M-82 1135q0 149 105.5 248.5t263.5 99.5t263 -99.5t105 -248.5h-282q0 38 -24.5 63t-61.5 25t-61.5 -25t-24.5 -63h-283zM102 0v1044h369v-1044h-369z" />
    <glyph glyph-name="uni020C" unicode="&#x20c;" horiz-adv-x="1605" 
d="M389 1503l-223 324h397l180 -324h-354zM881 1503l-224 324h398l180 -324h-354zM803 -25q-158 0 -297.5 56.5t-239.5 153.5t-157.5 232.5t-57.5 289.5q0 205 98 372.5t270.5 263t383.5 95.5t383 -95.5t270 -263t98 -372.5t-98 -373t-270 -263.5t-383 -95.5zM803 352
q149 0 249.5 101.5t100.5 253.5t-100 253t-250 101t-250 -101t-100 -253t100.5 -253.5t249.5 -101.5z" />
    <glyph glyph-name="uni020D" unicode="&#x20d;" horiz-adv-x="1220" 
d="M197 1135l-224 323h398l180 -323h-354zM688 1135l-223 323h397l180 -323h-354zM610 -25q-160 0 -290 71.5t-203.5 197t-73.5 278.5t73.5 278.5t203.5 197t290 71.5q243 0 405.5 -157t162.5 -390t-162.5 -390t-405.5 -157zM610 332q82 0 135.5 54t53.5 136t-53.5 136.5
t-135.5 54.5q-81 0 -134.5 -54.5t-53.5 -136.5t53 -136t135 -54z" />
    <glyph glyph-name="uni020E" unicode="&#x20e;" horiz-adv-x="1605" 
d="M434 1503q0 149 105.5 248.5t263.5 99.5t263 -99.5t105 -248.5h-282q0 38 -24.5 63t-61.5 25t-61.5 -25t-24.5 -63h-283zM803 -25q-158 0 -297.5 56.5t-239.5 153.5t-157.5 232.5t-57.5 289.5q0 205 98 372.5t270.5 263t383.5 95.5t383 -95.5t270 -263t98 -372.5
t-98 -373t-270 -263.5t-383 -95.5zM803 352q149 0 249.5 101.5t100.5 253.5t-100 253t-250 101t-250 -101t-100 -253t100.5 -253.5t249.5 -101.5z" />
    <glyph glyph-name="uni020F" unicode="&#x20f;" horiz-adv-x="1220" 
d="M242 1135q0 149 105 248.5t263 99.5t263.5 -99.5t105.5 -248.5h-283q0 38 -24.5 63t-61.5 25t-61.5 -25t-24.5 -63h-282zM610 -25q-160 0 -290 71.5t-203.5 197t-73.5 278.5t73.5 278.5t203.5 197t290 71.5q243 0 405.5 -157t162.5 -390t-162.5 -390t-405.5 -157z
M610 332q82 0 135.5 54t53.5 136t-53.5 136.5t-135.5 54.5q-81 0 -134.5 -54.5t-53.5 -136.5t53 -136t135 -54z" />
    <glyph glyph-name="uni0210" unicode="&#x210;" horiz-adv-x="1325" 
d="M604 1503h-354l-223 324h397zM1096 1503h-355l-223 324h397zM848 0l-217 438h-123v-438h-391v1413h635q223 0 372.5 -142.5t149.5 -355.5q0 -132 -64.5 -239t-175.5 -170l283 -506h-469zM508 1044v-266h235q55 0 92 38t37 95t-37 95t-92 38h-235z" />
    <glyph glyph-name="uni0211" unicode="&#x211;" horiz-adv-x="780" 
d="M193 1458l180 -323h-355l-223 323h398zM864 1135h-354l-223 323h397zM471 956q105 105 240 105h51v-379h-51q-118 0 -179 -57t-61 -158v-467h-369v1044h369v-88z" />
    <glyph glyph-name="uni0212" unicode="&#x212;" horiz-adv-x="1325" 
d="M664 1591q-37 0 -61.5 -25t-24.5 -63h-283q0 149 105.5 248.5t263.5 99.5t263 -99.5t105 -248.5h-282q0 38 -24.5 63t-61.5 25zM848 0l-217 438h-123v-438h-391v1413h635q223 0 372.5 -142.5t149.5 -355.5q0 -132 -64.5 -239t-175.5 -170l283 -506h-469zM508 1044v-266
h235q55 0 92 38t37 95t-37 95t-92 38h-235z" />
    <glyph glyph-name="uni0213" unicode="&#x213;" horiz-adv-x="780" 
d="M432 1223q-37 0 -61.5 -25t-24.5 -63h-283q0 149 105.5 248.5t263.5 99.5t263.5 -99.5t105.5 -248.5h-283q0 38 -24.5 63t-61.5 25zM471 956q105 105 240 105h51v-379h-51q-118 0 -179 -57t-61 -158v-467h-369v1044h369v-88z" />
    <glyph glyph-name="uni0214" unicode="&#x214;" horiz-adv-x="1388" 
d="M281 1503l-224 324h398l180 -324h-354zM772 1503l-223 324h397l180 -324h-354zM694 -25q-126 0 -237 44t-190 120.5t-125 184t-46 229.5v860h391v-854q0 -89 59 -148t148 -59t148 59t59 148v854h391v-860q0 -122 -46 -229.5t-125 -184t-190 -120.5t-237 -44z" />
    <glyph glyph-name="uni0215" unicode="&#x215;" horiz-adv-x="1175" 
d="M174 1135l-223 323h397l180 -323h-354zM666 1135l-224 323h398l180 -323h-354zM588 -25q-229 0 -367.5 122t-138.5 323v624h369v-573q0 -63 37.5 -101t99.5 -38t99.5 38t37.5 101v573h369v-624q0 -201 -138.5 -323t-367.5 -122z" />
    <glyph glyph-name="uni0216" unicode="&#x216;" horiz-adv-x="1388" 
d="M326 1503q0 149 105 248.5t263 99.5t263.5 -99.5t105.5 -248.5h-283q0 38 -24.5 63t-61.5 25t-61.5 -25t-24.5 -63h-282zM694 -25q-126 0 -237 44t-190 120.5t-125 184t-46 229.5v860h391v-854q0 -89 59 -148t148 -59t148 59t59 148v854h391v-860q0 -122 -46 -229.5
t-125 -184t-190 -120.5t-237 -44z" />
    <glyph glyph-name="uni0217" unicode="&#x217;" horiz-adv-x="1175" 
d="M219 1135q0 149 105.5 248.5t263.5 99.5t263 -99.5t105 -248.5h-282q0 38 -24.5 63t-61.5 25t-61.5 -25t-24.5 -63h-283zM588 -25q-229 0 -367.5 122t-138.5 323v624h369v-573q0 -63 37.5 -101t99.5 -38t99.5 38t37.5 101v573h369v-624q0 -201 -138.5 -323t-367.5 -122z
" />
    <glyph glyph-name="uni0218" unicode="&#x218;" horiz-adv-x="1249" 
d="M647 -25q-166 0 -336 61t-288 161l198 299q91 -78 207 -125t217 -47q74 0 126 24t52 64q0 37 -52 60t-185 56q-504 125 -504 471q0 198 155.5 318.5t413.5 120.5q161 0 296 -47.5t222 -124.5l-178 -299q-65 56 -159 89.5t-185 33.5q-73 0 -118.5 -21t-45.5 -55
q0 -67 213 -115q37 -8 67.5 -16.5t88.5 -28.5t103 -43t98 -61.5t88.5 -82.5t59.5 -106t24 -133q0 -132 -76.5 -236t-208 -160.5t-293.5 -56.5zM391 -475l98 385h377l-172 -385h-303z" />
    <glyph glyph-name="uni0219" unicode="&#x219;" horiz-adv-x="985" 
d="M485 -25q-253 0 -462 154l157 225q145 -102 291 -102q125 0 125 53q0 27 -36 41.5t-116 30.5q-46 9 -73 15.5t-73.5 21t-75 30t-64 42t-55.5 57.5t-34 75.5t-14 98.5q0 115 62 196t163 118.5t230 37.5q232 0 432 -133l-158 -225q-147 82 -260 82q-106 0 -106 -45
q0 -25 36 -39.5t111 -28.5q44 -9 73 -15.5t74 -20.5t75.5 -29.5t65.5 -42t56 -58t35 -76t14 -98.5q0 -117 -63.5 -200.5t-169 -124t-240.5 -40.5zM246 -475l98 385h377l-172 -385h-303z" />
    <glyph glyph-name="uni021A" unicode="&#x21a;" horiz-adv-x="1202" 
d="M45 1413h1112v-369h-360v-1044h-391v1044h-361v369zM350 -475l99 385h376l-172 -385h-303z" />
    <glyph glyph-name="uni021B" unicode="&#x21b;" horiz-adv-x="854" 
d="M793 709h-244v-273q0 -48 28.5 -76t84.5 -28q59 0 131 35v-344q-92 -48 -211 -48q-137 0 -229 53.5t-132.5 141.5t-40.5 205v334h-139v335h139v246h369v-246h244v-335zM203 -475l98 385h377l-172 -385h-303z" />
    <glyph glyph-name="uni0232" unicode="&#x232;" horiz-adv-x="1382" 
d="M993 1823v-307h-602v307h602zM971 1413h436l-520 -948v-465h-391v465l-521 948h445l276 -534z" />
    <glyph glyph-name="uni0233" unicode="&#x233;" horiz-adv-x="1163" 
d="M883 1454v-307h-602v307h602zM764 1044h412l-461 -1183q-50 -125 -151.5 -200t-225.5 -75q-79 0 -165.5 30.5t-147.5 80.5l139 289q49 -43 112 -43q72 0 101 67l6 15l-395 1019h420l178 -552z" />
    <glyph glyph-name="uni0237" unicode="&#x237;" horiz-adv-x="581" 
d="M98 -414q-85 0 -155 25v330q49 -19 86 -19q41 0 61.5 20.5t20.5 55.5v1046h368v-1089q0 -166 -94.5 -267.5t-286.5 -101.5z" />
    <glyph glyph-name="uni02BC" unicode="&#x2bc;" horiz-adv-x="372" 
d="M0 971l43 504h330l-97 -504h-276z" />
    <glyph glyph-name="circumflex" unicode="&#x2c6;" horiz-adv-x="843" 
d="M844 1135h-344l-78 122l-78 -122h-344l201 323h442z" />
    <glyph glyph-name="caron" unicode="&#x2c7;" horiz-adv-x="843" 
d="M500 1458h344l-201 -323h-442l-201 323h344l78 -123z" />
    <glyph glyph-name="breve" unicode="&#x2d8;" horiz-adv-x="737" 
d="M369 1114q-158 0 -263.5 99.5t-105.5 248.5h283q0 -38 24.5 -63t61.5 -25t61.5 25t24.5 63h282q0 -149 -105 -248.5t-263 -99.5z" />
    <glyph glyph-name="dotaccent" unicode="&#x2d9;" horiz-adv-x="417" 
d="M209 1116q-89 0 -149 59t-60 148t60 148t149 59t149 -59t60 -148t-60 -148t-149 -59z" />
    <glyph glyph-name="ring" unicode="&#x2da;" horiz-adv-x="491" 
d="M246 1114q-104 0 -175 68.5t-71 169.5t71 169t175 68t175 -68t71 -169t-71 -169.5t-175 -68.5zM246 1292q25 0 41 17t16 43t-16 42.5t-41 16.5t-41.5 -16.5t-16.5 -42.5t16.5 -43t41.5 -17z" />
    <glyph glyph-name="ogonek" unicode="&#x2db;" horiz-adv-x="546" 
d="M311 -526q-138 0 -224.5 71.5t-86.5 180.5q0 92 62 169t159 111h279l4 -6q-215 -91 -215 -190q0 -37 25.5 -55.5t58.5 -18.5q49 0 94 28l80 -225q-95 -65 -236 -65z" />
    <glyph glyph-name="tilde" unicode="&#x2dc;" horiz-adv-x="780" 
d="M518 1145q-48 0 -90 13.5t-71.5 27.5t-47.5 14q-24 0 -38.5 -15.5t-14.5 -37.5h-256q0 152 67 248t195 96q47 0 88.5 -14.5t71.5 -28.5t49 -14q23 0 38 16t15 39h256q0 -155 -66.5 -249.5t-195.5 -94.5z" />
    <glyph glyph-name="hungarumlaut" unicode="&#x2dd;" horiz-adv-x="1069" 
d="M0 1135l180 323h398l-224 -323h-354zM492 1135l180 323h397l-223 -323h-354z" />
    <glyph glyph-name="gravecomb" unicode="&#x300;" horiz-adv-x="0" 
d="M-385 1135l-274 323h458l201 -323h-385z" />
    <glyph glyph-name="acutecomb" unicode="&#x301;" horiz-adv-x="0" 
d="M-659 1135l200 323h459l-274 -323h-385z" />
    <glyph glyph-name="uni0302" unicode="&#x302;" horiz-adv-x="0" 
d="M0 1135h-344l-78 122l-78 -122h-344l201 323h442z" />
    <glyph glyph-name="tildecomb" unicode="&#x303;" horiz-adv-x="0" 
d="M-262 1145q-48 0 -90 13.5t-71.5 27.5t-47.5 14q-24 0 -38.5 -15.5t-14.5 -37.5h-256q0 152 67 248t195 96q47 0 88.5 -14.5t71.5 -28.5t49 -14q23 0 38 16t15 39h256q0 -155 -66.5 -249.5t-195.5 -94.5z" />
    <glyph glyph-name="uni0304" unicode="&#x304;" horiz-adv-x="0" 
d="M-602 1147v307h602v-307h-602z" />
    <glyph glyph-name="uni0306" unicode="&#x306;" horiz-adv-x="0" 
d="M-369 1114q-158 0 -263 99.5t-105 248.5h282q0 -38 24.5 -63t61.5 -25t61.5 25t24.5 63h283q0 -149 -105.5 -248.5t-263.5 -99.5z" />
    <glyph glyph-name="uni0307" unicode="&#x307;" horiz-adv-x="0" 
d="M-209 1116q-89 0 -149 59t-60 148t60 148t149 59t149 -59t60 -148t-60 -148t-149 -59z" />
    <glyph glyph-name="uni0308" unicode="&#x308;" horiz-adv-x="0" 
d="M-662 1116q-85 0 -141.5 56t-56.5 141t56.5 140.5t141.5 55.5t142 -56t57 -140q0 -85 -57 -141t-142 -56zM-199 1116q-85 0 -141.5 56t-56.5 141t56.5 140.5t141.5 55.5t142 -56t57 -140q0 -85 -57 -141t-142 -56z" />
    <glyph glyph-name="uni030A" unicode="&#x30a;" horiz-adv-x="0" 
d="M-246 1114q-104 0 -175 68.5t-71 169.5t71 169t175 68t175 -68t71 -169t-71 -169.5t-175 -68.5zM-246 1292q25 0 41.5 17t16.5 43t-16.5 42.5t-41.5 16.5t-41 -16.5t-16 -42.5t16 -43t41 -17z" />
    <glyph glyph-name="uni030B" unicode="&#x30b;" horiz-adv-x="0" 
d="M-1069 1135l180 323h397l-223 -323h-354zM-578 1135l181 323h397l-223 -323h-355z" />
    <glyph glyph-name="uni030C" unicode="&#x30c;" horiz-adv-x="0" 
d="M-344 1458h344l-201 -323h-442l-201 323h344l78 -123z" />
    <glyph glyph-name="uni030F" unicode="&#x30f;" horiz-adv-x="0" 
d="M-846 1135l-223 323h397l180 -323h-354zM-354 1135l-224 323h398l180 -323h-354z" />
    <glyph glyph-name="uni0311" unicode="&#x311;" horiz-adv-x="0" 
d="M-737 1135q0 149 105 248.5t263 99.5t263.5 -99.5t105.5 -248.5h-283q0 38 -24.5 63t-61.5 25t-61.5 -25t-24.5 -63h-282z" />
    <glyph glyph-name="uni0312" unicode="&#x312;" horiz-adv-x="0" 
d="M-475 1135l172 385h303l-98 -385h-377z" />
    <glyph glyph-name="dotbelowcomb" unicode="&#x323;" horiz-adv-x="0" 
d="M-209 -485q-90 0 -149.5 58.5t-59.5 147.5t60 148t149 59t149 -59t60 -148t-59.5 -147.5t-149.5 -58.5z" />
    <glyph glyph-name="uni0326" unicode="&#x326;" horiz-adv-x="0" 
d="M-475 -475l98 385h377l-172 -385h-303z" />
    <glyph glyph-name="uni0327" unicode="&#x327;" horiz-adv-x="0" 
d="M-190 -53q83 -14 136.5 -79.5t53.5 -154.5q0 -108 -80.5 -181t-204.5 -73q-150 0 -266 107l121 153q70 -63 139 -63q32 0 53 16t21 41q0 23 -18 39.5t-44 16.5q-35 0 -53 -25l-203 90l138 166v4h254v-4z" />
    <glyph glyph-name="uni0328" unicode="&#x328;" horiz-adv-x="0" 
d="M-236 -526q-138 0 -224.5 71.5t-86.5 180.5q0 92 62 169t159 111h279l4 -6q-215 -91 -215 -190q0 -37 25.5 -55.5t58.5 -18.5q49 0 94 28l80 -225q-95 -65 -236 -65z" />
    <glyph glyph-name="uni0335" unicode="&#x335;" horiz-adv-x="0" 
d="M-664 432v262h664v-262h-664z" />
    <glyph glyph-name="uni0336" unicode="&#x336;" horiz-adv-x="0" 
d="M-1442 428v266h1442v-266h-1442z" />
    <glyph glyph-name="uni0337" unicode="&#x337;" horiz-adv-x="0" 
d="M-1178 0l922 1044h256l-922 -1044h-256z" />
    <glyph glyph-name="uni0338" unicode="&#x338;" horiz-adv-x="0" 
d="M-1509 0l1192 1413h317l-1192 -1413h-317z" />
    <glyph glyph-name="uni03BC" unicode="&#x3bc;" horiz-adv-x="1220" 
d="M750 1044h368v-1044h-368v57q-102 -82 -232 -82q-33 0 -47 2v-366h-369v1433h369v-571q0 -65 36 -103t97 -38q65 0 105.5 39.5t40.5 105.5v567z" />
    <glyph glyph-name="uni1E0C" unicode="&#x1e0c;" horiz-adv-x="1458" 
d="M680 1413q205 0 371.5 -92t261 -253.5t94.5 -360.5t-94.5 -361t-261 -254t-371.5 -92h-563v1413h563zM672 369q143 0 238.5 96.5t95.5 241.5t-95.5 241t-238.5 96h-164v-675h164zM715 -72q89 0 149 -59t60 -148t-59.5 -147.5t-149.5 -58.5t-149.5 58.5t-59.5 147.5
t60 148t149 59z" />
    <glyph glyph-name="uni1E0D" unicode="&#x1e0d;" 
d="M805 1475h369v-1475h-369v66q-115 -91 -262 -91q-139 0 -252.5 71.5t-177.5 197t-64 278.5t64 278.5t177.5 197t252.5 71.5q148 0 262 -90v496zM616 332q82 0 135.5 54t53.5 136t-53.5 136.5t-135.5 54.5q-81 0 -134.5 -54.5t-53.5 -136.5t53 -136t135 -54zM631 -72
q89 0 149 -59t60 -148t-59.5 -147.5t-149.5 -58.5t-149.5 58.5t-59.5 147.5t60 148t149 59z" />
    <glyph glyph-name="uni1E24" unicode="&#x1e24;" horiz-adv-x="1458" 
d="M950 1413h391v-1413h-391v526h-442v-526h-391v1413h391v-518h442v518zM729 -72q89 0 149 -59t60 -148t-59.5 -147.5t-149.5 -58.5t-149.5 58.5t-59.5 147.5t60 148t149 59z" />
    <glyph glyph-name="uni1E25" unicode="&#x1e25;" horiz-adv-x="1220" 
d="M754 1069q173 0 279 -105t106 -278v-686h-369v561q0 69 -38.5 110.5t-102.5 41.5q-71 0 -114.5 -43t-43.5 -113v-557h-369v1475h369v-517q117 111 283 111zM621 -72q89 0 148.5 -59t59.5 -148t-59.5 -147.5t-148.5 -58.5q-90 0 -149.5 58.5t-59.5 147.5t60 148t149 59z
" />
    <glyph glyph-name="uni1E44" unicode="&#x1e44;" horiz-adv-x="1482" 
d="M752 1485q-89 0 -149 59t-60 148t59.5 147.5t149.5 58.5t149.5 -58.5t59.5 -147.5t-60 -148t-149 -59zM975 1413h391v-1413h-391l-467 723v-723h-391v1413h391l467 -723v723z" />
    <glyph glyph-name="uni1E45" unicode="&#x1e45;" horiz-adv-x="1220" 
d="M625 1116q-89 0 -149 59t-60 148t60 148t149 59t149 -59t60 -148t-60 -148t-149 -59zM754 1069q173 0 279 -105t106 -278v-686h-369v561q0 69 -38.5 110.5t-104.5 41.5q-69 0 -112.5 -43t-43.5 -113v-557h-369v1044h369v-77q117 102 283 102z" />
    <glyph glyph-name="uni1E5A" unicode="&#x1e5a;" horiz-adv-x="1325" 
d="M508 438v-438h-391v1413h635q223 0 372.5 -142.5t149.5 -355.5q0 -132 -64.5 -239t-175.5 -170l283 -506h-469l-217 438h-123zM743 1044h-235v-266h235q55 0 92 38t37 95t-37 95t-92 38zM664 -72q89 0 148.5 -59t59.5 -148t-59.5 -147.5t-148.5 -58.5q-90 0 -149.5 58.5
t-59.5 147.5t60 148t149 59z" />
    <glyph glyph-name="uni1E5B" unicode="&#x1e5b;" horiz-adv-x="780" 
d="M711 1061h51v-379h-51q-118 0 -179 -57t-61 -158v-467h-369v1044h369v-88q105 105 240 105zM287 -72q89 0 149 -59t60 -148t-59.5 -147.5t-149.5 -58.5t-149.5 58.5t-59.5 147.5t60 148t149 59z" />
    <glyph glyph-name="uni1E62" unicode="&#x1e62;" horiz-adv-x="1249" 
d="M647 -25q-166 0 -336 61t-288 161l198 299q91 -78 207 -125t217 -47q74 0 126 24t52 64q0 37 -52 60t-185 56q-504 125 -504 471q0 198 155.5 318.5t413.5 120.5q161 0 296 -47.5t222 -124.5l-178 -299q-65 56 -159 89.5t-185 33.5q-73 0 -118.5 -21t-45.5 -55
q0 -67 213 -115q37 -8 67.5 -16.5t88.5 -28.5t103 -43t98 -61.5t88.5 -82.5t59.5 -106t24 -133q0 -132 -76.5 -236t-208 -160.5t-293.5 -56.5zM643 -485q-90 0 -149.5 58.5t-59.5 147.5t60 148t149 59t149 -59t60 -148t-59.5 -147.5t-149.5 -58.5z" />
    <glyph glyph-name="uni1E63" unicode="&#x1e63;" horiz-adv-x="985" 
d="M485 -25q-253 0 -462 154l157 225q145 -102 291 -102q125 0 125 53q0 27 -36 41.5t-116 30.5q-46 9 -73 15.5t-73.5 21t-75 30t-64 42t-55.5 57.5t-34 75.5t-14 98.5q0 115 62 196t163 118.5t230 37.5q232 0 432 -133l-158 -225q-147 82 -260 82q-106 0 -106 -45
q0 -25 36 -39.5t111 -28.5q44 -9 73 -15.5t74 -20.5t75.5 -29.5t65.5 -42t56 -58t35 -76t14 -98.5q0 -117 -63.5 -200.5t-169 -124t-240.5 -40.5zM498 -485q-90 0 -149.5 58.5t-59.5 147.5t60 148t149 59t149 -59t60 -148t-59.5 -147.5t-149.5 -58.5z" />
    <glyph glyph-name="uni1E6C" unicode="&#x1e6c;" horiz-adv-x="1202" 
d="M45 1413h1112v-369h-360v-1044h-391v1044h-361v369zM602 -72q89 0 149 -59t60 -148t-59.5 -147.5t-149.5 -58.5t-149.5 58.5t-59.5 147.5t60 148t149 59z" />
    <glyph glyph-name="uni1E6D" unicode="&#x1e6d;" horiz-adv-x="854" 
d="M793 709h-244v-273q0 -48 28.5 -76t84.5 -28q59 0 131 35v-344q-92 -48 -211 -48q-137 0 -229 53.5t-132.5 141.5t-40.5 205v334h-139v335h139v246h369v-246h244v-335zM455 -72q89 0 149 -59t60 -148t-59.5 -147.5t-149.5 -58.5t-149.5 58.5t-59.5 147.5t60 148t149 59z
" />
    <glyph glyph-name="Wgrave" unicode="&#x1e80;" horiz-adv-x="2041" 
d="M1229 1503h-385l-275 324h459zM1632 1413h404l-428 -1413h-389l-197 786l-199 -786h-387l-430 1413h414l219 -858l217 858h340l219 -858z" />
    <glyph glyph-name="wgrave" unicode="&#x1e81;" horiz-adv-x="1744" 
d="M1079 1135h-385l-274 323h459zM1350 1044h401l-356 -1044h-377l-146 569l-145 -569h-377l-356 1044h412l141 -542l143 542h373l145 -546z" />
    <glyph glyph-name="Wacute" unicode="&#x1e82;" horiz-adv-x="2041" 
d="M1475 1827l-275 -324h-385l201 324h459zM1632 1413h404l-428 -1413h-389l-197 786l-199 -786h-387l-430 1413h414l219 -858l217 858h340l219 -858z" />
    <glyph glyph-name="wacute" unicode="&#x1e83;" horiz-adv-x="1744" 
d="M1325 1458l-274 -323h-385l200 323h459zM1350 1044h401l-356 -1044h-377l-146 569l-145 -569h-377l-356 1044h412l141 -542l143 542h373l145 -546z" />
    <glyph glyph-name="Wdieresis" unicode="&#x1e84;" horiz-adv-x="2041" 
d="M791 1485q-85 0 -142 56t-57 140q0 85 57 141t142 56t141.5 -56t56.5 -141t-56.5 -140.5t-141.5 -55.5zM1253 1485q-85 0 -141.5 55.5t-56.5 140.5t56.5 141t141.5 56t142 -56t57 -141q0 -84 -57 -140t-142 -56zM1632 1413h404l-428 -1413h-389l-197 786l-199 -786h-387
l-430 1413h414l219 -858l217 858h340l219 -858z" />
    <glyph glyph-name="wdieresis" unicode="&#x1e85;" horiz-adv-x="1744" 
d="M641 1116q-85 0 -142 56t-57 141q0 84 57 140t142 56t142 -56t57 -140q0 -85 -57 -141t-142 -56zM1104 1116q-85 0 -142 56t-57 141q0 84 57 140t142 56t142 -56t57 -140q0 -85 -57 -141t-142 -56zM1350 1044h401l-356 -1044h-377l-146 569l-145 -569h-377l-356 1044h412
l141 -542l143 542h373l145 -546z" />
    <glyph glyph-name="uni1E92" unicode="&#x1e92;" horiz-adv-x="1257" 
d="M600 369h596v-369h-1135v281l582 763h-573v369h1112v-280zM627 -72q89 0 149 -59t60 -148t-59.5 -147.5t-149.5 -58.5t-149.5 58.5t-59.5 147.5t60 148t149 59z" />
    <glyph glyph-name="uni1E93" unicode="&#x1e93;" horiz-adv-x="1011" 
d="M584 356h366v-356h-889v268l353 420h-344v356h866v-268zM506 -72q89 0 149 -59t60 -148t-59.5 -147.5t-149.5 -58.5t-149.5 58.5t-59.5 147.5t60 148t149 59z" />
    <glyph glyph-name="uni1E9E" unicode="&#x1e9e;" horiz-adv-x="1357" 
d="M1071 846q124 -56 197 -168t73 -250q0 -194 -135.5 -323.5t-335.5 -129.5q-62 0 -128 13t-107 32v386q26 -23 75 -38.5t93 -15.5q61 0 99 26t38 68q0 36 -26 61t-64 25h-170v285l151 227h-221q-51 0 -80.5 -29.5t-29.5 -80.5v-934h-391v977q0 196 125 316t331 120h690
v-323z" />
    <glyph glyph-name="uni1EA0" unicode="&#x1ea0;" horiz-adv-x="1476" 
d="M1477 0h-428l-64 195h-502l-63 -195h-420l508 1413h461zM598 555h272l-135 424zM735 -72q89 0 149 -59t60 -148t-59.5 -147.5t-149.5 -58.5t-149.5 58.5t-59.5 147.5t60 148t149 59z" />
    <glyph glyph-name="uni1EA1" unicode="&#x1ea1;" 
d="M805 1044h369v-1044h-369v66q-115 -91 -262 -91q-139 0 -252.5 71.5t-177.5 197t-64 278.5t64 278.5t177.5 197t252.5 71.5q148 0 262 -90v65zM616 332q82 0 135.5 54t53.5 136t-53.5 136.5t-135.5 54.5q-81 0 -134.5 -54.5t-53.5 -136.5t53 -136t135 -54zM649 -72
q89 0 149 -59t60 -148t-59.5 -147.5t-149.5 -58.5t-149.5 58.5t-59.5 147.5t60 148t149 59z" />
    <glyph glyph-name="uni1EB8" unicode="&#x1eb8;" horiz-adv-x="1173" 
d="M508 369h596v-369h-987v1413h977v-369h-586v-149h520v-369h-520v-157zM610 -72q89 0 149 -59t60 -148t-59.5 -147.5t-149.5 -58.5t-149.5 58.5t-59.5 147.5t60 148t149 59z" />
    <glyph glyph-name="uni1EB9" unicode="&#x1eb9;" horiz-adv-x="1198" 
d="M1157 514q0 -60 -8 -96h-709q25 -62 77.5 -96.5t123.5 -34.5q66 0 121 27t90 63l242 -213q-86 -89 -206 -139t-257 -50q-252 0 -420 158.5t-168 394.5q0 230 161 385.5t400 155.5q237 0 395 -157.5t158 -397.5zM600 758q-56 0 -99 -34t-65 -95h328q-20 61 -64 95t-100 34
zM610 -72q89 0 149 -59t60 -148t-59.5 -147.5t-149.5 -58.5t-149.5 58.5t-59.5 147.5t60 148t149 59z" />
    <glyph glyph-name="uni1EBC" unicode="&#x1ebc;" horiz-adv-x="1173" 
d="M528 1569q-24 0 -38.5 -15.5t-14.5 -37.5h-256q0 152 67 248t195 96q47 0 88.5 -14.5t71.5 -29t49 -14.5q23 0 38 16t15 40h256q0 -155 -66.5 -250t-195.5 -95q-63 0 -128 28t-81 28zM508 369h596v-369h-987v1413h977v-369h-586v-149h520v-369h-520v-157z" />
    <glyph glyph-name="uni1EBD" unicode="&#x1ebd;" horiz-adv-x="1198" 
d="M528 1200q-24 0 -38.5 -15.5t-14.5 -37.5h-256q0 152 67 248t195 96q47 0 88.5 -14.5t71.5 -28.5t49 -14q23 0 38 16t15 39h256q0 -155 -66.5 -249.5t-195.5 -94.5q-63 0 -128 27.5t-81 27.5zM1157 514q0 -60 -8 -96h-709q25 -62 77.5 -96.5t123.5 -34.5q66 0 121 27
t90 63l242 -213q-86 -89 -206 -139t-257 -50q-252 0 -420 158.5t-168 394.5q0 230 161 385.5t400 155.5q237 0 395 -157.5t158 -397.5zM600 758q-56 0 -99 -34t-65 -95h328q-20 61 -64 95t-100 34z" />
    <glyph glyph-name="uni1ECA" unicode="&#x1eca;" horiz-adv-x="624" 
d="M117 0v1413h391v-1413h-391zM313 -485q-90 0 -149.5 58.5t-59.5 147.5t60 148t149 59t149 -59t60 -148t-59.5 -147.5t-149.5 -58.5z" />
    <glyph glyph-name="uni1ECB" unicode="&#x1ecb;" horiz-adv-x="573" 
d="M287 1135q-96 0 -160 63t-64 158t64 158t160 63q95 0 159 -63t64 -158t-64 -158t-159 -63zM102 0v1044h369v-1044h-369zM287 -485q-90 0 -149.5 58.5t-59.5 147.5t60 148t149 59t149 -59t60 -148t-59.5 -147.5t-149.5 -58.5z" />
    <glyph glyph-name="uni1ECC" unicode="&#x1ecc;" horiz-adv-x="1605" 
d="M803 -25q-158 0 -297.5 56.5t-239.5 153.5t-157.5 232.5t-57.5 289.5q0 205 98 372.5t270.5 263t383.5 95.5t383 -95.5t270 -263t98 -372.5t-98 -373t-270 -263.5t-383 -95.5zM803 352q149 0 249.5 101.5t100.5 253.5t-100 253t-250 101t-250 -101t-100 -253
t100.5 -253.5t249.5 -101.5zM803 -485q-90 0 -149.5 58.5t-59.5 147.5t60 148t149 59t149 -59t60 -148t-59.5 -147.5t-149.5 -58.5z" />
    <glyph glyph-name="uni1ECD" unicode="&#x1ecd;" horiz-adv-x="1220" 
d="M610 -25q-160 0 -290 71.5t-203.5 197t-73.5 278.5t73.5 278.5t203.5 197t290 71.5q243 0 405.5 -157t162.5 -390t-162.5 -390t-405.5 -157zM610 332q82 0 135.5 54t53.5 136t-53.5 136.5t-135.5 54.5q-81 0 -134.5 -54.5t-53.5 -136.5t53 -136t135 -54zM610 -485
q-90 0 -149.5 58.5t-59.5 147.5t60 148t149 59t149 -59t60 -148t-59.5 -147.5t-149.5 -58.5z" />
    <glyph glyph-name="uni1EE4" unicode="&#x1ee4;" horiz-adv-x="1388" 
d="M694 -25q-126 0 -237 44t-190 120.5t-125 184t-46 229.5v860h391v-854q0 -89 59 -148t148 -59t148 59t59 148v854h391v-860q0 -122 -46 -229.5t-125 -184t-190 -120.5t-237 -44zM694 -485q-90 0 -149.5 58.5t-59.5 147.5t60 148t149 59t149 -59t60 -148t-59.5 -147.5
t-149.5 -58.5z" />
    <glyph glyph-name="uni1EE5" unicode="&#x1ee5;" horiz-adv-x="1175" 
d="M588 -25q-229 0 -367.5 122t-138.5 323v624h369v-573q0 -63 37.5 -101t99.5 -38t99.5 38t37.5 101v573h369v-624q0 -201 -138.5 -323t-367.5 -122zM588 -485q-90 0 -149.5 58.5t-59.5 147.5t60 148t149 59t149 -59t60 -148t-59.5 -147.5t-149.5 -58.5z" />
    <glyph glyph-name="Ygrave" unicode="&#x1ef2;" horiz-adv-x="1382" 
d="M899 1503h-385l-274 324h458zM971 1413h436l-520 -948v-465h-391v465l-521 948h445l276 -534z" />
    <glyph glyph-name="ygrave" unicode="&#x1ef3;" horiz-adv-x="1163" 
d="M788 1135h-385l-274 323h459zM764 1044h412l-461 -1183q-50 -125 -151.5 -200t-225.5 -75q-79 0 -165.5 30.5t-147.5 80.5l139 289q49 -43 112 -43q72 0 101 67l6 15l-395 1019h420l178 -552z" />
    <glyph glyph-name="uni1EF8" unicode="&#x1ef8;" horiz-adv-x="1382" 
d="M610 1569q-24 0 -38.5 -15.5t-14.5 -37.5h-256q0 152 67 248t195 96q47 0 88.5 -14.5t71.5 -29t49 -14.5q23 0 38 16t15 40h256q0 -155 -66.5 -250t-195.5 -95q-63 0 -128 28t-81 28zM971 1413h436l-520 -948v-465h-391v465l-521 948h445l276 -534z" />
    <glyph glyph-name="uni1EF9" unicode="&#x1ef9;" horiz-adv-x="1163" 
d="M500 1200q-24 0 -39 -15.5t-15 -37.5h-256q0 152 67.5 248t195.5 96q47 0 88.5 -14.5t71.5 -28.5t49 -14q23 0 38 16t15 39h256q0 -155 -66.5 -249.5t-195.5 -94.5q-64 0 -128.5 27.5t-80.5 27.5zM764 1044h412l-461 -1183q-50 -125 -151.5 -200t-225.5 -75
q-79 0 -165.5 30.5t-147.5 80.5l139 289q49 -43 112 -43q72 0 101 67l6 15l-395 1019h420l178 -552z" />
    <glyph glyph-name="endash" unicode="&#x2013;" horiz-adv-x="1245" 
d="M106 395v332h1033v-332h-1033z" />
    <glyph glyph-name="emdash" unicode="&#x2014;" horiz-adv-x="2187" 
d="M106 395v332h1975v-332h-1975z" />
    <glyph glyph-name="quoteleft" unicode="&#x2018;" horiz-adv-x="630" 
d="M51 780l258 633h316l-146 -633h-428z" />
    <glyph glyph-name="quoteright" unicode="&#x2019;" horiz-adv-x="630" 
d="M51 780l146 633h428l-258 -633h-316z" />
    <glyph glyph-name="quotesinglbase" unicode="&#x201a;" horiz-adv-x="575" 
d="M-25 -276l146 632h428l-258 -632h-316z" />
    <glyph glyph-name="quotedblleft" unicode="&#x201c;" horiz-adv-x="1163" 
d="M51 780l258 633h316l-146 -633h-428zM584 780l258 633h315l-145 -633h-428z" />
    <glyph glyph-name="quotedblright" unicode="&#x201d;" horiz-adv-x="1163" 
d="M51 780l146 633h428l-258 -633h-316zM584 780l145 633h428l-258 -633h-315z" />
    <glyph glyph-name="quotedblbase" unicode="&#x201e;" horiz-adv-x="1107" 
d="M-25 -276l146 632h428l-258 -632h-316zM508 -276l145 632h428l-258 -632h-315z" />
    <glyph glyph-name="dagger" unicode="&#x2020;" horiz-adv-x="1011" 
d="M905 1044v-331h-231v-1102h-336v1102h-232v331h232v369h336v-369h231z" />
    <glyph glyph-name="daggerdbl" unicode="&#x2021;" horiz-adv-x="1011" 
d="M905 713h-231v-361h231v-332h-231v-409h-336v409h-232v332h232v361h-232v331h232v369h336v-369h231v-331z" />
    <glyph glyph-name="bullet" unicode="&#x2022;" horiz-adv-x="790" 
d="M395 274q-123 0 -206 82t-83 205t83 205t206 82t206 -82t83 -205t-83 -205t-206 -82z" />
    <glyph glyph-name="ellipsis" unicode="&#x2026;" horiz-adv-x="1798" 
d="M285 -25q-106 0 -177 71t-71 175t71 175t177 71q105 0 176 -70.5t71 -175.5t-71 -175.5t-176 -70.5zM899 -25q-106 0 -177 71t-71 175t71 175t177 71t177 -71t71 -175t-71 -175t-177 -71zM1513 -25q-105 0 -176 70.5t-71 175.5t71 175.5t176 70.5q106 0 177 -71t71 -175
t-71 -175t-177 -71z" />
    <glyph glyph-name="perthousand" unicode="&#x2030;" horiz-adv-x="2621" 
d="M436 713q-158 0 -264 104.5t-106 259.5q0 154 106 257.5t264 103.5t264.5 -103.5t106.5 -257.5q0 -155 -106.5 -259.5t-264.5 -104.5zM205 0l1024 1413h391l-1024 -1413h-391zM436 1008q29 0 48.5 20t19.5 49q0 28 -19.5 47t-48.5 19t-48 -19t-19 -47q0 -29 19 -49
t48 -20zM1386 -25q-158 0 -264 105t-106 260q0 154 106 257t264 103t264.5 -103t106.5 -257q0 -155 -106.5 -260t-264.5 -105zM2185 -25q-158 0 -264 105t-106 260q0 154 106 257t264 103t264.5 -103t106.5 -257q0 -155 -106.5 -260t-264.5 -105zM1386 270q29 0 48.5 20.5
t19.5 49.5q0 28 -19.5 47t-48.5 19t-48 -19t-19 -47q0 -30 19 -50t48 -20zM2185 270q29 0 48.5 20.5t19.5 49.5q0 28 -19.5 47t-48.5 19t-48 -19t-19 -47q0 -30 19 -50t48 -20z" />
    <glyph glyph-name="guilsinglleft" unicode="&#x2039;" horiz-adv-x="778" 
d="M752 963l-283 -422l283 -422h-430l-281 422l281 422h430z" />
    <glyph glyph-name="guilsinglright" unicode="&#x203a;" horiz-adv-x="778" 
d="M471 963l281 -422l-281 -422h-430l283 422l-283 422h430z" />
    <glyph glyph-name="fraction" unicode="&#x2044;" horiz-adv-x="436" 
d="M-422 0l946 1413h334l-946 -1413h-334z" />
    <glyph glyph-name="uni2070" unicode="&#x2070;" horiz-adv-x="808" 
d="M381 735q-152 0 -248 122.5t-96 316.5t96 316t248 122t248 -122t96 -316t-96 -316.5t-248 -122.5zM381 989q32 0 52 52.5t20 132.5t-20 132t-52 52q-31 0 -51.5 -51.5t-20.5 -132.5t20.5 -133t51.5 -52z" />
    <glyph glyph-name="uni2074" unicode="&#x2074;" horiz-adv-x="774" 
d="M707 1120v-250h-58v-120h-266v120h-297l-61 217l329 510h295v-477h58zM285 1120h98v166z" />
    <glyph glyph-name="uni2075" unicode="&#x2075;" horiz-adv-x="737" 
d="M395 1313q125 0 210 -81.5t85 -201.5q0 -127 -96 -211t-248 -84q-170 0 -311 96l129 216q77 -58 164 -58q43 0 66.5 15t23.5 36q0 17 -15.5 28t-40.5 11q-34 0 -55 -24l-235 67l45 475h514v-245h-291l-2 -45q24 6 57 6z" />
    <glyph glyph-name="uni2076" unicode="&#x2076;" horiz-adv-x="712" 
d="M438 1307q105 0 178.5 -80.5t73.5 -194.5q0 -128 -95.5 -212.5t-236.5 -84.5q-151 0 -242 102.5t-91 266.5q0 207 147 349t406 159l49 -246q-147 -6 -236 -63q16 4 47 4zM356 985q26 0 44 12t18 31q0 18 -18.5 30.5t-45.5 12.5q-26 0 -41.5 -14t-15.5 -31t17.5 -29
t41.5 -12z" />
    <glyph glyph-name="uni2077" unicode="&#x2077;" horiz-adv-x="669" 
d="M33 1597h588v-208l-269 -639h-299l256 598h-276v249z" />
    <glyph glyph-name="uni2078" unicode="&#x2078;" horiz-adv-x="763" 
d="M621 1190q102 -73 102 -189q0 -113 -97.5 -189.5t-244.5 -76.5q-145 0 -242.5 76t-97.5 190q0 116 102 189q-86 73 -86 172q0 105 92 177.5t232 72.5t234 -72.5t94 -177.5q0 -101 -88 -172zM381 1368q-22 0 -37.5 -10t-15.5 -25q0 -14 15.5 -23.5t37.5 -9.5q23 0 39 9.5
t16 23.5q0 15 -16 25t-39 10zM381 985q30 0 51 12.5t21 30.5q0 17 -21.5 29t-50.5 12q-28 0 -48 -12t-20 -29q0 -18 19.5 -30.5t48.5 -12.5z" />
    <glyph glyph-name="uni2079" unicode="&#x2079;" horiz-adv-x="712" 
d="M354 1612q151 0 242.5 -102.5t91.5 -266.5q0 -211 -150.5 -356.5t-402.5 -151.5l-49 246q145 0 240 63q-36 -4 -52 -4q-105 0 -178 80.5t-73 194.5q0 128 95 212.5t236 84.5zM295 1319q0 -19 18 -31t45 -12q26 0 42 14t16 31t-17.5 29t-42.5 12t-43 -12.5t-18 -30.5z" />
    <glyph glyph-name="franc" unicode="&#x20a3;" horiz-adv-x="1136" 
d="M1065 1044h-514v-124h438v-369h-438v-94h289v-336h-289v-121h-391v121h-90v336h90v956h905v-369z" />
    <glyph glyph-name="lira" unicode="&#x20a4;" horiz-adv-x="1208" 
d="M578 469v-100h579v-369h-1061v369h90v100h-90v180h90v74h-90v180h90v39q0 212 152 354t381 142q125 0 239 -45t201 -121l-198 -287q-52 34 -117 55t-121 21q-67 0 -106 -33t-39 -86v-39h342v-180h-342v-74h342v-180h-342z" />
    <glyph glyph-name="peseta" unicode="&#x20a7;" horiz-adv-x="1394" 
d="M1376 989v-246h-80q-42 -191 -196 -310.5t-365 -119.5h-172v-307h-391v737h-90v246h90v430h563q211 0 365 -119.5t196 -310.5h80zM563 1051v-62h301q-52 62 -137 62h-164zM727 682q85 0 137 61h-301v-61h164z" />
    <glyph glyph-name="uni20A8" unicode="&#x20a8;" horiz-adv-x="2308" 
d="M1274 915q0 -132 -64.5 -239t-175.5 -170l283 -506h-469l-217 438h-123v-438h-391v1413h635q223 0 372.5 -142.5t149.5 -355.5zM1888 680q44 -9 73 -15.5t74 -20.5t75.5 -29.5t65.5 -42t56 -58t35 -76t14 -98.5q0 -117 -63.5 -200.5t-169 -124t-240.5 -40.5
q-253 0 -462 154l157 225q145 -102 291 -102q125 0 125 53q0 27 -36 41.5t-116 30.5q-46 9 -73 15.5t-73.5 21t-75 30t-64 42t-55.5 57.5t-34 75.5t-14 98.5q0 115 62 196t163 118.5t230 37.5q233 0 432 -133l-158 -225q-147 82 -260 82q-106 0 -106 -45q0 -25 36 -39.5
t111 -28.5zM508 1044v-266h235q55 0 92 38t37 95t-37 95t-92 38h-235z" />
    <glyph glyph-name="Euro" unicode="&#x20ac;" horiz-adv-x="1525" 
d="M979 1061q-102 0 -185.5 -36t-138.5 -101h584l-39 -181h-618q-2 -12 -2 -36q0 -25 2 -37h606l-39 -181h-494q55 -65 138.5 -101t185.5 -36q126 0 244 53.5t200 141.5v-412q-211 -160 -493 -160q-259 0 -455 142t-266 372h-158l39 181h88v37v36h-127l39 181h119
q69 229 265 371.5t458 142.5q280 0 491 -160v-412q-82 88 -200 141.5t-244 53.5z" />
    <glyph glyph-name="uni20B1" unicode="&#x20b1;" horiz-adv-x="1394" 
d="M1376 1020v-135h-67v-25v-24h67v-136h-90q-52 -177 -201.5 -285t-349.5 -108h-172v-307h-391v700h-90v136h90v49h-90v135h90v393h563q200 0 349.5 -108t201.5 -285h90zM563 1077v-57h277q-60 57 -150 57h-127zM907 860q0 17 -2 25h-342v-49h342q2 8 2 24zM690 643
q90 0 150 57h-277v-57h127z" />
    <glyph glyph-name="uni20B5" unicode="&#x20b5;" horiz-adv-x="1482" 
d="M934 369q112 38 178 131l332 -215q-87 -124 -218.5 -202.5t-291.5 -100.5v-125h-246v129q-270 45 -443 245t-173 476t172.5 475.5t443.5 244.5v129h246v-124q160 -22 291.5 -101t218.5 -203l-332 -215q-66 93 -178 131v-675zM473 707q0 -114 58.5 -202t156.5 -128v659
q-98 -40 -156.5 -127.5t-58.5 -201.5z" />
    <glyph glyph-name="uni20B9" unicode="&#x20b9;" horiz-adv-x="1218" 
d="M930 1208q67 -89 88 -200h160l-62 -205h-98q-28 -147 -128 -253.5t-245 -143.5l428 -406h-541l-409 399v349h354q71 0 117 55h-471v205h471q-44 57 -117 57h-354v348h1055l-62 -205h-186z" />
    <glyph glyph-name="uni2116" unicode="&#x2116;" horiz-adv-x="2316" 
d="M1864 651q-172 0 -287 113t-115 280q0 168 115.5 281t286.5 113t286 -113t115 -281t-115 -280.5t-286 -112.5zM975 690v723h391v-1413h-391l-467 723v-723h-391v1413h391zM1864 1133q-37 0 -61.5 -25.5t-24.5 -63.5t24.5 -63t61.5 -25t61.5 25t24.5 63t-24.5 63.5
t-61.5 25.5zM1495 244v331h737v-331h-737z" />
    <glyph glyph-name="trademark" unicode="&#x2122;" horiz-adv-x="1304" 
d="M4 1229v184h469v-184h-137v-430h-195v430h-137zM1004 1413h235v-614h-192v319l-101 -237h-110l-101 237v-319h-194v614h243l111 -262z" />
    <glyph glyph-name="uni2150" unicode="&#x2150;" horiz-adv-x="1849" 
d="M465 565h-266v531l-84 -49l-115 213l274 153h191v-848zM1165 1413h334l-946 -1413h-334zM1212 848h588v-209l-268 -639h-299l256 598h-277v250z" />
    <glyph glyph-name="uni2151" unicode="&#x2151;" horiz-adv-x="1789" 
d="M465 565h-266v531l-84 -49l-115 213l274 153h191v-848zM1165 1413h334l-946 -1413h-334zM1432 862q151 0 242 -102t91 -266q0 -211 -150.5 -356.5t-402.5 -151.5l-49 245q143 0 240 64q-36 -4 -51 -4q-106 0 -179 80t-73 194q0 128 95.5 212.5t236.5 84.5zM1372 569
q0 -18 18.5 -30.5t45.5 -12.5q26 0 41.5 14t15.5 31t-17 29t-42 12t-43.5 -12.5t-18.5 -30.5z" />
    <glyph glyph-name="uni2152" unicode="&#x2152;" horiz-adv-x="2486" 
d="M465 565h-266v531l-84 -49l-115 213l274 153h191v-848zM1165 1413h334l-946 -1413h-334zM2058 862q152 0 248 -122t96 -316t-96 -316t-248 -122t-248 122t-96 316t96 316t248 122zM1139 694l274 154h191v-848h-267v530l-84 -49zM2058 240q32 0 52 52t20 132t-20 132
t-52 52q-31 0 -51 -51.5t-20 -132.5t20 -132.5t51 -51.5z" />
    <glyph glyph-name="uni2153" unicode="&#x2153;" horiz-adv-x="1800" 
d="M465 565h-266v531l-84 -49l-115 213l274 153h191v-848zM1165 1413h334l-946 -1413h-334zM1649 438q110 -68 110 -196q0 -115 -94 -185.5t-244 -70.5q-94 0 -183.5 31t-145.5 85l149 197q29 -26 74 -42.5t88 -16.5q38 0 61 11t23 30q0 20 -23.5 31.5t-60.5 11.5h-113v225
h113q70 0 70 26q0 15 -24 24t-60 9q-68 0 -129 -28l-140 192q53 40 135.5 65t165.5 25q144 0 234 -68.5t90 -177.5q0 -111 -96 -178z" />
    <glyph glyph-name="uni2154" unicode="&#x2154;" horiz-adv-x="1908" 
d="M45 782l236 244q67 67 67 104q0 15 -14 24t-35 9q-48 0 -117 -59l-178 174q48 67 131.5 108t179.5 41q136 0 219.5 -79t83.5 -201q0 -136 -104 -240l-92 -92h203v-250h-580v217zM1274 1413h334l-946 -1413h-334zM1757 438q111 -68 111 -196q0 -115 -94 -185.5t-244 -70.5
q-94 0 -184 31t-146 85l150 197q29 -26 73.5 -42.5t87.5 -16.5q38 0 61 11t23 30q0 20 -23.5 31.5t-60.5 11.5h-112v225h112q70 0 70 26q0 15 -24 24t-60 9q-68 0 -129 -28l-139 192q53 40 135.5 65t165.5 25q144 0 233.5 -68.5t89.5 -177.5q0 -111 -96 -178z" />
    <glyph glyph-name="uni2155" unicode="&#x2155;" horiz-adv-x="1845" 
d="M465 565h-266v531l-84 -49l-115 213l274 153h191v-848zM1165 1413h334l-946 -1413h-334zM1503 563q125 0 210 -81t85 -201q0 -127 -96 -211t-248 -84q-170 0 -311 96l129 215q75 -57 164 -57q43 0 66.5 15t23.5 36q0 17 -15.5 28t-40.5 11q-33 0 -55 -25l-235 68l45 475
h514v-246h-291l-2 -45q24 6 57 6z" />
    <glyph glyph-name="uni2156" unicode="&#x2156;" horiz-adv-x="1953" 
d="M45 782l236 244q67 67 67 104q0 15 -14 24t-35 9q-48 0 -117 -59l-178 174q48 67 131.5 108t179.5 41q136 0 219.5 -79t83.5 -201q0 -136 -104 -240l-92 -92h203v-250h-580v217zM1274 1413h334l-946 -1413h-334zM1612 563q125 0 210 -81t85 -201q0 -127 -96 -211
t-248 -84q-171 0 -312 96l129 215q75 -57 164 -57q43 0 66.5 15t23.5 36q0 17 -15 28t-40 11q-33 0 -55 -25l-236 68l45 475h514v-246h-291l-2 -45q24 6 58 6z" />
    <glyph glyph-name="uni2157" unicode="&#x2157;" horiz-adv-x="1937" 
d="M315 805q38 0 61 11t23 30q0 20 -23.5 31.5t-60.5 11.5h-112v225h112q70 0 70 27q0 15 -24 24t-60 9q-66 0 -129 -29l-139 192q53 40 135.5 65t165.5 25q144 0 233.5 -68t89.5 -177q0 -111 -96 -178q111 -68 111 -197q0 -115 -94 -185.5t-244 -70.5q-94 0 -184 31
t-146 86l150 196q29 -26 73.5 -42.5t87.5 -16.5zM1257 1413h334l-946 -1413h-334zM1595 563q125 0 210 -81t85 -201q0 -127 -96 -211t-248 -84q-170 0 -311 96l129 215q75 -57 164 -57q43 0 66.5 15t23.5 36q0 17 -15 28t-40 11q-34 0 -56 -25l-235 68l45 475h514v-246h-291
l-2 -45q24 6 57 6z" />
    <glyph glyph-name="uni2158" unicode="&#x2158;" horiz-adv-x="2019" 
d="M649 565h-266v121h-297l-61 217l329 510h295v-477h58v-250h-58v-121zM1339 1413h334l-946 -1413h-334zM285 936h98v166zM1677 563q125 0 210 -81t85 -201q0 -127 -96 -211t-248 -84q-170 0 -311 96l129 215q75 -57 164 -57q43 0 66.5 15t23.5 36q0 17 -15 28t-40 11
q-34 0 -56 -25l-235 68l45 475h514v-246h-291l-2 -45q24 6 57 6z" />
    <glyph glyph-name="uni2159" unicode="&#x2159;" horiz-adv-x="1697" 
d="M465 565h-266v531l-84 -49l-115 213l274 153h191v-848zM1165 1413h334l-946 -1413h-334zM1423 557q106 0 179 -80t73 -194q0 -128 -95.5 -212.5t-236.5 -84.5q-151 0 -242 102t-91 266q0 207 147 349t406 159l49 -246q-147 -6 -236 -63q16 4 47 4zM1341 236q26 0 44 12
t18 31q0 18 -18.5 30.5t-45.5 12.5q-26 0 -41.5 -14.5t-15.5 -31.5t17.5 -28.5t41.5 -11.5z" />
    <glyph glyph-name="uni215A" unicode="&#x215a;" horiz-adv-x="1794" 
d="M328 805q43 0 66.5 15t23.5 36q0 17 -15.5 28t-40.5 11q-33 0 -55 -25l-235 68l45 475h514v-246h-291l-2 -45q24 6 57 6q125 0 210 -81t85 -201q0 -127 -96 -211t-248 -84q-170 0 -311 96l129 215q75 -57 164 -57zM1262 1413h333l-946 -1413h-334zM1520 557
q106 0 179 -80t73 -194q0 -128 -95.5 -212.5t-236.5 -84.5q-151 0 -242.5 102t-91.5 266q0 207 147 349t406 159l49 -246q-146 -6 -235 -63q16 4 47 4zM1438 236q26 0 43.5 12t17.5 31q0 18 -18 30.5t-45 12.5q-26 0 -42 -14.5t-16 -31.5t18 -28.5t42 -11.5z" />
    <glyph glyph-name="oneeighth" unicode="&#x215b;" horiz-adv-x="1851" 
d="M465 565h-266v531l-84 -49l-115 213l274 153h191v-848zM1165 1413h334l-946 -1413h-334zM1708 440q102 -73 102 -188q0 -113 -97.5 -189.5t-244.5 -76.5q-145 0 -242.5 76t-97.5 190t103 188q-86 73 -86 172q0 105 91.5 177.5t231.5 72.5t234 -72.5t94 -177.5
q0 -101 -88 -172zM1468 618q-22 0 -37.5 -9.5t-15.5 -24.5q0 -14 15.5 -23.5t37.5 -9.5q23 0 39.5 9.5t16.5 23.5q0 15 -16 24.5t-40 9.5zM1468 236q30 0 51 12.5t21 30.5q0 17 -21 28.5t-51 11.5q-28 0 -47.5 -11.5t-19.5 -28.5q0 -18 19 -30.5t48 -12.5z" />
    <glyph glyph-name="threeeighths" unicode="&#x215c;" horiz-adv-x="1943" 
d="M315 805q38 0 61 11t23 30q0 20 -23.5 31.5t-60.5 11.5h-112v225h112q70 0 70 27q0 15 -24 24t-60 9q-66 0 -129 -29l-139 192q53 40 135.5 65t165.5 25q144 0 233.5 -68t89.5 -177q0 -111 -96 -178q111 -68 111 -197q0 -115 -94 -185.5t-244 -70.5q-94 0 -184 31
t-146 86l150 196q29 -26 73.5 -42.5t87.5 -16.5zM1257 1413h334l-946 -1413h-334zM1800 440q103 -74 103 -188q0 -113 -97.5 -189.5t-244.5 -76.5q-145 0 -242.5 76t-97.5 190q0 115 102 188q-86 73 -86 172q0 105 92 177.5t232 72.5t233.5 -72.5t93.5 -177.5
q0 -101 -88 -172zM1561 618q-22 0 -38 -9.5t-16 -24.5q0 -13 16 -23t38 -10q23 0 39 9.5t16 23.5q0 15 -16 24.5t-39 9.5zM1561 236q30 0 50.5 12.5t20.5 30.5q0 17 -20.5 28.5t-50.5 11.5q-28 0 -48 -11.5t-20 -28.5q0 -18 19.5 -30.5t48.5 -12.5z" />
    <glyph glyph-name="fiveeighths" unicode="&#x215d;" horiz-adv-x="1947" 
d="M328 805q43 0 66.5 15t23.5 36q0 17 -15.5 28t-40.5 11q-33 0 -55 -25l-235 68l45 475h514v-246h-291l-2 -45q24 6 57 6q125 0 210 -81t85 -201q0 -127 -96 -211t-248 -84q-170 0 -311 96l129 215q75 -57 164 -57zM1262 1413h333l-946 -1413h-334zM1804 440
q103 -74 103 -188q0 -113 -97.5 -189.5t-244.5 -76.5q-145 0 -242.5 76t-97.5 190q0 115 102 188q-86 73 -86 172q0 105 92 177.5t232 72.5t233.5 -72.5t93.5 -177.5q0 -101 -88 -172zM1565 618q-22 0 -38 -9.5t-16 -24.5q0 -13 16 -23t38 -10q23 0 39 9.5t16 23.5
q0 15 -16 24.5t-39 9.5zM1565 236q30 0 50.5 12.5t20.5 30.5q0 17 -20.5 28.5t-50.5 11.5q-28 0 -48 -11.5t-20 -28.5q0 -18 19.5 -30.5t48.5 -12.5z" />
    <glyph glyph-name="seveneighths" unicode="&#x215e;" horiz-adv-x="1777" 
d="M352 565h-299l256 598h-276v250h588v-209zM1092 1413h333l-946 -1413h-334zM1634 440q103 -74 103 -188q0 -113 -97.5 -189.5t-244.5 -76.5q-145 0 -242.5 76t-97.5 190q0 115 102 188q-86 73 -86 172q0 105 92 177.5t232 72.5t233.5 -72.5t93.5 -177.5q0 -101 -88 -172z
M1395 618q-22 0 -38 -9.5t-16 -24.5q0 -13 16 -23t38 -10q23 0 39 9.5t16 23.5q0 15 -16 24.5t-39 9.5zM1395 236q30 0 50.5 12.5t20.5 30.5q0 17 -20.5 28.5t-50.5 11.5q-28 0 -48 -11.5t-20 -28.5q0 -18 19.5 -30.5t48.5 -12.5z" />
    <glyph glyph-name="uni215F" unicode="&#x215f;" horiz-adv-x="1077" 
d="M465 565h-266v531l-84 -49l-115 213l274 153h191v-848zM1165 1413h334l-946 -1413h-334z" />
    <glyph glyph-name="uni2189" unicode="&#x2189;" horiz-adv-x="1947" 
d="M725 989q0 -194 -96 -316t-248 -122t-248 122t-96 316t96 316t248 122t248 -122t96 -316zM1313 1413h334l-947 -1413h-333zM309 989q0 -81 20.5 -132.5t51.5 -51.5q32 0 52 52t20 132t-20 132.5t-52 52.5q-31 0 -51.5 -52t-20.5 -133zM1796 438q111 -68 111 -196
q0 -115 -94 -185.5t-244 -70.5q-94 0 -184 31t-146 85l150 197q29 -26 73.5 -42.5t87.5 -16.5q38 0 61 11t23 30q0 20 -23.5 31.5t-60.5 11.5h-112v225h112q70 0 70 26q0 15 -24 24t-60 9q-68 0 -129 -28l-139 192q53 40 135.5 65t165.5 25q144 0 233.5 -68.5t89.5 -177.5
q0 -111 -96 -178z" />
    <glyph glyph-name="arrowleft" unicode="&#x2190;" horiz-adv-x="1314" 
d="M1212 872v-331h-514l119 -113l-219 -219l-496 496l496 497l219 -219l-117 -111h512z" />
    <glyph glyph-name="arrowup" unicode="&#x2191;" horiz-adv-x="1314" 
d="M1155 766l-219 -219l-113 119v-514h-331v512l-111 -117l-219 219l497 496z" />
    <glyph glyph-name="arrowright" unicode="&#x2192;" horiz-adv-x="1314" 
d="M717 1202l495 -497l-495 -496l-219 219l118 113h-514v331h512l-116 111z" />
    <glyph glyph-name="arrowdown" unicode="&#x2193;" horiz-adv-x="1314" 
d="M936 866l219 -219l-496 -495l-497 495l219 219l111 -116v512h331v-514z" />
    <glyph glyph-name="uni2196" unicode="&#x2196;" horiz-adv-x="1314" 
d="M1110 489l-236 -235l-362 362l4 -161h-309v700l700 4v-311l-159 4z" />
    <glyph glyph-name="uni2197" unicode="&#x2197;" horiz-adv-x="1314" 
d="M410 1159l700 -4v-700h-309l4 161l-363 -362l-235 235l362 363l-159 -4v311z" />
    <glyph glyph-name="uni2198" unicode="&#x2198;" horiz-adv-x="1314" 
d="M801 958h309v-700l-700 -4v311l159 -4l-362 363l235 235l363 -362z" />
    <glyph glyph-name="uni2199" unicode="&#x2199;" horiz-adv-x="1314" 
d="M1110 924l-362 -363l159 4v-311l-700 4v700h309l-4 -161l362 362z" />
    <glyph glyph-name="minus" unicode="&#x2212;" horiz-adv-x="1093" 
d="M106 438v332h881v-332h-881z" />
    <glyph glyph-name="approxequal" unicode="&#x2248;" horiz-adv-x="1249" 
d="M805 651q-66 0 -127.5 17t-105 34t-64.5 17q-29 0 -47.5 -18t-18.5 -46h-336q0 95 18 170.5t56 135t105 92t159 32.5q66 0 127.5 -16.5t105 -33.5t64.5 -17q29 0 47.5 17.5t18.5 45.5h336q0 -95 -18 -170.5t-56 -135t-105 -92t-159 -32.5zM805 139q-66 0 -127.5 17
t-105 34t-64.5 17q-29 0 -47.5 -18t-18.5 -46h-336q0 95 18 170.5t56 135t105 92t159 32.5q66 0 127.5 -16.5t105 -33.5t64.5 -17q29 0 47.5 17.5t18.5 45.5h336q0 -95 -18 -170.5t-56 -135t-105 -92t-159 -32.5z" />
    <glyph glyph-name="notequal" unicode="&#x2260;" horiz-adv-x="1093" 
d="M987 666h-256l-47 -119h303v-332h-440l-45 -113h-320l45 113h-121v332h259l47 119h-306v331h441l45 109h319l-45 -109h121v-331z" />
    <glyph glyph-name="lessequal" unicode="&#x2264;" horiz-adv-x="950" 
d="M844 1292v-366l-338 -86l338 -86v-367l-738 266v373zM106 0v332h738v-332h-738z" />
    <glyph glyph-name="greaterequal" unicode="&#x2265;" horiz-adv-x="950" 
d="M106 1292l738 -266v-373l-738 -266v367l338 86l-338 86v366zM106 0v332h738v-332h-738z" />
    <glyph glyph-name="uni279D" unicode="&#x279d;" horiz-adv-x="2215" 
d="M2073 707l-451 -451v285h-1479v331h1479v285z" />
    <glyph glyph-name="uni27F5" unicode="&#x27f5;" horiz-adv-x="2215" 
d="M2073 872v-331h-1334l119 -113l-219 -219l-496 496l496 497l219 -219l-117 -111h1332z" />
    <glyph glyph-name="uni27F6" unicode="&#x27f6;" horiz-adv-x="2215" 
d="M1577 1202l496 -497l-496 -496l-219 219l119 113h-1334v331h1332l-117 111z" />
    <glyph glyph-name="G.ss05" horiz-adv-x="1595" 
d="M811 842h702v-842h-339v106q-156 -131 -379 -131q-157 0 -295 56.5t-236.5 153.5t-155.5 232.5t-57 289.5q0 205 98 372.5t270.5 263t383.5 95.5q180 0 333.5 -68.5t247.5 -189.5l-294 -236q-50 57 -123 89t-156 32q-153 0 -255.5 -102.5t-102.5 -255.5
q0 -154 102 -256.5t254 -102.5q91 0 165.5 39t119.5 107h-283v348z" />
    <glyph glyph-name="uni01F4.ss05" horiz-adv-x="1595" 
d="M1255 1827l-274 -324h-385l201 324h458zM811 842h702v-842h-339v106q-156 -131 -379 -131q-157 0 -295 56.5t-236.5 153.5t-155.5 232.5t-57 289.5q0 205 98 372.5t270.5 263t383.5 95.5q180 0 333.5 -68.5t247.5 -189.5l-294 -236q-50 57 -123 89t-156 32
q-153 0 -255.5 -102.5t-102.5 -255.5q0 -154 102 -256.5t254 -102.5q91 0 165.5 39t119.5 107h-283v348z" />
    <glyph glyph-name="Gbreve.ss05" horiz-adv-x="1595" 
d="M803 1483q-158 0 -263.5 99.5t-105.5 248.5h283q0 -38 24.5 -63t61.5 -25t61.5 25t24.5 63h282q0 -149 -105 -248.5t-263 -99.5zM811 842h702v-842h-339v106q-156 -131 -379 -131q-157 0 -295 56.5t-236.5 153.5t-155.5 232.5t-57 289.5q0 205 98 372.5t270.5 263
t383.5 95.5q180 0 333.5 -68.5t247.5 -189.5l-294 -236q-50 57 -123 89t-156 32q-153 0 -255.5 -102.5t-102.5 -255.5q0 -154 102 -256.5t254 -102.5q91 0 165.5 39t119.5 107h-283v348z" />
    <glyph glyph-name="Gcaron.ss05" horiz-adv-x="1595" 
d="M1024 1503h-442l-201 324h344l78 -123l78 123h344zM811 842h702v-842h-339v106q-156 -131 -379 -131q-157 0 -295 56.5t-236.5 153.5t-155.5 232.5t-57 289.5q0 205 98 372.5t270.5 263t383.5 95.5q180 0 333.5 -68.5t247.5 -189.5l-294 -236q-50 57 -123 89t-156 32
q-153 0 -255.5 -102.5t-102.5 -255.5q0 -154 102 -256.5t254 -102.5q91 0 165.5 39t119.5 107h-283v348z" />
    <glyph glyph-name="Gcircumflex.ss05" horiz-adv-x="1595" 
d="M803 1626l-78 -123h-344l201 324h442l201 -324h-344zM811 842h702v-842h-339v106q-156 -131 -379 -131q-157 0 -295 56.5t-236.5 153.5t-155.5 232.5t-57 289.5q0 205 98 372.5t270.5 263t383.5 95.5q180 0 333.5 -68.5t247.5 -189.5l-294 -236q-50 57 -123 89t-156 32
q-153 0 -255.5 -102.5t-102.5 -255.5q0 -154 102 -256.5t254 -102.5q91 0 165.5 39t119.5 107h-283v348z" />
    <glyph glyph-name="uni0122.ss05" horiz-adv-x="1595" 
d="M811 842h702v-842h-339v106q-156 -131 -379 -131q-157 0 -295 56.5t-236.5 153.5t-155.5 232.5t-57 289.5q0 205 98 372.5t270.5 263t383.5 95.5q180 0 333.5 -68.5t247.5 -189.5l-294 -236q-50 57 -123 89t-156 32q-153 0 -255.5 -102.5t-102.5 -255.5
q0 -154 102 -256.5t254 -102.5q91 0 165.5 39t119.5 107h-283v348zM551 -475l98 385h377l-172 -385h-303z" />
    <glyph glyph-name="Gdotaccent.ss05" horiz-adv-x="1595" 
d="M803 1485q-89 0 -149 59t-60 148t59.5 147.5t149.5 58.5t149.5 -58.5t59.5 -147.5t-60 -148t-149 -59zM811 842h702v-842h-339v106q-156 -131 -379 -131q-157 0 -295 56.5t-236.5 153.5t-155.5 232.5t-57 289.5q0 205 98 372.5t270.5 263t383.5 95.5q180 0 333.5 -68.5
t247.5 -189.5l-294 -236q-50 57 -123 89t-156 32q-153 0 -255.5 -102.5t-102.5 -255.5q0 -154 102 -256.5t254 -102.5q91 0 165.5 39t119.5 107h-283v348z" />
    <glyph glyph-name="i.loclTRK" horiz-adv-x="573" 
d="M287 1116q-89 0 -149 59t-60 148t60 148t149 59t149 -59t60 -148t-60 -148t-149 -59zM102 0v1044h369v-1044h-369z" />
    <glyph glyph-name="a.ss01" horiz-adv-x="1112" 
d="M524 1069q222 0 364 -116t142 -308v-645h-334v63q-101 -88 -260 -88q-169 0 -284 96t-115 238t113.5 238t275.5 96q136 0 236 -68v27q0 69 -51 110.5t-140 41.5q-117 0 -209 -72l-176 225q83 77 196 119.5t242 42.5zM535 227q53 0 90 23.5t37 58.5t-37 58.5t-90 23.5
q-51 0 -85 -23.5t-34 -58.5t34 -58.5t85 -23.5z" />
    <glyph glyph-name="aacute.ss01" horiz-adv-x="1112" 
d="M1012 1458l-275 -323h-385l201 323h459zM524 1069q222 0 364 -116t142 -308v-645h-334v63q-101 -88 -260 -88q-169 0 -284 96t-115 238t113.5 238t275.5 96q136 0 236 -68v27q0 69 -51 110.5t-140 41.5q-117 0 -209 -72l-176 225q83 77 196 119.5t242 42.5zM535 227
q53 0 90 23.5t37 58.5t-37 58.5t-90 23.5q-51 0 -85 -23.5t-34 -58.5t34 -58.5t85 -23.5z" />
    <glyph glyph-name="abreve.ss01" horiz-adv-x="1112" 
d="M559 1114q-158 0 -263.5 99.5t-105.5 248.5h283q0 -38 24.5 -63t61.5 -25t61.5 25t24.5 63h283q0 -149 -105.5 -248.5t-263.5 -99.5zM524 1069q222 0 364 -116t142 -308v-645h-334v63q-101 -88 -260 -88q-169 0 -284 96t-115 238t113.5 238t275.5 96q136 0 236 -68v27
q0 69 -51 110.5t-140 41.5q-117 0 -209 -72l-176 225q83 77 196 119.5t242 42.5zM535 227q53 0 90 23.5t37 58.5t-37 58.5t-90 23.5q-51 0 -85 -23.5t-34 -58.5t34 -58.5t85 -23.5z" />
    <glyph glyph-name="uni01CE.ss01" horiz-adv-x="1112" 
d="M780 1135h-442l-201 323h344l78 -123l78 123h344zM524 1069q222 0 364 -116t142 -308v-645h-334v63q-101 -88 -260 -88q-169 0 -284 96t-115 238t113.5 238t275.5 96q136 0 236 -68v27q0 69 -51 110.5t-140 41.5q-117 0 -209 -72l-176 225q83 77 196 119.5t242 42.5z
M535 227q53 0 90 23.5t37 58.5t-37 58.5t-90 23.5q-51 0 -85 -23.5t-34 -58.5t34 -58.5t85 -23.5z" />
    <glyph glyph-name="acircumflex.ss01" horiz-adv-x="1112" 
d="M559 1257l-78 -122h-344l201 323h442l201 -323h-344zM524 1069q222 0 364 -116t142 -308v-645h-334v63q-101 -88 -260 -88q-169 0 -284 96t-115 238t113.5 238t275.5 96q136 0 236 -68v27q0 69 -51 110.5t-140 41.5q-117 0 -209 -72l-176 225q83 77 196 119.5t242 42.5z
M535 227q53 0 90 23.5t37 58.5t-37 58.5t-90 23.5q-51 0 -85 -23.5t-34 -58.5t34 -58.5t85 -23.5z" />
    <glyph glyph-name="uni0201.ss01" horiz-adv-x="1112" 
d="M500 1135h-355l-223 323h397zM991 1135h-354l-223 323h397zM524 1069q222 0 364 -116t142 -308v-645h-334v63q-101 -88 -260 -88q-169 0 -284 96t-115 238t113.5 238t275.5 96q136 0 236 -68v27q0 69 -51 110.5t-140 41.5q-117 0 -209 -72l-176 225q83 77 196 119.5
t242 42.5zM535 227q53 0 90 23.5t37 58.5t-37 58.5t-90 23.5q-51 0 -85 -23.5t-34 -58.5t34 -58.5t85 -23.5z" />
    <glyph glyph-name="adieresis.ss01" horiz-adv-x="1112" 
d="M328 1116q-85 0 -142 56t-57 141q0 84 57 140t142 56t141.5 -55.5t56.5 -140.5t-56.5 -141t-141.5 -56zM791 1116q-85 0 -142 56t-57 141q0 84 57 140t142 56t141.5 -55.5t56.5 -140.5t-56.5 -141t-141.5 -56zM524 1069q222 0 364 -116t142 -308v-645h-334v63
q-101 -88 -260 -88q-169 0 -284 96t-115 238t113.5 238t275.5 96q136 0 236 -68v27q0 69 -51 110.5t-140 41.5q-117 0 -209 -72l-176 225q83 77 196 119.5t242 42.5zM535 227q53 0 90 23.5t37 58.5t-37 58.5t-90 23.5q-51 0 -85 -23.5t-34 -58.5t34 -58.5t85 -23.5z" />
    <glyph glyph-name="uni1EA1.ss01" horiz-adv-x="1112" 
d="M524 1069q222 0 364 -116t142 -308v-645h-334v63q-101 -88 -260 -88q-169 0 -284 96t-115 238t113.5 238t275.5 96q136 0 236 -68v27q0 69 -51 110.5t-140 41.5q-117 0 -209 -72l-176 225q83 77 196 119.5t242 42.5zM535 227q53 0 90 23.5t37 58.5t-37 58.5t-90 23.5
q-51 0 -85 -23.5t-34 -58.5t34 -58.5t85 -23.5zM559 -72q89 0 149 -59t60 -148t-59.5 -147.5t-149.5 -58.5t-149.5 58.5t-59.5 147.5t60 148t149 59z" />
    <glyph glyph-name="agrave.ss01" horiz-adv-x="1112" 
d="M766 1135h-385l-275 323h459zM524 1069q222 0 364 -116t142 -308v-645h-334v63q-101 -88 -260 -88q-169 0 -284 96t-115 238t113.5 238t275.5 96q136 0 236 -68v27q0 69 -51 110.5t-140 41.5q-117 0 -209 -72l-176 225q83 77 196 119.5t242 42.5zM535 227q53 0 90 23.5
t37 58.5t-37 58.5t-90 23.5q-51 0 -85 -23.5t-34 -58.5t34 -58.5t85 -23.5z" />
    <glyph glyph-name="uni0203.ss01" horiz-adv-x="1112" 
d="M559 1223q-37 0 -61.5 -25t-24.5 -63h-283q0 149 105.5 248.5t263.5 99.5t263.5 -99.5t105.5 -248.5h-283q0 38 -24.5 63t-61.5 25zM524 1069q222 0 364 -116t142 -308v-645h-334v63q-101 -88 -260 -88q-169 0 -284 96t-115 238t113.5 238t275.5 96q136 0 236 -68v27
q0 69 -51 110.5t-140 41.5q-117 0 -209 -72l-176 225q83 77 196 119.5t242 42.5zM535 227q53 0 90 23.5t37 58.5t-37 58.5t-90 23.5q-51 0 -85 -23.5t-34 -58.5t34 -58.5t85 -23.5z" />
    <glyph glyph-name="amacron.ss01" horiz-adv-x="1112" 
d="M860 1454v-307h-602v307h602zM524 1069q222 0 364 -116t142 -308v-645h-334v63q-101 -88 -260 -88q-169 0 -284 96t-115 238t113.5 238t275.5 96q136 0 236 -68v27q0 69 -51 110.5t-140 41.5q-117 0 -209 -72l-176 225q83 77 196 119.5t242 42.5zM535 227q53 0 90 23.5
t37 58.5t-37 58.5t-90 23.5q-51 0 -85 -23.5t-34 -58.5t34 -58.5t85 -23.5z" />
    <glyph glyph-name="aogonek.ss01" horiz-adv-x="1112" 
d="M991 -236l80 -225q-95 -65 -235 -65q-138 0 -225 71.5t-87 180.5q0 88 57 162.5t148 111.5h-33v63q-101 -88 -260 -88q-169 0 -284 96t-115 238t113.5 238t275.5 96q136 0 236 -68v27q0 69 -51 110.5t-140 41.5q-117 0 -209 -72l-176 225q83 77 196 119.5t242 42.5
q222 0 364 -116t142 -308v-645h-2q-215 -91 -215 -190q0 -37 25.5 -55.5t58.5 -18.5q49 0 94 28zM535 227q53 0 90 23.5t37 58.5t-37 58.5t-90 23.5q-51 0 -85 -23.5t-34 -58.5t34 -58.5t85 -23.5z" />
    <glyph glyph-name="aring.ss01" horiz-adv-x="1112" 
d="M559 1114q-104 0 -175 68.5t-71 169.5t71 169t175 68t175 -68t71 -169t-71 -169.5t-175 -68.5zM559 1411q-25 0 -41 -16.5t-16 -42.5t16 -43t41 -17t41 17t16 43t-16 42.5t-41 16.5zM524 1069q222 0 364 -116t142 -308v-645h-334v63q-101 -88 -260 -88q-169 0 -284 96
t-115 238t113.5 238t275.5 96q136 0 236 -68v27q0 69 -51 110.5t-140 41.5q-117 0 -209 -72l-176 225q83 77 196 119.5t242 42.5zM535 227q53 0 90 23.5t37 58.5t-37 58.5t-90 23.5q-51 0 -85 -23.5t-34 -58.5t34 -58.5t85 -23.5z" />
    <glyph glyph-name="atilde.ss01" horiz-adv-x="1112" 
d="M477 1200q-24 0 -38.5 -15.5t-14.5 -37.5h-256q0 152 67 248t195 96q47 0 88.5 -14.5t71.5 -28.5t49 -14q23 0 38 16t15 39h256q0 -155 -66.5 -249.5t-195.5 -94.5q-48 0 -90 13.5t-71.5 27.5t-47.5 14zM524 1069q222 0 364 -116t142 -308v-645h-334v63
q-101 -88 -260 -88q-169 0 -284 96t-115 238t113.5 238t275.5 96q136 0 236 -68v27q0 69 -51 110.5t-140 41.5q-117 0 -209 -72l-176 225q83 77 196 119.5t242 42.5zM535 227q53 0 90 23.5t37 58.5t-37 58.5t-90 23.5q-51 0 -85 -23.5t-34 -58.5t34 -58.5t85 -23.5z" />
    <glyph glyph-name="g.ss02" 
d="M805 1044h369v-931q0 -238 -158.5 -382.5t-421.5 -144.5q-278 0 -477 158l182 256q119 -78 262 -78q114 0 179 52t65 141v10q-114 -84 -262 -84q-212 0 -353 147t-141 367t141 367t353 147q148 0 262 -84v59zM616 375q81 0 135 51.5t54 128.5t-54 128.5t-135 51.5
t-134.5 -51.5t-53.5 -128.5t53.5 -128.5t134.5 -51.5z" />
    <glyph glyph-name="uni01F5.ss02" 
d="M1090 1458l-275 -323h-385l201 323h459zM805 1044h369v-931q0 -238 -158.5 -382.5t-421.5 -144.5q-278 0 -477 158l182 256q119 -78 262 -78q114 0 179 52t65 141v10q-114 -84 -262 -84q-212 0 -353 147t-141 367t141 367t353 147q148 0 262 -84v59zM616 375
q81 0 135 51.5t54 128.5t-54 128.5t-135 51.5t-134.5 -51.5t-53.5 -128.5t53.5 -128.5t134.5 -51.5z" />
    <glyph glyph-name="gbreve.ss02" 
d="M637 1114q-158 0 -263.5 99.5t-105.5 248.5h283q0 -38 24.5 -63t61.5 -25t61.5 25t24.5 63h283q0 -149 -105.5 -248.5t-263.5 -99.5zM805 1044h369v-931q0 -238 -158.5 -382.5t-421.5 -144.5q-278 0 -477 158l182 256q119 -78 262 -78q114 0 179 52t65 141v10
q-114 -84 -262 -84q-212 0 -353 147t-141 367t141 367t353 147q148 0 262 -84v59zM616 375q81 0 135 51.5t54 128.5t-54 128.5t-135 51.5t-134.5 -51.5t-53.5 -128.5t53.5 -128.5t134.5 -51.5z" />
    <glyph glyph-name="gcaron.ss02" 
d="M858 1135h-442l-201 323h344l78 -123l78 123h344zM805 1044h369v-931q0 -238 -158.5 -382.5t-421.5 -144.5q-278 0 -477 158l182 256q119 -78 262 -78q114 0 179 52t65 141v10q-114 -84 -262 -84q-212 0 -353 147t-141 367t141 367t353 147q148 0 262 -84v59zM616 375
q81 0 135 51.5t54 128.5t-54 128.5t-135 51.5t-134.5 -51.5t-53.5 -128.5t53.5 -128.5t134.5 -51.5z" />
    <glyph glyph-name="gcircumflex.ss02" 
d="M637 1257l-78 -122h-344l201 323h442l201 -323h-344zM805 1044h369v-931q0 -238 -158.5 -382.5t-421.5 -144.5q-278 0 -477 158l182 256q119 -78 262 -78q114 0 179 52t65 141v10q-114 -84 -262 -84q-212 0 -353 147t-141 367t141 367t353 147q148 0 262 -84v59zM616 375
q81 0 135 51.5t54 128.5t-54 128.5t-135 51.5t-134.5 -51.5t-53.5 -128.5t53.5 -128.5t134.5 -51.5z" />
    <glyph glyph-name="uni0123.ss02" 
d="M874 1520l-98 -385h-377l172 385h303zM805 1044h369v-931q0 -238 -158.5 -382.5t-421.5 -144.5q-278 0 -477 158l182 256q119 -78 262 -78q114 0 179 52t65 141v10q-114 -84 -262 -84q-212 0 -353 147t-141 367t141 367t353 147q148 0 262 -84v59zM616 375q81 0 135 51.5
t54 128.5t-54 128.5t-135 51.5t-134.5 -51.5t-53.5 -128.5t53.5 -128.5t134.5 -51.5z" />
    <glyph glyph-name="gdotaccent.ss02" 
d="M637 1116q-89 0 -149 59t-60 148t60 148t149 59t149 -59t60 -148t-60 -148t-149 -59zM805 1044h369v-931q0 -238 -158.5 -382.5t-421.5 -144.5q-278 0 -477 158l182 256q119 -78 262 -78q114 0 179 52t65 141v10q-114 -84 -262 -84q-212 0 -353 147t-141 367t141 367
t353 147q148 0 262 -84v59zM616 375q81 0 135 51.5t54 128.5t-54 128.5t-135 51.5t-134.5 -51.5t-53.5 -128.5t53.5 -128.5t134.5 -51.5z" />
    <glyph glyph-name="u.ss03" horiz-adv-x="1200" 
d="M729 1044h369v-1044h-369v72q-114 -97 -272 -97q-169 0 -272 102t-103 271v696h369v-571q0 -65 36 -103t97 -38q65 0 105 39.5t40 105.5v567z" />
    <glyph glyph-name="uacute.ss03" horiz-adv-x="1200" 
d="M1042 1458l-274 -323h-385l201 323h458zM729 1044h369v-1044h-369v72q-114 -97 -272 -97q-169 0 -272 102t-103 271v696h369v-571q0 -65 36 -103t97 -38q65 0 105 39.5t40 105.5v567z" />
    <glyph glyph-name="ubreve.ss03" horiz-adv-x="1200" 
d="M590 1114q-158 0 -263.5 99.5t-105.5 248.5h283q0 -38 24.5 -63t61.5 -25t61.5 25t24.5 63h282q0 -149 -105 -248.5t-263 -99.5zM729 1044h369v-1044h-369v72q-114 -97 -272 -97q-169 0 -272 102t-103 271v696h369v-571q0 -65 36 -103t97 -38q65 0 105 39.5t40 105.5v567
z" />
    <glyph glyph-name="ucircumflex.ss03" horiz-adv-x="1200" 
d="M590 1257l-78 -122h-344l201 323h442l201 -323h-344zM729 1044h369v-1044h-369v72q-114 -97 -272 -97q-169 0 -272 102t-103 271v696h369v-571q0 -65 36 -103t97 -38q65 0 105 39.5t40 105.5v567z" />
    <glyph glyph-name="uni0215.ss03" horiz-adv-x="1200" 
d="M530 1135h-354l-223 323h397zM1022 1135h-354l-224 323h398zM729 1044h369v-1044h-369v72q-114 -97 -272 -97q-169 0 -272 102t-103 271v696h369v-571q0 -65 36 -103t97 -38q65 0 105 39.5t40 105.5v567z" />
    <glyph glyph-name="udieresis.ss03" horiz-adv-x="1200" 
d="M358 1116q-85 0 -141.5 56t-56.5 141t56.5 140.5t141.5 55.5t142 -56t57 -140q0 -85 -57 -141t-142 -56zM821 1116q-85 0 -141.5 56t-56.5 141t56.5 140.5t141.5 55.5t142 -56t57 -140q0 -85 -57 -141t-142 -56zM729 1044h369v-1044h-369v72q-114 -97 -272 -97
q-169 0 -272 102t-103 271v696h369v-571q0 -65 36 -103t97 -38q65 0 105 39.5t40 105.5v567z" />
    <glyph glyph-name="uni1EE5.ss03" horiz-adv-x="1200" 
d="M729 1044h369v-1044h-369v72q-114 -97 -272 -97q-169 0 -272 102t-103 271v696h369v-571q0 -65 36 -103t97 -38q65 0 105 39.5t40 105.5v567zM590 -72q89 0 149 -59t60 -148t-59.5 -147.5t-149.5 -58.5t-149.5 58.5t-59.5 147.5t60 148t149 59z" />
    <glyph glyph-name="ugrave.ss03" horiz-adv-x="1200" 
d="M797 1135h-385l-275 323h459zM729 1044h369v-1044h-369v72q-114 -97 -272 -97q-169 0 -272 102t-103 271v696h369v-571q0 -65 36 -103t97 -38q65 0 105 39.5t40 105.5v567z" />
    <glyph glyph-name="uhungarumlaut.ss03" horiz-adv-x="1200" 
d="M735 1458l-223 -323h-354l180 323h397zM1004 1135h-355l180 323h398zM729 477v567h369v-1044h-369v72q-114 -97 -272 -97q-169 0 -272 102t-103 271v696h369v-571q0 -65 36 -103t97 -38q65 0 105 39.5t40 105.5z" />
    <glyph glyph-name="uni0217.ss03" horiz-adv-x="1200" 
d="M590 1223q-37 0 -61.5 -25t-24.5 -63h-283q0 149 105.5 248.5t263.5 99.5t263 -99.5t105 -248.5h-282q0 38 -24.5 63t-61.5 25zM729 1044h369v-1044h-369v72q-114 -97 -272 -97q-169 0 -272 102t-103 271v696h369v-571q0 -65 36 -103t97 -38q65 0 105 39.5t40 105.5v567z
" />
    <glyph glyph-name="umacron.ss03" horiz-adv-x="1200" 
d="M891 1454v-307h-602v307h602zM729 1044h369v-1044h-369v72q-114 -97 -272 -97q-169 0 -272 102t-103 271v696h369v-571q0 -65 36 -103t97 -38q65 0 105 39.5t40 105.5v567z" />
    <glyph glyph-name="uogonek.ss03" horiz-adv-x="1200" 
d="M1059 -236l80 -225q-95 -65 -236 -65q-138 0 -224.5 71.5t-86.5 180.5q0 88 57 162.5t148 111.5h-68v72q-114 -97 -272 -97q-169 0 -272 102t-103 271v696h369v-571q0 -65 36 -103t97 -38q65 0 105 39.5t40 105.5v567h369v-1044h-2q-215 -91 -215 -190q0 -37 25.5 -55.5
t58.5 -18.5q49 0 94 28z" />
    <glyph glyph-name="uring.ss03" horiz-adv-x="1200" 
d="M590 1114q-104 0 -175 68.5t-71 169.5t71 169t175 68t175 -68t71 -169t-71 -169.5t-175 -68.5zM590 1411q-25 0 -41.5 -16.5t-16.5 -42.5t16.5 -43t41.5 -17t41 17t16 43t-16 42.5t-41 16.5zM729 1044h369v-1044h-369v72q-114 -97 -272 -97q-169 0 -272 102t-103 271v696
h369v-571q0 -65 36 -103t97 -38q65 0 105 39.5t40 105.5v567z" />
    <glyph glyph-name="utilde.ss03" horiz-adv-x="1200" 
d="M508 1200q-24 0 -38.5 -15.5t-14.5 -37.5h-256q0 152 67 248t195 96q47 0 88.5 -14.5t71.5 -28.5t49 -14q23 0 38 16t15 39h256q0 -155 -66.5 -249.5t-195.5 -94.5q-63 0 -128 27.5t-81 27.5zM729 1044h369v-1044h-369v72q-114 -97 -272 -97q-169 0 -272 102t-103 271
v696h369v-571q0 -65 36 -103t97 -38q65 0 105 39.5t40 105.5v567z" />
    <glyph glyph-name="w.ss04" horiz-adv-x="1736" 
d="M1286 1044h369v-645q0 -192 -124.5 -308t-330.5 -116q-212 0 -332 123q-120 -123 -331 -123q-206 0 -330.5 116t-124.5 308v645h369v-593q0 -54 31.5 -86.5t84.5 -32.5t85 32.5t32 86.5v593h369v-593q0 -54 31.5 -86.5t84.5 -32.5t85 32.5t32 86.5v593z" />
    <glyph glyph-name="wacute.ss04" horiz-adv-x="1736" 
d="M1321 1458l-274 -323h-385l200 323h459zM1286 1044h369v-645q0 -192 -124.5 -308t-330.5 -116q-212 0 -332 123q-120 -123 -331 -123q-206 0 -330.5 116t-124.5 308v645h369v-593q0 -54 31.5 -86.5t84.5 -32.5t85 32.5t32 86.5v593h369v-593q0 -54 31.5 -86.5t84.5 -32.5
t85 32.5t32 86.5v593z" />
    <glyph glyph-name="wcircumflex.ss04" horiz-adv-x="1736" 
d="M868 1257l-77 -122h-345l201 323h443l200 -323h-344zM1286 1044h369v-645q0 -192 -124.5 -308t-330.5 -116q-212 0 -332 123q-120 -123 -331 -123q-206 0 -330.5 116t-124.5 308v645h369v-593q0 -54 31.5 -86.5t84.5 -32.5t85 32.5t32 86.5v593h369v-593
q0 -54 31.5 -86.5t84.5 -32.5t85 32.5t32 86.5v593z" />
    <glyph glyph-name="wdieresis.ss04" horiz-adv-x="1736" 
d="M637 1116q-85 0 -142 56t-57 141q0 84 57 140t142 56t142 -56t57 -140q0 -85 -57 -141t-142 -56zM1100 1116q-85 0 -142 56t-57 141q0 84 57 140t142 56t141.5 -55.5t56.5 -140.5t-56.5 -141t-141.5 -56zM1286 1044h369v-645q0 -192 -124.5 -308t-330.5 -116
q-212 0 -332 123q-120 -123 -331 -123q-206 0 -330.5 116t-124.5 308v645h369v-593q0 -54 31.5 -86.5t84.5 -32.5t85 32.5t32 86.5v593h369v-593q0 -54 31.5 -86.5t84.5 -32.5t85 32.5t32 86.5v593z" />
    <glyph glyph-name="wgrave.ss04" horiz-adv-x="1736" 
d="M1075 1135h-385l-274 323h458zM1286 1044h369v-645q0 -192 -124.5 -308t-330.5 -116q-212 0 -332 123q-120 -123 -331 -123q-206 0 -330.5 116t-124.5 308v645h369v-593q0 -54 31.5 -86.5t84.5 -32.5t85 32.5t32 86.5v593h369v-593q0 -54 31.5 -86.5t84.5 -32.5t85 32.5
t32 86.5v593z" />
    <glyph glyph-name="zero.subs" horiz-adv-x="808" 
d="M381 -248q-152 0 -248 122t-96 316t96 316.5t248 122.5t248 -122.5t96 -316.5t-96 -316t-248 -122zM381 6q32 0 52 52t20 132t-20 132.5t-52 52.5q-31 0 -51.5 -52t-20.5 -133t20.5 -132.5t51.5 -51.5z" />
    <glyph glyph-name="one.subs" horiz-adv-x="538" 
d="M274 614h191v-847h-266v530l-84 -49l-115 213z" />
    <glyph glyph-name="two.subs" horiz-adv-x="667" 
d="M422 16h203v-249h-580v217l236 243q67 67 67 105q0 15 -14 24t-35 9q-47 0 -117 -60l-178 174q48 68 131.5 109t179.5 41q136 0 219.5 -79.5t83.5 -201.5q0 -135 -104 -239z" />
    <glyph glyph-name="three.subs" horiz-adv-x="712" 
d="M561 205q111 -68 111 -197q0 -115 -94 -185.5t-244 -70.5q-94 0 -184 31t-146 86l150 197q30 -26 74.5 -43t86.5 -17q38 0 61 11t23 30q0 20 -23.5 31.5t-60.5 11.5h-112v225h112q70 0 70 27q0 15 -24 24t-60 9q-66 0 -129 -29l-139 193q53 40 135.5 65t165.5 25
q144 0 233.5 -68.5t89.5 -177.5q0 -111 -96 -178z" />
    <glyph glyph-name="four.subs" horiz-adv-x="774" 
d="M707 137v-250h-58v-120h-266v120h-297l-61 217l329 510h295v-477h58zM285 137h98v166z" />
    <glyph glyph-name="five.subs" horiz-adv-x="737" 
d="M395 330q125 0 210 -81.5t85 -201.5q0 -127 -96 -211t-248 -84q-170 0 -311 96l129 215q75 -57 164 -57q43 0 66.5 15t23.5 36q0 17 -15.5 28t-40.5 11q-34 0 -55 -24l-235 67l45 475h514v-245h-291l-2 -45q24 6 57 6z" />
    <glyph glyph-name="six.subs" horiz-adv-x="712" 
d="M438 324q105 0 178.5 -80.5t73.5 -194.5q0 -128 -95.5 -212.5t-236.5 -84.5q-151 0 -242 102.5t-91 266.5q0 207 147 349t406 159l49 -246q-146 -6 -236 -64q20 5 47 5zM356 2q26 0 44 12t18 31q0 18 -18.5 30.5t-45.5 12.5q-26 0 -41.5 -14t-15.5 -31t17.5 -29t41.5 -12
z" />
    <glyph glyph-name="seven.subs" horiz-adv-x="669" 
d="M33 614h588v-208l-269 -639h-299l256 598h-276v249z" />
    <glyph glyph-name="eight.subs" horiz-adv-x="763" 
d="M621 207q102 -73 102 -189q0 -113 -97.5 -189.5t-244.5 -76.5q-145 0 -242.5 76t-97.5 190q0 116 102 189q-86 73 -86 172q0 105 92 177.5t232 72.5t234 -72.5t94 -177.5q0 -101 -88 -172zM381 385q-22 0 -37.5 -10t-15.5 -25q0 -14 15.5 -23.5t37.5 -9.5q23 0 39 9.5
t16 23.5q0 15 -16 25t-39 10zM381 2q30 0 51 12.5t21 30.5q0 17 -21.5 29t-50.5 12q-28 0 -48 -12t-20 -29q0 -18 19.5 -30.5t48.5 -12.5z" />
    <glyph glyph-name="nine.subs" horiz-adv-x="712" 
d="M354 629q151 0 242.5 -102.5t91.5 -266.5q0 -211 -150.5 -356.5t-402.5 -151.5l-49 246q145 0 240 63q-36 -4 -52 -4q-105 0 -178 80.5t-73 194.5q0 128 95 212.5t236 84.5zM295 336q0 -19 18 -31t45 -12q26 0 42 14t16 31t-17.5 29t-42.5 12t-43 -12.5t-18 -30.5z" />
    <glyph glyph-name="zero.dnom" horiz-adv-x="808" 
d="M381 -14q-152 0 -248 122t-96 316t96 316t248 122t248 -122t96 -316t-96 -316t-248 -122zM381 240q32 0 52 52t20 132t-20 132t-52 52q-31 0 -51.5 -51.5t-20.5 -132.5t20.5 -132.5t51.5 -51.5z" />
    <glyph glyph-name="one.dnom" horiz-adv-x="538" 
d="M274 848h191v-848h-266v530l-84 -49l-115 213z" />
    <glyph glyph-name="two.dnom" horiz-adv-x="667" 
d="M422 250h203v-250h-580v217l236 244q67 67 67 104q0 15 -14 24t-35 9q-48 0 -117 -59l-178 174q48 67 131.5 108t179.5 41q136 0 219.5 -79t83.5 -201q0 -136 -104 -240z" />
    <glyph glyph-name="three.dnom" horiz-adv-x="712" 
d="M561 438q111 -68 111 -196q0 -115 -94 -185.5t-244 -70.5q-94 0 -184 31t-146 85l150 197q29 -26 73.5 -42.5t87.5 -16.5q38 0 61 11t23 30q0 20 -23.5 31.5t-60.5 11.5h-112v225h112q70 0 70 26q0 15 -24 24t-60 9q-68 0 -129 -28l-139 192q53 40 135.5 65t165.5 25
q144 0 233.5 -68.5t89.5 -177.5q0 -111 -96 -178z" />
    <glyph glyph-name="four.dnom" horiz-adv-x="774" 
d="M707 371v-250h-58v-121h-266v121h-297l-61 217l329 510h295v-477h58zM285 371h98v166z" />
    <glyph glyph-name="five.dnom" horiz-adv-x="737" 
d="M395 563q125 0 210 -81t85 -201q0 -127 -96 -211t-248 -84q-170 0 -311 96l129 215q75 -57 164 -57q43 0 66.5 15t23.5 36q0 17 -15.5 28t-40.5 11q-33 0 -55 -25l-235 68l45 475h514v-246h-291l-2 -45q24 6 57 6z" />
    <glyph glyph-name="six.dnom" horiz-adv-x="712" 
d="M438 557q106 0 179 -80t73 -194q0 -128 -95.5 -212.5t-236.5 -84.5q-151 0 -242 102t-91 266q0 207 147 349t406 159l49 -246q-147 -6 -236 -63q16 4 47 4zM356 236q26 0 44 12t18 31q0 18 -18.5 30.5t-45.5 12.5q-26 0 -41.5 -14.5t-15.5 -31.5t17.5 -28.5t41.5 -11.5z
" />
    <glyph glyph-name="seven.dnom" horiz-adv-x="669" 
d="M33 848h588v-209l-269 -639h-299l256 598h-276v250z" />
    <glyph glyph-name="eight.dnom" horiz-adv-x="763" 
d="M621 440q102 -73 102 -188q0 -113 -97.5 -189.5t-244.5 -76.5q-145 0 -242.5 76t-97.5 190q0 115 102 188q-86 73 -86 172q0 105 92 177.5t232 72.5t234 -72.5t94 -177.5q0 -101 -88 -172zM381 618q-22 0 -37.5 -9.5t-15.5 -24.5q0 -14 15.5 -23.5t37.5 -9.5q23 0 39 9.5
t16 23.5q0 15 -16 24.5t-39 9.5zM381 236q30 0 51 12.5t21 30.5q0 17 -21 28.5t-51 11.5q-28 0 -48 -11.5t-20 -28.5q0 -18 19.5 -30.5t48.5 -12.5z" />
    <glyph glyph-name="nine.dnom" horiz-adv-x="712" 
d="M354 862q151 0 242.5 -102t91.5 -266q0 -211 -150.5 -356.5t-402.5 -151.5l-49 245q143 0 240 64q-36 -4 -52 -4q-105 0 -178 80t-73 194q0 128 95 212.5t236 84.5zM295 569q0 -19 18 -31t45 -12q26 0 42 14t16 31t-17.5 29t-42.5 12t-43 -12.5t-18 -30.5z" />
    <glyph glyph-name="zero.numr" horiz-adv-x="808" 
d="M381 551q-152 0 -248 122t-96 316t96 316t248 122t248 -122t96 -316t-96 -316t-248 -122zM381 805q32 0 52 52t20 132t-20 132.5t-52 52.5q-31 0 -51.5 -52t-20.5 -133t20.5 -132.5t51.5 -51.5z" />
    <glyph glyph-name="one.numr" horiz-adv-x="538" 
d="M274 1413h191v-848h-266v531l-84 -49l-115 213z" />
    <glyph glyph-name="two.numr" horiz-adv-x="667" 
d="M422 815h203v-250h-580v217l236 244q67 67 67 104q0 15 -14 24t-35 9q-48 0 -117 -59l-178 174q48 67 131.5 108t179.5 41q136 0 219.5 -79t83.5 -201q0 -136 -104 -240z" />
    <glyph glyph-name="three.numr" horiz-adv-x="712" 
d="M561 1004q111 -68 111 -197q0 -115 -94 -185.5t-244 -70.5q-94 0 -184 31t-146 86l150 196q29 -26 73.5 -42.5t87.5 -16.5q38 0 61 11t23 30q0 20 -23.5 31.5t-60.5 11.5h-112v225h112q70 0 70 27q0 15 -24 24t-60 9q-66 0 -129 -29l-139 192q53 40 135.5 65t165.5 25
q144 0 233.5 -68t89.5 -177q0 -111 -96 -178z" />
    <glyph glyph-name="four.numr" horiz-adv-x="774" 
d="M707 936v-250h-58v-121h-266v121h-297l-61 217l329 510h295v-477h58zM285 936h98v166z" />
    <glyph glyph-name="five.numr" horiz-adv-x="737" 
d="M395 1128q125 0 210 -81t85 -201q0 -127 -96 -211t-248 -84q-170 0 -311 96l129 215q75 -57 164 -57q43 0 66.5 15t23.5 36q0 17 -15.5 28t-40.5 11q-33 0 -55 -25l-235 68l45 475h514v-246h-291l-2 -45q24 6 57 6z" />
    <glyph glyph-name="six.numr" horiz-adv-x="712" 
d="M438 1122q106 0 179 -80t73 -194q0 -128 -95.5 -212.5t-236.5 -84.5q-151 0 -242 102.5t-91 266.5q0 207 147 348.5t406 158.5l49 -245q-146 -6 -236 -64q16 4 47 4zM356 801q26 0 44 12t18 31q0 18 -18.5 30.5t-45.5 12.5q-26 0 -41.5 -14t-15.5 -31t17.5 -29t41.5 -12z
" />
    <glyph glyph-name="seven.numr" horiz-adv-x="669" 
d="M33 1413h588v-209l-269 -639h-299l256 598h-276v250z" />
    <glyph glyph-name="eight.numr" horiz-adv-x="763" 
d="M621 1006q102 -73 102 -189q0 -113 -97.5 -189.5t-244.5 -76.5q-145 0 -242.5 76t-97.5 190q0 116 102 189q-86 73 -86 172q0 105 92 177t232 72t234 -72t94 -177q0 -101 -88 -172zM381 1184q-22 0 -37.5 -10t-15.5 -25q0 -14 15.5 -23.5t37.5 -9.5q23 0 39 9.5t16 23.5
q0 15 -16 25t-39 10zM381 801q30 0 51 12.5t21 30.5q0 17 -21.5 29t-50.5 12q-28 0 -48 -12t-20 -29q0 -18 19.5 -30.5t48.5 -12.5z" />
    <glyph glyph-name="nine.numr" horiz-adv-x="712" 
d="M354 1427q151 0 242.5 -102t91.5 -266q0 -211 -150.5 -356.5t-402.5 -151.5l-49 246q145 0 240 63q-36 -4 -52 -4q-105 0 -178 80t-73 194q0 128 95 212.5t236 84.5zM295 1135q0 -19 18 -31t45 -12q26 0 42 14t16 31t-17.5 29t-42.5 12t-43 -12.5t-18 -30.5z" />
    <glyph glyph-name="exclamdown.case" horiz-adv-x="602" 
d="M301 963q-103 0 -171.5 68t-68.5 169t68.5 169.5t171.5 68.5t171.5 -68.5t68.5 -169.5t-68.5 -169t-171.5 -68zM106 0v348l25 553h342l25 -553v-348h-392z" />
    <glyph glyph-name="questiondown.case" horiz-adv-x="1048" 
d="M559 963q-103 0 -171.5 68t-68.5 169t68.5 169.5t171.5 68.5t171.5 -68.5t68.5 -169.5t-68.5 -169t-171.5 -68zM543 -25q-207 0 -345.5 121t-138.5 293q0 56 17 107t44 89t59.5 72t65 62t59.5 52.5t44 50t17 48.5v31h389v-31q0 -66 -30 -125.5t-73 -102t-86.5 -79.5
t-73.5 -73t-30 -68t26 -51t76 -19q132 0 254 131l250 -260q-105 -119 -239.5 -183.5t-284.5 -64.5z" />
    <glyph glyph-name="periodcentered.case" horiz-adv-x="708" 
d="M354 461q-106 0 -177 71t-71 175t71 174.5t177 70.5t177 -70.5t71 -174.5t-71 -175t-177 -71z" />
    <glyph glyph-name="bullet.case" horiz-adv-x="790" 
d="M395 420q-123 0 -206 82t-83 205t83 204.5t206 81.5t206 -81.5t83 -204.5t-83 -205t-206 -82z" />
    <glyph glyph-name="asterisk.case" horiz-adv-x="804" 
d="M598 1077l76 -28l86 -43l-113 -193l-88 43l-57 49l12 -76v-88h-223v88l12 76l-59 -49l-86 -43l-113 193l86 47l72 24l-72 29l-86 43l113 192l88 -43l57 -49l-12 76v88h223v-88l-12 -74l59 47l86 43l113 -192l-86 -45z" />
    <glyph glyph-name="slash.case" horiz-adv-x="1144" 
d="M-23 -215l820 1843h370l-819 -1843h-371z" />
    <glyph glyph-name="backslash.case" horiz-adv-x="1144" 
d="M797 -215l-820 1843h371l819 -1843h-370z" />
    <glyph glyph-name="parenleft.case" horiz-adv-x="788" 
d="M434 -256q-133 174 -214 438t-81 525t81 524.5t214 437.5h371q-126 -173 -202.5 -436.5t-76.5 -525.5t76.5 -526t202.5 -437h-371z" />
    <glyph glyph-name="parenright.case" horiz-adv-x="788" 
d="M-16 -256q126 173 202 436.5t76 526.5t-76 526t-202 436h370q133 -174 214 -437.5t81 -524.5t-81 -525t-214 -438h-370z" />
    <glyph glyph-name="braceleft.case" horiz-adv-x="913" 
d="M670 897q0 -62 -35.5 -112t-97.5 -76q62 -28 97.5 -78.5t35.5 -112.5v-328q0 -44 25.5 -71t68.5 -27h104v-348h-252q-148 0 -237.5 90.5t-89.5 239.5v346q0 53 -30 84t-81 31h-80v348h80q51 0 81 31t30 83v342q0 149 89.5 239.5t237.5 90.5h252v-348h-104
q-43 0 -68.5 -27t-25.5 -71v-326z" />
    <glyph glyph-name="braceright.case" horiz-adv-x="913" 
d="M735 883h80v-348h-80q-51 0 -80.5 -31t-29.5 -84v-346q0 -149 -90 -239.5t-238 -90.5h-252v348h105q43 0 68.5 27t25.5 71v328q0 62 35.5 112.5t97.5 78.5q-62 26 -97.5 76t-35.5 112v326q0 44 -25.5 71t-68.5 27h-105v348h252q148 0 238 -90.5t90 -239.5v-342
q0 -53 29.5 -83.5t80.5 -30.5z" />
    <glyph glyph-name="bracketleft.case" horiz-adv-x="788" 
d="M743 1321h-202v-1229h202v-348h-583v1925h583v-348z" />
    <glyph glyph-name="bracketright.case" horiz-adv-x="788" 
d="M45 1669h584v-1925h-584v348h203v1229h-203v348z" />
    <glyph glyph-name="hyphen.case" horiz-adv-x="835" 
d="M106 530v357h623v-357h-623z" />
    <glyph glyph-name="endash.case" horiz-adv-x="1245" 
d="M106 543v331h1033v-331h-1033z" />
    <glyph glyph-name="emdash.case" horiz-adv-x="2187" 
d="M106 543v331h1975v-331h-1975z" />
    <glyph glyph-name="guillemotleft.case" horiz-adv-x="1415" 
d="M772 1128l-283 -421l283 -422h-430l-281 422l281 421h430zM1368 1128l-283 -421l283 -422h-430l-281 422l281 421h430z" />
    <glyph glyph-name="guillemotright.case" horiz-adv-x="1415" 
d="M492 1128l280 -421l-280 -422h-431l283 422l-283 421h431zM1087 1128l281 -421l-281 -422h-430l283 422l-283 421h430z" />
    <glyph glyph-name="guilsinglleft.case" horiz-adv-x="819" 
d="M772 1128l-283 -421l283 -422h-430l-281 422l281 421h430z" />
    <glyph glyph-name="guilsinglright.case" horiz-adv-x="819" 
d="M492 1128l280 -421l-280 -422h-431l283 422l-283 421h431z" />
    <glyph glyph-name="plus.case" horiz-adv-x="1093" 
d="M987 872v-331h-272v-275h-336v275h-273v331h273v275h336v-275h272z" />
    <glyph glyph-name="at.case" horiz-adv-x="1687" 
d="M911 1047h297v-410q0 -29 18.5 -47.5t47.5 -18.5q49 0 77.5 55t28.5 144q0 134 -70 243.5t-191 170.5t-267 61q-236 0 -390.5 -154t-154.5 -386q0 -151 69.5 -274t195 -194t282.5 -71q184 0 311 82l99 -213q-191 -98 -414 -98q-166 0 -312 59t-249.5 161t-163 244.5
t-59.5 303.5t59.5 303.5t163 245t250 162t313.5 59.5q214 0 390 -91.5t278 -254.5t102 -363q0 -195 -97.5 -311.5t-269.5 -116.5q-86 0 -159.5 29t-120.5 82q-66 -111 -211 -111q-146 0 -241 104.5t-95 259.5q0 158 93 263.5t224 105.5q98 0 166 -65v41zM821 621
q38 0 64 24.5t26 59.5q0 36 -26.5 59.5t-63.5 23.5t-63.5 -23.5t-26.5 -59.5q0 -35 26 -59.5t64 -24.5z" />
    <glyph glyph-name="uni030C.alt" horiz-adv-x="0" 
d="M-373 971l43 504h330l-96 -504h-277z" />
    <glyph glyph-name="caron.alt" horiz-adv-x="372" 
d="M0 971l43 504h330l-97 -504h-276z" />
    </font>
</defs>
</svg>
