<?xml version="1.0" standalone="no"?>
<!DOCTYPE svg PUBLIC "-//W3C//DTD SVG 1.1//EN" "http://www.w3.org/Graphics/SVG/1.1/DTD/svg11.dtd" >
<svg xmlns="http://www.w3.org/2000/svg" xmlns:xlink="http://www.w3.org/1999/xlink" version="1.1">
<metadata>
Created by FontForge 20201107 at Sun Dec 27 21:40:42 2020
 By 
Copyright (c) 2020 by Adam Ladd. All rights reserved.
</metadata>
<defs>
<font id="Lufga-Thin" horiz-adv-x="1382" >
  <font-face 
    font-family="Lufga Thin"
    font-weight="100"
    font-stretch="normal"
    units-per-em="2048"
    panose-1="0 0 2 0 0 0 0 0 0 0"
    ascent="1597"
    descent="-451"
    x-height="1044"
    cap-height="1413"
    bbox="-1364 -451 2640 1815"
    underline-thickness="36"
    underline-position="-241"
    unicode-range="U+0020-FB02"
  />
<missing-glyph horiz-adv-x="1024" 
d="M840 1597v-2048h-650v2048h650zM682 1460h-338v-67h133v-76h-135v-68h340v68h-135v76h135v67zM547 1196h-205v-213h340v70h-135v143zM477 1126v-73h-67v73h67zM682 928h-340v-68h135v-76h-135v-67h205v143h135v68zM682 805h-68v-135h-272v-70h340v205zM682 555h-205v-115
h70v47h67v-96h-204v164h-68v-231h340v231zM682 201h-340v-232h340v232zM614 133v-96h-204v96h204zM682 -78h-340v-67h143l-143 -97v-67h340v67h-209l143 97h66v67z" />
    <glyph glyph-name="fi" unicode="fi" horiz-adv-x="1202" 
d="M311 1260q0 123 64.5 181t179.5 58q88 0 164 -39v-47q-73 39 -158 39q-201 0 -201 -197v-211h359v-45h-359v-999h-49v999h-223v45h223v216zM999 1430q20 0 34 -15t14 -35t-14 -33.5t-34 -13.5q-22 0 -35.5 13.5t-13.5 33.5q0 21 14 35.5t35 14.5zM975 0v1044h49v-1044
h-49z" />
    <glyph glyph-name="fl" unicode="fl" horiz-adv-x="1202" 
d="M311 1260q0 123 64.5 181t179.5 58q88 0 164 -39v-47q-73 39 -158 39q-201 0 -201 -197v-211h359v-45h-359v-999h-49v999h-223v45h223v216zM975 1475h49v-1475h-49v1475z" />
    <glyph glyph-name=".notdef" horiz-adv-x="1024" 
d="M840 1597v-2048h-650v2048h650zM682 1460h-338v-67h133v-76h-135v-68h340v68h-135v76h135v67zM547 1196h-205v-213h340v70h-135v143zM477 1126v-73h-67v73h67zM682 928h-340v-68h135v-76h-135v-67h205v143h135v68zM682 805h-68v-135h-272v-70h340v205zM682 555h-205v-115
h70v47h67v-96h-204v164h-68v-231h340v231zM682 201h-340v-232h340v232zM614 133v-96h-204v96h204zM682 -78h-340v-67h143l-143 -97v-67h340v67h-209l143 97h66v67z" />
    <glyph glyph-name=".null" horiz-adv-x="0" 
 />
    <glyph glyph-name="nonmarkingreturn" horiz-adv-x="682" 
 />
    <glyph glyph-name="space" unicode=" " horiz-adv-x="563" 
 />
    <glyph glyph-name="exclam" unicode="!" horiz-adv-x="462" 
d="M209 319l-2 746v348h51v-348l-2 -746h-47zM231 -8q-23 0 -39 16t-16 39t16 39t39 16t39.5 -16t16.5 -39t-16.5 -39t-39.5 -16z" />
    <glyph glyph-name="quotedbl" unicode="&#x22;" horiz-adv-x="724" 
d="M170 999l-2 414h49l-2 -414h-45zM510 999l-2 414h49l-2 -414h-45z" />
    <glyph glyph-name="numbersign" unicode="#" horiz-adv-x="1538" 
d="M1427 930h-282l-129 -447h305v-43h-317l-130 -440h-49l127 440h-540l-127 -440h-49l126 440h-270v43h283l131 447h-307v43h319l127 440h49l-127 -440h541l127 440h51l-129 -440h270v-43zM965 483l131 447h-541l-131 -447h541z" />
    <glyph glyph-name="dollar" unicode="$" horiz-adv-x="1095" 
d="M1049 354q0 -153 -130 -253t-325 -105v-139h-45v139q-138 6 -259.5 65t-199.5 158l33 37q71 -88 182.5 -146t243.5 -65v651q-61 13 -114 30.5t-112.5 49t-101 70t-69 97t-27.5 128.5q0 150 120.5 245.5t303.5 100.5v139h45v-139q120 -6 218.5 -53.5t162.5 -128.5l-33 -33
q-45 66 -139.5 113t-208.5 53v-625q45 -9 87 -21.5t97.5 -33.5t100.5 -51t85 -69.5t62.5 -94.5t22.5 -119zM180 1073q0 -60 25 -110.5t62 -83.5t89 -59.5t97.5 -40.5t95.5 -25v614q-159 -5 -264 -87.5t-105 -207.5zM594 45q172 5 285.5 90t113.5 217q0 248 -399 336v-643z
" />
    <glyph glyph-name="percent" unicode="%" horiz-adv-x="1638" 
d="M424 827q-130 0 -217.5 87.5t-87.5 218.5t87.5 218t217.5 87q132 0 218.5 -87t86.5 -218t-86.5 -218.5t-218.5 -87.5zM279 0l1024 1413h57l-1024 -1413h-57zM424 872q110 0 184 75t74 186q0 112 -73.5 186t-184.5 74q-109 0 -183.5 -74t-74.5 -186q0 -110 74.5 -185.5
t183.5 -75.5zM1212 -25q-130 0 -217.5 87.5t-87.5 218.5t87.5 218t217.5 87q132 0 219 -87t87 -218t-87 -218.5t-219 -87.5zM1212 20q110 0 184 74.5t74 186.5q0 110 -74 185t-184 75q-109 0 -183.5 -75t-74.5 -185q0 -112 74.5 -186.5t183.5 -74.5z" />
    <glyph glyph-name="ampersand" unicode="&#x26;" horiz-adv-x="1308" 
d="M1346 0h-68l-213 223q-196 -248 -477 -248q-206 0 -348 126t-142 317q0 67 21 127t53 104t82.5 86t96 70.5t106.5 60.5q-90 98 -132 174.5t-42 147.5q0 106 82.5 178t205.5 72q119 0 202 -72.5t83 -179.5q0 -45 -18 -86t-44.5 -71.5t-71.5 -62.5t-83 -53.5t-96 -50.5
l-11 -6l531 -559q100 146 156 340l45 -12q-62 -218 -168 -361zM336 1188q0 -64 39.5 -134t126.5 -165q2 2 14 8q57 30 91.5 49.5t77 49t65.5 55.5t39 61t16 74q0 88 -68 147.5t-166 59.5q-101 0 -168 -59t-67 -146zM588 23q259 0 446 235l-547 576q-59 -31 -103 -58.5
t-90 -66.5t-75.5 -79.5t-48 -94.5t-18.5 -115q0 -171 127 -284t309 -113z" />
    <glyph glyph-name="quotesingle" unicode="'" horiz-adv-x="382" 
d="M170 999l-2 414h49l-2 -414h-45z" />
    <glyph glyph-name="parenleft" unicode="(" horiz-adv-x="593" 
d="M467 -389q-129 174 -208 437t-79 525t79 525.5t208 437.5h51q-129 -173 -207 -436.5t-78 -526.5q0 -262 78 -525.5t207 -436.5h-51z" />
    <glyph glyph-name="parenright" unicode=")" horiz-adv-x="593" 
d="M76 -389q128 174 206 437t78 525t-78 525.5t-206 437.5h51q129 -174 208 -437.5t79 -525.5t-79 -525t-208 -437h-51z" />
    <glyph glyph-name="asterisk" unicode="*" horiz-adv-x="778" 
d="M424 1186l22 -10l205 -119l-20 -35l-205 119l-20 14l4 -25v-235h-41v235l2 25l-19 -14l-205 -119l-20 35l205 119l22 10l-22 8l-205 119l20 35l205 -119l19 -15l-2 25v236h41v-236l-4 -25l20 15l205 119l20 -35l-205 -119z" />
    <glyph glyph-name="plus" unicode="+" horiz-adv-x="1093" 
d="M948 627v-45h-377v-379h-49v379h-377v45h377v379h49v-379h377z" />
    <glyph glyph-name="comma" unicode="," horiz-adv-x="434" 
d="M86 -297l139 416h64l-158 -416h-45z" />
    <glyph glyph-name="hyphen" unicode="-" horiz-adv-x="835" 
d="M145 537v47h545v-47h-545z" />
    <glyph glyph-name="period" unicode="." horiz-adv-x="423" 
d="M211 -8q-23 0 -39 16t-16 39q0 24 15.5 39.5t39.5 15.5q25 0 40 -15t15 -40q0 -24 -15.5 -39.5t-39.5 -15.5z" />
    <glyph glyph-name="slash" unicode="/" horiz-adv-x="983" 
d="M55 -307l819 1843h52l-820 -1843h-51z" />
    <glyph glyph-name="zero" unicode="0" horiz-adv-x="1343" 
d="M672 -25q-233 0 -381 204t-148 528q0 213 67 380t187.5 259t274.5 92q233 0 380.5 -203.5t147.5 -527.5q0 -213 -67 -380t-187 -259.5t-274 -92.5zM672 27q137 0 244.5 86t168 241t60.5 353t-60.5 353t-168 240.5t-244.5 85.5t-244.5 -85.5t-168 -240.5t-60.5 -353
t60.5 -353t168 -241t244.5 -86z" />
    <glyph glyph-name="one" unicode="1" horiz-adv-x="710" 
d="M461 1413h35v-1413h-52v1352l-356 -197l-25 43z" />
    <glyph glyph-name="two" unicode="2" horiz-adv-x="1107" 
d="M188 49h816v-49h-893v39l614 676q89 98 133.5 179.5t44.5 172.5q0 141 -99.5 229t-250.5 88q-126 0 -228.5 -63.5t-164.5 -177.5l-43 28q67 123 183 195t255 72q174 0 288.5 -103.5t114.5 -267.5q0 -98 -46.5 -188t-141.5 -193z" />
    <glyph glyph-name="three" unicode="3" horiz-adv-x="1187" 
d="M750 752q148 -34 238.5 -136.5t90.5 -242.5q0 -171 -136.5 -284.5t-346.5 -113.5q-137 0 -260.5 52.5t-216.5 152.5l37 39q81 -94 194.5 -143t243.5 -49q187 0 308.5 99.5t121.5 250.5q0 149 -116 248.5t-287 99.5h-230v49h230q153 0 254.5 88t101.5 219t-107.5 218
t-273.5 87q-119 0 -222 -48t-165 -136l-37 33q75 98 187.5 150.5t240.5 52.5q188 0 310 -101t122 -254q0 -119 -78 -209.5t-204 -121.5z" />
    <glyph glyph-name="four" unicode="4" horiz-adv-x="1196" 
d="M1133 428v-49h-232v-379h-51v379h-752l-16 41l770 993h49v-985h232zM147 428h703v905z" />
    <glyph glyph-name="five" unicode="5" horiz-adv-x="1216" 
d="M627 868q207 0 345 -127t138 -319q0 -125 -65 -227.5t-180 -161t-255 -58.5q-143 0 -265 62t-210 174l35 39q78 -105 191.5 -164t246.5 -59q192 0 319.5 114t127.5 283t-122.5 282t-307.5 113q-107 0 -211 -40t-172 -105l-45 18l67 721h750v-49h-705l-61 -629
q66 59 169 96t210 37z" />
    <glyph glyph-name="six" unicode="6" horiz-adv-x="1132" 
d="M602 868q204 0 339.5 -126t135.5 -312q0 -196 -142 -325.5t-362 -129.5q-234 0 -374 136.5t-140 382.5q0 213 108 409.5t295.5 336.5t420.5 198l12 -49q-313 -87 -513.5 -292t-254.5 -470q56 114 188 177.5t287 63.5zM575 27q192 0 319.5 114.5t127.5 288.5
q0 165 -121 276t-307 111q-67 0 -132.5 -13t-128.5 -41.5t-111 -70.5t-77.5 -104.5t-29.5 -138.5q0 -185 126 -303.5t334 -118.5z" />
    <glyph glyph-name="seven" unicode="7" horiz-adv-x="1083" 
d="M113 1413h891v-39l-674 -1374h-62l674 1364h-829v49z" />
    <glyph glyph-name="eight" unicode="8" horiz-adv-x="1189" 
d="M750 731q149 -37 240 -136t91 -230q0 -166 -139 -278t-348 -112q-207 0 -346 112t-139 278q0 131 90.5 230t238.5 136q-134 37 -215.5 130t-81.5 214q0 154 130 258.5t323 104.5q194 0 324.5 -104.5t130.5 -258.5q0 -122 -82 -214.5t-217 -129.5zM197 1071
q0 -134 113.5 -224.5t283.5 -90.5q171 0 285 90.5t114 224.5q0 135 -113.5 225t-285.5 90q-170 0 -283.5 -90t-113.5 -225zM594 27q186 0 309 97t123 243q0 145 -123 241.5t-309 96.5q-184 0 -307 -96.5t-123 -241.5q0 -146 122.5 -243t307.5 -97z" />
    <glyph glyph-name="nine" unicode="9" horiz-adv-x="1132" 
d="M559 1438q233 0 372.5 -136t139.5 -382q0 -216 -102.5 -414.5t-291.5 -341t-427 -189.5l-12 50q163 37 298 112t229.5 176.5t155.5 221t87 251.5q-56 -114 -190 -177.5t-290 -63.5q-204 0 -338.5 126t-134.5 312q0 196 142 325.5t362 129.5zM539 596q67 0 132.5 13
t128.5 42t111 70.5t77.5 104.5t29.5 139q0 185 -126.5 303t-336.5 118q-191 0 -317.5 -114.5t-126.5 -288.5q0 -165 121 -276t307 -111z" />
    <glyph glyph-name="colon" unicode=":" horiz-adv-x="444" 
d="M221 799q-23 0 -39 16t-16 39t16 39t39 16q24 0 39.5 -15.5t15.5 -39.5t-15.5 -39.5t-39.5 -15.5zM221 -8q-23 0 -39 16t-16 39q0 24 15.5 39.5t39.5 15.5q25 0 40 -15t15 -40q0 -24 -15.5 -39.5t-39.5 -15.5z" />
    <glyph glyph-name="semicolon" unicode=";" horiz-adv-x="466" 
d="M248 799q-23 0 -39 16t-16 39t16 39t39 16q24 0 39.5 -15.5t15.5 -39.5t-15.5 -39.5t-39.5 -15.5zM82 -297l139 416h64l-158 -416h-45z" />
    <glyph glyph-name="less" unicode="&#x3c;" horiz-adv-x="950" 
d="M805 977v-49l-612 -322l612 -321v-49l-660 348v45z" />
    <glyph glyph-name="equal" unicode="=" horiz-adv-x="1093" 
d="M145 731v45h803v-45h-803zM145 434v45h803v-45h-803z" />
    <glyph glyph-name="greater" unicode="&#x3e;" horiz-adv-x="950" 
d="M145 977l660 -348v-45l-660 -348v49l613 321l-613 322v49z" />
    <glyph glyph-name="question" unicode="?" horiz-adv-x="976" 
d="M453 332v88q0 59 26.5 118.5t66.5 106.5t87 101.5t87 103t66.5 111t26.5 126.5q0 129 -96.5 215.5t-239.5 86.5q-119 0 -223.5 -64.5t-167.5 -169.5l-43 29q67 115 184 184.5t252 69.5q166 0 276.5 -99.5t110.5 -248.5q0 -81 -37.5 -159t-90.5 -139t-106 -119
t-90.5 -123.5t-37.5 -129.5v-88h-51zM477 -8q-23 0 -38 16t-15 39t15 39t38 16q24 0 39.5 -15.5t15.5 -39.5t-15.5 -39.5t-39.5 -15.5z" />
    <glyph glyph-name="at" unicode="@" horiz-adv-x="1746" 
d="M1362 180q-80 0 -129 48t-49 126v37q-42 -101 -131.5 -160t-206.5 -59q-164 0 -271.5 109t-107.5 272t108 272t269 109q118 0 208 -59.5t132 -161.5v196h49v-553q0 -59 35.5 -95t93.5 -36q88 0 142.5 98t54.5 252q0 187 -89.5 339.5t-246.5 239.5t-349 87
q-193 0 -350 -89.5t-246.5 -247t-89.5 -351.5t89.5 -351.5t246.5 -247t350 -89.5q134 0 253.5 45t209.5 127l31 -39q-206 -178 -494 -178q-207 0 -375.5 95.5t-264 263.5t-95.5 374t96 374t264.5 263.5t374.5 95.5q154 0 290 -54.5t233.5 -148.5t154 -226t56.5 -282
q0 -174 -67.5 -284.5t-178.5 -110.5zM850 219q144 0 239 95.5t95 238.5t-95 238.5t-239 95.5q-142 0 -237 -95.5t-95 -238.5t95 -238.5t237 -95.5z" />
    <glyph glyph-name="A" unicode="A" horiz-adv-x="1447" 
d="M1317 0l-193 440h-802l-193 -440h-57l618 1413h68l618 -1413h-59zM344 489h758l-379 867z" />
    <glyph glyph-name="B" unicode="B" horiz-adv-x="1245" 
d="M862 748q135 -26 218 -127t83 -242q0 -162 -108.5 -270.5t-270.5 -108.5h-585v1413h534q149 0 248.5 -98.5t99.5 -247.5q0 -111 -63 -198t-156 -121zM727 1364h-475v-602h475q123 0 211 87t88 214q0 129 -85 215t-214 86zM778 49q141 0 235.5 95.5t94.5 238.5
q0 141 -94.5 236.5t-235.5 95.5h-526v-666h526z" />
    <glyph glyph-name="C" unicode="C" horiz-adv-x="1564" 
d="M848 -25q-154 0 -290.5 56.5t-233.5 153.5t-153 232.5t-56 289.5q0 205 95.5 372.5t263.5 263t374 95.5q190 0 349.5 -85.5t258.5 -232.5l-45 -28q-91 137 -238.5 215.5t-324.5 78.5q-143 0 -269 -52t-215.5 -142t-141.5 -216t-52 -269t52 -269t141.5 -216.5
t215.5 -142.5t269 -52q177 0 324.5 79t238.5 216l45 -29q-99 -147 -258.5 -232.5t-349.5 -85.5z" />
    <glyph glyph-name="D" unicode="D" horiz-adv-x="1554" 
d="M731 1413q200 0 362.5 -92t254.5 -253.5t92 -360.5q0 -149 -54 -280t-148 -225t-225.5 -148t-281.5 -54h-532v1413h532zM731 49q138 0 259 50.5t207.5 137.5t136.5 209t50 261q0 185 -85 335.5t-234.5 236t-333.5 85.5h-479v-1315h479z" />
    <glyph glyph-name="E" unicode="E" horiz-adv-x="1220" 
d="M252 49h850v-49h-903v1413h893v-49h-840v-629h770v-49h-770v-637z" />
    <glyph glyph-name="F" unicode="F" horiz-adv-x="1155" 
d="M1061 1364h-809v-639h719v-49h-719v-676h-53v1413h862v-49z" />
    <glyph glyph-name="G" unicode="G" horiz-adv-x="1662" 
d="M924 694h635v-16q0 -149 -54.5 -279.5t-148.5 -223.5t-226.5 -146.5t-283.5 -53.5q-205 0 -372.5 95.5t-263 263.5t-95.5 373t95.5 372.5t263.5 263t374 95.5q191 0 350.5 -84.5t257.5 -231.5l-41 -30q-91 137 -239 215.5t-328 78.5q-142 0 -268 -52t-216 -142t-142 -216
t-52 -269t52 -269t142 -216.5t216 -142.5t268 -52q180 0 328 79t235 221t92 318h-579v49z" />
    <glyph glyph-name="H" unicode="H" horiz-adv-x="1519" 
d="M1268 1413h53v-1413h-53v686h-1016v-686h-53v1413h53v-678h1016v678z" />
    <glyph glyph-name="I" unicode="I" horiz-adv-x="450" 
d="M199 0v1413h53v-1413h-53z" />
    <glyph glyph-name="J" unicode="J" horiz-adv-x="866" 
d="M324 -25q-129 0 -258 70v57q124 -75 256 -75q150 0 240.5 92t90.5 239v1055h54v-1057q0 -165 -107 -273t-276 -108z" />
    <glyph glyph-name="K" unicode="K" horiz-adv-x="1259" 
d="M1188 0l-719 686l-217 -205v-481h-53v1413h53v-860l919 860h74l-737 -690l754 -723h-74z" />
    <glyph glyph-name="L" unicode="L" horiz-adv-x="1120" 
d="M252 49h788v-49h-841v1413h53v-1364z" />
    <glyph glyph-name="M" unicode="M" horiz-adv-x="1740" 
d="M1470 1413h72v-1413h-53v1346l-604 -988h-29l-604 988v-1346h-53v1413h73l600 -979z" />
    <glyph glyph-name="N" unicode="N" horiz-adv-x="1531" 
d="M1280 1413h53v-1413h-63l-1018 1341v-1341h-53v1413h65l1016 -1337v1337z" />
    <glyph glyph-name="O" unicode="O" horiz-adv-x="1693" 
d="M848 -25q-154 0 -290.5 56.5t-233.5 153.5t-153 232.5t-56 289.5q0 205 95.5 372.5t263.5 263t374 95.5q205 0 372.5 -95.5t263 -263t95.5 -372.5t-95.5 -373t-263 -263.5t-372.5 -95.5zM848 27q142 0 267.5 52t215 142.5t141.5 216.5t52 269t-52 269t-141.5 216
t-215 142t-267.5 52q-143 0 -269 -52t-215.5 -142t-141.5 -216t-52 -269t52 -269t141.5 -216.5t215.5 -142.5t269 -52z" />
    <glyph glyph-name="P" unicode="P" horiz-adv-x="1232" 
d="M731 1413q174 0 291 -116t117 -289t-117.5 -289.5t-290.5 -116.5h-479v-602h-53v1413h532zM731 651q151 0 251.5 101.5t100.5 255.5q0 153 -100.5 254.5t-251.5 101.5h-479v-713h479z" />
    <glyph glyph-name="Q" unicode="Q" horiz-adv-x="1693" 
d="M1579 707q0 -189 -82 -347t-225 -258l158 -225l-46 -31l-159 228q-171 -99 -377 -99q-154 0 -290.5 56.5t-233.5 153.5t-153 232.5t-56 289.5q0 205 95.5 372.5t263.5 263t374 95.5q205 0 372.5 -95.5t263 -263t95.5 -372.5zM848 27q188 0 346 90l-160 227l45 33
l162 -232q132 92 207.5 239t75.5 323q0 143 -52 269t-141.5 216t-215 142t-267.5 52q-143 0 -269 -52t-215.5 -142t-141.5 -216t-52 -269t52 -269t141.5 -216.5t215.5 -142.5t269 -52z" />
    <glyph glyph-name="R" unicode="R" horiz-adv-x="1232" 
d="M1071 0l-563 643h-256v-643h-53v1413h532q164 0 275.5 -110.5t111.5 -274.5t-111.5 -274.5t-275.5 -110.5h-156l566 -643h-70zM252 1364v-674h477q143 0 238.5 96t95.5 240q0 146 -95.5 242t-238.5 96h-477z" />
    <glyph glyph-name="S" unicode="S" horiz-adv-x="1185" 
d="M610 -25q-151 0 -286 60t-222 164l33 37q76 -93 201.5 -152t273.5 -59q187 0 312 91t125 234q0 41 -12 78t-30 65t-48.5 53.5t-57 43t-66.5 34.5t-65.5 26t-66.5 19.5t-57 14l-48 10.5q-65 12 -123 29.5t-122 48.5t-110 70.5t-76 99.5t-30 131q0 162 132 263.5t331 101.5
q134 0 247 -49t181 -134l-31 -34q-54 72 -161 120t-236 48q-175 0 -291.5 -88.5t-116.5 -225.5q0 -248 420 -327q39 -7 75.5 -16t88 -26.5t94.5 -38t88 -52t75.5 -68t50.5 -87t20 -108.5q0 -164 -141.5 -270.5t-350.5 -106.5z" />
    <glyph glyph-name="T" unicode="T" horiz-adv-x="1218" 
d="M1147 1413v-49h-512v-1364h-53v1364h-512v49h1077z" />
    <glyph glyph-name="U" unicode="U" horiz-adv-x="1437" 
d="M719 -25q-156 0 -284.5 73t-201.5 201.5t-73 285.5v878h53v-878q0 -143 66 -259t182 -182.5t258 -66.5q218 0 363 145.5t145 362.5v878h51v-878q0 -239 -160 -399.5t-399 -160.5z" />
    <glyph glyph-name="V" unicode="V" horiz-adv-x="1435" 
d="M1305 1413h57l-612 -1413h-64l-612 1413h59l586 -1354z" />
    <glyph glyph-name="W" unicode="W" horiz-adv-x="2119" 
d="M1980 1413h56l-467 -1413h-58l-452 1343l-451 -1343h-59l-465 1413h57l439 -1354l452 1354h55l453 -1354z" />
    <glyph glyph-name="X" unicode="X" horiz-adv-x="1445" 
d="M1360 0h-68l-569 674l-569 -674h-68l598 709l-590 704h68l563 -672l559 672h68l-590 -704z" />
    <glyph glyph-name="Y" unicode="Y" horiz-adv-x="1378" 
d="M1272 1413h59l-616 -852v-561h-51v561l-617 852h64l579 -801z" />
    <glyph glyph-name="Z" unicode="Z" horiz-adv-x="1257" 
d="M170 49h987v-49h-1057v39l973 1325h-964v49h1034v-39z" />
    <glyph glyph-name="bracketleft" unicode="[" horiz-adv-x="628" 
d="M549 1491h-299v-1835h299v-45h-348v1925h348v-45z" />
    <glyph glyph-name="backslash" unicode="\" horiz-adv-x="983" 
d="M874 -307l-819 1843h51l820 -1843h-52z" />
    <glyph glyph-name="bracketright" unicode="]" horiz-adv-x="628" 
d="M80 1536h348v-1925h-348v45h299v1835h-299v45z" />
    <glyph glyph-name="asciicircum" unicode="^" horiz-adv-x="798" 
d="M672 950h-54l-219 418l-221 -418h-51l246 463h51z" />
    <glyph glyph-name="underscore" unicode="_" horiz-adv-x="1124" 
d="M125 -260v43h874v-43h-874z" />
    <glyph glyph-name="grave" unicode="`" horiz-adv-x="292" 
d="M236 1212l-236 228h74l219 -228h-57z" />
    <glyph glyph-name="a" unicode="a" 
d="M1153 1044h49v-1044h-49v322q-58 -157 -192.5 -252t-309.5 -95q-153 0 -277.5 71.5t-194.5 196.5t-70 279t70 279t194.5 196.5t277.5 71.5q175 0 309.5 -94.5t192.5 -251.5v321zM657 25q140 0 253.5 64.5t178 178.5t64.5 254q0 214 -142 356t-354 142q-214 0 -355.5 -142
t-141.5 -356t141.5 -355.5t355.5 -141.5z" />
    <glyph glyph-name="b" unicode="b" 
d="M731 1069q152 0 276.5 -71.5t195.5 -197t71 -278.5t-71 -278.5t-195.5 -197t-276.5 -71.5q-175 0 -309.5 95t-192.5 252v-322h-49v1475h49v-752q58 157 192.5 251.5t309.5 94.5zM725 25q140 0 253.5 64.5t178 178.5t64.5 254q0 214 -142 356t-354 142q-214 0 -355 -142
t-141 -356t141 -355.5t355 -141.5z" />
    <glyph glyph-name="c" unicode="c" horiz-adv-x="1230" 
d="M657 -25q-154 0 -280 71.5t-197 197t-71 278.5t71 278.5t197 197t280 71.5q153 0 277 -71t196 -193l-45 -25q-64 110 -177.5 175t-250.5 65q-214 0 -355.5 -142t-141.5 -356t141.5 -355.5t355.5 -141.5q138 0 251 64.5t177 174.5l45 -24q-72 -122 -196.5 -193.5
t-276.5 -71.5z" />
    <glyph glyph-name="d" unicode="d" 
d="M1153 1475h49v-1475h-49v322q-58 -157 -192.5 -252t-309.5 -95q-153 0 -277.5 71.5t-194.5 196.5t-70 279t70 279t194.5 196.5t277.5 71.5q175 0 309.5 -94.5t192.5 -251.5v752zM657 25q140 0 253.5 64.5t178 178.5t64.5 254q0 214 -142 356t-354 142q-214 0 -355.5 -142
t-141.5 -356t141.5 -355.5t355.5 -141.5z" />
    <glyph glyph-name="e" unicode="e" horiz-adv-x="1290" 
d="M1188 522v-20h-1028q8 -206 151.5 -342.5t356.5 -136.5q141 0 258 63.5t182 171.5l39 -29q-74 -119 -200 -186.5t-279 -67.5q-239 0 -399 157t-160 390q0 234 154.5 390.5t385.5 156.5q230 0 384.5 -157t154.5 -390zM647 1022q-202 0 -340 -135t-147 -340h977
q-9 205 -148 340t-342 135z" />
    <glyph glyph-name="f" unicode="f" horiz-adv-x="774" 
d="M561 1452q-201 0 -201 -197v-211h359v-45h-359v-999h-49v999h-223v45h223v216q0 123 64.5 181t179.5 58q88 0 164 -39v-47q-73 39 -158 39z" />
    <glyph glyph-name="g" unicode="g" horiz-adv-x="1144" 
d="M831 -68q137 0 223 -65.5t89 -173.5l-53 -6q0 89 -72.5 142.5t-190.5 53.5h-444q-110 0 -179 57.5t-69 149.5q0 61 32 116.5t85 84.5q-70 61 -109 146.5t-39 185.5q0 191 130.5 318.5t326.5 127.5q171 0 295 -100q3 82 56.5 132t138.5 50h73v-47h-69q-71 0 -114.5 -42.5
t-43.5 -111.5v-18q123 -126 123 -309q0 -189 -132 -317t-327 -128q-157 0 -274 84q-47 -21 -74 -65.5t-27 -96.5q0 -75 55 -121.5t146 -46.5h444zM156 623q0 -169 116 -283.5t289 -114.5t289.5 114.5t116.5 283.5t-116.5 284t-289.5 115q-174 0 -289.5 -114.5t-115.5 -284.5
z" />
    <glyph glyph-name="h" unicode="h" horiz-adv-x="1288" 
d="M668 1069q203 0 327.5 -123.5t124.5 -327.5v-618h-49v608q0 187 -113 299.5t-301 112.5q-194 0 -311 -113.5t-117 -302.5v-604h-49v1475h49v-678q51 129 165.5 200.5t273.5 71.5z" />
    <glyph glyph-name="i" unicode="i" horiz-adv-x="407" 
d="M205 1333q-22 0 -35.5 13.5t-13.5 33.5q0 21 14 35.5t35 14.5q20 0 33.5 -14.5t13.5 -35.5q0 -20 -13.5 -33.5t-33.5 -13.5zM180 0v1044h49v-1044h-49z" />
    <glyph glyph-name="j" unicode="j" horiz-adv-x="421" 
d="M217 1333q-20 0 -33.5 13.5t-13.5 33.5q0 21 13.5 35.5t33.5 14.5q21 0 35 -14.5t14 -35.5q0 -20 -13.5 -33.5t-35.5 -13.5zM25 -414q-61 0 -117 27v47q49 -27 108 -27q177 0 177 187v1224h49v-1230q0 -115 -58.5 -171.5t-158.5 -56.5z" />
    <glyph glyph-name="k" unicode="k" horiz-adv-x="1005" 
d="M903 0l-479 504l-195 -199v-305h-49v1475h49v-1104l660 673h67l-497 -505l512 -539h-68z" />
    <glyph glyph-name="l" unicode="l" horiz-adv-x="407" 
d="M180 0v1475h49v-1475h-49z" />
    <glyph glyph-name="m" unicode="m" horiz-adv-x="1982" 
d="M1411 1069q183 0 293.5 -109.5t110.5 -291.5v-668h-50v657q0 165 -99.5 264t-264.5 99q-170 0 -274.5 -100.5t-104.5 -266.5v-653h-49v657q0 164 -99.5 263.5t-265.5 99.5q-170 0 -274.5 -100.5t-104.5 -266.5v-653h-49v1044h49v-210q46 111 148 173t241 62
q147 0 250 -73t138 -201q40 128 147 201t258 73z" />
    <glyph glyph-name="n" unicode="n" horiz-adv-x="1288" 
d="M668 1069q203 0 327.5 -123.5t124.5 -327.5v-618h-49v608q0 187 -113 299.5t-301 112.5q-194 0 -311 -113.5t-117 -302.5v-604h-49v1044h49v-247q51 129 165.5 200.5t273.5 71.5z" />
    <glyph glyph-name="o" unicode="o" horiz-adv-x="1312" 
d="M657 -25q-154 0 -280 71.5t-197 197t-71 278.5t71 278.5t197 197t280 71.5q233 0 390 -157t157 -390t-157 -390t-390 -157zM657 25q140 0 253.5 64.5t178 178.5t64.5 254q0 214 -142 356t-354 142q-214 0 -355.5 -142t-141.5 -356t141.5 -355.5t355.5 -141.5z" />
    <glyph glyph-name="p" unicode="p" 
d="M731 1069q152 0 276.5 -71.5t195.5 -197t71 -278.5t-71 -278.5t-195.5 -197t-276.5 -71.5q-175 0 -309.5 95t-192.5 252v-711h-49v1433h49v-321q58 157 192.5 251.5t309.5 94.5zM725 25q140 0 253.5 64.5t178 178.5t64.5 254q0 214 -142 356t-354 142q-214 0 -355 -142
t-141 -356t141 -355.5t355 -141.5z" />
    <glyph glyph-name="q" unicode="q" 
d="M1153 1044h49v-1433h-49v711q-58 -157 -192.5 -252t-309.5 -95q-153 0 -277.5 71.5t-194.5 196.5t-70 279t70 279t194.5 196.5t277.5 71.5q175 0 309.5 -94.5t192.5 -251.5v321zM657 25q140 0 253.5 64.5t178 178.5t64.5 254q0 214 -142 356t-354 142q-214 0 -355.5 -142
t-141.5 -356t141.5 -355.5t355.5 -141.5z" />
    <glyph glyph-name="r" unicode="r" horiz-adv-x="741" 
d="M664 1061h24v-51h-24q-197 0 -316 -123t-119 -328v-559h-49v1044h49v-274q52 137 165.5 214t269.5 77z" />
    <glyph glyph-name="s" unicode="s" horiz-adv-x="989" 
d="M498 -25q-125 0 -229 45t-171 125l31 35q60 -74 156 -115.5t211 -41.5q147 0 243.5 66.5t96.5 172.5q0 33 -10.5 60.5t-25 48t-42.5 39t-51 30t-63.5 25t-66.5 20.5t-73 19q-49 13 -78 21t-73 23.5t-70.5 29.5t-58 36t-48.5 47t-29 58.5t-12 73.5q0 128 105.5 202
t255.5 74q110 0 201 -39.5t153 -109.5l-31 -37q-53 65 -137 102t-184 37q-131 0 -220.5 -62.5t-89.5 -160.5q0 -34 10.5 -62.5t25.5 -49.5t43.5 -40t51.5 -31t64.5 -25.5t67 -20.5t73.5 -19q50 -13 77.5 -20t72 -22t69.5 -28.5t56.5 -35.5t48 -46.5t28 -58.5t11.5 -74
q0 -132 -110.5 -211.5t-278.5 -79.5z" />
    <glyph glyph-name="t" unicode="t" horiz-adv-x="808" 
d="M725 999h-358v-778q0 -106 51.5 -151t150.5 -45q85 0 156 38v-49q-73 -39 -162 -39q-246 0 -246 240v784h-223v45h223v304h50v-304h358v-45z" />
    <glyph glyph-name="u" unicode="u" horiz-adv-x="1236" 
d="M618 -25q-203 0 -326.5 119.5t-123.5 315.5v634h49v-628q0 -177 109.5 -284t291.5 -107t292 107t110 284v628h49v-634q0 -196 -124 -315.5t-327 -119.5z" />
    <glyph glyph-name="v" unicode="v" horiz-adv-x="1161" 
d="M1049 1044h55l-494 -1044h-59l-494 1044h58l467 -989z" />
    <glyph glyph-name="w" unicode="w" horiz-adv-x="1806" 
d="M1690 1044h53l-400 -1044h-57l-383 987l-383 -987h-57l-400 1044h56l375 -991l383 991h55l381 -989z" />
    <glyph glyph-name="x" unicode="x" horiz-adv-x="1167" 
d="M1061 0h-64l-413 494l-416 -494h-64l443 524l-436 520h63l410 -489l409 489h62l-434 -520z" />
    <glyph glyph-name="y" unicode="y" horiz-adv-x="1161" 
d="M1049 1044h55l-629 -1318q-33 -69 -84.5 -104.5t-111.5 -35.5q-52 0 -105 26t-88 69l31 32q27 -36 68.5 -57t86.5 -21q100 0 156 111l125 250l-496 1048h58l467 -991z" />
    <glyph glyph-name="z" unicode="z" horiz-adv-x="1030" 
d="M180 47h742v-47h-813v35l729 962h-721v47h790v-34z" />
    <glyph glyph-name="braceleft" unicode="{" horiz-adv-x="768" 
d="M399 707q0 -44 -24.5 -81t-61.5 -51q37 -15 61.5 -52t24.5 -81v-628q0 -66 45 -112t109 -46h137v-45h-147q-82 0 -137.5 55.5t-55.5 138.5v631q0 49 -31.5 82t-78.5 33h-80v47h80q47 0 78.5 33t31.5 82v628q0 83 55.5 139t137.5 56h147v-45h-137q-64 0 -109 -46t-45 -112
v-626z" />
    <glyph glyph-name="bar" unicode="|" horiz-adv-x="528" 
d="M240 -389v1925h47v-1925h-47z" />
    <glyph glyph-name="braceright" unicode="}" horiz-adv-x="768" 
d="M528 598h80v-47h-80q-47 0 -78.5 -33t-31.5 -82v-631q0 -83 -55 -138.5t-138 -55.5h-145v45h137q64 0 108 46t44 112v628q0 44 24.5 81t61.5 52q-37 14 -61.5 51t-24.5 81v626q0 66 -44 112t-108 46h-137v45h145q83 0 138 -56t55 -139v-628q0 -49 31.5 -82t78.5 -33z" />
    <glyph glyph-name="asciitilde" unicode="~" horiz-adv-x="1056" 
d="M707 496q-46 0 -86 19t-70 46.5t-59 55t-64 46.5t-74 19q-69 0 -115 -47t-46 -117h-48q0 91 57.5 151t147.5 60q46 0 86 -19t70 -46.5t58.5 -55t63.5 -46.5t74 -19q70 0 116 46.5t46 117.5h47q0 -90 -57 -150.5t-147 -60.5z" />
    <glyph glyph-name="uni00A0" unicode="&#xa0;" horiz-adv-x="563" 
 />
    <glyph glyph-name="exclamdown" unicode="&#xa1;" horiz-adv-x="462" 
d="M231 942q-23 0 -39 16t-16 39t16 39.5t39 16.5t39.5 -16.5t16.5 -39.5t-16.5 -39t-39.5 -16zM207 -369v349l2 745h47l2 -745v-349h-51z" />
    <glyph glyph-name="cent" unicode="&#xa2;" horiz-adv-x="1288" 
d="M709 209q129 7 233.5 71.5t165.5 168.5l45 -23q-69 -116 -184.5 -186.5t-259.5 -77.5v-162h-45v162q-150 4 -272.5 76.5t-191.5 196.5t-69 274t69 274t191.5 196t272.5 76v158h45v-158q144 -7 259.5 -77.5t184.5 -186.5l-45 -24q-61 104 -165.5 168t-233.5 71v-997z
M182 709q0 -209 137.5 -351.5t344.5 -148.5v997q-207 -6 -344.5 -148t-137.5 -349z" />
    <glyph glyph-name="sterling" unicode="&#xa3;" horiz-adv-x="1169" 
d="M317 49h762v-49h-977v49h162v580h-162v47h162v344q0 178 122 298t304 120q113 0 210 -50t165 -137l-33 -34q-65 80 -152.5 124.5t-189.5 44.5q-159 0 -266 -105t-107 -261v-344h498v-47h-498v-580z" />
    <glyph glyph-name="currency" unicode="&#xa4;" horiz-adv-x="1064" 
d="M899 707q0 -145 -90 -244l135 -135l-33 -33l-135 135q-101 -88 -244 -88q-140 0 -241 88l-137 -135l-35 33l137 135q-88 101 -88 244q0 142 88 243l-135 135l33 33l137 -135q98 88 241 88q142 0 244 -86l135 135l33 -35l-135 -135q90 -99 90 -243zM532 387
q136 0 228 91.5t92 228.5t-92 229t-228 92q-135 0 -226 -92t-91 -229q0 -136 91 -228t226 -92z" />
    <glyph glyph-name="yen" unicode="&#xa5;" horiz-adv-x="1292" 
d="M1208 1413l-516 -819h312v-45h-332v-187h332v-45h-332v-317h-51v317h-332v45h332v187h-332v45h311l-518 819h63l502 -797l502 797h59z" />
    <glyph glyph-name="brokenbar" unicode="&#xa6;" horiz-adv-x="528" 
d="M240 696v840h47v-840h-47zM240 -389v840h47v-840h-47z" />
    <glyph glyph-name="section" unicode="&#xa7;" horiz-adv-x="1077" 
d="M639 358q260 -79 260 -266q0 -125 -108.5 -208t-270.5 -83q-202 0 -336 127l27 37q53 -56 134 -88.5t173 -32.5q141 0 235.5 71t94.5 177q0 93 -78.5 152.5t-241.5 93.5q-333 71 -333 289q0 99 68 173.5t179 100.5q-121 36 -184 104t-63 156q0 120 104 198.5t260 78.5
q101 0 185 -35t141 -96l-29 -31q-50 56 -127.5 87.5t-167.5 31.5q-136 0 -225.5 -66.5t-89.5 -165.5q0 -184 301 -243q352 -65 352 -283q0 -103 -72.5 -179t-187.5 -100zM244 629q0 -184 299 -246q132 1 219.5 73.5t87.5 178.5q0 181 -315 242q-125 -3 -208 -73.5
t-83 -174.5z" />
    <glyph glyph-name="dieresis" unicode="&#xa8;" horiz-adv-x="497" 
d="M51 1241q-22 0 -36.5 14.5t-14.5 36.5q0 20 14.5 34.5t36.5 14.5q20 0 34.5 -14.5t14.5 -34.5q0 -22 -14.5 -36.5t-34.5 -14.5zM449 1241q-22 0 -37 14.5t-15 36.5q0 20 15 34.5t37 14.5q20 0 34.5 -14.5t14.5 -34.5q0 -22 -14.5 -36.5t-34.5 -14.5z" />
    <glyph glyph-name="copyright" unicode="&#xa9;" horiz-adv-x="1740" 
d="M870 -25q-205 0 -372.5 95.5t-263 263.5t-95.5 373t95.5 372.5t263 263t372.5 95.5t373 -95.5t263.5 -263t95.5 -372.5q0 -154 -56.5 -289.5t-153.5 -232.5t-232.5 -153.5t-289.5 -56.5zM870 18q144 0 271 53t217.5 144.5t143 219.5t52.5 272q0 193 -89.5 350.5
t-246 247.5t-348.5 90t-349 -90t-247 -247.5t-90 -350.5t90 -351t247 -248t349 -90zM883 266q-187 0 -314 127t-127 314t126.5 313.5t314.5 126.5q122 0 221.5 -54t157.5 -147l-41 -20q-50 81 -139.5 128.5t-198.5 47.5q-168 0 -281 -113.5t-113 -281.5t113 -282t281 -114
q109 0 198.5 47.5t139.5 128.5l41 -20q-58 -93 -157.5 -147t-221.5 -54z" />
    <glyph glyph-name="ordfeminine" unicode="&#xaa;" horiz-adv-x="864" 
d="M676 1413h43v-553h-43v146q-34 -75 -103 -119.5t-155 -44.5q-124 0 -207.5 84.5t-83.5 210.5t83.5 210.5t207.5 84.5q86 0 155 -44.5t103 -119.5v145zM424 883q106 0 179 73t73 181t-73 181t-179 73q-107 0 -179.5 -72.5t-72.5 -181.5t72.5 -181.5t179.5 -72.5z" />
    <glyph glyph-name="guillemotleft" unicode="&#xab;" horiz-adv-x="1142" 
d="M561 950l-379 -409l379 -410h-63l-379 410l379 409h63zM1001 950l-378 -409l378 -410h-63l-381 410l381 409h63z" />
    <glyph glyph-name="logicalnot" unicode="&#xac;" horiz-adv-x="1093" 
d="M145 627h803v-424h-47v379h-756v45z" />
    <glyph glyph-name="uni00AD" unicode="&#xad;" horiz-adv-x="835" 
d="M145 537v47h545v-47h-545z" />
    <glyph glyph-name="registered" unicode="&#xae;" horiz-adv-x="980" 
d="M489 1438q157 0 261 -104t104 -261q0 -155 -104 -258.5t-261 -103.5q-155 0 -258.5 103.5t-103.5 258.5q0 157 103.5 261t258.5 104zM489 745q139 0 233.5 94.5t94.5 233.5q0 141 -94 235.5t-234 94.5q-138 0 -231.5 -94.5t-93.5 -235.5q0 -139 93.5 -233.5t231.5 -94.5z
M541 1063h-23l150 -178h-43l-148 178h-74v-178h-32v407h170q49 0 81.5 -33t32.5 -81t-32.5 -81.5t-81.5 -33.5zM403 1262v-168h138q35 0 58.5 23.5t23.5 60.5t-23.5 60.5t-58.5 23.5h-138z" />
    <glyph glyph-name="macron" unicode="&#xaf;" horiz-adv-x="409" 
d="M0 1255v45h410v-45h-410z" />
    <glyph glyph-name="degree" unicode="&#xb0;" horiz-adv-x="794" 
d="M397 918q-113 0 -186.5 74t-73.5 186t73.5 186t186.5 74t186.5 -74t73.5 -186t-73.5 -186t-186.5 -74zM397 963q91 0 152 61.5t61 153.5t-61 153.5t-152 61.5t-152 -61.5t-61 -153.5t61 -153.5t152 -61.5z" />
    <glyph glyph-name="plusminus" unicode="&#xb1;" horiz-adv-x="1093" 
d="M571 735h377v-45h-377v-280h-49v280h-377v45h377v279h49v-279zM145 190v46h803v-46h-803z" />
    <glyph glyph-name="uni00B2" unicode="&#xb2;" horiz-adv-x="651" 
d="M125 793h473v-43h-539v34l363 398q51 57 76.5 103.5t25.5 100.5q0 81 -56.5 131t-143.5 50q-73 0 -132.5 -37.5t-95.5 -102.5l-37 25q42 74 112.5 117t154.5 43q105 0 175 -63.5t70 -162.5q0 -60 -27.5 -113.5t-84.5 -115.5z" />
    <glyph glyph-name="uni00B3" unicode="&#xb3;" horiz-adv-x="661" 
d="M440 1198q84 -20 135.5 -81t51.5 -142q0 -103 -82 -171.5t-209 -68.5q-175 0 -289 123l27 33q99 -111 258 -111q110 0 180 56t70 143q0 86 -68 143.5t-166 57.5h-135v39h135q89 0 148 50.5t59 125.5q0 74 -63 123t-158 49q-69 0 -129.5 -27.5t-98.5 -77.5l-26 31
q45 58 112.5 88.5t145.5 30.5q114 0 188 -60.5t74 -152.5q0 -66 -43.5 -121t-116.5 -80z" />
    <glyph glyph-name="acute" unicode="&#xb4;" horiz-adv-x="292" 
d="M0 1212l219 228h74l-236 -228h-57z" />
    <glyph glyph-name="paragraph" unicode="&#xb6;" horiz-adv-x="1124" 
d="M944 1413v-1802h-47v1757h-211v-1757h-45v999h-160q-171 0 -286 115t-115 287q0 170 115.5 285.5t285.5 115.5h463z" />
    <glyph glyph-name="periodcentered" unicode="&#xb7;" horiz-adv-x="401" 
d="M201 506q-25 0 -40.5 16t-15.5 39t15.5 39t40.5 16q23 0 39 -16t16 -39t-16 -39t-39 -16z" />
    <glyph glyph-name="cedilla" unicode="&#xb8;" horiz-adv-x="321" 
d="M164 -82q67 0 112.5 -47.5t45.5 -116.5q0 -71 -48 -118.5t-120 -47.5q-50 0 -91.5 27.5t-62.5 71.5l31 20q15 -37 48.5 -59.5t74.5 -22.5q54 0 91.5 37t37.5 92q0 54 -36.5 90.5t-90.5 36.5q-24 0 -47 -9t-35 -24l-35 17l98 135v4h43v-4l-71 -92q27 10 55 10z" />
    <glyph glyph-name="uni00B9" unicode="&#xb9;" horiz-adv-x="425" 
d="M274 1597h31v-847h-45v792l-205 -110l-20 34z" />
    <glyph glyph-name="ordmasculine" unicode="&#xba;" horiz-adv-x="847" 
d="M424 842q-127 0 -212 84.5t-85 210.5t85 210.5t212 84.5q126 0 211.5 -84.5t85.5 -210.5t-85.5 -210.5t-211.5 -84.5zM424 883q106 0 179 73t73 181t-73 181t-179 73q-107 0 -179.5 -72.5t-72.5 -181.5t72.5 -181.5t179.5 -72.5z" />
    <glyph glyph-name="guillemotright" unicode="&#xbb;" horiz-adv-x="1142" 
d="M205 950l381 -409l-381 -410h-62l379 410l-379 409h62zM645 950l381 -409l-381 -410h-61l379 410l-379 409h61z" />
    <glyph glyph-name="onequarter" unicode="&#xbc;" horiz-adv-x="1429" 
d="M260 565v793l-205 -111l-20 35l239 131h31v-848h-45zM1176 1413h55l-1020 -1413h-55zM1417 262v-41h-133v-221h-45v221h-442l-13 37l455 590h45v-586h133zM836 262h403v522z" />
    <glyph glyph-name="onehalf" unicode="&#xbd;" horiz-adv-x="1519" 
d="M260 565v793l-205 -111l-20 35l239 131h31v-848h-45zM1176 1413h55l-1020 -1413h-55zM993 43h473v-43h-538v35l362 397q51 57 77 104t26 101q0 81 -57 130.5t-144 49.5q-73 0 -132 -37t-95 -102l-37 24q42 74 112 117t154 43q105 0 175.5 -63t70.5 -162
q0 -60 -27.5 -113.5t-85.5 -115.5z" />
    <glyph glyph-name="threequarters" unicode="&#xbe;" horiz-adv-x="1583" 
d="M627 791q0 -103 -82 -171.5t-209 -68.5q-175 0 -289 123l27 33q99 -111 258 -111q110 0 180 56t70 143q0 85 -68 142.5t-166 57.5h-135v39h135q89 0 148 50.5t59 125.5q0 74 -63 123t-158 49q-69 0 -130 -27t-98 -77l-26 31q45 58 112.5 88t145.5 30q114 0 188 -60.5
t74 -152.5q0 -66 -43.5 -120.5t-116.5 -79.5q84 -20 135.5 -81t51.5 -142zM1329 1413h55l-1019 -1413h-56zM1571 262v-41h-133v-221h-45v221h-443l-12 37l455 590h45v-586h133zM989 262h404v522z" />
    <glyph glyph-name="questiondown" unicode="&#xbf;" horiz-adv-x="956" 
d="M504 942q-23 0 -38 16t-15 39q0 24 15 40t38 16q24 0 39.5 -16t15.5 -40t-15.5 -39.5t-39.5 -15.5zM504 -393q-166 0 -276.5 99.5t-110.5 248.5q0 81 37.5 159t90.5 139t106 119t90.5 123.5t37.5 129.5v88h51v-88q0 -59 -26.5 -118.5t-66.5 -107t-87 -102t-87 -103
t-66.5 -111t-26.5 -126.5q0 -129 95.5 -215t240.5 -86q119 0 223.5 64t167.5 169l43 -28q-67 -115 -184 -184.5t-252 -69.5z" />
    <glyph glyph-name="Agrave" unicode="&#xc0;" horiz-adv-x="1447" 
d="M766 1581h-57l-236 227h74zM1317 0l-193 440h-802l-193 -440h-57l618 1413h68l618 -1413h-59zM344 489h758l-379 867z" />
    <glyph glyph-name="Aacute" unicode="&#xc1;" horiz-adv-x="1447" 
d="M973 1808l-236 -227h-57l219 227h74zM1317 0l-193 440h-802l-193 -440h-57l618 1413h68l618 -1413h-59zM344 489h758l-379 867z" />
    <glyph glyph-name="Acircumflex" unicode="&#xc2;" horiz-adv-x="1447" 
d="M725 1776l-190 -195h-52l209 227h66l207 -227h-52zM1317 0l-193 440h-802l-193 -440h-57l618 1413h68l618 -1413h-59zM344 489h758l-379 867z" />
    <glyph glyph-name="Atilde" unicode="&#xc3;" horiz-adv-x="1447" 
d="M580 1745q-56 0 -93.5 -38.5t-37.5 -96.5h-43q0 75 48.5 125.5t123.5 50.5q37 0 69.5 -15t56.5 -37t47.5 -44t52.5 -37t62 -15q57 0 95 39t38 97h43q0 -75 -49.5 -127t-122.5 -52q-38 0 -71 15.5t-57 37.5t-47.5 44t-52.5 37.5t-62 15.5zM1317 0l-193 440h-802l-193 -440
h-57l618 1413h68l618 -1413h-59zM344 489h758l-379 867z" />
    <glyph glyph-name="Adieresis" unicode="&#xc4;" horiz-adv-x="1447" 
d="M526 1610q-22 0 -36.5 14.5t-14.5 36.5q0 20 14.5 34.5t36.5 14.5q20 0 34.5 -14.5t14.5 -34.5q0 -22 -14.5 -36.5t-34.5 -14.5zM924 1610q-22 0 -37 14.5t-15 36.5q0 20 15 34.5t37 14.5q20 0 34.5 -14.5t14.5 -34.5q0 -22 -14.5 -36.5t-34.5 -14.5zM1317 0l-193 440
h-802l-193 -440h-57l618 1413h68l618 -1413h-59zM344 489h758l-379 867z" />
    <glyph glyph-name="Aring" unicode="&#xc5;" horiz-adv-x="1447" 
d="M723 1548q-56 0 -94.5 38t-38.5 95t38.5 95.5t94.5 38.5q57 0 96 -38.5t39 -95.5t-39 -95t-96 -38zM723 1780q-40 0 -67 -28t-27 -71q0 -41 27 -69.5t67 -28.5q41 0 68.5 28.5t27.5 69.5q0 43 -27.5 71t-68.5 28zM1317 0l-193 440h-802l-193 -440h-57l618 1413h68
l618 -1413h-59zM344 489h758l-379 867z" />
    <glyph glyph-name="AE" unicode="&#xc6;" horiz-adv-x="1843" 
d="M954 49h770v-49h-821v440h-588l-282 -440h-64l908 1413h837v-49h-760v-629h691v-49h-691v-637zM346 489h557v869z" />
    <glyph glyph-name="Ccedilla" unicode="&#xc7;" horiz-adv-x="1564" 
d="M848 27q177 0 324.5 79t238.5 216l45 -29q-97 -144 -253 -229.5t-341 -88.5l-55 -69q27 10 55 10q67 0 112.5 -47.5t45.5 -116.5q0 -71 -48 -118.5t-120 -47.5q-50 0 -91.5 27.5t-62.5 71.5l31 20q15 -37 48.5 -59.5t74.5 -22.5q54 0 91.5 37t37.5 92q0 54 -36.5 90.5
t-90.5 36.5q-24 0 -47 -9t-35 -24l-35 17l82 112q-199 7 -360 104t-252.5 262.5t-91.5 365.5q0 205 95.5 372.5t263.5 263t374 95.5q190 0 349.5 -85.5t258.5 -232.5l-45 -28q-91 137 -238.5 215.5t-324.5 78.5q-143 0 -269 -52t-215.5 -142t-141.5 -216t-52 -269t52 -269
t141.5 -216.5t215.5 -142.5t269 -52z" />
    <glyph glyph-name="Egrave" unicode="&#xc8;" horiz-adv-x="1220" 
d="M696 1581h-57l-236 227h74zM252 49h850v-49h-903v1413h893v-49h-840v-629h770v-49h-770v-637z" />
    <glyph glyph-name="Eacute" unicode="&#xc9;" horiz-adv-x="1220" 
d="M903 1808l-235 -227h-58l219 227h74zM252 49h850v-49h-903v1413h893v-49h-840v-629h770v-49h-770v-637z" />
    <glyph glyph-name="Ecircumflex" unicode="&#xca;" horiz-adv-x="1220" 
d="M655 1776l-190 -195h-51l209 227h65l207 -227h-51zM252 49h850v-49h-903v1413h893v-49h-840v-629h770v-49h-770v-637z" />
    <glyph glyph-name="Edieresis" unicode="&#xcb;" horiz-adv-x="1220" 
d="M457 1610q-22 0 -36.5 14.5t-14.5 36.5q0 20 14.5 34.5t36.5 14.5q20 0 34.5 -14.5t14.5 -34.5q0 -22 -14.5 -36.5t-34.5 -14.5zM854 1610q-22 0 -36.5 14.5t-14.5 36.5q0 20 14.5 34.5t36.5 14.5q20 0 34.5 -14.5t14.5 -34.5q0 -22 -14.5 -36.5t-34.5 -14.5zM252 49h850
v-49h-903v1413h893v-49h-840v-629h770v-49h-770v-637z" />
    <glyph glyph-name="Igrave" unicode="&#xcc;" horiz-adv-x="450" 
d="M211 1581l-236 227h74l219 -227h-57zM199 0v1413h53v-1413h-53z" />
    <glyph glyph-name="Iacute" unicode="&#xcd;" horiz-adv-x="450" 
d="M184 1581l219 227h74l-235 -227h-58zM199 0v1413h53v-1413h-53z" />
    <glyph glyph-name="Icircumflex" unicode="&#xce;" horiz-adv-x="450" 
d="M260 1808l207 -227h-51l-189 195l-190 -195h-51l209 227h65zM199 0v1413h53v-1413h-53z" />
    <glyph glyph-name="Idieresis" unicode="&#xcf;" horiz-adv-x="450" 
d="M29 1610q-22 0 -37 14.5t-15 36.5q0 20 15 34.5t37 14.5q20 0 34.5 -14.5t14.5 -34.5q0 -22 -14.5 -36.5t-34.5 -14.5zM426 1610q-22 0 -36.5 14.5t-14.5 36.5q0 20 14.5 34.5t36.5 14.5q20 0 34.5 -14.5t14.5 -34.5q0 -22 -14.5 -36.5t-34.5 -14.5zM199 0v1413h53v-1413
h-53z" />
    <glyph glyph-name="Eth" unicode="&#xd0;" horiz-adv-x="1554" 
d="M731 1413q200 0 362.5 -92t254.5 -253.5t92 -360.5q0 -149 -54 -280t-148 -225t-225.5 -148t-281.5 -54h-532v686h-160v41h160v686h532zM731 49q138 0 259 50.5t207.5 137.5t136.5 209t50 261q0 185 -85 335.5t-234.5 236t-333.5 85.5h-479v-637h336v-41h-336v-637h479z
" />
    <glyph glyph-name="Ntilde" unicode="&#xd1;" horiz-adv-x="1531" 
d="M623 1745q-56 0 -93.5 -38.5t-37.5 -96.5h-43q0 75 48.5 125.5t123.5 50.5q37 0 69.5 -15t56.5 -37t47.5 -44t52.5 -37t62 -15q57 0 95 39t38 97h43q0 -75 -49.5 -127t-122.5 -52q-38 0 -71 15.5t-57 37.5t-47.5 44t-52.5 37.5t-62 15.5zM1280 1413h53v-1413h-63
l-1018 1341v-1341h-53v1413h65l1016 -1337v1337z" />
    <glyph glyph-name="Ograve" unicode="&#xd2;" horiz-adv-x="1693" 
d="M831 1581l-235 227h74l219 -227h-58zM848 -25q-154 0 -290.5 56.5t-233.5 153.5t-153 232.5t-56 289.5q0 205 95.5 372.5t263.5 263t374 95.5q205 0 372.5 -95.5t263 -263t95.5 -372.5t-95.5 -373t-263 -263.5t-372.5 -95.5zM848 27q142 0 267.5 52t215 142.5
t141.5 216.5t52 269t-52 269t-141.5 216t-215 142t-267.5 52q-143 0 -269 -52t-215.5 -142t-141.5 -216t-52 -269t52 -269t141.5 -216.5t215.5 -142.5t269 -52z" />
    <glyph glyph-name="Oacute" unicode="&#xd3;" horiz-adv-x="1693" 
d="M803 1581l219 227h74l-236 -227h-57zM848 -25q-154 0 -290.5 56.5t-233.5 153.5t-153 232.5t-56 289.5q0 205 95.5 372.5t263.5 263t374 95.5q205 0 372.5 -95.5t263 -263t95.5 -372.5t-95.5 -373t-263 -263.5t-372.5 -95.5zM848 27q142 0 267.5 52t215 142.5
t141.5 216.5t52 269t-52 269t-141.5 216t-215 142t-267.5 52q-143 0 -269 -52t-215.5 -142t-141.5 -216t-52 -269t52 -269t141.5 -216.5t215.5 -142.5t269 -52z" />
    <glyph glyph-name="Ocircumflex" unicode="&#xd4;" horiz-adv-x="1693" 
d="M848 1776l-191 -195h-51l209 227h66l206 -227h-51zM848 1438q205 0 372.5 -95.5t263 -263t95.5 -372.5t-95.5 -373t-263 -263.5t-372.5 -95.5q-154 0 -290.5 56.5t-233.5 153.5t-153 232.5t-56 289.5q0 205 95.5 372.5t263.5 263t374 95.5zM848 27q142 0 267.5 52
t215 142.5t141.5 216.5t52 269t-52 269t-141.5 216t-215 142t-267.5 52q-143 0 -269 -52t-215.5 -142t-141.5 -216t-52 -269t52 -269t141.5 -216.5t215.5 -142.5t269 -52z" />
    <glyph glyph-name="Otilde" unicode="&#xd5;" horiz-adv-x="1693" 
d="M993 1595q-38 0 -71 15.5t-57 37.5t-47.5 44t-53 37.5t-62.5 15.5q-56 0 -93.5 -38.5t-37.5 -96.5h-43q0 75 48.5 125.5t123.5 50.5q45 0 85 -23t65.5 -51t62.5 -51t76 -23q57 0 95 39t38 97h43q0 -75 -49.5 -127t-122.5 -52zM848 -25q-154 0 -290.5 56.5t-233.5 153.5
t-153 232.5t-56 289.5q0 205 95.5 372.5t263.5 263t374 95.5q205 0 372.5 -95.5t263 -263t95.5 -372.5t-95.5 -373t-263 -263.5t-372.5 -95.5zM848 27q142 0 267.5 52t215 142.5t141.5 216.5t52 269t-52 269t-141.5 216t-215 142t-267.5 52q-143 0 -269 -52t-215.5 -142
t-141.5 -216t-52 -269t52 -269t141.5 -216.5t215.5 -142.5t269 -52z" />
    <glyph glyph-name="Odieresis" unicode="&#xd6;" horiz-adv-x="1693" 
d="M649 1610q-22 0 -36.5 14.5t-14.5 36.5q0 20 14.5 34.5t36.5 14.5q20 0 34.5 -14.5t14.5 -34.5q0 -22 -14.5 -36.5t-34.5 -14.5zM1047 1610q-22 0 -37 14.5t-15 36.5q0 20 15 34.5t37 14.5q20 0 34.5 -14.5t14.5 -34.5q0 -22 -14.5 -36.5t-34.5 -14.5zM848 -25
q-154 0 -290.5 56.5t-233.5 153.5t-153 232.5t-56 289.5q0 205 95.5 372.5t263.5 263t374 95.5q205 0 372.5 -95.5t263 -263t95.5 -372.5t-95.5 -373t-263 -263.5t-372.5 -95.5zM848 27q142 0 267.5 52t215 142.5t141.5 216.5t52 269t-52 269t-141.5 216t-215 142t-267.5 52
q-143 0 -269 -52t-215.5 -142t-141.5 -216t-52 -269t52 -269t141.5 -216.5t215.5 -142.5t269 -52z" />
    <glyph glyph-name="multiply" unicode="&#xd7;" horiz-adv-x="892" 
d="M748 872l-269 -268l269 -268l-35 -33l-267 268l-268 -268l-33 33l269 268l-269 268l33 33l268 -268l267 268z" />
    <glyph glyph-name="Oslash" unicode="&#xd8;" horiz-adv-x="1693" 
d="M1356 1241q106 -100 164.5 -237.5t58.5 -296.5q0 -205 -95.5 -373t-263 -263.5t-372.5 -95.5q-276 0 -477 168l-129 -143h-60l156 172q-106 102 -164.5 239t-58.5 296q0 205 95.5 372.5t263.5 263t374 95.5q277 0 475 -168l129 143h59zM170 707q0 -147 53 -274.5
t150 -219.5l915 1018q-185 155 -440 155q-143 0 -269 -52t-215.5 -142t-141.5 -216t-52 -269zM848 27q142 0 267.5 52t215 142.5t141.5 216.5t52 269q0 147 -53 274t-150 219l-915 -1018q185 -155 442 -155z" />
    <glyph glyph-name="Ugrave" unicode="&#xd9;" horiz-adv-x="1437" 
d="M705 1581l-236 227h74l219 -227h-57zM719 -25q-156 0 -284.5 73t-201.5 201.5t-73 285.5v878h53v-878q0 -143 66 -259t182 -182.5t258 -66.5q218 0 363 145.5t145 362.5v878h51v-878q0 -239 -160 -399.5t-399 -160.5z" />
    <glyph glyph-name="Uacute" unicode="&#xda;" horiz-adv-x="1437" 
d="M676 1581l219 227h74l-236 -227h-57zM719 -25q-156 0 -284.5 73t-201.5 201.5t-73 285.5v878h53v-878q0 -143 66 -259t182 -182.5t258 -66.5q218 0 363 145.5t145 362.5v878h51v-878q0 -239 -160 -399.5t-399 -160.5z" />
    <glyph glyph-name="Ucircumflex" unicode="&#xdb;" horiz-adv-x="1437" 
d="M721 1776l-191 -195h-51l209 227h66l207 -227h-52zM1227 1413h51v-878q0 -239 -160 -399.5t-399 -160.5q-156 0 -284.5 73t-201.5 201.5t-73 285.5v878h53v-878q0 -143 66 -259t182 -182.5t258 -66.5q218 0 363 145.5t145 362.5v878z" />
    <glyph glyph-name="Udieresis" unicode="&#xdc;" horiz-adv-x="1437" 
d="M522 1610q-22 0 -36.5 14.5t-14.5 36.5q0 20 14.5 34.5t36.5 14.5q20 0 34.5 -14.5t14.5 -34.5q0 -22 -14.5 -36.5t-34.5 -14.5zM920 1610q-22 0 -37 14.5t-15 36.5q0 20 15 34.5t37 14.5q20 0 34.5 -14.5t14.5 -34.5q0 -22 -14.5 -36.5t-34.5 -14.5zM719 -25
q-156 0 -284.5 73t-201.5 201.5t-73 285.5v878h53v-878q0 -143 66 -259t182 -182.5t258 -66.5q218 0 363 145.5t145 362.5v878h51v-878q0 -239 -160 -399.5t-399 -160.5z" />
    <glyph glyph-name="Yacute" unicode="&#xdd;" horiz-adv-x="1378" 
d="M940 1808l-235 -227h-58l219 227h74zM1272 1413h59l-616 -852v-561h-51v561l-617 852h64l579 -801z" />
    <glyph glyph-name="Thorn" unicode="&#xde;" horiz-adv-x="1226" 
d="M731 1116q174 0 291 -116t117 -289t-117.5 -289.5t-290.5 -116.5h-479v-305h-53v1413h53v-297h479zM731 354q151 0 251.5 101.5t100.5 255.5q0 153 -100.5 254.5t-251.5 101.5h-479v-713h479z" />
    <glyph glyph-name="germandbls" unicode="&#xdf;" horiz-adv-x="1144" 
d="M741 809q136 -33 227 -148.5t91 -269.5q0 -181 -118 -298.5t-308 -117.5q-119 0 -219 43v52q91 -45 215 -45q165 0 271 105t106 265q0 165 -109.5 276t-267.5 111h-137v49h137q122 0 210.5 90t88.5 222q0 131 -99.5 219t-246.5 88q-156 0 -257.5 -99t-101.5 -249v-1102
h-49v1104q0 169 115.5 282t292.5 113q168 0 282.5 -102t114.5 -252q0 -118 -67 -210.5t-171 -125.5z" />
    <glyph glyph-name="agrave" unicode="&#xe0;" 
d="M733 1212h-57l-236 228h74zM1153 1044h49v-1044h-49v322q-58 -157 -192.5 -252t-309.5 -95q-153 0 -277.5 71.5t-194.5 196.5t-70 279t70 279t194.5 196.5t277.5 71.5q175 0 309.5 -94.5t192.5 -251.5v321zM657 25q140 0 253.5 64.5t178 178.5t64.5 254q0 214 -142 356
t-354 142q-214 0 -355.5 -142t-141.5 -356t141.5 -355.5t355.5 -141.5z" />
    <glyph glyph-name="aacute" unicode="&#xe1;" 
d="M942 1440l-235 -228h-58l219 228h74zM1153 1044h49v-1044h-49v322q-58 -157 -192.5 -252t-309.5 -95q-153 0 -277.5 71.5t-194.5 196.5t-70 279t70 279t194.5 196.5t277.5 71.5q175 0 309.5 -94.5t192.5 -251.5v321zM657 25q140 0 253.5 64.5t178 178.5t64.5 254
q0 214 -142 356t-354 142q-214 0 -355.5 -142t-141.5 -356t141.5 -355.5t355.5 -141.5z" />
    <glyph glyph-name="acircumflex" unicode="&#xe2;" 
d="M692 1407l-190 -195h-51l208 228h66l207 -228h-51zM1153 1044h49v-1044h-49v322q-58 -157 -192.5 -252t-309.5 -95q-153 0 -277.5 71.5t-194.5 196.5t-70 279t70 279t194.5 196.5t277.5 71.5q175 0 309.5 -94.5t192.5 -251.5v321zM657 25q140 0 253.5 64.5t178 178.5
t64.5 254q0 214 -142 356t-354 142q-214 0 -355.5 -142t-141.5 -356t141.5 -355.5t355.5 -141.5z" />
    <glyph glyph-name="atilde" unicode="&#xe3;" 
d="M547 1376q-56 0 -93.5 -38.5t-37.5 -96.5h-43q0 75 48.5 125.5t123.5 50.5q45 0 85 -23t65.5 -50.5t62 -50.5t76.5 -23q57 0 95 38.5t38 96.5h43q0 -75 -49.5 -126.5t-122.5 -51.5q-46 0 -86.5 23.5t-66 51t-62.5 51t-76 23.5zM1153 1044h49v-1044h-49v322
q-58 -157 -192.5 -252t-309.5 -95q-153 0 -277.5 71.5t-194.5 196.5t-70 279t70 279t194.5 196.5t277.5 71.5q175 0 309.5 -94.5t192.5 -251.5v321zM657 25q140 0 253.5 64.5t178 178.5t64.5 254q0 214 -142 356t-354 142q-214 0 -355.5 -142t-141.5 -356t141.5 -355.5
t355.5 -141.5z" />
    <glyph glyph-name="adieresis" unicode="&#xe4;" 
d="M494 1241q-22 0 -37 14.5t-15 36.5q0 20 15 34.5t37 14.5q20 0 34.5 -14.5t14.5 -34.5q0 -22 -14.5 -36.5t-34.5 -14.5zM891 1241q-22 0 -36.5 14.5t-14.5 36.5q0 20 14.5 34.5t36.5 14.5q20 0 34.5 -14.5t14.5 -34.5q0 -22 -14.5 -36.5t-34.5 -14.5zM1153 1044h49v-1044
h-49v322q-58 -157 -192.5 -252t-309.5 -95q-153 0 -277.5 71.5t-194.5 196.5t-70 279t70 279t194.5 196.5t277.5 71.5q175 0 309.5 -94.5t192.5 -251.5v321zM657 25q140 0 253.5 64.5t178 178.5t64.5 254q0 214 -142 356t-354 142q-214 0 -355.5 -142t-141.5 -356
t141.5 -355.5t355.5 -141.5z" />
    <glyph glyph-name="aring" unicode="&#xe5;" 
d="M690 1180q-56 0 -94.5 38t-38.5 95t38.5 95t94.5 38q57 0 96 -38t39 -95t-39 -95t-96 -38zM690 1411q-40 0 -67 -28t-27 -70q0 -41 27 -70t67 -29q41 0 68.5 28.5t27.5 70.5q0 43 -27.5 70.5t-68.5 27.5zM1153 1044h49v-1044h-49v322q-58 -157 -192.5 -252t-309.5 -95
q-153 0 -277.5 71.5t-194.5 196.5t-70 279t70 279t194.5 196.5t277.5 71.5q175 0 309.5 -94.5t192.5 -251.5v321zM657 25q140 0 253.5 64.5t178 178.5t64.5 254q0 214 -142 356t-354 142q-214 0 -355.5 -142t-141.5 -356t141.5 -355.5t355.5 -141.5z" />
    <glyph glyph-name="ae" unicode="&#xe6;" horiz-adv-x="2105" 
d="M2003 522v-20h-1028q8 -206 151.5 -342.5t356.5 -136.5q141 0 257 63t181 172l39 -29q-73 -118 -198.5 -186t-278.5 -68q-162 0 -293 77.5t-199 209.5q-71 -124 -220.5 -205.5t-311.5 -81.5q-161 0 -266 83.5t-105 209.5q0 120 93 199.5t233 79.5h514v135q0 154 -106 247
t-279 93q-125 0 -217.5 -48.5t-135.5 -133.5l-34 26q50 95 151.5 149t237.5 54q176 0 291 -88t135 -238q61 148 193 237t300 89q230 0 384.5 -157t154.5 -390zM1464 1022q-203 0 -341.5 -135t-147.5 -340h977q-3 203 -144 339t-344 136zM463 23q151 0 296 79t212 199
q-40 98 -43 201h-512q-119 0 -198 -66t-79 -166q0 -106 92 -176.5t232 -70.5z" />
    <glyph glyph-name="ccedilla" unicode="&#xe7;" horiz-adv-x="1230" 
d="M657 25q138 0 251 64.5t177 174.5l45 -24q-71 -120 -190.5 -191t-267.5 -74l-56 -69q27 10 56 10q67 0 112 -47.5t45 -116.5q0 -71 -47.5 -118.5t-119.5 -47.5q-50 0 -91.5 27.5t-62.5 71.5l31 20q15 -37 48.5 -59.5t74.5 -22.5q54 0 91.5 37t37.5 92q0 54 -36.5 90.5
t-90.5 36.5q-24 0 -47 -9t-35 -24l-35 17l82 112q-224 11 -372 166t-148 381q0 153 71 278.5t197 197t280 71.5q153 0 277 -71t196 -193l-45 -25q-64 110 -177.5 175t-250.5 65q-214 0 -355.5 -142t-141.5 -356t141.5 -355.5t355.5 -141.5z" />
    <glyph glyph-name="egrave" unicode="&#xe8;" horiz-adv-x="1290" 
d="M698 1212h-57l-235 228h73zM1188 522v-20h-1028q8 -206 151.5 -342.5t356.5 -136.5q141 0 258 63.5t182 171.5l39 -29q-74 -119 -200 -186.5t-279 -67.5q-239 0 -399 157t-160 390q0 234 154.5 390.5t385.5 156.5q230 0 384.5 -157t154.5 -390zM647 1022
q-202 0 -340 -135t-147 -340h977q-9 205 -148 340t-342 135z" />
    <glyph glyph-name="eacute" unicode="&#xe9;" horiz-adv-x="1290" 
d="M905 1440l-235 -228h-58l219 228h74zM1188 522v-20h-1028q8 -206 151.5 -342.5t356.5 -136.5q141 0 258 63.5t182 171.5l39 -29q-74 -119 -200 -186.5t-279 -67.5q-239 0 -399 157t-160 390q0 234 154.5 390.5t385.5 156.5q230 0 384.5 -157t154.5 -390zM647 1022
q-202 0 -340 -135t-147 -340h977q-9 205 -148 340t-342 135z" />
    <glyph glyph-name="ecircumflex" unicode="&#xea;" horiz-adv-x="1290" 
d="M657 1407l-190 -195h-51l209 228h65l207 -228h-51zM1188 522v-20h-1028q8 -206 151.5 -342.5t356.5 -136.5q141 0 258 63.5t182 171.5l39 -29q-74 -119 -200 -186.5t-279 -67.5q-239 0 -399 157t-160 390q0 234 154.5 390.5t385.5 156.5q230 0 384.5 -157t154.5 -390z
M647 1022q-202 0 -340 -135t-147 -340h977q-9 205 -148 340t-342 135z" />
    <glyph glyph-name="edieresis" unicode="&#xeb;" horiz-adv-x="1290" 
d="M459 1241q-22 0 -36.5 14.5t-14.5 36.5q0 20 14.5 34.5t36.5 14.5q20 0 34.5 -14.5t14.5 -34.5q0 -22 -14.5 -36.5t-34.5 -14.5zM856 1241q-22 0 -36.5 14.5t-14.5 36.5q0 20 14.5 34.5t36.5 14.5q20 0 34.5 -14.5t14.5 -34.5q0 -22 -14.5 -36.5t-34.5 -14.5zM1188 522
v-20h-1028q8 -206 151.5 -342.5t356.5 -136.5q141 0 258 63.5t182 171.5l39 -29q-74 -119 -200 -186.5t-279 -67.5q-239 0 -399 157t-160 390q0 234 154.5 390.5t385.5 156.5q230 0 384.5 -157t154.5 -390zM647 1022q-202 0 -340 -135t-147 -340h977q-9 205 -148 340
t-342 135z" />
    <glyph glyph-name="igrave" unicode="&#xec;" horiz-adv-x="407" 
d="M188 1212l-235 228h74l219 -228h-58zM180 0v1044h49v-1044h-49z" />
    <glyph glyph-name="iacute" unicode="&#xed;" horiz-adv-x="407" 
d="M160 1212l219 228h74l-236 -228h-57zM180 0v1044h49v-1044h-49z" />
    <glyph glyph-name="icircumflex" unicode="&#xee;" horiz-adv-x="407" 
d="M238 1440l206 -228h-51l-188 195l-191 -195h-51l209 228h66zM180 0v1044h49v-1044h-49z" />
    <glyph glyph-name="idieresis" unicode="&#xef;" horiz-adv-x="407" 
d="M6 1241q-22 0 -36.5 14.5t-14.5 36.5q0 20 14.5 34.5t36.5 14.5q20 0 34.5 -14.5t14.5 -34.5q0 -22 -14.5 -36.5t-34.5 -14.5zM403 1241q-22 0 -36.5 14.5t-14.5 36.5q0 20 14.5 34.5t36.5 14.5q20 0 35 -14.5t15 -34.5q0 -22 -14.5 -36.5t-35.5 -14.5zM180 0v1044h49
v-1044h-49z" />
    <glyph glyph-name="eth" unicode="&#xf0;" horiz-adv-x="1308" 
d="M717 1352q230 -132 356.5 -353t126.5 -475q0 -155 -71.5 -281t-196 -197t-277.5 -71q-233 0 -389.5 156t-156.5 389q0 232 154.5 388.5t385.5 156.5q145 0 264 -67.5t195 -188.5q-58 162 -167.5 294t-264.5 218l-148 -113h-61l172 133q-129 61 -258 86v50
q162 -34 299 -105l135 105h64zM653 25q212 0 354 141.5t142 353.5t-142 354t-354 142q-211 0 -352 -142t-141 -354t141 -353.5t352 -141.5z" />
    <glyph glyph-name="ntilde" unicode="&#xf1;" horiz-adv-x="1288" 
d="M502 1376q-56 0 -93.5 -38.5t-37.5 -96.5h-43q0 75 48.5 125.5t123.5 50.5q37 0 69.5 -15t56.5 -36.5t47.5 -43.5t52.5 -37t62 -15q57 0 95.5 38.5t38.5 96.5h43q0 -75 -49.5 -126.5t-122.5 -51.5q-46 0 -86.5 23.5t-66 51t-62.5 51t-76 23.5zM668 1069
q203 0 327.5 -123.5t124.5 -327.5v-618h-49v608q0 187 -113 299.5t-301 112.5q-194 0 -311 -113.5t-117 -302.5v-604h-49v1044h49v-247q51 129 165.5 200.5t273.5 71.5z" />
    <glyph glyph-name="ograve" unicode="&#xf2;" horiz-adv-x="1312" 
d="M641 1212l-235 228h73l219 -228h-57zM657 -25q-154 0 -280 71.5t-197 197t-71 278.5t71 278.5t197 197t280 71.5q233 0 390 -157t157 -390t-157 -390t-390 -157zM657 25q140 0 253.5 64.5t178 178.5t64.5 254q0 214 -142 356t-354 142q-214 0 -355.5 -142t-141.5 -356
t141.5 -355.5t355.5 -141.5z" />
    <glyph glyph-name="oacute" unicode="&#xf3;" horiz-adv-x="1312" 
d="M612 1212l219 228h74l-235 -228h-58zM657 -25q-154 0 -280 71.5t-197 197t-71 278.5t71 278.5t197 197t280 71.5q233 0 390 -157t157 -390t-157 -390t-390 -157zM657 25q140 0 253.5 64.5t178 178.5t64.5 254q0 214 -142 356t-354 142q-214 0 -355.5 -142t-141.5 -356
t141.5 -355.5t355.5 -141.5z" />
    <glyph glyph-name="ocircumflex" unicode="&#xf4;" horiz-adv-x="1312" 
d="M657 1407l-190 -195h-51l209 228h65l207 -228h-51zM657 1069q233 0 390 -157t157 -390t-157 -390t-390 -157q-154 0 -280 71.5t-197 197t-71 278.5t71 278.5t197 197t280 71.5zM657 25q140 0 253.5 64.5t178 178.5t64.5 254q0 214 -142 356t-354 142q-214 0 -355.5 -142
t-141.5 -356t141.5 -355.5t355.5 -141.5z" />
    <glyph glyph-name="otilde" unicode="&#xf5;" horiz-adv-x="1312" 
d="M803 1227q-46 0 -86.5 23.5t-66 51t-62.5 51t-76 23.5q-56 0 -93.5 -38.5t-37.5 -96.5h-43q0 75 48.5 125.5t123.5 50.5q45 0 85 -23t65.5 -50.5t62.5 -50.5t76 -23q57 0 95 38.5t38 96.5h43q0 -75 -49.5 -126.5t-122.5 -51.5zM657 -25q-154 0 -280 71.5t-197 197
t-71 278.5t71 278.5t197 197t280 71.5q233 0 390 -157t157 -390t-157 -390t-390 -157zM657 25q140 0 253.5 64.5t178 178.5t64.5 254q0 214 -142 356t-354 142q-214 0 -355.5 -142t-141.5 -356t141.5 -355.5t355.5 -141.5z" />
    <glyph glyph-name="odieresis" unicode="&#xf6;" horiz-adv-x="1312" 
d="M459 1241q-22 0 -36.5 14.5t-14.5 36.5q0 20 14.5 34.5t36.5 14.5q20 0 34.5 -14.5t14.5 -34.5q0 -22 -14.5 -36.5t-34.5 -14.5zM856 1241q-22 0 -36.5 14.5t-14.5 36.5q0 20 14.5 34.5t36.5 14.5q20 0 34.5 -14.5t14.5 -34.5q0 -22 -14.5 -36.5t-34.5 -14.5zM657 -25
q-154 0 -280 71.5t-197 197t-71 278.5t71 278.5t197 197t280 71.5q233 0 390 -157t157 -390t-157 -390t-390 -157zM657 25q140 0 253.5 64.5t178 178.5t64.5 254q0 214 -142 356t-354 142q-214 0 -355.5 -142t-141.5 -356t141.5 -355.5t355.5 -141.5z" />
    <glyph glyph-name="divide" unicode="&#xf7;" horiz-adv-x="1093" 
d="M547 842q-22 0 -36.5 14.5t-14.5 36.5q0 23 14.5 37t36.5 14t36.5 -14t14.5 -37q0 -22 -14.5 -36.5t-36.5 -14.5zM145 584v43h803v-43h-803zM547 266q-22 0 -36.5 14t-14.5 37q0 22 14.5 37t36.5 15t36.5 -15t14.5 -37q0 -23 -14.5 -37t-36.5 -14z" />
    <glyph glyph-name="oslash" unicode="&#xf8;" horiz-adv-x="1312" 
d="M1040 920q78 -75 121 -177.5t43 -220.5q0 -233 -157 -390t-390 -157q-209 0 -356 125l-90 -100h-51l112 125q-163 157 -163 397q0 153 71 278.5t197 197t280 71.5q207 0 355 -123l88 98h53zM160 522q0 -215 145 -360l672 747q-133 111 -320 111q-214 0 -355.5 -142
t-141.5 -356zM657 25q140 0 253.5 64.5t178 178.5t64.5 254q0 216 -145 361l-674 -746q134 -112 323 -112z" />
    <glyph glyph-name="ugrave" unicode="&#xf9;" horiz-adv-x="1236" 
d="M604 1212l-235 228h73l220 -228h-58zM618 -25q-203 0 -326.5 119.5t-123.5 315.5v634h49v-628q0 -177 109.5 -284t291.5 -107t292 107t110 284v628h49v-634q0 -196 -124 -315.5t-327 -119.5z" />
    <glyph glyph-name="uacute" unicode="&#xfa;" horiz-adv-x="1236" 
d="M575 1212l220 228h73l-235 -228h-58zM618 -25q-203 0 -326.5 119.5t-123.5 315.5v634h49v-628q0 -177 109.5 -284t291.5 -107t292 107t110 284v628h49v-634q0 -196 -124 -315.5t-327 -119.5z" />
    <glyph glyph-name="ucircumflex" unicode="&#xfb;" horiz-adv-x="1236" 
d="M618 1407l-190 -195h-51l209 228h65l207 -228h-51zM1020 1044h49v-634q0 -196 -124 -315.5t-327 -119.5t-326.5 119.5t-123.5 315.5v634h49v-628q0 -177 109.5 -284t291.5 -107t292 107t110 284v628z" />
    <glyph glyph-name="udieresis" unicode="&#xfc;" horiz-adv-x="1236" 
d="M420 1241q-22 0 -36.5 14.5t-14.5 36.5q0 20 14.5 34.5t36.5 14.5q20 0 34.5 -14.5t14.5 -34.5q0 -22 -14.5 -36.5t-34.5 -14.5zM817 1241q-22 0 -36.5 14.5t-14.5 36.5q0 20 14.5 34.5t36.5 14.5q20 0 34.5 -14.5t14.5 -34.5q0 -22 -14.5 -36.5t-34.5 -14.5zM618 -25
q-203 0 -326.5 119.5t-123.5 315.5v634h49v-628q0 -177 109.5 -284t291.5 -107t292 107t110 284v628h49v-634q0 -196 -124 -315.5t-327 -119.5z" />
    <glyph glyph-name="yacute" unicode="&#xfd;" horiz-adv-x="1161" 
d="M831 1440l-235 -228h-57l219 228h73zM1049 1044h55l-629 -1318q-33 -69 -84.5 -104.5t-111.5 -35.5q-52 0 -105 26t-88 69l31 32q27 -36 68.5 -57t86.5 -21q100 0 156 111l125 250l-496 1048h58l467 -991z" />
    <glyph glyph-name="thorn" unicode="&#xfe;" 
d="M731 1069q152 0 276.5 -71.5t195.5 -197t71 -278.5t-71 -278.5t-195.5 -197t-276.5 -71.5q-175 0 -309.5 95t-192.5 252v-711h-49v1864h49v-752q58 157 192.5 251.5t309.5 94.5zM725 25q140 0 253.5 64.5t178 178.5t64.5 254q0 214 -142 356t-354 142q-214 0 -355 -142
t-141 -356t141 -355.5t355 -141.5z" />
    <glyph glyph-name="ydieresis" unicode="&#xff;" horiz-adv-x="1161" 
d="M383 1241q-22 0 -36.5 14.5t-14.5 36.5q0 20 14.5 34.5t36.5 14.5q20 0 34.5 -14.5t14.5 -34.5q0 -22 -14.5 -36.5t-34.5 -14.5zM780 1241q-22 0 -36.5 14.5t-14.5 36.5q0 20 14.5 34.5t36.5 14.5q20 0 34.5 -14.5t14.5 -34.5q0 -22 -14.5 -36.5t-34.5 -14.5zM1049 1044
h55l-629 -1318q-33 -69 -84.5 -104.5t-111.5 -35.5q-52 0 -105 26t-88 69l31 32q27 -36 68.5 -57t86.5 -21q100 0 156 111l125 250l-496 1048h58l467 -991z" />
    <glyph glyph-name="Amacron" unicode="&#x100;" horiz-adv-x="1447" 
d="M928 1669v-45h-410v45h410zM1317 0l-193 440h-802l-193 -440h-57l618 1413h68l618 -1413h-59zM344 489h758l-379 867z" />
    <glyph glyph-name="amacron" unicode="&#x101;" 
d="M897 1300v-45h-410v45h410zM1153 1044h49v-1044h-49v322q-58 -157 -192.5 -252t-309.5 -95q-153 0 -277.5 71.5t-194.5 196.5t-70 279t70 279t194.5 196.5t277.5 71.5q175 0 309.5 -94.5t192.5 -251.5v321zM657 25q140 0 253.5 64.5t178 178.5t64.5 254q0 214 -142 356
t-354 142q-214 0 -355.5 -142t-141.5 -356t141.5 -355.5t355.5 -141.5z" />
    <glyph glyph-name="Abreve" unicode="&#x102;" horiz-adv-x="1447" 
d="M723 1561q-95 0 -160 64t-65 159h43q0 -78 52.5 -131.5t129.5 -53.5q78 0 130 53.5t52 131.5h45q0 -95 -65 -159t-162 -64zM1317 0l-193 440h-802l-193 -440h-57l618 1413h68l618 -1413h-59zM344 489h758l-379 867z" />
    <glyph glyph-name="abreve" unicode="&#x103;" 
d="M690 1192q-95 0 -160 64t-65 159h43q0 -78 52.5 -131t129.5 -53q78 0 130 53t52 131h46q0 -95 -65.5 -159t-162.5 -64zM1153 1044h49v-1044h-49v322q-58 -157 -192.5 -252t-309.5 -95q-153 0 -277.5 71.5t-194.5 196.5t-70 279t70 279t194.5 196.5t277.5 71.5
q175 0 309.5 -94.5t192.5 -251.5v321zM657 25q140 0 253.5 64.5t178 178.5t64.5 254q0 214 -142 356t-354 142q-214 0 -355.5 -142t-141.5 -356t141.5 -355.5t355.5 -141.5z" />
    <glyph glyph-name="Aogonek" unicode="&#x104;" horiz-adv-x="1447" 
d="M1397 -336l18 -35q-64 -41 -133 -41q-70 0 -119 48.5t-49 117.5q0 74 56.5 138.5t150.5 107.5h-4l-193 440h-802l-193 -440h-57l618 1413h68l618 -1413q-98 -44 -157.5 -107.5t-59.5 -132.5q0 -57 36.5 -94t90.5 -37q61 0 111 35zM344 489h758l-379 867z" />
    <glyph glyph-name="aogonek" unicode="&#x105;" 
d="M1223 -336l18 -35q-64 -41 -133 -41q-70 0 -119 48.5t-49 117.5q0 76 58 140.5t155 107.5v320q-58 -157 -192.5 -252t-309.5 -95q-153 0 -277.5 71.5t-194.5 196.5t-70 279t70 279t194.5 196.5t277.5 71.5q175 0 309.5 -94.5t192.5 -251.5v321h49v-1044
q-98 -44 -157.5 -107.5t-59.5 -132.5q0 -57 36.5 -94t90.5 -37q61 0 111 35zM657 25q140 0 253.5 64.5t178 178.5t64.5 254q0 214 -142 356t-354 142q-214 0 -355.5 -142t-141.5 -356t141.5 -355.5t355.5 -141.5z" />
    <glyph glyph-name="Cacute" unicode="&#x106;" horiz-adv-x="1564" 
d="M803 1581l219 227h74l-236 -227h-57zM848 -25q-154 0 -290.5 56.5t-233.5 153.5t-153 232.5t-56 289.5q0 205 95.5 372.5t263.5 263t374 95.5q190 0 349.5 -85.5t258.5 -232.5l-45 -28q-91 137 -238.5 215.5t-324.5 78.5q-143 0 -269 -52t-215.5 -142t-141.5 -216
t-52 -269t52 -269t141.5 -216.5t215.5 -142.5t269 -52q177 0 324.5 79t238.5 216l45 -29q-99 -147 -258.5 -232.5t-349.5 -85.5z" />
    <glyph glyph-name="cacute" unicode="&#x107;" horiz-adv-x="1230" 
d="M612 1212l219 228h74l-235 -228h-58zM657 -25q-154 0 -280 71.5t-197 197t-71 278.5t71 278.5t197 197t280 71.5q153 0 277 -71t196 -193l-45 -25q-64 110 -177.5 175t-250.5 65q-214 0 -355.5 -142t-141.5 -356t141.5 -355.5t355.5 -141.5q138 0 251 64.5t177 174.5
l45 -24q-72 -122 -196.5 -193.5t-276.5 -71.5z" />
    <glyph glyph-name="Ccircumflex" unicode="&#x108;" horiz-adv-x="1564" 
d="M848 1776l-191 -195h-51l209 227h66l206 -227h-51zM848 27q177 0 324.5 79t238.5 216l45 -29q-99 -147 -258.5 -232.5t-349.5 -85.5q-154 0 -290.5 56.5t-233.5 153.5t-153 232.5t-56 289.5q0 205 95.5 372.5t263.5 263t374 95.5q190 0 349.5 -85.5t258.5 -232.5l-45 -28
q-91 137 -238.5 215.5t-324.5 78.5q-143 0 -269 -52t-215.5 -142t-141.5 -216t-52 -269t52 -269t141.5 -216.5t215.5 -142.5t269 -52z" />
    <glyph glyph-name="ccircumflex" unicode="&#x109;" horiz-adv-x="1230" 
d="M657 1407l-190 -195h-51l209 228h65l207 -228h-51zM657 25q138 0 251 64.5t177 174.5l45 -24q-72 -122 -196.5 -193.5t-276.5 -71.5q-154 0 -280 71.5t-197 197t-71 278.5t71 278.5t197 197t280 71.5q153 0 277 -71t196 -193l-45 -25q-64 110 -177.5 175t-250.5 65
q-214 0 -355.5 -142t-141.5 -356t141.5 -355.5t355.5 -141.5z" />
    <glyph glyph-name="Cdotaccent" unicode="&#x10a;" horiz-adv-x="1564" 
d="M848 1610q-22 0 -36.5 14.5t-14.5 36.5t14.5 36.5t36.5 14.5t36.5 -14.5t14.5 -36.5t-14.5 -36.5t-36.5 -14.5zM848 -25q-154 0 -290.5 56.5t-233.5 153.5t-153 232.5t-56 289.5q0 205 95.5 372.5t263.5 263t374 95.5q190 0 349.5 -85.5t258.5 -232.5l-45 -28
q-91 137 -238.5 215.5t-324.5 78.5q-143 0 -269 -52t-215.5 -142t-141.5 -216t-52 -269t52 -269t141.5 -216.5t215.5 -142.5t269 -52q177 0 324.5 79t238.5 216l45 -29q-99 -147 -258.5 -232.5t-349.5 -85.5z" />
    <glyph glyph-name="cdotaccent" unicode="&#x10b;" horiz-adv-x="1230" 
d="M657 1241q-22 0 -36.5 14.5t-14.5 36.5t14.5 36.5t36.5 14.5t37 -14.5t15 -36.5t-15 -36.5t-37 -14.5zM657 -25q-154 0 -280 71.5t-197 197t-71 278.5t71 278.5t197 197t280 71.5q153 0 277 -71t196 -193l-45 -25q-64 110 -177.5 175t-250.5 65q-214 0 -355.5 -142
t-141.5 -356t141.5 -355.5t355.5 -141.5q138 0 251 64.5t177 174.5l45 -24q-72 -122 -196.5 -193.5t-276.5 -71.5z" />
    <glyph glyph-name="Ccaron" unicode="&#x10c;" horiz-adv-x="1564" 
d="M881 1581h-66l-209 227h51l191 -196l188 196h51zM848 27q177 0 324.5 79t238.5 216l45 -29q-99 -147 -258.5 -232.5t-349.5 -85.5q-154 0 -290.5 56.5t-233.5 153.5t-153 232.5t-56 289.5q0 205 95.5 372.5t263.5 263t374 95.5q190 0 349.5 -85.5t258.5 -232.5l-45 -28
q-91 137 -238.5 215.5t-324.5 78.5q-143 0 -269 -52t-215.5 -142t-141.5 -216t-52 -269t52 -269t141.5 -216.5t215.5 -142.5t269 -52z" />
    <glyph glyph-name="ccaron" unicode="&#x10d;" horiz-adv-x="1230" 
d="M690 1212h-65l-209 228h51l190 -197l189 197h51zM657 25q138 0 251 64.5t177 174.5l45 -24q-72 -122 -196.5 -193.5t-276.5 -71.5q-154 0 -280 71.5t-197 197t-71 278.5t71 278.5t197 197t280 71.5q153 0 277 -71t196 -193l-45 -25q-64 110 -177.5 175t-250.5 65
q-214 0 -355.5 -142t-141.5 -356t141.5 -355.5t355.5 -141.5z" />
    <glyph glyph-name="Dcaron" unicode="&#x10e;" horiz-adv-x="1554" 
d="M793 1581h-66l-209 227h51l191 -196l188 196h51zM731 1413q200 0 362.5 -92t254.5 -253.5t92 -360.5q0 -149 -54 -280t-148 -225t-225.5 -148t-281.5 -54h-532v1413h532zM731 49q138 0 259 50.5t207.5 137.5t136.5 209t50 261q0 185 -85 335.5t-234.5 236t-333.5 85.5
h-479v-1315h479z" />
    <glyph glyph-name="dcaron" unicode="&#x10f;" horiz-adv-x="1454" 
d="M1153 719v756h49v-1475h-49v326q-56 -159 -192 -255t-312 -96q-231 0 -385.5 156.5t-154.5 390.5t154.5 390.5t385.5 156.5q177 0 312.5 -95.5t191.5 -254.5zM1403 1475h53l-57 -351h-39zM657 25q140 0 253.5 64.5t178 178.5t64.5 254q0 214 -142 356t-354 142
q-214 0 -355.5 -142t-141.5 -356t141.5 -355.5t355.5 -141.5z" />
    <glyph glyph-name="Dcroat" unicode="&#x110;" horiz-adv-x="1554" 
d="M731 1413q200 0 362.5 -92t254.5 -253.5t92 -360.5q0 -149 -54 -280t-148 -225t-225.5 -148t-281.5 -54h-532v686h-160v41h160v686h532zM731 49q138 0 259 50.5t207.5 137.5t136.5 209t50 261q0 185 -85 335.5t-234.5 236t-333.5 85.5h-479v-637h336v-41h-336v-637h479z
" />
    <glyph glyph-name="dcroat" unicode="&#x111;" 
d="M1378 1266v-41h-176v-1225h-49v322q-58 -157 -192.5 -252t-309.5 -95q-153 0 -277.5 71.5t-194.5 196.5t-70 279t70 279t194.5 196.5t277.5 71.5q175 0 309.5 -94.5t192.5 -251.5v502h-324v41h324v209h49v-209h176zM657 25q140 0 253.5 64.5t178 178.5t64.5 254
q0 214 -142 356t-354 142q-214 0 -355.5 -142t-141.5 -356t141.5 -355.5t355.5 -141.5z" />
    <glyph glyph-name="Emacron" unicode="&#x112;" horiz-adv-x="1220" 
d="M860 1669v-45h-409v45h409zM252 49h850v-49h-903v1413h893v-49h-840v-629h770v-49h-770v-637z" />
    <glyph glyph-name="emacron" unicode="&#x113;" horiz-adv-x="1290" 
d="M862 1300v-45h-409v45h409zM1188 522v-20h-1028q8 -206 151.5 -342.5t356.5 -136.5q141 0 258 63.5t182 171.5l39 -29q-74 -119 -200 -186.5t-279 -67.5q-239 0 -399 157t-160 390q0 234 154.5 390.5t385.5 156.5q230 0 384.5 -157t154.5 -390zM647 1022
q-202 0 -340 -135t-147 -340h977q-9 205 -148 340t-342 135z" />
    <glyph glyph-name="Ebreve" unicode="&#x114;" horiz-adv-x="1220" 
d="M653 1561q-95 0 -160 64t-65 159h43q0 -78 52.5 -131.5t129.5 -53.5q78 0 130.5 53.5t52.5 131.5h45q0 -95 -65.5 -159t-162.5 -64zM252 49h850v-49h-903v1413h893v-49h-840v-629h770v-49h-770v-637z" />
    <glyph glyph-name="ebreve" unicode="&#x115;" horiz-adv-x="1290" 
d="M655 1192q-95 0 -160 64t-65 159h43q0 -78 52.5 -131t129.5 -53q78 0 130.5 53t52.5 131h45q0 -95 -65.5 -159t-162.5 -64zM1188 522v-20h-1028q8 -206 151.5 -342.5t356.5 -136.5q141 0 258 63.5t182 171.5l39 -29q-74 -119 -200 -186.5t-279 -67.5q-239 0 -399 157
t-160 390q0 234 154.5 390.5t385.5 156.5q230 0 384.5 -157t154.5 -390zM647 1022q-202 0 -340 -135t-147 -340h977q-9 205 -148 340t-342 135z" />
    <glyph glyph-name="Edotaccent" unicode="&#x116;" horiz-adv-x="1220" 
d="M655 1610q-22 0 -36.5 14.5t-14.5 36.5t14.5 36.5t36.5 14.5t37 -14.5t15 -36.5t-15 -36.5t-37 -14.5zM252 49h850v-49h-903v1413h893v-49h-840v-629h770v-49h-770v-637z" />
    <glyph glyph-name="edotaccent" unicode="&#x117;" horiz-adv-x="1290" 
d="M657 1241q-22 0 -36.5 14.5t-14.5 36.5t14.5 36.5t36.5 14.5t37 -14.5t15 -36.5t-15 -36.5t-37 -14.5zM1188 522v-20h-1028q8 -206 151.5 -342.5t356.5 -136.5q141 0 258 63.5t182 171.5l39 -29q-74 -119 -200 -186.5t-279 -67.5q-239 0 -399 157t-160 390
q0 234 154.5 390.5t385.5 156.5q230 0 384.5 -157t154.5 -390zM647 1022q-202 0 -340 -135t-147 -340h977q-9 205 -148 340t-342 135z" />
    <glyph glyph-name="Eogonek" unicode="&#x118;" horiz-adv-x="1220" 
d="M1114 -336l19 -35q-64 -41 -134 -41t-119 48.5t-49 117.5q0 74 56.5 138.5t150.5 107.5h-839v1413h893v-49h-840v-629h770v-49h-770v-637h850v-49h-8q-98 -44 -157.5 -107.5t-59.5 -132.5q0 -57 36.5 -94t90.5 -37q60 0 110 35z" />
    <glyph glyph-name="eogonek" unicode="&#x119;" horiz-adv-x="1290" 
d="M1188 522v-20h-1028q8 -206 151.5 -342.5t356.5 -136.5q141 0 258 63.5t182 171.5l39 -29q-78 -124 -215 -194q-193 -131 -193 -268q0 -58 37.5 -97t93.5 -39q71 0 121 47l23 -32q-59 -56 -148 -56q-72 0 -122 49t-50 121q0 126 133 236q-77 -21 -159 -21
q-239 0 -399 157t-160 390q0 234 154.5 390.5t385.5 156.5q230 0 384.5 -157t154.5 -390zM647 1022q-202 0 -340 -135t-147 -340h977q-9 205 -148 340t-342 135z" />
    <glyph glyph-name="Ecaron" unicode="&#x11a;" horiz-adv-x="1220" 
d="M688 1581h-65l-209 227h51l190 -196l189 196h51zM252 49h850v-49h-903v1413h893v-49h-840v-629h770v-49h-770v-637z" />
    <glyph glyph-name="ecaron" unicode="&#x11b;" horiz-adv-x="1290" 
d="M690 1212h-65l-209 228h51l190 -197l189 197h51zM1188 522v-20h-1028q8 -206 151.5 -342.5t356.5 -136.5q141 0 258 63.5t182 171.5l39 -29q-74 -119 -200 -186.5t-279 -67.5q-239 0 -399 157t-160 390q0 234 154.5 390.5t385.5 156.5q230 0 384.5 -157t154.5 -390z
M647 1022q-202 0 -340 -135t-147 -340h977q-9 205 -148 340t-342 135z" />
    <glyph glyph-name="Gcircumflex" unicode="&#x11c;" horiz-adv-x="1662" 
d="M848 1776l-191 -195h-51l209 227h66l206 -227h-51zM924 694h635v-16q0 -149 -54.5 -279.5t-148.5 -223.5t-226.5 -146.5t-283.5 -53.5q-205 0 -372.5 95.5t-263 263.5t-95.5 373t95.5 372.5t263.5 263t374 95.5q191 0 350.5 -84.5t257.5 -231.5l-41 -30
q-91 137 -239 215.5t-328 78.5q-142 0 -268 -52t-216 -142t-142 -216t-52 -269t52 -269t142 -216.5t216 -142.5t268 -52q180 0 328 79t235 221t92 318h-579v49z" />
    <glyph glyph-name="gcircumflex" unicode="&#x11d;" horiz-adv-x="1144" 
d="M596 1407l-190 -195h-52l209 228h66l207 -228h-52zM831 -68q137 0 223 -65.5t89 -173.5l-53 -6q0 89 -72.5 142.5t-190.5 53.5h-444q-110 0 -179 57.5t-69 149.5q0 61 32 116.5t85 84.5q-70 61 -109 146.5t-39 185.5q0 191 130.5 318.5t326.5 127.5q171 0 295 -100
q3 82 56.5 132t138.5 50h73v-47h-69q-71 0 -114.5 -42.5t-43.5 -111.5v-18q123 -126 123 -309q0 -189 -132 -317t-327 -128q-157 0 -274 84q-47 -21 -74 -65.5t-27 -96.5q0 -75 55 -121.5t146 -46.5h444zM156 623q0 -169 116 -283.5t289 -114.5t289.5 114.5t116.5 283.5
t-116.5 284t-289.5 115q-174 0 -289.5 -114.5t-115.5 -284.5z" />
    <glyph glyph-name="Gbreve" unicode="&#x11e;" horiz-adv-x="1662" 
d="M846 1561q-95 0 -160 64t-65 159h43q0 -78 52.5 -131.5t129.5 -53.5q78 0 130 53.5t52 131.5h45q0 -95 -65 -159t-162 -64zM924 694h635v-16q0 -149 -54.5 -279.5t-148.5 -223.5t-226.5 -146.5t-283.5 -53.5q-205 0 -372.5 95.5t-263 263.5t-95.5 373t95.5 372.5
t263.5 263t374 95.5q191 0 350.5 -84.5t257.5 -231.5l-41 -30q-91 137 -239 215.5t-328 78.5q-142 0 -268 -52t-216 -142t-142 -216t-52 -269t52 -269t142 -216.5t216 -142.5t268 -52q180 0 328 79t235 221t92 318h-579v49z" />
    <glyph glyph-name="gbreve" unicode="&#x11f;" horiz-adv-x="1144" 
d="M594 1192q-95 0 -160 64t-65 159h43q0 -78 52.5 -131t129.5 -53q78 0 130 53t52 131h45q0 -95 -65 -159t-162 -64zM831 -68q137 0 223 -65.5t89 -173.5l-53 -6q0 89 -72.5 142.5t-190.5 53.5h-444q-110 0 -179 57.5t-69 149.5q0 61 32 116.5t85 84.5q-70 61 -109 146.5
t-39 185.5q0 191 130.5 318.5t326.5 127.5q171 0 295 -100q3 82 56.5 132t138.5 50h73v-47h-69q-71 0 -114.5 -42.5t-43.5 -111.5v-18q123 -126 123 -309q0 -189 -132 -317t-327 -128q-157 0 -274 84q-47 -21 -74 -65.5t-27 -96.5q0 -75 55 -121.5t146 -46.5h444zM156 623
q0 -169 116 -283.5t289 -114.5t289.5 114.5t116.5 283.5t-116.5 284t-289.5 115q-174 0 -289.5 -114.5t-115.5 -284.5z" />
    <glyph glyph-name="Gdotaccent" unicode="&#x120;" horiz-adv-x="1662" 
d="M848 1610q-22 0 -36.5 14.5t-14.5 36.5t14.5 36.5t36.5 14.5t36.5 -14.5t14.5 -36.5t-14.5 -36.5t-36.5 -14.5zM924 694h635v-16q0 -149 -54.5 -279.5t-148.5 -223.5t-226.5 -146.5t-283.5 -53.5q-205 0 -372.5 95.5t-263 263.5t-95.5 373t95.5 372.5t263.5 263t374 95.5
q191 0 350.5 -84.5t257.5 -231.5l-41 -30q-91 137 -239 215.5t-328 78.5q-142 0 -268 -52t-216 -142t-142 -216t-52 -269t52 -269t142 -216.5t216 -142.5t268 -52q180 0 328 79t235 221t92 318h-579v49z" />
    <glyph glyph-name="gdotaccent" unicode="&#x121;" horiz-adv-x="1144" 
d="M596 1241q-22 0 -36.5 14.5t-14.5 36.5t14.5 36.5t36.5 14.5t36.5 -14.5t14.5 -36.5t-14.5 -36.5t-36.5 -14.5zM831 -68q137 0 223 -65.5t89 -173.5l-53 -6q0 89 -72.5 142.5t-190.5 53.5h-444q-110 0 -179 57.5t-69 149.5q0 61 32 116.5t85 84.5q-70 61 -109 146.5
t-39 185.5q0 191 130.5 318.5t326.5 127.5q171 0 295 -100q3 82 56.5 132t138.5 50h73v-47h-69q-71 0 -114.5 -42.5t-43.5 -111.5v-18q123 -126 123 -309q0 -189 -132 -317t-327 -128q-157 0 -274 84q-47 -21 -74 -65.5t-27 -96.5q0 -75 55 -121.5t146 -46.5h444zM156 623
q0 -169 116 -283.5t289 -114.5t289.5 114.5t116.5 283.5t-116.5 284t-289.5 115q-174 0 -289.5 -114.5t-115.5 -284.5z" />
    <glyph glyph-name="uni0122" unicode="&#x122;" horiz-adv-x="1662" 
d="M924 694h635v-16q0 -149 -54.5 -279.5t-148.5 -223.5t-226.5 -146.5t-283.5 -53.5q-205 0 -372.5 95.5t-263 263.5t-95.5 373t95.5 372.5t263.5 263t374 95.5q191 0 350.5 -84.5t257.5 -231.5l-41 -30q-91 137 -239 215.5t-328 78.5q-142 0 -268 -52t-216 -142t-142 -216
t-52 -269t52 -269t142 -216.5t216 -142.5t268 -52q180 0 328 79t235 221t92 318h-579v49zM782 -432l54 268h57l-70 -268h-41z" />
    <glyph glyph-name="uni0123" unicode="&#x123;" horiz-adv-x="1144" 
d="M649 1462l-53 -270h-57l69 270h41zM831 -68q137 0 223 -65.5t89 -173.5l-53 -6q0 89 -72.5 142.5t-190.5 53.5h-444q-110 0 -179 57.5t-69 149.5q0 61 32 116.5t85 84.5q-70 61 -109 146.5t-39 185.5q0 191 130.5 318.5t326.5 127.5q171 0 295 -100q3 82 56.5 132
t138.5 50h73v-47h-69q-71 0 -114.5 -42.5t-43.5 -111.5v-18q123 -126 123 -309q0 -189 -132 -317t-327 -128q-157 0 -274 84q-47 -21 -74 -65.5t-27 -96.5q0 -75 55 -121.5t146 -46.5h444zM156 623q0 -169 116 -283.5t289 -114.5t289.5 114.5t116.5 283.5t-116.5 284
t-289.5 115q-174 0 -289.5 -114.5t-115.5 -284.5z" />
    <glyph glyph-name="Hcircumflex" unicode="&#x124;" horiz-adv-x="1519" 
d="M762 1776l-191 -195h-51l209 227h66l206 -227h-51zM1268 1413h53v-1413h-53v686h-1016v-686h-53v1413h53v-678h1016v678z" />
    <glyph glyph-name="hcircumflex" unicode="&#x125;" horiz-adv-x="1288" 
d="M393 1583l-188 195l-191 -195h-51l209 227h66l206 -227h-51zM668 1069q203 0 327.5 -123.5t124.5 -327.5v-618h-49v608q0 187 -113 299.5t-301 112.5q-194 0 -311 -113.5t-117 -302.5v-604h-49v1475h49v-678q51 129 165.5 200.5t273.5 71.5z" />
    <glyph glyph-name="Hbar" unicode="&#x126;" horiz-adv-x="1519" 
d="M1444 1118v-41h-123v-1077h-53v686h-1016v-686h-53v1077h-119v41h119v295h53v-295h1016v295h53v-295h123zM1268 735v342h-1016v-342h1016z" />
    <glyph glyph-name="hbar" unicode="&#x127;" horiz-adv-x="1288" 
d="M668 1069q203 0 327.5 -123.5t124.5 -327.5v-618h-49v608q0 187 -113 299.5t-301 112.5q-194 0 -311 -113.5t-117 -302.5v-604h-49v1225h-176v41h176v209h49v-209h324v-41h-324v-428q51 129 165.5 200.5t273.5 71.5z" />
    <glyph glyph-name="Itilde" unicode="&#x128;" horiz-adv-x="450" 
d="M373 1595q-38 0 -71 15.5t-57 37.5t-47.5 44t-53 37.5t-62.5 15.5q-56 0 -93.5 -38.5t-37.5 -96.5h-43q0 75 48.5 125.5t123.5 50.5q45 0 85 -23t65.5 -51t62.5 -51t76 -23q57 0 95 39t38 97h43q0 -75 -49.5 -127t-122.5 -52zM199 0v1413h53v-1413h-53z" />
    <glyph glyph-name="itilde" unicode="&#x129;" horiz-adv-x="407" 
d="M350 1227q-46 0 -86.5 23.5t-66 51t-62.5 51t-76 23.5q-56 0 -93.5 -38.5t-37.5 -96.5h-43q0 75 48.5 125.5t123.5 50.5q45 0 85 -23t65.5 -50.5t62 -50.5t76.5 -23q57 0 95 38.5t38 96.5h43q0 -75 -49.5 -126.5t-122.5 -51.5zM180 0v1044h49v-1044h-49z" />
    <glyph glyph-name="Imacron" unicode="&#x12a;" horiz-adv-x="450" 
d="M23 1624v45h409v-45h-409zM199 0v1413h53v-1413h-53z" />
    <glyph glyph-name="imacron" unicode="&#x12b;" horiz-adv-x="407" 
d="M0 1255v45h410v-45h-410zM180 0v1044h49v-1044h-49z" />
    <glyph glyph-name="Ibreve" unicode="&#x12c;" horiz-adv-x="450" 
d="M225 1561q-95 0 -160 64t-65 159h43q0 -78 52.5 -131.5t129.5 -53.5q78 0 130.5 53.5t52.5 131.5h45q0 -95 -65.5 -159t-162.5 -64zM199 0v1413h53v-1413h-53z" />
    <glyph glyph-name="ibreve" unicode="&#x12d;" horiz-adv-x="407" 
d="M203 1192q-96 0 -161 64t-65 159h43q0 -78 53 -131t130 -53q78 0 130 53t52 131h45q0 -95 -65 -159t-162 -64zM180 0v1044h49v-1044h-49z" />
    <glyph glyph-name="Iogonek" unicode="&#x12e;" horiz-adv-x="450" 
d="M270 -336l19 -35q-64 -41 -133 -41q-70 0 -119 48.5t-49 117.5q0 75 57.5 140t153.5 108v1411h53v-1413h-2q-98 -44 -157.5 -107.5t-59.5 -132.5q0 -57 36.5 -94t90.5 -37q60 0 110 35z" />
    <glyph glyph-name="iogonek" unicode="&#x12f;" horiz-adv-x="407" 
d="M205 1241q-22 0 -36.5 14.5t-14.5 36.5t14.5 36.5t36.5 14.5t36.5 -14.5t14.5 -36.5t-14.5 -36.5t-36.5 -14.5zM248 -336l18 -35q-64 -41 -133 -41q-70 0 -119 48.5t-49 117.5q0 76 59 141.5t156 108.5v1040h49v-1044h-2q-98 -44 -157.5 -107.5t-59.5 -132.5
q0 -57 36.5 -94t90.5 -37q61 0 111 35z" />
    <glyph glyph-name="Idotaccent" unicode="&#x130;" horiz-adv-x="450" 
d="M227 1610q-22 0 -36.5 14.5t-14.5 36.5t14.5 36.5t36.5 14.5t37 -14.5t15 -36.5t-15 -36.5t-37 -14.5zM199 0v1413h53v-1413h-53z" />
    <glyph glyph-name="dotlessi" unicode="&#x131;" horiz-adv-x="407" 
d="M180 0v1044h49v-1044h-49z" />
    <glyph glyph-name="IJ" unicode="&#x132;" horiz-adv-x="1316" 
d="M199 0v1413h53v-1413h-53zM774 -25q-129 0 -258 70v57q124 -75 256 -75q151 0 241.5 92.5t90.5 238.5v1055h53v-1057q0 -165 -107 -273t-276 -108z" />
    <glyph glyph-name="ij" unicode="&#x133;" horiz-adv-x="829" 
d="M205 1333q-22 0 -35.5 13.5t-13.5 33.5q0 21 14 35.5t35 14.5q20 0 33.5 -14.5t13.5 -35.5q0 -20 -13.5 -33.5t-33.5 -13.5zM625 1333q-20 0 -33.5 13.5t-13.5 33.5q0 21 13.5 35.5t33.5 14.5q21 0 35 -14.5t14 -35.5q0 -20 -13.5 -33.5t-35.5 -13.5zM180 0v1044h49
v-1044h-49zM432 -414q-61 0 -117 27v47q49 -27 109 -27q176 0 176 187v1224h49v-1230q0 -115 -58.5 -171.5t-158.5 -56.5z" />
    <glyph glyph-name="Jcircumflex" unicode="&#x134;" horiz-adv-x="866" 
d="M713 1808l207 -227h-52l-188 195l-191 -195h-51l209 227h66zM653 358v1055h54v-1057q0 -165 -107 -273t-276 -108q-129 0 -258 70v57q124 -75 256 -75q150 0 240.5 92t90.5 239z" />
    <glyph glyph-name="jcircumflex" unicode="&#x135;" horiz-adv-x="421" 
d="M252 1440l207 -228h-51l-189 195l-190 -195h-52l209 228h66zM193 -180v1224h49v-1230q0 -115 -58.5 -171.5t-158.5 -56.5q-61 0 -117 27v47q49 -27 108 -27q177 0 177 187z" />
    <glyph glyph-name="uni0136" unicode="&#x136;" horiz-adv-x="1259" 
d="M508 723l754 -723h-74l-719 686l-217 -205v-481h-53v1413h53v-860l919 860h74zM604 -432l53 268h58l-70 -268h-41z" />
    <glyph glyph-name="uni0137" unicode="&#x137;" horiz-adv-x="1005" 
d="M459 539l512 -539h-68l-479 504l-195 -199v-305h-49v1475h49v-1104l660 673h67zM485 -432l54 268h57l-70 -268h-41z" />
    <glyph glyph-name="Lacute" unicode="&#x139;" horiz-adv-x="1120" 
d="M477 1808l-235 -227h-58l219 227h74zM252 49h788v-49h-841v1413h53v-1364z" />
    <glyph glyph-name="lacute" unicode="&#x13a;" horiz-adv-x="407" 
d="M160 1583l219 227h74l-236 -227h-57zM180 0v1475h49v-1475h-49z" />
    <glyph glyph-name="uni013B" unicode="&#x13b;" horiz-adv-x="1120" 
d="M252 49h788v-49h-841v1413h53v-1364zM549 -432l53 268h57l-69 -268h-41z" />
    <glyph glyph-name="uni013C" unicode="&#x13c;" horiz-adv-x="407" 
d="M180 0v1475h49v-1475h-49zM139 -432l54 268h57l-70 -268h-41z" />
    <glyph glyph-name="Lcaron" unicode="&#x13d;" horiz-adv-x="1120" 
d="M252 49h788v-49h-841v1413h53v-1364zM618 1413l-57 -350h-39l43 350h53z" />
    <glyph glyph-name="lcaron" unicode="&#x13e;" horiz-adv-x="481" 
d="M180 0v1475h49v-1475h-49zM385 1124l43 351h55l-57 -351h-41z" />
    <glyph glyph-name="Ldot" unicode="&#x13f;" horiz-adv-x="1120" 
d="M252 49h788v-49h-841v1413h53v-1364zM565 657q-22 0 -36.5 15t-14.5 37t14.5 36.5t36.5 14.5t37.5 -14.5t15.5 -36.5t-15.5 -37t-37.5 -15z" />
    <glyph glyph-name="ldot" unicode="&#x140;" horiz-adv-x="573" 
d="M180 0v1475h49v-1475h-49zM426 686q-22 0 -37.5 14.5t-15.5 36.5t15.5 36.5t37.5 14.5t36.5 -14.5t14.5 -36.5t-14.5 -36.5t-36.5 -14.5z" />
    <glyph glyph-name="Lslash" unicode="&#x141;" horiz-adv-x="1120" 
d="M252 49h788v-49h-841v608l-148 -108v57l148 109v747h53v-706l283 208v-57l-283 -209v-600z" />
    <glyph glyph-name="lslash" unicode="&#x142;" horiz-adv-x="565" 
d="M459 893v-55l-152 -111v-727h-49v690l-149 -108v55l149 108v730h49v-693z" />
    <glyph glyph-name="Nacute" unicode="&#x143;" horiz-adv-x="1531" 
d="M1016 1808l-236 -227h-57l219 227h74zM1280 1413h53v-1413h-63l-1018 1341v-1341h-53v1413h65l1016 -1337v1337z" />
    <glyph glyph-name="nacute" unicode="&#x144;" horiz-adv-x="1288" 
d="M895 1440l-236 -228h-57l219 228h74zM668 1069q203 0 327.5 -123.5t124.5 -327.5v-618h-49v608q0 187 -113 299.5t-301 112.5q-194 0 -311 -113.5t-117 -302.5v-604h-49v1044h49v-247q51 129 165.5 200.5t273.5 71.5z" />
    <glyph glyph-name="uni0145" unicode="&#x145;" horiz-adv-x="1531" 
d="M1280 1413h53v-1413h-63l-1018 1341v-1341h-53v1413h65l1016 -1337v1337zM700 -432l54 268h57l-70 -268h-41z" />
    <glyph glyph-name="uni0146" unicode="&#x146;" horiz-adv-x="1288" 
d="M668 1069q203 0 327.5 -123.5t124.5 -327.5v-618h-49v608q0 187 -113 299.5t-301 112.5q-194 0 -311 -113.5t-117 -302.5v-604h-49v1044h49v-247q51 129 165.5 200.5t273.5 71.5zM584 -432l53 268h57l-69 -268h-41z" />
    <glyph glyph-name="Ncaron" unicode="&#x147;" horiz-adv-x="1531" 
d="M801 1581h-66l-209 227h52l190 -196l188 196h52zM1280 1413h53v-1413h-63l-1018 1341v-1341h-53v1413h65l1016 -1337v1337z" />
    <glyph glyph-name="ncaron" unicode="&#x148;" horiz-adv-x="1288" 
d="M680 1212h-66l-208 228h51l190 -197l189 197h51zM668 1069q203 0 327.5 -123.5t124.5 -327.5v-618h-49v608q0 187 -113 299.5t-301 112.5q-194 0 -311 -113.5t-117 -302.5v-604h-49v1044h49v-247q51 129 165.5 200.5t273.5 71.5z" />
    <glyph glyph-name="Eng" unicode="&#x14a;" horiz-adv-x="1531" 
d="M1280 1413h53v-1530q0 -140 -75.5 -209t-210.5 -69v49q110 0 171.5 57.5t61.5 173.5v115h-10l-1018 1341v-1341h-53v1413h65l1016 -1337v1337z" />
    <glyph glyph-name="eng" unicode="&#x14b;" horiz-adv-x="1288" 
d="M668 1069q203 0 327.5 -123.5t124.5 -327.5v-735q0 -140 -75 -209t-209 -69v47q110 0 172.5 57.5t62.5 175.5v723q0 187 -113 299.5t-301 112.5q-194 0 -311 -113.5t-117 -302.5v-604h-49v1044h49v-247q51 129 165.5 200.5t273.5 71.5z" />
    <glyph glyph-name="Omacron" unicode="&#x14c;" horiz-adv-x="1693" 
d="M643 1624v45h410v-45h-410zM848 -25q-154 0 -290.5 56.5t-233.5 153.5t-153 232.5t-56 289.5q0 205 95.5 372.5t263.5 263t374 95.5q205 0 372.5 -95.5t263 -263t95.5 -372.5t-95.5 -373t-263 -263.5t-372.5 -95.5zM848 27q142 0 267.5 52t215 142.5t141.5 216.5t52 269
t-52 269t-141.5 216t-215 142t-267.5 52q-143 0 -269 -52t-215.5 -142t-141.5 -216t-52 -269t52 -269t141.5 -216.5t215.5 -142.5t269 -52z" />
    <glyph glyph-name="omacron" unicode="&#x14d;" horiz-adv-x="1312" 
d="M453 1255v45h409v-45h-409zM657 -25q-154 0 -280 71.5t-197 197t-71 278.5t71 278.5t197 197t280 71.5q233 0 390 -157t157 -390t-157 -390t-390 -157zM657 25q140 0 253.5 64.5t178 178.5t64.5 254q0 214 -142 356t-354 142q-214 0 -355.5 -142t-141.5 -356
t141.5 -355.5t355.5 -141.5z" />
    <glyph glyph-name="Obreve" unicode="&#x14e;" horiz-adv-x="1693" 
d="M846 1561q-95 0 -160 64t-65 159h43q0 -78 52.5 -131.5t129.5 -53.5q78 0 130 53.5t52 131.5h45q0 -95 -65 -159t-162 -64zM848 -25q-154 0 -290.5 56.5t-233.5 153.5t-153 232.5t-56 289.5q0 205 95.5 372.5t263.5 263t374 95.5q205 0 372.5 -95.5t263 -263t95.5 -372.5
t-95.5 -373t-263 -263.5t-372.5 -95.5zM848 27q142 0 267.5 52t215 142.5t141.5 216.5t52 269t-52 269t-141.5 216t-215 142t-267.5 52q-143 0 -269 -52t-215.5 -142t-141.5 -216t-52 -269t52 -269t141.5 -216.5t215.5 -142.5t269 -52z" />
    <glyph glyph-name="obreve" unicode="&#x14f;" horiz-adv-x="1312" 
d="M655 1192q-95 0 -160 64t-65 159h43q0 -78 52.5 -131t129.5 -53q78 0 130.5 53t52.5 131h45q0 -95 -65.5 -159t-162.5 -64zM657 -25q-154 0 -280 71.5t-197 197t-71 278.5t71 278.5t197 197t280 71.5q233 0 390 -157t157 -390t-157 -390t-390 -157zM657 25
q140 0 253.5 64.5t178 178.5t64.5 254q0 214 -142 356t-354 142q-214 0 -355.5 -142t-141.5 -356t141.5 -355.5t355.5 -141.5z" />
    <glyph glyph-name="Ohungarumlaut" unicode="&#x150;" horiz-adv-x="1693" 
d="M647 1581l162 227h63l-174 -227h-51zM985 1581l160 227h65l-176 -227h-49zM848 -25q-154 0 -290.5 56.5t-233.5 153.5t-153 232.5t-56 289.5q0 205 95.5 372.5t263.5 263t374 95.5q205 0 372.5 -95.5t263 -263t95.5 -372.5t-95.5 -373t-263 -263.5t-372.5 -95.5zM848 27
q142 0 267.5 52t215 142.5t141.5 216.5t52 269t-52 269t-141.5 216t-215 142t-267.5 52q-143 0 -269 -52t-215.5 -142t-141.5 -216t-52 -269t52 -269t141.5 -216.5t215.5 -142.5t269 -52z" />
    <glyph glyph-name="ohungarumlaut" unicode="&#x151;" horiz-adv-x="1312" 
d="M457 1212l161 228h64l-174 -228h-51zM795 1212l159 228h66l-176 -228h-49zM657 -25q-154 0 -280 71.5t-197 197t-71 278.5t71 278.5t197 197t280 71.5q233 0 390 -157t157 -390t-157 -390t-390 -157zM657 25q140 0 253.5 64.5t178 178.5t64.5 254q0 214 -142 356
t-354 142q-214 0 -355.5 -142t-141.5 -356t141.5 -355.5t355.5 -141.5z" />
    <glyph glyph-name="OE" unicode="&#x152;" horiz-adv-x="1974" 
d="M1085 49h770v-49h-1032q-150 0 -281.5 54t-225 148t-147.5 225t-54 280t54 280t147.5 224.5t225 147.5t281.5 54h1022v-49h-760v-629h691v-49h-691v-637zM823 49h211v1315h-211q-184 0 -333.5 -85.5t-234.5 -236t-85 -335.5q0 -139 50 -261t136.5 -209t207.5 -137.5
t259 -50.5z" />
    <glyph glyph-name="oe" unicode="&#x153;" horiz-adv-x="2334" 
d="M2232 522v-20h-1028q8 -206 151.5 -342.5t356.5 -136.5q141 0 257 63t181 172l39 -29q-73 -119 -197.5 -186.5t-277.5 -67.5q-195 0 -340.5 110t-193.5 288q-48 -179 -190.5 -288.5t-334.5 -109.5q-233 0 -389.5 157t-156.5 390t156.5 390t389.5 157q190 0 333.5 -109.5
t189.5 -285.5q46 177 186.5 286t329.5 109q230 0 384 -157t154 -390zM1694 1022q-203 0 -342 -135t-148 -340h977q-3 203 -143.5 339t-343.5 136zM657 25q140 0 253.5 64.5t178 178.5t64.5 254q0 214 -142 356t-354 142q-214 0 -355.5 -142t-141.5 -356t141.5 -355.5
t355.5 -141.5z" />
    <glyph glyph-name="Racute" unicode="&#x154;" horiz-adv-x="1232" 
d="M866 1808l-235 -227h-58l220 227h73zM1071 0l-563 643h-256v-643h-53v1413h532q164 0 275.5 -110.5t111.5 -274.5t-111.5 -274.5t-275.5 -110.5h-156l566 -643h-70zM252 1364v-674h477q143 0 238.5 96t95.5 240q0 146 -95.5 242t-238.5 96h-477z" />
    <glyph glyph-name="racute" unicode="&#x155;" horiz-adv-x="741" 
d="M678 1440l-236 -228h-57l219 228h74zM664 1061h24v-51h-24q-197 0 -316 -123t-119 -328v-559h-49v1044h49v-274q52 137 165.5 214t269.5 77z" />
    <glyph glyph-name="uni0156" unicode="&#x156;" horiz-adv-x="1232" 
d="M575 643l566 -643h-70l-563 643h-256v-643h-53v1413h532q164 0 275.5 -110.5t111.5 -274.5t-111.5 -274.5t-275.5 -110.5h-156zM252 1364v-674h477q143 0 238.5 96t95.5 240q0 146 -95.5 242t-238.5 96h-477zM553 -432l53 268h58l-70 -268h-41z" />
    <glyph glyph-name="uni0157" unicode="&#x157;" horiz-adv-x="741" 
d="M664 1061h24v-51h-24q-197 0 -316 -123t-119 -328v-559h-49v1044h49v-274q52 137 165.5 214t269.5 77zM139 -432l54 268h57l-70 -268h-41z" />
    <glyph glyph-name="Rcaron" unicode="&#x158;" horiz-adv-x="1232" 
d="M651 1581h-65l-209 227h51l190 -196l189 196h51zM1071 0l-563 643h-256v-643h-53v1413h532q164 0 275.5 -110.5t111.5 -274.5t-111.5 -274.5t-275.5 -110.5h-156l566 -643h-70zM252 1364v-674h477q143 0 238.5 96t95.5 240q0 146 -95.5 242t-238.5 96h-477z" />
    <glyph glyph-name="rcaron" unicode="&#x159;" horiz-adv-x="741" 
d="M461 1212h-66l-209 228h52l190 -197l188 197h52zM664 1061h24v-51h-24q-197 0 -316 -123t-119 -328v-559h-49v1044h49v-274q52 137 165.5 214t269.5 77z" />
    <glyph glyph-name="Sacute" unicode="&#x15a;" horiz-adv-x="1185" 
d="M559 1581l219 227h74l-236 -227h-57zM610 -25q-151 0 -286 60t-222 164l33 37q76 -93 201.5 -152t273.5 -59q187 0 312 91t125 234q0 41 -12 78t-30 65t-48.5 53.5t-57 43t-66.5 34.5t-65.5 26t-66.5 19.5t-57 14l-48 10.5q-65 12 -123 29.5t-122 48.5t-110 70.5
t-76 99.5t-30 131q0 162 132 263.5t331 101.5q134 0 247 -49t181 -134l-31 -34q-54 72 -161 120t-236 48q-175 0 -291.5 -88.5t-116.5 -225.5q0 -248 420 -327q39 -7 75.5 -16t88 -26.5t94.5 -38t88 -52t75.5 -68t50.5 -87t20 -108.5q0 -164 -141.5 -270.5t-350.5 -106.5z
" />
    <glyph glyph-name="sacute" unicode="&#x15b;" horiz-adv-x="989" 
d="M455 1212l219 228h74l-236 -228h-57zM498 -25q-125 0 -229 45t-171 125l31 35q60 -74 156 -115.5t211 -41.5q147 0 243.5 66.5t96.5 172.5q0 33 -10.5 60.5t-25 48t-42.5 39t-51 30t-63.5 25t-66.5 20.5t-73 19q-49 13 -78 21t-73 23.5t-70.5 29.5t-58 36t-48.5 47
t-29 58.5t-12 73.5q0 128 105.5 202t255.5 74q110 0 201 -39.5t153 -109.5l-31 -37q-53 65 -137 102t-184 37q-131 0 -220.5 -62.5t-89.5 -160.5q0 -34 10.5 -62.5t25.5 -49.5t43.5 -40t51.5 -31t64.5 -25.5t67 -20.5t73.5 -19q50 -13 77.5 -20t72 -22t69.5 -28.5
t56.5 -35.5t48 -46.5t28 -58.5t11.5 -74q0 -132 -110.5 -211.5t-278.5 -79.5z" />
    <glyph glyph-name="Scircumflex" unicode="&#x15c;" horiz-adv-x="1185" 
d="M604 1776l-190 -195h-52l209 227h66l207 -227h-51zM610 748q39 -7 75.5 -16t88 -26.5t94.5 -38t88 -52t75.5 -68t50.5 -87t20 -108.5q0 -164 -141.5 -270.5t-350.5 -106.5q-151 0 -286 60t-222 164l33 37q76 -93 201.5 -152t273.5 -59q187 0 312 91t125 234q0 41 -12 78
t-30 65t-48.5 53.5t-57 43t-66.5 34.5t-65.5 26t-66.5 19.5t-57 14l-48 10.5q-65 12 -123 29.5t-122 48.5t-110 70.5t-76 99.5t-30 131q0 162 132 263.5t331 101.5q134 0 247 -49t181 -134l-31 -34q-54 72 -161 120t-236 48q-175 0 -291.5 -88.5t-116.5 -225.5
q0 -248 420 -327z" />
    <glyph glyph-name="scircumflex" unicode="&#x15d;" horiz-adv-x="989" 
d="M498 1407l-191 -195h-51l209 228h65l207 -228h-51zM524 551q50 -13 77.5 -20t72 -22t69.5 -28.5t56.5 -35.5t48 -46.5t28 -58.5t11.5 -74q0 -132 -110.5 -211.5t-278.5 -79.5q-125 0 -229 45t-171 125l31 35q60 -74 156 -115.5t211 -41.5q147 0 243.5 66.5t96.5 172.5
q0 33 -10.5 60.5t-25 48t-42.5 39t-51 30t-63.5 25t-66.5 20.5t-73 19q-49 13 -78 21t-73 23.5t-70.5 29.5t-58 36t-48.5 47t-29 58.5t-12 73.5q0 128 105.5 202t255.5 74q110 0 201 -39.5t153 -109.5l-31 -37q-53 65 -137 102t-184 37q-131 0 -220.5 -62.5t-89.5 -160.5
q0 -34 10.5 -62.5t25.5 -49.5t43.5 -40t51.5 -31t64.5 -25.5t67 -20.5t73.5 -19z" />
    <glyph glyph-name="Scedilla" unicode="&#x15e;" horiz-adv-x="1185" 
d="M1102 352q0 -163 -139 -269t-345 -108l-55 -69q27 10 55 10q67 0 112.5 -47.5t45.5 -116.5q0 -71 -48 -118.5t-120 -47.5q-50 0 -91 27.5t-62 71.5l30 20q15 -37 48.5 -59.5t74.5 -22.5q54 0 91.5 37t37.5 92q0 54 -36.5 90.5t-90.5 36.5q-24 0 -47 -9t-35 -24l-34 17
l81 112q-140 7 -265.5 67t-207.5 157l33 37q76 -93 201.5 -152t273.5 -59q187 0 312 91t125 234q0 41 -12 78t-30 65t-48.5 53.5t-57 43t-66.5 34.5t-65.5 26t-66.5 19.5t-57 14l-48 10.5q-65 12 -123 29.5t-122 48.5t-110 70.5t-76 99.5t-30 131q0 162 132 263.5t331 101.5
q134 0 247 -49t181 -134l-31 -34q-54 72 -161 120t-236 48q-175 0 -291.5 -88.5t-116.5 -225.5q0 -248 420 -327q39 -7 75.5 -16t88 -26.5t94.5 -38t88 -52t75.5 -68t50.5 -87t20 -108.5z" />
    <glyph glyph-name="scedilla" unicode="&#x15f;" horiz-adv-x="989" 
d="M887 266q0 -129 -106.5 -208.5t-268.5 -82.5l-55 -69q27 10 55 10q67 0 112.5 -47.5t45.5 -116.5q0 -71 -48 -118.5t-120 -47.5q-50 0 -91.5 27.5t-62.5 71.5l31 20q15 -37 48.5 -59.5t74.5 -22.5q54 0 91.5 37t37.5 92q0 54 -36.5 90.5t-90.5 36.5q-24 0 -47 -9t-35 -24
l-35 17l82 112q-116 6 -211.5 50.5t-159.5 119.5l31 35q60 -74 156 -115.5t211 -41.5q147 0 243.5 66.5t96.5 172.5q0 33 -10.5 60.5t-25 48t-42.5 39t-51 30t-63.5 25t-66.5 20.5t-73 19q-49 13 -78 21t-73 23.5t-70.5 29.5t-58 36t-48.5 47t-29 58.5t-12 73.5
q0 128 105.5 202t255.5 74q110 0 201 -39.5t153 -109.5l-31 -37q-53 65 -137 102t-184 37q-131 0 -220.5 -62.5t-89.5 -160.5q0 -34 10.5 -62.5t25.5 -49.5t43.5 -40t51.5 -31t64.5 -25.5t67 -20.5t73.5 -19q50 -13 77.5 -20t72 -22t69.5 -28.5t56.5 -35.5t48 -46.5
t28 -58.5t11.5 -74z" />
    <glyph glyph-name="Scaron" unicode="&#x160;" horiz-adv-x="1185" 
d="M637 1581h-66l-209 227h52l190 -196l189 196h51zM610 748q39 -7 75.5 -16t88 -26.5t94.5 -38t88 -52t75.5 -68t50.5 -87t20 -108.5q0 -164 -141.5 -270.5t-350.5 -106.5q-151 0 -286 60t-222 164l33 37q76 -93 201.5 -152t273.5 -59q187 0 312 91t125 234q0 41 -12 78
t-30 65t-48.5 53.5t-57 43t-66.5 34.5t-65.5 26t-66.5 19.5t-57 14l-48 10.5q-65 12 -123 29.5t-122 48.5t-110 70.5t-76 99.5t-30 131q0 162 132 263.5t331 101.5q134 0 247 -49t181 -134l-31 -34q-54 72 -161 120t-236 48q-175 0 -291.5 -88.5t-116.5 -225.5
q0 -248 420 -327z" />
    <glyph glyph-name="scaron" unicode="&#x161;" horiz-adv-x="989" 
d="M530 1212h-65l-209 228h51l191 -197l188 197h51zM524 551q50 -13 77.5 -20t72 -22t69.5 -28.5t56.5 -35.5t48 -46.5t28 -58.5t11.5 -74q0 -132 -110.5 -211.5t-278.5 -79.5q-125 0 -229 45t-171 125l31 35q60 -74 156 -115.5t211 -41.5q147 0 243.5 66.5t96.5 172.5
q0 33 -10.5 60.5t-25 48t-42.5 39t-51 30t-63.5 25t-66.5 20.5t-73 19q-49 13 -78 21t-73 23.5t-70.5 29.5t-58 36t-48.5 47t-29 58.5t-12 73.5q0 128 105.5 202t255.5 74q110 0 201 -39.5t153 -109.5l-31 -37q-53 65 -137 102t-184 37q-131 0 -220.5 -62.5t-89.5 -160.5
q0 -34 10.5 -62.5t25.5 -49.5t43.5 -40t51.5 -31t64.5 -25.5t67 -20.5t73.5 -19z" />
    <glyph glyph-name="uni0162" unicode="&#x162;" horiz-adv-x="1218" 
d="M635 0h-6l-72 -92q27 10 55 10q67 0 112.5 -47.5t45.5 -116.5q0 -71 -48 -118.5t-120 -47.5q-50 0 -91 27.5t-62 71.5l30 20q15 -37 48.5 -59.5t74.5 -22.5q54 0 91.5 37t37.5 92q0 54 -36.5 90.5t-90.5 36.5q-24 0 -47 -9t-35 -24l-35 17l99 135h-4v1364h-512v49h1077
v-49h-512v-1364z" />
    <glyph glyph-name="uni0163" unicode="&#x163;" horiz-adv-x="808" 
d="M725 999h-358v-778q0 -106 51.5 -151t150.5 -45q85 0 156 38v-49q-73 -39 -162 -39q-31 0 -43 2l-55 -69q27 10 55 10q67 0 112.5 -47.5t45.5 -116.5q0 -71 -48 -118.5t-120 -47.5q-50 0 -91.5 27.5t-62.5 71.5l31 20q15 -37 48.5 -59.5t74.5 -22.5q54 0 91.5 37t37.5 92
q0 54 -36.5 90.5t-90.5 36.5q-24 0 -47 -9t-35 -24l-35 17l86 119q-164 37 -164 231v784h-223v45h223v304h50v-304h358v-45z" />
    <glyph glyph-name="Tcaron" unicode="&#x164;" horiz-adv-x="1218" 
d="M643 1581h-65l-209 227h51l190 -196l189 196h51zM1147 1413v-49h-512v-1364h-53v1364h-512v49h1077z" />
    <glyph glyph-name="tcaron" unicode="&#x165;" horiz-adv-x="808" 
d="M625 1528l-60 -350h-39l43 350h56zM725 999h-358v-778q0 -106 51.5 -151t150.5 -45q85 0 156 38v-49q-73 -39 -162 -39q-246 0 -246 240v784h-223v45h223v304h50v-304h358v-45z" />
    <glyph glyph-name="Tbar" unicode="&#x166;" horiz-adv-x="1218" 
d="M1147 1364h-512v-641h250v-41h-250v-682h-53v682h-246v41h246v641h-512v49h1077v-49z" />
    <glyph glyph-name="tbar" unicode="&#x167;" horiz-adv-x="808" 
d="M725 999h-358v-411h297v-41h-297v-326q0 -106 51.5 -151t150.5 -45q85 0 156 38v-49q-73 -39 -162 -39q-246 0 -246 240v332h-202v41h202v411h-223v45h223v304h50v-304h358v-45z" />
    <glyph glyph-name="Utilde" unicode="&#x168;" horiz-adv-x="1437" 
d="M866 1595q-38 0 -71 15.5t-57 37.5t-47.5 44t-53 37.5t-62.5 15.5q-56 0 -93.5 -38.5t-37.5 -96.5h-43q0 75 48.5 125.5t123.5 50.5q45 0 85 -23t65.5 -51t62.5 -51t76 -23q57 0 95 39t38 97h43q0 -75 -49.5 -127t-122.5 -52zM719 -25q-156 0 -284.5 73t-201.5 201.5
t-73 285.5v878h53v-878q0 -143 66 -259t182 -182.5t258 -66.5q218 0 363 145.5t145 362.5v878h51v-878q0 -239 -160 -399.5t-399 -160.5z" />
    <glyph glyph-name="utilde" unicode="&#x169;" horiz-adv-x="1236" 
d="M766 1227q-46 0 -86.5 23.5t-66 51t-62.5 51t-76 23.5q-56 0 -93.5 -38.5t-37.5 -96.5h-43q0 75 48.5 125.5t123.5 50.5q45 0 85 -23t65.5 -50.5t62 -50.5t76.5 -23q57 0 95 38.5t38 96.5h43q0 -75 -49.5 -126.5t-122.5 -51.5zM618 -25q-203 0 -326.5 119.5t-123.5 315.5
v634h49v-628q0 -177 109.5 -284t291.5 -107t292 107t110 284v628h49v-634q0 -196 -124 -315.5t-327 -119.5z" />
    <glyph glyph-name="Umacron" unicode="&#x16a;" horiz-adv-x="1437" 
d="M514 1624v45h410v-45h-410zM719 -25q-156 0 -284.5 73t-201.5 201.5t-73 285.5v878h53v-878q0 -143 66 -259t182 -182.5t258 -66.5q218 0 363 145.5t145 362.5v878h51v-878q0 -239 -160 -399.5t-399 -160.5z" />
    <glyph glyph-name="umacron" unicode="&#x16b;" horiz-adv-x="1236" 
d="M414 1255v45h409v-45h-409zM618 -25q-203 0 -326.5 119.5t-123.5 315.5v634h49v-628q0 -177 109.5 -284t291.5 -107t292 107t110 284v628h49v-634q0 -196 -124 -315.5t-327 -119.5z" />
    <glyph glyph-name="Ubreve" unicode="&#x16c;" horiz-adv-x="1437" 
d="M719 1561q-95 0 -160 64t-65 159h43q0 -78 52.5 -131.5t129.5 -53.5q78 0 130 53.5t52 131.5h45q0 -95 -65 -159t-162 -64zM719 -25q-156 0 -284.5 73t-201.5 201.5t-73 285.5v878h53v-878q0 -143 66 -259t182 -182.5t258 -66.5q218 0 363 145.5t145 362.5v878h51v-878
q0 -239 -160 -399.5t-399 -160.5z" />
    <glyph glyph-name="ubreve" unicode="&#x16d;" horiz-adv-x="1236" 
d="M618 1192q-95 0 -160 64t-65 159h43q0 -78 52.5 -131t129.5 -53q78 0 130.5 53t52.5 131h45q0 -95 -65.5 -159t-162.5 -64zM618 -25q-203 0 -326.5 119.5t-123.5 315.5v634h49v-628q0 -177 109.5 -284t291.5 -107t292 107t110 284v628h49v-634q0 -196 -124 -315.5
t-327 -119.5z" />
    <glyph glyph-name="Uring" unicode="&#x16e;" horiz-adv-x="1437" 
d="M719 1548q-56 0 -94.5 38t-38.5 95t38.5 95.5t94.5 38.5q57 0 96 -38.5t39 -95.5t-39 -95t-96 -38zM719 1583q41 0 68.5 28.5t27.5 69.5q0 43 -27.5 71t-68.5 28q-40 0 -67 -28t-27 -71q0 -41 27 -69.5t67 -28.5zM719 -25q-156 0 -284.5 73t-201.5 201.5t-73 285.5v878
h53v-878q0 -143 66 -259t182 -182.5t258 -66.5q218 0 363 145.5t145 362.5v878h51v-878q0 -239 -160 -399.5t-399 -160.5z" />
    <glyph glyph-name="uring" unicode="&#x16f;" horiz-adv-x="1236" 
d="M618 1180q-56 0 -94.5 38t-38.5 95t38.5 95t94.5 38q57 0 96.5 -38t39.5 -95t-39.5 -95t-96.5 -38zM618 1214q41 0 69 29t28 70q0 43 -27.5 70.5t-69.5 27.5q-40 0 -67 -28t-27 -70q0 -41 27 -70t67 -29zM618 -25q-203 0 -326.5 119.5t-123.5 315.5v634h49v-628
q0 -177 109.5 -284t291.5 -107t292 107t110 284v628h49v-634q0 -196 -124 -315.5t-327 -119.5z" />
    <glyph glyph-name="Uhungarumlaut" unicode="&#x170;" horiz-adv-x="1437" 
d="M520 1581l162 227h63l-174 -227h-51zM858 1581l160 227h65l-176 -227h-49zM719 -25q-156 0 -284.5 73t-201.5 201.5t-73 285.5v878h53v-878q0 -143 66 -259t182 -182.5t258 -66.5q218 0 363 145.5t145 362.5v878h51v-878q0 -239 -160 -399.5t-399 -160.5z" />
    <glyph glyph-name="uhungarumlaut" unicode="&#x171;" horiz-adv-x="1236" 
d="M420 1212l162 228h63l-174 -228h-51zM758 1212l160 228h65l-176 -228h-49zM618 -25q-203 0 -326.5 119.5t-123.5 315.5v634h49v-628q0 -177 109.5 -284t291.5 -107t292 107t110 284v628h49v-634q0 -196 -124 -315.5t-327 -119.5z" />
    <glyph glyph-name="Uogonek" unicode="&#x172;" horiz-adv-x="1437" 
d="M1227 1413h51v-878q0 -193 -108.5 -339.5t-284.5 -197.5q-95 -44 -152 -106.5t-57 -129.5q0 -57 36.5 -94t90.5 -37q60 0 110 35l19 -35q-64 -41 -133 -41q-70 0 -119 48.5t-49 117.5q0 66 44 123.5t120 100.5q-63 -5 -76 -5q-156 0 -284.5 73t-201.5 201.5t-73 285.5
v878h53v-878q0 -143 66 -259t182 -182.5t258 -66.5q218 0 363 145.5t145 362.5v878z" />
    <glyph glyph-name="uogonek" unicode="&#x173;" horiz-adv-x="1236" 
d="M1020 1044h49v-634q0 -157 -81 -266.5t-222 -149.5q-92 -44 -146.5 -105t-54.5 -127q0 -57 36.5 -94t90.5 -37q61 0 111 35l18 -35q-64 -41 -133 -41q-70 0 -119 48.5t-49 117.5q0 65 43.5 123t118.5 101q-50 -5 -64 -5q-203 0 -326.5 119.5t-123.5 315.5v634h49v-628
q0 -177 109.5 -284t291.5 -107t292 107t110 284v628z" />
    <glyph glyph-name="Wcircumflex" unicode="&#x174;" horiz-adv-x="2119" 
d="M1061 1776l-191 -195h-51l209 227h66l206 -227h-51zM1980 1413h56l-467 -1413h-58l-452 1343l-451 -1343h-59l-465 1413h57l439 -1354l452 1354h55l453 -1354z" />
    <glyph glyph-name="wcircumflex" unicode="&#x175;" horiz-adv-x="1806" 
d="M903 1407l-190 -195h-51l208 228h66l207 -228h-51zM1690 1044h53l-400 -1044h-57l-383 987l-383 -987h-57l-400 1044h56l375 -991l383 991h55l381 -989z" />
    <glyph glyph-name="Ycircumflex" unicode="&#x176;" horiz-adv-x="1378" 
d="M690 1776l-190 -195h-51l208 227h66l207 -227h-51zM1272 1413h59l-616 -852v-561h-51v561l-617 852h64l579 -801z" />
    <glyph glyph-name="ycircumflex" unicode="&#x177;" horiz-adv-x="1161" 
d="M582 1407l-191 -195h-51l209 228h65l207 -228h-51zM1049 1044h55l-629 -1318q-33 -69 -84.5 -104.5t-111.5 -35.5q-52 0 -105 26t-88 69l31 32q27 -36 68.5 -57t86.5 -21q100 0 156 111l125 250l-496 1048h58l467 -991z" />
    <glyph glyph-name="Ydieresis" unicode="&#x178;" horiz-adv-x="1378" 
d="M492 1610q-22 0 -37 14.5t-15 36.5q0 20 15 34.5t37 14.5q20 0 34.5 -14.5t14.5 -34.5q0 -22 -14.5 -36.5t-34.5 -14.5zM889 1610q-22 0 -36.5 14.5t-14.5 36.5q0 20 14.5 34.5t36.5 14.5q20 0 34.5 -14.5t14.5 -34.5q0 -22 -14.5 -36.5t-34.5 -14.5zM1272 1413h59
l-616 -852v-561h-51v561l-617 852h64l579 -801z" />
    <glyph glyph-name="Zacute" unicode="&#x179;" horiz-adv-x="1257" 
d="M877 1808l-236 -227h-57l219 227h74zM170 49h987v-49h-1057v39l973 1325h-964v49h1034v-39z" />
    <glyph glyph-name="zacute" unicode="&#x17a;" horiz-adv-x="1030" 
d="M766 1440l-236 -228h-57l219 228h74zM180 47h742v-47h-813v35l729 962h-721v47h790v-34z" />
    <glyph glyph-name="Zdotaccent" unicode="&#x17b;" horiz-adv-x="1257" 
d="M627 1610q-22 0 -37 14.5t-15 36.5t15 36.5t37 14.5t36.5 -14.5t14.5 -36.5t-14.5 -36.5t-36.5 -14.5zM170 49h987v-49h-1057v39l973 1325h-964v49h1034v-39z" />
    <glyph glyph-name="zdotaccent" unicode="&#x17c;" horiz-adv-x="1030" 
d="M516 1241q-22 0 -36.5 14.5t-14.5 36.5t14.5 36.5t36.5 14.5t36.5 -14.5t14.5 -36.5t-14.5 -36.5t-36.5 -14.5zM180 47h742v-47h-813v35l729 962h-721v47h790v-34z" />
    <glyph glyph-name="Zcaron" unicode="&#x17d;" horiz-adv-x="1257" 
d="M659 1581h-65l-209 227h51l191 -196l188 196h51zM170 49h987v-49h-1057v39l973 1325h-964v49h1034v-39z" />
    <glyph glyph-name="zcaron" unicode="&#x17e;" horiz-adv-x="1030" 
d="M549 1212h-66l-209 228h52l190 -197l189 197h51zM180 47h742v-47h-813v35l729 962h-721v47h790v-34z" />
    <glyph glyph-name="florin" unicode="&#x192;" horiz-adv-x="970" 
d="M911 1362q-162 0 -236 -61.5t-102 -213.5l-61 -352h279v-49h-287l-131 -760q-30 -172 -117 -243.5t-274 -71.5v51q161 0 235 61.5t100 213.5l132 749h-267v49h275l63 363q30 172 117 243.5t274 71.5v-51z" />
    <glyph glyph-name="uni01C4" unicode="&#x1c4;" horiz-adv-x="2740" 
d="M2142 1581h-65l-209 227h51l190 -198l191 198h51zM731 1413q200 0 362.5 -92t254.5 -253.5t92 -360.5q0 -149 -54 -280t-148 -225t-225.5 -148t-281.5 -54h-532v1413h532zM1653 49h987v-49h-1057v39l973 1325h-965v49h1035v-39zM731 49q138 0 259 50.5t207.5 137.5
t136.5 209t50 261q0 185 -85 335.5t-234.5 236t-333.5 85.5h-479v-1315h479z" />
    <glyph glyph-name="uni01C5" unicode="&#x1c5;" horiz-adv-x="2584" 
d="M2103 1212h-65l-209 228h51l191 -197l188 197h51zM731 1413q200 0 362.5 -92t254.5 -253.5t92 -360.5q0 -149 -54 -280t-148 -225t-225.5 -148t-281.5 -54h-532v1413h532zM731 49q138 0 259 50.5t207.5 137.5t136.5 209t50 261q0 185 -85 335.5t-234.5 236t-333.5 85.5
h-479v-1315h479zM1735 47h741v-47h-813v35l729 962h-721v47h791v-34z" />
    <glyph glyph-name="uni01C6" unicode="&#x1c6;" horiz-adv-x="2412" 
d="M1153 723v752h49v-1475h-49v322q-58 -157 -192.5 -252t-309.5 -95q-153 0 -277.5 71.5t-194.5 196.5t-70 279t70 279t194.5 196.5t277.5 71.5q175 0 309.5 -94.5t192.5 -251.5zM1931 1212h-65l-209 228h51l190 -197l189 197h51zM1563 47h741v-47h-813v35l729 962h-721v47
h791v-34zM657 25q140 0 253.5 64.5t178 178.5t64.5 254q0 214 -142 356t-354 142q-214 0 -355.5 -142t-141.5 -356t141.5 -355.5t355.5 -141.5z" />
    <glyph glyph-name="uni01C7" unicode="&#x1c7;" horiz-adv-x="1968" 
d="M252 1413v-1364h788v-49h-841v1413h53zM1755 1413h53v-1057q0 -165 -107 -273t-276 -108q-129 0 -258 70v57q124 -75 256 -75q151 0 241.5 92.5t90.5 238.5v1055z" />
    <glyph glyph-name="uni01C8" unicode="&#x1c8;" horiz-adv-x="1544" 
d="M1339 1430q21 0 35.5 -14.5t14.5 -35.5q0 -20 -14 -33.5t-36 -13.5q-20 0 -33.5 13.5t-13.5 33.5q0 21 13.5 35.5t33.5 14.5zM1040 49v-49h-841v1413h53v-1364h788zM1315 -180v1224h49v-1230q0 -115 -58.5 -171.5t-158.5 -56.5q-61 0 -117 27v47q49 -27 109 -27
q176 0 176 187z" />
    <glyph glyph-name="uni01C9" unicode="&#x1c9;" horiz-adv-x="829" 
d="M180 0v1475h49v-1475h-49zM625 1333q-20 0 -33.5 13.5t-13.5 33.5q0 21 13.5 35.5t33.5 14.5q21 0 35 -14.5t14 -35.5q0 -20 -13.5 -33.5t-35.5 -13.5zM432 -414q-61 0 -117 27v47q49 -27 109 -27q176 0 176 187v1224h49v-1230q0 -115 -58.5 -171.5t-158.5 -56.5z" />
    <glyph glyph-name="uni01CA" unicode="&#x1ca;" horiz-adv-x="2398" 
d="M1280 76v1337h53v-1413h-63l-1018 1341v-1341h-53v1413h65zM2185 1413h53v-1057q0 -165 -107 -273t-276 -108q-129 0 -258 70v57q124 -75 256 -75q151 0 241.5 92.5t90.5 238.5v1055z" />
    <glyph glyph-name="uni01CB" unicode="&#x1cb;" horiz-adv-x="1953" 
d="M1749 1430q21 0 35 -14.5t14 -35.5q0 -20 -13.5 -33.5t-35.5 -13.5q-20 0 -33.5 13.5t-13.5 33.5q0 21 13.5 35.5t33.5 14.5zM1280 76v1337h53v-1413h-63l-1018 1341v-1341h-53v1413h65zM1724 -180v1224h50v-1230q0 -115 -59 -171.5t-159 -56.5q-60 0 -116 27v47
q49 -27 108 -27q176 0 176 187z" />
    <glyph glyph-name="uni01CC" unicode="&#x1cc;" horiz-adv-x="1710" 
d="M1505 1430q21 0 35 -14.5t14 -35.5q0 -20 -13.5 -33.5t-35.5 -13.5q-20 0 -33.5 13.5t-13.5 33.5q0 21 13.5 35.5t33.5 14.5zM668 1069q203 0 327.5 -123.5t124.5 -327.5v-618h-49v608q0 187 -113 299.5t-301 112.5q-194 0 -311 -113.5t-117 -302.5v-604h-49v1044h49
v-247q51 129 165.5 200.5t273.5 71.5zM1481 -180v1224h49v-1230q0 -115 -58.5 -171.5t-158.5 -56.5q-61 0 -117 27v47q49 -27 109 -27q176 0 176 187z" />
    <glyph glyph-name="uni01CD" unicode="&#x1cd;" horiz-adv-x="1447" 
d="M758 1581h-66l-209 227h52l190 -196l188 196h52zM1317 0l-193 440h-802l-193 -440h-57l618 1413h68l618 -1413h-59zM344 489h758l-379 867z" />
    <glyph glyph-name="uni01CE" unicode="&#x1ce;" 
d="M725 1212h-66l-208 228h51l190 -197l189 197h51zM1153 1044h49v-1044h-49v322q-58 -157 -192.5 -252t-309.5 -95q-153 0 -277.5 71.5t-194.5 196.5t-70 279t70 279t194.5 196.5t277.5 71.5q175 0 309.5 -94.5t192.5 -251.5v321zM657 25q140 0 253.5 64.5t178 178.5
t64.5 254q0 214 -142 356t-354 142q-214 0 -355.5 -142t-141.5 -356t141.5 -355.5t355.5 -141.5z" />
    <glyph glyph-name="Gcaron" unicode="&#x1e6;" horiz-adv-x="1662" 
d="M881 1581h-66l-209 227h51l191 -196l188 196h51zM924 694h635v-16q0 -149 -54.5 -279.5t-148.5 -223.5t-226.5 -146.5t-283.5 -53.5q-205 0 -372.5 95.5t-263 263.5t-95.5 373t95.5 372.5t263.5 263t374 95.5q191 0 350.5 -84.5t257.5 -231.5l-41 -30q-91 137 -239 215.5
t-328 78.5q-142 0 -268 -52t-216 -142t-142 -216t-52 -269t52 -269t142 -216.5t216 -142.5t268 -52q180 0 328 79t235 221t92 318h-579v49z" />
    <glyph glyph-name="gcaron" unicode="&#x1e7;" horiz-adv-x="1144" 
d="M629 1212h-66l-209 228h52l190 -197l188 197h52zM831 -68q137 0 223 -65.5t89 -173.5l-53 -6q0 89 -72.5 142.5t-190.5 53.5h-444q-110 0 -179 57.5t-69 149.5q0 61 32 116.5t85 84.5q-70 61 -109 146.5t-39 185.5q0 191 130.5 318.5t326.5 127.5q171 0 295 -100
q3 82 56.5 132t138.5 50h73v-47h-69q-71 0 -114.5 -42.5t-43.5 -111.5v-18q123 -126 123 -309q0 -189 -132 -317t-327 -128q-157 0 -274 84q-47 -21 -74 -65.5t-27 -96.5q0 -75 55 -121.5t146 -46.5h444zM156 623q0 -169 116 -283.5t289 -114.5t289.5 114.5t116.5 283.5
t-116.5 284t-289.5 115q-174 0 -289.5 -114.5t-115.5 -284.5z" />
    <glyph glyph-name="uni01EA" unicode="&#x1ea;" horiz-adv-x="1693" 
d="M1040 0q-95 -44 -153 -107.5t-58 -130.5q0 -57 36.5 -94t90.5 -37q61 0 111 35l18 -35q-64 -41 -133 -41q-70 0 -119 48.5t-49 117.5q0 67 45 125t123 101q-61 -7 -104 -7q-154 0 -290.5 56.5t-233.5 153.5t-153 232.5t-56 289.5q0 205 95.5 372.5t263.5 263t374 95.5
q205 0 372.5 -95.5t263 -263t95.5 -372.5q0 -259 -149.5 -452.5t-389.5 -254.5zM170 707q0 -143 52 -269t141.5 -216.5t215.5 -142.5t269 -52q142 0 267.5 52t215 142.5t141.5 216.5t52 269t-52 269t-141.5 216t-215 142t-267.5 52q-143 0 -269 -52t-215.5 -142t-141.5 -216
t-52 -269z" />
    <glyph glyph-name="uni01EB" unicode="&#x1eb;" horiz-adv-x="1312" 
d="M817 -2q-94 -44 -150.5 -106.5t-56.5 -129.5q0 -57 36.5 -94t90.5 -37q61 0 111 35l18 -35q-64 -41 -133 -41q-70 0 -119 48.5t-49 117.5q0 66 44 123.5t120 100.5q-63 -5 -72 -5q-154 0 -280 71.5t-197 197t-71 278.5t71 278.5t197 197t280 71.5q233 0 390 -157
t157 -390q0 -190 -106.5 -332t-280.5 -192zM160 522q0 -214 141.5 -355.5t355.5 -141.5q140 0 253.5 64.5t178 178.5t64.5 254q0 214 -142 356t-354 142q-214 0 -355.5 -142t-141.5 -356z" />
    <glyph glyph-name="uni01F1" unicode="&#x1f1;" horiz-adv-x="2740" 
d="M731 1413q200 0 362.5 -92t254.5 -253.5t92 -360.5q0 -149 -54 -280t-148 -225t-225.5 -148t-281.5 -54h-532v1413h532zM1653 49h987v-49h-1057v39l973 1325h-965v49h1035v-39zM731 49q138 0 259 50.5t207.5 137.5t136.5 209t50 261q0 185 -85 335.5t-234.5 236
t-333.5 85.5h-479v-1315h479z" />
    <glyph glyph-name="uni01F2" unicode="&#x1f2;" horiz-adv-x="2584" 
d="M731 1413q200 0 362.5 -92t254.5 -253.5t92 -360.5q0 -149 -54 -280t-148 -225t-225.5 -148t-281.5 -54h-532v1413h532zM731 49q138 0 259 50.5t207.5 137.5t136.5 209t50 261q0 185 -85 335.5t-234.5 236t-333.5 85.5h-479v-1315h479zM1735 47h741v-47h-813v35l729 962
h-721v47h791v-34z" />
    <glyph glyph-name="uni01F3" unicode="&#x1f3;" horiz-adv-x="2412" 
d="M1153 723v752h49v-1475h-49v322q-58 -157 -192.5 -252t-309.5 -95q-153 0 -277.5 71.5t-194.5 196.5t-70 279t70 279t194.5 196.5t277.5 71.5q175 0 309.5 -94.5t192.5 -251.5zM1563 47h741v-47h-813v35l729 962h-721v47h791v-34zM657 25q140 0 253.5 64.5t178 178.5
t64.5 254q0 214 -142 356t-354 142q-214 0 -355.5 -142t-141.5 -356t141.5 -355.5t355.5 -141.5z" />
    <glyph glyph-name="uni01F4" unicode="&#x1f4;" horiz-adv-x="1662" 
d="M1096 1808l-236 -227h-57l219 227h74zM924 694h635v-16q0 -149 -54.5 -279.5t-148.5 -223.5t-226.5 -146.5t-283.5 -53.5q-205 0 -372.5 95.5t-263 263.5t-95.5 373t95.5 372.5t263.5 263t374 95.5q191 0 350.5 -84.5t257.5 -231.5l-41 -30q-91 137 -239 215.5t-328 78.5
q-142 0 -268 -52t-216 -142t-142 -216t-52 -269t52 -269t142 -216.5t216 -142.5t268 -52q180 0 328 79t235 221t92 318h-579v49z" />
    <glyph glyph-name="uni01F5" unicode="&#x1f5;" horiz-adv-x="1144" 
d="M846 1440l-236 -228h-57l219 228h74zM831 -68q137 0 223 -65.5t89 -173.5l-53 -6q0 89 -72.5 142.5t-190.5 53.5h-444q-110 0 -179 57.5t-69 149.5q0 61 32 116.5t85 84.5q-70 61 -109 146.5t-39 185.5q0 191 130.5 318.5t326.5 127.5q171 0 295 -100q3 82 56.5 132
t138.5 50h73v-47h-69q-71 0 -114.5 -42.5t-43.5 -111.5v-18q123 -126 123 -309q0 -189 -132 -317t-327 -128q-157 0 -274 84q-47 -21 -74 -65.5t-27 -96.5q0 -75 55 -121.5t146 -46.5h444zM156 623q0 -169 116 -283.5t289 -114.5t289.5 114.5t116.5 283.5t-116.5 284
t-289.5 115q-174 0 -289.5 -114.5t-115.5 -284.5z" />
    <glyph glyph-name="AEacute" unicode="&#x1fc;" horiz-adv-x="1843" 
d="M1251 1808l-235 -227h-58l220 227h73zM954 49h770v-49h-821v440h-588l-282 -440h-64l908 1413h837v-49h-760v-629h691v-49h-691v-637zM346 489h557v869z" />
    <glyph glyph-name="aeacute" unicode="&#x1fd;" horiz-adv-x="2105" 
d="M1268 1440l-236 -228h-57l219 228h74zM2003 522v-20h-1028q8 -206 151.5 -342.5t356.5 -136.5q141 0 257 63t181 172l39 -29q-73 -118 -198.5 -186t-278.5 -68q-162 0 -293 77.5t-199 209.5q-71 -124 -220.5 -205.5t-311.5 -81.5q-161 0 -266 83.5t-105 209.5
q0 120 93 199.5t233 79.5h514v135q0 154 -106 247t-279 93q-125 0 -217.5 -48.5t-135.5 -133.5l-34 26q50 95 151.5 149t237.5 54q176 0 291 -88t135 -238q61 148 193 237t300 89q230 0 384.5 -157t154.5 -390zM1464 1022q-203 0 -341.5 -135t-147.5 -340h977
q-3 203 -144 339t-344 136zM463 23q151 0 296 79t212 199q-40 98 -43 201h-512q-119 0 -198 -66t-79 -166q0 -106 92 -176.5t232 -70.5z" />
    <glyph glyph-name="Oslashacute" unicode="&#x1fe;" horiz-adv-x="1693" 
d="M1104 1808l-236 -227h-57l219 227h74zM1356 1241q106 -100 164.5 -237.5t58.5 -296.5q0 -205 -95.5 -373t-263 -263.5t-372.5 -95.5q-276 0 -477 168l-129 -143h-60l156 172q-106 102 -164.5 239t-58.5 296q0 205 95.5 372.5t263.5 263t374 95.5q277 0 475 -168l129 143
h59zM170 707q0 -147 53 -274.5t150 -219.5l915 1018q-185 155 -440 155q-143 0 -269 -52t-215.5 -142t-141.5 -216t-52 -269zM848 27q142 0 267.5 52t215 142.5t141.5 216.5t52 269q0 147 -53 274t-150 219l-915 -1018q185 -155 442 -155z" />
    <glyph glyph-name="oslashacute" unicode="&#x1ff;" horiz-adv-x="1312" 
d="M907 1440l-235 -228h-58l220 228h73zM1040 920q78 -75 121 -177.5t43 -220.5q0 -233 -157 -390t-390 -157q-209 0 -356 125l-90 -100h-51l112 125q-163 157 -163 397q0 153 71 278.5t197 197t280 71.5q207 0 355 -123l88 98h53zM160 522q0 -215 145 -360l672 747
q-133 111 -320 111q-214 0 -355.5 -142t-141.5 -356zM657 25q140 0 253.5 64.5t178 178.5t64.5 254q0 216 -145 361l-674 -746q134 -112 323 -112z" />
    <glyph glyph-name="uni0200" unicode="&#x200;" horiz-adv-x="1447" 
d="M584 1581h-49l-177 227h64zM922 1581h-52l-174 227h64zM1317 0l-193 440h-802l-193 -440h-57l618 1413h68l618 -1413h-59zM344 489h758l-379 867z" />
    <glyph glyph-name="uni0201" unicode="&#x201;" 
d="M551 1212h-49l-176 228h63zM889 1212h-51l-174 228h63zM1153 1044h49v-1044h-49v322q-58 -157 -192.5 -252t-309.5 -95q-153 0 -277.5 71.5t-194.5 196.5t-70 279t70 279t194.5 196.5t277.5 71.5q175 0 309.5 -94.5t192.5 -251.5v321zM657 25q140 0 253.5 64.5t178 178.5
t64.5 254q0 214 -142 356t-354 142q-214 0 -355.5 -142t-141.5 -356t141.5 -355.5t355.5 -141.5z" />
    <glyph glyph-name="uni0202" unicode="&#x202;" horiz-adv-x="1447" 
d="M723 1745q-77 0 -129.5 -52.5t-52.5 -131.5h-43q0 95 65 160t160 65q97 0 162 -65t65 -160h-45q0 79 -52 131.5t-130 52.5zM1317 0l-193 440h-802l-193 -440h-57l618 1413h68l618 -1413h-59zM344 489h758l-379 867z" />
    <glyph glyph-name="uni0203" unicode="&#x203;" 
d="M690 1376q-77 0 -129.5 -52.5t-52.5 -131.5h-43q0 95 65 160t160 65q97 0 162.5 -65t65.5 -160h-46q0 79 -52 131.5t-130 52.5zM1153 1044h49v-1044h-49v322q-58 -157 -192.5 -252t-309.5 -95q-153 0 -277.5 71.5t-194.5 196.5t-70 279t70 279t194.5 196.5t277.5 71.5
q175 0 309.5 -94.5t192.5 -251.5v321zM657 25q140 0 253.5 64.5t178 178.5t64.5 254q0 214 -142 356t-354 142q-214 0 -355.5 -142t-141.5 -356t141.5 -355.5t355.5 -141.5z" />
    <glyph glyph-name="uni0204" unicode="&#x204;" horiz-adv-x="1220" 
d="M514 1581h-49l-176 227h63zM852 1581h-51l-174 227h63zM252 49h850v-49h-903v1413h893v-49h-840v-629h770v-49h-770v-637z" />
    <glyph glyph-name="uni0205" unicode="&#x205;" horiz-adv-x="1290" 
d="M516 1212h-49l-176 228h63zM854 1212h-51l-174 228h63zM1188 522v-20h-1028q8 -206 151.5 -342.5t356.5 -136.5q141 0 258 63.5t182 171.5l39 -29q-74 -119 -200 -186.5t-279 -67.5q-239 0 -399 157t-160 390q0 234 154.5 390.5t385.5 156.5q230 0 384.5 -157t154.5 -390
zM647 1022q-202 0 -340 -135t-147 -340h977q-9 205 -148 340t-342 135z" />
    <glyph glyph-name="uni0206" unicode="&#x206;" horiz-adv-x="1220" 
d="M653 1745q-77 0 -129.5 -52.5t-52.5 -131.5h-43q0 95 65 160t160 65q97 0 162.5 -65t65.5 -160h-45q0 79 -52.5 131.5t-130.5 52.5zM252 49h850v-49h-903v1413h893v-49h-840v-629h770v-49h-770v-637z" />
    <glyph glyph-name="uni0207" unicode="&#x207;" horiz-adv-x="1290" 
d="M655 1376q-77 0 -129.5 -52.5t-52.5 -131.5h-43q0 95 65 160t160 65q97 0 162.5 -65t65.5 -160h-45q0 79 -52.5 131.5t-130.5 52.5zM1188 522v-20h-1028q8 -206 151.5 -342.5t356.5 -136.5q141 0 258 63.5t182 171.5l39 -29q-74 -119 -200 -186.5t-279 -67.5
q-239 0 -399 157t-160 390q0 234 154.5 390.5t385.5 156.5q230 0 384.5 -157t154.5 -390zM647 1022q-202 0 -340 -135t-147 -340h977q-9 205 -148 340t-342 135z" />
    <glyph glyph-name="uni0208" unicode="&#x208;" horiz-adv-x="450" 
d="M37 1581l-176 227h63l162 -227h-49zM373 1581l-174 227h63l162 -227h-51zM199 0v1413h53v-1413h-53z" />
    <glyph glyph-name="uni0209" unicode="&#x209;" horiz-adv-x="407" 
d="M14 1212l-176 228h64l161 -228h-49zM350 1212l-174 228h64l161 -228h-51zM180 0v1044h49v-1044h-49z" />
    <glyph glyph-name="uni020A" unicode="&#x20a;" horiz-adv-x="450" 
d="M0 1561q0 95 65 160t160 65q97 0 162.5 -65t65.5 -160h-45q0 79 -52.5 131.5t-130.5 52.5q-77 0 -129.5 -52.5t-52.5 -131.5h-43zM199 0v1413h53v-1413h-53z" />
    <glyph glyph-name="uni020B" unicode="&#x20b;" horiz-adv-x="407" 
d="M-23 1192q0 95 65.5 160t160.5 65q97 0 162 -65t65 -160h-45q0 79 -52 131.5t-130 52.5q-77 0 -130 -52.5t-53 -131.5h-43zM180 0v1044h49v-1044h-49z" />
    <glyph glyph-name="uni020C" unicode="&#x20c;" horiz-adv-x="1693" 
d="M657 1581l-176 227h64l162 -227h-50zM993 1581l-174 227h64l161 -227h-51zM848 -25q-154 0 -290.5 56.5t-233.5 153.5t-153 232.5t-56 289.5q0 205 95.5 372.5t263.5 263t374 95.5q205 0 372.5 -95.5t263 -263t95.5 -372.5t-95.5 -373t-263 -263.5t-372.5 -95.5zM848 27
q142 0 267.5 52t215 142.5t141.5 216.5t52 269t-52 269t-141.5 216t-215 142t-267.5 52q-143 0 -269 -52t-215.5 -142t-141.5 -216t-52 -269t52 -269t141.5 -216.5t215.5 -142.5t269 -52z" />
    <glyph glyph-name="uni020D" unicode="&#x20d;" horiz-adv-x="1312" 
d="M467 1212l-176 228h63l162 -228h-49zM803 1212l-174 228h63l162 -228h-51zM657 -25q-154 0 -280 71.5t-197 197t-71 278.5t71 278.5t197 197t280 71.5q233 0 390 -157t157 -390t-157 -390t-390 -157zM657 25q140 0 253.5 64.5t178 178.5t64.5 254q0 214 -142 356
t-354 142q-214 0 -355.5 -142t-141.5 -356t141.5 -355.5t355.5 -141.5z" />
    <glyph glyph-name="uni020E" unicode="&#x20e;" horiz-adv-x="1693" 
d="M621 1561q0 95 65 160t160 65q97 0 162 -65t65 -160h-45q0 79 -52 131.5t-130 52.5q-77 0 -129.5 -52.5t-52.5 -131.5h-43zM848 -25q-154 0 -290.5 56.5t-233.5 153.5t-153 232.5t-56 289.5q0 205 95.5 372.5t263.5 263t374 95.5q205 0 372.5 -95.5t263 -263t95.5 -372.5
t-95.5 -373t-263 -263.5t-372.5 -95.5zM848 27q142 0 267.5 52t215 142.5t141.5 216.5t52 269t-52 269t-141.5 216t-215 142t-267.5 52q-143 0 -269 -52t-215.5 -142t-141.5 -216t-52 -269t52 -269t141.5 -216.5t215.5 -142.5t269 -52z" />
    <glyph glyph-name="uni020F" unicode="&#x20f;" horiz-adv-x="1312" 
d="M430 1192q0 95 65 160t160 65q97 0 162.5 -65t65.5 -160h-45q0 79 -52.5 131.5t-130.5 52.5q-77 0 -129.5 -52.5t-52.5 -131.5h-43zM657 -25q-154 0 -280 71.5t-197 197t-71 278.5t71 278.5t197 197t280 71.5q233 0 390 -157t157 -390t-157 -390t-390 -157zM657 25
q140 0 253.5 64.5t178 178.5t64.5 254q0 214 -142 356t-354 142q-214 0 -355.5 -142t-141.5 -356t141.5 -355.5t355.5 -141.5z" />
    <glyph glyph-name="uni0210" unicode="&#x210;" horiz-adv-x="1232" 
d="M477 1581h-49l-176 227h63zM815 1581h-51l-174 227h63zM1071 0l-563 643h-256v-643h-53v1413h532q164 0 275.5 -110.5t111.5 -274.5t-111.5 -274.5t-275.5 -110.5h-156l566 -643h-70zM252 1364v-674h477q143 0 238.5 96t95.5 240q0 146 -95.5 242t-238.5 96h-477z" />
    <glyph glyph-name="uni0211" unicode="&#x211;" horiz-adv-x="741" 
d="M289 1212h-49l-177 228h64zM627 1212h-52l-174 228h64zM664 1061h24v-51h-24q-197 0 -316 -123t-119 -328v-559h-49v1044h49v-274q52 137 165.5 214t269.5 77z" />
    <glyph glyph-name="uni0212" unicode="&#x212;" horiz-adv-x="1232" 
d="M616 1745q-77 0 -129.5 -52.5t-52.5 -131.5h-43q0 95 65 160t160 65q97 0 162.5 -65t65.5 -160h-45q0 79 -52.5 131.5t-130.5 52.5zM1071 0l-563 643h-256v-643h-53v1413h532q164 0 275.5 -110.5t111.5 -274.5t-111.5 -274.5t-275.5 -110.5h-156l566 -643h-70zM252 1364
v-674h477q143 0 238.5 96t95.5 240q0 146 -95.5 242t-238.5 96h-477z" />
    <glyph glyph-name="uni0213" unicode="&#x213;" horiz-adv-x="741" 
d="M428 1376q-77 0 -129.5 -52.5t-52.5 -131.5h-43q0 95 65 160t160 65q97 0 162 -65t65 -160h-45q0 79 -52 131.5t-130 52.5zM664 1061h24v-51h-24q-197 0 -316 -123t-119 -328v-559h-49v1044h49v-274q52 137 165.5 214t269.5 77z" />
    <glyph glyph-name="uni0214" unicode="&#x214;" horiz-adv-x="1437" 
d="M530 1581l-176 227h64l162 -227h-50zM866 1581l-174 227h64l162 -227h-52zM719 -25q-156 0 -284.5 73t-201.5 201.5t-73 285.5v878h53v-878q0 -143 66 -259t182 -182.5t258 -66.5q218 0 363 145.5t145 362.5v878h51v-878q0 -239 -160 -399.5t-399 -160.5z" />
    <glyph glyph-name="uni0215" unicode="&#x215;" horiz-adv-x="1236" 
d="M430 1212l-176 228h63l162 -228h-49zM766 1212l-174 228h63l162 -228h-51zM618 -25q-203 0 -326.5 119.5t-123.5 315.5v634h49v-628q0 -177 109.5 -284t291.5 -107t292 107t110 284v628h49v-634q0 -196 -124 -315.5t-327 -119.5z" />
    <glyph glyph-name="uni0216" unicode="&#x216;" horiz-adv-x="1437" 
d="M494 1561q0 95 65 160t160 65q97 0 162 -65t65 -160h-45q0 79 -52 131.5t-130 52.5q-77 0 -129.5 -52.5t-52.5 -131.5h-43zM719 -25q-156 0 -284.5 73t-201.5 201.5t-73 285.5v878h53v-878q0 -143 66 -259t182 -182.5t258 -66.5q218 0 363 145.5t145 362.5v878h51v-878
q0 -239 -160 -399.5t-399 -160.5z" />
    <glyph glyph-name="uni0217" unicode="&#x217;" horiz-adv-x="1236" 
d="M393 1192q0 95 65 160t160 65q97 0 162.5 -65t65.5 -160h-45q0 79 -52.5 131.5t-130.5 52.5q-77 0 -129.5 -52.5t-52.5 -131.5h-43zM618 -25q-203 0 -326.5 119.5t-123.5 315.5v634h49v-628q0 -177 109.5 -284t291.5 -107t292 107t110 284v628h49v-634
q0 -196 -124 -315.5t-327 -119.5z" />
    <glyph glyph-name="uni0218" unicode="&#x218;" horiz-adv-x="1185" 
d="M610 -25q-151 0 -286 60t-222 164l33 37q76 -93 201.5 -152t273.5 -59q187 0 312 91t125 234q0 41 -12 78t-30 65t-48.5 53.5t-57 43t-66.5 34.5t-65.5 26t-66.5 19.5t-57 14l-48 10.5q-65 12 -123 29.5t-122 48.5t-110 70.5t-76 99.5t-30 131q0 162 132 263.5t331 101.5
q134 0 247 -49t181 -134l-31 -34q-54 72 -161 120t-236 48q-175 0 -291.5 -88.5t-116.5 -225.5q0 -248 420 -327q39 -7 75.5 -16t88 -26.5t94.5 -38t88 -52t75.5 -68t50.5 -87t20 -108.5q0 -164 -141.5 -270.5t-350.5 -106.5zM537 -432l53 268h57l-69 -268h-41z" />
    <glyph glyph-name="uni0219" unicode="&#x219;" horiz-adv-x="989" 
d="M498 -25q-125 0 -229 45t-171 125l31 35q60 -74 156 -115.5t211 -41.5q147 0 243.5 66.5t96.5 172.5q0 33 -10.5 60.5t-25 48t-42.5 39t-51 30t-63.5 25t-66.5 20.5t-73 19q-49 13 -78 21t-73 23.5t-70.5 29.5t-58 36t-48.5 47t-29 58.5t-12 73.5q0 128 105.5 202
t255.5 74q110 0 201 -39.5t153 -109.5l-31 -37q-53 65 -137 102t-184 37q-131 0 -220.5 -62.5t-89.5 -160.5q0 -34 10.5 -62.5t25.5 -49.5t43.5 -40t51.5 -31t64.5 -25.5t67 -20.5t73.5 -19q50 -13 77.5 -20t72 -22t69.5 -28.5t56.5 -35.5t48 -46.5t28 -58.5t11.5 -74
q0 -132 -110.5 -211.5t-278.5 -79.5zM432 -432l53 268h58l-70 -268h-41z" />
    <glyph glyph-name="uni021A" unicode="&#x21a;" horiz-adv-x="1218" 
d="M70 1413h1077v-49h-512v-1364h-53v1364h-512v49zM545 -432l53 268h57l-69 -268h-41z" />
    <glyph glyph-name="uni021B" unicode="&#x21b;" horiz-adv-x="808" 
d="M725 999h-358v-778q0 -106 51.5 -151t150.5 -45q85 0 156 38v-49q-73 -39 -162 -39q-246 0 -246 240v784h-223v45h223v304h50v-304h358v-45zM397 -432l54 268h57l-70 -268h-41z" />
    <glyph glyph-name="uni0232" unicode="&#x232;" horiz-adv-x="1378" 
d="M895 1669v-45h-410v45h410zM1272 1413h59l-616 -852v-561h-51v561l-617 852h64l579 -801z" />
    <glyph glyph-name="uni0233" unicode="&#x233;" horiz-adv-x="1161" 
d="M786 1300v-45h-409v45h409zM1049 1044h55l-629 -1318q-33 -69 -84.5 -104.5t-111.5 -35.5q-52 0 -105 26t-88 69l31 32q27 -36 68.5 -57t86.5 -21q100 0 156 111l125 250l-496 1048h58l467 -991z" />
    <glyph glyph-name="uni0237" unicode="&#x237;" horiz-adv-x="421" 
d="M25 -414q-61 0 -117 27v47q49 -27 108 -27q177 0 177 187v1224h49v-1230q0 -115 -58.5 -171.5t-158.5 -56.5z" />
    <glyph glyph-name="uni02BC" unicode="&#x2bc;" horiz-adv-x="98" 
d="M0 1124l43 351h55l-59 -351h-39z" />
    <glyph glyph-name="circumflex" unicode="&#x2c6;" horiz-adv-x="481" 
d="M481 1212h-51l-188 195l-191 -195h-51l209 228h65z" />
    <glyph glyph-name="caron" unicode="&#x2c7;" horiz-adv-x="481" 
d="M430 1440h51l-207 -228h-65l-209 228h51l191 -197z" />
    <glyph glyph-name="breve" unicode="&#x2d8;" horiz-adv-x="452" 
d="M225 1192q-95 0 -160 64t-65 159h43q0 -78 52.5 -131t129.5 -53q78 0 130.5 53t52.5 131h45q0 -95 -65.5 -159t-162.5 -64z" />
    <glyph glyph-name="dotaccent" unicode="&#x2d9;" horiz-adv-x="102" 
d="M51 1241q-22 0 -36.5 14.5t-14.5 36.5t14.5 36.5t36.5 14.5t36.5 -14.5t14.5 -36.5t-14.5 -36.5t-36.5 -14.5z" />
    <glyph glyph-name="ring" unicode="&#x2da;" horiz-adv-x="268" 
d="M133 1180q-56 0 -94.5 38t-38.5 95t38.5 95t94.5 38q57 0 96 -38t39 -95t-39 -95t-96 -38zM133 1214q41 0 68.5 28.5t27.5 70.5q0 43 -27.5 70.5t-68.5 27.5q-40 0 -67 -28t-27 -70q0 -41 27 -70t67 -29z" />
    <glyph glyph-name="ogonek" unicode="&#x2db;" horiz-adv-x="301" 
d="M168 -412q-70 0 -119 48.5t-49 117.5q0 77 60.5 143t160.5 109h37l4 -6q-98 -44 -157.5 -107.5t-59.5 -132.5q0 -57 36.5 -94t90.5 -37q61 0 111 35l18 -35q-64 -41 -133 -41z" />
    <glyph glyph-name="tilde" unicode="&#x2dc;" horiz-adv-x="636" 
d="M465 1227q-46 0 -86.5 23.5t-66 51t-62.5 51t-76 23.5q-56 0 -93.5 -38.5t-37.5 -96.5h-43q0 75 48.5 125.5t123.5 50.5q45 0 85 -23t65.5 -50.5t62.5 -50.5t76 -23q57 0 95 38.5t38 96.5h43q0 -75 -49.5 -126.5t-122.5 -51.5z" />
    <glyph glyph-name="hungarumlaut" unicode="&#x2dd;" horiz-adv-x="563" 
d="M0 1212l162 228h63l-174 -228h-51zM338 1212l160 228h65l-176 -228h-49z" />
    <glyph glyph-name="gravecomb" unicode="&#x300;" horiz-adv-x="0" 
d="M-57 1212l-236 228h74l219 -228h-57z" />
    <glyph glyph-name="acutecomb" unicode="&#x301;" horiz-adv-x="0" 
d="M-293 1212l219 228h74l-236 -228h-57z" />
    <glyph glyph-name="uni0302" unicode="&#x302;" horiz-adv-x="0" 
d="M0 1212h-51l-189 195l-190 -195h-51l209 228h65z" />
    <glyph glyph-name="tildecomb" unicode="&#x303;" horiz-adv-x="0" 
d="M-172 1227q-46 0 -86.5 23.5t-66 51t-62.5 51t-76 23.5q-56 0 -93.5 -38.5t-37.5 -96.5h-43q0 75 48.5 125.5t123.5 50.5q45 0 85 -23t65.5 -50.5t62 -50.5t76.5 -23q57 0 95 38.5t38 96.5h43q0 -75 -49.5 -126.5t-122.5 -51.5z" />
    <glyph glyph-name="uni0304" unicode="&#x304;" horiz-adv-x="0" 
d="M-410 1255v45h410v-45h-410z" />
    <glyph glyph-name="uni0306" unicode="&#x306;" horiz-adv-x="0" 
d="M-227 1192q-96 0 -161 64t-65 159h43q0 -78 53 -131t130 -53q78 0 130 53t52 131h45q0 -95 -65 -159t-162 -64z" />
    <glyph glyph-name="uni0307" unicode="&#x307;" horiz-adv-x="0" 
d="M-51 1241q-22 0 -36.5 14.5t-14.5 36.5t14.5 36.5t36.5 14.5t36.5 -14.5t14.5 -36.5t-14.5 -36.5t-36.5 -14.5z" />
    <glyph glyph-name="uni0308" unicode="&#x308;" horiz-adv-x="0" 
d="M-446 1241q-22 0 -37 14.5t-15 36.5q0 20 15 34.5t37 14.5q20 0 34.5 -14.5t14.5 -34.5q0 -22 -14.5 -36.5t-34.5 -14.5zM-49 1241q-22 0 -36.5 14.5t-14.5 36.5q0 20 14.5 34.5t36.5 14.5q20 0 34.5 -14.5t14.5 -34.5q0 -22 -14.5 -36.5t-34.5 -14.5z" />
    <glyph glyph-name="uni030A" unicode="&#x30a;" horiz-adv-x="0" 
d="M-135 1180q-56 0 -94.5 38t-38.5 95t38.5 95t94.5 38q57 0 96 -38t39 -95t-39 -95t-96 -38zM-135 1214q41 0 68.5 28.5t27.5 70.5q0 43 -27.5 70.5t-68.5 27.5q-40 0 -67 -28t-27 -70q0 -41 27 -70t67 -29z" />
    <glyph glyph-name="uni030B" unicode="&#x30b;" horiz-adv-x="0" 
d="M-563 1212l162 228h63l-174 -228h-51zM-225 1212l159 228h66l-176 -228h-49z" />
    <glyph glyph-name="uni030C" unicode="&#x30c;" horiz-adv-x="0" 
d="M-51 1440h51l-207 -228h-65l-209 228h51l190 -197z" />
    <glyph glyph-name="uni030F" unicode="&#x30f;" horiz-adv-x="0" 
d="M-387 1212l-176 228h63l162 -228h-49zM-51 1212l-174 228h63l162 -228h-51z" />
    <glyph glyph-name="uni0311" unicode="&#x311;" horiz-adv-x="0" 
d="M-453 1192q0 95 65.5 160t160.5 65q97 0 162 -65t65 -160h-45q0 79 -52 131.5t-130 52.5q-77 0 -130 -52.5t-53 -131.5h-43z" />
    <glyph glyph-name="uni0312" unicode="&#x312;" horiz-adv-x="0" 
d="M-111 1192l70 270h41l-53 -270h-58z" />
    <glyph glyph-name="dotbelowcomb" unicode="&#x323;" horiz-adv-x="0" 
d="M-51 -299q-22 0 -36.5 14.5t-14.5 36.5t14.5 36.5t36.5 14.5t36.5 -14.5t14.5 -36.5t-14.5 -36.5t-36.5 -14.5z" />
    <glyph glyph-name="uni0326" unicode="&#x326;" horiz-adv-x="0" 
d="M-111 -432l54 268h57l-70 -268h-41z" />
    <glyph glyph-name="uni0327" unicode="&#x327;" horiz-adv-x="0" 
d="M-158 -82q67 0 112.5 -47.5t45.5 -116.5q0 -71 -48 -118.5t-120 -47.5q-50 0 -91.5 27.5t-62.5 71.5l31 20q15 -37 48.5 -59.5t74.5 -22.5q54 0 91.5 37t37.5 92q0 54 -36.5 90.5t-90.5 36.5q-24 0 -47 -9t-35 -24l-35 17l99 135v4h43v-4l-72 -92q27 10 55 10z" />
    <glyph glyph-name="uni0328" unicode="&#x328;" horiz-adv-x="0" 
d="M-133 -412q-70 0 -119 48.5t-49 117.5q0 77 60.5 143t160.5 109h37l4 -6q-98 -44 -157.5 -107.5t-59.5 -132.5q0 -57 36.5 -94t90.5 -37q61 0 111 35l18 -35q-64 -41 -133 -41z" />
    <glyph glyph-name="uni0335" unicode="&#x335;" horiz-adv-x="0" 
d="M-549 541v41h549v-41h-549z" />
    <glyph glyph-name="uni0336" unicode="&#x336;" horiz-adv-x="0" 
d="M-1364 541v41h1364v-41h-1364z" />
    <glyph glyph-name="uni0337" unicode="&#x337;" horiz-adv-x="0" 
d="M-993 0l940 1044h53l-942 -1044h-51z" />
    <glyph glyph-name="uni0338" unicode="&#x338;" horiz-adv-x="0" 
d="M-1329 0l1270 1413h59l-1270 -1413h-59z" />
    <glyph glyph-name="uni03BC" unicode="&#x3bc;" horiz-adv-x="1277" 
d="M1051 1044h49v-1044h-49v246q-48 -127 -159.5 -199t-264.5 -72q-138 0 -242.5 62.5t-155.5 173.5v-600h-49v1433h49v-618q0 -183 109.5 -292t292.5 -109q190 0 305 110.5t115 294.5v614z" />
    <glyph glyph-name="uni1E0C" unicode="&#x1e0c;" horiz-adv-x="1554" 
d="M731 1413q200 0 362.5 -92t254.5 -253.5t92 -360.5q0 -149 -54 -280t-148 -225t-225.5 -148t-281.5 -54h-532v1413h532zM731 49q138 0 259 50.5t207.5 137.5t136.5 209t50 261q0 185 -85 335.5t-234.5 236t-333.5 85.5h-479v-1315h479zM760 -197q22 0 36.5 -14.5
t14.5 -36.5t-14.5 -36.5t-36.5 -14.5t-36.5 14.5t-14.5 36.5t14.5 36.5t36.5 14.5z" />
    <glyph glyph-name="uni1E0D" unicode="&#x1e0d;" 
d="M1153 1475h49v-1475h-49v322q-58 -157 -192.5 -252t-309.5 -95q-153 0 -277.5 71.5t-194.5 196.5t-70 279t70 279t194.5 196.5t277.5 71.5q175 0 309.5 -94.5t192.5 -251.5v752zM657 25q140 0 253.5 64.5t178 178.5t64.5 254q0 214 -142 356t-354 142q-214 0 -355.5 -142
t-141.5 -356t141.5 -355.5t355.5 -141.5zM690 -197q22 0 36.5 -14.5t14.5 -36.5t-14.5 -36.5t-36.5 -14.5t-36.5 14.5t-14.5 36.5t14.5 36.5t36.5 14.5z" />
    <glyph glyph-name="uni1E24" unicode="&#x1e24;" horiz-adv-x="1519" 
d="M1268 1413h53v-1413h-53v686h-1016v-686h-53v1413h53v-678h1016v678zM762 -197q22 0 36.5 -14.5t14.5 -36.5t-14.5 -36.5t-36.5 -14.5t-36.5 14.5t-14.5 36.5t14.5 36.5t36.5 14.5z" />
    <glyph glyph-name="uni1E25" unicode="&#x1e25;" horiz-adv-x="1288" 
d="M668 1069q203 0 327.5 -123.5t124.5 -327.5v-618h-49v608q0 187 -113 299.5t-301 112.5q-194 0 -311 -113.5t-117 -302.5v-604h-49v1475h49v-678q51 129 165.5 200.5t273.5 71.5zM649 -197q22 0 36.5 -14.5t14.5 -36.5t-14.5 -36.5t-36.5 -14.5t-36.5 14.5t-14.5 36.5
t14.5 36.5t36.5 14.5z" />
    <glyph glyph-name="uni1E44" unicode="&#x1e44;" horiz-adv-x="1531" 
d="M768 1610q-22 0 -36.5 14.5t-14.5 36.5t14.5 36.5t36.5 14.5t36.5 -14.5t14.5 -36.5t-14.5 -36.5t-36.5 -14.5zM1280 1413h53v-1413h-63l-1018 1341v-1341h-53v1413h65l1016 -1337v1337z" />
    <glyph glyph-name="uni1E45" unicode="&#x1e45;" horiz-adv-x="1288" 
d="M645 1241q-22 0 -36.5 14.5t-14.5 36.5t14.5 36.5t36.5 14.5t36.5 -14.5t14.5 -36.5t-14.5 -36.5t-36.5 -14.5zM668 1069q203 0 327.5 -123.5t124.5 -327.5v-618h-49v608q0 187 -113 299.5t-301 112.5q-194 0 -311 -113.5t-117 -302.5v-604h-49v1044h49v-247
q51 129 165.5 200.5t273.5 71.5z" />
    <glyph glyph-name="uni1E5A" unicode="&#x1e5a;" horiz-adv-x="1232" 
d="M575 643l566 -643h-70l-563 643h-256v-643h-53v1413h532q164 0 275.5 -110.5t111.5 -274.5t-111.5 -274.5t-275.5 -110.5h-156zM252 1364v-674h477q143 0 238.5 96t95.5 240q0 146 -95.5 242t-238.5 96h-477zM618 -197q22 0 37 -14.5t15 -36.5t-15 -36.5t-37 -14.5
t-36.5 14.5t-14.5 36.5t14.5 36.5t36.5 14.5z" />
    <glyph glyph-name="uni1E5B" unicode="&#x1e5b;" horiz-adv-x="741" 
d="M664 1061h24v-51h-24q-197 0 -316 -123t-119 -328v-559h-49v1044h49v-274q52 137 165.5 214t269.5 77zM205 -197q22 0 36.5 -14.5t14.5 -36.5t-14.5 -36.5t-36.5 -14.5t-36.5 14.5t-14.5 36.5t14.5 36.5t36.5 14.5z" />
    <glyph glyph-name="uni1E62" unicode="&#x1e62;" horiz-adv-x="1185" 
d="M610 -25q-151 0 -286 60t-222 164l33 37q76 -93 201.5 -152t273.5 -59q187 0 312 91t125 234q0 41 -12 78t-30 65t-48.5 53.5t-57 43t-66.5 34.5t-65.5 26t-66.5 19.5t-57 14l-48 10.5q-65 12 -123 29.5t-122 48.5t-110 70.5t-76 99.5t-30 131q0 162 132 263.5t331 101.5
q134 0 247 -49t181 -134l-31 -34q-54 72 -161 120t-236 48q-175 0 -291.5 -88.5t-116.5 -225.5q0 -248 420 -327q39 -7 75.5 -16t88 -26.5t94.5 -38t88 -52t75.5 -68t50.5 -87t20 -108.5q0 -164 -141.5 -270.5t-350.5 -106.5zM602 -299q-22 0 -36.5 14.5t-14.5 36.5
t14.5 36.5t36.5 14.5t36.5 -14.5t14.5 -36.5t-14.5 -36.5t-36.5 -14.5z" />
    <glyph glyph-name="uni1E63" unicode="&#x1e63;" horiz-adv-x="989" 
d="M498 -25q-125 0 -229 45t-171 125l31 35q60 -74 156 -115.5t211 -41.5q147 0 243.5 66.5t96.5 172.5q0 33 -10.5 60.5t-25 48t-42.5 39t-51 30t-63.5 25t-66.5 20.5t-73 19q-49 13 -78 21t-73 23.5t-70.5 29.5t-58 36t-48.5 47t-29 58.5t-12 73.5q0 128 105.5 202
t255.5 74q110 0 201 -39.5t153 -109.5l-31 -37q-53 65 -137 102t-184 37q-131 0 -220.5 -62.5t-89.5 -160.5q0 -34 10.5 -62.5t25.5 -49.5t43.5 -40t51.5 -31t64.5 -25.5t67 -20.5t73.5 -19q50 -13 77.5 -20t72 -22t69.5 -28.5t56.5 -35.5t48 -46.5t28 -58.5t11.5 -74
q0 -132 -110.5 -211.5t-278.5 -79.5zM498 -299q-22 0 -37 14.5t-15 36.5t15 36.5t37 14.5t36.5 -14.5t14.5 -36.5t-14.5 -36.5t-36.5 -14.5z" />
    <glyph glyph-name="uni1E6C" unicode="&#x1e6c;" horiz-adv-x="1218" 
d="M70 1413h1077v-49h-512v-1364h-53v1364h-512v49zM610 -197q22 0 37 -14.5t15 -36.5t-15 -36.5t-37 -14.5t-36.5 14.5t-14.5 36.5t14.5 36.5t36.5 14.5z" />
    <glyph glyph-name="uni1E6D" unicode="&#x1e6d;" horiz-adv-x="808" 
d="M725 999h-358v-778q0 -106 51.5 -151t150.5 -45q85 0 156 38v-49q-73 -39 -162 -39q-246 0 -246 240v784h-223v45h223v304h50v-304h358v-45zM463 -197q22 0 36.5 -14.5t14.5 -36.5t-14.5 -36.5t-36.5 -14.5t-36.5 14.5t-14.5 36.5t14.5 36.5t36.5 14.5z" />
    <glyph glyph-name="Wgrave" unicode="&#x1e80;" horiz-adv-x="2119" 
d="M1102 1581h-58l-235 227h74zM1980 1413h56l-467 -1413h-58l-452 1343l-451 -1343h-59l-465 1413h57l439 -1354l452 1354h55l453 -1354z" />
    <glyph glyph-name="wgrave" unicode="&#x1e81;" horiz-adv-x="1806" 
d="M946 1212h-57l-236 228h74zM1690 1044h53l-400 -1044h-57l-383 987l-383 -987h-57l-400 1044h56l375 -991l383 991h55l381 -989z" />
    <glyph glyph-name="Wacute" unicode="&#x1e82;" horiz-adv-x="2119" 
d="M1311 1808l-236 -227h-57l219 227h74zM1980 1413h56l-467 -1413h-58l-452 1343l-451 -1343h-59l-465 1413h57l439 -1354l452 1354h55l453 -1354z" />
    <glyph glyph-name="wacute" unicode="&#x1e83;" horiz-adv-x="1806" 
d="M1153 1440l-235 -228h-58l219 228h74zM1690 1044h53l-400 -1044h-57l-383 987l-383 -987h-57l-400 1044h56l375 -991l383 991h55l381 -989z" />
    <glyph glyph-name="Wdieresis" unicode="&#x1e84;" horiz-adv-x="2119" 
d="M862 1610q-22 0 -36.5 14.5t-14.5 36.5q0 20 14.5 34.5t36.5 14.5q20 0 34.5 -14.5t14.5 -34.5q0 -22 -14.5 -36.5t-34.5 -14.5zM1260 1610q-22 0 -37 14.5t-15 36.5q0 20 15 34.5t37 14.5q20 0 34.5 -14.5t14.5 -34.5q0 -22 -14.5 -36.5t-34.5 -14.5zM1980 1413h56
l-467 -1413h-58l-452 1343l-451 -1343h-59l-465 1413h57l439 -1354l452 1354h55l453 -1354z" />
    <glyph glyph-name="wdieresis" unicode="&#x1e85;" horiz-adv-x="1806" 
d="M705 1241q-22 0 -37 14.5t-15 36.5q0 20 15 34.5t37 14.5q20 0 34.5 -14.5t14.5 -34.5q0 -22 -14.5 -36.5t-34.5 -14.5zM1102 1241q-22 0 -36.5 14.5t-14.5 36.5q0 20 14.5 34.5t36.5 14.5q20 0 34.5 -14.5t14.5 -34.5q0 -22 -14.5 -36.5t-34.5 -14.5zM1690 1044h53
l-400 -1044h-57l-383 987l-383 -987h-57l-400 1044h56l375 -991l383 991h55l381 -989z" />
    <glyph glyph-name="uni1E92" unicode="&#x1e92;" horiz-adv-x="1257" 
d="M170 49h987v-49h-1057v39l973 1325h-964v49h1034v-39zM627 -197q22 0 36.5 -14.5t14.5 -36.5t-14.5 -36.5t-36.5 -14.5t-37 14.5t-15 36.5t15 36.5t37 14.5z" />
    <glyph glyph-name="uni1E93" unicode="&#x1e93;" horiz-adv-x="1030" 
d="M180 47h742v-47h-813v35l729 962h-721v47h790v-34zM516 -197q22 0 36.5 -14.5t14.5 -36.5t-14.5 -36.5t-36.5 -14.5t-36.5 14.5t-14.5 36.5t14.5 36.5t36.5 14.5z" />
    <glyph glyph-name="uni1E9E" unicode="&#x1e9e;" horiz-adv-x="1294" 
d="M784 846q186 0 311.5 -124t125.5 -310q0 -187 -125.5 -312t-311.5 -125q-65 0 -133.5 23t-113.5 59v62q37 -39 106.5 -65.5t136.5 -26.5q164 0 274.5 110.5t110.5 274.5t-109.5 274.5t-273.5 110.5h-131v39l375 528h-604q-76 0 -127 -51.5t-51 -128.5v-1184h-54v1186
q0 98 65.5 162.5t164.5 64.5h667v-43l-376 -524h73z" />
    <glyph glyph-name="uni1EA0" unicode="&#x1ea0;" horiz-adv-x="1447" 
d="M1376 0h-59l-193 440h-802l-193 -440h-57l618 1413h68zM344 489h758l-379 867zM723 -197q22 0 36.5 -14.5t14.5 -36.5t-14.5 -36.5t-36.5 -14.5t-36.5 14.5t-14.5 36.5t14.5 36.5t36.5 14.5z" />
    <glyph glyph-name="uni1EA1" unicode="&#x1ea1;" 
d="M1153 1044h49v-1044h-49v322q-58 -157 -192.5 -252t-309.5 -95q-153 0 -277.5 71.5t-194.5 196.5t-70 279t70 279t194.5 196.5t277.5 71.5q175 0 309.5 -94.5t192.5 -251.5v321zM657 25q140 0 253.5 64.5t178 178.5t64.5 254q0 214 -142 356t-354 142q-214 0 -355.5 -142
t-141.5 -356t141.5 -355.5t355.5 -141.5zM692 -197q22 0 36.5 -14.5t14.5 -36.5t-14.5 -36.5t-36.5 -14.5t-36.5 14.5t-14.5 36.5t14.5 36.5t36.5 14.5z" />
    <glyph glyph-name="uni1EB8" unicode="&#x1eb8;" horiz-adv-x="1220" 
d="M252 49h850v-49h-903v1413h893v-49h-840v-629h770v-49h-770v-637zM655 -197q22 0 37 -14.5t15 -36.5t-15 -36.5t-37 -14.5t-36.5 14.5t-14.5 36.5t14.5 36.5t36.5 14.5z" />
    <glyph glyph-name="uni1EB9" unicode="&#x1eb9;" horiz-adv-x="1290" 
d="M1188 522v-20h-1028q8 -206 151.5 -342.5t356.5 -136.5q141 0 258 63.5t182 171.5l39 -29q-74 -119 -200 -186.5t-279 -67.5q-239 0 -399 157t-160 390q0 234 154.5 390.5t385.5 156.5q230 0 384.5 -157t154.5 -390zM647 1022q-202 0 -340 -135t-147 -340h977
q-9 205 -148 340t-342 135zM657 -197q22 0 37 -14.5t15 -36.5t-15 -36.5t-37 -14.5t-36.5 14.5t-14.5 36.5t14.5 36.5t36.5 14.5z" />
    <glyph glyph-name="uni1EBC" unicode="&#x1ebc;" horiz-adv-x="1220" 
d="M510 1745q-56 0 -93.5 -38.5t-37.5 -96.5h-43q0 75 48.5 125.5t123.5 50.5q45 0 85 -23t65.5 -51t62.5 -51t76 -23q57 0 95 39t38 97h43q0 -75 -49.5 -127t-122.5 -52q-38 0 -71 15.5t-57 37.5t-47.5 44t-53 37.5t-62.5 15.5zM252 49h850v-49h-903v1413h893v-49h-840
v-629h770v-49h-770v-637z" />
    <glyph glyph-name="uni1EBD" unicode="&#x1ebd;" horiz-adv-x="1290" 
d="M512 1376q-56 0 -93.5 -38.5t-37.5 -96.5h-43q0 75 48.5 125.5t123.5 50.5q45 0 85 -23t65.5 -50.5t62.5 -50.5t76 -23q57 0 95 38.5t38 96.5h43q0 -75 -49.5 -126.5t-122.5 -51.5q-46 0 -86.5 23.5t-66 51t-62.5 51t-76 23.5zM1188 522v-20h-1028q8 -206 151.5 -342.5
t356.5 -136.5q141 0 258 63.5t182 171.5l39 -29q-74 -119 -200 -186.5t-279 -67.5q-239 0 -399 157t-160 390q0 234 154.5 390.5t385.5 156.5q230 0 384.5 -157t154.5 -390zM647 1022q-202 0 -340 -135t-147 -340h977q-9 205 -148 340t-342 135z" />
    <glyph glyph-name="uni1ECA" unicode="&#x1eca;" horiz-adv-x="450" 
d="M199 0v1413h53v-1413h-53zM227 -299q-22 0 -36.5 14.5t-14.5 36.5t14.5 36.5t36.5 14.5t37 -14.5t15 -36.5t-15 -36.5t-37 -14.5z" />
    <glyph glyph-name="uni1ECB" unicode="&#x1ecb;" horiz-adv-x="407" 
d="M205 1333q-22 0 -35.5 13.5t-13.5 33.5q0 21 14 35.5t35 14.5q20 0 33.5 -14.5t13.5 -35.5q0 -20 -13.5 -33.5t-33.5 -13.5zM180 0v1044h49v-1044h-49zM205 -299q-22 0 -36.5 14.5t-14.5 36.5t14.5 36.5t36.5 14.5t36.5 -14.5t14.5 -36.5t-14.5 -36.5t-36.5 -14.5z" />
    <glyph glyph-name="uni1ECC" unicode="&#x1ecc;" horiz-adv-x="1693" 
d="M848 -25q-154 0 -290.5 56.5t-233.5 153.5t-153 232.5t-56 289.5q0 205 95.5 372.5t263.5 263t374 95.5q205 0 372.5 -95.5t263 -263t95.5 -372.5t-95.5 -373t-263 -263.5t-372.5 -95.5zM848 27q142 0 267.5 52t215 142.5t141.5 216.5t52 269t-52 269t-141.5 216
t-215 142t-267.5 52q-143 0 -269 -52t-215.5 -142t-141.5 -216t-52 -269t52 -269t141.5 -216.5t215.5 -142.5t269 -52zM848 -299q-22 0 -36.5 14.5t-14.5 36.5t14.5 36.5t36.5 14.5t36.5 -14.5t14.5 -36.5t-14.5 -36.5t-36.5 -14.5z" />
    <glyph glyph-name="uni1ECD" unicode="&#x1ecd;" horiz-adv-x="1312" 
d="M657 -25q-154 0 -280 71.5t-197 197t-71 278.5t71 278.5t197 197t280 71.5q233 0 390 -157t157 -390t-157 -390t-390 -157zM657 25q140 0 253.5 64.5t178 178.5t64.5 254q0 214 -142 356t-354 142q-214 0 -355.5 -142t-141.5 -356t141.5 -355.5t355.5 -141.5zM657 -299
q-22 0 -36.5 14.5t-14.5 36.5t14.5 36.5t36.5 14.5t37 -14.5t15 -36.5t-15 -36.5t-37 -14.5z" />
    <glyph glyph-name="uni1EE4" unicode="&#x1ee4;" horiz-adv-x="1437" 
d="M719 -25q-156 0 -284.5 73t-201.5 201.5t-73 285.5v878h53v-878q0 -143 66 -259t182 -182.5t258 -66.5q218 0 363 145.5t145 362.5v878h51v-878q0 -239 -160 -399.5t-399 -160.5zM719 -299q-22 0 -36.5 14.5t-14.5 36.5t14.5 36.5t36.5 14.5t36.5 -14.5t14.5 -36.5
t-14.5 -36.5t-36.5 -14.5z" />
    <glyph glyph-name="uni1EE5" unicode="&#x1ee5;" horiz-adv-x="1236" 
d="M618 -25q-203 0 -326.5 119.5t-123.5 315.5v634h49v-628q0 -177 109.5 -284t291.5 -107t292 107t110 284v628h49v-634q0 -196 -124 -315.5t-327 -119.5zM618 -299q-22 0 -36.5 14.5t-14.5 36.5t14.5 36.5t36.5 14.5t37 -14.5t15 -36.5t-15 -36.5t-37 -14.5z" />
    <glyph glyph-name="Ygrave" unicode="&#x1ef2;" horiz-adv-x="1378" 
d="M733 1581h-57l-236 227h74zM1272 1413h59l-616 -852v-561h-51v561l-617 852h64l579 -801z" />
    <glyph glyph-name="ygrave" unicode="&#x1ef3;" horiz-adv-x="1161" 
d="M625 1212h-58l-235 228h74zM1049 1044h55l-629 -1318q-33 -69 -84.5 -104.5t-111.5 -35.5q-52 0 -105 26t-88 69l31 32q27 -36 68.5 -57t86.5 -21q100 0 156 111l125 250l-496 1048h58l467 -991z" />
    <glyph glyph-name="uni1EF8" unicode="&#x1ef8;" horiz-adv-x="1378" 
d="M547 1745q-56 0 -93.5 -38.5t-37.5 -96.5h-43q0 75 48.5 125.5t123.5 50.5q37 0 69.5 -15t57 -37t47.5 -44t52.5 -37t62.5 -15q57 0 95 39t38 97h43q0 -75 -49.5 -127t-122.5 -52q-38 0 -71 15.5t-57 37.5t-47.5 44t-53 37.5t-62.5 15.5zM1272 1413h59l-616 -852v-561
h-51v561l-617 852h64l579 -801z" />
    <glyph glyph-name="uni1EF9" unicode="&#x1ef9;" horiz-adv-x="1161" 
d="M438 1376q-56 0 -93.5 -38.5t-37.5 -96.5h-43q0 75 48.5 125.5t123.5 50.5q45 0 85 -23t65.5 -50.5t62.5 -50.5t76 -23q57 0 95 38.5t38 96.5h43q0 -75 -49.5 -126.5t-122.5 -51.5q-46 0 -86.5 23.5t-66 51t-62.5 51t-76 23.5zM1049 1044h55l-629 -1318
q-33 -69 -84.5 -104.5t-111.5 -35.5q-52 0 -105 26t-88 69l31 32q27 -36 68.5 -57t86.5 -21q100 0 156 111l125 250l-496 1048h58l467 -991z" />
    <glyph glyph-name="endash" unicode="&#x2013;" horiz-adv-x="1245" 
d="M145 539v45h955v-45h-955z" />
    <glyph glyph-name="emdash" unicode="&#x2014;" horiz-adv-x="2187" 
d="M145 539v45h1897v-45h-1897z" />
    <glyph glyph-name="quoteleft" unicode="&#x2018;" horiz-adv-x="419" 
d="M137 997l158 416h47l-139 -416h-66z" />
    <glyph glyph-name="quoteright" unicode="&#x2019;" horiz-adv-x="419" 
d="M137 997l139 416h66l-158 -416h-47z" />
    <glyph glyph-name="quotesinglbase" unicode="&#x201a;" horiz-adv-x="434" 
d="M86 -295l139 414h64l-158 -414h-45z" />
    <glyph glyph-name="quotedblleft" unicode="&#x201c;" horiz-adv-x="778" 
d="M137 997l158 416h47l-139 -416h-66zM498 997l157 416h45l-139 -416h-63z" />
    <glyph glyph-name="quotedblright" unicode="&#x201d;" horiz-adv-x="778" 
d="M137 997l139 416h66l-158 -416h-47zM498 997l139 416h63l-157 -416h-45z" />
    <glyph glyph-name="quotedblbase" unicode="&#x201e;" horiz-adv-x="794" 
d="M86 -295l139 414h64l-158 -414h-45zM444 -295l140 414h65l-160 -414h-45z" />
    <glyph glyph-name="dagger" unicode="&#x2020;" horiz-adv-x="1011" 
d="M866 1044v-45h-336v-1388h-49v1388h-336v45h336v369h49v-369h336z" />
    <glyph glyph-name="daggerdbl" unicode="&#x2021;" horiz-adv-x="1011" 
d="M866 999h-336v-933h336v-46h-336v-409h-49v409h-336v46h336v933h-336v45h336v369h49v-369h336v-45z" />
    <glyph glyph-name="bullet" unicode="&#x2022;" horiz-adv-x="559" 
d="M281 426q-59 0 -97.5 38.5t-38.5 96.5t38.5 96.5t97.5 38.5q57 0 95 -38.5t38 -96.5t-38 -96.5t-95 -38.5z" />
    <glyph glyph-name="ellipsis" unicode="&#x2026;" horiz-adv-x="1267" 
d="M211 -8q-23 0 -39 16t-16 39q0 24 15.5 39.5t39.5 15.5q25 0 40 -15t15 -40q0 -24 -15.5 -39.5t-39.5 -15.5zM633 -8q-23 0 -39 16t-16 39q0 24 15.5 39.5t39.5 15.5q25 0 40 -15t15 -40q0 -24 -15.5 -39.5t-39.5 -15.5zM1055 -8q-23 0 -39.5 16t-16.5 39q0 24 16 39.5
t40 15.5q25 0 40 -15t15 -40q0 -24 -15.5 -39.5t-39.5 -15.5z" />
    <glyph glyph-name="perthousand" unicode="&#x2030;" horiz-adv-x="2379" 
d="M424 827q-130 0 -217.5 87.5t-87.5 218.5t87.5 218t217.5 87q132 0 218.5 -87t86.5 -218t-86.5 -218.5t-218.5 -87.5zM279 0l1024 1413h57l-1024 -1413h-57zM424 872q110 0 184 75t74 186q0 112 -73.5 186t-184.5 74q-109 0 -183.5 -74t-74.5 -186q0 -110 74.5 -185.5
t183.5 -75.5zM1212 -25q-130 0 -217.5 87.5t-87.5 218.5t87.5 218t217.5 87q132 0 219 -87t87 -218t-87 -218.5t-219 -87.5zM1954 -25q-130 0 -217.5 87.5t-87.5 218.5t87.5 218t217.5 87t217.5 -87t87.5 -218t-87.5 -218.5t-217.5 -87.5zM1212 20q110 0 184 74.5t74 186.5
q0 110 -74 185t-184 75q-109 0 -183.5 -75t-74.5 -185q0 -112 74.5 -186.5t183.5 -74.5zM1954 20q110 0 184 74.5t74 186.5q0 110 -74 185t-184 75q-109 0 -183.5 -75t-74.5 -185q0 -112 74.5 -186.5t183.5 -74.5z" />
    <glyph glyph-name="guilsinglleft" unicode="&#x2039;" horiz-adv-x="702" 
d="M561 950l-379 -409l379 -410h-63l-379 410l379 409h63z" />
    <glyph glyph-name="guilsinglright" unicode="&#x203a;" horiz-adv-x="702" 
d="M205 950l381 -409l-381 -410h-62l379 410l-379 409h62z" />
    <glyph glyph-name="fraction" unicode="&#x2044;" horiz-adv-x="329" 
d="M-373 0l1020 1413h55l-1019 -1413h-56z" />
    <glyph glyph-name="uni2070" unicode="&#x2070;" horiz-adv-x="811" 
d="M401 735q-140 0 -228.5 123t-88.5 316t88.5 315.5t228.5 122.5q141 0 230.5 -122.5t89.5 -315.5t-89.5 -316t-230.5 -123zM401 780q120 0 196.5 110t76.5 284t-76.5 283.5t-196.5 109.5q-119 0 -194.5 -109.5t-75.5 -283.5t75.5 -284t194.5 -110z" />
    <glyph glyph-name="uni2074" unicode="&#x2074;" horiz-adv-x="694" 
d="M682 1012v-41h-133v-221h-45v221h-443l-12 37l455 589h45v-585h133zM100 1012h404v522z" />
    <glyph glyph-name="uni2075" unicode="&#x2075;" horiz-adv-x="700" 
d="M379 1272q124 0 206.5 -76t82.5 -190q0 -117 -87 -194t-216 -77q-175 0 -285 139l26 33q44 -58 111.5 -92.5t144.5 -34.5q110 0 184.5 64.5t74.5 161.5q0 96 -70.5 160.5t-175.5 64.5q-60 0 -120.5 -22.5t-100.5 -59.5l-37 14l39 434h454v-41h-415l-35 -356
q40 32 99.5 52t119.5 20z" />
    <glyph glyph-name="uni2076" unicode="&#x2076;" horiz-adv-x="679" 
d="M367 1272q122 0 202 -75.5t80 -186.5q0 -119 -86 -197t-219 -78q-139 0 -223 83t-84 231q0 194 138.5 352.5t356.5 210.5l11 -41q-182 -50 -300 -166.5t-151 -267.5q35 66 111.5 100.5t163.5 34.5zM346 778q110 0 183 66t73 166q0 93 -70 157t-176 64q-66 0 -125.5 -21
t-103 -71t-43.5 -119q0 -106 72 -174t190 -68z" />
    <glyph glyph-name="uni2077" unicode="&#x2077;" horiz-adv-x="653" 
d="M66 1597h538v-32l-397 -815h-51l393 804h-483v43z" />
    <glyph glyph-name="uni2078" unicode="&#x2078;" horiz-adv-x="655" 
d="M434 1188q85 -25 137 -83.5t52 -135.5q0 -100 -84.5 -167t-210.5 -67t-210.5 67t-84.5 167q0 77 51.5 135.5t136.5 83.5q-76 25 -123 80.5t-47 124.5q0 93 80 156t197 63q118 0 196 -62.5t78 -156.5q0 -70 -46 -125t-122 -80zM98 1389q0 -76 66.5 -128.5t163.5 -52.5
t162 52t65 129q0 78 -64.5 129t-162.5 51q-97 0 -163.5 -51.5t-66.5 -128.5zM328 778q106 0 176.5 56t70.5 139t-71 138.5t-176 55.5q-106 0 -177 -55.5t-71 -138.5t71.5 -139t176.5 -56z" />
    <glyph glyph-name="uni2079" unicode="&#x2079;" horiz-adv-x="681" 
d="M340 1612q141 0 225 -83t84 -231q0 -199 -139 -360.5t-358 -202.5l-11 41q187 41 304 159.5t149 274.5q-35 -63 -110 -99t-165 -36q-122 0 -202 75.5t-80 186.5q0 119 85.5 197t217.5 78zM330 1116q66 0 125.5 21t103 71t43.5 119q0 106 -72 174t-190 68q-110 0 -183 -66
t-73 -166q0 -94 69.5 -157.5t176.5 -63.5z" />
    <glyph glyph-name="franc" unicode="&#x20a3;" horiz-adv-x="1146" 
d="M1065 1364h-768v-627h676v-49h-676v-326h496v-47h-496v-315h-53v315h-162v47h162v1051h821v-49z" />
    <glyph glyph-name="lira" unicode="&#x20a4;" horiz-adv-x="1169" 
d="M317 49h762v-49h-977v49h162v473h-162v43h162v168h-162v45h162v242q0 178 122 298t304 120q113 0 210 -50t165 -137l-33 -34q-65 80 -152.5 124.5t-189.5 44.5q-159 0 -266 -105t-107 -261v-242h498v-45h-498v-168h498v-43h-498v-473z" />
    <glyph glyph-name="peseta" unicode="&#x20a7;" horiz-adv-x="1280" 
d="M1260 1026v-43h-117q-9 -166 -125.5 -276.5t-284.5 -110.5h-416v-596h-53v983h-164v43h164v387h469q170 0 286 -110.5t124 -276.5h117zM317 1364v-338h770q-8 147 -107.5 242.5t-246.5 95.5h-416zM733 645q146 0 246 96t108 242h-770v-338h416z" />
    <glyph glyph-name="uni20A8" unicode="&#x20a8;" horiz-adv-x="2215" 
d="M731 643h-156l566 -643h-70l-563 643h-256v-643h-53v1413h532q164 0 275.5 -110.5t111.5 -274.5t-111.5 -274.5t-275.5 -110.5zM252 1364v-674h477q143 0 238.5 96t95.5 240q0 146 -95.5 242t-238.5 96h-477zM1751 551q50 -13 77.5 -20t72 -22t69.5 -28.5t56.5 -35.5
t48 -46.5t28 -58.5t11.5 -74q0 -132 -111 -211.5t-279 -79.5q-125 0 -228.5 45t-170.5 125l31 35q61 -74 156.5 -115.5t209.5 -41.5q147 0 243.5 66.5t96.5 172.5q0 33 -10 60.5t-25 48t-42.5 39t-51 30t-63.5 25t-66.5 20.5t-72.5 19q-49 13 -78 21t-73 23.5t-70.5 29.5
t-58 36t-48.5 47t-29 58.5t-12 73.5q0 128 105 202t255 74q110 0 201.5 -40t153.5 -109l-31 -37q-53 65 -137.5 102t-184.5 37q-131 0 -220 -62.5t-89 -160.5q0 -34 10.5 -62.5t25.5 -49.5t43.5 -40t51.5 -31t64.5 -25.5t67 -20.5t73.5 -19z" />
    <glyph glyph-name="Euro" unicode="&#x20ac;" horiz-adv-x="1572" 
d="M981 1386q-255 0 -441 -153.5t-229 -396.5h955l-21 -45h-940q-4 -54 -4 -84t4 -84h854l-20 -45h-828q43 -243 229 -397t441 -154q144 0 269.5 51t219.5 143v-63q-209 -183 -493 -183q-277 0 -477.5 169.5t-243.5 433.5h-176l20 45h150q-4 54 -4 84t4 84h-170l20 45h156
q43 264 243.5 433t477.5 169q284 0 493 -183v-63q-94 92 -219.5 143t-269.5 51z" />
    <glyph glyph-name="uni20B1" unicode="&#x20b1;" horiz-adv-x="1280" 
d="M1260 1128v-41h-125q8 -36 8 -83q0 -46 -8 -82h125v-41h-136q-37 -127 -143.5 -206t-247.5 -79h-416v-596h-53v881h-164v41h164v165h-164v41h164v285h469q141 0 247.5 -79t143.5 -206h136zM317 1364v-236h750q-36 107 -126.5 171.5t-209.5 64.5h-414zM1087 1004
q0 47 -8 83h-762v-165h762q8 36 8 82zM731 645q119 0 209.5 64.5t126.5 171.5h-750v-236h414z" />
    <glyph glyph-name="uni20B5" unicode="&#x20b5;" horiz-adv-x="1562" 
d="M881 47q161 6 293.5 77.5t218.5 194.5l45 -30q-94 -132 -239 -210.5t-318 -84.5v-137h-45v137q-196 4 -355.5 98.5t-250.5 256.5t-91 358t91 357.5t250.5 256t355.5 98.5v137h45v-137q173 -6 318 -84.5t239 -210.5l-45 -30q-86 123 -218.5 194.5t-293.5 77.5v-1319z
M195 707q0 -137 49 -258t134 -208.5t204 -139t254 -54.5v1319q-180 -4 -327 -90.5t-230.5 -236t-83.5 -332.5z" />
    <glyph glyph-name="uni20B9" unicode="&#x20b9;" horiz-adv-x="1153" 
d="M731 1368q111 -60 164 -172h180l-26 -45h-136q19 -62 19 -125q0 -164 -111.5 -275.5t-275.5 -111.5h-301l729 -639h-74l-737 649v39h381q143 0 238.5 96t95.5 242q0 57 -21 125h-694v45h674q-44 78 -121 124t-172 46h-381v47h913l-26 -45h-318z" />
    <glyph glyph-name="uni2116" unicode="&#x2116;" horiz-adv-x="2396" 
d="M1917 709q-155 0 -260 104.5t-105 259.5q0 156 104.5 260.5t260.5 104.5q157 0 260.5 -104t103.5 -261q0 -156 -104 -260t-260 -104zM1280 76v1337h53v-1413h-63l-1018 1341v-1341h-53v1413h65zM1917 1391q-134 0 -224.5 -91.5t-90.5 -226.5t90.5 -226t224.5 -91
t224.5 91t90.5 226t-90.5 226.5t-224.5 91.5zM1577 453v47h680v-47h-680z" />
    <glyph glyph-name="trademark" unicode="&#x2122;" horiz-adv-x="1419" 
d="M68 1376v37h442v-37h-201v-559h-39v559h-202zM1198 1413h55v-596h-39v549l-239 -467h-37l-240 467v-549h-39v596h58l241 -473z" />
    <glyph glyph-name="uni2150" unicode="&#x2150;" horiz-adv-x="1632" 
d="M260 565v793l-205 -111l-20 35l239 131h31v-848h-45zM1176 1413h55l-1020 -1413h-55zM1044 848h539v-33l-397 -815h-51l393 805h-484v43z" />
    <glyph glyph-name="uni2151" unicode="&#x2151;" horiz-adv-x="1540" 
d="M260 565v793l-205 -111l-20 35l239 131h31v-848h-45zM1176 1413h55l-1020 -1413h-55zM1198 862q141 0 225 -82.5t84 -230.5q0 -199 -139 -360.5t-358 -202.5l-11 41q187 41 304 159.5t149 274.5q-35 -63 -109.5 -99t-164.5 -36q-122 0 -202.5 75.5t-80.5 186.5
q0 119 85.5 196.5t217.5 77.5zM1188 367q66 0 125.5 21t103 71t43.5 119q0 106 -72 173.5t-190 67.5q-110 0 -183 -65.5t-73 -165.5q0 -94 69.5 -157.5t176.5 -63.5z" />
    <glyph glyph-name="uni2152" unicode="&#x2152;" horiz-adv-x="2158" 
d="M260 565v793l-205 -111l-20 35l239 131h31v-848h-45zM156 0l1020 1413h55l-1020 -1413h-55zM1749 862q141 0 230 -122t89 -316t-89 -316t-230 -122q-140 0 -228.5 122.5t-88.5 315.5t88.5 315.5t228.5 122.5zM954 717l240 131h31v-848h-45v793l-205 -111zM1749 31
q120 0 196 109.5t76 283.5t-76 283.5t-196 109.5q-119 0 -194.5 -109.5t-75.5 -283.5t75.5 -283.5t194.5 -109.5z" />
    <glyph glyph-name="uni2153" unicode="&#x2153;" horiz-adv-x="1529" 
d="M260 565v793l-205 -111l-20 35l239 131h31v-848h-45zM1176 1413h55l-1020 -1413h-55zM1309 449q84 -20 135 -81.5t51 -142.5q0 -103 -82 -171t-209 -68q-175 0 -289 123l27 32q98 -110 258 -110q110 0 180 55.5t70 142.5q0 86 -67.5 143.5t-165.5 57.5h-136v39h136
q89 0 147.5 50.5t58.5 125.5q0 74 -63 123t-158 49q-69 0 -129 -27t-98 -77l-27 30q45 58 112.5 88.5t145.5 30.5q114 0 188 -60.5t74 -152.5q0 -66 -43 -120.5t-116 -79.5z" />
    <glyph glyph-name="uni2154" unicode="&#x2154;" horiz-adv-x="1734" 
d="M598 608v-43h-539v35l363 397q50 56 76 103.5t26 101.5q0 81 -56.5 130.5t-143.5 49.5q-73 0 -132.5 -37t-95.5 -102l-37 25q42 74 112.5 116.5t154.5 42.5q105 0 175 -63t70 -162q0 -60 -27.5 -113.5t-84.5 -115.5l-334 -365h473zM1380 1413h56l-1020 -1413h-56z
M1513 449q84 -20 135.5 -81.5t51.5 -142.5q0 -103 -82 -171t-209 -68q-175 0 -289 123l27 32q98 -110 258 -110q110 0 180 55.5t70 142.5q0 86 -68 143.5t-166 57.5h-135v39h135q89 0 148 50.5t59 125.5q0 74 -63 123t-158 49q-69 0 -129 -27t-98 -77l-27 30
q45 58 112.5 88.5t145.5 30.5q114 0 188 -60.5t74 -152.5q0 -66 -43.5 -120.5t-116.5 -79.5z" />
    <glyph glyph-name="uni2155" unicode="&#x2155;" horiz-adv-x="1579" 
d="M260 565v793l-205 -111l-20 35l239 131h31v-848h-45zM1176 1413h55l-1020 -1413h-55zM1257 522q124 0 206.5 -76t82.5 -190q0 -117 -86.5 -193.5t-216.5 -76.5q-175 0 -285 139l27 33q44 -58 111.5 -92.5t144.5 -34.5q110 0 184 64t74 161q0 96 -70.5 160.5t-175.5 64.5
q-60 0 -120.5 -22.5t-100.5 -59.5l-37 15l39 434h455v-41h-416l-35 -356q40 32 99.5 51.5t119.5 19.5z" />
    <glyph glyph-name="uni2156" unicode="&#x2156;" horiz-adv-x="1783" 
d="M598 608v-43h-539v35l363 397q50 56 76 103.5t26 101.5q0 81 -56.5 130.5t-143.5 49.5q-73 0 -132.5 -37t-95.5 -102l-37 25q42 74 112.5 116.5t154.5 42.5q105 0 175 -63t70 -162q0 -60 -27.5 -113.5t-84.5 -115.5l-334 -365h473zM1380 1413h56l-1020 -1413h-56z
M1462 522q124 0 206.5 -76t82.5 -190q0 -117 -86.5 -193.5t-216.5 -76.5q-175 0 -285 139l27 33q44 -58 111.5 -92.5t144.5 -34.5q110 0 184 64t74 161q0 96 -70.5 160.5t-175.5 64.5q-60 0 -120.5 -22.5t-100.5 -59.5l-37 15l39 434h455v-41h-416l-35 -356q40 32 99.5 51.5
t119.5 19.5z" />
    <glyph glyph-name="uni2157" unicode="&#x2157;" horiz-adv-x="1732" 
d="M627 791q0 -103 -82 -171.5t-209 -68.5q-175 0 -289 123l27 33q99 -111 258 -111q110 0 180 56t70 143q0 85 -68 142.5t-166 57.5h-135v39h135q89 0 148 50.5t59 125.5q0 74 -63 123t-158 49q-69 0 -130 -27t-98 -77l-26 31q45 58 112.5 88t145.5 30q114 0 188 -60.5
t74 -152.5q0 -66 -43.5 -120.5t-116.5 -79.5q84 -20 135.5 -81t51.5 -142zM1329 1413h55l-1019 -1413h-56zM1411 522q124 0 206.5 -76t82.5 -190q0 -117 -86.5 -193.5t-216.5 -76.5q-175 0 -285 139l27 33q44 -58 111.5 -92.5t144.5 -34.5q110 0 184 64t74 161
q0 96 -70.5 160.5t-175.5 64.5q-60 0 -120.5 -22.5t-100.5 -59.5l-37 15l39 434h454v-41h-415l-35 -356q40 32 99.5 51.5t119.5 19.5z" />
    <glyph glyph-name="uni2158" unicode="&#x2158;" horiz-adv-x="1746" 
d="M504 565v221h-443l-12 37l455 590h45v-586h133v-41h-133v-221h-45zM1343 1413h56l-1020 -1413h-55zM100 827h404v523zM1425 522q124 0 206.5 -76t82.5 -190q0 -117 -86.5 -193.5t-216.5 -76.5q-175 0 -285 139l27 33q44 -58 111.5 -92.5t144.5 -34.5q110 0 184 64t74 161
q0 96 -70.5 160.5t-175.5 64.5q-60 0 -120.5 -22.5t-100.5 -59.5l-37 15l39 434h455v-41h-416l-35 -356q40 32 99.5 51.5t119.5 19.5z" />
    <glyph glyph-name="uni2159" unicode="&#x2159;" horiz-adv-x="1445" 
d="M260 565v793l-205 -111l-20 35l239 131h31v-848h-45zM1176 1413h55l-1020 -1413h-55zM1133 522q122 0 202 -75.5t80 -186.5q0 -119 -86 -196.5t-219 -77.5q-139 0 -223 82.5t-84 230.5q0 194 138.5 352.5t356.5 210.5l11 -41q-182 -50 -300 -166.5t-151 -267.5
q35 66 111.5 100.5t163.5 34.5zM1112 29q110 0 183 65.5t73 165.5q0 93 -70 157t-176 64q-66 0 -125.5 -21t-103 -71t-43.5 -119q0 -106 72 -173.5t190 -67.5z" />
    <glyph glyph-name="uni215A" unicode="&#x215a;" horiz-adv-x="1617" 
d="M668 821q0 -117 -86.5 -193.5t-216.5 -76.5q-175 0 -285 139l26 33q44 -58 111.5 -92.5t144.5 -34.5q111 0 185 64t74 161t-71 161.5t-175 64.5q-60 0 -120.5 -22.5t-100.5 -59.5l-37 14l39 434h454v-41h-415l-35 -356q40 32 99.5 51.5t119.5 19.5q124 0 206.5 -76
t82.5 -190zM1348 1413h55l-1020 -1413h-55zM1305 522q122 0 202 -75.5t80 -186.5q0 -119 -86 -196.5t-219 -77.5q-139 0 -223 82.5t-84 230.5q0 194 138.5 352.5t356.5 210.5l11 -41q-182 -50 -300 -166.5t-151 -267.5q35 66 111.5 100.5t163.5 34.5zM1284 29
q110 0 183 65.5t73 165.5q0 93 -70 157t-176 64q-66 0 -125.5 -21t-103 -71t-43.5 -119q0 -106 72 -173.5t190 -67.5z" />
    <glyph glyph-name="oneeighth" unicode="&#x215b;" horiz-adv-x="1525" 
d="M260 565v793l-205 -111l-20 35l239 131h31v-848h-45zM1176 1413h55l-1020 -1413h-55zM1303 438q85 -25 136.5 -83.5t51.5 -135.5q0 -100 -84.5 -166.5t-210.5 -66.5t-210.5 66.5t-84.5 166.5q0 77 52 135.5t137 83.5q-76 25 -123 80.5t-47 124.5q0 94 79.5 156.5
t196.5 62.5q118 0 196 -62.5t78 -156.5q0 -70 -45.5 -125t-121.5 -80zM967 639q0 -76 66 -128t163 -52t162 51.5t65 128.5q0 78 -64.5 129t-162.5 51q-97 0 -163 -51t-66 -129zM1196 29q106 0 177 55.5t71 138.5t-71.5 139t-176.5 56q-106 0 -177 -56t-71 -139t71.5 -138.5
t176.5 -55.5z" />
    <glyph glyph-name="threeeighths" unicode="&#x215c;" horiz-adv-x="1679" 
d="M627 791q0 -103 -82 -171.5t-209 -68.5q-175 0 -289 123l27 33q99 -111 258 -111q110 0 180 56t70 143q0 85 -68 142.5t-166 57.5h-135v39h135q89 0 148 50.5t59 125.5q0 74 -63 123t-158 49q-69 0 -130 -27t-98 -77l-26 31q45 58 112.5 88t145.5 30q114 0 188 -60.5
t74 -152.5q0 -66 -43.5 -120.5t-116.5 -79.5q84 -20 135.5 -81t51.5 -142zM1329 1413h55l-1019 -1413h-56zM1456 438q85 -25 137 -83.5t52 -135.5q0 -100 -84.5 -166.5t-210.5 -66.5t-210.5 66.5t-84.5 166.5q0 77 51.5 135.5t136.5 83.5q-76 25 -123 80.5t-47 124.5
q0 93 80 156t197 63q118 0 196 -62.5t78 -156.5q0 -70 -46 -125t-122 -80zM1120 639q0 -76 66.5 -128t163.5 -52t162 51.5t65 128.5q0 78 -64.5 129t-162.5 51q-97 0 -163.5 -51.5t-66.5 -128.5zM1350 29q106 0 176.5 55.5t70.5 138.5t-71 139t-176 56q-106 0 -177 -56
t-71 -139t71.5 -138.5t176.5 -55.5z" />
    <glyph glyph-name="fiveeighths" unicode="&#x215d;" horiz-adv-x="1697" 
d="M668 821q0 -117 -86.5 -193.5t-216.5 -76.5q-175 0 -285 139l26 33q44 -58 111.5 -92.5t144.5 -34.5q111 0 185 64t74 161t-71 161.5t-175 64.5q-60 0 -120.5 -22.5t-100.5 -59.5l-37 14l39 434h454v-41h-415l-35 -356q40 32 99.5 51.5t119.5 19.5q124 0 206.5 -76
t82.5 -190zM1348 1413h55l-1020 -1413h-55zM1475 438q85 -25 136.5 -83.5t51.5 -135.5q0 -100 -84.5 -166.5t-210.5 -66.5t-210.5 66.5t-84.5 166.5q0 77 52 135.5t137 83.5q-76 25 -123 80.5t-47 124.5q0 94 79.5 156.5t196.5 62.5q118 0 196 -62.5t78 -156.5
q0 -70 -45.5 -125t-121.5 -80zM1139 639q0 -76 66 -128t163 -52t162 51.5t65 128.5q0 78 -64.5 129t-162.5 51q-97 0 -163 -51t-66 -129zM1368 29q106 0 177 55.5t71 138.5t-71.5 139t-176.5 56q-106 0 -177 -56t-71 -139t71.5 -138.5t176.5 -55.5z" />
    <glyph glyph-name="seveneighths" unicode="&#x215e;" horiz-adv-x="1548" 
d="M207 565h-51l393 805h-483v43h538v-33zM1198 1413h55l-1020 -1413h-55zM1325 438q85 -25 136.5 -83.5t51.5 -135.5q0 -100 -84 -166.5t-210 -66.5t-210.5 66.5t-84.5 166.5q0 77 51.5 135.5t136.5 83.5q-76 25 -123 80.5t-47 124.5q0 93 80 156t197 63q118 0 196 -62.5
t78 -156.5q0 -70 -46 -125t-122 -80zM989 639q0 -76 66.5 -128t163.5 -52t162 51.5t65 128.5q0 78 -64.5 129t-162.5 51q-97 0 -163.5 -51.5t-66.5 -128.5zM1219 29q106 0 176.5 55.5t70.5 138.5t-71 139t-176 56q-106 0 -177 -56t-71 -139t71.5 -138.5t176.5 -55.5z" />
    <glyph glyph-name="uni215F" unicode="&#x215f;" horiz-adv-x="858" 
d="M260 565v793l-205 -111l-20 35l239 131h31v-848h-45zM1176 1413h55l-1020 -1413h-55z" />
    <glyph glyph-name="uni2189" unicode="&#x2189;" horiz-adv-x="1810" 
d="M721 989q0 -193 -89.5 -315.5t-230.5 -122.5q-140 0 -228.5 122.5t-88.5 315.5t88.5 315.5t228.5 122.5q141 0 230.5 -122.5t89.5 -315.5zM1456 1413h55l-1019 -1413h-56zM401 596q120 0 196.5 109.5t76.5 283.5t-76.5 283.5t-196.5 109.5q-119 0 -194.5 -109.5
t-75.5 -283.5t75.5 -283.5t194.5 -109.5zM1589 449q84 -20 135.5 -81.5t51.5 -142.5q0 -103 -82 -171t-209 -68q-175 0 -289 123l27 32q98 -110 258 -110q110 0 180 55.5t70 142.5q0 86 -68 143.5t-166 57.5h-135v39h135q89 0 148 50.5t59 125.5q0 74 -63 123t-158 49
q-69 0 -130 -27t-98 -77l-26 30q45 58 112.5 88.5t145.5 30.5q114 0 188 -60.5t74 -152.5q0 -66 -43.5 -120.5t-116.5 -79.5z" />
    <glyph glyph-name="arrowleft" unicode="&#x2190;" horiz-adv-x="1392" 
d="M1210 729v-45h-948l361 -362l-31 -31l-414 416l414 415l31 -30l-359 -363h946z" />
    <glyph glyph-name="arrowup" unicode="&#x2191;" horiz-adv-x="1392" 
d="M1110 809l-31 -31l-360 359v-947h-47v945l-361 -357l-30 31l415 414z" />
    <glyph glyph-name="arrowright" unicode="&#x2192;" horiz-adv-x="1392" 
d="M799 1122l415 -415l-415 -416l-29 31l358 362h-946v45h946l-358 363z" />
    <glyph glyph-name="arrowdown" unicode="&#x2193;" horiz-adv-x="1392" 
d="M1079 635l31 -31l-414 -414l-415 414l30 31l361 -356v944h47v-947z" />
    <glyph glyph-name="uni2196" unicode="&#x2196;" horiz-adv-x="1392" 
d="M1069 367l-33 -33l-669 667l2 -505h-47v583h585v-45h-504z" />
    <glyph glyph-name="uni2197" unicode="&#x2197;" horiz-adv-x="1392" 
d="M479 1079h584v-583h-41v510l-672 -672l-31 33l666 667l-506 4v41z" />
    <glyph glyph-name="uni2198" unicode="&#x2198;" horiz-adv-x="1392" 
d="M1024 918h45v-584h-584v45h504l-667 668l34 32l668 -665v504z" />
    <glyph glyph-name="uni2199" unicode="&#x2199;" horiz-adv-x="1392" 
d="M1069 1047l-666 -668h504v-45h-585v584h47l-2 -506l669 667z" />
    <glyph glyph-name="minus" unicode="&#x2212;" horiz-adv-x="1093" 
d="M145 582v45h803v-45h-803z" />
    <glyph glyph-name="approxequal" unicode="&#x2248;" horiz-adv-x="1056" 
d="M707 684q-46 0 -86 19t-70 46.5t-59 55t-64 46.5t-74 19q-70 0 -115.5 -46t-45.5 -117h-48q0 91 57.5 151t147.5 60q46 0 86 -19.5t70 -47t58.5 -54.5t63.5 -46.5t74 -19.5q70 0 116 47t46 117h47q0 -90 -57 -150.5t-147 -60.5zM707 307q-46 0 -86 19.5t-70 46.5
t-59 54.5t-64 47t-74 19.5q-69 0 -115 -47t-46 -117h-48q0 91 57.5 151t147.5 60q46 0 86 -19.5t70 -46.5t58.5 -54.5t63.5 -47t74 -19.5q70 0 116 46.5t46 117.5h47q0 -90 -57 -150.5t-147 -60.5z" />
    <glyph glyph-name="notequal" unicode="&#x2260;" horiz-adv-x="1093" 
d="M948 731h-313l-127 -252h440v-45h-463l-118 -235h-50l119 235h-291v45h314l127 252h-441v45h463l119 234h49l-119 -234h291v-45z" />
    <glyph glyph-name="lessequal" unicode="&#x2264;" horiz-adv-x="950" 
d="M805 1008v-52l-615 -258l615 -260v-51l-660 285v51zM145 203v45h660v-45h-660z" />
    <glyph glyph-name="greaterequal" unicode="&#x2265;" horiz-adv-x="950" 
d="M145 1008l660 -285v-51l-660 -285v51l615 260l-615 258v52zM145 203v45h660v-45h-660z" />
    <glyph glyph-name="uni279D" unicode="&#x279d;" horiz-adv-x="2215" 
d="M2034 707l-412 -412v389h-1440v45h1440v389z" />
    <glyph glyph-name="uni27F5" unicode="&#x27f5;" horiz-adv-x="2215" 
d="M2036 729v-45h-1772l361 -362l-31 -31l-414 416l414 415l31 -30l-359 -363h1770z" />
    <glyph glyph-name="uni27F6" unicode="&#x27f6;" horiz-adv-x="2215" 
d="M1622 1122l414 -415l-414 -416l-31 31l361 362h-1772v45h1770l-359 363z" />
    <glyph glyph-name="G.ss05" horiz-adv-x="1703" 
d="M924 694h635v-694h-50v442q-69 -217 -247.5 -342t-415.5 -125q-205 0 -372.5 95.5t-263 263.5t-95.5 373t95.5 372.5t263.5 263t374 95.5q191 0 350.5 -84.5t257.5 -231.5l-41 -30q-91 137 -239 215.5t-328 78.5q-142 0 -268 -52t-216 -142t-142 -216t-52 -269t52 -269
t142 -216.5t216 -142.5t268 -52q179 0 327.5 79t236.5 221t93 318h-581v49z" />
    <glyph glyph-name="uni01F4.ss05" horiz-adv-x="1703" 
d="M1096 1808l-236 -227h-57l219 227h74zM924 694h635v-694h-50v442q-69 -217 -247.5 -342t-415.5 -125q-205 0 -372.5 95.5t-263 263.5t-95.5 373t95.5 372.5t263.5 263t374 95.5q191 0 350.5 -84.5t257.5 -231.5l-41 -30q-91 137 -239 215.5t-328 78.5q-142 0 -268 -52
t-216 -142t-142 -216t-52 -269t52 -269t142 -216.5t216 -142.5t268 -52q179 0 327.5 79t236.5 221t93 318h-581v49z" />
    <glyph glyph-name="Gbreve.ss05" horiz-adv-x="1703" 
d="M846 1561q-95 0 -160 64t-65 159h43q0 -78 52.5 -131.5t129.5 -53.5q78 0 130 53.5t52 131.5h45q0 -95 -65 -159t-162 -64zM924 694h635v-694h-50v442q-69 -217 -247.5 -342t-415.5 -125q-205 0 -372.5 95.5t-263 263.5t-95.5 373t95.5 372.5t263.5 263t374 95.5
q191 0 350.5 -84.5t257.5 -231.5l-41 -30q-91 137 -239 215.5t-328 78.5q-142 0 -268 -52t-216 -142t-142 -216t-52 -269t52 -269t142 -216.5t216 -142.5t268 -52q179 0 327.5 79t236.5 221t93 318h-581v49z" />
    <glyph glyph-name="Gcaron.ss05" horiz-adv-x="1703" 
d="M881 1581h-66l-209 227h51l191 -196l188 196h51zM924 694h635v-694h-50v442q-69 -217 -247.5 -342t-415.5 -125q-205 0 -372.5 95.5t-263 263.5t-95.5 373t95.5 372.5t263.5 263t374 95.5q191 0 350.5 -84.5t257.5 -231.5l-41 -30q-91 137 -239 215.5t-328 78.5
q-142 0 -268 -52t-216 -142t-142 -216t-52 -269t52 -269t142 -216.5t216 -142.5t268 -52q179 0 327.5 79t236.5 221t93 318h-581v49z" />
    <glyph glyph-name="Gcircumflex.ss05" horiz-adv-x="1703" 
d="M848 1776l-191 -195h-51l209 227h66l206 -227h-51zM924 694h635v-694h-50v442q-69 -217 -247.5 -342t-415.5 -125q-205 0 -372.5 95.5t-263 263.5t-95.5 373t95.5 372.5t263.5 263t374 95.5q191 0 350.5 -84.5t257.5 -231.5l-41 -30q-91 137 -239 215.5t-328 78.5
q-142 0 -268 -52t-216 -142t-142 -216t-52 -269t52 -269t142 -216.5t216 -142.5t268 -52q179 0 327.5 79t236.5 221t93 318h-581v49z" />
    <glyph glyph-name="uni0122.ss05" horiz-adv-x="1703" 
d="M924 694h635v-694h-50v442q-69 -217 -247.5 -342t-415.5 -125q-205 0 -372.5 95.5t-263 263.5t-95.5 373t95.5 372.5t263.5 263t374 95.5q191 0 350.5 -84.5t257.5 -231.5l-41 -30q-91 137 -239 215.5t-328 78.5q-142 0 -268 -52t-216 -142t-142 -216t-52 -269t52 -269
t142 -216.5t216 -142.5t268 -52q179 0 327.5 79t236.5 221t93 318h-581v49zM782 -432l54 268h57l-70 -268h-41z" />
    <glyph glyph-name="Gdotaccent.ss05" horiz-adv-x="1703" 
d="M848 1610q-22 0 -36.5 14.5t-14.5 36.5t14.5 36.5t36.5 14.5t36.5 -14.5t14.5 -36.5t-14.5 -36.5t-36.5 -14.5zM924 694h635v-694h-50v442q-69 -217 -247.5 -342t-415.5 -125q-205 0 -372.5 95.5t-263 263.5t-95.5 373t95.5 372.5t263.5 263t374 95.5q191 0 350.5 -84.5
t257.5 -231.5l-41 -30q-91 137 -239 215.5t-328 78.5q-142 0 -268 -52t-216 -142t-142 -216t-52 -269t52 -269t142 -216.5t216 -142.5t268 -52q179 0 327.5 79t236.5 221t93 318h-581v49z" />
    <glyph glyph-name="i.loclTRK" horiz-adv-x="407" 
d="M205 1241q-22 0 -36.5 14.5t-14.5 36.5t14.5 36.5t36.5 14.5t36.5 -14.5t14.5 -36.5t-14.5 -36.5t-36.5 -14.5zM180 0v1044h49v-1044h-49z" />
    <glyph glyph-name="a.ss01" horiz-adv-x="1157" 
d="M555 1069q195 0 313.5 -107.5t118.5 -287.5v-674h-47v178q-48 -92 -157.5 -147.5t-250.5 -55.5q-186 0 -308 93.5t-122 240.5t122 240.5t308 93.5q139 0 247.5 -54t158.5 -145v226q0 160 -105 256t-280 96q-124 0 -222 -47t-153 -123l-33 29q59 85 167 136.5t243 51.5z
M541 23q170 0 283.5 81.5t113.5 204.5t-113.5 205t-283.5 82q-168 0 -277.5 -80t-109.5 -207t109 -206.5t278 -79.5z" />
    <glyph glyph-name="aacute.ss01" horiz-adv-x="1157" 
d="M821 1440l-235 -228h-58l220 228h73zM555 1069q195 0 313.5 -107.5t118.5 -287.5v-674h-47v178q-48 -92 -157.5 -147.5t-250.5 -55.5q-186 0 -308 93.5t-122 240.5t122 240.5t308 93.5q139 0 247.5 -54t158.5 -145v226q0 160 -105 256t-280 96q-124 0 -222 -47t-153 -123
l-33 29q59 85 167 136.5t243 51.5zM541 23q170 0 283.5 81.5t113.5 204.5t-113.5 205t-283.5 82q-168 0 -277.5 -80t-109.5 -207t109 -206.5t278 -79.5z" />
    <glyph glyph-name="abreve.ss01" horiz-adv-x="1157" 
d="M571 1192q-95 0 -160 64t-65 159h43q0 -78 52.5 -131t129.5 -53q78 0 130.5 53t52.5 131h45q0 -95 -65.5 -159t-162.5 -64zM555 1069q195 0 313.5 -107.5t118.5 -287.5v-674h-47v178q-48 -92 -157.5 -147.5t-250.5 -55.5q-186 0 -308 93.5t-122 240.5t122 240.5t308 93.5
q139 0 247.5 -54t158.5 -145v226q0 160 -105 256t-280 96q-124 0 -222 -47t-153 -123l-33 29q59 85 167 136.5t243 51.5zM541 23q170 0 283.5 81.5t113.5 204.5t-113.5 205t-283.5 82q-168 0 -277.5 -80t-109.5 -207t109 -206.5t278 -79.5z" />
    <glyph glyph-name="uni01CE.ss01" horiz-adv-x="1157" 
d="M606 1212h-65l-209 228h51l190 -197l189 197h51zM555 1069q195 0 313.5 -107.5t118.5 -287.5v-674h-47v178q-48 -92 -157.5 -147.5t-250.5 -55.5q-186 0 -308 93.5t-122 240.5t122 240.5t308 93.5q139 0 247.5 -54t158.5 -145v226q0 160 -105 256t-280 96
q-124 0 -222 -47t-153 -123l-33 29q59 85 167 136.5t243 51.5zM541 23q170 0 283.5 81.5t113.5 204.5t-113.5 205t-283.5 82q-168 0 -277.5 -80t-109.5 -207t109 -206.5t278 -79.5z" />
    <glyph glyph-name="acircumflex.ss01" horiz-adv-x="1157" 
d="M573 1407l-190 -195h-51l209 228h65l207 -228h-51zM555 1069q195 0 313.5 -107.5t118.5 -287.5v-674h-47v178q-48 -92 -157.5 -147.5t-250.5 -55.5q-186 0 -308 93.5t-122 240.5t122 240.5t308 93.5q139 0 247.5 -54t158.5 -145v226q0 160 -105 256t-280 96
q-124 0 -222 -47t-153 -123l-33 29q59 85 167 136.5t243 51.5zM541 23q170 0 283.5 81.5t113.5 204.5t-113.5 205t-283.5 82q-168 0 -277.5 -80t-109.5 -207t109 -206.5t278 -79.5z" />
    <glyph glyph-name="uni0201.ss01" horiz-adv-x="1157" 
d="M432 1212h-49l-176 228h63zM770 1212h-51l-174 228h63zM555 1069q195 0 313.5 -107.5t118.5 -287.5v-674h-47v178q-48 -92 -157.5 -147.5t-250.5 -55.5q-186 0 -308 93.5t-122 240.5t122 240.5t308 93.5q139 0 247.5 -54t158.5 -145v226q0 160 -105 256t-280 96
q-124 0 -222 -47t-153 -123l-33 29q59 85 167 136.5t243 51.5zM541 23q170 0 283.5 81.5t113.5 204.5t-113.5 205t-283.5 82q-168 0 -277.5 -80t-109.5 -207t109 -206.5t278 -79.5z" />
    <glyph glyph-name="adieresis.ss01" horiz-adv-x="1157" 
d="M375 1241q-22 0 -36.5 14.5t-14.5 36.5q0 20 14.5 34.5t36.5 14.5q20 0 34.5 -14.5t14.5 -34.5q0 -22 -14.5 -36.5t-34.5 -14.5zM772 1241q-22 0 -36.5 14.5t-14.5 36.5q0 20 14.5 34.5t36.5 14.5q20 0 34.5 -14.5t14.5 -34.5q0 -22 -14.5 -36.5t-34.5 -14.5zM555 1069
q195 0 313.5 -107.5t118.5 -287.5v-674h-47v178q-48 -92 -157.5 -147.5t-250.5 -55.5q-186 0 -308 93.5t-122 240.5t122 240.5t308 93.5q139 0 247.5 -54t158.5 -145v226q0 160 -105 256t-280 96q-124 0 -222 -47t-153 -123l-33 29q59 85 167 136.5t243 51.5zM541 23
q170 0 283.5 81.5t113.5 204.5t-113.5 205t-283.5 82q-168 0 -277.5 -80t-109.5 -207t109 -206.5t278 -79.5z" />
    <glyph glyph-name="uni1EA1.ss01" horiz-adv-x="1157" 
d="M555 1069q195 0 313.5 -107.5t118.5 -287.5v-674h-47v178q-48 -92 -157.5 -147.5t-250.5 -55.5q-186 0 -308 93.5t-122 240.5t122 240.5t308 93.5q139 0 247.5 -54t158.5 -145v226q0 160 -105 256t-280 96q-124 0 -222 -47t-153 -123l-33 29q59 85 167 136.5t243 51.5z
M541 23q170 0 283.5 81.5t113.5 204.5t-113.5 205t-283.5 82q-168 0 -277.5 -80t-109.5 -207t109 -206.5t278 -79.5zM571 -197q22 0 37 -14.5t15 -36.5t-15 -36.5t-37 -14.5t-36.5 14.5t-14.5 36.5t14.5 36.5t36.5 14.5z" />
    <glyph glyph-name="agrave.ss01" horiz-adv-x="1157" 
d="M614 1212h-57l-235 228h73zM555 1069q195 0 313.5 -107.5t118.5 -287.5v-674h-47v178q-48 -92 -157.5 -147.5t-250.5 -55.5q-186 0 -308 93.5t-122 240.5t122 240.5t308 93.5q139 0 247.5 -54t158.5 -145v226q0 160 -105 256t-280 96q-124 0 -222 -47t-153 -123l-33 29
q59 85 167 136.5t243 51.5zM541 23q170 0 283.5 81.5t113.5 204.5t-113.5 205t-283.5 82q-168 0 -277.5 -80t-109.5 -207t109 -206.5t278 -79.5z" />
    <glyph glyph-name="uni0203.ss01" horiz-adv-x="1157" 
d="M571 1376q-77 0 -129.5 -52.5t-52.5 -131.5h-43q0 95 65 160t160 65q97 0 162.5 -65t65.5 -160h-45q0 79 -52.5 131.5t-130.5 52.5zM555 1069q195 0 313.5 -107.5t118.5 -287.5v-674h-47v178q-48 -92 -157.5 -147.5t-250.5 -55.5q-186 0 -308 93.5t-122 240.5t122 240.5
t308 93.5q139 0 247.5 -54t158.5 -145v226q0 160 -105 256t-280 96q-124 0 -222 -47t-153 -123l-33 29q59 85 167 136.5t243 51.5zM541 23q170 0 283.5 81.5t113.5 204.5t-113.5 205t-283.5 82q-168 0 -277.5 -80t-109.5 -207t109 -206.5t278 -79.5z" />
    <glyph glyph-name="amacron.ss01" horiz-adv-x="1157" 
d="M776 1300v-45h-409v45h409zM555 1069q195 0 313.5 -107.5t118.5 -287.5v-674h-47v178q-48 -92 -157.5 -147.5t-250.5 -55.5q-186 0 -308 93.5t-122 240.5t122 240.5t308 93.5q139 0 247.5 -54t158.5 -145v226q0 160 -105 256t-280 96q-124 0 -222 -47t-153 -123l-33 29
q59 85 167 136.5t243 51.5zM541 23q170 0 283.5 81.5t113.5 204.5t-113.5 205t-283.5 82q-168 0 -277.5 -80t-109.5 -207t109 -206.5t278 -79.5z" />
    <glyph glyph-name="aogonek.ss01" horiz-adv-x="1157" 
d="M1001 -336l19 -35q-64 -41 -133 -41q-70 0 -119 48.5t-49 117.5q0 77 60.5 143t160.5 109v172q-48 -92 -157.5 -147.5t-250.5 -55.5q-186 0 -308 93.5t-122 240.5t122 240.5t308 93.5q139 0 247.5 -54t158.5 -145v226q0 160 -105 256t-280 96q-124 0 -222 -47t-153 -123
l-33 29q59 85 167 136.5t243 51.5q195 0 313.5 -107.5t118.5 -287.5v-674h-6q-98 -44 -157.5 -107.5t-59.5 -132.5q0 -57 36.5 -94t90.5 -37q60 0 110 35zM541 23q170 0 283.5 81.5t113.5 204.5t-113.5 205t-283.5 82q-168 0 -277.5 -80t-109.5 -207t109 -206.5t278 -79.5z
" />
    <glyph glyph-name="aring.ss01" horiz-adv-x="1157" 
d="M571 1180q-56 0 -94.5 38t-38.5 95t38.5 95t94.5 38q57 0 96.5 -38t39.5 -95t-39.5 -95t-96.5 -38zM571 1411q-40 0 -67 -28t-27 -70q0 -41 27 -70t67 -29q41 0 69 29t28 70q0 43 -28 70.5t-69 27.5zM555 1069q195 0 313.5 -107.5t118.5 -287.5v-674h-47v178
q-48 -92 -157.5 -147.5t-250.5 -55.5q-186 0 -308 93.5t-122 240.5t122 240.5t308 93.5q139 0 247.5 -54t158.5 -145v226q0 160 -105 256t-280 96q-124 0 -222 -47t-153 -123l-33 29q59 85 167 136.5t243 51.5zM541 23q170 0 283.5 81.5t113.5 204.5t-113.5 205t-283.5 82
q-168 0 -277.5 -80t-109.5 -207t109 -206.5t278 -79.5z" />
    <glyph glyph-name="atilde.ss01" horiz-adv-x="1157" 
d="M428 1376q-56 0 -93.5 -38.5t-37.5 -96.5h-43q0 75 48.5 125.5t123.5 50.5q45 0 85 -23t65.5 -50.5t62.5 -50.5t76 -23q57 0 95 38.5t38 96.5h43q0 -75 -49.5 -126.5t-122.5 -51.5q-46 0 -86.5 23.5t-66 51t-62.5 51t-76 23.5zM555 1069q195 0 313.5 -107.5t118.5 -287.5
v-674h-47v178q-48 -92 -157.5 -147.5t-250.5 -55.5q-186 0 -308 93.5t-122 240.5t122 240.5t308 93.5q139 0 247.5 -54t158.5 -145v226q0 160 -105 256t-280 96q-124 0 -222 -47t-153 -123l-33 29q59 85 167 136.5t243 51.5zM541 23q170 0 283.5 81.5t113.5 204.5
t-113.5 205t-283.5 82q-168 0 -277.5 -80t-109.5 -207t109 -206.5t278 -79.5z" />
    <glyph glyph-name="g.ss02" 
d="M1153 1044h49v-931q0 -238 -151 -382.5t-400 -144.5q-167 0 -292 67.5t-195 190.5l37 29q62 -114 178 -177t270 -63q229 0 366.5 132t137.5 350v223q-58 -154 -192.5 -247t-309.5 -93q-115 0 -215.5 41.5t-172 112.5t-113 170.5t-41.5 212.5q0 150 70 272t194.5 192
t277.5 70q175 0 309.5 -92.5t192.5 -245.5v313zM657 45q212 0 354 140.5t142 349.5q0 207 -142 347t-354 140q-213 0 -355 -139.5t-142 -347.5q0 -210 142 -350t355 -140z" />
    <glyph glyph-name="uni01F5.ss02" 
d="M936 1440l-236 -228h-57l219 228h74zM1153 1044h49v-931q0 -238 -151 -382.5t-400 -144.5q-167 0 -292 67.5t-195 190.5l37 29q62 -114 178 -177t270 -63q229 0 366.5 132t137.5 350v223q-58 -154 -192.5 -247t-309.5 -93q-115 0 -215.5 41.5t-172 112.5t-113 170.5
t-41.5 212.5q0 150 70 272t194.5 192t277.5 70q175 0 309.5 -92.5t192.5 -245.5v313zM657 45q212 0 354 140.5t142 349.5q0 207 -142 347t-354 140q-213 0 -355 -139.5t-142 -347.5q0 -210 142 -350t355 -140z" />
    <glyph glyph-name="gbreve.ss02" 
d="M686 1192q-95 0 -160 64t-65 159h43q0 -78 52.5 -131t129.5 -53q78 0 130 53t52 131h45q0 -95 -65 -159t-162 -64zM1153 1044h49v-931q0 -238 -151 -382.5t-400 -144.5q-167 0 -292 67.5t-195 190.5l37 29q62 -114 178 -177t270 -63q229 0 366.5 132t137.5 350v223
q-58 -154 -192.5 -247t-309.5 -93q-115 0 -215.5 41.5t-172 112.5t-113 170.5t-41.5 212.5q0 150 70 272t194.5 192t277.5 70q175 0 309.5 -92.5t192.5 -245.5v313zM657 45q212 0 354 140.5t142 349.5q0 207 -142 347t-354 140q-213 0 -355 -139.5t-142 -347.5
q0 -210 142 -350t355 -140z" />
    <glyph glyph-name="gcaron.ss02" 
d="M721 1212h-66l-209 228h52l190 -197l189 197h51zM1153 1044h49v-931q0 -238 -151 -382.5t-400 -144.5q-167 0 -292 67.5t-195 190.5l37 29q62 -114 178 -177t270 -63q229 0 366.5 132t137.5 350v223q-58 -154 -192.5 -247t-309.5 -93q-115 0 -215.5 41.5t-172 112.5
t-113 170.5t-41.5 212.5q0 150 70 272t194.5 192t277.5 70q175 0 309.5 -92.5t192.5 -245.5v313zM657 45q212 0 354 140.5t142 349.5q0 207 -142 347t-354 140q-213 0 -355 -139.5t-142 -347.5q0 -210 142 -350t355 -140z" />
    <glyph glyph-name="gcircumflex.ss02" 
d="M688 1407l-190 -195h-52l209 228h66l207 -228h-51zM1153 1044h49v-931q0 -238 -151 -382.5t-400 -144.5q-167 0 -292 67.5t-195 190.5l37 29q62 -114 178 -177t270 -63q229 0 366.5 132t137.5 350v223q-58 -154 -192.5 -247t-309.5 -93q-115 0 -215.5 41.5t-172 112.5
t-113 170.5t-41.5 212.5q0 150 70 272t194.5 192t277.5 70q175 0 309.5 -92.5t192.5 -245.5v313zM657 45q212 0 354 140.5t142 349.5q0 207 -142 347t-354 140q-213 0 -355 -139.5t-142 -347.5q0 -210 142 -350t355 -140z" />
    <glyph glyph-name="uni0123.ss02" 
d="M741 1462l-53 -270h-57l69 270h41zM1153 1044h49v-931q0 -238 -151 -382.5t-400 -144.5q-167 0 -292 67.5t-195 190.5l37 29q62 -114 178 -177t270 -63q229 0 366.5 132t137.5 350v223q-58 -154 -192.5 -247t-309.5 -93q-115 0 -215.5 41.5t-172 112.5t-113 170.5
t-41.5 212.5q0 150 70 272t194.5 192t277.5 70q175 0 309.5 -92.5t192.5 -245.5v313zM657 45q212 0 354 140.5t142 349.5q0 207 -142 347t-354 140q-213 0 -355 -139.5t-142 -347.5q0 -210 142 -350t355 -140z" />
    <glyph glyph-name="gdotaccent.ss02" 
d="M686 1241q-22 0 -36.5 14.5t-14.5 36.5t14.5 36.5t36.5 14.5t36.5 -14.5t14.5 -36.5t-14.5 -36.5t-36.5 -14.5zM1153 1044h49v-931q0 -238 -151 -382.5t-400 -144.5q-167 0 -292 67.5t-195 190.5l37 29q62 -114 178 -177t270 -63q229 0 366.5 132t137.5 350v223
q-58 -154 -192.5 -247t-309.5 -93q-115 0 -215.5 41.5t-172 112.5t-113 170.5t-41.5 212.5q0 150 70 272t194.5 192t277.5 70q175 0 309.5 -92.5t192.5 -245.5v313zM657 45q212 0 354 140.5t142 349.5q0 207 -142 347t-354 140q-213 0 -355 -139.5t-142 -347.5
q0 -210 142 -350t355 -140z" />
    <glyph glyph-name="u.ss03" horiz-adv-x="1267" 
d="M1038 1044h49v-1044h-49v240q-50 -124 -162 -194.5t-266 -70.5q-200 0 -321 121t-121 320v628h49v-618q0 -183 110.5 -292t293.5 -109q189 0 303 110.5t114 294.5v614z" />
    <glyph glyph-name="uacute.ss03" horiz-adv-x="1267" 
d="M879 1440l-236 -228h-57l219 228h74zM1038 1044h49v-1044h-49v240q-50 -124 -162 -194.5t-266 -70.5q-200 0 -321 121t-121 320v628h49v-618q0 -183 110.5 -292t293.5 -109q189 0 303 110.5t114 294.5v614z" />
    <glyph glyph-name="ubreve.ss03" horiz-adv-x="1267" 
d="M627 1192q-96 0 -161 64t-65 159h43q0 -78 53 -131t130 -53q78 0 130 53t52 131h45q0 -95 -65 -159t-162 -64zM1038 1044h49v-1044h-49v240q-50 -124 -162 -194.5t-266 -70.5q-200 0 -321 121t-121 320v628h49v-618q0 -183 110.5 -292t293.5 -109q189 0 303 110.5
t114 294.5v614z" />
    <glyph glyph-name="ucircumflex.ss03" horiz-adv-x="1267" 
d="M629 1407l-191 -195h-51l209 228h66l206 -228h-51zM1038 1044h49v-1044h-49v240q-50 -124 -162 -194.5t-266 -70.5q-200 0 -321 121t-121 320v628h49v-618q0 -183 110.5 -292t293.5 -109q189 0 303 110.5t114 294.5v614z" />
    <glyph glyph-name="uni0215.ss03" horiz-adv-x="1267" 
d="M487 1212h-49l-176 228h64zM825 1212h-51l-174 228h64zM1038 1044h49v-1044h-49v240q-50 -124 -162 -194.5t-266 -70.5q-200 0 -321 121t-121 320v628h49v-618q0 -183 110.5 -292t293.5 -109q189 0 303 110.5t114 294.5v614z" />
    <glyph glyph-name="udieresis.ss03" horiz-adv-x="1267" 
d="M430 1241q-22 0 -36.5 14.5t-14.5 36.5q0 20 14.5 34.5t36.5 14.5q20 0 34.5 -14.5t14.5 -34.5q0 -22 -14.5 -36.5t-34.5 -14.5zM827 1241q-22 0 -36.5 14.5t-14.5 36.5q0 20 14.5 34.5t36.5 14.5q20 0 35 -14.5t15 -34.5q0 -22 -14.5 -36.5t-35.5 -14.5zM1038 1044h49
v-1044h-49v240q-50 -124 -162 -194.5t-266 -70.5q-200 0 -321 121t-121 320v628h49v-618q0 -183 110.5 -292t293.5 -109q189 0 303 110.5t114 294.5v614z" />
    <glyph glyph-name="uni1EE5.ss03" horiz-adv-x="1267" 
d="M1038 1044h49v-1044h-49v240q-50 -124 -162 -194.5t-266 -70.5q-200 0 -321 121t-121 320v628h49v-618q0 -183 110.5 -292t293.5 -109q189 0 303 110.5t114 294.5v614zM629 -197q22 0 36.5 -14.5t14.5 -36.5t-14.5 -36.5t-36.5 -14.5t-36.5 14.5t-14.5 36.5t14.5 36.5
t36.5 14.5z" />
    <glyph glyph-name="ugrave.ss03" horiz-adv-x="1267" 
d="M670 1212h-58l-235 228h74zM1038 1044h49v-1044h-49v240q-50 -124 -162 -194.5t-266 -70.5q-200 0 -321 121t-121 320v628h49v-618q0 -183 110.5 -292t293.5 -109q189 0 303 110.5t114 294.5v614z" />
    <glyph glyph-name="uhungarumlaut.ss03" horiz-adv-x="1267" 
d="M655 1440l-174 -228h-51l162 228h63zM993 1440l-176 -228h-49l160 228h65zM1038 1044h49v-1044h-49v240q-50 -124 -162 -194.5t-266 -70.5q-200 0 -321 121t-121 320v628h49v-618q0 -183 110.5 -292t293.5 -109q189 0 303 110.5t114 294.5v614z" />
    <glyph glyph-name="uni0217.ss03" horiz-adv-x="1267" 
d="M627 1376q-77 0 -130 -52.5t-53 -131.5h-43q0 95 65.5 160t160.5 65q97 0 162 -65t65 -160h-45q0 79 -52 131.5t-130 52.5zM1038 1044h49v-1044h-49v240q-50 -124 -162 -194.5t-266 -70.5q-200 0 -321 121t-121 320v628h49v-618q0 -183 110.5 -292t293.5 -109
q189 0 303 110.5t114 294.5v614z" />
    <glyph glyph-name="umacron.ss03" horiz-adv-x="1267" 
d="M834 1300v-45h-410v45h410zM1038 1044h49v-1044h-49v240q-50 -124 -162 -194.5t-266 -70.5q-200 0 -321 121t-121 320v628h49v-618q0 -183 110.5 -292t293.5 -109q189 0 303 110.5t114 294.5v614z" />
    <glyph glyph-name="uogonek.ss03" horiz-adv-x="1267" 
d="M1108 -336l18 -35q-64 -41 -133 -41q-70 0 -119 48.5t-49 117.5q0 76 58 140.5t155 107.5v238q-50 -124 -162 -194.5t-266 -70.5q-200 0 -321 121t-121 320v628h49v-618q0 -183 110.5 -292t293.5 -109q189 0 303 110.5t114 294.5v614h49v-1044q-98 -44 -157.5 -107.5
t-59.5 -132.5q0 -57 36.5 -94t90.5 -37q61 0 111 35z" />
    <glyph glyph-name="uring.ss03" horiz-adv-x="1267" 
d="M627 1180q-56 0 -94.5 38t-38.5 95t38.5 95t94.5 38q57 0 96 -38t39 -95t-39 -95t-96 -38zM627 1411q-40 0 -67.5 -28t-27.5 -70q0 -41 27.5 -70t67.5 -29q41 0 68.5 28.5t27.5 70.5q0 43 -27.5 70.5t-68.5 27.5zM1038 1044h49v-1044h-49v240q-50 -124 -162 -194.5
t-266 -70.5q-200 0 -321 121t-121 320v628h49v-618q0 -183 110.5 -292t293.5 -109q189 0 303 110.5t114 294.5v614z" />
    <glyph glyph-name="utilde.ss03" horiz-adv-x="1267" 
d="M485 1376q-56 0 -93.5 -38.5t-37.5 -96.5h-43q0 75 48.5 125.5t123.5 50.5q45 0 85 -23t65.5 -50.5t62 -50.5t76.5 -23q57 0 95 38.5t38 96.5h43q0 -75 -49.5 -126.5t-122.5 -51.5q-46 0 -86.5 23.5t-66 51t-62.5 51t-76 23.5zM1038 1044h49v-1044h-49v240
q-50 -124 -162 -194.5t-266 -70.5q-200 0 -321 121t-121 320v628h49v-618q0 -183 110.5 -292t293.5 -109q189 0 303 110.5t114 294.5v614z" />
    <glyph glyph-name="w.ss04" horiz-adv-x="1906" 
d="M1688 1044h49v-679q0 -177 -109 -283.5t-291 -106.5q-146 0 -248 71t-137 196q-34 -125 -135 -196t-248 -71q-182 0 -291.5 106.5t-109.5 283.5v679h49v-673q0 -157 97.5 -251.5t258.5 -94.5q160 0 257.5 94.5t97.5 251.5v673h49v-673q0 -157 97.5 -251.5t258.5 -94.5
q160 0 257.5 94.5t97.5 251.5v673z" />
    <glyph glyph-name="wacute.ss04" horiz-adv-x="1906" 
d="M1202 1440l-235 -228h-58l219 228h74zM1688 1044h49v-679q0 -177 -109 -283.5t-291 -106.5q-146 0 -248 71t-137 196q-34 -125 -135 -196t-248 -71q-182 0 -291.5 106.5t-109.5 283.5v679h49v-673q0 -157 97.5 -251.5t258.5 -94.5q160 0 257.5 94.5t97.5 251.5v673h49
v-673q0 -157 97.5 -251.5t258.5 -94.5q160 0 257.5 94.5t97.5 251.5v673z" />
    <glyph glyph-name="wcircumflex.ss04" horiz-adv-x="1906" 
d="M954 1407l-190 -195h-51l209 228h65l207 -228h-51zM1688 1044h49v-679q0 -177 -109 -283.5t-291 -106.5q-146 0 -248 71t-137 196q-34 -125 -135 -196t-248 -71q-182 0 -291.5 106.5t-109.5 283.5v679h49v-673q0 -157 97.5 -251.5t258.5 -94.5q160 0 257.5 94.5
t97.5 251.5v673h49v-673q0 -157 97.5 -251.5t258.5 -94.5q160 0 257.5 94.5t97.5 251.5v673z" />
    <glyph glyph-name="wdieresis.ss04" horiz-adv-x="1906" 
d="M756 1241q-22 0 -36.5 14.5t-14.5 36.5q0 20 14.5 34.5t36.5 14.5q20 0 34.5 -14.5t14.5 -34.5q0 -22 -14.5 -36.5t-34.5 -14.5zM1153 1241q-22 0 -36.5 14.5t-14.5 36.5q0 20 14.5 34.5t36.5 14.5q20 0 34.5 -14.5t14.5 -34.5q0 -22 -14.5 -36.5t-34.5 -14.5zM1688 1044
h49v-679q0 -177 -109 -283.5t-291 -106.5q-146 0 -248 71t-137 196q-34 -125 -135 -196t-248 -71q-182 0 -291.5 106.5t-109.5 283.5v679h49v-673q0 -157 97.5 -251.5t258.5 -94.5q160 0 257.5 94.5t97.5 251.5v673h49v-673q0 -157 97.5 -251.5t258.5 -94.5
q160 0 257.5 94.5t97.5 251.5v673z" />
    <glyph glyph-name="wgrave.ss04" horiz-adv-x="1906" 
d="M995 1212h-57l-236 228h74zM1688 1044h49v-679q0 -177 -109 -283.5t-291 -106.5q-146 0 -248 71t-137 196q-34 -125 -135 -196t-248 -71q-182 0 -291.5 106.5t-109.5 283.5v679h49v-673q0 -157 97.5 -251.5t258.5 -94.5q160 0 257.5 94.5t97.5 251.5v673h49v-673
q0 -157 97.5 -251.5t258.5 -94.5q160 0 257.5 94.5t97.5 251.5v673z" />
    <glyph glyph-name="zero.subs" horiz-adv-x="811" 
d="M401 -248q-140 0 -228.5 122.5t-88.5 315.5t88.5 316t228.5 123q141 0 230.5 -123t89.5 -316t-89.5 -315.5t-230.5 -122.5zM401 -203q120 0 196.5 109.5t76.5 283.5t-76.5 284t-196.5 110q-119 0 -194.5 -110t-75.5 -284t75.5 -283.5t194.5 -109.5z" />
    <glyph glyph-name="one.subs" horiz-adv-x="425" 
d="M274 614h31v-847h-45v792l-205 -110l-20 34z" />
    <glyph glyph-name="two.subs" horiz-adv-x="651" 
d="M125 -190h473v-43h-539v34l363 398q51 57 76.5 103.5t25.5 100.5q0 81 -56.5 131t-143.5 50q-73 0 -132.5 -37.5t-95.5 -102.5l-37 25q42 74 112.5 117t154.5 43q105 0 175 -63.5t70 -162.5q0 -60 -27.5 -113.5t-84.5 -115.5z" />
    <glyph glyph-name="three.subs" horiz-adv-x="661" 
d="M440 215q84 -20 135.5 -81t51.5 -142q0 -103 -82 -171.5t-209 -68.5q-175 0 -289 123l27 33q99 -111 258 -111q110 0 180 56t70 143q0 86 -68 143.5t-166 57.5h-135v39h135q89 0 148 50.5t59 125.5q0 74 -63 123t-158 49q-69 0 -129.5 -27.5t-98.5 -77.5l-26 31
q45 58 112.5 88.5t145.5 30.5q114 0 188 -60.5t74 -152.5q0 -66 -43.5 -121t-116.5 -80z" />
    <glyph glyph-name="four.subs" horiz-adv-x="694" 
d="M682 29v-41h-133v-221h-45v221h-443l-12 37l455 589h45v-585h133zM100 29h404v522z" />
    <glyph glyph-name="five.subs" horiz-adv-x="700" 
d="M379 289q124 0 206.5 -76t82.5 -190q0 -117 -87 -194t-216 -77q-175 0 -285 139l26 33q44 -58 111.5 -92.5t144.5 -34.5q110 0 184.5 64.5t74.5 161.5q0 96 -70.5 160.5t-175.5 64.5q-60 0 -120.5 -22.5t-100.5 -59.5l-37 14l39 434h454v-41h-415l-35 -356q40 32 99.5 52
t119.5 20z" />
    <glyph glyph-name="six.subs" horiz-adv-x="679" 
d="M367 289q122 0 202 -75.5t80 -186.5q0 -119 -86 -197t-219 -78q-139 0 -223 83t-84 231q0 194 138.5 352.5t356.5 210.5l11 -41q-182 -50 -300 -166.5t-151 -267.5q35 66 111.5 100.5t163.5 34.5zM346 -205q110 0 183 66t73 166q0 93 -70 157t-176 64q-66 0 -125.5 -21
t-103 -71t-43.5 -119q0 -106 72 -174t190 -68z" />
    <glyph glyph-name="seven.subs" horiz-adv-x="653" 
d="M66 614h538v-32l-397 -815h-51l393 804h-483v43z" />
    <glyph glyph-name="eight.subs" horiz-adv-x="655" 
d="M434 205q85 -25 137 -83.5t52 -135.5q0 -100 -84.5 -167t-210.5 -67t-210.5 67t-84.5 167q0 77 51.5 135.5t136.5 83.5q-76 25 -123 80.5t-47 124.5q0 93 80 156t197 63q118 0 196 -62.5t78 -156.5q0 -70 -46 -125t-122 -80zM98 406q0 -76 66.5 -128.5t163.5 -52.5
t162 52t65 129q0 78 -64.5 129t-162.5 51q-97 0 -163.5 -51.5t-66.5 -128.5zM328 -205q106 0 176.5 56t70.5 139t-71 138.5t-176 55.5q-106 0 -177 -55.5t-71 -138.5t71.5 -139t176.5 -56z" />
    <glyph glyph-name="nine.subs" horiz-adv-x="681" 
d="M340 629q141 0 225 -83t84 -231q0 -199 -139 -360.5t-358 -202.5l-11 41q187 41 304 159.5t149 274.5q-35 -63 -110 -99t-165 -36q-122 0 -202 75.5t-80 186.5q0 119 85.5 197t217.5 78zM330 133q66 0 125.5 21t103 71t43.5 119q0 106 -72 174t-190 68q-110 0 -183 -66
t-73 -166q0 -94 69.5 -157.5t176.5 -63.5z" />
    <glyph glyph-name="zero.dnom" horiz-adv-x="811" 
d="M401 -14q-140 0 -228.5 122.5t-88.5 315.5t88.5 315.5t228.5 122.5q141 0 230.5 -122.5t89.5 -315.5t-89.5 -315.5t-230.5 -122.5zM401 31q120 0 196.5 109.5t76.5 283.5t-76.5 283.5t-196.5 109.5q-119 0 -194.5 -109.5t-75.5 -283.5t75.5 -283.5t194.5 -109.5z" />
    <glyph glyph-name="one.dnom" horiz-adv-x="425" 
d="M274 848h31v-848h-45v793l-205 -111l-20 35z" />
    <glyph glyph-name="two.dnom" horiz-adv-x="651" 
d="M125 43h473v-43h-539v35l363 397q50 56 76 103.5t26 101.5q0 81 -56.5 130.5t-143.5 49.5q-73 0 -132.5 -37t-95.5 -102l-37 24q42 74 112.5 117t154.5 43q105 0 175 -63t70 -162q0 -60 -27.5 -113.5t-84.5 -115.5z" />
    <glyph glyph-name="three.dnom" horiz-adv-x="661" 
d="M440 449q84 -20 135.5 -81.5t51.5 -142.5q0 -103 -82 -171t-209 -68q-175 0 -289 123l27 32q98 -110 258 -110q110 0 180 55.5t70 142.5q0 86 -68 143.5t-166 57.5h-135v39h135q89 0 148 50.5t59 125.5q0 74 -63 123t-158 49q-69 0 -130 -27t-98 -77l-26 30
q45 58 112.5 88.5t145.5 30.5q114 0 188 -60.5t74 -152.5q0 -66 -43.5 -120.5t-116.5 -79.5z" />
    <glyph glyph-name="four.dnom" horiz-adv-x="694" 
d="M682 262v-41h-133v-221h-45v221h-443l-12 37l455 590h45v-586h133zM100 262h404v522z" />
    <glyph glyph-name="five.dnom" horiz-adv-x="700" 
d="M379 522q124 0 206.5 -76t82.5 -190q0 -117 -86.5 -193.5t-216.5 -76.5q-175 0 -285 139l26 33q44 -58 111.5 -92.5t144.5 -34.5q111 0 185 64t74 161q0 96 -70.5 160.5t-175.5 64.5q-60 0 -120.5 -22.5t-100.5 -59.5l-37 15l39 434h454v-41h-415l-35 -356
q40 32 99.5 51.5t119.5 19.5z" />
    <glyph glyph-name="six.dnom" horiz-adv-x="679" 
d="M367 522q122 0 202 -75.5t80 -186.5q0 -119 -86 -196.5t-219 -77.5q-139 0 -223 82.5t-84 230.5q0 194 138.5 352.5t356.5 210.5l11 -41q-182 -50 -300 -166.5t-151 -267.5q35 66 111.5 100.5t163.5 34.5zM346 29q110 0 183 65.5t73 165.5q0 93 -70 157t-176 64
q-66 0 -125.5 -21t-103 -71t-43.5 -119q0 -106 72 -173.5t190 -67.5z" />
    <glyph glyph-name="seven.dnom" horiz-adv-x="653" 
d="M66 848h538v-33l-397 -815h-51l393 805h-483v43z" />
    <glyph glyph-name="eight.dnom" horiz-adv-x="655" 
d="M434 438q85 -25 137 -83.5t52 -135.5q0 -100 -84.5 -166.5t-210.5 -66.5t-210.5 66.5t-84.5 166.5q0 77 51.5 135.5t136.5 83.5q-76 25 -123 80.5t-47 124.5q0 93 80 156t197 63q118 0 196 -62.5t78 -156.5q0 -70 -46 -125t-122 -80zM98 639q0 -76 66.5 -128t163.5 -52
t162 51.5t65 128.5q0 78 -64.5 129t-162.5 51q-97 0 -163.5 -51.5t-66.5 -128.5zM328 29q106 0 176.5 55.5t70.5 138.5t-71 139t-176 56q-106 0 -177 -56t-71 -139t71.5 -138.5t176.5 -55.5z" />
    <glyph glyph-name="nine.dnom" horiz-adv-x="681" 
d="M340 862q141 0 225 -82.5t84 -230.5q0 -199 -139 -360.5t-358 -202.5l-11 41q187 41 304 159.5t149 274.5q-35 -63 -110 -99t-165 -36q-122 0 -202 75.5t-80 186.5q0 119 85.5 196.5t217.5 77.5zM330 367q66 0 125.5 21t103 71t43.5 119q0 106 -72 173.5t-190 67.5
q-110 0 -183 -65.5t-73 -165.5q0 -94 69.5 -157.5t176.5 -63.5z" />
    <glyph glyph-name="zero.numr" horiz-adv-x="811" 
d="M401 551q-140 0 -228.5 122.5t-88.5 315.5t88.5 315.5t228.5 122.5q141 0 230.5 -122.5t89.5 -315.5t-89.5 -315.5t-230.5 -122.5zM401 596q120 0 196.5 109.5t76.5 283.5t-76.5 283.5t-196.5 109.5q-119 0 -194.5 -109.5t-75.5 -283.5t75.5 -283.5t194.5 -109.5z" />
    <glyph glyph-name="one.numr" horiz-adv-x="425" 
d="M274 1413h31v-848h-45v793l-205 -111l-20 35z" />
    <glyph glyph-name="two.numr" horiz-adv-x="651" 
d="M125 608h473v-43h-539v35l363 397q50 56 76 103.5t26 101.5q0 81 -56.5 130.5t-143.5 49.5q-73 0 -132.5 -37t-95.5 -102l-37 25q42 74 112.5 116.5t154.5 42.5q105 0 175 -63t70 -162q0 -60 -27.5 -113.5t-84.5 -115.5z" />
    <glyph glyph-name="three.numr" horiz-adv-x="661" 
d="M440 1014q84 -20 135.5 -81t51.5 -142q0 -103 -82 -171.5t-209 -68.5q-175 0 -289 123l27 33q99 -111 258 -111q110 0 180 56t70 143q0 85 -68 142.5t-166 57.5h-135v39h135q89 0 148 50.5t59 125.5q0 74 -63 123t-158 49q-69 0 -130 -27t-98 -77l-26 31q45 58 112.5 88
t145.5 30q114 0 188 -60.5t74 -152.5q0 -66 -43.5 -120.5t-116.5 -79.5z" />
    <glyph glyph-name="four.numr" horiz-adv-x="694" 
d="M682 827v-41h-133v-221h-45v221h-443l-12 37l455 590h45v-586h133zM100 827h404v523z" />
    <glyph glyph-name="five.numr" horiz-adv-x="700" 
d="M379 1087q124 0 206.5 -76t82.5 -190q0 -117 -86.5 -193.5t-216.5 -76.5q-175 0 -285 139l26 33q44 -58 111.5 -92.5t144.5 -34.5q111 0 185 64t74 161t-71 161.5t-175 64.5q-60 0 -120.5 -22.5t-100.5 -59.5l-37 14l39 434h454v-41h-415l-35 -356q40 32 99.5 51.5
t119.5 19.5z" />
    <glyph glyph-name="six.numr" horiz-adv-x="679" 
d="M367 1087q122 0 202 -75.5t80 -186.5q0 -119 -86 -196.5t-219 -77.5q-139 0 -223 82.5t-84 230.5q0 194 138.5 352.5t356.5 210.5l11 -41q-182 -50 -300 -166.5t-151 -267.5q35 66 111.5 100.5t163.5 34.5zM346 594q110 0 183 65.5t73 165.5q0 93 -70 157.5t-176 64.5
q-66 0 -125.5 -21t-103 -71t-43.5 -119q0 -106 72 -174t190 -68z" />
    <glyph glyph-name="seven.numr" horiz-adv-x="653" 
d="M66 1413h538v-33l-397 -815h-51l393 805h-483v43z" />
    <glyph glyph-name="eight.numr" horiz-adv-x="655" 
d="M434 1004q85 -25 137 -84t52 -136q0 -100 -84.5 -166.5t-210.5 -66.5t-210.5 66.5t-84.5 166.5q0 77 51.5 136t136.5 84q-76 25 -123 80t-47 124q0 93 80 156t197 63q118 0 196 -62.5t78 -156.5q0 -70 -46 -124.5t-122 -79.5zM98 1204q0 -76 66.5 -128t163.5 -52
t162 51.5t65 128.5q0 78 -64.5 129t-162.5 51q-97 0 -163.5 -51.5t-66.5 -128.5zM328 594q106 0 176.5 55.5t70.5 138.5t-71 139t-176 56q-106 0 -177 -56t-71 -139t71.5 -138.5t176.5 -55.5z" />
    <glyph glyph-name="nine.numr" horiz-adv-x="681" 
d="M340 1427q141 0 225 -82.5t84 -230.5q0 -199 -139 -360.5t-358 -202.5l-11 41q187 41 304 159.5t149 274.5q-35 -63 -110 -99t-165 -36q-122 0 -202 75.5t-80 186.5q0 119 85.5 196.5t217.5 77.5zM330 932q66 0 125.5 21t103 71t43.5 119q0 106 -72 173.5t-190 67.5
q-110 0 -183 -65.5t-73 -165.5q0 -94 69.5 -157.5t176.5 -63.5z" />
    <glyph glyph-name="exclamdown.case" horiz-adv-x="462" 
d="M231 1311q-23 0 -39 16t-16 39t16 39t39 16t39.5 -16t16.5 -39t-16.5 -39t-39.5 -16zM207 0v348l2 746h47l2 -746v-348h-51z" />
    <glyph glyph-name="questiondown.case" horiz-adv-x="1038" 
d="M545 1311q-23 0 -38 16t-15 39t15 39t38 16q24 0 39.5 -15.5t15.5 -39.5t-15.5 -39.5t-39.5 -15.5zM545 -25q-166 0 -276.5 100t-110.5 249q0 81 37.5 158.5t90.5 138.5t106 119t90.5 123.5t37.5 129.5v88h51v-88q0 -59 -26.5 -118.5t-66.5 -106.5t-87 -101.5t-87 -103
t-66.5 -111t-26.5 -126.5q0 -129 95.5 -215t240.5 -86q119 0 223.5 64t167.5 169l43 -29q-67 -115 -184 -184.5t-252 -69.5z" />
    <glyph glyph-name="periodcentered.case" horiz-adv-x="401" 
d="M201 651q-24 0 -40 16t-16 40q0 23 15.5 39t40.5 16q23 0 39 -16t16 -39t-16 -39.5t-39 -16.5z" />
    <glyph glyph-name="bullet.case" horiz-adv-x="559" 
d="M281 571q-59 0 -97.5 38.5t-38.5 97.5q0 58 38.5 96.5t97.5 38.5q57 0 95 -38.5t38 -96.5t-38 -97t-95 -39z" />
    <glyph glyph-name="asterisk.case" horiz-adv-x="819" 
d="M444 1124l23 -10l205 -119l-21 -34l-205 118l-20 15l4 -25v-235h-41v235l2 25l-18 -15l-205 -118l-21 34l205 119l23 10l-23 9l-205 118l21 35l205 -119l18 -14l-2 25v235h41v-235l-4 -25l20 14l205 119l21 -35l-205 -118z" />
    <glyph glyph-name="slash.case" horiz-adv-x="1001" 
d="M66 -215l819 1843h51l-819 -1843h-51z" />
    <glyph glyph-name="backslash.case" horiz-adv-x="1001" 
d="M885 -215l-819 1843h51l819 -1843h-51z" />
    <glyph glyph-name="parenleft.case" horiz-adv-x="634" 
d="M487 -256q-129 173 -207.5 437t-78.5 526t78.5 525t207.5 437h52q-129 -173 -207 -436.5t-78 -525.5q0 -263 78 -526.5t207 -436.5h-52z" />
    <glyph glyph-name="parenright.case" horiz-adv-x="634" 
d="M96 -256q128 174 206.5 438t78.5 525t-78.5 524.5t-206.5 437.5h51q129 -174 208 -437t79 -525t-79 -525.5t-208 -437.5h-51z" />
    <glyph glyph-name="braceleft.case" horiz-adv-x="788" 
d="M399 840q0 -44 -24.5 -80.5t-61.5 -50.5q37 -15 61.5 -52.5t24.5 -81.5v-628q0 -66 45 -112t109 -46h137v-45h-147q-82 0 -137.5 56t-55.5 139v630q0 49 -31.5 82t-78.5 33h-80v47h80q47 0 78.5 33t31.5 82v629q0 83 55.5 138.5t137.5 55.5h147v-45h-137q-64 0 -109 -46
t-45 -112v-626z" />
    <glyph glyph-name="braceright.case" horiz-adv-x="788" 
d="M549 731h80v-47h-80q-47 0 -79 -33t-32 -82v-630q0 -83 -55 -139t-137 -56h-148v45h138q64 0 107.5 46t43.5 112v628q0 43 25.5 81t62.5 53q-37 14 -62.5 50.5t-25.5 80.5v626q0 66 -43.5 112t-107.5 46h-138v45h148q82 0 137 -55.5t55 -138.5v-629q0 -49 32 -82t79 -33z
" />
    <glyph glyph-name="bracketleft.case" horiz-adv-x="669" 
d="M569 1624h-299v-1835h299v-45h-348v1925h348v-45z" />
    <glyph glyph-name="bracketright.case" horiz-adv-x="669" 
d="M98 1669h351v-1925h-351v45h299v1835h-299v45z" />
    <glyph glyph-name="hyphen.case" horiz-adv-x="835" 
d="M145 684v47h545v-47h-545z" />
    <glyph glyph-name="endash.case" horiz-adv-x="1245" 
d="M145 686v45h955v-45h-955z" />
    <glyph glyph-name="emdash.case" horiz-adv-x="2187" 
d="M145 686v45h1897v-45h-1897z" />
    <glyph glyph-name="guillemotleft.case" horiz-adv-x="1183" 
d="M582 1116l-379 -409l379 -410h-64l-379 410l379 409h64zM1022 1116l-379 -409l379 -410h-64l-380 410l380 409h64z" />
    <glyph glyph-name="guillemotright.case" horiz-adv-x="1183" 
d="M225 1116l381 -409l-381 -410h-61l379 410l-379 409h61zM666 1116l381 -409l-381 -410h-62l379 410l-379 409h62z" />
    <glyph glyph-name="guilsinglleft.case" horiz-adv-x="743" 
d="M582 1116l-379 -409l379 -410h-64l-379 410l379 409h64z" />
    <glyph glyph-name="guilsinglright.case" horiz-adv-x="743" 
d="M225 1116l381 -409l-381 -410h-61l379 410l-379 409h61z" />
    <glyph glyph-name="plus.case" horiz-adv-x="1093" 
d="M948 729v-45h-377v-379h-49v379h-377v45h377v379h49v-379h377z" />
    <glyph glyph-name="at.case" horiz-adv-x="1744" 
d="M1362 334q-80 0 -129 48t-49 126v37q-42 -101 -131.5 -160t-206.5 -59q-164 0 -271.5 109t-107.5 272t108 271.5t269 108.5q118 0 208 -59.5t132 -161.5v197h49v-553q0 -59 35.5 -95t93.5 -36q88 0 142.5 98t54.5 252q0 187 -89.5 339.5t-246.5 239.5t-349 87
q-193 0 -350 -89.5t-246.5 -247t-89.5 -351.5q0 -145 52.5 -272.5t143.5 -218.5t218.5 -143.5t271.5 -52.5q135 0 254 44t209 126l31 -38q-208 -179 -494 -179q-155 0 -291.5 56.5t-234 153.5t-153.5 233.5t-56 290.5q0 206 96 374t264.5 263.5t374.5 95.5q154 0 290 -54.5
t233.5 -148.5t154 -226t56.5 -282q0 -174 -67.5 -284.5t-178.5 -110.5zM850 373q144 0 239 95.5t95 238.5t-95 238t-239 95q-142 0 -237 -95t-95 -238t95 -238.5t237 -95.5z" />
    <glyph glyph-name="uni030C.alt" horiz-adv-x="0" 
d="M-98 1124l43 351h55l-59 -351h-39z" />
    <glyph glyph-name="caron.alt" horiz-adv-x="98" 
d="M0 1124l43 351h55l-59 -351h-39z" />
    </font>
</defs>
</svg>
