<?xml version="1.0" standalone="no"?>
<!DOCTYPE svg PUBLIC "-//W3C//DTD SVG 1.1//EN" "http://www.w3.org/Graphics/SVG/1.1/DTD/svg11.dtd" >
<svg xmlns="http://www.w3.org/2000/svg" xmlns:xlink="http://www.w3.org/1999/xlink" version="1.1">
<metadata>
Created by FontForge 20201107 at Sun Dec 27 21:40:39 2020
 By 
Copyright (c) 2020 by Adam Ladd. All rights reserved.
</metadata>
<defs>
<font id="Lufga-Italic" horiz-adv-x="1339" >
  <font-face 
    font-family="Lufga"
    font-weight="400"
    font-style="italic"
    font-stretch="normal"
    units-per-em="2048"
    panose-1="0 0 5 0 0 0 0 0 0 0"
    ascent="1597"
    descent="-451"
    x-height="1044"
    cap-height="1413"
    bbox="-1475 -465 2730 1872"
    underline-thickness="104"
    underline-position="-309"
    slope="-8"
    unicode-range="U+0020-FB02"
  />
<missing-glyph horiz-adv-x="1024" 
d="M840 1597v-2048h-650v2048h650zM682 1460h-338v-67h133v-76h-135v-68h340v68h-135v76h135v67zM547 1196h-205v-213h340v70h-135v143zM477 1126v-73h-67v73h67zM682 928h-340v-68h135v-76h-135v-67h205v143h135v68zM682 805h-68v-135h-272v-70h340v205zM682 555h-205v-115
h70v47h67v-96h-204v164h-68v-231h340v231zM682 201h-340v-232h340v232zM614 133v-96h-204v96h204zM682 -78h-340v-67h143l-143 -97v-67h340v67h-209l143 97h66v67z" />
    <glyph glyph-name="fi" unicode="fi" horiz-adv-x="1275" 
d="M719 1337q-170 0 -193 -159l-18 -134h303l-23 -159h-303l-123 -885h-176l123 885h-188l22 159h189l20 146q22 149 112 229t241 80q98 0 174 -43l-21 -156q-66 37 -139 37zM1174 1487q51 0 79 -33t21 -84q-6 -49 -44.5 -83t-88.5 -34q-51 0 -80 33.5t-23 83.5q7 51 46 84
t90 33zM877 0l147 1044h176l-147 -1044h-176z" />
    <glyph glyph-name="fl" unicode="fl" horiz-adv-x="1275" 
d="M719 1337q-170 0 -193 -159l-18 -134h303l-23 -159h-303l-123 -885h-176l123 885h-188l22 159h189l20 146q22 149 112 229t241 80q98 0 174 -43l-21 -156q-66 37 -139 37zM1083 1475h177l-207 -1475h-176z" />
    <glyph glyph-name=".notdef" horiz-adv-x="1024" 
d="M840 1597v-2048h-650v2048h650zM682 1460h-338v-67h133v-76h-135v-68h340v68h-135v76h135v67zM547 1196h-205v-213h340v70h-135v143zM477 1126v-73h-67v73h67zM682 928h-340v-68h135v-76h-135v-67h205v143h135v68zM682 805h-68v-135h-272v-70h340v205zM682 555h-205v-115
h70v47h67v-96h-204v164h-68v-231h340v231zM682 201h-340v-232h340v232zM614 133v-96h-204v96h204zM682 -78h-340v-67h143l-143 -97v-67h340v67h-209l143 97h66v67z" />
    <glyph glyph-name=".null" horiz-adv-x="0" 
 />
    <glyph glyph-name="nonmarkingreturn" horiz-adv-x="682" 
 />
    <glyph glyph-name="space" unicode=" " horiz-adv-x="505" 
 />
    <glyph glyph-name="exclam" unicode="!" horiz-adv-x="518" 
d="M160 395l82 670l49 348h186l-49 -348l-104 -670h-164zM184 -14q-55 0 -86.5 36.5t-23.5 90.5q7 55 49 92t96 37q55 0 87 -36.5t24 -92.5q-8 -54 -49.5 -90.5t-96.5 -36.5z" />
    <glyph glyph-name="quotedbl" unicode="&#x22;" horiz-adv-x="823" 
d="M195 920l57 493h174l-80 -493h-151zM590 920l57 493h174l-78 -493h-153z" />
    <glyph glyph-name="numbersign" unicode="#" horiz-adv-x="1556" 
d="M1520 874h-287l-146 -335h277l-23 -154h-321l-168 -385h-164l168 385h-401l-168 -385h-164l166 385h-238l21 154h284l146 335h-273l19 154h321l166 385h166l-168 -385h402l168 385h165l-168 -385h240zM922 539l147 335h-401l-148 -335h402z" />
    <glyph glyph-name="dollar" unicode="$" horiz-adv-x="1165" 
d="M711 795q36 -9 70 -19t77.5 -28.5t79.5 -40t70.5 -53.5t56.5 -68.5t32.5 -86t2.5 -104.5q-24 -166 -164.5 -274t-337.5 -123l-20 -139h-134l21 141q-131 13 -244.5 70.5t-187.5 146.5l117 135q61 -71 149 -120t188 -62l68 471q-401 107 -362 389q23 157 152.5 261.5
t318.5 121.5l20 143h133l-20 -141q116 -12 208 -58.5t146 -115.5l-113 -135q-37 50 -107.5 88.5t-156.5 50.5zM387 1042q-20 -146 195 -215l59 418q-103 -15 -173.5 -70.5t-80.5 -132.5zM903 383q6 48 -10 86t-51 64.5t-72.5 43.5t-85.5 31l-63 -440q114 11 192 67.5
t90 147.5z" />
    <glyph glyph-name="percent" unicode="%" horiz-adv-x="1712" 
d="M467 782q-142 0 -224.5 94t-62.5 234t128.5 234t250.5 94q141 0 222.5 -94t62.5 -234q-20 -140 -128 -234t-249 -94zM176 0l1223 1413h190l-1222 -1413h-191zM485 926q78 0 137.5 53t71.5 131q11 78 -33 131t-122 53t-138.5 -53t-70.5 -131q-12 -78 32.5 -131t122.5 -53z
M1204 -25q-141 0 -222.5 94.5t-61.5 233.5q20 140 128 234t250 94q141 0 223 -94.5t62 -233.5q-20 -140 -129 -234t-250 -94zM1225 119q78 0 138.5 53t70.5 131t-34.5 131t-121.5 53q-78 0 -138.5 -53t-70.5 -131t34.5 -131t121.5 -53z" />
    <glyph glyph-name="ampersand" unicode="&#x26;" horiz-adv-x="1314" 
d="M1307 621q-104 -218 -232 -357l203 -264h-240l-96 127q-195 -152 -432 -152q-223 0 -350 127.5t-99 323.5q10 75 41.5 139.5t80.5 114.5t101 87.5t119 72.5q-109 168 -90 303q19 127 129 211t254 84q147 0 234.5 -83t68.5 -210q-7 -58 -36.5 -108.5t-80 -92.5
t-100.5 -72.5t-120 -64.5l319 -418q105 129 176 287zM496 1143q-11 -86 79 -219q110 53 172 104t70 117q7 63 -33 105t-108 42q-67 0 -119 -42t-61 -107zM541 143q154 0 303 113l-355 465q-102 -58 -162 -125t-73 -158q-19 -128 63.5 -211.5t223.5 -83.5z" />
    <glyph glyph-name="quotesingle" unicode="'" horiz-adv-x="428" 
d="M195 920l57 493h174l-80 -493h-151z" />
    <glyph glyph-name="parenleft" unicode="(" horiz-adv-x="655" 
d="M317 -389q-106 174 -148.5 437.5t-4.5 524.5q37 262 153.5 525.5t272.5 437.5h178q-152 -173 -266.5 -437t-151.5 -526q-38 -261 2.5 -524.5t143.5 -437.5h-179z" />
    <glyph glyph-name="parenright" unicode=")" horiz-adv-x="655" 
d="M-98 -389q152 173 267 436t153 526q37 262 -4 525.5t-144 437.5h178q106 -174 149.5 -438t6.5 -525q-38 -262 -155.5 -525.5t-272.5 -436.5h-178z" />
    <glyph glyph-name="asterisk" unicode="*" horiz-adv-x="772" 
d="M578 1167l38 -18l146 -88l-72 -96l-145 88l-31 28v-45l-25 -178h-112l24 178l13 45l-39 -28l-170 -88l-43 96l170 90l45 16l-41 17l-143 88l69 98l146 -90l32 -29l-2 45l25 179h112l-24 -179l-12 -45l39 29l170 90l43 -98l-170 -90z" />
    <glyph glyph-name="plus" unicode="+" horiz-adv-x="1093" 
d="M987 684l-22 -160h-338l-47 -338h-162l47 338h-334l23 160h335l48 338h161l-47 -338h336z" />
    <glyph glyph-name="comma" unicode="," horiz-adv-x="491" 
d="M-74 -297l213 510h209l-268 -510h-154z" />
    <glyph glyph-name="hyphen" unicode="-" horiz-adv-x="835" 
d="M123 475l24 170h576l-25 -170h-575z" />
    <glyph glyph-name="period" unicode="." horiz-adv-x="481" 
d="M166 -14q-57 0 -90 37.5t-25 93.5t51.5 93.5t100.5 37.5q55 0 87.5 -37.5t24.5 -93.5q-7 -55 -50 -93t-99 -38z" />
    <glyph glyph-name="slash" unicode="/" horiz-adv-x="1044" 
d="M-94 -307l1079 1843h178l-1079 -1843h-178z" />
    <glyph glyph-name="zero" unicode="0" horiz-adv-x="1316" 
d="M582 -25q-159 0 -270 92.5t-156 259t-15 380.5q29 213 121 380t229.5 259t296.5 92q158 0 268.5 -92t156 -259t16.5 -380q-30 -213 -122.5 -380t-229.5 -259.5t-295 -92.5zM608 156q154 0 273.5 153.5t154.5 397.5q34 244 -42.5 397t-231.5 153q-154 0 -274 -153.5
t-154 -396.5q-35 -244 41.5 -397.5t232.5 -153.5z" />
    <glyph glyph-name="one" unicode="1" horiz-adv-x="768" 
d="M582 1413h131l-199 -1413h-186l166 1188l-304 -154l-59 150z" />
    <glyph glyph-name="two" unicode="2" horiz-adv-x="1101" 
d="M1049 1034q-16 -110 -76.5 -201.5t-161.5 -187.5l-504 -469h654l-25 -176h-918l21 150l620 583q85 82 135 151t60 140q15 100 -49.5 163.5t-175.5 63.5q-97 0 -187 -51t-163 -141l-113 119q88 119 220.5 189.5t279.5 70.5q193 0 300.5 -113.5t82.5 -290.5z" />
    <glyph glyph-name="three" unicode="3" horiz-adv-x="1177" 
d="M1128 1065q-15 -106 -86.5 -191.5t-179.5 -128.5q114 -48 171 -143.5t40 -218.5q-26 -179 -185.5 -293.5t-383.5 -114.5q-145 0 -270 53t-203 148l129 139q60 -76 154 -117.5t204 -41.5q144 0 247 71.5t118 180.5t-63.5 181.5t-213.5 72.5h-213l23 161h213
q118 0 204.5 61.5t98.5 153.5q14 95 -60.5 157t-205.5 62q-96 0 -189.5 -36.5t-159.5 -100.5l-84 133q91 87 219.5 136t260.5 49q205 0 321.5 -105.5t93.5 -267.5z" />
    <glyph glyph-name="four" unicode="4" horiz-adv-x="1198" 
d="M1137 494l-25 -177h-184l-45 -317h-187l45 317h-663l-25 152l826 944h202l-129 -919h185zM266 494h500l96 682z" />
    <glyph glyph-name="five" unicode="5" horiz-adv-x="1193" 
d="M1120 1237h-631l-96 -422q131 82 291 82q102 0 187.5 -35t141.5 -95.5t81.5 -145.5t11.5 -181q-28 -200 -196.5 -332.5t-395.5 -132.5q-135 0 -253.5 54t-205.5 157l117 148q60 -84 154 -131t202 -47q151 0 259.5 82.5t125.5 205.5q17 120 -61 200.5t-213 80.5
q-81 0 -160 -29.5t-137 -79.5l-158 52l174 745h787z" />
    <glyph glyph-name="six" unicode="6" horiz-adv-x="1142" 
d="M696 889q196 0 309 -128.5t87 -316.5q-28 -201 -195.5 -335t-392.5 -134q-240 0 -362.5 147.5t-86.5 403.5q29 217 163 409.5t349 326t473 176.5l13 -174q-259 -54 -449.5 -192t-281.5 -322q72 68 172 103.5t202 35.5zM899 442q15 118 -63.5 196.5t-214.5 78.5
q-87 0 -167 -27t-142 -89t-74 -148q-20 -130 60.5 -213.5t231.5 -83.5q141 0 245.5 81t123.5 205z" />
    <glyph glyph-name="seven" unicode="7" horiz-adv-x="1077" 
d="M217 1413h922l-21 -145l-774 -1268h-211l756 1237h-696z" />
    <glyph glyph-name="eight" unicode="8" horiz-adv-x="1202" 
d="M1161 1057q-15 -104 -86.5 -188.5t-181.5 -135.5q109 -52 164.5 -144.5t38.5 -205.5q-23 -173 -188 -290.5t-386 -117.5q-144 0 -254 53.5t-163 147t-37 207.5q17 114 97.5 206t203.5 144q-96 51 -143.5 135.5t-32.5 188.5q22 162 175.5 271.5t360.5 109.5
q208 0 331 -109.5t101 -271.5zM967 1038q12 94 -63 156.5t-199 62.5q-125 0 -217.5 -62.5t-104.5 -156.5q-14 -94 60.5 -157.5t199.5 -63.5q124 0 217 63.5t107 157.5zM905 399q15 104 -67 174t-220 70t-239.5 -70t-116.5 -174t67.5 -173.5t219.5 -69.5q138 0 240.5 69.5
t115.5 173.5z" />
    <glyph glyph-name="nine" unicode="9" horiz-adv-x="1142" 
d="M690 1438q240 0 363 -147.5t88 -403.5q-23 -164 -105.5 -318t-209.5 -277t-301.5 -207.5t-370.5 -109.5l-11 175q261 41 450 182.5t281 333.5q-73 -70 -172.5 -106t-203.5 -36q-196 0 -309 128.5t-87 316.5q19 132 101.5 239.5t210.5 168.5t276 61zM958 961
q19 130 -61.5 213t-232.5 83q-140 0 -245 -81t-122 -205q-17 -117 61.5 -196t214.5 -79q64 0 126.5 16.5t118 47.5t93.5 83.5t47 117.5z" />
    <glyph glyph-name="colon" unicode=":" horiz-adv-x="501" 
d="M279 711q-57 0 -90 37.5t-25 93.5t51 93.5t100 37.5q55 0 88 -37.5t25 -93.5q-7 -55 -50 -93t-99 -38zM176 -14q-57 0 -90 37.5t-25 93.5t51.5 93.5t100.5 37.5q55 0 88 -37.5t25 -93.5q-7 -55 -50.5 -93t-99.5 -38z" />
    <glyph glyph-name="semicolon" unicode=";" horiz-adv-x="528" 
d="M307 711q-57 0 -89 37.5t-23 93.5q8 56 50 93.5t99 37.5t89 -37.5t24 -93.5t-50.5 -93.5t-99.5 -37.5zM-76 -297l213 510h209l-268 -510h-154z" />
    <glyph glyph-name="less" unicode="&#x3c;" horiz-adv-x="950" 
d="M893 1034l-25 -176l-555 -252l484 -252l-25 -176l-641 348l23 160z" />
    <glyph glyph-name="equal" unicode="=" horiz-adv-x="1093" 
d="M156 705l22 159h834l-21 -159h-835zM104 348l23 158h836l-23 -158h-836z" />
    <glyph glyph-name="greater" unicode="&#x3e;" horiz-adv-x="950" 
d="M203 1034l641 -348l-23 -160l-739 -348l24 176l553 252l-481 252z" />
    <glyph glyph-name="question" unicode="?" horiz-adv-x="995" 
d="M375 403l8 66q8 58 40.5 114.5t76 99.5t93 90t92.5 87t75 90t39 99q12 91 -47.5 149.5t-165.5 58.5q-98 0 -194.5 -51t-172.5 -141l-106 121q99 118 233 185t275 67q182 0 287.5 -108t82.5 -267q-8 -58 -34.5 -113t-62.5 -98t-78 -84t-83.5 -78t-76.5 -72t-59.5 -73.5
t-29.5 -75.5l-8 -66h-184zM408 -14q-55 0 -86 36.5t-23 90.5q6 55 47.5 92t97.5 37q55 0 86 -36.5t25 -92.5q-8 -54 -50 -90.5t-97 -36.5z" />
    <glyph glyph-name="at" unicode="@" horiz-adv-x="1730" 
d="M979 1303q209 0 367.5 -92t234 -255.5t47.5 -365.5q-25 -183 -121.5 -295.5t-236.5 -112.5q-84 0 -143 35.5t-78 97.5q-108 -137 -283 -137q-156 0 -243 107t-64 266q23 161 139 268t264 107q162 0 236 -123l14 98h166l-68 -489q-5 -42 17 -69.5t63 -27.5q65 0 117.5 78
t69.5 199q22 159 -38.5 289t-187 203t-293.5 73q-172 0 -322 -78.5t-248.5 -216.5t-121.5 -309q-24 -171 35 -309.5t187 -217.5t300 -79q224 0 392 116l63 -126q-232 -136 -477 -136q-159 0 -292 57.5t-219 157.5t-125 239.5t-17 297.5q23 157 100.5 296.5t192 239t264 157
t309.5 57.5zM817 338q86 0 154 52.5t88 135.5l8 52q2 82 -51 135t-139 53q-93 0 -163.5 -60.5t-82.5 -152.5q-12 -94 41 -154.5t145 -60.5z" />
    <glyph glyph-name="A" unicode="A" horiz-adv-x="1460" 
d="M1137 0l-88 342h-695l-184 -342h-201l774 1413h224l376 -1413h-206zM449 516h555l-179 694z" />
    <glyph glyph-name="B" unicode="B" horiz-adv-x="1273" 
d="M1217 1059q-15 -102 -79 -186.5t-149 -122.5q111 -32 168 -134.5t37 -234.5q-23 -164 -149.5 -272.5t-292.5 -108.5h-660l199 1413h610q156 0 246 -100.5t70 -253.5zM1018 1028q12 93 -40 154t-144 61h-385l-60 -430h385q89 0 160.5 62t83.5 153zM1006 412
q15 102 -44 170.5t-161 68.5h-434l-68 -481h434q102 0 181 70t92 172z" />
    <glyph glyph-name="C" unicode="C" horiz-adv-x="1519" 
d="M752 -25q-156 0 -285 56.5t-213 153.5t-121.5 232.5t-15.5 289.5q28 205 147.5 372.5t302.5 263t391 95.5q193 0 343 -85t229 -233l-174 -100q-60 111 -170 174t-252 63q-153 0 -289 -71.5t-225.5 -198t-110.5 -280.5q-22 -154 31.5 -280.5t169 -198.5t268.5 -72
q144 0 271.5 63t218.5 174l145 -100q-121 -148 -294.5 -233t-366.5 -85z" />
    <glyph glyph-name="D" unicode="D" horiz-adv-x="1515" 
d="M836 1413q202 0 353 -92t221.5 -253.5t43.5 -360.5q-21 -149 -94.5 -280t-181.5 -225t-249 -148t-292 -54h-545l199 1413h545zM1262 707q20 149 -32 270.5t-163 190.5t-258 69h-354l-150 -1061h354q224 0 396.5 152t206.5 379z" />
    <glyph glyph-name="E" unicode="E" horiz-adv-x="1202" 
d="M1192 1237h-737l-62 -438h672l-27 -176h-669l-64 -447h748l-25 -176h-936l199 1413h926z" />
    <glyph glyph-name="F" unicode="F" horiz-adv-x="1136" 
d="M1161 1237h-706l-64 -451h623l-25 -176h-622l-86 -610h-189l199 1413h895z" />
    <glyph glyph-name="G" unicode="G" horiz-adv-x="1619" 
d="M911 752h662l-8 -62q-22 -152 -95 -285t-181 -227.5t-248.5 -148.5t-292.5 -54q-154 0 -282.5 56.5t-212 153.5t-121 232.5t-15.5 289.5q28 205 147.5 372.5t302.5 263t391 95.5q187 0 334 -78t224 -215l-158 -111q-60 105 -170 165.5t-252 60.5q-153 0 -289.5 -72
t-226.5 -199t-111 -282q-22 -155 32 -282t170 -199t269 -72q202 0 364 121.5t212 310.5h-467z" />
    <glyph glyph-name="H" unicode="H" horiz-adv-x="1495" 
d="M1266 1413h188l-199 -1413h-188l88 623h-786l-88 -623h-189l199 1413h188l-86 -614h787z" />
    <glyph glyph-name="I" unicode="I" horiz-adv-x="520" 
d="M92 0l199 1413h188l-198 -1413h-189z" />
    <glyph glyph-name="J" unicode="J" horiz-adv-x="876" 
d="M221 -25q-121 0 -231 56l24 182q105 -57 215 -57q127 0 211 71.5t101 192.5l139 993h186l-139 -1003q-29 -197 -168 -316t-338 -119z" />
    <glyph glyph-name="K" unicode="K" horiz-adv-x="1320" 
d="M1440 1413l-764 -688l588 -725h-246l-488 596l-190 -172l-59 -424h-189l199 1413h188l-102 -733l821 733h242z" />
    <glyph glyph-name="L" unicode="L" horiz-adv-x="1101" 
d="M305 176h686l-24 -176h-875l199 1413h188z" />
    <glyph glyph-name="M" unicode="M" horiz-adv-x="1769" 
d="M1497 1413h232l-199 -1413h-187l158 1128l-596 -831h-104l-363 831l-157 -1128h-189l199 1413h237l367 -838z" />
    <glyph glyph-name="N" unicode="N" horiz-adv-x="1513" 
d="M1284 1413h186l-198 -1413h-193l-645 1102l-153 -1102h-189l199 1413h194l645 -1102z" />
    <glyph glyph-name="O" unicode="O" horiz-adv-x="1658" 
d="M752 -25q-156 0 -285 56.5t-213 153.5t-121.5 232.5t-15.5 289.5q28 205 147.5 372.5t302.5 263t391 95.5t364 -95.5t228.5 -263t44.5 -372.5q-29 -205 -149 -373t-303 -263.5t-391 -95.5zM778 156q233 0 412 158t213 393q22 154 -31.5 280.5t-169 198t-268.5 71.5
t-289 -71.5t-225.5 -198t-110.5 -280.5q-22 -154 31.5 -280.5t169 -198.5t268.5 -72z" />
    <glyph glyph-name="P" unicode="P" horiz-adv-x="1265" 
d="M872 1413q194 0 306 -127t86 -317q-28 -189 -175.5 -316t-340.5 -127h-394l-73 -526h-189l199 1413h581zM1071 969q15 116 -49 192t-178 76h-389l-76 -535h391q113 0 198.5 76t102.5 191z" />
    <glyph glyph-name="Q" unicode="Q" horiz-adv-x="1658" 
d="M1595 707q-24 -174 -116 -322t-232 -248l117 -207l-158 -100l-121 215q-159 -70 -333 -70q-156 0 -285 56.5t-213 153.5t-121.5 232.5t-15.5 289.5q28 205 147.5 372.5t302.5 263t391 95.5t364 -95.5t228.5 -263t44.5 -372.5zM1044 498l117 -209q97 76 160.5 184
t81.5 234q22 154 -31.5 280.5t-169 198t-268.5 71.5t-289 -71.5t-225.5 -198t-110.5 -280.5q-22 -154 31.5 -280.5t169 -198.5t268.5 -72q115 0 221 41l-112 202z" />
    <glyph glyph-name="R" unicode="R" horiz-adv-x="1269" 
d="M1245 983q-25 -171 -155 -289.5t-304 -130.5l351 -563h-228l-344 561h-205l-79 -561h-189l199 1413h573q188 0 297.5 -123t83.5 -307zM1053 981q15 110 -47 183t-170 73h-381l-72 -512h381q107 0 189.5 73t99.5 183z" />
    <glyph glyph-name="S" unicode="S" horiz-adv-x="1210" 
d="M547 -25q-157 0 -297 60.5t-225 163.5l118 141q70 -88 184 -142.5t244 -54.5q142 0 247 65.5t118 166.5q7 49 -13.5 89t-49 64t-84.5 46.5t-86 30.5t-89 22q-5 1 -8 2q-73 16 -135 38.5t-120.5 58t-97 79t-57 105.5t-8.5 134q25 176 181 285t379 109q146 0 260.5 -48
t179.5 -130l-111 -140q-48 64 -144.5 107t-209.5 43q-134 0 -231.5 -61.5t-110.5 -157.5q-26 -173 303 -244q36 -7 70 -16t84.5 -27t92 -39.5t84 -55.5t70 -73.5t41 -94.5t4.5 -118q-16 -119 -98.5 -212.5t-209.5 -144.5t-275 -51z" />
    <glyph glyph-name="T" unicode="T" horiz-adv-x="1212" 
d="M1276 1413l-25 -176h-452l-174 -1237h-187l174 1237h-452l24 176h1092z" />
    <glyph glyph-name="U" unicode="U" horiz-adv-x="1419" 
d="M631 -25q-161 0 -282 74t-177.5 203.5t-34.5 288.5l123 872h186l-120 -868q-25 -166 70 -277.5t261 -111.5q167 0 293.5 111.5t151.5 277.5l121 868h186l-123 -872q-22 -159 -115.5 -288.5t-235.5 -203.5t-304 -74z" />
    <glyph glyph-name="V" unicode="V" horiz-adv-x="1447" 
d="M1325 1413h205l-782 -1413h-197l-383 1413h209l309 -1169z" />
    <glyph glyph-name="W" unicode="W" horiz-adv-x="2088" 
d="M1966 1413h195l-650 -1413h-190l-188 1139l-512 -1139h-191l-252 1413h199l188 -1165l522 1165h168l197 -1165z" />
    <glyph glyph-name="X" unicode="X" horiz-adv-x="1462" 
d="M1528 1413l-641 -704l450 -709h-233l-365 584l-532 -584h-230l650 711l-443 702h232l360 -579l520 579h232z" />
    <glyph glyph-name="Y" unicode="Y" horiz-adv-x="1380" 
d="M1276 1413h211l-703 -891l-73 -522h-189l74 522l-453 891h215l361 -704z" />
    <glyph glyph-name="Z" unicode="Z" horiz-adv-x="1257" 
d="M1284 1413l-18 -135l-973 -1102h831l-24 -176h-1090l21 135l970 1102h-808l24 176h1067z" />
    <glyph glyph-name="bracketleft" unicode="[" horiz-adv-x="679" 
d="M737 1370h-260l-225 -1593h262l-25 -166h-442l272 1925h443z" />
    <glyph glyph-name="backslash" unicode="\" horiz-adv-x="1044" 
d="M725 -307l-559 1843h178l559 -1843h-178z" />
    <glyph glyph-name="bracketright" unicode="]" horiz-adv-x="679" 
d="M205 1536h442l-272 -1925h-443l25 166h260l225 1593h-262z" />
    <glyph glyph-name="asciicircum" unicode="^" horiz-adv-x="845" 
d="M815 920h-162l-125 348l-223 -348h-164l324 493h166z" />
    <glyph glyph-name="underscore" unicode="_" horiz-adv-x="1060" 
d="M-39 -313l21 149h903l-21 -149h-903z" />
    <glyph glyph-name="grave" unicode="`" horiz-adv-x="438" 
d="M344 1182l-215 264h227l176 -264h-188z" />
    <glyph glyph-name="a" unicode="a" 
d="M1087 1044h177l-148 -1044h-176l27 188q-81 -100 -195.5 -156.5t-241.5 -56.5q-147 0 -256.5 71.5t-159 196.5t-28.5 279q32 233 204 390t396 157q128 0 225 -56.5t150 -158.5zM588 145q158 0 279.5 105.5t146.5 265.5v6q23 161 -68.5 269t-251.5 108q-161 0 -283 -107.5
t-145 -269.5q-22 -162 69.5 -269.5t252.5 -107.5z" />
    <glyph glyph-name="b" unicode="b" 
d="M809 1069q147 0 257 -71.5t160 -197t29 -278.5q-32 -233 -205 -390t-397 -157q-128 0 -224 56.5t-150 158.5l-27 -190h-176l207 1475h176l-86 -621q81 101 194 158t242 57zM1073 522q22 162 -69 269.5t-252 107.5q-160 0 -282 -108t-144 -269q-23 -161 68 -269t251 -108
q161 0 283 107.5t145 269.5z" />
    <glyph glyph-name="c" unicode="c" horiz-adv-x="1179" 
d="M561 -25q-156 0 -273.5 71.5t-172 197t-33.5 278.5t111.5 278.5t229 197t294.5 71.5q153 0 268.5 -70t171.5 -192l-168 -92q-36 85 -114.5 134.5t-182.5 49.5q-161 0 -283.5 -108t-144.5 -269q-22 -162 69.5 -269.5t252.5 -107.5q104 0 197.5 50t152.5 135l141 -92
q-91 -122 -227 -192.5t-289 -70.5z" />
    <glyph glyph-name="d" unicode="d" 
d="M1147 1475h176l-207 -1475h-176l27 188q-83 -100 -196.5 -156.5t-240.5 -56.5q-147 0 -256.5 71.5t-159 196.5t-28.5 279q32 233 204 390t396 157q127 0 223.5 -56.5t151.5 -156.5zM588 145q154 0 273.5 100.5t148.5 254.5l6 43q15 154 -76 255t-246 101
q-161 0 -283 -107.5t-145 -269.5q-22 -162 69.5 -269.5t252.5 -107.5z" />
    <glyph glyph-name="e" unicode="e" horiz-adv-x="1251" 
d="M709 1069q153 0 268 -71t168 -196.5t31 -279.5q-2 -23 -15 -78h-901q8 -138 101.5 -222.5t242.5 -84.5q111 0 212 47.5t165 122.5l109 -104q-97 -106 -231.5 -167t-283.5 -61q-121 0 -221 42.5t-165 115.5t-94 175t-13 218q22 152 111.5 276.5t225.5 195.5t290 71z
M684 907q-136 0 -247 -84.5t-154 -218.5h716q-5 136 -91.5 219.5t-223.5 83.5z" />
    <glyph glyph-name="f" unicode="f" horiz-adv-x="782" 
d="M719 1337q-170 0 -193 -159l-18 -134h303l-23 -159h-303l-123 -885h-176l123 885h-188l22 159h189l20 146q22 149 112 229t241 80q98 0 174 -43l-21 -156q-66 37 -139 37z" />
    <glyph glyph-name="g" unicode="g" horiz-adv-x="1150" 
d="M1149 1182h82l-25 -164h-69q-56 0 -97 -31t-51 -82q87 -123 66 -289q-28 -193 -183 -323.5t-358 -130.5q-119 0 -215 49q-34 -21 -56.5 -52.5t-25.5 -64.5q-7 -55 28 -88t101 -33h383q149 0 235 -75t83 -205l-189 -47q7 70 -43 112.5t-141 42.5h-383q-131 0 -202 68.5
t-56 179.5q11 74 55.5 138t110.5 98q-126 129 -99 331q26 193 181.5 323t359.5 130q139 0 244 -65q28 82 98.5 130t165.5 48zM872 616q17 122 -55.5 203.5t-198.5 81.5q-127 0 -222.5 -81.5t-112.5 -203.5q-17 -123 55.5 -204.5t198.5 -81.5t222 81.5t113 204.5z" />
    <glyph glyph-name="h" unicode="h" horiz-adv-x="1261" 
d="M780 1069q191 0 291 -116t74 -308l-92 -645h-176l84 590q20 139 -51.5 224t-209.5 85q-142 0 -241.5 -82t-122.5 -217l-84 -600h-176l207 1475h176l-84 -598q154 192 405 192z" />
    <glyph glyph-name="i" unicode="i" horiz-adv-x="473" 
d="M340 1253q-51 0 -79.5 33.5t-22.5 83.5q7 51 45.5 84t89.5 33t79 -33t21 -84q-6 -49 -44.5 -83t-88.5 -34zM76 0l147 1044h176l-147 -1044h-176z" />
    <glyph glyph-name="j" unicode="j" horiz-adv-x="485" 
d="M350 1253q-49 0 -77.5 33.5t-22.5 83.5q6 51 45 84t90 33q50 0 78 -33t22 -84q-8 -50 -46 -83.5t-89 -33.5zM-78 -414q-70 0 -129 27l23 158q44 -23 98 -23q138 0 158 141l161 1155h177l-164 -1173q-20 -136 -103.5 -210.5t-220.5 -74.5z" />
    <glyph glyph-name="k" unicode="k" horiz-adv-x="1075" 
d="M1128 1044l-538 -493l405 -551h-233l-318 420l-153 -141l-39 -279h-176l207 1475h176l-135 -961l575 530h229z" />
    <glyph glyph-name="l" unicode="l" horiz-adv-x="473" 
d="M76 0l207 1475h176l-207 -1475h-176z" />
    <glyph glyph-name="m" unicode="m" horiz-adv-x="1925" 
d="M1475 1069q180 0 271.5 -107.5t65.5 -287.5l-94 -674h-176l88 625q17 125 -46 199.5t-187 74.5q-122 0 -210.5 -70.5t-111.5 -187.5l-90 -641h-176l88 625q17 125 -46 199.5t-187 74.5q-120 0 -207 -67t-113 -179l-92 -653h-176l147 1044h176l-20 -141q144 166 366 166
q122 0 205.5 -53.5t116.5 -149.5q73 97 178 150t230 53z" />
    <glyph glyph-name="n" unicode="n" horiz-adv-x="1261" 
d="M780 1069q191 0 291 -116t74 -308l-92 -645h-176l84 590q20 140 -52 224.5t-211 84.5q-138 0 -236 -79t-124 -210l-86 -610h-176l147 1044h176l-22 -159q152 184 403 184z" />
    <glyph glyph-name="o" unicode="o" horiz-adv-x="1275" 
d="M561 -25q-156 0 -273.5 71.5t-172 197t-33.5 278.5t111.5 278.5t229 197t294.5 71.5q236 0 372.5 -157t104.5 -390q-21 -153 -111.5 -278.5t-228.5 -197t-293 -71.5zM586 145q160 0 282 108t144 269q23 161 -68.5 269t-251.5 108q-161 0 -283.5 -108t-144.5 -269
q-22 -162 69.5 -269.5t252.5 -107.5z" />
    <glyph glyph-name="p" unicode="p" 
d="M809 1069q147 0 257 -71.5t160 -197t29 -278.5q-32 -233 -205 -390t-397 -157q-128 0 -224 56.5t-150 158.5l-82 -579h-177l203 1433h176l-26 -188q81 100 195 156.5t241 56.5zM1073 522q22 162 -69 269.5t-252 107.5q-160 0 -282 -108t-144 -269q-23 -161 68 -269
t251 -108q161 0 283 107.5t145 269.5z" />
    <glyph glyph-name="q" unicode="q" 
d="M1087 1044h177l-203 -1433h-176l82 577q-83 -100 -196.5 -156.5t-240.5 -56.5q-147 0 -256.5 71.5t-159 196.5t-28.5 279q32 233 204 390t396 157q128 0 225 -56.5t150 -158.5zM588 145q157 0 277.5 103t146.5 260l4 24q19 158 -73 262.5t-249 104.5q-161 0 -283 -107.5
t-145 -269.5q-22 -162 69.5 -269.5t252.5 -107.5z" />
    <glyph glyph-name="r" unicode="r" horiz-adv-x="757" 
d="M758 1061h35l-25 -182h-37q-162 0 -271 -94.5t-132 -254.5l-76 -530h-176l147 1044h176l-24 -178q73 94 171 144.5t212 50.5z" />
    <glyph glyph-name="s" unicode="s" horiz-adv-x="985" 
d="M414 -25q-131 0 -232.5 45t-167.5 119l117 127q108 -131 303 -131q106 0 180 39.5t84 108.5q4 29 -7.5 52.5t-28.5 38.5t-54 29.5t-64 22t-77 20.5q-66 17 -103.5 28.5t-92.5 38t-82.5 56.5t-45 80t-8.5 113q14 98 80.5 169t160.5 104.5t204 33.5q223 0 362 -143
l-115 -129q-100 112 -270 112q-95 0 -162 -36t-76 -101q-3 -21 2 -39.5t14 -32t28.5 -26t36 -20.5t46.5 -17t50 -14.5t57 -14.5q46 -11 73 -18.5t69.5 -22.5t67.5 -29.5t54 -38.5t43 -51t21.5 -65.5t1.5 -83.5q-23 -151 -154.5 -237.5t-314.5 -86.5z" />
    <glyph glyph-name="t" unicode="t" horiz-adv-x="827" 
d="M489 885l-81 -578q-20 -162 145 -162q72 0 152 39l-23 -166q-87 -43 -190 -43q-151 0 -218 79t-47 225l86 606h-188l22 159h189l39 281h176l-39 -281h313l-22 -159h-314z" />
    <glyph glyph-name="u" unicode="u" horiz-adv-x="1212" 
d="M528 -25q-213 0 -325 120.5t-84 318.5l88 630h176l-86 -606q-17 -132 53 -212.5t203 -80.5q134 0 226.5 80.5t109.5 212.5l88 606h176l-90 -630q-28 -198 -174.5 -318.5t-360.5 -120.5z" />
    <glyph glyph-name="v" unicode="v" horiz-adv-x="1161" 
d="M1010 1044h196l-606 -1044h-186l-312 1044h203l236 -833z" />
    <glyph glyph-name="w" unicode="w" horiz-adv-x="1781" 
d="M1628 1044h193l-531 -1044h-184l-170 838l-408 -838h-184l-235 1044h198l164 -829l406 829h180l172 -827z" />
    <glyph glyph-name="x" unicode="x" horiz-adv-x="1163" 
d="M1174 1044l-472 -520l330 -524h-217l-252 406l-364 -406h-215l477 524l-324 520h215l248 -403l358 403h216z" />
    <glyph glyph-name="y" unicode="y" horiz-adv-x="1161" 
d="M1010 1044h196l-739 -1265q-54 -91 -132.5 -142t-164.5 -51q-62 0 -124.5 28t-100.5 73l92 135q22 -30 56.5 -48t72.5 -18q90 0 149 94l97 154l-310 1040h203l236 -833z" />
    <glyph glyph-name="z" unicode="z" horiz-adv-x="1024" 
d="M993 1044l-20 -126l-686 -748h596l-23 -170h-844l21 127l684 747h-574l25 170h821z" />
    <glyph glyph-name="braceleft" unicode="{" horiz-adv-x="821" 
d="M715 1536h188l-22 -166h-125q-56 0 -98.5 -38t-49.5 -95l-71 -508q-7 -52 -42.5 -93.5t-88.5 -60.5q47 -20 70.5 -61.5t17.5 -93.5l-72 -510q-9 -57 22 -95t86 -38h125l-24 -166h-189q-107 0 -166.5 69.5t-44.5 178.5l74 518q8 51 -18.5 83t-75.5 32h-80l23 165h79
q50 0 85.5 32t41.5 83l74 516q15 109 94.5 178.5t186.5 69.5z" />
    <glyph glyph-name="bar" unicode="|" horiz-adv-x="577" 
d="M78 -389l272 1925h162l-272 -1925h-162z" />
    <glyph glyph-name="braceright" unicode="}" horiz-adv-x="821" 
d="M625 657h80l-23 -165h-80q-48 0 -84 -32t-43 -83l-72 -518q-15 -108 -94.5 -178t-187.5 -70h-189l25 166h123q57 0 98 38t49 95l74 510q6 52 41.5 93t89.5 62q-48 19 -71.5 60.5t-16.5 93.5l72 508q8 57 -23 95t-88 38h-125l25 166h188q107 0 166.5 -69.5t44.5 -178.5
l-74 -516q-6 -51 21 -83t74 -32z" />
    <glyph glyph-name="asciitilde" unicode="~" horiz-adv-x="1132" 
d="M737 455q-44 0 -82.5 14.5t-65.5 35.5t-52 41.5t-53 35t-58 14.5q-54 0 -93.5 -35.5t-47.5 -89.5h-162q18 133 96 216t203 83q44 0 82.5 -14.5t65.5 -35t52 -41.5t53 -35.5t58 -14.5q53 0 93.5 35.5t47.5 89.5h162q-20 -132 -97.5 -215.5t-201.5 -83.5z" />
    <glyph glyph-name="uni00A0" unicode="&#xa0;" horiz-adv-x="505" 
 />
    <glyph glyph-name="exclamdown" unicode="&#xa1;" horiz-adv-x="518" 
d="M299 803q-55 0 -87 36.5t-24 92.5q7 54 49.5 90.5t96.5 36.5q55 0 86.5 -36.5t23.5 -90.5q-6 -55 -47.5 -92t-97.5 -37zM41 -369l49 349l107 669h163l-84 -669l-49 -349h-186z" />
    <glyph glyph-name="cent" unicode="&#xa2;" horiz-adv-x="1245" 
d="M705 334q166 27 278 170l147 -84q-80 -109 -197.5 -177t-252.5 -81l-23 -162h-125l23 160q-215 22 -333.5 175t-86.5 370q31 219 192 371.5t382 174.5l22 162h125l-22 -164q129 -13 227.5 -81t146.5 -175l-170 -84q-35 68 -93.5 112t-135.5 56zM317 705
q-22 -142 52.5 -245.5t210.5 -125.5l104 745q-141 -20 -244 -124.5t-123 -249.5z" />
    <glyph glyph-name="sterling" unicode="&#xa3;" horiz-adv-x="1185" 
d="M831 1438q117 0 214 -48t161 -130l-116 -136q-52 63 -125 98t-158 35q-123 0 -214 -76t-108 -192l-32 -241h436l-23 -162h-436l-57 -410h688l-25 -176h-1009l24 176h133l58 410h-133l22 162h133l33 241q28 192 180.5 320.5t353.5 128.5z" />
    <glyph glyph-name="currency" unicode="&#xa4;" horiz-adv-x="1097" 
d="M967 707q-18 -117 -97 -213l109 -127l-123 -109l-113 131q-102 -57 -219 -57q-120 0 -205 57l-149 -131l-96 109l147 129q-50 96 -33 211q14 114 95 215l-111 129l123 108l117 -131q99 55 217 55q116 0 202 -55l152 131l92 -110l-145 -127q52 -93 37 -215zM340 707
q-13 -101 45 -168.5t158 -67.5q102 0 179.5 67.5t90.5 168.5q14 103 -44 171t-159 68q-102 0 -179.5 -68.5t-90.5 -170.5z" />
    <glyph glyph-name="yen" unicode="&#xa5;" horiz-adv-x="1312" 
d="M1389 1413l-553 -770h217l-21 -143h-287l-16 -119h287l-21 -145h-286l-33 -236h-187l33 236h-284l22 145h283l16 119h-283l19 143h215l-336 770h211l301 -704l498 704h205z" />
    <glyph glyph-name="brokenbar" unicode="&#xa6;" horiz-adv-x="577" 
d="M231 696l119 840h162l-119 -840h-162zM78 -389l119 840h161l-118 -840h-162z" />
    <glyph glyph-name="section" unicode="&#xa7;" horiz-adv-x="1083" 
d="M649 948q78 -16 136.5 -40.5t102.5 -60.5t63 -87.5t10 -116.5q-13 -91 -72 -160.5t-148 -109.5q160 -88 140 -250q-14 -96 -79 -169.5t-162.5 -112t-211.5 -38.5q-113 0 -206.5 37t-153.5 101l90 110q39 -51 111 -81.5t159 -30.5q110 0 188 50.5t89 125.5
q19 132 -238 188q-75 17 -131.5 41.5t-100 61.5t-62 89.5t-9.5 118.5q13 89 69.5 158.5t141.5 108.5q-152 84 -131 247q20 139 146 224.5t296 85.5q108 0 198 -34t144 -95l-86 -109q-41 47 -109.5 75t-148.5 28q-105 0 -180 -47.5t-86 -118.5q-9 -69 53.5 -117t177.5 -72z
M782 625q18 135 -207 182q-91 -3 -157.5 -53.5t-75.5 -122.5q-9 -68 41.5 -115t155.5 -70q95 3 164.5 54t78.5 125z" />
    <glyph glyph-name="dieresis" unicode="&#xa8;" horiz-adv-x="643" 
d="M203 1192q-46 0 -73 31t-21 77q6 45 43.5 77t83.5 32q45 0 71.5 -31.5t20.5 -77.5t-42 -77t-83 -31zM627 1192q-46 0 -73.5 31t-21.5 77t42.5 77.5t82.5 31.5t73.5 -31.5t21.5 -77.5q-6 -45 -42.5 -76.5t-82.5 -31.5z" />
    <glyph glyph-name="copyright" unicode="&#xa9;" horiz-adv-x="1687" 
d="M766 -25q-154 0 -281.5 56.5t-210.5 153.5t-120 232.5t-15 289.5q28 205 147 372.5t300.5 263t386.5 95.5t359 -95.5t226 -263t44 -372.5q-29 -205 -148.5 -373t-301 -263.5t-386.5 -95.5zM784 98q169 0 318.5 79.5t248 219.5t122.5 310t-35.5 309.5t-187 219
t-296.5 79.5t-318 -79.5t-247.5 -218.5t-122.5 -310q-24 -170 35.5 -310t186.5 -219.5t296 -79.5zM823 299q-173 0 -274 117.5t-76 290.5q25 174 158 290.5t307 116.5q116 0 202.5 -52t125.5 -142l-136 -64q-27 57 -82 89t-130 32q-114 0 -201.5 -78t-102.5 -192
q-17 -114 48.5 -192.5t179.5 -78.5q74 0 139.5 32.5t108.5 88.5l116 -63q-64 -90 -165.5 -142.5t-217.5 -52.5z" />
    <glyph glyph-name="ordfeminine" unicode="&#xaa;" horiz-adv-x="806" 
d="M694 1415h131l-77 -557h-132l13 90q-92 -106 -219 -106q-119 0 -187 84.5t-51 210.5q19 126 110.5 210.5t209.5 84.5q62 0 111 -28.5t79 -78.5zM457 961q74 0 131 50.5t67 125.5v2q11 74 -32.5 124t-116.5 50q-74 0 -131.5 -50.5t-67.5 -125.5t33 -125.5t117 -50.5z" />
    <glyph glyph-name="guillemotleft" unicode="&#xab;" horiz-adv-x="1234" 
d="M696 956l-397 -415l283 -416h-209l-283 416l399 415h207zM1200 956l-397 -415l280 -416h-209l-282 416l399 415h209z" />
    <glyph glyph-name="logicalnot" unicode="&#xac;" horiz-adv-x="1093" 
d="M154 684h833l-72 -498h-161l49 338h-672z" />
    <glyph glyph-name="uni00AD" unicode="&#xad;" horiz-adv-x="835" 
d="M123 475l24 170h576l-25 -170h-575z" />
    <glyph glyph-name="registered" unicode="&#xae;" horiz-adv-x="915" 
d="M588 1438q158 0 249 -106.5t68 -266.5q-22 -158 -143 -264.5t-281 -106.5q-158 0 -249.5 106.5t-69.5 264.5q23 160 144.5 266.5t281.5 106.5zM831 1065q19 129 -54 216t-199 87q-127 0 -224.5 -86.5t-117.5 -216.5q-17 -129 56.5 -215t201.5 -86q126 0 222 86t115 215z
M602 1276q53 0 83.5 -35.5t23.5 -87.5q-6 -44 -38 -78t-75 -43l86 -147h-78l-84 145h-45l-20 -145h-68l53 391h162zM641 1153q4 28 -10.5 46t-40.5 18h-90l-17 -125h88q27 0 47 17t23 44z" />
    <glyph glyph-name="macron" unicode="&#xaf;" horiz-adv-x="485" 
d="M98 1212l21 150h485l-20 -150h-486z" />
    <glyph glyph-name="degree" unicode="&#xb0;" horiz-adv-x="792" 
d="M440 844q-128 0 -201.5 85t-56.5 214q19 126 117 210.5t227 84.5q127 0 201 -84.5t57 -210.5q-19 -129 -117 -214t-227 -85zM461 985q67 0 118 45t60 113q9 66 -29 110.5t-104 44.5q-67 0 -118 -44.5t-60 -110.5q-9 -68 29 -113t104 -45z" />
    <glyph glyph-name="plusminus" unicode="&#xb1;" horiz-adv-x="1093" 
d="M670 821h338l-23 -157h-338l-35 -254h-163l36 254h-335l22 157h334l37 254h162zM72 115l22 159h836l-23 -159h-835z" />
    <glyph glyph-name="uni00B2" unicode="&#xb2;" horiz-adv-x="657" 
d="M707 1364q-15 -120 -142 -234l-278 -256h370l-18 -124h-555l16 106l359 338q104 99 112 164q7 55 -28.5 89t-96.5 34q-103 0 -198 -109l-80 84q55 72 135.5 114t169.5 42q118 0 183.5 -70t50.5 -178z" />
    <glyph glyph-name="uni00B3" unicode="&#xb3;" horiz-adv-x="681" 
d="M743 1386q-9 -62 -49.5 -112t-103.5 -78q65 -30 97 -87t22 -128q-15 -107 -112 -176.5t-232 -69.5q-89 0 -165.5 31.5t-123.5 89.5l90 98q35 -44 90 -68t117 -24q81 0 137.5 39t64.5 98q7 60 -37 99t-118 39h-127l16 114h127q66 0 114 32.5t56 82.5q6 52 -36.5 85.5
t-114.5 33.5q-54 0 -107.5 -20.5t-91.5 -55.5l-59 96q57 51 133.5 79t156.5 28q126 0 198 -64t58 -162z" />
    <glyph glyph-name="acute" unicode="&#xb4;" horiz-adv-x="438" 
d="M92 1182l250 264h227l-288 -264h-189z" />
    <glyph glyph-name="paragraph" unicode="&#xb6;" horiz-adv-x="1232" 
d="M1202 1413l-254 -1802h-151l233 1651h-172l-233 -1651h-154l137 969h-116q-178 0 -281 119t-78 296q25 178 161.5 298t313.5 120h594z" />
    <glyph glyph-name="periodcentered" unicode="&#xb7;" horiz-adv-x="522" 
d="M250 430q-57 0 -90 37.5t-25 93.5t51.5 93.5t100.5 37.5q55 0 87.5 -37.5t24.5 -93.5q-7 -55 -50 -93t-99 -38z" />
    <glyph glyph-name="cedilla" unicode="&#xb8;" horiz-adv-x="413" 
d="M143 -70q80 0 125.5 -55.5t32.5 -136.5q-11 -85 -80.5 -143t-161.5 -58q-60 0 -107.5 28t-76.5 75l78 73q17 -34 49 -54.5t70 -20.5q46 0 80 28.5t38 71.5q7 41 -17.5 69.5t-66.5 28.5t-75 -29l-94 46l133 147v4h127v-4l-68 -70h14z" />
    <glyph glyph-name="uni00B9" unicode="&#xb9;" horiz-adv-x="471" 
d="M424 1597h94l-119 -847h-133l99 690l-170 -88l-43 106z" />
    <glyph glyph-name="ordmasculine" unicode="&#xba;" horiz-adv-x="790" 
d="M440 842q-132 0 -208.5 84.5t-59.5 210.5q19 126 118.5 210.5t231.5 84.5q131 0 209.5 -85t59.5 -210q-17 -126 -118.5 -210.5t-232.5 -84.5zM457 961q74 0 131.5 50.5t66.5 125.5q10 75 -32.5 125.5t-116.5 50.5t-131.5 -50.5t-67.5 -125.5t33 -125.5t117 -50.5z" />
    <glyph glyph-name="guillemotright" unicode="&#xbb;" horiz-adv-x="1234" 
d="M371 956l282 -415l-399 -416h-207l397 416l-282 415h209zM872 956l283 -415l-397 -416h-209l399 416l-282 415h206z" />
    <glyph glyph-name="onequarter" unicode="&#xbc;" horiz-adv-x="1548" 
d="M1296 1413h166l-1188 -1413h-165zM340 1255l-170 -88l-43 107l272 139h95l-119 -848h-133zM1485 305l-19 -125h-102l-25 -180h-133l25 180h-385l-17 109l484 559h145l-76 -543h103zM971 305h278l54 387z" />
    <glyph glyph-name="onehalf" unicode="&#xbd;" horiz-adv-x="1613" 
d="M1296 1413h166l-1188 -1413h-165zM340 1255l-170 -88l-43 107l272 139h95l-119 -848h-133zM1559 614q-15 -119 -142 -233l-278 -256h370l-18 -125h-555l16 106l359 338q104 99 112 164q7 55 -28.5 89t-96.5 34q-104 0 -198 -108l-80 84q55 72 135.5 113.5t169.5 41.5
q118 0 183.5 -70t50.5 -178z" />
    <glyph glyph-name="threequarters" unicode="&#xbe;" horiz-adv-x="1677" 
d="M684 797q-15 -107 -112 -176.5t-232 -69.5q-89 0 -165.5 31.5t-123.5 89.5l90 98q35 -44 90 -68t117 -24q81 0 138 39t65 98q7 60 -37.5 98.5t-118.5 38.5h-127l17 115h127q66 0 114 32.5t56 82.5q6 52 -37 85t-115 33q-54 0 -107.5 -20t-91.5 -55l-59 96q56 50 133.5 78
t157.5 28q126 0 198 -63.5t58 -161.5q-9 -61 -50 -111.5t-104 -78.5q65 -30 97 -87t22 -128zM1425 1413h166l-1188 -1413h-165zM1614 305l-19 -125h-102l-25 -180h-133l25 180h-385l-17 109l484 559h145l-76 -543h103zM1100 305h278l54 387z" />
    <glyph glyph-name="questiondown" unicode="&#xbf;" horiz-adv-x="960" 
d="M549 803q-55 0 -86 36.5t-25 92.5q8 54 50.5 90.5t97.5 36.5t86 -36.5t22 -90.5q-6 -55 -47.5 -92t-97.5 -37zM375 -393q-182 0 -289 108t-84 267q10 67 44 130.5t78 109.5t95 94t94 86.5t75 84t38 88.5l8 66h187l-11 -66q-10 -68 -53.5 -133.5t-99.5 -118t-112 -103
t-99 -108.5t-51 -116q-12 -91 48 -150t165 -59q98 0 194 51t172 142l107 -121q-99 -118 -232.5 -185t-273.5 -67z" />
    <glyph glyph-name="Agrave" unicode="&#xc0;" horiz-adv-x="1460" 
d="M981 1550h-188l-215 265h227zM1137 0l-88 342h-695l-184 -342h-201l774 1413h224l376 -1413h-206zM449 516h555l-179 694z" />
    <glyph glyph-name="Aacute" unicode="&#xc1;" horiz-adv-x="1460" 
d="M1241 1815l-289 -265h-188l250 265h227zM1137 0l-88 342h-695l-184 -342h-201l774 1413h224l376 -1413h-206zM449 516h555l-179 694z" />
    <glyph glyph-name="Acircumflex" unicode="&#xc2;" horiz-adv-x="1460" 
d="M897 1720l-170 -170h-168l244 265h215l168 -265h-168zM1137 0l-88 342h-695l-184 -342h-201l774 1413h224l376 -1413h-206zM449 516h555l-179 694z" />
    <glyph glyph-name="Atilde" unicode="&#xc3;" horiz-adv-x="1460" 
d="M772 1675q-43 0 -76 -29.5t-39 -72.5h-127q14 105 80 173.5t162 68.5q41 0 77 -17.5t56.5 -38t49.5 -38t59 -17.5q43 0 75.5 29t38.5 73h127q-14 -106 -79 -174.5t-160 -68.5q-43 0 -79 17.5t-57 38.5t-49.5 38.5t-58.5 17.5zM1137 0l-88 342h-695l-184 -342h-201
l774 1413h224l376 -1413h-206zM449 516h555l-179 694z" />
    <glyph glyph-name="Adieresis" unicode="&#xc4;" horiz-adv-x="1460" 
d="M662 1561q-46 0 -73.5 31t-21.5 77q6 45 43.5 77t83.5 32q45 0 71.5 -31.5t20.5 -77.5t-41.5 -77t-82.5 -31zM1085 1561q-46 0 -73 31t-21 77t42.5 77.5t82.5 31.5t73 -31.5t21 -77.5q-6 -45 -42.5 -76.5t-82.5 -31.5zM1137 0l-88 342h-695l-184 -342h-201l774 1413h224
l376 -1413h-206zM449 516h555l-179 694z" />
    <glyph glyph-name="Aring" unicode="&#xc5;" horiz-adv-x="1460" 
d="M868 1522q-75 0 -118.5 50.5t-34.5 125.5q10 73 69 123.5t134 50.5q76 0 120 -50t35 -124q-10 -75 -69 -125.5t-136 -50.5zM813 1698q-4 -36 16 -60t54 -24t61 24t31 60q4 35 -16 58.5t-54 23.5t-61 -23.5t-31 -58.5zM1137 0l-88 342h-695l-184 -342h-201l774 1413h224
l376 -1413h-206zM449 516h555l-179 694z" />
    <glyph glyph-name="AE" unicode="&#xc6;" horiz-adv-x="1855" 
d="M1845 1237h-657l-62 -438h590l-24 -176h-590l-64 -447h668l-25 -176h-854l47 340h-530l-254 -340h-215l1057 1413h938zM471 512h428l100 709z" />
    <glyph glyph-name="Ccedilla" unicode="&#xc7;" horiz-adv-x="1519" 
d="M778 156q144 0 271.5 63t218.5 174l145 -100q-110 -135 -267 -219t-333 -97l-49 -49h14q80 0 125.5 -55.5t32.5 -136.5q-11 -85 -80.5 -143t-161.5 -58q-60 0 -107.5 28t-76.5 75l78 73q18 -34 49.5 -55t69.5 -21q46 0 79.5 29t38.5 72q7 41 -17.5 69.5t-66.5 28.5
t-75 -29l-95 45l115 127q-190 15 -329.5 114t-203 260.5t-36.5 355.5q28 205 147.5 372.5t302.5 263t391 95.5q193 0 343 -85t229 -233l-174 -100q-60 111 -170 174t-252 63q-153 0 -289 -71.5t-225.5 -198t-110.5 -280.5q-22 -154 31.5 -280.5t169 -198.5t268.5 -72z" />
    <glyph glyph-name="Egrave" unicode="&#xc8;" horiz-adv-x="1202" 
d="M889 1550h-189l-215 265h228zM1192 1237h-737l-62 -438h672l-27 -176h-669l-64 -447h748l-25 -176h-936l199 1413h926z" />
    <glyph glyph-name="Eacute" unicode="&#xc9;" horiz-adv-x="1202" 
d="M1149 1815l-289 -265h-188l250 265h227zM1192 1237h-737l-62 -438h672l-27 -176h-669l-64 -447h748l-25 -176h-936l199 1413h926z" />
    <glyph glyph-name="Ecircumflex" unicode="&#xca;" horiz-adv-x="1202" 
d="M805 1720l-170 -170h-168l244 265h215l168 -265h-168zM1192 1237h-737l-62 -438h672l-27 -176h-669l-64 -447h748l-25 -176h-936l199 1413h926z" />
    <glyph glyph-name="Edieresis" unicode="&#xcb;" horiz-adv-x="1202" 
d="M569 1561q-46 0 -73 31t-21 77q6 45 43.5 77t83.5 32q45 0 71.5 -31.5t20.5 -77.5t-42 -77t-83 -31zM993 1561q-46 0 -73 31t-21 77t42.5 77.5t82.5 31.5t73 -31.5t21 -77.5q-6 -45 -42.5 -76.5t-82.5 -31.5zM1192 1237h-737l-62 -438h672l-27 -176h-669l-64 -447h748
l-25 -176h-936l199 1413h926z" />
    <glyph glyph-name="Igrave" unicode="&#xcc;" horiz-adv-x="520" 
d="M326 1550l-215 265h227l176 -265h-188zM92 0l199 1413h188l-198 -1413h-189z" />
    <glyph glyph-name="Iacute" unicode="&#xcd;" horiz-adv-x="520" 
d="M297 1550l250 265h227l-289 -265h-188zM92 0l199 1413h188l-198 -1413h-189z" />
    <glyph glyph-name="Icircumflex" unicode="&#xce;" horiz-adv-x="520" 
d="M551 1815l168 -265h-168l-121 170l-170 -170h-168l244 265h215zM92 0l199 1413h188l-198 -1413h-189z" />
    <glyph glyph-name="Idieresis" unicode="&#xcf;" horiz-adv-x="520" 
d="M195 1561q-46 0 -73.5 31t-21.5 77q6 45 43.5 77t83.5 32q45 0 71.5 -31.5t20.5 -77.5t-41.5 -77t-82.5 -31zM618 1561q-46 0 -73 31t-21 77t42.5 77.5t82.5 31.5t73 -31.5t21 -77.5q-6 -45 -42.5 -76.5t-82.5 -31.5zM92 0l199 1413h188l-198 -1413h-189z" />
    <glyph glyph-name="Eth" unicode="&#xd0;" horiz-adv-x="1515" 
d="M836 1413q202 0 353 -92t221.5 -253.5t43.5 -360.5q-21 -149 -94.5 -280t-181.5 -225t-249 -148t-292 -54h-545l90 643h-141l16 129h144l90 641h545zM1262 707q20 149 -32 270.5t-163 190.5t-258 69h-354l-66 -465h262l-16 -129h-264l-66 -467h354q224 0 396.5 152
t206.5 379z" />
    <glyph glyph-name="Ntilde" unicode="&#xd1;" horiz-adv-x="1513" 
d="M803 1675q-43 0 -76 -29.5t-39 -72.5h-127q14 105 80 173.5t162 68.5q41 0 76.5 -17.5t56.5 -38t49.5 -38t58.5 -17.5q43 0 76 29t39 73h127q-14 -106 -79 -174.5t-160 -68.5q-43 0 -79 17.5t-57 38.5t-49.5 38.5t-58.5 17.5zM1284 1413h186l-198 -1413h-193l-645 1102
l-153 -1102h-189l199 1413h194l645 -1102z" />
    <glyph glyph-name="Ograve" unicode="&#xd2;" horiz-adv-x="1658" 
d="M893 1550l-215 265h227l176 -265h-188zM752 -25q-156 0 -285 56.5t-213 153.5t-121.5 232.5t-15.5 289.5q28 205 147.5 372.5t302.5 263t391 95.5t364 -95.5t228.5 -263t44.5 -372.5q-29 -205 -149 -373t-303 -263.5t-391 -95.5zM778 156q233 0 412 158t213 393
q22 154 -31.5 280.5t-169 198t-268.5 71.5t-289 -71.5t-225.5 -198t-110.5 -280.5q-22 -154 31.5 -280.5t169 -198.5t268.5 -72z" />
    <glyph glyph-name="Oacute" unicode="&#xd3;" horiz-adv-x="1658" 
d="M864 1550l250 265h227l-288 -265h-189zM752 -25q-156 0 -285 56.5t-213 153.5t-121.5 232.5t-15.5 289.5q28 205 147.5 372.5t302.5 263t391 95.5t364 -95.5t228.5 -263t44.5 -372.5q-29 -205 -149 -373t-303 -263.5t-391 -95.5zM778 156q233 0 412 158t213 393
q22 154 -31.5 280.5t-169 198t-268.5 71.5t-289 -71.5t-225.5 -198t-110.5 -280.5q-22 -154 31.5 -280.5t169 -198.5t268.5 -72z" />
    <glyph glyph-name="Ocircumflex" unicode="&#xd4;" horiz-adv-x="1658" 
d="M997 1720l-170 -170h-168l244 265h215l168 -265h-168zM958 1438q208 0 364 -95.5t228.5 -263t44.5 -372.5q-29 -205 -149 -373t-303 -263.5t-391 -95.5q-156 0 -285 56.5t-213 153.5t-121.5 232.5t-15.5 289.5q28 205 147.5 372.5t302.5 263t391 95.5zM1403 707
q22 154 -31.5 280.5t-169 198t-268.5 71.5t-289 -71.5t-225.5 -198t-110.5 -280.5q-22 -154 31.5 -280.5t169 -198.5t268.5 -72q233 0 412 158t213 393z" />
    <glyph glyph-name="Otilde" unicode="&#xd5;" horiz-adv-x="1658" 
d="M1116 1563q-43 0 -79 17.5t-57 38.5t-49.5 38.5t-58.5 17.5q-43 0 -75.5 -29.5t-38.5 -72.5h-127q14 105 79.5 173.5t161.5 68.5q41 0 77 -17.5t56.5 -38t49.5 -38t59 -17.5q43 0 76 29t39 73h127q-14 -106 -79.5 -174.5t-160.5 -68.5zM752 -25q-156 0 -285 56.5
t-213 153.5t-121.5 232.5t-15.5 289.5q28 205 147.5 372.5t302.5 263t391 95.5t364 -95.5t228.5 -263t44.5 -372.5q-29 -205 -149 -373t-303 -263.5t-391 -95.5zM778 156q233 0 412 158t213 393q22 154 -31.5 280.5t-169 198t-268.5 71.5t-289 -71.5t-225.5 -198
t-110.5 -280.5q-22 -154 31.5 -280.5t169 -198.5t268.5 -72z" />
    <glyph glyph-name="Odieresis" unicode="&#xd6;" horiz-adv-x="1658" 
d="M762 1561q-46 0 -73 31t-21 77q6 45 43.5 77t83.5 32q45 0 71.5 -31.5t20.5 -77.5t-42 -77t-83 -31zM1186 1561q-46 0 -73 31t-21 77t42.5 77.5t82.5 31.5t73 -31.5t21 -77.5q-6 -45 -42.5 -76.5t-82.5 -31.5zM752 -25q-156 0 -285 56.5t-213 153.5t-121.5 232.5
t-15.5 289.5q28 205 147.5 372.5t302.5 263t391 95.5t364 -95.5t228.5 -263t44.5 -372.5q-29 -205 -149 -373t-303 -263.5t-391 -95.5zM778 156q233 0 412 158t213 393q22 154 -31.5 280.5t-169 198t-268.5 71.5t-289 -71.5t-225.5 -198t-110.5 -280.5q-22 -154 31.5 -280.5
t169 -198.5t268.5 -72z" />
    <glyph glyph-name="multiply" unicode="&#xd7;" horiz-adv-x="966" 
d="M881 842l-271 -238l205 -237l-133 -115l-203 237l-270 -237l-100 115l270 237l-205 238l133 114l203 -235l270 235z" />
    <glyph glyph-name="Oslash" unicode="&#xd8;" horiz-adv-x="1658" 
d="M1655 1413l-195 -190q85 -100 120.5 -232.5t14.5 -283.5q-29 -205 -149 -373t-303 -263.5t-391 -95.5q-246 0 -422 136l-113 -111h-162l195 190q-84 100 -119 232.5t-14 284.5q28 205 147.5 372.5t302.5 263t391 95.5q248 0 422 -135l113 110h162zM309 707
q-30 -222 86 -373l842 827q-126 96 -303 96q-153 0 -289 -71.5t-225.5 -198t-110.5 -280.5zM1403 707q30 220 -86 374l-842 -829q123 -96 303 -96q233 0 412 158t213 393z" />
    <glyph glyph-name="Ugrave" unicode="&#xd9;" horiz-adv-x="1419" 
d="M774 1550l-215 265h227l177 -265h-189zM631 -25q-161 0 -282 74t-177.5 203.5t-34.5 288.5l123 872h186l-120 -868q-25 -166 70 -277.5t261 -111.5q167 0 293.5 111.5t151.5 277.5l121 868h186l-123 -872q-22 -159 -115.5 -288.5t-235.5 -203.5t-304 -74z" />
    <glyph glyph-name="Uacute" unicode="&#xda;" horiz-adv-x="1419" 
d="M743 1550l250 265h228l-289 -265h-189zM631 -25q-161 0 -282 74t-177.5 203.5t-34.5 288.5l123 872h186l-120 -868q-25 -166 70 -277.5t261 -111.5q167 0 293.5 111.5t151.5 277.5l121 868h186l-123 -872q-22 -159 -115.5 -288.5t-235.5 -203.5t-304 -74z" />
    <glyph glyph-name="Ucircumflex" unicode="&#xdb;" horiz-adv-x="1419" 
d="M879 1720l-170 -170h-168l243 265h215l168 -265h-168zM1223 1413h186l-123 -872q-22 -159 -115.5 -288.5t-235.5 -203.5t-304 -74q-161 0 -282 74t-177.5 203.5t-34.5 288.5l123 872h186l-120 -868q-25 -166 70 -277.5t261 -111.5q167 0 293.5 111.5t151.5 277.5z" />
    <glyph glyph-name="Udieresis" unicode="&#xdc;" horiz-adv-x="1419" 
d="M643 1561q-46 0 -73 31t-21 77q6 45 43.5 77t83.5 32q45 0 71.5 -31.5t20.5 -77.5t-42 -77t-83 -31zM1067 1561q-46 0 -73 31t-21 77t42.5 77.5t82.5 31.5t73 -31.5t21 -77.5q-6 -45 -42.5 -76.5t-82.5 -31.5zM631 -25q-161 0 -282 74t-177.5 203.5t-34.5 288.5l123 872
h186l-120 -868q-25 -166 70 -277.5t261 -111.5q167 0 293.5 111.5t151.5 277.5l121 868h186l-123 -872q-22 -159 -115.5 -288.5t-235.5 -203.5t-304 -74z" />
    <glyph glyph-name="Yacute" unicode="&#xdd;" horiz-adv-x="1380" 
d="M1204 1815l-289 -265h-188l250 265h227zM1276 1413h211l-703 -891l-73 -522h-189l74 522l-453 891h215l361 -704z" />
    <glyph glyph-name="Thorn" unicode="&#xde;" horiz-adv-x="1259" 
d="M836 1153q194 0 305.5 -127t85.5 -317q-28 -189 -175 -317t-339 -128h-396l-36 -264h-189l199 1413h188l-37 -260h394zM1034 709q17 115 -48 191.5t-179 76.5h-389l-76 -537h391q112 0 198 76.5t103 192.5z" />
    <glyph glyph-name="germandbls" unicode="&#xdf;" horiz-adv-x="1150" 
d="M1110 1114q-15 -108 -85 -198.5t-169 -133.5q113 -36 175 -141.5t42 -243.5q-25 -181 -166 -301.5t-334 -120.5q-99 0 -180 31l25 172q71 -33 160 -33q124 0 211.5 77.5t105.5 195.5q17 119 -52 199.5t-184 80.5h-110l22 168h101q91 0 166 67t90 165q13 99 -52 165
t-176 66q-117 0 -203.5 -74.5t-101.5 -187.5l-149 -1067h-176l151 1079q25 180 167.5 300t336.5 120q186 0 297 -111.5t88 -273.5z" />
    <glyph glyph-name="agrave" unicode="&#xe0;" 
d="M877 1182h-189l-215 264h227zM1087 1044h177l-148 -1044h-176l27 188q-81 -100 -195.5 -156.5t-241.5 -56.5q-147 0 -256.5 71.5t-159 196.5t-28.5 279q32 233 204 390t396 157q128 0 225 -56.5t150 -158.5zM588 145q158 0 279.5 105.5t146.5 265.5v6q23 161 -68.5 269
t-251.5 108q-161 0 -283 -107.5t-145 -269.5q-22 -162 69.5 -269.5t252.5 -107.5z" />
    <glyph glyph-name="aacute" unicode="&#xe1;" 
d="M1137 1446l-289 -264h-189l250 264h228zM1087 1044h177l-148 -1044h-176l27 188q-81 -100 -195.5 -156.5t-241.5 -56.5q-147 0 -256.5 71.5t-159 196.5t-28.5 279q32 233 204 390t396 157q128 0 225 -56.5t150 -158.5zM588 145q158 0 279.5 105.5t146.5 265.5v6
q23 161 -68.5 269t-251.5 108q-161 0 -283 -107.5t-145 -269.5q-22 -162 69.5 -269.5t252.5 -107.5z" />
    <glyph glyph-name="acircumflex" unicode="&#xe2;" 
d="M793 1352l-170 -170h-168l243 264h215l168 -264h-168zM1087 1044h177l-148 -1044h-176l27 188q-81 -100 -195.5 -156.5t-241.5 -56.5q-147 0 -256.5 71.5t-159 196.5t-28.5 279q32 233 204 390t396 157q128 0 225 -56.5t150 -158.5zM588 145q158 0 279.5 105.5
t146.5 265.5v6q23 161 -68.5 269t-251.5 108q-161 0 -283 -107.5t-145 -269.5q-22 -162 69.5 -269.5t252.5 -107.5z" />
    <glyph glyph-name="atilde" unicode="&#xe3;" 
d="M666 1307q-43 0 -76 -30t-39 -73h-127q14 105 80 173.5t162 68.5q41 0 76.5 -17.5t56.5 -38t49.5 -38t58.5 -17.5q43 0 76 29.5t39 73.5h127q-14 -106 -79.5 -175t-160.5 -69q-43 0 -79 17.5t-56.5 39t-49 39t-58.5 17.5zM1087 1044h177l-148 -1044h-176l27 188
q-81 -100 -195.5 -156.5t-241.5 -56.5q-147 0 -256.5 71.5t-159 196.5t-28.5 279q32 233 204 390t396 157q128 0 225 -56.5t150 -158.5zM588 145q158 0 279.5 105.5t146.5 265.5v6q23 161 -68.5 269t-251.5 108q-161 0 -283 -107.5t-145 -269.5q-22 -162 69.5 -269.5
t252.5 -107.5z" />
    <glyph glyph-name="adieresis" unicode="&#xe4;" 
d="M557 1192q-46 0 -73 31t-21 77q6 45 43.5 77t83.5 32q45 0 71.5 -31.5t20.5 -77.5t-42 -77t-83 -31zM981 1192q-46 0 -73 31t-21 77t42.5 77.5t82.5 31.5t73 -31.5t21 -77.5q-6 -45 -42.5 -76.5t-82.5 -31.5zM1087 1044h177l-148 -1044h-176l27 188
q-81 -100 -195.5 -156.5t-241.5 -56.5q-147 0 -256.5 71.5t-159 196.5t-28.5 279q32 233 204 390t396 157q128 0 225 -56.5t150 -158.5zM588 145q158 0 279.5 105.5t146.5 265.5v6q23 161 -68.5 269t-251.5 108q-161 0 -283 -107.5t-145 -269.5q-22 -162 69.5 -269.5
t252.5 -107.5z" />
    <glyph glyph-name="aring" unicode="&#xe5;" 
d="M762 1153q-75 0 -119 50.5t-35 125.5q10 73 69 123.5t134 50.5q76 0 120.5 -50t35.5 -124q-10 -75 -69 -125.5t-136 -50.5zM707 1329q-4 -37 15.5 -60.5t53.5 -23.5t61 24t31 60q4 35 -15.5 58.5t-53.5 23.5t-61 -23.5t-31 -58.5zM1087 1044h177l-148 -1044h-176l27 188
q-81 -100 -195.5 -156.5t-241.5 -56.5q-147 0 -256.5 71.5t-159 196.5t-28.5 279q32 233 204 390t396 157q128 0 225 -56.5t150 -158.5zM588 145q158 0 279.5 105.5t146.5 265.5v6q23 161 -68.5 269t-251.5 108q-161 0 -283 -107.5t-145 -269.5q-22 -162 69.5 -269.5
t252.5 -107.5z" />
    <glyph glyph-name="ae" unicode="&#xe6;" horiz-adv-x="1976" 
d="M1436 1069q153 0 267 -71t167 -197.5t31 -282.5q-5 -45 -15 -65h-901q5 -140 98.5 -228t243.5 -88q108 0 205 46t160 120l114 -100q-96 -106 -228 -167t-278 -61q-137 0 -245.5 56.5t-171.5 156.5q-85 -94 -218.5 -153.5t-277.5 -59.5q-177 0 -276 91t-78 227
q19 136 141 226.5t283 90.5h374l9 58q15 107 -58.5 174t-208.5 67q-94 0 -171 -34.5t-128 -94.5l-94 101q70 89 180 138.5t244 49.5q138 0 236.5 -54t140.5 -149q88 95 206.5 149t248.5 54zM1411 907q-136 0 -246.5 -82t-154.5 -215h716q-4 132 -92.5 214.5t-222.5 82.5z
M426 135q108 0 218.5 49.5t186.5 126.5q-18 68 -18 142h-369q-92 0 -156 -44t-73 -110q-11 -70 49 -117t162 -47z" />
    <glyph glyph-name="ccedilla" unicode="&#xe7;" horiz-adv-x="1179" 
d="M586 145q104 0 197.5 50t152.5 135l141 -92q-81 -109 -200 -178.5t-254 -82.5l-50 -49h15q80 0 125 -55t32 -137q-11 -85 -80 -143t-161 -58q-60 0 -108 28t-77 75l78 73q18 -34 49.5 -55t69.5 -21q46 0 80.5 29t38.5 72q7 41 -17.5 69.5t-66.5 28.5q-43 0 -76 -29
l-94 45l117 130q-212 22 -329.5 174t-86.5 368q21 153 111.5 278.5t229 197t294.5 71.5q153 0 268.5 -70t171.5 -192l-168 -92q-36 85 -114.5 134.5t-182.5 49.5q-161 0 -283.5 -108t-144.5 -269q-22 -162 69.5 -269.5t252.5 -107.5z" />
    <glyph glyph-name="egrave" unicode="&#xe8;" horiz-adv-x="1251" 
d="M840 1182h-189l-215 264h228zM709 1069q153 0 268 -71t168 -196.5t31 -279.5q-2 -23 -15 -78h-901q8 -138 101.5 -222.5t242.5 -84.5q111 0 212 47.5t165 122.5l109 -104q-97 -106 -231.5 -167t-283.5 -61q-121 0 -221 42.5t-165 115.5t-94 175t-13 218
q22 152 111.5 276.5t225.5 195.5t290 71zM684 907q-136 0 -247 -84.5t-154 -218.5h716q-5 136 -91.5 219.5t-223.5 83.5z" />
    <glyph glyph-name="eacute" unicode="&#xe9;" horiz-adv-x="1251" 
d="M1100 1446l-289 -264h-188l249 264h228zM709 1069q153 0 268 -71t168 -196.5t31 -279.5q-2 -23 -15 -78h-901q8 -138 101.5 -222.5t242.5 -84.5q111 0 212 47.5t165 122.5l109 -104q-97 -106 -231.5 -167t-283.5 -61q-121 0 -221 42.5t-165 115.5t-94 175t-13 218
q22 152 111.5 276.5t225.5 195.5t290 71zM684 907q-136 0 -247 -84.5t-154 -218.5h716q-5 136 -91.5 219.5t-223.5 83.5z" />
    <glyph glyph-name="ecircumflex" unicode="&#xea;" horiz-adv-x="1251" 
d="M756 1352l-170 -170h-168l244 264h215l167 -264h-167zM709 1069q153 0 268 -71t168 -196.5t31 -279.5q-2 -23 -15 -78h-901q8 -138 101.5 -222.5t242.5 -84.5q111 0 212 47.5t165 122.5l109 -104q-97 -106 -231.5 -167t-283.5 -61q-121 0 -221 42.5t-165 115.5t-94 175
t-13 218q22 152 111.5 276.5t225.5 195.5t290 71zM684 907q-136 0 -247 -84.5t-154 -218.5h716q-5 136 -91.5 219.5t-223.5 83.5z" />
    <glyph glyph-name="edieresis" unicode="&#xeb;" horiz-adv-x="1251" 
d="M520 1192q-46 0 -73 31t-21 77q6 45 43.5 77t83.5 32q45 0 71.5 -31.5t20.5 -77.5t-42 -77t-83 -31zM944 1192q-46 0 -73 31t-21 77t42.5 77.5t82.5 31.5t73 -31.5t21 -77.5q-6 -45 -42.5 -76.5t-82.5 -31.5zM709 1069q153 0 268 -71t168 -196.5t31 -279.5
q-2 -23 -15 -78h-901q8 -138 101.5 -222.5t242.5 -84.5q111 0 212 47.5t165 122.5l109 -104q-97 -106 -231.5 -167t-283.5 -61q-121 0 -221 42.5t-165 115.5t-94 175t-13 218q22 152 111.5 276.5t225.5 195.5t290 71zM684 907q-136 0 -247 -84.5t-154 -218.5h716
q-5 136 -91.5 219.5t-223.5 83.5z" />
    <glyph glyph-name="igrave" unicode="&#xec;" horiz-adv-x="473" 
d="M250 1182l-215 264h227l176 -264h-188zM76 0l147 1044h176l-147 -1044h-176z" />
    <glyph glyph-name="iacute" unicode="&#xed;" horiz-adv-x="473" 
d="M221 1182l250 264h227l-288 -264h-189zM76 0l147 1044h176l-147 -1044h-176z" />
    <glyph glyph-name="icircumflex" unicode="&#xee;" horiz-adv-x="473" 
d="M475 1446l168 -264h-168l-121 170l-170 -170h-168l244 264h215zM76 0l147 1044h176l-147 -1044h-176z" />
    <glyph glyph-name="idieresis" unicode="&#xef;" horiz-adv-x="473" 
d="M119 1192q-46 0 -73 31t-21 77q6 45 43.5 77t83.5 32q45 0 71.5 -31.5t20.5 -77.5t-42 -77t-83 -31zM543 1192q-46 0 -73 31t-21 77t42 77.5t82 31.5t73.5 -31.5t21.5 -77.5q-6 -45 -42.5 -76.5t-82.5 -31.5zM76 0l147 1044h176l-147 -1044h-176z" />
    <glyph glyph-name="eth" unicode="&#xf0;" horiz-adv-x="1241" 
d="M819 1343q195 -131 285.5 -349.5t54.5 -463.5q-35 -249 -208.5 -402t-405.5 -153q-152 0 -266 69t-167 191t-32 271q21 148 106.5 269.5t212.5 190t269 68.5q179 0 293 -114q-85 194 -279 305l-109 -95h-141l160 138q-81 36 -186 51l22 166q171 -21 307 -92l107 92h141z
M975 504q20 154 -67 256t-240 102q-152 0 -268 -102t-138 -256q-22 -153 65.5 -256t239.5 -103t269 103.5t139 255.5z" />
    <glyph glyph-name="ntilde" unicode="&#xf1;" horiz-adv-x="1261" 
d="M629 1307q-43 0 -76 -30t-39 -73h-127q14 105 80 173.5t162 68.5q41 0 76.5 -17.5t56.5 -38t49.5 -38t58.5 -17.5q43 0 76 29.5t39 73.5h127q-14 -106 -79.5 -175t-160.5 -69q-43 0 -79 17.5t-56.5 39t-49 39t-58.5 17.5zM780 1069q191 0 291 -116t74 -308l-92 -645h-176
l84 590q20 140 -52 224.5t-211 84.5q-138 0 -236 -79t-124 -210l-86 -610h-176l147 1044h176l-22 -159q152 184 403 184z" />
    <glyph glyph-name="ograve" unicode="&#xf2;" horiz-adv-x="1275" 
d="M651 1182l-215 264h228l176 -264h-189zM561 -25q-156 0 -273.5 71.5t-172 197t-33.5 278.5t111.5 278.5t229 197t294.5 71.5q236 0 372.5 -157t104.5 -390q-21 -153 -111.5 -278.5t-228.5 -197t-293 -71.5zM586 145q160 0 282 108t144 269q23 161 -68.5 269t-251.5 108
q-161 0 -283.5 -108t-144.5 -269q-22 -162 69.5 -269.5t252.5 -107.5z" />
    <glyph glyph-name="oacute" unicode="&#xf3;" horiz-adv-x="1275" 
d="M623 1182l249 264h228l-289 -264h-188zM561 -25q-156 0 -273.5 71.5t-172 197t-33.5 278.5t111.5 278.5t229 197t294.5 71.5q236 0 372.5 -157t104.5 -390q-21 -153 -111.5 -278.5t-228.5 -197t-293 -71.5zM586 145q160 0 282 108t144 269q23 161 -68.5 269t-251.5 108
q-161 0 -283.5 -108t-144.5 -269q-22 -162 69.5 -269.5t252.5 -107.5z" />
    <glyph glyph-name="ocircumflex" unicode="&#xf4;" horiz-adv-x="1275" 
d="M756 1352l-170 -170h-168l244 264h215l167 -264h-167zM717 1069q236 0 372.5 -157t104.5 -390q-21 -153 -111.5 -278.5t-228.5 -197t-293 -71.5q-156 0 -273.5 71.5t-172 197t-33.5 278.5t111.5 278.5t229 197t294.5 71.5zM1012 522q23 161 -68.5 269t-251.5 108
q-161 0 -283.5 -108t-144.5 -269q-22 -162 69.5 -269.5t252.5 -107.5q160 0 282 108t144 269z" />
    <glyph glyph-name="otilde" unicode="&#xf5;" horiz-adv-x="1275" 
d="M872 1194q-43 0 -79 17.5t-56.5 39t-49 39t-58.5 17.5q-43 0 -76 -30t-39 -73h-127q14 105 80 173.5t162 68.5q41 0 76.5 -17.5t56.5 -38t49.5 -38t58.5 -17.5q43 0 76 29.5t39 73.5h127q-14 -106 -79.5 -175t-160.5 -69zM561 -25q-156 0 -273.5 71.5t-172 197
t-33.5 278.5t111.5 278.5t229 197t294.5 71.5q236 0 372.5 -157t104.5 -390q-21 -153 -111.5 -278.5t-228.5 -197t-293 -71.5zM586 145q160 0 282 108t144 269q23 161 -68.5 269t-251.5 108q-161 0 -283.5 -108t-144.5 -269q-22 -162 69.5 -269.5t252.5 -107.5z" />
    <glyph glyph-name="odieresis" unicode="&#xf6;" horiz-adv-x="1275" 
d="M520 1192q-46 0 -73 31t-21 77q6 45 43.5 77t83.5 32q45 0 71.5 -31.5t20.5 -77.5t-42 -77t-83 -31zM944 1192q-46 0 -73 31t-21 77t42.5 77.5t82.5 31.5t73 -31.5t21 -77.5q-6 -45 -42.5 -76.5t-82.5 -31.5zM561 -25q-156 0 -273.5 71.5t-172 197t-33.5 278.5
t111.5 278.5t229 197t294.5 71.5q236 0 372.5 -157t104.5 -390q-21 -153 -111.5 -278.5t-228.5 -197t-293 -71.5zM586 145q160 0 282 108t144 269q23 161 -68.5 269t-251.5 108q-161 0 -283.5 -108t-144.5 -269q-22 -162 69.5 -269.5t252.5 -107.5z" />
    <glyph glyph-name="divide" unicode="&#xf7;" horiz-adv-x="1093" 
d="M590 831q-44 0 -70 30.5t-20 74.5t40 74t78 30q46 0 72.5 -30t20.5 -74t-41.5 -74.5t-79.5 -30.5zM131 532l21 146h835l-22 -146h-834zM498 170q-46 0 -72 30t-20 74t41 74.5t79 30.5t71 -30.5t21 -74.5t-41 -74t-79 -30z" />
    <glyph glyph-name="oslash" unicode="&#xf8;" horiz-adv-x="1275" 
d="M1245 1044l-147 -141q126 -155 96 -381q-21 -153 -111.5 -278.5t-228.5 -197t-293 -71.5q-189 0 -317 103l-80 -78h-133l147 141q-126 155 -96 381q21 153 111.5 278.5t229 197t294.5 71.5q188 0 315 -102l80 77h133zM264 522q-19 -149 51 -246l582 560q-85 63 -205 63
q-161 0 -283.5 -108t-144.5 -269zM1012 522q21 143 -51 248l-580 -561q83 -64 205 -64q160 0 282 108t144 269z" />
    <glyph glyph-name="ugrave" unicode="&#xf9;" horiz-adv-x="1212" 
d="M621 1182l-215 264h227l176 -264h-188zM528 -25q-213 0 -325 120.5t-84 318.5l88 630h176l-86 -606q-17 -132 53 -212.5t203 -80.5q134 0 226.5 80.5t109.5 212.5l88 606h176l-90 -630q-28 -198 -174.5 -318.5t-360.5 -120.5z" />
    <glyph glyph-name="uacute" unicode="&#xfa;" horiz-adv-x="1212" 
d="M590 1182l250 264h227l-289 -264h-188zM528 -25q-213 0 -325 120.5t-84 318.5l88 630h176l-86 -606q-17 -132 53 -212.5t203 -80.5q134 0 226.5 80.5t109.5 212.5l88 606h176l-90 -630q-28 -198 -174.5 -318.5t-360.5 -120.5z" />
    <glyph glyph-name="ucircumflex" unicode="&#xfb;" horiz-adv-x="1212" 
d="M723 1352l-170 -170h-168l244 264h215l168 -264h-168zM977 1044h176l-90 -630q-28 -198 -174.5 -318.5t-360.5 -120.5q-213 0 -325 120.5t-84 318.5l88 630h176l-86 -606q-17 -132 53 -212.5t203 -80.5q134 0 226.5 80.5t109.5 212.5z" />
    <glyph glyph-name="udieresis" unicode="&#xfc;" horiz-adv-x="1212" 
d="M487 1192q-46 0 -73 31t-21 77q6 45 43.5 77t83.5 32q45 0 71.5 -31.5t20.5 -77.5t-42 -77t-83 -31zM911 1192q-46 0 -73 31t-21 77t42.5 77.5t82.5 31.5t73 -31.5t21 -77.5q-6 -45 -42.5 -76.5t-82.5 -31.5zM528 -25q-213 0 -325 120.5t-84 318.5l88 630h176l-86 -606
q-17 -132 53 -212.5t203 -80.5q134 0 226.5 80.5t109.5 212.5l88 606h176l-90 -630q-28 -198 -174.5 -318.5t-360.5 -120.5z" />
    <glyph glyph-name="yacute" unicode="&#xfd;" horiz-adv-x="1161" 
d="M1042 1446l-288 -264h-189l250 264h227zM1010 1044h196l-739 -1265q-54 -91 -132.5 -142t-164.5 -51q-62 0 -124.5 28t-100.5 73l92 135q22 -30 56.5 -48t72.5 -18q90 0 149 94l97 154l-310 1040h203l236 -833z" />
    <glyph glyph-name="thorn" unicode="&#xfe;" 
d="M809 1069q147 0 257 -71.5t160 -197t29 -278.5q-32 -233 -205 -390t-397 -157q-128 0 -224 56.5t-150 158.5l-82 -579h-177l263 1864h176l-88 -621q83 102 196.5 158.5t241.5 56.5zM1073 522q22 162 -69 269.5t-252 107.5q-160 0 -282 -108t-144 -269q-23 -161 68 -269
t251 -108q161 0 283 107.5t145 269.5z" />
    <glyph glyph-name="ydieresis" unicode="&#xff;" horiz-adv-x="1161" 
d="M463 1192q-46 0 -73 31t-21 77q6 45 43.5 77t83.5 32q45 0 71.5 -31.5t20.5 -77.5t-42 -77t-83 -31zM887 1192q-46 0 -73 31t-21 77t42.5 77.5t82.5 31.5t73 -31.5t21 -77.5q-6 -45 -42.5 -76.5t-82.5 -31.5zM1010 1044h196l-739 -1265q-54 -91 -132.5 -142t-164.5 -51
q-62 0 -124.5 28t-100.5 73l92 135q22 -30 56.5 -48t72.5 -18q90 0 149 94l97 154l-310 1040h203l236 -833z" />
    <glyph glyph-name="Amacron" unicode="&#x100;" horiz-adv-x="1460" 
d="M1141 1731l-21 -150h-485l20 150h486zM1137 0l-88 342h-695l-184 -342h-201l774 1413h224l376 -1413h-206zM449 516h555l-179 694z" />
    <glyph glyph-name="amacron" unicode="&#x101;" 
d="M1036 1362l-20 -150h-486l21 150h485zM1087 1044h177l-148 -1044h-176l27 188q-81 -100 -195.5 -156.5t-241.5 -56.5q-147 0 -256.5 71.5t-159 196.5t-28.5 279q32 233 204 390t396 157q128 0 225 -56.5t150 -158.5zM588 145q158 0 279.5 105.5t146.5 265.5v6
q23 161 -68.5 269t-251.5 108q-161 0 -283 -107.5t-145 -269.5q-22 -162 69.5 -269.5t252.5 -107.5z" />
    <glyph glyph-name="Abreve" unicode="&#x102;" horiz-adv-x="1460" 
d="M870 1530q-122 0 -191 77.5t-52 194.5h139q-9 -61 26 -103t95 -42q61 0 109 41.5t57 103.5h139q-17 -117 -109 -194.5t-213 -77.5zM1137 0l-88 342h-695l-184 -342h-201l774 1413h224l376 -1413h-206zM449 516h555l-179 694z" />
    <glyph glyph-name="abreve" unicode="&#x103;" 
d="M764 1161q-122 0 -191.5 78t-52.5 195h139q-9 -62 26 -104t95 -42q61 0 109 42t57 104h139q-17 -117 -108.5 -195t-212.5 -78zM1087 1044h177l-148 -1044h-176l27 188q-81 -100 -195.5 -156.5t-241.5 -56.5q-147 0 -256.5 71.5t-159 196.5t-28.5 279q32 233 204 390
t396 157q128 0 225 -56.5t150 -158.5zM588 145q158 0 279.5 105.5t146.5 265.5v6q23 161 -68.5 269t-251.5 108q-161 0 -283 -107.5t-145 -269.5q-22 -162 69.5 -269.5t252.5 -107.5z" />
    <glyph glyph-name="Aogonek" unicode="&#x104;" horiz-adv-x="1460" 
d="M1341 0q-113 -46 -175.5 -103t-71.5 -118q-7 -48 21.5 -77.5t74.5 -29.5q58 0 108 33l27 -111q-82 -51 -180 -51q-99 0 -155 57t-44 142q13 81 79 149t165 109h-53l-88 342h-695l-184 -342h-201l774 1413h224l376 -1413h-2zM449 516h555l-179 694z" />
    <glyph glyph-name="aogonek" unicode="&#x105;" 
d="M1116 0q-229 -94 -248 -221q-7 -48 22 -77.5t75 -29.5q58 0 108 33l27 -111q-82 -51 -180 -51q-99 0 -155 57t-44 142q13 81 79 149t165 109h-25l27 188q-81 -100 -195.5 -156.5t-241.5 -56.5q-147 0 -256.5 71.5t-159 196.5t-28.5 279q32 233 204 390t396 157
q128 0 225 -56.5t150 -158.5l26 190h177zM588 145q158 0 279.5 105.5t146.5 265.5v6q23 161 -68.5 269t-251.5 108q-161 0 -283 -107.5t-145 -269.5q-22 -162 69.5 -269.5t252.5 -107.5z" />
    <glyph glyph-name="Cacute" unicode="&#x106;" horiz-adv-x="1519" 
d="M864 1550l250 265h227l-288 -265h-189zM752 -25q-156 0 -285 56.5t-213 153.5t-121.5 232.5t-15.5 289.5q28 205 147.5 372.5t302.5 263t391 95.5q193 0 343 -85t229 -233l-174 -100q-60 111 -170 174t-252 63q-153 0 -289 -71.5t-225.5 -198t-110.5 -280.5
q-22 -154 31.5 -280.5t169 -198.5t268.5 -72q144 0 271.5 63t218.5 174l145 -100q-121 -148 -294.5 -233t-366.5 -85z" />
    <glyph glyph-name="cacute" unicode="&#x107;" horiz-adv-x="1179" 
d="M623 1182l249 264h228l-289 -264h-188zM561 -25q-156 0 -273.5 71.5t-172 197t-33.5 278.5t111.5 278.5t229 197t294.5 71.5q153 0 268.5 -70t171.5 -192l-168 -92q-36 85 -114.5 134.5t-182.5 49.5q-161 0 -283.5 -108t-144.5 -269q-22 -162 69.5 -269.5t252.5 -107.5
q104 0 197.5 50t152.5 135l141 -92q-91 -122 -227 -192.5t-289 -70.5z" />
    <glyph glyph-name="Ccircumflex" unicode="&#x108;" horiz-adv-x="1519" 
d="M997 1720l-170 -170h-168l244 265h215l168 -265h-168zM778 156q144 0 271.5 63t218.5 174l145 -100q-121 -148 -294.5 -233t-366.5 -85q-156 0 -285 56.5t-213 153.5t-121.5 232.5t-15.5 289.5q28 205 147.5 372.5t302.5 263t391 95.5q193 0 343 -85t229 -233l-174 -100
q-60 111 -170 174t-252 63q-153 0 -289 -71.5t-225.5 -198t-110.5 -280.5q-22 -154 31.5 -280.5t169 -198.5t268.5 -72z" />
    <glyph glyph-name="ccircumflex" unicode="&#x109;" horiz-adv-x="1179" 
d="M756 1352l-170 -170h-168l244 264h215l167 -264h-167zM586 145q104 0 197.5 50t152.5 135l141 -92q-91 -122 -227 -192.5t-289 -70.5q-156 0 -273.5 71.5t-172 197t-33.5 278.5t111.5 278.5t229 197t294.5 71.5q153 0 268.5 -70t171.5 -192l-168 -92q-36 85 -114.5 134.5
t-182.5 49.5q-161 0 -283.5 -108t-144.5 -269q-22 -162 69.5 -269.5t252.5 -107.5z" />
    <glyph glyph-name="Cdotaccent" unicode="&#x10a;" horiz-adv-x="1519" 
d="M975 1561q-49 0 -77.5 32.5t-20.5 79.5q6 47 44 80t85 33q49 0 76.5 -32.5t21.5 -80.5q-8 -47 -45 -79.5t-84 -32.5zM752 -25q-156 0 -285 56.5t-213 153.5t-121.5 232.5t-15.5 289.5q28 205 147.5 372.5t302.5 263t391 95.5q193 0 343 -85t229 -233l-174 -100
q-60 111 -170 174t-252 63q-153 0 -289 -71.5t-225.5 -198t-110.5 -280.5q-22 -154 31.5 -280.5t169 -198.5t268.5 -72q144 0 271.5 63t218.5 174l145 -100q-121 -148 -294.5 -233t-366.5 -85z" />
    <glyph glyph-name="cdotaccent" unicode="&#x10b;" horiz-adv-x="1179" 
d="M733 1192q-49 0 -77.5 33t-20.5 80q6 47 43.5 79.5t85.5 32.5q49 0 76.5 -32t21.5 -80q-8 -47 -45 -80t-84 -33zM561 -25q-156 0 -273.5 71.5t-172 197t-33.5 278.5t111.5 278.5t229 197t294.5 71.5q153 0 268.5 -70t171.5 -192l-168 -92q-36 85 -114.5 134.5
t-182.5 49.5q-161 0 -283.5 -108t-144.5 -269q-22 -162 69.5 -269.5t252.5 -107.5q104 0 197.5 50t152.5 135l141 -92q-91 -122 -227 -192.5t-289 -70.5z" />
    <glyph glyph-name="Ccaron" unicode="&#x10c;" horiz-adv-x="1519" 
d="M1081 1550h-215l-170 265h168l121 -170l170 170h168zM778 156q144 0 271.5 63t218.5 174l145 -100q-121 -148 -294.5 -233t-366.5 -85q-156 0 -285 56.5t-213 153.5t-121.5 232.5t-15.5 289.5q28 205 147.5 372.5t302.5 263t391 95.5q193 0 343 -85t229 -233l-174 -100
q-60 111 -170 174t-252 63q-153 0 -289 -71.5t-225.5 -198t-110.5 -280.5q-22 -154 31.5 -280.5t169 -198.5t268.5 -72z" />
    <glyph glyph-name="ccaron" unicode="&#x10d;" horiz-adv-x="1179" 
d="M840 1182h-215l-170 264h168l120 -170l170 170h168zM586 145q104 0 197.5 50t152.5 135l141 -92q-91 -122 -227 -192.5t-289 -70.5q-156 0 -273.5 71.5t-172 197t-33.5 278.5t111.5 278.5t229 197t294.5 71.5q153 0 268.5 -70t171.5 -192l-168 -92q-36 85 -114.5 134.5
t-182.5 49.5q-161 0 -283.5 -108t-144.5 -269q-22 -162 69.5 -269.5t252.5 -107.5z" />
    <glyph glyph-name="Dcaron" unicode="&#x10e;" horiz-adv-x="1515" 
d="M993 1550h-215l-170 265h168l121 -170l170 170h168zM836 1413q202 0 353 -92t221.5 -253.5t43.5 -360.5q-21 -149 -94.5 -280t-181.5 -225t-249 -148t-292 -54h-545l199 1413h545zM1262 707q20 149 -32 270.5t-163 190.5t-258 69h-354l-150 -1061h354q224 0 396.5 152
t206.5 379z" />
    <glyph glyph-name="dcaron" unicode="&#x10f;" horiz-adv-x="1484" 
d="M1057 846l88 629h176l-207 -1475h-176l29 201q-81 -106 -196 -166t-245 -60q-147 0 -256.5 71.5t-159 196.5t-28.5 279q32 233 204 390t396 157q128 0 225.5 -59t149.5 -164zM1495 1475h164l-131 -412h-133zM586 145q154 0 273.5 100.5t148.5 254.5l6 43q15 154 -76 255
t-246 101q-161 0 -283.5 -108t-144.5 -269q-22 -162 69.5 -269.5t252.5 -107.5z" />
    <glyph glyph-name="Dcroat" unicode="&#x110;" horiz-adv-x="1515" 
d="M836 1413q202 0 353 -92t221.5 -253.5t43.5 -360.5q-21 -149 -94.5 -280t-181.5 -225t-249 -148t-292 -54h-545l90 643h-141l16 129h144l90 641h545zM1262 707q20 149 -32 270.5t-163 190.5t-258 69h-354l-66 -465h262l-16 -129h-264l-66 -467h354q224 0 396.5 152
t206.5 379z" />
    <glyph glyph-name="dcroat" unicode="&#x111;" 
d="M1450 1311l-16 -129h-152l-166 -1182h-176l27 188q-83 -100 -196.5 -156.5t-240.5 -56.5q-147 0 -256.5 71.5t-159 196.5t-28.5 279q32 233 204 390t396 157q127 0 223.5 -56.5t151.5 -156.5l45 326h-266l16 129h268l23 164h176l-23 -164h150zM588 145q154 0 273.5 100.5
t148.5 254.5l6 43q15 154 -76 255t-246 101q-161 0 -283 -107.5t-145 -269.5q-22 -162 69.5 -269.5t252.5 -107.5z" />
    <glyph glyph-name="Emacron" unicode="&#x112;" horiz-adv-x="1202" 
d="M1049 1731l-21 -150h-485l20 150h486zM1192 1237h-737l-62 -438h672l-27 -176h-669l-64 -447h748l-25 -176h-936l199 1413h926z" />
    <glyph glyph-name="emacron" unicode="&#x113;" horiz-adv-x="1251" 
d="M999 1362l-20 -150h-485l20 150h485zM709 1069q153 0 268 -71t168 -196.5t31 -279.5q-2 -23 -15 -78h-901q8 -138 101.5 -222.5t242.5 -84.5q111 0 212 47.5t165 122.5l109 -104q-97 -106 -231.5 -167t-283.5 -61q-121 0 -221 42.5t-165 115.5t-94 175t-13 218
q22 152 111.5 276.5t225.5 195.5t290 71zM684 907q-136 0 -247 -84.5t-154 -218.5h716q-5 136 -91.5 219.5t-223.5 83.5z" />
    <glyph glyph-name="Ebreve" unicode="&#x114;" horiz-adv-x="1202" 
d="M778 1530q-122 0 -191 77.5t-52 194.5h139q-9 -61 26 -103t95 -42q61 0 109 41.5t57 103.5h139q-17 -117 -109 -194.5t-213 -77.5zM1192 1237h-737l-62 -438h672l-27 -176h-669l-64 -447h748l-25 -176h-936l199 1413h926z" />
    <glyph glyph-name="ebreve" unicode="&#x115;" horiz-adv-x="1251" 
d="M729 1161q-122 0 -191.5 78t-52.5 195h140q-9 -62 25.5 -104t94.5 -42q61 0 109 42t57 104h140q-17 -117 -109 -195t-213 -78zM709 1069q153 0 268 -71t168 -196.5t31 -279.5q-2 -23 -15 -78h-901q8 -138 101.5 -222.5t242.5 -84.5q111 0 212 47.5t165 122.5l109 -104
q-97 -106 -231.5 -167t-283.5 -61q-121 0 -221 42.5t-165 115.5t-94 175t-13 218q22 152 111.5 276.5t225.5 195.5t290 71zM684 907q-136 0 -247 -84.5t-154 -218.5h716q-5 136 -91.5 219.5t-223.5 83.5z" />
    <glyph glyph-name="Edotaccent" unicode="&#x116;" horiz-adv-x="1202" 
d="M782 1561q-49 0 -77.5 32.5t-20.5 79.5q6 47 44 80t85 33q49 0 76.5 -32.5t21.5 -80.5q-8 -47 -45 -79.5t-84 -32.5zM1192 1237h-737l-62 -438h672l-27 -176h-669l-64 -447h748l-25 -176h-936l199 1413h926z" />
    <glyph glyph-name="edotaccent" unicode="&#x117;" horiz-adv-x="1251" 
d="M733 1192q-49 0 -77.5 33t-20.5 80q6 47 43.5 79.5t85.5 32.5q49 0 76.5 -32t21.5 -80q-8 -47 -45 -80t-84 -33zM709 1069q153 0 268 -71t168 -196.5t31 -279.5q-2 -23 -15 -78h-901q8 -138 101.5 -222.5t242.5 -84.5q111 0 212 47.5t165 122.5l109 -104
q-97 -106 -231.5 -167t-283.5 -61q-121 0 -221 42.5t-165 115.5t-94 175t-13 218q22 152 111.5 276.5t225.5 195.5t290 71zM684 907q-136 0 -247 -84.5t-154 -218.5h716q-5 136 -91.5 219.5t-223.5 83.5z" />
    <glyph glyph-name="Eogonek" unicode="&#x118;" horiz-adv-x="1202" 
d="M1192 1237h-737l-62 -438h672l-27 -176h-669l-64 -447h748l-25 -176h-8q-229 -94 -248 -221q-7 -48 21.5 -77.5t74.5 -29.5q59 0 109 33l27 -111q-82 -51 -181 -51t-154.5 57t-43.5 142q13 82 78.5 149.5t164.5 108.5h-776l199 1413h926z" />
    <glyph glyph-name="eogonek" unicode="&#x119;" horiz-adv-x="1251" 
d="M709 1069q153 0 268 -71t168 -196.5t31 -279.5q-2 -23 -15 -78h-901q8 -138 101.5 -222.5t242.5 -84.5q111 0 212 47.5t165 122.5l109 -104q-118 -130 -285 -189q-164 -116 -178 -225q-7 -52 20.5 -83.5t75.5 -31.5q62 0 113 39l28 -108q-84 -62 -194 -62q-96 0 -152 60
t-43 151q17 121 135 221h-35q-121 0 -221 42.5t-165 115.5t-94 175t-13 218q22 152 111.5 276.5t225.5 195.5t290 71zM684 907q-136 0 -247 -84.5t-154 -218.5h716q-5 136 -91.5 219.5t-223.5 83.5z" />
    <glyph glyph-name="Ecaron" unicode="&#x11a;" horiz-adv-x="1202" 
d="M889 1550h-215l-170 265h168l121 -170l170 170h167zM1192 1237h-737l-62 -438h672l-27 -176h-669l-64 -447h748l-25 -176h-936l199 1413h926z" />
    <glyph glyph-name="ecaron" unicode="&#x11b;" horiz-adv-x="1251" 
d="M840 1182h-215l-170 264h168l120 -170l170 170h168zM709 1069q153 0 268 -71t168 -196.5t31 -279.5q-2 -23 -15 -78h-901q8 -138 101.5 -222.5t242.5 -84.5q111 0 212 47.5t165 122.5l109 -104q-97 -106 -231.5 -167t-283.5 -61q-121 0 -221 42.5t-165 115.5t-94 175
t-13 218q22 152 111.5 276.5t225.5 195.5t290 71zM684 907q-136 0 -247 -84.5t-154 -218.5h716q-5 136 -91.5 219.5t-223.5 83.5z" />
    <glyph glyph-name="Gcircumflex" unicode="&#x11c;" horiz-adv-x="1619" 
d="M997 1720l-170 -170h-168l244 265h215l168 -265h-168zM911 752h662l-8 -62q-22 -152 -95 -285t-181 -227.5t-248.5 -148.5t-292.5 -54q-154 0 -282.5 56.5t-212 153.5t-121 232.5t-15.5 289.5q28 205 147.5 372.5t302.5 263t391 95.5q187 0 334 -78t224 -215l-158 -111
q-60 105 -170 165.5t-252 60.5q-153 0 -289.5 -72t-226.5 -199t-111 -282q-22 -155 32 -282t170 -199t269 -72q202 0 364 121.5t212 310.5h-467z" />
    <glyph glyph-name="gcircumflex" unicode="&#x11d;" horiz-adv-x="1150" 
d="M698 1352l-170 -170h-168l244 264h215l168 -264h-168zM1149 1182h82l-25 -164h-69q-56 0 -97 -31t-51 -82q87 -123 66 -289q-28 -193 -183 -323.5t-358 -130.5q-119 0 -215 49q-34 -21 -56.5 -52.5t-25.5 -64.5q-7 -55 28 -88t101 -33h383q149 0 235 -75t83 -205
l-189 -47q7 70 -43 112.5t-141 42.5h-383q-131 0 -202 68.5t-56 179.5q11 74 55.5 138t110.5 98q-126 129 -99 331q26 193 181.5 323t359.5 130q139 0 244 -65q28 82 98.5 130t165.5 48zM872 616q17 122 -55.5 203.5t-198.5 81.5q-127 0 -222.5 -81.5t-112.5 -203.5
q-17 -123 55.5 -204.5t198.5 -81.5t222 81.5t113 204.5z" />
    <glyph glyph-name="Gbreve" unicode="&#x11e;" horiz-adv-x="1619" 
d="M971 1530q-122 0 -191.5 77.5t-52.5 194.5h139q-9 -61 26 -103t95 -42q61 0 109 41.5t57 103.5h139q-17 -117 -108.5 -194.5t-212.5 -77.5zM911 752h662l-8 -62q-22 -152 -95 -285t-181 -227.5t-248.5 -148.5t-292.5 -54q-154 0 -282.5 56.5t-212 153.5t-121 232.5
t-15.5 289.5q28 205 147.5 372.5t302.5 263t391 95.5q187 0 334 -78t224 -215l-158 -111q-60 105 -170 165.5t-252 60.5q-153 0 -289.5 -72t-226.5 -199t-111 -282q-22 -155 32 -282t170 -199t269 -72q202 0 364 121.5t212 310.5h-467z" />
    <glyph glyph-name="gbreve" unicode="&#x11f;" horiz-adv-x="1150" 
d="M672 1161q-122 0 -191.5 78t-52.5 195h139q-9 -62 26 -104t95 -42q61 0 109 42t57 104h139q-17 -117 -108.5 -195t-212.5 -78zM1149 1182h82l-25 -164h-69q-56 0 -97 -31t-51 -82q87 -123 66 -289q-28 -193 -183 -323.5t-358 -130.5q-119 0 -215 49q-34 -21 -56.5 -52.5
t-25.5 -64.5q-7 -55 28 -88t101 -33h383q149 0 235 -75t83 -205l-189 -47q7 70 -43 112.5t-141 42.5h-383q-131 0 -202 68.5t-56 179.5q11 74 55.5 138t110.5 98q-126 129 -99 331q26 193 181.5 323t359.5 130q139 0 244 -65q28 82 98.5 130t165.5 48zM872 616
q17 122 -55.5 203.5t-198.5 81.5q-127 0 -222.5 -81.5t-112.5 -203.5q-17 -123 55.5 -204.5t198.5 -81.5t222 81.5t113 204.5z" />
    <glyph glyph-name="Gdotaccent" unicode="&#x120;" horiz-adv-x="1619" 
d="M975 1561q-49 0 -77.5 32.5t-20.5 79.5q6 47 44 80t85 33q49 0 76.5 -32.5t21.5 -80.5q-8 -47 -45 -79.5t-84 -32.5zM911 752h662l-8 -62q-22 -152 -95 -285t-181 -227.5t-248.5 -148.5t-292.5 -54q-154 0 -282.5 56.5t-212 153.5t-121 232.5t-15.5 289.5
q28 205 147.5 372.5t302.5 263t391 95.5q187 0 334 -78t224 -215l-158 -111q-60 105 -170 165.5t-252 60.5q-153 0 -289.5 -72t-226.5 -199t-111 -282q-22 -155 32 -282t170 -199t269 -72q202 0 364 121.5t212 310.5h-467z" />
    <glyph glyph-name="gdotaccent" unicode="&#x121;" horiz-adv-x="1150" 
d="M676 1192q-49 0 -77.5 33t-20.5 80q6 47 43.5 79.5t85.5 32.5q49 0 76.5 -32t21.5 -80q-8 -47 -45 -80t-84 -33zM1149 1182h82l-25 -164h-69q-56 0 -97 -31t-51 -82q87 -123 66 -289q-28 -193 -183 -323.5t-358 -130.5q-119 0 -215 49q-34 -21 -56.5 -52.5t-25.5 -64.5
q-7 -55 28 -88t101 -33h383q149 0 235 -75t83 -205l-189 -47q7 70 -43 112.5t-141 42.5h-383q-131 0 -202 68.5t-56 179.5q11 74 55.5 138t110.5 98q-126 129 -99 331q26 193 181.5 323t359.5 130q139 0 244 -65q28 82 98.5 130t165.5 48zM872 616q17 122 -55.5 203.5
t-198.5 81.5q-127 0 -222.5 -81.5t-112.5 -203.5q-17 -123 55.5 -204.5t198.5 -81.5t222 81.5t113 204.5z" />
    <glyph glyph-name="uni0122" unicode="&#x122;" horiz-adv-x="1619" 
d="M911 752h662l-8 -62q-22 -152 -95 -285t-181 -227.5t-248.5 -148.5t-292.5 -54q-154 0 -282.5 56.5t-212 153.5t-121 232.5t-15.5 289.5q28 205 147.5 372.5t302.5 263t391 95.5q187 0 334 -78t224 -215l-158 -111q-60 105 -170 165.5t-252 60.5q-153 0 -289.5 -72
t-226.5 -199t-111 -282q-22 -155 32 -282t170 -199t269 -72q202 0 364 121.5t212 310.5h-467zM555 -451l115 316h184l-154 -316h-145z" />
    <glyph glyph-name="uni0123" unicode="&#x123;" horiz-adv-x="1150" 
d="M844 1485l-117 -316h-184l155 316h146zM1149 1182h82l-25 -164h-69q-56 0 -97 -31t-51 -82q87 -123 66 -289q-28 -193 -183 -323.5t-358 -130.5q-119 0 -215 49q-34 -21 -56.5 -52.5t-25.5 -64.5q-7 -55 28 -88t101 -33h383q149 0 235 -75t83 -205l-189 -47
q7 70 -43 112.5t-141 42.5h-383q-131 0 -202 68.5t-56 179.5q11 74 55.5 138t110.5 98q-126 129 -99 331q26 193 181.5 323t359.5 130q139 0 244 -65q28 82 98.5 130t165.5 48zM872 616q17 122 -55.5 203.5t-198.5 81.5q-127 0 -222.5 -81.5t-112.5 -203.5
q-17 -123 55.5 -204.5t198.5 -81.5t222 81.5t113 204.5z" />
    <glyph glyph-name="Hcircumflex" unicode="&#x124;" horiz-adv-x="1495" 
d="M918 1720l-170 -170h-168l243 265h215l168 -265h-168zM1266 1413h188l-199 -1413h-188l88 623h-786l-88 -623h-189l199 1413h188l-86 -614h787z" />
    <glyph glyph-name="hcircumflex" unicode="&#x125;" horiz-adv-x="1261" 
d="M408 1739l-170 -170h-168l243 264h215l168 -264h-168zM780 1069q191 0 291 -116t74 -308l-92 -645h-176l84 590q20 139 -51.5 224t-209.5 85q-142 0 -241.5 -82t-122.5 -217l-84 -600h-176l207 1475h176l-84 -598q154 192 405 192z" />
    <glyph glyph-name="Hbar" unicode="&#x126;" horiz-adv-x="1495" 
d="M1538 1174l-18 -132h-117l-148 -1042h-188l88 623h-786l-88 -623h-189l148 1042h-115l16 132h117l33 239h188l-33 -239h787l33 239h188l-33 -239h117zM1180 799l34 243h-786l-35 -243h787z" />
    <glyph glyph-name="hbar" unicode="&#x127;" horiz-adv-x="1261" 
d="M780 1069q191 0 291 -116t74 -308l-92 -645h-176l84 590q20 139 -51.5 224t-209.5 85q-142 0 -241.5 -82t-122.5 -217l-84 -600h-176l166 1182h-148l17 129h149l23 164h176l-23 -164h269l-17 -129h-270l-43 -305q154 192 405 192z" />
    <glyph glyph-name="Itilde" unicode="&#x128;" horiz-adv-x="520" 
d="M547 1563q-43 0 -79 17.5t-57 38.5t-49.5 38.5t-58.5 17.5q-43 0 -76 -29.5t-39 -72.5h-127q14 105 80 173.5t162 68.5q41 0 77 -17.5t56.5 -38t49.5 -38t59 -17.5q43 0 75.5 29t38.5 73h127q-14 -106 -79 -174.5t-160 -68.5zM92 0l199 1413h188l-198 -1413h-189z" />
    <glyph glyph-name="itilde" unicode="&#x129;" horiz-adv-x="473" 
d="M471 1194q-43 0 -79 17.5t-57 39t-49.5 39t-58.5 17.5q-42 0 -75 -30t-39 -73h-127q14 105 79.5 173.5t161.5 68.5q41 0 77 -17.5t56.5 -38t49.5 -38t59 -17.5q43 0 76 29.5t39 73.5h127q-14 -106 -79.5 -175t-160.5 -69zM76 0l147 1044h176l-147 -1044h-176z" />
    <glyph glyph-name="Imacron" unicode="&#x12a;" horiz-adv-x="520" 
d="M168 1581l20 150h486l-21 -150h-485zM92 0l199 1413h188l-198 -1413h-189z" />
    <glyph glyph-name="imacron" unicode="&#x12b;" horiz-adv-x="473" 
d="M92 1212l21 150h485l-20 -150h-486zM76 0l147 1044h176l-147 -1044h-176z" />
    <glyph glyph-name="Ibreve" unicode="&#x12c;" horiz-adv-x="520" 
d="M401 1530q-122 0 -191 77.5t-52 194.5h139q-9 -61 26 -103t95 -42q61 0 109 41.5t57 103.5h139q-17 -117 -109 -194.5t-213 -77.5zM92 0l199 1413h188l-198 -1413h-189z" />
    <glyph glyph-name="ibreve" unicode="&#x12d;" horiz-adv-x="473" 
d="M328 1161q-122 0 -191.5 78t-52.5 195h139q-9 -62 26 -104t95 -42q61 0 109 42t57 104h139q-17 -117 -108.5 -195t-212.5 -78zM76 0l147 1044h176l-147 -1044h-176z" />
    <glyph glyph-name="Iogonek" unicode="&#x12e;" horiz-adv-x="520" 
d="M291 1413h188l-198 -1413h-2q-229 -94 -248 -221q-7 -48 21.5 -77.5t74.5 -29.5q59 0 109 33l26 -111q-82 -51 -180 -51q-99 0 -155 57t-44 142q13 81 79 149t165 109h-35z" />
    <glyph glyph-name="iogonek" unicode="&#x12f;" horiz-adv-x="473" 
d="M362 1417q49 0 77 -32t22 -80q-8 -47 -45 -80t-84 -33q-49 0 -78 33t-21 80q6 47 43.5 79.5t85.5 32.5zM76 0l147 1044h176l-147 -1044h-2q-229 -94 -248 -221q-7 -48 21.5 -77.5t74.5 -29.5q59 0 109 33l26 -111q-82 -51 -180 -51q-99 0 -154.5 57t-43.5 142
q13 82 78.5 149.5t164.5 108.5h-22z" />
    <glyph glyph-name="Idotaccent" unicode="&#x130;" horiz-adv-x="520" 
d="M408 1561q-49 0 -78 32.5t-21 79.5q6 47 44 80t85 33q49 0 77 -32.5t22 -80.5q-8 -47 -45 -79.5t-84 -32.5zM92 0l199 1413h188l-198 -1413h-189z" />
    <glyph glyph-name="dotlessi" unicode="&#x131;" horiz-adv-x="473" 
d="M76 0l147 1044h176l-147 -1044h-176z" />
    <glyph glyph-name="IJ" unicode="&#x132;" horiz-adv-x="1396" 
d="M92 0l199 1413h188l-198 -1413h-189zM741 -25q-121 0 -231 56l25 182q105 -57 215 -57q127 0 210.5 71.5t100.5 192.5l139 993h186l-139 -1003q-29 -197 -168 -316t-338 -119z" />
    <glyph glyph-name="ij" unicode="&#x133;" horiz-adv-x="958" 
d="M340 1253q-51 0 -79.5 33.5t-22.5 83.5q7 51 45.5 84t89.5 33t79 -33t21 -84q-6 -49 -44.5 -83t-88.5 -34zM823 1253q-49 0 -77.5 33.5t-22.5 83.5q6 51 45 84t90 33q50 0 78 -33t22 -84q-8 -50 -46 -83.5t-89 -33.5zM76 0l147 1044h176l-147 -1044h-176zM395 -414
q-70 0 -129 27l23 158q44 -23 98 -23q138 0 158 141l162 1155h176l-164 -1173q-20 -136 -103.5 -210.5t-220.5 -74.5z" />
    <glyph glyph-name="Jcircumflex" unicode="&#x134;" horiz-adv-x="876" 
d="M936 1815l168 -265h-168l-121 170l-170 -170h-168l244 265h215zM541 420l139 993h186l-139 -1003q-29 -197 -168 -316t-338 -119q-121 0 -231 56l24 182q105 -57 215 -57q127 0 211 71.5t101 192.5z" />
    <glyph glyph-name="jcircumflex" unicode="&#x135;" horiz-adv-x="485" 
d="M487 1446l168 -264h-168l-120 170l-170 -170h-168l243 264h215zM72 -111l161 1155h177l-164 -1173q-20 -136 -103.5 -210.5t-220.5 -74.5q-70 0 -129 27l23 158q44 -23 98 -23q138 0 158 141z" />
    <glyph glyph-name="uni0136" unicode="&#x136;" horiz-adv-x="1320" 
d="M1440 1413l-764 -688l588 -725h-246l-488 596l-190 -172l-59 -424h-189l199 1413h188l-102 -733l821 733h242zM418 -451l114 316h185l-154 -316h-145z" />
    <glyph glyph-name="uni0137" unicode="&#x137;" horiz-adv-x="1075" 
d="M1128 1044l-538 -493l405 -551h-233l-318 420l-153 -141l-39 -279h-176l207 1475h176l-135 -961l575 530h229zM299 -451l115 316h184l-154 -316h-145z" />
    <glyph glyph-name="Lacute" unicode="&#x139;" horiz-adv-x="1101" 
d="M774 1815l-289 -265h-188l250 265h227zM305 176h686l-24 -176h-875l199 1413h188z" />
    <glyph glyph-name="lacute" unicode="&#x13a;" horiz-adv-x="473" 
d="M274 1569l250 264h228l-289 -264h-189zM76 0l207 1475h176l-207 -1475h-176z" />
    <glyph glyph-name="uni013B" unicode="&#x13b;" horiz-adv-x="1101" 
d="M305 176h686l-24 -176h-875l199 1413h188zM319 -451l115 316h184l-153 -316h-146z" />
    <glyph glyph-name="uni013C" unicode="&#x13c;" horiz-adv-x="473" 
d="M76 0l207 1475h176l-207 -1475h-176zM-37 -451l115 316h184l-153 -316h-146z" />
    <glyph glyph-name="Lcaron" unicode="&#x13d;" horiz-adv-x="1101" 
d="M305 176h686l-24 -176h-875l199 1413h188zM887 1413l-131 -412h-133l100 412h164z" />
    <glyph glyph-name="lcaron" unicode="&#x13e;" horiz-adv-x="620" 
d="M76 0l207 1475h176l-207 -1475h-176zM530 1063l101 412h164l-129 -412h-136z" />
    <glyph glyph-name="Ldot" unicode="&#x13f;" horiz-adv-x="1101" 
d="M305 176h686l-24 -176h-875l199 1413h188zM670 606q-51 0 -80 34t-21 85q6 50 44 83.5t89 33.5t80.5 -34t22.5 -83q-8 -51 -46 -85t-89 -34z" />
    <glyph glyph-name="ldot" unicode="&#x140;" horiz-adv-x="745" 
d="M76 0l207 1475h176l-207 -1475h-176zM573 618q-51 0 -79.5 34t-20.5 85q6 51 45 85t90 34q49 0 78 -34t23 -85q-8 -51 -46.5 -85t-89.5 -34z" />
    <glyph glyph-name="Lslash" unicode="&#x141;" horiz-adv-x="1101" 
d="M305 176h686l-24 -176h-875l74 528l-141 -82l24 175l141 81l101 711h188l-84 -592l271 156l-25 -174l-270 -156z" />
    <glyph glyph-name="lslash" unicode="&#x142;" horiz-adv-x="622" 
d="M608 967l-24 -164l-158 -92l-100 -711h-176l83 600l-157 -92l22 164l158 92l100 711h176l-83 -601z" />
    <glyph glyph-name="Nacute" unicode="&#x143;" horiz-adv-x="1513" 
d="M1274 1815l-289 -265h-188l250 265h227zM1284 1413h186l-198 -1413h-193l-645 1102l-153 -1102h-189l199 1413h194l645 -1102z" />
    <glyph glyph-name="nacute" unicode="&#x144;" horiz-adv-x="1261" 
d="M1098 1446l-289 -264h-188l249 264h228zM780 1069q191 0 291 -116t74 -308l-92 -645h-176l84 590q20 140 -52 224.5t-211 84.5q-138 0 -236 -79t-124 -210l-86 -610h-176l147 1044h176l-22 -159q152 184 403 184z" />
    <glyph glyph-name="uni0145" unicode="&#x145;" horiz-adv-x="1513" 
d="M1284 1413h186l-198 -1413h-193l-645 1102l-153 -1102h-189l199 1413h194l645 -1102zM481 -451l115 316h184l-153 -316h-146z" />
    <glyph glyph-name="uni0146" unicode="&#x146;" horiz-adv-x="1261" 
d="M780 1069q191 0 291 -116t74 -308l-92 -645h-176l84 590q20 140 -52 224.5t-211 84.5q-138 0 -236 -79t-124 -210l-86 -610h-176l147 1044h176l-22 -159q152 184 403 184zM362 -451l115 316h185l-154 -316h-146z" />
    <glyph glyph-name="Ncaron" unicode="&#x147;" horiz-adv-x="1513" 
d="M1014 1550h-215l-170 265h168l121 -170l169 170h168zM1284 1413h186l-198 -1413h-193l-645 1102l-153 -1102h-189l199 1413h194l645 -1102z" />
    <glyph glyph-name="ncaron" unicode="&#x148;" horiz-adv-x="1261" 
d="M838 1182h-215l-170 264h168l120 -170l170 170h168zM780 1069q191 0 291 -116t74 -308l-92 -645h-176l84 590q20 140 -52 224.5t-211 84.5q-138 0 -236 -79t-124 -210l-86 -610h-176l147 1044h176l-22 -159q152 184 403 184z" />
    <glyph glyph-name="Eng" unicode="&#x14a;" horiz-adv-x="1513" 
d="M1470 1413l-196 -1403l-12 -88q-23 -167 -129.5 -250.5t-288.5 -83.5l24 172q88 0 141.5 42t65.5 126l10 72h-6l-645 1102l-153 -1102h-189l199 1413h194l645 -1102l154 1102h186z" />
    <glyph glyph-name="eng" unicode="&#x14b;" horiz-adv-x="1261" 
d="M780 1069q191 0 291 -116t74 -308l-103 -723q-23 -166 -126.5 -250t-276.5 -84l25 172q181 0 204 168l93 662q20 139 -51.5 224t-209.5 85q-139 0 -237.5 -79t-124.5 -210l-86 -610h-176l147 1044h176l-22 -159q152 184 403 184z" />
    <glyph glyph-name="Omacron" unicode="&#x14c;" horiz-adv-x="1658" 
d="M735 1581l21 150h485l-20 -150h-486zM752 -25q-156 0 -285 56.5t-213 153.5t-121.5 232.5t-15.5 289.5q28 205 147.5 372.5t302.5 263t391 95.5t364 -95.5t228.5 -263t44.5 -372.5q-29 -205 -149 -373t-303 -263.5t-391 -95.5zM778 156q233 0 412 158t213 393
q22 154 -31.5 280.5t-169 198t-268.5 71.5t-289 -71.5t-225.5 -198t-110.5 -280.5q-22 -154 31.5 -280.5t169 -198.5t268.5 -72z" />
    <glyph glyph-name="omacron" unicode="&#x14d;" horiz-adv-x="1275" 
d="M494 1212l20 150h485l-20 -150h-485zM561 -25q-156 0 -273.5 71.5t-172 197t-33.5 278.5t111.5 278.5t229 197t294.5 71.5q236 0 372.5 -157t104.5 -390q-21 -153 -111.5 -278.5t-228.5 -197t-293 -71.5zM586 145q160 0 282 108t144 269q23 161 -68.5 269t-251.5 108
q-161 0 -283.5 -108t-144.5 -269q-22 -162 69.5 -269.5t252.5 -107.5z" />
    <glyph glyph-name="Obreve" unicode="&#x14e;" horiz-adv-x="1658" 
d="M971 1530q-122 0 -191.5 77.5t-52.5 194.5h139q-9 -61 26 -103t95 -42q61 0 109 41.5t57 103.5h139q-17 -117 -108.5 -194.5t-212.5 -77.5zM752 -25q-156 0 -285 56.5t-213 153.5t-121.5 232.5t-15.5 289.5q28 205 147.5 372.5t302.5 263t391 95.5t364 -95.5t228.5 -263
t44.5 -372.5q-29 -205 -149 -373t-303 -263.5t-391 -95.5zM778 156q233 0 412 158t213 393q22 154 -31.5 280.5t-169 198t-268.5 71.5t-289 -71.5t-225.5 -198t-110.5 -280.5q-22 -154 31.5 -280.5t169 -198.5t268.5 -72z" />
    <glyph glyph-name="obreve" unicode="&#x14f;" horiz-adv-x="1275" 
d="M727 1161q-122 0 -191.5 78t-52.5 195h140q-9 -62 25.5 -104t94.5 -42q61 0 109 42t57 104h140q-17 -117 -109 -195t-213 -78zM561 -25q-156 0 -273.5 71.5t-172 197t-33.5 278.5t111.5 278.5t229 197t294.5 71.5q236 0 372.5 -157t104.5 -390q-21 -153 -111.5 -278.5
t-228.5 -197t-293 -71.5zM586 145q160 0 282 108t144 269q23 161 -68.5 269t-251.5 108q-161 0 -283.5 -108t-144.5 -269q-22 -162 69.5 -269.5t252.5 -107.5z" />
    <glyph glyph-name="Ohungarumlaut" unicode="&#x150;" horiz-adv-x="1658" 
d="M682 1550l207 265h196l-231 -265h-172zM1081 1550l205 265h199l-232 -265h-172zM752 -25q-156 0 -285 56.5t-213 153.5t-121.5 232.5t-15.5 289.5q28 205 147.5 372.5t302.5 263t391 95.5t364 -95.5t228.5 -263t44.5 -372.5q-29 -205 -149 -373t-303 -263.5t-391 -95.5z
M778 156q233 0 412 158t213 393q22 154 -31.5 280.5t-169 198t-268.5 71.5t-289 -71.5t-225.5 -198t-110.5 -280.5q-22 -154 31.5 -280.5t169 -198.5t268.5 -72z" />
    <glyph glyph-name="ohungarumlaut" unicode="&#x151;" horiz-adv-x="1275" 
d="M438 1182l207 264h197l-232 -264h-172zM838 1182l204 264h199l-231 -264h-172zM561 -25q-156 0 -273.5 71.5t-172 197t-33.5 278.5t111.5 278.5t229 197t294.5 71.5q236 0 372.5 -157t104.5 -390q-21 -153 -111.5 -278.5t-228.5 -197t-293 -71.5zM586 145q160 0 282 108
t144 269q23 161 -68.5 269t-251.5 108q-161 0 -283.5 -108t-144.5 -269q-22 -162 69.5 -269.5t252.5 -107.5z" />
    <glyph glyph-name="OE" unicode="&#x152;" horiz-adv-x="1910" 
d="M1901 1237h-658l-61 -438h590l-25 -176h-590l-63 -447h667l-24 -176h-1006q-202 0 -352.5 92t-220 254t-41.5 361q27 199 142 360.5t292 253.5t379 92h995zM907 176l150 1061h-148q-226 0 -397.5 -151.5t-202.5 -378.5q-22 -149 29 -271t162.5 -191t259.5 -69h147z" />
    <glyph glyph-name="oe" unicode="&#x153;" horiz-adv-x="2181" 
d="M1651 1069q151 0 262.5 -71t162.5 -197.5t29 -282.5q-1 -6 -3.5 -20t-5 -26t-5.5 -19h-901q5 -140 98.5 -228t243.5 -88q108 0 204.5 46t159.5 120l115 -100q-94 -107 -223 -167.5t-272 -60.5q-160 0 -277.5 76.5t-169.5 206.5q-86 -130 -223 -206.5t-293 -76.5
q-152 0 -267.5 71.5t-170 197t-33.5 278.5t111.5 278.5t226.5 197t289 71.5q155 0 268 -74.5t164 -203.5q86 128 221 203t289 75zM1614 907q-135 0 -245.5 -82.5t-154.5 -214.5h715q-4 132 -92 214.5t-223 82.5zM1012 522q23 161 -68.5 269t-251.5 108q-161 0 -283 -107.5
t-145 -269.5q-23 -161 69 -269t253 -108q160 0 281.5 108t144.5 269z" />
    <glyph glyph-name="Racute" unicode="&#x154;" horiz-adv-x="1269" 
d="M1149 1815l-289 -265h-188l250 265h227zM1245 983q-25 -171 -155 -289.5t-304 -130.5l351 -563h-228l-344 561h-205l-79 -561h-189l199 1413h573q188 0 297.5 -123t83.5 -307zM1053 981q15 110 -47 183t-170 73h-381l-72 -512h381q107 0 189.5 73t99.5 183z" />
    <glyph glyph-name="racute" unicode="&#x155;" horiz-adv-x="757" 
d="M891 1446l-289 -264h-188l250 264h227zM375 866q73 94 171 144.5t212 50.5h35l-25 -182h-37q-162 0 -271 -94.5t-132 -254.5l-76 -530h-176l147 1044h176z" />
    <glyph glyph-name="uni0156" unicode="&#x156;" horiz-adv-x="1269" 
d="M1245 983q-25 -171 -155 -289.5t-304 -130.5l351 -563h-228l-344 561h-205l-79 -561h-189l199 1413h573q188 0 297.5 -123t83.5 -307zM1053 981q15 110 -47 183t-170 73h-381l-72 -512h381q107 0 189.5 73t99.5 183zM360 -451l115 316h184l-153 -316h-146z" />
    <glyph glyph-name="uni0157" unicode="&#x157;" horiz-adv-x="757" 
d="M758 1061h35l-25 -182h-37q-162 0 -271 -94.5t-132 -254.5l-76 -530h-176l147 1044h176l-24 -178q73 94 171 144.5t212 50.5zM-37 -451l115 316h184l-153 -316h-146z" />
    <glyph glyph-name="Rcaron" unicode="&#x158;" horiz-adv-x="1269" 
d="M889 1550h-215l-170 265h168l121 -170l170 170h167zM1245 983q-25 -171 -155 -289.5t-304 -130.5l351 -563h-228l-344 561h-205l-79 -561h-189l199 1413h573q188 0 297.5 -123t83.5 -307zM1053 981q15 110 -47 183t-170 73h-381l-72 -512h381q107 0 189.5 73t99.5 183z
" />
    <glyph glyph-name="rcaron" unicode="&#x159;" horiz-adv-x="757" 
d="M631 1182h-215l-170 264h168l121 -170l170 170h167zM375 866q73 94 171 144.5t212 50.5h35l-25 -182h-37q-162 0 -271 -94.5t-132 -254.5l-76 -530h-176l147 1044h176z" />
    <glyph glyph-name="Sacute" unicode="&#x15a;" horiz-adv-x="1210" 
d="M653 1550l250 265h227l-288 -265h-189zM547 -25q-157 0 -297 60.5t-225 163.5l118 141q70 -88 184 -142.5t244 -54.5q142 0 247 65.5t118 166.5q7 49 -13.5 89t-49 64t-84.5 46.5t-86 30.5t-89 22q-5 1 -8 2q-73 16 -135 38.5t-120.5 58t-97 79t-57 105.5t-8.5 134
q25 176 181 285t379 109q146 0 260.5 -48t179.5 -130l-111 -140q-48 64 -144.5 107t-209.5 43q-134 0 -231.5 -61.5t-110.5 -157.5q-26 -173 303 -244q36 -7 70 -16t84.5 -27t92 -39.5t84 -55.5t70 -73.5t41 -94.5t4.5 -118q-16 -119 -98.5 -212.5t-209.5 -144.5t-275 -51z
" />
    <glyph glyph-name="sacute" unicode="&#x15b;" horiz-adv-x="985" 
d="M479 1182l250 264h227l-288 -264h-189zM414 -25q-131 0 -232.5 45t-167.5 119l117 127q108 -131 303 -131q106 0 180 39.5t84 108.5q4 29 -7.5 52.5t-28.5 38.5t-54 29.5t-64 22t-77 20.5q-66 17 -103.5 28.5t-92.5 38t-82.5 56.5t-45 80t-8.5 113q14 98 80.5 169
t160.5 104.5t204 33.5q223 0 362 -143l-115 -129q-100 112 -270 112q-95 0 -162 -36t-76 -101q-3 -21 2 -39.5t14 -32t28.5 -26t36 -20.5t46.5 -17t50 -14.5t57 -14.5q46 -11 73 -18.5t69.5 -22.5t67.5 -29.5t54 -38.5t43 -51t21.5 -65.5t1.5 -83.5q-23 -151 -154.5 -237.5
t-314.5 -86.5z" />
    <glyph glyph-name="Scircumflex" unicode="&#x15c;" horiz-adv-x="1210" 
d="M786 1720l-170 -170h-167l243 265h215l168 -265h-168zM684 807q36 -7 70 -16t84.5 -27t92 -39.5t84 -55.5t70 -73.5t41 -94.5t4.5 -118q-16 -119 -98.5 -212.5t-209.5 -144.5t-275 -51q-157 0 -297 60.5t-225 163.5l118 141q70 -88 184 -142.5t244 -54.5q142 0 247 65.5
t118 166.5q7 49 -13.5 89t-49 64t-84.5 46.5t-86 30.5t-89 22q-5 1 -8 2q-73 16 -135 38.5t-120.5 58t-97 79t-57 105.5t-8.5 134q25 176 181 285t379 109q146 0 260.5 -48t179.5 -130l-111 -140q-48 64 -144.5 107t-209.5 43q-134 0 -231.5 -61.5t-110.5 -157.5
q-26 -173 303 -244z" />
    <glyph glyph-name="scircumflex" unicode="&#x15d;" horiz-adv-x="985" 
d="M612 1352l-170 -170h-168l244 264h215l168 -264h-168zM553 608q46 -11 73 -18.5t69.5 -22.5t67.5 -29.5t54 -38.5t43 -51t21.5 -65.5t1.5 -83.5q-23 -151 -154.5 -237.5t-314.5 -86.5q-131 0 -232.5 45t-167.5 119l117 127q108 -131 303 -131q106 0 180 39.5t84 108.5
q4 29 -7.5 52.5t-28.5 38.5t-54 29.5t-64 22t-77 20.5q-66 17 -103.5 28.5t-92.5 38t-82.5 56.5t-45 80t-8.5 113q14 98 80.5 169t160.5 104.5t204 33.5q223 0 362 -143l-115 -129q-100 112 -270 112q-95 0 -162 -36t-76 -101q-3 -21 2 -39.5t14 -32t28.5 -26t36 -20.5
t46.5 -17t50 -14.5t57 -14.5z" />
    <glyph glyph-name="Scedilla" unicode="&#x15e;" horiz-adv-x="1210" 
d="M684 807q36 -7 70 -16t84.5 -27t92 -39.5t84 -55.5t70 -73.5t41 -94.5t4.5 -118q-23 -168 -172.5 -280t-357.5 -126l-47 -49h14q80 0 125.5 -55.5t32.5 -136.5q-11 -85 -80.5 -143t-161.5 -58q-60 0 -107.5 28t-76.5 75l78 73q18 -34 49.5 -55t69.5 -21q46 0 79.5 29
t38.5 72q7 41 -17.5 69.5t-66.5 28.5t-75 -29l-95 45l115 130q-136 12 -255.5 70t-194.5 149l118 141q70 -88 184 -142.5t244 -54.5q142 0 247 65.5t118 166.5q7 49 -13.5 89t-49 64t-84.5 46.5t-86 30.5t-89 22q-5 1 -8 2q-73 16 -135 38.5t-120.5 58t-97 79t-57 105.5
t-8.5 134q25 176 181 285t379 109q146 0 260.5 -48t179.5 -130l-111 -140q-48 64 -144.5 107t-209.5 43q-134 0 -231.5 -61.5t-110.5 -157.5q-26 -173 303 -244z" />
    <glyph glyph-name="scedilla" unicode="&#x15f;" horiz-adv-x="985" 
d="M553 608q46 -11 73 -18.5t69.5 -22.5t67.5 -29.5t54 -38.5t43 -51t21.5 -65.5t1.5 -83.5q-21 -136 -132.5 -220.5t-271.5 -98.5l-49 -52h14q80 0 125.5 -55.5t32.5 -136.5q-11 -85 -80.5 -143t-161.5 -58q-60 0 -107.5 28t-76.5 75l78 73q18 -34 49.5 -55t69.5 -21
q46 0 80.5 29t38.5 72q7 41 -17.5 69.5t-66.5 28.5q-43 0 -76 -29l-94 45l114 127q-213 20 -338 162l117 127q108 -131 303 -131q106 0 180 39.5t84 108.5q4 29 -7.5 52.5t-28.5 38.5t-54 29.5t-64 22t-77 20.5q-66 17 -103.5 28.5t-92.5 38t-82.5 56.5t-45 80t-8.5 113
q14 98 80.5 169t160.5 104.5t204 33.5q223 0 362 -143l-115 -129q-100 112 -270 112q-95 0 -162 -36t-76 -101q-3 -21 2 -39.5t14 -32t28.5 -26t36 -20.5t46.5 -17t50 -14.5t57 -14.5z" />
    <glyph glyph-name="Scaron" unicode="&#x160;" horiz-adv-x="1210" 
d="M870 1550h-215l-170 265h168l121 -170l170 170h168zM684 807q36 -7 70 -16t84.5 -27t92 -39.5t84 -55.5t70 -73.5t41 -94.5t4.5 -118q-16 -119 -98.5 -212.5t-209.5 -144.5t-275 -51q-157 0 -297 60.5t-225 163.5l118 141q70 -88 184 -142.5t244 -54.5q142 0 247 65.5
t118 166.5q7 49 -13.5 89t-49 64t-84.5 46.5t-86 30.5t-89 22q-5 1 -8 2q-73 16 -135 38.5t-120.5 58t-97 79t-57 105.5t-8.5 134q25 176 181 285t379 109q146 0 260.5 -48t179.5 -130l-111 -140q-48 64 -144.5 107t-209.5 43q-134 0 -231.5 -61.5t-110.5 -157.5
q-26 -173 303 -244z" />
    <glyph glyph-name="scaron" unicode="&#x161;" horiz-adv-x="985" 
d="M696 1182h-215l-170 264h168l121 -170l170 170h168zM553 608q46 -11 73 -18.5t69.5 -22.5t67.5 -29.5t54 -38.5t43 -51t21.5 -65.5t1.5 -83.5q-23 -151 -154.5 -237.5t-314.5 -86.5q-131 0 -232.5 45t-167.5 119l117 127q108 -131 303 -131q106 0 180 39.5t84 108.5
q4 29 -7.5 52.5t-28.5 38.5t-54 29.5t-64 22t-77 20.5q-66 17 -103.5 28.5t-92.5 38t-82.5 56.5t-45 80t-8.5 113q14 98 80.5 169t160.5 104.5t204 33.5q223 0 362 -143l-115 -129q-100 112 -270 112q-95 0 -162 -36t-76 -101q-3 -21 2 -39.5t14 -32t28.5 -26t36 -20.5
t46.5 -17t50 -14.5t57 -14.5z" />
    <glyph glyph-name="uni0162" unicode="&#x162;" horiz-adv-x="1212" 
d="M625 0h-29l-68 -70h15q80 0 125 -55t32 -137q-11 -85 -80 -143t-161 -58q-60 0 -108 28t-77 75l78 73q17 -34 49 -54.5t70 -20.5q46 0 80.5 28.5t38.5 71.5q7 41 -17.5 69.5t-66.5 28.5q-43 0 -76 -29l-94 46l133 147h-31l174 1237h-452l24 176h1092l-25 -176h-452z" />
    <glyph glyph-name="uni0163" unicode="&#x163;" horiz-adv-x="827" 
d="M489 885l-81 -578q-20 -162 145 -162q72 0 152 39l-23 -166q-87 -43 -186 -43l-45 -45h14q80 0 125.5 -55.5t32.5 -136.5q-11 -85 -80.5 -143t-161.5 -58q-60 0 -107.5 28t-76.5 75l77 73q17 -34 49 -54.5t70 -20.5q46 0 80.5 28.5t38.5 71.5q7 41 -17.5 69.5t-66.5 28.5
q-43 0 -76 -29l-94 46l123 137q-185 53 -154 289l86 606h-188l22 159h189l39 281h176l-39 -281h313l-22 -159h-314z" />
    <glyph glyph-name="Tcaron" unicode="&#x164;" horiz-adv-x="1212" 
d="M858 1550h-215l-170 265h168l121 -170l170 170h168zM1276 1413l-25 -176h-452l-174 -1237h-187l174 1237h-452l24 176h1092z" />
    <glyph glyph-name="tcaron" unicode="&#x165;" horiz-adv-x="827" 
d="M913 1573l-129 -412h-135l101 412h163zM551 1325l-39 -281h313l-22 -159h-314l-81 -578q-20 -162 145 -162q72 0 152 39l-23 -166q-87 -43 -190 -43q-151 0 -218 79t-47 225l86 606h-188l22 159h189l39 281h176z" />
    <glyph glyph-name="Tbar" unicode="&#x166;" horiz-adv-x="1212" 
d="M1251 1237h-452l-70 -502h205l-16 -129h-207l-86 -606h-187l84 606h-198l16 129h201l71 502h-452l24 176h1092z" />
    <glyph glyph-name="tbar" unicode="&#x167;" horiz-adv-x="827" 
d="M803 885h-314l-38 -271h251l-16 -129h-254l-24 -178q-20 -162 145 -162q72 0 152 39l-23 -166q-87 -43 -190 -43q-151 0 -218 79t-47 225l29 206h-164l17 129h165l39 271h-188l22 159h189l39 281h176l-39 -281h313z" />
    <glyph glyph-name="Utilde" unicode="&#x168;" horiz-adv-x="1419" 
d="M995 1563q-43 0 -79 17.5t-56.5 38.5t-49 38.5t-58.5 17.5q-43 0 -76 -29.5t-39 -72.5h-127q14 105 80 173.5t162 68.5q41 0 76.5 -17.5t56.5 -38t49.5 -38t58.5 -17.5q43 0 76 29t39 73h127q-14 -106 -79.5 -174.5t-160.5 -68.5zM631 -25q-161 0 -282 74t-177.5 203.5
t-34.5 288.5l123 872h186l-120 -868q-25 -166 70 -277.5t261 -111.5q167 0 293.5 111.5t151.5 277.5l121 868h186l-123 -872q-22 -159 -115.5 -288.5t-235.5 -203.5t-304 -74z" />
    <glyph glyph-name="utilde" unicode="&#x169;" horiz-adv-x="1212" 
d="M842 1194q-43 0 -79 17.5t-57 39t-49.5 39t-58.5 17.5q-43 0 -76 -30t-39 -73h-127q14 105 80 173.5t162 68.5q41 0 77 -17.5t56.5 -38t49.5 -38t59 -17.5q43 0 75.5 29.5t38.5 73.5h127q-14 -107 -79 -175.5t-160 -68.5zM528 -25q-213 0 -325 120.5t-84 318.5l88 630
h176l-86 -606q-17 -132 53 -212.5t203 -80.5q134 0 226.5 80.5t109.5 212.5l88 606h176l-90 -630q-28 -198 -174.5 -318.5t-360.5 -120.5z" />
    <glyph glyph-name="Umacron" unicode="&#x16a;" horiz-adv-x="1419" 
d="M616 1581l21 150h485l-20 -150h-486zM631 -25q-161 0 -282 74t-177.5 203.5t-34.5 288.5l123 872h186l-120 -868q-25 -166 70 -277.5t261 -111.5q167 0 293.5 111.5t151.5 277.5l121 868h186l-123 -872q-22 -159 -115.5 -288.5t-235.5 -203.5t-304 -74z" />
    <glyph glyph-name="umacron" unicode="&#x16b;" horiz-adv-x="1212" 
d="M461 1212l20 150h486l-21 -150h-485zM528 -25q-213 0 -325 120.5t-84 318.5l88 630h176l-86 -606q-17 -132 53 -212.5t203 -80.5q134 0 226.5 80.5t109.5 212.5l88 606h176l-90 -630q-28 -198 -174.5 -318.5t-360.5 -120.5z" />
    <glyph glyph-name="Ubreve" unicode="&#x16c;" horiz-adv-x="1419" 
d="M850 1530q-122 0 -191.5 77.5t-52.5 194.5h139q-9 -61 26 -103t95 -42q61 0 109 41.5t57 103.5h139q-17 -117 -108.5 -194.5t-212.5 -77.5zM631 -25q-161 0 -282 74t-177.5 203.5t-34.5 288.5l123 872h186l-120 -868q-25 -166 70 -277.5t261 -111.5q167 0 293.5 111.5
t151.5 277.5l121 868h186l-123 -872q-22 -159 -115.5 -288.5t-235.5 -203.5t-304 -74z" />
    <glyph glyph-name="ubreve" unicode="&#x16d;" horiz-adv-x="1212" 
d="M696 1161q-121 0 -190.5 78t-52.5 195h139q-9 -62 26 -104t95 -42q61 0 109 42t57 104h139q-17 -117 -109 -195t-213 -78zM528 -25q-213 0 -325 120.5t-84 318.5l88 630h176l-86 -606q-17 -132 53 -212.5t203 -80.5q134 0 226.5 80.5t109.5 212.5l88 606h176l-90 -630
q-28 -198 -174.5 -318.5t-360.5 -120.5z" />
    <glyph glyph-name="Uring" unicode="&#x16e;" horiz-adv-x="1419" 
d="M848 1522q-75 0 -119 50.5t-35 125.5q10 73 69 123.5t134 50.5q76 0 120.5 -50t35.5 -124q-10 -75 -69 -125.5t-136 -50.5zM862 1614q34 0 61 24t31 60q4 35 -15.5 58.5t-53.5 23.5t-61 -23.5t-31 -58.5q-4 -37 15.5 -60.5t53.5 -23.5zM631 -25q-161 0 -282 74
t-177.5 203.5t-34.5 288.5l123 872h186l-120 -868q-25 -166 70 -277.5t261 -111.5q167 0 293.5 111.5t151.5 277.5l121 868h186l-123 -872q-22 -159 -115.5 -288.5t-235.5 -203.5t-304 -74z" />
    <glyph glyph-name="uring" unicode="&#x16f;" horiz-adv-x="1212" 
d="M694 1153q-75 0 -118.5 50.5t-34.5 125.5q11 74 69 124t133 50q76 0 120.5 -50t35.5 -124q-10 -75 -69 -125.5t-136 -50.5zM709 1245q34 0 61 24t31 60q4 35 -16 58.5t-54 23.5t-61 -23.5t-31 -58.5q-4 -36 16 -60t54 -24zM528 -25q-213 0 -325 120.5t-84 318.5l88 630
h176l-86 -606q-17 -132 53 -212.5t203 -80.5q134 0 226.5 80.5t109.5 212.5l88 606h176l-90 -630q-28 -198 -174.5 -318.5t-360.5 -120.5z" />
    <glyph glyph-name="Uhungarumlaut" unicode="&#x170;" horiz-adv-x="1419" 
d="M561 1550l207 265h197l-232 -265h-172zM961 1550l204 265h199l-231 -265h-172zM631 -25q-161 0 -282 74t-177.5 203.5t-34.5 288.5l123 872h186l-120 -868q-25 -166 70 -277.5t261 -111.5q167 0 293.5 111.5t151.5 277.5l121 868h186l-123 -872q-22 -159 -115.5 -288.5
t-235.5 -203.5t-304 -74z" />
    <glyph glyph-name="uhungarumlaut" unicode="&#x171;" horiz-adv-x="1212" 
d="M408 1182l206 264h197l-231 -264h-172zM807 1182l205 264h198l-231 -264h-172zM528 -25q-213 0 -325 120.5t-84 318.5l88 630h176l-86 -606q-17 -132 53 -212.5t203 -80.5q134 0 226.5 80.5t109.5 212.5l88 606h176l-90 -630q-28 -198 -174.5 -318.5t-360.5 -120.5z" />
    <glyph glyph-name="Uogonek" unicode="&#x172;" horiz-adv-x="1419" 
d="M1223 1413h186l-123 -872q-27 -193 -157.5 -339.5t-315.5 -201.5q-95 -44 -148 -96t-61 -107q-7 -48 21.5 -77t74.5 -29q59 0 109 33l27 -111q-82 -51 -181 -51t-154.5 56.5t-43.5 141.5q21 127 159 215q-117 2 -214.5 46.5t-161 119.5t-92 179t-11.5 221l123 872h186
l-120 -868q-25 -166 70 -277.5t261 -111.5q167 0 293.5 111.5t151.5 277.5z" />
    <glyph glyph-name="uogonek" unicode="&#x173;" horiz-adv-x="1212" 
d="M977 1044h176l-90 -630q-23 -159 -124 -270.5t-257 -149.5q-177 -88 -193 -197q-7 -48 22 -77t75 -29q58 0 108 33l27 -111q-82 -51 -180 -51q-99 0 -155 56.5t-44 141.5q21 130 162 215q-202 7 -306.5 127t-78.5 312l88 630h176l-86 -606q-17 -132 53 -212.5t203 -80.5
q134 0 226.5 80.5t109.5 212.5z" />
    <glyph glyph-name="Wcircumflex" unicode="&#x174;" horiz-adv-x="2088" 
d="M1214 1720l-170 -170h-167l243 265h215l168 -265h-168zM1966 1413h195l-650 -1413h-190l-188 1139l-512 -1139h-191l-252 1413h199l188 -1165l522 1165h168l197 -1165z" />
    <glyph glyph-name="wcircumflex" unicode="&#x175;" horiz-adv-x="1781" 
d="M1008 1352l-170 -170h-168l243 264h215l168 -264h-168zM1628 1044h193l-531 -1044h-184l-170 838l-408 -838h-184l-235 1044h198l164 -829l406 829h180l172 -827z" />
    <glyph glyph-name="Ycircumflex" unicode="&#x176;" horiz-adv-x="1380" 
d="M860 1720l-170 -170h-168l244 265h215l168 -265h-168zM1276 1413h211l-703 -891l-73 -522h-189l74 522l-453 891h215l361 -704z" />
    <glyph glyph-name="ycircumflex" unicode="&#x177;" horiz-adv-x="1161" 
d="M698 1352l-170 -170h-168l244 264h215l168 -264h-168zM1010 1044h196l-739 -1265q-54 -91 -132.5 -142t-164.5 -51q-62 0 -124.5 28t-100.5 73l92 135q22 -30 56.5 -48t72.5 -18q90 0 149 94l97 154l-310 1040h203l236 -833z" />
    <glyph glyph-name="Ydieresis" unicode="&#x178;" horiz-adv-x="1380" 
d="M625 1561q-46 0 -73.5 31t-21.5 77q6 45 43.5 77t83.5 32t72.5 -31.5t20.5 -77.5t-42 -77t-83 -31zM1049 1561q-46 0 -73.5 31t-21.5 77t42.5 77.5t82.5 31.5t73.5 -31.5t21.5 -77.5q-6 -45 -42.5 -76.5t-82.5 -31.5zM1276 1413h211l-703 -891l-73 -522h-189l74 522
l-453 891h215l361 -704z" />
    <glyph glyph-name="Zacute" unicode="&#x179;" horiz-adv-x="1257" 
d="M1139 1815l-289 -265h-188l249 265h228zM1284 1413l-18 -135l-973 -1102h831l-24 -176h-1090l21 135l970 1102h-808l24 176h1067z" />
    <glyph glyph-name="zacute" unicode="&#x17a;" horiz-adv-x="1024" 
d="M973 1446l-289 -264h-188l249 264h228zM993 1044l-20 -126l-686 -748h596l-23 -170h-844l21 127l684 747h-574l25 170h821z" />
    <glyph glyph-name="Zdotaccent" unicode="&#x17b;" horiz-adv-x="1257" 
d="M772 1561q-49 0 -77.5 32.5t-20.5 79.5q6 47 44 80t85 33q49 0 76.5 -32.5t21.5 -80.5q-8 -47 -45 -79.5t-84 -32.5zM1284 1413l-18 -135l-973 -1102h831l-24 -176h-1090l21 135l970 1102h-808l24 176h1067z" />
    <glyph glyph-name="zdotaccent" unicode="&#x17c;" horiz-adv-x="1024" 
d="M606 1192q-49 0 -77.5 33t-20.5 80q6 47 43.5 79.5t85.5 32.5q49 0 76.5 -32t21.5 -80q-8 -47 -45 -80t-84 -33zM993 1044l-20 -126l-686 -748h596l-23 -170h-844l21 127l684 747h-574l25 170h821z" />
    <glyph glyph-name="Zcaron" unicode="&#x17d;" horiz-adv-x="1257" 
d="M879 1550h-215l-170 265h168l120 -170l170 170h168zM1284 1413l-18 -135l-973 -1102h831l-24 -176h-1090l21 135l970 1102h-808l24 176h1067z" />
    <glyph glyph-name="zcaron" unicode="&#x17e;" horiz-adv-x="1024" 
d="M713 1182h-215l-170 264h168l120 -170l170 170h168zM993 1044l-20 -126l-686 -748h596l-23 -170h-844l21 127l684 747h-574l25 170h821z" />
    <glyph glyph-name="florin" unicode="&#x192;" horiz-adv-x="1001" 
d="M1049 1233q-141 0 -215 -51t-111 -170l-70 -219h230l-23 -164h-258l-211 -672q-58 -182 -182.5 -264t-349.5 -82l26 180q141 0 216 51.5t112 169.5l195 617h-218l23 164h246l86 274q58 182 181.5 264t348.5 82z" />
    <glyph glyph-name="uni01C4" unicode="&#x1c4;" horiz-adv-x="2703" 
d="M2324 1550h-215l-167 265h167l119 -170l170 170h168zM836 1413q202 0 353 -92t221.5 -253.5t43.5 -360.5q-21 -149 -94.5 -280t-181.5 -225t-249 -148t-292 -54h-545l199 1413h545zM2730 1413l-18 -135l-973 -1102h831l-24 -176h-1090l21 135l970 1102h-809l25 176h1067z
M1262 707q20 149 -32 270.5t-163 190.5t-258 69h-354l-150 -1061h354q224 0 396.5 152t206.5 379z" />
    <glyph glyph-name="uni01C5" unicode="&#x1c5;" horiz-adv-x="2539" 
d="M2228 1182h-215l-170 264h168l121 -170l170 170h168zM836 1413q202 0 353 -92t221.5 -253.5t43.5 -360.5q-21 -149 -94.5 -280t-181.5 -225t-249 -148t-292 -54h-545l199 1413h545zM1262 707q20 149 -32 270.5t-163 190.5t-258 69h-354l-150 -1061h354q224 0 396.5 152
t206.5 379zM2509 1044l-21 -126l-686 -748h596l-22 -170h-844l20 127l684 747h-573l25 170h821z" />
    <glyph glyph-name="uni01C6" unicode="&#x1c6;" horiz-adv-x="2363" 
d="M1061 856l86 619h176l-207 -1475h-176l27 188q-83 -100 -196.5 -156.5t-240.5 -56.5q-147 0 -256.5 71.5t-159 196.5t-28.5 279q32 233 204 390t396 157q127 0 223.5 -56.5t151.5 -156.5zM2052 1182h-215l-170 264h168l121 -170l170 170h168zM2333 1044l-21 -126
l-686 -748h596l-22 -170h-844l20 127l684 747h-573l24 170h822zM588 145q154 0 273.5 100.5t148.5 254.5l6 43q15 154 -76 255t-246 101q-161 0 -283 -107.5t-145 -269.5q-22 -162 69.5 -269.5t252.5 -107.5z" />
    <glyph glyph-name="uni01C7" unicode="&#x1c7;" horiz-adv-x="1980" 
d="M479 1413l-174 -1237h686l-24 -176h-875l199 1413h188zM1782 1413h186l-139 -1003q-29 -197 -168 -316t-338 -119q-121 0 -231 56l24 182q105 -57 215 -57q127 0 210.5 71.5t100.5 192.5z" />
    <glyph glyph-name="uni01C8" unicode="&#x1c8;" horiz-adv-x="1595" 
d="M1495 1487q50 0 78 -33t22 -84q-8 -50 -46 -83.5t-89 -33.5q-49 0 -77.5 33.5t-22.5 83.5q6 51 45 84t90 33zM991 176l-24 -176h-875l199 1413h188l-174 -1237h686zM1182 -111l161 1155h177l-164 -1173q-20 -136 -103.5 -210.5t-220.5 -74.5q-70 0 -129 27l23 158
q44 -23 98 -23q138 0 158 141z" />
    <glyph glyph-name="uni01C9" unicode="&#x1c9;" horiz-adv-x="958" 
d="M823 1253q-49 0 -77.5 33.5t-22.5 83.5q6 51 45 84t90 33q50 0 78 -33t22 -84q-8 -50 -46 -83.5t-89 -33.5zM76 0l207 1475h176l-207 -1475h-176zM395 -414q-70 0 -129 27l23 158q44 -23 98 -23q138 0 158 141l162 1155h176l-164 -1173q-20 -136 -103.5 -210.5
t-220.5 -74.5z" />
    <glyph glyph-name="uni01CA" unicode="&#x1ca;" horiz-adv-x="2390" 
d="M1130 311l154 1102h186l-198 -1413h-193l-645 1102l-153 -1102h-189l199 1413h194zM2193 1413h187l-139 -1003q-29 -197 -168 -316t-338 -119q-122 0 -232 56l25 182q105 -57 215 -57q127 0 210.5 71.5t100.5 192.5z" />
    <glyph glyph-name="uni01CB" unicode="&#x1cb;" horiz-adv-x="1998" 
d="M1898 1487q50 0 78.5 -33t22.5 -84q-8 -50 -46 -83.5t-89 -33.5q-49 0 -78 33.5t-23 83.5q6 51 45 84t90 33zM1284 1413h186l-198 -1413h-193l-645 1102l-153 -1102h-189l199 1413h194l645 -1102zM1585 -111l162 1155h176l-164 -1173q-20 -136 -103 -210.5t-220 -74.5
q-70 0 -129 27l22 158q44 -23 98 -23q138 0 158 141z" />
    <glyph glyph-name="uni01CC" unicode="&#x1cc;" horiz-adv-x="1746" 
d="M1647 1487q50 0 78 -33t22 -84q-8 -50 -46 -83.5t-89 -33.5q-49 0 -78 33.5t-23 83.5t45 83.5t91 33.5zM780 1069q191 0 291 -116t74 -308l-92 -645h-176l84 590q20 140 -52 224.5t-211 84.5q-138 0 -236 -79t-124 -210l-86 -610h-176l147 1044h176l-22 -159
q152 184 403 184zM1333 -111l162 1155h176l-164 -1173q-20 -136 -103 -210.5t-220 -74.5q-70 0 -129 27l22 158q44 -23 99 -23q137 0 157 141z" />
    <glyph glyph-name="uni01CD" unicode="&#x1cd;" horiz-adv-x="1460" 
d="M981 1550h-215l-170 265h168l121 -170l170 170h168zM1137 0l-88 342h-695l-184 -342h-201l774 1413h224l376 -1413h-206zM449 516h555l-179 694z" />
    <glyph glyph-name="uni01CE" unicode="&#x1ce;" 
d="M877 1182h-215l-170 264h167l121 -170l170 170h168zM1087 1044h177l-148 -1044h-176l27 188q-81 -100 -195.5 -156.5t-241.5 -56.5q-147 0 -256.5 71.5t-159 196.5t-28.5 279q32 233 204 390t396 157q128 0 225 -56.5t150 -158.5zM588 145q158 0 279.5 105.5t146.5 265.5
v6q23 161 -68.5 269t-251.5 108q-161 0 -283 -107.5t-145 -269.5q-22 -162 69.5 -269.5t252.5 -107.5z" />
    <glyph glyph-name="Gcaron" unicode="&#x1e6;" horiz-adv-x="1619" 
d="M1081 1550h-215l-170 265h168l121 -170l170 170h168zM911 752h662l-8 -62q-22 -152 -95 -285t-181 -227.5t-248.5 -148.5t-292.5 -54q-154 0 -282.5 56.5t-212 153.5t-121 232.5t-15.5 289.5q28 205 147.5 372.5t302.5 263t391 95.5q187 0 334 -78t224 -215l-158 -111
q-60 105 -170 165.5t-252 60.5q-153 0 -289.5 -72t-226.5 -199t-111 -282q-22 -155 32 -282t170 -199t269 -72q202 0 364 121.5t212 310.5h-467z" />
    <glyph glyph-name="gcaron" unicode="&#x1e7;" horiz-adv-x="1150" 
d="M782 1182h-215l-170 264h168l121 -170l170 170h168zM1149 1182h82l-25 -164h-69q-56 0 -97 -31t-51 -82q87 -123 66 -289q-28 -193 -183 -323.5t-358 -130.5q-119 0 -215 49q-34 -21 -56.5 -52.5t-25.5 -64.5q-7 -55 28 -88t101 -33h383q149 0 235 -75t83 -205l-189 -47
q7 70 -43 112.5t-141 42.5h-383q-131 0 -202 68.5t-56 179.5q11 74 55.5 138t110.5 98q-126 129 -99 331q26 193 181.5 323t359.5 130q139 0 244 -65q28 82 98.5 130t165.5 48zM872 616q17 122 -55.5 203.5t-198.5 81.5q-127 0 -222.5 -81.5t-112.5 -203.5
q-17 -123 55.5 -204.5t198.5 -81.5t222 81.5t113 204.5z" />
    <glyph glyph-name="uni01EA" unicode="&#x1ea;" horiz-adv-x="1658" 
d="M958 1438q208 0 364 -95.5t228.5 -263t44.5 -372.5q-36 -253 -207.5 -445t-414.5 -258q-98 -43 -153 -96.5t-64 -110.5q-7 -48 21.5 -77t74.5 -29q59 0 109 33l26 -111q-82 -51 -180 -51q-99 0 -155 56.5t-44 141.5q21 126 160 215h-16q-156 0 -285 56.5t-213 153.5
t-121.5 232.5t-15.5 289.5q28 205 147.5 372.5t302.5 263t391 95.5zM1403 707q22 154 -31.5 280.5t-169 198t-268.5 71.5t-289 -71.5t-225.5 -198t-110.5 -280.5q-22 -154 31.5 -280.5t169 -198.5t268.5 -72q233 0 412 158t213 393z" />
    <glyph glyph-name="uni01EB" unicode="&#x1eb;" horiz-adv-x="1275" 
d="M717 1069q236 0 372.5 -157t104.5 -390q-26 -186 -151.5 -327.5t-305.5 -194.5q-191 -89 -207 -203q-7 -48 22 -77t75 -29q58 0 108 33l27 -111q-82 -51 -180 -51q-99 0 -155 56.5t-44 141.5q10 62 52.5 118.5t107.5 96.5q-230 6 -361.5 162t-99.5 385
q21 153 111.5 278.5t229 197t294.5 71.5zM1012 522q23 161 -68.5 269t-251.5 108q-161 0 -283.5 -108t-144.5 -269q-22 -162 69.5 -269.5t252.5 -107.5q160 0 282 108t144 269z" />
    <glyph glyph-name="uni01F1" unicode="&#x1f1;" horiz-adv-x="2703" 
d="M836 1413q202 0 353 -92t221.5 -253.5t43.5 -360.5q-21 -149 -94.5 -280t-181.5 -225t-249 -148t-292 -54h-545l199 1413h545zM2730 1413l-18 -135l-973 -1102h831l-24 -176h-1090l21 135l970 1102h-809l25 176h1067zM1262 707q20 149 -32 270.5t-163 190.5t-258 69h-354
l-150 -1061h354q224 0 396.5 152t206.5 379z" />
    <glyph glyph-name="uni01F2" unicode="&#x1f2;" horiz-adv-x="2539" 
d="M836 1413q202 0 353 -92t221.5 -253.5t43.5 -360.5q-21 -149 -94.5 -280t-181.5 -225t-249 -148t-292 -54h-545l199 1413h545zM1262 707q20 149 -32 270.5t-163 190.5t-258 69h-354l-150 -1061h354q224 0 396.5 152t206.5 379zM2509 1044l-21 -126l-686 -748h596
l-22 -170h-844l20 127l684 747h-573l25 170h821z" />
    <glyph glyph-name="uni01F3" unicode="&#x1f3;" horiz-adv-x="2363" 
d="M1061 856l86 619h176l-207 -1475h-176l27 188q-83 -100 -196.5 -156.5t-240.5 -56.5q-147 0 -256.5 71.5t-159 196.5t-28.5 279q32 233 204 390t396 157q127 0 223.5 -56.5t151.5 -156.5zM2333 1044l-21 -126l-686 -748h596l-22 -170h-844l20 127l684 747h-573l24 170
h822zM588 145q154 0 273.5 100.5t148.5 254.5l6 43q15 154 -76 255t-246 101q-161 0 -283 -107.5t-145 -269.5q-22 -162 69.5 -269.5t252.5 -107.5z" />
    <glyph glyph-name="uni01F4" unicode="&#x1f4;" horiz-adv-x="1619" 
d="M1341 1815l-288 -265h-189l250 265h227zM911 752h662l-8 -62q-22 -152 -95 -285t-181 -227.5t-248.5 -148.5t-292.5 -54q-154 0 -282.5 56.5t-212 153.5t-121 232.5t-15.5 289.5q28 205 147.5 372.5t302.5 263t391 95.5q187 0 334 -78t224 -215l-158 -111
q-60 105 -170 165.5t-252 60.5q-153 0 -289.5 -72t-226.5 -199t-111 -282q-22 -155 32 -282t170 -199t269 -72q202 0 364 121.5t212 310.5h-467z" />
    <glyph glyph-name="uni01F5" unicode="&#x1f5;" horiz-adv-x="1150" 
d="M1042 1446l-288 -264h-189l250 264h227zM1149 1182h82l-25 -164h-69q-56 0 -97 -31t-51 -82q87 -123 66 -289q-28 -193 -183 -323.5t-358 -130.5q-119 0 -215 49q-34 -21 -56.5 -52.5t-25.5 -64.5q-7 -55 28 -88t101 -33h383q149 0 235 -75t83 -205l-189 -47
q7 70 -43 112.5t-141 42.5h-383q-131 0 -202 68.5t-56 179.5q11 74 55.5 138t110.5 98q-126 129 -99 331q26 193 181.5 323t359.5 130q139 0 244 -65q28 82 98.5 130t165.5 48zM872 616q17 122 -55.5 203.5t-198.5 81.5q-127 0 -222.5 -81.5t-112.5 -203.5
q-17 -123 55.5 -204.5t198.5 -81.5t222 81.5t113 204.5z" />
    <glyph glyph-name="AEacute" unicode="&#x1fc;" horiz-adv-x="1855" 
d="M1552 1815l-288 -265h-189l250 265h227zM1845 1237h-657l-62 -438h590l-24 -176h-590l-64 -447h668l-25 -176h-854l47 340h-530l-254 -340h-215l1057 1413h938zM471 512h428l100 709z" />
    <glyph glyph-name="aeacute" unicode="&#x1fd;" horiz-adv-x="1976" 
d="M1440 1446l-289 -264h-188l249 264h228zM1436 1069q153 0 267 -71t167 -197.5t31 -282.5q-5 -45 -15 -65h-901q5 -140 98.5 -228t243.5 -88q108 0 205 46t160 120l114 -100q-96 -106 -228 -167t-278 -61q-137 0 -245.5 56.5t-171.5 156.5q-85 -94 -218.5 -153.5
t-277.5 -59.5q-177 0 -276 91t-78 227q19 136 141 226.5t283 90.5h374l9 58q15 107 -58.5 174t-208.5 67q-94 0 -171 -34.5t-128 -94.5l-94 101q70 89 180 138.5t244 49.5q138 0 236.5 -54t140.5 -149q88 95 206.5 149t248.5 54zM1411 907q-136 0 -246.5 -82t-154.5 -215
h716q-4 132 -92.5 214.5t-222.5 82.5zM426 135q108 0 218.5 49.5t186.5 126.5q-18 68 -18 142h-369q-92 0 -156 -44t-73 -110q-11 -70 49 -117t162 -47z" />
    <glyph glyph-name="Oslashacute" unicode="&#x1fe;" horiz-adv-x="1658" 
d="M1366 1815l-289 -265h-188l250 265h227zM1655 1413l-195 -190q85 -100 120.5 -232.5t14.5 -283.5q-29 -205 -149 -373t-303 -263.5t-391 -95.5q-246 0 -422 136l-113 -111h-162l195 190q-84 100 -119 232.5t-14 284.5q28 205 147.5 372.5t302.5 263t391 95.5
q248 0 422 -135l113 110h162zM309 707q-30 -222 86 -373l842 827q-126 96 -303 96q-153 0 -289 -71.5t-225.5 -198t-110.5 -280.5zM1403 707q30 220 -86 374l-842 -829q123 -96 303 -96q233 0 412 158t213 393z" />
    <glyph glyph-name="oslashacute" unicode="&#x1ff;" horiz-adv-x="1275" 
d="M1112 1446l-289 -264h-188l250 264h227zM1245 1044l-147 -141q126 -155 96 -381q-21 -153 -111.5 -278.5t-228.5 -197t-293 -71.5q-189 0 -317 103l-80 -78h-133l147 141q-126 155 -96 381q21 153 111.5 278.5t229 197t294.5 71.5q188 0 315 -102l80 77h133zM264 522
q-19 -149 51 -246l582 560q-85 63 -205 63q-161 0 -283.5 -108t-144.5 -269zM1012 522q21 143 -51 248l-580 -561q83 -64 205 -64q160 0 282 108t144 269z" />
    <glyph glyph-name="uni0200" unicode="&#x200;" horiz-adv-x="1460" 
d="M766 1550h-172l-158 265h197zM1163 1550h-170l-157 265h196zM1137 0l-88 342h-695l-184 -342h-201l774 1413h224l376 -1413h-206zM449 516h555l-179 694z" />
    <glyph glyph-name="uni0201" unicode="&#x201;" 
d="M659 1182h-172l-157 264h196zM1057 1182h-170l-158 264h197zM1087 1044h177l-148 -1044h-176l27 188q-81 -100 -195.5 -156.5t-241.5 -56.5q-147 0 -256.5 71.5t-159 196.5t-28.5 279q32 233 204 390t396 157q128 0 225 -56.5t150 -158.5zM588 145q158 0 279.5 105.5
t146.5 265.5v6q23 161 -68.5 269t-251.5 108q-161 0 -283 -107.5t-145 -269.5q-22 -162 69.5 -269.5t252.5 -107.5z" />
    <glyph glyph-name="uni0202" unicode="&#x202;" horiz-adv-x="1460" 
d="M891 1683q-62 0 -108.5 -41t-55.5 -104h-139q17 117 109 195.5t212 78.5q122 0 192.5 -78.5t51.5 -195.5h-137q9 63 -27 104t-98 41zM1137 0l-88 342h-695l-184 -342h-201l774 1413h224l376 -1413h-206zM449 516h555l-179 694z" />
    <glyph glyph-name="uni0203" unicode="&#x203;" 
d="M784 1315q-61 0 -107.5 -41.5t-55.5 -104.5h-140q17 117 109.5 196t212.5 79q122 0 192.5 -79t51.5 -196h-138q9 63 -27 104.5t-98 41.5zM1087 1044h177l-148 -1044h-176l27 188q-81 -100 -195.5 -156.5t-241.5 -56.5q-147 0 -256.5 71.5t-159 196.5t-28.5 279
q32 233 204 390t396 157q128 0 225 -56.5t150 -158.5zM588 145q158 0 279.5 105.5t146.5 265.5v6q23 161 -68.5 269t-251.5 108q-161 0 -283 -107.5t-145 -269.5q-22 -162 69.5 -269.5t252.5 -107.5z" />
    <glyph glyph-name="uni0204" unicode="&#x204;" horiz-adv-x="1202" 
d="M674 1550h-172l-158 265h197zM1071 1550h-170l-158 265h197zM1192 1237h-737l-62 -438h672l-27 -176h-669l-64 -447h748l-25 -176h-936l199 1413h926z" />
    <glyph glyph-name="uni0205" unicode="&#x205;" horiz-adv-x="1251" 
d="M625 1182h-172l-158 264h197zM1022 1182h-170l-158 264h197zM709 1069q153 0 268 -71t168 -196.5t31 -279.5q-2 -23 -15 -78h-901q8 -138 101.5 -222.5t242.5 -84.5q111 0 212 47.5t165 122.5l109 -104q-97 -106 -231.5 -167t-283.5 -61q-121 0 -221 42.5t-165 115.5
t-94 175t-13 218q22 152 111.5 276.5t225.5 195.5t290 71zM684 907q-136 0 -247 -84.5t-154 -218.5h716q-5 136 -91.5 219.5t-223.5 83.5z" />
    <glyph glyph-name="uni0206" unicode="&#x206;" horiz-adv-x="1202" 
d="M799 1683q-62 0 -108.5 -41t-55.5 -104h-139q17 117 109 195.5t212 78.5q122 0 192.5 -78.5t51.5 -195.5h-137q9 63 -27 104t-98 41zM1192 1237h-737l-62 -438h672l-27 -176h-669l-64 -447h748l-25 -176h-936l199 1413h926z" />
    <glyph glyph-name="uni0207" unicode="&#x207;" horiz-adv-x="1251" 
d="M750 1315q-62 0 -108.5 -41.5t-55.5 -104.5h-140q17 117 109.5 196t212.5 79q122 0 192.5 -79t51.5 -196h-138q9 63 -26.5 104.5t-97.5 41.5zM709 1069q153 0 268 -71t168 -196.5t31 -279.5q-2 -23 -15 -78h-901q8 -138 101.5 -222.5t242.5 -84.5q111 0 212 47.5
t165 122.5l109 -104q-97 -106 -231.5 -167t-283.5 -61q-121 0 -221 42.5t-165 115.5t-94 175t-13 218q22 152 111.5 276.5t225.5 195.5t290 71zM684 907q-136 0 -247 -84.5t-154 -218.5h716q-5 136 -91.5 219.5t-223.5 83.5z" />
    <glyph glyph-name="uni0208" unicode="&#x208;" horiz-adv-x="520" 
d="M125 1550l-158 265h197l133 -265h-172zM524 1550l-157 265h196l131 -265h-170zM92 0l199 1413h188l-198 -1413h-189z" />
    <glyph glyph-name="uni0209" unicode="&#x209;" horiz-adv-x="473" 
d="M49 1182l-158 264h197l133 -264h-172zM449 1182l-158 264h196l131 -264h-169zM76 0l147 1044h176l-147 -1044h-176z" />
    <glyph glyph-name="uni020A" unicode="&#x20a;" horiz-adv-x="520" 
d="M119 1538q17 117 109 195.5t212 78.5q122 0 192.5 -78.5t51.5 -195.5h-137q9 63 -27 104t-98 41t-108.5 -41t-55.5 -104h-139zM92 0l199 1413h188l-198 -1413h-189z" />
    <glyph glyph-name="uni020B" unicode="&#x20b;" horiz-adv-x="473" 
d="M45 1169q17 117 109.5 196t212.5 79q122 0 192 -79t51 -196h-137q9 63 -27 104.5t-98 41.5t-108.5 -41.5t-55.5 -104.5h-139zM76 0l147 1044h176l-147 -1044h-176z" />
    <glyph glyph-name="uni020C" unicode="&#x20c;" horiz-adv-x="1658" 
d="M694 1550l-157 265h196l133 -265h-172zM1094 1550l-158 265h197l131 -265h-170zM752 -25q-156 0 -285 56.5t-213 153.5t-121.5 232.5t-15.5 289.5q28 205 147.5 372.5t302.5 263t391 95.5t364 -95.5t228.5 -263t44.5 -372.5q-29 -205 -149 -373t-303 -263.5t-391 -95.5z
M778 156q233 0 412 158t213 393q22 154 -31.5 280.5t-169 198t-268.5 71.5t-289 -71.5t-225.5 -198t-110.5 -280.5q-22 -154 31.5 -280.5t169 -198.5t268.5 -72z" />
    <glyph glyph-name="uni020D" unicode="&#x20d;" horiz-adv-x="1275" 
d="M451 1182l-158 264h196l134 -264h-172zM850 1182l-158 264h197l131 -264h-170zM561 -25q-156 0 -273.5 71.5t-172 197t-33.5 278.5t111.5 278.5t229 197t294.5 71.5q236 0 372.5 -157t104.5 -390q-21 -153 -111.5 -278.5t-228.5 -197t-293 -71.5zM586 145q160 0 282 108
t144 269q23 161 -68.5 269t-251.5 108q-161 0 -283.5 -108t-144.5 -269q-22 -162 69.5 -269.5t252.5 -107.5z" />
    <glyph glyph-name="uni020E" unicode="&#x20e;" horiz-adv-x="1658" 
d="M688 1538q17 117 109.5 195.5t212.5 78.5q122 0 192 -78.5t51 -195.5h-137q9 63 -27 104t-98 41t-108.5 -41t-55.5 -104h-139zM752 -25q-156 0 -285 56.5t-213 153.5t-121.5 232.5t-15.5 289.5q28 205 147.5 372.5t302.5 263t391 95.5t364 -95.5t228.5 -263t44.5 -372.5
q-29 -205 -149 -373t-303 -263.5t-391 -95.5zM778 156q233 0 412 158t213 393q22 154 -31.5 280.5t-169 198t-268.5 71.5t-289 -71.5t-225.5 -198t-110.5 -280.5q-22 -154 31.5 -280.5t169 -198.5t268.5 -72z" />
    <glyph glyph-name="uni020F" unicode="&#x20f;" horiz-adv-x="1275" 
d="M444 1169q17 117 109.5 196t212.5 79q122 0 192.5 -79t51.5 -196h-138q9 63 -26.5 104.5t-97.5 41.5t-108.5 -41.5t-55.5 -104.5h-140zM561 -25q-156 0 -273.5 71.5t-172 197t-33.5 278.5t111.5 278.5t229 197t294.5 71.5q236 0 372.5 -157t104.5 -390
q-21 -153 -111.5 -278.5t-228.5 -197t-293 -71.5zM586 145q160 0 282 108t144 269q23 161 -68.5 269t-251.5 108q-161 0 -283.5 -108t-144.5 -269q-22 -162 69.5 -269.5t252.5 -107.5z" />
    <glyph glyph-name="uni0210" unicode="&#x210;" horiz-adv-x="1269" 
d="M672 1550h-172l-158 265h197zM1069 1550h-170l-158 265h197zM1245 983q-25 -171 -155 -289.5t-304 -130.5l351 -563h-228l-344 561h-205l-79 -561h-189l199 1413h573q188 0 297.5 -123t83.5 -307zM1053 981q15 110 -47 183t-170 73h-381l-72 -512h381q107 0 189.5 73
t99.5 183z" />
    <glyph glyph-name="uni0211" unicode="&#x211;" horiz-adv-x="757" 
d="M416 1182h-172l-158 264h197zM813 1182h-170l-158 264h197zM375 866q73 94 171 144.5t212 50.5h35l-25 -182h-37q-162 0 -271 -94.5t-132 -254.5l-76 -530h-176l147 1044h176z" />
    <glyph glyph-name="uni0212" unicode="&#x212;" horiz-adv-x="1269" 
d="M797 1683q-62 0 -108.5 -41t-55.5 -104h-139q17 117 109 195.5t212 78.5q122 0 192.5 -78.5t51.5 -195.5h-137q9 63 -27 104t-98 41zM1245 983q-25 -171 -155 -289.5t-304 -130.5l351 -563h-228l-344 561h-205l-79 -561h-189l199 1413h573q188 0 297.5 -123t83.5 -307z
M1053 981q15 110 -47 183t-170 73h-381l-72 -512h381q107 0 189.5 73t99.5 183z" />
    <glyph glyph-name="uni0213" unicode="&#x213;" horiz-adv-x="757" 
d="M559 1444q122 0 192.5 -79t51.5 -196h-137q9 63 -27 104.5t-98 41.5t-108.5 -41.5t-55.5 -104.5h-139q17 117 109 196t212 79zM375 866q73 94 171 144.5t212 50.5h35l-25 -182h-37q-162 0 -271 -94.5t-132 -254.5l-76 -530h-176l147 1044h176z" />
    <glyph glyph-name="uni0214" unicode="&#x214;" horiz-adv-x="1419" 
d="M573 1550l-157 265h196l133 -265h-172zM973 1550l-158 265h197l131 -265h-170zM631 -25q-161 0 -282 74t-177.5 203.5t-34.5 288.5l123 872h186l-120 -868q-25 -166 70 -277.5t261 -111.5q167 0 293.5 111.5t151.5 277.5l121 868h186l-123 -872q-22 -159 -115.5 -288.5
t-235.5 -203.5t-304 -74z" />
    <glyph glyph-name="uni0215" unicode="&#x215;" horiz-adv-x="1212" 
d="M420 1182l-158 264h197l133 -264h-172zM819 1182l-157 264h196l131 -264h-170zM528 -25q-213 0 -325 120.5t-84 318.5l88 630h176l-86 -606q-17 -132 53 -212.5t203 -80.5q134 0 226.5 80.5t109.5 212.5l88 606h176l-90 -630q-28 -198 -174.5 -318.5t-360.5 -120.5z" />
    <glyph glyph-name="uni0216" unicode="&#x216;" horiz-adv-x="1419" 
d="M567 1538q17 117 109.5 195.5t212.5 78.5q122 0 192.5 -78.5t51.5 -195.5h-138q9 63 -27 104t-98 41t-108 -41t-55 -104h-140zM631 -25q-161 0 -282 74t-177.5 203.5t-34.5 288.5l123 872h186l-120 -868q-25 -166 70 -277.5t261 -111.5q167 0 293.5 111.5t151.5 277.5
l121 868h186l-123 -872q-22 -159 -115.5 -288.5t-235.5 -203.5t-304 -74z" />
    <glyph glyph-name="uni0217" unicode="&#x217;" horiz-adv-x="1212" 
d="M414 1169q17 117 109 196t212 79q122 0 192.5 -79t51.5 -196h-137q9 63 -27 104.5t-98 41.5t-108.5 -41.5t-55.5 -104.5h-139zM528 -25q-213 0 -325 120.5t-84 318.5l88 630h176l-86 -606q-17 -132 53 -212.5t203 -80.5q134 0 226.5 80.5t109.5 212.5l88 606h176
l-90 -630q-28 -198 -174.5 -318.5t-360.5 -120.5z" />
    <glyph glyph-name="uni0218" unicode="&#x218;" horiz-adv-x="1210" 
d="M547 -25q-157 0 -297 60.5t-225 163.5l118 141q70 -88 184 -142.5t244 -54.5q142 0 247 65.5t118 166.5q7 49 -13.5 89t-49 64t-84.5 46.5t-86 30.5t-89 22q-5 1 -8 2q-73 16 -135 38.5t-120.5 58t-97 79t-57 105.5t-8.5 134q25 176 181 285t379 109q146 0 260.5 -48
t179.5 -130l-111 -140q-48 64 -144.5 107t-209.5 43q-134 0 -231.5 -61.5t-110.5 -157.5q-26 -173 303 -244q36 -7 70 -16t84.5 -27t92 -39.5t84 -55.5t70 -73.5t41 -94.5t4.5 -118q-16 -119 -98.5 -212.5t-209.5 -144.5t-275 -51zM344 -451l115 316h184l-154 -316h-145z
" />
    <glyph glyph-name="uni0219" unicode="&#x219;" horiz-adv-x="985" 
d="M414 -25q-131 0 -232.5 45t-167.5 119l117 127q108 -131 303 -131q106 0 180 39.5t84 108.5q4 29 -7.5 52.5t-28.5 38.5t-54 29.5t-64 22t-77 20.5q-66 17 -103.5 28.5t-92.5 38t-82.5 56.5t-45 80t-8.5 113q14 98 80.5 169t160.5 104.5t204 33.5q223 0 362 -143
l-115 -129q-100 112 -270 112q-95 0 -162 -36t-76 -101q-3 -21 2 -39.5t14 -32t28.5 -26t36 -20.5t46.5 -17t50 -14.5t57 -14.5q46 -11 73 -18.5t69.5 -22.5t67.5 -29.5t54 -38.5t43 -51t21.5 -65.5t1.5 -83.5q-23 -151 -154.5 -237.5t-314.5 -86.5zM221 -451l115 316h184
l-153 -316h-146z" />
    <glyph glyph-name="uni021A" unicode="&#x21a;" horiz-adv-x="1212" 
d="M1276 1413l-25 -176h-452l-174 -1237h-187l174 1237h-452l24 176h1092zM332 -451l114 316h185l-154 -316h-145z" />
    <glyph glyph-name="uni021B" unicode="&#x21b;" horiz-adv-x="827" 
d="M489 885l-81 -578q-20 -162 145 -162q72 0 152 39l-23 -166q-87 -43 -190 -43q-151 0 -218 79t-47 225l86 606h-188l22 159h189l39 281h176l-39 -281h313l-22 -159h-314zM184 -451l115 316h184l-153 -316h-146z" />
    <glyph glyph-name="uni0232" unicode="&#x232;" horiz-adv-x="1380" 
d="M1104 1731l-21 -150h-485l20 150h486zM1276 1413h211l-703 -891l-73 -522h-189l74 522l-453 891h215l361 -704z" />
    <glyph glyph-name="uni0233" unicode="&#x233;" horiz-adv-x="1161" 
d="M942 1362l-20 -150h-486l21 150h485zM1010 1044h196l-739 -1265q-54 -91 -132.5 -142t-164.5 -51q-62 0 -124.5 28t-100.5 73l92 135q22 -30 56.5 -48t72.5 -18q90 0 149 94l97 154l-310 1040h203l236 -833z" />
    <glyph glyph-name="uni0237" unicode="&#x237;" horiz-adv-x="485" 
d="M-78 -414q-70 0 -129 27l23 158q44 -23 98 -23q138 0 158 141l161 1155h177l-164 -1173q-20 -136 -103.5 -210.5t-220.5 -74.5z" />
    <glyph glyph-name="uni02BC" unicode="&#x2bc;" horiz-adv-x="206" 
d="M76 1063l100 412h164l-129 -412h-135z" />
    <glyph glyph-name="circumflex" unicode="&#x2c6;" horiz-adv-x="626" 
d="M719 1182h-168l-121 170l-170 -170h-168l244 264h215z" />
    <glyph glyph-name="caron" unicode="&#x2c7;" horiz-adv-x="626" 
d="M588 1446h168l-242 -264h-215l-170 264h168l121 -170z" />
    <glyph glyph-name="breve" unicode="&#x2d8;" horiz-adv-x="565" 
d="M373 1161q-122 0 -191.5 78t-52.5 195h139q-9 -62 26 -104t95 -42q61 0 109 42t57 104h139q-17 -117 -108.5 -195t-212.5 -78z" />
    <glyph glyph-name="dotaccent" unicode="&#x2d9;" horiz-adv-x="227" 
d="M209 1192q-49 0 -77.5 33t-20.5 80q6 47 43.5 79.5t85.5 32.5q49 0 76.5 -32t21.5 -80q-8 -47 -45 -80t-84 -33z" />
    <glyph glyph-name="ring" unicode="&#x2da;" horiz-adv-x="356" 
d="M266 1153q-75 0 -118.5 50.5t-34.5 125.5q11 74 69 124t133 50q76 0 120.5 -50t35.5 -124q-10 -75 -69 -125.5t-136 -50.5zM281 1245q34 0 61 24t31 60q4 35 -16 58.5t-54 23.5t-61 -23.5t-31 -58.5q-4 -36 16 -60t54 -24z" />
    <glyph glyph-name="ogonek" unicode="&#x2db;" horiz-adv-x="399" 
d="M88 -457q-99 0 -155 57t-44 142q13 84 84.5 154.5t176.5 109.5h133l2 -6q-229 -94 -248 -221q-7 -48 21.5 -77.5t74.5 -29.5q59 0 109 33l26 -111q-82 -51 -180 -51z" />
    <glyph glyph-name="tilde" unicode="&#x2dc;" horiz-adv-x="694" 
d="M582 1194q-43 0 -79 17.5t-57 39t-49.5 39t-58.5 17.5q-43 0 -76 -30t-39 -73h-127q14 105 80 173.5t162 68.5q41 0 77 -17.5t56.5 -38t49.5 -38t59 -17.5q43 0 75.5 29.5t38.5 73.5h127q-14 -107 -79 -175.5t-160 -68.5z" />
    <glyph glyph-name="hungarumlaut" unicode="&#x2dd;" horiz-adv-x="763" 
d="M92 1182l207 264h197l-232 -264h-172zM492 1182l204 264h199l-231 -264h-172z" />
    <glyph glyph-name="gravecomb" unicode="&#x300;" horiz-adv-x="0" 
d="M-94 1182l-215 264h227l176 -264h-188z" />
    <glyph glyph-name="acutecomb" unicode="&#x301;" horiz-adv-x="0" 
d="M-346 1182l250 264h227l-289 -264h-188z" />
    <glyph glyph-name="uni0302" unicode="&#x302;" horiz-adv-x="0" 
d="M92 1182h-168l-121 170l-170 -170h-168l244 264h215z" />
    <glyph glyph-name="tildecomb" unicode="&#x303;" horiz-adv-x="0" 
d="M-113 1194q-43 0 -79 17.5t-56.5 39t-49 39t-58.5 17.5q-43 0 -76 -30t-39 -73h-127q14 105 80 173.5t162 68.5q41 0 76.5 -17.5t56.5 -38t49.5 -38t58.5 -17.5q43 0 76 29.5t39 73.5h127q-14 -106 -79.5 -175t-160.5 -69z" />
    <glyph glyph-name="uni0304" unicode="&#x304;" horiz-adv-x="0" 
d="M-387 1212l20 150h486l-21 -150h-485z" />
    <glyph glyph-name="uni0306" unicode="&#x306;" horiz-adv-x="0" 
d="M-193 1161q-121 0 -190.5 78t-52.5 195h139q-9 -62 26 -104t95 -42q61 0 109 42t57 104h139q-17 -117 -109 -195t-213 -78z" />
    <glyph glyph-name="uni0307" unicode="&#x307;" horiz-adv-x="0" 
d="M-18 1192q-49 0 -78 33t-21 80q6 47 43.5 79.5t85.5 32.5q49 0 77 -32t22 -80q-8 -47 -45 -80t-84 -33z" />
    <glyph glyph-name="uni0308" unicode="&#x308;" horiz-adv-x="0" 
d="M-440 1192q-46 0 -73.5 31t-21.5 77q6 45 43.5 77t83.5 32t72.5 -31.5t20.5 -77.5t-42 -77t-83 -31zM-16 1192q-46 0 -73.5 31t-21.5 77t42.5 77.5t82.5 31.5t73.5 -31.5t21.5 -77.5q-6 -45 -42.5 -76.5t-82.5 -31.5z" />
    <glyph glyph-name="uni030A" unicode="&#x30a;" horiz-adv-x="0" 
d="M-90 1153q-75 0 -119 50.5t-35 125.5q10 73 69 123.5t134 50.5q76 0 120.5 -50t35.5 -124q-10 -75 -69 -125.5t-136 -50.5zM-76 1245q34 0 61 24t31 60q4 35 -15.5 58.5t-53.5 23.5t-61 -23.5t-31 -58.5q-4 -37 15.5 -60.5t53.5 -23.5z" />
    <glyph glyph-name="uni030B" unicode="&#x30b;" horiz-adv-x="0" 
d="M-672 1182l207 264h197l-232 -264h-172zM-272 1182l204 264h199l-231 -264h-172z" />
    <glyph glyph-name="uni030C" unicode="&#x30c;" horiz-adv-x="0" 
d="M-39 1446h168l-242 -264h-215l-170 264h168l121 -170z" />
    <glyph glyph-name="uni030F" unicode="&#x30f;" horiz-adv-x="0" 
d="M-477 1182l-158 264h197l133 -264h-172zM-78 1182l-158 264h197l131 -264h-170z" />
    <glyph glyph-name="uni0311" unicode="&#x311;" horiz-adv-x="0" 
d="M-475 1169q17 117 109 196t212 79q122 0 192.5 -79t51.5 -196h-137q9 63 -27 104.5t-98 41.5t-108.5 -41.5t-55.5 -104.5h-139z" />
    <glyph glyph-name="uni0312" unicode="&#x312;" horiz-adv-x="0" 
d="M-166 1169l156 316h145l-117 -316h-184z" />
    <glyph glyph-name="dotbelowcomb" unicode="&#x323;" horiz-adv-x="0" 
d="M-240 -373q-47 0 -75.5 33t-22.5 80q8 47 45 80t84 33q49 0 77.5 -33t20.5 -80q-6 -47 -44 -80t-85 -33z" />
    <glyph glyph-name="uni0326" unicode="&#x326;" horiz-adv-x="0" 
d="M-391 -451l115 316h184l-154 -316h-145z" />
    <glyph glyph-name="uni0327" unicode="&#x327;" horiz-adv-x="0" 
d="M-270 -70q80 0 125 -55t32 -137q-11 -85 -80 -143t-161 -58q-60 0 -108 28t-77 75l78 73q17 -34 49 -54.5t70 -20.5q46 0 80.5 28.5t38.5 71.5q7 41 -17.5 69.5t-66.5 28.5q-43 0 -76 -29l-94 46l133 147v4h127v-4l-68 -70h15z" />
    <glyph glyph-name="uni0328" unicode="&#x328;" horiz-adv-x="0" 
d="M-311 -457q-99 0 -155 57t-44 142q13 84 84 154.5t176 109.5h133l2 -6q-113 -46 -175.5 -103t-71.5 -118q-7 -48 21.5 -77.5t74.5 -29.5q58 0 108 33l27 -111q-82 -51 -180 -51z" />
    <glyph glyph-name="uni0335" unicode="&#x335;" horiz-adv-x="0" 
d="M-596 498l16 129h594l-16 -129h-594z" />
    <glyph glyph-name="uni0336" unicode="&#x336;" horiz-adv-x="0" 
d="M-1397 496l17 131h1396l-18 -131h-1395z" />
    <glyph glyph-name="uni0337" unicode="&#x337;" horiz-adv-x="0" 
d="M-1141 0l1082 1044h133l-1082 -1044h-133z" />
    <glyph glyph-name="uni0338" unicode="&#x338;" horiz-adv-x="0" 
d="M-1475 0l1438 1413h162l-1438 -1413h-162z" />
    <glyph glyph-name="uni03BC" unicode="&#x3bc;" horiz-adv-x="1255" 
d="M1004 1044h176l-148 -1044h-176l21 147q-143 -172 -371 -172q-152 0 -246 84l-63 -448h-177l203 1433h176l-88 -628q-9 -124 60 -197.5t196 -73.5q136 0 232 79t119 210z" />
    <glyph glyph-name="uni1E0C" unicode="&#x1e0c;" horiz-adv-x="1515" 
d="M836 1413q202 0 353 -92t221.5 -253.5t43.5 -360.5q-21 -149 -94.5 -280t-181.5 -225t-249 -148t-292 -54h-545l199 1413h545zM1262 707q20 149 -32 270.5t-163 190.5t-258 69h-354l-150 -1061h354q224 0 396.5 152t206.5 379zM645 -147q49 0 77.5 -33t20.5 -80
q-6 -47 -44 -80t-85 -33t-75.5 33t-22.5 80q8 47 45 80t84 33z" />
    <glyph glyph-name="uni1E0D" unicode="&#x1e0d;" 
d="M1147 1475h176l-207 -1475h-176l27 188q-83 -100 -196.5 -156.5t-240.5 -56.5q-147 0 -256.5 71.5t-159 196.5t-28.5 279q32 233 204 390t396 157q127 0 223.5 -56.5t151.5 -156.5zM588 145q154 0 273.5 100.5t148.5 254.5l6 43q15 154 -76 255t-246 101
q-161 0 -283 -107.5t-145 -269.5q-22 -162 69.5 -269.5t252.5 -107.5zM571 -147q49 0 78 -33t21 -80q-6 -47 -44 -80t-85 -33t-76 33t-23 80q8 47 45 80t84 33z" />
    <glyph glyph-name="uni1E24" unicode="&#x1e24;" horiz-adv-x="1495" 
d="M1266 1413h188l-199 -1413h-188l88 623h-786l-88 -623h-189l199 1413h188l-86 -614h787zM653 -147q49 0 78 -33t21 -80q-6 -47 -44 -80t-85 -33t-76 33t-23 80q8 47 45 80t84 33z" />
    <glyph glyph-name="uni1E25" unicode="&#x1e25;" horiz-adv-x="1261" 
d="M780 1069q191 0 291 -116t74 -308l-92 -645h-176l84 590q20 139 -51.5 224t-209.5 85q-142 0 -241.5 -82t-122.5 -217l-84 -600h-176l207 1475h176l-84 -598q154 192 405 192zM543 -147q49 0 77.5 -33t20.5 -80q-6 -47 -44 -80t-85 -33t-75.5 33t-22.5 80q8 47 45 80
t84 33z" />
    <glyph glyph-name="uni1E44" unicode="&#x1e44;" horiz-adv-x="1513" 
d="M907 1561q-49 0 -77.5 32.5t-20.5 79.5q6 47 44 80t85 33q49 0 76.5 -32.5t21.5 -80.5q-8 -47 -45 -79.5t-84 -32.5zM1284 1413h186l-198 -1413h-193l-645 1102l-153 -1102h-189l199 1413h194l645 -1102z" />
    <glyph glyph-name="uni1E45" unicode="&#x1e45;" horiz-adv-x="1261" 
d="M733 1192q-49 0 -77.5 33t-20.5 80q6 47 43.5 79.5t85.5 32.5q49 0 76.5 -32t21.5 -80q-8 -47 -45 -80t-84 -33zM780 1069q191 0 291 -116t74 -308l-92 -645h-176l84 590q20 140 -52 224.5t-211 84.5q-138 0 -236 -79t-124 -210l-86 -610h-176l147 1044h176l-22 -159
q152 184 403 184z" />
    <glyph glyph-name="uni1E5A" unicode="&#x1e5a;" horiz-adv-x="1269" 
d="M1245 983q-25 -171 -155 -289.5t-304 -130.5l351 -563h-228l-344 561h-205l-79 -561h-189l199 1413h573q188 0 297.5 -123t83.5 -307zM1053 981q15 110 -47 183t-170 73h-381l-72 -512h381q107 0 189.5 73t99.5 183zM541 -147q49 0 77.5 -33t20.5 -80q-6 -47 -44 -80
t-85 -33t-75.5 33t-22.5 80q8 47 45 80t84 33z" />
    <glyph glyph-name="uni1E5B" unicode="&#x1e5b;" horiz-adv-x="757" 
d="M758 1061h35l-25 -182h-37q-162 0 -271 -94.5t-132 -254.5l-76 -530h-176l147 1044h176l-24 -178q73 94 171 144.5t212 50.5zM141 -147q49 0 78 -33t21 -80q-6 -47 -44 -80t-85 -33t-76 33t-23 80q8 47 45 80t84 33z" />
    <glyph glyph-name="uni1E62" unicode="&#x1e62;" horiz-adv-x="1210" 
d="M547 -25q-157 0 -297 60.5t-225 163.5l118 141q70 -88 184 -142.5t244 -54.5q142 0 247 65.5t118 166.5q7 49 -13.5 89t-49 64t-84.5 46.5t-86 30.5t-89 22q-5 1 -8 2q-73 16 -135 38.5t-120.5 58t-97 79t-57 105.5t-8.5 134q25 176 181 285t379 109q146 0 260.5 -48
t179.5 -130l-111 -140q-48 64 -144.5 107t-209.5 43q-134 0 -231.5 -61.5t-110.5 -157.5q-26 -173 303 -244q36 -7 70 -16t84.5 -27t92 -39.5t84 -55.5t70 -73.5t41 -94.5t4.5 -118q-16 -119 -98.5 -212.5t-209.5 -144.5t-275 -51zM494 -373q-47 0 -76 33t-23 80q8 47 45 80
t84 33q49 0 78 -33t21 -80q-6 -47 -44 -80t-85 -33z" />
    <glyph glyph-name="uni1E63" unicode="&#x1e63;" horiz-adv-x="985" 
d="M414 -25q-131 0 -232.5 45t-167.5 119l117 127q108 -131 303 -131q106 0 180 39.5t84 108.5q4 29 -7.5 52.5t-28.5 38.5t-54 29.5t-64 22t-77 20.5q-66 17 -103.5 28.5t-92.5 38t-82.5 56.5t-45 80t-8.5 113q14 98 80.5 169t160.5 104.5t204 33.5q223 0 362 -143
l-115 -129q-100 112 -270 112q-95 0 -162 -36t-76 -101q-3 -21 2 -39.5t14 -32t28.5 -26t36 -20.5t46.5 -17t50 -14.5t57 -14.5q46 -11 73 -18.5t69.5 -22.5t67.5 -29.5t54 -38.5t43 -51t21.5 -65.5t1.5 -83.5q-23 -151 -154.5 -237.5t-314.5 -86.5zM371 -373q-47 0 -76 33
t-23 80q8 47 45 80t84 33q49 0 78 -33t21 -80q-6 -47 -44 -80t-85 -33z" />
    <glyph glyph-name="uni1E6C" unicode="&#x1e6c;" horiz-adv-x="1212" 
d="M1276 1413l-25 -176h-452l-174 -1237h-187l174 1237h-452l24 176h1092zM512 -147q49 0 77.5 -33t20.5 -80q-6 -47 -44 -80t-85 -33t-75.5 33t-22.5 80q8 47 45 80t84 33z" />
    <glyph glyph-name="uni1E6D" unicode="&#x1e6d;" horiz-adv-x="827" 
d="M489 885l-81 -578q-20 -162 145 -162q72 0 152 39l-23 -166q-87 -43 -190 -43q-151 0 -218 79t-47 225l86 606h-188l22 159h189l39 281h176l-39 -281h313l-22 -159h-314zM365 -147q49 0 77.5 -33t20.5 -80q-6 -47 -44 -80t-85 -33t-75.5 33t-22.5 80q8 47 45 80t84 33z
" />
    <glyph glyph-name="Wgrave" unicode="&#x1e80;" horiz-adv-x="2088" 
d="M1298 1550h-188l-215 265h227zM1966 1413h195l-650 -1413h-190l-188 1139l-512 -1139h-191l-252 1413h199l188 -1165l522 1165h168l197 -1165z" />
    <glyph glyph-name="wgrave" unicode="&#x1e81;" horiz-adv-x="1781" 
d="M1094 1182h-189l-215 264h228zM1628 1044h193l-531 -1044h-184l-170 838l-408 -838h-184l-235 1044h198l164 -829l406 829h180l172 -827z" />
    <glyph glyph-name="Wacute" unicode="&#x1e82;" horiz-adv-x="2088" 
d="M1556 1815l-288 -265h-189l250 265h227zM1966 1413h195l-650 -1413h-190l-188 1139l-512 -1139h-191l-252 1413h199l188 -1165l522 1165h168l197 -1165z" />
    <glyph glyph-name="wacute" unicode="&#x1e83;" horiz-adv-x="1781" 
d="M1352 1446l-289 -264h-189l250 264h228zM1628 1044h193l-531 -1044h-184l-170 838l-408 -838h-184l-235 1044h198l164 -829l406 829h180l172 -827z" />
    <glyph glyph-name="Wdieresis" unicode="&#x1e84;" horiz-adv-x="2088" 
d="M979 1561q-46 0 -73 31t-21 77q6 45 43.5 77t83.5 32q45 0 71.5 -31.5t20.5 -77.5t-42 -77t-83 -31zM1403 1561q-46 0 -73 31t-21 77t42.5 77.5t82.5 31.5t73 -31.5t21 -77.5q-6 -45 -42.5 -76.5t-82.5 -31.5zM1966 1413h195l-650 -1413h-190l-188 1139l-512 -1139h-191
l-252 1413h199l188 -1165l522 1165h168l197 -1165z" />
    <glyph glyph-name="wdieresis" unicode="&#x1e85;" horiz-adv-x="1781" 
d="M772 1192q-46 0 -73 31t-21 77q6 45 43.5 77t83.5 32q45 0 71.5 -31.5t20.5 -77.5t-42 -77t-83 -31zM1196 1192q-46 0 -73 31t-21 77t42.5 77.5t82.5 31.5t73 -31.5t21 -77.5q-6 -45 -42.5 -76.5t-82.5 -31.5zM1628 1044h193l-531 -1044h-184l-170 838l-408 -838h-184
l-235 1044h198l164 -829l406 829h180l172 -827z" />
    <glyph glyph-name="uni1E92" unicode="&#x1e92;" horiz-adv-x="1257" 
d="M1284 1413l-18 -135l-973 -1102h831l-24 -176h-1090l21 135l970 1102h-808l24 176h1067zM530 -147q49 0 78 -33t21 -80q-6 -47 -44 -80t-85 -33t-76 33t-23 80q8 47 45 80t84 33z" />
    <glyph glyph-name="uni1E93" unicode="&#x1e93;" horiz-adv-x="1024" 
d="M993 1044l-20 -126l-686 -748h596l-23 -170h-844l21 127l684 747h-574l25 170h821zM416 -147q49 0 77.5 -33t20.5 -80q-6 -47 -44 -80t-85 -33t-75.5 33t-22.5 80q8 47 45 80t84 33z" />
    <glyph glyph-name="uni1E9E" unicode="&#x1e9e;" horiz-adv-x="1318" 
d="M913 862q172 -19 268.5 -143.5t71.5 -300.5q-26 -190 -173.5 -316.5t-338.5 -126.5q-65 0 -129.5 19t-103.5 49l27 190q27 -33 85.5 -55t116.5 -22q124 0 216.5 76.5t109.5 193.5q15 113 -50 189.5t-179 76.5h-148l21 137l342 408h-451q-67 0 -115 -42.5t-59 -109.5
l-152 -1085h-188l156 1104q20 137 120.5 223t241.5 86h678l-23 -153z" />
    <glyph glyph-name="uni1EA0" unicode="&#x1ea0;" horiz-adv-x="1460" 
d="M1343 0h-206l-88 342h-695l-184 -342h-201l774 1413h224zM449 516h555l-179 694zM633 -147q49 0 77.5 -33t20.5 -80q-6 -47 -44 -80t-85 -33t-75.5 33t-22.5 80q8 47 45 80t84 33z" />
    <glyph glyph-name="uni1EA1" unicode="&#x1ea1;" 
d="M1087 1044h177l-148 -1044h-176l27 188q-81 -100 -195.5 -156.5t-241.5 -56.5q-147 0 -256.5 71.5t-159 196.5t-28.5 279q32 233 204 390t396 157q128 0 225 -56.5t150 -158.5zM588 145q158 0 279.5 105.5t146.5 265.5v6q23 161 -68.5 269t-251.5 108q-161 0 -283 -107.5
t-145 -269.5q-22 -162 69.5 -269.5t252.5 -107.5zM580 -147q49 0 77.5 -33t20.5 -80q-6 -47 -44 -80t-85 -33t-75.5 33t-22.5 80q8 47 45 80t84 33z" />
    <glyph glyph-name="uni1EB8" unicode="&#x1eb8;" horiz-adv-x="1202" 
d="M1192 1237h-737l-62 -438h672l-27 -176h-669l-64 -447h748l-25 -176h-936l199 1413h926zM541 -147q49 0 77.5 -33t20.5 -80q-6 -47 -44 -80t-85 -33t-75.5 33t-22.5 80q8 47 45 80t84 33z" />
    <glyph glyph-name="uni1EB9" unicode="&#x1eb9;" horiz-adv-x="1251" 
d="M709 1069q153 0 268 -71t168 -196.5t31 -279.5q-2 -23 -15 -78h-901q8 -138 101.5 -222.5t242.5 -84.5q111 0 212 47.5t165 122.5l109 -104q-97 -106 -231.5 -167t-283.5 -61q-121 0 -221 42.5t-165 115.5t-94 175t-13 218q22 152 111.5 276.5t225.5 195.5t290 71z
M684 907q-136 0 -247 -84.5t-154 -218.5h716q-5 136 -91.5 219.5t-223.5 83.5zM543 -147q49 0 77.5 -33t20.5 -80q-6 -47 -44 -80t-85 -33t-75.5 33t-22.5 80q8 47 45 80t84 33z" />
    <glyph glyph-name="uni1EBC" unicode="&#x1ebc;" horiz-adv-x="1202" 
d="M680 1675q-43 0 -76 -29.5t-39 -72.5h-127q14 105 80 173.5t162 68.5q41 0 77 -17.5t56.5 -38t49.5 -38t59 -17.5q43 0 75.5 29t38.5 73h127q-14 -106 -79 -174.5t-160 -68.5q-43 0 -79 17.5t-57 38.5t-49.5 38.5t-58.5 17.5zM1192 1237h-737l-62 -438h672l-27 -176h-669
l-64 -447h748l-25 -176h-936l199 1413h926z" />
    <glyph glyph-name="uni1EBD" unicode="&#x1ebd;" horiz-adv-x="1251" 
d="M629 1307q-43 0 -76 -30t-39 -73h-127q14 105 80 173.5t162 68.5q41 0 76.5 -17.5t56.5 -38t49.5 -38t58.5 -17.5q43 0 76 29.5t39 73.5h127q-14 -106 -79.5 -175t-160.5 -69q-43 0 -79 17.5t-56.5 39t-49 39t-58.5 17.5zM709 1069q153 0 268 -71t168 -196.5t31 -279.5
q-2 -23 -15 -78h-901q8 -138 101.5 -222.5t242.5 -84.5q111 0 212 47.5t165 122.5l109 -104q-97 -106 -231.5 -167t-283.5 -61q-121 0 -221 42.5t-165 115.5t-94 175t-13 218q22 152 111.5 276.5t225.5 195.5t290 71zM684 907q-136 0 -247 -84.5t-154 -218.5h716
q-5 136 -91.5 219.5t-223.5 83.5z" />
    <glyph glyph-name="uni1ECA" unicode="&#x1eca;" horiz-adv-x="520" 
d="M92 0l199 1413h188l-198 -1413h-189zM135 -373q-47 0 -75.5 33t-22.5 80q8 47 45 80t84 33q49 0 77.5 -33t20.5 -80q-6 -47 -44 -80t-85 -33z" />
    <glyph glyph-name="uni1ECB" unicode="&#x1ecb;" horiz-adv-x="473" 
d="M340 1253q-51 0 -79.5 33.5t-22.5 83.5q7 51 45.5 84t89.5 33t79 -33t21 -84q-6 -49 -44.5 -83t-88.5 -34zM76 0l147 1044h176l-147 -1044h-176zM111 -373q-47 0 -76 33t-23 80q8 47 45 80t84 33q49 0 78 -33t21 -80q-6 -47 -44 -80t-85 -33z" />
    <glyph glyph-name="uni1ECC" unicode="&#x1ecc;" horiz-adv-x="1658" 
d="M752 -25q-156 0 -285 56.5t-213 153.5t-121.5 232.5t-15.5 289.5q28 205 147.5 372.5t302.5 263t391 95.5t364 -95.5t228.5 -263t44.5 -372.5q-29 -205 -149 -373t-303 -263.5t-391 -95.5zM778 156q233 0 412 158t213 393q22 154 -31.5 280.5t-169 198t-268.5 71.5
t-289 -71.5t-225.5 -198t-110.5 -280.5q-22 -154 31.5 -280.5t169 -198.5t268.5 -72zM702 -373q-47 0 -75.5 33t-22.5 80q8 47 45 80t84 33q49 0 77.5 -33t20.5 -80q-6 -47 -44 -80t-85 -33z" />
    <glyph glyph-name="uni1ECD" unicode="&#x1ecd;" horiz-adv-x="1275" 
d="M561 -25q-156 0 -273.5 71.5t-172 197t-33.5 278.5t111.5 278.5t229 197t294.5 71.5q236 0 372.5 -157t104.5 -390q-21 -153 -111.5 -278.5t-228.5 -197t-293 -71.5zM586 145q160 0 282 108t144 269q23 161 -68.5 269t-251.5 108q-161 0 -283.5 -108t-144.5 -269
q-22 -162 69.5 -269.5t252.5 -107.5zM512 -373q-47 0 -75.5 33t-22.5 80q8 47 45 80t84 33q49 0 77.5 -33t20.5 -80q-6 -47 -44 -80t-85 -33z" />
    <glyph glyph-name="uni1EE4" unicode="&#x1ee4;" horiz-adv-x="1419" 
d="M631 -25q-161 0 -282 74t-177.5 203.5t-34.5 288.5l123 872h186l-120 -868q-25 -166 70 -277.5t261 -111.5q167 0 293.5 111.5t151.5 277.5l121 868h186l-123 -872q-22 -159 -115.5 -288.5t-235.5 -203.5t-304 -74zM584 -373q-47 0 -76 33t-23 80q8 47 45 80t84 33
q49 0 78 -33t21 -80q-6 -47 -44 -80t-85 -33z" />
    <glyph glyph-name="uni1EE5" unicode="&#x1ee5;" horiz-adv-x="1212" 
d="M528 -25q-213 0 -325 120.5t-84 318.5l88 630h176l-86 -606q-17 -132 53 -212.5t203 -80.5q134 0 226.5 80.5t109.5 212.5l88 606h176l-90 -630q-28 -198 -174.5 -318.5t-360.5 -120.5zM479 -373q-47 0 -75.5 33t-22.5 80q8 47 45 80t84 33q49 0 77.5 -33t20.5 -80
q-6 -47 -44 -80t-85 -33z" />
    <glyph glyph-name="Ygrave" unicode="&#x1ef2;" horiz-adv-x="1380" 
d="M944 1550h-188l-215 265h227zM1276 1413h211l-703 -891l-73 -522h-189l74 522l-453 891h215l361 -704z" />
    <glyph glyph-name="ygrave" unicode="&#x1ef3;" horiz-adv-x="1161" 
d="M782 1182h-188l-215 264h227zM1010 1044h196l-739 -1265q-54 -91 -132.5 -142t-164.5 -51q-62 0 -124.5 28t-100.5 73l92 135q22 -30 56.5 -48t72.5 -18q90 0 149 94l97 154l-310 1040h203l236 -833z" />
    <glyph glyph-name="uni1EF8" unicode="&#x1ef8;" horiz-adv-x="1380" 
d="M733 1675q-43 0 -76 -29.5t-39 -72.5h-126q14 105 79.5 173.5t161.5 68.5q41 0 77 -17.5t56.5 -38t49.5 -38t59 -17.5q43 0 76 29t39 73h127q-14 -106 -79.5 -174.5t-160.5 -68.5q-43 0 -79 17.5t-57 38.5t-49.5 38.5t-58.5 17.5zM1276 1413h211l-703 -891l-73 -522h-189
l74 522l-453 891h215l361 -704z" />
    <glyph glyph-name="uni1EF9" unicode="&#x1ef9;" horiz-adv-x="1161" 
d="M573 1307q-42 0 -75 -30t-39 -73h-127q14 105 79.5 173.5t161.5 68.5q41 0 77 -17.5t56.5 -38t49.5 -38t59 -17.5q43 0 76 29.5t39 73.5h127q-14 -106 -79.5 -175t-160.5 -69q-43 0 -79 17.5t-57 39t-49.5 39t-58.5 17.5zM1010 1044h196l-739 -1265q-54 -91 -132.5 -142
t-164.5 -51q-62 0 -124.5 28t-100.5 73l92 135q22 -30 56.5 -48t72.5 -18q90 0 149 94l97 154l-310 1040h203l236 -833z" />
    <glyph glyph-name="endash" unicode="&#x2013;" horiz-adv-x="1245" 
d="M125 481l22 160h986l-23 -160h-985z" />
    <glyph glyph-name="emdash" unicode="&#x2014;" horiz-adv-x="2187" 
d="M125 481l22 160h1928l-23 -160h-1927z" />
    <glyph glyph-name="quoteleft" unicode="&#x2018;" horiz-adv-x="503" 
d="M160 911l266 502h154l-211 -502h-209z" />
    <glyph glyph-name="quoteright" unicode="&#x2019;" horiz-adv-x="503" 
d="M160 911l211 502h209l-269 -502h-151z" />
    <glyph glyph-name="quotesinglbase" unicode="&#x201a;" horiz-adv-x="491" 
d="M-72 -289l211 502h209l-268 -502h-152z" />
    <glyph glyph-name="quotedblleft" unicode="&#x201c;" horiz-adv-x="931" 
d="M160 911l266 502h154l-211 -502h-209zM588 911l266 502h154l-211 -502h-209z" />
    <glyph glyph-name="quotedblright" unicode="&#x201d;" horiz-adv-x="931" 
d="M160 911l211 502h209l-269 -502h-151zM588 911l211 502h209l-269 -502h-151z" />
    <glyph glyph-name="quotedblbase" unicode="&#x201e;" horiz-adv-x="919" 
d="M-72 -289l211 502h209l-268 -502h-152zM356 -289l211 502h209l-268 -502h-152z" />
    <glyph glyph-name="dagger" unicode="&#x2020;" horiz-adv-x="1011" 
d="M956 1044l-22 -159h-295l-180 -1274h-164l180 1274h-295l23 159h295l51 369h164l-51 -369h294z" />
    <glyph glyph-name="daggerdbl" unicode="&#x2021;" horiz-adv-x="1011" 
d="M934 885h-295l-100 -705h295l-21 -160h-297l-57 -409h-164l57 409h-293l21 160h295l100 705h-295l23 159h295l51 369h164l-51 -369h294z" />
    <glyph glyph-name="bullet" unicode="&#x2022;" horiz-adv-x="651" 
d="M303 367q-84 0 -132 55t-36 139q12 85 75 140t148 55q84 0 132 -55.5t38 -139.5q-12 -84 -76 -139t-149 -55z" />
    <glyph glyph-name="ellipsis" unicode="&#x2026;" horiz-adv-x="1478" 
d="M166 -14q-57 0 -90 37.5t-25 93.5t51.5 93.5t100.5 37.5q55 0 87.5 -37.5t24.5 -93.5q-7 -55 -50 -93t-99 -38zM664 -14q-57 0 -89 37.5t-24 93.5t50 93.5t99 37.5t89 -37.5t24 -93.5t-50 -93.5t-99 -37.5zM1161 -14q-55 0 -87.5 37.5t-24.5 93.5t51 93.5t100 37.5
q55 0 88 -37.5t25 -93.5t-51.5 -93.5t-100.5 -37.5z" />
    <glyph glyph-name="perthousand" unicode="&#x2030;" horiz-adv-x="2476" 
d="M467 782q-142 0 -224.5 94t-62.5 234t128.5 234t250.5 94q141 0 222.5 -94t62.5 -234q-20 -140 -128 -234t-249 -94zM176 0l1223 1413h190l-1222 -1413h-191zM485 926q78 0 137.5 53t71.5 131q11 78 -33 131t-122 53t-138.5 -53t-70.5 -131q-12 -78 32.5 -131t122.5 -53z
M1204 -25q-141 0 -222.5 94.5t-61.5 233.5q20 140 128 234t250 94q141 0 223 -94.5t62 -233.5q-20 -140 -129 -234t-250 -94zM1968 -25q-141 0 -223 94.5t-62 233.5q20 140 128.5 234t250.5 94q141 0 223 -94.5t62 -233.5q-20 -140 -129 -234t-250 -94zM1225 119
q78 0 138.5 53t70.5 131t-34.5 131t-121.5 53q-78 0 -138.5 -53t-70.5 -131t34.5 -131t121.5 -53zM1989 119q78 0 138.5 53t70.5 131t-34.5 131t-121.5 53q-78 0 -138.5 -53t-70.5 -131t34.5 -131t121.5 -53z" />
    <glyph glyph-name="guilsinglleft" unicode="&#x2039;" horiz-adv-x="733" 
d="M696 956l-397 -415l283 -416h-209l-283 416l399 415h207z" />
    <glyph glyph-name="guilsinglright" unicode="&#x203a;" horiz-adv-x="733" 
d="M371 956l282 -415l-399 -416h-207l397 416l-282 415h209z" />
    <glyph glyph-name="fraction" unicode="&#x2044;" horiz-adv-x="372" 
d="M-465 0l1188 1413h166l-1188 -1413h-166z" />
    <glyph glyph-name="uni2070" unicode="&#x2070;" horiz-adv-x="811" 
d="M422 735q-144 0 -218 122.5t-48 316.5q28 194 136 316t253 122q146 0 221 -122t47 -316q-26 -194 -135.5 -316.5t-255.5 -122.5zM440 862q85 0 151 87.5t85 224.5q20 136 -21.5 223.5t-126.5 87.5t-151 -86.5t-86 -224.5q-19 -137 23 -224.5t126 -87.5z" />
    <glyph glyph-name="uni2074" unicode="&#x2074;" horiz-adv-x="724" 
d="M766 1055l-18 -125h-103l-24 -180h-134l25 180h-385l-16 108l483 559h145l-75 -542h102zM252 1055h278l54 387z" />
    <glyph glyph-name="uni2075" unicode="&#x2075;" horiz-adv-x="714" 
d="M750 1475h-365l-51 -228q71 41 158 41q124 0 196 -78t57 -194q-17 -120 -119 -200.5t-239 -80.5q-169 0 -278 121l81 107q34 -46 88.5 -73.5t116.5 -27.5q85 0 144.5 45.5t68.5 112.5q9 65 -33 108t-114 43q-42 0 -86.5 -16t-77.5 -43l-111 35l103 450h479z" />
    <glyph glyph-name="uni2076" unicode="&#x2076;" horiz-adv-x="692" 
d="M502 1286q115 0 181.5 -77.5t51.5 -190.5q-17 -121 -119 -202t-237 -81q-143 0 -218 91t-55 245q30 200 193.5 351.5t402.5 189.5l9 -123q-146 -28 -254.5 -102.5t-161.5 -172.5q87 72 207 72zM598 1016q9 64 -34.5 107.5t-119.5 43.5q-73 0 -134.5 -38t-71.5 -107
q-9 -70 34.5 -116t124.5 -46q76 0 134 45t67 111z" />
    <glyph glyph-name="uni2077" unicode="&#x2077;" horiz-adv-x="659" 
d="M203 1597h557l-15 -102l-450 -745h-150l439 723h-400z" />
    <glyph glyph-name="uni2078" unicode="&#x2078;" horiz-adv-x="698" 
d="M764 1380q-9 -61 -49.5 -111t-104.5 -81q62 -31 93 -85.5t22 -121.5q-14 -104 -113.5 -175t-234.5 -71q-132 0 -212 71t-65 175q9 67 55 121.5t117 85.5q-55 31 -81 81t-19 111q15 99 108.5 165.5t219.5 66.5q127 0 202.5 -66.5t61.5 -165.5zM625 1366q9 54 -31.5 88.5
t-110.5 34.5q-67 0 -118 -35t-58 -88q-7 -51 34.5 -86t107.5 -35q68 0 119 35t57 86zM592 995q7 57 -39 95t-121 38q-74 0 -129.5 -38t-64.5 -95q-8 -57 37 -96t120 -39t132.5 39t64.5 96z" />
    <glyph glyph-name="uni2079" unicode="&#x2079;" horiz-adv-x="694" 
d="M498 1612q144 0 219 -91t53 -245q-19 -132 -98 -248.5t-210 -195.5t-288 -97l-8 123q146 22 254 96.5t162 175.5q-87 -69 -205 -69q-116 0 -182.5 77.5t-51.5 190.5q17 121 118.5 202t236.5 81zM639 1325q11 70 -33.5 116t-126.5 46q-75 0 -132 -45t-66 -111
q-9 -65 33.5 -108t117.5 -43q47 0 91 15t77 49t39 81z" />
    <glyph glyph-name="franc" unicode="&#x20a3;" horiz-adv-x="1142" 
d="M1165 1237h-667l-60 -428h582l-25 -176h-583l-33 -234h416l-25 -161h-414l-32 -238h-187l33 238h-133l22 161h134l143 1014h854z" />
    <glyph glyph-name="lira" unicode="&#x20a4;" horiz-adv-x="1185" 
d="M831 1438q118 0 215 -47.5t160 -130.5l-116 -136q-51 62 -125 96.5t-158 34.5q-124 0 -214.5 -75.5t-107.5 -192.5l-18 -131h436l-18 -145h-439l-16 -113h438l-20 -145h-438l-39 -277h692l-25 -176h-1013l24 176h133l39 277h-133l23 145h131l16 113h-131l18 145h134
l18 131q28 192 180.5 321.5t353.5 129.5z" />
    <glyph glyph-name="peseta" unicode="&#x20a7;" horiz-adv-x="1325" 
d="M1374 1012l-16 -123h-101q-48 -178 -195 -292t-333 -114h-319l-68 -481h-186l125 887h-136l17 123h135l57 403h506q186 0 301.5 -113.5t112.5 -289.5h100zM516 1239l-33 -227h596q-6 100 -74.5 163.5t-173.5 63.5h-315zM750 659q105 0 191 64t122 166h-596l-33 -230h316z
" />
    <glyph glyph-name="uni20A8" unicode="&#x20a8;" horiz-adv-x="2250" 
d="M864 1413q188 0 297.5 -123t83.5 -307q-25 -171 -155 -289.5t-304 -130.5l351 -563h-228l-344 561h-205l-79 -561h-189l199 1413h573zM1053 981q15 110 -47 183t-170 73h-381l-72 -512h381q107 0 189.5 73t99.5 183zM1819 608q46 -11 73 -18.5t69 -22.5t67 -29.5
t54 -38.5t43.5 -51t21.5 -65.5t1 -83.5q-23 -151 -154.5 -237.5t-314.5 -86.5q-131 0 -232 45t-167 119l117 127q108 -131 303 -131q106 0 180 39.5t84 108.5q4 29 -7.5 52.5t-28.5 38.5t-54 29.5t-64 22t-77 20.5q-66 17 -103.5 28.5t-92.5 38t-82.5 56.5t-45 80t-8.5 113
q14 98 80 169t160 104.5t204 33.5q224 0 363 -143l-115 -129q-100 112 -270 112q-95 0 -162 -36t-76 -101q-3 -21 2 -39.5t14 -32t28.5 -26t36 -20.5t46.5 -17t50 -14.5t57 -14.5z" />
    <glyph glyph-name="Euro" unicode="&#x20ac;" horiz-adv-x="1554" 
d="M1087 1438q281 0 469 -170l-28 -207q-77 92 -193.5 143t-251.5 51q-187 0 -343 -94.5t-236 -251.5h821l-65 -145h-811q-9 -42 -11 -57l-6 -58h772l-63 -145h-695q37 -157 167 -251.5t317 -94.5q135 0 265 51t232 143l-28 -207q-234 -170 -518 -170q-258 0 -432 146.5
t-205 382.5h-178l63 145h111l6 58q3 24 10 57h-154l66 145h133q96 235 311.5 382t474.5 147z" />
    <glyph glyph-name="uni20B1" unicode="&#x20b1;" horiz-adv-x="1325" 
d="M1274 991q0 -17 -4 -45q-5 -34 -8 -45h98l-19 -125h-127q-68 -134 -199 -214.5t-286 -80.5h-321l-68 -481h-186l108 776h-133l18 125h134l12 90h-133l18 127h133l41 295h508q155 0 263 -80.5t141 -214.5h127l-19 -127h-98zM514 1243l-16 -125h549q-31 58 -91.5 91.5
t-138.5 33.5h-303zM467 901h598q8 27 10 45q2 16 2 45h-598zM733 651q78 0 148 33.5t118 91.5h-550l-17 -125h301z" />
    <glyph glyph-name="uni20B5" unicode="&#x20b5;" horiz-adv-x="1531" 
d="M852 170q121 13 227 70.5t183 150.5l145 -104q-107 -128 -259 -206.5t-323 -90.5l-18 -133h-123l18 133q-188 15 -326 111.5t-201.5 255.5t-35.5 350q40 290 257 492t509 224l19 133h123l-19 -133q167 -13 296 -91t202 -206l-174 -104q-51 93 -142 150t-209 69zM332 707
q-31 -213 82 -363t315 -172l150 1069q-208 -22 -362 -171t-185 -363z" />
    <glyph glyph-name="uni20B9" unicode="&#x20b9;" horiz-adv-x="1189" 
d="M969 1268q48 -67 63 -148h187l-78 -145h-107q-28 -186 -170.5 -310t-331.5 -124h-116l514 -541h-250l-530 551l22 160h371q112 0 197 75t102 189h-633l22 145h592q-25 59 -78 92t-124 33h-373l24 168h985l-75 -145h-213z" />
    <glyph glyph-name="uni2116" unicode="&#x2116;" horiz-adv-x="2365" 
d="M2025 1438q163 0 256 -108t70 -269q-22 -160 -145.5 -267.5t-286.5 -107.5t-256 107.5t-70 267.5q22 161 145.5 269t286.5 108zM1130 311l154 1102h186l-198 -1413h-193l-645 1102l-153 -1102h-189l199 1413h194zM2195 1061q14 97 -40.5 162t-149.5 65q-96 0 -170 -65.5
t-86 -161.5q-14 -96 40.5 -160.5t149.5 -64.5t168.5 65t87.5 160zM1524 371l22 159h703l-23 -159h-702z" />
    <glyph glyph-name="trademark" unicode="&#x2122;" horiz-adv-x="1374" 
d="M154 1319l14 94h453l-15 -94h-176l-70 -508h-100l70 508h-176zM1245 1413h127l-84 -602h-100l63 461l-235 -379h-66l-131 381l-65 -463h-101l84 602h131l133 -391z" />
    <glyph glyph-name="uni2150" unicode="&#x2150;" horiz-adv-x="1720" 
d="M1296 1413h166l-1188 -1413h-165zM340 1255l-170 -88l-43 107l272 139h95l-119 -848h-133zM1159 848h557l-14 -103l-451 -745h-149l438 723h-399z" />
    <glyph glyph-name="uni2151" unicode="&#x2151;" horiz-adv-x="1640" 
d="M1296 1413h166l-1188 -1413h-165zM340 1255l-170 -88l-43 107l272 139h95l-119 -848h-133zM1339 862q144 0 219.5 -91t53.5 -245q-28 -203 -194 -358t-402 -182l-8 123q145 22 253 96.5t162 175.5q-89 -70 -204 -70q-116 0 -182.5 78t-51.5 191q17 121 118 201.5
t236 80.5zM1481 575q11 70 -33.5 116t-126.5 46q-75 0 -132.5 -44.5t-66.5 -110.5q-9 -65 34 -108.5t118 -43.5q47 0 91 15t77 49t39 81z" />
    <glyph glyph-name="uni2152" unicode="&#x2152;" horiz-adv-x="2289" 
d="M109 0l1187 1413h166l-1188 -1413h-165zM340 1255l-170 -88l-43 107l272 139h95l-119 -848h-133zM1919 862q146 0 221 -122t47 -316q-26 -193 -135.5 -315.5t-255.5 -122.5q-145 0 -218.5 122t-47.5 316q28 194 136 316t253 122zM1055 709l272 139h94l-118 -848h-134
l99 690l-170 -88zM2050 424q20 136 -21 223.5t-126 87.5t-151.5 -86.5t-86.5 -224.5q-19 -137 23.5 -224t126.5 -87q85 0 150.5 87t84.5 224z" />
    <glyph glyph-name="uni2153" unicode="&#x2153;" horiz-adv-x="1638" 
d="M1296 1413h166l-1188 -1413h-165zM340 1255l-170 -88l-43 107l272 139h95l-119 -848h-133zM1595 637q-9 -62 -49.5 -112.5t-103.5 -78.5q65 -30 97 -87t22 -128q-15 -107 -112 -176t-232 -69q-89 0 -165.5 31t-123.5 89l90 99q35 -44 90 -68t117 -24q81 0 137.5 39
t64.5 98q7 60 -37 98.5t-118 38.5h-127l16 115h127q66 0 114.5 32.5t55.5 81.5q6 52 -36.5 85.5t-114.5 33.5q-54 0 -107.5 -20.5t-91.5 -55.5l-59 97q56 51 133 78.5t157 27.5q126 0 198 -63.5t58 -161.5z" />
    <glyph glyph-name="uni2154" unicode="&#x2154;" horiz-adv-x="1802" 
d="M633 690l-19 -125h-555l17 107l358 338q105 100 113 164q7 55 -28.5 88.5t-96.5 33.5q-105 0 -199 -108l-80 84q55 72 136 113.5t170 41.5q118 0 183 -69.5t50 -177.5q-15 -121 -141 -234l-279 -256h371zM1462 1413h166l-1188 -1413h-166zM1761 637q-9 -62 -49.5 -112.5
t-103.5 -78.5q65 -29 96.5 -86.5t21.5 -128.5q-15 -107 -112 -176t-232 -69q-89 0 -165 31t-123 89l90 99q35 -44 90 -68t117 -24q81 0 137.5 39t64.5 98q7 60 -37 98.5t-118 38.5h-127l16 115h127q66 0 114.5 32.5t55.5 81.5q6 52 -36.5 85.5t-114.5 33.5
q-54 0 -107.5 -20.5t-91.5 -55.5l-60 97q56 50 133.5 78t157.5 28q126 0 198 -63.5t58 -161.5z" />
    <glyph glyph-name="uni2155" unicode="&#x2155;" horiz-adv-x="1685" 
d="M1296 1413h166l-1188 -1413h-165zM340 1255l-170 -88l-43 107l272 139h95l-119 -848h-133zM1616 725h-365l-51 -227q71 41 158 41q124 0 196.5 -78.5t57.5 -194.5q-17 -120 -119 -200t-240 -80q-170 0 -278 120l82 107q34 -46 88.5 -73t116.5 -27q85 0 144.5 45t68.5 112
q9 65 -33.5 108.5t-114.5 43.5q-90 0 -164 -60l-110 35l102 451h479z" />
    <glyph glyph-name="uni2156" unicode="&#x2156;" horiz-adv-x="1851" 
d="M633 690l-19 -125h-555l17 107l358 338q105 100 113 164q7 55 -28.5 88.5t-96.5 33.5q-105 0 -199 -108l-80 84q55 72 136 113.5t170 41.5q118 0 183 -69.5t50 -177.5q-15 -121 -141 -234l-279 -256h371zM1462 1413h166l-1188 -1413h-166zM1782 725h-365l-51 -227
q71 41 158 41q124 0 196.5 -78.5t57.5 -194.5q-17 -120 -119 -200t-240 -80q-170 0 -278 120l82 107q34 -46 88 -73t116 -27q85 0 144.5 45t68.5 112q9 65 -33 108.5t-114 43.5q-90 0 -164 -60l-110 35l102 451h479z" />
    <glyph glyph-name="uni2157" unicode="&#x2157;" horiz-adv-x="1814" 
d="M684 797q-15 -107 -112 -176.5t-232 -69.5q-89 0 -165.5 31.5t-123.5 89.5l90 98q35 -44 90 -68t117 -24q81 0 138 39t65 98q7 60 -37.5 98.5t-118.5 38.5h-127l17 115h127q66 0 114 32.5t56 82.5q6 52 -37 85t-115 33q-54 0 -107.5 -20t-91.5 -55l-59 96q56 50 133.5 78
t157.5 28q126 0 198 -63.5t58 -161.5q-9 -61 -50 -111.5t-104 -78.5q65 -30 97 -87t22 -128zM1425 1413h166l-1188 -1413h-165zM1745 725h-365l-51 -227q71 41 158 41q124 0 196.5 -78.5t57.5 -194.5q-17 -120 -119 -200t-240 -80q-170 0 -278 120l82 107q34 -46 88.5 -73
t116.5 -27q85 0 144.5 45t68.5 112q9 65 -33.5 108.5t-114.5 43.5q-90 0 -164 -60l-110 35l102 451h479z" />
    <glyph glyph-name="uni2158" unicode="&#x2158;" horiz-adv-x="1855" 
d="M463 565l24 180h-385l-16 109l483 559h146l-76 -543h102l-18 -125h-102l-25 -180h-133zM1466 1413h166l-1188 -1413h-165zM227 870h279l53 387zM1786 725h-365l-51 -227q71 41 158 41q124 0 196.5 -78.5t57.5 -194.5q-17 -120 -119 -200t-240 -80q-170 0 -278 120l82 107
q34 -46 88.5 -73t116.5 -27q85 0 144.5 45t68.5 112q9 65 -33.5 108.5t-114.5 43.5q-90 0 -164 -60l-110 35l102 451h479z" />
    <glyph glyph-name="uni2159" unicode="&#x2159;" horiz-adv-x="1546" 
d="M1296 1413h166l-1188 -1413h-165zM340 1255l-170 -88l-43 107l272 139h95l-119 -848h-133zM1251 537q115 0 182 -78t52 -191q-17 -121 -119.5 -201.5t-237.5 -80.5q-143 0 -217.5 91t-54.5 245q30 200 193.5 351t402.5 189l8 -123q-146 -28 -254.5 -102t-161.5 -172
q87 72 207 72zM1348 266q9 64 -34.5 108t-119.5 44q-73 0 -135 -38.5t-72 -107.5q-9 -70 35 -115.5t125 -45.5q77 0 134.5 44.5t66.5 110.5z" />
    <glyph glyph-name="uni215A" unicode="&#x215a;" horiz-adv-x="1687" 
d="M721 831q-17 -120 -119 -200t-240 -80q-169 0 -278 121l82 106q34 -46 88.5 -73t116.5 -27q85 0 144.5 45.5t68.5 112.5q9 64 -33.5 107.5t-114.5 43.5q-42 0 -86.5 -16t-77.5 -43l-110 35l102 450h479l-18 -123h-365l-51 -227q71 41 158 41q124 0 196.5 -78.5
t57.5 -194.5zM1438 1413h166l-1188 -1413h-166zM1393 537q115 0 181.5 -78t51.5 -191q-17 -121 -119 -201.5t-237 -80.5q-143 0 -218 91t-55 245q30 200 193.5 351t402.5 189l9 -123q-146 -28 -254.5 -102t-161.5 -172q87 72 207 72zM1489 266q9 64 -34.5 108t-119.5 44
q-73 0 -135 -38.5t-72 -107.5q-9 -70 35 -115.5t125 -45.5q77 0 134.5 44.5t66.5 110.5z" />
    <glyph glyph-name="oneeighth" unicode="&#x215b;" horiz-adv-x="1654" 
d="M1296 1413h166l-1188 -1413h-165zM340 1255l-170 -88l-43 107l272 139h95l-119 -848h-133zM1616 631q-9 -61 -49.5 -111.5t-104.5 -81.5q62 -31 93 -85.5t22 -121.5q-14 -104 -113.5 -174.5t-234.5 -70.5q-132 0 -212 70.5t-65 174.5q9 67 55 121.5t117 85.5
q-54 31 -80.5 81.5t-19.5 111.5q15 99 108.5 165t219.5 66q127 0 202.5 -66t61.5 -165zM1477 616q9 54 -31.5 88.5t-110.5 34.5q-67 0 -118 -35t-58 -88q-7 -51 34 -85.5t107 -34.5q68 0 119.5 34.5t57.5 85.5zM1444 246q7 57 -39 95t-121 38q-74 0 -129.5 -38t-64.5 -95
q-8 -57 37 -96t120 -39t132.5 39t64.5 96z" />
    <glyph glyph-name="threeeighths" unicode="&#x215c;" horiz-adv-x="1783" 
d="M684 797q-15 -107 -112 -176.5t-232 -69.5q-89 0 -165.5 31.5t-123.5 89.5l90 98q35 -44 90 -68t117 -24q81 0 138 39t65 98q7 60 -37.5 98.5t-118.5 38.5h-127l17 115h127q66 0 114 32.5t56 82.5q6 52 -37 85t-115 33q-54 0 -107.5 -20t-91.5 -55l-59 96q56 50 133.5 78
t157.5 28q126 0 198 -63.5t58 -161.5q-9 -61 -50 -111.5t-104 -78.5q65 -30 97 -87t22 -128zM1425 1413h166l-1188 -1413h-165zM1745 631q-9 -61 -49.5 -111.5t-104.5 -81.5q62 -31 93 -85.5t22 -121.5q-14 -104 -113.5 -174.5t-234.5 -70.5q-132 0 -212 70.5t-65 174.5
q9 67 55 121.5t117 85.5q-54 31 -80.5 81.5t-19.5 111.5q15 99 108.5 165t219.5 66q127 0 202.5 -66t61.5 -165zM1606 616q9 54 -31.5 88.5t-110.5 34.5q-67 0 -118 -35t-58 -88q-7 -51 34.5 -85.5t107.5 -34.5q68 0 119 34.5t57 85.5zM1573 246q7 57 -39 95t-121 38
q-74 0 -129.5 -38t-64.5 -95q-8 -57 37 -96t120 -39t132.5 39t64.5 96z" />
    <glyph glyph-name="fiveeighths" unicode="&#x215d;" horiz-adv-x="1796" 
d="M721 831q-17 -120 -119 -200t-240 -80q-169 0 -278 121l82 106q34 -46 88.5 -73t116.5 -27q85 0 144.5 45.5t68.5 112.5q9 64 -33.5 107.5t-114.5 43.5q-42 0 -86.5 -16t-77.5 -43l-110 35l102 450h479l-18 -123h-365l-51 -227q71 41 158 41q124 0 196.5 -78.5
t57.5 -194.5zM1438 1413h166l-1188 -1413h-166zM1757 631q-9 -61 -49.5 -111.5t-103.5 -81.5q62 -31 92.5 -85.5t21.5 -121.5q-14 -104 -113.5 -174.5t-234.5 -70.5q-132 0 -211.5 70.5t-64.5 174.5q9 67 55 121.5t117 85.5q-55 31 -81.5 81.5t-19.5 111.5q15 99 108.5 165
t219.5 66q127 0 202.5 -66t61.5 -165zM1618 616q9 54 -31.5 88.5t-109.5 34.5q-67 0 -118.5 -35t-58.5 -88q-7 -51 34.5 -85.5t107.5 -34.5q68 0 119 34.5t57 85.5zM1585 246q7 57 -39 95t-121 38q-74 0 -129.5 -38t-64.5 -95q-8 -57 37.5 -96t120.5 -39t132 39t64 96z" />
    <glyph glyph-name="seveneighths" unicode="&#x215e;" horiz-adv-x="1638" 
d="M1280 1413h166l-1188 -1413h-166zM270 565h-149l438 723h-399l18 125h557l-14 -102zM1599 631q-9 -61 -49.5 -111.5t-103.5 -81.5q62 -31 93 -85.5t22 -121.5q-13 -104 -113.5 -174.5t-235.5 -70.5q-132 0 -211.5 70.5t-64.5 174.5q9 67 55 121.5t117 85.5
q-54 31 -80.5 81.5t-19.5 111.5q15 99 108 165t219 66q127 0 202.5 -66t61.5 -165zM1460 616q9 54 -31.5 88.5t-109.5 34.5q-67 0 -118 -35t-58 -88q-7 -51 34 -85.5t107 -34.5q68 0 119 34.5t57 85.5zM1427 246q7 57 -38.5 95t-120.5 38q-74 0 -130 -38t-65 -95
q-8 -57 37.5 -96t120.5 -39t132 39t64 96z" />
    <glyph glyph-name="uni215F" unicode="&#x215f;" horiz-adv-x="946" 
d="M1296 1413h166l-1188 -1413h-165zM340 1255l-170 -88l-43 107l272 139h95l-119 -848h-133z" />
    <glyph glyph-name="uni2189" unicode="&#x2189;" horiz-adv-x="1867" 
d="M788 989q-26 -193 -135.5 -315.5t-255.5 -122.5q-145 0 -218.5 122t-47.5 316q28 194 136 316t253 122q146 0 221 -122t47 -316zM1526 1413h166l-1188 -1413h-166zM266 989q-19 -137 23.5 -224t126.5 -87q85 0 150.5 87t84.5 224q20 136 -21 223.5t-126 87.5
t-151.5 -86.5t-86.5 -224.5zM1825 637q-9 -62 -50 -112.5t-104 -78.5q65 -30 97 -87t22 -128q-15 -107 -112 -176t-232 -69q-89 0 -165.5 31t-123.5 89l90 99q35 -44 90 -68t117 -24q81 0 138 39t65 98q7 60 -37.5 98.5t-118.5 38.5h-127l17 115h127q66 0 114.5 32.5
t55.5 81.5q6 52 -37 85.5t-115 33.5q-54 0 -107.5 -20.5t-91.5 -55.5l-59 97q56 50 133.5 78t157.5 28q126 0 198 -63.5t58 -161.5z" />
    <glyph glyph-name="arrowleft" unicode="&#x2190;" horiz-adv-x="1361" 
d="M1247 786l-20 -159h-778l229 -262l-121 -107l-383 449l510 446l90 -104l-301 -263h774z" />
    <glyph glyph-name="arrowup" unicode="&#x2191;" horiz-adv-x="1361" 
d="M1167 791l-120 -105l-226 264l-108 -776h-162l111 776l-300 -264l-90 105l510 448z" />
    <glyph glyph-name="arrowright" unicode="&#x2192;" horiz-adv-x="1361" 
d="M856 1153l385 -446l-512 -449l-90 107l301 262h-776l24 159h777l-230 263z" />
    <glyph glyph-name="arrowdown" unicode="&#x2193;" horiz-adv-x="1361" 
d="M1053 727l90 -104l-510 -449l-385 449l121 104l223 -264l110 776h160l-110 -778z" />
    <glyph glyph-name="uni2196" unicode="&#x2196;" horiz-adv-x="1361" 
d="M1071 416l-131 -115l-471 549l-49 -371h-150l88 631l633 2l-22 -151l-369 2z" />
    <glyph glyph-name="uni2197" unicode="&#x2197;" horiz-adv-x="1361" 
d="M535 1112l630 -2l-90 -631h-147l57 373l-629 -549l-96 113l627 549l-375 -2z" />
    <glyph glyph-name="uni2198" unicode="&#x2198;" horiz-adv-x="1361" 
d="M993 934h150l-88 -631l-631 -2l20 152l371 -2l-471 546l129 115l471 -549z" />
    <glyph glyph-name="uni2199" unicode="&#x2199;" horiz-adv-x="1361" 
d="M1153 997l-625 -546l369 2l-20 -152l-631 2l88 631h151l-57 -371l627 549z" />
    <glyph glyph-name="minus" unicode="&#x2212;" horiz-adv-x="1093" 
d="M131 524l23 160h833l-22 -160h-834z" />
    <glyph glyph-name="approxequal" unicode="&#x2248;" horiz-adv-x="1132" 
d="M766 672q-44 0 -82.5 14.5t-65.5 35t-52 40.5t-53 34.5t-58 14.5q-53 0 -93 -35.5t-47 -89.5h-161q18 133 95.5 216t203.5 83q44 0 82.5 -14.5t65.5 -34.5t52 -40.5t53 -35t58 -14.5q54 0 93.5 35t47.5 88h162q-20 -132 -98 -214.5t-203 -82.5zM707 240q-44 0 -82.5 14.5
t-66 35t-52 40.5t-53 34.5t-58.5 14.5q-54 0 -94 -34.5t-47 -88.5h-162q20 133 97.5 215t203.5 82q44 0 82.5 -14.5t65.5 -34.5t51.5 -40.5t52.5 -35t57 -14.5q54 0 94 35.5t48 89.5h162q-18 -132 -96.5 -215.5t-202.5 -83.5z" />
    <glyph glyph-name="notequal" unicode="&#x2260;" horiz-adv-x="1093" 
d="M991 705h-295l-118 -199h385l-23 -158h-459l-112 -188h-156l113 188h-222l23 158h295l119 199h-385l22 159h459l111 185h155l-110 -185h219z" />
    <glyph glyph-name="lessequal" unicode="&#x2264;" horiz-adv-x="950" 
d="M905 1120l-24 -176l-559 -190l505 -191l-24 -176l-653 279l24 178zM74 121l22 160h690l-22 -160h-690z" />
    <glyph glyph-name="greaterequal" unicode="&#x2265;" horiz-adv-x="950" 
d="M213 1120l653 -276l-26 -178l-729 -279l24 176l559 191l-506 190zM74 121l22 160h690l-22 -160h-690z" />
    <glyph glyph-name="uni279D" unicode="&#x279d;" horiz-adv-x="2215" 
d="M2077 707l-488 -428l49 348h-1456l23 159h1454l49 349z" />
    <glyph glyph-name="uni27F5" unicode="&#x27f5;" horiz-adv-x="2215" 
d="M2087 786l-23 -159h-1599l231 -262l-121 -107l-382 449l509 446l89 -104l-302 -263h1598z" />
    <glyph glyph-name="uni27F6" unicode="&#x27f6;" horiz-adv-x="2215" 
d="M1694 1153l383 -446l-510 -449l-90 107l303 262h-1600l23 159h1597l-229 263z" />
    <glyph glyph-name="G.ss05" horiz-adv-x="1660" 
d="M911 752h662l-107 -752h-163l38 281q-104 -146 -256.5 -226t-336.5 -80q-154 0 -282.5 56.5t-212 153.5t-121 232.5t-15.5 289.5q28 205 147.5 372.5t302.5 263t391 95.5q187 0 334 -78t224 -215l-158 -111q-60 105 -170 165.5t-252 60.5q-153 0 -289.5 -72t-226.5 -199
t-111 -282q-22 -155 32 -282t170 -199t269 -72q203 0 365.5 121t216.5 311h-473z" />
    <glyph glyph-name="uni01F4.ss05" horiz-adv-x="1660" 
d="M1341 1815l-288 -265h-189l250 265h227zM911 752h662l-107 -752h-163l38 281q-104 -146 -256.5 -226t-336.5 -80q-154 0 -282.5 56.5t-212 153.5t-121 232.5t-15.5 289.5q28 205 147.5 372.5t302.5 263t391 95.5q187 0 334 -78t224 -215l-158 -111q-60 105 -170 165.5
t-252 60.5q-153 0 -289.5 -72t-226.5 -199t-111 -282q-22 -155 32 -282t170 -199t269 -72q203 0 365.5 121t216.5 311h-473z" />
    <glyph glyph-name="Gbreve.ss05" horiz-adv-x="1660" 
d="M971 1530q-122 0 -191.5 77.5t-52.5 194.5h139q-9 -61 26 -103t95 -42q61 0 109 41.5t57 103.5h139q-17 -117 -108.5 -194.5t-212.5 -77.5zM911 752h662l-107 -752h-163l38 281q-104 -146 -256.5 -226t-336.5 -80q-154 0 -282.5 56.5t-212 153.5t-121 232.5t-15.5 289.5
q28 205 147.5 372.5t302.5 263t391 95.5q187 0 334 -78t224 -215l-158 -111q-60 105 -170 165.5t-252 60.5q-153 0 -289.5 -72t-226.5 -199t-111 -282q-22 -155 32 -282t170 -199t269 -72q203 0 365.5 121t216.5 311h-473z" />
    <glyph glyph-name="Gcaron.ss05" horiz-adv-x="1660" 
d="M1081 1550h-215l-170 265h168l121 -170l170 170h168zM911 752h662l-107 -752h-163l38 281q-104 -146 -256.5 -226t-336.5 -80q-154 0 -282.5 56.5t-212 153.5t-121 232.5t-15.5 289.5q28 205 147.5 372.5t302.5 263t391 95.5q187 0 334 -78t224 -215l-158 -111
q-60 105 -170 165.5t-252 60.5q-153 0 -289.5 -72t-226.5 -199t-111 -282q-22 -155 32 -282t170 -199t269 -72q203 0 365.5 121t216.5 311h-473z" />
    <glyph glyph-name="Gcircumflex.ss05" horiz-adv-x="1660" 
d="M997 1720l-170 -170h-168l244 265h215l168 -265h-168zM911 752h662l-107 -752h-163l38 281q-104 -146 -256.5 -226t-336.5 -80q-154 0 -282.5 56.5t-212 153.5t-121 232.5t-15.5 289.5q28 205 147.5 372.5t302.5 263t391 95.5q187 0 334 -78t224 -215l-158 -111
q-60 105 -170 165.5t-252 60.5q-153 0 -289.5 -72t-226.5 -199t-111 -282q-22 -155 32 -282t170 -199t269 -72q203 0 365.5 121t216.5 311h-473z" />
    <glyph glyph-name="uni0122.ss05" horiz-adv-x="1660" 
d="M911 752h662l-107 -752h-163l38 281q-104 -146 -256.5 -226t-336.5 -80q-154 0 -282.5 56.5t-212 153.5t-121 232.5t-15.5 289.5q28 205 147.5 372.5t302.5 263t391 95.5q187 0 334 -78t224 -215l-158 -111q-60 105 -170 165.5t-252 60.5q-153 0 -289.5 -72t-226.5 -199
t-111 -282q-22 -155 32 -282t170 -199t269 -72q203 0 365.5 121t216.5 311h-473zM555 -451l115 316h184l-154 -316h-145z" />
    <glyph glyph-name="Gdotaccent.ss05" horiz-adv-x="1660" 
d="M975 1561q-49 0 -77.5 32.5t-20.5 79.5q6 47 44 80t85 33q49 0 76.5 -32.5t21.5 -80.5q-8 -47 -45 -79.5t-84 -32.5zM911 752h662l-107 -752h-163l38 281q-104 -146 -256.5 -226t-336.5 -80q-154 0 -282.5 56.5t-212 153.5t-121 232.5t-15.5 289.5q28 205 147.5 372.5
t302.5 263t391 95.5q187 0 334 -78t224 -215l-158 -111q-60 105 -170 165.5t-252 60.5q-153 0 -289.5 -72t-226.5 -199t-111 -282q-22 -155 32 -282t170 -199t269 -72q203 0 365.5 121t216.5 311h-473z" />
    <glyph glyph-name="i.loclTRK" horiz-adv-x="473" 
d="M332 1192q-49 0 -78 33t-21 80q6 47 43.5 79.5t85.5 32.5q49 0 77 -32t22 -80q-8 -47 -45 -80t-84 -33zM76 0l147 1044h176l-147 -1044h-176z" />
    <glyph glyph-name="a.ss01" horiz-adv-x="1138" 
d="M627 1069q202 0 312 -112.5t85 -297.5l-94 -659h-164l14 104q-64 -61 -157.5 -95t-200.5 -34q-184 0 -290.5 93.5t-86.5 240.5q22 147 154 240.5t313 93.5q210 0 315 -121l19 125q17 121 -52 191.5t-202 70.5q-97 0 -182 -35.5t-146 -91.5l-84 113q80 78 197.5 126
t249.5 48zM481 131q125 0 215.5 51t100.5 127q11 77 -65 127.5t-202 50.5q-123 0 -207 -48.5t-96 -129.5q-10 -81 60.5 -129.5t193.5 -48.5z" />
    <glyph glyph-name="aacute.ss01" horiz-adv-x="1138" 
d="M1012 1446l-289 -264h-188l249 264h228zM627 1069q202 0 312 -112.5t85 -297.5l-94 -659h-164l14 104q-64 -61 -157.5 -95t-200.5 -34q-184 0 -290.5 93.5t-86.5 240.5q22 147 154 240.5t313 93.5q210 0 315 -121l19 125q17 121 -52 191.5t-202 70.5q-97 0 -182 -35.5
t-146 -91.5l-84 113q80 78 197.5 126t249.5 48zM481 131q125 0 215.5 51t100.5 127q11 77 -65 127.5t-202 50.5q-123 0 -207 -48.5t-96 -129.5q-10 -81 60.5 -129.5t193.5 -48.5z" />
    <glyph glyph-name="abreve.ss01" horiz-adv-x="1138" 
d="M641 1161q-122 0 -191.5 78t-52.5 195h140q-9 -62 25.5 -104t94.5 -42q61 0 109 42t57 104h140q-17 -117 -109 -195t-213 -78zM627 1069q202 0 312 -112.5t85 -297.5l-94 -659h-164l14 104q-64 -61 -157.5 -95t-200.5 -34q-184 0 -290.5 93.5t-86.5 240.5
q22 147 154 240.5t313 93.5q210 0 315 -121l19 125q17 121 -52 191.5t-202 70.5q-97 0 -182 -35.5t-146 -91.5l-84 113q80 78 197.5 126t249.5 48zM481 131q125 0 215.5 51t100.5 127q11 77 -65 127.5t-202 50.5q-123 0 -207 -48.5t-96 -129.5q-10 -81 60.5 -129.5
t193.5 -48.5z" />
    <glyph glyph-name="uni01CE.ss01" horiz-adv-x="1138" 
d="M754 1182h-215l-170 264h168l120 -170l170 170h168zM627 1069q202 0 312 -112.5t85 -297.5l-94 -659h-164l14 104q-64 -61 -157.5 -95t-200.5 -34q-184 0 -290.5 93.5t-86.5 240.5q22 147 154 240.5t313 93.5q210 0 315 -121l19 125q17 121 -52 191.5t-202 70.5
q-97 0 -182 -35.5t-146 -91.5l-84 113q80 78 197.5 126t249.5 48zM481 131q125 0 215.5 51t100.5 127q11 77 -65 127.5t-202 50.5q-123 0 -207 -48.5t-96 -129.5q-10 -81 60.5 -129.5t193.5 -48.5z" />
    <glyph glyph-name="acircumflex.ss01" horiz-adv-x="1138" 
d="M670 1352l-170 -170h-168l243 264h216l167 -264h-167zM627 1069q202 0 312 -112.5t85 -297.5l-94 -659h-164l14 104q-64 -61 -157.5 -95t-200.5 -34q-184 0 -290.5 93.5t-86.5 240.5q22 147 154 240.5t313 93.5q210 0 315 -121l19 125q17 121 -52 191.5t-202 70.5
q-97 0 -182 -35.5t-146 -91.5l-84 113q80 78 197.5 126t249.5 48zM481 131q125 0 215.5 51t100.5 127q11 77 -65 127.5t-202 50.5q-123 0 -207 -48.5t-96 -129.5q-10 -81 60.5 -129.5t193.5 -48.5z" />
    <glyph glyph-name="uni0201.ss01" horiz-adv-x="1138" 
d="M537 1182h-172l-158 264h196zM934 1182h-170l-158 264h197zM627 1069q202 0 312 -112.5t85 -297.5l-94 -659h-164l14 104q-64 -61 -157.5 -95t-200.5 -34q-184 0 -290.5 93.5t-86.5 240.5q22 147 154 240.5t313 93.5q210 0 315 -121l19 125q17 121 -52 191.5t-202 70.5
q-97 0 -182 -35.5t-146 -91.5l-84 113q80 78 197.5 126t249.5 48zM481 131q125 0 215.5 51t100.5 127q11 77 -65 127.5t-202 50.5q-123 0 -207 -48.5t-96 -129.5q-10 -81 60.5 -129.5t193.5 -48.5z" />
    <glyph glyph-name="adieresis.ss01" horiz-adv-x="1138" 
d="M434 1192q-46 0 -73 31t-21 77q6 45 43.5 77t83.5 32q45 0 71.5 -31.5t20.5 -77.5t-42 -77t-83 -31zM858 1192q-46 0 -73 31t-21 77t42.5 77.5t82.5 31.5t73 -31.5t21 -77.5q-6 -45 -42.5 -76.5t-82.5 -31.5zM627 1069q202 0 312 -112.5t85 -297.5l-94 -659h-164l14 104
q-64 -61 -157.5 -95t-200.5 -34q-184 0 -290.5 93.5t-86.5 240.5q22 147 154 240.5t313 93.5q210 0 315 -121l19 125q17 121 -52 191.5t-202 70.5q-97 0 -182 -35.5t-146 -91.5l-84 113q80 78 197.5 126t249.5 48zM481 131q125 0 215.5 51t100.5 127q11 77 -65 127.5
t-202 50.5q-123 0 -207 -48.5t-96 -129.5q-10 -81 60.5 -129.5t193.5 -48.5z" />
    <glyph glyph-name="uni1EA1.ss01" horiz-adv-x="1138" 
d="M627 1069q202 0 312 -112.5t85 -297.5l-94 -659h-164l14 104q-64 -61 -157.5 -95t-200.5 -34q-184 0 -290.5 93.5t-86.5 240.5q22 147 154 240.5t313 93.5q210 0 315 -121l19 125q17 121 -52 191.5t-202 70.5q-97 0 -182 -35.5t-146 -91.5l-84 113q80 78 197.5 126
t249.5 48zM481 131q125 0 215.5 51t100.5 127q11 77 -65 127.5t-202 50.5q-123 0 -207 -48.5t-96 -129.5q-10 -81 60.5 -129.5t193.5 -48.5zM457 -147q49 0 77.5 -33t20.5 -80q-6 -47 -44 -80t-85 -33t-75.5 33t-22.5 80q8 47 45 80t84 33z" />
    <glyph glyph-name="agrave.ss01" horiz-adv-x="1138" 
d="M754 1182h-189l-215 264h228zM627 1069q202 0 312 -112.5t85 -297.5l-94 -659h-164l14 104q-64 -61 -157.5 -95t-200.5 -34q-184 0 -290.5 93.5t-86.5 240.5q22 147 154 240.5t313 93.5q210 0 315 -121l19 125q17 121 -52 191.5t-202 70.5q-97 0 -182 -35.5t-146 -91.5
l-84 113q80 78 197.5 126t249.5 48zM481 131q125 0 215.5 51t100.5 127q11 77 -65 127.5t-202 50.5q-123 0 -207 -48.5t-96 -129.5q-10 -81 60.5 -129.5t193.5 -48.5z" />
    <glyph glyph-name="uni0203.ss01" horiz-adv-x="1138" 
d="M662 1315q-62 0 -108.5 -41.5t-55.5 -104.5h-140q17 117 109.5 196t212.5 79q122 0 192.5 -79t51.5 -196h-138q9 63 -26.5 104.5t-97.5 41.5zM627 1069q202 0 312 -112.5t85 -297.5l-94 -659h-164l14 104q-64 -61 -157.5 -95t-200.5 -34q-184 0 -290.5 93.5t-86.5 240.5
q22 147 154 240.5t313 93.5q210 0 315 -121l19 125q17 121 -52 191.5t-202 70.5q-97 0 -182 -35.5t-146 -91.5l-84 113q80 78 197.5 126t249.5 48zM481 131q125 0 215.5 51t100.5 127q11 77 -65 127.5t-202 50.5q-123 0 -207 -48.5t-96 -129.5q-10 -81 60.5 -129.5
t193.5 -48.5z" />
    <glyph glyph-name="amacron.ss01" horiz-adv-x="1138" 
d="M913 1362l-20 -150h-485l20 150h485zM627 1069q202 0 312 -112.5t85 -297.5l-94 -659h-164l14 104q-64 -61 -157.5 -95t-200.5 -34q-184 0 -290.5 93.5t-86.5 240.5q22 147 154 240.5t313 93.5q210 0 315 -121l19 125q17 121 -52 191.5t-202 70.5q-97 0 -182 -35.5
t-146 -91.5l-84 113q80 78 197.5 126t249.5 48zM481 131q125 0 215.5 51t100.5 127q11 77 -65 127.5t-202 50.5q-123 0 -207 -48.5t-96 -129.5q-10 -81 60.5 -129.5t193.5 -48.5z" />
    <glyph glyph-name="aogonek.ss01" horiz-adv-x="1138" 
d="M627 1069q202 0 312 -112.5t85 -297.5l-94 -659h-35q-229 -94 -248 -221q-7 -48 21.5 -77.5t74.5 -29.5q59 0 109 33l27 -111q-82 -51 -181 -51t-154.5 57t-43.5 142q13 84 84 154.5t176 109.5h6l14 98q-64 -61 -157.5 -95t-200.5 -34q-184 0 -290.5 93.5t-86.5 240.5
q22 147 154 240.5t313 93.5q210 0 315 -121l19 125q17 121 -52 191.5t-202 70.5q-97 0 -182 -35.5t-146 -91.5l-84 113q80 78 197.5 126t249.5 48zM481 131q125 0 215.5 51t100.5 127q11 77 -65 127.5t-202 50.5q-123 0 -207 -48.5t-96 -129.5q-10 -81 60.5 -129.5
t193.5 -48.5z" />
    <glyph glyph-name="aring.ss01" horiz-adv-x="1138" 
d="M639 1153q-75 0 -119 50.5t-35 125.5q10 73 69 123.5t134 50.5q76 0 120.5 -50t35.5 -124q-10 -75 -69 -125.5t-136 -50.5zM584 1329q-4 -37 15.5 -60.5t53.5 -23.5t61 24t31 60q4 35 -15.5 58.5t-53.5 23.5t-61 -23.5t-31 -58.5zM627 1069q202 0 312 -112.5t85 -297.5
l-94 -659h-164l14 104q-64 -61 -157.5 -95t-200.5 -34q-184 0 -290.5 93.5t-86.5 240.5q22 147 154 240.5t313 93.5q210 0 315 -121l19 125q17 121 -52 191.5t-202 70.5q-97 0 -182 -35.5t-146 -91.5l-84 113q80 78 197.5 126t249.5 48zM481 131q125 0 215.5 51t100.5 127
q11 77 -65 127.5t-202 50.5q-123 0 -207 -48.5t-96 -129.5q-10 -81 60.5 -129.5t193.5 -48.5z" />
    <glyph glyph-name="atilde.ss01" horiz-adv-x="1138" 
d="M543 1307q-43 0 -76 -30t-39 -73h-127q14 105 80 173.5t162 68.5q41 0 76.5 -17.5t56.5 -38t49.5 -38t58.5 -17.5q43 0 76 29.5t39 73.5h127q-14 -106 -79.5 -175t-160.5 -69q-43 0 -79 17.5t-56.5 39t-49 39t-58.5 17.5zM627 1069q202 0 312 -112.5t85 -297.5l-94 -659
h-164l14 104q-64 -61 -157.5 -95t-200.5 -34q-184 0 -290.5 93.5t-86.5 240.5q22 147 154 240.5t313 93.5q210 0 315 -121l19 125q17 121 -52 191.5t-202 70.5q-97 0 -182 -35.5t-146 -91.5l-84 113q80 78 197.5 126t249.5 48zM481 131q125 0 215.5 51t100.5 127
q11 77 -65 127.5t-202 50.5q-123 0 -207 -48.5t-96 -129.5q-10 -81 60.5 -129.5t193.5 -48.5z" />
    <glyph glyph-name="g.ss02" 
d="M1087 1044h177l-131 -931q-34 -238 -207.5 -382.5t-427.5 -144.5q-156 0 -272.5 57t-180.5 160l111 121q46 -83 137 -129.5t213 -46.5q182 0 304.5 100.5t145.5 266.5l15 106q-81 -97 -193.5 -151t-240.5 -54q-224 0 -352.5 150.5t-96.5 376.5q16 110 70 208t133 167.5
t182 110t213 40.5q126 0 224 -54.5t153 -150.5zM592 176q153 0 271 94.5t149 241.5l8 59q11 145 -80.5 240.5t-243.5 95.5q-161 0 -282.5 -104t-143.5 -260q-23 -157 69.5 -262t252.5 -105z" />
    <glyph glyph-name="uni01F5.ss02" 
d="M1128 1446l-288 -264h-189l250 264h227zM1087 1044h177l-131 -931q-34 -238 -207.5 -382.5t-427.5 -144.5q-156 0 -272.5 57t-180.5 160l111 121q46 -83 137 -129.5t213 -46.5q182 0 304.5 100.5t145.5 266.5l15 106q-81 -97 -193.5 -151t-240.5 -54q-224 0 -352.5 150.5
t-96.5 376.5q16 110 70 208t133 167.5t182 110t213 40.5q126 0 224 -54.5t153 -150.5zM592 176q153 0 271 94.5t149 241.5l8 59q11 145 -80.5 240.5t-243.5 95.5q-161 0 -282.5 -104t-143.5 -260q-23 -157 69.5 -262t252.5 -105z" />
    <glyph glyph-name="gbreve.ss02" 
d="M758 1161q-122 0 -191.5 78t-52.5 195h139q-9 -62 26 -104t95 -42q61 0 109 42t57 104h139q-17 -117 -108.5 -195t-212.5 -78zM1087 1044h177l-131 -931q-34 -238 -207.5 -382.5t-427.5 -144.5q-156 0 -272.5 57t-180.5 160l111 121q46 -83 137 -129.5t213 -46.5
q182 0 304.5 100.5t145.5 266.5l15 106q-81 -97 -193.5 -151t-240.5 -54q-224 0 -352.5 150.5t-96.5 376.5q16 110 70 208t133 167.5t182 110t213 40.5q126 0 224 -54.5t153 -150.5zM592 176q153 0 271 94.5t149 241.5l8 59q11 145 -80.5 240.5t-243.5 95.5
q-161 0 -282.5 -104t-143.5 -260q-23 -157 69.5 -262t252.5 -105z" />
    <glyph glyph-name="gcaron.ss02" 
d="M868 1182h-215l-170 264h168l121 -170l170 170h168zM1087 1044h177l-131 -931q-34 -238 -207.5 -382.5t-427.5 -144.5q-156 0 -272.5 57t-180.5 160l111 121q46 -83 137 -129.5t213 -46.5q182 0 304.5 100.5t145.5 266.5l15 106q-81 -97 -193.5 -151t-240.5 -54
q-224 0 -352.5 150.5t-96.5 376.5q16 110 70 208t133 167.5t182 110t213 40.5q126 0 224 -54.5t153 -150.5zM592 176q153 0 271 94.5t149 241.5l8 59q11 145 -80.5 240.5t-243.5 95.5q-161 0 -282.5 -104t-143.5 -260q-23 -157 69.5 -262t252.5 -105z" />
    <glyph glyph-name="gcircumflex.ss02" 
d="M784 1352l-170 -170h-168l244 264h215l168 -264h-168zM1087 1044h177l-131 -931q-34 -238 -207.5 -382.5t-427.5 -144.5q-156 0 -272.5 57t-180.5 160l111 121q46 -83 137 -129.5t213 -46.5q182 0 304.5 100.5t145.5 266.5l15 106q-81 -97 -193.5 -151t-240.5 -54
q-224 0 -352.5 150.5t-96.5 376.5q16 110 70 208t133 167.5t182 110t213 40.5q126 0 224 -54.5t153 -150.5zM592 176q153 0 271 94.5t149 241.5l8 59q11 145 -80.5 240.5t-243.5 95.5q-161 0 -282.5 -104t-143.5 -260q-23 -157 69.5 -262t252.5 -105z" />
    <glyph glyph-name="uni0123.ss02" 
d="M930 1485l-117 -316h-184l155 316h146zM1087 1044h177l-131 -931q-34 -238 -207.5 -382.5t-427.5 -144.5q-156 0 -272.5 57t-180.5 160l111 121q46 -83 137 -129.5t213 -46.5q182 0 304.5 100.5t145.5 266.5l15 106q-81 -97 -193.5 -151t-240.5 -54q-224 0 -352.5 150.5
t-96.5 376.5q16 110 70 208t133 167.5t182 110t213 40.5q126 0 224 -54.5t153 -150.5zM592 176q153 0 271 94.5t149 241.5l8 59q11 145 -80.5 240.5t-243.5 95.5q-161 0 -282.5 -104t-143.5 -260q-23 -157 69.5 -262t252.5 -105z" />
    <glyph glyph-name="gdotaccent.ss02" 
d="M762 1192q-49 0 -77.5 33t-20.5 80q6 47 43.5 79.5t85.5 32.5q49 0 76.5 -32t21.5 -80q-8 -47 -45 -80t-84 -33zM1087 1044h177l-131 -931q-34 -238 -207.5 -382.5t-427.5 -144.5q-156 0 -272.5 57t-180.5 160l111 121q46 -83 137 -129.5t213 -46.5q182 0 304.5 100.5
t145.5 266.5l15 106q-81 -97 -193.5 -151t-240.5 -54q-224 0 -352.5 150.5t-96.5 376.5q16 110 70 208t133 167.5t182 110t213 40.5q126 0 224 -54.5t153 -150.5zM592 176q153 0 271 94.5t149 241.5l8 59q11 145 -80.5 240.5t-243.5 95.5q-161 0 -282.5 -104t-143.5 -260
q-23 -157 69.5 -262t252.5 -105z" />
    <glyph glyph-name="u.ss03" horiz-adv-x="1241" 
d="M989 1044h176l-147 -1044h-176l22 152q-154 -177 -393 -177q-187 0 -284 113t-72 301l92 655h176l-84 -600q-19 -135 50 -217t204 -82t231 79t119 210z" />
    <glyph glyph-name="uacute.ss03" horiz-adv-x="1241" 
d="M1073 1446l-289 -264h-188l250 264h227zM989 1044h176l-147 -1044h-176l22 152q-154 -177 -393 -177q-187 0 -284 113t-72 301l92 655h176l-84 -600q-19 -135 50 -217t204 -82t231 79t119 210z" />
    <glyph glyph-name="ubreve.ss03" horiz-adv-x="1241" 
d="M702 1161q-121 0 -190.5 78t-52.5 195h139q-9 -62 26 -104t95 -42q61 0 109 42t57 104h139q-17 -117 -109 -195t-213 -78zM989 1044h176l-147 -1044h-176l22 152q-154 -177 -393 -177q-187 0 -284 113t-72 301l92 655h176l-84 -600q-19 -135 50 -217t204 -82t231 79
t119 210z" />
    <glyph glyph-name="ucircumflex.ss03" horiz-adv-x="1241" 
d="M731 1352l-170 -170h-168l244 264h215l168 -264h-168zM989 1044h176l-147 -1044h-176l22 152q-154 -177 -393 -177q-187 0 -284 113t-72 301l92 655h176l-84 -600q-19 -135 50 -217t204 -82t231 79t119 210z" />
    <glyph glyph-name="uni0215.ss03" horiz-adv-x="1241" 
d="M598 1182h-172l-158 264h197zM995 1182h-170l-157 264h196zM989 1044h176l-147 -1044h-176l22 152q-154 -177 -393 -177q-187 0 -284 113t-72 301l92 655h176l-84 -600q-19 -135 50 -217t204 -82t231 79t119 210z" />
    <glyph glyph-name="udieresis.ss03" horiz-adv-x="1241" 
d="M496 1192q-46 0 -73.5 31t-21.5 77q6 45 43.5 77t83.5 32t72.5 -31.5t20.5 -77.5t-42 -77t-83 -31zM920 1192q-46 0 -73.5 31t-21.5 77t42.5 77.5t82.5 31.5t73 -31.5t21 -77.5t-42 -77t-82 -31zM989 1044h176l-147 -1044h-176l22 152q-154 -177 -393 -177
q-187 0 -284 113t-72 301l92 655h176l-84 -600q-19 -135 50 -217t204 -82t231 79t119 210z" />
    <glyph glyph-name="uni1EE5.ss03" horiz-adv-x="1241" 
d="M989 1044h176l-147 -1044h-176l22 152q-154 -177 -393 -177q-187 0 -284 113t-72 301l92 655h176l-84 -600q-19 -135 50 -217t204 -82t231 79t119 210zM518 -147q49 0 77.5 -33t20.5 -80q-6 -47 -44 -80t-85 -33t-75.5 33t-22.5 80q8 47 45 80t84 33z" />
    <glyph glyph-name="ugrave.ss03" horiz-adv-x="1241" 
d="M815 1182h-188l-215 264h227zM989 1044h176l-147 -1044h-176l22 152q-154 -177 -393 -177q-187 0 -284 113t-72 301l92 655h176l-84 -600q-19 -135 50 -217t204 -82t231 79t119 210z" />
    <glyph glyph-name="uhungarumlaut.ss03" horiz-adv-x="1241" 
d="M817 1446l-231 -264h-172l207 264h196zM985 1182h-172l205 264h199zM903 434l86 610h176l-147 -1044h-176l22 152q-154 -177 -393 -177q-187 0 -284 113t-72 301l92 655h176l-84 -600q-19 -135 50 -217t204 -82t231 79t119 210z" />
    <glyph glyph-name="uni0217.ss03" horiz-adv-x="1241" 
d="M723 1315q-62 0 -108.5 -41.5t-55.5 -104.5h-139q17 117 109 196t212 79q122 0 192.5 -79t51.5 -196h-137q9 63 -27 104.5t-98 41.5zM989 1044h176l-147 -1044h-176l22 152q-154 -177 -393 -177q-187 0 -284 113t-72 301l92 655h176l-84 -600q-19 -135 50 -217t204 -82
t231 79t119 210z" />
    <glyph glyph-name="umacron.ss03" horiz-adv-x="1241" 
d="M975 1362l-21 -150h-485l20 150h486zM989 1044h176l-147 -1044h-176l22 152q-154 -177 -393 -177q-187 0 -284 113t-72 301l92 655h176l-84 -600q-19 -135 50 -217t204 -82t231 79t119 210z" />
    <glyph glyph-name="uogonek.ss03" horiz-adv-x="1241" 
d="M1018 0q-229 -94 -248 -221q-7 -48 21.5 -77.5t74.5 -29.5q59 0 109 33l26 -111q-82 -51 -180 -51q-99 0 -154.5 57t-43.5 142q13 82 78.5 149.5t164.5 108.5h-24l22 152q-154 -177 -393 -177q-187 0 -284 113t-72 301l92 655h176l-84 -600q-19 -135 50 -217t204 -82
t231 79t119 210l86 610h176z" />
    <glyph glyph-name="uring.ss03" horiz-adv-x="1241" 
d="M700 1153q-75 0 -118.5 50.5t-34.5 125.5q10 73 69 123.5t134 50.5q76 0 120 -50t35 -124q-10 -75 -69 -125.5t-136 -50.5zM645 1329q-4 -36 16 -60t54 -24t61 24t31 60q4 35 -16 58.5t-54 23.5t-61 -23.5t-31 -58.5zM989 1044h176l-147 -1044h-176l22 152
q-154 -177 -393 -177q-187 0 -284 113t-72 301l92 655h176l-84 -600q-19 -135 50 -217t204 -82t231 79t119 210z" />
    <glyph glyph-name="utilde.ss03" horiz-adv-x="1241" 
d="M604 1307q-43 0 -76 -30t-39 -73h-127q14 105 80 173.5t162 68.5q41 0 77 -17.5t56.5 -38t49.5 -38t59 -17.5q43 0 76 29.5t39 73.5h126q-14 -107 -79 -175.5t-160 -68.5q-43 0 -79 17.5t-57 39t-49.5 39t-58.5 17.5zM989 1044h176l-147 -1044h-176l22 152
q-154 -177 -393 -177q-187 0 -284 113t-72 301l92 655h176l-84 -600q-19 -135 50 -217t204 -82t231 79t119 210z" />
    <glyph glyph-name="w.ss04" horiz-adv-x="1839" 
d="M1602 1044h176l-92 -665q-26 -183 -158 -293.5t-324 -110.5q-124 0 -210.5 49t-125.5 138q-64 -89 -164.5 -138t-224.5 -49q-192 0 -291 110.5t-73 293.5l92 665h176l-90 -643q-17 -115 44.5 -185.5t180.5 -70.5q117 0 198.5 70t98.5 186l90 643h176l-90 -643
q-17 -115 44.5 -185.5t178.5 -70.5q118 0 199 70t98 186z" />
    <glyph glyph-name="wacute.ss04" horiz-adv-x="1839" 
d="M1380 1446l-288 -264h-189l250 264h227zM1602 1044h176l-92 -665q-26 -183 -158 -293.5t-324 -110.5q-124 0 -210.5 49t-125.5 138q-64 -89 -164.5 -138t-224.5 -49q-192 0 -291 110.5t-73 293.5l92 665h176l-90 -643q-17 -115 44.5 -185.5t180.5 -70.5q117 0 198.5 70
t98.5 186l90 643h176l-90 -643q-17 -115 44.5 -185.5t178.5 -70.5q118 0 199 70t98 186z" />
    <glyph glyph-name="wcircumflex.ss04" horiz-adv-x="1839" 
d="M1036 1352l-170 -170h-168l244 264h215l168 -264h-168zM1602 1044h176l-92 -665q-26 -183 -158 -293.5t-324 -110.5q-124 0 -210.5 49t-125.5 138q-64 -89 -164.5 -138t-224.5 -49q-192 0 -291 110.5t-73 293.5l92 665h176l-90 -643q-17 -115 44.5 -185.5t180.5 -70.5
q117 0 198.5 70t98.5 186l90 643h176l-90 -643q-17 -115 44.5 -185.5t178.5 -70.5q118 0 199 70t98 186z" />
    <glyph glyph-name="wdieresis.ss04" horiz-adv-x="1839" 
d="M801 1192q-46 0 -73 31t-21 77q6 45 43.5 77t83.5 32q45 0 71.5 -31.5t20.5 -77.5t-42 -77t-83 -31zM1225 1192q-46 0 -73.5 31t-21.5 77t42.5 77.5t82.5 31.5t73.5 -31.5t21.5 -77.5q-6 -45 -42.5 -76.5t-82.5 -31.5zM1602 1044h176l-92 -665q-26 -183 -158 -293.5
t-324 -110.5q-124 0 -210.5 49t-125.5 138q-64 -89 -164.5 -138t-224.5 -49q-192 0 -291 110.5t-73 293.5l92 665h176l-90 -643q-17 -115 44.5 -185.5t180.5 -70.5q117 0 198.5 70t98.5 186l90 643h176l-90 -643q-17 -115 44.5 -185.5t178.5 -70.5q118 0 199 70t98 186z" />
    <glyph glyph-name="wgrave.ss04" horiz-adv-x="1839" 
d="M1120 1182h-188l-215 264h227zM1602 1044h176l-92 -665q-26 -183 -158 -293.5t-324 -110.5q-124 0 -210.5 49t-125.5 138q-64 -89 -164.5 -138t-224.5 -49q-192 0 -291 110.5t-73 293.5l92 665h176l-90 -643q-17 -115 44.5 -185.5t180.5 -70.5q117 0 198.5 70t98.5 186
l90 643h176l-90 -643q-17 -115 44.5 -185.5t178.5 -70.5q118 0 199 70t98 186z" />
    <glyph glyph-name="zero.subs" horiz-adv-x="811" 
d="M285 -248q-145 0 -219 122t-48 316q28 194 136.5 316.5t253.5 122.5q146 0 221 -122.5t47 -316.5q-26 -193 -135.5 -315.5t-255.5 -122.5zM303 -121q85 0 151 87.5t85 223.5q20 136 -21.5 224t-126.5 88t-151 -87t-86 -225q-19 -137 23 -224t126 -87z" />
    <glyph glyph-name="one.subs" horiz-adv-x="471" 
d="M287 614h94l-119 -847h-133l98 690l-170 -88l-43 106z" />
    <glyph glyph-name="two.subs" horiz-adv-x="657" 
d="M569 381q-15 -121 -141 -234l-278 -256h370l-18 -124h-555l16 106l359 338q104 99 112 164q7 55 -28.5 89t-96.5 34q-103 0 -198 -109l-80 84q55 72 135.5 114t169.5 42q118 0 183 -70t50 -178z" />
    <glyph glyph-name="three.subs" horiz-adv-x="681" 
d="M606 403q-9 -62 -49.5 -112t-103.5 -78q65 -29 96.5 -86.5t21.5 -128.5q-15 -107 -112 -176.5t-232 -69.5q-89 0 -165 31.5t-123 89.5l90 98q35 -44 90 -68t117 -24q81 0 137.5 39t64.5 98q7 60 -37 99t-118 39h-127l16 114h127q66 0 114 32.5t56 82.5q6 52 -37 85.5
t-115 33.5q-54 0 -107 -20.5t-91 -55.5l-60 96q57 51 134 79t157 28q126 0 198 -64t58 -162z" />
    <glyph glyph-name="four.subs" horiz-adv-x="724" 
d="M629 72l-19 -125h-102l-25 -180h-133l25 180h-385l-17 108l484 559h145l-76 -542h103zM115 72h278l53 387z" />
    <glyph glyph-name="five.subs" horiz-adv-x="714" 
d="M612 492h-364l-51 -228q71 41 157 41q124 0 196.5 -78t57.5 -194q-17 -120 -119 -200.5t-239 -80.5q-170 0 -279 121l82 107q34 -46 88.5 -73.5t116.5 -27.5q85 0 144.5 45.5t68.5 112.5q9 65 -33 108t-114 43q-42 0 -86.5 -16t-77.5 -43l-111 35l103 450h479z" />
    <glyph glyph-name="six.subs" horiz-adv-x="692" 
d="M365 303q115 0 181.5 -77.5t51.5 -190.5q-17 -121 -119 -202t-237 -81q-143 0 -218 91t-55 245q30 200 193.5 351.5t402.5 189.5l8 -123q-145 -28 -253.5 -102.5t-161.5 -172.5q87 72 207 72zM461 33q9 64 -34.5 107.5t-119.5 43.5q-73 0 -135 -38t-72 -107
q-9 -70 35 -116t125 -46q76 0 134 45t67 111z" />
    <glyph glyph-name="seven.subs" horiz-adv-x="659" 
d="M66 614h557l-15 -102l-450 -745h-150l438 722h-399z" />
    <glyph glyph-name="eight.subs" horiz-adv-x="698" 
d="M627 397q-9 -61 -49.5 -111t-104.5 -81q62 -31 93 -85.5t22 -121.5q-14 -104 -113.5 -175t-234.5 -71q-132 0 -212 71t-65 175q9 67 55 121.5t117 85.5q-55 31 -81 81t-19 111q15 99 108.5 165.5t218.5 66.5q127 0 203 -66.5t62 -165.5zM487 383q9 54 -31.5 88.5
t-109.5 34.5q-67 0 -118 -35t-58 -88q-7 -51 34 -86t107 -35q68 0 119 35t57 86zM455 12q7 57 -39 95t-121 38q-74 0 -130 -38t-65 -95q-8 -57 37.5 -96t120.5 -39t132.5 39t64.5 96z" />
    <glyph glyph-name="nine.subs" horiz-adv-x="694" 
d="M360 629q144 0 219.5 -91t53.5 -245q-19 -132 -98 -248.5t-210 -195.5t-288 -97l-8 123q145 22 253 96.5t162 175.5q-87 -69 -204 -69q-116 0 -182.5 77.5t-51.5 190.5q17 122 118 202.5t236 80.5zM502 342q11 70 -33.5 116t-126.5 46q-75 0 -132.5 -45t-66.5 -111
q-9 -65 34 -108t118 -43q47 0 91 15t77 49t39 81z" />
    <glyph glyph-name="zero.dnom" horiz-adv-x="811" 
d="M317 -14q-145 0 -218.5 122t-47.5 316q28 194 136 316t253 122q146 0 221.5 -122.5t47.5 -315.5q-26 -193 -136 -315.5t-256 -122.5zM336 113q85 0 150.5 87t84.5 224q20 136 -21 223.5t-126 87.5t-151.5 -86.5t-86.5 -224.5q-19 -137 23.5 -224t126.5 -87z" />
    <glyph glyph-name="one.dnom" horiz-adv-x="471" 
d="M319 848h95l-119 -848h-133l98 690l-170 -88l-43 107z" />
    <glyph glyph-name="two.dnom" horiz-adv-x="657" 
d="M602 614q-15 -120 -141 -233l-279 -256h371l-18 -125h-555l16 106l358 338q105 100 113 164q7 55 -28.5 89t-96.5 34q-105 0 -199 -108l-80 84q55 72 136 113.5t170 41.5q118 0 183 -70t50 -178z" />
    <glyph glyph-name="three.dnom" horiz-adv-x="681" 
d="M639 637q-9 -62 -50 -112.5t-104 -78.5q65 -30 97 -87t22 -128q-15 -107 -112 -176t-232 -69q-89 0 -165.5 31t-123.5 89l90 99q35 -44 90 -68t117 -24q81 0 138 39t65 98q7 60 -37.5 98.5t-118.5 38.5h-127l17 115h127q66 0 114.5 32.5t55.5 81.5q6 52 -37 85.5
t-115 33.5q-54 0 -107 -20.5t-91 -55.5l-60 97q56 50 133.5 78t157.5 28q126 0 198 -63.5t58 -161.5z" />
    <glyph glyph-name="four.dnom" horiz-adv-x="724" 
d="M662 305l-19 -125h-102l-25 -180h-133l25 180h-385l-17 109l483 559h146l-76 -543h103zM147 305h279l53 387z" />
    <glyph glyph-name="five.dnom" horiz-adv-x="714" 
d="M645 725h-364l-52 -227q71 41 158 41q124 0 196.5 -78.5t57.5 -194.5q-17 -120 -118.5 -200t-239.5 -80q-171 0 -279 120l82 107q34 -46 88.5 -73t116.5 -27q85 0 144.5 45t68.5 112q9 65 -33.5 108.5t-114.5 43.5q-89 0 -163 -60l-111 35l102 451h480z" />
    <glyph glyph-name="six.dnom" horiz-adv-x="692" 
d="M397 537q115 0 182 -78t52 -191q-17 -121 -119.5 -201.5t-237.5 -80.5q-143 0 -217.5 91t-54.5 245q30 200 193.5 351t402.5 189l8 -123q-146 -28 -254.5 -102t-161.5 -172q87 72 207 72zM494 266q9 64 -34.5 108t-119.5 44q-73 0 -135 -38.5t-72 -107.5
q-9 -70 35 -115.5t125 -45.5q77 0 134.5 44.5t66.5 110.5z" />
    <glyph glyph-name="seven.dnom" horiz-adv-x="659" 
d="M98 848h557l-14 -103l-451 -745h-149l438 723h-399z" />
    <glyph glyph-name="eight.dnom" horiz-adv-x="698" 
d="M659 631q-9 -61 -49.5 -111.5t-103.5 -81.5q62 -31 93 -85.5t22 -121.5q-13 -104 -113.5 -174.5t-235.5 -70.5q-132 0 -211.5 70.5t-64.5 174.5q9 67 55 121.5t117 85.5q-54 31 -80.5 81.5t-19.5 111.5q15 99 108 165t219 66q127 0 202.5 -66t61.5 -165zM520 616
q9 54 -31.5 88.5t-109.5 34.5q-67 0 -118 -35t-58 -88q-7 -51 34 -85.5t107 -34.5q68 0 119 34.5t57 85.5zM487 246q7 57 -38.5 95t-120.5 38q-74 0 -130 -38t-65 -95q-8 -57 37.5 -96t120.5 -39t132 39t64 96z" />
    <glyph glyph-name="nine.dnom" horiz-adv-x="694" 
d="M393 862q144 0 219.5 -91t53.5 -245q-28 -203 -194 -358t-402 -182l-9 123q146 22 254 96.5t162 175.5q-89 -70 -205 -70t-182 77.5t-51 191.5q17 121 118 201.5t236 80.5zM535 575q11 70 -33.5 116t-126.5 46q-75 0 -132.5 -44.5t-66.5 -110.5q-9 -65 34 -108.5
t118 -43.5q47 0 91 15t77 49t39 81z" />
    <glyph glyph-name="zero.numr" horiz-adv-x="811" 
d="M397 551q-145 0 -218.5 122t-47.5 316q28 194 136 316t253 122q146 0 221 -122t47 -316q-26 -193 -135.5 -315.5t-255.5 -122.5zM416 678q85 0 150.5 87t84.5 224q20 136 -21 223.5t-126 87.5t-151.5 -86.5t-86.5 -224.5q-19 -137 23.5 -224t126.5 -87z" />
    <glyph glyph-name="one.numr" horiz-adv-x="471" 
d="M399 1413h95l-119 -848h-133l98 690l-170 -88l-43 107z" />
    <glyph glyph-name="two.numr" horiz-adv-x="657" 
d="M682 1180q-15 -121 -141 -234l-279 -256h371l-19 -125h-555l17 107l358 338q105 100 113 164q7 55 -28.5 88.5t-96.5 33.5q-105 0 -199 -108l-80 84q55 72 136 113.5t170 41.5q118 0 183 -69.5t50 -177.5z" />
    <glyph glyph-name="three.numr" horiz-adv-x="681" 
d="M719 1202q-9 -61 -50 -111.5t-104 -78.5q65 -30 97 -87t22 -128q-15 -107 -112 -176.5t-232 -69.5q-89 0 -165.5 31.5t-123.5 89.5l90 98q35 -44 90 -68t117 -24q81 0 138 39t65 98q7 60 -37.5 98.5t-118.5 38.5h-127l17 115h127q66 0 114 32.5t56 82.5q6 52 -37 85
t-115 33q-54 0 -107.5 -20t-91.5 -55l-59 96q56 50 133.5 78t157.5 28q126 0 198 -63.5t58 -161.5z" />
    <glyph glyph-name="four.numr" horiz-adv-x="724" 
d="M741 870l-18 -125h-102l-25 -180h-133l24 180h-385l-16 109l483 559h146l-76 -543h102zM227 870h279l53 387z" />
    <glyph glyph-name="five.numr" horiz-adv-x="714" 
d="M725 1290h-365l-51 -227q71 41 158 41q124 0 196.5 -78.5t57.5 -194.5q-17 -120 -119 -200t-240 -80q-169 0 -278 121l82 106q34 -46 88.5 -73t116.5 -27q85 0 144.5 45.5t68.5 112.5q9 64 -33.5 107.5t-114.5 43.5q-42 0 -86.5 -16t-77.5 -43l-110 35l102 450h479z" />
    <glyph glyph-name="six.numr" horiz-adv-x="692" 
d="M477 1102q115 0 182 -77.5t52 -190.5q-17 -121 -119.5 -202t-237.5 -81q-143 0 -217.5 91t-54.5 245q30 200 193.5 351t402.5 189l8 -122q-146 -28 -254.5 -102.5t-161.5 -172.5q87 72 207 72zM573 831q9 64 -34 108t-119 44q-73 0 -135 -38t-72 -107q-9 -70 35 -116
t125 -46q76 0 133.5 44.5t66.5 110.5z" />
    <glyph glyph-name="seven.numr" horiz-adv-x="659" 
d="M178 1413h557l-14 -102l-451 -746h-149l438 723h-399z" />
    <glyph glyph-name="eight.numr" horiz-adv-x="698" 
d="M739 1196q-9 -61 -49 -111t-104 -81q62 -31 92.5 -85.5t21.5 -121.5q-14 -104 -113.5 -175t-234.5 -71q-132 0 -211.5 71t-64.5 175q9 67 55 121.5t117 85.5q-55 31 -81.5 81t-19.5 111q15 99 108.5 165t219.5 66q127 0 202.5 -66t61.5 -165zM600 1182q9 54 -31.5 88.5
t-109.5 34.5q-67 0 -118 -35t-58 -88q-7 -51 34 -86t107 -35q68 0 119 35t57 86zM567 811q7 57 -38.5 95t-120.5 38q-74 0 -130 -38t-65 -95q-8 -57 37.5 -96t120.5 -39t132 39t64 96z" />
    <glyph glyph-name="nine.numr" horiz-adv-x="694" 
d="M473 1427q144 0 219 -90.5t53 -244.5q-19 -132 -98 -248.5t-209.5 -195.5t-287.5 -97l-9 123q146 22 254 96.5t162 175.5q-87 -69 -205 -69q-116 0 -182 77.5t-51 190.5q17 121 118 201.5t236 80.5zM614 1141q11 70 -33 116t-126 46q-75 0 -132.5 -45t-66.5 -111
q-9 -65 34 -108.5t118 -43.5q74 0 136 38.5t70 107.5z" />
    <glyph glyph-name="exclamdown.case" horiz-adv-x="518" 
d="M350 1171q-55 0 -86 36.5t-22 92.5q6 54 47.5 90.5t97.5 36.5q55 0 87 -36.5t24 -90.5q-7 -55 -49.5 -92t-98.5 -37zM92 0l49 348l107 670h164l-84 -670l-49 -348h-187z" />
    <glyph glyph-name="questiondown.case" horiz-adv-x="1042" 
d="M643 1171q-55 0 -87 36.5t-24 92.5q7 54 49.5 90.5t96.5 36.5q55 0 86.5 -36.5t23.5 -90.5q-8 -56 -49 -92.5t-96 -36.5zM467 -25q-182 0 -288.5 108t-84.5 267q8 58 34.5 113t62.5 98t78 84t83.5 78t76.5 72t59.5 73.5t29.5 75.5l8 66h187l-11 -66q-10 -68 -53.5 -133.5
t-99.5 -118t-112 -103t-99 -108.5t-51 -116q-12 -91 48 -150t165 -59q99 0 194.5 51t171.5 141l107 -121q-97 -118 -231.5 -185t-274.5 -67z" />
    <glyph glyph-name="periodcentered.case" horiz-adv-x="522" 
d="M270 575q-57 0 -89.5 38t-24.5 94t51 93.5t100 37.5q55 0 88 -37.5t25 -93.5q-7 -55 -50.5 -93.5t-99.5 -38.5z" />
    <glyph glyph-name="bullet.case" horiz-adv-x="651" 
d="M324 512q-84 0 -132 55.5t-36 139.5q12 85 75 139.5t148 54.5q84 0 132 -55t38 -139q-12 -85 -76 -140t-149 -55z" />
    <glyph glyph-name="asterisk.case" horiz-adv-x="813" 
d="M590 1106l39 -19l143 -88l-70 -96l-145 88l-31 29v-45l-24 -178h-113l25 178l12 45l-39 -29l-170 -88l-45 96l172 91l45 16l-41 16l-145 88l71 99l146 -90l33 -29l-2 45l24 178h113l-25 -178l-12 -45l39 29l170 90l43 -99l-170 -90z" />
    <glyph glyph-name="slash.case" horiz-adv-x="1058" 
d="M-74 -215l1080 1843h178l-1080 -1843h-178z" />
    <glyph glyph-name="backslash.case" horiz-adv-x="1058" 
d="M745 -215l-559 1843h179l559 -1843h-179z" />
    <glyph glyph-name="parenleft.case" horiz-adv-x="696" 
d="M358 -256q-107 173 -149.5 436.5t-5.5 526.5q37 262 153.5 525t272.5 437h178q-152 -173 -266.5 -436.5t-151.5 -525.5q-37 -263 3.5 -526.5t144.5 -436.5h-179z" />
    <glyph glyph-name="parenright.case" horiz-adv-x="696" 
d="M-57 -256q151 174 265.5 437.5t151.5 525.5t-3.5 525t-143.5 437h178q106 -174 149.5 -437.5t6.5 -524.5t-154 -525t-272 -438h-178z" />
    <glyph glyph-name="braceleft.case" horiz-adv-x="837" 
d="M733 1669h189l-23 -166h-125q-56 0 -97.5 -38t-49.5 -95l-72 -508q-7 -52 -42.5 -93t-88.5 -60q47 -20 70.5 -61.5t17.5 -94.5l-72 -510q-9 -57 22 -95t87 -38h125l-23 -166h-188q-107 0 -167 69.5t-46 178.5l74 518q7 51 -19 83t-76 32h-79l24 166h80q49 0 84 31.5
t43 82.5l72 516q15 109 94 178.5t186 69.5z" />
    <glyph glyph-name="braceright.case" horiz-adv-x="837" 
d="M662 791h79l-24 -166h-80q-49 0 -84 -32t-43 -83l-74 -518q-13 -108 -91.5 -178t-186.5 -70h-189l21 166h125q57 0 98 38t49 95l74 510q6 52 41 94t88 62q-46 19 -69.5 60t-16.5 93l72 508q8 57 -24 95t-87 38h-125l25 166h188q107 0 166.5 -69.5t44.5 -178.5l-72 -516
q-7 -51 19 -82.5t76 -31.5z" />
    <glyph glyph-name="bracketleft.case" horiz-adv-x="716" 
d="M776 1503h-260l-223 -1593h260l-23 -166h-442l270 1925h443z" />
    <glyph glyph-name="bracketright.case" horiz-adv-x="716" 
d="M240 1669h442l-270 -1925h-443l21 166h262l223 1593h-260z" />
    <glyph glyph-name="hyphen.case" horiz-adv-x="835" 
d="M145 623l23 170h575l-22 -170h-576z" />
    <glyph glyph-name="endash.case" horiz-adv-x="1245" 
d="M145 629l23 159h985l-23 -159h-985z" />
    <glyph glyph-name="emdash.case" horiz-adv-x="2187" 
d="M145 629l23 159h1927l-22 -159h-1928z" />
    <glyph glyph-name="guillemotleft.case" horiz-adv-x="1275" 
d="M741 1122l-399 -415l285 -416h-209l-283 416l400 415h206zM1245 1122l-399 -415l282 -416h-208l-283 416l399 415h209z" />
    <glyph glyph-name="guillemotright.case" horiz-adv-x="1275" 
d="M416 1122l282 -415l-399 -416h-207l395 416l-280 415h209zM918 1122l282 -415l-397 -416h-209l397 416l-280 415h207z" />
    <glyph glyph-name="guilsinglleft.case" horiz-adv-x="774" 
d="M741 1122l-399 -415l285 -416h-209l-283 416l400 415h206z" />
    <glyph glyph-name="guilsinglright.case" horiz-adv-x="774" 
d="M416 1122l282 -415l-399 -416h-207l395 416l-280 415h209z" />
    <glyph glyph-name="plus.case" horiz-adv-x="1093" 
d="M1001 786l-22 -159h-338l-47 -338h-162l47 338h-334l23 159h336l47 338h162l-47 -338h335z" />
    <glyph glyph-name="at.case" horiz-adv-x="1724" 
d="M1001 1456q157 0 288 -54t217.5 -148t126 -227t18.5 -284q-25 -183 -122 -295t-237 -112q-84 0 -143 35.5t-78 97.5q-108 -137 -283 -137q-156 0 -243 107t-64 266q23 160 139.5 267t264.5 107q161 0 235 -123l15 99h165l-67 -490q-5 -42 17 -69t63 -27q65 0 117 77.5
t69 198.5q22 159 -38 289t-186.5 203.5t-293.5 73.5q-172 0 -322 -78.5t-248.5 -216.5t-121.5 -309q-24 -171 35 -310t187.5 -218t299.5 -79q222 0 391 117l64 -127q-230 -135 -478 -135q-159 0 -292 57.5t-219 157.5t-125 239.5t-17 297.5q30 210 153 381.5t311 269.5
t402 98zM840 492q86 0 153.5 52.5t87.5 135.5l9 51q2 82 -51.5 135.5t-139.5 53.5q-93 0 -163.5 -60.5t-82.5 -152.5q-12 -93 41 -154t146 -61z" />
    <glyph glyph-name="uni030C.alt" horiz-adv-x="0" 
d="M-131 1063l100 412h164l-129 -412h-135z" />
    <glyph glyph-name="caron.alt" horiz-adv-x="206" 
d="M76 1063l100 412h164l-129 -412h-135z" />
    </font>
</defs>
</svg>
