<?xml version="1.0" standalone="no"?>
<!DOCTYPE svg PUBLIC "-//W3C//DTD SVG 1.1//EN" "http://www.w3.org/Graphics/SVG/1.1/DTD/svg11.dtd" >
<svg xmlns="http://www.w3.org/2000/svg" xmlns:xlink="http://www.w3.org/1999/xlink" version="1.1">
<metadata>
Created by FontForge 20201107 at Sun Dec 27 21:40:37 2020
 By 
Copyright (c) 2020 by Adam Ladd. All rights reserved.
</metadata>
<defs>
<font id="Lufga-ExtraLightItalic" horiz-adv-x="1370" >
  <font-face 
    font-family="Lufga ExtraLight"
    font-weight="200"
    font-style="italic"
    font-stretch="normal"
    units-per-em="2048"
    panose-1="0 0 3 0 0 0 0 0 0 0"
    ascent="1597"
    descent="-451"
    x-height="1044"
    cap-height="1413"
    bbox="-1421 -451 2744 1831"
    underline-thickness="55"
    underline-position="-258"
    slope="-8"
    unicode-range="U+0020-FB02"
  />
<missing-glyph horiz-adv-x="1024" 
d="M840 1597v-2048h-650v2048h650zM682 1460h-338v-67h133v-76h-135v-68h340v68h-135v76h135v67zM547 1196h-205v-213h340v70h-135v143zM477 1126v-73h-67v73h67zM682 928h-340v-68h135v-76h-135v-67h205v143h135v68zM682 805h-68v-135h-272v-70h340v205zM682 555h-205v-115
h70v47h67v-96h-204v164h-68v-231h340v231zM682 201h-340v-232h340v232zM614 133v-96h-204v96h204zM682 -78h-340v-67h143l-143 -97v-67h340v67h-209l143 97h66v67z" />
    <glyph glyph-name="fi" unicode="fi" horiz-adv-x="1220" 
d="M397 1241q20 130 96.5 194t200.5 64q93 0 164 -41l-10 -74q-67 39 -150 39q-192 0 -219 -188l-26 -191h344l-11 -75h-344l-137 -969h-82l135 969h-211l11 75h213zM1139 1444q28 0 44 -19t13 -47q-4 -28 -26 -46.5t-50 -18.5q-29 0 -44.5 18.5t-12.5 46.5q3 27 25.5 46.5
t50.5 19.5zM895 0l147 1044h82l-147 -1044h-82z" />
    <glyph glyph-name="fl" unicode="fl" horiz-adv-x="1220" 
d="M397 1241q20 130 96.5 194t200.5 64q93 0 164 -41l-10 -74q-67 39 -150 39q-192 0 -219 -188l-26 -191h344l-11 -75h-344l-137 -969h-82l135 969h-211l11 75h213zM1102 1475h82l-207 -1475h-82z" />
    <glyph glyph-name=".notdef" horiz-adv-x="1024" 
d="M840 1597v-2048h-650v2048h650zM682 1460h-338v-67h133v-76h-135v-68h340v68h-135v76h135v67zM547 1196h-205v-213h340v70h-135v143zM477 1126v-73h-67v73h67zM682 928h-340v-68h135v-76h-135v-67h205v143h135v68zM682 805h-68v-135h-272v-70h340v205zM682 555h-205v-115
h70v47h67v-96h-204v164h-68v-231h340v231zM682 201h-340v-232h340v232zM614 133v-96h-204v96h204zM682 -78h-340v-67h143l-143 -97v-67h340v67h-209l143 97h66v67z" />
    <glyph glyph-name=".null" horiz-adv-x="0" 
 />
    <glyph glyph-name="nonmarkingreturn" horiz-adv-x="682" 
 />
    <glyph glyph-name="space" unicode=" " horiz-adv-x="548" 
 />
    <glyph glyph-name="exclam" unicode="!" horiz-adv-x="477" 
d="M174 340l98 725l50 348h86l-50 -348l-106 -725h-78zM164 -8q-31 0 -49.5 20.5t-14.5 50.5q4 32 29 53t57 21q31 0 49 -21t15 -53q-6 -31 -30 -51t-56 -20z" />
    <glyph glyph-name="quotedbl" unicode="&#x22;" horiz-adv-x="749" 
d="M225 979l58 434h79l-63 -434h-74zM582 979l55 434h82l-66 -434h-71z" />
    <glyph glyph-name="numbersign" unicode="#" horiz-adv-x="1544" 
d="M1495 915h-285l-180 -417h299l-10 -72h-320l-184 -426h-80l185 426h-504l-185 -426h-79l184 426h-262l10 72h283l180 417h-297l8 72h320l184 426h80l-185 -426h504l185 426h79l-184 -426h262zM950 498l180 417h-503l-181 -417h504z" />
    <glyph glyph-name="dollar" unicode="$" horiz-adv-x="1114" 
d="M647 758q56 -13 103 -28.5t110 -48t104 -72.5t66 -104t14 -140q-21 -156 -164 -258.5t-339 -110.5l-21 -139h-67l20 141q-134 7 -247 66t-183 155l59 62q58 -84 158.5 -140t222.5 -63l86 604q-409 95 -370 379q21 151 154 249t319 107l20 139h68l-21 -141
q118 -6 211.5 -54t143.5 -124l-56 -59q-37 61 -120.5 105.5t-188.5 51.5zM291 1065q-10 -65 13.5 -117.5t72 -86.5t97.5 -54.5t108 -34.5l80 565q-147 -8 -251.5 -83.5t-119.5 -188.5zM952 360q8 58 -10.5 107t-50.5 80.5t-81 57t-88.5 39t-86.5 24.5l-84 -592
q159 8 271.5 85t129.5 199z" />
    <glyph glyph-name="percent" unicode="%" horiz-adv-x="1656" 
d="M469 817q-134 0 -211.5 88.5t-58.5 220.5q19 133 120.5 222.5t235.5 89.5q133 0 210 -89t58 -223q-20 -133 -120.5 -221t-233.5 -88zM197 0l1222 1413h92l-1222 -1413h-92zM477 887q102 0 180 68.5t93 170.5q15 103 -44.5 172.5t-160.5 69.5t-179.5 -69.5t-93.5 -172.5
t43.5 -171t161.5 -68zM1153 -25q-133 0 -210 89t-58 223q20 132 121.5 220.5t234.5 88.5q134 0 211 -88.5t57 -220.5q-19 -133 -120.5 -222.5t-235.5 -89.5zM1163 45q102 0 181 70t92 172q15 103 -43.5 171t-159.5 68q-103 0 -181.5 -68t-93.5 -171q-14 -103 45 -172.5
t160 -69.5z" />
    <glyph glyph-name="ampersand" unicode="&#x26;" horiz-adv-x="1310" 
d="M1286 623q-98 -217 -223 -359l211 -264h-113l-157 199q-224 -224 -494 -224q-138 0 -243.5 57t-156 159t-32.5 229q10 66 37.5 124.5t64 102t89 84.5t100 69.5t108.5 59.5q-136 184 -117 316q17 112 113.5 187t224.5 75q127 0 204.5 -75t60.5 -187q-6 -39 -22 -74
t-43.5 -65.5t-57.5 -55.5t-73 -50.5t-79 -44t-86 -42.5l416 -522q114 134 196 325zM446 1176q-17 -108 113 -277q75 35 119 59.5t93 59.5t74.5 73.5t31.5 84.5q11 82 -43 136t-146 54q-91 0 -161.5 -54.5t-80.5 -135.5zM524 53q231 0 434 203l-438 549q-72 -36 -125.5 -70.5
t-104.5 -80.5t-82 -104t-40 -126q-23 -160 80.5 -265.5t275.5 -105.5z" />
    <glyph glyph-name="quotesingle" unicode="'" horiz-adv-x="395" 
d="M225 979l58 434h79l-63 -434h-74z" />
    <glyph glyph-name="parenleft" unicode="(" horiz-adv-x="610" 
d="M334 -389q-106 174 -148 437.5t-4 524.5q37 263 153 526.5t271 436.5h84q-154 -173 -269.5 -437t-152.5 -526q-38 -261 3.5 -524.5t146.5 -437.5h-84z" />
    <glyph glyph-name="parenright" unicode=")" horiz-adv-x="610" 
d="M-66 -389q153 173 268.5 436t153.5 526q37 263 -4 526.5t-145 436.5h84q105 -174 147.5 -438t5.5 -525q-38 -262 -155 -525t-271 -437h-84z" />
    <glyph glyph-name="asterisk" unicode="*" horiz-adv-x="776" 
d="M532 1180l25 -11l178 -110l-37 -51l-178 110l-20 19v-31l-31 -221h-59l30 221l11 33l-29 -21l-209 -110l-20 51l206 110l29 11l-25 12l-178 111l37 51l178 -111l21 -18v28l31 222h59l-31 -222l-8 -28l27 18l206 111l25 -51l-209 -111z" />
    <glyph glyph-name="plus" unicode="+" horiz-adv-x="1093" 
d="M971 643l-13 -76h-368l-51 -368h-76l51 368h-367l11 76h368l52 367h75l-51 -367h369z" />
    <glyph glyph-name="comma" unicode="," horiz-adv-x="448" 
d="M-41 -297l201 440h102l-229 -440h-74z" />
    <glyph glyph-name="hyphen" unicode="-" horiz-adv-x="835" 
d="M141 520l13 80h553l-13 -80h-553z" />
    <glyph glyph-name="period" unicode="." horiz-adv-x="438" 
d="M145 -8q-32 0 -50.5 21t-14.5 53t29 53.5t57 21.5t50 -21.5t13 -53.5t-28.5 -53t-55.5 -21z" />
    <glyph glyph-name="slash" unicode="/" horiz-adv-x="999" 
d="M-70 -307l1080 1843h84l-1080 -1843h-84z" />
    <glyph glyph-name="zero" unicode="0" horiz-adv-x="1337" 
d="M590 -25q-155 0 -263 92.5t-151.5 259.5t-13.5 380q44 323 222 527t413 204q155 0 263 -92t152 -258.5t15 -380.5q-30 -213 -121.5 -380t-226 -259.5t-289.5 -92.5zM604 59q128 0 240 82t189 230t104 336q26 188 -9.5 335.5t-124.5 229.5t-217 82q-195 0 -344.5 -181
t-189.5 -466q-26 -188 10 -336t125 -230t217 -82z" />
    <glyph glyph-name="one" unicode="1" horiz-adv-x="724" 
d="M584 1413h61l-199 -1413h-88l183 1307l-361 -183l-28 70z" />
    <glyph glyph-name="two" unicode="2" horiz-adv-x="1105" 
d="M1038 1059q-14 -101 -73.5 -191.5t-167.5 -191.5l-627 -594h774l-12 -82h-901l10 68l688 653q98 93 152 170.5t65 163.5q20 131 -61 213t-221 82q-119 0 -225 -60.5t-183 -167.5l-57 52q85 122 211.5 193t269.5 71q178 0 279.5 -106.5t78.5 -272.5z" />
    <glyph glyph-name="three" unicode="3" horiz-adv-x="1185" 
d="M1116 1079q-17 -116 -101 -204.5t-208 -124.5q133 -39 203.5 -140t52.5 -235q-25 -173 -180 -286.5t-369 -113.5q-138 0 -257 53t-196 150l64 66q65 -90 169.5 -137.5t227.5 -47.5q177 0 304 92.5t147 233.5q20 138 -76 231t-258 93h-225l10 77h225q144 0 250 81t125 202
q17 122 -72.5 203.5t-246.5 81.5q-115 0 -220 -45.5t-176 -128.5l-47 61q90 94 212 145.5t251 51.5q192 0 301.5 -102t89.5 -257z" />
    <glyph glyph-name="four" unicode="4" horiz-adv-x="1196" 
d="M1124 444l-12 -82h-219l-51 -362h-86l51 362h-729l-15 70l889 981h88l-135 -969h219zM166 444h651l121 848z" />
    <glyph glyph-name="five" unicode="5" horiz-adv-x="1210" 
d="M1128 1331h-686l-135 -573q70 53 170.5 86t200.5 33q207 0 326.5 -128.5t93.5 -320.5q-17 -127 -97.5 -231t-206 -163t-268.5 -59q-140 0 -254 60t-190 170l59 65q64 -99 167.5 -155t228.5 -56q181 0 315 106t156 263t-77.5 262t-271.5 105q-101 0 -201.5 -37.5
t-174.5 -98.5l-72 27l170 727h758z" />
    <glyph glyph-name="six" unicode="6" horiz-adv-x="1134" 
d="M664 872q201 0 317 -126t90 -312q-28 -198 -189.5 -328.5t-383.5 -130.5q-236 0 -356.5 139.5t-84.5 387.5q22 161 106 314.5t211 276.5t294.5 214t351.5 131l6 -82q-308 -77 -528 -264.5t-312 -429.5q75 101 206 155.5t272 54.5zM981 432q22 154 -77 256.5t-273 102.5
q-79 0 -157.5 -20t-150 -59.5t-121.5 -107t-63 -153.5q-25 -171 78 -281.5t297 -110.5q179 0 311.5 106t155.5 267z" />
    <glyph glyph-name="seven" unicode="7" horiz-adv-x="1081" 
d="M233 1413h897l-8 -67l-843 -1346h-101l836 1331h-793z" />
    <glyph glyph-name="eight" unicode="8" horiz-adv-x="1193" 
d="M1135 1069q-15 -115 -103.5 -205.5t-220.5 -132.5q134 -42 204.5 -139t53.5 -223q-15 -110 -92.5 -200.5t-198.5 -142t-260 -51.5q-210 0 -334.5 113t-101.5 281q17 126 114 223t242 139q-119 42 -180.5 132.5t-44.5 205.5q22 157 168.5 263t343.5 106q198 0 315 -106
t95 -263zM631 772q159 0 276.5 83t136.5 208q17 125 -77 208t-254 83q-158 0 -275.5 -83t-136.5 -208q-17 -124 77.5 -207.5t252.5 -83.5zM979 375q19 135 -83.5 224t-274.5 89q-173 0 -300.5 -89t-146.5 -224q-20 -135 83 -225.5t275 -90.5t300 90.5t147 225.5z" />
    <glyph glyph-name="nine" unicode="9" horiz-adv-x="1134" 
d="M688 1438q235 0 356.5 -139.5t88.5 -387.5q-23 -162 -105.5 -317.5t-208 -281t-295 -215.5t-356.5 -122l-8 82q159 32 298 101t243.5 162.5t180 203t119.5 230.5q-74 -102 -205.5 -157.5t-271.5 -55.5q-203 0 -318 126t-89 312q26 197 187.5 328t383.5 131zM1047 963
q25 171 -77 281t-296 110q-179 0 -312 -106t-155 -267q-22 -154 76.5 -256t271.5 -102q80 0 159 20t150.5 59.5t121 107t61.5 153.5z" />
    <glyph glyph-name="colon" unicode=":" horiz-adv-x="458" 
d="M264 776q-31 0 -49.5 21.5t-13.5 52.5q5 32 29.5 54t56.5 22t50 -22t13 -54q-5 -31 -29.5 -52.5t-56.5 -21.5zM156 -8q-32 0 -51 21t-15 53t29 53.5t57 21.5t50.5 -21.5t13.5 -53.5t-28.5 -53t-55.5 -21z" />
    <glyph glyph-name="semicolon" unicode=";" horiz-adv-x="483" 
d="M293 776q-32 0 -51.5 21.5t-14.5 52.5q6 33 30 54.5t56 21.5t51 -22t15 -54q-5 -31 -29.5 -52.5t-56.5 -21.5zM-45 -297l203 440h100l-229 -440h-74z" />
    <glyph glyph-name="less" unicode="&#x3c;" horiz-adv-x="950" 
d="M877 993l-13 -84l-635 -303l549 -303l-12 -84l-619 348l11 78z" />
    <glyph glyph-name="equal" unicode="=" horiz-adv-x="1093" 
d="M170 725l10 74h811l-10 -74h-811zM125 412l12 73h811l-10 -73h-813z" />
    <glyph glyph-name="greater" unicode="&#x3e;" horiz-adv-x="950" 
d="M207 993l620 -348l-12 -78l-717 -348l13 84l632 303l-546 303z" />
    <glyph glyph-name="question" unicode="?" horiz-adv-x="980" 
d="M412 350l12 82q7 51 34 101.5t64 93t80.5 85l87 85t80.5 85t64 93t34 102.5q17 120 -60.5 198.5t-211.5 78.5q-115 0 -224.5 -60t-185.5 -161l-57 51q89 117 217.5 185.5t263.5 68.5q170 0 269.5 -102t76.5 -253q-8 -60 -35.5 -117t-65 -103t-81.5 -90t-88 -85.5
t-81.5 -81t-63.5 -84.5t-33 -90l-10 -82h-86zM406 -8q-32 0 -50.5 20t-13.5 51q3 32 27 53t57 21q32 0 49 -20.5t14 -53.5q-4 -31 -28 -51t-55 -20z" />
    <glyph glyph-name="at" unicode="@" horiz-adv-x="1742" 
d="M981 1292q155 0 284 -54.5t214 -148.5t123.5 -226.5t17.5 -282.5q-25 -178 -111 -289t-206 -111q-86 0 -135.5 49t-43.5 127q-56 -86 -144.5 -135t-191.5 -49q-161 0 -251.5 109t-67.5 272t143.5 271t278.5 108q105 0 181.5 -50.5t107.5 -140.5l24 166h82l-76 -536
q-8 -53 20.5 -87t82.5 -34q81 0 144 93t83 237q19 134 -15 252t-109.5 202.5t-191 133.5t-253.5 49q-187 0 -351 -86.5t-271.5 -238.5t-133.5 -339q-25 -187 40 -339t204 -238.5t325 -86.5q128 0 246 41t211 115l39 -63q-234 -168 -506 -168q-156 0 -286 57t-214.5 155
t-122 235t-16.5 292q22 155 98 292t188.5 235t258 155t301.5 57zM811 252q129 0 226 86t116 215q19 128 -55 213.5t-203 85.5t-226 -85t-114 -214q-19 -129 54.5 -215t201.5 -86z" />
    <glyph glyph-name="A" unicode="A" horiz-adv-x="1449" 
d="M1214 0l-118 416h-774l-236 -416h-96l807 1413h106l410 -1413h-99zM369 496h702l-235 823z" />
    <glyph glyph-name="B" unicode="B" horiz-adv-x="1253" 
d="M1174 1065q-17 -109 -88.5 -195.5t-165.5 -121.5q125 -28 190.5 -129.5t46.5 -239.5q-25 -162 -149 -270.5t-287 -108.5h-604l198 1413h555q150 0 237 -99t67 -249zM766 774q112 0 204 81t111 200q15 120 -52 199t-185 79h-453l-80 -559h455zM1067 391
q20 130 -55.5 218.5t-206.5 88.5h-504l-88 -618h504q131 0 231 89t119 222z" />
    <glyph glyph-name="C" unicode="C" horiz-adv-x="1552" 
d="M764 -25q-154 0 -282.5 56.5t-211.5 153.5t-120 232.5t-15 289.5q28 205 147 372.5t301 263t388 95.5q192 0 340.5 -85.5t226.5 -232.5l-82 -47q-67 130 -197.5 205.5t-297.5 75.5q-136 0 -262.5 -49.5t-224 -135t-164 -206t-85.5 -256.5q-26 -182 37 -330.5t199 -233
t317 -84.5q168 0 319.5 75.5t254.5 205.5l69 -47q-119 -147 -292 -232.5t-365 -85.5z" />
    <glyph glyph-name="D" unicode="D" horiz-adv-x="1544" 
d="M852 1413q200 0 349.5 -92t218.5 -253.5t42 -360.5q-28 -199 -143 -361t-290.5 -254t-375.5 -92h-536l198 1413h537zM1372 707q24 176 -36.5 319t-191 224t-304.5 81h-449l-174 -1249h447q174 0 327.5 81.5t254.5 224.5t126 319z" />
    <glyph glyph-name="E" unicode="E" horiz-adv-x="1216" 
d="M1206 1331h-815l-80 -579h744l-11 -82h-745l-82 -588h823l-12 -82h-911l198 1413h902z" />
    <glyph glyph-name="F" unicode="F" horiz-adv-x="1148" 
d="M1176 1331h-785l-82 -590h692l-10 -82h-694l-92 -659h-88l198 1413h871z" />
    <glyph glyph-name="G" unicode="G" horiz-adv-x="1650" 
d="M938 709h641l-2 -29q-28 -199 -143.5 -360.5t-292 -253t-377.5 -91.5q-154 0 -282.5 56.5t-211.5 153.5t-120 232.5t-15 289.5q28 205 147 372.5t301 263t388 95.5q190 0 337.5 -83t225.5 -227l-74 -51q-69 129 -199 203t-300 74q-136 0 -262.5 -49.5t-224 -135
t-164 -206t-85.5 -256.5q-26 -182 37 -330.5t199 -233t317 -84.5q257 0 456 162t245 410h-551z" />
    <glyph glyph-name="H" unicode="H" horiz-adv-x="1513" 
d="M1360 1413h88l-199 -1413h-88l94 670h-956l-94 -670h-88l198 1413h88l-92 -661h957z" />
    <glyph glyph-name="I" unicode="I" horiz-adv-x="468" 
d="M117 0l198 1413h88l-198 -1413h-88z" />
    <glyph glyph-name="J" unicode="J" horiz-adv-x="868" 
d="M240 -25q-126 0 -244 66l14 90q109 -72 236 -72q144 0 242.5 88t119.5 228l146 1038h86l-146 -1042q-25 -174 -151 -285t-303 -111z" />
    <glyph glyph-name="K" unicode="K" horiz-adv-x="1275" 
d="M1389 1413l-816 -690l635 -723h-118l-588 664l-232 -197l-65 -467h-88l198 1413h88l-116 -829l985 829h117z" />
    <glyph glyph-name="L" unicode="L" horiz-adv-x="1116" 
d="M217 82h762l-12 -82h-850l198 1413h88z" />
    <glyph glyph-name="M" unicode="M" horiz-adv-x="1748" 
d="M1571 1413h112l-198 -1413h-88l182 1290l-707 -948h-49l-436 950l-182 -1292h-88l198 1413h117l436 -942z" />
    <glyph glyph-name="N" unicode="N" horiz-adv-x="1527" 
d="M1374 1413h88l-198 -1413h-99l-780 1278l-180 -1278h-88l198 1413h99l780 -1278z" />
    <glyph glyph-name="O" unicode="O" horiz-adv-x="1685" 
d="M764 -25q-154 0 -282.5 56.5t-211.5 153.5t-120 232.5t-15 289.5q28 205 147 372.5t301 263t388 95.5t361 -95.5t227.5 -263t44.5 -372.5q-22 -154 -98 -289.5t-187 -232.5t-256 -153.5t-299 -56.5zM778 59q181 0 340 84.5t264 233t131 330.5q19 136 -13.5 256.5
t-106 206t-185.5 135t-247 49.5q-136 0 -262.5 -49.5t-224 -135t-164 -206t-85.5 -256.5q-26 -182 37 -330.5t199 -233t317 -84.5z" />
    <glyph glyph-name="P" unicode="P" horiz-adv-x="1241" 
d="M860 1413q180 0 283 -118.5t80 -297.5q-26 -177 -164 -296t-316 -119h-456l-82 -582h-88l198 1413h545zM1130 997q20 144 -60.5 239t-221.5 95h-457l-92 -667h455q141 0 248.5 95t127.5 238z" />
    <glyph glyph-name="Q" unicode="Q" horiz-adv-x="1685" 
d="M971 1438q206 0 361 -95.5t227.5 -263t44.5 -372.5q-26 -184 -127 -339t-254 -255l123 -222l-78 -49l-127 224q-184 -91 -377 -91q-154 0 -282.5 56.5t-211.5 153.5t-120 232.5t-15 289.5q28 205 147 372.5t301 263t388 95.5zM1513 707q19 136 -13.5 256.5t-106 206
t-185.5 135t-247 49.5q-136 0 -262.5 -49.5t-224 -135t-164 -206t-85.5 -256.5q-26 -182 37 -330.5t199 -233t317 -84.5q172 0 324 76l-125 223l80 50l125 -226q132 89 219.5 226t111.5 299z" />
    <glyph glyph-name="R" unicode="R" horiz-adv-x="1243" 
d="M1202 1016q-23 -169 -153.5 -282t-300.5 -113h-105l440 -621h-108l-436 621h-246l-88 -621h-88l198 1413h543q170 0 269.5 -114t74.5 -283zM391 1331l-88 -633h453q134 0 235.5 91t120.5 227q20 135 -57 225t-211 90h-453z" />
    <glyph glyph-name="S" unicode="S" horiz-adv-x="1191" 
d="M537 -25q-154 0 -284 60t-204 164l57 63q66 -92 182.5 -149.5t260.5 -57.5q175 0 303 84.5t147 216.5q5 38 -1.5 72t-19 59.5t-38 49.5t-47 40t-58 32.5t-58.5 25t-61 19t-53.5 14t-46.5 10.5q-66 14 -123 32t-116.5 50.5t-99 73t-60 100.5t-10.5 131q23 166 171.5 269.5
t352.5 103.5q138 0 246.5 -48.5t167.5 -132.5l-55 -63q-45 70 -144.5 117t-224.5 47q-165 0 -285 -81t-139 -208q-8 -59 13 -108.5t56.5 -81t90 -56.5t99.5 -38t97 -23q37 -7 72 -16t84 -26t90 -38t82 -53t67.5 -69.5t39 -89t4.5 -110.5q-16 -111 -95 -199.5t-199.5 -137
t-260.5 -48.5z" />
    <glyph glyph-name="T" unicode="T" horiz-adv-x="1216" 
d="M1274 1413l-12 -82h-498l-186 -1331h-86l186 1331h-498l13 82h1081z" />
    <glyph glyph-name="U" unicode="U" horiz-adv-x="1433" 
d="M639 -25q-159 0 -277.5 73.5t-173 202.5t-32.5 286l123 876h86l-121 -876q-19 -133 27.5 -242.5t147 -172.5t234.5 -63q203 0 358.5 137.5t184.5 340.5l123 876h86l-123 -876q-22 -157 -113.5 -286t-231 -202.5t-298.5 -73.5z" />
    <glyph glyph-name="V" unicode="V" horiz-adv-x="1437" 
d="M1403 1413h96l-805 -1413h-98l-406 1413h99l375 -1304z" />
    <glyph glyph-name="W" unicode="W" horiz-adv-x="2111" 
d="M2071 1413h90l-662 -1413h-92l-242 1292l-608 -1292h-92l-264 1413h94l233 -1304l613 1304h84l245 -1304z" />
    <glyph glyph-name="X" unicode="X" horiz-adv-x="1449" 
d="M1489 1413l-676 -704l485 -709h-108l-447 653l-630 -653h-109l684 709l-477 704h108l441 -649l620 649h109z" />
    <glyph glyph-name="Y" unicode="Y" horiz-adv-x="1378" 
d="M1366 1413h98l-727 -862l-78 -551h-88l78 551l-485 862h102l441 -776z" />
    <glyph glyph-name="Z" unicode="Z" horiz-adv-x="1257" 
d="M1272 1413l-8 -63l-1114 -1268h950l-13 -82h-1064l10 63l1112 1268h-928l12 82h1043z" />
    <glyph glyph-name="bracketleft" unicode="[" horiz-adv-x="641" 
d="M700 1458h-288l-252 -1769h291l-13 -78h-372l272 1925h373z" />
    <glyph glyph-name="backslash" unicode="\" horiz-adv-x="999" 
d="M750 -307l-560 1843h84l560 -1843h-84z" />
    <glyph glyph-name="bracketright" unicode="]" horiz-adv-x="641" 
d="M217 1536h375l-273 -1925h-374l12 78h289l250 1769h-289z" />
    <glyph glyph-name="asciicircum" unicode="^" horiz-adv-x="811" 
d="M754 942h-80l-154 404l-264 -404h-80l313 471h80z" />
    <glyph glyph-name="underscore" unicode="_" horiz-adv-x="1107" 
d="M2 -274l10 71h881l-10 -71h-881z" />
    <glyph glyph-name="grave" unicode="`" horiz-adv-x="331" 
d="M336 1204l-207 238h113l186 -238h-92z" />
    <glyph glyph-name="a" unicode="a" 
d="M1192 1044h82l-148 -1044h-82l39 283q-81 -140 -220.5 -224t-301.5 -84q-151 0 -264 71.5t-164.5 196.5t-30.5 279q21 153 109 278.5t221.5 197t284.5 71.5q163 0 277.5 -83t156.5 -224zM586 55q199 0 351 132.5t181 332.5v2q28 200 -86 333.5t-313 133.5t-351 -133.5
t-180 -333.5q-18 -131 27.5 -238t143 -168t227.5 -61z" />
    <glyph glyph-name="b" unicode="b" 
d="M809 1069q151 0 264 -71.5t164.5 -196.5t30.5 -279q-21 -153 -109 -278.5t-221.5 -197t-284.5 -71.5q-160 0 -275.5 83t-158.5 223l-39 -281h-82l207 1475h82l-100 -711q85 140 223.5 222.5t298.5 82.5zM1184 522q28 200 -86.5 333.5t-313.5 133.5t-350.5 -133.5
t-179.5 -333.5t85.5 -333.5t311.5 -133.5q200 0 352.5 134t180.5 333z" />
    <glyph glyph-name="c" unicode="c" horiz-adv-x="1218" 
d="M573 -25q-154 0 -269.5 71.5t-169 197t-32.5 278.5t110.5 278.5t226 197t290.5 71.5t267.5 -70.5t168.5 -193.5l-78 -41q-45 103 -142.5 164t-225.5 61q-200 0 -352.5 -134t-180.5 -333q-28 -200 86.5 -333.5t313.5 -133.5q129 0 244 61t192 165l65 -41
q-90 -122 -225 -193.5t-289 -71.5z" />
    <glyph glyph-name="d" unicode="d" 
d="M1251 1475h82l-207 -1475h-82l39 281q-83 -140 -221.5 -223t-300.5 -83q-151 0 -264 71.5t-164.5 196.5t-30.5 279q21 153 109 278.5t221.5 197t284.5 71.5q162 0 277 -83.5t157 -223.5zM586 55q193 0 343 126.5t185 318.5l6 43q19 192 -94.5 319t-306.5 127
q-199 0 -351 -133.5t-180 -333.5q-18 -131 27.5 -238t143 -168t227.5 -61z" />
    <glyph glyph-name="e" unicode="e" horiz-adv-x="1280" 
d="M721 1069q152 0 266 -71.5t167 -197t32 -278.5q-1 -7 -4 -19l-4 -16h-996q-12 -190 104.5 -312t313.5 -122q133 0 253 58.5t196 158.5l53 -47q-94 -116 -228.5 -182t-287.5 -66q-159 0 -277 71.5t-173 197t-34 280.5q21 152 109.5 277t223 196.5t286.5 71.5zM711 991
q-187 0 -333.5 -122t-184.5 -308h911q14 187 -97 308.5t-296 121.5z" />
    <glyph glyph-name="f" unicode="f" horiz-adv-x="776" 
d="M698 1423q-192 0 -219 -188l-26 -191h344l-11 -75h-344l-137 -969h-82l135 969h-211l11 75h213l26 197q20 130 96.5 194t200.5 64q93 0 164 -41l-10 -74q-67 39 -150 39z" />
    <glyph glyph-name="g" unicode="g" horiz-adv-x="1146" 
d="M1143 1159h74l-11 -78h-69q-68 0 -114.5 -39.5t-55.5 -105.5l-2 -12q97 -124 73 -303q-26 -190 -176.5 -318.5t-347.5 -128.5q-148 0 -252 74q-44 -20 -75 -62t-37 -88q-9 -71 35.5 -113t129.5 -42h428q140 0 218.5 -67.5t68.5 -182.5l-86 -17q10 85 -51 136t-172 51
h-428q-116 0 -179 60t-51 157q9 65 50.5 122.5t99.5 86.5q-61 61 -87 147t-13 185q28 192 178 320t348 128q158 0 270 -88q19 80 83 129t151 49zM954 621q22 158 -71 264t-254 106q-163 0 -285.5 -106t-144.5 -264q-22 -157 70.5 -263t254.5 -106q161 0 284 106t146 263z
" />
    <glyph glyph-name="h" unicode="h" horiz-adv-x="1282" 
d="M754 1069q201 0 305.5 -121.5t75.5 -322.5l-86 -625h-82l84 604q25 174 -65.5 279.5t-264.5 105.5q-178 0 -302 -103t-153 -272l-86 -614h-82l207 1475h82l-92 -656q72 119 191.5 184.5t267.5 65.5z" />
    <glyph glyph-name="i" unicode="i" horiz-adv-x="423" 
d="M324 1313q-29 0 -45 18.5t-13 46.5q3 27 25.5 46.5t50.5 19.5t44 -19t13 -47q-5 -28 -26 -46.5t-49 -18.5zM98 0l148 1044h82l-148 -1044h-82z" />
    <glyph glyph-name="j" unicode="j" horiz-adv-x="438" 
d="M336 1313q-28 0 -43.5 18.5t-11.5 46.5q3 28 25 47t50 19q27 0 43 -19t13 -47q-3 -27 -25.5 -46t-50.5 -19zM-98 -414q-68 0 -117 27l10 76q42 -27 103 -27q165 0 190 176l170 1206h82l-170 -1216q-18 -120 -88.5 -181t-179.5 -61z" />
    <glyph glyph-name="k" unicode="k" horiz-adv-x="1024" 
d="M1055 1044l-559 -501l426 -543h-111l-383 483l-207 -184l-41 -299h-82l207 1475h82l-149 -1069l708 638h109z" />
    <glyph glyph-name="l" unicode="l" horiz-adv-x="423" 
d="M98 0l207 1475h82l-207 -1475h-82z" />
    <glyph glyph-name="m" unicode="m" horiz-adv-x="1968" 
d="M1485 1069q182 0 276 -109t68 -290l-94 -670h-82l92 649q22 154 -57.5 247t-233.5 93q-155 0 -264 -87t-137 -232l-95 -670h-81l92 649q20 154 -59.5 247t-233.5 93q-152 0 -261.5 -86t-138.5 -227l-96 -676h-82l148 1044h82l-27 -188q66 102 172 157.5t236 55.5
q137 0 227 -66t115 -182q65 117 178.5 182.5t255.5 65.5z" />
    <glyph glyph-name="n" unicode="n" horiz-adv-x="1282" 
d="M754 1069q201 0 305.5 -121.5t75.5 -322.5l-86 -625h-82l84 604q25 174 -65.5 279.5t-264.5 105.5q-173 0 -297 -98.5t-156 -261.5l-88 -629h-82l148 1044h82l-31 -221q71 117 189.5 181.5t267.5 64.5z" />
    <glyph glyph-name="o" unicode="o" horiz-adv-x="1302" 
d="M573 -25q-154 0 -269.5 71.5t-169 197t-32.5 278.5t110.5 278.5t226 197t290.5 71.5t270 -71.5t170 -197t33 -278.5t-111 -278.5t-227 -197t-291 -71.5zM586 55q199 0 350.5 133.5t179.5 333.5t-85.5 333.5t-311.5 133.5q-200 0 -352.5 -134t-180.5 -333
q-28 -200 86.5 -333.5t313.5 -133.5z" />
    <glyph glyph-name="p" unicode="p" 
d="M809 1069q151 0 264 -71.5t164.5 -196.5t30.5 -279q-21 -153 -109 -278.5t-221.5 -197t-284.5 -71.5q-160 0 -275.5 83t-158.5 223l-94 -670h-82l203 1433h82l-39 -278q83 139 221.5 221t298.5 82zM1184 522q28 200 -86.5 333.5t-313.5 133.5t-350.5 -133.5
t-179.5 -333.5t85.5 -333.5t311.5 -133.5q200 0 352.5 134t180.5 333z" />
    <glyph glyph-name="q" unicode="q" 
d="M1192 1044h82l-203 -1433h-82l94 670q-84 -139 -222.5 -222.5t-299.5 -83.5q-151 0 -264 71.5t-164.5 196.5t-30.5 279q21 153 109 278.5t221.5 197t284.5 71.5q162 0 277 -83.5t157 -223.5zM586 55q196 0 347 129.5t183 323.5l4 24q23 197 -91 327t-310 130
q-199 0 -351 -133.5t-180 -333.5q-18 -131 27.5 -238t143 -168t227.5 -61z" />
    <glyph glyph-name="r" unicode="r" horiz-adv-x="745" 
d="M743 1061h29l-12 -86h-29q-189 0 -318 -115.5t-155 -310.5l-78 -549h-82l148 1044h82l-35 -245q73 124 190 193t260 69z" />
    <glyph glyph-name="s" unicode="s" horiz-adv-x="987" 
d="M418 -25q-125 0 -223.5 45t-157.5 123l57 60q50 -72 136.5 -112t197.5 -40q135 0 233 59.5t111 155.5q4 30 -2 55.5t-16.5 44t-35 35.5t-44 28t-56 23.5t-60 19t-66.5 17.5q-47 12 -74.5 20t-69.5 23.5t-66.5 29.5t-53 37t-42.5 48.5t-21 60.5t-1 76q13 89 74 155
t148.5 98t188.5 32q217 0 340 -147l-57 -62q-43 62 -119 97.5t-172 35.5q-124 0 -214 -55.5t-103 -144.5q-4 -31 2 -57t17.5 -45t35.5 -36.5t44.5 -28.5t57.5 -23.5t61 -19.5t67 -18q66 -17 104 -28t90.5 -35.5t78.5 -52t42 -73t8 -102.5q-20 -136 -144 -217.5t-296 -81.5z
" />
    <glyph glyph-name="t" unicode="t" horiz-adv-x="815" 
d="M446 969l-102 -725q-13 -100 30.5 -144.5t137.5 -44.5q84 0 160 39l-10 -78q-84 -41 -175 -41q-126 0 -184.5 63.5t-40.5 192.5l103 738h-213l12 75h213l41 297h82l-43 -297h348l-10 -75h-349z" />
    <glyph glyph-name="u" unicode="u" horiz-adv-x="1230" 
d="M537 -25q-205 0 -313.5 120t-80.5 317l90 632h82l-88 -622q-23 -166 65 -266.5t257 -100.5t286 100.5t140 266.5l88 622h82l-90 -632q-28 -198 -170 -317.5t-348 -119.5z" />
    <glyph glyph-name="v" unicode="v" horiz-adv-x="1161" 
d="M1094 1044h92l-633 -1044h-92l-338 1044h96l303 -950z" />
    <glyph glyph-name="w" unicode="w" horiz-adv-x="1800" 
d="M1729 1044h90l-545 -1044h-90l-223 952l-492 -952h-90l-250 1044h92l217 -954l494 954h88l223 -950z" />
    <glyph glyph-name="x" unicode="x" horiz-adv-x="1165" 
d="M1141 1044l-500 -520l358 -524h-102l-322 473l-454 -473h-103l506 524l-352 520h102l318 -469l446 469h103z" />
    <glyph glyph-name="y" unicode="y" horiz-adv-x="1161" 
d="M1094 1044h92l-797 -1304q-45 -75 -107 -114.5t-128 -39.5q-55 0 -108 26t-85 69l49 61q24 -34 62.5 -55t81.5 -21q95 0 165 107l142 225l-338 1046h96l303 -952z" />
    <glyph glyph-name="z" unicode="z" horiz-adv-x="1028" 
d="M983 1044l-8 -59l-821 -907h708l-12 -78h-819l10 59l819 908h-686l12 77h797z" />
    <glyph glyph-name="braceleft" unicode="{" horiz-adv-x="782" 
d="M694 1536h158l-12 -78h-133q-63 0 -111 -42.5t-57 -106.5l-84 -596q-6 -44 -38 -83.5t-73 -54.5q38 -17 58 -56t14 -83l-84 -598q-9 -64 26.5 -106.5t98.5 -42.5h133l-10 -78h-158q-89 0 -139 59t-37 150l84 602q6 50 -19.5 82.5t-74.5 32.5h-80l10 75h80q48 0 84.5 33
t42.5 82l84 600q13 91 80.5 150t156.5 59z" />
    <glyph glyph-name="bar" unicode="|" horiz-adv-x="540" 
d="M102 -389l273 1925h78l-273 -1925h-78z" />
    <glyph glyph-name="braceright" unicode="}" horiz-adv-x="782" 
d="M561 612h80l-10 -75h-80q-48 0 -84.5 -33t-42.5 -82l-84 -602q-13 -91 -81 -150t-157 -59h-157l12 78h133q63 0 111 42.5t57 106.5l84 598q6 44 38 83t75 56q-39 15 -59.5 54t-14.5 84l84 596q9 64 -26.5 106.5t-98.5 42.5h-133l10 78h158q89 0 139 -59t37 -150l-84 -600
q-6 -50 20.5 -82.5t73.5 -32.5z" />
    <glyph glyph-name="asciitilde" unicode="~" horiz-adv-x="1077" 
d="M713 485q-45 0 -83 18t-64.5 43.5t-51.5 51t-57 43.5t-68 18q-66 0 -115.5 -43t-58.5 -110h-76q14 101 83 167t169 66q45 0 83 -18t64 -43.5t50.5 -51t56.5 -43.5t68 -18q64 0 113.5 44t60.5 110h76q-14 -100 -83 -167t-167 -67z" />
    <glyph glyph-name="uni00A0" unicode="&#xa0;" horiz-adv-x="548" 
 />
    <glyph glyph-name="exclamdown" unicode="&#xa1;" horiz-adv-x="477" 
d="M293 907q-32 0 -50 21t-14 53q5 31 28.5 51.5t55.5 20.5t50.5 -20.5t13.5 -51.5q-3 -32 -28 -53t-56 -21zM72 -369l49 349l106 725h78l-98 -725l-49 -349h-86z" />
    <glyph glyph-name="cent" unicode="&#xa2;" horiz-adv-x="1275" 
d="M1137 952q-43 95 -129.5 154t-200.5 68l-131 -932q117 7 219.5 66.5t171.5 154.5l70 -39q-83 -114 -206.5 -183.5t-266.5 -78.5l-23 -162h-66l23 160q-225 11 -351.5 165.5t-94.5 381.5q31 227 202 382t398 166l22 158h66l-23 -160q139 -9 243.5 -78.5t156.5 -183.5z
M238 707q-17 -126 24 -230t132 -167t214 -70l133 936q-192 -11 -334.5 -143.5t-168.5 -325.5z" />
    <glyph glyph-name="sterling" unicode="&#xa3;" horiz-adv-x="1173" 
d="M821 1438q114 0 207 -49.5t150 -135.5l-58 -61q-116 162 -309 162q-149 0 -263 -98t-136 -244l-45 -318h483l-10 -78h-484l-73 -534h743l-12 -82h-985l10 82h156l73 534h-153l12 78h152l45 318q17 119 88 217t179 153.5t230 55.5z" />
    <glyph glyph-name="currency" unicode="&#xa4;" horiz-adv-x="1073" 
d="M1036 1075l-149 -131q67 -98 49 -237q-21 -137 -117 -236l115 -133l-60 -53l-114 135q-110 -80 -248 -80q-136 0 -225 80l-152 -135l-49 53l154 135q-68 101 -47 234q18 139 114 235l-114 135l59 51l115 -133q113 80 249 80q138 0 224 -80l153 135zM862 707
q17 129 -55.5 214t-200.5 85q-126 0 -223.5 -86t-116.5 -213q-17 -128 56 -213.5t200 -85.5q126 0 223.5 86t116.5 213z" />
    <glyph glyph-name="yen" unicode="&#xa5;" horiz-adv-x="1296" 
d="M1348 1413l-611 -807h285l-10 -69h-318l-24 -168h319l-10 -72h-320l-41 -297h-86l41 297h-319l10 72h320l22 168h-317l8 69h285l-383 807h102l365 -776l585 776h97z" />
    <glyph glyph-name="brokenbar" unicode="&#xa6;" horiz-adv-x="540" 
d="M256 696l119 840h78l-119 -840h-78zM102 -389l119 840h78l-119 -840h-78z" />
    <glyph glyph-name="section" unicode="&#xa7;" horiz-adv-x="1079" 
d="M688 1438q102 0 183.5 -35t132.5 -96l-46 -50q-41 53 -114 83t-160 30q-128 0 -221 -61t-107 -152q-10 -86 56 -144.5t202 -84.5q169 -33 249 -104t65 -185q-13 -99 -89 -173t-186 -106q221 -81 197 -260q-19 -131 -141 -215t-287 -84q-211 0 -330 129l47 58
q43 -55 118.5 -87t166.5 -32q133 0 230.5 65.5t111.5 163.5q12 87 -56 143t-216 89q-159 35 -235.5 107.5t-61.5 185.5q13 96 85 169t177 103q-104 40 -150.5 105.5t-34.5 152.5q17 124 135 204.5t279 80.5zM844 633q11 85 -53.5 141t-208.5 84q-116 -3 -202 -68t-99 -161
q-11 -85 51 -143t196 -87q121 1 211.5 68.5t104.5 165.5z" />
    <glyph glyph-name="dieresis" unicode="&#xa8;" horiz-adv-x="534" 
d="M166 1229q-28 0 -44.5 18.5t-12.5 46.5q3 28 25 47t50 19q27 0 43 -19t13 -47q-5 -28 -25.5 -46.5t-48.5 -18.5zM569 1229q-28 0 -44 18.5t-13 46.5q5 28 26.5 47t49.5 19t44 -19t13 -47q-4 -28 -26 -46.5t-50 -18.5z" />
    <glyph glyph-name="copyright" unicode="&#xa9;" horiz-adv-x="1726" 
d="M786 -25q-154 0 -281.5 56.5t-210 153.5t-119.5 232.5t-15 289.5q28 205 147 372.5t300 263t386 95.5t359 -95.5t226 -263t44 -372.5q-29 -205 -148.5 -373t-301 -263.5t-386.5 -95.5zM797 39q186 0 350 87t272 240t135 341q20 141 -14 265t-110 212t-192 139t-255 51
q-186 0 -350.5 -86.5t-273 -239.5t-134.5 -341q-20 -141 14 -265t109.5 -212.5t192 -139.5t256.5 -51zM840 274q-183 0 -290 125t-79 308q25 183 166 307.5t324 124.5q121 0 212.5 -54t133.5 -145l-68 -33q-36 75 -111.5 118.5t-175.5 43.5q-155 0 -272 -104t-139 -258
q-23 -154 66 -258.5t243 -104.5q100 0 188 43.5t146 118.5l57 -33q-67 -91 -173.5 -145t-227.5 -54z" />
    <glyph glyph-name="ordfeminine" unicode="&#xaa;" horiz-adv-x="849" 
d="M772 1413h68l-78 -553h-68l17 123q-45 -64 -114.5 -102.5t-147.5 -38.5q-122 0 -192.5 84.5t-53.5 210.5q19 126 112.5 210.5t214.5 84.5q78 0 137.5 -39t86.5 -105zM469 903q98 0 174.5 67t89.5 167v6q13 98 -44 162.5t-154 64.5q-98 0 -174 -66.5t-91 -166.5
q-13 -100 44 -167t155 -67z" />
    <glyph glyph-name="guillemotleft" unicode="&#xab;" horiz-adv-x="1167" 
d="M641 952l-426 -411l309 -412h-100l-311 412l428 411h100zM1096 952l-426 -411l311 -412h-100l-314 412l428 411h101z" />
    <glyph glyph-name="logicalnot" unicode="&#xac;" horiz-adv-x="1093" 
d="M158 643h813l-64 -444h-78l54 368h-736z" />
    <glyph glyph-name="uni00AD" unicode="&#xad;" horiz-adv-x="835" 
d="M141 520l13 80h553l-13 -80h-553z" />
    <glyph glyph-name="registered" unicode="&#xae;" horiz-adv-x="964" 
d="M610 1438q157 0 247.5 -105t68.5 -262q-22 -156 -141.5 -260t-276.5 -104t-247 103.5t-68 260.5q23 157 142 262t275 105zM879 1071q20 138 -59 231t-216 93q-135 0 -239.5 -93t-124.5 -231q-19 -137 59.5 -229t214.5 -92t240.5 92t124.5 229zM637 1288q50 0 78.5 -34
t21.5 -83q-6 -49 -43.5 -82.5t-87.5 -33.5h-12l115 -170h-52l-112 170h-68l-22 -170h-41l55 403h168zM696 1171q4 34 -14.5 56t-50.5 22h-127l-21 -155h125q33 0 58.5 22t29.5 55z" />
    <glyph glyph-name="macron" unicode="&#xaf;" horiz-adv-x="430" 
d="M102 1243l11 74h428l-11 -74h-428z" />
    <glyph glyph-name="degree" unicode="&#xb0;" horiz-adv-x="794" 
d="M451 899q-117 0 -184 76.5t-50 193.5q15 115 103.5 192t205.5 77q116 0 182.5 -77t49.5 -192q-17 -117 -104 -193.5t-203 -76.5zM459 969q87 0 152 57t75 143q12 86 -36.5 142.5t-133.5 56.5t-150 -56.5t-77 -142.5q-11 -86 37 -143t133 -57z" />
    <glyph glyph-name="plusminus" unicode="&#xb1;" horiz-adv-x="1093" 
d="M618 758h369l-12 -74h-367l-39 -274h-77l38 274h-366l10 74h367l39 272h75zM92 170l10 76h811l-10 -76h-811z" />
    <glyph glyph-name="uni00B2" unicode="&#xb2;" horiz-adv-x="651" 
d="M694 1380q-7 -61 -42.5 -115t-100.5 -114l-358 -338h448l-10 -63h-543l8 53l404 381q56 54 88 99.5t39 94.5q10 74 -37 120t-127 46q-139 0 -236 -131l-43 41q51 73 129 115.5t162 42.5q110 0 172 -65t47 -167z" />
    <glyph glyph-name="uni00B3" unicode="&#xb3;" horiz-adv-x="665" 
d="M727 1395q-9 -66 -56.5 -119t-119.5 -78q75 -23 114 -83.5t29 -139.5q-14 -103 -107 -171.5t-222 -68.5q-86 0 -158 32t-119 91l47 49q78 -106 234 -106q101 0 174.5 52t85.5 130q10 79 -46 131.5t-149 52.5h-133l8 60h133q83 0 144.5 45.5t70.5 113.5q9 69 -43 114.5
t-141 45.5q-65 0 -126 -25.5t-103 -72.5l-33 47q114 117 278 117q117 0 184.5 -61.5t53.5 -155.5z" />
    <glyph glyph-name="acute" unicode="&#xb4;" horiz-adv-x="331" 
d="M96 1204l252 238h113l-273 -238h-92z" />
    <glyph glyph-name="paragraph" unicode="&#xb6;" horiz-adv-x="1150" 
d="M1104 1413l-254 -1802h-74l244 1728h-201l-244 -1728h-73l139 991h-147q-173 0 -273.5 116.5t-75.5 289.5q23 173 156 289t305 116h498z" />
    <glyph glyph-name="periodcentered" unicode="&#xb7;" horiz-adv-x="432" 
d="M211 485q-32 0 -50.5 22t-13.5 54q3 32 28 54t58 22q32 0 49.5 -21.5t14.5 -54.5q-5 -32 -29.5 -54t-56.5 -22z" />
    <glyph glyph-name="cedilla" unicode="&#xb8;" horiz-adv-x="346" 
d="M94 -78q71 0 112.5 -50t29.5 -122q-9 -73 -68.5 -123.5t-134.5 -50.5q-55 0 -94.5 26.5t-57.5 71.5l45 35q12 -37 42 -58.5t71 -21.5q53 0 92.5 34.5t46.5 86.5q8 51 -21.5 86t-80.5 35q-47 0 -84 -33l-47 23l121 139v4h63v-4l-76 -84q18 6 41 6z" />
    <glyph glyph-name="uni00B9" unicode="&#xb9;" horiz-adv-x="438" 
d="M424 1597h47l-119 -847h-67l108 766l-207 -105l-24 53z" />
    <glyph glyph-name="ordmasculine" unicode="&#xba;" horiz-adv-x="831" 
d="M461 842q-127 0 -201 84.5t-57 210.5q19 126 116 210.5t224 84.5q128 0 203.5 -85t56.5 -210q-17 -126 -115.5 -210.5t-226.5 -84.5zM469 903q99 0 175.5 67.5t88.5 166.5q15 99 -42 166t-156 67q-98 0 -174 -66.5t-91 -166.5q-13 -100 44 -167t155 -67z" />
    <glyph glyph-name="guillemotright" unicode="&#xbb;" horiz-adv-x="1167" 
d="M293 952l311 -411l-428 -412h-98l428 412l-313 411h100zM748 952l313 -411l-428 -412h-101l429 412l-312 411h99z" />
    <glyph glyph-name="onequarter" unicode="&#xbc;" horiz-adv-x="1460" 
d="M1300 1413h84l-1210 -1413h-84zM369 1331l-207 -104l-25 53l262 133h47l-118 -848h-68zM1409 274l-8 -63h-127l-29 -211h-67l28 211h-426l-10 55l524 582h70l-80 -574h125zM848 274h369l67 488z" />
    <glyph glyph-name="onehalf" unicode="&#xbd;" horiz-adv-x="1544" 
d="M1300 1413h84l-1210 -1413h-84zM369 1331l-207 -104l-25 53l262 133h47l-118 -848h-68zM1483 631q-7 -61 -43 -115.5t-101 -114.5l-358 -338h449l-11 -63h-542l8 53l403 381q55 54 87.5 100t39.5 95q10 74 -37 120t-127 46q-138 0 -235 -131l-43 41q51 72 129 114.5
t162 42.5q110 0 172 -64.5t47 -166.5z" />
    <glyph glyph-name="threequarters" unicode="&#xbe;" horiz-adv-x="1605" 
d="M670 791q-14 -103 -107.5 -171.5t-222.5 -68.5q-86 0 -158 32t-119 91l48 49q79 -107 233 -107q101 0 174.5 52.5t85.5 130.5q10 79 -45.5 131.5t-148.5 52.5h-134l9 59h133q83 0 144.5 46t70.5 114q9 69 -43 114.5t-141 45.5q-65 0 -126.5 -25.5t-103.5 -72.5l-33 47
q113 116 279 116q117 0 184 -61.5t53 -155.5q-9 -66 -56.5 -118.5t-119.5 -77.5q76 -23 115 -83.5t29 -139.5zM1446 1413h84l-1211 -1413h-83zM1554 274l-8 -63h-127l-28 -211h-68l29 211h-426l-11 55l525 582h69l-79 -574h124zM993 274h369l68 488z" />
    <glyph glyph-name="questiondown" unicode="&#xbf;" horiz-adv-x="958" 
d="M559 907q-31 0 -48.5 21t-14.5 53q4 31 28.5 51.5t55.5 20.5q32 0 50 -20.5t13 -51.5q-3 -32 -27 -53t-57 -21zM375 -393q-170 0 -269.5 101.5t-76.5 252.5q11 82 58.5 158.5t108 136t120.5 115.5t106 118.5t55 122.5l10 82h86l-12 -82q-7 -51 -33.5 -101.5t-63.5 -93
t-80.5 -85t-87.5 -85t-81 -85t-64 -93t-34 -102.5q-17 -120 60.5 -198t211.5 -78q115 0 224.5 60t187.5 161l55 -51q-87 -116 -216 -185t-265 -69z" />
    <glyph glyph-name="Agrave" unicode="&#xc0;" horiz-adv-x="1449" 
d="M934 1573h-92l-207 237h113zM1214 0l-118 416h-774l-236 -416h-96l807 1413h106l410 -1413h-99zM369 496h702l-235 823z" />
    <glyph glyph-name="Aacute" unicode="&#xc1;" horiz-adv-x="1449" 
d="M1178 1810l-273 -237h-92l252 237h113zM1214 0l-118 416h-774l-236 -416h-96l807 1413h106l410 -1413h-99zM369 496h702l-235 823z" />
    <glyph glyph-name="Acircumflex" unicode="&#xc2;" horiz-adv-x="1449" 
d="M897 1763l-203 -190h-82l242 237h102l177 -237h-82zM1214 0l-118 416h-774l-236 -416h-96l807 1413h106l410 -1413h-99zM369 496h702l-235 823z" />
    <glyph glyph-name="Atilde" unicode="&#xc3;" horiz-adv-x="1449" 
d="M756 1726q-53 0 -94 -36.5t-48 -90.5h-63q11 84 69.5 139.5t137.5 55.5q37 0 67 -14.5t51.5 -35t41.5 -40.5t46.5 -34.5t57.5 -14.5q53 0 93 36.5t46 90.5h66q-11 -84 -69.5 -139.5t-139.5 -55.5q-37 0 -67 14.5t-51 35t-41.5 40.5t-46.5 34.5t-56 14.5zM1214 0l-118 416
h-774l-236 -416h-96l807 1413h106l410 -1413h-99zM369 496h702l-235 823z" />
    <glyph glyph-name="Adieresis" unicode="&#xc4;" horiz-adv-x="1449" 
d="M674 1597q-28 0 -45 19t-13 47q3 27 25.5 46.5t50.5 19.5q27 0 43 -19t13 -47q-5 -28 -26 -47t-48 -19zM1077 1597q-28 0 -44 19t-13 47q5 28 26.5 47t49.5 19t44 -19t13 -47q-5 -28 -26.5 -47t-49.5 -19zM1214 0l-118 416h-774l-236 -416h-96l807 1413h106l410 -1413
h-99zM369 496h702l-235 823z" />
    <glyph glyph-name="Aring" unicode="&#xc5;" horiz-adv-x="1449" 
d="M866 1542q-61 0 -97 41t-28 103q9 62 57 103.5t111 41.5q61 0 97 -41.5t28 -103.5q-9 -62 -57 -103t-111 -41zM797 1686q-6 -40 16.5 -67.5t60.5 -27.5q39 0 70 28t35 67q6 40 -17 67t-61 27q-39 0 -69.5 -27.5t-34.5 -66.5zM1214 0l-118 416h-774l-236 -416h-96
l807 1413h106l410 -1413h-99zM369 496h702l-235 823z" />
    <glyph glyph-name="AE" unicode="&#xc6;" horiz-adv-x="1847" 
d="M1835 1331h-733l-80 -579h664l-13 -82h-663l-82 -588h741l-10 -82h-830l58 414h-574l-319 -414h-103l1092 1413h864zM377 496h522l117 829z" />
    <glyph glyph-name="Ccedilla" unicode="&#xc7;" horiz-adv-x="1552" 
d="M961 1354q-136 0 -262.5 -49.5t-224 -135t-164 -206t-85.5 -256.5q-26 -182 37 -330.5t199 -233t317 -84.5q168 0 319.5 75.5t254.5 205.5l69 -47q-114 -142 -280 -227t-350 -91l-56 -61q18 6 41 6q71 0 112.5 -50t29.5 -122q-9 -73 -68.5 -123.5t-134.5 -50.5
q-55 0 -94.5 26.5t-57.5 71.5l45 35q12 -37 42 -58.5t71 -21.5q53 0 92.5 34.5t46.5 86.5q8 51 -21.5 86t-80.5 35q-47 0 -84 -33l-47 23l102 116q-147 7 -268 66t-199.5 155.5t-113 229t-13.5 281.5q28 205 147 372.5t301 263t388 95.5q192 0 340.5 -85.5t226.5 -232.5
l-82 -47q-67 130 -197.5 205.5t-297.5 75.5z" />
    <glyph glyph-name="Egrave" unicode="&#xc8;" horiz-adv-x="1216" 
d="M858 1573h-92l-207 237h113zM1206 1331h-815l-80 -579h744l-11 -82h-745l-82 -588h823l-12 -82h-911l198 1413h902z" />
    <glyph glyph-name="Eacute" unicode="&#xc9;" horiz-adv-x="1216" 
d="M1102 1810l-273 -237h-92l252 237h113zM1206 1331h-815l-80 -579h744l-11 -82h-745l-82 -588h823l-12 -82h-911l198 1413h902z" />
    <glyph glyph-name="Ecircumflex" unicode="&#xca;" horiz-adv-x="1216" 
d="M823 1763l-202 -190h-82l241 237h103l176 -237h-82zM1206 1331h-815l-80 -579h744l-11 -82h-745l-82 -588h823l-12 -82h-911l198 1413h902z" />
    <glyph glyph-name="Edieresis" unicode="&#xcb;" horiz-adv-x="1216" 
d="M600 1597q-28 0 -44.5 19t-12.5 47q3 28 25 47t50 19q27 0 43 -19t13 -47q-5 -28 -26 -47t-48 -19zM1004 1597q-28 0 -44.5 19t-13.5 47q5 28 26.5 47t49.5 19t44 -19t13 -47q-5 -28 -26 -47t-49 -19zM1206 1331h-815l-80 -579h744l-11 -82h-745l-82 -588h823l-12 -82
h-911l198 1413h902z" />
    <glyph glyph-name="Igrave" unicode="&#xcc;" horiz-adv-x="468" 
d="M352 1573l-207 237h113l186 -237h-92zM117 0l198 1413h88l-198 -1413h-88z" />
    <glyph glyph-name="Iacute" unicode="&#xcd;" horiz-adv-x="468" 
d="M324 1573l251 237h113l-272 -237h-92zM117 0l198 1413h88l-198 -1413h-88z" />
    <glyph glyph-name="Icircumflex" unicode="&#xce;" horiz-adv-x="468" 
d="M643 1573h-82l-153 190l-203 -190h-82l242 237h102zM117 0l198 1413h88l-198 -1413h-88z" />
    <glyph glyph-name="Idieresis" unicode="&#xcf;" horiz-adv-x="468" 
d="M184 1597q-28 0 -44.5 19t-12.5 47q3 27 25.5 46.5t50.5 19.5q27 0 42.5 -19t12.5 -47q-5 -28 -26 -47t-48 -19zM588 1597q-28 0 -44.5 19t-13.5 47q5 28 26.5 47t49.5 19t44.5 -19t13.5 -47q-5 -28 -26.5 -47t-49.5 -19zM117 0l198 1413h88l-198 -1413h-88z" />
    <glyph glyph-name="Eth" unicode="&#xd0;" horiz-adv-x="1544" 
d="M852 1413q200 0 349.5 -92t218.5 -253.5t42 -360.5q-28 -199 -143 -361t-290.5 -254t-375.5 -92h-536l94 674h-154l9 63h155l94 676h537zM1372 707q24 176 -36.5 319t-191 224t-304.5 81h-449l-82 -594h318l-11 -63h-317l-82 -592h447q174 0 327.5 81.5t254.5 224.5
t126 319z" />
    <glyph glyph-name="Ntilde" unicode="&#xd1;" horiz-adv-x="1527" 
d="M797 1726q-53 0 -94 -36.5t-48 -90.5h-63q11 84 69.5 139.5t137.5 55.5q37 0 67 -14.5t51.5 -35t41.5 -40.5t46.5 -34.5t57.5 -14.5q53 0 93 36.5t46 90.5h66q-11 -84 -69.5 -139.5t-139.5 -55.5q-37 0 -67 14.5t-51 35t-41.5 40.5t-46.5 34.5t-56 14.5zM1374 1413h88
l-198 -1413h-99l-780 1278l-180 -1278h-88l198 1413h99l780 -1278z" />
    <glyph glyph-name="Ograve" unicode="&#xd2;" horiz-adv-x="1685" 
d="M958 1573l-206 237h112l187 -237h-93zM764 -25q-154 0 -282.5 56.5t-211.5 153.5t-120 232.5t-15 289.5q28 205 147 372.5t301 263t388 95.5t361 -95.5t227.5 -263t44.5 -372.5q-22 -154 -98 -289.5t-187 -232.5t-256 -153.5t-299 -56.5zM778 59q181 0 340 84.5t264 233
t131 330.5q19 136 -13.5 256.5t-106 206t-185.5 135t-247 49.5q-136 0 -262.5 -49.5t-224 -135t-164 -206t-85.5 -256.5q-26 -182 37 -330.5t199 -233t317 -84.5z" />
    <glyph glyph-name="Oacute" unicode="&#xd3;" horiz-adv-x="1685" 
d="M930 1573l252 237h112l-272 -237h-92zM764 -25q-154 0 -282.5 56.5t-211.5 153.5t-120 232.5t-15 289.5q28 205 147 372.5t301 263t388 95.5t361 -95.5t227.5 -263t44.5 -372.5q-22 -154 -98 -289.5t-187 -232.5t-256 -153.5t-299 -56.5zM778 59q181 0 340 84.5t264 233
t131 330.5q19 136 -13.5 256.5t-106 206t-185.5 135t-247 49.5q-136 0 -262.5 -49.5t-224 -135t-164 -206t-85.5 -256.5q-26 -182 37 -330.5t199 -233t317 -84.5z" />
    <glyph glyph-name="Ocircumflex" unicode="&#xd4;" horiz-adv-x="1685" 
d="M1016 1763l-203 -190h-82l242 237h102l176 -237h-82zM971 1438q206 0 361 -95.5t227.5 -263t44.5 -372.5q-22 -154 -98 -289.5t-187 -232.5t-256 -153.5t-299 -56.5t-282.5 56.5t-211.5 153.5t-120 232.5t-15 289.5q28 205 147 372.5t301 263t388 95.5zM1513 707
q19 136 -13.5 256.5t-106 206t-185.5 135t-247 49.5q-136 0 -262.5 -49.5t-224 -135t-164 -206t-85.5 -256.5q-26 -182 37 -330.5t199 -233t317 -84.5t340 84.5t264 233t131 330.5z" />
    <glyph glyph-name="Otilde" unicode="&#xd5;" horiz-adv-x="1685" 
d="M1135 1587q-37 0 -67.5 14.5t-51.5 35t-41 40.5t-46.5 34.5t-56.5 14.5q-52 0 -92.5 -36.5t-48.5 -90.5h-63q11 84 69 139.5t137 55.5q37 0 67.5 -14.5t51.5 -35t41.5 -40.5t47 -34.5t57.5 -14.5q53 0 93 36.5t46 90.5h65q-11 -84 -69 -139.5t-139 -55.5zM764 -25
q-154 0 -282.5 56.5t-211.5 153.5t-120 232.5t-15 289.5q28 205 147 372.5t301 263t388 95.5t361 -95.5t227.5 -263t44.5 -372.5q-22 -154 -98 -289.5t-187 -232.5t-256 -153.5t-299 -56.5zM778 59q181 0 340 84.5t264 233t131 330.5q19 136 -13.5 256.5t-106 206
t-185.5 135t-247 49.5q-136 0 -262.5 -49.5t-224 -135t-164 -206t-85.5 -256.5q-26 -182 37 -330.5t199 -233t317 -84.5z" />
    <glyph glyph-name="Odieresis" unicode="&#xd6;" horiz-adv-x="1685" 
d="M793 1597q-28 0 -45 19t-13 47q3 27 25.5 46.5t50.5 19.5q27 0 42.5 -19t12.5 -47q-5 -28 -25.5 -47t-47.5 -19zM1196 1597q-28 0 -44 19t-13 47q5 28 26 47t49 19t44.5 -19t13.5 -47q-5 -28 -26.5 -47t-49.5 -19zM764 -25q-154 0 -282.5 56.5t-211.5 153.5t-120 232.5
t-15 289.5q28 205 147 372.5t301 263t388 95.5t361 -95.5t227.5 -263t44.5 -372.5q-22 -154 -98 -289.5t-187 -232.5t-256 -153.5t-299 -56.5zM778 59q181 0 340 84.5t264 233t131 330.5q19 136 -13.5 256.5t-106 206t-185.5 135t-247 49.5q-136 0 -262.5 -49.5t-224 -135
t-164 -206t-85.5 -256.5q-26 -182 37 -330.5t199 -233t317 -84.5z" />
    <glyph glyph-name="multiply" unicode="&#xd7;" horiz-adv-x="911" 
d="M817 864l-295 -260l223 -260l-61 -55l-225 260l-295 -260l-47 55l295 260l-224 260l64 56l223 -261l297 261z" />
    <glyph glyph-name="Oslash" unicode="&#xd8;" horiz-adv-x="1685" 
d="M1640 1413l-182 -176q91 -100 129 -236t17 -294q-22 -154 -98 -289.5t-187 -232.5t-256 -153.5t-299 -56.5q-267 0 -445 160l-139 -135h-86l182 178q-89 100 -126.5 236t-14.5 293q28 205 147 372.5t301 263t388 95.5q266 0 444 -160l139 135h86zM225 707
q-20 -136 12.5 -255.5t108.5 -207.5l1002 970q-153 140 -387 140q-136 0 -262.5 -49.5t-224 -135t-164 -206t-85.5 -256.5zM1513 707q20 137 -12.5 255.5t-109.5 208.5l-1004 -970q155 -142 391 -142q181 0 340 84.5t264 233t131 330.5z" />
    <glyph glyph-name="Ugrave" unicode="&#xd9;" horiz-adv-x="1433" 
d="M834 1573l-207 237h112l187 -237h-92zM639 -25q-159 0 -277.5 73.5t-173 202.5t-32.5 286l123 876h86l-121 -876q-19 -133 27.5 -242.5t147 -172.5t234.5 -63q203 0 358.5 137.5t184.5 340.5l123 876h86l-123 -876q-22 -157 -113.5 -286t-231 -202.5t-298.5 -73.5z" />
    <glyph glyph-name="Uacute" unicode="&#xda;" horiz-adv-x="1433" 
d="M805 1573l252 237h112l-272 -237h-92zM639 -25q-159 0 -277.5 73.5t-173 202.5t-32.5 286l123 876h86l-121 -876q-19 -133 27.5 -242.5t147 -172.5t234.5 -63q203 0 358.5 137.5t184.5 340.5l123 876h86l-123 -876q-22 -157 -113.5 -286t-231 -202.5t-298.5 -73.5z" />
    <glyph glyph-name="Ucircumflex" unicode="&#xdb;" horiz-adv-x="1433" 
d="M889 1763l-203 -190h-82l242 237h102l176 -237h-82zM1319 1413h86l-123 -876q-22 -157 -113.5 -286t-231 -202.5t-298.5 -73.5t-277.5 73.5t-173 202.5t-32.5 286l123 876h86l-121 -876q-19 -133 27.5 -242.5t147 -172.5t234.5 -63q203 0 358.5 137.5t184.5 340.5z" />
    <glyph glyph-name="Udieresis" unicode="&#xdc;" horiz-adv-x="1433" 
d="M666 1597q-28 0 -45 19t-13 47q3 27 25.5 46.5t50.5 19.5q27 0 42.5 -19t12.5 -47q-5 -28 -25.5 -47t-47.5 -19zM1069 1597q-28 0 -44 19t-13 47q5 28 26 47t49 19t44.5 -19t13.5 -47q-5 -28 -26.5 -47t-49.5 -19zM639 -25q-159 0 -277.5 73.5t-173 202.5t-32.5 286
l123 876h86l-121 -876q-19 -133 27.5 -242.5t147 -172.5t234.5 -63q203 0 358.5 137.5t184.5 340.5l123 876h86l-123 -876q-22 -157 -113.5 -286t-231 -202.5t-298.5 -73.5z" />
    <glyph glyph-name="Yacute" unicode="&#xdd;" horiz-adv-x="1378" 
d="M1143 1810l-273 -237h-92l252 237h113zM1366 1413h98l-727 -862l-78 -551h-88l78 551l-485 862h102l441 -776z" />
    <glyph glyph-name="Thorn" unicode="&#xde;" horiz-adv-x="1234" 
d="M819 1126q180 0 284 -119t79 -296q-26 -179 -162.5 -297.5t-314.5 -118.5h-459l-41 -295h-88l198 1413h88l-41 -287h457zM1090 711q22 142 -60 237.5t-223 95.5h-455l-94 -667h455q142 0 249.5 95t127.5 239z" />
    <glyph glyph-name="germandbls" unicode="&#xdf;" horiz-adv-x="1146" 
d="M1077 1137q-15 -115 -92 -206.5t-182 -127.5q127 -36 197 -148.5t49 -261.5q-25 -181 -162 -299.5t-328 -118.5q-116 0 -203 41l13 82q82 -43 194 -43q154 0 267 98t135 248q22 153 -65.5 257t-233.5 104h-134l13 78h127q115 0 208.5 83.5t110.5 206.5q19 124 -63 206.5
t-219 82.5q-146 0 -254 -92.5t-127 -232.5l-154 -1094h-82l154 1098q23 171 157.5 286t315.5 115q174 0 277.5 -104.5t80.5 -257.5z" />
    <glyph glyph-name="agrave" unicode="&#xe0;" 
d="M844 1204h-92l-207 238h112zM1192 1044h82l-148 -1044h-82l39 283q-81 -140 -220.5 -224t-301.5 -84q-151 0 -264 71.5t-164.5 196.5t-30.5 279q21 153 109 278.5t221.5 197t284.5 71.5q163 0 277.5 -83t156.5 -224zM586 55q199 0 351 132.5t181 332.5v2
q28 200 -86 333.5t-313 133.5t-351 -133.5t-180 -333.5q-18 -131 27.5 -238t143 -168t227.5 -61z" />
    <glyph glyph-name="aacute" unicode="&#xe1;" 
d="M1087 1442l-272 -238h-92l252 238h112zM1192 1044h82l-148 -1044h-82l39 283q-81 -140 -220.5 -224t-301.5 -84q-151 0 -264 71.5t-164.5 196.5t-30.5 279q21 153 109 278.5t221.5 197t284.5 71.5q163 0 277.5 -83t156.5 -224zM586 55q199 0 351 132.5t181 332.5v2
q28 200 -86 333.5t-313 133.5t-351 -133.5t-180 -333.5q-18 -131 27.5 -238t143 -168t227.5 -61z" />
    <glyph glyph-name="acircumflex" unicode="&#xe2;" 
d="M809 1395l-203 -191h-82l242 238h102l176 -238h-81zM1192 1044h82l-148 -1044h-82l39 283q-81 -140 -220.5 -224t-301.5 -84q-151 0 -264 71.5t-164.5 196.5t-30.5 279q21 153 109 278.5t221.5 197t284.5 71.5q163 0 277.5 -83t156.5 -224zM586 55q199 0 351 132.5
t181 332.5v2q28 200 -86 333.5t-313 133.5t-351 -133.5t-180 -333.5q-18 -131 27.5 -238t143 -168t227.5 -61z" />
    <glyph glyph-name="atilde" unicode="&#xe3;" 
d="M668 1358q-53 0 -94 -36.5t-48 -90.5h-63q11 84 69.5 139t137.5 55q37 0 67 -14.5t51.5 -35t41.5 -40.5t46.5 -34.5t57.5 -14.5q53 0 93 36.5t46 90.5h66q-11 -84 -69.5 -139t-139.5 -55q-37 0 -67 14.5t-51 35t-41.5 40.5t-46.5 34.5t-56 14.5zM1192 1044h82l-148 -1044
h-82l39 283q-81 -140 -220.5 -224t-301.5 -84q-151 0 -264 71.5t-164.5 196.5t-30.5 279q21 153 109 278.5t221.5 197t284.5 71.5q163 0 277.5 -83t156.5 -224zM586 55q199 0 351 132.5t181 332.5v2q28 200 -86 333.5t-313 133.5t-351 -133.5t-180 -333.5
q-18 -131 27.5 -238t143 -168t227.5 -61z" />
    <glyph glyph-name="adieresis" unicode="&#xe4;" 
d="M586 1229q-28 0 -45 19t-13 46q3 27 25.5 46.5t50.5 19.5q27 0 42.5 -19t12.5 -47q-5 -28 -25.5 -46.5t-47.5 -18.5zM989 1229q-28 0 -44 18.5t-13 46.5q5 28 26.5 47t49.5 19t44 -19t13 -47q-4 -28 -26 -46.5t-50 -18.5zM1192 1044h82l-148 -1044h-82l39 283
q-81 -140 -220.5 -224t-301.5 -84q-151 0 -264 71.5t-164.5 196.5t-30.5 279q21 153 109 278.5t221.5 197t284.5 71.5q163 0 277.5 -83t156.5 -224zM586 55q199 0 351 132.5t181 332.5v2q28 200 -86 333.5t-313 133.5t-351 -133.5t-180 -333.5q-18 -131 27.5 -238t143 -168
t227.5 -61z" />
    <glyph glyph-name="aring" unicode="&#xe5;" 
d="M776 1174q-61 0 -97 40.5t-28 102.5q9 62 57 103.5t111 41.5q61 0 97 -41.5t28 -103.5q-9 -61 -57 -102t-111 -41zM707 1317q-6 -40 16.5 -67t60.5 -27q39 0 70 27.5t35 66.5q6 40 -17 67t-61 27q-39 0 -69.5 -27.5t-34.5 -66.5zM1192 1044h82l-148 -1044h-82l39 283
q-81 -140 -220.5 -224t-301.5 -84q-151 0 -264 71.5t-164.5 196.5t-30.5 279q21 153 109 278.5t221.5 197t284.5 71.5q163 0 277.5 -83t156.5 -224zM586 55q199 0 351 132.5t181 332.5v2q28 200 -86 333.5t-313 133.5t-351 -133.5t-180 -333.5q-18 -131 27.5 -238t143 -168
t227.5 -61z" />
    <glyph glyph-name="ae" unicode="&#xe6;" horiz-adv-x="2072" 
d="M1513 1069q231 0 363 -157t100 -392q0 -7 -6 -31h-995q-14 -190 103 -313t313 -123q131 0 249.5 58.5t194.5 156.5l55 -45q-92 -116 -226 -182t-286 -66q-155 0 -271 71t-173 194q-87 -115 -240.5 -190t-310.5 -75q-166 0 -260.5 85.5t-75.5 213.5q17 124 125.5 206.5
t253.5 82.5h479l17 115q20 142 -67.5 228.5t-250.5 86.5q-116 0 -210.5 -45t-149.5 -123l-47 45q65 93 174.5 146t244.5 53q163 0 265.5 -75t119.5 -203q86 128 222 203t290 75zM1503 991q-187 0 -332.5 -121.5t-185.5 -306.5h911q12 122 -35.5 220t-141.5 153t-216 55z
M401 51q139 0 283.5 72.5t226.5 181.5q-22 77 -16 184h-473q-113 0 -195 -60t-94 -150q-14 -98 61.5 -163t206.5 -65z" />
    <glyph glyph-name="ccedilla" unicode="&#xe7;" horiz-adv-x="1218" 
d="M719 989q-200 0 -352.5 -134t-180.5 -333q-28 -200 86.5 -333.5t313.5 -133.5q129 0 244 61t192 165l65 -41q-87 -118 -214 -188.5t-273 -76.5l-55 -61q18 6 41 6q71 0 112 -50t29 -122q-9 -73 -68.5 -123.5t-134.5 -50.5q-54 0 -93.5 26.5t-57.5 71.5l45 35
q12 -37 41.5 -58.5t70.5 -21.5q53 0 93 34.5t47 86.5q8 51 -22 86t-81 35q-47 0 -84 -33l-47 23l103 116q-220 14 -344 168.5t-93 378.5q21 153 110.5 278.5t226 197t290.5 71.5t267.5 -70.5t168.5 -193.5l-78 -41q-45 103 -142.5 164t-225.5 61z" />
    <glyph glyph-name="egrave" unicode="&#xe8;" horiz-adv-x="1280" 
d="M809 1204h-92l-207 238h113zM721 1069q152 0 266 -71.5t167 -197t32 -278.5q-1 -7 -4 -19l-4 -16h-996q-12 -190 104.5 -312t313.5 -122q133 0 253 58.5t196 158.5l53 -47q-94 -116 -228.5 -182t-287.5 -66q-159 0 -277 71.5t-173 197t-34 280.5q21 152 109.5 277
t223 196.5t286.5 71.5zM711 991q-187 0 -333.5 -122t-184.5 -308h911q14 187 -97 308.5t-296 121.5z" />
    <glyph glyph-name="eacute" unicode="&#xe9;" horiz-adv-x="1280" 
d="M1053 1442l-273 -238h-92l252 238h113zM721 1069q152 0 266 -71.5t167 -197t32 -278.5q-1 -7 -4 -19l-4 -16h-996q-12 -190 104.5 -312t313.5 -122q133 0 253 58.5t196 158.5l53 -47q-94 -116 -228.5 -182t-287.5 -66q-159 0 -277 71.5t-173 197t-34 280.5
q21 152 109.5 277t223 196.5t286.5 71.5zM711 991q-187 0 -333.5 -122t-184.5 -308h911q14 187 -97 308.5t-296 121.5z" />
    <glyph glyph-name="ecircumflex" unicode="&#xea;" horiz-adv-x="1280" 
d="M774 1395l-203 -191h-82l242 238h103l176 -238h-82zM721 1069q152 0 266 -71.5t167 -197t32 -278.5q-1 -7 -4 -19l-4 -16h-996q-12 -190 104.5 -312t313.5 -122q133 0 253 58.5t196 158.5l53 -47q-94 -116 -228.5 -182t-287.5 -66q-159 0 -277 71.5t-173 197t-34 280.5
q21 152 109.5 277t223 196.5t286.5 71.5zM711 991q-187 0 -333.5 -122t-184.5 -308h911q14 187 -97 308.5t-296 121.5z" />
    <glyph glyph-name="edieresis" unicode="&#xeb;" horiz-adv-x="1280" 
d="M551 1229q-28 0 -44.5 18.5t-12.5 46.5q3 28 25 47t50 19q27 0 43 -19t13 -47q-5 -28 -25.5 -46.5t-48.5 -18.5zM954 1229q-28 0 -44 18.5t-13 46.5q5 28 26.5 47t49.5 19t44 -19t13 -47q-4 -28 -26 -46.5t-50 -18.5zM721 1069q152 0 266 -71.5t167 -197t32 -278.5
q-1 -7 -4 -19l-4 -16h-996q-12 -190 104.5 -312t313.5 -122q133 0 253 58.5t196 158.5l53 -47q-94 -116 -228.5 -182t-287.5 -66q-159 0 -277 71.5t-173 197t-34 280.5q21 152 109.5 277t223 196.5t286.5 71.5zM711 991q-187 0 -333.5 -122t-184.5 -308h911
q14 187 -97 308.5t-296 121.5z" />
    <glyph glyph-name="igrave" unicode="&#xec;" horiz-adv-x="423" 
d="M276 1204l-206 238h112l187 -238h-93zM98 0l148 1044h82l-148 -1044h-82z" />
    <glyph glyph-name="iacute" unicode="&#xed;" horiz-adv-x="423" 
d="M248 1204l252 238h112l-272 -238h-92zM98 0l148 1044h82l-148 -1044h-82z" />
    <glyph glyph-name="icircumflex" unicode="&#xee;" horiz-adv-x="423" 
d="M569 1204h-82l-153 191l-203 -191h-82l242 238h102zM98 0l148 1044h82l-148 -1044h-82z" />
    <glyph glyph-name="idieresis" unicode="&#xef;" horiz-adv-x="423" 
d="M111 1229q-28 0 -45 19t-13 46q3 27 25.5 46.5t50.5 19.5q27 0 42.5 -19t12.5 -47q-5 -28 -25.5 -46.5t-47.5 -18.5zM514 1229q-28 0 -44 18.5t-13 46.5q5 28 26 47t49 19t44.5 -19t13.5 -47q-4 -28 -26 -46.5t-50 -18.5zM98 0l148 1044h82l-148 -1044h-82z" />
    <glyph glyph-name="eth" unicode="&#xf0;" horiz-adv-x="1290" 
d="M829 1350q207 -132 301 -352t60 -472q-22 -158 -111.5 -284.5t-223.5 -196.5t-286 -70q-153 0 -268 71t-168.5 195t-32.5 275t108.5 275.5t220.5 195t282 70.5q128 0 229 -56t160 -157q-38 142 -124.5 258.5t-217.5 193.5l-146 -108h-84l183 135q-109 53 -230 76l11 80
q156 -29 292 -103l138 103h82zM1102 516q28 197 -84 329t-307 132q-196 0 -346.5 -132t-178.5 -329t85 -329t309 -132q129 0 242.5 60t188 166t91.5 235z" />
    <glyph glyph-name="ntilde" unicode="&#xf1;" horiz-adv-x="1282" 
d="M623 1358q-53 0 -94 -36.5t-48 -90.5h-63q11 84 69.5 139t137.5 55q37 0 67 -14.5t51.5 -35t41.5 -40.5t46.5 -34.5t57.5 -14.5q53 0 93 36.5t46 90.5h66q-11 -84 -69.5 -139t-139.5 -55q-37 0 -67 14.5t-51 35t-41.5 40.5t-46.5 34.5t-56 14.5zM754 1069
q201 0 305.5 -121.5t75.5 -322.5l-86 -625h-82l84 604q25 174 -65.5 279.5t-264.5 105.5q-173 0 -297 -98.5t-156 -261.5l-88 -629h-82l148 1044h82l-31 -221q71 117 189.5 181.5t267.5 64.5z" />
    <glyph glyph-name="ograve" unicode="&#xf2;" horiz-adv-x="1302" 
d="M717 1204l-207 238h113l186 -238h-92zM573 -25q-154 0 -269.5 71.5t-169 197t-32.5 278.5t110.5 278.5t226 197t290.5 71.5t270 -71.5t170 -197t33 -278.5t-111 -278.5t-227 -197t-291 -71.5zM586 55q199 0 350.5 133.5t179.5 333.5t-85.5 333.5t-311.5 133.5
q-200 0 -352.5 -134t-180.5 -333q-28 -200 86.5 -333.5t313.5 -133.5z" />
    <glyph glyph-name="oacute" unicode="&#xf3;" horiz-adv-x="1302" 
d="M688 1204l252 238h113l-273 -238h-92zM573 -25q-154 0 -269.5 71.5t-169 197t-32.5 278.5t110.5 278.5t226 197t290.5 71.5t270 -71.5t170 -197t33 -278.5t-111 -278.5t-227 -197t-291 -71.5zM586 55q199 0 350.5 133.5t179.5 333.5t-85.5 333.5t-311.5 133.5
q-200 0 -352.5 -134t-180.5 -333q-28 -200 86.5 -333.5t313.5 -133.5z" />
    <glyph glyph-name="ocircumflex" unicode="&#xf4;" horiz-adv-x="1302" 
d="M774 1395l-203 -191h-82l242 238h103l176 -238h-82zM729 1069q154 0 270 -71.5t170 -197t33 -278.5t-111 -278.5t-227 -197t-291 -71.5t-269.5 71.5t-169 197t-32.5 278.5t110.5 278.5t226 197t290.5 71.5zM1116 522q28 200 -85.5 333.5t-311.5 133.5q-200 0 -352.5 -134
t-180.5 -333q-28 -200 86.5 -333.5t313.5 -133.5t350.5 133.5t179.5 333.5z" />
    <glyph glyph-name="otilde" unicode="&#xf5;" horiz-adv-x="1302" 
d="M893 1219q-37 0 -67 14.5t-51 35t-41.5 40.5t-46.5 34.5t-56 14.5q-53 0 -94 -36.5t-48 -90.5h-63q11 84 69.5 139t137.5 55q37 0 67 -14.5t51.5 -35t41.5 -40.5t46.5 -34.5t57.5 -14.5q53 0 93 36.5t46 90.5h66q-11 -84 -69.5 -139t-139.5 -55zM573 -25
q-154 0 -269.5 71.5t-169 197t-32.5 278.5t110.5 278.5t226 197t290.5 71.5t270 -71.5t170 -197t33 -278.5t-111 -278.5t-227 -197t-291 -71.5zM586 55q199 0 350.5 133.5t179.5 333.5t-85.5 333.5t-311.5 133.5q-200 0 -352.5 -134t-180.5 -333q-28 -200 86.5 -333.5
t313.5 -133.5z" />
    <glyph glyph-name="odieresis" unicode="&#xf6;" horiz-adv-x="1302" 
d="M551 1229q-28 0 -44.5 18.5t-12.5 46.5q3 28 25 47t50 19q27 0 43 -19t13 -47q-5 -28 -25.5 -46.5t-48.5 -18.5zM954 1229q-28 0 -44 18.5t-13 46.5q5 28 26.5 47t49.5 19t44 -19t13 -47q-4 -28 -26 -46.5t-50 -18.5zM573 -25q-154 0 -269.5 71.5t-169 197t-32.5 278.5
t110.5 278.5t226 197t290.5 71.5t270 -71.5t170 -197t33 -278.5t-111 -278.5t-227 -197t-291 -71.5zM586 55q199 0 350.5 133.5t179.5 333.5t-85.5 333.5t-311.5 133.5q-200 0 -352.5 -134t-180.5 -333q-28 -200 86.5 -333.5t313.5 -133.5z" />
    <glyph glyph-name="divide" unicode="&#xf7;" horiz-adv-x="1093" 
d="M592 840q-29 0 -45.5 18.5t-11.5 46.5t25.5 46t49.5 18q28 0 44 -18t12 -46q-3 -28 -24.5 -46.5t-49.5 -18.5zM147 571l11 70h813l-10 -70h-814zM506 242q-28 0 -43 17.5t-12 45.5q5 28 25.5 47t47.5 19q29 0 46 -19t12 -47q-3 -27 -24.5 -45t-51.5 -18z" />
    <glyph glyph-name="oslash" unicode="&#xf8;" horiz-adv-x="1302" 
d="M1231 1044l-135 -129q140 -156 106 -393q-21 -153 -111 -278.5t-227 -197t-291 -71.5q-199 0 -331 119l-97 -94h-73l135 129q-139 159 -105 393q21 153 110.5 278.5t226 197t290.5 71.5q199 0 332 -117l96 92h74zM186 522q-27 -198 84 -332l727 701q-112 98 -278 98
q-200 0 -352.5 -134t-180.5 -333zM1116 522q27 198 -84 332l-727 -700q117 -99 281 -99q199 0 350.5 133.5t179.5 333.5z" />
    <glyph glyph-name="ugrave" unicode="&#xf9;" horiz-adv-x="1230" 
d="M680 1204l-207 238h113l186 -238h-92zM537 -25q-205 0 -313.5 120t-80.5 317l90 632h82l-88 -622q-23 -166 65 -266.5t257 -100.5t286 100.5t140 266.5l88 622h82l-90 -632q-28 -198 -170 -317.5t-348 -119.5z" />
    <glyph glyph-name="uacute" unicode="&#xfa;" horiz-adv-x="1230" 
d="M651 1204l252 238h113l-273 -238h-92zM537 -25q-205 0 -313.5 120t-80.5 317l90 632h82l-88 -622q-23 -166 65 -266.5t257 -100.5t286 100.5t140 266.5l88 622h82l-90 -632q-28 -198 -170 -317.5t-348 -119.5z" />
    <glyph glyph-name="ucircumflex" unicode="&#xfb;" horiz-adv-x="1230" 
d="M737 1395l-202 -191h-82l241 238h103l176 -238h-82zM1063 1044h82l-90 -632q-28 -198 -170 -317.5t-348 -119.5q-205 0 -313.5 120t-80.5 317l90 632h82l-88 -622q-23 -166 65 -266.5t257 -100.5t286 100.5t140 266.5z" />
    <glyph glyph-name="udieresis" unicode="&#xfc;" horiz-adv-x="1230" 
d="M514 1229q-28 0 -44.5 18.5t-12.5 46.5q3 28 25 47t50 19q27 0 43 -19t13 -47q-5 -28 -25.5 -46.5t-48.5 -18.5zM918 1229q-28 0 -44.5 18.5t-13.5 46.5q5 28 26.5 47t49.5 19t44 -19t13 -47q-5 -28 -26 -46.5t-49 -18.5zM537 -25q-205 0 -313.5 120t-80.5 317l90 632h82
l-88 -622q-23 -166 65 -266.5t257 -100.5t286 100.5t140 266.5l88 622h82l-90 -632q-28 -198 -170 -317.5t-348 -119.5z" />
    <glyph glyph-name="yacute" unicode="&#xfd;" horiz-adv-x="1161" 
d="M983 1442l-272 -238h-93l252 238h113zM1094 1044h92l-797 -1304q-45 -75 -107 -114.5t-128 -39.5q-55 0 -108 26t-85 69l49 61q24 -34 62.5 -55t81.5 -21q95 0 165 107l142 225l-338 1046h96l303 -952z" />
    <glyph glyph-name="thorn" unicode="&#xfe;" 
d="M809 1069q151 0 264 -71.5t164.5 -196.5t30.5 -279q-21 -153 -109 -278.5t-221.5 -197t-284.5 -71.5q-160 0 -275.5 83t-158.5 223l-94 -670h-82l262 1864h82l-100 -711q83 140 222 222.5t300 82.5zM1184 522q28 200 -86.5 333.5t-313.5 133.5t-350.5 -133.5
t-179.5 -333.5t85.5 -333.5t311.5 -133.5q200 0 352.5 134t180.5 333z" />
    <glyph glyph-name="ydieresis" unicode="&#xff;" horiz-adv-x="1161" 
d="M479 1229q-28 0 -44.5 18.5t-12.5 46.5q3 27 25.5 46.5t50.5 19.5q27 0 42.5 -19t12.5 -47q-5 -28 -25.5 -46.5t-48.5 -18.5zM883 1229q-28 0 -44.5 18.5t-13.5 46.5q5 28 26.5 47t49.5 19t44 -19t13 -47q-5 -28 -26 -46.5t-49 -18.5zM1094 1044h92l-797 -1304
q-45 -75 -107 -114.5t-128 -39.5q-55 0 -108 26t-85 69l49 61q24 -34 62.5 -55t81.5 -21q95 0 165 107l142 225l-338 1046h96l303 -952z" />
    <glyph glyph-name="Amacron" unicode="&#x100;" horiz-adv-x="1449" 
d="M1102 1686l-10 -74h-428l10 74h428zM1214 0l-118 416h-774l-236 -416h-96l807 1413h106l410 -1413h-99zM369 496h702l-235 823z" />
    <glyph glyph-name="amacron" unicode="&#x101;" 
d="M1014 1317l-10 -74h-429l11 74h428zM1192 1044h82l-148 -1044h-82l39 283q-81 -140 -220.5 -224t-301.5 -84q-151 0 -264 71.5t-164.5 196.5t-30.5 279q21 153 109 278.5t221.5 197t284.5 71.5q163 0 277.5 -83t156.5 -224zM586 55q199 0 351 132.5t181 332.5v2
q28 200 -86 333.5t-313 133.5t-351 -133.5t-180 -333.5q-18 -131 27.5 -238t143 -168t227.5 -61z" />
    <glyph glyph-name="Abreve" unicode="&#x102;" horiz-adv-x="1449" 
d="M870 1552q-102 0 -161 68t-45 170h67q-9 -75 33.5 -124.5t114.5 -49.5q74 0 130.5 49.5t65.5 124.5h70q-13 -101 -92.5 -169.5t-182.5 -68.5zM1214 0l-118 416h-774l-236 -416h-96l807 1413h106l410 -1413h-99zM369 496h702l-235 823z" />
    <glyph glyph-name="abreve" unicode="&#x103;" 
d="M780 1184q-103 0 -162 68t-45 169h68q-9 -75 33 -124.5t114 -49.5q74 0 131 50t66 124h70q-13 -101 -92.5 -169t-182.5 -68zM1192 1044h82l-148 -1044h-82l39 283q-81 -140 -220.5 -224t-301.5 -84q-151 0 -264 71.5t-164.5 196.5t-30.5 279q21 153 109 278.5t221.5 197
t284.5 71.5q163 0 277.5 -83t156.5 -224zM586 55q199 0 351 132.5t181 332.5v2q28 200 -86 333.5t-313 133.5t-351 -133.5t-180 -333.5q-18 -131 27.5 -238t143 -168t227.5 -61z" />
    <glyph glyph-name="Aogonek" unicode="&#x104;" horiz-adv-x="1449" 
d="M1311 0q-107 -46 -174 -107.5t-76 -128.5q-7 -54 23 -88t83 -34q64 0 113 32l16 -53q-67 -43 -149 -43q-78 0 -123.5 50t-34.5 124q12 75 78 141.5t166 106.5h-19l-118 416h-774l-236 -416h-96l807 1413h106l410 -1413h-2zM369 496h702l-235 823z" />
    <glyph glyph-name="aogonek" unicode="&#x105;" 
d="M1192 1044h82l-148 -1044h-2q-107 -46 -174 -107.5t-76 -128.5q-7 -53 23.5 -87.5t83.5 -34.5q64 0 113 32l16 -53q-67 -43 -149 -43q-78 0 -123.5 50t-34.5 124q12 75 78 141.5t166 106.5h-3l39 283q-81 -140 -220.5 -224t-301.5 -84q-151 0 -264 71.5t-164.5 196.5
t-30.5 279q21 153 109 278.5t221.5 197t284.5 71.5q163 0 277.5 -83t156.5 -224zM586 55q199 0 351 132.5t181 332.5v2q28 200 -86 333.5t-313 133.5t-351 -133.5t-180 -333.5q-18 -131 27.5 -238t143 -168t227.5 -61z" />
    <glyph glyph-name="Cacute" unicode="&#x106;" horiz-adv-x="1552" 
d="M930 1573l252 237h112l-272 -237h-92zM764 -25q-154 0 -282.5 56.5t-211.5 153.5t-120 232.5t-15 289.5q28 205 147 372.5t301 263t388 95.5q192 0 340.5 -85.5t226.5 -232.5l-82 -47q-67 130 -197.5 205.5t-297.5 75.5q-136 0 -262.5 -49.5t-224 -135t-164 -206
t-85.5 -256.5q-26 -182 37 -330.5t199 -233t317 -84.5q168 0 319.5 75.5t254.5 205.5l69 -47q-119 -147 -292 -232.5t-365 -85.5z" />
    <glyph glyph-name="cacute" unicode="&#x107;" horiz-adv-x="1218" 
d="M688 1204l252 238h113l-273 -238h-92zM573 -25q-154 0 -269.5 71.5t-169 197t-32.5 278.5t110.5 278.5t226 197t290.5 71.5t267.5 -70.5t168.5 -193.5l-78 -41q-45 103 -142.5 164t-225.5 61q-200 0 -352.5 -134t-180.5 -333q-28 -200 86.5 -333.5t313.5 -133.5
q129 0 244 61t192 165l65 -41q-90 -122 -225 -193.5t-289 -71.5z" />
    <glyph glyph-name="Ccircumflex" unicode="&#x108;" horiz-adv-x="1552" 
d="M1016 1763l-203 -190h-82l242 237h102l176 -237h-82zM961 1354q-136 0 -262.5 -49.5t-224 -135t-164 -206t-85.5 -256.5q-26 -182 37 -330.5t199 -233t317 -84.5q168 0 319.5 75.5t254.5 205.5l69 -47q-119 -147 -292 -232.5t-365 -85.5q-154 0 -282.5 56.5t-211.5 153.5
t-120 232.5t-15 289.5q28 205 147 372.5t301 263t388 95.5q192 0 340.5 -85.5t226.5 -232.5l-82 -47q-67 130 -197.5 205.5t-297.5 75.5z" />
    <glyph glyph-name="ccircumflex" unicode="&#x109;" horiz-adv-x="1218" 
d="M774 1395l-203 -191h-82l242 238h103l176 -238h-82zM719 989q-200 0 -352.5 -134t-180.5 -333q-28 -200 86.5 -333.5t313.5 -133.5q129 0 244 61t192 165l65 -41q-90 -122 -225 -193.5t-289 -71.5t-269.5 71.5t-169 197t-32.5 278.5t110.5 278.5t226 197t290.5 71.5
t267.5 -70.5t168.5 -193.5l-78 -41q-45 103 -142.5 164t-225.5 61z" />
    <glyph glyph-name="Cdotaccent" unicode="&#x10a;" horiz-adv-x="1552" 
d="M993 1597q-28 0 -44.5 19.5t-12.5 48.5q3 27 26.5 46.5t51.5 19.5t44 -19t13 -47q-5 -29 -27 -48.5t-51 -19.5zM764 -25q-154 0 -282.5 56.5t-211.5 153.5t-120 232.5t-15 289.5q28 205 147 372.5t301 263t388 95.5q192 0 340.5 -85.5t226.5 -232.5l-82 -47
q-67 130 -197.5 205.5t-297.5 75.5q-136 0 -262.5 -49.5t-224 -135t-164 -206t-85.5 -256.5q-26 -182 37 -330.5t199 -233t317 -84.5q168 0 319.5 75.5t254.5 205.5l69 -47q-119 -147 -292 -232.5t-365 -85.5z" />
    <glyph glyph-name="cdotaccent" unicode="&#x10b;" horiz-adv-x="1218" 
d="M750 1229q-28 0 -45 19t-13 48q3 27 26.5 46.5t51.5 19.5t44 -19t13 -47q-5 -29 -26.5 -48t-50.5 -19zM573 -25q-154 0 -269.5 71.5t-169 197t-32.5 278.5t110.5 278.5t226 197t290.5 71.5t267.5 -70.5t168.5 -193.5l-78 -41q-45 103 -142.5 164t-225.5 61
q-200 0 -352.5 -134t-180.5 -333q-28 -200 86.5 -333.5t313.5 -133.5q129 0 244 61t192 165l65 -41q-90 -122 -225 -193.5t-289 -71.5z" />
    <glyph glyph-name="Ccaron" unicode="&#x10c;" horiz-adv-x="1552" 
d="M1042 1573h-104l-174 237h82l151 -190l205 190h82zM961 1354q-136 0 -262.5 -49.5t-224 -135t-164 -206t-85.5 -256.5q-26 -182 37 -330.5t199 -233t317 -84.5q168 0 319.5 75.5t254.5 205.5l69 -47q-119 -147 -292 -232.5t-365 -85.5q-154 0 -282.5 56.5t-211.5 153.5
t-120 232.5t-15 289.5q28 205 147 372.5t301 263t388 95.5q192 0 340.5 -85.5t226.5 -232.5l-82 -47q-67 130 -197.5 205.5t-297.5 75.5z" />
    <glyph glyph-name="ccaron" unicode="&#x10d;" horiz-adv-x="1218" 
d="M801 1204h-105l-174 238h82l152 -191l205 191h81zM719 989q-200 0 -352.5 -134t-180.5 -333q-28 -200 86.5 -333.5t313.5 -133.5q129 0 244 61t192 165l65 -41q-90 -122 -225 -193.5t-289 -71.5t-269.5 71.5t-169 197t-32.5 278.5t110.5 278.5t226 197t290.5 71.5
t267.5 -70.5t168.5 -193.5l-78 -41q-45 103 -142.5 164t-225.5 61z" />
    <glyph glyph-name="Dcaron" unicode="&#x10e;" horiz-adv-x="1544" 
d="M954 1573h-104l-174 237h82l151 -190l205 190h82zM852 1413q200 0 349.5 -92t218.5 -253.5t42 -360.5q-28 -199 -143 -361t-290.5 -254t-375.5 -92h-536l198 1413h537zM1372 707q24 176 -36.5 319t-191 224t-304.5 81h-449l-174 -1249h447q174 0 327.5 81.5t254.5 224.5
t126 319z" />
    <glyph glyph-name="dcaron" unicode="&#x10f;" horiz-adv-x="1462" 
d="M1149 758l100 717h82l-207 -1475h-82l41 287q-83 -143 -221.5 -227.5t-300.5 -84.5q-151 0 -264 71.5t-164.5 196.5t-30.5 279q21 153 109 278.5t221.5 197t284.5 71.5q161 0 275.5 -84.5t156.5 -226.5zM1526 1475h82l-113 -367h-63zM586 55q193 0 342 126.5t184 318.5
l6 43q19 193 -93.5 319.5t-305.5 126.5q-200 0 -352.5 -134t-180.5 -333q-28 -200 86.5 -333.5t313.5 -133.5z" />
    <glyph glyph-name="Dcroat" unicode="&#x110;" horiz-adv-x="1544" 
d="M852 1413q200 0 349.5 -92t218.5 -253.5t42 -360.5q-28 -199 -143 -361t-290.5 -254t-375.5 -92h-536l94 674h-154l9 63h155l94 676h537zM1372 707q24 176 -36.5 319t-191 224t-304.5 81h-449l-82 -594h318l-11 -63h-317l-82 -592h447q174 0 327.5 81.5t254.5 224.5
t126 319z" />
    <glyph glyph-name="dcroat" unicode="&#x111;" 
d="M1477 1276l-11 -64h-170l-170 -1212h-82l39 281q-83 -140 -221.5 -223t-300.5 -83q-151 0 -264 71.5t-164.5 196.5t-30.5 279q21 153 109 278.5t221.5 197t284.5 71.5q162 0 277 -83.5t157 -223.5l63 450h-307l8 64h308l28 199h82l-28 -199h172zM586 55q193 0 343 126.5
t185 318.5l6 43q19 192 -94.5 319t-306.5 127q-199 0 -351 -133.5t-180 -333.5q-18 -131 27.5 -238t143 -168t227.5 -61z" />
    <glyph glyph-name="Emacron" unicode="&#x112;" horiz-adv-x="1216" 
d="M1028 1686l-10 -74h-428l10 74h428zM1206 1331h-815l-80 -579h744l-11 -82h-745l-82 -588h823l-12 -82h-911l198 1413h902z" />
    <glyph glyph-name="emacron" unicode="&#x113;" horiz-adv-x="1280" 
d="M979 1317l-10 -74h-428l10 74h428zM721 1069q152 0 266 -71.5t167 -197t32 -278.5q-1 -7 -4 -19l-4 -16h-996q-12 -190 104.5 -312t313.5 -122q133 0 253 58.5t196 158.5l53 -47q-94 -116 -228.5 -182t-287.5 -66q-159 0 -277 71.5t-173 197t-34 280.5q21 152 109.5 277
t223 196.5t286.5 71.5zM711 991q-187 0 -333.5 -122t-184.5 -308h911q14 187 -97 308.5t-296 121.5z" />
    <glyph glyph-name="Ebreve" unicode="&#x114;" horiz-adv-x="1216" 
d="M795 1552q-102 0 -161.5 68t-45.5 170h67q-9 -75 33.5 -124.5t114.5 -49.5q74 0 130.5 49.5t65.5 124.5h70q-13 -101 -92 -169.5t-182 -68.5zM1206 1331h-815l-80 -579h744l-11 -82h-745l-82 -588h823l-12 -82h-911l198 1413h902z" />
    <glyph glyph-name="ebreve" unicode="&#x115;" horiz-adv-x="1280" 
d="M745 1184q-102 0 -161 67.5t-45 169.5h67q-9 -75 33.5 -124.5t114.5 -49.5q74 0 130.5 49.5t65.5 124.5h70q-13 -101 -92.5 -169t-182.5 -68zM721 1069q152 0 266 -71.5t167 -197t32 -278.5q-1 -7 -4 -19l-4 -16h-996q-12 -190 104.5 -312t313.5 -122q133 0 253 58.5
t196 158.5l53 -47q-94 -116 -228.5 -182t-287.5 -66q-159 0 -277 71.5t-173 197t-34 280.5q21 152 109.5 277t223 196.5t286.5 71.5zM711 991q-187 0 -333.5 -122t-184.5 -308h911q14 187 -97 308.5t-296 121.5z" />
    <glyph glyph-name="Edotaccent" unicode="&#x116;" horiz-adv-x="1216" 
d="M801 1597q-28 0 -45 19.5t-13 48.5q3 27 26.5 46.5t51.5 19.5t44.5 -19t13.5 -47q-5 -29 -27 -48.5t-51 -19.5zM1206 1331h-815l-80 -579h744l-11 -82h-745l-82 -588h823l-12 -82h-911l198 1413h902z" />
    <glyph glyph-name="edotaccent" unicode="&#x117;" horiz-adv-x="1280" 
d="M752 1229q-28 0 -45 19t-13 48q3 27 26.5 46.5t51.5 19.5t44 -19t13 -47q-5 -29 -26.5 -48t-50.5 -19zM721 1069q152 0 266 -71.5t167 -197t32 -278.5q-1 -7 -4 -19l-4 -16h-996q-12 -190 104.5 -312t313.5 -122q133 0 253 58.5t196 158.5l53 -47q-94 -116 -228.5 -182
t-287.5 -66q-159 0 -277 71.5t-173 197t-34 280.5q21 152 109.5 277t223 196.5t286.5 71.5zM711 991q-187 0 -333.5 -122t-184.5 -308h911q14 187 -97 308.5t-296 121.5z" />
    <glyph glyph-name="Eogonek" unicode="&#x118;" horiz-adv-x="1216" 
d="M1206 1331h-815l-80 -579h744l-11 -82h-745l-82 -588h823l-12 -82h-8q-107 -46 -174 -107.5t-76 -128.5q-7 -53 23.5 -87.5t83.5 -34.5q63 0 112 32l17 -53q-67 -43 -150 -43q-78 0 -123.5 50t-34.5 124q12 75 78 141.5t166 106.5h-825l198 1413h902z" />
    <glyph glyph-name="eogonek" unicode="&#x119;" horiz-adv-x="1280" 
d="M721 1069q152 0 266 -71.5t167 -197t32 -278.5q-1 -7 -4 -19l-4 -16h-996q-12 -190 104.5 -312t313.5 -122q133 0 253 58.5t196 158.5l53 -47q-101 -125 -254 -192q-199 -131 -217 -258q-7 -57 23.5 -93t84.5 -36q69 0 125 43l19 -52q-66 -57 -166 -57q-78 0 -124 52
t-34 130q14 122 152 228q-67 -13 -125 -13q-159 0 -277 71.5t-173 197t-34 280.5q21 152 109.5 277t223 196.5t286.5 71.5zM711 991q-187 0 -333.5 -122t-184.5 -308h911q14 187 -97 308.5t-296 121.5z" />
    <glyph glyph-name="Ecaron" unicode="&#x11a;" horiz-adv-x="1216" 
d="M850 1573h-105l-174 237h82l152 -190l205 190h82zM1206 1331h-815l-80 -579h744l-11 -82h-745l-82 -588h823l-12 -82h-911l198 1413h902z" />
    <glyph glyph-name="ecaron" unicode="&#x11b;" horiz-adv-x="1280" 
d="M801 1204h-105l-174 238h82l152 -191l205 191h81zM721 1069q152 0 266 -71.5t167 -197t32 -278.5q-1 -7 -4 -19l-4 -16h-996q-12 -190 104.5 -312t313.5 -122q133 0 253 58.5t196 158.5l53 -47q-94 -116 -228.5 -182t-287.5 -66q-159 0 -277 71.5t-173 197t-34 280.5
q21 152 109.5 277t223 196.5t286.5 71.5zM711 991q-187 0 -333.5 -122t-184.5 -308h911q14 187 -97 308.5t-296 121.5z" />
    <glyph glyph-name="Gcircumflex" unicode="&#x11c;" horiz-adv-x="1650" 
d="M1016 1763l-203 -190h-82l242 237h102l176 -237h-82zM938 709h641l-2 -29q-28 -199 -143.5 -360.5t-292 -253t-377.5 -91.5q-154 0 -282.5 56.5t-211.5 153.5t-120 232.5t-15 289.5q28 205 147 372.5t301 263t388 95.5q190 0 337.5 -83t225.5 -227l-74 -51
q-69 129 -199 203t-300 74q-136 0 -262.5 -49.5t-224 -135t-164 -206t-85.5 -256.5q-26 -182 37 -330.5t199 -233t317 -84.5q257 0 456 162t245 410h-551z" />
    <glyph glyph-name="gcircumflex" unicode="&#x11d;" horiz-adv-x="1146" 
d="M713 1395l-203 -191h-82l242 238h102l176 -238h-82zM1143 1159h74l-11 -78h-69q-68 0 -114.5 -39.5t-55.5 -105.5l-2 -12q97 -124 73 -303q-26 -190 -176.5 -318.5t-347.5 -128.5q-148 0 -252 74q-44 -20 -75 -62t-37 -88q-9 -71 35.5 -113t129.5 -42h428
q140 0 218.5 -67.5t68.5 -182.5l-86 -17q10 85 -51 136t-172 51h-428q-116 0 -179 60t-51 157q9 65 50.5 122.5t99.5 86.5q-61 61 -87 147t-13 185q28 192 178 320t348 128q158 0 270 -88q19 80 83 129t151 49zM954 621q22 158 -71 264t-254 106q-163 0 -285.5 -106
t-144.5 -264q-22 -157 70.5 -263t254.5 -106q161 0 284 106t146 263z" />
    <glyph glyph-name="Gbreve" unicode="&#x11e;" horiz-adv-x="1650" 
d="M987 1552q-102 0 -161.5 68t-45.5 170h68q-9 -75 33 -124.5t114 -49.5q74 0 131 50t66 124h70q-13 -101 -92.5 -169.5t-182.5 -68.5zM938 709h641l-2 -29q-28 -199 -143.5 -360.5t-292 -253t-377.5 -91.5q-154 0 -282.5 56.5t-211.5 153.5t-120 232.5t-15 289.5
q28 205 147 372.5t301 263t388 95.5q190 0 337.5 -83t225.5 -227l-74 -51q-69 129 -199 203t-300 74q-136 0 -262.5 -49.5t-224 -135t-164 -206t-85.5 -256.5q-26 -182 37 -330.5t199 -233t317 -84.5q257 0 456 162t245 410h-551z" />
    <glyph glyph-name="gbreve" unicode="&#x11f;" horiz-adv-x="1146" 
d="M684 1184q-103 0 -162 68t-45 169h68q-9 -75 33 -124.5t114 -49.5q74 0 131 50t66 124h69q-13 -101 -92 -169t-182 -68zM1143 1159h74l-11 -78h-69q-68 0 -114.5 -39.5t-55.5 -105.5l-2 -12q97 -124 73 -303q-26 -190 -176.5 -318.5t-347.5 -128.5q-148 0 -252 74
q-44 -20 -75 -62t-37 -88q-9 -71 35.5 -113t129.5 -42h428q140 0 218.5 -67.5t68.5 -182.5l-86 -17q10 85 -51 136t-172 51h-428q-116 0 -179 60t-51 157q9 65 50.5 122.5t99.5 86.5q-61 61 -87 147t-13 185q28 192 178 320t348 128q158 0 270 -88q19 80 83 129t151 49z
M954 621q22 158 -71 264t-254 106q-163 0 -285.5 -106t-144.5 -264q-22 -157 70.5 -263t254.5 -106q161 0 284 106t146 263z" />
    <glyph glyph-name="Gdotaccent" unicode="&#x120;" horiz-adv-x="1650" 
d="M993 1597q-28 0 -44.5 19.5t-12.5 48.5q3 27 26.5 46.5t51.5 19.5t44 -19t13 -47q-5 -29 -27 -48.5t-51 -19.5zM938 709h641l-2 -29q-28 -199 -143.5 -360.5t-292 -253t-377.5 -91.5q-154 0 -282.5 56.5t-211.5 153.5t-120 232.5t-15 289.5q28 205 147 372.5t301 263
t388 95.5q190 0 337.5 -83t225.5 -227l-74 -51q-69 129 -199 203t-300 74q-136 0 -262.5 -49.5t-224 -135t-164 -206t-85.5 -256.5q-26 -182 37 -330.5t199 -233t317 -84.5q257 0 456 162t245 410h-551z" />
    <glyph glyph-name="gdotaccent" unicode="&#x121;" horiz-adv-x="1146" 
d="M690 1229q-28 0 -44.5 19t-12.5 48q3 27 26.5 46.5t51.5 19.5t44 -19t13 -47q-4 -29 -26.5 -48t-51.5 -19zM1143 1159h74l-11 -78h-69q-68 0 -114.5 -39.5t-55.5 -105.5l-2 -12q97 -124 73 -303q-26 -190 -176.5 -318.5t-347.5 -128.5q-148 0 -252 74q-44 -20 -75 -62
t-37 -88q-9 -71 35.5 -113t129.5 -42h428q140 0 218.5 -67.5t68.5 -182.5l-86 -17q10 85 -51 136t-172 51h-428q-116 0 -179 60t-51 157q9 65 50.5 122.5t99.5 86.5q-61 61 -87 147t-13 185q28 192 178 320t348 128q158 0 270 -88q19 80 83 129t151 49zM954 621
q22 158 -71 264t-254 106q-163 0 -285.5 -106t-144.5 -264q-22 -157 70.5 -263t254.5 -106q161 0 284 106t146 263z" />
    <glyph glyph-name="uni0122" unicode="&#x122;" horiz-adv-x="1650" 
d="M938 709h641l-2 -29q-28 -199 -143.5 -360.5t-292 -253t-377.5 -91.5q-154 0 -282.5 56.5t-211.5 153.5t-120 232.5t-15 289.5q28 205 147 372.5t301 263t388 95.5q190 0 337.5 -83t225.5 -227l-74 -51q-69 129 -199 203t-300 74q-136 0 -262.5 -49.5t-224 -135
t-164 -206t-85.5 -256.5q-26 -182 37 -330.5t199 -233t317 -84.5q257 0 456 162t245 410h-551zM625 -436l96 280h90l-119 -280h-67z" />
    <glyph glyph-name="uni0123" unicode="&#x123;" horiz-adv-x="1146" 
d="M797 1468l-99 -282h-90l121 282h68zM1143 1159h74l-11 -78h-69q-68 0 -114.5 -39.5t-55.5 -105.5l-2 -12q97 -124 73 -303q-26 -190 -176.5 -318.5t-347.5 -128.5q-148 0 -252 74q-44 -20 -75 -62t-37 -88q-9 -71 35.5 -113t129.5 -42h428q140 0 218.5 -67.5t68.5 -182.5
l-86 -17q10 85 -51 136t-172 51h-428q-116 0 -179 60t-51 157q9 65 50.5 122.5t99.5 86.5q-61 61 -87 147t-13 185q28 192 178 320t348 128q158 0 270 -88q19 80 83 129t151 49zM954 621q22 158 -71 264t-254 106q-163 0 -285.5 -106t-144.5 -264q-22 -157 70.5 -263
t254.5 -106q161 0 284 106t146 263z" />
    <glyph glyph-name="Hcircumflex" unicode="&#x124;" horiz-adv-x="1513" 
d="M932 1763l-203 -190h-82l242 237h102l176 -237h-82zM1360 1413h88l-199 -1413h-88l94 670h-956l-94 -670h-88l198 1413h88l-92 -661h957z" />
    <glyph glyph-name="hcircumflex" unicode="&#x125;" horiz-adv-x="1282" 
d="M385 1769l-203 -190h-82l242 238h102l177 -238h-82zM754 1069q201 0 305.5 -121.5t75.5 -322.5l-86 -625h-82l84 604q25 174 -65.5 279.5t-264.5 105.5q-178 0 -302 -103t-153 -272l-86 -614h-82l207 1475h82l-92 -656q72 119 191.5 184.5t267.5 65.5z" />
    <glyph glyph-name="Hbar" unicode="&#x126;" horiz-adv-x="1513" 
d="M1532 1130l-10 -63h-123l-150 -1067h-88l94 670h-956l-94 -670h-88l149 1067h-116l8 63h118l39 283h88l-38 -283h956l39 283h88l-39 -283h123zM1268 752l43 315h-957l-43 -315h957z" />
    <glyph glyph-name="hbar" unicode="&#x127;" horiz-adv-x="1282" 
d="M754 1069q201 0 305.5 -121.5t75.5 -322.5l-86 -625h-82l84 604q25 174 -65.5 279.5t-264.5 105.5q-178 0 -302 -103t-153 -272l-86 -614h-82l170 1212h-168l9 64h167l29 199h82l-29 -199h312l-11 -64h-309l-55 -393q72 119 191.5 184.5t267.5 65.5z" />
    <glyph glyph-name="Itilde" unicode="&#x128;" horiz-adv-x="468" 
d="M528 1587q-37 0 -67 14.5t-51 35t-41.5 40.5t-46.5 34.5t-56 14.5q-52 0 -92.5 -36.5t-48.5 -90.5h-64q11 84 69.5 139.5t137.5 55.5q37 0 67 -14.5t51.5 -35t41.5 -40.5t46.5 -34.5t57.5 -14.5q53 0 93.5 36.5t46.5 90.5h65q-11 -84 -69.5 -139.5t-139.5 -55.5zM117 0
l198 1413h88l-198 -1413h-88z" />
    <glyph glyph-name="itilde" unicode="&#x129;" horiz-adv-x="423" 
d="M455 1219q-37 0 -67 14.5t-51 35t-41.5 40.5t-46.5 34.5t-56 14.5q-53 0 -94 -36.5t-48 -90.5h-63q11 84 69.5 139t137.5 55q37 0 67 -14.5t51.5 -35t41.5 -40.5t46.5 -34.5t57.5 -14.5q53 0 93 36.5t46 90.5h66q-11 -84 -69.5 -139t-139.5 -55zM98 0l148 1044h82
l-148 -1044h-82z" />
    <glyph glyph-name="Imacron" unicode="&#x12a;" horiz-adv-x="468" 
d="M174 1612l10 74h428l-10 -74h-428zM117 0l198 1413h88l-198 -1413h-88z" />
    <glyph glyph-name="imacron" unicode="&#x12b;" horiz-adv-x="423" 
d="M100 1243l11 74h428l-11 -74h-428zM98 0l148 1044h82l-148 -1044h-82z" />
    <glyph glyph-name="Ibreve" unicode="&#x12c;" horiz-adv-x="468" 
d="M379 1552q-102 0 -161.5 68t-45.5 170h68q-9 -75 33 -124.5t114 -49.5q74 0 131 50t66 124h69q-13 -101 -92 -169.5t-182 -68.5zM117 0l198 1413h88l-198 -1413h-88z" />
    <glyph glyph-name="ibreve" unicode="&#x12d;" horiz-adv-x="423" 
d="M305 1184q-103 0 -162 68t-45 169h68q-9 -75 33 -124.5t114 -49.5q74 0 131 50t66 124h70q-13 -101 -92.5 -169t-182.5 -68zM98 0l148 1044h82l-148 -1044h-82z" />
    <glyph glyph-name="Iogonek" unicode="&#x12e;" horiz-adv-x="468" 
d="M315 1413h88l-198 -1413h-2q-107 -46 -174 -107.5t-76 -128.5q-7 -54 23 -88t83 -34q64 0 113 32l16 -53q-67 -43 -149 -43q-78 0 -123.5 50t-34.5 124q12 75 78 141.5t166 106.5h-8z" />
    <glyph glyph-name="iogonek" unicode="&#x12f;" horiz-adv-x="423" 
d="M332 1362q28 0 44 -19t13 -47q-4 -29 -26.5 -48t-51.5 -19q-28 0 -44.5 19t-12.5 48q3 27 26.5 46.5t51.5 19.5zM98 0l148 1044h82l-148 -1044h-2q-107 -46 -174 -107.5t-76 -128.5q-7 -53 23.5 -87.5t83.5 -34.5q63 0 112 32l17 -53q-67 -43 -150 -43q-78 0 -123 50
t-34 124q12 75 77.5 141.5t165.5 106.5h-2z" />
    <glyph glyph-name="Idotaccent" unicode="&#x130;" horiz-adv-x="468" 
d="M385 1597q-28 0 -44.5 19.5t-12.5 48.5q3 27 26.5 46.5t51.5 19.5t44 -19t13 -47q-5 -29 -27 -48.5t-51 -19.5zM117 0l198 1413h88l-198 -1413h-88z" />
    <glyph glyph-name="dotlessi" unicode="&#x131;" horiz-adv-x="423" 
d="M98 0l148 1044h82l-148 -1044h-82z" />
    <glyph glyph-name="IJ" unicode="&#x132;" horiz-adv-x="1337" 
d="M117 0l198 1413h88l-198 -1413h-88zM709 -25q-126 0 -244 66l14 90q109 -72 236 -72q144 0 242.5 88t119.5 228l146 1038h86l-146 -1042q-25 -174 -151 -285t-303 -111z" />
    <glyph glyph-name="ij" unicode="&#x133;" horiz-adv-x="862" 
d="M324 1313q-29 0 -45 18.5t-13 46.5q3 27 25.5 46.5t50.5 19.5t44 -19t13 -47q-5 -28 -26 -46.5t-49 -18.5zM760 1313q-28 0 -43.5 18.5t-11.5 46.5q3 28 25 47t50 19q27 0 43 -19t13 -47q-3 -27 -25.5 -46t-50.5 -19zM98 0l148 1044h82l-148 -1044h-82zM326 -414
q-68 0 -117 27l10 76q42 -27 103 -27q165 0 190 176l170 1206h82l-170 -1216q-18 -120 -88.5 -181t-179.5 -61z" />
    <glyph glyph-name="Jcircumflex" unicode="&#x134;" horiz-adv-x="868" 
d="M1079 1573h-82l-153 190l-203 -190h-82l242 237h102zM608 375l146 1038h86l-146 -1042q-25 -174 -151 -285t-303 -111q-126 0 -244 66l14 90q109 -72 236 -72q144 0 242.5 88t119.5 228z" />
    <glyph glyph-name="jcircumflex" unicode="&#x135;" horiz-adv-x="438" 
d="M584 1204h-82l-154 191l-203 -191h-82l242 238h103zM88 -162l170 1206h82l-170 -1216q-18 -120 -88.5 -181t-179.5 -61q-68 0 -117 27l10 76q42 -27 103 -27q165 0 190 176z" />
    <glyph glyph-name="uni0136" unicode="&#x136;" horiz-adv-x="1275" 
d="M1389 1413l-816 -690l635 -723h-118l-588 664l-232 -197l-65 -467h-88l198 1413h88l-116 -829l985 829h117zM457 -436l96 280h90l-119 -280h-67z" />
    <glyph glyph-name="uni0137" unicode="&#x137;" horiz-adv-x="1024" 
d="M1055 1044l-559 -501l426 -543h-111l-383 483l-207 -184l-41 -299h-82l207 1475h82l-149 -1069l708 638h109zM338 -436l96 280h90l-118 -280h-68z" />
    <glyph glyph-name="Lacute" unicode="&#x139;" horiz-adv-x="1116" 
d="M688 1810l-272 -237h-92l251 237h113zM217 82h762l-12 -82h-850l198 1413h88z" />
    <glyph glyph-name="lacute" unicode="&#x13a;" horiz-adv-x="423" 
d="M301 1579l252 238h113l-273 -238h-92zM98 0l207 1475h82l-207 -1475h-82z" />
    <glyph glyph-name="uni013B" unicode="&#x13b;" horiz-adv-x="1116" 
d="M217 82h762l-12 -82h-850l198 1413h88zM391 -436l96 280h91l-119 -280h-68z" />
    <glyph glyph-name="uni013C" unicode="&#x13c;" horiz-adv-x="423" 
d="M98 0l207 1475h82l-207 -1475h-82zM-4 -436l96 280h90l-119 -280h-67z" />
    <glyph glyph-name="Lcaron" unicode="&#x13d;" horiz-adv-x="1116" 
d="M217 82h762l-12 -82h-850l198 1413h88zM780 1413l-112 -366h-64l94 366h82z" />
    <glyph glyph-name="lcaron" unicode="&#x13e;" horiz-adv-x="518" 
d="M98 0l207 1475h82l-207 -1475h-82zM485 1108l95 367h82l-111 -367h-66z" />
    <glyph glyph-name="Ldot" unicode="&#x13f;" horiz-adv-x="1116" 
d="M217 82h762l-12 -82h-850l198 1413h88zM606 645q-28 0 -44.5 19.5t-12.5 48.5q3 29 25 49t51 20t46.5 -20t14.5 -49q-4 -29 -27.5 -48.5t-52.5 -19.5z" />
    <glyph glyph-name="ldot" unicode="&#x140;" horiz-adv-x="618" 
d="M98 0l207 1475h82l-207 -1475h-82zM481 668q-29 0 -46 20t-13 49q3 29 26.5 49.5t51.5 20.5q29 0 45.5 -20t13.5 -50q-5 -29 -27 -49t-51 -20z" />
    <glyph glyph-name="Lslash" unicode="&#x141;" horiz-adv-x="1116" 
d="M217 82h762l-12 -82h-850l82 586l-156 -101l12 88l156 101l104 739h88l-94 -676l301 195l-12 -88l-301 -195z" />
    <glyph glyph-name="lslash" unicode="&#x142;" horiz-adv-x="581" 
d="M537 911l-13 -82l-164 -104l-102 -725h-82l94 668l-164 -105l11 82l164 105l102 725h82l-94 -668z" />
    <glyph glyph-name="Nacute" unicode="&#x143;" horiz-adv-x="1527" 
d="M1217 1810l-273 -237h-92l252 237h113zM1374 1413h88l-198 -1413h-99l-780 1278l-180 -1278h-88l198 1413h99l780 -1278z" />
    <glyph glyph-name="nacute" unicode="&#x144;" horiz-adv-x="1282" 
d="M1044 1442l-272 -238h-92l252 238h112zM754 1069q201 0 305.5 -121.5t75.5 -322.5l-86 -625h-82l84 604q25 174 -65.5 279.5t-264.5 105.5q-173 0 -297 -98.5t-156 -261.5l-88 -629h-82l148 1044h82l-31 -221q71 117 189.5 181.5t267.5 64.5z" />
    <glyph glyph-name="uni0145" unicode="&#x145;" horiz-adv-x="1527" 
d="M1374 1413h88l-198 -1413h-99l-780 1278l-180 -1278h-88l198 1413h99l780 -1278zM547 -436l96 280h90l-119 -280h-67z" />
    <glyph glyph-name="uni0146" unicode="&#x146;" horiz-adv-x="1282" 
d="M754 1069q201 0 305.5 -121.5t75.5 -322.5l-86 -625h-82l84 604q25 174 -65.5 279.5t-264.5 105.5q-173 0 -297 -98.5t-156 -261.5l-88 -629h-82l148 1044h82l-31 -221q71 117 189.5 181.5t267.5 64.5zM428 -436l96 280h90l-118 -280h-68z" />
    <glyph glyph-name="Ncaron" unicode="&#x147;" horiz-adv-x="1527" 
d="M965 1573h-105l-174 237h82l152 -190l204 190h82zM1374 1413h88l-198 -1413h-99l-780 1278l-180 -1278h-88l198 1413h99l780 -1278z" />
    <glyph glyph-name="ncaron" unicode="&#x148;" horiz-adv-x="1282" 
d="M793 1204h-105l-174 238h82l152 -191l204 191h82zM754 1069q201 0 305.5 -121.5t75.5 -322.5l-86 -625h-82l84 604q25 174 -65.5 279.5t-264.5 105.5q-173 0 -297 -98.5t-156 -261.5l-88 -629h-82l148 1044h82l-31 -221q71 117 189.5 181.5t267.5 64.5z" />
    <glyph glyph-name="Eng" unicode="&#x14a;" horiz-adv-x="1527" 
d="M1462 1413l-198 -1413h-2l-15 -106q-20 -147 -110.5 -220t-237.5 -73l10 82q219 0 252 215l15 102h-11l-780 1278l-180 -1278h-88l198 1413h99l780 -1278l180 1278h88z" />
    <glyph glyph-name="eng" unicode="&#x14b;" horiz-adv-x="1282" 
d="M754 1069q201 0 305.5 -121.5t75.5 -322.5l-101 -731q-21 -147 -111.5 -220t-234.5 -73l12 80q104 0 169.5 53.5t82.5 163.5l99 706q25 174 -65.5 279.5t-264.5 105.5q-173 0 -297 -98.5t-156 -261.5l-88 -629h-82l148 1044h82l-31 -221q71 117 189.5 181.5t267.5 64.5z
" />
    <glyph glyph-name="Omacron" unicode="&#x14c;" horiz-adv-x="1685" 
d="M782 1612l11 74h428l-11 -74h-428zM764 -25q-154 0 -282.5 56.5t-211.5 153.5t-120 232.5t-15 289.5q28 205 147 372.5t301 263t388 95.5t361 -95.5t227.5 -263t44.5 -372.5q-22 -154 -98 -289.5t-187 -232.5t-256 -153.5t-299 -56.5zM778 59q181 0 340 84.5t264 233
t131 330.5q19 136 -13.5 256.5t-106 206t-185.5 135t-247 49.5q-136 0 -262.5 -49.5t-224 -135t-164 -206t-85.5 -256.5q-26 -182 37 -330.5t199 -233t317 -84.5z" />
    <glyph glyph-name="omacron" unicode="&#x14d;" horiz-adv-x="1302" 
d="M539 1243l10 74h428l-10 -74h-428zM573 -25q-154 0 -269.5 71.5t-169 197t-32.5 278.5t110.5 278.5t226 197t290.5 71.5t270 -71.5t170 -197t33 -278.5t-111 -278.5t-227 -197t-291 -71.5zM586 55q199 0 350.5 133.5t179.5 333.5t-85.5 333.5t-311.5 133.5
q-200 0 -352.5 -134t-180.5 -333q-28 -200 86.5 -333.5t313.5 -133.5z" />
    <glyph glyph-name="Obreve" unicode="&#x14e;" horiz-adv-x="1685" 
d="M987 1552q-102 0 -161.5 68t-45.5 170h68q-9 -75 33 -124.5t114 -49.5q74 0 131 50t66 124h70q-13 -101 -92.5 -169.5t-182.5 -68.5zM764 -25q-154 0 -282.5 56.5t-211.5 153.5t-120 232.5t-15 289.5q28 205 147 372.5t301 263t388 95.5t361 -95.5t227.5 -263
t44.5 -372.5q-22 -154 -98 -289.5t-187 -232.5t-256 -153.5t-299 -56.5zM778 59q181 0 340 84.5t264 233t131 330.5q19 136 -13.5 256.5t-106 206t-185.5 135t-247 49.5q-136 0 -262.5 -49.5t-224 -135t-164 -206t-85.5 -256.5q-26 -182 37 -330.5t199 -233t317 -84.5z" />
    <glyph glyph-name="obreve" unicode="&#x14f;" horiz-adv-x="1302" 
d="M745 1184q-102 0 -161 67.5t-45 169.5h67q-9 -75 33.5 -124.5t114.5 -49.5q74 0 130.5 49.5t65.5 124.5h70q-13 -101 -92.5 -169t-182.5 -68zM573 -25q-154 0 -269.5 71.5t-169 197t-32.5 278.5t110.5 278.5t226 197t290.5 71.5t270 -71.5t170 -197t33 -278.5
t-111 -278.5t-227 -197t-291 -71.5zM586 55q199 0 350.5 133.5t179.5 333.5t-85.5 333.5t-311.5 133.5q-200 0 -352.5 -134t-180.5 -333q-28 -200 86.5 -333.5t313.5 -133.5z" />
    <glyph glyph-name="Ohungarumlaut" unicode="&#x150;" horiz-adv-x="1685" 
d="M766 1573l197 237h98l-213 -237h-82zM1120 1573l195 237h98l-213 -237h-80zM764 -25q-154 0 -282.5 56.5t-211.5 153.5t-120 232.5t-15 289.5q28 205 147 372.5t301 263t388 95.5t361 -95.5t227.5 -263t44.5 -372.5q-22 -154 -98 -289.5t-187 -232.5t-256 -153.5
t-299 -56.5zM778 59q181 0 340 84.5t264 233t131 330.5q19 136 -13.5 256.5t-106 206t-185.5 135t-247 49.5q-136 0 -262.5 -49.5t-224 -135t-164 -206t-85.5 -256.5q-26 -182 37 -330.5t199 -233t317 -84.5z" />
    <glyph glyph-name="ohungarumlaut" unicode="&#x151;" horiz-adv-x="1302" 
d="M524 1204l197 238h98l-213 -238h-82zM879 1204l194 238h98l-213 -238h-79zM573 -25q-154 0 -269.5 71.5t-169 197t-32.5 278.5t110.5 278.5t226 197t290.5 71.5t270 -71.5t170 -197t33 -278.5t-111 -278.5t-227 -197t-291 -71.5zM586 55q199 0 350.5 133.5t179.5 333.5
t-85.5 333.5t-311.5 133.5q-200 0 -352.5 -134t-180.5 -333q-28 -200 86.5 -333.5t313.5 -133.5z" />
    <glyph glyph-name="OE" unicode="&#x152;" horiz-adv-x="1957" 
d="M1946 1331h-732l-79 -579h661l-12 -82h-662l-82 -588h742l-13 -82h-1026q-150 0 -274 54t-204 148t-115.5 225t-14.5 280q27 199 141.5 360.5t290 253.5t375.5 92h1016zM952 82l174 1249h-194q-131 0 -253 -48t-215.5 -130.5t-157 -198.5t-81.5 -247
q-19 -131 12.5 -247.5t102 -199t179 -130.5t239.5 -48h194z" />
    <glyph glyph-name="oe" unicode="&#x153;" horiz-adv-x="2295" 
d="M1741 1069q151 0 264 -71.5t164.5 -197t30.5 -280.5l-7 -31h-995q-14 -190 103 -313t313 -123q131 0 249.5 58.5t194.5 156.5l56 -45q-92 -116 -225 -182t-283 -66q-184 0 -311 99t-160 262q-77 -163 -230 -262t-334 -99q-153 0 -268 71.5t-168.5 197t-32.5 278.5
t110.5 278.5t225.5 197t289 71.5q179 0 302.5 -98t156.5 -258q78 160 227.5 258t327.5 98zM1724 991q-185 0 -330.5 -121.5t-185.5 -306.5h910q20 185 -93.5 306.5t-300.5 121.5zM1116 522q28 200 -85.5 333.5t-311.5 133.5q-200 0 -352.5 -134t-180.5 -333
q-28 -200 86.5 -333.5t313.5 -133.5q198 0 350 134t180 333z" />
    <glyph glyph-name="Racute" unicode="&#x154;" horiz-adv-x="1243" 
d="M1073 1810l-272 -237h-92l252 237h112zM1202 1016q-23 -169 -153.5 -282t-300.5 -113h-105l440 -621h-108l-436 621h-246l-88 -621h-88l198 1413h543q170 0 269.5 -114t74.5 -283zM391 1331l-88 -633h453q134 0 235.5 91t120.5 227q20 135 -57 225t-211 90h-453z" />
    <glyph glyph-name="racute" unicode="&#x155;" horiz-adv-x="745" 
d="M829 1442l-272 -238h-92l252 238h112zM293 799q73 124 190 193t260 69h29l-12 -86h-29q-189 0 -318 -115.5t-155 -310.5l-78 -549h-82l148 1044h82z" />
    <glyph glyph-name="uni0156" unicode="&#x156;" horiz-adv-x="1243" 
d="M1202 1016q-23 -169 -153.5 -282t-300.5 -113h-105l440 -621h-108l-436 621h-246l-88 -621h-88l198 1413h543q170 0 269.5 -114t74.5 -283zM391 1331l-88 -633h453q134 0 235.5 91t120.5 227q20 135 -57 225t-211 90h-453zM406 -436l96 280h90l-119 -280h-67z" />
    <glyph glyph-name="uni0157" unicode="&#x157;" horiz-adv-x="745" 
d="M743 1061h29l-12 -86h-29q-189 0 -318 -115.5t-155 -310.5l-78 -549h-82l148 1044h82l-35 -245q73 124 190 193t260 69zM-4 -436l96 280h90l-119 -280h-67z" />
    <glyph glyph-name="Rcaron" unicode="&#x158;" horiz-adv-x="1243" 
d="M821 1573h-104l-174 237h82l151 -190l205 190h82zM1202 1016q-23 -169 -153.5 -282t-300.5 -113h-105l440 -621h-108l-436 621h-246l-88 -621h-88l198 1413h543q170 0 269.5 -114t74.5 -283zM391 1331l-88 -633h453q134 0 235.5 91t120.5 227q20 135 -57 225t-211 90
h-453z" />
    <glyph glyph-name="rcaron" unicode="&#x159;" horiz-adv-x="745" 
d="M578 1204h-105l-174 238h82l151 -191l205 191h82zM293 799q73 124 190 193t260 69h29l-12 -86h-29q-189 0 -318 -115.5t-155 -310.5l-78 -549h-82l148 1044h82z" />
    <glyph glyph-name="Sacute" unicode="&#x15a;" horiz-adv-x="1191" 
d="M694 1573l252 237h113l-273 -237h-92zM537 -25q-154 0 -284 60t-204 164l57 63q66 -92 182.5 -149.5t260.5 -57.5q175 0 303 84.5t147 216.5q5 38 -1.5 72t-19 59.5t-38 49.5t-47 40t-58 32.5t-58.5 25t-61 19t-53.5 14t-46.5 10.5q-66 14 -123 32t-116.5 50.5t-99 73
t-60 100.5t-10.5 131q23 166 171.5 269.5t352.5 103.5q138 0 246.5 -48.5t167.5 -132.5l-55 -63q-45 70 -144.5 117t-224.5 47q-165 0 -285 -81t-139 -208q-8 -59 13 -108.5t56.5 -81t90 -56.5t99.5 -38t97 -23q37 -7 72 -16t84 -26t90 -38t82 -53t67.5 -69.5t39 -89
t4.5 -110.5q-16 -111 -95 -199.5t-199.5 -137t-260.5 -48.5z" />
    <glyph glyph-name="sacute" unicode="&#x15b;" horiz-adv-x="987" 
d="M532 1204l252 238h113l-272 -238h-93zM418 -25q-125 0 -223.5 45t-157.5 123l57 60q50 -72 136.5 -112t197.5 -40q135 0 233 59.5t111 155.5q4 30 -2 55.5t-16.5 44t-35 35.5t-44 28t-56 23.5t-60 19t-66.5 17.5q-47 12 -74.5 20t-69.5 23.5t-66.5 29.5t-53 37
t-42.5 48.5t-21 60.5t-1 76q13 89 74 155t148.5 98t188.5 32q217 0 340 -147l-57 -62q-43 62 -119 97.5t-172 35.5q-124 0 -214 -55.5t-103 -144.5q-4 -31 2 -57t17.5 -45t35.5 -36.5t44.5 -28.5t57.5 -23.5t61 -19.5t67 -18q66 -17 104 -28t90.5 -35.5t78.5 -52t42 -73
t8 -102.5q-20 -136 -144 -217.5t-296 -81.5z" />
    <glyph glyph-name="Scircumflex" unicode="&#x15c;" horiz-adv-x="1191" 
d="M780 1763l-202 -190h-82l241 237h103l176 -237h-82zM653 762q37 -7 72 -16t84 -26t90 -38t82 -53t67.5 -69.5t39 -89t4.5 -110.5q-16 -111 -95 -199.5t-199.5 -137t-260.5 -48.5q-154 0 -284 60t-204 164l57 63q66 -92 182.5 -149.5t260.5 -57.5q175 0 303 84.5
t147 216.5q5 38 -1.5 72t-19 59.5t-38 49.5t-47 40t-58 32.5t-58.5 25t-61 19t-53.5 14t-46.5 10.5q-66 14 -123 32t-116.5 50.5t-99 73t-60 100.5t-10.5 131q23 166 171.5 269.5t352.5 103.5q138 0 246.5 -48.5t167.5 -132.5l-55 -63q-45 70 -144.5 117t-224.5 47
q-165 0 -285 -81t-139 -208q-8 -59 13 -108.5t56.5 -81t90 -56.5t99.5 -38t97 -23z" />
    <glyph glyph-name="scircumflex" unicode="&#x15d;" horiz-adv-x="987" 
d="M618 1395l-202 -191h-82l241 238h103l176 -238h-82zM535 565q66 -17 104 -28t90.5 -35.5t78.5 -52t42 -73t8 -102.5q-20 -136 -144 -217.5t-296 -81.5q-125 0 -223.5 45t-157.5 123l57 60q50 -72 136.5 -112t197.5 -40q135 0 233 59.5t111 155.5q4 30 -2 55.5t-16.5 44
t-35 35.5t-44 28t-56 23.5t-60 19t-66.5 17.5q-47 12 -74.5 20t-69.5 23.5t-66.5 29.5t-53 37t-42.5 48.5t-21 60.5t-1 76q13 89 74 155t148.5 98t188.5 32q217 0 340 -147l-57 -62q-43 62 -119 97.5t-172 35.5q-124 0 -214 -55.5t-103 -144.5q-4 -31 2 -57t17.5 -45
t35.5 -36.5t44.5 -28.5t57.5 -23.5t61 -19.5t67 -18z" />
    <glyph glyph-name="Scedilla" unicode="&#x15e;" horiz-adv-x="1191" 
d="M653 762q37 -7 72 -16t84 -26t90 -38t82 -53t67.5 -69.5t39 -89t4.5 -110.5q-16 -109 -92.5 -196.5t-193 -136.5t-251.5 -52l-55 -61q18 6 41 6q71 0 112 -50t29 -122q-9 -73 -68.5 -123.5t-134.5 -50.5q-54 0 -93.5 26.5t-57.5 71.5l45 35q12 -37 41.5 -58.5t70.5 -21.5
q53 0 93 34.5t47 86.5q8 51 -22 86t-81 35q-47 0 -84 -33l-47 23l103 118q-140 7 -257.5 66.5t-187.5 155.5l57 63q66 -92 182.5 -149.5t260.5 -57.5q175 0 303 84.5t147 216.5q5 38 -1.5 72t-19 59.5t-38 49.5t-47 40t-58 32.5t-58.5 25t-61 19t-53.5 14t-46.5 10.5
q-66 14 -123 32t-116.5 50.5t-99 73t-60 100.5t-10.5 131q23 166 171.5 269.5t352.5 103.5q138 0 246.5 -48.5t167.5 -132.5l-55 -63q-45 70 -144.5 117t-224.5 47q-165 0 -285 -81t-139 -208q-8 -59 13 -108.5t56.5 -81t90 -56.5t99.5 -38t97 -23z" />
    <glyph glyph-name="scedilla" unicode="&#x15f;" horiz-adv-x="987" 
d="M535 565q66 -17 104 -28t90.5 -35.5t78.5 -52t42 -73t8 -102.5q-18 -130 -134.5 -210.5t-279.5 -88.5l-55 -61q18 6 41 6q71 0 112 -50t29 -122q-9 -73 -68 -123.5t-134 -50.5q-55 0 -94.5 26.5t-57.5 71.5l45 35q12 -37 42 -58.5t71 -21.5q53 0 92.5 34.5t46.5 86.5
q8 51 -21.5 86t-80.5 35q-47 0 -84 -33l-47 23l102 116q-115 7 -203.5 51.5t-142.5 116.5l57 60q50 -72 136.5 -112t197.5 -40q135 0 233 59.5t111 155.5q4 30 -2 55.5t-16.5 44t-35 35.5t-44 28t-56 23.5t-60 19t-66.5 17.5q-47 12 -74.5 20t-69.5 23.5t-66.5 29.5t-53 37
t-42.5 48.5t-21 60.5t-1 76q13 89 74 155t148.5 98t188.5 32q217 0 340 -147l-57 -62q-43 62 -119 97.5t-172 35.5q-124 0 -214 -55.5t-103 -144.5q-4 -31 2 -57t17.5 -45t35.5 -36.5t44.5 -28.5t57.5 -23.5t61 -19.5t67 -18z" />
    <glyph glyph-name="Scaron" unicode="&#x160;" horiz-adv-x="1191" 
d="M807 1573h-105l-174 237h82l152 -190l205 190h82zM653 762q37 -7 72 -16t84 -26t90 -38t82 -53t67.5 -69.5t39 -89t4.5 -110.5q-16 -111 -95 -199.5t-199.5 -137t-260.5 -48.5q-154 0 -284 60t-204 164l57 63q66 -92 182.5 -149.5t260.5 -57.5q175 0 303 84.5t147 216.5
q5 38 -1.5 72t-19 59.5t-38 49.5t-47 40t-58 32.5t-58.5 25t-61 19t-53.5 14t-46.5 10.5q-66 14 -123 32t-116.5 50.5t-99 73t-60 100.5t-10.5 131q23 166 171.5 269.5t352.5 103.5q138 0 246.5 -48.5t167.5 -132.5l-55 -63q-45 70 -144.5 117t-224.5 47q-165 0 -285 -81
t-139 -208q-8 -59 13 -108.5t56.5 -81t90 -56.5t99.5 -38t97 -23z" />
    <glyph glyph-name="scaron" unicode="&#x161;" horiz-adv-x="987" 
d="M645 1204h-104l-174 238h82l151 -191l205 191h82zM535 565q66 -17 104 -28t90.5 -35.5t78.5 -52t42 -73t8 -102.5q-20 -136 -144 -217.5t-296 -81.5q-125 0 -223.5 45t-157.5 123l57 60q50 -72 136.5 -112t197.5 -40q135 0 233 59.5t111 155.5q4 30 -2 55.5t-16.5 44
t-35 35.5t-44 28t-56 23.5t-60 19t-66.5 17.5q-47 12 -74.5 20t-69.5 23.5t-66.5 29.5t-53 37t-42.5 48.5t-21 60.5t-1 76q13 89 74 155t148.5 98t188.5 32q217 0 340 -147l-57 -62q-43 62 -119 97.5t-172 35.5q-124 0 -214 -55.5t-103 -144.5q-4 -31 2 -57t17.5 -45
t35.5 -36.5t44.5 -28.5t57.5 -23.5t61 -19.5t67 -18z" />
    <glyph glyph-name="uni0162" unicode="&#x162;" horiz-adv-x="1216" 
d="M578 0h-13l-76 -84q18 6 41 6q71 0 112.5 -50t29.5 -122q-9 -73 -68.5 -123.5t-134.5 -50.5q-55 0 -94.5 26.5t-57.5 71.5l45 35q12 -37 42 -58.5t71 -21.5q53 0 92.5 34.5t46.5 86.5q8 51 -21.5 86t-80.5 35q-47 0 -84 -33l-47 23l121 139h-10l186 1331h-498l13 82h1081
l-12 -82h-498z" />
    <glyph glyph-name="uni0163" unicode="&#x163;" horiz-adv-x="815" 
d="M446 969l-102 -725q-13 -100 30.5 -144.5t137.5 -44.5q84 0 160 39l-10 -78q-84 -41 -175 -41q-20 0 -30 2l-56 -61q18 6 41 6q71 0 112.5 -50t29.5 -122q-9 -73 -68.5 -123.5t-134.5 -50.5q-55 0 -94.5 26.5t-57.5 71.5l45 35q12 -37 42 -58.5t71 -21.5q53 0 92.5 34.5
t46.5 86.5q8 51 -21.5 86t-80.5 35q-47 0 -84 -33l-47 23l108 125q-168 40 -139 245l103 738h-213l12 75h213l41 297h82l-43 -297h348l-10 -75h-349z" />
    <glyph glyph-name="Tcaron" unicode="&#x164;" horiz-adv-x="1216" 
d="M809 1573h-104l-175 237h82l152 -190l205 190h82zM1274 1413l-12 -82h-498l-186 -1331h-86l186 1331h-498l13 82h1081z" />
    <glyph glyph-name="tcaron" unicode="&#x165;" horiz-adv-x="815" 
d="M801 1538l-111 -367h-65l94 367h82zM446 969l-102 -725q-13 -100 30.5 -144.5t137.5 -44.5q84 0 160 39l-10 -78q-84 -41 -175 -41q-126 0 -184.5 63.5t-40.5 192.5l103 738h-213l12 75h213l41 297h82l-43 -297h348l-10 -75h-349z" />
    <glyph glyph-name="Tbar" unicode="&#x166;" horiz-adv-x="1216" 
d="M1262 1331h-498l-84 -606h240l-11 -63h-239l-92 -662h-86l92 662h-234l8 63h236l84 606h-498l13 82h1081z" />
    <glyph glyph-name="tbar" unicode="&#x167;" horiz-adv-x="815" 
d="M795 969h-349l-53 -375h287l-10 -64h-285l-41 -286q-13 -100 30.5 -144.5t137.5 -44.5q84 0 160 39l-10 -78q-84 -41 -175 -41q-126 0 -184.5 63.5t-40.5 192.5l41 299h-192l8 64h194l52 375h-213l12 75h213l41 297h82l-43 -297h348z" />
    <glyph glyph-name="Utilde" unicode="&#x168;" horiz-adv-x="1433" 
d="M1010 1587q-37 0 -67 14.5t-51 35t-41.5 40.5t-46.5 34.5t-56 14.5q-53 0 -94 -36.5t-48 -90.5h-63q11 84 69.5 139.5t137.5 55.5q37 0 67 -14.5t51.5 -35t41.5 -40.5t46.5 -34.5t57.5 -14.5q53 0 93 36.5t46 90.5h66q-11 -84 -69.5 -139.5t-139.5 -55.5zM639 -25
q-159 0 -277.5 73.5t-173 202.5t-32.5 286l123 876h86l-121 -876q-19 -133 27.5 -242.5t147 -172.5t234.5 -63q203 0 358.5 137.5t184.5 340.5l123 876h86l-123 -876q-22 -157 -113.5 -286t-231 -202.5t-298.5 -73.5z" />
    <glyph glyph-name="utilde" unicode="&#x169;" horiz-adv-x="1230" 
d="M858 1219q-37 0 -67 14.5t-51 35t-41.5 40.5t-46.5 34.5t-56 14.5q-52 0 -92.5 -36.5t-48.5 -90.5h-64q11 84 69.5 139t137.5 55q37 0 67 -14.5t51.5 -35t41.5 -40.5t46.5 -34.5t57.5 -14.5q53 0 93 36.5t46 90.5h66q-11 -84 -69.5 -139t-139.5 -55zM537 -25
q-205 0 -313.5 120t-80.5 317l90 632h82l-88 -622q-23 -166 65 -266.5t257 -100.5t286 100.5t140 266.5l88 622h82l-90 -632q-28 -198 -170 -317.5t-348 -119.5z" />
    <glyph glyph-name="Umacron" unicode="&#x16a;" horiz-adv-x="1433" 
d="M655 1612l11 74h428l-11 -74h-428zM639 -25q-159 0 -277.5 73.5t-173 202.5t-32.5 286l123 876h86l-121 -876q-19 -133 27.5 -242.5t147 -172.5t234.5 -63q203 0 358.5 137.5t184.5 340.5l123 876h86l-123 -876q-22 -157 -113.5 -286t-231 -202.5t-298.5 -73.5z" />
    <glyph glyph-name="umacron" unicode="&#x16b;" horiz-adv-x="1230" 
d="M504 1243l10 74h428l-10 -74h-428zM537 -25q-205 0 -313.5 120t-80.5 317l90 632h82l-88 -622q-23 -166 65 -266.5t257 -100.5t286 100.5t140 266.5l88 622h82l-90 -632q-28 -198 -170 -317.5t-348 -119.5z" />
    <glyph glyph-name="Ubreve" unicode="&#x16c;" horiz-adv-x="1433" 
d="M860 1552q-102 0 -161.5 68t-45.5 170h68q-9 -75 33 -124.5t114 -49.5q74 0 131 50t66 124h70q-13 -101 -92.5 -169.5t-182.5 -68.5zM639 -25q-159 0 -277.5 73.5t-173 202.5t-32.5 286l123 876h86l-121 -876q-19 -133 27.5 -242.5t147 -172.5t234.5 -63
q203 0 358.5 137.5t184.5 340.5l123 876h86l-123 -876q-22 -157 -113.5 -286t-231 -202.5t-298.5 -73.5z" />
    <glyph glyph-name="ubreve" unicode="&#x16d;" horiz-adv-x="1230" 
d="M709 1184q-103 0 -162 68t-45 169h67q-9 -75 33.5 -124.5t114.5 -49.5q74 0 130.5 49.5t65.5 124.5h70q-13 -101 -92 -169t-182 -68zM537 -25q-205 0 -313.5 120t-80.5 317l90 632h82l-88 -622q-23 -166 65 -266.5t257 -100.5t286 100.5t140 266.5l88 622h82l-90 -632
q-28 -198 -170 -317.5t-348 -119.5z" />
    <glyph glyph-name="Uring" unicode="&#x16e;" horiz-adv-x="1433" 
d="M858 1542q-61 0 -97 41t-28 103q9 62 57 103.5t111 41.5q61 0 97 -41.5t28 -103.5q-9 -62 -57 -103t-111 -41zM866 1591q39 0 70 28t35 67q6 40 -17 67t-61 27q-39 0 -70 -27.5t-35 -66.5q-6 -40 17 -67.5t61 -27.5zM639 -25q-159 0 -277.5 73.5t-173 202.5t-32.5 286
l123 876h86l-121 -876q-19 -133 27.5 -242.5t147 -172.5t234.5 -63q203 0 358.5 137.5t184.5 340.5l123 876h86l-123 -876q-22 -157 -113.5 -286t-231 -202.5t-298.5 -73.5z" />
    <glyph glyph-name="uring" unicode="&#x16f;" horiz-adv-x="1230" 
d="M705 1174q-61 0 -97 40.5t-28 102.5q9 62 57 103.5t111 41.5q61 0 96.5 -41.5t27.5 -103.5q-9 -62 -56.5 -102.5t-110.5 -40.5zM713 1223q39 0 69.5 27.5t34.5 66.5q6 40 -17 67t-61 27q-39 0 -69.5 -27.5t-34.5 -66.5q-6 -40 17 -67t61 -27zM537 -25q-205 0 -313.5 120
t-80.5 317l90 632h82l-88 -622q-23 -166 65 -266.5t257 -100.5t286 100.5t140 266.5l88 622h82l-90 -632q-28 -198 -170 -317.5t-348 -119.5z" />
    <glyph glyph-name="Uhungarumlaut" unicode="&#x170;" horiz-adv-x="1433" 
d="M641 1573l197 237h98l-213 -237h-82zM995 1573l195 237h98l-213 -237h-80zM639 -25q-159 0 -277.5 73.5t-173 202.5t-32.5 286l123 876h86l-121 -876q-19 -133 27.5 -242.5t147 -172.5t234.5 -63q203 0 358.5 137.5t184.5 340.5l123 876h86l-123 -876
q-22 -157 -113.5 -286t-231 -202.5t-298.5 -73.5z" />
    <glyph glyph-name="uhungarumlaut" unicode="&#x171;" horiz-adv-x="1230" 
d="M489 1204l197 238h98l-213 -238h-82zM844 1204l194 238h99l-213 -238h-80zM537 -25q-205 0 -313.5 120t-80.5 317l90 632h82l-88 -622q-23 -166 65 -266.5t257 -100.5t286 100.5t140 266.5l88 622h82l-90 -632q-28 -198 -170 -317.5t-348 -119.5z" />
    <glyph glyph-name="Uogonek" unicode="&#x172;" horiz-adv-x="1433" 
d="M1319 1413h86l-123 -876q-28 -193 -157 -339.5t-314 -197.5q-101 -45 -162.5 -104.5t-70.5 -124.5q-7 -54 23 -88.5t83 -34.5q63 0 113 33l16 -54q-67 -43 -149 -43q-78 0 -123.5 50t-34.5 124q9 63 57.5 119.5t124.5 99.5q-16 -2 -49 -2q-159 0 -277.5 73.5t-173 202.5
t-32.5 286l123 876h86l-121 -876q-19 -133 27.5 -242.5t147 -172.5t234.5 -63q203 0 358.5 137.5t184.5 340.5z" />
    <glyph glyph-name="uogonek" unicode="&#x173;" horiz-adv-x="1230" 
d="M1063 1044h82l-90 -632q-22 -157 -118.5 -266.5t-242.5 -149.5q-98 -45 -158 -103.5t-69 -121.5q-7 -54 23 -88.5t83 -34.5q63 0 113 33l16 -54q-67 -43 -149 -43q-78 0 -123.5 50t-34.5 124q9 63 58 119.5t125 99.5q-14 -2 -41 -2q-205 0 -313.5 120t-80.5 317l90 632
h82l-88 -622q-23 -166 65 -266.5t257 -100.5t286 100.5t140 266.5z" />
    <glyph glyph-name="Wcircumflex" unicode="&#x174;" horiz-adv-x="2111" 
d="M1229 1763l-203 -190h-82l242 237h102l176 -237h-82zM2071 1413h90l-662 -1413h-92l-242 1292l-608 -1292h-92l-264 1413h94l233 -1304l613 1304h84l245 -1304z" />
    <glyph glyph-name="wcircumflex" unicode="&#x175;" horiz-adv-x="1800" 
d="M1022 1395l-203 -191h-82l242 238h102l176 -238h-81zM1729 1044h90l-545 -1044h-90l-223 952l-492 -952h-90l-250 1044h92l217 -954l494 954h88l223 -950z" />
    <glyph glyph-name="Ycircumflex" unicode="&#x176;" horiz-adv-x="1378" 
d="M862 1763l-203 -190h-81l241 237h103l176 -237h-82zM1366 1413h98l-727 -862l-78 -551h-88l78 551l-485 862h102l441 -776z" />
    <glyph glyph-name="ycircumflex" unicode="&#x177;" horiz-adv-x="1161" 
d="M702 1395l-202 -191h-82l241 238h103l176 -238h-82zM1094 1044h92l-797 -1304q-45 -75 -107 -114.5t-128 -39.5q-55 0 -108 26t-85 69l49 61q24 -34 62.5 -55t81.5 -21q95 0 165 107l142 225l-338 1046h96l303 -952z" />
    <glyph glyph-name="Ydieresis" unicode="&#x178;" horiz-adv-x="1378" 
d="M639 1597q-28 0 -44.5 19t-12.5 47q3 28 25 47t50 19q27 0 43 -19t13 -47q-5 -28 -26 -47t-48 -19zM1042 1597q-28 0 -44 19t-13 47q5 28 26.5 47t49.5 19t44 -19t13 -47q-5 -28 -26.5 -47t-49.5 -19zM1366 1413h98l-727 -862l-78 -551h-88l78 551l-485 862h102l441 -776
z" />
    <glyph glyph-name="Zacute" unicode="&#x179;" horiz-adv-x="1257" 
d="M1079 1810l-272 -237h-92l252 237h112zM1272 1413l-8 -63l-1114 -1268h950l-13 -82h-1064l10 63l1112 1268h-928l12 82h1043z" />
    <glyph glyph-name="zacute" unicode="&#x17a;" horiz-adv-x="1028" 
d="M915 1442l-272 -238h-92l252 238h112zM983 1044l-8 -59l-821 -907h708l-12 -78h-819l10 59l819 908h-686l12 77h797z" />
    <glyph glyph-name="Zdotaccent" unicode="&#x17b;" horiz-adv-x="1257" 
d="M776 1597q-28 0 -44.5 19.5t-12.5 48.5q3 27 26.5 46.5t51.5 19.5t44 -19t13 -47q-5 -29 -27 -48.5t-51 -19.5zM1272 1413l-8 -63l-1114 -1268h950l-13 -82h-1064l10 63l1112 1268h-928l12 82h1043z" />
    <glyph glyph-name="zdotaccent" unicode="&#x17c;" horiz-adv-x="1028" 
d="M612 1229q-28 0 -44.5 19t-12.5 48q3 27 26.5 46.5t51.5 19.5t44 -19t13 -47q-4 -29 -26.5 -48t-51.5 -19zM983 1044l-8 -59l-821 -907h708l-12 -78h-819l10 59l819 908h-686l12 77h797z" />
    <glyph glyph-name="Zcaron" unicode="&#x17d;" horiz-adv-x="1257" 
d="M825 1573h-104l-174 237h82l151 -190l205 190h82zM1272 1413l-8 -63l-1114 -1268h950l-13 -82h-1064l10 63l1112 1268h-928l12 82h1043z" />
    <glyph glyph-name="zcaron" unicode="&#x17e;" horiz-adv-x="1028" 
d="M662 1204h-105l-174 238h82l151 -191l205 191h82zM983 1044l-8 -59l-821 -907h708l-12 -78h-819l10 59l819 908h-686l12 77h797z" />
    <glyph glyph-name="florin" unicode="&#x192;" horiz-adv-x="978" 
d="M1034 1329q-156 0 -236.5 -59.5t-125.5 -202.5l-101 -317h267l-13 -78h-278l-232 -738q-56 -175 -160 -249t-300 -74l12 84q156 0 236.5 59.5t125.5 202.5l226 715h-252l10 78h266l107 340q54 175 158.5 249t302.5 74z" />
    <glyph glyph-name="uni01C4" unicode="&#x1c4;" horiz-adv-x="2729" 
d="M2298 1573h-103l-176 237h82l152 -192l205 192h82zM852 1413q200 0 349.5 -92t218.5 -253.5t42 -360.5q-28 -199 -143 -361t-290.5 -254t-375.5 -92h-536l198 1413h537zM2744 1413l-8 -63l-1114 -1268h950l-12 -82h-1065l10 63l1112 1268h-927l12 82h1042zM1372 707
q24 176 -36.5 319t-191 224t-304.5 81h-449l-174 -1249h447q174 0 327.5 81.5t254.5 224.5t126 319z" />
    <glyph glyph-name="uni01C5" unicode="&#x1c5;" horiz-adv-x="2574" 
d="M2208 1204h-105l-174 238h80l152 -193l204 193h82zM852 1413q200 0 349.5 -92t218.5 -253.5t42 -360.5q-28 -199 -143 -361t-290.5 -254t-375.5 -92h-536l198 1413h537zM1372 707q24 176 -36.5 319t-191 224t-304.5 81h-449l-174 -1249h447q174 0 327.5 81.5t254.5 224.5
t126 319zM2527 1044l-8 -59l-821 -907h708l-12 -78h-819l10 59l819 908h-686l13 77h796z" />
    <glyph glyph-name="uni01C6" unicode="&#x1c6;" horiz-adv-x="2400" 
d="M1151 762l100 713h82l-207 -1475h-82l39 281q-83 -140 -221.5 -223t-300.5 -83q-151 0 -264 71.5t-164.5 196.5t-30.5 279q21 153 109 278.5t221.5 197t284.5 71.5q162 0 277 -83.5t157 -223.5zM2034 1204h-105l-174 238h80l152 -193l204 193h82zM2353 1044l-8 -59
l-821 -907h708l-12 -78h-819l10 59l819 908h-686l12 77h797zM586 55q193 0 343 126.5t185 318.5l6 43q19 192 -94.5 319t-306.5 127q-199 0 -351 -133.5t-180 -333.5q-18 -131 27.5 -238t143 -168t227.5 -61z" />
    <glyph glyph-name="uni01C7" unicode="&#x1c7;" horiz-adv-x="1970" 
d="M403 1413l-186 -1331h762l-12 -82h-850l198 1413h88zM1855 1413h87l-146 -1042q-25 -174 -151 -285t-304 -111q-125 0 -243 66l14 90q109 -72 236 -72q144 0 242.5 88t119.5 228z" />
    <glyph glyph-name="uni01C8" unicode="&#x1c8;" horiz-adv-x="1558" 
d="M1477 1444q27 0 42.5 -19t12.5 -47q-3 -27 -25.5 -46t-50.5 -19t-43.5 18.5t-11.5 46.5q3 27 25.5 46.5t50.5 19.5zM979 82l-12 -82h-850l198 1413h88l-186 -1331h762zM1208 -162l170 1206h82l-170 -1216q-18 -120 -88.5 -181t-179.5 -61q-68 0 -117 27l10 76
q42 -27 103 -27q165 0 190 176z" />
    <glyph glyph-name="uni01C9" unicode="&#x1c9;" horiz-adv-x="862" 
d="M98 0l207 1475h82l-207 -1475h-82zM760 1313q-28 0 -43.5 18.5t-11.5 46.5q3 28 25 47t50 19q27 0 43 -19t13 -47q-3 -27 -25.5 -46t-50.5 -19zM326 -414q-68 0 -117 27l10 76q42 -27 103 -27q165 0 190 176l170 1206h82l-170 -1216q-18 -120 -88.5 -181t-179.5 -61z" />
    <glyph glyph-name="uni01CA" unicode="&#x1ca;" horiz-adv-x="2396" 
d="M1194 135l180 1278h88l-198 -1413h-99l-780 1278l-180 -1278h-88l198 1413h99zM2281 1413h86l-145 -1042q-25 -174 -151 -285t-304 -111q-125 0 -243 66l14 90q109 -72 236 -72q144 0 242.5 88t119.5 228z" />
    <glyph glyph-name="uni01CB" unicode="&#x1cb;" horiz-adv-x="1966" 
d="M1884 1444q27 0 42.5 -19t12.5 -47q-3 -27 -25 -46t-50 -19t-44 18.5t-12 46.5q3 27 25.5 46.5t50.5 19.5zM1374 1413h88l-198 -1413h-99l-780 1278l-180 -1278h-88l198 1413h99l780 -1278zM1616 -162l170 1206h82l-170 -1216q-18 -120 -88.5 -181t-179.5 -61
q-68 0 -117 27l10 76q42 -27 102 -27q166 0 191 176z" />
    <glyph glyph-name="uni01CC" unicode="&#x1cc;" horiz-adv-x="1720" 
d="M1638 1444q27 0 43 -19t13 -47q-3 -27 -25.5 -46t-50.5 -19t-43.5 18.5t-11.5 46.5q3 28 25 47t50 19zM754 1069q201 0 305.5 -121.5t75.5 -322.5l-86 -625h-82l84 604q25 174 -65.5 279.5t-264.5 105.5q-173 0 -297 -98.5t-156 -261.5l-88 -629h-82l148 1044h82
l-31 -221q71 117 189.5 181.5t267.5 64.5zM1370 -162l170 1206h82l-170 -1216q-18 -120 -88.5 -181t-179.5 -61q-68 0 -117 27l10 76q42 -27 103 -27q165 0 190 176z" />
    <glyph glyph-name="uni01CD" unicode="&#x1cd;" horiz-adv-x="1449" 
d="M924 1573h-105l-174 237h82l152 -190l204 190h82zM1214 0l-118 416h-774l-236 -416h-96l807 1413h106l410 -1413h-99zM369 496h702l-235 823z" />
    <glyph glyph-name="uni01CE" unicode="&#x1ce;" 
d="M836 1204h-105l-174 238h82l152 -191l204 191h82zM1192 1044h82l-148 -1044h-82l39 283q-81 -140 -220.5 -224t-301.5 -84q-151 0 -264 71.5t-164.5 196.5t-30.5 279q21 153 109 278.5t221.5 197t284.5 71.5q163 0 277.5 -83t156.5 -224zM586 55q199 0 351 132.5
t181 332.5v2q28 200 -86 333.5t-313 133.5t-351 -133.5t-180 -333.5q-18 -131 27.5 -238t143 -168t227.5 -61z" />
    <glyph glyph-name="Gcaron" unicode="&#x1e6;" horiz-adv-x="1650" 
d="M1042 1573h-104l-174 237h82l151 -190l205 190h82zM938 709h641l-2 -29q-28 -199 -143.5 -360.5t-292 -253t-377.5 -91.5q-154 0 -282.5 56.5t-211.5 153.5t-120 232.5t-15 289.5q28 205 147 372.5t301 263t388 95.5q190 0 337.5 -83t225.5 -227l-74 -51
q-69 129 -199 203t-300 74q-136 0 -262.5 -49.5t-224 -135t-164 -206t-85.5 -256.5q-26 -182 37 -330.5t199 -233t317 -84.5q257 0 456 162t245 410h-551z" />
    <glyph glyph-name="gcaron" unicode="&#x1e7;" horiz-adv-x="1146" 
d="M739 1204h-104l-174 238h82l151 -191l205 191h82zM1143 1159h74l-11 -78h-69q-68 0 -114.5 -39.5t-55.5 -105.5l-2 -12q97 -124 73 -303q-26 -190 -176.5 -318.5t-347.5 -128.5q-148 0 -252 74q-44 -20 -75 -62t-37 -88q-9 -71 35.5 -113t129.5 -42h428
q140 0 218.5 -67.5t68.5 -182.5l-86 -17q10 85 -51 136t-172 51h-428q-116 0 -179 60t-51 157q9 65 50.5 122.5t99.5 86.5q-61 61 -87 147t-13 185q28 192 178 320t348 128q158 0 270 -88q19 80 83 129t151 49zM954 621q22 158 -71 264t-254 106q-163 0 -285.5 -106
t-144.5 -264q-22 -157 70.5 -263t254.5 -106q161 0 284 106t146 263z" />
    <glyph glyph-name="uni01EA" unicode="&#x1ea;" horiz-adv-x="1685" 
d="M971 1438q206 0 361 -95.5t227.5 -263t44.5 -372.5q-36 -257 -211 -449t-422 -256q-103 -46 -167 -105.5t-73 -125.5q-7 -54 23.5 -88.5t83.5 -34.5q62 0 112 33l17 -54q-67 -43 -150 -43q-78 0 -123.5 50t-34.5 124q10 64 60 122t127 100q-68 -5 -82 -5
q-154 0 -282.5 56.5t-211.5 153.5t-120 232.5t-15 289.5q28 205 147 372.5t301 263t388 95.5zM1513 707q19 136 -13.5 256.5t-106 206t-185.5 135t-247 49.5q-136 0 -262.5 -49.5t-224 -135t-164 -206t-85.5 -256.5q-26 -182 37 -330.5t199 -233t317 -84.5t340 84.5t264 233
t131 330.5z" />
    <glyph glyph-name="uni01EB" unicode="&#x1eb;" horiz-adv-x="1302" 
d="M729 1069q154 0 270 -71.5t170 -197t33 -278.5q-26 -188 -152 -330t-307 -192q-101 -45 -162.5 -104.5t-70.5 -124.5q-7 -54 23 -88.5t83 -34.5q63 0 113 33l16 -54q-67 -43 -149 -43q-78 0 -123.5 50t-34.5 124q9 63 58 119.5t125 99.5q-14 -2 -48 -2
q-154 0 -269.5 71.5t-169 197t-32.5 278.5t110.5 278.5t226 197t290.5 71.5zM1116 522q28 200 -85.5 333.5t-311.5 133.5q-200 0 -352.5 -134t-180.5 -333q-28 -200 86.5 -333.5t313.5 -133.5t350.5 133.5t179.5 333.5z" />
    <glyph glyph-name="uni01F1" unicode="&#x1f1;" horiz-adv-x="2729" 
d="M852 1413q200 0 349.5 -92t218.5 -253.5t42 -360.5q-28 -199 -143 -361t-290.5 -254t-375.5 -92h-536l198 1413h537zM2744 1413l-8 -63l-1114 -1268h950l-12 -82h-1065l10 63l1112 1268h-927l12 82h1042zM1372 707q24 176 -36.5 319t-191 224t-304.5 81h-449l-174 -1249
h447q174 0 327.5 81.5t254.5 224.5t126 319z" />
    <glyph glyph-name="uni01F2" unicode="&#x1f2;" horiz-adv-x="2574" 
d="M852 1413q200 0 349.5 -92t218.5 -253.5t42 -360.5q-28 -199 -143 -361t-290.5 -254t-375.5 -92h-536l198 1413h537zM1372 707q24 176 -36.5 319t-191 224t-304.5 81h-449l-174 -1249h447q174 0 327.5 81.5t254.5 224.5t126 319zM2527 1044l-8 -59l-821 -907h708l-12 -78
h-819l10 59l819 908h-686l13 77h796z" />
    <glyph glyph-name="uni01F3" unicode="&#x1f3;" horiz-adv-x="2400" 
d="M1151 762l100 713h82l-207 -1475h-82l39 281q-83 -140 -221.5 -223t-300.5 -83q-151 0 -264 71.5t-164.5 196.5t-30.5 279q21 153 109 278.5t221.5 197t284.5 71.5q162 0 277 -83.5t157 -223.5zM2353 1044l-8 -59l-821 -907h708l-12 -78h-819l10 59l819 908h-686l12 77
h797zM586 55q193 0 343 126.5t185 318.5l6 43q19 192 -94.5 319t-306.5 127q-199 0 -351 -133.5t-180 -333.5q-18 -131 27.5 -238t143 -168t227.5 -61z" />
    <glyph glyph-name="uni01F4" unicode="&#x1f4;" horiz-adv-x="1650" 
d="M1294 1810l-272 -237h-92l252 237h112zM938 709h641l-2 -29q-28 -199 -143.5 -360.5t-292 -253t-377.5 -91.5q-154 0 -282.5 56.5t-211.5 153.5t-120 232.5t-15 289.5q28 205 147 372.5t301 263t388 95.5q190 0 337.5 -83t225.5 -227l-74 -51q-69 129 -199 203t-300 74
q-136 0 -262.5 -49.5t-224 -135t-164 -206t-85.5 -256.5q-26 -182 37 -330.5t199 -233t317 -84.5q257 0 456 162t245 410h-551z" />
    <glyph glyph-name="uni01F5" unicode="&#x1f5;" horiz-adv-x="1146" 
d="M993 1442l-272 -238h-92l252 238h112zM1143 1159h74l-11 -78h-69q-68 0 -114.5 -39.5t-55.5 -105.5l-2 -12q97 -124 73 -303q-26 -190 -176.5 -318.5t-347.5 -128.5q-148 0 -252 74q-44 -20 -75 -62t-37 -88q-9 -71 35.5 -113t129.5 -42h428q140 0 218.5 -67.5
t68.5 -182.5l-86 -17q10 85 -51 136t-172 51h-428q-116 0 -179 60t-51 157q9 65 50.5 122.5t99.5 86.5q-61 61 -87 147t-13 185q28 192 178 320t348 128q158 0 270 -88q19 80 83 129t151 49zM954 621q22 158 -71 264t-254 106q-163 0 -285.5 -106t-144.5 -264
q-22 -157 70.5 -263t254.5 -106q161 0 284 106t146 263z" />
    <glyph glyph-name="AEacute" unicode="&#x1fc;" horiz-adv-x="1847" 
d="M1464 1810l-272 -237h-92l252 237h112zM1835 1331h-733l-80 -579h664l-13 -82h-663l-82 -588h741l-10 -82h-830l58 414h-574l-319 -414h-103l1092 1413h864zM377 496h522l117 829z" />
    <glyph glyph-name="aeacute" unicode="&#x1fd;" horiz-adv-x="2072" 
d="M1409 1442l-272 -238h-93l252 238h113zM1513 1069q231 0 363 -157t100 -392q0 -7 -6 -31h-995q-14 -190 103 -313t313 -123q131 0 249.5 58.5t194.5 156.5l55 -45q-92 -116 -226 -182t-286 -66q-155 0 -271 71t-173 194q-87 -115 -240.5 -190t-310.5 -75
q-166 0 -260.5 85.5t-75.5 213.5q17 124 125.5 206.5t253.5 82.5h479l17 115q20 142 -67.5 228.5t-250.5 86.5q-116 0 -210.5 -45t-149.5 -123l-47 45q65 93 174.5 146t244.5 53q163 0 265.5 -75t119.5 -203q86 128 222 203t290 75zM1503 991q-187 0 -332.5 -121.5
t-185.5 -306.5h911q12 122 -35.5 220t-141.5 153t-216 55zM401 51q139 0 283.5 72.5t226.5 181.5q-22 77 -16 184h-473q-113 0 -195 -60t-94 -150q-14 -98 61.5 -163t206.5 -65z" />
    <glyph glyph-name="Oslashacute" unicode="&#x1fe;" horiz-adv-x="1685" 
d="M1307 1810l-273 -237h-92l252 237h113zM1640 1413l-182 -176q91 -100 129 -236t17 -294q-22 -154 -98 -289.5t-187 -232.5t-256 -153.5t-299 -56.5q-267 0 -445 160l-139 -135h-86l182 178q-89 100 -126.5 236t-14.5 293q28 205 147 372.5t301 263t388 95.5
q266 0 444 -160l139 135h86zM225 707q-20 -136 12.5 -255.5t108.5 -207.5l1002 970q-153 140 -387 140q-136 0 -262.5 -49.5t-224 -135t-164 -206t-85.5 -256.5zM1513 707q20 137 -12.5 255.5t-109.5 208.5l-1004 -970q155 -142 391 -142q181 0 340 84.5t264 233t131 330.5z
" />
    <glyph glyph-name="oslashacute" unicode="&#x1ff;" horiz-adv-x="1302" 
d="M1057 1442l-273 -238h-92l252 238h113zM1231 1044l-135 -129q140 -156 106 -393q-21 -153 -111 -278.5t-227 -197t-291 -71.5q-199 0 -331 119l-97 -94h-73l135 129q-139 159 -105 393q21 153 110.5 278.5t226 197t290.5 71.5q199 0 332 -117l96 92h74zM186 522
q-27 -198 84 -332l727 701q-112 98 -278 98q-200 0 -352.5 -134t-180.5 -333zM1116 522q27 198 -84 332l-727 -700q117 -99 281 -99q199 0 350.5 133.5t179.5 333.5z" />
    <glyph glyph-name="uni0200" unicode="&#x200;" horiz-adv-x="1449" 
d="M741 1573h-82l-147 237h98zM1094 1573h-80l-148 237h99zM1214 0l-118 416h-774l-236 -416h-96l807 1413h106l410 -1413h-99zM369 496h702l-235 823z" />
    <glyph glyph-name="uni0201" unicode="&#x201;" 
d="M651 1204h-82l-147 238h98zM1004 1204h-80l-148 238h98zM1192 1044h82l-148 -1044h-82l39 283q-81 -140 -220.5 -224t-301.5 -84q-151 0 -264 71.5t-164.5 196.5t-30.5 279q21 153 109 278.5t221.5 197t284.5 71.5q163 0 277.5 -83t156.5 -224zM586 55q199 0 351 132.5
t181 332.5v2q28 200 -86 333.5t-313 133.5t-351 -133.5t-180 -333.5q-18 -131 27.5 -238t143 -168t227.5 -61z" />
    <glyph glyph-name="uni0202" unicode="&#x202;" horiz-adv-x="1449" 
d="M895 1729q-74 0 -130.5 -50t-66.5 -125h-69q15 101 94 169.5t180 68.5q103 0 163 -68.5t46 -169.5h-70q12 74 -31 124.5t-116 50.5zM1214 0l-118 416h-774l-236 -416h-96l807 1413h106l410 -1413h-99zM369 496h702l-235 823z" />
    <glyph glyph-name="uni0203" unicode="&#x203;" 
d="M805 1360q-74 0 -130.5 -49.5t-66.5 -124.5h-69q15 101 94 169t180 68q103 0 162.5 -68t46.5 -169h-70q12 74 -31 124t-116 50zM1192 1044h82l-148 -1044h-82l39 283q-81 -140 -220.5 -224t-301.5 -84q-151 0 -264 71.5t-164.5 196.5t-30.5 279q21 153 109 278.5
t221.5 197t284.5 71.5q163 0 277.5 -83t156.5 -224zM586 55q199 0 351 132.5t181 332.5v2q28 200 -86 333.5t-313 133.5t-351 -133.5t-180 -333.5q-18 -131 27.5 -238t143 -168t227.5 -61z" />
    <glyph glyph-name="uni0204" unicode="&#x204;" horiz-adv-x="1216" 
d="M666 1573h-82l-148 237h99zM1018 1573h-80l-147 237h98zM1206 1331h-815l-80 -579h744l-11 -82h-745l-82 -588h823l-12 -82h-911l198 1413h902z" />
    <glyph glyph-name="uni0205" unicode="&#x205;" horiz-adv-x="1280" 
d="M616 1204h-81l-148 238h98zM969 1204h-80l-148 238h99zM721 1069q152 0 266 -71.5t167 -197t32 -278.5q-1 -7 -4 -19l-4 -16h-996q-12 -190 104.5 -312t313.5 -122q133 0 253 58.5t196 158.5l53 -47q-94 -116 -228.5 -182t-287.5 -66q-159 0 -277 71.5t-173 197
t-34 280.5q21 152 109.5 277t223 196.5t286.5 71.5zM711 991q-187 0 -333.5 -122t-184.5 -308h911q14 187 -97 308.5t-296 121.5z" />
    <glyph glyph-name="uni0206" unicode="&#x206;" horiz-adv-x="1216" 
d="M819 1729q-73 0 -129 -50t-67 -125h-70q15 101 94 169.5t180 68.5q103 0 163 -68.5t46 -169.5h-69q12 74 -31.5 124.5t-116.5 50.5zM1206 1331h-815l-80 -579h744l-11 -82h-745l-82 -588h823l-12 -82h-911l198 1413h902z" />
    <glyph glyph-name="uni0207" unicode="&#x207;" horiz-adv-x="1280" 
d="M770 1360q-74 0 -130.5 -49.5t-66.5 -124.5h-69q15 101 94 169t180 68q103 0 162.5 -68t46.5 -169h-69q12 74 -31.5 124t-116.5 50zM721 1069q152 0 266 -71.5t167 -197t32 -278.5q-1 -7 -4 -19l-4 -16h-996q-12 -190 104.5 -312t313.5 -122q133 0 253 58.5t196 158.5
l53 -47q-94 -116 -228.5 -182t-287.5 -66q-159 0 -277 71.5t-173 197t-34 280.5q21 152 109.5 277t223 196.5t286.5 71.5zM711 991q-187 0 -333.5 -122t-184.5 -308h911q14 187 -97 308.5t-296 121.5z" />
    <glyph glyph-name="uni0208" unicode="&#x208;" horiz-adv-x="468" 
d="M170 1573l-147 237h98l131 -237h-82zM524 1573l-147 237h98l129 -237h-80zM117 0l198 1413h88l-198 -1413h-88z" />
    <glyph glyph-name="uni0209" unicode="&#x209;" horiz-adv-x="423" 
d="M96 1204l-147 238h98l131 -238h-82zM451 1204l-148 238h98l129 -238h-79zM98 0l148 1044h82l-148 -1044h-82z" />
    <glyph glyph-name="uni020A" unicode="&#x20a;" horiz-adv-x="468" 
d="M137 1554q15 101 94.5 169.5t180.5 68.5q103 0 163 -68.5t46 -169.5h-70q12 74 -31.5 124.5t-116.5 50.5q-74 0 -129.5 -50t-66.5 -125h-70zM117 0l198 1413h88l-198 -1413h-88z" />
    <glyph glyph-name="uni020B" unicode="&#x20b;" horiz-adv-x="423" 
d="M63 1186q15 101 94 169t181 68q103 0 162.5 -68t46.5 -169h-70q12 74 -31 124t-116 50q-74 0 -130.5 -49.5t-66.5 -124.5h-70zM98 0l148 1044h82l-148 -1044h-82z" />
    <glyph glyph-name="uni020C" unicode="&#x20c;" horiz-adv-x="1685" 
d="M776 1573l-147 237h98l131 -237h-82zM1130 1573l-147 237h98l129 -237h-80zM764 -25q-154 0 -282.5 56.5t-211.5 153.5t-120 232.5t-15 289.5q28 205 147 372.5t301 263t388 95.5t361 -95.5t227.5 -263t44.5 -372.5q-22 -154 -98 -289.5t-187 -232.5t-256 -153.5
t-299 -56.5zM778 59q181 0 340 84.5t264 233t131 330.5q19 136 -13.5 256.5t-106 206t-185.5 135t-247 49.5q-136 0 -262.5 -49.5t-224 -135t-164 -206t-85.5 -256.5q-26 -182 37 -330.5t199 -233t317 -84.5z" />
    <glyph glyph-name="uni020D" unicode="&#x20d;" horiz-adv-x="1302" 
d="M535 1204l-148 238h98l131 -238h-81zM889 1204l-148 238h99l129 -238h-80zM573 -25q-154 0 -269.5 71.5t-169 197t-32.5 278.5t110.5 278.5t226 197t290.5 71.5t270 -71.5t170 -197t33 -278.5t-111 -278.5t-227 -197t-291 -71.5zM586 55q199 0 350.5 133.5t179.5 333.5
t-85.5 333.5t-311.5 133.5q-200 0 -352.5 -134t-180.5 -333q-28 -200 86.5 -333.5t313.5 -133.5z" />
    <glyph glyph-name="uni020E" unicode="&#x20e;" horiz-adv-x="1685" 
d="M745 1554q15 101 94.5 169.5t180.5 68.5q103 0 163 -68.5t46 -169.5h-70q12 74 -31 124.5t-116 50.5q-74 0 -130.5 -50t-66.5 -125h-70zM764 -25q-154 0 -282.5 56.5t-211.5 153.5t-120 232.5t-15 289.5q28 205 147 372.5t301 263t388 95.5t361 -95.5t227.5 -263
t44.5 -372.5q-22 -154 -98 -289.5t-187 -232.5t-256 -153.5t-299 -56.5zM778 59q181 0 340 84.5t264 233t131 330.5q19 136 -13.5 256.5t-106 206t-185.5 135t-247 49.5q-136 0 -262.5 -49.5t-224 -135t-164 -206t-85.5 -256.5q-26 -182 37 -330.5t199 -233t317 -84.5z" />
    <glyph glyph-name="uni020F" unicode="&#x20f;" horiz-adv-x="1302" 
d="M504 1186q15 101 94 169t180 68q103 0 162.5 -68t46.5 -169h-69q12 74 -31.5 124t-116.5 50q-74 0 -130.5 -49.5t-66.5 -124.5h-69zM573 -25q-154 0 -269.5 71.5t-169 197t-32.5 278.5t110.5 278.5t226 197t290.5 71.5t270 -71.5t170 -197t33 -278.5t-111 -278.5
t-227 -197t-291 -71.5zM586 55q199 0 350.5 133.5t179.5 333.5t-85.5 333.5t-311.5 133.5q-200 0 -352.5 -134t-180.5 -333q-28 -200 86.5 -333.5t313.5 -133.5z" />
    <glyph glyph-name="uni0210" unicode="&#x210;" horiz-adv-x="1243" 
d="M639 1573h-82l-147 237h98zM991 1573h-80l-147 237h98zM1202 1016q-23 -169 -153.5 -282t-300.5 -113h-105l440 -621h-108l-436 621h-246l-88 -621h-88l198 1413h543q170 0 269.5 -114t74.5 -283zM391 1331l-88 -633h453q134 0 235.5 91t120.5 227q20 135 -57 225
t-211 90h-453z" />
    <glyph glyph-name="uni0211" unicode="&#x211;" horiz-adv-x="745" 
d="M393 1204h-82l-147 238h98zM745 1204h-79l-148 238h98zM743 1061h29l-12 -86h-29q-189 0 -318 -115.5t-155 -310.5l-78 -549h-82l148 1044h82l-35 -245q73 124 190 193t260 69z" />
    <glyph glyph-name="uni0212" unicode="&#x212;" horiz-adv-x="1243" 
d="M791 1729q-74 0 -130.5 -50t-66.5 -125h-70q15 101 94.5 169.5t180.5 68.5q103 0 163 -68.5t46 -169.5h-70q12 74 -31 124.5t-116 50.5zM1202 1016q-23 -169 -153.5 -282t-300.5 -113h-105l440 -621h-108l-436 621h-246l-88 -621h-88l198 1413h543q170 0 269.5 -114
t74.5 -283zM391 1331l-88 -633h453q134 0 235.5 91t120.5 227q20 135 -57 225t-211 90h-453z" />
    <glyph glyph-name="uni0213" unicode="&#x213;" horiz-adv-x="745" 
d="M547 1360q-74 0 -130.5 -49.5t-66.5 -124.5h-69q15 101 94 169t180 68q103 0 162.5 -68t46.5 -169h-70q12 74 -31 124t-116 50zM743 1061h29l-12 -86h-29q-189 0 -318 -115.5t-155 -310.5l-78 -549h-82l148 1044h82l-35 -245q73 124 190 193t260 69z" />
    <glyph glyph-name="uni0214" unicode="&#x214;" horiz-adv-x="1433" 
d="M651 1573l-147 237h98l131 -237h-82zM1006 1573l-148 237h98l129 -237h-79zM639 -25q-159 0 -277.5 73.5t-173 202.5t-32.5 286l123 876h86l-121 -876q-19 -133 27.5 -242.5t147 -172.5t234.5 -63q203 0 358.5 137.5t184.5 340.5l123 876h86l-123 -876
q-22 -157 -113.5 -286t-231 -202.5t-298.5 -73.5z" />
    <glyph glyph-name="uni0215" unicode="&#x215;" horiz-adv-x="1230" 
d="M498 1204l-148 238h99l131 -238h-82zM852 1204l-147 238h98l129 -238h-80zM537 -25q-205 0 -313.5 120t-80.5 317l90 632h82l-88 -622q-23 -166 65 -266.5t257 -100.5t286 100.5t140 266.5l88 622h82l-90 -632q-28 -198 -170 -317.5t-348 -119.5z" />
    <glyph glyph-name="uni0216" unicode="&#x216;" horiz-adv-x="1433" 
d="M618 1554q15 101 94.5 169.5t180.5 68.5q103 0 163 -68.5t46 -169.5h-70q12 74 -31 124.5t-116 50.5q-74 0 -130.5 -50t-66.5 -125h-70zM639 -25q-159 0 -277.5 73.5t-173 202.5t-32.5 286l123 876h86l-121 -876q-19 -133 27.5 -242.5t147 -172.5t234.5 -63
q203 0 358.5 137.5t184.5 340.5l123 876h86l-123 -876q-22 -157 -113.5 -286t-231 -202.5t-298.5 -73.5z" />
    <glyph glyph-name="uni0217" unicode="&#x217;" horiz-adv-x="1230" 
d="M467 1186q15 101 94 169t180 68q103 0 162.5 -68t46.5 -169h-69q12 74 -31.5 124t-116.5 50q-74 0 -130 -49.5t-66 -124.5h-70zM537 -25q-205 0 -313.5 120t-80.5 317l90 632h82l-88 -622q-23 -166 65 -266.5t257 -100.5t286 100.5t140 266.5l88 622h82l-90 -632
q-28 -198 -170 -317.5t-348 -119.5z" />
    <glyph glyph-name="uni0218" unicode="&#x218;" horiz-adv-x="1191" 
d="M537 -25q-154 0 -284 60t-204 164l57 63q66 -92 182.5 -149.5t260.5 -57.5q175 0 303 84.5t147 216.5q5 38 -1.5 72t-19 59.5t-38 49.5t-47 40t-58 32.5t-58.5 25t-61 19t-53.5 14t-46.5 10.5q-66 14 -123 32t-116.5 50.5t-99 73t-60 100.5t-10.5 131q23 166 171.5 269.5
t352.5 103.5q138 0 246.5 -48.5t167.5 -132.5l-55 -63q-45 70 -144.5 117t-224.5 47q-165 0 -285 -81t-139 -208q-8 -59 13 -108.5t56.5 -81t90 -56.5t99.5 -38t97 -23q37 -7 72 -16t84 -26t90 -38t82 -53t67.5 -69.5t39 -89t4.5 -110.5q-16 -111 -95 -199.5t-199.5 -137
t-260.5 -48.5zM389 -436l96 280h90l-118 -280h-68z" />
    <glyph glyph-name="uni0219" unicode="&#x219;" horiz-adv-x="987" 
d="M418 -25q-125 0 -223.5 45t-157.5 123l57 60q50 -72 136.5 -112t197.5 -40q135 0 233 59.5t111 155.5q4 30 -2 55.5t-16.5 44t-35 35.5t-44 28t-56 23.5t-60 19t-66.5 17.5q-47 12 -74.5 20t-69.5 23.5t-66.5 29.5t-53 37t-42.5 48.5t-21 60.5t-1 76q13 89 74 155
t148.5 98t188.5 32q217 0 340 -147l-57 -62q-43 62 -119 97.5t-172 35.5q-124 0 -214 -55.5t-103 -144.5q-4 -31 2 -57t17.5 -45t35.5 -36.5t44.5 -28.5t57.5 -23.5t61 -19.5t67 -18q66 -17 104 -28t90.5 -35.5t78.5 -52t42 -73t8 -102.5q-20 -136 -144 -217.5t-296 -81.5z
M281 -436l96 280h90l-119 -280h-67z" />
    <glyph glyph-name="uni021A" unicode="&#x21a;" horiz-adv-x="1216" 
d="M1274 1413l-12 -82h-498l-186 -1331h-86l186 1331h-498l13 82h1081zM391 -436l96 280h91l-119 -280h-68z" />
    <glyph glyph-name="uni021B" unicode="&#x21b;" horiz-adv-x="815" 
d="M446 969l-102 -725q-13 -100 30.5 -144.5t137.5 -44.5q84 0 160 39l-10 -78q-84 -41 -175 -41q-126 0 -184.5 63.5t-40.5 192.5l103 738h-213l12 75h213l41 297h82l-43 -297h348l-10 -75h-349zM244 -436l96 280h90l-119 -280h-67z" />
    <glyph glyph-name="uni0232" unicode="&#x232;" horiz-adv-x="1378" 
d="M1067 1686l-10 -74h-428l10 74h428zM1366 1413h98l-727 -862l-78 -551h-88l78 551l-485 862h102l441 -776z" />
    <glyph glyph-name="uni0233" unicode="&#x233;" horiz-adv-x="1161" 
d="M907 1317l-10 -74h-428l10 74h428zM1094 1044h92l-797 -1304q-45 -75 -107 -114.5t-128 -39.5q-55 0 -108 26t-85 69l49 61q24 -34 62.5 -55t81.5 -21q95 0 165 107l142 225l-338 1046h96l303 -952z" />
    <glyph glyph-name="uni0237" unicode="&#x237;" horiz-adv-x="438" 
d="M-98 -414q-68 0 -117 27l10 76q42 -27 103 -27q165 0 190 176l170 1206h82l-170 -1216q-18 -120 -88.5 -181t-179.5 -61z" />
    <glyph glyph-name="uni02BC" unicode="&#x2bc;" horiz-adv-x="124" 
d="M82 1108l94 367h82l-111 -367h-65z" />
    <glyph glyph-name="circumflex" unicode="&#x2c6;" horiz-adv-x="518" 
d="M616 1204h-81l-154 191l-203 -191h-82l242 238h102z" />
    <glyph glyph-name="caron" unicode="&#x2c7;" horiz-adv-x="518" 
d="M567 1442h82l-241 -238h-105l-174 238h82l151 -191z" />
    <glyph glyph-name="breve" unicode="&#x2d8;" horiz-adv-x="481" 
d="M334 1184q-103 0 -162 68t-45 169h68q-9 -75 33 -124.5t114 -49.5q74 0 131 50t66 124h69q-13 -101 -92 -169t-182 -68z" />
    <glyph glyph-name="dotaccent" unicode="&#x2d9;" horiz-adv-x="135" 
d="M166 1229q-28 0 -44.5 19t-12.5 48q3 27 26 46.5t51 19.5t44.5 -19t13.5 -47q-4 -29 -26.5 -48t-51.5 -19z" />
    <glyph glyph-name="ring" unicode="&#x2da;" horiz-adv-x="290" 
d="M236 1174q-61 0 -97 40.5t-28 102.5q9 62 57 103.5t111 41.5q61 0 96.5 -41.5t27.5 -103.5q-9 -62 -56.5 -102.5t-110.5 -40.5zM244 1223q39 0 69.5 27.5t34.5 66.5q6 40 -17 67t-61 27q-39 0 -69.5 -27.5t-34.5 -66.5q-6 -40 17 -67t61 -27z" />
    <glyph glyph-name="ogonek" unicode="&#x2db;" horiz-adv-x="325" 
d="M49 -422q-78 0 -123.5 50t-34.5 124q12 78 82.5 145.5t176.5 108.5h61l2 -6q-107 -46 -174 -107.5t-76 -128.5q-7 -53 23.5 -87.5t83.5 -34.5q63 0 112 32l17 -53q-67 -43 -150 -43z" />
    <glyph glyph-name="tilde" unicode="&#x2dc;" horiz-adv-x="651" 
d="M567 1219q-37 0 -67 14.5t-51 35t-41.5 40.5t-46.5 34.5t-56 14.5q-52 0 -92.5 -36.5t-48.5 -90.5h-64q11 84 69.5 139t137.5 55q37 0 67 -14.5t51.5 -35t41.5 -40.5t46.5 -34.5t57.5 -14.5q53 0 93.5 36.5t46.5 90.5h65q-11 -84 -69.5 -139t-139.5 -55z" />
    <glyph glyph-name="hungarumlaut" unicode="&#x2dd;" horiz-adv-x="614" 
d="M96 1204l197 238h98l-213 -238h-82zM451 1204l194 238h98l-213 -238h-79z" />
    <glyph glyph-name="gravecomb" unicode="&#x300;" horiz-adv-x="0" 
d="M4 1204l-207 238h113l186 -238h-92z" />
    <glyph glyph-name="acutecomb" unicode="&#x301;" horiz-adv-x="0" 
d="M-236 1204l252 238h113l-272 -238h-93z" />
    <glyph glyph-name="uni0302" unicode="&#x302;" horiz-adv-x="0" 
d="M98 1204h-82l-153 191l-203 -191h-82l242 238h102z" />
    <glyph glyph-name="tildecomb" unicode="&#x303;" horiz-adv-x="0" 
d="M-84 1219q-37 0 -67 14.5t-51 35t-41.5 40.5t-46.5 34.5t-56 14.5q-52 0 -92.5 -36.5t-48.5 -90.5h-64q11 84 69.5 139t137.5 55q37 0 67 -14.5t51.5 -35t41.5 -40.5t46.5 -34.5t57.5 -14.5q53 0 93 36.5t46 90.5h66q-11 -84 -69.5 -139t-139.5 -55z" />
    <glyph glyph-name="uni0304" unicode="&#x304;" horiz-adv-x="0" 
d="M-328 1243l11 74h428l-11 -74h-428z" />
    <glyph glyph-name="uni0306" unicode="&#x306;" horiz-adv-x="0" 
d="M-147 1184q-103 0 -162 68t-45 169h67q-9 -75 33.5 -124.5t114.5 -49.5q74 0 130.5 49.5t65.5 124.5h70q-13 -101 -92 -169t-182 -68z" />
    <glyph glyph-name="uni0307" unicode="&#x307;" horiz-adv-x="0" 
d="M31 1229q-28 0 -45 19t-13 48q3 27 26.5 46.5t51.5 19.5t44.5 -19t13.5 -47q-4 -29 -26.5 -48t-51.5 -19z" />
    <glyph glyph-name="uni0308" unicode="&#x308;" horiz-adv-x="0" 
d="M-369 1229q-28 0 -44.5 18.5t-12.5 46.5q3 27 25.5 46.5t50.5 19.5q27 0 42.5 -19t12.5 -47q-5 -28 -25.5 -46.5t-48.5 -18.5zM35 1229q-28 0 -44.5 18.5t-13.5 46.5q5 28 26.5 47t49.5 19t44.5 -19t13.5 -47q-4 -28 -26 -46.5t-50 -18.5z" />
    <glyph glyph-name="uni030A" unicode="&#x30a;" horiz-adv-x="0" 
d="M-55 1174q-61 0 -97 40.5t-28 102.5q9 62 57 103.5t111 41.5q61 0 97 -41.5t28 -103.5q-9 -61 -57 -102t-111 -41zM-47 1223q39 0 69.5 27.5t34.5 66.5q6 40 -16.5 67t-60.5 27q-39 0 -70 -27.5t-35 -66.5q-6 -40 17 -67t61 -27z" />
    <glyph glyph-name="uni030B" unicode="&#x30b;" horiz-adv-x="0" 
d="M-518 1204l196 238h99l-213 -238h-82zM-164 1204l195 238h98l-213 -238h-80z" />
    <glyph glyph-name="uni030C" unicode="&#x30c;" horiz-adv-x="0" 
d="M49 1442h82l-242 -238h-104l-174 238h82l151 -191z" />
    <glyph glyph-name="uni030F" unicode="&#x30f;" horiz-adv-x="0" 
d="M-338 1204l-147 238h98l131 -238h-82zM16 1204l-147 238h98l129 -238h-80z" />
    <glyph glyph-name="uni0311" unicode="&#x311;" horiz-adv-x="0" 
d="M-389 1186q15 101 94 169t180 68q103 0 162.5 -68t46.5 -169h-69q12 74 -31.5 124t-116.5 50q-74 0 -130 -49.5t-66 -124.5h-70z" />
    <glyph glyph-name="uni0312" unicode="&#x312;" horiz-adv-x="0" 
d="M-57 1186l120 282h68l-98 -282h-90z" />
    <glyph glyph-name="dotbelowcomb" unicode="&#x323;" horiz-adv-x="0" 
d="M-186 -317q-29 0 -45 18.5t-13 46.5q4 29 26 48.5t50 19.5q29 0 45.5 -19.5t11.5 -48.5q-3 -27 -25 -46t-50 -19z" />
    <glyph glyph-name="uni0326" unicode="&#x326;" horiz-adv-x="0" 
d="M-283 -436l97 280h90l-119 -280h-68z" />
    <glyph glyph-name="uni0327" unicode="&#x327;" horiz-adv-x="0" 
d="M-252 -78q71 0 112 -50t29 -122q-9 -73 -68 -123.5t-134 -50.5q-55 0 -94.5 26.5t-57.5 71.5l45 35q12 -37 42 -58.5t71 -21.5q53 0 92.5 34.5t46.5 86.5q8 51 -21.5 86t-80.5 35q-47 0 -84 -33l-47 23l120 139v4h64v-4l-76 -84q18 6 41 6z" />
    <glyph glyph-name="uni0328" unicode="&#x328;" horiz-adv-x="0" 
d="M-276 -422q-78 0 -123.5 50t-34.5 124q12 78 82.5 145.5t175.5 108.5h61l2 -6q-107 -45 -173.5 -107t-75.5 -129q-7 -54 23 -88t83 -34q64 0 113 32l16 -53q-67 -43 -149 -43z" />
    <glyph glyph-name="uni0335" unicode="&#x335;" horiz-adv-x="0" 
d="M-557 528l8 64h561l-10 -64h-559z" />
    <glyph glyph-name="uni0336" unicode="&#x336;" horiz-adv-x="0" 
d="M-1370 528l8 64h1374l-10 -64h-1372z" />
    <glyph glyph-name="uni0337" unicode="&#x337;" horiz-adv-x="0" 
d="M-1085 0l1085 1044h74l-1086 -1044h-73z" />
    <glyph glyph-name="uni0338" unicode="&#x338;" horiz-adv-x="0" 
d="M-1421 0l1460 1413h86l-1460 -1413h-86z" />
    <glyph glyph-name="uni03BC" unicode="&#x3bc;" horiz-adv-x="1271" 
d="M1094 1044h82l-148 -1044h-82l31 213q-69 -113 -183.5 -175.5t-256.5 -62.5q-120 0 -206 48t-128 135l-78 -547h-82l203 1433h82l-92 -647q-11 -156 77 -249t248 -93q177 0 299.5 104.5t145.5 274.5h2z" />
    <glyph glyph-name="uni1E0C" unicode="&#x1e0c;" horiz-adv-x="1544" 
d="M852 1413q200 0 349.5 -92t218.5 -253.5t42 -360.5q-28 -199 -143 -361t-290.5 -254t-375.5 -92h-536l198 1413h537zM1372 707q24 176 -36.5 319t-191 224t-304.5 81h-449l-174 -1249h447q174 0 327.5 81.5t254.5 224.5t126 319zM655 -184q29 0 45.5 -19.5t12.5 -48.5
q-3 -27 -25.5 -46t-50.5 -19q-29 0 -44.5 18.5t-12.5 46.5q4 29 25.5 48.5t49.5 19.5z" />
    <glyph glyph-name="uni1E0D" unicode="&#x1e0d;" 
d="M1251 1475h82l-207 -1475h-82l39 281q-83 -140 -221.5 -223t-300.5 -83q-151 0 -264 71.5t-164.5 196.5t-30.5 279q21 153 109 278.5t221.5 197t284.5 71.5q162 0 277 -83.5t157 -223.5zM586 55q193 0 343 126.5t185 318.5l6 43q19 192 -94.5 319t-306.5 127
q-199 0 -351 -133.5t-180 -333.5q-18 -131 27.5 -238t143 -168t227.5 -61zM584 -184q29 0 45.5 -19.5t11.5 -48.5q-3 -27 -25.5 -46t-50.5 -19q-29 0 -44.5 18.5t-12.5 46.5q4 29 26 48.5t50 19.5z" />
    <glyph glyph-name="uni1E24" unicode="&#x1e24;" horiz-adv-x="1513" 
d="M1360 1413h88l-199 -1413h-88l94 670h-956l-94 -670h-88l198 1413h88l-92 -661h957zM657 -184q29 0 45.5 -19.5t12.5 -48.5q-3 -27 -25.5 -46t-50.5 -19q-29 0 -44.5 18.5t-12.5 46.5q4 29 25.5 48.5t49.5 19.5z" />
    <glyph glyph-name="uni1E25" unicode="&#x1e25;" horiz-adv-x="1282" 
d="M754 1069q201 0 305.5 -121.5t75.5 -322.5l-86 -625h-82l84 604q25 174 -65.5 279.5t-264.5 105.5q-178 0 -302 -103t-153 -272l-86 -614h-82l207 1475h82l-92 -656q72 119 191.5 184.5t267.5 65.5zM547 -184q29 0 45.5 -19.5t11.5 -48.5q-3 -27 -25.5 -46t-50.5 -19
q-29 0 -44.5 18.5t-12.5 46.5q4 29 26 48.5t50 19.5z" />
    <glyph glyph-name="uni1E44" unicode="&#x1e44;" horiz-adv-x="1527" 
d="M915 1597q-28 0 -44.5 19.5t-12.5 48.5q3 27 26.5 46.5t51.5 19.5t44 -19t13 -47q-5 -29 -27 -48.5t-51 -19.5zM1374 1413h88l-198 -1413h-99l-780 1278l-180 -1278h-88l198 1413h99l780 -1278z" />
    <glyph glyph-name="uni1E45" unicode="&#x1e45;" horiz-adv-x="1282" 
d="M741 1229q-28 0 -44.5 19t-12.5 48q3 27 26.5 46.5t51.5 19.5t44 -19t13 -47q-4 -29 -26.5 -48t-51.5 -19zM754 1069q201 0 305.5 -121.5t75.5 -322.5l-86 -625h-82l84 604q25 174 -65.5 279.5t-264.5 105.5q-173 0 -297 -98.5t-156 -261.5l-88 -629h-82l148 1044h82
l-31 -221q71 117 189.5 181.5t267.5 64.5z" />
    <glyph glyph-name="uni1E5A" unicode="&#x1e5a;" horiz-adv-x="1243" 
d="M1202 1016q-23 -169 -153.5 -282t-300.5 -113h-105l440 -621h-108l-436 621h-246l-88 -621h-88l198 1413h543q170 0 269.5 -114t74.5 -283zM391 1331l-88 -633h453q134 0 235.5 91t120.5 227q20 135 -57 225t-211 90h-453zM522 -184q29 0 45.5 -19.5t12.5 -48.5
q-3 -27 -25.5 -46t-50.5 -19q-29 0 -45 18.5t-13 46.5q4 29 26 48.5t50 19.5z" />
    <glyph glyph-name="uni1E5B" unicode="&#x1e5b;" horiz-adv-x="745" 
d="M743 1061h29l-12 -86h-29q-189 0 -318 -115.5t-155 -310.5l-78 -549h-82l148 1044h82l-35 -245q73 124 190 193t260 69zM113 -184q29 0 45.5 -19.5t11.5 -48.5q-3 -27 -25.5 -46t-50.5 -19q-29 0 -44.5 18.5t-12.5 46.5q4 29 26 48.5t50 19.5z" />
    <glyph glyph-name="uni1E62" unicode="&#x1e62;" horiz-adv-x="1191" 
d="M537 -25q-154 0 -284 60t-204 164l57 63q66 -92 182.5 -149.5t260.5 -57.5q175 0 303 84.5t147 216.5q5 38 -1.5 72t-19 59.5t-38 49.5t-47 40t-58 32.5t-58.5 25t-61 19t-53.5 14t-46.5 10.5q-66 14 -123 32t-116.5 50.5t-99 73t-60 100.5t-10.5 131q23 166 171.5 269.5
t352.5 103.5q138 0 246.5 -48.5t167.5 -132.5l-55 -63q-45 70 -144.5 117t-224.5 47q-165 0 -285 -81t-139 -208q-8 -59 13 -108.5t56.5 -81t90 -56.5t99.5 -38t97 -23q37 -7 72 -16t84 -26t90 -38t82 -53t67.5 -69.5t39 -89t4.5 -110.5q-16 -111 -95 -199.5t-199.5 -137
t-260.5 -48.5zM487 -317q-29 0 -44.5 18.5t-12.5 46.5q4 29 26 48.5t50 19.5q29 0 45.5 -19.5t11.5 -48.5q-3 -27 -25.5 -46t-50.5 -19z" />
    <glyph glyph-name="uni1E63" unicode="&#x1e63;" horiz-adv-x="987" 
d="M418 -25q-125 0 -223.5 45t-157.5 123l57 60q50 -72 136.5 -112t197.5 -40q135 0 233 59.5t111 155.5q4 30 -2 55.5t-16.5 44t-35 35.5t-44 28t-56 23.5t-60 19t-66.5 17.5q-47 12 -74.5 20t-69.5 23.5t-66.5 29.5t-53 37t-42.5 48.5t-21 60.5t-1 76q13 89 74 155
t148.5 98t188.5 32q217 0 340 -147l-57 -62q-43 62 -119 97.5t-172 35.5q-124 0 -214 -55.5t-103 -144.5q-4 -31 2 -57t17.5 -45t35.5 -36.5t44.5 -28.5t57.5 -23.5t61 -19.5t67 -18q66 -17 104 -28t90.5 -35.5t78.5 -52t42 -73t8 -102.5q-20 -136 -144 -217.5t-296 -81.5z
M379 -317q-29 0 -44.5 18.5t-12.5 46.5q4 29 25.5 48.5t49.5 19.5q29 0 45.5 -19.5t12.5 -48.5q-3 -27 -25.5 -46t-50.5 -19z" />
    <glyph glyph-name="uni1E6C" unicode="&#x1e6c;" horiz-adv-x="1216" 
d="M1274 1413l-12 -82h-498l-186 -1331h-86l186 1331h-498l13 82h1081zM510 -184q29 0 45.5 -19.5t11.5 -48.5q-3 -27 -25 -46t-50 -19q-29 0 -45 18.5t-13 46.5q4 29 26 48.5t50 19.5z" />
    <glyph glyph-name="uni1E6D" unicode="&#x1e6d;" horiz-adv-x="815" 
d="M446 969l-102 -725q-13 -100 30.5 -144.5t137.5 -44.5q84 0 160 39l-10 -78q-84 -41 -175 -41q-126 0 -184.5 63.5t-40.5 192.5l103 738h-213l12 75h213l41 297h82l-43 -297h348l-10 -75h-349zM362 -184q29 0 45.5 -19.5t12.5 -48.5q-3 -27 -25.5 -46t-50.5 -19
q-29 0 -44.5 18.5t-12.5 46.5q4 29 25.5 48.5t49.5 19.5z" />
    <glyph glyph-name="Wgrave" unicode="&#x1e80;" horiz-adv-x="2111" 
d="M1264 1573h-93l-206 237h112zM2071 1413h90l-662 -1413h-92l-242 1292l-608 -1292h-92l-264 1413h94l233 -1304l613 1304h84l245 -1304z" />
    <glyph glyph-name="wgrave" unicode="&#x1e81;" horiz-adv-x="1800" 
d="M1057 1204h-92l-207 238h112zM1729 1044h90l-545 -1044h-90l-223 952l-492 -952h-90l-250 1044h92l217 -954l494 954h88l223 -950z" />
    <glyph glyph-name="Wacute" unicode="&#x1e82;" horiz-adv-x="2111" 
d="M1509 1810l-272 -237h-92l252 237h112zM2071 1413h90l-662 -1413h-92l-242 1292l-608 -1292h-92l-264 1413h94l233 -1304l613 1304h84l245 -1304z" />
    <glyph glyph-name="wacute" unicode="&#x1e83;" horiz-adv-x="1800" 
d="M1300 1442l-272 -238h-92l252 238h112zM1729 1044h90l-545 -1044h-90l-223 952l-492 -952h-90l-250 1044h92l217 -954l494 954h88l223 -950z" />
    <glyph glyph-name="Wdieresis" unicode="&#x1e84;" horiz-adv-x="2111" 
d="M1006 1597q-28 0 -45 19t-13 47q3 27 25.5 46.5t50.5 19.5q27 0 42.5 -19t12.5 -47q-5 -28 -25.5 -47t-47.5 -19zM1409 1597q-28 0 -44 19t-13 47q5 28 26 47t49 19t44.5 -19t13.5 -47q-5 -28 -26.5 -47t-49.5 -19zM2071 1413h90l-662 -1413h-92l-242 1292l-608 -1292
h-92l-264 1413h94l233 -1304l613 1304h84l245 -1304z" />
    <glyph glyph-name="wdieresis" unicode="&#x1e85;" horiz-adv-x="1800" 
d="M799 1229q-28 0 -45 19t-13 46q3 27 25.5 46.5t50.5 19.5q27 0 42.5 -19t12.5 -47q-5 -28 -25.5 -46.5t-47.5 -18.5zM1202 1229q-28 0 -44 18.5t-13 46.5q5 28 26.5 47t49.5 19t44 -19t13 -47q-4 -28 -26 -46.5t-50 -18.5zM1729 1044h90l-545 -1044h-90l-223 952
l-492 -952h-90l-250 1044h92l217 -954l494 954h88l223 -950z" />
    <glyph glyph-name="uni1E92" unicode="&#x1e92;" horiz-adv-x="1257" 
d="M1272 1413l-8 -63l-1114 -1268h950l-13 -82h-1064l10 63l1112 1268h-928l12 82h1043zM526 -184q29 0 45.5 -19.5t12.5 -48.5q-3 -27 -25.5 -46t-50.5 -19q-29 0 -44.5 18.5t-12.5 46.5q4 29 25.5 48.5t49.5 19.5z" />
    <glyph glyph-name="uni1E93" unicode="&#x1e93;" horiz-adv-x="1028" 
d="M983 1044l-8 -59l-821 -907h708l-12 -78h-819l10 59l819 908h-686l12 77h797zM414 -184q29 0 45.5 -19.5t11.5 -48.5q-3 -27 -25.5 -46t-50.5 -19q-29 0 -44.5 18.5t-12.5 46.5q4 29 26 48.5t50 19.5z" />
    <glyph glyph-name="uni1E9E" unicode="&#x1e9e;" horiz-adv-x="1300" 
d="M838 850q189 0 297 -125t82 -313q-26 -187 -170 -312t-332 -125q-65 0 -130 22t-104 56l13 94q29 -37 94 -62.5t129 -25.5q155 0 272 102.5t137 254.5q22 151 -64 252.5t-237 101.5h-137l10 64l422 497h-565q-73 0 -128.5 -49t-66.5 -123l-163 -1159h-88l165 1165
q13 107 94.5 177.5t190.5 70.5h672l-12 -72l-422 -491h41z" />
    <glyph glyph-name="uni1EA0" unicode="&#x1ea0;" horiz-adv-x="1449" 
d="M1313 0h-99l-118 416h-774l-236 -416h-96l807 1413h106zM369 496h702l-235 823zM625 -184q29 0 45.5 -19.5t11.5 -48.5q-3 -27 -25.5 -46t-50.5 -19q-29 0 -44.5 18.5t-12.5 46.5q4 29 26 48.5t50 19.5z" />
    <glyph glyph-name="uni1EA1" unicode="&#x1ea1;" 
d="M1192 1044h82l-148 -1044h-82l39 283q-81 -140 -220.5 -224t-301.5 -84q-151 0 -264 71.5t-164.5 196.5t-30.5 279q21 153 109 278.5t221.5 197t284.5 71.5q163 0 277.5 -83t156.5 -224zM586 55q199 0 351 132.5t181 332.5v2q28 200 -86 333.5t-313 133.5t-351 -133.5
t-180 -333.5q-18 -131 27.5 -238t143 -168t227.5 -61zM588 -184q29 0 45.5 -19.5t11.5 -48.5q-3 -27 -25.5 -46t-50.5 -19q-29 0 -44.5 18.5t-12.5 46.5q4 29 26 48.5t50 19.5z" />
    <glyph glyph-name="uni1EB8" unicode="&#x1eb8;" horiz-adv-x="1216" 
d="M1206 1331h-815l-80 -579h744l-11 -82h-745l-82 -588h823l-12 -82h-911l198 1413h902zM551 -184q29 0 45.5 -19.5t11.5 -48.5q-3 -27 -25.5 -46t-50.5 -19q-29 0 -44.5 18.5t-12.5 46.5q4 29 26 48.5t50 19.5z" />
    <glyph glyph-name="uni1EB9" unicode="&#x1eb9;" horiz-adv-x="1280" 
d="M721 1069q152 0 266 -71.5t167 -197t32 -278.5q-1 -7 -4 -19l-4 -16h-996q-12 -190 104.5 -312t313.5 -122q133 0 253 58.5t196 158.5l53 -47q-94 -116 -228.5 -182t-287.5 -66q-159 0 -277 71.5t-173 197t-34 280.5q21 152 109.5 277t223 196.5t286.5 71.5zM711 991
q-187 0 -333.5 -122t-184.5 -308h911q14 187 -97 308.5t-296 121.5zM553 -184q29 0 45.5 -19.5t11.5 -48.5q-3 -27 -25 -46t-50 -19q-29 0 -45 18.5t-13 46.5q4 29 26 48.5t50 19.5z" />
    <glyph glyph-name="uni1EBC" unicode="&#x1ebc;" horiz-adv-x="1216" 
d="M680 1726q-52 0 -92.5 -36.5t-48.5 -90.5h-64q11 84 69.5 139.5t137.5 55.5q37 0 67 -14.5t51.5 -35t41.5 -40.5t46.5 -34.5t57.5 -14.5q53 0 93 36.5t46 90.5h66q-11 -84 -69.5 -139.5t-139.5 -55.5q-37 0 -67 14.5t-51 35t-41.5 40.5t-46.5 34.5t-56 14.5zM1206 1331
h-815l-80 -579h744l-11 -82h-745l-82 -588h823l-12 -82h-911l198 1413h902z" />
    <glyph glyph-name="uni1EBD" unicode="&#x1ebd;" horiz-adv-x="1280" 
d="M631 1358q-53 0 -94 -36.5t-48 -90.5h-63q11 84 69.5 139t137.5 55q37 0 67 -14.5t51.5 -35t41.5 -40.5t46.5 -34.5t57.5 -14.5q53 0 93 36.5t46 90.5h66q-11 -84 -69.5 -139t-139.5 -55q-37 0 -67 14.5t-51 35t-41.5 40.5t-46.5 34.5t-56 14.5zM721 1069
q152 0 266 -71.5t167 -197t32 -278.5q-1 -7 -4 -19l-4 -16h-996q-12 -190 104.5 -312t313.5 -122q133 0 253 58.5t196 158.5l53 -47q-94 -116 -228.5 -182t-287.5 -66q-159 0 -277 71.5t-173 197t-34 280.5q21 152 109.5 277t223 196.5t286.5 71.5zM711 991
q-187 0 -333.5 -122t-184.5 -308h911q14 187 -97 308.5t-296 121.5z" />
    <glyph glyph-name="uni1ECA" unicode="&#x1eca;" horiz-adv-x="468" 
d="M117 0l198 1413h88l-198 -1413h-88zM117 -317q-29 0 -45 18.5t-13 46.5q4 29 26 48.5t50 19.5q29 0 45.5 -19.5t12.5 -48.5q-3 -27 -25.5 -46t-50.5 -19z" />
    <glyph glyph-name="uni1ECB" unicode="&#x1ecb;" horiz-adv-x="423" 
d="M324 1313q-29 0 -45 18.5t-13 46.5q3 27 25.5 46.5t50.5 19.5t44 -19t13 -47q-5 -28 -26 -46.5t-49 -18.5zM98 0l148 1044h82l-148 -1044h-82zM94 -317q-29 0 -44.5 18.5t-12.5 46.5q4 29 26 48.5t50 19.5q29 0 45.5 -19.5t11.5 -48.5q-3 -27 -25.5 -46t-50.5 -19z" />
    <glyph glyph-name="uni1ECC" unicode="&#x1ecc;" horiz-adv-x="1685" 
d="M764 -25q-154 0 -282.5 56.5t-211.5 153.5t-120 232.5t-15 289.5q28 205 147 372.5t301 263t388 95.5t361 -95.5t227.5 -263t44.5 -372.5q-22 -154 -98 -289.5t-187 -232.5t-256 -153.5t-299 -56.5zM778 59q181 0 340 84.5t264 233t131 330.5q19 136 -13.5 256.5
t-106 206t-185.5 135t-247 49.5q-136 0 -262.5 -49.5t-224 -135t-164 -206t-85.5 -256.5q-26 -182 37 -330.5t199 -233t317 -84.5zM725 -317q-29 0 -44.5 18.5t-12.5 46.5q4 29 25.5 48.5t49.5 19.5q29 0 45.5 -19.5t12.5 -48.5q-3 -27 -25.5 -46t-50.5 -19z" />
    <glyph glyph-name="uni1ECD" unicode="&#x1ecd;" horiz-adv-x="1302" 
d="M573 -25q-154 0 -269.5 71.5t-169 197t-32.5 278.5t110.5 278.5t226 197t290.5 71.5t270 -71.5t170 -197t33 -278.5t-111 -278.5t-227 -197t-291 -71.5zM586 55q199 0 350.5 133.5t179.5 333.5t-85.5 333.5t-311.5 133.5q-200 0 -352.5 -134t-180.5 -333
q-28 -200 86.5 -333.5t313.5 -133.5zM532 -317q-29 0 -44.5 18.5t-12.5 46.5q4 29 26 48.5t50 19.5q29 0 45.5 -19.5t11.5 -48.5q-3 -27 -25.5 -46t-50.5 -19z" />
    <glyph glyph-name="uni1EE4" unicode="&#x1ee4;" horiz-adv-x="1433" 
d="M639 -25q-159 0 -277.5 73.5t-173 202.5t-32.5 286l123 876h86l-121 -876q-19 -133 27.5 -242.5t147 -172.5t234.5 -63q203 0 358.5 137.5t184.5 340.5l123 876h86l-123 -876q-22 -157 -113.5 -286t-231 -202.5t-298.5 -73.5zM598 -317q-29 0 -44.5 18.5t-12.5 46.5
q4 29 25.5 48.5t49.5 19.5q29 0 45.5 -19.5t12.5 -48.5q-3 -27 -25.5 -46t-50.5 -19z" />
    <glyph glyph-name="uni1EE5" unicode="&#x1ee5;" horiz-adv-x="1230" 
d="M537 -25q-205 0 -313.5 120t-80.5 317l90 632h82l-88 -622q-23 -166 65 -266.5t257 -100.5t286 100.5t140 266.5l88 622h82l-90 -632q-28 -198 -170 -317.5t-348 -119.5zM498 -317q-29 0 -45 18.5t-13 46.5q4 29 26 48.5t50 19.5q29 0 45.5 -19.5t11.5 -48.5
q-3 -27 -25 -46t-50 -19z" />
    <glyph glyph-name="Ygrave" unicode="&#x1ef2;" horiz-adv-x="1378" 
d="M899 1573h-92l-207 237h113zM1366 1413h98l-727 -862l-78 -551h-88l78 551l-485 862h102l441 -776z" />
    <glyph glyph-name="ygrave" unicode="&#x1ef3;" horiz-adv-x="1161" 
d="M739 1204h-92l-207 238h113zM1094 1044h92l-797 -1304q-45 -75 -107 -114.5t-128 -39.5q-55 0 -108 26t-85 69l49 61q24 -34 62.5 -55t81.5 -21q95 0 165 107l142 225l-338 1046h96l303 -952z" />
    <glyph glyph-name="uni1EF8" unicode="&#x1ef8;" horiz-adv-x="1378" 
d="M721 1726q-52 0 -92.5 -36.5t-48.5 -90.5h-64q11 84 69.5 139.5t137.5 55.5q37 0 67 -14.5t51.5 -35t41.5 -40.5t46.5 -34.5t57.5 -14.5q53 0 93 36.5t46 90.5h66q-11 -84 -69.5 -139.5t-139.5 -55.5q-37 0 -67 14.5t-51 35t-41.5 40.5t-46.5 34.5t-56 14.5zM1366 1413
h98l-727 -862l-78 -551h-88l78 551l-485 862h102l441 -776z" />
    <glyph glyph-name="uni1EF9" unicode="&#x1ef9;" horiz-adv-x="1161" 
d="M561 1358q-52 0 -92.5 -36.5t-48.5 -90.5h-64q11 84 69.5 139t137.5 55q37 0 67 -14.5t51.5 -35t41.5 -40.5t46.5 -34.5t57.5 -14.5q53 0 93.5 36.5t46.5 90.5h65q-11 -84 -69.5 -139t-139.5 -55q-37 0 -67 14.5t-51 35t-41.5 40.5t-46.5 34.5t-56 14.5zM1094 1044h92
l-797 -1304q-45 -75 -107 -114.5t-128 -39.5q-55 0 -108 26t-85 69l49 61q24 -34 62.5 -55t81.5 -21q95 0 165 107l142 225l-338 1046h96l303 -952z" />
    <glyph glyph-name="endash" unicode="&#x2013;" horiz-adv-x="1245" 
d="M141 522l11 76h964l-12 -76h-963z" />
    <glyph glyph-name="emdash" unicode="&#x2014;" horiz-adv-x="2187" 
d="M141 522l11 76h1906l-12 -76h-1905z" />
    <glyph glyph-name="quoteleft" unicode="&#x2018;" horiz-adv-x="440" 
d="M193 975l229 438h74l-201 -438h-102z" />
    <glyph glyph-name="quoteright" unicode="&#x2019;" horiz-adv-x="440" 
d="M193 975l200 438h103l-230 -438h-73z" />
    <glyph glyph-name="quotesinglbase" unicode="&#x201a;" horiz-adv-x="448" 
d="M-41 -293l201 436h102l-229 -436h-74z" />
    <glyph glyph-name="quotedblleft" unicode="&#x201c;" horiz-adv-x="817" 
d="M193 975l229 438h74l-201 -438h-102zM571 975l228 438h73l-200 -438h-101z" />
    <glyph glyph-name="quotedblright" unicode="&#x201d;" horiz-adv-x="817" 
d="M193 975l200 438h103l-230 -438h-73zM571 975l201 438h100l-229 -438h-72z" />
    <glyph glyph-name="quotedblbase" unicode="&#x201e;" horiz-adv-x="827" 
d="M-41 -293l201 436h102l-229 -436h-74zM336 -293l201 436h102l-229 -436h-74z" />
    <glyph glyph-name="dagger" unicode="&#x2020;" horiz-adv-x="1011" 
d="M944 1044l-10 -73h-326l-192 -1360h-78l192 1360h-325l10 73h326l51 369h78l-52 -369h326z" />
    <glyph glyph-name="daggerdbl" unicode="&#x2021;" horiz-adv-x="1011" 
d="M934 971h-326l-125 -877h326l-8 -74h-328l-57 -409h-78l57 409h-323l8 74h326l124 877h-325l10 73h326l51 369h78l-52 -369h326z" />
    <glyph glyph-name="bullet" unicode="&#x2022;" horiz-adv-x="583" 
d="M276 412q-65 0 -101.5 42.5t-27.5 106.5q9 65 57.5 107.5t112.5 42.5q65 0 103 -43t29 -107t-58.5 -106.5t-114.5 -42.5z" />
    <glyph glyph-name="ellipsis" unicode="&#x2026;" horiz-adv-x="1320" 
d="M145 -8q-32 0 -50.5 21t-14.5 53t29 53.5t57 21.5t50 -21.5t13 -53.5t-28.5 -53t-55.5 -21zM586 -8q-32 0 -50 21t-14 53q3 32 28 53.5t58 21.5q32 0 50.5 -21.5t13.5 -53.5q-4 -32 -29 -53t-57 -21zM1028 -8q-32 0 -50.5 21t-14.5 53t29 53.5t57 21.5t50 -21t15 -54
q-4 -32 -29 -53t-57 -21z" />
    <glyph glyph-name="perthousand" unicode="&#x2030;" horiz-adv-x="2404" 
d="M469 817q-134 0 -211.5 88.5t-58.5 220.5q19 133 120.5 222.5t235.5 89.5q133 0 210 -89t58 -223q-20 -133 -120.5 -221t-233.5 -88zM197 0l1222 1413h92l-1222 -1413h-92zM477 887q102 0 180 68.5t93 170.5q15 103 -44.5 172.5t-160.5 69.5t-179.5 -69.5t-93.5 -172.5
t43.5 -171t161.5 -68zM1153 -25q-133 0 -210 89t-58 223q20 132 121.5 220.5t234.5 88.5q134 0 211 -88.5t57 -220.5q-19 -133 -120.5 -222.5t-235.5 -89.5zM1901 -25q-134 0 -211 89.5t-58 222.5q20 132 122 220.5t235 88.5t210 -88.5t58 -220.5q-20 -134 -121.5 -223
t-234.5 -89zM1163 45q102 0 181 70t92 172q15 103 -43.5 171t-159.5 68q-103 0 -181.5 -68t-93.5 -171q-14 -103 45 -172.5t160 -69.5zM1911 45q101 0 179 69.5t93 172.5q15 102 -44 170.5t-161 68.5q-101 0 -179 -68t-93 -171t44.5 -172.5t160.5 -69.5z" />
    <glyph glyph-name="guilsinglleft" unicode="&#x2039;" horiz-adv-x="710" 
d="M641 952l-426 -411l309 -412h-100l-311 412l428 411h100z" />
    <glyph glyph-name="guilsinglright" unicode="&#x203a;" horiz-adv-x="710" 
d="M293 952l311 -411l-428 -412h-98l428 412l-313 411h100z" />
    <glyph glyph-name="fraction" unicode="&#x2044;" horiz-adv-x="342" 
d="M-451 0l1211 1413h84l-1211 -1413h-84z" />
    <glyph glyph-name="uni2070" unicode="&#x2070;" horiz-adv-x="811" 
d="M428 735q-141 0 -213.5 122.5t-46.5 316.5q28 193 135 315.5t248 122.5q143 0 215.5 -122.5t44.5 -315.5q-26 -193 -133 -316t-250 -123zM438 801q109 0 194.5 104t108.5 269q25 165 -31 268.5t-167 103.5t-195.5 -103.5t-107.5 -268.5t32.5 -269t165.5 -104z" />
    <glyph glyph-name="uni2074" unicode="&#x2074;" horiz-adv-x="702" 
d="M754 1024l-9 -63h-127l-28 -211h-68l29 211h-426l-10 55l524 581h70l-80 -573h125zM193 1024h368l68 487z" />
    <glyph glyph-name="uni2075" unicode="&#x2075;" horiz-adv-x="704" 
d="M752 1534h-402l-74 -320q92 62 209 62q124 0 195.5 -76t56.5 -192q-17 -117 -115.5 -195t-230.5 -78q-84 0 -153.5 35.5t-114.5 99.5l43 52q36 -55 97 -88t134 -33q104 0 180.5 59.5t90.5 149.5q12 88 -44.5 147.5t-154.5 59.5q-55 0 -113.5 -21.5t-101.5 -56.5l-53 20
l100 438h461z" />
    <glyph glyph-name="uni2076" unicode="&#x2076;" horiz-adv-x="684" 
d="M479 1276q119 0 189 -76.5t55 -187.5q-19 -119 -117 -198t-231 -79q-140 0 -213 85t-53 235q28 195 190.5 352.5t390.5 204.5l4 -64q-177 -43 -304 -148t-181 -241q44 57 118 87t152 30zM651 1012q12 85 -44 143.5t-154 58.5q-61 0 -119.5 -19.5t-105 -65t-54.5 -109.5
q-12 -96 45.5 -157.5t165.5 -61.5q102 0 178 59.5t88 151.5z" />
    <glyph glyph-name="uni2077" unicode="&#x2077;" horiz-adv-x="653" 
d="M211 1597h543l-6 -51l-496 -796h-76l490 784h-463z" />
    <glyph glyph-name="uni2078" unicode="&#x2078;" horiz-adv-x="667" 
d="M733 1389q-9 -65 -58.5 -119t-123.5 -82q76 -26 114.5 -84t28.5 -131q-14 -101 -109.5 -169.5t-224.5 -68.5q-127 0 -202.5 68t-61.5 170q10 73 65 130t138 85q-67 27 -101.5 80.5t-25.5 120.5q13 95 102.5 159t208.5 64q121 0 192.5 -64t57.5 -159zM664 1382
q10 72 -44 119t-145 47q-90 0 -156.5 -47t-76.5 -119q-9 -70 44.5 -116.5t141.5 -46.5q90 0 158.5 46.5t77.5 116.5zM627 979q11 75 -49 126.5t-158 51.5q-97 0 -169 -51.5t-83 -126.5q-10 -76 48 -127t155 -51q99 0 172.5 51t83.5 127z" />
    <glyph glyph-name="uni2079" unicode="&#x2079;" horiz-adv-x="686" 
d="M494 1612q142 0 215.5 -85t52.5 -235q-30 -200 -193.5 -360.5t-388.5 -196.5l-6 64q180 34 307 140.5t181 248.5q-43 -56 -117 -86.5t-154 -30.5q-119 0 -187.5 76.5t-53.5 187.5q15 119 113 198t231 79zM696 1327q12 96 -46 157.5t-167 61.5q-102 0 -177 -59.5
t-87 -151.5q-12 -86 44 -144t155 -58q61 0 118.5 19.5t104 65t55.5 109.5z" />
    <glyph glyph-name="franc" unicode="&#x20a3;" horiz-adv-x="1144" 
d="M1178 1331h-742l-80 -575h652l-11 -82h-653l-41 -301h473l-10 -78h-475l-41 -295h-88l41 295h-154l10 78h156l145 1040h830z" />
    <glyph glyph-name="lira" unicode="&#x20a4;" horiz-adv-x="1173" 
d="M821 1438q115 0 207.5 -49.5t149.5 -135.5l-58 -61q-114 160 -309 160q-151 0 -264 -97t-135 -243l-31 -213h485l-10 -72h-483l-23 -154h484l-11 -69h-483l-57 -422h743l-12 -82h-987l12 82h156l57 422h-154l11 69h153l23 154h-154l10 72h152l31 213q17 119 88 217
t179 153.5t230 55.5z" />
    <glyph glyph-name="peseta" unicode="&#x20a7;" horiz-adv-x="1290" 
d="M1341 1022l-8 -64h-112q-35 -169 -171.5 -280t-310.5 -111h-391l-80 -567h-86l135 958h-155l8 64h156l55 391h477q174 0 279 -110.5t94 -280.5h110zM455 1331l-43 -309h727q8 134 -74.5 221.5t-218.5 87.5h-391zM750 649q136 0 242.5 87t137.5 222h-727l-43 -309h390z
" />
    <glyph glyph-name="uni20A8" unicode="&#x20a8;" horiz-adv-x="2224" 
d="M858 1413q170 0 269.5 -114t74.5 -283q-23 -169 -153.5 -282t-300.5 -113h-105l440 -621h-108l-436 621h-246l-88 -621h-88l198 1413h543zM1112 1016q20 135 -57 225t-211 90h-453l-88 -633h453q134 0 235.5 91t120.5 227zM1772 565q66 -17 104 -28t90.5 -35.5t78.5 -52
t42 -73t8 -102.5q-20 -136 -144 -217.5t-296 -81.5q-125 0 -223.5 45t-157.5 123l57 60q50 -72 136.5 -112t197.5 -40q135 0 233 59.5t111 155.5q4 30 -2 55.5t-16.5 44t-35 35.5t-44 28t-56 23.5t-60 19t-66.5 17.5q-47 12 -74.5 20t-69.5 23.5t-66.5 29.5t-53 37
t-42.5 48.5t-21 60.5t-1 76q13 89 74 155t148.5 98t188.5 32q217 0 340 -147l-57 -62q-43 62 -119 97.5t-172 35.5q-124 0 -214 -55.5t-103 -144.5q-4 -31 2 -57t17.5 -45t35.5 -36.5t44.5 -28.5t57.5 -23.5t61 -19.5t67 -18z" />
    <glyph glyph-name="Euro" unicode="&#x20ac;" horiz-adv-x="1568" 
d="M1102 1438q286 0 467 -181l-15 -100q-80 93 -197 144t-259 51q-240 0 -434 -138.5t-271 -359.5h922l-37 -70h-907q-9 -39 -15 -77q-6 -41 -6 -78h832l-37 -70h-795q17 -222 172.5 -360t395.5 -138q140 0 273 51.5t239 143.5l-15 -100q-232 -181 -520 -181
q-273 0 -449 163.5t-188 420.5h-176l37 70h139q4 52 8 78q6 38 15 77h-166l37 70h149q84 257 306 420.5t495 163.5z" />
    <glyph glyph-name="uni20B1" unicode="&#x20b1;" horiz-adv-x="1290" 
d="M1356 1126l-8 -63h-117q0 -49 -4 -74q-7 -41 -17 -71h117l-8 -64h-133q-59 -129 -181 -209t-266 -80h-391l-80 -565h-88l121 854h-156l11 64h153l21 145h-154l8 63h154l41 287h479q144 0 243 -79t124 -208h131zM457 1333l-31 -207h700q-25 95 -101 151t-185 56h-383z
M1135 989q5 33 2 74h-719l-21 -145h721q10 30 17 71zM743 647q110 0 203.5 56.5t143.5 150.5h-701l-31 -207h385z" />
    <glyph glyph-name="uni20B5" unicode="&#x20b5;" horiz-adv-x="1554" 
d="M1442 1075q-63 115 -178.5 183t-264.5 77l-178 -1257q152 7 285.5 75.5t230.5 184.5l68 -49q-109 -132 -265 -211t-331 -86l-18 -135h-64l18 135q-144 5 -263.5 62.5t-197 152t-111.5 224.5t-13 276q40 297 265 500t523 214l19 135h63l-18 -135q170 -9 304 -87.5
t208 -209.5zM250 707q-24 -172 33.5 -313.5t182 -225t292.5 -90.5l178 1257q-171 -7 -319.5 -90t-246 -224.5t-120.5 -313.5z" />
    <glyph glyph-name="uni20B9" unicode="&#x20b9;" horiz-adv-x="1163" 
d="M891 1341q82 -66 108 -163h183l-43 -72h-125q3 -38 -4 -92q-23 -170 -154 -285t-303 -115h-252l606 -614h-121l-614 625l10 69h377q135 0 238.5 91t122.5 229q5 44 2 92h-682l10 72h651q-30 73 -96 115t-154 42h-379l11 78h931l-43 -72h-280z" />
    <glyph glyph-name="uni2116" unicode="&#x2116;" horiz-adv-x="2387" 
d="M2042 1438q157 0 247 -105t68 -262q-22 -158 -142 -263.5t-278 -105.5t-248.5 105.5t-68.5 263.5q22 157 143 262t279 105zM1194 135l180 1278h88l-198 -1413h-99l-780 1278l-180 -1278h-88l198 1413h99zM2281 1071q17 124 -54.5 208.5t-194.5 84.5q-125 0 -221 -84.5
t-113 -208.5q-19 -126 53 -210.5t197 -84.5q123 0 218.5 84.5t114.5 210.5zM1556 432l11 76h686l-10 -76h-687z" />
    <glyph glyph-name="trademark" unicode="&#x2122;" horiz-adv-x="1409" 
d="M178 1362l8 51h445l-8 -51h-195l-76 -547h-55l78 547h-197zM1303 1413h73l-84 -598h-55l78 533l-291 -451h-43l-164 442l-74 -524h-55l84 598h76l164 -452z" />
    <glyph glyph-name="uni2150" unicode="&#x2150;" horiz-adv-x="1654" 
d="M1300 1413h84l-1210 -1413h-84zM369 1331l-207 -104l-25 53l262 133h47l-118 -848h-68zM1108 848h543l-6 -51l-496 -797h-76l490 784h-463z" />
    <glyph glyph-name="uni2151" unicode="&#x2151;" horiz-adv-x="1566" 
d="M1300 1413h84l-1210 -1413h-84zM369 1331l-207 -104l-25 53l262 133h47l-118 -848h-68zM1272 862q142 0 215.5 -84.5t52.5 -234.5q-30 -200 -193.5 -360.5t-388.5 -196.5l-6 63q180 34 307 140.5t181 248.5q-43 -55 -116.5 -85.5t-154.5 -30.5q-119 0 -187.5 76.5
t-53.5 187.5q15 119 113 197.5t231 78.5zM1475 578q12 96 -46 157.5t-167 61.5q-102 0 -177.5 -59.5t-87.5 -151.5q-12 -86 44 -144.5t155 -58.5q61 0 119 19.5t104.5 65.5t55.5 110z" />
    <glyph glyph-name="uni2152" unicode="&#x2152;" horiz-adv-x="2193" 
d="M90 0l1210 1413h84l-1210 -1413h-84zM369 1331l-207 -104l-25 53l262 133h47l-118 -848h-68zM1829 862q143 0 215.5 -122.5t44.5 -315.5q-26 -193 -133 -315.5t-250 -122.5q-141 0 -213.5 122.5t-46.5 315.5q28 193 135 315.5t248 122.5zM1001 715l263 133h47l-119 -848
h-68l109 766l-207 -104zM2019 424q25 165 -31 269t-167 104t-195.5 -104t-107.5 -269t32.5 -269t165.5 -104q109 0 194.5 104t108.5 269z" />
    <glyph glyph-name="uni2153" unicode="&#x2153;" horiz-adv-x="1558" 
d="M1300 1413h84l-1210 -1413h-84zM369 1331l-207 -104l-25 53l262 133h47l-118 -848h-68zM1516 645q-9 -66 -57 -118.5t-120 -77.5q75 -23 114.5 -84t29.5 -140q-14 -103 -107.5 -171t-222.5 -68q-85 0 -157 31.5t-119 91.5l47 49q79 -107 233 -107q101 0 174.5 52
t85.5 130q10 79 -45.5 132t-148.5 53h-133l8 59h133q83 0 144.5 46t70.5 114q9 69 -43 114.5t-141 45.5q-65 0 -126.5 -26t-103.5 -73l-33 47q114 117 279 117q117 0 184.5 -61.5t53.5 -155.5z" />
    <glyph glyph-name="uni2154" unicode="&#x2154;" horiz-adv-x="1751" 
d="M616 629l-10 -64h-543l9 53l403 381q55 54 87.5 100t39.5 95q10 74 -37 120t-127 46q-138 0 -235 -131l-43 41q51 72 129 114.5t162 42.5q110 0 172 -64.5t47 -166.5q-7 -61 -43 -115t-101 -114l-358 -338h448zM1493 1413h84l-1210 -1413h-84zM1708 645
q-9 -66 -56.5 -118.5t-119.5 -77.5q75 -23 114 -84t29 -140q-14 -103 -107 -171t-222 -68q-86 0 -158 32t-119 91l47 49q79 -107 234 -107q101 0 174.5 52t85.5 130q10 79 -46 132t-149 53h-133l8 59h133q83 0 144.5 46t70.5 114q9 69 -43 114.5t-141 45.5q-65 0 -126 -26
t-103 -73l-33 47q114 117 278 117q117 0 184.5 -61.5t53.5 -155.5z" />
    <glyph glyph-name="uni2155" unicode="&#x2155;" horiz-adv-x="1609" 
d="M1300 1413h84l-1210 -1413h-84zM369 1331l-207 -104l-25 53l262 133h47l-118 -848h-68zM1552 784h-401l-74 -319q91 61 209 61q124 0 195.5 -76t56.5 -192q-17 -117 -115.5 -194.5t-230.5 -77.5q-84 0 -153.5 35.5t-114.5 99.5l43 51q36 -55 97 -88t134 -33
q104 0 180 59.5t90 149.5q12 88 -44 147.5t-154 59.5q-55 0 -113.5 -21.5t-101.5 -56.5l-54 21l101 438h461z" />
    <glyph glyph-name="uni2156" unicode="&#x2156;" horiz-adv-x="1802" 
d="M616 629l-10 -64h-543l9 53l403 381q55 54 87.5 100t39.5 95q10 74 -37 120t-127 46q-138 0 -235 -131l-43 41q51 72 129 114.5t162 42.5q110 0 172 -64.5t47 -166.5q-7 -61 -43 -115t-101 -114l-358 -338h448zM1493 1413h84l-1210 -1413h-84zM1745 784h-402l-73 -319
q91 61 209 61q124 0 195.5 -76t56.5 -192q-17 -117 -116 -194.5t-231 -77.5q-84 0 -153.5 35.5t-114.5 99.5l43 51q36 -55 97.5 -88t134.5 -33q104 0 180 59.5t90 149.5q12 88 -44.5 147.5t-154.5 59.5q-55 0 -113.5 -21.5t-101.5 -56.5l-53 21l100 438h461z" />
    <glyph glyph-name="uni2157" unicode="&#x2157;" horiz-adv-x="1755" 
d="M670 791q-14 -103 -107.5 -171.5t-222.5 -68.5q-86 0 -158 32t-119 91l48 49q79 -107 233 -107q101 0 174.5 52.5t85.5 130.5q10 79 -45.5 131.5t-148.5 52.5h-134l9 59h133q83 0 144.5 46t70.5 114q9 69 -43 114.5t-141 45.5q-65 0 -126.5 -25.5t-103.5 -72.5l-33 47
q113 116 279 116q117 0 184 -61.5t53 -155.5q-9 -66 -56.5 -118.5t-119.5 -77.5q76 -23 115 -83.5t29 -139.5zM1446 1413h84l-1211 -1413h-83zM1698 784h-402l-73 -319q91 61 209 61q124 0 195 -76t56 -192q-17 -117 -115.5 -194.5t-230.5 -77.5q-84 0 -153.5 35.5
t-114.5 99.5l43 51q36 -55 97 -88t134 -33q104 0 180.5 59.5t90.5 149.5q12 88 -44.5 147.5t-154.5 59.5q-55 0 -113.5 -21.5t-101.5 -56.5l-53 21l100 438h461z" />
    <glyph glyph-name="uni2158" unicode="&#x2158;" horiz-adv-x="1777" 
d="M498 565l28 211h-426l-10 55l524 582h70l-80 -573h125l-8 -64h-127l-29 -211h-67zM1468 1413h84l-1210 -1413h-84zM168 840h369l67 487zM1720 784h-401l-74 -319q91 61 209 61q124 0 195.5 -76t56.5 -192q-17 -117 -115.5 -194.5t-230.5 -77.5q-84 0 -153.5 35.5
t-114.5 99.5l43 51q36 -55 97 -88t134 -33q104 0 180 59.5t90 149.5q12 88 -44 147.5t-154 59.5q-55 0 -113.5 -21.5t-101.5 -56.5l-54 21l101 438h461z" />
    <glyph glyph-name="uni2159" unicode="&#x2159;" horiz-adv-x="1472" 
d="M1300 1413h84l-1210 -1413h-84zM369 1331l-207 -104l-25 53l262 133h47l-118 -848h-68zM1165 526q119 0 189 -76.5t55 -187.5q-19 -119 -117 -197.5t-231 -78.5q-140 0 -213 84.5t-53 234.5q28 195 190.5 352.5t390.5 204.5l4 -63q-177 -43 -304 -148t-181 -241
q43 57 117 86.5t153 29.5zM1337 262q12 86 -44.5 144.5t-153.5 58.5q-61 0 -119.5 -19.5t-105 -65.5t-54.5 -110q-12 -96 45.5 -157.5t165.5 -61.5q102 0 178 59.5t88 151.5z" />
    <glyph glyph-name="uni215A" unicode="&#x215a;" horiz-adv-x="1636" 
d="M713 823q-17 -117 -115.5 -194.5t-230.5 -77.5q-84 0 -154 35.5t-115 99.5l43 51q36 -55 97.5 -88t134.5 -33q104 0 180 59.5t90 149.5q12 88 -44.5 147.5t-154.5 59.5q-55 0 -113.5 -21.5t-101.5 -56.5l-53 21l100 438h461l-10 -63h-401l-74 -320q92 62 209 62
q124 0 195.5 -76.5t56.5 -192.5zM1464 1413h84l-1210 -1413h-84zM1329 526q119 0 189 -76.5t55 -187.5q-19 -119 -117 -197.5t-231 -78.5q-140 0 -213.5 84.5t-53.5 234.5q28 195 191 352.5t391 204.5l4 -63q-177 -43 -304 -148t-181 -241q43 57 117 86.5t153 29.5z
M1501 262q12 86 -44.5 144.5t-153.5 58.5q-61 0 -119.5 -19.5t-105 -65.5t-54.5 -110q-12 -96 45.5 -157.5t165.5 -61.5q102 0 178 59.5t88 151.5z" />
    <glyph glyph-name="oneeighth" unicode="&#x215b;" horiz-adv-x="1558" 
d="M1300 1413h84l-1210 -1413h-84zM369 1331l-207 -104l-25 53l262 133h47l-118 -848h-68zM1522 639q-9 -65 -58.5 -119t-124.5 -82q76 -27 115 -84.5t29 -130.5q-13 -101 -109 -169t-225 -68q-127 0 -202.5 68t-61.5 169q10 73 64.5 130t137.5 85q-67 26 -101 80t-25 121
q13 95 102.5 159t208.5 64q121 0 192.5 -64t57.5 -159zM1452 633q10 72 -43.5 119t-144.5 47q-90 0 -157 -47t-77 -119q-9 -70 45 -117t142 -47q90 0 158 47t77 117zM1415 229q11 75 -49 127t-158 52q-96 0 -168.5 -52t-83.5 -127q-10 -76 48 -127t155 -51q99 0 172.5 51
t83.5 127z" />
    <glyph glyph-name="threeeighths" unicode="&#x215c;" horiz-adv-x="1703" 
d="M670 791q-14 -103 -107.5 -171.5t-222.5 -68.5q-86 0 -158 32t-119 91l48 49q79 -107 233 -107q101 0 174.5 52.5t85.5 130.5q10 79 -45.5 131.5t-148.5 52.5h-134l9 59h133q83 0 144.5 46t70.5 114q9 69 -43 114.5t-141 45.5q-65 0 -126.5 -25.5t-103.5 -72.5l-33 47
q113 116 279 116q117 0 184 -61.5t53 -155.5q-9 -66 -56.5 -118.5t-119.5 -77.5q76 -23 115 -83.5t29 -139.5zM1446 1413h84l-1211 -1413h-83zM1667 639q-9 -65 -58.5 -119t-123.5 -82q76 -26 114.5 -84t28.5 -131q-13 -101 -109 -169t-225 -68q-127 0 -202.5 68t-61.5 169
q10 73 65 130t138 85q-67 27 -101.5 80.5t-25.5 120.5q13 95 102.5 159t208.5 64q121 0 192.5 -64t57.5 -159zM1597 633q10 72 -43.5 119t-144.5 47q-90 0 -156.5 -47t-76.5 -119q-9 -70 44.5 -117t141.5 -47q90 0 158 47t77 117zM1561 229q11 75 -49 127t-158 52
q-96 0 -168.5 -52t-83.5 -127q-10 -76 48 -127t155 -51q99 0 172.5 51t83.5 127z" />
    <glyph glyph-name="fiveeighths" unicode="&#x215d;" horiz-adv-x="1722" 
d="M713 823q-17 -117 -115.5 -194.5t-230.5 -77.5q-84 0 -154 35.5t-115 99.5l43 51q36 -55 97.5 -88t134.5 -33q104 0 180 59.5t90 149.5q12 88 -44.5 147.5t-154.5 59.5q-55 0 -113.5 -21.5t-101.5 -56.5l-53 21l100 438h461l-10 -63h-401l-74 -320q92 62 209 62
q124 0 195.5 -76.5t56.5 -192.5zM1464 1413h84l-1210 -1413h-84zM1686 639q-9 -65 -58.5 -119t-124.5 -82q76 -27 115 -84.5t29 -130.5q-13 -101 -109 -169t-225 -68q-127 0 -202.5 68t-61.5 169q10 73 64.5 130t137.5 85q-67 27 -101.5 80.5t-25.5 120.5q13 95 103 159
t209 64q121 0 192.5 -64t57.5 -159zM1616 633q10 72 -44 119t-145 47q-90 0 -156.5 -47t-76.5 -119q-9 -70 44.5 -117t141.5 -47q90 0 158.5 47t77.5 117zM1579 229q11 75 -49 127t-158 52q-96 0 -168.5 -52t-83.5 -127q-10 -76 48 -127t155 -51q99 0 172.5 51t83.5 127z
" />
    <glyph glyph-name="seveneighths" unicode="&#x215e;" horiz-adv-x="1568" 
d="M1311 1413h84l-1211 -1413h-84zM227 565h-75l489 785h-463l8 63h543l-6 -51zM1532 639q-9 -65 -58.5 -119t-123.5 -82q76 -26 114.5 -84t28.5 -131q-13 -101 -109 -169t-225 -68q-127 0 -202.5 68t-61.5 169q10 73 65 130t138 85q-67 27 -101.5 80.5t-25.5 120.5
q13 95 102.5 159t208.5 64q121 0 192.5 -64t57.5 -159zM1462 633q10 72 -43.5 119t-144.5 47q-90 0 -157 -47t-77 -119q-9 -70 45 -117t142 -47q90 0 158 47t77 117zM1425 229q11 75 -48.5 127t-157.5 52q-96 0 -168.5 -52t-83.5 -127q-10 -76 47.5 -127t154.5 -51
q99 0 172.5 51t83.5 127z" />
    <glyph glyph-name="uni215F" unicode="&#x215f;" horiz-adv-x="882" 
d="M1300 1413h84l-1210 -1413h-84zM369 1331l-207 -104l-25 53l262 133h47l-118 -848h-68z" />
    <glyph glyph-name="uni2189" unicode="&#x2189;" horiz-adv-x="1824" 
d="M786 989q-26 -193 -133 -315.5t-250 -122.5q-141 0 -213.5 122.5t-46.5 315.5q28 193 135 315.5t248 122.5q143 0 215.5 -122.5t44.5 -315.5zM1567 1413h84l-1211 -1413h-84zM215 989q-23 -165 32.5 -269t166.5 -104q109 0 194.5 104t108.5 269q25 165 -31.5 269
t-167.5 104t-195.5 -104t-107.5 -269zM1782 645q-9 -66 -56.5 -118.5t-119.5 -77.5q75 -23 114 -84t29 -140q-14 -103 -107.5 -171t-222.5 -68q-85 0 -157 31.5t-119 91.5l47 49q79 -107 233 -107q101 0 174.5 52t85.5 130q10 79 -45.5 132t-148.5 53h-133l8 59h133
q83 0 144.5 46t70.5 114q9 69 -43 114.5t-141 45.5q-65 0 -126.5 -26t-103.5 -73l-32 47q114 117 278 117q117 0 184.5 -61.5t53.5 -155.5z" />
    <glyph glyph-name="arrowleft" unicode="&#x2190;" horiz-adv-x="1384" 
d="M1241 743l-10 -75h-903l288 -334l-57 -51l-362 424l481 423l43 -51l-383 -336h903z" />
    <glyph glyph-name="arrowup" unicode="&#x2191;" horiz-adv-x="1384" 
d="M1155 805l-55 -51l-291 336l-127 -904h-76l127 901l-381 -333l-43 51l482 422z" />
    <glyph glyph-name="arrowright" unicode="&#x2192;" horiz-adv-x="1384" 
d="M877 1130l364 -423l-483 -424l-43 51l381 334h-901l10 77h901l-287 334z" />
    <glyph glyph-name="arrowdown" unicode="&#x2193;" horiz-adv-x="1384" 
d="M1085 659l41 -51l-481 -422l-364 422l57 51l289 -333l127 901h75l-127 -903z" />
    <glyph glyph-name="uni2196" unicode="&#x2196;" horiz-adv-x="1384" 
d="M1055 379l-64 -53l-547 637l-65 -471h-74l84 595h598l-10 -71l-469 2z" />
    <glyph glyph-name="uni2197" unicode="&#x2197;" horiz-adv-x="1384" 
d="M551 1087h598l-86 -595h-68l70 477l-733 -643l-45 53l729 639h-475z" />
    <glyph glyph-name="uni2198" unicode="&#x2198;" horiz-adv-x="1384" 
d="M1057 922h73l-83 -596h-598l10 71l471 -2l-547 639l61 53l547 -636z" />
    <glyph glyph-name="uni2199" unicode="&#x2199;" horiz-adv-x="1384" 
d="M1147 1034l-727 -639l469 2l-10 -71h-596l84 596h73l-69 -471l729 636z" />
    <glyph glyph-name="minus" unicode="&#x2212;" horiz-adv-x="1093" 
d="M147 567l11 76h813l-13 -76h-811z" />
    <glyph glyph-name="approxequal" unicode="&#x2248;" horiz-adv-x="1077" 
d="M739 680q-45 0 -82.5 18t-63.5 44t-51 52t-56.5 44t-67.5 18q-66 0 -115.5 -44t-58.5 -110h-78q15 102 84 168t168 66q45 0 82.5 -18t63.5 -44t51 -52t56.5 -44t67.5 -18q66 0 115.5 44t58.5 109h78q-14 -100 -84 -166.5t-168 -66.5zM684 289q-45 0 -83 18t-64.5 44
t-51.5 52t-57 44t-68 18q-65 0 -114 -44t-58 -110h-75q12 102 80.5 168t168.5 66q45 0 83 -18t64.5 -44t51.5 -52t57 -44t68 -18q65 0 115 44.5t57 108.5h76q-12 -100 -81.5 -166.5t-168.5 -66.5z" />
    <glyph glyph-name="notequal" unicode="&#x2260;" horiz-adv-x="1093" 
d="M981 725h-307l-152 -240h426l-10 -73h-463l-141 -224h-78l141 224h-272l12 73h307l152 240h-426l10 74h463l139 221h78l-139 -221h270z" />
    <glyph glyph-name="lessequal" unicode="&#x2264;" horiz-adv-x="950" 
d="M881 1036l-11 -84l-628 -241l561 -240l-12 -84l-629 283l10 84zM94 182l10 74h668l-10 -74h-668z" />
    <glyph glyph-name="greaterequal" unicode="&#x2265;" horiz-adv-x="950" 
d="M213 1036l629 -282l-13 -84l-706 -283l10 84l629 242l-559 239zM94 182l10 74h668l-10 -74h-668z" />
    <glyph glyph-name="uni279D" unicode="&#x279d;" horiz-adv-x="2215" 
d="M2064 707l-473 -416l51 377h-1443l10 77h1446l51 377z" />
    <glyph glyph-name="uni27F5" unicode="&#x27f5;" horiz-adv-x="2215" 
d="M2071 743l-11 -75h-1726l289 -334l-56 -51l-364 424l483 423l41 -51l-383 -336h1727z" />
    <glyph glyph-name="uni27F6" unicode="&#x27f6;" horiz-adv-x="2215" 
d="M1702 1130l364 -423l-483 -424l-43 51l383 334h-1726l10 75h1726l-288 336z" />
    <glyph glyph-name="G.ss05" horiz-adv-x="1691" 
d="M938 709h641l-100 -709h-78l55 393q-104 -196 -288 -307t-404 -111q-154 0 -282.5 56.5t-211.5 153.5t-120 232.5t-15 289.5q28 205 147 372.5t301 263t388 95.5q190 0 337.5 -83t225.5 -227l-74 -51q-69 129 -199 203t-300 74q-136 0 -262.5 -49.5t-224 -135t-164 -206
t-85.5 -256.5q-26 -182 37 -330.5t199 -233t317 -84.5q257 0 457.5 162t247.5 410h-555z" />
    <glyph glyph-name="uni01F4.ss05" horiz-adv-x="1691" 
d="M1294 1810l-272 -237h-92l252 237h112zM938 709h641l-100 -709h-78l55 393q-104 -196 -288 -307t-404 -111q-154 0 -282.5 56.5t-211.5 153.5t-120 232.5t-15 289.5q28 205 147 372.5t301 263t388 95.5q190 0 337.5 -83t225.5 -227l-74 -51q-69 129 -199 203t-300 74
q-136 0 -262.5 -49.5t-224 -135t-164 -206t-85.5 -256.5q-26 -182 37 -330.5t199 -233t317 -84.5q257 0 457.5 162t247.5 410h-555z" />
    <glyph glyph-name="Gbreve.ss05" horiz-adv-x="1691" 
d="M987 1552q-102 0 -161.5 68t-45.5 170h68q-9 -75 33 -124.5t114 -49.5q74 0 131 50t66 124h70q-13 -101 -92.5 -169.5t-182.5 -68.5zM938 709h641l-100 -709h-78l55 393q-104 -196 -288 -307t-404 -111q-154 0 -282.5 56.5t-211.5 153.5t-120 232.5t-15 289.5
q28 205 147 372.5t301 263t388 95.5q190 0 337.5 -83t225.5 -227l-74 -51q-69 129 -199 203t-300 74q-136 0 -262.5 -49.5t-224 -135t-164 -206t-85.5 -256.5q-26 -182 37 -330.5t199 -233t317 -84.5q257 0 457.5 162t247.5 410h-555z" />
    <glyph glyph-name="Gcaron.ss05" horiz-adv-x="1691" 
d="M1042 1573h-104l-174 237h82l151 -190l205 190h82zM938 709h641l-100 -709h-78l55 393q-104 -196 -288 -307t-404 -111q-154 0 -282.5 56.5t-211.5 153.5t-120 232.5t-15 289.5q28 205 147 372.5t301 263t388 95.5q190 0 337.5 -83t225.5 -227l-74 -51q-69 129 -199 203
t-300 74q-136 0 -262.5 -49.5t-224 -135t-164 -206t-85.5 -256.5q-26 -182 37 -330.5t199 -233t317 -84.5q257 0 457.5 162t247.5 410h-555z" />
    <glyph glyph-name="Gcircumflex.ss05" horiz-adv-x="1691" 
d="M1016 1763l-203 -190h-82l242 237h102l176 -237h-82zM938 709h641l-100 -709h-78l55 393q-104 -196 -288 -307t-404 -111q-154 0 -282.5 56.5t-211.5 153.5t-120 232.5t-15 289.5q28 205 147 372.5t301 263t388 95.5q190 0 337.5 -83t225.5 -227l-74 -51
q-69 129 -199 203t-300 74q-136 0 -262.5 -49.5t-224 -135t-164 -206t-85.5 -256.5q-26 -182 37 -330.5t199 -233t317 -84.5q257 0 457.5 162t247.5 410h-555z" />
    <glyph glyph-name="uni0122.ss05" horiz-adv-x="1691" 
d="M938 709h641l-100 -709h-78l55 393q-104 -196 -288 -307t-404 -111q-154 0 -282.5 56.5t-211.5 153.5t-120 232.5t-15 289.5q28 205 147 372.5t301 263t388 95.5q190 0 337.5 -83t225.5 -227l-74 -51q-69 129 -199 203t-300 74q-136 0 -262.5 -49.5t-224 -135t-164 -206
t-85.5 -256.5q-26 -182 37 -330.5t199 -233t317 -84.5q257 0 457.5 162t247.5 410h-555zM625 -436l96 280h90l-119 -280h-67z" />
    <glyph glyph-name="Gdotaccent.ss05" horiz-adv-x="1691" 
d="M993 1597q-28 0 -44.5 19.5t-12.5 48.5q3 27 26.5 46.5t51.5 19.5t44 -19t13 -47q-5 -29 -27 -48.5t-51 -19.5zM938 709h641l-100 -709h-78l55 393q-104 -196 -288 -307t-404 -111q-154 0 -282.5 56.5t-211.5 153.5t-120 232.5t-15 289.5q28 205 147 372.5t301 263
t388 95.5q190 0 337.5 -83t225.5 -227l-74 -51q-69 129 -199 203t-300 74q-136 0 -262.5 -49.5t-224 -135t-164 -206t-85.5 -256.5q-26 -182 37 -330.5t199 -233t317 -84.5q257 0 457.5 162t247.5 410h-555z" />
    <glyph glyph-name="i.loclTRK" horiz-adv-x="423" 
d="M311 1229q-28 0 -44.5 19t-12.5 48q3 27 26.5 46.5t51.5 19.5t44 -19t13 -47q-4 -29 -26.5 -48t-51.5 -19zM98 0l148 1044h82l-148 -1044h-82z" />
    <glyph glyph-name="a.ss01" horiz-adv-x="1150" 
d="M631 1069q197 0 302.5 -109t80.5 -290l-96 -670h-78l24 158q-64 -84 -175 -133.5t-243 -49.5q-185 0 -292.5 93.5t-87.5 240.5q22 147 155.5 240.5t317.5 93.5q130 0 226 -47.5t138 -128.5l27 197q22 151 -64 240t-252 89q-117 0 -216.5 -44t-164.5 -115l-43 51
q73 82 190 133t251 51zM471 49q159 0 276 74.5t132 185.5q17 110 -78.5 185t-255.5 75q-156 0 -267 -72.5t-128 -187.5q-15 -115 75.5 -187.5t245.5 -72.5z" />
    <glyph glyph-name="aacute.ss01" horiz-adv-x="1150" 
d="M967 1442l-273 -238h-92l252 238h113zM631 1069q197 0 302.5 -109t80.5 -290l-96 -670h-78l24 158q-64 -84 -175 -133.5t-243 -49.5q-185 0 -292.5 93.5t-87.5 240.5q22 147 155.5 240.5t317.5 93.5q130 0 226 -47.5t138 -128.5l27 197q22 151 -64 240t-252 89
q-117 0 -216.5 -44t-164.5 -115l-43 51q73 82 190 133t251 51zM471 49q159 0 276 74.5t132 185.5q17 110 -78.5 185t-255.5 75q-156 0 -267 -72.5t-128 -187.5q-15 -115 75.5 -187.5t245.5 -72.5z" />
    <glyph glyph-name="abreve.ss01" horiz-adv-x="1150" 
d="M659 1184q-102 0 -161 67.5t-45 169.5h67q-9 -75 33.5 -124.5t114.5 -49.5q74 0 130.5 49.5t65.5 124.5h70q-13 -101 -92.5 -169t-182.5 -68zM631 1069q197 0 302.5 -109t80.5 -290l-96 -670h-78l24 158q-64 -84 -175 -133.5t-243 -49.5q-185 0 -292.5 93.5t-87.5 240.5
q22 147 155.5 240.5t317.5 93.5q130 0 226 -47.5t138 -128.5l27 197q22 151 -64 240t-252 89q-117 0 -216.5 -44t-164.5 -115l-43 51q73 82 190 133t251 51zM471 49q159 0 276 74.5t132 185.5q17 110 -78.5 185t-255.5 75q-156 0 -267 -72.5t-128 -187.5
q-15 -115 75.5 -187.5t245.5 -72.5z" />
    <glyph glyph-name="uni01CE.ss01" horiz-adv-x="1150" 
d="M715 1204h-105l-174 238h82l152 -191l204 191h82zM631 1069q197 0 302.5 -109t80.5 -290l-96 -670h-78l24 158q-64 -84 -175 -133.5t-243 -49.5q-185 0 -292.5 93.5t-87.5 240.5q22 147 155.5 240.5t317.5 93.5q130 0 226 -47.5t138 -128.5l27 197q22 151 -64 240
t-252 89q-117 0 -216.5 -44t-164.5 -115l-43 51q73 82 190 133t251 51zM471 49q159 0 276 74.5t132 185.5q17 110 -78.5 185t-255.5 75q-156 0 -267 -72.5t-128 -187.5q-15 -115 75.5 -187.5t245.5 -72.5z" />
    <glyph glyph-name="acircumflex.ss01" horiz-adv-x="1150" 
d="M688 1395l-203 -191h-82l242 238h103l176 -238h-82zM631 1069q197 0 302.5 -109t80.5 -290l-96 -670h-78l24 158q-64 -84 -175 -133.5t-243 -49.5q-185 0 -292.5 93.5t-87.5 240.5q22 147 155.5 240.5t317.5 93.5q130 0 226 -47.5t138 -128.5l27 197q22 151 -64 240
t-252 89q-117 0 -216.5 -44t-164.5 -115l-43 51q73 82 190 133t251 51zM471 49q159 0 276 74.5t132 185.5q17 110 -78.5 185t-255.5 75q-156 0 -267 -72.5t-128 -187.5q-15 -115 75.5 -187.5t245.5 -72.5z" />
    <glyph glyph-name="uni0201.ss01" horiz-adv-x="1150" 
d="M532 1204h-81l-148 238h98zM885 1204h-80l-148 238h99zM631 1069q197 0 302.5 -109t80.5 -290l-96 -670h-78l24 158q-64 -84 -175 -133.5t-243 -49.5q-185 0 -292.5 93.5t-87.5 240.5q22 147 155.5 240.5t317.5 93.5q130 0 226 -47.5t138 -128.5l27 197q22 151 -64 240
t-252 89q-117 0 -216.5 -44t-164.5 -115l-43 51q73 82 190 133t251 51zM471 49q159 0 276 74.5t132 185.5q17 110 -78.5 185t-255.5 75q-156 0 -267 -72.5t-128 -187.5q-15 -115 75.5 -187.5t245.5 -72.5z" />
    <glyph glyph-name="adieresis.ss01" horiz-adv-x="1150" 
d="M465 1229q-28 0 -44.5 18.5t-12.5 46.5q3 28 25 47t50 19q27 0 43 -19t13 -47q-5 -28 -25.5 -46.5t-48.5 -18.5zM868 1229q-28 0 -44 18.5t-13 46.5q5 28 26.5 47t49.5 19t44 -19t13 -47q-4 -28 -26 -46.5t-50 -18.5zM631 1069q197 0 302.5 -109t80.5 -290l-96 -670h-78
l24 158q-64 -84 -175 -133.5t-243 -49.5q-185 0 -292.5 93.5t-87.5 240.5q22 147 155.5 240.5t317.5 93.5q130 0 226 -47.5t138 -128.5l27 197q22 151 -64 240t-252 89q-117 0 -216.5 -44t-164.5 -115l-43 51q73 82 190 133t251 51zM471 49q159 0 276 74.5t132 185.5
q17 110 -78.5 185t-255.5 75q-156 0 -267 -72.5t-128 -187.5q-15 -115 75.5 -187.5t245.5 -72.5z" />
    <glyph glyph-name="uni1EA1.ss01" horiz-adv-x="1150" 
d="M631 1069q197 0 302.5 -109t80.5 -290l-96 -670h-78l24 158q-64 -84 -175 -133.5t-243 -49.5q-185 0 -292.5 93.5t-87.5 240.5q22 147 155.5 240.5t317.5 93.5q130 0 226 -47.5t138 -128.5l27 197q22 151 -64 240t-252 89q-117 0 -216.5 -44t-164.5 -115l-43 51
q73 82 190 133t251 51zM471 49q159 0 276 74.5t132 185.5q17 110 -78.5 185t-255.5 75q-156 0 -267 -72.5t-128 -187.5q-15 -115 75.5 -187.5t245.5 -72.5zM467 -184q29 0 45.5 -19.5t11.5 -48.5q-3 -27 -25 -46t-50 -19q-29 0 -45 18.5t-13 46.5q4 29 26 48.5t50 19.5z" />
    <glyph glyph-name="agrave.ss01" horiz-adv-x="1150" 
d="M723 1204h-92l-207 238h113zM631 1069q197 0 302.5 -109t80.5 -290l-96 -670h-78l24 158q-64 -84 -175 -133.5t-243 -49.5q-185 0 -292.5 93.5t-87.5 240.5q22 147 155.5 240.5t317.5 93.5q130 0 226 -47.5t138 -128.5l27 197q22 151 -64 240t-252 89q-117 0 -216.5 -44
t-164.5 -115l-43 51q73 82 190 133t251 51zM471 49q159 0 276 74.5t132 185.5q17 110 -78.5 185t-255.5 75q-156 0 -267 -72.5t-128 -187.5q-15 -115 75.5 -187.5t245.5 -72.5z" />
    <glyph glyph-name="uni0203.ss01" horiz-adv-x="1150" 
d="M684 1360q-74 0 -130.5 -49.5t-66.5 -124.5h-69q15 101 94 169t180 68q103 0 162.5 -68t46.5 -169h-70q12 74 -31 124t-116 50zM631 1069q197 0 302.5 -109t80.5 -290l-96 -670h-78l24 158q-64 -84 -175 -133.5t-243 -49.5q-185 0 -292.5 93.5t-87.5 240.5
q22 147 155.5 240.5t317.5 93.5q130 0 226 -47.5t138 -128.5l27 197q22 151 -64 240t-252 89q-117 0 -216.5 -44t-164.5 -115l-43 51q73 82 190 133t251 51zM471 49q159 0 276 74.5t132 185.5q17 110 -78.5 185t-255.5 75q-156 0 -267 -72.5t-128 -187.5
q-15 -115 75.5 -187.5t245.5 -72.5z" />
    <glyph glyph-name="amacron.ss01" horiz-adv-x="1150" 
d="M893 1317l-10 -74h-428l10 74h428zM631 1069q197 0 302.5 -109t80.5 -290l-96 -670h-78l24 158q-64 -84 -175 -133.5t-243 -49.5q-185 0 -292.5 93.5t-87.5 240.5q22 147 155.5 240.5t317.5 93.5q130 0 226 -47.5t138 -128.5l27 197q22 151 -64 240t-252 89
q-117 0 -216.5 -44t-164.5 -115l-43 51q73 82 190 133t251 51zM471 49q159 0 276 74.5t132 185.5q17 110 -78.5 185t-255.5 75q-156 0 -267 -72.5t-128 -187.5q-15 -115 75.5 -187.5t245.5 -72.5z" />
    <glyph glyph-name="aogonek.ss01" horiz-adv-x="1150" 
d="M631 1069q197 0 302.5 -109t80.5 -290l-96 -670h-13q-107 -46 -174 -107.5t-76 -128.5q-7 -53 23.5 -87.5t83.5 -34.5q63 0 112 32l17 -53q-67 -43 -150 -43q-78 0 -123 50t-34 124q12 78 82 145.5t174 108.5l24 152q-64 -84 -175 -133.5t-243 -49.5q-185 0 -292.5 93.5
t-87.5 240.5q22 147 155.5 240.5t317.5 93.5q130 0 226 -47.5t138 -128.5l27 197q22 151 -64 240t-252 89q-117 0 -216.5 -44t-164.5 -115l-43 51q73 82 190 133t251 51zM471 49q159 0 276 74.5t132 185.5q17 110 -78.5 185t-255.5 75q-156 0 -267 -72.5t-128 -187.5
q-15 -115 75.5 -187.5t245.5 -72.5z" />
    <glyph glyph-name="aring.ss01" horiz-adv-x="1150" 
d="M657 1174q-61 0 -97 40.5t-28 102.5q9 62 57 103.5t111 41.5q61 0 97 -41.5t28 -103.5q-9 -61 -57 -102t-111 -41zM588 1317q-6 -40 17 -67t61 -27q39 0 69.5 27.5t34.5 66.5q6 40 -17 67t-61 27q-39 0 -69.5 -27.5t-34.5 -66.5zM631 1069q197 0 302.5 -109t80.5 -290
l-96 -670h-78l24 158q-64 -84 -175 -133.5t-243 -49.5q-185 0 -292.5 93.5t-87.5 240.5q22 147 155.5 240.5t317.5 93.5q130 0 226 -47.5t138 -128.5l27 197q22 151 -64 240t-252 89q-117 0 -216.5 -44t-164.5 -115l-43 51q73 82 190 133t251 51zM471 49q159 0 276 74.5
t132 185.5q17 110 -78.5 185t-255.5 75q-156 0 -267 -72.5t-128 -187.5q-15 -115 75.5 -187.5t245.5 -72.5z" />
    <glyph glyph-name="atilde.ss01" horiz-adv-x="1150" 
d="M547 1358q-52 0 -92.5 -36.5t-48.5 -90.5h-64q11 84 69.5 139t137.5 55q37 0 67 -14.5t51.5 -35t41.5 -40.5t46.5 -34.5t57.5 -14.5q53 0 93 36.5t46 90.5h66q-11 -84 -69.5 -139t-139.5 -55q-37 0 -67 14.5t-51 35t-41.5 40.5t-46.5 34.5t-56 14.5zM631 1069
q197 0 302.5 -109t80.5 -290l-96 -670h-78l24 158q-64 -84 -175 -133.5t-243 -49.5q-185 0 -292.5 93.5t-87.5 240.5q22 147 155.5 240.5t317.5 93.5q130 0 226 -47.5t138 -128.5l27 197q22 151 -64 240t-252 89q-117 0 -216.5 -44t-164.5 -115l-43 51q73 82 190 133t251 51
zM471 49q159 0 276 74.5t132 185.5q17 110 -78.5 185t-255.5 75q-156 0 -267 -72.5t-128 -187.5q-15 -115 75.5 -187.5t245.5 -72.5z" />
    <glyph glyph-name="g.ss02" 
d="M1192 1044h82l-131 -931q-34 -238 -206.5 -382.5t-422.5 -144.5q-164 0 -279.5 64.5t-171.5 183.5l58 51q47 -105 150.5 -164t248.5 -59q216 0 364 124t177 329l26 188q-81 -137 -219.5 -219t-300.5 -82q-151 0 -265 70t-166.5 193t-31.5 272q32 227 207.5 379.5
t405.5 152.5q162 0 278 -81t158 -218zM590 80q199 0 350.5 131t179.5 326q28 194 -87 325t-314 131q-198 0 -349.5 -131t-179.5 -325q-28 -195 87 -326t313 -131z" />
    <glyph glyph-name="uni01F5.ss02" 
d="M1083 1442l-272 -238h-92l252 238h112zM1192 1044h82l-131 -931q-34 -238 -206.5 -382.5t-422.5 -144.5q-164 0 -279.5 64.5t-171.5 183.5l58 51q47 -105 150.5 -164t248.5 -59q216 0 364 124t177 329l26 188q-81 -137 -219.5 -219t-300.5 -82q-151 0 -265 70t-166.5 193
t-31.5 272q32 227 207.5 379.5t405.5 152.5q162 0 278 -81t158 -218zM590 80q199 0 350.5 131t179.5 326q28 194 -87 325t-314 131q-198 0 -349.5 -131t-179.5 -325q-28 -195 87 -326t313 -131z" />
    <glyph glyph-name="gbreve.ss02" 
d="M774 1184q-103 0 -162 68t-45 169h68q-9 -75 33 -124.5t114 -49.5q74 0 131 50t66 124h70q-13 -101 -92.5 -169t-182.5 -68zM1192 1044h82l-131 -931q-34 -238 -206.5 -382.5t-422.5 -144.5q-164 0 -279.5 64.5t-171.5 183.5l58 51q47 -105 150.5 -164t248.5 -59
q216 0 364 124t177 329l26 188q-81 -137 -219.5 -219t-300.5 -82q-151 0 -265 70t-166.5 193t-31.5 272q32 227 207.5 379.5t405.5 152.5q162 0 278 -81t158 -218zM590 80q199 0 350.5 131t179.5 326q28 194 -87 325t-314 131q-198 0 -349.5 -131t-179.5 -325
q-28 -195 87 -326t313 -131z" />
    <glyph glyph-name="gcaron.ss02" 
d="M829 1204h-104l-174 238h82l151 -191l205 191h82zM1192 1044h82l-131 -931q-34 -238 -206.5 -382.5t-422.5 -144.5q-164 0 -279.5 64.5t-171.5 183.5l58 51q47 -105 150.5 -164t248.5 -59q216 0 364 124t177 329l26 188q-81 -137 -219.5 -219t-300.5 -82q-151 0 -265 70
t-166.5 193t-31.5 272q32 227 207.5 379.5t405.5 152.5q162 0 278 -81t158 -218zM590 80q199 0 350.5 131t179.5 326q28 194 -87 325t-314 131q-198 0 -349.5 -131t-179.5 -325q-28 -195 87 -326t313 -131z" />
    <glyph glyph-name="gcircumflex.ss02" 
d="M803 1395l-203 -191h-82l242 238h102l176 -238h-82zM1192 1044h82l-131 -931q-34 -238 -206.5 -382.5t-422.5 -144.5q-164 0 -279.5 64.5t-171.5 183.5l58 51q47 -105 150.5 -164t248.5 -59q216 0 364 124t177 329l26 188q-81 -137 -219.5 -219t-300.5 -82
q-151 0 -265 70t-166.5 193t-31.5 272q32 227 207.5 379.5t405.5 152.5q162 0 278 -81t158 -218zM590 80q199 0 350.5 131t179.5 326q28 194 -87 325t-314 131q-198 0 -349.5 -131t-179.5 -325q-28 -195 87 -326t313 -131z" />
    <glyph glyph-name="uni0123.ss02" 
d="M887 1468l-99 -282h-90l121 282h68zM1192 1044h82l-131 -931q-34 -238 -206.5 -382.5t-422.5 -144.5q-164 0 -279.5 64.5t-171.5 183.5l58 51q47 -105 150.5 -164t248.5 -59q216 0 364 124t177 329l26 188q-81 -137 -219.5 -219t-300.5 -82q-151 0 -265 70t-166.5 193
t-31.5 272q32 227 207.5 379.5t405.5 152.5q162 0 278 -81t158 -218zM590 80q199 0 350.5 131t179.5 326q28 194 -87 325t-314 131q-198 0 -349.5 -131t-179.5 -325q-28 -195 87 -326t313 -131z" />
    <glyph glyph-name="gdotaccent.ss02" 
d="M780 1229q-28 0 -44.5 19t-12.5 48q3 27 26.5 46.5t51.5 19.5t44 -19t13 -47q-4 -29 -26.5 -48t-51.5 -19zM1192 1044h82l-131 -931q-34 -238 -206.5 -382.5t-422.5 -144.5q-164 0 -279.5 64.5t-171.5 183.5l58 51q47 -105 150.5 -164t248.5 -59q216 0 364 124t177 329
l26 188q-81 -137 -219.5 -219t-300.5 -82q-151 0 -265 70t-166.5 193t-31.5 272q32 227 207.5 379.5t405.5 152.5q162 0 278 -81t158 -218zM590 80q199 0 350.5 131t179.5 326q28 194 -87 325t-314 131q-198 0 -349.5 -131t-179.5 -325q-28 -195 87 -326t313 -131z" />
    <glyph glyph-name="u.ss03" horiz-adv-x="1261" 
d="M1081 1044h82l-147 -1044h-82l31 215q-71 -115 -187.5 -177.5t-261.5 -62.5q-195 0 -297 119t-76 316l90 634h82l-86 -614q-25 -169 63.5 -272t258.5 -103q175 0 297 104.5t145 274.5h2z" />
    <glyph glyph-name="uacute.ss03" horiz-adv-x="1261" 
d="M1026 1442l-272 -238h-92l251 238h113zM1081 1044h82l-147 -1044h-82l31 215q-71 -115 -187.5 -177.5t-261.5 -62.5q-195 0 -297 119t-76 316l90 634h82l-86 -614q-25 -169 63.5 -272t258.5 -103q175 0 297 104.5t145 274.5h2z" />
    <glyph glyph-name="ubreve.ss03" horiz-adv-x="1261" 
d="M717 1184q-103 0 -162 68t-45 169h68q-9 -75 33 -124.5t114 -49.5q74 0 131 50t66 124h69q-13 -101 -92 -169t-182 -68zM1081 1044h82l-147 -1044h-82l31 215q-71 -115 -187.5 -177.5t-261.5 -62.5q-195 0 -297 119t-76 316l90 634h82l-86 -614q-25 -169 63.5 -272
t258.5 -103q175 0 297 104.5t145 274.5h2z" />
    <glyph glyph-name="ucircumflex.ss03" horiz-adv-x="1261" 
d="M745 1395l-202 -191h-82l241 238h103l176 -238h-82zM1081 1044h82l-147 -1044h-82l31 215q-71 -115 -187.5 -177.5t-261.5 -62.5q-195 0 -297 119t-76 316l90 634h82l-86 -614q-25 -169 63.5 -272t258.5 -103q175 0 297 104.5t145 274.5h2z" />
    <glyph glyph-name="uni0215.ss03" horiz-adv-x="1261" 
d="M590 1204h-82l-148 238h99zM942 1204h-80l-147 238h98zM1081 1044h82l-147 -1044h-82l31 215q-71 -115 -187.5 -177.5t-261.5 -62.5q-195 0 -297 119t-76 316l90 634h82l-86 -614q-25 -169 63.5 -272t258.5 -103q175 0 297 104.5t145 274.5h2z" />
    <glyph glyph-name="udieresis.ss03" horiz-adv-x="1261" 
d="M522 1229q-28 0 -44.5 18.5t-12.5 46.5q3 27 25.5 46.5t50.5 19.5q27 0 42.5 -19t12.5 -47q-5 -28 -25.5 -46.5t-48.5 -18.5zM926 1229q-28 0 -44.5 18.5t-13.5 46.5q5 28 26.5 47t49.5 19t44 -19t13 -47q-5 -28 -26 -46.5t-49 -18.5zM1081 1044h82l-147 -1044h-82
l31 215q-71 -115 -187.5 -177.5t-261.5 -62.5q-195 0 -297 119t-76 316l90 634h82l-86 -614q-25 -169 63.5 -272t258.5 -103q175 0 297 104.5t145 274.5h2z" />
    <glyph glyph-name="uni1EE5.ss03" horiz-adv-x="1261" 
d="M1081 1044h82l-147 -1044h-82l31 215q-71 -115 -187.5 -177.5t-261.5 -62.5q-195 0 -297 119t-76 316l90 634h82l-86 -614q-25 -169 63.5 -272t258.5 -103q175 0 297 104.5t145 274.5h2zM524 -184q29 0 45.5 -19.5t12.5 -48.5q-3 -27 -25.5 -46t-50.5 -19
q-29 0 -44.5 18.5t-12.5 46.5q4 29 25.5 48.5t49.5 19.5z" />
    <glyph glyph-name="ugrave.ss03" horiz-adv-x="1261" 
d="M780 1204h-92l-207 238h113zM1081 1044h82l-147 -1044h-82l31 215q-71 -115 -187.5 -177.5t-261.5 -62.5q-195 0 -297 119t-76 316l90 634h82l-86 -614q-25 -169 63.5 -272t258.5 -103q175 0 297 104.5t145 274.5h2z" />
    <glyph glyph-name="uhungarumlaut.ss03" horiz-adv-x="1261" 
d="M793 1442l-213 -238h-82l196 238h99zM1145 1442l-213 -238h-80l195 238h98zM1081 1044h82l-147 -1044h-82l31 215q-71 -115 -187.5 -177.5t-261.5 -62.5q-195 0 -297 119t-76 316l90 634h82l-86 -614q-25 -169 63.5 -272t258.5 -103q175 0 297 104.5t145 274.5h2z" />
    <glyph glyph-name="uni0217.ss03" horiz-adv-x="1261" 
d="M741 1360q-74 0 -130 -49.5t-66 -124.5h-70q15 101 94 169t181 68q103 0 162.5 -68t45.5 -169h-69q12 74 -31.5 124t-116.5 50zM1081 1044h82l-147 -1044h-82l31 215q-71 -115 -187.5 -177.5t-261.5 -62.5q-195 0 -297 119t-76 316l90 634h82l-86 -614
q-25 -169 63.5 -272t258.5 -103q175 0 297 104.5t145 274.5h2z" />
    <glyph glyph-name="umacron.ss03" horiz-adv-x="1261" 
d="M950 1317l-10 -74h-428l10 74h428zM1081 1044h82l-147 -1044h-82l31 215q-71 -115 -187.5 -177.5t-261.5 -62.5q-195 0 -297 119t-76 316l90 634h82l-86 -614q-25 -169 63.5 -272t258.5 -103q175 0 297 104.5t145 274.5h2z" />
    <glyph glyph-name="uogonek.ss03" horiz-adv-x="1261" 
d="M1081 1044h82l-147 -1044h-2q-107 -46 -174 -107.5t-76 -128.5q-7 -54 23 -88t83 -34q64 0 113 32l16 -53q-67 -43 -149 -43q-78 0 -123.5 50t-34.5 124q12 75 78 141.5t166 106.5h-2l31 215q-71 -115 -187.5 -177.5t-261.5 -62.5q-195 0 -297 119t-76 316l90 634h82
l-86 -614q-25 -169 63.5 -272t258.5 -103q175 0 297 104.5t145 274.5h2z" />
    <glyph glyph-name="uring.ss03" horiz-adv-x="1261" 
d="M715 1174q-61 0 -97 40.5t-28 102.5q9 62 57 103.5t111 41.5q61 0 97 -41.5t28 -103.5q-9 -61 -57 -102t-111 -41zM645 1317q-6 -40 17 -67t61 -27q39 0 69.5 27.5t34.5 66.5q6 40 -16.5 67t-60.5 27q-39 0 -70 -27.5t-35 -66.5zM1081 1044h82l-147 -1044h-82l31 215
q-71 -115 -187.5 -177.5t-261.5 -62.5q-195 0 -297 119t-76 316l90 634h82l-86 -614q-25 -169 63.5 -272t258.5 -103q175 0 297 104.5t145 274.5h2z" />
    <glyph glyph-name="utilde.ss03" horiz-adv-x="1261" 
d="M604 1358q-52 0 -92.5 -36.5t-48.5 -90.5h-64q11 84 69.5 139t137.5 55q37 0 67 -14.5t51.5 -35t41.5 -40.5t46.5 -34.5t57.5 -14.5q53 0 93.5 36.5t46.5 90.5h65q-11 -84 -69.5 -139t-139.5 -55q-37 0 -67 14.5t-51 35t-41.5 40.5t-46.5 34.5t-56 14.5zM1081 1044h82
l-147 -1044h-82l31 215q-71 -115 -187.5 -177.5t-261.5 -62.5q-195 0 -297 119t-76 316l90 634h82l-86 -614q-25 -169 63.5 -272t258.5 -103q175 0 297 104.5t145 274.5h2z" />
    <glyph glyph-name="w.ss04" horiz-adv-x="1888" 
d="M1720 1044h82l-94 -675q-26 -179 -152.5 -286.5t-310.5 -107.5q-139 0 -229 63.5t-115 176.5q-57 -113 -165.5 -176.5t-248.5 -63.5q-183 0 -279 108t-71 286l96 675h82l-94 -665q-22 -146 56.5 -235t228.5 -89q149 0 253 89t124 235l94 665h82l-94 -665
q-20 -146 57.5 -235t226.5 -89q151 0 254 89t123 235z" />
    <glyph glyph-name="wacute.ss04" horiz-adv-x="1888" 
d="M1346 1442l-273 -238h-92l252 238h113zM1720 1044h82l-94 -675q-26 -179 -152.5 -286.5t-310.5 -107.5q-139 0 -229 63.5t-115 176.5q-57 -113 -165.5 -176.5t-248.5 -63.5q-183 0 -279 108t-71 286l96 675h82l-94 -665q-22 -146 56.5 -235t228.5 -89q149 0 253 89
t124 235l94 665h82l-94 -665q-20 -146 57.5 -235t226.5 -89q151 0 254 89t123 235z" />
    <glyph glyph-name="wcircumflex.ss04" horiz-adv-x="1888" 
d="M1065 1395l-203 -191h-82l242 238h102l176 -238h-81zM1720 1044h82l-94 -675q-26 -179 -152.5 -286.5t-310.5 -107.5q-139 0 -229 63.5t-115 176.5q-57 -113 -165.5 -176.5t-248.5 -63.5q-183 0 -279 108t-71 286l96 675h82l-94 -665q-22 -146 56.5 -235t228.5 -89
q149 0 253 89t124 235l94 665h82l-94 -665q-20 -146 57.5 -235t226.5 -89q151 0 254 89t123 235z" />
    <glyph glyph-name="wdieresis.ss04" horiz-adv-x="1888" 
d="M842 1229q-28 0 -45 19t-13 46q3 27 25.5 46.5t50.5 19.5q27 0 42.5 -19t12.5 -47q-5 -28 -25.5 -46.5t-47.5 -18.5zM1245 1229q-28 0 -44 18.5t-13 46.5q5 28 26.5 47t49.5 19t44 -19t13 -47q-4 -28 -26 -46.5t-50 -18.5zM1720 1044h82l-94 -675q-26 -179 -152.5 -286.5
t-310.5 -107.5q-139 0 -229 63.5t-115 176.5q-57 -113 -165.5 -176.5t-248.5 -63.5q-183 0 -279 108t-71 286l96 675h82l-94 -665q-22 -146 56.5 -235t228.5 -89q149 0 253 89t124 235l94 665h82l-94 -665q-20 -146 57.5 -235t226.5 -89q151 0 254 89t123 235z" />
    <glyph glyph-name="wgrave.ss04" horiz-adv-x="1888" 
d="M1102 1204h-92l-207 238h112zM1720 1044h82l-94 -675q-26 -179 -152.5 -286.5t-310.5 -107.5q-139 0 -229 63.5t-115 176.5q-57 -113 -165.5 -176.5t-248.5 -63.5q-183 0 -279 108t-71 286l96 675h82l-94 -665q-22 -146 56.5 -235t228.5 -89q149 0 253 89t124 235l94 665
h82l-94 -665q-20 -146 57.5 -235t226.5 -89q151 0 254 89t123 235z" />
    <glyph glyph-name="zero.subs" horiz-adv-x="811" 
d="M291 -248q-141 0 -213.5 122.5t-46.5 315.5q28 193 135 316t248 123q142 0 215 -122.5t45 -316.5q-26 -193 -133 -315.5t-250 -122.5zM301 -182q109 0 194.5 103.5t108.5 268.5q25 165 -31 269t-167 104t-196 -104t-108 -269t32.5 -268.5t166.5 -103.5z" />
    <glyph glyph-name="one.subs" horiz-adv-x="438" 
d="M287 614h47l-119 -847h-68l109 765l-207 -104l-24 53z" />
    <glyph glyph-name="two.subs" horiz-adv-x="651" 
d="M557 397q-7 -61 -42.5 -115t-100.5 -114l-359 -338h449l-10 -63h-543l8 53l403 381q56 54 88 99.5t39 94.5q10 74 -37 120t-126 46q-139 0 -236 -131l-43 41q51 73 129 115.5t162 42.5q110 0 172 -65t47 -167z" />
    <glyph glyph-name="three.subs" horiz-adv-x="665" 
d="M590 412q-9 -66 -56.5 -119t-119.5 -78q75 -23 114 -83.5t29 -139.5q-14 -103 -107.5 -171.5t-222.5 -68.5q-85 0 -157 31.5t-119 91.5l47 49q78 -106 233 -106q101 0 175 52t86 130q10 79 -46 131.5t-149 52.5h-133l8 60h133q83 0 144.5 45.5t70.5 113.5q9 69 -43 114.5
t-141 45.5q-65 0 -126.5 -25.5t-103.5 -72.5l-32 47q114 117 278 117q117 0 184.5 -61.5t53.5 -155.5z" />
    <glyph glyph-name="four.subs" horiz-adv-x="702" 
d="M616 41l-8 -64h-127l-28 -210h-68l29 210h-426l-11 56l525 581h69l-79 -573h124zM55 41h369l68 487z" />
    <glyph glyph-name="five.subs" horiz-adv-x="704" 
d="M614 551h-401l-74 -320q92 62 209 62q124 0 195.5 -76t56.5 -192q-17 -117 -115.5 -195t-230.5 -78q-84 0 -153.5 35.5t-114.5 99.5l43 52q36 -55 97 -88t134 -33q104 0 180 59.5t90 149.5q12 88 -44 147t-154 59q-56 0 -114 -21t-101 -56l-54 20l101 438h461z" />
    <glyph glyph-name="six.subs" horiz-adv-x="684" 
d="M342 293q119 0 189 -76.5t55 -187.5q-19 -119 -117 -198t-231 -79q-140 0 -213.5 85t-53.5 235q28 195 191 352.5t391 204.5l4 -64q-177 -43 -304 -148t-181 -241q44 57 118 87t152 30zM514 29q12 85 -44.5 143.5t-154.5 58.5q-61 0 -119 -19.5t-104.5 -65t-54.5 -109.5
q-12 -96 45.5 -157.5t165.5 -61.5q102 0 178 59.5t88 151.5z" />
    <glyph glyph-name="seven.subs" horiz-adv-x="653" 
d="M74 614h542l-6 -51l-495 -796h-76l489 784h-462z" />
    <glyph glyph-name="eight.subs" horiz-adv-x="667" 
d="M596 406q-9 -65 -58.5 -119t-123.5 -82q76 -26 114.5 -84t28.5 -131q-14 -101 -109.5 -169.5t-224.5 -68.5q-127 0 -202.5 68t-61.5 170q10 73 65 130t138 85q-67 27 -101.5 80.5t-25.5 120.5q13 95 102.5 159t208.5 64q121 0 192.5 -64t57.5 -159zM526 399
q10 72 -43.5 119t-144.5 47q-90 0 -157 -47t-77 -119q-9 -70 45 -116.5t142 -46.5q90 0 158 46.5t77 116.5zM489 -4q11 75 -48.5 126.5t-157.5 51.5q-97 0 -169 -51.5t-83 -126.5q-10 -76 47.5 -127t154.5 -51q99 0 172.5 51t83.5 127z" />
    <glyph glyph-name="nine.subs" horiz-adv-x="686" 
d="M356 629q142 0 216 -85t53 -235q-30 -200 -193.5 -360.5t-388.5 -196.5l-6 64q180 34 306.5 140.5t180.5 248.5q-43 -56 -116.5 -86.5t-153.5 -30.5q-119 0 -188 76.5t-54 187.5q15 119 113 198t231 79zM559 344q12 96 -46 157.5t-167 61.5q-102 0 -177 -59.5t-87 -151.5
q-12 -86 44 -144t155 -58q61 0 118.5 19.5t104 65t55.5 109.5z" />
    <glyph glyph-name="zero.dnom" horiz-adv-x="811" 
d="M324 -14q-141 0 -214 122.5t-47 315.5q28 193 135 315.5t248 122.5q143 0 216 -122.5t45 -315.5q-26 -193 -133 -315.5t-250 -122.5zM334 51q109 0 194.5 104t108.5 269q25 165 -31.5 269t-167.5 104t-195.5 -104t-107.5 -269t32.5 -269t166.5 -104z" />
    <glyph glyph-name="one.dnom" horiz-adv-x="438" 
d="M319 848h48l-119 -848h-68l109 766l-207 -104l-25 53z" />
    <glyph glyph-name="two.dnom" horiz-adv-x="651" 
d="M590 631q-7 -61 -43 -115.5t-101 -114.5l-358 -338h449l-11 -63h-542l8 53l403 381q55 54 87.5 100t39.5 95q10 74 -37 120t-127 46q-138 0 -235 -131l-43 41q51 72 129 114.5t162 42.5q110 0 172 -64.5t47 -166.5z" />
    <glyph glyph-name="three.dnom" horiz-adv-x="665" 
d="M623 645q-9 -66 -57 -118.5t-120 -77.5q75 -23 114.5 -84t29.5 -140q-14 -103 -107.5 -171t-222.5 -68q-85 0 -157 31.5t-119 91.5l47 49q79 -107 233 -107q101 0 174.5 52t85.5 130q10 79 -45.5 132t-148.5 53h-133l8 59h133q83 0 144.5 46t70.5 114q9 69 -43 114.5
t-141 45.5q-65 0 -126.5 -26t-103.5 -73l-33 47q114 117 279 117q117 0 184.5 -61.5t53.5 -155.5z" />
    <glyph glyph-name="four.dnom" horiz-adv-x="702" 
d="M649 274l-8 -63h-127l-29 -211h-67l28 211h-426l-10 55l525 582h69l-80 -574h125zM88 274h369l67 488z" />
    <glyph glyph-name="five.dnom" horiz-adv-x="704" 
d="M647 784h-401l-74 -319q91 61 209 61q124 0 195.5 -76t56.5 -192q-17 -117 -115.5 -194.5t-230.5 -77.5q-84 0 -154 35.5t-115 99.5l43 51q36 -55 97.5 -88t134.5 -33q104 0 180 59.5t90 149.5q12 88 -44 147.5t-154 59.5q-55 0 -113.5 -21.5t-101.5 -56.5l-54 21
l101 438h460z" />
    <glyph glyph-name="six.dnom" horiz-adv-x="684" 
d="M375 526q119 0 188.5 -76.5t54.5 -187.5q-19 -119 -117 -197.5t-231 -78.5q-140 0 -213 84.5t-53 234.5q28 195 191 352.5t391 204.5l4 -63q-177 -43 -304.5 -148t-181.5 -241q43 57 117.5 86.5t153.5 29.5zM547 262q12 85 -44.5 144t-154.5 59q-61 0 -119 -19.5
t-104 -65.5t-55 -110q-12 -96 45.5 -157.5t165.5 -61.5q102 0 178 59.5t88 151.5z" />
    <glyph glyph-name="seven.dnom" horiz-adv-x="653" 
d="M106 848h543l-6 -51l-496 -797h-75l489 784h-463z" />
    <glyph glyph-name="eight.dnom" horiz-adv-x="667" 
d="M629 639q-9 -65 -58.5 -119t-124.5 -82q76 -27 115 -84.5t29 -130.5q-13 -101 -109 -169t-225 -68q-127 0 -202.5 68t-61.5 169q10 73 65 130t138 85q-67 27 -101.5 80.5t-25.5 120.5q13 95 102.5 159t208.5 64q121 0 192.5 -64t57.5 -159zM559 633q10 72 -43.5 119
t-144.5 47q-90 0 -157 -47t-77 -119q-9 -70 45 -117t142 -47q90 0 158 47t77 117zM522 229q11 75 -49 127t-158 52q-96 0 -168.5 -52t-83.5 -127q-10 -76 48 -127t155 -51q99 0 172.5 51t83.5 127z" />
    <glyph glyph-name="nine.dnom" horiz-adv-x="686" 
d="M389 862q142 0 215.5 -84.5t52.5 -234.5q-30 -200 -193 -360.5t-388 -196.5l-6 63q180 34 306.5 140.5t180.5 248.5q-43 -55 -116 -85.5t-154 -30.5q-119 0 -188 76.5t-54 187.5q15 119 113 197.5t231 78.5zM592 578q12 96 -46 157.5t-167 61.5q-102 0 -177 -59.5
t-87 -151.5q-12 -86 43.5 -144.5t154.5 -58.5q61 0 119 19.5t104.5 65.5t55.5 110z" />
    <glyph glyph-name="zero.numr" horiz-adv-x="811" 
d="M403 551q-141 0 -213.5 122.5t-46.5 315.5q28 193 135 315.5t248 122.5q143 0 215.5 -122.5t44.5 -315.5q-26 -193 -133 -315.5t-250 -122.5zM414 616q109 0 194.5 104t108.5 269q25 165 -31.5 269t-167.5 104t-195.5 -104t-107.5 -269t32.5 -269t166.5 -104z" />
    <glyph glyph-name="one.numr" horiz-adv-x="438" 
d="M399 1413h47l-118 -848h-68l109 766l-207 -104l-25 53z" />
    <glyph glyph-name="two.numr" horiz-adv-x="651" 
d="M670 1196q-7 -61 -43 -115t-101 -114l-358 -338h448l-10 -64h-543l9 53l403 381q55 54 87.5 100t39.5 95q10 74 -37 120t-127 46q-138 0 -235 -131l-43 41q51 72 129 114.5t162 42.5q110 0 172 -64.5t47 -166.5z" />
    <glyph glyph-name="three.numr" horiz-adv-x="665" 
d="M702 1210q-9 -66 -56.5 -118.5t-119.5 -77.5q76 -23 115 -83.5t29 -139.5q-14 -103 -107.5 -171.5t-222.5 -68.5q-86 0 -158 32t-119 91l48 49q79 -107 233 -107q101 0 174.5 52.5t85.5 130.5q10 79 -45.5 131.5t-148.5 52.5h-134l9 59h133q83 0 144.5 46t70.5 114
q9 69 -43 114.5t-141 45.5q-65 0 -126.5 -25.5t-103.5 -72.5l-33 47q113 116 279 116q117 0 184 -61.5t53 -155.5z" />
    <glyph glyph-name="four.numr" horiz-adv-x="702" 
d="M729 840l-8 -64h-127l-29 -211h-67l28 211h-426l-10 55l524 582h70l-80 -573h125zM168 840h369l67 487z" />
    <glyph glyph-name="five.numr" horiz-adv-x="704" 
d="M727 1350h-401l-74 -320q92 62 209 62q124 0 195.5 -76.5t56.5 -192.5q-17 -117 -115.5 -194.5t-230.5 -77.5q-84 0 -154 35.5t-115 99.5l43 51q36 -55 97.5 -88t134.5 -33q104 0 180 59.5t90 149.5q12 88 -44.5 147.5t-154.5 59.5q-55 0 -113.5 -21.5t-101.5 -56.5
l-53 21l100 438h461z" />
    <glyph glyph-name="six.numr" horiz-adv-x="684" 
d="M455 1092q119 0 188.5 -77t54.5 -188q-19 -119 -117 -197.5t-231 -78.5q-140 0 -213 84.5t-53 234.5q28 195 191 352.5t391 204.5l4 -63q-177 -43 -304.5 -148t-181.5 -241q44 57 118.5 87t152.5 30zM627 827q12 85 -44.5 144t-154.5 59q-61 0 -119 -19.5t-104.5 -65
t-54.5 -109.5q-12 -97 45.5 -158.5t164.5 -61.5q102 0 178.5 59.5t88.5 151.5z" />
    <glyph glyph-name="seven.numr" horiz-adv-x="653" 
d="M186 1413h543l-6 -51l-496 -797h-75l489 785h-463z" />
    <glyph glyph-name="eight.numr" horiz-adv-x="667" 
d="M709 1204q-9 -65 -58.5 -118.5t-124.5 -81.5q76 -26 115 -84.5t29 -131.5q-13 -101 -109 -169t-225 -68q-127 0 -202.5 68t-61.5 169q10 73 64.5 130.5t137.5 85.5q-67 27 -101.5 80t-25.5 120q13 95 103 159t209 64q121 0 192.5 -64t57.5 -159zM639 1198
q10 72 -43.5 119t-144.5 47q-90 0 -157 -47t-77 -119q-9 -70 44.5 -117t141.5 -47q90 0 158.5 47t77.5 117zM602 795q11 75 -49 126.5t-158 51.5q-97 0 -169 -51.5t-83 -126.5q-10 -76 48 -127.5t155 -51.5q98 0 172 51.5t84 127.5z" />
    <glyph glyph-name="nine.numr" horiz-adv-x="686" 
d="M469 1427q142 0 215.5 -84.5t52.5 -234.5q-30 -200 -193 -360.5t-388 -196.5l-6 63q180 34 306.5 140.5t180.5 249.5q-43 -56 -116.5 -86.5t-153.5 -30.5q-119 0 -188 76.5t-54 187.5q15 119 113 197.5t231 78.5zM672 1143q12 96 -46 157.5t-167 61.5q-102 0 -177 -59.5
t-87 -151.5q-12 -86 43.5 -144.5t154.5 -58.5q61 0 119 19.5t104.5 65.5t55.5 110z" />
    <glyph glyph-name="exclamdown.case" horiz-adv-x="477" 
d="M346 1276q-33 0 -51 21t-12 53q3 31 27 51t57 20q31 0 48.5 -20t14.5 -51q-4 -32 -28.5 -53t-55.5 -21zM123 0l49 348l107 725h77l-98 -725l-49 -348h-86z" />
    <glyph glyph-name="questiondown.case" horiz-adv-x="1040" 
d="M653 1276q-32 0 -50 21t-13 53q3 30 28 50.5t56 20.5q32 0 50 -20t13 -51q-5 -32 -28.5 -53t-55.5 -21zM467 -25q-170 0 -269 102t-77 253q11 82 58.5 158.5t108 136t120.5 115.5t106 118.5t55 122.5l11 82h86l-13 -82q-7 -51 -33.5 -101.5t-63.5 -93t-80.5 -85
t-87.5 -85t-81 -85t-64 -93t-34 -102.5q-15 -120 62 -198.5t210 -78.5q115 0 224.5 60t187.5 162l55 -52q-85 -116 -215 -185t-266 -69z" />
    <glyph glyph-name="periodcentered.case" horiz-adv-x="432" 
d="M231 631q-32 0 -50 22t-13 54q3 32 28 53.5t58 21.5q32 0 49 -21t14 -54q-5 -32 -29.5 -54t-56.5 -22z" />
    <glyph glyph-name="bullet.case" horiz-adv-x="583" 
d="M297 557q-64 0 -101 42.5t-28 107.5q9 64 57 106.5t113 42.5t102.5 -42.5t28.5 -106.5t-58 -107t-114 -43z" />
    <glyph glyph-name="asterisk.case" horiz-adv-x="817" 
d="M545 1118l24 -10l176 -111l-34 -51l-179 111l-20 18v-31l-31 -221h-59l31 221l10 33l-29 -20l-209 -111l-22 51l209 111l28 10l-24 12l-178 111l36 51l179 -110l20 -19v29l31 221h59l-31 -221l-8 -29l27 19l207 110l22 -51l-207 -111z" />
    <glyph glyph-name="slash.case" horiz-adv-x="1017" 
d="M-47 -215l1079 1843h84l-1079 -1843h-84z" />
    <glyph glyph-name="backslash.case" horiz-adv-x="1017" 
d="M772 -215l-559 1843h84l559 -1843h-84z" />
    <glyph glyph-name="parenleft.case" horiz-adv-x="651" 
d="M375 -256q-107 173 -149 436.5t-5 526.5q37 262 153 525.5t271 436.5h84q-154 -174 -269.5 -437t-152.5 -525q-37 -263 4.5 -526.5t147.5 -436.5h-84z" />
    <glyph glyph-name="parenright.case" horiz-adv-x="651" 
d="M-25 -256q153 174 268 437.5t152 525.5q37 263 -4 526t-145 436h84q105 -174 147.5 -437.5t5.5 -524.5q-36 -260 -153 -524t-271 -439h-84z" />
    <glyph glyph-name="braceleft.case" horiz-adv-x="800" 
d="M713 1669h157l-12 -78h-133q-63 0 -111 -42.5t-57 -106.5l-82 -596q-7 -44 -39.5 -83t-73.5 -54q38 -17 58 -56.5t14 -83.5l-84 -598q-9 -64 26.5 -106.5t98.5 -42.5h133l-8 -78h-158q-89 0 -139.5 59t-38.5 150l84 602q6 50 -19.5 82.5t-74.5 32.5h-80l12 75h80
q47 0 83 32.5t44 82.5l82 600q13 91 81 150t157 59z" />
    <glyph glyph-name="braceright.case" horiz-adv-x="800" 
d="M600 745h80l-12 -75h-80q-47 0 -83 -32.5t-44 -82.5l-84 -602q-12 -90 -79 -149.5t-157 -59.5h-155l8 78h133q63 0 111 42.5t57 106.5l86 598q6 44 37 83.5t74 56.5q-38 15 -58.5 54t-13.5 83l82 596q9 64 -26 106.5t-97 42.5h-135l12 78h156q89 0 139.5 -59t38.5 -150
l-84 -600q-7 -49 20 -82t74 -33z" />
    <glyph glyph-name="bracketleft.case" horiz-adv-x="681" 
d="M739 1591h-288l-250 -1769h288l-10 -78h-373l271 1925h373z" />
    <glyph glyph-name="bracketright.case" horiz-adv-x="681" 
d="M256 1669h373l-271 -1925h-372l8 78h291l250 1769h-291z" />
    <glyph glyph-name="hyphen.case" horiz-adv-x="835" 
d="M162 668l12 80h553l-12 -80h-553z" />
    <glyph glyph-name="endash.case" horiz-adv-x="1245" 
d="M162 670l10 75h965l-13 -75h-962z" />
    <glyph glyph-name="emdash.case" horiz-adv-x="2187" 
d="M162 670l10 75h1907l-13 -75h-1904z" />
    <glyph glyph-name="guillemotleft.case" horiz-adv-x="1208" 
d="M686 1118l-428 -411l311 -412h-100l-311 412l428 411h100zM1141 1118l-428 -411l313 -412h-100l-314 412l428 411h101z" />
    <glyph glyph-name="guillemotright.case" horiz-adv-x="1208" 
d="M338 1118l311 -411l-428 -412h-98l426 412l-311 411h100zM793 1118l313 -411l-428 -412h-100l426 412l-310 411h99z" />
    <glyph glyph-name="guilsinglleft.case" horiz-adv-x="751" 
d="M686 1118l-428 -411l311 -412h-100l-311 412l428 411h100z" />
    </font>
</defs>
</svg>
