<?xml version="1.0" standalone="no"?>
<!DOCTYPE svg PUBLIC "-//W3C//DTD SVG 1.1//EN" "http://www.w3.org/Graphics/SVG/1.1/DTD/svg11.dtd" >
<svg xmlns="http://www.w3.org/2000/svg" xmlns:xlink="http://www.w3.org/1999/xlink" version="1.1">
<metadata>
Created by FontForge 20201107 at Sun Dec 27 21:40:32 2020
 By 
Copyright (c) 2020 by Adam Ladd. All rights reserved.
</metadata>
<defs>
<font id="Lufga-BlackItalic" horiz-adv-x="1275" >
  <font-face 
    font-family="Lufga Black"
    font-weight="900"
    font-style="italic"
    font-stretch="normal"
    units-per-em="2048"
    panose-1="0 0 10 0 0 0 0 0 0 0"
    ascent="1597"
    descent="-451"
    x-height="1044"
    cap-height="1413"
    bbox="-1583 -543 2697 1958"
    underline-thickness="204"
    underline-position="-409"
    slope="-8"
    unicode-range="U+0020-FB02"
  />
<missing-glyph horiz-adv-x="1024" 
d="M840 1597v-2048h-650v2048h650zM682 1460h-338v-67h133v-76h-135v-68h340v68h-135v76h135v67zM547 1196h-205v-213h340v70h-135v143zM477 1126v-73h-67v73h67zM682 928h-340v-68h135v-76h-135v-67h205v143h135v68zM682 805h-68v-135h-272v-70h340v205zM682 555h-205v-115
h70v47h67v-96h-204v164h-68v-231h340v231zM682 201h-340v-232h340v232zM614 133v-96h-204v96h204zM682 -78h-340v-67h143l-143 -97v-67h340v67h-209l143 97h66v67z" />
    <glyph glyph-name="fi" unicode="fi" horiz-adv-x="1386" 
d="M1247 1577q96 0 151 -63t42 -158t-86 -158t-168 -63q-96 0 -151 63t-42 158t86 158t168 63zM625 1059l-2 -15h217l-47 -335h-218l-100 -709h-369l101 709h-139l47 335h139l6 39q26 189 141.5 302.5t319.5 113.5q119 0 203 -47l-45 -324q-53 35 -121 35q-59 0 -93 -28
t-40 -76zM842 0l147 1044h369l-148 -1044h-368z" />
    <glyph glyph-name="fl" unicode="fl" horiz-adv-x="1386" 
d="M625 1059l-2 -15h217l-47 -335h-218l-100 -709h-369l101 709h-139l47 335h139l6 39q26 189 141.5 302.5t319.5 113.5q119 0 203 -47l-45 -324q-53 35 -121 35q-59 0 -93 -28t-40 -76zM1049 1475h368l-207 -1475h-368z" />
    <glyph glyph-name=".notdef" horiz-adv-x="1024" 
d="M840 1597v-2048h-650v2048h650zM682 1460h-338v-67h133v-76h-135v-68h340v68h-135v76h135v67zM547 1196h-205v-213h340v70h-135v143zM477 1126v-73h-67v73h67zM682 928h-340v-68h135v-76h-135v-67h205v143h135v68zM682 805h-68v-135h-272v-70h340v205zM682 555h-205v-115
h70v47h67v-96h-204v164h-68v-231h340v231zM682 201h-340v-232h340v232zM614 133v-96h-204v96h204zM682 -78h-340v-67h143l-143 -97v-67h340v67h-209l143 97h66v67z" />
    <glyph glyph-name=".null" horiz-adv-x="0" 
 />
    <glyph glyph-name="nonmarkingreturn" horiz-adv-x="682" 
 />
    <glyph glyph-name="space" unicode=" " horiz-adv-x="419" 
 />
    <glyph glyph-name="exclam" unicode="!" horiz-adv-x="602" 
d="M129 512l53 553l49 348h392l-50 -348l-102 -553h-342zM223 -25q-102 0 -160.5 68t-44.5 170q14 101 92 169.5t181 68.5q102 0 161.5 -68t45.5 -170q-13 -101 -92.5 -169.5t-182.5 -68.5z" />
    <glyph glyph-name="quotedbl" unicode="&#x22;" horiz-adv-x="974" 
d="M129 801l61 612h365l-111 -612h-315zM608 801l62 612h364l-110 -612h-316z" />
    <glyph glyph-name="numbersign" unicode="#" horiz-adv-x="1585" 
d="M1571 793h-289l-78 -172h232l-45 -320h-326l-133 -301h-338l133 301h-190l-134 -301h-340l134 301h-193l45 320h287l76 172h-228l43 319h324l133 301h340l-133 -301h190l133 301h340l-133 -301h193zM866 621l76 172h-190l-76 -172h190z" />
    <glyph glyph-name="dollar" unicode="$" horiz-adv-x="1214" 
d="M745 879q32 -8 64 -19.5t77.5 -33t84.5 -46.5t78 -63t64 -80.5t37 -100.5t3 -122q-26 -173 -176.5 -294t-358.5 -140l-16 -121h-115l17 121q-140 9 -274 68t-220 151l226 258q60 -62 144 -103.5t171 -50.5l33 240q-2 2 -4 2q-209 60 -315.5 179.5t-82.5 289.5
q23 173 168 289t361 131l16 122h115l-17 -122q123 -9 225 -55.5t167 -114.5l-207 -258q-42 39 -104 67t-128 35zM547 1016q-9 -59 90 -101l27 191q-49 -9 -80.5 -33.5t-36.5 -56.5zM788 410q4 32 -18.5 54t-75.5 44l-28 -199q51 12 84.5 38.5t37.5 62.5z" />
    <glyph glyph-name="percent" unicode="%" horiz-adv-x="1822" 
d="M463 713q-158 0 -250 104.5t-70 259.5q22 154 143 257.5t279 103.5t250 -103.5t70 -257.5q-22 -155 -143 -259.5t-279 -104.5zM131 0l1223 1413h391l-1223 -1413h-391zM504 1008q29 0 51 20t27 49q5 28 -12 47t-46 19t-51 -19t-27 -47q-5 -29 12 -49t46 -20zM1309 -25
q-158 0 -250 105t-70 260q23 154 143.5 257t278.5 103q159 0 251 -103.5t69 -256.5q-22 -155 -143 -260t-279 -105zM1352 270q29 0 50.5 20.5t24.5 49.5q5 28 -11.5 47t-45.5 19t-51 -19t-27 -47q-3 -30 14 -50t46 -20z" />
    <glyph glyph-name="ampersand" unicode="&#x26;" horiz-adv-x="1359" 
d="M1368 633q-85 -216 -235 -383l190 -250h-434l-47 61q-126 -86 -326 -86q-249 0 -382.5 128t-104.5 335q34 229 262 369q-68 150 -51 283q22 151 153 249.5t307 98.5q175 0 281 -98.5t84 -247.5q-16 -112 -95 -194t-212 -153l182 -239q74 96 123 215zM569 1085
q-8 -49 33 -120q59 32 92 62t37 63q4 31 -15.5 49t-53.5 18q-35 0 -62 -18.5t-31 -53.5zM578 303q38 0 71 8l-198 254q-54 -51 -62 -106q-11 -68 42.5 -112t146.5 -44z" />
    <glyph glyph-name="quotesingle" unicode="'" horiz-adv-x="495" 
d="M129 801l61 612h365l-111 -612h-315z" />
    <glyph glyph-name="parenleft" unicode="(" horiz-adv-x="747" 
d="M285 -389q-108 175 -152 438t-6 524q37 262 155 525.5t275 437.5h371q-151 -173 -264 -436.5t-150 -526.5q-38 -262 0.5 -525t140.5 -437h-370z" />
    <glyph glyph-name="parenright" unicode=")" horiz-adv-x="747" 
d="M-166 -389q150 173 264 436t152 526q37 262 -3 525.5t-141 437.5h371q108 -174 152.5 -438t7.5 -525q-38 -262 -156.5 -525t-275.5 -437h-371z" />
    <glyph glyph-name="asterisk" unicode="*" horiz-adv-x="763" 
d="M666 1139l69 -29l80 -43l-139 -193l-82 44l-51 49l2 -76l-13 -88h-223l13 88l24 76l-67 -49l-93 -44l-86 193l95 47l73 25l-67 28l-80 43l139 193l82 -43l51 -49l-2 75l12 89h224l-13 -89l-22 -73l65 47l93 43l86 -193l-93 -45z" />
    <glyph glyph-name="plus" unicode="+" horiz-adv-x="1093" 
d="M1022 770l-47 -332h-273l-38 -274h-336l39 274h-273l47 332h273l39 274h335l-38 -274h272z" />
    <glyph glyph-name="comma" unicode="," horiz-adv-x="575" 
d="M-139 -297l237 653h428l-350 -653h-315z" />
    <glyph glyph-name="hyphen" unicode="-" horiz-adv-x="835" 
d="M86 383l51 356h623l-51 -356h-623z" />
    <glyph glyph-name="period" unicode="." horiz-adv-x="569" 
d="M207 -25q-105 0 -166 70.5t-47 175.5q15 105 96 175.5t186 70.5q106 0 167 -71t46 -175q-13 -104 -94.5 -175t-187.5 -71z" />
    <glyph glyph-name="slash" unicode="/" horiz-adv-x="1136" 
d="M-143 -307l1079 1843h371l-1080 -1843h-370z" />
    <glyph glyph-name="zero" unicode="0" horiz-adv-x="1277" 
d="M561 -25q-165 0 -281 92.5t-164 259t-18 380.5q44 323 231.5 527t438.5 204q165 0 281 -92t164.5 -258.5t19.5 -380.5q-30 -213 -126 -380t-238.5 -259.5t-307.5 -92.5zM614 352q73 0 133.5 99t83.5 256q22 157 -10.5 255.5t-105.5 98.5q-72 0 -132.5 -99t-82.5 -255
q-23 -156 9.5 -255.5t104.5 -99.5z" />
    <glyph glyph-name="one" unicode="1" horiz-adv-x="854" 
d="M575 1413h279l-199 -1413h-391l133 946l-184 -98l-123 315z" />
    <glyph glyph-name="two" unicode="2" horiz-adv-x="1089" 
d="M1071 983q-33 -219 -235 -399l-242 -215h403l-51 -369h-956l45 319l481 443q29 27 46.5 44.5t44 46.5t41 55.5t18.5 49.5q6 40 -23 64.5t-82 24.5q-101 0 -235 -117l-228 256q95 113 240.5 182.5t302.5 69.5q220 0 338.5 -128.5t91.5 -326.5z" />
    <glyph glyph-name="three" unicode="3" horiz-adv-x="1163" 
d="M1155 1034q-12 -92 -67.5 -169.5t-143.5 -129.5q85 -54 124 -141.5t26 -194.5q-28 -189 -197.5 -306.5t-415.5 -117.5q-158 0 -296.5 53.5t-215.5 143.5l262 289q44 -49 120 -79t155 -30q80 0 133.5 29t60.5 76q6 47 -37.5 76.5t-121.5 29.5h-193l47 334h193
q66 0 109.5 21.5t47.5 56.5q6 38 -37.5 62t-121.5 24q-62 0 -130 -18t-118 -48l-164 285q96 71 236 114.5t278 43.5q234 0 363.5 -112t103.5 -292z" />
    <glyph glyph-name="four" unicode="4" horiz-adv-x="1200" 
d="M1165 1413l-114 -819h114l-51 -369h-117l-30 -225h-392l31 225h-528l-45 320l698 868h434zM453 594h206l46 319z" />
    <glyph glyph-name="five" unicode="5" horiz-adv-x="1161" 
d="M698 940q135 0 238.5 -61.5t153 -170t30.5 -241.5q-29 -212 -207.5 -352t-425.5 -140q-277 0 -489 172l235 316q56 -53 131 -82t150 -29q88 0 143.5 36.5t63.5 88.5q6 46 -28.5 76.5t-94.5 30.5q-77 0 -137 -54l-334 101l184 782h844l-51 -369h-516l-25 -124
q56 20 135 20z" />
    <glyph glyph-name="six" unicode="6" horiz-adv-x="1159" 
d="M768 922q119 0 209 -61t131.5 -165.5t24.5 -228.5q-29 -212 -206.5 -352t-410.5 -140q-249 0 -376 166.5t-89 436.5q23 167 105.5 315.5t213 263.5t314 189.5t397.5 91.5l23 -365q-155 -12 -280.5 -59.5t-205.5 -118.5q79 27 150 27zM731 459q6 46 -32 76t-101 30
t-109.5 -30t-52.5 -76q-7 -46 30.5 -76.5t100.5 -30.5t109.5 30.5t54.5 76.5z" />
    <glyph glyph-name="seven" unicode="7" horiz-adv-x="1069" 
d="M186 1413h967l-43 -307l-631 -1106h-440l600 1044h-504z" />
    <glyph glyph-name="eight" unicode="8" horiz-adv-x="1222" 
d="M1214 1028q-13 -89 -66 -164t-136 -129q168 -124 141 -323q-16 -121 -103 -221.5t-224 -158t-294 -57.5q-238 0 -379.5 125.5t-115.5 311.5q13 97 74 179.5t157 141.5q-140 118 -116 295q15 113 96 207t210.5 148.5t280.5 54.5q228 0 363 -118.5t112 -291.5zM547 987
q-5 -32 29.5 -54t89.5 -22t95.5 22t45.5 54q4 32 -30.5 53t-90.5 21t-95.5 -21t-43.5 -53zM758 451q6 41 -35.5 69.5t-108.5 28.5q-66 0 -115 -28.5t-55 -69.5t35 -70t107 -29q67 0 116.5 28.5t55.5 70.5z" />
    <glyph glyph-name="nine" unicode="9" horiz-adv-x="1159" 
d="M694 1438q249 0 376.5 -166t90.5 -436q-24 -167 -107.5 -318t-214 -268.5t-314.5 -191t-396 -83.5l-23 365q154 3 282 53t210 127q-77 -28 -156 -28q-119 0 -209 60.5t-131 165t-24 228.5q31 213 207 352.5t409 139.5zM776 954q6 46 -32 76.5t-101 30.5t-109.5 -30.5
t-52.5 -76.5q-7 -46 30.5 -76t100.5 -30t110 30t54 76z" />
    <glyph glyph-name="colon" unicode=":" horiz-adv-x="589" 
d="M303 578q-106 0 -167 70.5t-46 174.5q13 104 95 175t188 71q105 0 166 -70.5t47 -175.5q-15 -104 -96 -174.5t-187 -70.5zM217 -25q-105 0 -166 70.5t-47 175.5q15 104 96 175t187 71t167 -71t46 -175q-13 -104 -95 -175t-188 -71z" />
    <glyph glyph-name="semicolon" unicode=";" horiz-adv-x="622" 
d="M336 578q-106 0 -167 70.5t-46 174.5q13 104 95 175t188 71q105 0 165.5 -70.5t46.5 -175.5q-15 -104 -95.5 -174.5t-186.5 -70.5zM-139 -297l237 653h428l-350 -653h-315z" />
    <glyph glyph-name="less" unicode="&#x3c;" horiz-adv-x="950" 
d="M928 1120l-51 -366l-375 -148l334 -147l-54 -367l-688 348l47 332z" />
    <glyph glyph-name="equal" unicode="=" horiz-adv-x="1093" 
d="M127 666l47 331h881l-47 -331h-881zM63 215l48 332h880l-47 -332h-881z" />
    <glyph glyph-name="greater" unicode="&#x3e;" horiz-adv-x="950" 
d="M190 1120l689 -348l-48 -332l-786 -348l53 367l373 147l-332 148z" />
    <glyph glyph-name="question" unicode="?" horiz-adv-x="1019" 
d="M295 512l4 31q10 66 48.5 125.5t87.5 102t97.5 79.5t83.5 73t39 68q5 32 -18.5 51t-73.5 19q-132 0 -272 -131l-213 260q123 120 266.5 184t292.5 64q207 0 328 -121t96 -293q-11 -77 -52 -144t-92 -112t-101.5 -83.5t-87 -74.5t-40.5 -67l-4 -31h-389zM414 -25
q-102 0 -160.5 68t-44.5 170q14 101 91.5 169.5t180.5 68.5q102 0 161.5 -68t45.5 -170q-13 -101 -92 -169.5t-182 -68.5z" />
    <glyph glyph-name="at" unicode="@" horiz-adv-x="1687" 
d="M965 1321q160 0 294.5 -54t224 -147t130.5 -225.5t20 -282.5q-27 -195 -140.5 -311.5t-285.5 -116.5q-86 0 -156 29.5t-108 81.5q-82 -111 -227 -111q-146 0 -226.5 105t-58.5 260q21 157 129.5 263t239.5 106q94 0 155 -64l7 39h297l-58 -410q-3 -29 13 -47t45 -18
q49 0 85 54.5t48 143.5q19 134 -35.5 243.5t-167 171t-258.5 61.5q-155 0 -290 -70.5t-222.5 -194t-108.5 -276.5q-21 -151 31 -274t167.5 -194t272.5 -71q183 0 324 82l68 -213q-204 -98 -429 -98q-166 0 -303.5 59t-226.5 161t-128.5 244.5t-16.5 303.5
q30 215 156.5 391.5t321 277.5t417.5 101zM813 467q36 0 65 22.5t37 55.5v10q3 35 -19 57.5t-58 22.5q-38 0 -68.5 -24t-34.5 -60q-5 -35 17.5 -59.5t60.5 -24.5z" />
    <glyph glyph-name="A" unicode="A" horiz-adv-x="1476" 
d="M975 0l-35 195h-504l-90 -195h-420l707 1413h461l309 -1413h-428zM602 555h272l-75 424z" />
    <glyph glyph-name="B" unicode="B" horiz-adv-x="1316" 
d="M1303 1047q-13 -93 -64 -173t-121 -122q85 -41 129 -143.5t27 -223.5q-25 -169 -155.5 -277t-305.5 -108h-770l199 1413h725q164 0 261.5 -104t74.5 -262zM891 975q5 37 -16 61.5t-58 24.5h-246l-24 -172h246q37 0 65.5 24.5t32.5 61.5zM881 455q6 43 -19.5 72.5
t-68.5 29.5h-293l-29 -205h293q43 0 77 30t40 73z" />
    <glyph glyph-name="C" unicode="C" horiz-adv-x="1454" 
d="M725 -25q-158 0 -289.5 56.5t-217 153.5t-124 232.5t-16.5 289.5q28 205 149.5 372.5t307.5 263t397 95.5q198 0 350.5 -84.5t233.5 -233.5l-367 -209q-39 70 -109 110t-161 40q-149 0 -263.5 -101t-136.5 -253t64 -253.5t235 -101.5q91 0 172.5 40t141.5 110l307 -209
q-122 -148 -299 -233t-375 -85z" />
    <glyph glyph-name="D" unicode="D" horiz-adv-x="1458" 
d="M805 1413q205 0 358.5 -92t225.5 -253.5t45 -360.5q-21 -149 -95 -280t-184 -225t-252.5 -148t-296.5 -54h-563l199 1413h563zM1032 707q20 145 -62 241t-225 96h-163l-97 -675h164q142 0 251.5 96.5t131.5 241.5z" />
    <glyph glyph-name="E" unicode="E" horiz-adv-x="1173" 
d="M1167 1044h-585l-23 -149h522l-53 -369h-520l-23 -157h596l-51 -369h-987l199 1413h977z" />
    <glyph glyph-name="F" unicode="F" horiz-adv-x="1107" 
d="M1137 1044h-555l-25 -165h479l-51 -369h-479l-72 -510h-391l199 1413h946z" />
    <glyph glyph-name="G" unicode="G" horiz-adv-x="1554" 
d="M856 842h703l-19 -135q-29 -208 -145 -375.5t-294 -262t-384 -94.5q-156 0 -286.5 56.5t-215 153.5t-122 232.5t-15.5 289.5q28 205 149.5 372.5t307.5 263t397 95.5q180 0 324 -68.5t221 -189.5l-328 -236q-42 57 -110.5 89t-151.5 32q-153 0 -269.5 -102.5
t-138.5 -255.5q-22 -154 65.5 -256.5t239.5 -102.5q91 0 169 39.5t126 106.5h-272z" />
    <glyph glyph-name="H" unicode="H" horiz-adv-x="1458" 
d="M1075 1413h391l-198 -1413h-391l73 526h-442l-74 -526h-391l199 1413h391l-74 -518h442z" />
    <glyph glyph-name="I" unicode="I" horiz-adv-x="624" 
d="M43 0l199 1413h391l-199 -1413h-391z" />
    <glyph glyph-name="J" unicode="J" horiz-adv-x="892" 
d="M184 -25q-128 0 -209 35l52 371q89 -29 168 -29q188 0 208 160l127 901h392l-129 -921q-35 -245 -199 -381t-410 -136z" />
    <glyph glyph-name="K" unicode="K" horiz-adv-x="1413" 
d="M1546 1413l-669 -676l503 -737h-506l-284 451l-109 -109l-47 -342h-391l199 1413h391l-76 -534l494 534h495z" />
    <glyph glyph-name="L" unicode="L" horiz-adv-x="1077" 
d="M485 369h535l-51 -369h-926l199 1413h391z" />
    <glyph glyph-name="M" unicode="M" horiz-adv-x="1814" 
d="M1346 1413h477l-199 -1413h-391l108 778l-368 -573h-221l-209 573l-109 -778h-391l199 1413h483l223 -614z" />
    <glyph glyph-name="N" unicode="N" horiz-adv-x="1482" 
d="M1100 1413h391l-199 -1413h-391l-366 723l-101 -723h-391l199 1413h391l366 -723z" />
    <glyph glyph-name="O" unicode="O" horiz-adv-x="1605" 
d="M725 -25q-158 0 -289.5 56.5t-217 153.5t-124 232.5t-16.5 289.5q28 205 149.5 372.5t307.5 263t397 95.5t369.5 -95.5t233 -263t46.5 -372.5q-29 -205 -151 -373t-308 -263.5t-397 -95.5zM778 352q150 0 265 101.5t137 253.5t-64.5 253t-236.5 101q-149 0 -263.5 -101
t-136.5 -253t64 -253.5t235 -101.5z" />
    <glyph glyph-name="P" unicode="P" horiz-adv-x="1314" 
d="M897 1413q223 0 352.5 -143.5t100.5 -358.5q-31 -215 -201 -358t-393 -143h-264l-58 -410h-391l199 1413h655zM948 911q8 57 -23.5 95t-86.5 38h-256l-39 -266h258q55 0 97 38t50 95z" />
    <glyph glyph-name="Q" unicode="Q" horiz-adv-x="1605" 
d="M1581 707q-21 -152 -95 -284t-188 -230l103 -183l-320 -203l-114 203q-116 -35 -242 -35q-158 0 -289.5 56.5t-217 153.5t-124 232.5t-16.5 289.5q28 205 149.5 372.5t307.5 263t397 95.5t369.5 -95.5t233 -263t46.5 -372.5zM1022 684l88 -156q55 80 70 179
q22 152 -64.5 253t-236.5 101q-149 0 -263.5 -101t-136.5 -253q-22 -151 62.5 -252t232.5 -103l-72 129z" />
    <glyph glyph-name="R" unicode="R" horiz-adv-x="1325" 
d="M1329 915q-18 -133 -97 -239.5t-200 -169.5l211 -506h-469l-156 438h-122l-62 -438h-391l199 1413h635q147 0 257.5 -64.5t162.5 -179t32 -254.5zM582 1044l-39 -266h237q56 0 98.5 38t49.5 95q8 57 -24 95t-87 38h-235z" />
    <glyph glyph-name="S" unicode="S" horiz-adv-x="1249" 
d="M569 -25q-166 0 -327.5 61t-264.5 161l240 299q79 -78 188.5 -125t210.5 -47q74 0 130.5 24t60.5 64q6 37 -43 60t-178 56q-484 125 -436 471q28 198 200 318.5t430 120.5q161 0 290 -48t204 -124l-221 -299q-55 55 -145 89t-181 34q-73 0 -121 -21t-53 -55
q-6 -37 47 -65t150 -50q36 -8 65.5 -16.5t84 -28.5t96.5 -43t89.5 -61.5t76.5 -82.5t44.5 -106t5.5 -133q-19 -132 -110.5 -236t-231 -160.5t-301.5 -56.5z" />
    <glyph glyph-name="T" unicode="T" horiz-adv-x="1202" 
d="M1282 1413l-51 -369h-361l-147 -1044h-391l147 1044h-360l51 369h1112z" />
    <glyph glyph-name="U" unicode="U" horiz-adv-x="1388" 
d="M616 -25q-126 0 -230.5 44t-173 120.5t-99 184t-13.5 229.5l121 860h391l-118 -854q-13 -89 37 -148t139 -59t156 59t81 148l119 854h391l-121 -860q-23 -163 -120 -295.5t-244.5 -207.5t-315.5 -75z" />
    <glyph glyph-name="V" unicode="V" horiz-adv-x="1464" 
d="M1165 1413h428l-735 -1413h-399l-338 1413h436l180 -881z" />
    <glyph glyph-name="W" unicode="W" horiz-adv-x="2041" 
d="M1757 1413h404l-627 -1413h-389l-86 786l-309 -786h-388l-231 1413h414l98 -858l338 858h340l98 -858z" />
    <glyph glyph-name="X" unicode="X" horiz-adv-x="1484" 
d="M1604 1413l-568 -702l377 -711h-481l-207 426l-324 -426h-477l578 709l-371 704h481l201 -418l313 418h478z" />
    <glyph glyph-name="Y" unicode="Y" horiz-adv-x="1382" 
d="M1096 1413h436l-653 -948l-66 -465h-391l65 465l-387 948h445l203 -534z" />
    <glyph glyph-name="Z" unicode="Z" horiz-adv-x="1257" 
d="M1307 1413l-39 -280l-690 -764h596l-52 -369h-1134l39 281l690 763h-574l52 369h1112z" />
    <glyph glyph-name="bracketleft" unicode="[" horiz-adv-x="757" 
d="M817 1188h-205l-170 -1229h201l-49 -348h-584l273 1925h583z" />
    <glyph glyph-name="backslash" unicode="\" horiz-adv-x="1136" 
d="M676 -307l-559 1843h370l560 -1843h-371z" />
    <glyph glyph-name="bracketright" unicode="]" horiz-adv-x="757" 
d="M178 1536h584l-273 -1925h-583l49 348h205l170 1229h-201z" />
    <glyph glyph-name="asciicircum" unicode="^" horiz-adv-x="917" 
d="M942 872h-330l-71 234l-138 -234h-329l342 541h336z" />
    <glyph glyph-name="underscore" unicode="_" horiz-adv-x="962" 
d="M-123 -395l43 311h950l-43 -311h-950z" />
    <glyph glyph-name="grave" unicode="`" horiz-adv-x="659" 
d="M360 1135l-229 323h459l155 -323h-385z" />
    <glyph glyph-name="a" unicode="a" 
d="M879 1044h368l-147 -1044h-369l10 66q-128 -91 -276 -91q-139 0 -242 71.5t-149 196.5t-25 279q32 233 196 390t376 157q151 0 247 -90zM590 332q80 0 141.5 53.5t73.5 132.5v4q11 82 -35 136.5t-127 54.5q-82 0 -143 -54.5t-72 -136.5t35 -136t127 -54z" />
    <glyph glyph-name="b" unicode="b" 
d="M811 1069q139 0 242 -71.5t149 -196.5t25 -279q-32 -233 -196 -390t-376 -157q-148 0 -249 91l-9 -66h-368l207 1475h368l-69 -496q126 90 276 90zM848 522q11 82 -35 136.5t-127 54.5q-82 0 -143 -54.5t-72 -136.5t35 -136t127 -54q82 0 143.5 54t71.5 136z" />
    <glyph glyph-name="c" unicode="c" horiz-adv-x="1103" 
d="M532 -25q-242 0 -381.5 156.5t-107.5 390.5q21 153 112.5 278.5t232 197t300.5 71.5q156 0 274.5 -69t174.5 -189l-349 -195q-18 44 -57.5 70.5t-93.5 26.5q-82 0 -143 -54.5t-72 -136.5t35 -136t127 -54q54 0 102 26t78 70l291 -195q-90 -120 -228.5 -189t-294.5 -69z
" />
    <glyph glyph-name="d" unicode="d" 
d="M938 1475h369l-207 -1475h-369l8 66q-125 -91 -274 -91q-139 0 -242 71.5t-149 196.5t-25 279q32 233 196 390t376 157q151 0 247 -90zM590 332q76 0 136 49.5t77 124.5l4 29q5 77 -41 127.5t-123 50.5q-82 0 -143 -54.5t-72 -136.5t35 -136t127 -54z" />
    <glyph glyph-name="e" unicode="e" horiz-adv-x="1198" 
d="M682 1069q237 0 372.5 -157.5t100.5 -397.5q-9 -67 -20 -96h-709q15 -62 62.5 -96.5t119.5 -34.5q66 0 124.5 26.5t98.5 63.5l211 -213q-98 -89 -225 -139t-264 -50q-166 0 -290 72t-182.5 199t-37.5 282q34 230 217 385.5t422 155.5zM633 758q-57 0 -104.5 -34.5
t-75.5 -94.5h325q-10 61 -49.5 95t-95.5 34z" />
    <glyph glyph-name="f" unicode="f" horiz-adv-x="796" 
d="M758 1163q-59 0 -93 -28t-40 -76l-2 -15h217l-47 -335h-218l-100 -709h-369l101 709h-139l47 335h139l6 39q26 189 141.5 302.5t319.5 113.5q119 0 203 -47l-45 -324q-53 35 -121 35z" />
    <glyph glyph-name="g" unicode="g" horiz-adv-x="1159" 
d="M1163 1227h92l-47 -340h-73q-61 0 -86 -39q54 -108 36 -244q-29 -199 -192.5 -332t-378.5 -133q-46 0 -106 11q-50 -26 -56 -66q-3 -23 13 -37t45 -14h290q165 0 265.5 -89.5t113.5 -250.5l-393 -107q-2 41 -30.5 65.5t-75.5 24.5h-293q-162 0 -249.5 87t-68.5 227
q14 90 66.5 169.5t128.5 121.5q-117 130 -90 323q28 199 191 332t380 133q106 0 193 -35q40 90 126 141.5t199 51.5zM707 604q6 51 -25.5 84t-85.5 33q-56 0 -96.5 -33t-46.5 -84q-8 -51 23.5 -84t86.5 -33q54 0 95.5 33t48.5 84z" />
    <glyph glyph-name="h" unicode="h" horiz-adv-x="1220" 
d="M831 1069q173 0 264 -105t66 -278l-96 -686h-369l80 561q9 69 -24 110.5t-97 41.5q-68 0 -117 -40t-61 -106l-80 -567h-368l207 1475h368l-72 -517q129 111 299 111z" />
    <glyph glyph-name="i" unicode="i" horiz-adv-x="573" 
d="M373 1135q-96 0 -151 63t-42 158t86 158t168 63q96 0 151 -63t42 -158t-86 -158t-168 -63zM29 0l147 1044h369l-148 -1044h-368z" />
    <glyph glyph-name="j" unicode="j" horiz-adv-x="581" 
d="M381 1135q-96 0 -151 63t-42 158t86 158t168 63q96 0 151 -63t42 -158t-86 -158t-168 -63zM-33 -414q-86 0 -153 25l47 330q46 -19 84 -19q82 0 92 76l147 1046h369l-154 -1089q-23 -167 -131.5 -268t-300.5 -101z" />
    <glyph glyph-name="k" unicode="k" horiz-adv-x="1177" 
d="M1276 1044l-496 -471l363 -573h-484l-178 289l-51 -49l-33 -240h-368l207 1475h368l-102 -734l299 303h475z" />
    <glyph glyph-name="l" unicode="l" horiz-adv-x="573" 
d="M29 0l207 1475h368l-207 -1475h-368z" />
    <glyph glyph-name="m" unicode="m" horiz-adv-x="1839" 
d="M1452 1069q174 0 263.5 -104.5t64.5 -278.5l-97 -686h-368l82 573q8 63 -22.5 101.5t-90.5 38.5q-63 0 -109 -39.5t-55 -102.5l-80 -571h-368l82 573q8 63 -22.5 101.5t-90.5 38.5q-61 0 -105.5 -36t-56.5 -95l-82 -582h-368l147 1044h369l-10 -77q123 102 284 102
q98 0 170.5 -36.5t110.5 -104.5q150 141 352 141z" />
    <glyph glyph-name="n" unicode="n" horiz-adv-x="1220" 
d="M831 1069q173 0 264 -105t66 -278l-96 -686h-369l80 561q9 69 -24 110.5t-99 41.5q-65 0 -113 -38.5t-61 -101.5l-82 -573h-368l147 1044h369l-10 -77q129 102 296 102z" />
    <glyph glyph-name="o" unicode="o" horiz-adv-x="1220" 
d="M532 -25q-242 0 -381.5 156.5t-107.5 390.5q21 153 112.5 278.5t232 197t300.5 71.5t279.5 -71.5t175.5 -197t35 -278.5t-113 -278.5t-232.5 -197t-300.5 -71.5zM584 332q82 0 143.5 54t71.5 136q11 82 -35 136.5t-127 54.5q-82 0 -143 -54.5t-72 -136.5t35 -136t127 -54
z" />
    <glyph glyph-name="p" unicode="p" 
d="M811 1069q139 0 242 -71.5t149 -196.5t25 -279q-32 -233 -196 -390t-376 -157q-148 0 -249 91l-64 -455h-369l203 1433h369l-10 -65q126 90 276 90zM848 522q11 82 -35 136.5t-127 54.5q-82 0 -143 -54.5t-72 -136.5t35 -136t127 -54q82 0 143.5 54t71.5 136z" />
    <glyph glyph-name="q" unicode="q" 
d="M879 1044h368l-203 -1433h-368l63 455q-125 -91 -274 -91q-139 0 -242 71.5t-149 196.5t-25 279q32 233 196 390t376 157q151 0 247 -90zM590 332q78 0 138.5 51.5t74.5 128.5l2 16q9 79 -37 132t-125 53q-82 0 -143 -54.5t-72 -136.5t35 -136t127 -54z" />
    <glyph glyph-name="r" unicode="r" horiz-adv-x="780" 
d="M786 1061h52l-54 -379h-51q-113 0 -181 -53t-87 -146l-68 -483h-368l147 1044h369l-13 -88q117 105 254 105z" />
    <glyph glyph-name="s" unicode="s" horiz-adv-x="985" 
d="M408 -25q-251 0 -441 154l189 225q131 -102 276 -102q58 0 94 13.5t39 39.5q4 27 -29.5 41.5t-111.5 30.5q-64 13 -101 23t-95 36.5t-88 59t-49 90t-9 131.5q17 115 91 196t180 118.5t235 37.5q231 0 411 -133l-188 -225q-67 40 -124.5 61t-123.5 21q-106 0 -114 -45
q-3 -25 31 -39.5t108 -28.5q62 -12 101 -22.5t96.5 -36.5t88.5 -59t50 -90.5t8 -131.5q-16 -116 -91 -200t-186.5 -124.5t-246.5 -40.5z" />
    <glyph glyph-name="t" unicode="t" horiz-adv-x="854" 
d="M575 709l-38 -273q-6 -48 18 -76t80 -28q59 0 135 35l-47 -344q-102 -48 -219 -48q-103 0 -177 30t-113.5 85t-53 126.5t-0.5 158.5l47 334h-139l47 335h139l35 246h368l-34 -246h243l-47 -335h-244z" />
    <glyph glyph-name="u" unicode="u" horiz-adv-x="1175" 
d="M510 -25q-228 0 -349 122t-93 323l88 624h368l-82 -573q-8 -63 25 -101t94 -38q62 0 105.5 38t50.5 101l82 573h368l-88 -624q-28 -201 -184 -323t-385 -122z" />
    <glyph glyph-name="v" unicode="v" horiz-adv-x="1163" 
d="M838 1044h411l-553 -1044h-377l-258 1044h420l101 -555z" />
    <glyph glyph-name="w" unicode="w" horiz-adv-x="1744" 
d="M1423 1044h402l-504 -1044h-377l-65 569l-226 -569h-377l-208 1044h411l66 -542l219 542h373l67 -544z" />
    <glyph glyph-name="x" unicode="x" horiz-adv-x="1157" 
d="M1239 1044l-414 -520l273 -524h-447l-114 254l-183 -254h-442l420 524l-266 520h446l109 -247l176 247h442z" />
    <glyph glyph-name="y" unicode="y" horiz-adv-x="1163" 
d="M838 1044h411l-626 -1183q-68 -125 -180 -200t-236 -75q-79 0 -161.5 30.5t-137.5 80.5l180 289q43 -43 107 -43q72 0 110 67l8 15l-252 1019h420l103 -552z" />
    <glyph glyph-name="z" unicode="z" horiz-adv-x="1011" 
d="M1010 1044l-39 -268l-410 -420h367l-51 -356h-889l39 268l409 420h-344l51 356h867z" />
    <glyph glyph-name="braceleft" unicode="{" horiz-adv-x="903" 
d="M760 1536h252l-49 -348h-105q-43 0 -72.5 -27t-35.5 -71l-45 -326q-9 -62 -52 -112.5t-110 -76.5q59 -28 87 -77.5t21 -112.5l-47 -328q-6 -44 15.5 -71t64.5 -27h104l-49 -348h-252q-148 0 -225 90.5t-55 239.5l49 346q8 53 -17.5 83.5t-76.5 30.5h-80l49 349h80
q51 0 85 31t40 83l49 342q22 149 124.5 239.5t250.5 90.5z" />
    <glyph glyph-name="bar" unicode="|" horiz-adv-x="651" 
d="M29 -389l272 1925h336l-272 -1925h-336z" />
    <glyph glyph-name="braceright" unicode="}" horiz-adv-x="903" 
d="M758 750h80l-50 -349h-79q-51 0 -85 -30.5t-42 -83.5l-50 -346q-22 -149 -124 -239.5t-250 -90.5h-252l49 348h104q43 0 73 27t36 71l47 328q7 62 50 112t110 78q-59 26 -87.5 76t-19.5 113l45 326q6 44 -15.5 71t-64.5 27h-104l49 348h252q148 0 225.5 -90.5
t55.5 -239.5l-49 -342q-6 -53 19.5 -83.5t76.5 -30.5z" />
    <glyph glyph-name="asciitilde" unicode="~" horiz-adv-x="1249" 
d="M786 395q-66 0 -125 17t-99.5 34t-61.5 17q-29 0 -50 -18t-24 -46h-336q13 95 41 170.5t74.5 135t118 92t163.5 32.5q66 0 125 -16.5t100 -33.5t62 -17q29 0 50 17.5t26 45.5h336q-14 -95 -42.5 -170.5t-75.5 -135t-118.5 -92t-163.5 -32.5z" />
    <glyph glyph-name="uni00A0" unicode="&#xa0;" horiz-adv-x="419" 
 />
    <glyph glyph-name="exclamdown" unicode="&#xa1;" horiz-adv-x="602" 
d="M311 594q-103 0 -162 68t-45 169q13 101 92.5 169.5t182.5 68.5q102 0 160.5 -68t44.5 -170q-13 -101 -91.5 -169t-181.5 -68zM-18 -369l49 349l102 552h342l-53 -552l-49 -349h-391z" />
    <glyph glyph-name="cent" unicode="&#xa2;" horiz-adv-x="1175" 
d="M737 524q52 25 90 80l285 -188q-76 -100 -186.5 -166t-239.5 -86l-22 -164h-193l23 166q-202 31 -313.5 181t-80.5 358q29 208 181.5 357.5t363.5 180.5l25 170h192l-24 -170q123 -19 215.5 -84.5t136.5 -165.5l-334 -186q-22 51 -68 78zM467 705q-7 -58 14 -106t64 -73
l51 359q-53 -27 -87.5 -74t-41.5 -106z" />
    <glyph glyph-name="sterling" unicode="&#xa3;" horiz-adv-x="1208" 
d="M578 522l-23 -153h580l-52 -369h-1060l51 369h90l22 153h-90l47 336h90l13 84q19 140 104 253.5t216.5 178t281.5 64.5q125 0 233 -45t183 -121l-238 -287q-46 34 -108 55t-119 21q-67 0 -110.5 -33t-51.5 -86l-12 -84h342l-47 -336h-342z" />
    <glyph glyph-name="currency" unicode="&#xa4;" horiz-adv-x="1148" 
d="M1026 709q-12 -86 -57 -162l104 -123l-254 -223l-121 137q-77 -23 -151 -23q-72 0 -146 23l-159 -137l-195 223l143 125q-22 76 -10 160q12 88 56 159l-109 127l256 224l123 -140q73 25 151 25q79 0 146 -25l160 140l190 -226l-139 -123q24 -73 12 -161zM492 709
q-7 -47 20 -79t74 -32t84.5 32t44.5 79q6 49 -21.5 80.5t-75.5 31.5q-47 0 -83.5 -32.5t-42.5 -79.5z" />
    <glyph glyph-name="yen" unicode="&#xa5;" horiz-adv-x="1345" 
d="M1473 1413l-517 -799h142l-25 -180h-217l-10 -74h217l-25 -180h-219l-24 -180h-392l25 180h-213l25 180h215l10 74h-215l24 180h140l-291 799h436l170 -534l315 534h429z" />
    <glyph glyph-name="brokenbar" unicode="&#xa6;" horiz-adv-x="651" 
d="M182 696l119 840h336l-119 -840h-336zM29 -389l118 840h336l-118 -840h-336z" />
    <glyph glyph-name="section" unicode="&#xa7;" horiz-adv-x="1089" 
d="M717 993q55 -13 97.5 -28.5t89 -43t75 -62.5t43 -89t4.5 -121q-23 -157 -147 -254q85 -88 65 -227q-17 -116 -91.5 -200t-180.5 -123.5t-232 -39.5q-129 0 -243 41.5t-179 110.5l179 223q30 -40 97 -69t146 -29q61 0 98 17.5t40 47.5q3 21 -12 38t-46 30t-53.5 20
t-56.5 15q-71 18 -120.5 38t-103.5 58t-77 100.5t-11 147.5q23 158 146 254q-83 93 -64 229q24 170 166.5 265.5t337.5 95.5q117 0 225 -33.5t170 -91.5l-168 -226q-37 31 -100.5 52.5t-128.5 21.5q-59 0 -95.5 -17.5t-41.5 -47.5q-3 -20 11.5 -37t44.5 -29.5t55 -20
t61 -16.5zM657 610q4 33 -21.5 55t-74.5 35q-39 -5 -65 -23t-29 -44q-6 -33 20 -55t74 -35q40 4 66.5 23t29.5 44z" />
    <glyph glyph-name="dieresis" unicode="&#xa8;" horiz-adv-x="860" 
d="M283 1116q-85 0 -134 56t-38 141q12 84 77 140t150 56t133.5 -55.5t36.5 -140.5q-10 -84 -75 -140.5t-150 -56.5zM745 1116q-85 0 -134 56t-38 141q12 84 77.5 140t150.5 56t133.5 -55.5t36.5 -140.5q-10 -84 -75.5 -140.5t-150.5 -56.5z" />
    <glyph glyph-name="copyright" unicode="&#xa9;" horiz-adv-x="1605" 
d="M725 -25q-154 0 -281.5 56.5t-210.5 153.5t-120 232.5t-15 289.5q28 205 147 372.5t300.5 263t386.5 95.5t359 -95.5t226 -263t44 -372.5q-29 -205 -148.5 -373t-301 -263.5t-386.5 -95.5zM760 217q133 0 252 64t198.5 176.5t98.5 249.5q29 209 -90 349t-322 140
q-133 0 -251.5 -63.5t-197.5 -176t-98 -249.5q-29 -209 89 -349.5t321 -140.5zM788 346q-155 0 -243 103.5t-66 257.5t138.5 257t271.5 103q105 0 182.5 -50.5t110.5 -137.5l-273 -129q-14 36 -59 36q-33 0 -57 -23t-29 -56t12.5 -56.5t50.5 -23.5q43 0 70 37l238 -129
q-58 -87 -150 -138t-197 -51z" />
    <glyph glyph-name="ordfeminine" unicode="&#xaa;" horiz-adv-x="720" 
d="M532 1417h269l-78 -561h-268l4 33q-63 -47 -129 -47q-110 0 -173 84.5t-46 210.5q19 126 105 210.5t196 84.5q65 0 116 -48zM430 1077q24 0 42 16t22 42v6q3 24 -11.5 39.5t-36.5 15.5q-25 0 -42.5 -16.5t-22.5 -42.5q-3 -26 10.5 -43t38.5 -17z" />
    <glyph glyph-name="guillemotleft" unicode="&#xab;" horiz-adv-x="1374" 
d="M813 963l-340 -422l221 -422h-430l-221 422l340 422h430zM1409 963l-340 -422l221 -422h-430l-221 422l340 422h430z" />
    <glyph glyph-name="logicalnot" unicode="&#xac;" horiz-adv-x="1093" 
d="M141 770h881l-86 -606h-336l39 274h-545z" />
    <glyph glyph-name="uni00AD" unicode="&#xad;" horiz-adv-x="835" 
d="M86 383l51 356h623l-51 -356h-623z" />
    <glyph glyph-name="registered" unicode="&#xae;" horiz-adv-x="817" 
d="M539 1438q164 0 257 -110t70 -275q-23 -164 -147.5 -273.5t-288.5 -109.5q-165 0 -260 109.5t-72 273.5t150 274.5t291 110.5zM735 1053q17 110 -45 185t-170 75t-191 -74.5t-100 -185.5q-15 -110 48 -184t172 -74q107 0 189 74t97 184zM530 1253q58 0 92.5 -39t26.5 -98
q-9 -63 -63 -104l41 -129h-133l-23 98h-4l-14 -98h-121l51 370h147zM489 1145l-8 -58h17q12 0 21 8.5t11 20.5t-5 20.5t-19 8.5h-17z" />
    <glyph glyph-name="macron" unicode="&#xaf;" horiz-adv-x="602" 
d="M88 1147l43 307h602l-43 -307h-602z" />
    <glyph glyph-name="degree" unicode="&#xb0;" horiz-adv-x="790" 
d="M424 733q-154 0 -242.5 101t-66.5 253q20 149 137.5 250t271.5 101t243 -101t69 -250q-22 -152 -140 -253t-272 -101zM465 1018q29 0 51 20t27 49q3 28 -14 47t-46 19t-50.5 -19t-24.5 -47q-5 -29 11.5 -49t45.5 -20z" />
    <glyph glyph-name="plusminus" unicode="&#xb1;" horiz-adv-x="1093" 
d="M774 954h275l-48 -331h-272l-31 -213h-336l31 213h-272l47 331h270l31 213h336zM33 0l47 332h881l-48 -332h-880z" />
    <glyph glyph-name="uni00B2" unicode="&#xb2;" horiz-adv-x="667" 
d="M731 1331q-18 -135 -137 -239l-107 -93h203l-35 -249h-579l30 217l271 243q78 70 82 105q1 15 -11.5 24t-33.5 9q-44 0 -125 -60l-154 174q58 68 147 109t185 41q136 0 209 -79.5t55 -201.5z" />
    <glyph glyph-name="uni00B3" unicode="&#xb3;" horiz-adv-x="712" 
d="M774 1366q-15 -112 -121 -178q102 -70 84 -197q-17 -115 -121 -185.5t-254 -70.5q-94 0 -179 31t-134 86l178 197q25 -26 68 -43t86 -17q38 0 62.5 11t25.5 30q3 20 -19 31.5t-59 11.5h-112l32 225h113q32 0 52 7.5t22 19.5q1 15 -21.5 24t-58.5 9q-66 0 -133 -29
l-113 193q59 40 145 65t168 25q144 0 224 -68.5t65 -177.5z" />
    <glyph glyph-name="acute" unicode="&#xb4;" horiz-adv-x="659" 
d="M86 1135l246 323h459l-320 -323h-385z" />
    <glyph glyph-name="paragraph" unicode="&#xb6;" horiz-adv-x="1398" 
d="M1407 1413l-254 -1802h-315l211 1491h-111l-211 -1491h-315l129 921h-52q-187 0 -295.5 126.5t-82.5 314.5t170 314t331 126h795z" />
    <glyph glyph-name="periodcentered" unicode="&#xb7;" horiz-adv-x="708" 
d="M326 315q-106 0 -167 71t-46 175q13 104 94.5 175t187.5 71q105 0 166 -70.5t47 -175.5q-15 -105 -96 -175.5t-186 -70.5z" />
    <glyph glyph-name="cedilla" unicode="&#xb8;" horiz-adv-x="550" 
d="M281 -53q80 -14 124 -79.5t31 -154.5q-14 -108 -104.5 -181t-214.5 -73q-148 0 -252 107l143 153q60 -63 131 -63q32 0 54.5 16t25.5 41q4 23 -11.5 39.5t-41.5 16.5q-34 0 -55 -25l-191 90l160 166v4h254v-4z" />
    <glyph glyph-name="uni00B9" unicode="&#xb9;" horiz-adv-x="538" 
d="M424 1597h190l-118 -847h-267l76 530l-92 -49l-84 213z" />
    <glyph glyph-name="ordmasculine" unicode="&#xba;" horiz-adv-x="704" 
d="M397 842q-138 0 -220.5 84.5t-65.5 210.5q19 126 124.5 210.5t243.5 84.5q139 0 222.5 -85t64.5 -210q-17 -126 -123.5 -210.5t-245.5 -84.5zM430 1077q24 0 43.5 17t22.5 43q3 25 -12 42t-38 17q-24 0 -42.5 -16.5t-22.5 -42.5q-3 -26 11 -43t38 -17z" />
    <glyph glyph-name="guillemotright" unicode="&#xbb;" horiz-adv-x="1374" 
d="M532 963l222 -422l-340 -422h-430l342 422l-224 422h430zM1128 963l222 -422l-340 -422h-430l342 422l-224 422h430z" />
    <glyph glyph-name="onequarter" unicode="&#xbc;" horiz-adv-x="1728" 
d="M281 1096l-93 -49l-84 213l295 153h191l-119 -848h-266zM1290 1413h334l-1145 -1413h-334zM1649 848l-68 -477h59l-36 -250h-58l-16 -121h-266l16 121h-297l-31 217l402 510h295zM1217 371h98l24 164z" />
    <glyph glyph-name="onehalf" unicode="&#xbd;" horiz-adv-x="1755" 
d="M281 1096l-93 -49l-84 213l295 153h191l-119 -848h-266zM1290 1413h334l-1145 -1413h-334zM1714 582q-18 -136 -137 -240l-107 -92h203l-35 -250h-579l31 217l270 244q78 70 82 104q1 15 -11.5 24t-33.5 9q-46 0 -125 -59l-154 174q58 67 147 108t185 41q136 0 208.5 -79
t55.5 -201z" />
    <glyph glyph-name="threequarters" unicode="&#xbe;" horiz-adv-x="1820" 
d="M713 807q-17 -115 -121 -185.5t-254 -70.5q-94 0 -179 31t-134 86l178 196q25 -26 67.5 -42.5t85.5 -16.5q38 0 62.5 11t25.5 30q3 20 -18.5 31.5t-58.5 11.5h-113l33 225h112q32 0 52 7.5t22 19.5q1 15 -21.5 24t-58.5 9q-66 0 -133 -29l-113 192q59 40 145 65t169 25
q144 0 224 -68t65 -177q-15 -112 -121 -178q102 -70 84 -197zM1382 1413h334l-1145 -1413h-333zM1741 848l-68 -477h60l-37 -250h-58l-16 -121h-266l16 121h-297l-31 217l402 510h295zM1309 371h98l25 164z" />
    <glyph glyph-name="questiondown" unicode="&#xbf;" horiz-adv-x="966" 
d="M528 594q-102 0 -161 67.5t-45 169.5q13 101 92 169.5t182 68.5q102 0 160.5 -68t44.5 -170q-13 -101 -91.5 -169t-181.5 -68zM373 -393q-207 0 -328 120.5t-96 292.5q11 77 52 144t92 112.5t101.5 84t87 74.5t40.5 67l4 30h389l-4 -30q-8 -56 -37.5 -107.5t-67 -88.5
t-81 -73.5t-80 -64t-62 -58t-29.5 -57.5q-5 -32 18.5 -50.5t73.5 -18.5q133 0 273 131l213 -260q-123 -120 -266.5 -184t-292.5 -64z" />
    <glyph glyph-name="Agrave" unicode="&#xc0;" horiz-adv-x="1476" 
d="M1081 1503h-385l-229 324h459zM975 0l-35 195h-504l-90 -195h-420l707 1413h461l309 -1413h-428zM602 555h272l-75 424z" />
    <glyph glyph-name="Aacute" unicode="&#xc1;" horiz-adv-x="1476" 
d="M1372 1827l-319 -324h-385l245 324h459zM975 0l-35 195h-504l-90 -195h-420l707 1413h461l309 -1413h-428zM602 555h272l-75 424z" />
    <glyph glyph-name="Acircumflex" unicode="&#xc2;" horiz-adv-x="1476" 
d="M891 1626l-94 -123h-344l245 324h443l155 -324h-344zM975 0l-35 195h-504l-90 -195h-420l707 1413h461l309 -1413h-428zM602 555h272l-75 424z" />
    <glyph glyph-name="Atilde" unicode="&#xc3;" horiz-adv-x="1476" 
d="M803 1569q-24 0 -41.5 -15.5t-20.5 -37.5h-256q21 152 101.5 248t208.5 96q47 0 87 -14.5t68 -29t47 -14.5q23 0 40 16t20 40h256q-21 -155 -100.5 -250t-208.5 -95q-48 0 -88 14t-67.5 28t-45.5 14zM975 0l-35 195h-504l-90 -195h-420l707 1413h461l309 -1413h-428z
M602 555h272l-75 424z" />
    <glyph glyph-name="Adieresis" unicode="&#xc4;" horiz-adv-x="1476" 
d="M641 1485q-85 0 -133.5 55.5t-38.5 140.5q12 85 77 141t150 56t133.5 -56t36.5 -141q-10 -84 -75 -140t-150 -56zM1104 1485q-85 0 -133.5 55.5t-38.5 140.5q12 85 77 141t150 56t133.5 -56t36.5 -141q-10 -84 -75 -140t-150 -56zM975 0l-35 195h-504l-90 -195h-420
l707 1413h461l309 -1413h-428zM602 555h272l-75 424z" />
    <glyph glyph-name="Aring" unicode="&#xc5;" horiz-adv-x="1476" 
d="M872 1483q-104 0 -165 68t-48 169t94 169.5t185 68.5t165.5 -68.5t47.5 -169.5q-13 -101 -93.5 -169t-185.5 -68zM848 1720q-3 -26 10.5 -42.5t38.5 -16.5t44 16.5t22 42.5t-11 43t-39 17t-43.5 -17t-21.5 -43zM975 0l-35 195h-504l-90 -195h-420l707 1413h461l309 -1413
h-428zM602 555h272l-75 424z" />
    <glyph glyph-name="AE" unicode="&#xc6;" horiz-adv-x="1873" 
d="M1868 1044h-504l-23 -149h441l-53 -369h-439l-22 -157h514l-51 -369h-906l27 186h-434l-129 -186h-445l983 1413h1092zM666 547h237l60 432z" />
    <glyph glyph-name="Ccedilla" unicode="&#xc7;" horiz-adv-x="1454" 
d="M778 352q91 0 172.5 40t141.5 110l307 -209q-101 -123 -240 -202.5t-299 -104.5l-41 -41q80 -14 124.5 -79.5t31.5 -154.5q-14 -108 -105 -181t-215 -73q-148 0 -252 107l144 153q60 -63 131 -63q32 0 54.5 16t25.5 41q4 23 -11.5 39.5t-41.5 16.5q-35 0 -56 -25l-190 90
l145 152q-177 26 -306 126t-187.5 256t-32.5 341q28 205 149.5 372.5t307.5 263t397 95.5q198 0 350.5 -84.5t233.5 -233.5l-367 -209q-39 70 -109 110t-161 40q-149 0 -263.5 -101t-136.5 -253t64 -253.5t235 -101.5z" />
    <glyph glyph-name="Egrave" unicode="&#xc8;" horiz-adv-x="1173" 
d="M954 1503h-385l-229 324h459zM1167 1044h-585l-23 -149h522l-53 -369h-520l-23 -157h596l-51 -369h-987l199 1413h977z" />
    <glyph glyph-name="Eacute" unicode="&#xc9;" horiz-adv-x="1173" 
d="M1245 1827l-319 -324h-385l245 324h459zM1219 1413l-52 -369h-585l-23 -149h522l-53 -369h-520l-23 -157h596l-51 -369h-987l199 1413h977z" />
    <glyph glyph-name="Ecircumflex" unicode="&#xca;" horiz-adv-x="1173" 
d="M764 1626l-94 -123h-344l245 324h443l155 -324h-344zM1167 1044h-585l-23 -149h522l-53 -369h-520l-23 -157h596l-51 -369h-987l199 1413h977z" />
    <glyph glyph-name="Edieresis" unicode="&#xcb;" horiz-adv-x="1173" 
d="M514 1485q-85 0 -133.5 55.5t-38.5 140.5q12 85 77 141t150 56t133.5 -56t36.5 -141q-10 -84 -75 -140t-150 -56zM977 1485q-85 0 -133.5 55.5t-38.5 140.5q12 85 77 141t150 56t133.5 -56t36.5 -141q-10 -84 -75 -140t-150 -56zM1167 1044h-585l-23 -149h522l-53 -369
h-520l-23 -157h596l-51 -369h-987l199 1413h977z" />
    <glyph glyph-name="Igrave" unicode="&#xcc;" horiz-adv-x="624" 
d="M272 1503l-229 324h459l155 -324h-385zM43 0l199 1413h391l-199 -1413h-391z" />
    <glyph glyph-name="Iacute" unicode="&#xcd;" horiz-adv-x="624" 
d="M244 1503l245 324h459l-319 -324h-385zM43 0l199 1413h391l-199 -1413h-391z" />
    <glyph glyph-name="Icircumflex" unicode="&#xce;" horiz-adv-x="624" 
d="M467 1626l-94 -123h-344l245 324h443l155 -324h-344zM43 0l199 1413h391l-199 -1413h-391z" />
    <glyph glyph-name="Idieresis" unicode="&#xcf;" horiz-adv-x="624" 
d="M217 1485q-85 0 -133.5 55.5t-38.5 140.5q12 85 77 141t150 56t133.5 -56t36.5 -141q-10 -84 -75 -140t-150 -56zM680 1485q-85 0 -133.5 55.5t-38.5 140.5q12 85 77 141t150 56t133.5 -56t36.5 -141q-10 -84 -75 -140t-150 -56zM43 0l199 1413h391l-199 -1413h-391z" />
    <glyph glyph-name="Eth" unicode="&#xd0;" horiz-adv-x="1458" 
d="M805 1413q205 0 358.5 -92t225.5 -253.5t45 -360.5q-21 -149 -95 -280t-184 -225t-252.5 -148t-296.5 -54h-563l82 575h-117l37 263h115l82 575h563zM1032 707q20 145 -62 241t-225 96h-163l-31 -206h158l-37 -263h-156l-31 -206h164q142 0 251.5 96.5t131.5 241.5z" />
    <glyph glyph-name="Ntilde" unicode="&#xd1;" horiz-adv-x="1482" 
d="M817 1569q-24 0 -41 -15.5t-20 -37.5h-256q21 153 101 248.5t208 95.5q47 0 87 -14.5t68.5 -29t47.5 -14.5q23 0 39.5 16t19.5 40h256q-21 -155 -100.5 -250t-208.5 -95q-48 0 -88 14t-67.5 28t-45.5 14zM1100 1413h391l-199 -1413h-391l-366 723l-101 -723h-391
l199 1413h391l366 -723z" />
    <glyph glyph-name="Ograve" unicode="&#xd2;" horiz-adv-x="1605" 
d="M762 1503l-230 324h459l156 -324h-385zM725 -25q-158 0 -289.5 56.5t-217 153.5t-124 232.5t-16.5 289.5q28 205 149.5 372.5t307.5 263t397 95.5t369.5 -95.5t233 -263t46.5 -372.5q-29 -205 -151 -373t-308 -263.5t-397 -95.5zM778 352q150 0 265 101.5t137 253.5
t-64.5 253t-236.5 101q-149 0 -263.5 -101t-136.5 -253t64 -253.5t235 -101.5z" />
    <glyph glyph-name="Oacute" unicode="&#xd3;" horiz-adv-x="1605" 
d="M733 1503l246 324h459l-320 -324h-385zM725 -25q-158 0 -289.5 56.5t-217 153.5t-124 232.5t-16.5 289.5q28 205 149.5 372.5t307.5 263t397 95.5t369.5 -95.5t233 -263t46.5 -372.5q-29 -205 -151 -373t-308 -263.5t-397 -95.5zM778 352q150 0 265 101.5t137 253.5
t-64.5 253t-236.5 101q-149 0 -263.5 -101t-136.5 -253t64 -253.5t235 -101.5z" />
    <glyph glyph-name="Ocircumflex" unicode="&#xd4;" horiz-adv-x="1605" 
d="M956 1626l-94 -123h-344l246 324h442l156 -324h-344zM932 1438q211 0 369.5 -95.5t233 -263t46.5 -372.5q-29 -205 -151 -373t-308 -263.5t-397 -95.5q-158 0 -289.5 56.5t-217 153.5t-124 232.5t-16.5 289.5q28 205 149.5 372.5t307.5 263t397 95.5zM1180 707
q22 152 -64.5 253t-236.5 101q-149 0 -263.5 -101t-136.5 -253t64 -253.5t235 -101.5q150 0 265 101.5t137 253.5z" />
    <glyph glyph-name="Otilde" unicode="&#xd5;" horiz-adv-x="1605" 
d="M1069 1513q-48 0 -88 14t-67.5 28t-45.5 14q-24 0 -41 -15.5t-20 -37.5h-256q21 153 101 248.5t208 95.5q47 0 87 -14.5t68.5 -29t47.5 -14.5q23 0 39.5 16t19.5 40h256q-21 -155 -100.5 -250t-208.5 -95zM725 -25q-158 0 -289.5 56.5t-217 153.5t-124 232.5t-16.5 289.5
q28 205 149.5 372.5t307.5 263t397 95.5t369.5 -95.5t233 -263t46.5 -372.5q-29 -205 -151 -373t-308 -263.5t-397 -95.5zM778 352q150 0 265 101.5t137 253.5t-64.5 253t-236.5 101q-149 0 -263.5 -101t-136.5 -253t64 -253.5t235 -101.5z" />
    <glyph glyph-name="Odieresis" unicode="&#xd6;" horiz-adv-x="1605" 
d="M707 1485q-85 0 -133.5 55.5t-38.5 140.5q12 85 77 141t150 56t133.5 -56t36.5 -141q-10 -84 -75 -140t-150 -56zM1169 1485q-85 0 -133.5 55.5t-38.5 140.5q12 84 77.5 140.5t150.5 56.5t133.5 -56t36.5 -141q-10 -84 -75.5 -140t-150.5 -56zM725 -25
q-158 0 -289.5 56.5t-217 153.5t-124 232.5t-16.5 289.5q28 205 149.5 372.5t307.5 263t397 95.5t369.5 -95.5t233 -263t46.5 -372.5q-29 -205 -151 -373t-308 -263.5t-397 -95.5zM778 352q150 0 265 101.5t137 253.5t-64.5 253t-236.5 101q-149 0 -263.5 -101t-136.5 -253
t64 -253.5t235 -101.5z" />
    <glyph glyph-name="multiply" unicode="&#xd7;" horiz-adv-x="1077" 
d="M1010 795l-217 -191l163 -190l-276 -242l-164 190l-217 -190l-207 242l217 190l-164 191l275 241l164 -190l217 190z" />
    <glyph glyph-name="Oslash" unicode="&#xd8;" horiz-adv-x="1605" 
d="M1681 1413l-215 -219q74 -97 104.5 -222t10.5 -265q-29 -205 -151 -373t-308 -263.5t-397 -95.5q-203 0 -367 95l-67 -70h-318l217 219q-152 205 -112 488q28 205 149.5 372.5t307.5 263t397 95.5q208 0 364 -92l68 67h317zM479 707q-12 -96 19 -175l499 508
q-53 21 -118 21q-149 0 -263.5 -101t-136.5 -253zM1180 707q14 91 -19 178l-504 -512q65 -21 121 -21q150 0 265 101.5t137 253.5z" />
    <glyph glyph-name="Ugrave" unicode="&#xd9;" horiz-adv-x="1388" 
d="M653 1503l-229 324h459l155 -324h-385zM616 -25q-126 0 -230.5 44t-173 120.5t-99 184t-13.5 229.5l121 860h391l-118 -854q-13 -89 37 -148t139 -59t156 59t81 148l119 854h391l-121 -860q-23 -163 -120 -295.5t-244.5 -207.5t-315.5 -75z" />
    <glyph glyph-name="Uacute" unicode="&#xda;" horiz-adv-x="1388" 
d="M625 1503l245 324h459l-319 -324h-385zM616 -25q-126 0 -230.5 44t-173 120.5t-99 184t-13.5 229.5l121 860h391l-118 -854q-13 -89 37 -148t139 -59t156 59t81 148l119 854h391l-121 -860q-23 -163 -120 -295.5t-244.5 -207.5t-315.5 -75z" />
    <glyph glyph-name="Ucircumflex" unicode="&#xdb;" horiz-adv-x="1388" 
d="M848 1626l-94 -123h-344l245 324h443l155 -324h-344zM1026 1413h391l-121 -860q-23 -163 -120 -295.5t-244.5 -207.5t-315.5 -75q-126 0 -230.5 44t-173 120.5t-99 184t-13.5 229.5l121 860h391l-118 -854q-13 -89 37 -148t139 -59t156 59t81 148z" />
    <glyph glyph-name="Udieresis" unicode="&#xdc;" horiz-adv-x="1388" 
d="M598 1485q-85 0 -133.5 55.5t-38.5 140.5q12 85 77 141t150 56t133.5 -56t36.5 -141q-10 -84 -75 -140t-150 -56zM1061 1485q-85 0 -133.5 55.5t-38.5 140.5q12 85 77 141t150 56t133.5 -56t36.5 -141q-10 -84 -75 -140t-150 -56zM616 -25q-126 0 -230.5 44t-173 120.5
t-99 184t-13.5 229.5l121 860h391l-118 -854q-13 -89 37 -148t139 -59t156 59t81 148l119 854h391l-121 -860q-23 -163 -120 -295.5t-244.5 -207.5t-315.5 -75z" />
    <glyph glyph-name="Yacute" unicode="&#xdd;" horiz-adv-x="1382" 
d="M1327 1827l-319 -324h-385l245 324h459zM1096 1413h436l-653 -948l-66 -465h-391l65 465l-387 948h445l203 -534z" />
    <glyph glyph-name="Thorn" unicode="&#xde;" horiz-adv-x="1308" 
d="M868 1208q223 0 352.5 -143t100.5 -358q-31 -215 -201 -358.5t-393 -143.5h-264l-29 -205h-391l199 1413h391l-29 -205h264zM920 707q8 57 -24 95t-87 38h-256l-39 -267h258q55 0 97 38.5t51 95.5z" />
    <glyph glyph-name="germandbls" unicode="&#xdf;" horiz-adv-x="1161" 
d="M1178 1067q-13 -98 -72.5 -184.5t-147.5 -137.5q90 -41 136.5 -133t29.5 -209q-26 -181 -175.5 -304.5t-346.5 -123.5q-79 0 -133 15l51 356q35 -14 86 -14q62 0 100.5 35.5t45.5 83.5q7 50 -23 84t-80 34h-69l49 353h43q45 0 81 31.5t42 76.5q6 50 -24.5 81.5
t-84.5 31.5q-57 0 -100.5 -37t-50.5 -94l-144 -1012h-368l147 1042q17 128 95.5 232.5t202 164.5t267.5 60q214 0 341.5 -125.5t101.5 -306.5z" />
    <glyph glyph-name="agrave" unicode="&#xe0;" 
d="M942 1135h-385l-229 323h458zM879 1044h368l-147 -1044h-369l10 66q-128 -91 -276 -91q-139 0 -242 71.5t-149 196.5t-25 279q32 233 196 390t376 157q151 0 247 -90zM590 332q80 0 141.5 53.5t73.5 132.5v4q11 82 -35 136.5t-127 54.5q-82 0 -143 -54.5t-72 -136.5
t35 -136t127 -54z" />
    <glyph glyph-name="aacute" unicode="&#xe1;" 
d="M1233 1458l-320 -323h-385l246 323h459zM879 1044h368l-147 -1044h-369l10 66q-128 -91 -276 -91q-139 0 -242 71.5t-149 196.5t-25 279q32 233 196 390t376 157q151 0 247 -90zM590 332q80 0 141.5 53.5t73.5 132.5v4q11 82 -35 136.5t-127 54.5q-82 0 -143 -54.5
t-72 -136.5t35 -136t127 -54z" />
    <glyph glyph-name="acircumflex" unicode="&#xe2;" 
d="M752 1257l-95 -122h-344l246 323h442l156 -323h-344zM879 1044h368l-147 -1044h-369l10 66q-128 -91 -276 -91q-139 0 -242 71.5t-149 196.5t-25 279q32 233 196 390t376 157q151 0 247 -90zM590 332q80 0 141.5 53.5t73.5 132.5v4q11 82 -35 136.5t-127 54.5
q-82 0 -143 -54.5t-72 -136.5t35 -136t127 -54z" />
    <glyph glyph-name="atilde" unicode="&#xe3;" 
d="M664 1200q-24 0 -41.5 -15.5t-20.5 -37.5h-256q21 153 101 248.5t208 95.5q47 0 87 -14.5t68.5 -28.5t47.5 -14q23 0 40 16t20 39h256q-21 -155 -101 -249.5t-209 -94.5q-48 0 -88 13.5t-67 27.5t-45 14zM879 1044h368l-147 -1044h-369l10 66q-128 -91 -276 -91
q-139 0 -242 71.5t-149 196.5t-25 279q32 233 196 390t376 157q151 0 247 -90zM590 332q80 0 141.5 53.5t73.5 132.5v4q11 82 -35 136.5t-127 54.5q-82 0 -143 -54.5t-72 -136.5t35 -136t127 -54z" />
    <glyph glyph-name="adieresis" unicode="&#xe4;" 
d="M502 1116q-85 0 -134 56t-38 141q12 84 77 140t150 56t133.5 -55.5t36.5 -140.5q-10 -84 -75 -140.5t-150 -56.5zM965 1116q-85 0 -134 56t-38 141q12 84 77 140t150 56t133.5 -55.5t36.5 -140.5q-10 -84 -75 -140.5t-150 -56.5zM879 1044h368l-147 -1044h-369l10 66
q-128 -91 -276 -91q-139 0 -242 71.5t-149 196.5t-25 279q32 233 196 390t376 157q151 0 247 -90zM590 332q80 0 141.5 53.5t73.5 132.5v4q11 82 -35 136.5t-127 54.5q-82 0 -143 -54.5t-72 -136.5t35 -136t127 -54z" />
    <glyph glyph-name="aring" unicode="&#xe5;" 
d="M733 1114q-104 0 -165.5 68.5t-47.5 169.5q13 101 93.5 169t185.5 68q104 0 165 -68t48 -169t-94 -169.5t-185 -68.5zM709 1352q-3 -26 10.5 -43t38.5 -17t43.5 17t21.5 43t-10.5 42.5t-38.5 16.5t-43.5 -16.5t-21.5 -42.5zM879 1044h368l-147 -1044h-369l10 66
q-128 -91 -276 -91q-139 0 -242 71.5t-149 196.5t-25 279q32 233 196 390t376 157q151 0 247 -90zM590 332q80 0 141.5 53.5t73.5 132.5v4q11 82 -35 136.5t-127 54.5q-82 0 -143 -54.5t-72 -136.5t35 -136t127 -54z" />
    <glyph glyph-name="ae" unicode="&#xe6;" horiz-adv-x="1792" 
d="M1276 1069q237 0 372.5 -157.5t100.5 -397.5q-9 -67 -20 -96h-709q15 -62 62.5 -96.5t119.5 -34.5q66 0 124.5 26.5t98.5 63.5l211 -213q-98 -89 -225 -139t-264 -50q-215 0 -356 131q-69 -59 -170.5 -95t-225.5 -36q-201 0 -307 95.5t-84 242.5q19 139 138 227.5
t292 88.5h238l2 14q9 60 -33 95.5t-119 35.5q-103 0 -192 -80l-180 209q78 77 191 121.5t241 44.5q213 0 336 -117q161 117 358 117zM1227 758q-57 0 -104.5 -34.5t-75.5 -94.5h325q-10 61 -49.5 95t-95.5 34zM385 330q-6 -40 27.5 -66t93.5 -26q92 0 170 55q-20 66 -23 125
h-147q-46 0 -81.5 -25.5t-39.5 -62.5z" />
    <glyph glyph-name="ccedilla" unicode="&#xe7;" horiz-adv-x="1103" 
d="M584 332q54 0 102 26t78 70l291 -195q-69 -92 -167.5 -154.5t-215.5 -88.5l-45 -45q80 -14 124 -79.5t31 -154.5q-14 -108 -104.5 -181t-214.5 -73q-148 0 -252 107l143 153q60 -63 131 -63q32 0 54.5 16t25.5 41q4 23 -11.5 39.5t-41.5 16.5q-34 0 -55 -25l-191 90
l150 154q-193 38 -297 185.5t-76 350.5q21 153 112.5 278.5t232 197t300.5 71.5q156 0 274.5 -69t174.5 -189l-349 -195q-18 44 -57.5 70.5t-93.5 26.5q-82 0 -143 -54.5t-72 -136.5t35 -136t127 -54z" />
    <glyph glyph-name="egrave" unicode="&#xe8;" horiz-adv-x="1198" 
d="M903 1135h-385l-229 323h459zM682 1069q237 0 372.5 -157.5t100.5 -397.5q-9 -67 -20 -96h-709q15 -62 62.5 -96.5t119.5 -34.5q66 0 124.5 26.5t98.5 63.5l211 -213q-98 -89 -225 -139t-264 -50q-166 0 -290 72t-182.5 199t-37.5 282q34 230 217 385.5t422 155.5z
M633 758q-57 0 -104.5 -34.5t-75.5 -94.5h325q-10 61 -49.5 95t-95.5 34z" />
    <glyph glyph-name="eacute" unicode="&#xe9;" horiz-adv-x="1198" 
d="M1194 1458l-320 -323h-385l246 323h459zM682 1069q237 0 372.5 -157.5t100.5 -397.5q-9 -67 -20 -96h-709q15 -62 62.5 -96.5t119.5 -34.5q66 0 124.5 26.5t98.5 63.5l211 -213q-98 -89 -225 -139t-264 -50q-166 0 -290 72t-182.5 199t-37.5 282q34 230 217 385.5
t422 155.5zM633 758q-57 0 -104.5 -34.5t-75.5 -94.5h325q-10 61 -49.5 95t-95.5 34z" />
    <glyph glyph-name="ecircumflex" unicode="&#xea;" horiz-adv-x="1198" 
d="M713 1257l-95 -122h-344l246 323h443l155 -323h-344zM682 1069q237 0 372.5 -157.5t100.5 -397.5q-9 -67 -20 -96h-709q15 -62 62.5 -96.5t119.5 -34.5q66 0 124.5 26.5t98.5 63.5l211 -213q-98 -89 -225 -139t-264 -50q-166 0 -290 72t-182.5 199t-37.5 282
q34 230 217 385.5t422 155.5zM633 758q-57 0 -104.5 -34.5t-75.5 -94.5h325q-10 61 -49.5 95t-95.5 34z" />
    <glyph glyph-name="edieresis" unicode="&#xeb;" horiz-adv-x="1198" 
d="M463 1116q-85 0 -134 56t-38 141q12 84 77 140t150 56t133.5 -55.5t36.5 -140.5q-10 -84 -75 -140.5t-150 -56.5zM926 1116q-85 0 -134 56t-38 141q12 84 77 140t150 56t133.5 -55.5t36.5 -140.5q-10 -84 -75 -140.5t-150 -56.5zM682 1069q237 0 372.5 -157.5
t100.5 -397.5q-9 -67 -20 -96h-709q15 -62 62.5 -96.5t119.5 -34.5q66 0 124.5 26.5t98.5 63.5l211 -213q-98 -89 -225 -139t-264 -50q-166 0 -290 72t-182.5 199t-37.5 282q34 230 217 385.5t422 155.5zM633 758q-57 0 -104.5 -34.5t-75.5 -94.5h325q-10 61 -49.5 95
t-95.5 34z" />
    <glyph glyph-name="igrave" unicode="&#xec;" horiz-adv-x="573" 
d="M195 1135l-230 323h459l156 -323h-385zM29 0l147 1044h369l-148 -1044h-368z" />
    <glyph glyph-name="iacute" unicode="&#xed;" horiz-adv-x="573" 
d="M166 1135l246 323h458l-319 -323h-385zM29 0l147 1044h369l-148 -1044h-368z" />
    <glyph glyph-name="icircumflex" unicode="&#xee;" horiz-adv-x="573" 
d="M389 1257l-94 -122h-344l246 323h442l156 -323h-344zM29 0l147 1044h369l-148 -1044h-368z" />
    <glyph glyph-name="idieresis" unicode="&#xef;" horiz-adv-x="573" 
d="M139 1116q-85 0 -134 56t-38 141q12 84 77.5 140t150.5 56t133.5 -55.5t36.5 -140.5q-10 -84 -75.5 -140.5t-150.5 -56.5zM602 1116q-85 0 -134 56t-38 141q12 84 77 140t150 56t133.5 -55.5t36.5 -140.5q-10 -84 -75 -140.5t-150 -56.5zM29 0l147 1044h369l-148 -1044
h-368z" />
    <glyph glyph-name="eth" unicode="&#xf0;" horiz-adv-x="1138" 
d="M791 1337q175 -135 258 -349.5t49 -448.5q-19 -136 -74 -244t-135.5 -177.5t-180 -106t-210.5 -36.5q-231 0 -361.5 144.5t-99.5 363.5q20 140 100.5 256.5t197.5 182t243 65.5q58 0 104 -14q-55 58 -131 100l-55 -61h-260l118 131q-47 8 -104 8l49 348q174 0 322 -63
l57 63h260zM711 481q9 64 -27.5 107t-99.5 43t-111 -43t-57 -107t27.5 -106.5t99.5 -42.5t111 42.5t57 106.5z" />
    <glyph glyph-name="ntilde" unicode="&#xf1;" horiz-adv-x="1220" 
d="M639 1200q-24 0 -41 -15.5t-20 -37.5h-256q21 153 101 248.5t208 95.5q47 0 87 -14.5t68.5 -28.5t47.5 -14q23 0 39.5 15.5t19.5 39.5h256q-21 -155 -100.5 -249.5t-208.5 -94.5q-48 0 -88 13.5t-67.5 27.5t-45.5 14zM831 1069q173 0 264 -105t66 -278l-96 -686h-369
l80 561q9 69 -24 110.5t-99 41.5q-65 0 -113 -38.5t-61 -101.5l-82 -573h-368l147 1044h369l-10 -77q129 102 296 102z" />
    <glyph glyph-name="ograve" unicode="&#xf2;" horiz-adv-x="1220" 
d="M518 1135l-229 323h459l155 -323h-385zM532 -25q-242 0 -381.5 156.5t-107.5 390.5q21 153 112.5 278.5t232 197t300.5 71.5t279.5 -71.5t175.5 -197t35 -278.5t-113 -278.5t-232.5 -197t-300.5 -71.5zM584 332q82 0 143.5 54t71.5 136q11 82 -35 136.5t-127 54.5
q-82 0 -143 -54.5t-72 -136.5t35 -136t127 -54z" />
    <glyph glyph-name="oacute" unicode="&#xf3;" horiz-adv-x="1220" 
d="M489 1135l246 323h459l-320 -323h-385zM532 -25q-242 0 -381.5 156.5t-107.5 390.5q21 153 112.5 278.5t232 197t300.5 71.5t279.5 -71.5t175.5 -197t35 -278.5t-113 -278.5t-232.5 -197t-300.5 -71.5zM584 332q82 0 143.5 54t71.5 136q11 82 -35 136.5t-127 54.5
q-82 0 -143 -54.5t-72 -136.5t35 -136t127 -54z" />
    <glyph glyph-name="ocircumflex" unicode="&#xf4;" horiz-adv-x="1220" 
d="M713 1257l-95 -122h-344l246 323h443l155 -323h-344zM688 1069q160 0 279.5 -71.5t175.5 -197t35 -278.5t-113 -278.5t-232.5 -197t-300.5 -71.5q-242 0 -381.5 156.5t-107.5 390.5q21 153 112.5 278.5t232 197t300.5 71.5zM799 522q11 82 -35 136.5t-127 54.5
q-82 0 -143 -54.5t-72 -136.5t35 -136t127 -54q82 0 143.5 54t71.5 136z" />
    <glyph glyph-name="otilde" unicode="&#xf5;" horiz-adv-x="1220" 
d="M825 1145q-48 0 -88 13.5t-67 27.5t-45 14q-24 0 -41.5 -15.5t-20.5 -37.5h-256q21 153 101 248.5t208 95.5q47 0 87 -14.5t68.5 -28.5t47.5 -14q23 0 40 16t20 39h256q-21 -155 -101 -249.5t-209 -94.5zM532 -25q-242 0 -381.5 156.5t-107.5 390.5q21 153 112.5 278.5
t232 197t300.5 71.5t279.5 -71.5t175.5 -197t35 -278.5t-113 -278.5t-232.5 -197t-300.5 -71.5zM584 332q82 0 143.5 54t71.5 136q11 82 -35 136.5t-127 54.5q-82 0 -143 -54.5t-72 -136.5t35 -136t127 -54z" />
    <glyph glyph-name="odieresis" unicode="&#xf6;" horiz-adv-x="1220" 
d="M463 1116q-85 0 -134 56t-38 141q12 84 77 140t150 56t133.5 -55.5t36.5 -140.5q-10 -84 -75 -140.5t-150 -56.5zM926 1116q-85 0 -134 56t-38 141q12 84 77 140t150 56t133.5 -55.5t36.5 -140.5q-10 -84 -75 -140.5t-150 -56.5zM532 -25q-242 0 -381.5 156.5
t-107.5 390.5q21 153 112.5 278.5t232 197t300.5 71.5t279.5 -71.5t175.5 -197t35 -278.5t-113 -278.5t-232.5 -197t-300.5 -71.5zM584 332q82 0 143.5 54t71.5 136q11 82 -35 136.5t-127 54.5q-82 0 -143 -54.5t-72 -136.5t35 -136t127 -54z" />
    <glyph glyph-name="divide" unicode="&#xf7;" horiz-adv-x="1093" 
d="M588 815q-79 0 -126 53t-36 131t72.5 131.5t140.5 53.5q80 0 127 -53.5t37 -131.5t-72.5 -131t-142.5 -53zM96 455l43 303h881l-43 -303h-881zM477 27q-80 0 -127 53t-35 131q10 78 71.5 131t141.5 53t127 -53t37 -131q-12 -78 -74 -131t-141 -53z" />
    <glyph glyph-name="oslash" unicode="&#xf8;" horiz-adv-x="1220" 
d="M1272 1044l-172 -167q105 -146 78 -355q-21 -153 -113 -278.5t-232.5 -197t-300.5 -71.5q-157 0 -280 74l-49 -49h-256l174 170q-105 145 -78 352q21 153 112.5 278.5t232 197t300.5 71.5q157 0 279 -72l49 47h256zM422 522q-3 -30 0 -57l252 244q-24 4 -37 4
q-82 0 -143 -54.5t-72 -136.5zM799 522q3 32 0 60l-252 -246q20 -4 37 -4q82 0 143.5 54t71.5 136z" />
    <glyph glyph-name="ugrave" unicode="&#xf9;" horiz-adv-x="1175" 
d="M496 1135l-230 323h459l156 -323h-385zM510 -25q-228 0 -349 122t-93 323l88 624h368l-82 -573q-8 -63 25 -101t94 -38q62 0 105.5 38t50.5 101l82 573h368l-88 -624q-28 -201 -184 -323t-385 -122z" />
    <glyph glyph-name="uacute" unicode="&#xfa;" horiz-adv-x="1175" 
d="M467 1135l246 323h458l-319 -323h-385zM510 -25q-228 0 -349 122t-93 323l88 624h368l-82 -573q-8 -63 25 -101t94 -38q62 0 105.5 38t50.5 101l82 573h368l-88 -624q-28 -201 -184 -323t-385 -122z" />
    <glyph glyph-name="ucircumflex" unicode="&#xfb;" horiz-adv-x="1175" 
d="M690 1257l-94 -122h-344l246 323h442l156 -323h-344zM799 1044h368l-88 -624q-28 -201 -184 -323t-385 -122q-228 0 -349 122t-93 323l88 624h368l-82 -573q-8 -63 25 -101t94 -38q62 0 105.5 38t50.5 101z" />
    <glyph glyph-name="udieresis" unicode="&#xfc;" horiz-adv-x="1175" 
d="M440 1116q-85 0 -134 56t-38 141q12 84 77.5 140t150.5 56t133.5 -55.5t36.5 -140.5q-10 -84 -75.5 -140.5t-150.5 -56.5zM903 1116q-85 0 -134 56t-38 141q12 84 77 140t150 56t133.5 -55.5t36.5 -140.5q-10 -84 -75 -140.5t-150 -56.5zM510 -25q-228 0 -349 122
t-93 323l88 624h368l-82 -573q-8 -63 25 -101t94 -38q62 0 105.5 38t50.5 101l82 573h368l-88 -624q-28 -201 -184 -323t-385 -122z" />
    <glyph glyph-name="yacute" unicode="&#xfd;" horiz-adv-x="1163" 
d="M1165 1458l-319 -323h-385l246 323h458zM838 1044h411l-626 -1183q-68 -125 -180 -200t-236 -75q-79 0 -161.5 30.5t-137.5 80.5l180 289q43 -43 107 -43q72 0 110 67l8 15l-252 1019h420l103 -552z" />
    <glyph glyph-name="thorn" unicode="&#xfe;" 
d="M811 1069q139 0 242 -71.5t149 -196.5t25 -279q-32 -233 -196 -390t-376 -157q-148 0 -249 91l-64 -455h-369l263 1864h368l-69 -496q126 90 276 90zM848 522q11 82 -35 136.5t-127 54.5q-82 0 -143 -54.5t-72 -136.5t35 -136t127 -54q82 0 143.5 54t71.5 136z" />
    <glyph glyph-name="ydieresis" unicode="&#xff;" horiz-adv-x="1163" 
d="M434 1116q-85 0 -134 56t-38 141q12 84 77 140t150 56t133.5 -55.5t36.5 -140.5q-10 -84 -75 -140.5t-150 -56.5zM897 1116q-85 0 -134 56t-38 141q12 84 77 140t150 56t133.5 -55.5t36.5 -140.5q-10 -84 -75 -140.5t-150 -56.5zM838 1044h411l-626 -1183
q-68 -125 -180 -200t-236 -75q-79 0 -161.5 30.5t-137.5 80.5l180 289q43 -43 107 -43q72 0 110 67l8 15l-252 1019h420l103 -552z" />
    <glyph glyph-name="Amacron" unicode="&#x100;" horiz-adv-x="1476" 
d="M1221 1823l-43 -307h-603l43 307h603zM975 0l-35 195h-504l-90 -195h-420l707 1413h461l309 -1413h-428zM602 555h272l-75 424z" />
    <glyph glyph-name="amacron" unicode="&#x101;" 
d="M1081 1454l-43 -307h-602l43 307h602zM879 1044h368l-147 -1044h-369l10 66q-128 -91 -276 -91q-139 0 -242 71.5t-149 196.5t-25 279q32 233 196 390t376 157q151 0 247 -90zM590 332q80 0 141.5 53.5t73.5 132.5v4q11 82 -35 136.5t-127 54.5q-82 0 -143 -54.5
t-72 -136.5t35 -136t127 -54z" />
    <glyph glyph-name="Abreve" unicode="&#x102;" horiz-adv-x="1476" 
d="M872 1483q-158 0 -249.5 99.5t-69.5 248.5h283q-6 -38 14 -63t57 -25t66 25t35 63h282q-22 -149 -141 -248.5t-277 -99.5zM975 0l-35 195h-504l-90 -195h-420l707 1413h461l309 -1413h-428zM602 555h272l-75 424z" />
    <glyph glyph-name="abreve" unicode="&#x103;" 
d="M733 1114q-158 0 -249.5 99.5t-69.5 248.5h282q-6 -38 14.5 -63t57.5 -25t65.5 25t34.5 63h283q-22 -149 -141 -248.5t-277 -99.5zM879 1044h368l-147 -1044h-369l10 66q-128 -91 -276 -91q-139 0 -242 71.5t-149 196.5t-25 279q32 233 196 390t376 157q151 0 247 -90z
M590 332q80 0 141.5 53.5t73.5 132.5v4q11 82 -35 136.5t-127 54.5q-82 0 -143 -54.5t-72 -136.5t35 -136t127 -54z" />
    <glyph glyph-name="Aogonek" unicode="&#x104;" horiz-adv-x="1476" 
d="M1401 0q-227 -91 -242 -190q-6 -37 17 -55.5t57 -18.5q50 0 98 28l49 -225q-106 -65 -245 -65q-138 0 -215 71.5t-62 180.5q13 88 81 162.5t165 111.5h-129l-35 195h-504l-90 -195h-420l707 1413h461l309 -1413h-2zM602 555h272l-75 424z" />
    <glyph glyph-name="aogonek" unicode="&#x105;" 
d="M879 1044h368l-147 -1044h-2q-227 -91 -242 -190q-6 -37 17 -55.5t57 -18.5q50 0 98 28l49 -225q-106 -65 -246 -65q-138 0 -214.5 71.5t-61.5 180.5q13 88 81 162.5t165 111.5h-70l10 66q-128 -91 -276 -91q-139 0 -242 71.5t-149 196.5t-25 279q32 233 196 390t376 157
q151 0 247 -90zM590 332q80 0 141.5 53.5t73.5 132.5v4q11 82 -35 136.5t-127 54.5q-82 0 -143 -54.5t-72 -136.5t35 -136t127 -54z" />
    <glyph glyph-name="Cacute" unicode="&#x106;" horiz-adv-x="1454" 
d="M733 1503l246 324h459l-320 -324h-385zM725 -25q-158 0 -289.5 56.5t-217 153.5t-124 232.5t-16.5 289.5q28 205 149.5 372.5t307.5 263t397 95.5q198 0 350.5 -84.5t233.5 -233.5l-367 -209q-39 70 -109 110t-161 40q-149 0 -263.5 -101t-136.5 -253t64 -253.5
t235 -101.5q91 0 172.5 40t141.5 110l307 -209q-122 -148 -299 -233t-375 -85z" />
    <glyph glyph-name="cacute" unicode="&#x107;" horiz-adv-x="1103" 
d="M489 1135l246 323h459l-320 -323h-385zM532 -25q-242 0 -381.5 156.5t-107.5 390.5q21 153 112.5 278.5t232 197t300.5 71.5q156 0 274.5 -69t174.5 -189l-349 -195q-18 44 -57.5 70.5t-93.5 26.5q-82 0 -143 -54.5t-72 -136.5t35 -136t127 -54q54 0 102 26t78 70
l291 -195q-90 -120 -228.5 -189t-294.5 -69z" />
    <glyph glyph-name="Ccircumflex" unicode="&#x108;" horiz-adv-x="1454" 
d="M956 1626l-94 -123h-344l246 324h442l156 -324h-344zM778 352q91 0 172.5 40t141.5 110l307 -209q-122 -148 -299 -233t-375 -85q-158 0 -289.5 56.5t-217 153.5t-124 232.5t-16.5 289.5q28 205 149.5 372.5t307.5 263t397 95.5q198 0 350.5 -84.5t233.5 -233.5
l-367 -209q-39 70 -109 110t-161 40q-149 0 -263.5 -101t-136.5 -253t64 -253.5t235 -101.5z" />
    <glyph glyph-name="ccircumflex" unicode="&#x109;" horiz-adv-x="1103" 
d="M713 1257l-95 -122h-344l246 323h443l155 -323h-344zM584 332q54 0 102 26t78 70l291 -195q-90 -120 -228.5 -189t-294.5 -69q-242 0 -381.5 156.5t-107.5 390.5q21 153 112.5 278.5t232 197t300.5 71.5q156 0 274.5 -69t174.5 -189l-349 -195q-18 44 -57.5 70.5
t-93.5 26.5q-82 0 -143 -54.5t-72 -136.5t35 -136t127 -54z" />
    <glyph glyph-name="Cdotaccent" unicode="&#x10a;" horiz-adv-x="1454" 
d="M938 1485q-89 0 -140.5 59t-39.5 148t79.5 147.5t157.5 58.5t141.5 -58.5t39.5 -147.5t-80 -148t-158 -59zM725 -25q-158 0 -289.5 56.5t-217 153.5t-124 232.5t-16.5 289.5q28 205 149.5 372.5t307.5 263t397 95.5q198 0 350.5 -84.5t233.5 -233.5l-367 -209
q-39 70 -109 110t-161 40q-149 0 -263.5 -101t-136.5 -253t64 -253.5t235 -101.5q91 0 172.5 40t141.5 110l307 -209q-122 -148 -299 -233t-375 -85z" />
    <glyph glyph-name="cdotaccent" unicode="&#x10b;" horiz-adv-x="1103" 
d="M694 1116q-89 0 -140.5 59t-39.5 148t80 148t158 59q89 0 140.5 -59t39.5 -148t-80 -148t-158 -59zM532 -25q-242 0 -381.5 156.5t-107.5 390.5q21 153 112.5 278.5t232 197t300.5 71.5q156 0 274.5 -69t174.5 -189l-349 -195q-18 44 -57.5 70.5t-93.5 26.5
q-82 0 -143 -54.5t-72 -136.5t35 -136t127 -54q54 0 102 26t78 70l291 -195q-90 -120 -228.5 -189t-294.5 -69z" />
    <glyph glyph-name="Ccaron" unicode="&#x10c;" horiz-adv-x="1454" 
d="M1161 1503h-442l-156 324h344l62 -123l94 123h344zM778 352q91 0 172.5 40t141.5 110l307 -209q-122 -148 -299 -233t-375 -85q-158 0 -289.5 56.5t-217 153.5t-124 232.5t-16.5 289.5q28 205 149.5 372.5t307.5 263t397 95.5q198 0 350.5 -84.5t233.5 -233.5l-367 -209
q-39 70 -109 110t-161 40q-149 0 -263.5 -101t-136.5 -253t64 -253.5t235 -101.5z" />
    <glyph glyph-name="ccaron" unicode="&#x10d;" horiz-adv-x="1103" 
d="M918 1135h-443l-156 323h345l61 -123l94 123h344zM637 713q-82 0 -143 -54.5t-72 -136.5t35 -136t127 -54q54 0 102 26t78 70l291 -195q-90 -120 -228.5 -189t-294.5 -69q-242 0 -381.5 156.5t-107.5 390.5q21 153 112.5 278.5t232 197t300.5 71.5q156 0 274.5 -69
t174.5 -189l-349 -195q-18 44 -57.5 70.5t-93.5 26.5z" />
    <glyph glyph-name="Dcaron" unicode="&#x10e;" horiz-adv-x="1458" 
d="M1073 1503h-442l-156 324h344l62 -123l94 123h344zM805 1413q205 0 358.5 -92t225.5 -253.5t45 -360.5q-21 -149 -95 -280t-184 -225t-252.5 -148t-296.5 -54h-563l199 1413h563zM1032 707q20 145 -62 241t-225 96h-163l-97 -675h164q142 0 251.5 96.5t131.5 241.5z" />
    <glyph glyph-name="dcaron" unicode="&#x10f;" horiz-adv-x="1529" 
d="M860 969l72 506h368l-206 -1475h-369l10 76q-125 -101 -276 -101q-139 0 -242 71.5t-149 196.5t-25 279q21 153 103 278.5t205.5 197t262.5 71.5q152 0 246 -100zM1432 1475h329l-166 -504h-276zM584 332q76 0 136 49.5t77 124.5l4 29q5 77 -41 127.5t-123 50.5
q-82 0 -143 -54.5t-72 -136.5t35 -136t127 -54z" />
    <glyph glyph-name="Dcroat" unicode="&#x110;" horiz-adv-x="1458" 
d="M805 1413q205 0 358.5 -92t225.5 -253.5t45 -360.5q-21 -149 -95 -280t-184 -225t-252.5 -148t-296.5 -54h-563l82 575h-117l37 263h115l82 575h563zM1032 707q20 145 -62 241t-225 96h-163l-31 -206h158l-37 -263h-156l-31 -206h164q142 0 251.5 96.5t131.5 241.5z" />
    <glyph glyph-name="dcroat" unicode="&#x111;" 
d="M1401 1376l-37 -262h-109l-155 -1114h-369l8 66q-125 -91 -274 -91q-139 0 -242 71.5t-149 196.5t-25 279q32 233 196 390t376 157q151 0 247 -90l19 135h-187l37 262h187l14 99h369l-15 -99h109zM590 332q76 0 136 49.5t77 124.5l4 29q5 77 -41 127.5t-123 50.5
q-82 0 -143 -54.5t-72 -136.5t35 -136t127 -54z" />
    <glyph glyph-name="Emacron" unicode="&#x112;" horiz-adv-x="1173" 
d="M1094 1823l-43 -307h-602l43 307h602zM1167 1044h-585l-23 -149h522l-53 -369h-520l-23 -157h596l-51 -369h-987l199 1413h977z" />
    <glyph glyph-name="emacron" unicode="&#x113;" horiz-adv-x="1198" 
d="M1042 1454l-43 -307h-602l43 307h602zM682 1069q237 0 372.5 -157.5t100.5 -397.5q-9 -67 -20 -96h-709q15 -62 62.5 -96.5t119.5 -34.5q66 0 124.5 26.5t98.5 63.5l211 -213q-98 -89 -225 -139t-264 -50q-166 0 -290 72t-182.5 199t-37.5 282q34 230 217 385.5
t422 155.5zM633 758q-57 0 -104.5 -34.5t-75.5 -94.5h325q-10 61 -49.5 95t-95.5 34z" />
    <glyph glyph-name="Ebreve" unicode="&#x114;" horiz-adv-x="1173" 
d="M745 1483q-158 0 -249.5 99.5t-69.5 248.5h283q-6 -38 14 -63t57 -25t66 25t35 63h282q-22 -149 -141 -248.5t-277 -99.5zM1167 1044h-585l-23 -149h522l-53 -369h-520l-23 -157h596l-51 -369h-987l199 1413h977z" />
    <glyph glyph-name="ebreve" unicode="&#x115;" horiz-adv-x="1198" 
d="M694 1114q-158 0 -249.5 99.5t-69.5 248.5h282q-6 -38 14.5 -63t57.5 -25t65.5 25t34.5 63h283q-22 -149 -141 -248.5t-277 -99.5zM682 1069q237 0 372.5 -157.5t100.5 -397.5q-9 -67 -20 -96h-709q15 -62 62.5 -96.5t119.5 -34.5q66 0 124.5 26.5t98.5 63.5l211 -213
q-98 -89 -225 -139t-264 -50q-166 0 -290 72t-182.5 199t-37.5 282q34 230 217 385.5t422 155.5zM633 758q-57 0 -104.5 -34.5t-75.5 -94.5h325q-10 61 -49.5 95t-95.5 34z" />
    <glyph glyph-name="Edotaccent" unicode="&#x116;" horiz-adv-x="1173" 
d="M745 1485q-89 0 -140.5 59t-39.5 148t80 147.5t158 58.5q89 0 140.5 -58.5t39.5 -147.5t-80 -148t-158 -59zM1167 1044h-585l-23 -149h522l-53 -369h-520l-23 -157h596l-51 -369h-987l199 1413h977z" />
    <glyph glyph-name="edotaccent" unicode="&#x117;" horiz-adv-x="1198" 
d="M694 1116q-89 0 -140.5 59t-39.5 148t80 148t158 59q89 0 140.5 -59t39.5 -148t-80 -148t-158 -59zM682 1069q237 0 372.5 -157.5t100.5 -397.5q-9 -67 -20 -96h-709q15 -62 62.5 -96.5t119.5 -34.5q66 0 124.5 26.5t98.5 63.5l211 -213q-98 -89 -225 -139t-264 -50
q-166 0 -290 72t-182.5 199t-37.5 282q34 230 217 385.5t422 155.5zM633 758q-57 0 -104.5 -34.5t-75.5 -94.5h325q-10 61 -49.5 95t-95.5 34z" />
    <glyph glyph-name="Eogonek" unicode="&#x118;" horiz-adv-x="1173" 
d="M1167 1044h-585l-23 -149h522l-53 -369h-520l-23 -157h596l-51 -369h-10q-227 -91 -242 -190q-6 -37 17 -55.5t57 -18.5q50 0 98 28l49 -225q-106 -65 -245 -65q-138 0 -215 71.5t-62 180.5q13 88 81 162.5t165 111.5h-680l199 1413h977z" />
    <glyph glyph-name="eogonek" unicode="&#x119;" horiz-adv-x="1198" 
d="M682 1069q237 0 372.5 -157.5t100.5 -397.5q-9 -67 -20 -96h-709q15 -62 62.5 -96.5t119.5 -34.5q66 0 124.5 26.5t98.5 63.5l211 -213q-93 -83 -202 -129q-166 -105 -181 -211q-6 -41 14.5 -63.5t57.5 -22.5q41 0 88 29l49 -226q-116 -69 -254 -69q-132 0 -207.5 75
t-58.5 197q18 133 133 236q-222 23 -344.5 176t-93.5 372q34 230 217 385.5t422 155.5zM633 758q-57 0 -104.5 -34.5t-75.5 -94.5h325q-10 61 -49.5 95t-95.5 34z" />
    <glyph glyph-name="Ecaron" unicode="&#x11a;" horiz-adv-x="1173" 
d="M969 1503h-443l-155 324h344l61 -123l94 123h344zM1167 1044h-585l-23 -149h522l-53 -369h-520l-23 -157h596l-51 -369h-987l199 1413h977z" />
    <glyph glyph-name="ecaron" unicode="&#x11b;" horiz-adv-x="1198" 
d="M918 1135h-443l-156 323h345l61 -123l94 123h344zM682 1069q237 0 372.5 -157.5t100.5 -397.5q-9 -67 -20 -96h-709q15 -62 62.5 -96.5t119.5 -34.5q66 0 124.5 26.5t98.5 63.5l211 -213q-98 -89 -225 -139t-264 -50q-166 0 -290 72t-182.5 199t-37.5 282
q34 230 217 385.5t422 155.5zM633 758q-57 0 -104.5 -34.5t-75.5 -94.5h325q-10 61 -49.5 95t-95.5 34z" />
    <glyph glyph-name="Gcircumflex" unicode="&#x11c;" horiz-adv-x="1554" 
d="M956 1626l-94 -123h-344l246 324h442l156 -324h-344zM856 842h703l-19 -135q-29 -208 -145 -375.5t-294 -262t-384 -94.5q-156 0 -286.5 56.5t-215 153.5t-122 232.5t-15.5 289.5q28 205 149.5 372.5t307.5 263t397 95.5q180 0 324 -68.5t221 -189.5l-328 -236
q-42 57 -110.5 89t-151.5 32q-153 0 -269.5 -102.5t-138.5 -255.5q-22 -154 65.5 -256.5t239.5 -102.5q91 0 169 39.5t126 106.5h-272z" />
    <glyph glyph-name="gcircumflex" unicode="&#x11d;" horiz-adv-x="1159" 
d="M1163 1227h92l-47 -340h-73q-61 0 -86 -39q54 -108 36 -244q-29 -199 -192.5 -332t-378.5 -133q-46 0 -106 11q-50 -26 -56 -66q-3 -23 13 -37t45 -14h290q165 0 265.5 -89.5t113.5 -250.5l-393 -107q-2 41 -30.5 65.5t-75.5 24.5h-293q-162 0 -249.5 87t-68.5 227
q14 90 66.5 169.5t128.5 121.5q-117 130 -90 323q28 199 191 332t380 133q106 0 193 -35q23 56 71 101h-186l-61 122l-95 -122h-344l246 323h442l121 -252q62 21 131 21zM707 604q6 51 -25.5 84t-85.5 33q-56 0 -96.5 -33t-46.5 -84q-8 -51 23.5 -84t86.5 -33q54 0 95.5 33
t48.5 84z" />
    <glyph glyph-name="Gbreve" unicode="&#x11e;" horiz-adv-x="1554" 
d="M938 1483q-158 0 -250 99.5t-70 248.5h283q-6 -38 14.5 -63t57.5 -25t65.5 25t34.5 63h283q-22 -149 -141 -248.5t-277 -99.5zM856 842h703l-19 -135q-29 -208 -145 -375.5t-294 -262t-384 -94.5q-156 0 -286.5 56.5t-215 153.5t-122 232.5t-15.5 289.5
q28 205 149.5 372.5t307.5 263t397 95.5q180 0 324 -68.5t221 -189.5l-328 -236q-42 57 -110.5 89t-151.5 32q-153 0 -269.5 -102.5t-138.5 -255.5q-22 -154 65.5 -256.5t239.5 -102.5q91 0 169 39.5t126 106.5h-272z" />
    <glyph glyph-name="gbreve" unicode="&#x11f;" horiz-adv-x="1159" 
d="M643 1114q-158 0 -249.5 99.5t-69.5 248.5h282q-6 -38 14.5 -63t57.5 -25t65.5 25t34.5 63h283q-22 -149 -141 -248.5t-277 -99.5zM1163 1227h92l-47 -340h-73q-61 0 -86 -39q54 -108 36 -244q-29 -199 -192.5 -332t-378.5 -133q-46 0 -106 11q-50 -26 -56 -66
q-3 -23 13 -37t45 -14h290q165 0 265.5 -89.5t113.5 -250.5l-393 -107q-2 41 -30.5 65.5t-75.5 24.5h-293q-162 0 -249.5 87t-68.5 227q14 90 66.5 169.5t128.5 121.5q-117 130 -90 323q28 199 191 332t380 133q106 0 193 -35q40 90 126 141.5t199 51.5zM707 604
q6 51 -25.5 84t-85.5 33q-56 0 -96.5 -33t-46.5 -84q-8 -51 23.5 -84t86.5 -33q54 0 95.5 33t48.5 84z" />
    <glyph glyph-name="Gdotaccent" unicode="&#x120;" horiz-adv-x="1554" 
d="M938 1485q-89 0 -140.5 59t-39.5 148t79.5 147.5t157.5 58.5t141.5 -58.5t39.5 -147.5t-80 -148t-158 -59zM856 842h703l-19 -135q-29 -208 -145 -375.5t-294 -262t-384 -94.5q-156 0 -286.5 56.5t-215 153.5t-122 232.5t-15.5 289.5q28 205 149.5 372.5t307.5 263
t397 95.5q180 0 324 -68.5t221 -189.5l-328 -236q-42 57 -110.5 89t-151.5 32q-153 0 -269.5 -102.5t-138.5 -255.5q-22 -154 65.5 -256.5t239.5 -102.5q91 0 169 39.5t126 106.5h-272z" />
    <glyph glyph-name="gdotaccent" unicode="&#x121;" horiz-adv-x="1159" 
d="M643 1116q-89 0 -140.5 59t-39.5 148t80 148t157 59t141 -59t40 -148t-80 -148t-158 -59zM1163 1227h92l-47 -340h-73q-61 0 -86 -39q54 -108 36 -244q-29 -199 -192.5 -332t-378.5 -133q-46 0 -106 11q-50 -26 -56 -66q-3 -23 13 -37t45 -14h290q165 0 265.5 -89.5
t113.5 -250.5l-393 -107q-2 41 -30.5 65.5t-75.5 24.5h-293q-162 0 -249.5 87t-68.5 227q14 90 66.5 169.5t128.5 121.5q-117 130 -90 323q28 199 191 332t380 133q106 0 193 -35q40 90 126 141.5t199 51.5zM707 604q6 51 -25.5 84t-85.5 33q-56 0 -96.5 -33t-46.5 -84
q-8 -51 23.5 -84t86.5 -33q54 0 95.5 33t48.5 84z" />
    <glyph glyph-name="uni0122" unicode="&#x122;" horiz-adv-x="1554" 
d="M856 842h703l-19 -135q-29 -208 -145 -375.5t-294 -262t-384 -94.5q-156 0 -286.5 56.5t-215 153.5t-122 232.5t-15.5 289.5q28 205 149.5 372.5t307.5 263t397 95.5q180 0 324 -68.5t221 -189.5l-328 -236q-42 57 -110.5 89t-151.5 32q-153 0 -269.5 -102.5
t-138.5 -255.5q-22 -154 65.5 -256.5t239.5 -102.5q91 0 169 39.5t126 106.5h-272zM412 -475l151 385h377l-225 -385h-303z" />
    <glyph glyph-name="uni0123" unicode="&#x123;" horiz-adv-x="1159" 
d="M936 1520l-152 -385h-376l225 385h303zM1163 1227h92l-47 -340h-73q-61 0 -86 -39q54 -108 36 -244q-29 -199 -192.5 -332t-378.5 -133q-46 0 -106 11q-50 -26 -56 -66q-3 -23 13 -37t45 -14h290q165 0 265.5 -89.5t113.5 -250.5l-393 -107q-2 41 -30.5 65.5t-75.5 24.5
h-293q-162 0 -249.5 87t-68.5 227q14 90 66.5 169.5t128.5 121.5q-117 130 -90 323q28 199 191 332t380 133q106 0 193 -35q40 90 126 141.5t199 51.5zM707 604q6 51 -25.5 84t-85.5 33q-56 0 -96.5 -33t-46.5 -84q-8 -51 23.5 -84t86.5 -33q54 0 95.5 33t48.5 84z" />
    <glyph glyph-name="Hcircumflex" unicode="&#x124;" horiz-adv-x="1458" 
d="M885 1626l-94 -123h-345l246 324h443l155 -324h-344zM1075 1413h391l-198 -1413h-391l73 526h-442l-74 -526h-391l199 1413h391l-74 -518h442z" />
    <glyph glyph-name="hcircumflex" unicode="&#x125;" horiz-adv-x="1220" 
d="M446 1667l-94 -123h-344l246 324h442l156 -324h-344zM831 1069q173 0 264 -105t66 -278l-96 -686h-369l80 561q9 69 -24 110.5t-97 41.5q-68 0 -117 -40t-61 -106l-80 -567h-368l207 1475h368l-72 -517q129 111 299 111z" />
    <glyph glyph-name="Hbar" unicode="&#x126;" horiz-adv-x="1458" 
d="M1552 1257l-36 -266h-109l-139 -991h-391l73 526h-442l-74 -526h-391l139 991h-108l37 266h108l23 156h391l-23 -156h443l22 156h391l-22 -156h108zM1001 895l15 96h-443l-14 -96h442z" />
    <glyph glyph-name="hbar" unicode="&#x127;" horiz-adv-x="1220" 
d="M831 1069q173 0 264 -105t66 -278l-96 -686h-369l80 561q9 69 -24 110.5t-97 41.5q-68 0 -117 -40t-61 -106l-80 -567h-368l155 1114h-104l37 262h104l15 99h368l-14 -99h190l-37 -262h-190l-21 -156q129 111 299 111z" />
    <glyph glyph-name="Itilde" unicode="&#x128;" horiz-adv-x="624" 
d="M580 1513q-48 0 -88 14t-67.5 28t-45.5 14q-24 0 -41.5 -15.5t-20.5 -37.5h-256q21 152 101.5 248t208.5 96q47 0 87 -14.5t68 -29t47 -14.5q23 0 40 16t20 40h256q-21 -155 -100.5 -250t-208.5 -95zM43 0l199 1413h391l-199 -1413h-391z" />
    <glyph glyph-name="itilde" unicode="&#x129;" horiz-adv-x="573" 
d="M502 1145q-48 0 -88 13.5t-67.5 27.5t-45.5 14q-24 0 -41 -15.5t-20 -37.5h-256q21 153 101 248.5t208 95.5q47 0 87 -14.5t68.5 -28.5t47.5 -14q23 0 39.5 15.5t19.5 39.5h256q-21 -155 -100.5 -249.5t-208.5 -94.5zM29 0l147 1044h369l-148 -1044h-368z" />
    <glyph glyph-name="Imacron" unicode="&#x12a;" horiz-adv-x="624" 
d="M152 1516l43 307h602l-43 -307h-602zM43 0l199 1413h391l-199 -1413h-391z" />
    <glyph glyph-name="imacron" unicode="&#x12b;" horiz-adv-x="573" 
d="M74 1147l43 307h602l-43 -307h-602zM29 0l147 1044h369l-148 -1044h-368z" />
    <glyph glyph-name="Ibreve" unicode="&#x12c;" horiz-adv-x="624" 
d="M449 1483q-158 0 -250 99.5t-70 248.5h283q-6 -38 14 -63t57 -25t66 25t35 63h282q-22 -150 -140.5 -249t-276.5 -99zM43 0l199 1413h391l-199 -1413h-391z" />
    <glyph glyph-name="ibreve" unicode="&#x12d;" horiz-adv-x="573" 
d="M371 1114q-158 0 -250 99.5t-70 248.5h283q-6 -38 14.5 -63t57.5 -25t65.5 25t34.5 63h282q-22 -150 -140.5 -249t-276.5 -99zM29 0l147 1044h369l-148 -1044h-368z" />
    <glyph glyph-name="Iogonek" unicode="&#x12e;" horiz-adv-x="624" 
d="M242 1413h391l-199 -1413h-2q-227 -91 -242 -190q-6 -37 17 -55.5t57 -18.5q50 0 98 28l50 -225q-106 -65 -246 -65q-138 0 -215 71.5t-62 180.5q13 88 81 162.5t165 111.5h-92z" />
    <glyph glyph-name="iogonek" unicode="&#x12f;" horiz-adv-x="573" 
d="M428 1530q89 0 140.5 -59t39.5 -148t-80 -148t-157 -59t-141 59t-40 148t80 148t158 59zM29 0l147 1044h369l-148 -1044h-2q-226 -90 -241 -190q-6 -37 17 -55.5t56 -18.5q51 0 99 28l49 -225q-106 -65 -246 -65q-138 0 -214.5 71.5t-61.5 180.5q13 88 80.5 162.5
t164.5 111.5h-69z" />
    <glyph glyph-name="Idotaccent" unicode="&#x130;" horiz-adv-x="624" 
d="M449 1485q-89 0 -141 59t-40 148t80 147.5t158 58.5q89 0 140.5 -58.5t39.5 -147.5t-80 -148t-157 -59zM43 0l199 1413h391l-199 -1413h-391z" />
    <glyph glyph-name="dotlessi" unicode="&#x131;" horiz-adv-x="573" 
d="M29 0l147 1044h369l-148 -1044h-368z" />
    <glyph glyph-name="IJ" unicode="&#x132;" horiz-adv-x="1517" 
d="M43 0l199 1413h391l-199 -1413h-391zM809 -25q-128 0 -209 35l51 371q89 -29 168 -29q189 0 209 160l127 901h391l-129 -921q-35 -245 -199 -381t-409 -136z" />
    <glyph glyph-name="ij" unicode="&#x133;" horiz-adv-x="1155" 
d="M373 1135q-96 0 -151 63t-42 158t86 158t168 63q96 0 151 -63t42 -158t-86 -158t-168 -63zM954 1135q-95 0 -150 63t-42 158t86 158t168 63t150 -63t42 -158t-86 -158t-168 -63zM29 0l147 1044h369l-148 -1044h-368zM541 -414q-87 0 -154 25l47 330q46 -19 84 -19
q82 0 92 76l148 1046h368l-153 -1089q-23 -167 -131.5 -268t-300.5 -101z" />
    <glyph glyph-name="Jcircumflex" unicode="&#x134;" horiz-adv-x="892" 
d="M754 1626l-95 -123h-344l246 324h443l155 -324h-344zM403 512l127 901h392l-129 -921q-35 -245 -199 -381t-410 -136q-128 0 -209 35l52 371q89 -29 168 -29q188 0 208 160z" />
    <glyph glyph-name="jcircumflex" unicode="&#x135;" horiz-adv-x="581" 
d="M397 1257l-94 -122h-344l246 323h442l156 -323h-344zM37 -2l147 1046h369l-154 -1089q-23 -167 -131.5 -268t-300.5 -101q-86 0 -153 25l47 330q46 -19 84 -19q82 0 92 76z" />
    <glyph glyph-name="uni0136" unicode="&#x136;" horiz-adv-x="1413" 
d="M1546 1413l-669 -676l503 -737h-506l-284 451l-109 -109l-47 -342h-391l199 1413h391l-76 -534l494 534h495zM334 -475l151 385h377l-225 -385h-303z" />
    <glyph glyph-name="uni0137" unicode="&#x137;" horiz-adv-x="1177" 
d="M1276 1044l-496 -471l363 -573h-484l-178 289l-51 -49l-33 -240h-368l207 1475h368l-102 -734l299 303h475zM215 -475l152 385h376l-225 -385h-303z" />
    <glyph glyph-name="Lacute" unicode="&#x139;" horiz-adv-x="1077" 
d="M948 1827l-319 -324h-385l245 324h459zM485 369h535l-51 -369h-926l199 1413h391z" />
    <glyph glyph-name="lacute" unicode="&#x13a;" horiz-adv-x="573" 
d="M223 1544l246 324h459l-320 -324h-385zM29 0l207 1475h368l-207 -1475h-368z" />
    <glyph glyph-name="uni013B" unicode="&#x13b;" horiz-adv-x="1077" 
d="M485 369h535l-51 -369h-926l199 1413h391zM170 -475l152 385h376l-225 -385h-303z" />
    <glyph glyph-name="uni013C" unicode="&#x13c;" horiz-adv-x="573" 
d="M29 0l207 1475h368l-207 -1475h-368zM-104 -475l151 385h377l-225 -385h-303z" />
    <glyph glyph-name="Lcaron" unicode="&#x13d;" horiz-adv-x="1077" 
d="M633 1413l-148 -1044h535l-51 -369h-926l199 1413h391zM1102 1413l-166 -504h-277l113 504h330z" />
    <glyph glyph-name="lcaron" unicode="&#x13e;" horiz-adv-x="833" 
d="M29 0l207 1475h368l-207 -1475h-368zM623 971l112 504h330l-166 -504h-276z" />
    <glyph glyph-name="Ldot" unicode="&#x13f;" horiz-adv-x="1077" 
d="M633 1413l-148 -1044h535l-51 -369h-926l199 1413h391zM860 967q94 0 148 -62.5t41 -156.5q-12 -94 -84 -157t-166 -63q-93 0 -147 63t-42 157q14 94 85 156.5t165 62.5z" />
    <glyph glyph-name="ldot" unicode="&#x140;" horiz-adv-x="1003" 
d="M29 0l207 1475h368l-207 -1475h-368zM764 518q-94 0 -148 62.5t-41 156.5q12 93 84 156t166 63t147.5 -62.5t41.5 -156.5q-14 -94 -85 -156.5t-165 -62.5z" />
    <glyph glyph-name="Lslash" unicode="&#x141;" horiz-adv-x="1077" 
d="M485 369h535l-51 -369h-926l59 420l-112 -53l49 352l113 53l90 641h391l-62 -440l205 98l-49 -352l-205 -98z" />
    <glyph glyph-name="lslash" unicode="&#x142;" horiz-adv-x="708" 
d="M756 1079l-47 -331l-150 -76l-94 -672h-369l66 471l-150 -76l47 332l150 76l94 672h369l-66 -471z" />
    <glyph glyph-name="Nacute" unicode="&#x143;" horiz-adv-x="1482" 
d="M1386 1827l-319 -324h-385l246 324h458zM1100 1413h391l-199 -1413h-391l-366 723l-101 -723h-391l199 1413h391l366 -723z" />
    <glyph glyph-name="nacute" unicode="&#x144;" horiz-adv-x="1220" 
d="M1208 1458l-319 -323h-385l246 323h458zM831 1069q173 0 264 -105t66 -278l-96 -686h-369l80 561q9 69 -24 110.5t-99 41.5q-65 0 -113 -38.5t-61 -101.5l-82 -573h-368l147 1044h369l-10 -77q129 102 296 102z" />
    <glyph glyph-name="uni0145" unicode="&#x145;" horiz-adv-x="1482" 
d="M1100 1413h391l-199 -1413h-391l-366 723l-101 -723h-391l199 1413h391l366 -723zM350 -475l152 385h377l-226 -385h-303z" />
    <glyph glyph-name="uni0146" unicode="&#x146;" horiz-adv-x="1220" 
d="M831 1069q173 0 264 -105t66 -278l-96 -686h-369l80 561q9 69 -24 110.5t-99 41.5q-65 0 -113 -38.5t-61 -101.5l-82 -573h-368l147 1044h369l-10 -77q129 102 296 102zM229 -475l152 385h377l-226 -385h-303z" />
    <glyph glyph-name="Ncaron" unicode="&#x147;" horiz-adv-x="1482" 
d="M1110 1503h-442l-156 324h344l62 -123l94 123h344zM1100 1413h391l-199 -1413h-391l-366 723l-101 -723h-391l199 1413h391l366 -723z" />
    <glyph glyph-name="ncaron" unicode="&#x148;" horiz-adv-x="1220" 
d="M932 1135h-443l-155 323h344l61 -123l95 123h344zM831 1069q173 0 264 -105t66 -278l-96 -686h-369l80 561q9 69 -24 110.5t-99 41.5q-65 0 -113 -38.5t-61 -101.5l-82 -573h-368l147 1044h369l-10 -77q129 102 296 102z" />
    <glyph glyph-name="Eng" unicode="&#x14a;" horiz-adv-x="1482" 
d="M1491 1413l-197 -1403l-4 -30q-29 -208 -167 -311t-392 -103l51 356q110 0 119 70v8l-366 723l-101 -723h-391l199 1413h391l366 -723l101 723h391z" />
    <glyph glyph-name="eng" unicode="&#x14b;" horiz-adv-x="1220" 
d="M831 1069q173 0 264 -105t66 -278l-98 -706q-59 -414 -526 -414l51 356q47 0 75.5 18t32.5 52l80 569q9 69 -24 110.5t-97 41.5q-66 0 -114 -38.5t-62 -101.5l-82 -573h-368l147 1044h369l-10 -77q129 102 296 102z" />
    <glyph glyph-name="Omacron" unicode="&#x14c;" horiz-adv-x="1605" 
d="M641 1516l43 307h602l-43 -307h-602zM725 -25q-158 0 -289.5 56.5t-217 153.5t-124 232.5t-16.5 289.5q28 205 149.5 372.5t307.5 263t397 95.5t369.5 -95.5t233 -263t46.5 -372.5q-29 -205 -151 -373t-308 -263.5t-397 -95.5zM778 352q150 0 265 101.5t137 253.5
t-64.5 253t-236.5 101q-149 0 -263.5 -101t-136.5 -253t64 -253.5t235 -101.5z" />
    <glyph glyph-name="omacron" unicode="&#x14d;" horiz-adv-x="1220" 
d="M397 1147l43 307h602l-43 -307h-602zM532 -25q-242 0 -381.5 156.5t-107.5 390.5q21 153 112.5 278.5t232 197t300.5 71.5t279.5 -71.5t175.5 -197t35 -278.5t-113 -278.5t-232.5 -197t-300.5 -71.5zM584 332q82 0 143.5 54t71.5 136q11 82 -35 136.5t-127 54.5
q-82 0 -143 -54.5t-72 -136.5t35 -136t127 -54z" />
    <glyph glyph-name="Obreve" unicode="&#x14e;" horiz-adv-x="1605" 
d="M938 1483q-158 0 -250 99.5t-70 248.5h283q-6 -38 14.5 -63t57.5 -25t65.5 25t34.5 63h283q-22 -149 -141 -248.5t-277 -99.5zM725 -25q-158 0 -289.5 56.5t-217 153.5t-124 232.5t-16.5 289.5q28 205 149.5 372.5t307.5 263t397 95.5t369.5 -95.5t233 -263t46.5 -372.5
q-29 -205 -151 -373t-308 -263.5t-397 -95.5zM778 352q150 0 265 101.5t137 253.5t-64.5 253t-236.5 101q-149 0 -263.5 -101t-136.5 -253t64 -253.5t235 -101.5z" />
    <glyph glyph-name="obreve" unicode="&#x14f;" horiz-adv-x="1220" 
d="M694 1114q-158 0 -249.5 99.5t-69.5 248.5h282q-6 -38 14.5 -63t57.5 -25t65.5 25t34.5 63h283q-22 -149 -141 -248.5t-277 -99.5zM532 -25q-242 0 -381.5 156.5t-107.5 390.5q21 153 112.5 278.5t232 197t300.5 71.5t279.5 -71.5t175.5 -197t35 -278.5t-113 -278.5
t-232.5 -197t-300.5 -71.5zM584 332q82 0 143.5 54t71.5 136q11 82 -35 136.5t-127 54.5q-82 0 -143 -54.5t-72 -136.5t35 -136t127 -54z" />
    <glyph glyph-name="Ohungarumlaut" unicode="&#x150;" horiz-adv-x="1605" 
d="M508 1503l225 324h397l-268 -324h-354zM999 1503l226 324h397l-268 -324h-355zM725 -25q-158 0 -289.5 56.5t-217 153.5t-124 232.5t-16.5 289.5q28 205 149.5 372.5t307.5 263t397 95.5t369.5 -95.5t233 -263t46.5 -372.5q-29 -205 -151 -373t-308 -263.5t-397 -95.5z
M778 352q150 0 265 101.5t137 253.5t-64.5 253t-236.5 101q-149 0 -263.5 -101t-136.5 -253t64 -253.5t235 -101.5z" />
    <glyph glyph-name="ohungarumlaut" unicode="&#x151;" horiz-adv-x="1220" 
d="M264 1135l225 323h398l-269 -323h-354zM756 1135l225 323h397l-268 -323h-354zM532 -25q-242 0 -381.5 156.5t-107.5 390.5q21 153 112.5 278.5t232 197t300.5 71.5t279.5 -71.5t175.5 -197t35 -278.5t-113 -278.5t-232.5 -197t-300.5 -71.5zM584 332q82 0 143.5 54
t71.5 136q11 82 -35 136.5t-127 54.5q-82 0 -143 -54.5t-72 -136.5t35 -136t127 -54z" />
    <glyph glyph-name="OE" unicode="&#x152;" horiz-adv-x="1812" 
d="M1806 1044h-503l-23 -149h440l-53 -369h-438l-23 -157h514l-51 -369h-964q-205 0 -358.5 92t-225 254t-43.5 361q27 199 144 360.5t296.5 253.5t384.5 92h955zM764 369h51l96 675h-51q-143 0 -252 -96t-129 -241q-22 -144 60 -241t225 -97z" />
    <glyph glyph-name="oe" unicode="&#x153;" horiz-adv-x="1953" 
d="M1466 1069q225 0 352.5 -157.5t92.5 -397.5q-9 -63 -21 -96h-708q15 -62 62.5 -96.5t119.5 -34.5q66 0 124.5 26.5t98.5 63.5l211 -213q-94 -89 -213.5 -139t-247.5 -50q-127 0 -229 48.5t-166 136.5q-85 -88 -195 -136.5t-233 -48.5q-151 0 -267 71.5t-170.5 197
t-33.5 278.5t112 278.5t227 197t288 71.5q121 0 216 -47t154 -133q86 86 195.5 133t230.5 47zM1389 758q-57 0 -105 -34.5t-76 -94.5h326q-10 61 -49.5 95t-95.5 34zM799 522q11 82 -35 136.5t-127 54.5q-82 0 -143 -54.5t-72 -136.5t35 -136t127 -54q82 0 143.5 54
t71.5 136z" />
    <glyph glyph-name="Racute" unicode="&#x154;" horiz-adv-x="1325" 
d="M1298 1827l-319 -324h-385l246 324h458zM1329 915q-18 -133 -97 -239.5t-200 -169.5l211 -506h-469l-156 438h-122l-62 -438h-391l199 1413h635q147 0 257.5 -64.5t162.5 -179t32 -254.5zM582 1044l-39 -266h237q56 0 98.5 38t49.5 95q8 57 -24 95t-87 38h-235z" />
    <glyph glyph-name="racute" unicode="&#x155;" horiz-adv-x="780" 
d="M1016 1458l-320 -323h-385l246 323h459zM532 956q117 105 254 105h52l-54 -379h-51q-113 0 -181 -53t-87 -146l-68 -483h-368l147 1044h369z" />
    <glyph glyph-name="uni0156" unicode="&#x156;" horiz-adv-x="1325" 
d="M1329 915q-18 -133 -97 -239.5t-200 -169.5l211 -506h-469l-156 438h-122l-62 -438h-391l199 1413h635q147 0 257.5 -64.5t162.5 -179t32 -254.5zM582 1044l-39 -266h237q56 0 98.5 38t49.5 95q8 57 -24 95t-87 38h-235zM272 -475l152 385h377l-226 -385h-303z" />
    <glyph glyph-name="uni0157" unicode="&#x157;" horiz-adv-x="780" 
d="M786 1061h52l-54 -379h-51q-113 0 -181 -53t-87 -146l-68 -483h-368l147 1044h369l-13 -88q117 105 254 105zM-104 -475l151 385h377l-225 -385h-303z" />
    <glyph glyph-name="Rcaron" unicode="&#x158;" horiz-adv-x="1325" 
d="M1022 1503h-442l-156 324h344l61 -123l95 123h344zM1329 915q-18 -133 -97 -239.5t-200 -169.5l211 -506h-469l-156 438h-122l-62 -438h-391l199 1413h635q147 0 257.5 -64.5t162.5 -179t32 -254.5zM582 1044l-39 -266h237q56 0 98.5 38t49.5 95q8 57 -24 95t-87 38h-235
z" />
    <glyph glyph-name="rcaron" unicode="&#x159;" horiz-adv-x="780" 
d="M739 1135h-442l-156 323h344l62 -123l94 123h344zM532 956q117 105 254 105h52l-54 -379h-51q-113 0 -181 -53t-87 -146l-68 -483h-368l147 1044h369z" />
    <glyph glyph-name="Sacute" unicode="&#x15a;" horiz-adv-x="1249" 
d="M573 1503l246 324h459l-320 -324h-385zM569 -25q-166 0 -327.5 61t-264.5 161l240 299q79 -78 188.5 -125t210.5 -47q74 0 130.5 24t60.5 64q6 37 -43 60t-178 56q-484 125 -436 471q28 198 200 318.5t430 120.5q161 0 290 -48t204 -124l-221 -299q-55 55 -145 89
t-181 34q-73 0 -121 -21t-53 -55q-6 -37 47 -65t150 -50q36 -8 65.5 -16.5t84 -28.5t96.5 -43t89.5 -61.5t76.5 -82.5t44.5 -106t5.5 -133q-19 -132 -110.5 -236t-231 -160.5t-301.5 -56.5z" />
    <glyph glyph-name="sacute" unicode="&#x15b;" horiz-adv-x="985" 
d="M377 1135l246 323h458l-319 -323h-385zM408 -25q-251 0 -441 154l189 225q131 -102 276 -102q58 0 94 13.5t39 39.5q4 27 -29.5 41.5t-111.5 30.5q-64 13 -101 23t-95 36.5t-88 59t-49 90t-9 131.5q17 115 91 196t180 118.5t235 37.5q231 0 411 -133l-188 -225
q-67 40 -124.5 61t-123.5 21q-106 0 -114 -45q-3 -25 31 -39.5t108 -28.5q62 -12 101 -22.5t96.5 -36.5t88.5 -59t50 -90.5t8 -131.5q-16 -116 -91 -200t-186.5 -124.5t-246.5 -40.5z" />
    <glyph glyph-name="Scircumflex" unicode="&#x15c;" horiz-adv-x="1249" 
d="M797 1626l-95 -123h-344l246 324h443l155 -324h-344zM750 899q36 -8 65.5 -16.5t84 -28.5t96.5 -43t89.5 -61.5t76.5 -82.5t44.5 -106t5.5 -133q-19 -132 -110.5 -236t-231 -160.5t-301.5 -56.5q-166 0 -327.5 61t-264.5 161l240 299q79 -78 188.5 -125t210.5 -47
q74 0 130.5 24t60.5 64q6 37 -43 60t-178 56q-484 125 -436 471q28 198 200 318.5t430 120.5q161 0 290 -48t204 -124l-221 -299q-55 55 -145 89t-181 34q-73 0 -121 -21t-53 -55q-6 -37 47 -65t150 -50z" />
    <glyph glyph-name="scircumflex" unicode="&#x15d;" horiz-adv-x="985" 
d="M600 1257l-94 -122h-344l246 323h442l156 -323h-344zM563 793q-106 0 -114 -45q-3 -25 31 -39.5t108 -28.5q62 -12 101 -22.5t96.5 -36.5t88.5 -59t50 -90.5t8 -131.5q-16 -116 -91 -200t-186.5 -124.5t-246.5 -40.5q-251 0 -441 154l189 225q131 -102 276 -102
q58 0 94 13.5t39 39.5q4 27 -29.5 41.5t-111.5 30.5q-64 13 -101 23t-95 36.5t-88 59t-49 90t-9 131.5q17 115 91 196t180 118.5t235 37.5q231 0 411 -133l-188 -225q-67 40 -124.5 61t-123.5 21z" />
    <glyph glyph-name="Scedilla" unicode="&#x15e;" horiz-adv-x="1249" 
d="M750 899q36 -8 65.5 -16.5t84 -28.5t96.5 -43t89.5 -61.5t76.5 -82.5t44.5 -106t5.5 -133q-16 -114 -87.5 -208t-181.5 -153.5t-243 -80.5l-41 -41q80 -14 124.5 -79.5t31.5 -154.5q-14 -108 -104.5 -181t-214.5 -73q-148 0 -252 107l143 153q60 -63 131 -63
q32 0 54.5 16t25.5 41q4 23 -11.5 39.5t-41.5 16.5q-35 0 -56 -25l-190 90l147 152q-138 20 -261.5 76t-207.5 137l240 299q79 -78 188.5 -125t210.5 -47q74 0 130.5 24t60.5 64q6 37 -43 60t-178 56q-484 125 -436 471q28 198 200 318.5t430 120.5q161 0 290 -48t204 -124
l-221 -299q-55 55 -145 89t-181 34q-73 0 -121 -21t-53 -55q-6 -37 47 -65t150 -50z" />
    <glyph glyph-name="scedilla" unicode="&#x15f;" horiz-adv-x="985" 
d="M588 680q62 -12 101 -22.5t96.5 -36.5t88.5 -59t50 -90.5t8 -131.5q-20 -140 -120 -230t-253 -120l-45 -45q80 -14 124.5 -79.5t31.5 -154.5q-14 -108 -105 -181t-215 -73q-148 0 -252 107l144 153q60 -63 131 -63q32 0 54.5 16t25.5 41q4 23 -12 39.5t-42 16.5
q-34 0 -55 -25l-190 90l145 152q-183 24 -332 145l189 225q131 -102 276 -102q58 0 94 13.5t39 39.5q4 27 -29.5 41.5t-111.5 30.5q-64 13 -101 23t-95 36.5t-88 59t-49 90t-9 131.5q17 115 91 196t180 118.5t235 37.5q231 0 411 -133l-188 -225q-67 40 -124.5 61t-123.5 21
q-106 0 -114 -45q-3 -25 31 -39.5t108 -28.5z" />
    <glyph glyph-name="Scaron" unicode="&#x160;" horiz-adv-x="1249" 
d="M1001 1503h-442l-156 324h345l61 -123l94 123h344zM750 899q36 -8 65.5 -16.5t84 -28.5t96.5 -43t89.5 -61.5t76.5 -82.5t44.5 -106t5.5 -133q-19 -132 -110.5 -236t-231 -160.5t-301.5 -56.5q-166 0 -327.5 61t-264.5 161l240 299q79 -78 188.5 -125t210.5 -47
q74 0 130.5 24t60.5 64q6 37 -43 60t-178 56q-484 125 -436 471q28 198 200 318.5t430 120.5q161 0 290 -48t204 -124l-221 -299q-55 55 -145 89t-181 34q-73 0 -121 -21t-53 -55q-6 -37 47 -65t150 -50z" />
    <glyph glyph-name="scaron" unicode="&#x161;" horiz-adv-x="985" 
d="M805 1135h-443l-155 323h344l61 -123l95 123h344zM563 793q-106 0 -114 -45q-3 -25 31 -39.5t108 -28.5q62 -12 101 -22.5t96.5 -36.5t88.5 -59t50 -90.5t8 -131.5q-16 -116 -91 -200t-186.5 -124.5t-246.5 -40.5q-251 0 -441 154l189 225q131 -102 276 -102
q58 0 94 13.5t39 39.5q4 27 -29.5 41.5t-111.5 30.5q-64 13 -101 23t-95 36.5t-88 59t-49 90t-9 131.5q17 115 91 196t180 118.5t235 37.5q231 0 411 -133l-188 -225q-67 40 -124.5 61t-123.5 21z" />
    <glyph glyph-name="uni0162" unicode="&#x162;" horiz-adv-x="1202" 
d="M723 0h-64l-53 -53q80 -14 124.5 -79.5t31.5 -154.5q-14 -108 -105 -181t-215 -73q-148 0 -252 107l144 153q60 -63 131 -63q32 0 54.5 16t25.5 41q4 23 -11.5 39.5t-41.5 16.5q-35 0 -56 -25l-190 90l160 166h-74l147 1044h-360l51 369h1112l-51 -369h-361z" />
    <glyph glyph-name="uni0163" unicode="&#x163;" horiz-adv-x="854" 
d="M575 709l-38 -273q-6 -48 18 -76t80 -28q59 0 135 35l-47 -344q-74 -33 -139 -41l-33 -35q80 -14 124.5 -79.5t31.5 -154.5q-14 -108 -105 -181t-215 -73q-148 0 -252 107l144 153q60 -63 131 -63q32 0 54 16t25 41q4 23 -11.5 39.5t-41.5 16.5q-34 0 -55 -25l-191 90
l158 164q-117 38 -163 138t-25 239l47 334h-139l47 335h139l35 246h368l-34 -246h243l-47 -335h-244z" />
    <glyph glyph-name="Tcaron" unicode="&#x164;" horiz-adv-x="1202" 
d="M961 1503h-443l-156 324h345l61 -123l94 123h344zM1282 1413l-51 -369h-361l-147 -1044h-391l147 1044h-360l51 369h1112z" />
    <glyph glyph-name="tcaron" unicode="&#x165;" horiz-adv-x="854" 
d="M811 1642h330l-166 -503h-277zM657 1290l-34 -246h243l-47 -335h-244l-38 -273q-6 -48 18 -76t80 -28q59 0 135 35l-47 -344q-102 -48 -219 -48q-103 0 -177 30t-113.5 85t-53 126.5t-0.5 158.5l47 334h-139l47 335h139l35 246h368z" />
    <glyph glyph-name="Tbar" unicode="&#x166;" horiz-adv-x="1202" 
d="M1231 1044h-361l-41 -288h138l-37 -262h-137l-70 -494h-391l69 494h-135l37 262h135l41 288h-360l51 369h1112z" />
    <glyph glyph-name="tbar" unicode="&#x167;" horiz-adv-x="854" 
d="M819 709h-244l-8 -52h185l-37 -262h-178q13 -63 98 -63q59 0 135 35l-47 -344q-102 -48 -219 -48q-103 0 -177 30t-113.5 85t-53 126.5t-0.5 158.5l2 20h-111l37 262h111l8 52h-139l47 335h139l35 246h368l-34 -246h243z" />
    <glyph glyph-name="Utilde" unicode="&#x168;" horiz-adv-x="1388" 
d="M961 1513q-48 0 -88 14t-67.5 28t-45.5 14q-24 0 -41.5 -15.5t-20.5 -37.5h-256q21 152 101.5 248t208.5 96q47 0 87 -14.5t68 -29t47 -14.5q23 0 40 16t20 40h256q-21 -155 -100.5 -250t-208.5 -95zM616 -25q-126 0 -230.5 44t-173 120.5t-99 184t-13.5 229.5l121 860
h391l-118 -854q-13 -89 37 -148t139 -59t156 59t81 148l119 854h391l-121 -860q-23 -163 -120 -295.5t-244.5 -207.5t-315.5 -75z" />
    <glyph glyph-name="utilde" unicode="&#x169;" horiz-adv-x="1175" 
d="M803 1145q-48 0 -88 13.5t-67.5 27.5t-45.5 14q-24 0 -41 -15.5t-20 -37.5h-256q21 153 101 248.5t208 95.5q47 0 87 -14.5t68.5 -28.5t47.5 -14q23 0 39.5 15.5t19.5 39.5h256q-21 -155 -100.5 -249.5t-208.5 -94.5zM510 -25q-228 0 -349 122t-93 323l88 624h368
l-82 -573q-8 -63 25 -101t94 -38q62 0 105.5 38t50.5 101l82 573h368l-88 -624q-28 -201 -184 -323t-385 -122z" />
    <glyph glyph-name="Umacron" unicode="&#x16a;" horiz-adv-x="1388" 
d="M532 1516l43 307h603l-43 -307h-603zM616 -25q-126 0 -230.5 44t-173 120.5t-99 184t-13.5 229.5l121 860h391l-118 -854q-13 -89 37 -148t139 -59t156 59t81 148l119 854h391l-121 -860q-23 -163 -120 -295.5t-244.5 -207.5t-315.5 -75z" />
    <glyph glyph-name="umacron" unicode="&#x16b;" horiz-adv-x="1175" 
d="M375 1147l43 307h602l-43 -307h-602zM510 -25q-228 0 -349 122t-93 323l88 624h368l-82 -573q-8 -63 25 -101t94 -38q62 0 105.5 38t50.5 101l82 573h368l-88 -624q-28 -201 -184 -323t-385 -122z" />
    <glyph glyph-name="Ubreve" unicode="&#x16c;" horiz-adv-x="1388" 
d="M829 1483q-158 0 -249.5 99.5t-69.5 248.5h283q-6 -38 14 -63t57 -25t66 25t35 63h282q-22 -149 -141 -248.5t-277 -99.5zM616 -25q-126 0 -230.5 44t-173 120.5t-99 184t-13.5 229.5l121 860h391l-118 -854q-13 -89 37 -148t139 -59t156 59t81 148l119 854h391
l-121 -860q-23 -163 -120 -295.5t-244.5 -207.5t-315.5 -75z" />
    <glyph glyph-name="ubreve" unicode="&#x16d;" horiz-adv-x="1175" 
d="M672 1114q-158 0 -250 99.5t-70 248.5h283q-6 -38 14.5 -63t57.5 -25t65.5 25t34.5 63h283q-22 -149 -141 -248.5t-277 -99.5zM510 -25q-228 0 -349 122t-93 323l88 624h368l-82 -573q-8 -63 25 -101t94 -38q62 0 105.5 38t50.5 101l82 573h368l-88 -624
q-28 -201 -184 -323t-385 -122z" />
    <glyph glyph-name="Uring" unicode="&#x16e;" horiz-adv-x="1388" 
d="M829 1483q-104 0 -165 68t-48 169t94 169.5t185 68.5t165.5 -68.5t47.5 -169.5q-13 -101 -93.5 -169t-185.5 -68zM854 1661q25 0 44 16.5t22 42.5t-11 43t-39 17t-43.5 -17t-21.5 -43t10.5 -42.5t38.5 -16.5zM616 -25q-126 0 -230.5 44t-173 120.5t-99 184t-13.5 229.5
l121 860h391l-118 -854q-13 -89 37 -148t139 -59t156 59t81 148l119 854h391l-121 -860q-23 -163 -120 -295.5t-244.5 -207.5t-315.5 -75z" />
    <glyph glyph-name="uring" unicode="&#x16f;" horiz-adv-x="1175" 
d="M672 1114q-104 0 -165.5 68.5t-47.5 169.5q13 101 93.5 169t184.5 68t165 -68t48 -169t-93.5 -169.5t-184.5 -68.5zM696 1292q25 0 44 17t22 43t-10.5 42.5t-38.5 16.5t-44 -16.5t-22 -42.5t10.5 -43t38.5 -17zM510 -25q-228 0 -349 122t-93 323l88 624h368l-82 -573
q-8 -63 25 -101t94 -38q62 0 105.5 38t50.5 101l82 573h368l-88 -624q-28 -201 -184 -323t-385 -122z" />
    <glyph glyph-name="Uhungarumlaut" unicode="&#x170;" horiz-adv-x="1388" 
d="M399 1503l226 324h397l-268 -324h-355zM891 1503l225 324h397l-268 -324h-354zM616 -25q-126 0 -230.5 44t-173 120.5t-99 184t-13.5 229.5l121 860h391l-118 -854q-13 -89 37 -148t139 -59t156 59t81 148l119 854h391l-121 -860q-23 -163 -120 -295.5t-244.5 -207.5
t-315.5 -75z" />
    <glyph glyph-name="uhungarumlaut" unicode="&#x171;" horiz-adv-x="1175" 
d="M242 1135l225 323h397l-268 -323h-354zM733 1135l225 323h398l-269 -323h-354zM510 -25q-228 0 -349 122t-93 323l88 624h368l-82 -573q-8 -63 25 -101t94 -38q62 0 105.5 38t50.5 101l82 573h368l-88 -624q-28 -201 -184 -323t-385 -122z" />
    <glyph glyph-name="Uogonek" unicode="&#x172;" horiz-adv-x="1388" 
d="M1026 1413h391l-121 -860q-27 -191 -154.5 -337.5t-312.5 -207.5q-156 -73 -167 -158q-6 -37 16.5 -55t56.5 -18q51 0 99 28l49 -225q-106 -65 -246 -65q-138 0 -215 71.5t-62 180.5q9 62 47.5 119.5t96.5 99.5q-208 37 -321.5 193.5t-82.5 373.5l121 860h391l-118 -854
q-13 -89 37 -148t139 -59t156 59t81 148z" />
    <glyph glyph-name="uogonek" unicode="&#x173;" horiz-adv-x="1175" 
d="M799 1044h368l-88 -624q-23 -162 -130 -274t-273 -152q-128 -69 -139 -144q-6 -37 16.5 -55t56.5 -18q51 0 99 28l49 -225q-106 -65 -246 -65q-138 0 -214.5 71.5t-61.5 180.5q9 64 47.5 121.5t97.5 99.5q-168 32 -252 147.5t-61 284.5l88 624h368l-82 -573
q-8 -63 25 -101t94 -38q62 0 105.5 38t50.5 101z" />
    <glyph glyph-name="Wcircumflex" unicode="&#x174;" horiz-adv-x="2041" 
d="M1176 1626l-95 -123h-344l246 324h442l156 -324h-344zM1757 1413h404l-627 -1413h-389l-86 786l-309 -786h-388l-231 1413h414l98 -858l338 858h340l98 -858z" />
    <glyph glyph-name="wcircumflex" unicode="&#x175;" horiz-adv-x="1744" 
d="M975 1257l-94 -122h-344l245 323h443l155 -323h-344zM1423 1044h402l-504 -1044h-377l-65 569l-226 -569h-377l-208 1044h411l66 -542l219 542h373l67 -544z" />
    <glyph glyph-name="Ycircumflex" unicode="&#x176;" horiz-adv-x="1382" 
d="M846 1626l-94 -123h-344l245 324h443l155 -324h-344zM1096 1413h436l-653 -948l-66 -465h-391l65 465l-387 948h445l203 -534z" />
    <glyph glyph-name="ycircumflex" unicode="&#x177;" horiz-adv-x="1163" 
d="M684 1257l-94 -122h-344l246 323h442l156 -323h-345zM838 1044h411l-626 -1183q-68 -125 -180 -200t-236 -75q-79 0 -161.5 30.5t-137.5 80.5l180 289q43 -43 107 -43q72 0 110 67l8 15l-252 1019h420l103 -552z" />
    <glyph glyph-name="Ydieresis" unicode="&#x178;" horiz-adv-x="1382" 
d="M596 1485q-85 0 -133.5 55.5t-38.5 140.5q12 85 77 141t150 56t133.5 -56t36.5 -141q-10 -84 -75 -140t-150 -56zM1059 1485q-85 0 -133.5 55.5t-38.5 140.5q12 85 77 141t150 56t133.5 -56t36.5 -141q-10 -84 -75 -140t-150 -56zM1096 1413h436l-653 -948l-66 -465h-391
l65 465l-387 948h445l203 -534z" />
    <glyph glyph-name="Zacute" unicode="&#x179;" horiz-adv-x="1257" 
d="M1262 1827l-320 -324h-385l246 324h459zM1307 1413l-39 -280l-690 -764h596l-52 -369h-1134l39 281l690 763h-574l52 369h1112z" />
    <glyph glyph-name="zacute" unicode="&#x17a;" horiz-adv-x="1011" 
d="M1090 1458l-320 -323h-385l246 323h459zM92 688l51 356h867l-39 -268l-410 -420h367l-51 -356h-889l39 268l409 420h-344z" />
    <glyph glyph-name="Zdotaccent" unicode="&#x17b;" horiz-adv-x="1257" 
d="M762 1485q-89 0 -140.5 59t-39.5 148t79.5 147.5t157.5 58.5q89 0 140.5 -58.5t39.5 -147.5t-80 -148t-157 -59zM1307 1413l-39 -280l-690 -764h596l-52 -369h-1134l39 281l690 763h-574l52 369h1112z" />
    <glyph glyph-name="zdotaccent" unicode="&#x17c;" horiz-adv-x="1011" 
d="M590 1116q-89 0 -140.5 59t-39.5 148t80 148t157 59t140.5 -59t39.5 -148t-80 -148t-157 -59zM1010 1044l-39 -268l-410 -420h367l-51 -356h-889l39 268l409 420h-344l51 356h867z" />
    <glyph glyph-name="Zcaron" unicode="&#x17d;" horiz-adv-x="1257" 
d="M985 1503h-442l-156 324h344l62 -123l94 123h344zM1307 1413l-39 -280l-690 -764h596l-52 -369h-1134l39 281l690 763h-574l52 369h1112z" />
    <glyph glyph-name="zcaron" unicode="&#x17e;" horiz-adv-x="1011" 
d="M813 1135h-442l-156 323h344l62 -123l94 123h344zM92 688l51 356h867l-39 -268l-410 -420h367l-51 -356h-889l39 268l409 420h-344z" />
    <glyph glyph-name="florin" unicode="&#x192;" horiz-adv-x="1048" 
d="M1079 1036q-209 0 -254 -141l-6 -16h156l-47 -336h-213l-170 -539q-62 -198 -226.5 -295.5t-447.5 -97.5l53 377q211 0 256 141l129 414h-143l47 336h201l45 141q62 198 226.5 295.5t447.5 97.5z" />
    <glyph glyph-name="uni01C4" unicode="&#x1c4;" horiz-adv-x="2648" 
d="M2376 1503h-443l-155 324h344l61 -123l94 123h344zM805 1413q205 0 358.5 -92t225.5 -253.5t45 -360.5q-21 -149 -95 -280t-184 -225t-252.5 -148t-296.5 -54h-563l199 1413h563zM2697 1413l-39 -280l-690 -764h596l-51 -369h-1135l39 281l690 763h-573l51 369h1112z
M1032 707q20 145 -62 241t-225 96h-163l-97 -675h164q142 0 251.5 96.5t131.5 241.5z" />
    <glyph glyph-name="uni01C5" unicode="&#x1c5;" horiz-adv-x="2469" 
d="M2271 1135h-442l-156 323h344l62 -123l94 123h344zM805 1413q205 0 358.5 -92t225.5 -253.5t45 -360.5q-21 -149 -95 -280t-184 -225t-252.5 -148t-296.5 -54h-563l199 1413h563zM1032 707q20 145 -62 241t-225 96h-163l-97 -675h164q142 0 251.5 96.5t131.5 241.5z
M1550 688l52 356h866l-39 -268l-410 -420h367l-51 -356h-889l39 268l409 420h-344z" />
    <glyph glyph-name="uni01C6" unicode="&#x1c6;" horiz-adv-x="2287" 
d="M938 1475h369l-207 -1475h-369l8 66q-125 -91 -274 -91q-139 0 -242 71.5t-149 196.5t-25 279q32 233 196 390t376 157q151 0 247 -90zM2089 1135h-442l-156 323h344l61 -123l95 123h344zM1368 688l51 356h867l-39 -268l-410 -420h367l-52 -356h-888l39 268l409 420h-344
zM590 332q76 0 136 49.5t77 124.5l4 29q5 77 -41 127.5t-123 50.5q-82 0 -143 -54.5t-72 -136.5t35 -136t127 -54z" />
    <glyph glyph-name="uni01C7" unicode="&#x1c7;" horiz-adv-x="1994" 
d="M633 1413l-148 -1044h535l-51 -369h-926l199 1413h391zM1632 1413h391l-129 -921q-35 -245 -199 -381t-409 -136q-128 0 -209 35l51 371q89 -29 168 -29q189 0 209 160z" />
    <glyph glyph-name="uni01C8" unicode="&#x1c8;" horiz-adv-x="1679" 
d="M1540 1577q96 0 151 -63t42 -158t-86 -158t-168 -63q-96 0 -151 63t-42 158t86 158t168 63zM1020 369l-51 -369h-926l199 1413h391l-148 -1044h535zM1135 -2l147 1046h369l-154 -1089q-23 -167 -131.5 -268t-300.5 -101q-87 0 -154 25l47 330q46 -19 84 -19
q41 0 64.5 20.5t28.5 55.5z" />
    <glyph glyph-name="uni01C9" unicode="&#x1c9;" horiz-adv-x="1155" 
d="M954 1135q-95 0 -150 63t-42 158t86 158t168 63t150 -63t42 -158t-86 -158t-168 -63zM29 0l207 1475h368l-207 -1475h-368zM541 -414q-87 0 -154 25l47 330q46 -19 84 -19q82 0 92 76l148 1046h368l-153 -1089q-23 -167 -131.5 -268t-300.5 -101z" />
    <glyph glyph-name="uni01CA" unicode="&#x1ca;" horiz-adv-x="2375" 
d="M1100 1413h391l-199 -1413h-391l-366 723l-101 -723h-391l199 1413h391l366 -723zM2013 1413h391l-129 -921q-35 -245 -199 -381t-409 -136q-128 0 -209 35l51 371q89 -29 168 -29q189 0 209 160z" />
    <glyph glyph-name="uni01CB" unicode="&#x1cb;" horiz-adv-x="2064" 
d="M1925 1577q96 0 151 -63t42 -158t-86 -158t-168 -63q-96 0 -151 63t-42 158t86 158t168 63zM1100 1413h391l-199 -1413h-391l-366 723l-101 -723h-391l199 1413h391l366 -723zM1520 -2l147 1046h369l-154 -1089q-23 -167 -131.5 -268t-300.5 -101q-87 0 -154 25l47 330
q46 -19 84 -19q41 0 64.5 20.5t28.5 55.5z" />
    <glyph glyph-name="uni01CC" unicode="&#x1cc;" horiz-adv-x="1802" 
d="M1663 1577q95 0 150 -63t42 -158t-85.5 -158t-167.5 -63q-96 0 -151 63t-42 158t86 158t168 63zM696 0l80 561q9 69 -24 110.5t-99 41.5q-65 0 -113 -38.5t-61 -101.5l-82 -573h-368l147 1044h369l-10 -77q129 102 296 102q173 0 264 -105t66 -278l-96 -686h-369z
M1257 -2l148 1046h369l-154 -1089q-23 -167 -131.5 -268t-300.5 -101q-87 0 -154 25l47 330q46 -19 84 -19q82 0 92 76z" />
    <glyph glyph-name="uni01CD" unicode="&#x1cd;" horiz-adv-x="1476" 
d="M1096 1503h-443l-155 324h344l61 -123l94 123h344zM975 0l-35 195h-504l-90 -195h-420l707 1413h461l309 -1413h-428zM602 555h272l-75 424z" />
    <glyph glyph-name="uni01CE" unicode="&#x1ce;" 
d="M956 1135h-442l-156 323h344l62 -123l94 123h344zM879 1044h368l-147 -1044h-369l10 66q-128 -91 -276 -91q-139 0 -242 71.5t-149 196.5t-25 279q32 233 196 390t376 157q151 0 247 -90zM590 332q80 0 141.5 53.5t73.5 132.5v4q11 82 -35 136.5t-127 54.5
q-82 0 -143 -54.5t-72 -136.5t35 -136t127 -54z" />
    <glyph glyph-name="Gcaron" unicode="&#x1e6;" horiz-adv-x="1554" 
d="M1161 1503h-442l-156 324h344l62 -123l94 123h344zM856 842h703l-19 -135q-29 -208 -145 -375.5t-294 -262t-384 -94.5q-156 0 -286.5 56.5t-215 153.5t-122 232.5t-15.5 289.5q28 205 149.5 372.5t307.5 263t397 95.5q180 0 324 -68.5t221 -189.5l-328 -236
q-42 57 -110.5 89t-151.5 32q-153 0 -269.5 -102.5t-138.5 -255.5q-22 -154 65.5 -256.5t239.5 -102.5q91 0 169 39.5t126 106.5h-272z" />
    <glyph glyph-name="gcaron" unicode="&#x1e7;" horiz-adv-x="1159" 
d="M866 1135h-442l-156 323h344l62 -123l94 123h344zM1163 1227h92l-47 -340h-73q-61 0 -86 -39q54 -108 36 -244q-29 -199 -192.5 -332t-378.5 -133q-46 0 -106 11q-50 -26 -56 -66q-3 -23 13 -37t45 -14h290q165 0 265.5 -89.5t113.5 -250.5l-393 -107q-2 41 -30.5 65.5
t-75.5 24.5h-293q-162 0 -249.5 87t-68.5 227q14 90 66.5 169.5t128.5 121.5q-117 130 -90 323q28 199 191 332t380 133q106 0 193 -35q40 90 126 141.5t199 51.5zM707 604q6 51 -25.5 84t-85.5 33q-56 0 -96.5 -33t-46.5 -84q-8 -51 23.5 -84t86.5 -33q54 0 95.5 33
t48.5 84z" />
    <glyph glyph-name="uni01EA" unicode="&#x1ea;" horiz-adv-x="1605" 
d="M932 1438q211 0 369.5 -95.5t233 -263t46.5 -372.5q-35 -240 -194.5 -425.5t-389.5 -261.5q-175 -79 -190 -170q-6 -37 17 -55t57 -18q50 0 98 28l49 -225q-106 -65 -246 -65q-138 0 -214.5 71.5t-61.5 180.5q18 124 135 213q-188 19 -326 118t-201 258.5t-36 350.5
q28 205 149.5 372.5t307.5 263t397 95.5zM1180 707q22 152 -64.5 253t-236.5 101q-149 0 -263.5 -101t-136.5 -253t64 -253.5t235 -101.5q150 0 265 101.5t137 253.5z" />
    <glyph glyph-name="uni01EB" unicode="&#x1eb;" horiz-adv-x="1220" 
d="M688 1069q160 0 279.5 -71.5t175.5 -197t35 -278.5q-24 -179 -145 -317.5t-296 -196.5q-155 -76 -166 -158q-6 -37 17 -55t57 -18q50 0 98 28l50 -225q-106 -65 -246 -65q-138 0 -215 71.5t-62 180.5q18 128 144 219q-192 39 -295.5 186t-75.5 350q21 153 112.5 278.5
t232 197t300.5 71.5zM422 522q-11 -82 35 -136t127 -54q82 0 143.5 54t71.5 136q11 82 -35 136.5t-127 54.5q-82 0 -143 -54.5t-72 -136.5z" />
    <glyph glyph-name="uni01F1" unicode="&#x1f1;" horiz-adv-x="2648" 
d="M805 1413q205 0 358.5 -92t225.5 -253.5t45 -360.5q-21 -149 -95 -280t-184 -225t-252.5 -148t-296.5 -54h-563l199 1413h563zM2697 1413l-39 -280l-690 -764h596l-51 -369h-1135l39 281l690 763h-573l51 369h1112zM1032 707q20 145 -62 241t-225 96h-163l-97 -675h164
q142 0 251.5 96.5t131.5 241.5z" />
    <glyph glyph-name="uni01F2" unicode="&#x1f2;" horiz-adv-x="2469" 
d="M805 1413q205 0 358.5 -92t225.5 -253.5t45 -360.5q-21 -149 -95 -280t-184 -225t-252.5 -148t-296.5 -54h-563l199 1413h563zM1032 707q20 145 -62 241t-225 96h-163l-97 -675h164q142 0 251.5 96.5t131.5 241.5zM2468 1044l-39 -268l-410 -420h367l-51 -356h-889
l39 268l409 420h-344l52 356h866z" />
    <glyph glyph-name="uni01F3" unicode="&#x1f3;" horiz-adv-x="2287" 
d="M938 1475h369l-207 -1475h-369l8 66q-125 -91 -274 -91q-139 0 -242 71.5t-149 196.5t-25 279q32 233 196 390t376 157q151 0 247 -90zM2286 1044l-39 -268l-410 -420h367l-52 -356h-888l39 268l409 420h-344l51 356h867zM590 332q76 0 136 49.5t77 124.5l4 29
q5 77 -41 127.5t-123 50.5q-82 0 -143 -54.5t-72 -136.5t35 -136t127 -54z" />
    <glyph glyph-name="uni01F4" unicode="&#x1f4;" horiz-adv-x="1554" 
d="M1438 1827l-320 -324h-385l246 324h459zM856 842h703l-19 -135q-29 -208 -145 -375.5t-294 -262t-384 -94.5q-156 0 -286.5 56.5t-215 153.5t-122 232.5t-15.5 289.5q28 205 149.5 372.5t307.5 263t397 95.5q180 0 324 -68.5t221 -189.5l-328 -236q-42 57 -110.5 89
t-151.5 32q-153 0 -269.5 -102.5t-138.5 -255.5q-22 -154 65.5 -256.5t239.5 -102.5q91 0 169 39.5t126 106.5h-272z" />
    <glyph glyph-name="uni01F5" unicode="&#x1f5;" horiz-adv-x="1159" 
d="M1143 1458l-320 -323h-385l246 323h459zM1163 1227h92l-47 -340h-73q-61 0 -86 -39q54 -108 36 -244q-29 -199 -192.5 -332t-378.5 -133q-46 0 -106 11q-50 -26 -56 -66q-3 -23 13 -37t45 -14h290q165 0 265.5 -89.5t113.5 -250.5l-393 -107q-2 41 -30.5 65.5t-75.5 24.5
h-293q-162 0 -249.5 87t-68.5 227q14 90 66.5 169.5t128.5 121.5q-117 130 -90 323q28 199 191 332t380 133q106 0 193 -35q40 90 126 141.5t199 51.5zM707 604q6 51 -25.5 84t-85.5 33q-56 0 -96.5 -33t-46.5 -84q-8 -51 23.5 -84t86.5 -33q54 0 95.5 33t48.5 84z" />
    <glyph glyph-name="AEacute" unicode="&#x1fc;" horiz-adv-x="1873" 
d="M1735 1827l-320 -324h-385l246 324h459zM1868 1044h-504l-23 -149h441l-53 -369h-439l-22 -157h514l-51 -369h-906l27 186h-434l-129 -186h-445l983 1413h1092zM666 547h237l60 432z" />
    <glyph glyph-name="aeacute" unicode="&#x1fd;" horiz-adv-x="1792" 
d="M1470 1458l-319 -323h-385l246 323h458zM1276 1069q237 0 372.5 -157.5t100.5 -397.5q-9 -67 -20 -96h-709q15 -62 62.5 -96.5t119.5 -34.5q66 0 124.5 26.5t98.5 63.5l211 -213q-98 -89 -225 -139t-264 -50q-215 0 -356 131q-69 -59 -170.5 -95t-225.5 -36
q-201 0 -307 95.5t-84 242.5q19 139 138 227.5t292 88.5h238l2 14q9 60 -33 95.5t-119 35.5q-103 0 -192 -80l-180 209q78 77 191 121.5t241 44.5q213 0 336 -117q161 117 358 117zM1227 758q-57 0 -104.5 -34.5t-75.5 -94.5h325q-10 61 -49.5 95t-95.5 34zM385 330
q-6 -40 27.5 -66t93.5 -26q92 0 170 55q-20 66 -23 125h-147q-46 0 -81.5 -25.5t-39.5 -62.5z" />
    <glyph glyph-name="Oslashacute" unicode="&#x1fe;" horiz-adv-x="1605" 
d="M1489 1827l-320 -324h-385l246 324h459zM1681 1413l-215 -219q74 -97 104.5 -222t10.5 -265q-29 -205 -151 -373t-308 -263.5t-397 -95.5q-203 0 -367 95l-67 -70h-318l217 219q-152 205 -112 488q28 205 149.5 372.5t307.5 263t397 95.5q208 0 364 -92l68 67h317z
M479 707q-12 -96 19 -175l499 508q-53 21 -118 21q-149 0 -263.5 -101t-136.5 -253zM1180 707q14 91 -19 178l-504 -512q65 -21 121 -21q150 0 265 101.5t137 253.5z" />
    <glyph glyph-name="oslashacute" unicode="&#x1ff;" horiz-adv-x="1220" 
d="M1223 1458l-320 -323h-385l246 323h459zM1272 1044l-172 -167q105 -146 78 -355q-21 -153 -113 -278.5t-232.5 -197t-300.5 -71.5q-157 0 -280 74l-49 -49h-256l174 170q-105 145 -78 352q21 153 112.5 278.5t232 197t300.5 71.5q157 0 279 -72l49 47h256zM422 522
q-3 -30 0 -57l252 244q-24 4 -37 4q-82 0 -143 -54.5t-72 -136.5zM799 522q3 32 0 60l-252 -246q20 -4 37 -4q82 0 143.5 54t71.5 136z" />
    <glyph glyph-name="uni0200" unicode="&#x200;" horiz-adv-x="1476" 
d="M815 1503h-354l-178 324h397zM1307 1503h-355l-178 324h397zM975 0l-35 195h-504l-90 -195h-420l707 1413h461l309 -1413h-428zM602 555h272l-75 424z" />
    <glyph glyph-name="uni0201" unicode="&#x201;" 
d="M676 1135h-354l-179 323h398zM1167 1135h-354l-178 323h397zM879 1044h368l-147 -1044h-369l10 66q-128 -91 -276 -91q-139 0 -242 71.5t-149 196.5t-25 279q32 233 196 390t376 157q151 0 247 -90zM590 332q80 0 141.5 53.5t73.5 132.5v4q11 82 -35 136.5t-127 54.5
q-82 0 -143 -54.5t-72 -136.5t35 -136t127 -54z" />
    <glyph glyph-name="uni0202" unicode="&#x202;" horiz-adv-x="1476" 
d="M887 1591q-37 0 -65 -25t-34 -63h-282q22 149 141 248.5t277 99.5t249.5 -99.5t69.5 -248.5h-282q6 38 -15.5 63t-58.5 25zM975 0l-35 195h-504l-90 -195h-420l707 1413h461l309 -1413h-428zM602 555h272l-75 424z" />
    <glyph glyph-name="uni0203" unicode="&#x203;" 
d="M748 1223q-37 0 -65 -25t-34 -63h-282q22 150 140.5 249t276.5 99t250 -99.5t70 -248.5h-283q6 38 -15 63t-58 25zM879 1044h368l-147 -1044h-369l10 66q-128 -91 -276 -91q-139 0 -242 71.5t-149 196.5t-25 279q32 233 196 390t376 157q151 0 247 -90zM590 332
q80 0 141.5 53.5t73.5 132.5v4q11 82 -35 136.5t-127 54.5q-82 0 -143 -54.5t-72 -136.5t35 -136t127 -54z" />
    <glyph glyph-name="uni0204" unicode="&#x204;" horiz-adv-x="1173" 
d="M688 1503h-354l-178 324h397zM1180 1503h-355l-178 324h397zM1167 1044h-585l-23 -149h522l-53 -369h-520l-23 -157h596l-51 -369h-987l199 1413h977z" />
    <glyph glyph-name="uni0205" unicode="&#x205;" horiz-adv-x="1198" 
d="M637 1135h-354l-179 323h398zM1128 1135h-354l-178 323h397zM682 1069q237 0 372.5 -157.5t100.5 -397.5q-9 -67 -20 -96h-709q15 -62 62.5 -96.5t119.5 -34.5q66 0 124.5 26.5t98.5 63.5l211 -213q-98 -89 -225 -139t-264 -50q-166 0 -290 72t-182.5 199t-37.5 282
q34 230 217 385.5t422 155.5zM633 758q-57 0 -104.5 -34.5t-75.5 -94.5h325q-10 61 -49.5 95t-95.5 34z" />
    <glyph glyph-name="uni0206" unicode="&#x206;" horiz-adv-x="1173" 
d="M760 1591q-37 0 -64.5 -25t-33.5 -63h-283q22 149 141 248.5t277 99.5t249.5 -99.5t69.5 -248.5h-282q6 38 -15.5 63t-58.5 25zM1167 1044h-585l-23 -149h522l-53 -369h-520l-23 -157h596l-51 -369h-987l199 1413h977z" />
    <glyph glyph-name="uni0207" unicode="&#x207;" horiz-adv-x="1198" 
d="M709 1223q-37 0 -65 -25t-34 -63h-282q22 150 140.5 249t276.5 99t250 -99.5t70 -248.5h-283q6 38 -15 63t-58 25zM682 1069q237 0 372.5 -157.5t100.5 -397.5q-9 -67 -20 -96h-709q15 -62 62.5 -96.5t119.5 -34.5q66 0 124.5 26.5t98.5 63.5l211 -213q-98 -89 -225 -139
t-264 -50q-166 0 -290 72t-182.5 199t-37.5 282q34 230 217 385.5t422 155.5zM633 758q-57 0 -104.5 -34.5t-75.5 -94.5h325q-10 61 -49.5 95t-95.5 34z" />
    <glyph glyph-name="uni0208" unicode="&#x208;" horiz-adv-x="624" 
d="M37 1503l-178 324h397l135 -324h-354zM528 1503l-178 324h398l135 -324h-355zM43 0l199 1413h391l-199 -1413h-391z" />
    <glyph glyph-name="uni0209" unicode="&#x209;" horiz-adv-x="573" 
d="M-41 1135l-178 323h397l135 -323h-354zM451 1135l-179 323h398l135 -323h-354zM29 0l147 1044h369l-148 -1044h-368z" />
    <glyph glyph-name="uni020A" unicode="&#x20a;" horiz-adv-x="624" 
d="M82 1503q22 149 141 248.5t277 99.5t249.5 -99.5t69.5 -248.5h-282q6 38 -15.5 63t-58.5 25t-64.5 -25t-33.5 -63h-283zM43 0l199 1413h391l-199 -1413h-391z" />
    <glyph glyph-name="uni020B" unicode="&#x20b;" horiz-adv-x="573" 
d="M4 1135q22 149 141 248.5t277 99.5t249.5 -99.5t69.5 -248.5h-282q6 38 -15.5 63t-58.5 25t-64.5 -25t-33.5 -63h-283zM29 0l147 1044h369l-148 -1044h-368z" />
    <glyph glyph-name="uni020C" unicode="&#x20c;" horiz-adv-x="1605" 
d="M526 1503l-178 324h397l136 -324h-355zM1018 1503l-178 324h397l135 -324h-354zM725 -25q-158 0 -289.5 56.5t-217 153.5t-124 232.5t-16.5 289.5q28 205 149.5 372.5t307.5 263t397 95.5t369.5 -95.5t233 -263t46.5 -372.5q-29 -205 -151 -373t-308 -263.5t-397 -95.5z
M778 352q150 0 265 101.5t137 253.5t-64.5 253t-236.5 101q-149 0 -263.5 -101t-136.5 -253t64 -253.5t235 -101.5z" />
    <glyph glyph-name="uni020D" unicode="&#x20d;" horiz-adv-x="1220" 
d="M283 1135l-179 323h398l135 -323h-354zM774 1135l-178 323h397l135 -323h-354zM532 -25q-242 0 -381.5 156.5t-107.5 390.5q21 153 112.5 278.5t232 197t300.5 71.5t279.5 -71.5t175.5 -197t35 -278.5t-113 -278.5t-232.5 -197t-300.5 -71.5zM584 332q82 0 143.5 54
t71.5 136q11 82 -35 136.5t-127 54.5q-82 0 -143 -54.5t-72 -136.5t35 -136t127 -54z" />
    <glyph glyph-name="uni020E" unicode="&#x20e;" horiz-adv-x="1605" 
d="M571 1503q22 149 141 248.5t277 99.5t250 -99.5t70 -248.5h-283q6 38 -15.5 63t-58.5 25t-64.5 -25t-33.5 -63h-283zM725 -25q-158 0 -289.5 56.5t-217 153.5t-124 232.5t-16.5 289.5q28 205 149.5 372.5t307.5 263t397 95.5t369.5 -95.5t233 -263t46.5 -372.5
q-29 -205 -151 -373t-308 -263.5t-397 -95.5zM778 352q150 0 265 101.5t137 253.5t-64.5 253t-236.5 101q-149 0 -263.5 -101t-136.5 -253t64 -253.5t235 -101.5z" />
    <glyph glyph-name="uni020F" unicode="&#x20f;" horiz-adv-x="1220" 
d="M328 1135q22 150 140.5 249t276.5 99t250 -99.5t70 -248.5h-283q6 38 -15 63t-58 25t-65 -25t-34 -63h-282zM532 -25q-242 0 -381.5 156.5t-107.5 390.5q21 153 112.5 278.5t232 197t300.5 71.5t279.5 -71.5t175.5 -197t35 -278.5t-113 -278.5t-232.5 -197t-300.5 -71.5z
M584 332q82 0 143.5 54t71.5 136q11 82 -35 136.5t-127 54.5q-82 0 -143 -54.5t-72 -136.5t35 -136t127 -54z" />
    <glyph glyph-name="uni0210" unicode="&#x210;" horiz-adv-x="1325" 
d="M741 1503h-354l-178 324h397zM1233 1503h-354l-179 324h398zM1329 915q-18 -133 -97 -239.5t-200 -169.5l211 -506h-469l-156 438h-122l-62 -438h-391l199 1413h635q147 0 257.5 -64.5t162.5 -179t32 -254.5zM582 1044l-39 -266h237q56 0 98.5 38t49.5 95q8 57 -24 95
t-87 38h-235z" />
    <glyph glyph-name="uni0211" unicode="&#x211;" horiz-adv-x="780" 
d="M459 1135h-355l-178 323h398zM950 1135h-354l-178 323h397zM532 956q117 105 254 105h52l-54 -379h-51q-113 0 -181 -53t-87 -146l-68 -483h-368l147 1044h369z" />
    <glyph glyph-name="uni0212" unicode="&#x212;" horiz-adv-x="1325" 
d="M813 1591q-37 0 -64.5 -25t-33.5 -63h-283q22 149 141 248.5t277 99.5t249.5 -99.5t69.5 -248.5h-282q6 38 -15.5 63t-58.5 25zM1329 915q-18 -133 -97 -239.5t-200 -169.5l211 -506h-469l-156 438h-122l-62 -438h-391l199 1413h635q147 0 257.5 -64.5t162.5 -179
t32 -254.5zM582 1044l-39 -266h237q56 0 98.5 38t49.5 95q8 57 -24 95t-87 38h-235z" />
    <glyph glyph-name="uni0213" unicode="&#x213;" horiz-adv-x="780" 
d="M567 1483q158 0 250 -99.5t70 -248.5h-283q6 38 -15.5 63t-58.5 25t-64.5 -25t-33.5 -63h-282q22 150 140.5 249t276.5 99zM532 956q117 105 254 105h52l-54 -379h-51q-113 0 -181 -53t-87 -146l-68 -483h-368l147 1044h369z" />
    <glyph glyph-name="uni0214" unicode="&#x214;" horiz-adv-x="1388" 
d="M418 1503l-178 324h397l135 -324h-354zM909 1503l-178 324h397l136 -324h-355zM616 -25q-126 0 -230.5 44t-173 120.5t-99 184t-13.5 229.5l121 860h391l-118 -854q-13 -89 37 -148t139 -59t156 59t81 148l119 854h391l-121 -860q-23 -163 -120 -295.5t-244.5 -207.5
t-315.5 -75z" />
    <glyph glyph-name="uni0215" unicode="&#x215;" horiz-adv-x="1175" 
d="M260 1135l-178 323h397l135 -323h-354zM752 1135l-179 323h398l135 -323h-354zM510 -25q-228 0 -349 122t-93 323l88 624h368l-82 -573q-8 -63 25 -101t94 -38q62 0 105.5 38t50.5 101l82 573h368l-88 -624q-28 -201 -184 -323t-385 -122z" />
    <glyph glyph-name="uni0216" unicode="&#x216;" horiz-adv-x="1388" 
d="M463 1503q22 149 141 248.5t277 99.5t249.5 -99.5t69.5 -248.5h-282q6 38 -15.5 63t-58.5 25t-65 -25t-34 -63h-282zM616 -25q-126 0 -230.5 44t-173 120.5t-99 184t-13.5 229.5l121 860h391l-118 -854q-13 -89 37 -148t139 -59t156 59t81 148l119 854h391l-121 -860
q-23 -163 -120 -295.5t-244.5 -207.5t-315.5 -75z" />
    <glyph glyph-name="uni0217" unicode="&#x217;" horiz-adv-x="1175" 
d="M305 1135q22 149 141 248.5t277 99.5t249.5 -99.5t69.5 -248.5h-282q6 38 -15.5 63t-58.5 25t-64.5 -25t-33.5 -63h-283zM510 -25q-228 0 -349 122t-93 323l88 624h368l-82 -573q-8 -63 25 -101t94 -38q62 0 105.5 38t50.5 101l82 573h368l-88 -624q-28 -201 -184 -323
t-385 -122z" />
    <glyph glyph-name="uni0218" unicode="&#x218;" horiz-adv-x="1249" 
d="M569 -25q-166 0 -327.5 61t-264.5 161l240 299q79 -78 188.5 -125t210.5 -47q74 0 130.5 24t60.5 64q6 37 -43 60t-178 56q-484 125 -436 471q28 198 200 318.5t430 120.5q161 0 290 -48t204 -124l-221 -299q-55 55 -145 89t-181 34q-73 0 -121 -21t-53 -55
q-6 -37 47 -65t150 -50q36 -8 65.5 -16.5t84 -28.5t96.5 -43t89.5 -61.5t76.5 -82.5t44.5 -106t5.5 -133q-19 -132 -110.5 -236t-231 -160.5t-301.5 -56.5zM252 -475l151 385h377l-225 -385h-303z" />
    <glyph glyph-name="uni0219" unicode="&#x219;" horiz-adv-x="985" 
d="M408 -25q-251 0 -441 154l189 225q131 -102 276 -102q58 0 94 13.5t39 39.5q4 27 -29.5 41.5t-111.5 30.5q-64 13 -101 23t-95 36.5t-88 59t-49 90t-9 131.5q17 115 91 196t180 118.5t235 37.5q231 0 411 -133l-188 -225q-67 40 -124.5 61t-123.5 21q-106 0 -114 -45
q-3 -25 31 -39.5t108 -28.5q62 -12 101 -22.5t96.5 -36.5t88.5 -59t50 -90.5t8 -131.5q-16 -116 -91 -200t-186.5 -124.5t-246.5 -40.5zM106 -475l152 385h377l-225 -385h-304z" />
    <glyph glyph-name="uni021A" unicode="&#x21a;" horiz-adv-x="1202" 
d="M1282 1413l-51 -369h-361l-147 -1044h-391l147 1044h-360l51 369h1112zM211 -475l151 385h377l-225 -385h-303z" />
    <glyph glyph-name="uni021B" unicode="&#x21b;" horiz-adv-x="854" 
d="M575 709l-38 -273q-6 -48 18 -76t80 -28q59 0 135 35l-47 -344q-102 -48 -219 -48q-103 0 -177 30t-113.5 85t-53 126.5t-0.5 158.5l47 334h-139l47 335h139l35 246h368l-34 -246h243l-47 -335h-244zM63 -475l152 385h377l-225 -385h-304z" />
    <glyph glyph-name="uni0232" unicode="&#x232;" horiz-adv-x="1382" 
d="M1176 1823l-43 -307h-603l43 307h603zM1096 1413h436l-653 -948l-66 -465h-391l65 465l-387 948h445l203 -534z" />
    <glyph glyph-name="uni0233" unicode="&#x233;" horiz-adv-x="1163" 
d="M1014 1454l-43 -307h-602l43 307h602zM838 1044h411l-626 -1183q-68 -125 -180 -200t-236 -75q-79 0 -161.5 30.5t-137.5 80.5l180 289q43 -43 107 -43q72 0 110 67l8 15l-252 1019h420l103 -552z" />
    <glyph glyph-name="uni0237" unicode="&#x237;" horiz-adv-x="581" 
d="M-33 -414q-86 0 -153 25l47 330q46 -19 84 -19q82 0 92 76l147 1046h369l-154 -1089q-23 -167 -131.5 -268t-300.5 -101z" />
    <glyph glyph-name="uni02BC" unicode="&#x2bc;" horiz-adv-x="372" 
d="M63 971l113 504h330l-166 -504h-277z" />
    <glyph glyph-name="circumflex" unicode="&#x2c6;" horiz-adv-x="843" 
d="M930 1135h-344l-62 122l-94 -122h-344l246 323h442z" />
    <glyph glyph-name="caron" unicode="&#x2c7;" horiz-adv-x="843" 
d="M631 1458h344l-246 -323h-442l-156 323h344l62 -123z" />
    <glyph glyph-name="breve" unicode="&#x2d8;" horiz-adv-x="737" 
d="M453 1114q-158 0 -250 99.5t-70 248.5h283q-6 -38 14 -63t57 -25t66 25t35 63h282q-22 -150 -140.5 -249t-276.5 -99z" />
    <glyph glyph-name="dotaccent" unicode="&#x2d9;" horiz-adv-x="417" 
d="M293 1116q-89 0 -140.5 59t-39.5 148t80 148t157 59t140.5 -59t39.5 -148t-80 -148t-157 -59z" />
    <glyph glyph-name="ring" unicode="&#x2da;" horiz-adv-x="491" 
d="M330 1114q-104 0 -165.5 68.5t-47.5 169.5q13 101 93.5 169t184.5 68t165 -68t48 -169t-93.5 -169.5t-184.5 -68.5zM354 1292q25 0 44 17t22 43t-10.5 42.5t-38.5 16.5t-44 -16.5t-22 -42.5t10.5 -43t38.5 -17z" />
    <glyph glyph-name="ogonek" unicode="&#x2db;" horiz-adv-x="546" 
d="M164 -526q-138 0 -215 71.5t-62 180.5q13 92 86.5 169t176.5 111h278l2 -6q-227 -91 -242 -190q-6 -37 17 -55.5t57 -18.5q50 0 98 28l50 -225q-106 -65 -246 -65z" />
    <glyph glyph-name="tilde" unicode="&#x2dc;" horiz-adv-x="780" 
d="M606 1145q-48 0 -88 13.5t-67 27.5t-45 14q-24 0 -41.5 -15.5t-20.5 -37.5h-256q21 153 101 248.5t208 95.5q47 0 87 -14.5t68.5 -28.5t47.5 -14q23 0 39.5 15.5t19.5 39.5h256q-21 -155 -100.5 -249.5t-208.5 -94.5z" />
    <glyph glyph-name="hungarumlaut" unicode="&#x2dd;" horiz-adv-x="1069" 
d="M86 1135l225 323h398l-269 -323h-354zM578 1135l225 323h397l-268 -323h-354z" />
    <glyph glyph-name="gravecomb" unicode="&#x300;" horiz-adv-x="0" 
d="M-299 1135l-229 323h458l156 -323h-385z" />
    <glyph glyph-name="acutecomb" unicode="&#x301;" horiz-adv-x="0" 
d="M-573 1135l245 323h459l-319 -323h-385z" />
    <glyph glyph-name="uni0302" unicode="&#x302;" horiz-adv-x="0" 
d="M86 1135h-344l-61 122l-95 -122h-344l246 323h442z" />
    <glyph glyph-name="tildecomb" unicode="&#x303;" horiz-adv-x="0" 
d="M-174 1145q-48 0 -88 13.5t-67.5 27.5t-45.5 14q-24 0 -41 -15.5t-20 -37.5h-256q21 153 101 248.5t208 95.5q47 0 87 -14.5t68.5 -28.5t47.5 -14q23 0 39.5 15.5t19.5 39.5h256q-21 -155 -100.5 -249.5t-208.5 -94.5z" />
    <glyph glyph-name="uni0304" unicode="&#x304;" horiz-adv-x="0" 
d="M-514 1147l43 307h602l-43 -307h-602z" />
    <glyph glyph-name="uni0306" unicode="&#x306;" horiz-adv-x="0" 
d="M-285 1114q-158 0 -249.5 99.5t-69.5 248.5h282q-6 -38 14.5 -63t57.5 -25t65.5 25t34.5 63h283q-22 -149 -141 -248.5t-277 -99.5z" />
    <glyph glyph-name="uni0307" unicode="&#x307;" horiz-adv-x="0" 
d="M-125 1116q-89 0 -140.5 59t-39.5 148t80 148t157 59t141 -59t40 -148t-80 -148t-158 -59z" />
    <glyph glyph-name="uni0308" unicode="&#x308;" horiz-adv-x="0" 
d="M-578 1116q-85 0 -134 56t-38 141q12 84 77.5 140t150.5 56t133.5 -55.5t36.5 -140.5q-10 -84 -75.5 -140.5t-150.5 -56.5zM-115 1116q-85 0 -134 56t-38 141q12 84 77.5 140t150.5 56t133.5 -55.5t36.5 -140.5q-10 -84 -75.5 -140.5t-150.5 -56.5z" />
    <glyph glyph-name="uni030A" unicode="&#x30a;" horiz-adv-x="0" 
d="M-162 1114q-104 0 -165.5 68.5t-47.5 169.5q13 101 93.5 169t185.5 68q104 0 165 -68t48 -169t-94 -169.5t-185 -68.5zM-137 1292q25 0 43.5 17t21.5 43t-10.5 42.5t-38.5 16.5t-43.5 -16.5t-21.5 -42.5t10.5 -43t38.5 -17z" />
    <glyph glyph-name="uni030B" unicode="&#x30b;" horiz-adv-x="0" 
d="M-983 1135l225 323h398l-269 -323h-354zM-492 1135l226 323h397l-268 -323h-355z" />
    <glyph glyph-name="uni030C" unicode="&#x30c;" horiz-adv-x="0" 
d="M-213 1458h344l-246 -323h-442l-156 323h344l62 -123z" />
    <glyph glyph-name="uni030F" unicode="&#x30f;" horiz-adv-x="0" 
d="M-760 1135l-178 323h397l135 -323h-354zM-268 1135l-178 323h397l135 -323h-354z" />
    <glyph glyph-name="uni0311" unicode="&#x311;" horiz-adv-x="0" 
d="M-651 1135q22 149 141 248.5t277 99.5t249.5 -99.5t69.5 -248.5h-283q6 38 -15 63t-58 25t-65 -25t-34 -63h-282z" />
    <glyph glyph-name="uni0312" unicode="&#x312;" horiz-adv-x="0" 
d="M-389 1135l225 385h303l-151 -385h-377z" />
    <glyph glyph-name="dotbelowcomb" unicode="&#x323;" horiz-adv-x="0" 
d="M-350 -485q-89 0 -140.5 58.5t-39.5 147.5t80 148t157 59t140.5 -59t39.5 -148t-79.5 -147.5t-157.5 -58.5z" />
    <glyph glyph-name="uni0326" unicode="&#x326;" horiz-adv-x="0" 
d="M-614 -475l151 385h377l-225 -385h-303z" />
    <glyph glyph-name="uni0327" unicode="&#x327;" horiz-adv-x="0" 
d="M-270 -53q80 -14 124 -79.5t31 -154.5q-14 -108 -104.5 -181t-214.5 -73q-148 0 -252 107l143 153q60 -63 131 -63q32 0 54.5 16t25.5 41q4 23 -11.5 39.5t-41.5 16.5q-34 0 -55 -25l-191 90l160 166v4h254v-4z" />
    <glyph glyph-name="uni0328" unicode="&#x328;" horiz-adv-x="0" 
d="M-383 -526q-138 0 -214.5 71.5t-61.5 180.5q13 92 86 169t176 111h278l2 -6q-226 -90 -241 -190q-6 -37 17 -55.5t56 -18.5q51 0 99 28l49 -225q-106 -65 -246 -65z" />
    <glyph glyph-name="uni0335" unicode="&#x335;" horiz-adv-x="0" 
d="M-676 432l37 262h664l-37 -262h-664z" />
    <glyph glyph-name="uni0336" unicode="&#x336;" horiz-adv-x="0" 
d="M-1454 428l37 266h1442l-37 -266h-1442z" />
    <glyph glyph-name="uni0337" unicode="&#x337;" horiz-adv-x="0" 
d="M-1251 0l1069 1044h256l-1069 -1044h-256z" />
    <glyph glyph-name="uni0338" unicode="&#x338;" horiz-adv-x="0" 
d="M-1583 0l1390 1413h318l-1391 -1413h-317z" />
    <glyph glyph-name="uni03BC" unicode="&#x3bc;" horiz-adv-x="1220" 
d="M823 1044h369l-148 -1044h-368l8 57q-111 -82 -244 -82q-31 0 -47 2l-51 -366h-369l203 1433h369l-80 -571q-9 -65 21.5 -103t91.5 -38q62 0 107.5 37t55.5 98z" />
    <glyph glyph-name="uni1E0C" unicode="&#x1e0c;" horiz-adv-x="1458" 
d="M805 1413q205 0 358.5 -92t225.5 -253.5t45 -360.5q-21 -149 -95 -280t-184 -225t-252.5 -148t-296.5 -54h-563l199 1413h563zM1032 707q20 145 -62 241t-225 96h-163l-97 -675h164q142 0 251.5 96.5t131.5 241.5zM631 -72q89 0 140.5 -59t39.5 -148t-80 -147.5
t-158 -58.5q-89 0 -140.5 58.5t-39.5 147.5t80 148t158 59z" />
    <glyph glyph-name="uni1E0D" unicode="&#x1e0d;" 
d="M938 1475h369l-207 -1475h-369l8 66q-125 -91 -274 -91q-139 0 -242 71.5t-149 196.5t-25 279q32 233 196 390t376 157q151 0 247 -90zM590 332q76 0 136 49.5t77 124.5l4 29q5 77 -41 127.5t-123 50.5q-82 0 -143 -54.5t-72 -136.5t35 -136t127 -54zM547 -72
q89 0 140.5 -59t39.5 -148t-80 -147.5t-158 -58.5q-89 0 -140.5 58.5t-39.5 147.5t80 148t158 59z" />
    <glyph glyph-name="uni1E24" unicode="&#x1e24;" horiz-adv-x="1458" 
d="M1075 1413h391l-198 -1413h-391l73 526h-442l-74 -526h-391l199 1413h391l-74 -518h442zM645 -72q89 0 140.5 -59t39.5 -148t-79.5 -147.5t-157.5 -58.5q-89 0 -140.5 58.5t-39.5 147.5t80 148t157 59z" />
    <glyph glyph-name="uni1E25" unicode="&#x1e25;" horiz-adv-x="1220" 
d="M831 1069q173 0 264 -105t66 -278l-96 -686h-369l80 561q9 69 -24 110.5t-97 41.5q-68 0 -117 -40t-61 -106l-80 -567h-368l207 1475h368l-72 -517q129 111 299 111zM537 -72q89 0 140.5 -59t39.5 -148t-80 -147.5t-158 -58.5q-89 0 -140.5 58.5t-39.5 147.5t80 148
t158 59z" />
    <glyph glyph-name="uni1E44" unicode="&#x1e44;" horiz-adv-x="1482" 
d="M887 1485q-89 0 -140.5 59t-39.5 148t79.5 147.5t157.5 58.5q89 0 140.5 -58.5t39.5 -147.5t-80 -148t-157 -59zM1100 1413h391l-199 -1413h-391l-366 723l-101 -723h-391l199 1413h391l366 -723z" />
    <glyph glyph-name="uni1E45" unicode="&#x1e45;" horiz-adv-x="1220" 
d="M709 1116q-89 0 -141 59t-40 148t80 148t158 59q89 0 140.5 -59t39.5 -148t-80 -148t-157 -59zM831 1069q173 0 264 -105t66 -278l-96 -686h-369l80 561q9 69 -24 110.5t-99 41.5q-65 0 -113 -38.5t-61 -101.5l-82 -573h-368l147 1044h369l-10 -77q129 102 296 102z" />
    <glyph glyph-name="uni1E5A" unicode="&#x1e5a;" horiz-adv-x="1325" 
d="M1329 915q-18 -133 -97 -239.5t-200 -169.5l211 -506h-469l-156 438h-122l-62 -438h-391l199 1413h635q147 0 257.5 -64.5t162.5 -179t32 -254.5zM582 1044l-39 -266h237q56 0 98.5 38t49.5 95q8 57 -24 95t-87 38h-235zM580 -72q89 0 140.5 -59t39.5 -148t-80 -147.5
t-158 -58.5q-89 0 -140.5 58.5t-39.5 147.5t80 148t158 59z" />
    <glyph glyph-name="uni1E5B" unicode="&#x1e5b;" horiz-adv-x="780" 
d="M786 1061h52l-54 -379h-51q-113 0 -181 -53t-87 -146l-68 -483h-368l147 1044h369l-13 -88q117 105 254 105zM203 -72q89 0 140.5 -59t39.5 -148t-80 -147.5t-158 -58.5q-89 0 -140.5 58.5t-39.5 147.5t80 148t158 59z" />
    <glyph glyph-name="uni1E62" unicode="&#x1e62;" horiz-adv-x="1249" 
d="M569 -25q-166 0 -327.5 61t-264.5 161l240 299q79 -78 188.5 -125t210.5 -47q74 0 130.5 24t60.5 64q6 37 -43 60t-178 56q-484 125 -436 471q28 198 200 318.5t430 120.5q161 0 290 -48t204 -124l-221 -299q-55 55 -145 89t-181 34q-73 0 -121 -21t-53 -55
q-6 -37 47 -65t150 -50q36 -8 65.5 -16.5t84 -28.5t96.5 -43t89.5 -61.5t76.5 -82.5t44.5 -106t5.5 -133q-19 -132 -110.5 -236t-231 -160.5t-301.5 -56.5zM502 -485q-89 0 -140.5 58.5t-39.5 147.5t80 148t157 59t140.5 -59t39.5 -148t-79.5 -147.5t-157.5 -58.5z" />
    <glyph glyph-name="uni1E63" unicode="&#x1e63;" horiz-adv-x="985" 
d="M408 -25q-251 0 -441 154l189 225q131 -102 276 -102q58 0 94 13.5t39 39.5q4 27 -29.5 41.5t-111.5 30.5q-64 13 -101 23t-95 36.5t-88 59t-49 90t-9 131.5q17 115 91 196t180 118.5t235 37.5q231 0 411 -133l-188 -225q-67 40 -124.5 61t-123.5 21q-106 0 -114 -45
q-3 -25 31 -39.5t108 -28.5q62 -12 101 -22.5t96.5 -36.5t88.5 -59t50 -90.5t8 -131.5q-16 -116 -91 -200t-186.5 -124.5t-246.5 -40.5zM356 -485q-89 0 -140.5 58.5t-39.5 147.5t80 148t158 59q89 0 140.5 -59t39.5 -148t-80 -147.5t-158 -58.5z" />
    <glyph glyph-name="uni1E6C" unicode="&#x1e6c;" horiz-adv-x="1202" 
d="M1282 1413l-51 -369h-361l-147 -1044h-391l147 1044h-360l51 369h1112zM518 -72q89 0 140.5 -59t39.5 -148t-79.5 -147.5t-157.5 -58.5q-89 0 -140.5 58.5t-39.5 147.5t80 148t157 59z" />
    <glyph glyph-name="uni1E6D" unicode="&#x1e6d;" horiz-adv-x="854" 
d="M575 709l-38 -273q-6 -48 18 -76t80 -28q59 0 135 35l-47 -344q-102 -48 -219 -48q-103 0 -177 30t-113.5 85t-53 126.5t-0.5 158.5l47 334h-139l47 335h139l35 246h368l-34 -246h243l-47 -335h-244zM371 -72q89 0 140.5 -59t39.5 -148t-80 -147.5t-158 -58.5
q-89 0 -140.5 58.5t-39.5 147.5t80 148t158 59z" />
    <glyph glyph-name="Wgrave" unicode="&#x1e80;" horiz-adv-x="2041" 
d="M1366 1503h-385l-229 324h458zM1757 1413h404l-627 -1413h-389l-86 786l-309 -786h-388l-231 1413h414l98 -858l338 858h340l98 -858z" />
    <glyph glyph-name="wgrave" unicode="&#x1e81;" horiz-adv-x="1744" 
d="M1165 1135h-385l-229 323h459zM1423 1044h402l-504 -1044h-377l-65 569l-226 -569h-377l-208 1044h411l66 -542l219 542h373l67 -544z" />
    <glyph glyph-name="Wacute" unicode="&#x1e82;" horiz-adv-x="2041" 
d="M1657 1827l-320 -324h-385l246 324h459zM1757 1413h404l-627 -1413h-389l-86 786l-309 -786h-388l-231 1413h414l98 -858l338 858h340l98 -858z" />
    <glyph glyph-name="wacute" unicode="&#x1e83;" horiz-adv-x="1744" 
d="M1456 1458l-319 -323h-385l245 323h459zM1423 1044h402l-504 -1044h-377l-65 569l-226 -569h-377l-208 1044h411l66 -542l219 542h373l67 -544z" />
    <glyph glyph-name="Wdieresis" unicode="&#x1e84;" horiz-adv-x="2041" 
d="M926 1485q-85 0 -133.5 55.5t-38.5 140.5q12 85 77 141t150 56t133.5 -56t36.5 -141q-10 -84 -75 -140t-150 -56zM1389 1485q-85 0 -133.5 55.5t-38.5 140.5q12 85 77 141t150 56t133.5 -56t36.5 -141q-10 -84 -75 -140t-150 -56zM1757 1413h404l-627 -1413h-389l-86 786
l-309 -786h-388l-231 1413h414l98 -858l338 858h340l98 -858z" />
    <glyph glyph-name="wdieresis" unicode="&#x1e85;" horiz-adv-x="1744" 
d="M725 1116q-85 0 -134 56t-38 141q12 84 77 140t150 56t133.5 -55.5t36.5 -140.5q-10 -84 -75 -140.5t-150 -56.5zM1188 1116q-85 0 -134 56t-38 141q12 84 77 140t150 56t133.5 -55.5t36.5 -140.5q-10 -84 -75 -140.5t-150 -56.5zM1423 1044h402l-504 -1044h-377l-65 569
l-226 -569h-377l-208 1044h411l66 -542l219 542h373l67 -544z" />
    <glyph glyph-name="uni1E92" unicode="&#x1e92;" horiz-adv-x="1257" 
d="M1307 1413l-39 -280l-690 -764h596l-52 -369h-1134l39 281l690 763h-574l52 369h1112zM543 -72q89 0 140.5 -59t39.5 -148t-80 -147.5t-158 -58.5q-89 0 -140.5 58.5t-39.5 147.5t80 148t158 59z" />
    <glyph glyph-name="uni1E93" unicode="&#x1e93;" horiz-adv-x="1011" 
d="M1010 1044l-39 -268l-410 -420h367l-51 -356h-889l39 268l409 420h-344l51 356h867zM422 -72q89 0 140.5 -59t39.5 -148t-79.5 -147.5t-157.5 -58.5t-141.5 58.5t-39.5 147.5t80 148t158 59z" />
    <glyph glyph-name="uni1E9E" unicode="&#x1e9e;" horiz-adv-x="1357" 
d="M1380 1413l-45 -323l-217 -244q115 -56 172.5 -168t38.5 -250q-28 -194 -182 -323.5t-354 -129.5q-62 0 -126.5 13t-101.5 32l53 386q23 -23 70 -38.5t90 -15.5q61 0 103.5 26t48.5 68q5 36 -17.5 61t-60.5 25h-170l39 285l184 227h-221q-51 0 -85.5 -29.5t-41.5 -80.5
l-131 -934h-391l137 977q28 196 170 316t348 120h690z" />
    <glyph glyph-name="uni1EA0" unicode="&#x1ea0;" horiz-adv-x="1476" 
d="M1403 0h-428l-35 195h-504l-90 -195h-420l707 1413h461zM602 555h272l-75 424zM651 -72q89 0 140.5 -59t39.5 -148t-79.5 -147.5t-157.5 -58.5q-89 0 -140.5 58.5t-39.5 147.5t80 148t157 59z" />
    <glyph glyph-name="uni1EA1" unicode="&#x1ea1;" 
d="M879 1044h368l-147 -1044h-369l10 66q-128 -91 -276 -91q-139 0 -242 71.5t-149 196.5t-25 279q32 233 196 390t376 157q151 0 247 -90zM590 332q80 0 141.5 53.5t73.5 132.5v4q11 82 -35 136.5t-127 54.5q-82 0 -143 -54.5t-72 -136.5t35 -136t127 -54zM565 -72
q89 0 140.5 -59t39.5 -148t-79.5 -147.5t-157.5 -58.5q-89 0 -140.5 58.5t-39.5 147.5t80 148t157 59z" />
    <glyph glyph-name="uni1EB8" unicode="&#x1eb8;" horiz-adv-x="1173" 
d="M1167 1044h-585l-23 -149h522l-53 -369h-520l-23 -157h596l-51 -369h-987l199 1413h977zM526 -72q89 0 141 -59t40 -148t-80 -147.5t-158 -58.5q-89 0 -140.5 58.5t-39.5 147.5t80 148t157 59z" />
    <glyph glyph-name="uni1EB9" unicode="&#x1eb9;" horiz-adv-x="1198" 
d="M682 1069q237 0 372.5 -157.5t100.5 -397.5q-9 -67 -20 -96h-709q15 -62 62.5 -96.5t119.5 -34.5q66 0 124.5 26.5t98.5 63.5l211 -213q-98 -89 -225 -139t-264 -50q-166 0 -290 72t-182.5 199t-37.5 282q34 230 217 385.5t422 155.5zM633 758q-57 0 -104.5 -34.5
t-75.5 -94.5h325q-10 61 -49.5 95t-95.5 34zM526 -72q89 0 141 -59t40 -148t-80 -147.5t-158 -58.5q-89 0 -140.5 58.5t-39.5 147.5t80 148t157 59z" />
    <glyph glyph-name="uni1EBC" unicode="&#x1ebc;" horiz-adv-x="1173" 
d="M676 1569q-24 0 -41.5 -15.5t-20.5 -37.5h-256q21 152 101.5 248t208.5 96q47 0 87 -14.5t68 -29t47 -14.5q23 0 40 16t20 40h256q-21 -155 -100.5 -250t-208.5 -95q-48 0 -88 14t-67.5 28t-45.5 14zM1167 1044h-585l-23 -149h522l-53 -369h-520l-23 -157h596l-51 -369
h-987l199 1413h977z" />
    <glyph glyph-name="uni1EBD" unicode="&#x1ebd;" horiz-adv-x="1198" 
d="M625 1200q-24 0 -41.5 -15.5t-20.5 -37.5h-256q21 153 101 248.5t208 95.5q47 0 87 -14.5t68.5 -28.5t47.5 -14q23 0 40 16t20 39h256q-21 -155 -101 -249.5t-209 -94.5q-48 0 -88 13.5t-67 27.5t-45 14zM682 1069q237 0 372.5 -157.5t100.5 -397.5q-9 -67 -20 -96h-709
q15 -62 62.5 -96.5t119.5 -34.5q66 0 124.5 26.5t98.5 63.5l211 -213q-98 -89 -225 -139t-264 -50q-166 0 -290 72t-182.5 199t-37.5 282q34 230 217 385.5t422 155.5zM633 758q-57 0 -104.5 -34.5t-75.5 -94.5h325q-10 61 -49.5 95t-95.5 34z" />
    <glyph glyph-name="uni1ECA" unicode="&#x1eca;" horiz-adv-x="624" 
d="M43 0l199 1413h391l-199 -1413h-391zM172 -485q-89 0 -140.5 58.5t-39.5 147.5t80 148t157 59t141 -59t40 -148t-80 -147.5t-158 -58.5z" />
    <glyph glyph-name="uni1ECB" unicode="&#x1ecb;" horiz-adv-x="573" 
d="M373 1135q-96 0 -151 63t-42 158t86 158t168 63q96 0 151 -63t42 -158t-86 -158t-168 -63zM29 0l147 1044h369l-148 -1044h-368zM145 -485q-89 0 -140.5 58.5t-39.5 147.5t80 148t158 59q89 0 140.5 -59t39.5 -148t-80 -147.5t-158 -58.5z" />
    <glyph glyph-name="uni1ECC" unicode="&#x1ecc;" horiz-adv-x="1605" 
d="M725 -25q-158 0 -289.5 56.5t-217 153.5t-124 232.5t-16.5 289.5q28 205 149.5 372.5t307.5 263t397 95.5t369.5 -95.5t233 -263t46.5 -372.5q-29 -205 -151 -373t-308 -263.5t-397 -95.5zM778 352q150 0 265 101.5t137 253.5t-64.5 253t-236.5 101q-149 0 -263.5 -101
t-136.5 -253t64 -253.5t235 -101.5zM662 -485q-90 0 -141.5 58.5t-39.5 147.5t80 148t158 59q89 0 140.5 -59t39.5 -148t-79.5 -147.5t-157.5 -58.5z" />
    <glyph glyph-name="uni1ECD" unicode="&#x1ecd;" horiz-adv-x="1220" 
d="M532 -25q-242 0 -381.5 156.5t-107.5 390.5q21 153 112.5 278.5t232 197t300.5 71.5t279.5 -71.5t175.5 -197t35 -278.5t-113 -278.5t-232.5 -197t-300.5 -71.5zM584 332q82 0 143.5 54t71.5 136q11 82 -35 136.5t-127 54.5q-82 0 -143 -54.5t-72 -136.5t35 -136t127 -54
zM469 -485q-89 0 -140.5 58.5t-39.5 147.5t80 148t157 59t141 -59t40 -148t-80 -147.5t-158 -58.5z" />
    <glyph glyph-name="uni1EE4" unicode="&#x1ee4;" horiz-adv-x="1388" 
d="M616 -25q-126 0 -230.5 44t-173 120.5t-99 184t-13.5 229.5l121 860h391l-118 -854q-13 -89 37 -148t139 -59t156 59t81 148l119 854h391l-121 -860q-23 -163 -120 -295.5t-244.5 -207.5t-315.5 -75zM553 -485q-89 0 -140.5 58.5t-39.5 147.5t80 148t157 59t141 -59
t40 -148t-80 -147.5t-158 -58.5z" />
    <glyph glyph-name="uni1EE5" unicode="&#x1ee5;" horiz-adv-x="1175" 
d="M510 -25q-228 0 -349 122t-93 323l88 624h368l-82 -573q-8 -63 25 -101t94 -38q62 0 105.5 38t50.5 101l82 573h368l-88 -624q-28 -201 -184 -323t-385 -122zM446 -485q-89 0 -140.5 58.5t-39.5 147.5t80 148t158 59q89 0 140.5 -59t39.5 -148t-80 -147.5t-158 -58.5z
" />
    <glyph glyph-name="Ygrave" unicode="&#x1ef2;" horiz-adv-x="1382" 
d="M1036 1503h-385l-229 324h459zM1096 1413h436l-653 -948l-66 -465h-391l65 465l-387 948h445l203 -534z" />
    <glyph glyph-name="ygrave" unicode="&#x1ef3;" horiz-adv-x="1163" 
d="M874 1135h-385l-229 323h459zM838 1044h411l-626 -1183q-68 -125 -180 -200t-236 -75q-79 0 -161.5 30.5t-137.5 80.5l180 289q43 -43 107 -43q72 0 110 67l8 15l-252 1019h420l103 -552z" />
    <glyph glyph-name="uni1EF8" unicode="&#x1ef8;" horiz-adv-x="1382" 
d="M758 1569q-24 0 -41.5 -15.5t-20.5 -37.5h-256q21 152 101.5 248t208.5 96q47 0 87 -14.5t68 -29t47 -14.5q23 0 40 16t20 40h256q-21 -155 -101 -250t-209 -95q-48 0 -88 14t-67 28t-45 14zM1096 1413h436l-653 -948l-66 -465h-391l65 465l-387 948h445l203 -534z" />
    <glyph glyph-name="uni1EF9" unicode="&#x1ef9;" horiz-adv-x="1163" 
d="M596 1200q-24 0 -41 -15.5t-20 -37.5h-256q21 153 101 248.5t208 95.5q47 0 87 -14.5t68.5 -28.5t47.5 -14q23 0 39.5 15.5t19.5 39.5h256q-21 -155 -100.5 -249.5t-208.5 -94.5q-48 0 -88 13.5t-67.5 27.5t-45.5 14zM838 1044h411l-626 -1183q-68 -125 -180 -200
t-236 -75q-79 0 -161.5 30.5t-137.5 80.5l180 289q43 -43 107 -43q72 0 110 67l8 15l-252 1019h420l103 -552z" />
    <glyph glyph-name="endash" unicode="&#x2013;" horiz-adv-x="1245" 
d="M88 395l47 332h1032l-47 -332h-1032z" />
    <glyph glyph-name="emdash" unicode="&#x2014;" horiz-adv-x="2187" 
d="M88 395l47 332h1974l-47 -332h-1974z" />
    <glyph glyph-name="quoteleft" unicode="&#x2018;" horiz-adv-x="630" 
d="M88 780l346 633h316l-234 -633h-428z" />
    <glyph glyph-name="quoteright" unicode="&#x2019;" horiz-adv-x="630" 
d="M88 780l234 633h428l-347 -633h-315z" />
    <glyph glyph-name="quotesinglbase" unicode="&#x201a;" horiz-adv-x="575" 
d="M-137 -276l235 632h428l-348 -632h-315z" />
    <glyph glyph-name="quotedblleft" unicode="&#x201c;" horiz-adv-x="1163" 
d="M88 780l346 633h316l-234 -633h-428zM621 780l346 633h315l-233 -633h-428z" />
    <glyph glyph-name="quotedblright" unicode="&#x201d;" horiz-adv-x="1163" 
d="M88 780l234 633h428l-347 -633h-315zM621 780l233 633h428l-346 -633h-315z" />
    <glyph glyph-name="quotedblbase" unicode="&#x201e;" horiz-adv-x="1107" 
d="M-137 -276l235 632h428l-348 -632h-315zM395 -276l236 632h428l-348 -632h-316z" />
    <glyph glyph-name="dagger" unicode="&#x2020;" horiz-adv-x="1011" 
d="M979 1044l-47 -331h-232l-155 -1102h-336l156 1102h-232l47 331h232l51 369h336l-51 -369h231z" />
    <glyph glyph-name="daggerdbl" unicode="&#x2021;" horiz-adv-x="1011" 
d="M932 713h-232l-51 -361h232l-45 -332h-234l-57 -409h-336l57 409h-229l45 332h231l52 361h-232l47 331h232l51 369h336l-51 -369h231z" />
    <glyph glyph-name="bullet" unicode="&#x2022;" horiz-adv-x="790" 
d="M360 274q-123 0 -194.5 82t-52.5 205q17 123 110.5 205t216.5 82t195 -82t55 -205q-19 -123 -113 -205t-217 -82z" />
    <glyph glyph-name="ellipsis" unicode="&#x2026;" horiz-adv-x="1798" 
d="M207 -25q-105 0 -166 70.5t-47 175.5q15 105 96 175.5t186 70.5q106 0 167 -71t46 -175q-13 -104 -94.5 -175t-187.5 -71zM821 -25q-105 0 -166 70.5t-47 175.5q15 104 96 175t187 71t167 -71t46 -175q-13 -104 -95 -175t-188 -71zM1436 -25q-105 0 -166 70.5t-47 175.5
q15 105 96 175.5t186 70.5q106 0 167 -71t46 -175q-13 -104 -94.5 -175t-187.5 -71z" />
    <glyph glyph-name="perthousand" unicode="&#x2030;" horiz-adv-x="2621" 
d="M463 713q-158 0 -250 104.5t-70 259.5q22 154 143 257.5t279 103.5t250 -103.5t70 -257.5q-22 -155 -143 -259.5t-279 -104.5zM131 0l1223 1413h391l-1223 -1413h-391zM504 1008q29 0 51 20t27 49q5 28 -12 47t-46 19t-51 -19t-27 -47q-5 -29 12 -49t46 -20zM1309 -25
q-158 0 -250 105t-70 260q23 154 143.5 257t278.5 103q159 0 251 -103.5t69 -256.5q-22 -155 -143 -260t-279 -105zM2107 -25q-158 0 -249.5 105t-69.5 260q23 154 143.5 257t278.5 103q159 0 250.5 -103.5t68.5 -256.5q-22 -155 -143 -260t-279 -105zM1352 270
q29 0 50.5 20.5t24.5 49.5q5 28 -11.5 47t-45.5 19t-51 -19t-27 -47q-3 -30 14 -50t46 -20zM2150 270q29 0 51 20.5t25 49.5q5 28 -11.5 47t-45.5 19t-51 -19t-27 -47q-3 -30 13.5 -50t45.5 -20z" />
    <glyph glyph-name="guilsinglleft" unicode="&#x2039;" horiz-adv-x="778" 
d="M813 963l-340 -422l221 -422h-430l-221 422l340 422h430z" />
    <glyph glyph-name="guilsinglright" unicode="&#x203a;" horiz-adv-x="778" 
d="M532 963l222 -422l-340 -422h-430l342 422l-224 422h430z" />
    <glyph glyph-name="fraction" unicode="&#x2044;" horiz-adv-x="436" 
d="M-496 0l1145 1413h334l-1145 -1413h-334z" />
    <glyph glyph-name="uni2070" unicode="&#x2070;" horiz-adv-x="808" 
d="M410 735q-152 0 -230.5 122.5t-52.5 316.5q28 194 140.5 316t264.5 122t231.5 -122.5t51.5 -315.5q-26 -193 -139.5 -316t-265.5 -123zM446 989q32 0 59 52.5t38 132.5q12 80 -0.5 132t-44.5 52q-31 0 -59 -51.5t-40 -132.5q-10 -81 3 -133t44 -52z" />
    <glyph glyph-name="uni2074" unicode="&#x2074;" horiz-adv-x="774" 
d="M799 1597l-68 -477h60l-37 -250h-58l-16 -120h-266l16 120h-297l-31 217l402 510h295zM367 1120h98l24 164z" />
    <glyph glyph-name="uni2075" unicode="&#x2075;" horiz-adv-x="737" 
d="M506 1313q125 0 198 -81.5t56 -201.5q-17 -127 -125 -211t-260 -84q-169 0 -297 96l160 216q67 -58 155 -58q43 0 68 15t28 36q3 17 -10.5 28t-38.5 11q-35 0 -59 -24l-225 67l110 475h514l-35 -245h-288l-8 -45q24 6 57 6z" />
    <glyph glyph-name="uni2076" unicode="&#x2076;" horiz-adv-x="712" 
d="M547 1307q105 0 167.5 -80.5t47.5 -194.5q-19 -128 -126.5 -212.5t-248.5 -84.5q-151 0 -228 102.5t-55 266.5q30 207 197.5 349t427.5 159l14 -246q-147 -6 -243 -63q16 4 47 4zM487 1028q3 18 -13.5 30.5t-43.5 12.5q-26 0 -43 -14t-20 -31q-1 -17 14.5 -29t38.5 -12
q27 0 46.5 12t20.5 31z" />
    <glyph glyph-name="uni2077" unicode="&#x2077;" horiz-adv-x="669" 
d="M182 1597h588l-29 -208l-358 -639h-299l340 598h-277z" />
    <glyph glyph-name="uni2078" unicode="&#x2078;" horiz-adv-x="763" 
d="M825 1362q-15 -103 -112 -172q93 -74 75 -189q-15 -113 -123 -189.5t-255 -76.5q-145 0 -232 76t-72 190q18 118 132 189q-79 69 -64 172q15 105 117 177.5t241 72.5q140 0 224 -72.5t69 -177.5zM440 1333q-2 -14 12.5 -23.5t36.5 -9.5q23 0 40.5 9.5t19.5 23.5
q3 15 -11.5 25t-37.5 10q-22 0 -39.5 -10t-20.5 -25zM522 1028q3 17 -16 29t-49 12q-28 0 -49.5 -12t-24.5 -29q-2 -18 15 -30.5t46 -12.5q31 0 53.5 13t24.5 30z" />
    <glyph glyph-name="uni2079" unicode="&#x2079;" horiz-adv-x="712" 
d="M506 1612q151 0 228 -102.5t54 -266.5q-30 -211 -200.5 -356.5t-423.5 -151.5l-14 246q144 0 247 63q-36 -4 -51 -4q-105 0 -166.5 80t-46.5 195q19 128 126 212.5t247 84.5zM526 1321q3 17 -12.5 29t-40.5 12t-44.5 -12t-22.5 -31q-1 -19 15 -31t42 -12t43.5 14t19.5 31
z" />
    <glyph glyph-name="franc" unicode="&#x20a3;" horiz-adv-x="1136" 
d="M1139 1044h-514l-19 -124h438l-51 -369h-438l-14 -94h290l-49 -336h-288l-17 -121h-391l16 121h-90l49 336h89l135 956h905z" />
    <glyph glyph-name="lira" unicode="&#x20a4;" horiz-adv-x="1208" 
d="M569 469l-14 -100h580l-52 -369h-1060l51 369h90l14 100h-90l27 180h90l10 74h-90l25 180h90l6 39q19 140 104 253.5t216.5 178t281.5 64.5q125 0 233 -45t183 -121l-238 -287q-46 34 -108 55t-119 21q-67 0 -110.5 -33t-51.5 -86l-6 -39h342l-25 -180h-342l-10 -74h342
l-27 -180h-342z" />
    <glyph glyph-name="peseta" unicode="&#x20a7;" horiz-adv-x="1394" 
d="M1442 989l-35 -246h-80q-68 -191 -238.5 -310.5t-381.5 -119.5h-172l-43 -307h-392l105 737h-92l34 246h91l61 430h563q210 0 347.5 -119.5t152.5 -310.5h80zM639 1051l-10 -62h301q-46 62 -129 62h-162zM750 682q84 0 145 61h-299l-10 -61h164z" />
    <glyph glyph-name="uni20A8" unicode="&#x20a8;" horiz-adv-x="2308" 
d="M1329 915q-18 -133 -97 -239.5t-200 -169.5l211 -506h-469l-156 438h-122l-62 -438h-391l199 1413h635q147 0 257.5 -64.5t162.5 -179t32 -254.5zM1911 680q62 -12 101 -22.5t96.5 -36.5t88.5 -59t50 -90.5t8 -131.5q-16 -116 -91 -200t-186.5 -124.5t-246.5 -40.5
q-251 0 -441 154l189 225q131 -102 276 -102q58 0 94 13.5t39 39.5q4 27 -29.5 41.5t-111.5 30.5q-64 13 -101 23t-95 36.5t-88 59t-49 90t-9 131.5q17 115 91 196t180 118.5t235 37.5q231 0 411 -133l-188 -225q-67 40 -124.5 61t-123.5 21q-106 0 -114 -45
q-3 -25 31 -39.5t108 -28.5zM582 1044l-39 -266h237q56 0 98.5 38t49.5 95q8 57 -24 95t-87 38h-235z" />
    <glyph glyph-name="Euro" unicode="&#x20ac;" horiz-adv-x="1525" 
d="M1061 1438q139 0 260 -42.5t209 -117.5l-57 -412q-71 89 -181.5 142t-236.5 53q-102 0 -190.5 -36.5t-151.5 -100.5h583l-65 -181h-619l-6 -36q-1 -6 -2 -18.5t-2 -18.5h606l-63 -181h-494q44 -64 122.5 -100.5t180.5 -36.5q126 0 252 53.5t221 141.5l-59 -412
q-108 -75 -241 -117.5t-275 -42.5q-260 0 -435.5 142t-211.5 372h-158l64 181h90q0 13 4 37l6 36h-129l65 181h119q101 229 317 371.5t478 142.5z" />
    <glyph glyph-name="uni20B1" unicode="&#x20b1;" horiz-adv-x="1394" 
d="M1358 885q0 -17 -2 -25q-1 -4 -2 -12t-2 -12h69l-20 -136h-90q-74 -176 -239.5 -284.5t-366.5 -108.5h-173l-43 -307h-391l99 700h-91l21 136h88l8 49h-90l19 135h90l55 393h563q201 0 335 -108t161 -285h90l-19 -135h-69zM641 1077l-8 -57h276q-51 57 -141 57h-127z
M606 836h344q1 4 2 12t2 12q2 8 2 25h-342zM707 643q91 0 157 57h-276l-8 -57h127z" />
    <glyph glyph-name="uni20B5" unicode="&#x20b5;" horiz-adv-x="1482" 
d="M911 369q119 38 197 131l303 -215q-104 -124 -247 -202.5t-306 -98.5l-18 -127h-246l18 129q-264 45 -408.5 245t-105.5 476q38 276 239 475.5t478 244.5l19 129h245l-18 -124q158 -22 278.5 -101t190.5 -203l-363 -215q-54 93 -159 131zM500 707q-17 -114 29.5 -202.5
t138.5 -127.5l92 657q-103 -39 -173 -126t-87 -201z" />
    <glyph glyph-name="uni20B9" unicode="&#x20b9;" horiz-adv-x="1218" 
d="M1026 1208q53 -86 59 -200h160l-90 -205h-98q-47 -147 -162 -253.5t-266 -143.5l370 -406h-540l-353 399l48 349h354q73 0 125 55h-471l28 205h474q-37 57 -111 57h-354l49 348h1055l-91 -205h-186z" />
    <glyph glyph-name="uni2116" unicode="&#x2116;" horiz-adv-x="2316" 
d="M1993 1438q171 0 270 -113t76 -281q-23 -167 -154 -280t-303 -113q-171 0 -270 112.5t-76 280.5q23 167 154 280.5t303 113.5zM1100 1413h391l-199 -1413h-391l-366 723l-101 -723h-391l199 1413h391l366 -723zM2023 1044q5 38 -15.5 63.5t-57.5 25.5t-66 -25.5
t-33 -63.5q-6 -38 15.5 -63t58.5 -25t64.5 25t33.5 63zM1456 244l47 331h738l-48 -331h-737z" />
    <glyph glyph-name="trademark" unicode="&#x2122;" horiz-adv-x="1304" 
d="M598 1413l-27 -184h-137l-59 -430h-195l60 430h-138l27 184h469zM1128 1413h236l-86 -614h-193l45 317l-133 -235h-110l-68 239l-45 -321h-194l86 614h243l72 -262z" />
    <glyph glyph-name="uni2150" unicode="&#x2150;" horiz-adv-x="1849" 
d="M281 1096l-93 -49l-84 213l295 153h191l-119 -848h-266zM1290 1413h334l-1145 -1413h-334zM1257 848h588l-28 -209l-359 -639h-299l340 598h-276z" />
    <glyph glyph-name="uni2151" unicode="&#x2151;" horiz-adv-x="1789" 
d="M281 1096l-93 -49l-84 213l295 153h191l-119 -848h-266zM1290 1413h334l-1145 -1413h-334zM1479 862q151 0 228 -102t54 -266q-30 -211 -200.5 -356.5t-423.5 -151.5l-15 245q144 0 248 64q-36 -4 -51 -4q-105 0 -166.5 79.5t-46.5 194.5q19 128 126 212.5t247 84.5z
M1499 571q3 17 -12.5 29t-40.5 12t-45 -12.5t-23 -30.5q-1 -19 15.5 -31t42.5 -12t43.5 14t19.5 31z" />
    <glyph glyph-name="uni2152" unicode="&#x2152;" horiz-adv-x="2486" 
d="M281 1096l-93 -49l-84 213l295 153h191l-119 -848h-266zM1290 1413h334l-1145 -1413h-334zM2105 862q152 0 231.5 -122.5t51.5 -315.5q-26 -193 -140 -315.5t-266 -122.5t-230 122t-52 316q28 194 140.5 316t264.5 122zM1163 694l295 154h191l-119 -848h-266l75 530
l-92 -49zM2116 424q12 80 -0.5 132t-44.5 52q-31 0 -59 -51.5t-40 -132.5q-10 -81 3 -132.5t44 -51.5q32 0 59 52t38 132z" />
    <glyph glyph-name="uni2153" unicode="&#x2153;" horiz-adv-x="1800" 
d="M281 1096l-93 -49l-84 213l295 153h191l-119 -848h-266zM1290 1413h334l-1145 -1413h-334zM1757 616q-15 -112 -121 -178q102 -70 84 -196q-17 -115 -120.5 -185.5t-253.5 -70.5q-94 0 -179.5 31t-134.5 85l178 197q25 -26 68 -42.5t86 -16.5q38 0 62.5 11t25.5 30
q3 20 -19 31.5t-59 11.5h-112l32 225h113q71 0 74 26q1 15 -21.5 24t-58.5 9q-68 0 -133 -28l-113 192q59 40 145 65t168 25q144 0 224 -68.5t65 -177.5z" />
    <glyph glyph-name="uni2154" unicode="&#x2154;" horiz-adv-x="1908" 
d="M666 815l-35 -250h-580l31 217l270 244q78 70 82 104q1 15 -11.5 24t-33.5 9q-46 0 -125 -59l-153 174q58 68 146.5 108.5t184.5 40.5q136 0 209 -79t56 -201q-18 -135 -138 -240l-106 -92h203zM1399 1413h334l-1145 -1413h-334zM1866 616q-15 -112 -121 -178
q102 -70 84 -196q-17 -115 -121 -185.5t-254 -70.5q-94 0 -179 31t-134 85l178 197q25 -26 68 -42.5t86 -16.5q38 0 62.5 11t25.5 30q3 20 -19 31.5t-59 11.5h-113l33 225h113q70 0 73 26q1 15 -21.5 24t-58.5 9q-68 0 -133 -28l-112 192q59 40 145 65t168 25
q144 0 224 -68.5t65 -177.5z" />
    <glyph glyph-name="uni2155" unicode="&#x2155;" horiz-adv-x="1845" 
d="M281 1096l-93 -49l-84 213l295 153h191l-119 -848h-266zM1290 1413h334l-1145 -1413h-334zM1509 563q125 0 198 -81t56 -201q-17 -127 -125 -211t-260 -84q-169 0 -297 96l160 215q66 -57 156 -57q43 0 68 15t28 36q3 17 -10.5 28t-38.5 11q-35 0 -60 -25l-225 68
l111 475h514l-35 -246h-289l-8 -45q24 6 57 6z" />
    <glyph glyph-name="uni2156" unicode="&#x2156;" horiz-adv-x="1953" 
d="M666 815l-35 -250h-580l31 217l270 244q78 70 82 104q1 15 -11.5 24t-33.5 9q-46 0 -125 -59l-153 174q58 68 146.5 108.5t184.5 40.5q136 0 209 -79t56 -201q-18 -135 -138 -240l-106 -92h203zM1399 1413h334l-1145 -1413h-334zM1618 563q125 0 198 -81t56 -201
q-17 -127 -125 -211t-260 -84q-169 0 -297 96l160 215q66 -57 155 -57q43 0 68.5 15t28.5 36q3 17 -11 28t-39 11q-34 0 -59 -25l-225 68l110 475h514l-34 -246h-289l-8 -45q24 6 57 6z" />
    <glyph glyph-name="uni2157" unicode="&#x2157;" horiz-adv-x="1937" 
d="M713 807q-17 -115 -121 -185.5t-254 -70.5q-94 0 -179 31t-134 86l178 196q25 -26 67.5 -42.5t85.5 -16.5q38 0 62.5 11t25.5 30q3 20 -18.5 31.5t-58.5 11.5h-113l33 225h112q32 0 52 7.5t22 19.5q1 15 -21.5 24t-58.5 9q-66 0 -133 -29l-113 192q59 40 145 65t169 25
q144 0 224 -68t65 -177q-15 -112 -121 -178q102 -70 84 -197zM1382 1413h334l-1145 -1413h-333zM1602 563q125 0 197.5 -81t55.5 -201q-17 -127 -125 -211t-260 -84q-168 0 -296 96l159 215q66 -57 156 -57q43 0 68 15t28 36q3 17 -10.5 28t-38.5 11q-34 0 -59 -25l-226 68
l111 475h514l-35 -246h-289l-8 -45q24 6 58 6z" />
    <glyph glyph-name="uni2158" unicode="&#x2158;" horiz-adv-x="2019" 
d="M389 565l17 121h-297l-31 217l401 510h295l-67 -477h59l-37 -250h-57l-17 -121h-266zM1464 1413h334l-1145 -1413h-334zM342 936h98l25 164zM1683 563q125 0 198 -81t56 -201q-17 -127 -125 -211t-260 -84q-169 0 -297 96l160 215q66 -57 156 -57q43 0 68 15t28 36
q3 17 -10.5 28t-38.5 11q-34 0 -59 -25l-226 68l111 475h514l-35 -246h-289l-8 -45q24 6 57 6z" />
    <glyph glyph-name="uni2159" unicode="&#x2159;" horiz-adv-x="1697" 
d="M281 1096l-93 -49l-84 213l295 153h191l-119 -848h-266zM1290 1413h334l-1145 -1413h-334zM1427 557q105 0 167.5 -80t47.5 -194q-19 -128 -126.5 -212.5t-247.5 -84.5q-151 0 -228 102t-55 266q30 207 197.5 349t427.5 159l14 -246q-149 -6 -244 -63q16 4 47 4z
M1368 279q3 18 -13.5 30.5t-43.5 12.5q-26 0 -43.5 -14.5t-20.5 -31.5q-1 -17 14 -28.5t39 -11.5q27 0 47 12.5t21 30.5z" />
    <glyph glyph-name="uni215A" unicode="&#x215a;" horiz-adv-x="1794" 
d="M369 805q43 0 68 15t28 36q3 17 -10.5 28t-38.5 11q-35 0 -60 -25l-225 68l111 475h514l-35 -246h-289l-8 -45q24 6 57 6q125 0 198 -81t56 -201q-17 -127 -125 -211t-260 -84q-169 0 -297 96l160 215q66 -57 156 -57zM1386 1413h334l-1145 -1413h-333zM1524 557
q105 0 167.5 -80t47.5 -194q-19 -128 -126.5 -212.5t-248.5 -84.5q-151 0 -228 102t-55 266q30 207 197.5 349t427.5 159l14 -246q-147 -6 -243 -63q16 4 47 4zM1464 279q3 18 -13.5 30.5t-43.5 12.5q-26 0 -43.5 -14.5t-20.5 -31.5q-1 -17 14.5 -28.5t39.5 -11.5
q27 0 46.5 12t20.5 31z" />
    <glyph glyph-name="oneeighth" unicode="&#x215b;" horiz-adv-x="1851" 
d="M281 1096l-93 -49l-84 213l295 153h191l-119 -848h-266zM1290 1413h334l-1145 -1413h-334zM1808 612q-15 -103 -112 -172q94 -74 76 -188q-15 -113 -123.5 -189.5t-255.5 -76.5q-145 0 -231.5 76t-71.5 190q18 117 131 188q-79 69 -64 172q15 105 117 177.5t242 72.5
t223.5 -72.5t68.5 -177.5zM1423 584q-1 -13 13.5 -23t36.5 -10q23 0 40 9.5t19 23.5q3 15 -11 24.5t-38 9.5q-22 0 -39.5 -9.5t-20.5 -24.5zM1505 279q3 17 -16 28.5t-49 11.5q-28 0 -49.5 -11.5t-24.5 -28.5q-2 -18 15 -30.5t46 -12.5q31 0 53.5 13t24.5 30z" />
    <glyph glyph-name="threeeighths" unicode="&#x215c;" horiz-adv-x="1943" 
d="M713 807q-17 -115 -121 -185.5t-254 -70.5q-94 0 -179 31t-134 86l178 196q25 -26 67.5 -42.5t85.5 -16.5q38 0 62.5 11t25.5 30q3 20 -18.5 31.5t-58.5 11.5h-113l33 225h112q32 0 52 7.5t22 19.5q1 15 -21.5 24t-58.5 9q-66 0 -133 -29l-113 192q59 40 145 65t169 25
q144 0 224 -68t65 -177q-15 -112 -121 -178q102 -70 84 -197zM1382 1413h334l-1145 -1413h-333zM1901 612q-15 -103 -113 -172q94 -74 76 -188q-15 -113 -123.5 -189.5t-255.5 -76.5q-145 0 -231.5 76t-71.5 190q18 117 131 188q-79 69 -64 172q15 105 117 177.5t242 72.5
t224 -72.5t69 -177.5zM1516 584q-2 -14 12.5 -23.5t36.5 -9.5q23 0 40 9.5t19 23.5q3 15 -11 24.5t-38 9.5q-22 0 -39 -9.5t-20 -24.5zM1597 279q3 17 -16 28.5t-49 11.5q-28 0 -49.5 -11.5t-24.5 -28.5q-2 -18 15.5 -30.5t46.5 -12.5q30 0 52.5 13t24.5 30z" />
    <glyph glyph-name="fiveeighths" unicode="&#x215d;" horiz-adv-x="1947" 
d="M369 805q43 0 68 15t28 36q3 17 -10.5 28t-38.5 11q-35 0 -60 -25l-225 68l111 475h514l-35 -246h-289l-8 -45q24 6 57 6q125 0 198 -81t56 -201q-17 -127 -125 -211t-260 -84q-169 0 -297 96l160 215q66 -57 156 -57zM1386 1413h334l-1145 -1413h-333zM1905 612
q-15 -103 -113 -172q94 -74 76 -188q-15 -113 -123.5 -189.5t-255.5 -76.5q-145 0 -231.5 76t-71.5 190q18 117 131 188q-79 69 -64 172q15 105 117 177.5t242 72.5t224 -72.5t69 -177.5zM1520 584q-2 -14 12.5 -23.5t36.5 -9.5q23 0 40 9.5t19 23.5q3 15 -11 24.5t-38 9.5
q-22 0 -39 -9.5t-20 -24.5zM1602 279q3 17 -16.5 28.5t-49.5 11.5q-28 0 -49.5 -11.5t-24.5 -28.5q-2 -18 15.5 -30.5t46.5 -12.5q31 0 53.5 13t24.5 30z" />
    <glyph glyph-name="seveneighths" unicode="&#x215e;" horiz-adv-x="1777" 
d="M358 565h-299l340 598h-276l35 250h587l-28 -209zM1217 1413h333l-1144 -1413h-334zM1735 612q-15 -103 -113 -172q94 -74 76 -188q-15 -113 -123.5 -189.5t-255.5 -76.5q-145 0 -231.5 76t-71.5 190q18 117 131 188q-79 69 -64 172q15 105 117 177.5t242 72.5t224 -72.5
t69 -177.5zM1350 584q-2 -14 12.5 -23.5t36.5 -9.5q23 0 40 9.5t19 23.5q3 15 -11 24.5t-38 9.5q-22 0 -39 -9.5t-20 -24.5zM1432 279q3 17 -16.5 28.5t-49.5 11.5q-28 0 -49.5 -11.5t-24.5 -28.5q-2 -18 15.5 -30.5t46.5 -12.5q31 0 53.5 13t24.5 30z" />
    <glyph glyph-name="uni215F" unicode="&#x215f;" horiz-adv-x="1077" 
d="M281 1096l-93 -49l-84 213l295 153h191l-119 -848h-266zM1290 1413h334l-1145 -1413h-334z" />
    <glyph glyph-name="uni2189" unicode="&#x2189;" horiz-adv-x="1947" 
d="M791 989q-26 -193 -140 -315.5t-266 -122.5t-230.5 122t-52.5 316q28 194 141 316t265 122t231.5 -122.5t51.5 -315.5zM1438 1413h334l-1145 -1413h-334zM375 989q-10 -81 3 -132.5t44 -51.5q32 0 58.5 52t37.5 132q12 80 -0.5 132.5t-44.5 52.5q-31 0 -58.5 -52
t-39.5 -133zM1905 616q-15 -112 -121 -178q102 -70 84 -196q-17 -115 -121 -185.5t-254 -70.5q-94 0 -179 31t-134 85l178 197q25 -26 67.5 -42.5t85.5 -16.5q38 0 62.5 11t25.5 30q3 20 -18.5 31.5t-58.5 11.5h-113l33 225h112q71 0 74 26q1 15 -21.5 24t-58.5 9
q-68 0 -133 -28l-112 192q59 40 145 65t168 25q144 0 224 -68.5t65 -177.5z" />
    <glyph glyph-name="arrowleft" unicode="&#x2190;" horiz-adv-x="1314" 
d="M1262 872l-48 -331h-514l105 -113l-252 -219l-424 496l565 497l189 -219l-131 -111h510z" />
    <glyph glyph-name="arrowup" unicode="&#x2191;" horiz-adv-x="1314" 
d="M1190 766l-250 -219l-96 119l-72 -514h-332l72 512l-127 -117l-188 219l567 496z" />
    <glyph glyph-name="arrowright" unicode="&#x2192;" horiz-adv-x="1314" 
d="M813 1202l426 -497l-567 -496l-187 219l136 113h-517l48 331h512l-101 111z" />
    <glyph glyph-name="arrowdown" unicode="&#x2193;" horiz-adv-x="1314" 
d="M985 866l189 -219l-566 -495l-428 495l250 219l94 -116l72 512h332l-72 -514z" />
    <glyph glyph-name="uni2196" unicode="&#x2196;" horiz-adv-x="1314" 
d="M1106 489l-268 -235l-314 362l-18 -161h-309l98 700l702 4l-45 -311l-157 4z" />
    <glyph glyph-name="uni2197" unicode="&#x2197;" horiz-adv-x="1314" 
d="M500 1159l698 -4l-98 -700h-309l28 161l-413 -362l-203 235l413 363l-161 -4z" />
    <glyph glyph-name="uni2198" unicode="&#x2198;" horiz-adv-x="1314" 
d="M862 958h309l-98 -700l-700 -4l43 311l159 -4l-311 363l268 235l312 -362z" />
    <glyph glyph-name="uni2199" unicode="&#x2199;" horiz-adv-x="1314" 
d="M1167 924l-413 -363l159 4l-43 -311l-700 4l98 700h310l-27 -161l414 362z" />
    <glyph glyph-name="minus" unicode="&#x2212;" horiz-adv-x="1093" 
d="M94 438l47 332h881l-47 -332h-881z" />
    <glyph glyph-name="approxequal" unicode="&#x2248;" horiz-adv-x="1249" 
d="M823 651q-66 0 -125.5 17t-100.5 34t-62 17q-29 0 -49 -18t-25 -46h-336q28 198 124.5 314t274.5 116q66 0 125 -16.5t100 -33.5t62 -17q29 0 50 17.5t24 45.5h336q-13 -95 -41.5 -170.5t-75 -135t-118 -92t-163.5 -32.5zM752 139q-66 0 -125.5 17t-101 34t-62.5 17
q-29 0 -49 -18t-25 -46h-336q14 95 42.5 170.5t75.5 135t118.5 92t163.5 32.5q66 0 125 -16.5t99.5 -33.5t61.5 -17q29 0 50 17.5t24 45.5h336q-13 -95 -41 -170.5t-74.5 -135t-118 -92t-163.5 -32.5z" />
    <glyph glyph-name="notequal" unicode="&#x2260;" horiz-adv-x="1093" 
d="M1008 666h-256l-66 -119h305l-47 -332h-440l-62 -113h-319l61 113h-121l48 332h256l65 119h-305l47 331h440l60 109h319l-59 -109h121z" />
    <glyph glyph-name="lessequal" unicode="&#x2264;" horiz-adv-x="950" 
d="M952 1292l-51 -366l-350 -86l326 -86l-52 -367l-700 266l53 373zM33 0l47 332h737l-47 -332h-737z" />
    <glyph glyph-name="greaterequal" unicode="&#x2265;" horiz-adv-x="950" 
d="M215 1292l700 -266l-53 -373l-774 -266l51 367l350 86l-325 86zM33 0l47 332h737l-47 -332h-737z" />
    <glyph glyph-name="uni279D" unicode="&#x279d;" horiz-adv-x="2215" 
d="M2099 707l-514 -451l41 285h-1481l48 331h1478l41 285z" />
    <glyph glyph-name="uni27F5" unicode="&#x27f5;" horiz-adv-x="2215" 
d="M2122 872l-47 -331h-1334l105 -113l-252 -219l-424 496l565 497l189 -219l-131 -111h1329z" />
    <glyph glyph-name="uni27F6" unicode="&#x27f6;" horiz-adv-x="2215" 
d="M1673 1202l426 -497l-567 -496l-186 219l135 113h-1336l48 331h1331l-101 111z" />
    <glyph glyph-name="G.ss05" horiz-adv-x="1595" 
d="M856 842h703l-119 -842h-340l14 106q-176 -131 -397 -131q-156 0 -286.5 56.5t-215 153.5t-122 232.5t-15.5 289.5q28 205 149.5 372.5t307.5 263t397 95.5q180 0 324 -68.5t221 -189.5l-328 -236q-42 57 -110.5 89t-151.5 32q-153 0 -269.5 -102.5t-138.5 -255.5
q-22 -154 65.5 -256.5t239.5 -102.5q91 0 171 39t135 107h-283z" />
    <glyph glyph-name="uni01F4.ss05" horiz-adv-x="1595" 
d="M1438 1827l-320 -324h-385l246 324h459zM856 842h703l-119 -842h-340l14 106q-176 -131 -397 -131q-156 0 -286.5 56.5t-215 153.5t-122 232.5t-15.5 289.5q28 205 149.5 372.5t307.5 263t397 95.5q180 0 324 -68.5t221 -189.5l-328 -236q-42 57 -110.5 89t-151.5 32
q-153 0 -269.5 -102.5t-138.5 -255.5q-22 -154 65.5 -256.5t239.5 -102.5q91 0 171 39t135 107h-283z" />
    <glyph glyph-name="Gbreve.ss05" horiz-adv-x="1595" 
d="M938 1483q-158 0 -250 99.5t-70 248.5h283q-6 -38 14.5 -63t57.5 -25t65.5 25t34.5 63h283q-22 -149 -141 -248.5t-277 -99.5zM856 842h703l-119 -842h-340l14 106q-176 -131 -397 -131q-156 0 -286.5 56.5t-215 153.5t-122 232.5t-15.5 289.5q28 205 149.5 372.5
t307.5 263t397 95.5q180 0 324 -68.5t221 -189.5l-328 -236q-42 57 -110.5 89t-151.5 32q-153 0 -269.5 -102.5t-138.5 -255.5q-22 -154 65.5 -256.5t239.5 -102.5q91 0 171 39t135 107h-283z" />
    <glyph glyph-name="Gcaron.ss05" horiz-adv-x="1595" 
d="M1161 1503h-442l-156 324h344l62 -123l94 123h344zM856 842h703l-119 -842h-340l14 106q-176 -131 -397 -131q-156 0 -286.5 56.5t-215 153.5t-122 232.5t-15.5 289.5q28 205 149.5 372.5t307.5 263t397 95.5q180 0 324 -68.5t221 -189.5l-328 -236q-42 57 -110.5 89
t-151.5 32q-153 0 -269.5 -102.5t-138.5 -255.5q-22 -154 65.5 -256.5t239.5 -102.5q91 0 171 39t135 107h-283z" />
    <glyph glyph-name="Gcircumflex.ss05" horiz-adv-x="1595" 
d="M956 1626l-94 -123h-344l246 324h442l156 -324h-344zM856 842h703l-119 -842h-340l14 106q-176 -131 -397 -131q-156 0 -286.5 56.5t-215 153.5t-122 232.5t-15.5 289.5q28 205 149.5 372.5t307.5 263t397 95.5q180 0 324 -68.5t221 -189.5l-328 -236q-42 57 -110.5 89
t-151.5 32q-153 0 -269.5 -102.5t-138.5 -255.5q-22 -154 65.5 -256.5t239.5 -102.5q91 0 171 39t135 107h-283z" />
    <glyph glyph-name="uni0122.ss05" horiz-adv-x="1595" 
d="M856 842h703l-119 -842h-340l14 106q-176 -131 -397 -131q-156 0 -286.5 56.5t-215 153.5t-122 232.5t-15.5 289.5q28 205 149.5 372.5t307.5 263t397 95.5q180 0 324 -68.5t221 -189.5l-328 -236q-42 57 -110.5 89t-151.5 32q-153 0 -269.5 -102.5t-138.5 -255.5
q-22 -154 65.5 -256.5t239.5 -102.5q91 0 171 39t135 107h-283zM412 -475l151 385h377l-225 -385h-303z" />
    <glyph glyph-name="Gdotaccent.ss05" horiz-adv-x="1595" 
d="M938 1485q-89 0 -140.5 59t-39.5 148t79.5 147.5t157.5 58.5t141.5 -58.5t39.5 -147.5t-80 -148t-158 -59zM856 842h703l-119 -842h-340l14 106q-176 -131 -397 -131q-156 0 -286.5 56.5t-215 153.5t-122 232.5t-15.5 289.5q28 205 149.5 372.5t307.5 263t397 95.5
q180 0 324 -68.5t221 -189.5l-328 -236q-42 57 -110.5 89t-151.5 32q-153 0 -269.5 -102.5t-138.5 -255.5q-22 -154 65.5 -256.5t239.5 -102.5q91 0 171 39t135 107h-283z" />
    <glyph glyph-name="i.loclTRK" horiz-adv-x="573" 
d="M371 1116q-89 0 -141 59t-40 148t80 148t158 59q89 0 140.5 -59t39.5 -148t-80 -148t-157 -59zM29 0l147 1044h369l-148 -1044h-368z" />
    <glyph glyph-name="a.ss01" horiz-adv-x="1112" 
d="M602 1069q222 0 347 -116t98 -308l-91 -645h-333l10 66q-115 -91 -275 -91q-169 0 -270.5 96t-81.5 238t147 238t289 96q136 0 226 -68l4 27q11 69 -34 110.5t-134 41.5q-117 0 -219 -72l-146 225q93 77 213 119.5t250 42.5zM494 227q53 0 93 23.5t44 58.5q6 35 -28 58.5
t-87 23.5q-51 0 -88 -23.5t-43 -58.5q-4 -35 27 -58.5t82 -23.5z" />
    <glyph glyph-name="aacute.ss01" horiz-adv-x="1112" 
d="M1143 1458l-320 -323h-385l246 323h459zM602 1069q222 0 347 -116t98 -308l-91 -645h-333l10 66q-115 -91 -275 -91q-169 0 -270.5 96t-81.5 238t147 238t289 96q136 0 226 -68l4 27q11 69 -34 110.5t-134 41.5q-117 0 -219 -72l-146 225q93 77 213 119.5t250 42.5z
M494 227q53 0 93 23.5t44 58.5q6 35 -28 58.5t-87 23.5q-51 0 -88 -23.5t-43 -58.5q-4 -35 27 -58.5t82 -23.5z" />
    <glyph glyph-name="abreve.ss01" horiz-adv-x="1112" 
d="M643 1114q-158 0 -249.5 99.5t-69.5 248.5h282q-6 -38 14.5 -63t57.5 -25t65.5 25t34.5 63h283q-22 -149 -141 -248.5t-277 -99.5zM602 1069q222 0 347 -116t98 -308l-91 -645h-333l10 66q-115 -91 -275 -91q-169 0 -270.5 96t-81.5 238t147 238t289 96q136 0 226 -68
l4 27q11 69 -34 110.5t-134 41.5q-117 0 -219 -72l-146 225q93 77 213 119.5t250 42.5zM494 227q53 0 93 23.5t44 58.5q6 35 -28 58.5t-87 23.5q-51 0 -88 -23.5t-43 -58.5q-4 -35 27 -58.5t82 -23.5z" />
    <glyph glyph-name="uni01CE.ss01" horiz-adv-x="1112" 
d="M866 1135h-442l-156 323h344l62 -123l94 123h344zM602 1069q222 0 347 -116t98 -308l-91 -645h-333l10 66q-115 -91 -275 -91q-169 0 -270.5 96t-81.5 238t147 238t289 96q136 0 226 -68l4 27q11 69 -34 110.5t-134 41.5q-117 0 -219 -72l-146 225q93 77 213 119.5
t250 42.5zM494 227q53 0 93 23.5t44 58.5q6 35 -28 58.5t-87 23.5q-51 0 -88 -23.5t-43 -58.5q-4 -35 27 -58.5t82 -23.5z" />
    <glyph glyph-name="acircumflex.ss01" horiz-adv-x="1112" 
d="M662 1257l-95 -122h-344l246 323h442l156 -323h-344zM602 1069q222 0 347 -116t98 -308l-91 -645h-333l10 66q-115 -91 -275 -91q-169 0 -270.5 96t-81.5 238t147 238t289 96q136 0 226 -68l4 27q11 69 -34 110.5t-134 41.5q-117 0 -219 -72l-146 225q93 77 213 119.5
t250 42.5zM494 227q53 0 93 23.5t44 58.5q6 35 -28 58.5t-87 23.5q-51 0 -88 -23.5t-43 -58.5q-4 -35 27 -58.5t82 -23.5z" />
    <glyph glyph-name="uni0201.ss01" horiz-adv-x="1112" 
d="M586 1135h-355l-178 323h398zM1077 1135h-354l-178 323h397zM602 1069q222 0 347 -116t98 -308l-91 -645h-333l10 66q-115 -91 -275 -91q-169 0 -270.5 96t-81.5 238t147 238t289 96q136 0 226 -68l4 27q11 69 -34 110.5t-134 41.5q-117 0 -219 -72l-146 225
q93 77 213 119.5t250 42.5zM494 227q53 0 93 23.5t44 58.5q6 35 -28 58.5t-87 23.5q-51 0 -88 -23.5t-43 -58.5q-4 -35 27 -58.5t82 -23.5z" />
    <glyph glyph-name="adieresis.ss01" horiz-adv-x="1112" 
d="M412 1116q-85 0 -134 56t-38 141q12 84 77 140t150 56t133.5 -55.5t36.5 -140.5q-10 -84 -75 -140.5t-150 -56.5zM930 1509q85 0 133.5 -55.5t36.5 -140.5q-10 -84 -75.5 -140.5t-150.5 -56.5t-134 56t-38 141q12 84 77.5 140t150.5 56zM602 1069q222 0 347 -116t98 -308
l-91 -645h-333l10 66q-115 -91 -275 -91q-169 0 -270.5 96t-81.5 238t147 238t289 96q136 0 226 -68l4 27q11 69 -34 110.5t-134 41.5q-117 0 -219 -72l-146 225q93 77 213 119.5t250 42.5zM494 227q53 0 93 23.5t44 58.5q6 35 -28 58.5t-87 23.5q-51 0 -88 -23.5t-43 -58.5
q-4 -35 27 -58.5t82 -23.5z" />
    <glyph glyph-name="uni1EA1.ss01" horiz-adv-x="1112" 
d="M602 1069q222 0 347 -116t98 -308l-91 -645h-333l10 66q-115 -91 -275 -91q-169 0 -270.5 96t-81.5 238t147 238t289 96q136 0 226 -68l4 27q11 69 -34 110.5t-134 41.5q-117 0 -219 -72l-146 225q93 77 213 119.5t250 42.5zM494 227q53 0 93 23.5t44 58.5q6 35 -28 58.5
t-87 23.5q-51 0 -88 -23.5t-43 -58.5q-4 -35 27 -58.5t82 -23.5zM475 -72q89 0 140.5 -59t39.5 -148t-79.5 -147.5t-157.5 -58.5q-89 0 -140.5 58.5t-39.5 147.5t80 148t157 59z" />
    <glyph glyph-name="agrave.ss01" horiz-adv-x="1112" 
d="M852 1135h-385l-229 323h458zM602 1069q222 0 347 -116t98 -308l-91 -645h-333l10 66q-115 -91 -275 -91q-169 0 -270.5 96t-81.5 238t147 238t289 96q136 0 226 -68l4 27q11 69 -34 110.5t-134 41.5q-117 0 -219 -72l-146 225q93 77 213 119.5t250 42.5zM494 227
q53 0 93 23.5t44 58.5q6 35 -28 58.5t-87 23.5q-51 0 -88 -23.5t-43 -58.5q-4 -35 27 -58.5t82 -23.5z" />
    <glyph glyph-name="uni0203.ss01" horiz-adv-x="1112" 
d="M657 1223q-37 0 -64.5 -25t-33.5 -63h-283q22 149 141 248.5t277 99.5t250 -99.5t70 -248.5h-283q6 38 -15.5 63t-58.5 25zM602 1069q222 0 347 -116t98 -308l-91 -645h-333l10 66q-115 -91 -275 -91q-169 0 -270.5 96t-81.5 238t147 238t289 96q136 0 226 -68l4 27
q11 69 -34 110.5t-134 41.5q-117 0 -219 -72l-146 225q93 77 213 119.5t250 42.5zM494 227q53 0 93 23.5t44 58.5q6 35 -28 58.5t-87 23.5q-51 0 -88 -23.5t-43 -58.5q-4 -35 27 -58.5t82 -23.5z" />
    <glyph glyph-name="amacron.ss01" horiz-adv-x="1112" 
d="M991 1454l-43 -307h-602l43 307h602zM602 1069q222 0 347 -116t98 -308l-91 -645h-333l10 66q-115 -91 -275 -91q-169 0 -270.5 96t-81.5 238t147 238t289 96q136 0 226 -68l4 27q11 69 -34 110.5t-134 41.5q-117 0 -219 -72l-146 225q93 77 213 119.5t250 42.5zM494 227
q53 0 93 23.5t44 58.5q6 35 -28 58.5t-87 23.5q-51 0 -88 -23.5t-43 -58.5q-4 -35 27 -58.5t82 -23.5z" />
    <glyph glyph-name="aogonek.ss01" horiz-adv-x="1112" 
d="M602 1069q222 0 347 -116t98 -308l-91 -645h-2q-226 -90 -241 -190q-6 -37 17 -55.5t56 -18.5q51 0 99 28l49 -225q-106 -65 -246 -65q-138 0 -214.5 71.5t-61.5 180.5q13 88 80.5 162.5t164.5 111.5h-34l10 66q-115 -91 -275 -91q-169 0 -270.5 96t-81.5 238t147 238
t289 96q136 0 226 -68l4 27q11 69 -34 110.5t-134 41.5q-117 0 -219 -72l-146 225q93 77 213 119.5t250 42.5zM494 227q53 0 93 23.5t44 58.5q6 35 -28 58.5t-87 23.5q-51 0 -88 -23.5t-43 -58.5q-4 -35 27 -58.5t82 -23.5z" />
    <glyph glyph-name="aring.ss01" horiz-adv-x="1112" 
d="M643 1114q-104 0 -165.5 68.5t-47.5 169.5q13 101 93.5 169t185.5 68q104 0 165 -68t48 -169t-94 -169.5t-185 -68.5zM618 1352q-3 -26 11 -43t39 -17t43.5 17t21.5 43t-10.5 42.5t-38.5 16.5t-44 -16.5t-22 -42.5zM602 1069q222 0 347 -116t98 -308l-91 -645h-333l10 66
q-115 -91 -275 -91q-169 0 -270.5 96t-81.5 238t147 238t289 96q136 0 226 -68l4 27q11 69 -34 110.5t-134 41.5q-117 0 -219 -72l-146 225q93 77 213 119.5t250 42.5zM494 227q53 0 93 23.5t44 58.5q6 35 -28 58.5t-87 23.5q-51 0 -88 -23.5t-43 -58.5q-4 -35 27 -58.5
t82 -23.5z" />
    <glyph glyph-name="atilde.ss01" horiz-adv-x="1112" 
d="M573 1200q-24 0 -41 -15.5t-20 -37.5h-256q21 153 101 248.5t208 95.5q47 0 87 -14.5t68.5 -28.5t47.5 -14q23 0 39.5 15.5t19.5 39.5h256q-21 -155 -100.5 -249.5t-208.5 -94.5q-48 0 -88 13.5t-67.5 27.5t-45.5 14zM602 1069q222 0 347 -116t98 -308l-91 -645h-333
l10 66q-115 -91 -275 -91q-169 0 -270.5 96t-81.5 238t147 238t289 96q136 0 226 -68l4 27q11 69 -34 110.5t-134 41.5q-117 0 -219 -72l-146 225q93 77 213 119.5t250 42.5zM494 227q53 0 93 23.5t44 58.5q6 35 -28 58.5t-87 23.5q-51 0 -88 -23.5t-43 -58.5
q-4 -35 27 -58.5t82 -23.5z" />
    <glyph glyph-name="g.ss02" 
d="M879 1044h368l-131 -931q-34 -238 -212 -382.5t-441 -144.5q-139 0 -256 42t-199 116l217 256q110 -78 252 -78q114 0 186.5 52t84.5 141l2 10q-127 -84 -275 -84q-139 0 -243 67t-151.5 184.5t-27.5 262.5q31 220 193.5 367t374.5 147q149 0 249 -84zM432 555
q-11 -77 36 -128.5t128 -51.5t141.5 51.5t71.5 128.5t-35 128.5t-127 51.5q-82 0 -143 -51.5t-72 -128.5z" />
    <glyph glyph-name="uni01F5.ss02" 
d="M1221 1458l-320 -323h-385l246 323h459zM879 1044h368l-131 -931q-34 -238 -212 -382.5t-441 -144.5q-139 0 -256 42t-199 116l217 256q110 -78 252 -78q114 0 186.5 52t84.5 141l2 10q-127 -84 -275 -84q-139 0 -243 67t-151.5 184.5t-27.5 262.5q31 220 193.5 367
t374.5 147q149 0 249 -84zM432 555q-11 -77 36 -128.5t128 -51.5t141.5 51.5t71.5 128.5t-35 128.5t-127 51.5q-82 0 -143 -51.5t-72 -128.5z" />
    <glyph glyph-name="gbreve.ss02" 
d="M721 1114q-158 0 -250 99.5t-70 248.5h283q-6 -38 14.5 -63t57.5 -25t65.5 25t34.5 63h283q-22 -149 -141 -248.5t-277 -99.5zM879 1044h368l-131 -931q-34 -238 -212 -382.5t-441 -144.5q-139 0 -256 42t-199 116l217 256q110 -78 252 -78q114 0 186.5 52t84.5 141l2 10
q-127 -84 -275 -84q-139 0 -243 67t-151.5 184.5t-27.5 262.5q31 220 193.5 367t374.5 147q149 0 249 -84zM432 555q-11 -77 36 -128.5t128 -51.5t141.5 51.5t71.5 128.5t-35 128.5t-127 51.5q-82 0 -143 -51.5t-72 -128.5z" />
    <glyph glyph-name="gcaron.ss02" 
d="M944 1135h-442l-156 323h344l62 -123l94 123h344zM879 1044h368l-131 -931q-34 -238 -212 -382.5t-441 -144.5q-139 0 -256 42t-199 116l217 256q110 -78 252 -78q114 0 186.5 52t84.5 141l2 10q-127 -84 -275 -84q-139 0 -243 67t-151.5 184.5t-27.5 262.5
q31 220 193.5 367t374.5 147q149 0 249 -84zM432 555q-11 -77 36 -128.5t128 -51.5t141.5 51.5t71.5 128.5t-35 128.5t-127 51.5q-82 0 -143 -51.5t-72 -128.5z" />
    <glyph glyph-name="gcircumflex.ss02" 
d="M739 1257l-94 -122h-344l246 323h442l156 -323h-344zM879 1044h368l-131 -931q-34 -238 -212 -382.5t-441 -144.5q-139 0 -256 42t-199 116l217 256q110 -78 252 -78q114 0 186.5 52t84.5 141l2 10q-127 -84 -275 -84q-139 0 -243 67t-151.5 184.5t-27.5 262.5
q31 220 193.5 367t374.5 147q149 0 249 -84zM432 555q-11 -77 36 -128.5t128 -51.5t141.5 51.5t71.5 128.5t-35 128.5t-127 51.5q-82 0 -143 -51.5t-72 -128.5z" />
    <glyph glyph-name="uni0123.ss02" 
d="M1014 1520l-152 -385h-377l226 385h303zM879 1044h368l-131 -931q-34 -238 -212 -382.5t-441 -144.5q-139 0 -256 42t-199 116l217 256q110 -78 252 -78q114 0 186.5 52t84.5 141l2 10q-127 -84 -275 -84q-139 0 -243 67t-151.5 184.5t-27.5 262.5q31 220 193.5 367
t374.5 147q149 0 249 -84zM432 555q-11 -77 36 -128.5t128 -51.5t141.5 51.5t71.5 128.5t-35 128.5t-127 51.5q-82 0 -143 -51.5t-72 -128.5z" />
    <glyph glyph-name="gdotaccent.ss02" 
d="M721 1116q-89 0 -140.5 59t-39.5 148t80 148t157 59t140.5 -59t39.5 -148t-80 -148t-157 -59zM879 1044h368l-131 -931q-34 -238 -212 -382.5t-441 -144.5q-139 0 -256 42t-199 116l217 256q110 -78 252 -78q114 0 186.5 52t84.5 141l2 10q-127 -84 -275 -84
q-139 0 -243 67t-151.5 184.5t-27.5 262.5q31 220 193.5 367t374.5 147q149 0 249 -84zM432 555q-11 -77 36 -128.5t128 -51.5t141.5 51.5t71.5 128.5t-35 128.5t-127 51.5q-82 0 -143 -51.5t-72 -128.5z" />
    <glyph glyph-name="u.ss03" horiz-adv-x="1200" 
d="M803 1044h368l-147 -1044h-369l11 72q-129 -97 -287 -97q-169 0 -257 102t-65 271l99 696h368l-80 -571q-9 -65 21.5 -103t91.5 -38q62 0 108 37t56 98z" />
    <glyph glyph-name="uacute.ss03" horiz-adv-x="1200" 
d="M1174 1458l-320 -323h-385l246 323h459zM721 467l82 577h368l-147 -1044h-369l11 72q-129 -97 -287 -97q-169 0 -257 102t-65 271l99 696h368l-80 -571q-9 -65 21.5 -103t91.5 -38q62 0 108 37t56 98z" />
    <glyph glyph-name="ubreve.ss03" horiz-adv-x="1200" 
d="M674 1114q-158 0 -250 99.5t-70 248.5h283q-6 -38 14.5 -63t57.5 -25t65.5 25t34.5 63h283q-22 -149 -141 -248.5t-277 -99.5zM803 1044h368l-147 -1044h-369l11 72q-129 -97 -287 -97q-169 0 -257 102t-65 271l99 696h368l-80 -571q-9 -65 21.5 -103t91.5 -38
q62 0 108 37t56 98z" />
    <glyph glyph-name="ucircumflex.ss03" horiz-adv-x="1200" 
d="M692 1257l-94 -122h-344l246 323h442l156 -323h-344zM803 1044h368l-147 -1044h-369l11 72q-129 -97 -287 -97q-169 0 -257 102t-65 271l99 696h368l-80 -571q-9 -65 21.5 -103t91.5 -38q62 0 108 37t56 98z" />
    <glyph glyph-name="uni0215.ss03" horiz-adv-x="1200" 
d="M616 1135h-354l-178 323h397zM1108 1135h-354l-179 323h398zM803 1044h368l-147 -1044h-369l11 72q-129 -97 -287 -97q-169 0 -257 102t-65 271l99 696h368l-80 -571q-9 -65 21.5 -103t91.5 -38q62 0 108 37t56 98z" />
    <glyph glyph-name="udieresis.ss03" horiz-adv-x="1200" 
d="M442 1116q-85 0 -134 56t-38 141q12 84 77.5 140t150.5 56t133.5 -55.5t36.5 -140.5q-10 -84 -75.5 -140.5t-150.5 -56.5zM905 1116q-85 0 -134 56t-38 141q12 84 77.5 140t150.5 56t133 -55.5t36 -140.5q-10 -84 -75 -140.5t-150 -56.5zM803 1044h368l-147 -1044h-369
l11 72q-129 -97 -287 -97q-169 0 -257 102t-65 271l99 696h368l-80 -571q-9 -65 21.5 -103t91.5 -38q62 0 108 37t56 98z" />
    <glyph glyph-name="uni1EE5.ss03" horiz-adv-x="1200" 
d="M803 1044h368l-147 -1044h-369l11 72q-129 -97 -287 -97q-169 0 -257 102t-65 271l99 696h368l-80 -571q-9 -65 21.5 -103t91.5 -38q62 0 108 37t56 98zM506 -72q89 0 140.5 -59t39.5 -148t-79.5 -147.5t-157.5 -58.5t-141.5 58.5t-39.5 147.5t80 148t158 59z" />
    <glyph glyph-name="ugrave.ss03" horiz-adv-x="1200" 
d="M883 1135h-385l-230 323h459zM803 1044h368l-147 -1044h-369l11 72q-129 -97 -287 -97q-169 0 -257 102t-65 271l99 696h368l-80 -571q-9 -65 21.5 -103t91.5 -38q62 0 108 37t56 98z" />
    <glyph glyph-name="uhungarumlaut.ss03" horiz-adv-x="1200" 
d="M866 1458l-268 -323h-354l225 323h397zM1090 1135h-355l226 323h397zM721 467l82 577h368l-147 -1044h-369l11 72q-129 -97 -287 -97q-169 0 -257 102t-65 271l99 696h368l-80 -571q-9 -65 21.5 -103t91.5 -38q62 0 108 37t56 98z" />
    <glyph glyph-name="uni0217.ss03" horiz-adv-x="1200" 
d="M688 1223q-37 0 -64.5 -25t-33.5 -63h-283q22 149 141 248.5t277 99.5t249.5 -99.5t69.5 -248.5h-282q6 38 -15.5 63t-58.5 25zM803 1044h368l-147 -1044h-369l11 72q-129 -97 -287 -97q-169 0 -257 102t-65 271l99 696h368l-80 -571q-9 -65 21.5 -103t91.5 -38
q62 0 108 37t56 98z" />
    <glyph glyph-name="umacron.ss03" horiz-adv-x="1200" 
d="M1022 1454l-43 -307h-602l43 307h602zM803 1044h368l-147 -1044h-369l11 72q-129 -97 -287 -97q-169 0 -257 102t-65 271l99 696h368l-80 -571q-9 -65 21.5 -103t91.5 -38q62 0 108 37t56 98z" />
    <glyph glyph-name="uogonek.ss03" horiz-adv-x="1200" 
d="M803 1044h368l-147 -1044h-2q-227 -91 -242 -190q-6 -37 17 -55.5t57 -18.5q50 0 98 28l49 -225q-106 -65 -245 -65q-138 0 -215 71.5t-62 180.5q13 88 81 162.5t165 111.5h-70l11 72q-129 -97 -287 -97q-169 0 -257 102t-65 271l99 696h368l-80 -571q-9 -65 21.5 -103
t91.5 -38q62 0 108 37t56 98z" />
    <glyph glyph-name="uring.ss03" horiz-adv-x="1200" 
d="M674 1114q-104 0 -165.5 68.5t-47.5 169.5q13 101 93.5 169t184.5 68t165 -68t48 -169t-93.5 -169.5t-184.5 -68.5zM649 1352q-3 -26 10.5 -43t38.5 -17t44 17t22 43t-10.5 42.5t-38.5 16.5t-44 -16.5t-22 -42.5zM803 1044h368l-147 -1044h-369l11 72q-129 -97 -287 -97
q-169 0 -257 102t-65 271l99 696h368l-80 -571q-9 -65 21.5 -103t91.5 -38q62 0 108 37t56 98z" />
    <glyph glyph-name="utilde.ss03" horiz-adv-x="1200" 
d="M604 1200q-24 0 -41 -15.5t-20 -37.5h-256q21 153 101 248.5t208 95.5q47 0 87 -14.5t68.5 -28.5t47.5 -14q23 0 39.5 15.5t19.5 39.5h256q-21 -155 -100.5 -249.5t-208.5 -94.5q-48 0 -88 13.5t-67.5 27.5t-45.5 14zM803 1044h368l-147 -1044h-369l11 72
q-129 -97 -287 -97q-169 0 -257 102t-65 271l99 696h368l-80 -571q-9 -65 21.5 -103t91.5 -38q62 0 108 37t56 98z" />
    <glyph glyph-name="w.ss04" horiz-adv-x="1736" 
d="M1360 1044h369l-91 -645q-28 -192 -169 -308t-347 -116q-209 0 -313 123q-139 -123 -350 -123q-206 0 -313.5 116t-79.5 308l90 645h368l-84 -593q-7 -54 20.5 -86.5t80.5 -32.5t89.5 32.5t43.5 86.5l84 593h368l-84 -593q-7 -54 20.5 -86.5t80.5 -32.5t89.5 32.5
t43.5 86.5z" />
    <glyph glyph-name="wacute.ss04" horiz-adv-x="1736" 
d="M1452 1458l-319 -323h-385l245 323h459zM1360 1044h369l-91 -645q-28 -192 -169 -308t-347 -116q-209 0 -313 123q-139 -123 -350 -123q-206 0 -313.5 116t-79.5 308l90 645h368l-84 -593q-7 -54 20.5 -86.5t80.5 -32.5t89.5 32.5t43.5 86.5l84 593h368l-84 -593
q-7 -54 20.5 -86.5t80.5 -32.5t89.5 32.5t43.5 86.5z" />
    <glyph glyph-name="wcircumflex.ss04" horiz-adv-x="1736" 
d="M971 1257l-94 -122h-345l246 323h443l155 -323h-344zM1360 1044h369l-91 -645q-28 -192 -169 -308t-347 -116q-209 0 -313 123q-139 -123 -350 -123q-206 0 -313.5 116t-79.5 308l90 645h368l-84 -593q-7 -54 20.5 -86.5t80.5 -32.5t89.5 32.5t43.5 86.5l84 593h368
l-84 -593q-7 -54 20.5 -86.5t80.5 -32.5t89.5 32.5t43.5 86.5z" />
    <glyph glyph-name="wdieresis.ss04" horiz-adv-x="1736" 
d="M721 1116q-85 0 -134 56t-38 141q12 84 77 140t150 56t133.5 -55.5t36.5 -140.5q-10 -84 -75 -140.5t-150 -56.5zM1184 1116q-85 0 -134 56t-38 141q12 84 77 140t150 56t133.5 -55.5t36.5 -140.5q-10 -84 -75 -140.5t-150 -56.5zM1360 1044h369l-91 -645
q-28 -192 -169 -308t-347 -116q-209 0 -313 123q-139 -123 -350 -123q-206 0 -313.5 116t-79.5 308l90 645h368l-84 -593q-7 -54 20.5 -86.5t80.5 -32.5t89.5 32.5t43.5 86.5l84 593h368l-84 -593q-7 -54 20.5 -86.5t80.5 -32.5t89.5 32.5t43.5 86.5z" />
    <glyph glyph-name="wgrave.ss04" horiz-adv-x="1736" 
d="M1161 1135h-385l-229 323h459zM1360 1044h369l-91 -645q-28 -192 -169 -308t-347 -116q-209 0 -313 123q-139 -123 -350 -123q-206 0 -313.5 116t-79.5 308l90 645h368l-84 -593q-7 -54 20.5 -86.5t80.5 -32.5t89.5 32.5t43.5 86.5l84 593h368l-84 -593
q-7 -54 20.5 -86.5t80.5 -32.5t89.5 32.5t43.5 86.5z" />
    <glyph glyph-name="zero.subs" horiz-adv-x="808" 
d="M272 -248q-152 0 -230 122t-52 316q28 194 140.5 316.5t264.5 122.5t231.5 -123t51.5 -316q-26 -193 -140 -315.5t-266 -122.5zM309 6q32 0 59 52t38 132q12 80 -1 132.5t-45 52.5q-31 0 -58.5 -52t-39.5 -133q-10 -81 3 -132.5t44 -51.5z" />
    <glyph glyph-name="one.subs" horiz-adv-x="538" 
d="M287 614h190l-119 -847h-266l76 530l-92 -49l-84 213z" />
    <glyph glyph-name="two.subs" horiz-adv-x="667" 
d="M594 348q-18 -135 -137 -239l-107 -93h203l-35 -249h-579l30 217l271 243q78 70 82 105q1 15 -12 24t-34 9q-43 0 -124 -60l-154 174q58 68 147 109t185 41q136 0 209 -79.5t55 -201.5z" />
    <glyph glyph-name="three.subs" horiz-adv-x="712" 
d="M637 383q-15 -112 -121 -178q102 -70 84 -197q-17 -115 -121 -185.5t-254 -70.5q-94 0 -179 31t-134 86l178 197q25 -26 68 -43t86 -17q38 0 62.5 11t25.5 30q3 20 -19 31.5t-59 11.5h-113l33 225h113q70 0 73 27q1 15 -21 24t-58 9q-67 0 -134 -29l-112 193
q59 40 145 65t168 25q144 0 224 -68.5t65 -177.5z" />
    <glyph glyph-name="four.subs" horiz-adv-x="774" 
d="M662 614l-68 -477h59l-37 -250h-57l-16 -120h-267l17 120h-297l-31 217l402 510h295zM229 137h99l24 164z" />
    <glyph glyph-name="five.subs" horiz-adv-x="737" 
d="M369 330q125 0 198 -81.5t56 -201.5q-17 -127 -125 -211t-260 -84q-169 0 -297 96l159 215q66 -57 156 -57q43 0 68 15t28 36q3 17 -10.5 28t-38.5 11q-35 0 -59 -24l-226 67l111 475h514l-35 -245h-289l-8 -45q24 6 58 6z" />
    <glyph glyph-name="six.subs" horiz-adv-x="712" 
d="M410 324q105 0 167.5 -80.5t47.5 -194.5q-19 -128 -126.5 -212.5t-248.5 -84.5q-151 0 -228 102.5t-55 266.5q30 207 197.5 349t427.5 159l14 -246q-147 -6 -244 -64q20 5 48 5zM350 45q3 18 -13.5 30.5t-43.5 12.5q-26 0 -43.5 -14t-20.5 -31q-1 -17 15 -29t39 -12
q27 0 46.5 12t20.5 31z" />
    <glyph glyph-name="seven.subs" horiz-adv-x="669" 
d="M45 614h588l-29 -208l-358 -639h-299l340 598h-277z" />
    <glyph glyph-name="eight.subs" horiz-adv-x="763" 
d="M688 379q-15 -103 -113 -172q44 -35 64.5 -84t11.5 -105q-15 -113 -123.5 -189.5t-255.5 -76.5q-145 0 -231.5 76t-71.5 190q18 119 131 189q-78 69 -63 172q15 105 117 177.5t241 72.5q140 0 224 -72.5t69 -177.5zM303 350q-2 -14 12.5 -23.5t36.5 -9.5q23 0 40.5 9.5
t19.5 23.5q3 15 -11.5 25t-38.5 10q-22 0 -39 -10t-20 -25zM385 45q3 17 -16.5 29t-49.5 12q-28 0 -49 -12t-24 -29q-2 -18 15 -30.5t46 -12.5q31 0 53.5 13t24.5 30z" />
    <glyph glyph-name="nine.subs" horiz-adv-x="712" 
d="M369 629q151 0 228 -102.5t54 -266.5q-30 -211 -200.5 -356.5t-423.5 -151.5l-15 246q145 0 248 63q-36 -4 -51 -4q-105 0 -166.5 80t-46.5 195q19 128 126 212.5t247 84.5zM389 338q3 17 -12.5 29t-40.5 12t-45 -12.5t-23 -30.5q-1 -19 15.5 -31t42.5 -12t43.5 14
t19.5 31z" />
    <glyph glyph-name="zero.dnom" horiz-adv-x="808" 
d="M305 -14q-152 0 -230 122t-52 316q28 194 140.5 316t264.5 122t231.5 -122.5t51.5 -315.5q-26 -193 -140 -315.5t-266 -122.5zM342 240q32 0 58.5 52t37.5 132q12 80 -0.5 132t-44.5 52q-31 0 -58.5 -51.5t-39.5 -132.5q-10 -81 3 -132.5t44 -51.5z" />
    <glyph glyph-name="one.dnom" horiz-adv-x="538" 
d="M319 848h191l-119 -848h-266l76 530l-92 -49l-84 213z" />
    <glyph glyph-name="two.dnom" horiz-adv-x="667" 
d="M627 582q-18 -135 -138 -240l-106 -92h203l-35 -250h-580l31 217l270 244q78 70 82 104q1 15 -11.5 24t-33.5 9q-46 0 -125 -59l-153 174q58 68 146.5 108.5t184.5 40.5q136 0 209 -79t56 -201z" />
    <glyph glyph-name="three.dnom" horiz-adv-x="712" 
d="M670 616q-15 -112 -121 -178q102 -70 84 -196q-17 -115 -121 -185.5t-254 -70.5q-94 0 -179 31t-134 85l178 197q25 -26 67.5 -42.5t85.5 -16.5q38 0 63 11t26 30q3 20 -19 31.5t-59 11.5h-113l33 225h112q71 0 74 26q1 15 -21.5 24t-58.5 9q-68 0 -133 -28l-112 192
q59 40 145 65t168 25q144 0 224 -68.5t65 -177.5z" />
    <glyph glyph-name="four.dnom" horiz-adv-x="774" 
d="M694 848l-67 -477h59l-37 -250h-57l-17 -121h-266l17 121h-297l-31 217l401 510h295zM262 371h98l25 164z" />
    <glyph glyph-name="five.dnom" horiz-adv-x="737" 
d="M401 563q125 0 198 -81t56 -201q-17 -127 -125 -211t-260 -84q-169 0 -297 96l160 215q66 -57 156 -57q43 0 68 15t28 36q3 17 -10.5 28t-38.5 11q-35 0 -60 -25l-225 68l111 475h514l-35 -246h-289l-8 -45q24 6 57 6z" />
    <glyph glyph-name="six.dnom" horiz-adv-x="712" 
d="M442 557q105 0 167.5 -80t47.5 -194q-19 -128 -126.5 -212.5t-247.5 -84.5q-151 0 -228 102t-55 266q30 207 197.5 349t427.5 159l14 -246q-149 -6 -244 -63q16 4 47 4zM383 279q3 18 -13.5 30.5t-43.5 12.5q-26 0 -43.5 -14.5t-20.5 -31.5q-1 -17 14 -28.5t39 -11.5
q27 0 47 12.5t21 30.5z" />
    <glyph glyph-name="seven.dnom" horiz-adv-x="669" 
d="M78 848h588l-29 -209l-358 -639h-299l339 598h-276z" />
    <glyph glyph-name="eight.dnom" horiz-adv-x="763" 
d="M721 612q-15 -103 -113 -172q94 -74 76 -188q-15 -113 -123.5 -189.5t-255.5 -76.5q-145 0 -231.5 76t-71.5 190q18 117 131 188q-78 69 -63 172q15 105 117 177.5t241 72.5q140 0 224 -72.5t69 -177.5zM336 584q-2 -14 12.5 -23.5t36.5 -9.5q23 0 40 9.5t19 23.5
q3 15 -11 24.5t-38 9.5q-22 0 -39 -9.5t-20 -24.5zM418 279q3 17 -16.5 28.5t-49.5 11.5q-28 0 -49 -11.5t-24 -28.5q-2 -18 15 -30.5t46 -12.5q31 0 53.5 13t24.5 30z" />
    <glyph glyph-name="nine.dnom" horiz-adv-x="712" 
d="M401 862q151 0 228.5 -102t54.5 -266q-30 -211 -201 -356.5t-424 -151.5l-14 245q144 0 248 64q-36 -4 -51 -4q-105 0 -166.5 79.5t-46.5 194.5q19 128 125.5 212.5t246.5 84.5zM422 571q3 17 -12.5 29t-40.5 12t-45 -12.5t-23 -30.5q-1 -19 15 -31t42 -12t44 14.5
t20 30.5z" />
    <glyph glyph-name="zero.numr" horiz-adv-x="808" 
d="M385 551q-152 0 -230.5 122t-52.5 316q28 194 141 316t265 122t231.5 -122.5t51.5 -315.5q-26 -193 -140 -315.5t-266 -122.5zM422 805q32 0 58.5 52t37.5 132q12 80 -0.5 132.5t-44.5 52.5q-31 0 -58.5 -52t-39.5 -133q-10 -81 3 -132.5t44 -51.5z" />
    <glyph glyph-name="one.numr" horiz-adv-x="538" 
d="M399 1413h191l-119 -848h-266l76 531l-93 -49l-84 213z" />
    <glyph glyph-name="two.numr" horiz-adv-x="667" 
d="M707 1147q-18 -135 -138 -240l-106 -92h203l-35 -250h-580l31 217l270 244q78 70 82 104q1 15 -11.5 24t-33.5 9q-46 0 -125 -59l-153 174q58 68 146.5 108.5t184.5 40.5q136 0 209 -79t56 -201z" />
    <glyph glyph-name="three.numr" horiz-adv-x="712" 
d="M750 1182q-15 -112 -121 -178q102 -70 84 -197q-17 -115 -121 -185.5t-254 -70.5q-94 0 -179 31t-134 86l178 196q25 -26 67.5 -42.5t85.5 -16.5q38 0 62.5 11t25.5 30q3 20 -18.5 31.5t-58.5 11.5h-113l33 225h112q32 0 52 7.5t22 19.5q1 15 -21.5 24t-58.5 9
q-66 0 -133 -29l-113 192q59 40 145 65t169 25q144 0 224 -68t65 -177z" />
    <glyph glyph-name="four.numr" horiz-adv-x="774" 
d="M774 1413l-67 -477h59l-37 -250h-57l-17 -121h-266l17 121h-297l-31 217l401 510h295zM342 936h98l25 164z" />
    <glyph glyph-name="five.numr" horiz-adv-x="737" 
d="M481 1128q125 0 198 -81t56 -201q-17 -127 -125 -211t-260 -84q-169 0 -297 96l160 215q66 -57 156 -57q43 0 68 15t28 36q3 17 -10.5 28t-38.5 11q-35 0 -60 -25l-225 68l111 475h514l-35 -246h-289l-8 -45q24 6 57 6z" />
    <glyph glyph-name="six.numr" horiz-adv-x="712" 
d="M522 1122q105 0 167.5 -80t47.5 -194q-19 -128 -126.5 -212.5t-248.5 -84.5q-151 0 -227.5 102.5t-54.5 266.5q30 207 197.5 348.5t427.5 158.5l14 -245q-147 -6 -244 -64q16 4 47 4zM463 844q3 18 -13.5 30.5t-43.5 12.5q-26 0 -43.5 -14t-20.5 -31q-1 -17 14.5 -29
t38.5 -12q27 0 47 12.5t21 30.5z" />
    <glyph glyph-name="seven.numr" horiz-adv-x="669" 
d="M158 1413h587l-28 -209l-359 -639h-299l340 598h-276z" />
    <glyph glyph-name="eight.numr" horiz-adv-x="763" 
d="M801 1178q-15 -103 -113 -172q44 -35 64.5 -84t11.5 -105q-15 -113 -123.5 -189.5t-255.5 -76.5q-145 0 -231.5 76t-71.5 190q18 119 131 189q-78 69 -63 172q15 105 116.5 177t241.5 72t224 -72t69 -177zM416 1149q-2 -14 12.5 -23.5t36.5 -9.5q23 0 40 9.5t19 23.5
q3 15 -11.5 25t-37.5 10q-22 0 -39 -10t-20 -25zM498 844q3 17 -16.5 29t-49.5 12q-28 0 -49.5 -12t-24.5 -29q-2 -18 15.5 -30.5t46.5 -12.5q31 0 53.5 13t24.5 30z" />
    <glyph glyph-name="nine.numr" horiz-adv-x="712" 
d="M481 1427q151 0 228.5 -102t54.5 -266q-30 -211 -201 -356.5t-424 -151.5l-14 246q145 0 248 63q-36 -4 -51 -4q-105 0 -166.5 79.5t-46.5 194.5q19 128 125.5 212.5t246.5 84.5zM502 1137q3 17 -12.5 29t-40.5 12t-45 -12.5t-23 -30.5q-1 -19 15 -31t42 -12t44 14.5
t20 30.5z" />
    <glyph glyph-name="exclamdown.case" horiz-adv-x="602" 
d="M362 963q-103 0 -161 68t-43 169q14 101 91.5 169.5t180.5 68.5q102 0 161.5 -68t45.5 -170q-15 -101 -93.5 -169t-181.5 -68zM33 0l49 348l102 553h342l-53 -553l-49 -348h-391z" />
    <glyph glyph-name="questiondown.case" horiz-adv-x="1048" 
d="M621 963q-103 0 -161.5 68t-43.5 169q14 101 91.5 169.5t180.5 68.5q102 0 161.5 -68t45.5 -170q-15 -101 -93 -169t-181 -68zM465 -25q-207 0 -328 121t-96 293q11 77 52 144t92 112t101.5 83.5t87 74.5t40.5 67l4 31h389l-4 -31q-9 -66 -47.5 -125.5t-88 -102
t-98 -79.5t-84 -73t-39.5 -68q-5 -32 19 -51t74 -19q132 0 272 131l213 -260q-121 -119 -265 -183.5t-294 -64.5z" />
    <glyph glyph-name="periodcentered.case" horiz-adv-x="708" 
d="M346 461q-106 0 -167 71t-46 175q13 104 95 174.5t188 70.5q105 0 166 -70t47 -175q-15 -104 -96 -175t-187 -71z" />
    <glyph glyph-name="bullet.case" horiz-adv-x="790" 
d="M381 420q-123 0 -195 82t-53 205q17 123 111 204.5t217 81.5t195 -81.5t55 -204.5q-19 -123 -113 -205t-217 -82z" />
    <glyph glyph-name="asterisk.case" horiz-adv-x="804" 
d="M678 1077l70 -28l79 -43l-139 -193l-82 43l-51 49l2 -76l-12 -88h-223l12 88l22 74l-65 -47l-92 -43l-86 193l92 47l76 24l-68 29l-80 43l139 192l82 -43l52 -49l-3 76l13 88h223l-12 -88l-23 -74l66 47l92 43l86 -192l-92 -45z" />
    <glyph glyph-name="slash.case" horiz-adv-x="1144" 
d="M-127 -215l1079 1843h371l-1079 -1843h-371z" />
    <glyph glyph-name="backslash.case" horiz-adv-x="1144" 
d="M692 -215l-559 1843h371l559 -1843h-371z" />
    <glyph glyph-name="parenleft.case" horiz-adv-x="788" 
d="M326 -256q-109 173 -153 437t-7 526t155 525t275 437h371q-151 -173 -264 -436.5t-150 -525.5q-37 -264 2 -527t141 -436h-370z" />
    <glyph glyph-name="parenright.case" horiz-adv-x="788" 
d="M-125 -256q150 174 263.5 438t150.5 525q37 262 -3 525t-141 437h371q108 -174 152.5 -437.5t7.5 -524.5q-36 -261 -155 -524.5t-275 -438.5h-371z" />
    <glyph glyph-name="braceleft.case" horiz-adv-x="913" 
d="M778 1669h252l-49 -348h-104q-43 0 -73 -27t-36 -71l-45 -326q-9 -62 -52 -111.5t-110 -76.5q59 -28 87.5 -78t21.5 -113l-47 -328q-6 -45 15.5 -71.5t63.5 -26.5h105l-47 -348h-252q-148 0 -225.5 90.5t-57.5 239.5l49 346q8 53 -17.5 84t-76.5 31h-80l50 348h79
q51 0 85 30.5t42 83.5l47 342q22 149 124.5 239.5t250.5 90.5z" />
    <glyph glyph-name="braceright.case" horiz-adv-x="913" 
d="M786 883h80l-49 -348h-80q-51 0 -85 -31t-42 -84l-49 -346q-20 -149 -122.5 -239.5t-250.5 -90.5h-251l47 348h104q43 0 73 27t36 71l47 328q7 62 49.5 112.5t109.5 78.5q-59 26 -87 75.5t-19 112.5l45 326q6 44 -15.5 71t-64.5 27h-104l49 348h252q148 0 225 -90.5
t55 -239.5l-47 -342q-8 -53 17.5 -83.5t76.5 -30.5z" />
    <glyph glyph-name="bracketleft.case" horiz-adv-x="788" 
d="M856 1321h-205l-170 -1229h201l-47 -348h-584l271 1925h583z" />
    <glyph glyph-name="bracketright.case" horiz-adv-x="788" 
d="M207 1669h584l-271 -1925h-583l47 348h204l170 1229h-200z" />
    <glyph glyph-name="hyphen.case" horiz-adv-x="835" 
d="M109 530l49 357h622l-49 -357h-622z" />
    <glyph glyph-name="endash.case" horiz-adv-x="1245" 
d="M109 543l47 331h1032l-47 -331h-1032z" />
    <glyph glyph-name="emdash.case" horiz-adv-x="2187" 
d="M109 543l47 331h1974l-47 -331h-1974z" />
    <glyph glyph-name="guillemotleft.case" horiz-adv-x="1415" 
d="M858 1128l-342 -421l223 -422h-430l-221 422l340 421h430zM1454 1128l-342 -421l223 -422h-430l-221 422l340 421h430z" />
    <glyph glyph-name="guillemotright.case" horiz-adv-x="1415" 
d="M578 1128l221 -421l-340 -422h-430l340 422l-222 421h431zM1174 1128l221 -421l-340 -422h-430l340 422l-222 421h431z" />
    <glyph glyph-name="guilsinglleft.case" horiz-adv-x="819" 
d="M858 1128l-342 -421l223 -422h-430l-221 422l340 421h430z" />
    <glyph glyph-name="guilsinglright.case" horiz-adv-x="819" 
d="M578 1128l221 -421l-340 -422h-430l340 422l-222 421h431z" />
    <glyph glyph-name="plus.case" horiz-adv-x="1093" 
d="M1036 872l-47 -331h-272l-39 -275h-336l39 275h-272l47 331h272l39 275h336l-39 -275h272z" />
    <glyph glyph-name="at.case" horiz-adv-x="1687" 
d="M987 1475q160 0 294.5 -54t224 -147t131 -225.5t20.5 -282.5q-27 -195 -140.5 -311.5t-285.5 -116.5q-86 0 -156 29.5t-108 81.5q-82 -111 -228 -111t-226 104.5t-58 259.5q21 157 129 263t239 106q96 0 156 -63l6 39h297l-57 -410q-3 -29 12.5 -47.5t44.5 -18.5
q49 0 85 55t48 144q14 101 -14.5 189.5t-90.5 151t-154.5 98.5t-201.5 36q-155 0 -289.5 -70t-222 -193.5t-108.5 -276.5q-21 -151 31 -274t167.5 -194t272.5 -71q182 0 323 82l68 -213q-204 -98 -428 -98q-222 0 -387.5 100.5t-242 276.5t-46.5 391t156.5 391.5t321 277.5
t417.5 101zM836 621q36 0 65 22t37 55v11q3 35 -19.5 57t-58.5 22q-38 0 -68 -23.5t-34 -59.5q-5 -35 17.5 -59.5t60.5 -24.5z" />
    <glyph glyph-name="uni030C.alt" horiz-adv-x="0" 
d="M-309 971l112 504h330l-166 -504h-276z" />
    <glyph glyph-name="caron.alt" horiz-adv-x="372" 
d="M63 971l113 504h330l-166 -504h-277z" />
    </font>
</defs>
</svg>
