<?xml version="1.0" standalone="no"?>
<!DOCTYPE svg PUBLIC "-//W3C//DTD SVG 1.1//EN" "http://www.w3.org/Graphics/SVG/1.1/DTD/svg11.dtd" >
<svg xmlns="http://www.w3.org/2000/svg" xmlns:xlink="http://www.w3.org/1999/xlink" version="1.1">
<metadata>
Created by FontForge 20201107 at Sun Dec 27 21:40:41 2020
 By 
Copyright (c) 2020 by Adam Ladd. All rights reserved.
</metadata>
<defs>
<font id="Lufga-ThinItalic" horiz-adv-x="1382" >
  <font-face 
    font-family="Lufga Thin"
    font-weight="100"
    font-style="italic"
    font-stretch="normal"
    units-per-em="2048"
    panose-1="0 0 2 0 0 0 0 0 0 0"
    ascent="1597"
    descent="-451"
    x-height="1044"
    cap-height="1413"
    bbox="-1403 -451 2750 1815"
    underline-thickness="36"
    underline-position="-241"
    slope="-8"
    unicode-range="U+0020-FB02"
  />
<missing-glyph horiz-adv-x="1024" 
d="M840 1597v-2048h-650v2048h650zM682 1460h-338v-67h133v-76h-135v-68h340v68h-135v76h135v67zM547 1196h-205v-213h340v70h-135v143zM477 1126v-73h-67v73h67zM682 928h-340v-68h135v-76h-135v-67h205v143h135v68zM682 805h-68v-135h-272v-70h340v205zM682 555h-205v-115
h70v47h67v-96h-204v164h-68v-231h340v231zM682 201h-340v-232h340v232zM614 133v-96h-204v96h204zM682 -78h-340v-67h143l-143 -97v-67h340v67h-209l143 97h66v67z" />
    <glyph glyph-name="fi" unicode="fi" horiz-adv-x="1202" 
d="M414 1260q35 239 278 239q88 0 158 -39l-6 -47q-70 39 -152 39q-97 0 -154.5 -46t-74.5 -151l-29 -211h359l-9 -45h-358l-139 -999h-49l139 999h-221l6 45h221zM1126 1430q20 0 31.5 -14.5t9.5 -35.5q-3 -20 -19 -33.5t-36 -13.5t-31.5 13t-9.5 34q1 20 18 35t37 15z
M901 0l148 1044h49l-148 -1044h-49z" />
    <glyph glyph-name="fl" unicode="fl" horiz-adv-x="1202" 
d="M414 1260q35 239 278 239q88 0 158 -39l-6 -47q-70 39 -152 39q-97 0 -154.5 -46t-74.5 -151l-29 -211h359l-9 -45h-358l-139 -999h-49l139 999h-221l6 45h221zM1108 1475h49l-207 -1475h-49z" />
    <glyph glyph-name=".notdef" horiz-adv-x="1024" 
d="M840 1597v-2048h-650v2048h650zM682 1460h-338v-67h133v-76h-135v-68h340v68h-135v76h135v67zM547 1196h-205v-213h340v70h-135v143zM477 1126v-73h-67v73h67zM682 928h-340v-68h135v-76h-135v-67h205v143h135v68zM682 805h-68v-135h-272v-70h340v205zM682 555h-205v-115
h70v47h67v-96h-204v164h-68v-231h340v231zM682 201h-340v-232h340v232zM614 133v-96h-204v96h204zM682 -78h-340v-67h143l-143 -97v-67h340v67h-209l143 97h66v67z" />
    <glyph glyph-name=".null" horiz-adv-x="0" 
 />
    <glyph glyph-name="nonmarkingreturn" horiz-adv-x="682" 
 />
    <glyph glyph-name="space" unicode=" " horiz-adv-x="563" 
 />
    <glyph glyph-name="exclam" unicode="!" horiz-adv-x="462" 
d="M178 319l105 746l49 348h51l-49 -348l-107 -746h-49zM158 -8q-23 0 -36.5 16t-10.5 39q3 24 21 39.5t42 15.5q23 0 36 -15.5t11 -39.5q-5 -24 -22.5 -39.5t-40.5 -15.5z" />
    <glyph glyph-name="quotedbl" unicode="&#x22;" horiz-adv-x="724" 
d="M238 999l55 414h49l-59 -414h-45zM578 999l55 414h49l-59 -414h-45z" />
    <glyph glyph-name="numbersign" unicode="#" horiz-adv-x="1538" 
d="M1487 930h-285l-192 -447h307l-6 -43h-320l-190 -440h-49l190 440h-541l-190 -440h-49l190 440h-270l6 43h283l190 447h-303l4 43h318l190 440h49l-190 -440h540l191 440h51l-190 -440h270zM961 483l190 447h-541l-190 -447h541z" />
    <glyph glyph-name="dollar" unicode="$" horiz-adv-x="1095" 
d="M1038 1202q-37 66 -124.5 113t-200.5 53l-88 -623q38 -8 71 -17.5t78.5 -27t82 -38t73 -51.5t59.5 -67t34 -85t3 -105q-23 -153 -167 -253t-339 -105l-20 -139h-45l20 139q-136 6 -249 65t-179 158l39 37q57 -88 160 -146t235 -65l92 653q-59 12 -110.5 29.5t-106 48.5
t-91 70t-55.5 97t-9 128q23 150 156.5 245.5t316.5 100.5l20 139h45l-20 -139q120 -6 212 -54t144 -128zM256 1073q-8 -60 10 -110.5t50.5 -83.5t81.5 -59.5t92 -40.5t92 -25l86 614q-159 -5 -275.5 -87.5t-136.5 -207.5zM971 352q9 66 -13.5 121t-59.5 89t-94 62t-98 40.5
t-90 23.5l-90 -643q173 5 299 90t146 217z" />
    <glyph glyph-name="percent" unicode="%" horiz-adv-x="1638" 
d="M469 827q-131 0 -207 88t-57 218q19 131 118.5 218t229.5 87q132 0 206.5 -87t55.5 -218t-117.5 -218.5t-228.5 -87.5zM205 0l1222 1413h58l-1223 -1413h-57zM473 872q110 0 195 75.5t100 185.5q17 112 -46.5 186t-174.5 74q-109 0 -193.5 -74t-101.5 -186
q-15 -111 48 -186t173 -75zM1135 -25q-131 0 -206 88t-55 218q19 130 118.5 217.5t230.5 87.5t206 -87.5t56 -217.5q-19 -131 -118.5 -218.5t-231.5 -87.5zM1143 20q109 0 193.5 74.5t101.5 186.5q15 110 -48.5 185t-172.5 75q-110 0 -195 -75t-100 -185
q-17 -112 46.5 -186.5t174.5 -74.5z" />
    <glyph glyph-name="ampersand" unicode="&#x26;" horiz-adv-x="1308" 
d="M1278 625q-95 -220 -219 -361l213 -264h-68l-180 223q-234 -248 -514 -248q-206 0 -329.5 126t-96.5 317q10 67 39.5 127t67 104t94 86t105.5 70.5t114 60.5q-75 99 -106 175.5t-21 146.5q15 106 107.5 178t215.5 72q119 0 192 -72.5t58 -179.5q-7 -45 -31 -86
t-54.5 -71.5t-80.5 -62.5t-91 -53.5t-103 -50.5l-10 -4l452 -559q121 146 203 338zM428 1188q-9 -63 21.5 -133t105.5 -164l14 6q63 31 99 49.5t83.5 48.5t73.5 56t47.5 61t26.5 74q11 88 -48 147.5t-157 59.5q-101 0 -177.5 -59t-88.5 -146zM518 23q258 0 477 235l-465 576
q-80 -40 -137.5 -75.5t-116 -86t-94 -114t-45.5 -138.5q-24 -171 86.5 -284t294.5 -113z" />
    <glyph glyph-name="quotesingle" unicode="'" horiz-adv-x="382" 
d="M238 999l55 414h49l-59 -414h-45z" />
    <glyph glyph-name="parenleft" unicode="(" horiz-adv-x="593" 
d="M338 -389q-105 174 -146.5 437.5t-3.5 524.5q37 262 152.5 526t269.5 437h52q-154 -173 -268.5 -436.5t-151.5 -526.5q-38 -262 2.5 -525t144.5 -437h-51z" />
    <glyph glyph-name="parenright" unicode=")" horiz-adv-x="593" 
d="M-53 -389q153 174 268.5 437t153.5 525q37 261 -5 525t-145 438h51q105 -174 147 -438t5 -525q-38 -262 -154 -525.5t-270 -436.5h-51z" />
    <glyph glyph-name="asterisk" unicode="*" horiz-adv-x="778" 
d="M516 1186l21 -10l190 -119l-27 -35l-188 119l-16 14v-25l-35 -235h-39l33 235l6 27l-23 -16l-221 -119l-14 35l221 119l22 8l-20 10l-188 119l24 35l191 -119l16 -15v25l33 236h41l-35 -236l-8 -29l24 19l221 119l17 -35l-223 -119z" />
    <glyph glyph-name="plus" unicode="+" horiz-adv-x="1093" 
d="M965 627l-7 -45h-380l-54 -379h-47l53 379h-376l6 45h379l53 379h47l-53 -379h379z" />
    <glyph glyph-name="comma" unicode="," horiz-adv-x="434" 
d="M-29 -297l197 416h63l-215 -416h-45z" />
    <glyph glyph-name="hyphen" unicode="-" horiz-adv-x="835" 
d="M147 537l7 47h546l-8 -47h-545z" />
    <glyph glyph-name="period" unicode="." horiz-adv-x="423" 
d="M137 -8q-23 0 -36.5 16t-10.5 39q3 25 21 40t43 15q23 0 36.5 -15t10.5 -40q-3 -23 -21 -39t-43 -16z" />
    <glyph glyph-name="slash" unicode="/" horiz-adv-x="983" 
d="M-61 -307l1079 1843h51l-1079 -1843h-51z" />
    <glyph glyph-name="zero" unicode="0" horiz-adv-x="1343" 
d="M594 -25q-154 0 -261 92.5t-150 259t-13 380.5q29 213 119.5 380t224 259t287.5 92t261 -92t150.5 -258.5t14.5 -380.5q-30 -213 -121 -380t-224.5 -259.5t-287.5 -92.5zM602 27q209 0 367.5 189.5t201.5 490.5q41 300 -64 489.5t-312 189.5q-210 0 -369.5 -189.5
t-200.5 -489.5q-29 -198 9.5 -353.5t134.5 -241t233 -85.5z" />
    <glyph glyph-name="one" unicode="1" horiz-adv-x="710" 
d="M586 1413h35l-199 -1413h-51l188 1350l-383 -195l-16 43z" />
    <glyph glyph-name="two" unicode="2" horiz-adv-x="1107" 
d="M1034 1067q-13 -98 -72.5 -188t-168.5 -193l-672 -637h817l-8 -49h-893l6 39l711 676q102 99 157 180.5t68 171.5q21 141 -66 229t-239 88q-126 0 -237.5 -63.5t-188.5 -177.5l-37 28q83 123 208.5 195t264.5 72q174 0 273.5 -103.5t76.5 -267.5z" />
    <glyph glyph-name="three" unicode="3" horiz-adv-x="1187" 
d="M1110 1083q-17 -119 -108 -209.5t-222 -121.5q143 -34 220.5 -137t58.5 -242q-25 -171 -178 -284.5t-363 -113.5q-137 0 -253 52.5t-193 152.5l41 39q68 -94 175 -143t236 -49q188 0 323 99t157 251q22 149 -80 248.5t-273 99.5h-229l6 49h229q152 0 265.5 88t132.5 219
t-76 218t-260 87q-120 0 -230 -48t-184 -136l-33 33q89 98 209 150.5t248 52.5q188 0 295.5 -101t85.5 -254z" />
    <glyph glyph-name="four" unicode="4" horiz-adv-x="1196" 
d="M1118 428l-6 -49h-231l-54 -379h-51l53 379h-751l-10 41l909 993h49l-139 -985h231zM133 428h703l129 905z" />
    <glyph glyph-name="five" unicode="5" horiz-adv-x="1216" 
d="M1130 1364h-704l-150 -627q77 58 185.5 94.5t214.5 36.5q207 0 326.5 -127t93.5 -319q-26 -190 -188 -318.5t-376 -128.5q-142 0 -255 62t-185 174l39 39q64 -104 170.5 -163.5t237.5 -59.5q191 0 334.5 114t166.5 283t-83 282t-291 113q-107 0 -217 -40t-187 -105
l-41 18l168 721h750z" />
    <glyph glyph-name="six" unicode="6" horiz-adv-x="1132" 
d="M651 868q204 0 321.5 -126t92.5 -312q-28 -196 -188.5 -325.5t-380.5 -129.5q-233 0 -353.5 136.5t-85.5 382.5q22 160 106.5 314t211 277.5t292 216.5t345.5 136l6 -49q-325 -87 -555 -291.5t-322 -468.5q74 114 214.5 176.5t295.5 62.5zM1010 430q23 165 -83 276
t-292 111q-85 0 -169.5 -21.5t-162 -63.5t-132 -115.5t-67.5 -167.5q-27 -185 83.5 -303.5t320.5 -118.5q192 0 334.5 114t167.5 289z" />
    <glyph glyph-name="seven" unicode="7" horiz-adv-x="1083" 
d="M238 1413h890l-4 -39l-868 -1374h-61l862 1364h-826z" />
    <glyph glyph-name="eight" unicode="8" horiz-adv-x="1189" 
d="M1126 1075q-17 -120 -112.5 -213.5t-235.5 -130.5q144 -37 222 -136.5t59 -229.5q-23 -166 -178.5 -278t-364.5 -112q-207 0 -330 112t-100 278q20 131 124.5 230t258.5 136q-129 37 -198 130t-52 214q22 154 166.5 258.5t337.5 104.5q194 0 309.5 -104.5t93.5 -258.5z
M627 756q170 0 297 90.5t147 224.5q19 135 -82.5 225t-271.5 90t-297 -90t-146 -225q-20 -134 81.5 -224.5t271.5 -90.5zM1004 367q14 95 -31 172.5t-138 121.5t-214 44q-184 0 -321 -96.5t-159 -241.5q-20 -146 90 -243t295 -97t321.5 97t156.5 243z" />
    <glyph glyph-name="nine" unicode="9" horiz-adv-x="1132" 
d="M688 1438q233 0 353 -136t87 -382q-30 -216 -161 -414.5t-340.5 -341t-454.5 -189.5l-6 50q168 37 314 112t254 176.5t185.5 220t122.5 250.5q-72 -113 -214 -176t-296 -63q-204 0 -320.5 126t-90.5 312q26 196 186.5 325.5t380.5 129.5zM1079 965q27 186 -82 303.5
t-319 117.5q-193 0 -336 -114.5t-166 -288.5q-25 -165 81 -276t292 -111q85 0 169.5 21.5t161.5 64t131.5 116t67.5 167.5z" />
    <glyph glyph-name="colon" unicode=":" horiz-adv-x="444" 
d="M260 799q-23 0 -36.5 16t-10.5 39q5 24 22.5 39.5t40.5 15.5q24 0 38 -16t10 -39q-3 -23 -21 -39t-43 -16zM147 -8q-23 0 -36.5 16t-10.5 39q3 25 21 40t43 15q23 0 36.5 -15t10.5 -40q-3 -23 -21 -39t-43 -16z" />
    <glyph glyph-name="semicolon" unicode=";" horiz-adv-x="466" 
d="M289 799q-25 0 -38.5 16t-10.5 39q5 24 22.5 39.5t40.5 15.5q25 0 38.5 -16t8.5 -39q-3 -23 -20.5 -39t-40.5 -16zM-33 -297l197 416h63l-215 -416h-45z" />
    <glyph glyph-name="less" unicode="&#x3c;" horiz-adv-x="950" 
d="M870 977l-8 -49l-659 -322l569 -321l-6 -49l-612 348l6 45z" />
    <glyph glyph-name="equal" unicode="=" horiz-adv-x="1093" 
d="M174 731l6 45h803l-4 -45h-805zM133 434l6 45h805l-8 -45h-803z" />
    <glyph glyph-name="greater" unicode="&#x3e;" horiz-adv-x="950" 
d="M209 977l612 -348l-6 -45l-711 -348l9 49l657 321l-567 322z" />
    <glyph glyph-name="question" unicode="?" horiz-adv-x="976" 
d="M426 332l12 88q9 59 44 118.5t81.5 106.5t101 101.5t101.5 103t82.5 111t44.5 126.5q19 129 -65.5 215.5t-227.5 86.5q-120 0 -234.5 -64.5t-191.5 -169.5l-39 29q84 116 211 185t262 69q166 0 263 -99.5t75 -248.5q-10 -69 -46 -136t-83.5 -117.5t-102.5 -105t-102 -100
t-82 -101.5t-43 -110l-10 -88h-51zM403 -8q-23 0 -36.5 16t-10.5 39t22 39t42 16t36 -15.5t11 -39.5q-3 -23 -21 -39t-43 -16z" />
    <glyph glyph-name="at" unicode="@" horiz-adv-x="1746" 
d="M981 1286q206 0 361 -92.5t228 -255.5t46 -363q-25 -174 -107.5 -284.5t-193.5 -110.5q-80 0 -123 48t-33 126l4 35q-56 -100 -153.5 -158.5t-212.5 -58.5q-164 0 -256.5 109t-69.5 272t146 272t284 109q116 0 197.5 -59t111.5 -160l27 194h49l-78 -553q-8 -59 22.5 -95
t90.5 -36q87 0 155.5 98.5t90.5 251.5q25 187 -43 339.5t-212.5 239.5t-336.5 87q-193 0 -362.5 -89.5t-281 -247t-138.5 -351.5q-26 -194 41 -351.5t211 -247t337 -89.5q276 0 486 172l26 -39q-228 -178 -520 -178q-206 0 -360.5 95.5t-226.5 263.5t-44 374
q29 206 148.5 374t301.5 263.5t388 95.5zM809 219q136 0 241.5 87.5t133.5 221.5l6 50q11 134 -71 221.5t-218 87.5q-142 0 -249.5 -95.5t-129.5 -238.5q-20 -142 62 -238t225 -96z" />
    <glyph glyph-name="A" unicode="A" horiz-adv-x="1447" 
d="M1243 0l-131 440h-803l-254 -440h-57l817 1413h68l420 -1413h-60zM338 489h760l-256 869z" />
    <glyph glyph-name="B" unicode="B" horiz-adv-x="1245" 
d="M1159 1067q-17 -112 -91.5 -198.5t-172.5 -120.5q131 -26 199.5 -127.5t48.5 -241.5q-23 -162 -146.5 -270.5t-285.5 -108.5h-586l199 1413h534q149 0 235 -98.5t66 -247.5zM762 762q122 0 221.5 87t118.5 214q19 129 -54.5 215t-201.5 86h-475l-86 -602h477zM1087 383
q22 141 -59 236.5t-221 95.5h-528l-95 -666h529q141 0 248 95.5t126 238.5z" />
    <glyph glyph-name="C" unicode="C" horiz-adv-x="1564" 
d="M770 -25q-154 0 -282.5 56.5t-211.5 153.5t-120 232.5t-15 289.5q28 205 147 372.5t301 263t388 95.5q190 0 337.5 -85.5t225.5 -232.5l-49 -28q-70 137 -207 215.5t-315 78.5q-190 0 -357.5 -88.5t-278 -244t-136.5 -346.5q-27 -191 39.5 -347t209 -244.5t332.5 -88.5
q177 0 336 79t268 216l41 -29q-119 -147 -291 -232.5t-362 -85.5z" />
    <glyph glyph-name="D" unicode="D" horiz-adv-x="1554" 
d="M856 1413q200 0 349.5 -92t218.5 -253.5t42 -360.5q-28 -199 -143 -361t-290.5 -254t-375.5 -92h-532l199 1413h532zM1411 707q19 139 -14 260.5t-107 208.5t-188 137.5t-252 50.5h-479l-187 -1315h482q138 0 266 50.5t226.5 137.5t165.5 209t87 261z" />
    <glyph glyph-name="E" unicode="E" horiz-adv-x="1220" 
d="M1210 1364h-839l-90 -629h772l-9 -49h-770l-90 -637h850l-6 -49h-903l199 1413h893z" />
    <glyph glyph-name="F" unicode="F" horiz-adv-x="1155" 
d="M1180 1364h-809l-90 -639h716l-6 -49h-719l-94 -676h-53l199 1413h862z" />
    <glyph glyph-name="G" unicode="G" horiz-adv-x="1662" 
d="M948 694h633v-16q-28 -199 -143.5 -360t-292 -252t-377.5 -91q-154 0 -281.5 56.5t-210.5 153.5t-120 232.5t-15 289.5q28 205 147 372.5t301 263t388 95.5q191 0 338 -84.5t225 -231.5l-45 -30q-72 137 -209 215.5t-317 78.5q-190 0 -357.5 -88.5t-278 -244
t-136.5 -346.5q-27 -191 39.5 -347t209 -244.5t332.5 -88.5q180 0 340 79t267.5 221t136.5 318h-580z" />
    <glyph glyph-name="H" unicode="H" horiz-adv-x="1519" 
d="M1393 1413h53l-199 -1413h-53l96 686h-1016l-96 -686h-53l199 1413h53l-96 -678h1015z" />
    <glyph glyph-name="I" unicode="I" horiz-adv-x="450" 
d="M125 0l199 1413h53l-199 -1413h-53z" />
    <glyph glyph-name="J" unicode="J" horiz-adv-x="866" 
d="M246 -25q-126 0 -248 70l10 57q108 -75 244 -75q152 0 255 92t124 239l147 1055h53l-149 -1057q-23 -166 -145 -273.5t-291 -107.5z" />
    <glyph glyph-name="K" unicode="K" horiz-adv-x="1259" 
d="M1370 1413l-833 -690l651 -723h-74l-622 686l-246 -203l-68 -483h-53l199 1413h53l-121 -860l1040 860h74z" />
    <glyph glyph-name="L" unicode="L" horiz-adv-x="1120" 
d="M184 49h789l-6 -49h-842l199 1413h53z" />
    <glyph glyph-name="M" unicode="M" horiz-adv-x="1740" 
d="M1595 1413h72l-199 -1413h-53l193 1350l-748 -992h-29l-462 988l-191 -1346h-53l199 1413h73l463 -979z" />
    <glyph glyph-name="N" unicode="N" horiz-adv-x="1531" 
d="M1405 1413h53l-198 -1413h-64l-829 1339l-189 -1339h-53l199 1413h65l830 -1339z" />
    <glyph glyph-name="O" unicode="O" horiz-adv-x="1693" 
d="M770 -25q-154 0 -282.5 56.5t-211.5 153.5t-120 232.5t-15 289.5q28 205 147 372.5t301 263t388 95.5q205 0 359 -95.5t226 -263t44 -372.5q-29 -205 -148.5 -373t-301 -263.5t-386.5 -95.5zM778 27q142 0 275 52t235 142.5t172 216.5t90 269q27 191 -39.5 346.5
t-209 244t-332.5 88.5t-357.5 -88.5t-278 -244t-136.5 -346.5q-27 -191 39.5 -347t209 -244.5t332.5 -88.5z" />
    <glyph glyph-name="P" unicode="P" horiz-adv-x="1232" 
d="M856 1413q174 0 274.5 -116t75.5 -289t-158.5 -289.5t-306.5 -116.5h-479l-84 -602h-53l199 1413h532zM1153 1008q20 154 -66 255t-237 101h-479l-101 -713h480q151 0 265.5 101.5t137.5 255.5z" />
    <glyph glyph-name="Q" unicode="Q" horiz-adv-x="1693" 
d="M977 1438q205 0 359 -95.5t226 -263t44 -372.5q-27 -189 -131.5 -347t-262.5 -256l127 -227l-51 -31l-129 228q-184 -99 -389 -99q-154 0 -282.5 56.5t-211.5 153.5t-120 232.5t-15 289.5q28 205 147 372.5t301 263t388 95.5zM1550 707q27 191 -39.5 346.5t-209 244
t-332.5 88.5t-357.5 -88.5t-278 -244t-136.5 -346.5q-27 -191 39.5 -347t209 -244.5t332.5 -88.5q187 0 359 90l-129 227l53 33l129 -230q143 92 238.5 238t121.5 322z" />
    <glyph glyph-name="R" unicode="R" horiz-adv-x="1232" 
d="M1188 1028q-23 -164 -149.5 -274.5t-290.5 -110.5h-154l473 -643h-70l-473 643h-256l-90 -643h-53l199 1413h532q165 0 261 -110.5t71 -274.5zM371 1364l-97 -674h480q141 0 250 96t131 240q20 145 -62.5 241.5t-224.5 96.5h-477z" />
    <glyph glyph-name="S" unicode="S" horiz-adv-x="1185" 
d="M532 -25q-151 0 -277.5 60t-197.5 164l37 37q65 -93 182.5 -152t264.5 -59q188 0 324.5 91t156.5 234q6 41 -1 78t-21 65t-41 53.5t-50.5 43t-61 34.5t-62 26t-63.5 19.5t-54.5 14l-46.5 10.5q-63 13 -118 30t-115.5 48.5t-100.5 70.5t-62 99t-12 131q23 162 169 263.5
t345 101.5q134 0 239.5 -48.5t163.5 -134.5l-36 -34q-44 71 -145 119.5t-230 48.5q-175 0 -303.5 -88.5t-147.5 -225.5q-9 -64 13.5 -117.5t60.5 -86.5t95 -60t103.5 -40t100.5 -23q38 -7 73 -16t84 -26.5t89 -38t80.5 -52t66.5 -68t38.5 -87t4.5 -108.5
q-23 -164 -179.5 -270.5t-365.5 -106.5z" />
    <glyph glyph-name="T" unicode="T" horiz-adv-x="1218" 
d="M1272 1413l-6 -49h-514l-191 -1364h-53l192 1364h-512l7 49h1077z" />
    <glyph glyph-name="U" unicode="U" horiz-adv-x="1437" 
d="M641 -25q-156 0 -274 73t-172.5 201.5t-32.5 285.5l123 878h53l-123 -878q-32 -217 93 -362.5t343 -145.5q217 0 382 145.5t196 362.5l123 878h51l-123 -878q-34 -239 -217 -399.5t-422 -160.5z" />
    <glyph glyph-name="V" unicode="V" horiz-adv-x="1435" 
d="M1430 1413h57l-811 -1413h-64l-413 1413h59l397 -1352z" />
    <glyph glyph-name="W" unicode="W" horiz-adv-x="2119" 
d="M2105 1413h56l-666 -1413h-57l-262 1343l-641 -1343h-60l-266 1413h57l250 -1350l641 1350h55l265 -1350z" />
    <glyph glyph-name="X" unicode="X" horiz-adv-x="1445" 
d="M1477 1413l-689 -704l498 -709h-67l-474 674l-665 -674h-68l697 709l-490 704h68l467 -672l655 672h68z" />
    <glyph glyph-name="Y" unicode="Y" horiz-adv-x="1378" 
d="M1397 1413h59l-735 -852l-80 -561h-51l78 561l-496 852h64l466 -801z" />
    <glyph glyph-name="Z" unicode="Z" horiz-adv-x="1257" 
d="M1268 1413l-4 -39l-1162 -1325h990l-9 -49h-1056l6 39l1159 1325h-967l8 49h1035z" />
    <glyph glyph-name="bracketleft" unicode="[" horiz-adv-x="628" 
d="M686 1491h-299l-258 -1835h299l-8 -45h-348l272 1925h348z" />
    <glyph glyph-name="backslash" unicode="\" horiz-adv-x="983" 
d="M758 -307l-559 1843h51l559 -1843h-51z" />
    <glyph glyph-name="bracketright" unicode="]" horiz-adv-x="628" 
d="M223 1536h348l-272 -1925h-348l6 45h299l258 1835h-299z" />
    <glyph glyph-name="asciicircum" unicode="^" horiz-adv-x="798" 
d="M733 950h-53l-162 418l-278 -418h-54l312 463h51z" />
    <glyph glyph-name="underscore" unicode="_" horiz-adv-x="1124" 
d="M16 -260l7 43h872l-6 -43h-873z" />
    <glyph glyph-name="grave" unicode="`" horiz-adv-x="292" 
d="M334 1212l-205 228h74l188 -228h-57z" />
    <glyph glyph-name="a" unicode="a" 
d="M1227 1044h49l-148 -1044h-49l45 319q-79 -156 -227.5 -250t-323.5 -94q-153 0 -267 71.5t-166 196.5t-31 279q21 153 109 278.5t223 197t288 71.5q176 0 296.5 -94t156.5 -252zM586 25q213 0 374.5 140.5t192.5 352.5v4q29 214 -92 356t-334 142q-212 0 -374 -142
t-193 -356q-29 -214 92.5 -355.5t333.5 -141.5z" />
    <glyph glyph-name="b" unicode="b" 
d="M809 1069q152 0 266 -71.5t167 -197t32 -278.5t-110 -278.5t-224 -197t-287 -71.5q-176 0 -297 94.5t-155 252.5l-45 -322h-50l207 1475h49l-104 -752q77 157 225.5 251.5t325.5 94.5zM1221 522q20 140 -28 254.5t-152 179t-244 64.5q-141 0 -264 -64.5t-204 -179
t-100 -254.5q-20 -140 28 -254t152 -178.5t244 -64.5q214 0 376.5 142t191.5 355z" />
    <glyph glyph-name="c" unicode="c" horiz-adv-x="1230" 
d="M580 -25q-154 0 -269.5 71.5t-169 197t-32.5 278.5t110.5 278.5t225.5 197t290 71.5q152 0 265.5 -71t168.5 -193l-47 -25q-48 111 -152 175.5t-243 64.5q-213 0 -375.5 -142.5t-191.5 -355.5q-29 -214 92 -355.5t334 -141.5q138 0 261 64.5t204 174.5l41 -24
q-89 -122 -224 -193.5t-288 -71.5z" />
    <glyph glyph-name="d" unicode="d" 
d="M1286 1475h49l-207 -1475h-49l45 319q-79 -156 -227.5 -250t-323.5 -94q-153 0 -267 71.5t-166 196.5t-31 279q21 153 109 278.5t223 197t288 71.5q175 0 296 -94t157 -250zM586 25q207 0 366.5 134.5t196.5 338.5l6 45q22 206 -98.5 341.5t-329.5 135.5
q-212 0 -374 -142t-193 -356q-29 -214 92.5 -355.5t333.5 -141.5z" />
    <glyph glyph-name="e" unicode="e" horiz-adv-x="1290" 
d="M727 1069q151 0 264.5 -71.5t165.5 -197t31 -278.5q0 -8 -4 -20h-1026q-22 -207 102 -343t338 -136q141 0 267 63.5t206 171.5l35 -29q-92 -119 -227.5 -186.5t-288.5 -67.5q-157 0 -275 71.5t-172.5 197t-33.5 278.5t109 278.5t222.5 197t286.5 71.5zM719 1022
q-202 0 -360 -135.5t-195 -339.5h975q20 205 -98.5 340t-321.5 135z" />
    <glyph glyph-name="f" unicode="f" horiz-adv-x="774" 
d="M692 1452q-97 0 -154.5 -46t-74.5 -151l-29 -211h359l-9 -45h-358l-139 -999h-49l139 999h-221l6 45h221l31 216q35 239 278 239q88 0 158 -39l-6 -47q-70 39 -152 39z" />
    <glyph glyph-name="g" unicode="g" horiz-adv-x="1144" 
d="M1141 1151h71l-6 -47h-69q-71 0 -120.5 -42.5t-58.5 -111.5l-2 -18q102 -129 78 -309q-26 -189 -175.5 -317t-344.5 -128q-156 0 -264 84q-49 -21 -82 -65.5t-41 -96.5q-11 -75 38 -121.5t138 -46.5h445q138 0 214.5 -65.5t63.5 -173.5l-53 -6q12 89 -53 142.5t-183 53.5
h-444q-110 0 -170.5 57.5t-46.5 149.5q7 61 46.5 116.5t96.5 84.5q-61 61 -88 147t-12 185q26 191 175 318.5t345 127.5q169 0 281 -98q13 82 74 131t147 49zM981 623q25 169 -75 284t-273 115q-174 0 -307 -115t-156 -284t76 -283.5t272 -114.5t306.5 114.5t156.5 283.5z
" />
    <glyph glyph-name="h" unicode="h" horiz-adv-x="1288" 
d="M745 1069q203 0 310 -124t78 -327l-86 -618h-50l84 608q28 187 -68 299.5t-284 112.5q-187 0 -318.5 -105t-166.5 -284l-88 -631h-50l207 1475h49l-96 -680q69 130 194.5 202t284.5 72z" />
    <glyph glyph-name="i" unicode="i" horiz-adv-x="407" 
d="M317 1333q-20 0 -31.5 13t-9.5 34q1 20 18.5 35t37.5 15t31.5 -14.5t9.5 -35.5q-3 -20 -19.5 -33.5t-36.5 -13.5zM106 0l148 1044h49l-147 -1044h-50z" />
    <glyph glyph-name="j" unicode="j" horiz-adv-x="421" 
d="M332 1333q-21 0 -32.5 13t-8.5 34q1 20 18 35t37 15t31.5 -14.5t9.5 -35.5q-3 -20 -19 -33.5t-36 -13.5zM-106 -414q-64 0 -113 27l6 47q42 -27 107 -27q175 0 200 187l172 1224h49l-172 -1230q-17 -115 -83 -171.5t-166 -56.5z" />
    <glyph glyph-name="k" unicode="k" horiz-adv-x="1005" 
d="M1030 1044l-569 -503l436 -541h-68l-409 504l-221 -197l-43 -307h-50l207 1475h49l-155 -1104l756 673h67z" />
    <glyph glyph-name="l" unicode="l" horiz-adv-x="407" 
d="M106 0l207 1475h49l-206 -1475h-50z" />
    <glyph glyph-name="m" unicode="m" horiz-adv-x="1982" 
d="M1489 1069q183 0 277.5 -109.5t68.5 -291.5l-94 -668h-49l94 657q22 165 -63 264t-250 99q-169 0 -288 -99t-145 -262l-92 -659h-49l94 657q22 164 -63.5 263.5t-249.5 99.5q-161 0 -276 -88t-150 -238l-98 -694h-50l148 1044h49l-29 -210q62 111 172.5 173t249.5 62
q145 0 237 -72.5t111 -199.5q59 128 176 200t269 72z" />
    <glyph glyph-name="n" unicode="n" horiz-adv-x="1288" 
d="M745 1069q203 0 310 -124t78 -327l-86 -618h-50l84 608q28 187 -68 299.5t-284 112.5q-184 0 -315 -103.5t-168 -277.5l-90 -639h-50l148 1044h49l-35 -247q68 128 193 200t284 72z" />
    <glyph glyph-name="o" unicode="o" horiz-adv-x="1312" 
d="M580 -25q-154 0 -269.5 71.5t-169 197t-32.5 278.5t110.5 278.5t225.5 197t290 71.5q153 0 268 -71.5t168.5 -197t32.5 -278.5t-110 -278.5t-225 -197t-289 -71.5zM586 25q213 0 375.5 142t191.5 355q29 214 -92 356t-334 142t-375.5 -142.5t-191.5 -355.5
q-29 -214 92 -355.5t334 -141.5z" />
    <glyph glyph-name="p" unicode="p" 
d="M809 1069q152 0 266 -71.5t167 -197t32 -278.5t-110 -278.5t-224 -197t-287 -71.5q-176 0 -297 94.5t-155 252.5l-101 -711h-49l203 1433h49l-45 -319q79 156 227.5 250t323.5 94zM1221 522q20 140 -28 254.5t-152 179t-244 64.5q-141 0 -264 -64.5t-204 -179
t-100 -254.5q-20 -140 28 -254t152 -178.5t244 -64.5q214 0 376.5 142t191.5 355z" />
    <glyph glyph-name="q" unicode="q" 
d="M1227 1044h49l-203 -1433h-49l100 708q-79 -156 -227.5 -250t-323.5 -94q-153 0 -267 71.5t-166 196.5t-31 279q21 153 109 278.5t223 197t288 71.5q175 0 296 -94.5t157 -251.5zM586 25q211 0 371 137t194 346l4 24q25 210 -96.5 349t-331.5 139q-212 0 -374 -142
t-193 -356q-29 -214 92.5 -355.5t333.5 -141.5z" />
    <glyph glyph-name="r" unicode="r" horiz-adv-x="741" 
d="M739 1061h25l-6 -51h-27q-188 0 -320.5 -112t-170.5 -302l-84 -596h-50l148 1044h49l-39 -274q70 136 195 213.5t280 77.5z" />
    <glyph glyph-name="s" unicode="s" horiz-adv-x="989" 
d="M420 -25q-125 0 -221.5 45t-153.5 125l37 35q50 -74 139 -115.5t205 -41.5q145 0 251.5 66.5t121.5 172.5q5 33 -1.5 60.5t-18 48t-37 39t-47 30t-60 25t-64.5 20.5t-71 19q-67 18 -104.5 30t-90.5 37t-79 52t-43 71t-9 99q18 128 133.5 202t265.5 74q109 0 194 -39.5
t138 -109.5l-35 -37q-45 65 -123 102t-178 37q-132 0 -230.5 -62.5t-113.5 -160.5q-5 -34 1.5 -62.5t18.5 -49.5t38 -40t48 -31t61.5 -25.5t64.5 -20.5t71 -19q69 -18 104.5 -28.5t89.5 -35t79 -51t41 -70.5t8 -100q-18 -132 -140 -211.5t-290 -79.5z" />
    <glyph glyph-name="t" unicode="t" horiz-adv-x="808" 
d="M432 999l-108 -778q-14 -105 31 -150.5t143 -45.5q87 0 161 38l-6 -49q-80 -39 -168 -39q-245 0 -213 240l111 784h-221l6 45h221l43 304h49l-43 -304h361l-6 -45h-361z" />
    <glyph glyph-name="u" unicode="u" horiz-adv-x="1236" 
d="M541 -25q-203 0 -310 119.5t-79 315.5l90 634h49l-88 -628q-25 -177 69 -284t275 -107q182 0 308 107t149 284l90 628h49l-90 -634q-28 -196 -168.5 -315.5t-343.5 -119.5z" />
    <glyph glyph-name="v" unicode="v" horiz-adv-x="1161" 
d="M1122 1044h56l-641 -1044h-60l-346 1044h57l328 -989z" />
    <glyph glyph-name="w" unicode="w" horiz-adv-x="1806" 
d="M1763 1044h54l-547 -1044h-58l-243 987l-523 -987h-57l-252 1044h56l233 -993l524 993h56l241 -991z" />
    <glyph glyph-name="x" unicode="x" horiz-adv-x="1167" 
d="M1128 1044l-507 -520l366 -524h-63l-344 494l-486 -494h-63l516 524l-363 520h64l340 -489l479 489h61z" />
    <glyph glyph-name="y" unicode="y" horiz-adv-x="1161" 
d="M1122 1044h56l-816 -1318q-42 -69 -98.5 -104.5t-116.5 -35.5q-52 0 -101.5 26t-78.5 69l35 32q24 -36 62 -57t83 -21q101 0 175 111l155 248l-346 1050h57l326 -991z" />
    <glyph glyph-name="z" unicode="z" horiz-adv-x="1030" 
d="M981 1044l-6 -34l-864 -963h743l-6 -47h-813l8 35l862 962h-721l6 47h791z" />
    <glyph glyph-name="braceleft" unicode="{" horiz-adv-x="768" 
d="M686 1536h148l-9 -45h-137q-64 0 -114.5 -46t-59.5 -112l-88 -626q-8 -44 -37 -81.5t-67 -50.5q35 -15 54 -52.5t13 -80.5l-88 -628q-9 -66 28 -112t101 -46h137l-6 -45h-147q-82 0 -129 55.5t-35 138.5l88 631q6 50 -19.5 82.5t-74.5 32.5h-80l6 47h80q48 0 84.5 33
t42.5 82l88 628q12 83 75.5 139t145.5 56z" />
    <glyph glyph-name="bar" unicode="|" horiz-adv-x="528" 
d="M111 -389l272 1925h47l-272 -1925h-47z" />
    <glyph glyph-name="braceright" unicode="}" horiz-adv-x="768" 
d="M539 598h79l-6 -47h-80q-47 0 -82.5 -32.5t-43.5 -82.5l-89 -631q-12 -83 -75 -138.5t-146 -55.5h-145l6 45h137q64 0 114.5 46t59.5 112l90 628q6 44 35.5 81t69.5 52q-36 13 -56 51t-14 81l90 626q9 66 -29 112t-102 46h-137l8 45h146q83 0 130 -55.5t36 -139.5
l-91 -628q-6 -50 21 -82.5t74 -32.5z" />
    <glyph glyph-name="asciitilde" unicode="~" horiz-adv-x="1056" 
d="M705 496q-46 0 -83.5 19t-64 46.5t-51.5 55t-57.5 46.5t-71.5 19q-69 0 -123 -47t-64 -117h-47q14 91 80 151t156 60q46 0 83.5 -19t63.5 -46.5t50.5 -55t57 -46.5t71.5 -19q69 0 122.5 47t63.5 117h47q-14 -91 -79 -151t-154 -60z" />
    <glyph glyph-name="uni00A0" unicode="&#xa0;" horiz-adv-x="563" 
 />
    <glyph glyph-name="exclamdown" unicode="&#xa1;" horiz-adv-x="462" 
d="M291 942q-24 0 -37 15.5t-10 39.5q3 23 20.5 39.5t40.5 16.5q25 0 38.5 -16.5t8.5 -39.5q-1 -23 -19.5 -39t-41.5 -16zM82 -369l49 349l107 745h47l-103 -745l-49 -349h-51z" />
    <glyph glyph-name="cent" unicode="&#xa2;" horiz-adv-x="1288" 
d="M1171 967q-46 104 -142.5 168t-223.5 71l-141 -997q131 7 245 71.5t189 168.5l41 -23q-85 -116 -211.5 -186.5t-270.5 -77.5l-22 -162h-45l22 162q-150 4 -261.5 76.5t-163 196.5t-29.5 274q21 150 107.5 274t218.5 196t282 76l22 158h46l-23 -158q143 -7 249.5 -77.5
t158.5 -186.5zM209 709q-29 -209 88 -351.5t321 -148.5l142 997q-208 -6 -364 -147.5t-187 -349.5z" />
    <glyph glyph-name="sterling" unicode="&#xa3;" horiz-adv-x="1169" 
d="M819 1438q113 0 202.5 -50t145.5 -137l-37 -34q-114 169 -317 169q-160 0 -282 -104.5t-144 -261.5l-49 -344h500l-7 -47h-499l-80 -580h762l-8 -49h-977l6 49h162l79 580h-159l8 47h158l49 344q26 178 165.5 298t321.5 120z" />
    <glyph glyph-name="currency" unicode="&#xa4;" horiz-adv-x="1064" 
d="M1024 1085l-154 -133q74 -99 56 -245q-22 -145 -125 -244l117 -135l-37 -33l-117 135q-115 -88 -256 -88q-144 0 -232 88l-153 -135l-31 33l156 137q-74 99 -53 242q18 144 122 243l-116 135l37 33l116 -135q115 88 256 88q140 0 232 -86l155 135zM879 707
q19 137 -60 229t-215 92q-135 0 -239 -92.5t-123 -228.5q-20 -136 58.5 -228t213.5 -92q136 0 240.5 91.5t124.5 228.5z" />
    <glyph glyph-name="yen" unicode="&#xa5;" horiz-adv-x="1292" 
d="M1333 1413l-631 -819h310l-6 -45h-330l-27 -187h332l-6 -45h-332l-45 -317h-51l43 317h-330l6 45h332l25 187h-330l6 45h309l-401 819h63l389 -799l615 799h59z" />
    <glyph glyph-name="brokenbar" unicode="&#xa6;" horiz-adv-x="528" 
d="M264 696l119 840h47l-119 -840h-47zM111 -389l118 840h47l-118 -840h-47z" />
    <glyph glyph-name="section" unicode="&#xa7;" horiz-adv-x="1077" 
d="M688 1438q100 0 179.5 -34.5t127.5 -96.5l-32 -31q-41 56 -115 87.5t-164 31.5q-136 0 -235 -66.5t-113 -165.5q-12 -91 55 -152.5t213 -90.5q169 -32 247.5 -103t63.5 -180q-13 -102 -96.5 -178t-202.5 -101q246 -80 222 -266q-17 -126 -136.5 -208.5t-281.5 -82.5
q-203 0 -320 127l33 37q45 -56 121 -88.5t168 -32.5q141 0 246 71t118 177q13 93 -55.5 152.5t-226.5 93.5q-160 35 -235 108t-60 181q13 100 92.5 174.5t194.5 99.5q-117 36 -170 104t-41 156q17 120 132 198.5t271 78.5zM864 635q12 91 -57 151t-223 91
q-125 -3 -218 -73.5t-106 -174.5q-12 -92 53.5 -154t210.5 -92q131 2 229 74t111 178z" />
    <glyph glyph-name="dieresis" unicode="&#xa8;" horiz-adv-x="497" 
d="M152 1241q-22 0 -34 14.5t-9 36.5q1 20 18.5 34.5t38.5 14.5q22 0 34 -14.5t9 -34.5q-3 -22 -19 -36.5t-38 -14.5zM549 1241q-22 0 -34 14.5t-9 36.5q3 20 20 34.5t37 14.5q22 0 34 -14.5t9 -34.5q-3 -22 -19 -36.5t-38 -14.5z" />
    <glyph glyph-name="copyright" unicode="&#xa9;" horiz-adv-x="1740" 
d="M793 -25q-154 0 -281.5 56.5t-210.5 153.5t-120 232.5t-15 289.5q28 205 147 372.5t300 263t386 95.5t359 -95.5t226 -263t44 -372.5q-22 -154 -97.5 -289.5t-186 -232.5t-254 -153.5t-297.5 -56.5zM801 18q192 0 361 90t280.5 248t138.5 351q20 144 -14.5 272
t-112.5 219t-197.5 144t-263.5 53q-192 0 -361.5 -90t-281.5 -247.5t-139 -350.5t40.5 -351t212 -248t337.5 -90zM846 266q-186 0 -294.5 127t-82.5 314t170 313.5t330 126.5q124 0 216 -54t136 -147l-45 -20q-37 81 -119.5 128.5t-193.5 47.5q-167 0 -295.5 -113.5
t-151.5 -281.5q-25 -167 72 -281.5t264 -114.5q109 0 205.5 47.5t159.5 128.5l36 -20q-69 -92 -176.5 -146.5t-230.5 -54.5z" />
    <glyph glyph-name="ordfeminine" unicode="&#xaa;" horiz-adv-x="864" 
d="M801 1413h43l-78 -553h-43l20 144q-45 -74 -119.5 -118t-160.5 -44q-124 0 -195.5 84.5t-54.5 210.5q19 126 113.5 210.5t218.5 84.5q86 0 148 -44t87 -118zM475 883q106 0 189 73t98 181t-48 181t-169 73q-107 0 -189.5 -72.5t-97.5 -181.5t47.5 -181.5t169.5 -72.5z
" />
    <glyph glyph-name="guillemotleft" unicode="&#xab;" horiz-adv-x="1142" 
d="M621 950l-437 -409l322 -410h-64l-321 410l438 409h62zM1061 950l-436 -409l321 -410h-63l-324 410l438 409h64z" />
    <glyph glyph-name="logicalnot" unicode="&#xac;" horiz-adv-x="1093" 
d="M160 627h805l-62 -424h-47l53 379h-755z" />
    <glyph glyph-name="uni00AD" unicode="&#xad;" horiz-adv-x="835" 
d="M147 537l7 47h546l-8 -47h-545z" />
    <glyph glyph-name="registered" unicode="&#xae;" horiz-adv-x="980" 
d="M618 1438q157 0 246.5 -104t67.5 -261q-22 -155 -140.5 -258.5t-275.5 -103.5q-155 0 -244 103.5t-67 258.5q22 157 140 261t273 104zM895 1073q20 141 -60.5 235.5t-220.5 94.5q-139 0 -245.5 -94.5t-126.5 -235.5q-20 -140 60.5 -234t219.5 -94q138 0 245.5 94.5
t127.5 233.5zM649 1292q49 0 78 -33.5t21 -80.5q-6 -47 -44.5 -81t-85.5 -34h-24l125 -178h-43l-123 178h-74l-24 -178h-33l57 407h170zM715 1178q6 36 -14 60t-56 24h-137l-25 -168h138q36 0 63 24t31 60z" />
    <glyph glyph-name="macron" unicode="&#xaf;" horiz-adv-x="409" 
d="M104 1255l7 45h409l-6 -45h-410z" />
    <glyph glyph-name="degree" unicode="&#xb0;" horiz-adv-x="794" 
d="M453 918q-113 0 -177 74t-49 186q17 113 102 186.5t197 73.5t175.5 -73.5t48.5 -186.5q-17 -113 -101 -186.5t-196 -73.5zM459 963q92 0 161.5 61.5t81.5 153.5q13 92 -39 153.5t-143 61.5q-92 0 -162 -61.5t-84 -153.5q-12 -92 41 -153.5t144 -61.5z" />
    <glyph glyph-name="plusminus" unicode="&#xb1;" horiz-adv-x="1093" 
d="M600 735h379l-6 -45h-379l-39 -280h-49l41 280h-379l8 45h377l39 279h47zM98 190l6 46h805l-8 -46h-803z" />
    <glyph glyph-name="uni00B2" unicode="&#xb2;" horiz-adv-x="651" 
d="M690 1386q-7 -60 -42 -113t-101 -116l-385 -364h473l-6 -43h-539l4 34l420 398q60 58 92 104t39 100q12 81 -38.5 131t-137.5 50q-73 0 -137.5 -37.5t-110.5 -102.5l-33 25q53 75 129 117.5t160 42.5q105 0 165.5 -63.5t47.5 -162.5z" />
    <glyph glyph-name="uni00B3" unicode="&#xb3;" horiz-adv-x="661" 
d="M723 1399q-9 -67 -60.5 -122.5t-127.5 -78.5q82 -22 123.5 -81.5t31.5 -141.5q-15 -103 -106.5 -171.5t-218.5 -68.5q-84 0 -155 32t-116 91l31 33q40 -55 103.5 -83t138.5 -28q109 0 187.5 56.5t90.5 142.5t-48 143.5t-159 57.5h-135l6 39h135q89 0 156 50.5t76 125.5
q11 74 -45 123t-152 49q-68 0 -132 -27.5t-109 -77.5l-23 31q113 119 274 119q114 0 180 -60.5t54 -152.5z" />
    <glyph glyph-name="acute" unicode="&#xb4;" horiz-adv-x="292" 
d="M98 1212l250 228h76l-268 -228h-58z" />
    <glyph glyph-name="paragraph" unicode="&#xb6;" horiz-adv-x="1124" 
d="M1069 1413l-254 -1802h-47l248 1757h-211l-248 -1757h-45l141 999h-159q-172 0 -270.5 115t-73.5 287q23 170 154.5 285.5t301.5 115.5h463z" />
    <glyph glyph-name="periodcentered" unicode="&#xb7;" horiz-adv-x="401" 
d="M199 506q-24 0 -37.5 16t-9.5 39q1 23 19.5 39t43.5 16q23 0 36 -15.5t11 -39.5q-5 -24 -22.5 -39.5t-40.5 -15.5z" />
    <glyph glyph-name="cedilla" unicode="&#xb8;" horiz-adv-x="321" 
d="M78 -82q67 0 106.5 -47.5t28.5 -116.5q-9 -70 -64 -118t-126 -48q-51 0 -89.5 27.5t-52.5 71.5l35 20q11 -37 40.5 -59.5t70.5 -22.5q56 0 97.5 37t47.5 92q9 54 -21.5 90.5t-84.5 36.5q-51 0 -89 -33l-30 17l116 135v4h43v-4l-83 -92q27 10 55 10z" />
    <glyph glyph-name="uni00B9" unicode="&#xb9;" horiz-adv-x="425" 
d="M424 1597h31l-119 -847h-45l112 794l-221 -112l-16 34z" />
    <glyph glyph-name="ordmasculine" unicode="&#xba;" horiz-adv-x="847" 
d="M469 842q-127 0 -200 84.5t-56 210.5q19 126 115 210.5t223 84.5q126 0 200.5 -84.5t55.5 -210.5q-17 -126 -114.5 -210.5t-223.5 -84.5zM475 883q106 0 189 73t98 181t-48 181t-169 73q-107 0 -189.5 -72.5t-97.5 -181.5t47.5 -181.5t169.5 -72.5z" />
    <glyph glyph-name="guillemotright" unicode="&#xbb;" horiz-adv-x="1142" 
d="M264 950l324 -409l-438 -410h-62l438 410l-323 409h61zM705 950l323 -409l-438 -410h-62l439 410l-324 409h62z" />
    <glyph glyph-name="onequarter" unicode="&#xbc;" horiz-adv-x="1429" 
d="M1300 1413h56l-1219 -1413h-55zM379 1360l-221 -113l-17 35l258 131h31l-119 -848h-45zM1380 262l-6 -41h-133l-31 -221h-45l31 221h-442l-6 37l536 590h45l-82 -586h133zM799 262h403l74 522z" />
    <glyph glyph-name="onehalf" unicode="&#xbd;" horiz-adv-x="1519" 
d="M1300 1413h56l-1219 -1413h-55zM379 1360l-221 -113l-17 35l258 131h31l-119 -848h-45zM1454 637q-7 -60 -42 -113t-101 -116l-385 -365h473l-6 -43h-539l4 35l420 397q59 57 91.5 104t39.5 101q12 81 -38 130.5t-138 49.5q-73 0 -138 -37t-110 -102l-33 24
q53 75 129 117.5t160 42.5q105 0 165.5 -63t47.5 -162z" />
    <glyph glyph-name="threequarters" unicode="&#xbe;" horiz-adv-x="1583" 
d="M666 791q-15 -103 -107 -171.5t-219 -68.5q-84 0 -154.5 31.5t-115.5 91.5l30 33q40 -55 103.5 -83t138.5 -28q109 0 188 56.5t91 142.5t-48 143t-159 57h-135l6 39h135q89 0 155.5 50.5t75.5 125.5q11 74 -44.5 123t-151.5 49q-69 0 -133 -27t-109 -77l-23 31
q112 118 275 118q114 0 179.5 -60.5t53.5 -152.5q-9 -66 -60.5 -121.5t-127.5 -78.5q82 -22 124 -82t32 -141zM1454 1413h55l-1218 -1413h-55zM1534 262l-6 -41h-133l-31 -221h-45l31 221h-443l-6 37l537 590h45l-82 -586h133zM952 262h404l74 522z" />
    <glyph glyph-name="questiondown" unicode="&#xbf;" horiz-adv-x="956" 
d="M563 942q-23 0 -36.5 16t-10.5 39q3 24 21.5 40t42.5 16q23 0 36.5 -16.5t8.5 -39.5q-1 -23 -19.5 -39t-42.5 -16zM375 -393q-166 0 -263 99.5t-75 248.5q10 69 46 136t83.5 117.5t102.5 105t102 100t82 101.5t43 110l10 88h51l-12 -88q-10 -70 -57 -139.5t-108.5 -128.5
t-122.5 -119t-108.5 -133t-58.5 -148q-19 -129 65.5 -215t227.5 -86q120 0 234 64t192 169l39 -28q-84 -116 -211 -185t-262 -69z" />
    <glyph glyph-name="Agrave" unicode="&#xc0;" horiz-adv-x="1447" 
d="M915 1581h-57l-205 227h74zM1243 0l-131 440h-803l-254 -440h-57l817 1413h68l420 -1413h-60zM338 489h760l-256 869z" />
    <glyph glyph-name="Aacute" unicode="&#xc1;" horiz-adv-x="1447" 
d="M1155 1808l-268 -227h-58l250 227h76zM1243 0l-131 440h-803l-254 -440h-57l817 1413h68l420 -1413h-60zM338 489h760l-256 869z" />
    <glyph glyph-name="Acircumflex" unicode="&#xc2;" horiz-adv-x="1447" 
d="M901 1776l-217 -195h-51l239 227h66l176 -227h-51zM1243 0l-131 440h-803l-254 -440h-57l817 1413h68l420 -1413h-60zM338 489h760l-256 869z" />
    <glyph glyph-name="Atilde" unicode="&#xc3;" horiz-adv-x="1447" 
d="M750 1745q-56 0 -99.5 -38.5t-50.5 -96.5h-41q9 75 65 125.5t130 50.5q37 0 67.5 -15t52 -37t42 -44t48 -37t60.5 -15q57 0 100 39t50 97h43q-11 -76 -67 -127.5t-130 -51.5q-37 0 -67.5 15.5t-52 37.5t-42 44t-48 37.5t-60.5 15.5zM1243 0l-131 440h-803l-254 -440h-57
l817 1413h68l420 -1413h-60zM338 489h760l-256 869z" />
    <glyph glyph-name="Adieresis" unicode="&#xc4;" horiz-adv-x="1447" 
d="M678 1610q-22 0 -34 14.5t-9 36.5q1 20 18.5 34.5t38.5 14.5q22 0 34 -14.5t9 -34.5q-3 -22 -19 -36.5t-38 -14.5zM1075 1610q-22 0 -34 14.5t-9 36.5q3 20 20.5 34.5t37.5 14.5q22 0 34 -14.5t9 -34.5q-3 -22 -19.5 -36.5t-38.5 -14.5zM1243 0l-131 440h-803l-254 -440
h-57l817 1413h68l420 -1413h-60zM338 489h760l-256 869z" />
    <glyph glyph-name="Aring" unicode="&#xc5;" horiz-adv-x="1447" 
d="M866 1548q-57 0 -89.5 38t-24.5 95q7 57 51.5 95.5t101.5 38.5t90 -38.5t25 -95.5q-7 -57 -52 -95t-102 -38zM791 1681q-6 -41 17.5 -69.5t63.5 -28.5t72.5 28.5t36.5 69.5q6 43 -17.5 71t-64.5 28q-40 0 -71 -28t-37 -71zM1243 0l-131 440h-803l-254 -440h-57l817 1413
h68l420 -1413h-60zM338 489h760l-256 869z" />
    <glyph glyph-name="AE" unicode="&#xc6;" horiz-adv-x="1843" 
d="M1831 1364h-758l-90 -629h690l-6 -49h-690l-90 -637h770l-6 -49h-822l62 440h-588l-344 -440h-63l1105 1413h838zM342 489h557l121 869z" />
    <glyph glyph-name="Ccedilla" unicode="&#xc7;" horiz-adv-x="1564" 
d="M969 1386q-190 0 -357.5 -88.5t-278 -244t-136.5 -346.5q-27 -191 39.5 -347t209 -244.5t332.5 -88.5q177 0 336 79t268 216l41 -29q-118 -144 -286 -229.5t-353 -88.5l-63 -69q27 10 55 10q67 0 106.5 -47.5t28.5 -116.5q-9 -70 -64 -118t-126 -48q-51 0 -89 27.5
t-52 71.5l34 20q11 -37 40.5 -59.5t70.5 -22.5q56 0 97.5 37t47.5 92q9 54 -21.5 90.5t-84.5 36.5q-50 0 -88 -33l-31 17l98 112q-149 5 -271.5 63t-202 154.5t-114.5 230t-14 284.5q28 205 147 372.5t301 263t388 95.5q190 0 337.5 -85.5t225.5 -232.5l-49 -28
q-70 137 -207 215.5t-315 78.5z" />
    <glyph glyph-name="Egrave" unicode="&#xc8;" horiz-adv-x="1220" 
d="M846 1581h-58l-204 227h73zM1210 1364h-839l-90 -629h772l-9 -49h-770l-90 -637h850l-6 -49h-903l199 1413h893z" />
    <glyph glyph-name="Eacute" unicode="&#xc9;" horiz-adv-x="1220" 
d="M1085 1808l-268 -227h-57l250 227h75zM1210 1364h-839l-90 -629h772l-9 -49h-770l-90 -637h850l-6 -49h-903l199 1413h893z" />
    <glyph glyph-name="Ecircumflex" unicode="&#xca;" horiz-adv-x="1220" 
d="M831 1776l-217 -195h-51l240 227h65l176 -227h-51zM1210 1364h-839l-90 -629h772l-9 -49h-770l-90 -637h850l-6 -49h-903l199 1413h893z" />
    <glyph glyph-name="Edieresis" unicode="&#xcb;" horiz-adv-x="1220" 
d="M608 1610q-22 0 -34 14.5t-9 36.5q1 20 19 34.5t39 14.5q22 0 34 -14.5t9 -34.5q-3 -22 -19.5 -36.5t-38.5 -14.5zM1006 1610q-22 0 -34 14.5t-9 36.5q3 20 20 34.5t37 14.5q22 0 34 -14.5t9 -34.5q-3 -22 -19 -36.5t-38 -14.5zM1210 1364h-839l-90 -629h772l-9 -49h-770
l-90 -637h850l-6 -49h-903l199 1413h893z" />
    <glyph glyph-name="Igrave" unicode="&#xcc;" horiz-adv-x="450" 
d="M360 1581l-204 227h73l189 -227h-58zM125 0l199 1413h53l-199 -1413h-53z" />
    <glyph glyph-name="Iacute" unicode="&#xcd;" horiz-adv-x="450" 
d="M334 1581l250 227h75l-268 -227h-57zM125 0l199 1413h53l-199 -1413h-53z" />
    <glyph glyph-name="Icircumflex" unicode="&#xce;" horiz-adv-x="450" 
d="M616 1581h-51l-162 195l-217 -195h-51l240 227h65zM125 0l199 1413h53l-199 -1413h-53z" />
    <glyph glyph-name="Idieresis" unicode="&#xcf;" horiz-adv-x="450" 
d="M180 1610q-22 0 -34 14.5t-9 36.5q1 20 19 34.5t39 14.5q22 0 34 -14.5t9 -34.5q-3 -22 -19.5 -36.5t-38.5 -14.5zM578 1610q-22 0 -34 14.5t-9 36.5q3 20 20 34.5t37 14.5q22 0 34 -14.5t9 -34.5q-3 -22 -19 -36.5t-38 -14.5zM125 0l199 1413h53l-199 -1413h-53z" />
    <glyph glyph-name="Eth" unicode="&#xd0;" horiz-adv-x="1554" 
d="M856 1413q200 0 349.5 -92t218.5 -253.5t42 -360.5q-28 -199 -143 -361t-290.5 -254t-375.5 -92h-532l96 686h-158l5 41h159l97 686h532zM1411 707q19 139 -14 260.5t-107 208.5t-188 137.5t-252 50.5h-479l-90 -637h335l-6 -41h-336l-90 -637h482q138 0 266 50.5
t226.5 137.5t165.5 209t87 261z" />
    <glyph glyph-name="Ntilde" unicode="&#xd1;" horiz-adv-x="1531" 
d="M793 1745q-56 0 -99.5 -38.5t-50.5 -96.5h-41q9 75 65 125.5t130 50.5q37 0 67.5 -15t52 -37t42 -44t48 -37t60.5 -15q57 0 100 39t50 97h43q-11 -76 -67 -127.5t-130 -51.5q-37 0 -67.5 15.5t-52 37.5t-42 44t-48 37.5t-60.5 15.5zM1405 1413h53l-198 -1413h-64
l-829 1339l-189 -1339h-53l199 1413h65l830 -1339z" />
    <glyph glyph-name="Ograve" unicode="&#xd2;" horiz-adv-x="1693" 
d="M981 1581l-205 227h74l188 -227h-57zM770 -25q-154 0 -282.5 56.5t-211.5 153.5t-120 232.5t-15 289.5q28 205 147 372.5t301 263t388 95.5q205 0 359 -95.5t226 -263t44 -372.5q-29 -205 -148.5 -373t-301 -263.5t-386.5 -95.5zM778 27q142 0 275 52t235 142.5
t172 216.5t90 269q27 191 -39.5 346.5t-209 244t-332.5 88.5t-357.5 -88.5t-278 -244t-136.5 -346.5q-27 -191 39.5 -347t209 -244.5t332.5 -88.5z" />
    <glyph glyph-name="Oacute" unicode="&#xd3;" horiz-adv-x="1693" 
d="M952 1581l250 227h76l-268 -227h-58zM770 -25q-154 0 -282.5 56.5t-211.5 153.5t-120 232.5t-15 289.5q28 205 147 372.5t301 263t388 95.5q205 0 359 -95.5t226 -263t44 -372.5q-29 -205 -148.5 -373t-301 -263.5t-386.5 -95.5zM778 27q142 0 275 52t235 142.5
t172 216.5t90 269q27 191 -39.5 346.5t-209 244t-332.5 88.5t-357.5 -88.5t-278 -244t-136.5 -346.5q-27 -191 39.5 -347t209 -244.5t332.5 -88.5z" />
    <glyph glyph-name="Ocircumflex" unicode="&#xd4;" horiz-adv-x="1693" 
d="M1024 1776l-217 -195h-51l239 227h66l176 -227h-51zM977 1438q205 0 359 -95.5t226 -263t44 -372.5q-29 -205 -148.5 -373t-301 -263.5t-386.5 -95.5q-154 0 -282.5 56.5t-211.5 153.5t-120 232.5t-15 289.5q28 205 147 372.5t301 263t388 95.5zM1550 707
q27 191 -39.5 346.5t-209 244t-332.5 88.5t-357.5 -88.5t-278 -244t-136.5 -346.5q-27 -191 39.5 -347t209 -244.5t332.5 -88.5q142 0 275 52t235 142.5t172 216.5t90 269z" />
    <glyph glyph-name="Otilde" unicode="&#xd5;" horiz-adv-x="1693" 
d="M1143 1595q-37 0 -68 15.5t-52.5 37.5t-42 44t-48 37.5t-60.5 15.5q-56 0 -99 -38.5t-50 -96.5h-41q9 75 65 125.5t130 50.5q37 0 67.5 -15t52 -37t42 -44t48 -37t60.5 -15q57 0 99 38.5t50 97.5h43q-11 -76 -66.5 -127.5t-129.5 -51.5zM770 -25q-154 0 -282.5 56.5
t-211.5 153.5t-120 232.5t-15 289.5q28 205 147 372.5t301 263t388 95.5q205 0 359 -95.5t226 -263t44 -372.5q-29 -205 -148.5 -373t-301 -263.5t-386.5 -95.5zM778 27q142 0 275 52t235 142.5t172 216.5t90 269q27 191 -39.5 346.5t-209 244t-332.5 88.5t-357.5 -88.5
t-278 -244t-136.5 -346.5q-27 -191 39.5 -347t209 -244.5t332.5 -88.5z" />
    <glyph glyph-name="Odieresis" unicode="&#xd6;" horiz-adv-x="1693" 
d="M801 1610q-22 0 -34 14.5t-9 36.5q1 20 18.5 34.5t38.5 14.5q22 0 34 -14.5t9 -34.5q-3 -22 -19 -36.5t-38 -14.5zM1198 1610q-22 0 -34 14.5t-9 36.5q3 20 20 34.5t37 14.5q22 0 34 -14.5t9 -34.5q-3 -22 -19 -36.5t-38 -14.5zM770 -25q-154 0 -282.5 56.5t-211.5 153.5
t-120 232.5t-15 289.5q28 205 147 372.5t301 263t388 95.5q205 0 359 -95.5t226 -263t44 -372.5q-29 -205 -148.5 -373t-301 -263.5t-386.5 -95.5zM778 27q142 0 275 52t235 142.5t172 216.5t90 269q27 191 -39.5 346.5t-209 244t-332.5 88.5t-357.5 -88.5t-278 -244
t-136.5 -346.5q-27 -191 39.5 -347t209 -244.5t332.5 -88.5z" />
    <glyph glyph-name="multiply" unicode="&#xd7;" horiz-adv-x="892" 
d="M797 872l-305 -268l229 -268l-37 -33l-231 268l-303 -268l-31 33l305 268l-231 268l40 33l230 -268l305 268z" />
    <glyph glyph-name="Oslash" unicode="&#xd8;" horiz-adv-x="1693" 
d="M1636 1413l-178 -172q91 -100 130 -237.5t18 -296.5q-29 -205 -148.5 -373t-301 -263.5t-386.5 -95.5q-277 0 -453 168l-149 -143h-59l180 172q-92 100 -131.5 238t-16.5 297q28 205 147 372.5t301 263t388 95.5q274 0 450 -168l150 143h59zM197 707q-21 -146 14 -273
t119 -221l1056 1018q-161 155 -417 155q-190 0 -357.5 -88.5t-278 -244t-136.5 -346.5zM1550 707q21 146 -14 273.5t-119 221.5l-1059 -1018q160 -157 420 -157q142 0 275 52t235 142.5t172 216.5t90 269z" />
    <glyph glyph-name="Ugrave" unicode="&#xd9;" horiz-adv-x="1437" 
d="M854 1581l-205 227h74l188 -227h-57zM641 -25q-156 0 -274 73t-172.5 201.5t-32.5 285.5l123 878h53l-123 -878q-32 -217 93 -362.5t343 -145.5q217 0 382 145.5t196 362.5l123 878h51l-123 -878q-34 -239 -217 -399.5t-422 -160.5z" />
    <glyph glyph-name="Uacute" unicode="&#xda;" horiz-adv-x="1437" 
d="M825 1581l250 227h76l-268 -227h-58zM641 -25q-156 0 -274 73t-172.5 201.5t-32.5 285.5l123 878h53l-123 -878q-32 -217 93 -362.5t343 -145.5q217 0 382 145.5t196 362.5l123 878h51l-123 -878q-34 -239 -217 -399.5t-422 -160.5z" />
    <glyph glyph-name="Ucircumflex" unicode="&#xdb;" horiz-adv-x="1437" 
d="M897 1776l-217 -195h-51l239 227h66l176 -227h-51zM1352 1413h51l-123 -878q-34 -239 -217 -399.5t-422 -160.5q-156 0 -274 73t-172.5 201.5t-32.5 285.5l123 878h53l-123 -878q-32 -217 93 -362.5t343 -145.5q217 0 382 145.5t196 362.5z" />
    <glyph glyph-name="Udieresis" unicode="&#xdc;" horiz-adv-x="1437" 
d="M674 1610q-22 0 -34 14.5t-9 36.5q1 20 18.5 34.5t38.5 14.5q22 0 34 -14.5t9 -34.5q-3 -22 -19 -36.5t-38 -14.5zM1071 1610q-22 0 -34 14.5t-9 36.5q3 20 20 34.5t37 14.5q22 0 34 -14.5t9 -34.5q-3 -22 -19 -36.5t-38 -14.5zM641 -25q-156 0 -274 73t-172.5 201.5
t-32.5 285.5l123 878h53l-123 -878q-32 -217 93 -362.5t343 -145.5q217 0 382 145.5t196 362.5l123 878h51l-123 -878q-34 -239 -217 -399.5t-422 -160.5z" />
    <glyph glyph-name="Yacute" unicode="&#xdd;" horiz-adv-x="1378" 
d="M1122 1808l-268 -227h-57l250 227h75zM1397 1413h59l-735 -852l-80 -561h-51l78 561l-496 852h64l466 -801z" />
    <glyph glyph-name="Thorn" unicode="&#xde;" horiz-adv-x="1226" 
d="M815 1116q174 0 274.5 -116t75.5 -289t-157.5 -289.5t-305.5 -116.5h-481l-43 -305h-53l199 1413h53l-41 -297h479zM1110 711q22 153 -65 254.5t-238 101.5h-479l-101 -713h480q151 0 266 102t137 255z" />
    <glyph glyph-name="germandbls" unicode="&#xdf;" horiz-adv-x="1144" 
d="M1065 1145q-17 -119 -96 -211t-189 -125q133 -33 208 -148.5t52 -269.5q-25 -181 -160 -298.5t-325 -117.5q-117 0 -211 43l6 52q86 -45 209 -45q164 0 285.5 105t144.5 265q23 165 -71 276t-252 111h-138l7 49h137q123 0 223 90t119 222q20 131 -68 219t-235 88
q-156 0 -271 -99t-137 -249l-153 -1102h-50l154 1104q23 168 155.5 281.5t309.5 113.5q168 0 268.5 -102t77.5 -252z" />
    <glyph glyph-name="agrave" unicode="&#xe0;" 
d="M831 1212h-57l-205 228h74zM1227 1044h49l-148 -1044h-49l45 319q-79 -156 -227.5 -250t-323.5 -94q-153 0 -267 71.5t-166 196.5t-31 279q21 153 109 278.5t223 197t288 71.5q176 0 296.5 -94t156.5 -252zM586 25q213 0 374.5 140.5t192.5 352.5v4q29 214 -92 356
t-334 142q-212 0 -374 -142t-193 -356q-29 -214 92.5 -355.5t333.5 -141.5z" />
    <glyph glyph-name="aacute" unicode="&#xe1;" 
d="M1073 1440l-268 -228h-57l249 228h76zM1227 1044h49l-148 -1044h-49l45 319q-79 -156 -227.5 -250t-323.5 -94q-153 0 -267 71.5t-166 196.5t-31 279q21 153 109 278.5t223 197t288 71.5q176 0 296.5 -94t156.5 -252zM586 25q213 0 374.5 140.5t192.5 352.5v4
q29 214 -92 356t-334 142q-212 0 -374 -142t-193 -356q-29 -214 92.5 -355.5t333.5 -141.5z" />
    <glyph glyph-name="acircumflex" unicode="&#xe2;" 
d="M817 1407l-217 -195h-51l239 228h66l176 -228h-51zM1227 1044h49l-148 -1044h-49l45 319q-79 -156 -227.5 -250t-323.5 -94q-153 0 -267 71.5t-166 196.5t-31 279q21 153 109 278.5t223 197t288 71.5q176 0 296.5 -94t156.5 -252zM586 25q213 0 374.5 140.5t192.5 352.5
v4q29 214 -92 356t-334 142q-212 0 -374 -142t-193 -356q-29 -214 92.5 -355.5t333.5 -141.5z" />
    <glyph glyph-name="atilde" unicode="&#xe3;" 
d="M666 1376q-56 0 -99.5 -38.5t-50.5 -96.5h-41q9 75 65 125.5t130 50.5q37 0 67.5 -15t52 -36.5t42 -43.5t48 -37t60.5 -15q57 0 100 38.5t50 96.5h43q-11 -76 -67 -127t-130 -51q-37 0 -67.5 15.5t-52 37.5t-42 43.5t-48 37t-60.5 15.5zM1227 1044h49l-148 -1044h-49
l45 319q-79 -156 -227.5 -250t-323.5 -94q-153 0 -267 71.5t-166 196.5t-31 279q21 153 109 278.5t223 197t288 71.5q176 0 296.5 -94t156.5 -252zM586 25q213 0 374.5 140.5t192.5 352.5v4q29 214 -92 356t-334 142q-212 0 -374 -142t-193 -356q-29 -214 92.5 -355.5
t333.5 -141.5z" />
    <glyph glyph-name="adieresis" unicode="&#xe4;" 
d="M594 1241q-22 0 -34 14.5t-9 36.5q1 20 18.5 34.5t38.5 14.5q22 0 34 -14.5t9 -34.5q-3 -22 -19 -36.5t-38 -14.5zM991 1241q-22 0 -34 14.5t-9 36.5q3 20 20.5 34.5t37.5 14.5q22 0 34 -14.5t9 -34.5q-3 -22 -19.5 -36.5t-38.5 -14.5zM1227 1044h49l-148 -1044h-49
l45 319q-79 -156 -227.5 -250t-323.5 -94q-153 0 -267 71.5t-166 196.5t-31 279q21 153 109 278.5t223 197t288 71.5q176 0 296.5 -94t156.5 -252zM586 25q213 0 374.5 140.5t192.5 352.5v4q29 214 -92 356t-334 142q-212 0 -374 -142t-193 -356q-29 -214 92.5 -355.5
t333.5 -141.5z" />
    <glyph glyph-name="aring" unicode="&#xe5;" 
d="M782 1180q-57 0 -89.5 38t-24.5 95q7 57 51.5 95t101.5 38t90 -38t25 -95q-7 -57 -52 -95t-102 -38zM707 1313q-6 -41 17.5 -70t63.5 -29t72.5 29t36.5 70q6 43 -17.5 70.5t-64.5 27.5q-40 0 -71 -28t-37 -70zM1227 1044h49l-148 -1044h-49l45 319q-79 -156 -227.5 -250
t-323.5 -94q-153 0 -267 71.5t-166 196.5t-31 279q21 153 109 278.5t223 197t288 71.5q176 0 296.5 -94t156.5 -252zM586 25q213 0 374.5 140.5t192.5 352.5v4q29 214 -92 356t-334 142q-212 0 -374 -142t-193 -356q-29 -214 92.5 -355.5t333.5 -141.5z" />
    <glyph glyph-name="ae" unicode="&#xe6;" horiz-adv-x="2105" 
d="M1542 1069q151 0 264.5 -71.5t165.5 -197t31 -278.5q0 -8 -4 -20h-1026q-22 -206 101.5 -342.5t336.5 -136.5q141 0 267 63.5t206 171.5l35 -29q-90 -119 -225.5 -186.5t-288.5 -67.5q-160 0 -279.5 77t-171.5 208q-89 -123 -250.5 -204t-322.5 -81t-254 83.5t-76 209.5
q19 120 123 199.5t242 79.5h514l18 135q23 154 -69 247t-265 93q-125 0 -225 -48.5t-156 -133.5l-30 26q64 95 174 149t246 54q176 0 278 -88t100 -238q83 148 228 237t313 89zM1534 1022q-202 0 -360 -135.5t-195 -339.5h977q16 134 -33.5 243t-152 170.5t-236.5 61.5z
M393 23q151 0 306.5 79.5t240.5 200.5q-25 97 -14 199h-512q-120 0 -208 -66t-102 -166q-15 -106 67 -176.5t222 -70.5z" />
    <glyph glyph-name="ccedilla" unicode="&#xe7;" horiz-adv-x="1230" 
d="M727 1020q-213 0 -375.5 -142.5t-191.5 -355.5q-29 -214 92 -355.5t334 -141.5q138 0 261 64.5t204 174.5l41 -24q-88 -119 -219 -190.5t-279 -74.5l-64 -69q27 10 56 10q67 0 106.5 -47.5t28.5 -116.5q-9 -70 -64.5 -118t-126.5 -48q-51 0 -89 27.5t-52 71.5l35 20
q11 -37 40.5 -59.5t70.5 -22.5q56 0 97.5 37t47.5 92q9 54 -22 90.5t-85 36.5q-50 0 -88 -33l-30 17l98 112q-148 7 -256.5 79.5t-158 195t-29.5 272.5q21 153 110.5 278.5t225.5 197t290 71.5q152 0 265.5 -71t168.5 -193l-47 -25q-48 111 -152 175.5t-243 64.5z" />
    <glyph glyph-name="egrave" unicode="&#xe8;" horiz-adv-x="1290" 
d="M797 1212h-58l-204 228h73zM727 1069q151 0 264.5 -71.5t165.5 -197t31 -278.5q0 -8 -4 -20h-1026q-22 -207 102 -343t338 -136q141 0 267 63.5t206 171.5l35 -29q-92 -119 -227.5 -186.5t-288.5 -67.5q-157 0 -275 71.5t-172.5 197t-33.5 278.5t109 278.5t222.5 197
t286.5 71.5zM719 1022q-202 0 -360 -135.5t-195 -339.5h975q20 205 -98.5 340t-321.5 135z" />
    <glyph glyph-name="eacute" unicode="&#xe9;" horiz-adv-x="1290" 
d="M1036 1440l-268 -228h-57l250 228h75zM727 1069q151 0 264.5 -71.5t165.5 -197t31 -278.5q0 -8 -4 -20h-1026q-22 -207 102 -343t338 -136q141 0 267 63.5t206 171.5l35 -29q-92 -119 -227.5 -186.5t-288.5 -67.5q-157 0 -275 71.5t-172.5 197t-33.5 278.5t109 278.5
t222.5 197t286.5 71.5zM719 1022q-202 0 -360 -135.5t-195 -339.5h975q20 205 -98.5 340t-321.5 135z" />
    <glyph glyph-name="ecircumflex" unicode="&#xea;" horiz-adv-x="1290" 
d="M782 1407l-217 -195h-51l240 228h65l176 -228h-51zM727 1069q151 0 264.5 -71.5t165.5 -197t31 -278.5q0 -8 -4 -20h-1026q-22 -207 102 -343t338 -136q141 0 267 63.5t206 171.5l35 -29q-92 -119 -227.5 -186.5t-288.5 -67.5q-157 0 -275 71.5t-172.5 197t-33.5 278.5
t109 278.5t222.5 197t286.5 71.5zM719 1022q-202 0 -360 -135.5t-195 -339.5h975q20 205 -98.5 340t-321.5 135z" />
    <glyph glyph-name="edieresis" unicode="&#xeb;" horiz-adv-x="1290" 
d="M559 1241q-22 0 -34 14.5t-9 36.5q1 20 18.5 34.5t38.5 14.5q22 0 34 -14.5t9 -34.5q-3 -22 -19 -36.5t-38 -14.5zM956 1241q-22 0 -34 14.5t-9 36.5q3 20 20.5 34.5t37.5 14.5q22 0 34 -14.5t9 -34.5q-3 -22 -19.5 -36.5t-38.5 -14.5zM727 1069q151 0 264.5 -71.5
t165.5 -197t31 -278.5q0 -8 -4 -20h-1026q-22 -207 102 -343t338 -136q141 0 267 63.5t206 171.5l35 -29q-92 -119 -227.5 -186.5t-288.5 -67.5q-157 0 -275 71.5t-172.5 197t-33.5 278.5t109 278.5t222.5 197t286.5 71.5zM719 1022q-202 0 -360 -135.5t-195 -339.5h975
q20 205 -98.5 340t-321.5 135z" />
    <glyph glyph-name="igrave" unicode="&#xec;" horiz-adv-x="407" 
d="M287 1212l-205 228h74l188 -228h-57zM106 0l148 1044h49l-147 -1044h-50z" />
    <glyph glyph-name="iacute" unicode="&#xed;" horiz-adv-x="407" 
d="M258 1212l250 228h76l-269 -228h-57zM106 0l148 1044h49l-147 -1044h-50z" />
    <glyph glyph-name="icircumflex" unicode="&#xee;" horiz-adv-x="407" 
d="M543 1212h-51l-162 195l-217 -195h-52l240 228h66zM106 0l148 1044h49l-147 -1044h-50z" />
    <glyph glyph-name="idieresis" unicode="&#xef;" horiz-adv-x="407" 
d="M106 1241q-22 0 -34 14.5t-9 36.5q1 20 19 34.5t39 14.5q22 0 34 -14.5t9 -34.5q-3 -22 -19.5 -36.5t-38.5 -14.5zM504 1241q-22 0 -34 14.5t-9 36.5q3 20 20 34.5t37 14.5q22 0 34 -14.5t9 -34.5q-3 -22 -19 -36.5t-38 -14.5zM106 0l148 1044h49l-147 -1044h-50z" />
    <glyph glyph-name="eth" unicode="&#xf0;" horiz-adv-x="1308" 
d="M834 1352q211 -132 306.5 -353t59.5 -475q-21 -155 -110 -281t-224 -197t-288 -71q-233 0 -367 156t-102 389q21 152 109 277t222 196.5t285 71.5q143 0 252 -66t170 -186q-36 161 -127 291.5t-234 216.5l-161 -113h-62l191 131q-115 62 -246 88l6 50q164 -36 285 -105
l151 105h62zM1147 520q29 212 -91 354t-331 142q-212 0 -374 -142t-191 -354q-29 -213 91.5 -354t332.5 -141t373 141.5t190 353.5z" />
    <glyph glyph-name="ntilde" unicode="&#xf1;" horiz-adv-x="1288" 
d="M621 1376q-56 0 -99.5 -38.5t-50.5 -96.5h-41q9 75 65 125.5t130 50.5q37 0 67.5 -15t52 -36.5t42 -43.5t48 -37t60.5 -15q57 0 99.5 38.5t49.5 96.5h43q-11 -76 -66.5 -127t-129.5 -51q-37 0 -67.5 15.5t-52 37.5t-42 43.5t-48 37t-60.5 15.5zM745 1069q203 0 310 -124
t78 -327l-86 -618h-50l84 608q28 187 -68 299.5t-284 112.5q-184 0 -315 -103.5t-168 -277.5l-90 -639h-50l148 1044h49l-35 -247q68 128 193 200t284 72z" />
    <glyph glyph-name="ograve" unicode="&#xf2;" horiz-adv-x="1312" 
d="M739 1212l-204 228h73l189 -228h-58zM580 -25q-154 0 -269.5 71.5t-169 197t-32.5 278.5t110.5 278.5t225.5 197t290 71.5q153 0 268 -71.5t168.5 -197t32.5 -278.5t-110 -278.5t-225 -197t-289 -71.5zM586 25q213 0 375.5 142t191.5 355q29 214 -92 356t-334 142
t-375.5 -142.5t-191.5 -355.5q-29 -214 92 -355.5t334 -141.5z" />
    <glyph glyph-name="oacute" unicode="&#xf3;" horiz-adv-x="1312" 
d="M711 1212l250 228h75l-268 -228h-57zM580 -25q-154 0 -269.5 71.5t-169 197t-32.5 278.5t110.5 278.5t225.5 197t290 71.5q153 0 268 -71.5t168.5 -197t32.5 -278.5t-110 -278.5t-225 -197t-289 -71.5zM586 25q213 0 375.5 142t191.5 355q29 214 -92 356t-334 142
t-375.5 -142.5t-191.5 -355.5q-29 -214 92 -355.5t334 -141.5z" />
    <glyph glyph-name="ocircumflex" unicode="&#xf4;" horiz-adv-x="1312" 
d="M782 1407l-217 -195h-51l240 228h65l176 -228h-51zM735 1069q153 0 268 -71.5t168.5 -197t32.5 -278.5t-110 -278.5t-225 -197t-289 -71.5q-154 0 -269.5 71.5t-169 197t-32.5 278.5t110.5 278.5t225.5 197t290 71.5zM1153 522q29 214 -92 356t-334 142t-375.5 -142.5
t-191.5 -355.5q-29 -214 92 -355.5t334 -141.5t375.5 142t191.5 355z" />
    <glyph glyph-name="otilde" unicode="&#xf5;" horiz-adv-x="1312" 
d="M901 1227q-37 0 -67.5 15.5t-52 37.5t-42 43.5t-48 37t-60.5 15.5q-56 0 -99.5 -38.5t-50.5 -96.5h-41q9 75 65 125.5t130 50.5q37 0 67.5 -15t52 -36.5t42 -43.5t48 -37t60.5 -15q57 0 100 38.5t50 96.5h43q-11 -76 -67 -127t-130 -51zM580 -25q-154 0 -269.5 71.5
t-169 197t-32.5 278.5t110.5 278.5t225.5 197t290 71.5q153 0 268 -71.5t168.5 -197t32.5 -278.5t-110 -278.5t-225 -197t-289 -71.5zM586 25q213 0 375.5 142t191.5 355q29 214 -92 356t-334 142t-375.5 -142.5t-191.5 -355.5q-29 -214 92 -355.5t334 -141.5z" />
    <glyph glyph-name="odieresis" unicode="&#xf6;" horiz-adv-x="1312" 
d="M559 1241q-22 0 -34 14.5t-9 36.5q1 20 18.5 34.5t38.5 14.5q22 0 34 -14.5t9 -34.5q-3 -22 -19 -36.5t-38 -14.5zM956 1241q-22 0 -34 14.5t-9 36.5q3 20 20.5 34.5t37.5 14.5q22 0 34 -14.5t9 -34.5q-3 -22 -19.5 -36.5t-38.5 -14.5zM580 -25q-154 0 -269.5 71.5
t-169 197t-32.5 278.5t110.5 278.5t225.5 197t290 71.5q153 0 268 -71.5t168.5 -197t32.5 -278.5t-110 -278.5t-225 -197t-289 -71.5zM586 25q213 0 375.5 142t191.5 355q29 214 -92 356t-334 142t-375.5 -142.5t-191.5 -355.5q-29 -214 92 -355.5t334 -141.5z" />
    <glyph glyph-name="divide" unicode="&#xf7;" horiz-adv-x="1093" 
d="M592 842q-23 0 -35.5 14.5t-9.5 36.5q4 23 20.5 37t38.5 14t35 -14t10 -37q-5 -22 -21.5 -36.5t-37.5 -14.5zM154 584l6 43h805l-7 -43h-804zM510 266q-22 0 -34 14t-11 37q5 22 21.5 37t37.5 15q23 0 35.5 -15t9.5 -37q-3 -23 -20 -37t-39 -14z" />
    <glyph glyph-name="oslash" unicode="&#xf8;" horiz-adv-x="1312" 
d="M1227 1044l-131 -124q142 -159 108 -398q-21 -153 -110 -278.5t-225 -197t-289 -71.5q-210 0 -338 125l-105 -100h-51l131 125q-67 75 -96 177t-12 220q21 153 110.5 278.5t225.5 197t290 71.5q204 0 336 -123l103 98h53zM160 522q-30 -218 96 -360l776 747
q-121 111 -305 111q-213 0 -375.5 -142.5t-191.5 -355.5zM1153 522q30 219 -96 361l-776 -746q115 -112 305 -112q213 0 375.5 142t191.5 355z" />
    <glyph glyph-name="ugrave" unicode="&#xf9;" horiz-adv-x="1236" 
d="M702 1212l-204 228h73l189 -228h-58zM541 -25q-203 0 -310 119.5t-79 315.5l90 634h49l-88 -628q-25 -177 69 -284t275 -107q182 0 308 107t149 284l90 628h49l-90 -634q-28 -196 -168.5 -315.5t-343.5 -119.5z" />
    <glyph glyph-name="uacute" unicode="&#xfa;" horiz-adv-x="1236" 
d="M674 1212l250 228h75l-268 -228h-57zM541 -25q-203 0 -310 119.5t-79 315.5l90 634h49l-88 -628q-25 -177 69 -284t275 -107q182 0 308 107t149 284l90 628h49l-90 -634q-28 -196 -168.5 -315.5t-343.5 -119.5z" />
    <glyph glyph-name="ucircumflex" unicode="&#xfb;" horiz-adv-x="1236" 
d="M743 1407l-217 -195h-51l240 228h65l176 -228h-51zM1094 1044h49l-90 -634q-28 -196 -168.5 -315.5t-343.5 -119.5t-310 119.5t-79 315.5l90 634h49l-88 -628q-25 -177 69 -284t275 -107q182 0 308 107t149 284z" />
    <glyph glyph-name="udieresis" unicode="&#xfc;" horiz-adv-x="1236" 
d="M520 1241q-22 0 -34 14.5t-9 36.5q1 20 19 34.5t39 14.5q22 0 34 -14.5t9 -34.5q-3 -22 -19.5 -36.5t-38.5 -14.5zM918 1241q-22 0 -34.5 14.5t-9.5 36.5q3 20 20.5 34.5t37.5 14.5q22 0 34 -14.5t9 -34.5q-3 -22 -19 -36.5t-38 -14.5zM541 -25q-203 0 -310 119.5
t-79 315.5l90 634h49l-88 -628q-25 -177 69 -284t275 -107q182 0 308 107t149 284l90 628h49l-90 -634q-28 -196 -168.5 -315.5t-343.5 -119.5z" />
    <glyph glyph-name="yacute" unicode="&#xfd;" horiz-adv-x="1161" 
d="M963 1440l-269 -228h-57l250 228h76zM1122 1044h56l-816 -1318q-42 -69 -98.5 -104.5t-116.5 -35.5q-52 0 -101.5 26t-78.5 69l35 32q24 -36 62 -57t83 -21q101 0 175 111l155 248l-346 1050h57l326 -991z" />
    <glyph glyph-name="thorn" unicode="&#xfe;" 
d="M809 1069q152 0 266 -71.5t167 -197t32 -278.5t-110 -278.5t-224 -197t-287 -71.5q-176 0 -297 95.5t-155 253.5l-101 -713h-49l262 1864h49l-106 -752q79 157 227.5 251.5t325.5 94.5zM1221 522q20 140 -28 254.5t-152 179t-244 64.5q-141 0 -264 -64.5t-204 -179
t-100 -254.5q-20 -140 28 -254t152 -178.5t244 -64.5q214 0 376.5 142t191.5 355z" />
    <glyph glyph-name="ydieresis" unicode="&#xff;" horiz-adv-x="1161" 
d="M483 1241q-22 0 -34 14.5t-9 36.5q1 20 19 34.5t39 14.5q22 0 34 -14.5t9 -34.5q-3 -22 -19.5 -36.5t-38.5 -14.5zM881 1241q-22 0 -34 14.5t-9 36.5q3 20 20 34.5t37 14.5q22 0 34 -14.5t9 -34.5q-3 -22 -19 -36.5t-38 -14.5zM1122 1044h56l-816 -1318
q-42 -69 -98.5 -104.5t-116.5 -35.5q-52 0 -101.5 26t-78.5 69l35 32q24 -36 62 -57t83 -21q101 0 175 111l155 248l-346 1050h57l326 -991z" />
    <glyph glyph-name="Amacron" unicode="&#x100;" horiz-adv-x="1447" 
d="M1090 1669l-7 -45h-409l6 45h410zM1243 0l-131 440h-803l-254 -440h-57l817 1413h68l420 -1413h-60zM338 489h760l-256 869z" />
    <glyph glyph-name="amacron" unicode="&#x101;" 
d="M1008 1300l-7 -45h-409l6 45h410zM1227 1044h49l-148 -1044h-49l45 319q-79 -156 -227.5 -250t-323.5 -94q-153 0 -267 71.5t-166 196.5t-31 279q21 153 109 278.5t223 197t288 71.5q176 0 296.5 -94t156.5 -252zM586 25q213 0 374.5 140.5t192.5 352.5v4q29 214 -92 356
t-334 142q-212 0 -374 -142t-193 -356q-29 -214 92.5 -355.5t333.5 -141.5z" />
    <glyph glyph-name="Abreve" unicode="&#x102;" horiz-adv-x="1447" 
d="M868 1561q-95 0 -150.5 64t-43.5 159h45q-11 -78 34 -131.5t121 -53.5q77 0 138 53.5t71 131.5h43q-12 -95 -86.5 -159t-171.5 -64zM1243 0l-131 440h-803l-254 -440h-57l817 1413h68l420 -1413h-60zM338 489h760l-256 869z" />
    <glyph glyph-name="abreve" unicode="&#x103;" 
d="M784 1192q-95 0 -150.5 64t-43.5 159h45q-10 -78 34.5 -131t121.5 -53t137.5 53t70.5 131h43q-12 -95 -86.5 -159t-171.5 -64zM1227 1044h49l-148 -1044h-49l45 319q-79 -156 -227.5 -250t-323.5 -94q-153 0 -267 71.5t-166 196.5t-31 279q21 153 109 278.5t223 197
t288 71.5q176 0 296.5 -94t156.5 -252zM586 25q213 0 374.5 140.5t192.5 352.5v4q29 214 -92 356t-334 142q-212 0 -374 -142t-193 -356q-29 -214 92.5 -355.5t333.5 -141.5z" />
    <glyph glyph-name="Aogonek" unicode="&#x104;" horiz-adv-x="1447" 
d="M1161 -371q59 0 115 35l12 -35q-67 -41 -137 -41q-71 0 -112.5 48t-32.5 118q12 75 77 139.5t166 106.5h-6l-131 440h-803l-254 -440h-57l817 1413h68l420 -1413q-104 -44 -173 -107.5t-79 -132.5q-7 -57 24.5 -94t85.5 -37zM338 489h760l-256 869z" />
    <glyph glyph-name="aogonek" unicode="&#x105;" 
d="M1128 0q-104 -44 -172.5 -107.5t-78.5 -132.5q-7 -57 24.5 -94t85.5 -37q59 0 115 35l12 -35q-67 -41 -137 -41q-71 0 -113 48t-33 118q12 75 79 140t169 108l45 317q-79 -156 -227.5 -250t-323.5 -94q-153 0 -267 71.5t-166 196.5t-31 279q21 153 109 278.5t223 197
t288 71.5q176 0 296.5 -94t156.5 -252l45 321h49zM586 25q213 0 374.5 140.5t192.5 352.5v4q29 214 -92 356t-334 142q-212 0 -374 -142t-193 -356q-29 -214 92.5 -355.5t333.5 -141.5z" />
    <glyph glyph-name="Cacute" unicode="&#x106;" horiz-adv-x="1564" 
d="M952 1581l250 227h76l-268 -227h-58zM770 -25q-154 0 -282.5 56.5t-211.5 153.5t-120 232.5t-15 289.5q28 205 147 372.5t301 263t388 95.5q190 0 337.5 -85.5t225.5 -232.5l-49 -28q-70 137 -207 215.5t-315 78.5q-190 0 -357.5 -88.5t-278 -244t-136.5 -346.5
q-27 -191 39.5 -347t209 -244.5t332.5 -88.5q177 0 336 79t268 216l41 -29q-119 -147 -291 -232.5t-362 -85.5z" />
    <glyph glyph-name="cacute" unicode="&#x107;" horiz-adv-x="1230" 
d="M711 1212l250 228h75l-268 -228h-57zM580 -25q-154 0 -269.5 71.5t-169 197t-32.5 278.5t110.5 278.5t225.5 197t290 71.5q152 0 265.5 -71t168.5 -193l-47 -25q-48 111 -152 175.5t-243 64.5q-213 0 -375.5 -142.5t-191.5 -355.5q-29 -214 92 -355.5t334 -141.5
q138 0 261 64.5t204 174.5l41 -24q-89 -122 -224 -193.5t-288 -71.5z" />
    <glyph glyph-name="Ccircumflex" unicode="&#x108;" horiz-adv-x="1564" 
d="M1024 1776l-217 -195h-51l239 227h66l176 -227h-51zM969 1386q-190 0 -357.5 -88.5t-278 -244t-136.5 -346.5q-27 -191 39.5 -347t209 -244.5t332.5 -88.5q177 0 336 79t268 216l41 -29q-119 -147 -291 -232.5t-362 -85.5q-154 0 -282.5 56.5t-211.5 153.5t-120 232.5
t-15 289.5q28 205 147 372.5t301 263t388 95.5q190 0 337.5 -85.5t225.5 -232.5l-49 -28q-70 137 -207 215.5t-315 78.5z" />
    <glyph glyph-name="ccircumflex" unicode="&#x109;" horiz-adv-x="1230" 
d="M782 1407l-217 -195h-51l240 228h65l176 -228h-51zM727 1020q-213 0 -375.5 -142.5t-191.5 -355.5q-29 -214 92 -355.5t334 -141.5q138 0 261 64.5t204 174.5l41 -24q-89 -122 -224 -193.5t-288 -71.5q-154 0 -269.5 71.5t-169 197t-32.5 278.5t110.5 278.5t225.5 197
t290 71.5q152 0 265.5 -71t168.5 -193l-47 -25q-48 111 -152 175.5t-243 64.5z" />
    <glyph glyph-name="Cdotaccent" unicode="&#x10a;" horiz-adv-x="1564" 
d="M999 1610q-21 0 -33.5 15t-9.5 36q3 22 20.5 36.5t39.5 14.5q21 0 33 -14.5t10 -36.5q-3 -22 -20.5 -36.5t-39.5 -14.5zM770 -25q-154 0 -282.5 56.5t-211.5 153.5t-120 232.5t-15 289.5q28 205 147 372.5t301 263t388 95.5q190 0 337.5 -85.5t225.5 -232.5l-49 -28
q-70 137 -207 215.5t-315 78.5q-190 0 -357.5 -88.5t-278 -244t-136.5 -346.5q-27 -191 39.5 -347t209 -244.5t332.5 -88.5q177 0 336 79t268 216l41 -29q-119 -147 -291 -232.5t-362 -85.5z" />
    <glyph glyph-name="cdotaccent" unicode="&#x10b;" horiz-adv-x="1230" 
d="M758 1241q-21 0 -33.5 15t-9.5 36q3 22 20 36.5t39 14.5q21 0 33 -14.5t10 -36.5q-3 -22 -20 -36.5t-39 -14.5zM580 -25q-154 0 -269.5 71.5t-169 197t-32.5 278.5t110.5 278.5t225.5 197t290 71.5q152 0 265.5 -71t168.5 -193l-47 -25q-48 111 -152 175.5t-243 64.5
q-213 0 -375.5 -142.5t-191.5 -355.5q-29 -214 92 -355.5t334 -141.5q138 0 261 64.5t204 174.5l41 -24q-89 -122 -224 -193.5t-288 -71.5z" />
    <glyph glyph-name="Ccaron" unicode="&#x10c;" horiz-adv-x="1564" 
d="M1028 1581h-65l-177 227h52l161 -198l218 198h51zM969 1386q-190 0 -357.5 -88.5t-278 -244t-136.5 -346.5q-27 -191 39.5 -347t209 -244.5t332.5 -88.5q177 0 336 79t268 216l41 -29q-119 -147 -291 -232.5t-362 -85.5q-154 0 -282.5 56.5t-211.5 153.5t-120 232.5
t-15 289.5q28 205 147 372.5t301 263t388 95.5q190 0 337.5 -85.5t225.5 -232.5l-49 -28q-70 137 -207 215.5t-315 78.5z" />
    <glyph glyph-name="ccaron" unicode="&#x10d;" horiz-adv-x="1230" 
d="M786 1212h-65l-176 228h51l162 -199l217 199h51zM727 1020q-213 0 -375.5 -142.5t-191.5 -355.5q-29 -214 92 -355.5t334 -141.5q138 0 261 64.5t204 174.5l41 -24q-89 -122 -224 -193.5t-288 -71.5q-154 0 -269.5 71.5t-169 197t-32.5 278.5t110.5 278.5t225.5 197
t290 71.5q152 0 265.5 -71t168.5 -193l-47 -25q-48 111 -152 175.5t-243 64.5z" />
    <glyph glyph-name="Dcaron" unicode="&#x10e;" horiz-adv-x="1554" 
d="M940 1581h-66l-176 227h52l161 -198l217 198h52zM856 1413q200 0 349.5 -92t218.5 -253.5t42 -360.5q-28 -199 -143 -361t-290.5 -254t-375.5 -92h-532l199 1413h532zM1411 707q19 139 -14 260.5t-107 208.5t-188 137.5t-252 50.5h-479l-187 -1315h482q138 0 266 50.5
t226.5 137.5t165.5 209t87 261z" />
    <glyph glyph-name="dcaron" unicode="&#x10f;" horiz-adv-x="1454" 
d="M1180 719l106 756h49l-207 -1475h-49l45 326q-77 -159 -226.5 -255t-326.5 -96q-152 0 -265.5 71.5t-165.5 196.5t-31 279q21 153 109 278.5t222.5 197t286.5 71.5q176 0 297.5 -95.5t155.5 -254.5zM1536 1475h53l-106 -351h-39zM586 25q206 0 366 134.5t197 338.5l6 45
q22 206 -98.5 341.5t-329.5 135.5q-213 0 -375.5 -142.5t-191.5 -355.5q-29 -214 92 -355.5t334 -141.5z" />
    <glyph glyph-name="Dcroat" unicode="&#x110;" horiz-adv-x="1554" 
d="M856 1413q200 0 349.5 -92t218.5 -253.5t42 -360.5q-28 -199 -143 -361t-290.5 -254t-375.5 -92h-532l96 686h-158l5 41h159l97 686h532zM1411 707q19 139 -14 260.5t-107 208.5t-188 137.5t-252 50.5h-479l-90 -637h335l-6 -41h-336l-90 -637h482q138 0 266 50.5
t226.5 137.5t165.5 209t87 261z" />
    <glyph glyph-name="dcroat" unicode="&#x111;" 
d="M1483 1266l-6 -41h-177l-172 -1225h-49l45 319q-79 -156 -227.5 -250t-323.5 -94q-153 0 -267 71.5t-166 196.5t-31 279q21 153 109 278.5t223 197t288 71.5q175 0 296 -94t157 -250l69 500h-321l4 41h323l29 209h49l-28 -209h176zM586 25q207 0 366.5 134.5t196.5 338.5
l6 45q22 206 -98.5 341.5t-329.5 135.5q-212 0 -374 -142t-193 -356q-29 -214 92.5 -355.5t333.5 -141.5z" />
    <glyph glyph-name="Emacron" unicode="&#x112;" horiz-adv-x="1220" 
d="M1022 1669l-6 -45h-410l6 45h410zM1210 1364h-839l-90 -629h772l-9 -49h-770l-90 -637h850l-6 -49h-903l199 1413h893z" />
    <glyph glyph-name="emacron" unicode="&#x113;" horiz-adv-x="1290" 
d="M973 1300l-6 -45h-410l6 45h410zM727 1069q151 0 264.5 -71.5t165.5 -197t31 -278.5q0 -8 -4 -20h-1026q-22 -207 102 -343t338 -136q141 0 267 63.5t206 171.5l35 -29q-92 -119 -227.5 -186.5t-288.5 -67.5q-157 0 -275 71.5t-172.5 197t-33.5 278.5t109 278.5
t222.5 197t286.5 71.5zM719 1022q-202 0 -360 -135.5t-195 -339.5h975q20 205 -98.5 340t-321.5 135z" />
    <glyph glyph-name="Ebreve" unicode="&#x114;" horiz-adv-x="1220" 
d="M799 1561q-95 0 -151 64t-44 159h45q-11 -78 34.5 -131.5t121.5 -53.5q77 0 138 53.5t71 131.5h43q-12 -95 -86.5 -159t-171.5 -64zM1210 1364h-839l-90 -629h772l-9 -49h-770l-90 -637h850l-6 -49h-903l199 1413h893z" />
    <glyph glyph-name="ebreve" unicode="&#x115;" horiz-adv-x="1290" 
d="M750 1192q-95 0 -151 64t-44 159h45q-10 -78 34.5 -131t121.5 -53t138 53t71 131h43q-12 -95 -86.5 -159t-171.5 -64zM727 1069q151 0 264.5 -71.5t165.5 -197t31 -278.5q0 -8 -4 -20h-1026q-22 -207 102 -343t338 -136q141 0 267 63.5t206 171.5l35 -29
q-92 -119 -227.5 -186.5t-288.5 -67.5q-157 0 -275 71.5t-172.5 197t-33.5 278.5t109 278.5t222.5 197t286.5 71.5zM719 1022q-202 0 -360 -135.5t-195 -339.5h975q20 205 -98.5 340t-321.5 135z" />
    <glyph glyph-name="Edotaccent" unicode="&#x116;" horiz-adv-x="1220" 
d="M807 1610q-21 0 -33.5 15t-9.5 36q3 22 20 36.5t39 14.5q21 0 33 -14.5t10 -36.5q-3 -22 -20 -36.5t-39 -14.5zM1210 1364h-839l-90 -629h772l-9 -49h-770l-90 -637h850l-6 -49h-903l199 1413h893z" />
    <glyph glyph-name="edotaccent" unicode="&#x117;" horiz-adv-x="1290" 
d="M758 1241q-21 0 -33.5 15t-9.5 36q3 22 20 36.5t39 14.5q21 0 33 -14.5t10 -36.5q-3 -22 -20 -36.5t-39 -14.5zM727 1069q151 0 264.5 -71.5t165.5 -197t31 -278.5q0 -8 -4 -20h-1026q-22 -207 102 -343t338 -136q141 0 267 63.5t206 171.5l35 -29
q-92 -119 -227.5 -186.5t-288.5 -67.5q-157 0 -275 71.5t-172.5 197t-33.5 278.5t109 278.5t222.5 197t286.5 71.5zM719 1022q-202 0 -360 -135.5t-195 -339.5h975q20 205 -98.5 340t-321.5 135z" />
    <glyph glyph-name="Eogonek" unicode="&#x118;" horiz-adv-x="1220" 
d="M1210 1364h-839l-90 -629h772l-9 -49h-770l-90 -637h850l-6 -49h-8q-104 -44 -173 -107.5t-79 -132.5q-7 -57 25 -94t86 -37q58 0 114 35l13 -35q-67 -41 -138 -41t-112.5 48t-32.5 118q12 75 77.5 139.5t166.5 106.5h-842l199 1413h893z" />
    <glyph glyph-name="eogonek" unicode="&#x119;" horiz-adv-x="1290" 
d="M727 1069q151 0 264.5 -71.5t165.5 -197t31 -278.5q0 -8 -4 -20h-1026q-22 -207 102 -343t338 -136q141 0 267 63.5t206 171.5l35 -29q-92 -123 -244 -194q-211 -131 -229 -268q-9 -58 23.5 -97t88.5 -39q72 0 129 47l17 -32q-66 -56 -156 -56q-73 0 -115.5 49t-31.5 121
q17 126 164 236q-76 -21 -162 -21q-157 0 -275 71.5t-172.5 197t-33.5 278.5t109 278.5t222.5 197t286.5 71.5zM719 1022q-202 0 -360 -135.5t-195 -339.5h975q20 205 -98.5 340t-321.5 135z" />
    <glyph glyph-name="Ecaron" unicode="&#x11a;" horiz-adv-x="1220" 
d="M836 1581h-66l-176 227h51l162 -198l217 198h51zM1210 1364h-839l-90 -629h772l-9 -49h-770l-90 -637h850l-6 -49h-903l199 1413h893z" />
    <glyph glyph-name="ecaron" unicode="&#x11b;" horiz-adv-x="1290" 
d="M786 1212h-65l-176 228h51l162 -199l217 199h51zM727 1069q151 0 264.5 -71.5t165.5 -197t31 -278.5q0 -8 -4 -20h-1026q-22 -207 102 -343t338 -136q141 0 267 63.5t206 171.5l35 -29q-92 -119 -227.5 -186.5t-288.5 -67.5q-157 0 -275 71.5t-172.5 197t-33.5 278.5
t109 278.5t222.5 197t286.5 71.5zM719 1022q-202 0 -360 -135.5t-195 -339.5h975q20 205 -98.5 340t-321.5 135z" />
    <glyph glyph-name="Gcircumflex" unicode="&#x11c;" horiz-adv-x="1662" 
d="M1024 1776l-217 -195h-51l239 227h66l176 -227h-51zM948 694h633v-16q-28 -199 -143.5 -360t-292 -252t-377.5 -91q-154 0 -281.5 56.5t-210.5 153.5t-120 232.5t-15 289.5q28 205 147 372.5t301 263t388 95.5q191 0 338 -84.5t225 -231.5l-45 -30q-72 137 -209 215.5
t-317 78.5q-190 0 -357.5 -88.5t-278 -244t-136.5 -346.5q-27 -191 39.5 -347t209 -244.5t332.5 -88.5q180 0 340 79t267.5 221t136.5 318h-580z" />
    <glyph glyph-name="gcircumflex" unicode="&#x11d;" horiz-adv-x="1144" 
d="M721 1407l-217 -195h-51l239 228h66l176 -228h-51zM1141 1151h71l-6 -47h-69q-71 0 -120.5 -42.5t-58.5 -111.5l-2 -18q102 -129 78 -309q-26 -189 -175.5 -317t-344.5 -128q-156 0 -264 84q-49 -21 -82 -65.5t-41 -96.5q-11 -75 38 -121.5t138 -46.5h445
q138 0 214.5 -65.5t63.5 -173.5l-53 -6q12 89 -53 142.5t-183 53.5h-444q-110 0 -170.5 57.5t-46.5 149.5q7 61 46.5 116.5t96.5 84.5q-61 61 -88 147t-12 185q26 191 175 318.5t345 127.5q169 0 281 -98q13 82 74 131t147 49zM981 623q25 169 -75 284t-273 115
q-174 0 -307 -115t-156 -284t76 -283.5t272 -114.5t306.5 114.5t156.5 283.5z" />
    <glyph glyph-name="Gbreve" unicode="&#x11e;" horiz-adv-x="1662" 
d="M991 1561q-95 0 -150.5 64t-43.5 159h45q-11 -78 34 -131.5t121 -53.5q77 0 138 53.5t71 131.5h43q-12 -95 -86.5 -159t-171.5 -64zM948 694h633v-16q-28 -199 -143.5 -360t-292 -252t-377.5 -91q-154 0 -281.5 56.5t-210.5 153.5t-120 232.5t-15 289.5q28 205 147 372.5
t301 263t388 95.5q191 0 338 -84.5t225 -231.5l-45 -30q-72 137 -209 215.5t-317 78.5q-190 0 -357.5 -88.5t-278 -244t-136.5 -346.5q-27 -191 39.5 -347t209 -244.5t332.5 -88.5q180 0 340 79t267.5 221t136.5 318h-580z" />
    <glyph glyph-name="gbreve" unicode="&#x11f;" horiz-adv-x="1144" 
d="M688 1192q-95 0 -150.5 64t-43.5 159h45q-11 -78 34 -131t121 -53q77 0 138 53t71 131h43q-12 -95 -86.5 -159t-171.5 -64zM1141 1151h71l-6 -47h-69q-71 0 -120.5 -42.5t-58.5 -111.5l-2 -18q102 -129 78 -309q-26 -189 -175.5 -317t-344.5 -128q-156 0 -264 84
q-49 -21 -82 -65.5t-41 -96.5q-11 -75 38 -121.5t138 -46.5h445q138 0 214.5 -65.5t63.5 -173.5l-53 -6q12 89 -53 142.5t-183 53.5h-444q-110 0 -170.5 57.5t-46.5 149.5q7 61 46.5 116.5t96.5 84.5q-61 61 -88 147t-12 185q26 191 175 318.5t345 127.5q169 0 281 -98
q13 82 74 131t147 49zM981 623q25 169 -75 284t-273 115q-174 0 -307 -115t-156 -284t76 -283.5t272 -114.5t306.5 114.5t156.5 283.5z" />
    <glyph glyph-name="Gdotaccent" unicode="&#x120;" horiz-adv-x="1662" 
d="M999 1610q-21 0 -33.5 15t-9.5 36q3 22 20.5 36.5t39.5 14.5q21 0 33 -14.5t10 -36.5q-3 -22 -20.5 -36.5t-39.5 -14.5zM948 694h633v-16q-28 -199 -143.5 -360t-292 -252t-377.5 -91q-154 0 -281.5 56.5t-210.5 153.5t-120 232.5t-15 289.5q28 205 147 372.5t301 263
t388 95.5q191 0 338 -84.5t225 -231.5l-45 -30q-72 137 -209 215.5t-317 78.5q-190 0 -357.5 -88.5t-278 -244t-136.5 -346.5q-27 -191 39.5 -347t209 -244.5t332.5 -88.5q180 0 340 79t267.5 221t136.5 318h-580z" />
    <glyph glyph-name="gdotaccent" unicode="&#x121;" horiz-adv-x="1144" 
d="M696 1241q-21 0 -33.5 15t-9.5 36q3 22 20.5 36.5t39.5 14.5q21 0 33 -14.5t10 -36.5q-3 -22 -20.5 -36.5t-39.5 -14.5zM1141 1151h71l-6 -47h-69q-71 0 -120.5 -42.5t-58.5 -111.5l-2 -18q102 -129 78 -309q-26 -189 -175.5 -317t-344.5 -128q-156 0 -264 84
q-49 -21 -82 -65.5t-41 -96.5q-11 -75 38 -121.5t138 -46.5h445q138 0 214.5 -65.5t63.5 -173.5l-53 -6q12 89 -53 142.5t-183 53.5h-444q-110 0 -170.5 57.5t-46.5 149.5q7 61 46.5 116.5t96.5 84.5q-61 61 -88 147t-12 185q26 191 175 318.5t345 127.5q169 0 281 -98
q13 82 74 131t147 49zM981 623q25 169 -75 284t-273 115q-174 0 -307 -115t-156 -284t76 -283.5t272 -114.5t306.5 114.5t156.5 283.5z" />
    <glyph glyph-name="uni0122" unicode="&#x122;" horiz-adv-x="1662" 
d="M948 694h633v-16q-28 -199 -143.5 -360t-292 -252t-377.5 -91q-154 0 -281.5 56.5t-210.5 153.5t-120 232.5t-15 289.5q28 205 147 372.5t301 263t388 95.5q191 0 338 -84.5t225 -231.5l-45 -30q-72 137 -209 215.5t-317 78.5q-190 0 -357.5 -88.5t-278 -244
t-136.5 -346.5q-27 -191 39.5 -347t209 -244.5t332.5 -88.5q180 0 340 79t267.5 221t136.5 318h-580zM649 -432l92 268h58l-109 -268h-41z" />
    <glyph glyph-name="uni0123" unicode="&#x123;" horiz-adv-x="1144" 
d="M782 1462l-92 -270h-57l106 270h43zM1141 1151h71l-6 -47h-69q-71 0 -120.5 -42.5t-58.5 -111.5l-2 -18q102 -129 78 -309q-26 -189 -175.5 -317t-344.5 -128q-156 0 -264 84q-49 -21 -82 -65.5t-41 -96.5q-11 -75 38 -121.5t138 -46.5h445q138 0 214.5 -65.5
t63.5 -173.5l-53 -6q12 89 -53 142.5t-183 53.5h-444q-110 0 -170.5 57.5t-46.5 149.5q7 61 46.5 116.5t96.5 84.5q-61 61 -88 147t-12 185q26 191 175 318.5t345 127.5q169 0 281 -98q13 82 74 131t147 49zM981 623q25 169 -75 284t-273 115q-174 0 -307 -115t-156 -284
t76 -283.5t272 -114.5t306.5 114.5t156.5 283.5z" />
    <glyph glyph-name="Hcircumflex" unicode="&#x124;" horiz-adv-x="1519" 
d="M938 1776l-217 -195h-51l239 227h66l176 -227h-51zM1393 1413h53l-199 -1413h-53l96 686h-1016l-96 -686h-53l199 1413h53l-96 -678h1015z" />
    <glyph glyph-name="hcircumflex" unicode="&#x125;" horiz-adv-x="1288" 
d="M381 1778l-217 -195h-51l239 227h66l176 -227h-51zM745 1069q203 0 310 -124t78 -327l-86 -618h-50l84 608q28 187 -68 299.5t-284 112.5q-187 0 -318.5 -105t-166.5 -284l-88 -631h-50l207 1475h49l-96 -680q69 130 194.5 202t284.5 72z" />
    <glyph glyph-name="Hbar" unicode="&#x126;" horiz-adv-x="1519" 
d="M1528 1118l-6 -41h-123l-152 -1077h-53l96 686h-1016l-96 -686h-53l151 1077h-118l4 41h121l41 295h53l-41 -295h1016l41 295h53l-41 -295h123zM1296 735l50 342h-1016l-49 -342h1015z" />
    <glyph glyph-name="hbar" unicode="&#x127;" horiz-adv-x="1288" 
d="M745 1069q203 0 310 -124t78 -327l-86 -618h-50l84 608q28 187 -68 299.5t-284 112.5q-187 0 -318.5 -105t-166.5 -284l-88 -631h-50l173 1225h-175l5 41h176l28 209h49l-28 -209h323l-6 -41h-323l-62 -430q69 130 194.5 202t284.5 72z" />
    <glyph glyph-name="Itilde" unicode="&#x128;" horiz-adv-x="450" 
d="M522 1595q-37 0 -67.5 15.5t-52 37.5t-42 44t-48 37.5t-60.5 15.5q-56 0 -99.5 -38.5t-50.5 -96.5h-41q9 75 65 125.5t130 50.5q37 0 67.5 -15t52 -37t42 -44t48 -37t60.5 -15q57 0 100 39t50 97h43q-11 -76 -67 -127.5t-130 -51.5zM125 0l199 1413h53l-199 -1413h-53z
" />
    <glyph glyph-name="itilde" unicode="&#x129;" horiz-adv-x="407" 
d="M449 1227q-37 0 -68 15.5t-52.5 37.5t-42 43.5t-48 37t-60.5 15.5q-56 0 -99 -38.5t-50 -96.5h-41q9 75 64.5 125.5t129.5 50.5q37 0 68 -15t52.5 -36.5t42 -43.5t48 -37t60.5 -15q57 0 99.5 38.5t49.5 96.5h43q-11 -76 -66.5 -127t-129.5 -51zM106 0l148 1044h49
l-147 -1044h-50z" />
    <glyph glyph-name="Imacron" unicode="&#x12a;" horiz-adv-x="450" 
d="M178 1624l6 45h410l-6 -45h-410zM125 0l199 1413h53l-199 -1413h-53z" />
    <glyph glyph-name="imacron" unicode="&#x12b;" horiz-adv-x="407" 
d="M104 1255l7 45h409l-6 -45h-410zM106 0l148 1044h49l-147 -1044h-50z" />
    <glyph glyph-name="Ibreve" unicode="&#x12c;" horiz-adv-x="450" 
d="M371 1561q-95 0 -151 64t-44 159h45q-11 -78 34.5 -131.5t121.5 -53.5q77 0 138 53.5t71 131.5h43q-12 -95 -86.5 -159t-171.5 -64zM125 0l199 1413h53l-199 -1413h-53z" />
    <glyph glyph-name="ibreve" unicode="&#x12d;" horiz-adv-x="407" 
d="M297 1192q-95 0 -151 64t-44 159h45q-10 -78 34.5 -131t121.5 -53t138 53t71 131h43q-12 -95 -86.5 -159t-171.5 -64zM106 0l148 1044h49l-147 -1044h-50z" />
    <glyph glyph-name="Iogonek" unicode="&#x12e;" horiz-adv-x="450" 
d="M324 1413h53l-199 -1413h-2q-104 -44 -173 -107.5t-79 -132.5q-7 -57 25 -94t86 -37q59 0 115 35l12 -35q-67 -41 -137 -41q-71 0 -113 48t-33 118q12 74 78 139t168 109z" />
    <glyph glyph-name="iogonek" unicode="&#x12f;" horiz-adv-x="407" 
d="M322 1343q21 0 33 -14.5t10 -36.5q-3 -22 -20.5 -36.5t-39.5 -14.5q-21 0 -33.5 15t-9.5 36q3 22 20.5 36.5t39.5 14.5zM106 2l148 1042h49l-147 -1044h-2q-104 -44 -173 -107.5t-79 -132.5q-7 -57 24.5 -94t85.5 -37q59 0 115 35l12 -35q-67 -41 -137 -41
q-71 0 -112.5 48t-32.5 118q12 76 79 140.5t170 107.5z" />
    <glyph glyph-name="Idotaccent" unicode="&#x130;" horiz-adv-x="450" 
d="M379 1610q-21 0 -33.5 15t-9.5 36q3 22 20 36.5t39 14.5q21 0 33 -14.5t10 -36.5q-3 -22 -20 -36.5t-39 -14.5zM125 0l199 1413h53l-199 -1413h-53z" />
    <glyph glyph-name="dotlessi" unicode="&#x131;" horiz-adv-x="407" 
d="M106 0l148 1044h49l-147 -1044h-50z" />
    <glyph glyph-name="IJ" unicode="&#x132;" horiz-adv-x="1316" 
d="M125 0l199 1413h53l-199 -1413h-53zM696 -25q-125 0 -247 70l10 57q108 -75 243 -75q152 0 255 92t124 239l148 1055h53l-149 -1057q-23 -165 -145.5 -273t-291.5 -108z" />
    <glyph glyph-name="ij" unicode="&#x133;" horiz-adv-x="829" 
d="M317 1333q-20 0 -31.5 13t-9.5 34q1 20 18.5 35t37.5 15t31.5 -14.5t9.5 -35.5q-3 -20 -19.5 -33.5t-36.5 -13.5zM739 1333q-21 0 -32.5 13t-8.5 34q1 20 18.5 35t37.5 15t31.5 -14.5t9.5 -35.5q-3 -20 -19.5 -33.5t-36.5 -13.5zM106 0l148 1044h49l-147 -1044h-50z
M301 -414q-64 0 -113 27l7 47q42 -27 106 -27q176 0 201 187l172 1224h49l-172 -1230q-17 -115 -83.5 -171.5t-166.5 -56.5z" />
    <glyph glyph-name="Jcircumflex" unicode="&#x134;" horiz-adv-x="866" 
d="M1069 1581h-51l-162 195l-217 -195h-51l239 227h66zM631 358l147 1055h53l-149 -1057q-23 -166 -145 -273.5t-291 -107.5q-126 0 -248 70l10 57q108 -75 244 -75q152 0 255 92t124 239z" />
    <glyph glyph-name="jcircumflex" unicode="&#x135;" horiz-adv-x="421" 
d="M557 1212h-51l-162 195l-217 -195h-51l239 228h66zM94 -180l172 1224h49l-172 -1230q-17 -115 -83 -171.5t-166 -56.5q-64 0 -113 27l6 47q42 -27 107 -27q175 0 200 187z" />
    <glyph glyph-name="uni0136" unicode="&#x136;" horiz-adv-x="1259" 
d="M1370 1413l-833 -690l651 -723h-74l-622 686l-246 -203l-68 -483h-53l199 1413h53l-121 -860l1040 860h74zM471 -432l92 268h58l-109 -268h-41z" />
    <glyph glyph-name="uni0137" unicode="&#x137;" horiz-adv-x="1005" 
d="M1030 1044l-569 -503l436 -541h-68l-409 504l-221 -197l-43 -307h-50l207 1475h49l-155 -1104l756 673h67zM352 -432l92 268h58l-109 -268h-41z" />
    <glyph glyph-name="Lacute" unicode="&#x139;" horiz-adv-x="1120" 
d="M659 1808l-268 -227h-57l250 227h75zM184 49h789l-6 -49h-842l199 1413h53z" />
    <glyph glyph-name="lacute" unicode="&#x13a;" horiz-adv-x="407" 
d="M311 1583l250 227h76l-268 -227h-58zM106 0l207 1475h49l-206 -1475h-50z" />
    <glyph glyph-name="uni013B" unicode="&#x13b;" horiz-adv-x="1120" 
d="M184 49h789l-6 -49h-842l199 1413h53zM416 -432l92 268h57l-108 -268h-41z" />
    <glyph glyph-name="uni013C" unicode="&#x13c;" horiz-adv-x="407" 
d="M106 0l207 1475h49l-206 -1475h-50zM6 -432l92 268h58l-109 -268h-41z" />
    <glyph glyph-name="Lcaron" unicode="&#x13d;" horiz-adv-x="1120" 
d="M184 49h789l-6 -49h-842l199 1413h53zM743 1413l-106 -350h-39l92 350h53z" />
    <glyph glyph-name="lcaron" unicode="&#x13e;" horiz-adv-x="481" 
d="M106 0l207 1475h49l-206 -1475h-50zM471 1124l90 351h55l-106 -351h-39z" />
    <glyph glyph-name="Ldot" unicode="&#x13f;" horiz-adv-x="1120" 
d="M184 49h789l-6 -49h-842l199 1413h53zM586 657q-22 0 -35 15t-10 37t19 36.5t38 14.5t35.5 -14.5t11.5 -36.5q-5 -22 -21.5 -37t-37.5 -15z" />
    <glyph glyph-name="ldot" unicode="&#x140;" horiz-adv-x="573" 
d="M106 0l207 1475h49l-206 -1475h-50zM449 686q-22 0 -35.5 14.5t-10.5 36.5t20.5 36.5t39.5 14.5t34.5 -14.5t10.5 -36.5q-5 -22 -21.5 -36.5t-37.5 -14.5z" />
    <glyph glyph-name="Lslash" unicode="&#x141;" horiz-adv-x="1120" 
d="M184 49h789l-6 -49h-842l86 608l-164 -108l10 57l162 109l105 747h53l-101 -708l316 210l-8 -57l-316 -211z" />
    <glyph glyph-name="lslash" unicode="&#x142;" horiz-adv-x="565" 
d="M512 893l-10 -55l-166 -111l-103 -727h-49l97 690l-164 -108l6 55l166 108l102 730h49l-96 -693z" />
    <glyph glyph-name="Nacute" unicode="&#x143;" horiz-adv-x="1531" 
d="M1198 1808l-268 -227h-58l250 227h76zM1405 1413h53l-198 -1413h-64l-829 1339l-189 -1339h-53l199 1413h65l830 -1339z" />
    <glyph glyph-name="nacute" unicode="&#x144;" horiz-adv-x="1288" 
d="M1026 1440l-268 -228h-58l250 228h76zM745 1069q203 0 310 -124t78 -327l-86 -618h-50l84 608q28 187 -68 299.5t-284 112.5q-184 0 -315 -103.5t-168 -277.5l-90 -639h-50l148 1044h49l-35 -247q68 128 193 200t284 72z" />
    <glyph glyph-name="uni0145" unicode="&#x145;" horiz-adv-x="1531" 
d="M1405 1413h53l-198 -1413h-64l-829 1339l-189 -1339h-53l199 1413h65l830 -1339zM567 -432l92 268h58l-109 -268h-41z" />
    <glyph glyph-name="uni0146" unicode="&#x146;" horiz-adv-x="1288" 
d="M745 1069q203 0 310 -124t78 -327l-86 -618h-50l84 608q28 187 -68 299.5t-284 112.5q-184 0 -315 -103.5t-168 -277.5l-90 -639h-50l148 1044h49l-35 -247q68 128 193 200t284 72zM451 -432l92 268h57l-108 -268h-41z" />
    <glyph glyph-name="Ncaron" unicode="&#x147;" horiz-adv-x="1531" 
d="M948 1581h-65l-176 227h51l162 -198l217 198h51zM1405 1413h53l-198 -1413h-64l-829 1339l-189 -1339h-53l199 1413h65l830 -1339z" />
    <glyph glyph-name="ncaron" unicode="&#x148;" horiz-adv-x="1288" 
d="M776 1212h-65l-176 228h51l162 -199l217 199h51zM745 1069q203 0 310 -124t78 -327l-86 -618h-50l84 608q28 187 -68 299.5t-284 112.5q-184 0 -315 -103.5t-168 -277.5l-90 -639h-50l148 1044h49l-35 -247q68 128 193 200t284 72z" />
    <glyph glyph-name="Eng" unicode="&#x14a;" horiz-adv-x="1531" 
d="M1458 1413l-196 -1403l-19 -127q-20 -140 -105 -209t-220 -69l6 49q110 0 180 57.5t88 173.5l14 115h-10l-829 1339l-189 -1339h-53l199 1413h65l830 -1339l186 1339h53z" />
    <glyph glyph-name="eng" unicode="&#x14b;" horiz-adv-x="1288" 
d="M745 1069q203 0 310 -124t78 -327l-103 -735q-20 -140 -104.5 -209t-218.5 -69l6 47q111 0 181 57.5t87 175.5l100 723q28 187 -68 299.5t-284 112.5q-184 0 -315 -103.5t-168 -277.5l-90 -639h-50l148 1044h49l-35 -247q68 128 193 200t284 72z" />
    <glyph glyph-name="Omacron" unicode="&#x14c;" horiz-adv-x="1693" 
d="M799 1624l6 45h409l-6 -45h-409zM770 -25q-154 0 -282.5 56.5t-211.5 153.5t-120 232.5t-15 289.5q28 205 147 372.5t301 263t388 95.5q205 0 359 -95.5t226 -263t44 -372.5q-29 -205 -148.5 -373t-301 -263.5t-386.5 -95.5zM778 27q142 0 275 52t235 142.5t172 216.5
t90 269q27 191 -39.5 346.5t-209 244t-332.5 88.5t-357.5 -88.5t-278 -244t-136.5 -346.5q-27 -191 39.5 -347t209 -244.5t332.5 -88.5z" />
    <glyph glyph-name="omacron" unicode="&#x14d;" horiz-adv-x="1312" 
d="M557 1255l6 45h410l-6 -45h-410zM580 -25q-154 0 -269.5 71.5t-169 197t-32.5 278.5t110.5 278.5t225.5 197t290 71.5q153 0 268 -71.5t168.5 -197t32.5 -278.5t-110 -278.5t-225 -197t-289 -71.5zM586 25q213 0 375.5 142t191.5 355q29 214 -92 356t-334 142
t-375.5 -142.5t-191.5 -355.5q-29 -214 92 -355.5t334 -141.5z" />
    <glyph glyph-name="Obreve" unicode="&#x14e;" horiz-adv-x="1693" 
d="M991 1561q-95 0 -150.5 64t-43.5 159h45q-11 -78 34 -131.5t121 -53.5q77 0 138 53.5t71 131.5h43q-12 -95 -86.5 -159t-171.5 -64zM770 -25q-154 0 -282.5 56.5t-211.5 153.5t-120 232.5t-15 289.5q28 205 147 372.5t301 263t388 95.5q205 0 359 -95.5t226 -263
t44 -372.5q-29 -205 -148.5 -373t-301 -263.5t-386.5 -95.5zM778 27q142 0 275 52t235 142.5t172 216.5t90 269q27 191 -39.5 346.5t-209 244t-332.5 88.5t-357.5 -88.5t-278 -244t-136.5 -346.5q-27 -191 39.5 -347t209 -244.5t332.5 -88.5z" />
    <glyph glyph-name="obreve" unicode="&#x14f;" horiz-adv-x="1312" 
d="M750 1192q-95 0 -151 64t-44 159h45q-10 -78 34.5 -131t121.5 -53t138 53t71 131h43q-12 -95 -86.5 -159t-171.5 -64zM580 -25q-154 0 -269.5 71.5t-169 197t-32.5 278.5t110.5 278.5t225.5 197t290 71.5q153 0 268 -71.5t168.5 -197t32.5 -278.5t-110 -278.5t-225 -197
t-289 -71.5zM586 25q213 0 375.5 142t191.5 355q29 214 -92 356t-334 142t-375.5 -142.5t-191.5 -355.5q-29 -214 92 -355.5t334 -141.5z" />
    <glyph glyph-name="Ohungarumlaut" unicode="&#x150;" horiz-adv-x="1693" 
d="M797 1581l192 227h64l-207 -227h-49zM1133 1581l192 227h66l-207 -227h-51zM770 -25q-154 0 -282.5 56.5t-211.5 153.5t-120 232.5t-15 289.5q28 205 147 372.5t301 263t388 95.5q205 0 359 -95.5t226 -263t44 -372.5q-29 -205 -148.5 -373t-301 -263.5t-386.5 -95.5z
M778 27q142 0 275 52t235 142.5t172 216.5t90 269q27 191 -39.5 346.5t-209 244t-332.5 88.5t-357.5 -88.5t-278 -244t-136.5 -346.5q-27 -191 39.5 -347t209 -244.5t332.5 -88.5z" />
    <glyph glyph-name="ohungarumlaut" unicode="&#x151;" horiz-adv-x="1312" 
d="M555 1212l193 228h63l-207 -228h-49zM891 1212l192 228h66l-207 -228h-51zM580 -25q-154 0 -269.5 71.5t-169 197t-32.5 278.5t110.5 278.5t225.5 197t290 71.5q153 0 268 -71.5t168.5 -197t32.5 -278.5t-110 -278.5t-225 -197t-289 -71.5zM586 25q213 0 375.5 142
t191.5 355q29 214 -92 356t-334 142t-375.5 -142.5t-191.5 -355.5q-29 -214 92 -355.5t334 -141.5z" />
    <glyph glyph-name="OE" unicode="&#x152;" horiz-adv-x="1974" 
d="M1962 1364h-758l-90 -629h690l-6 -49h-690l-90 -637h770l-6 -49h-1032q-150 0 -274 54t-204.5 148t-116 225t-14.5 280q27 199 141.5 360.5t290 253.5t375.5 92h1022zM967 49l186 1315h-213q-184 0 -345.5 -85.5t-267 -236t-130.5 -335.5q-20 -139 12.5 -261t106.5 -209
t188 -137.5t252 -50.5h211z" />
    <glyph glyph-name="oe" unicode="&#x153;" horiz-adv-x="2334" 
d="M1772 1069q151 0 264 -71.5t165 -197t31 -278.5q0 -8 -4 -20h-1026q-22 -206 101.5 -342.5t336.5 -136.5q141 0 267.5 63.5t206.5 171.5l34 -29q-91 -119 -225 -186.5t-287 -67.5q-195 0 -325.5 109.5t-153.5 288.5q-71 -178 -229 -288t-350 -110q-153 0 -268 71.5
t-168.5 197t-32.5 278.5t110 278.5t225 197t289 71.5q190 0 316.5 -109t150.5 -286q71 177 227 286t345 109zM1763 1022q-202 0 -360 -135.5t-195 -339.5h977q16 134 -33.5 243t-152 170.5t-236.5 61.5zM586 25q213 0 375.5 142t191.5 355q29 214 -92 356t-334 142
t-375.5 -142.5t-191.5 -355.5q-29 -214 92 -355.5t334 -141.5z" />
    <glyph glyph-name="Racute" unicode="&#x154;" horiz-adv-x="1232" 
d="M1049 1808l-269 -227h-57l250 227h76zM1188 1028q-23 -164 -149.5 -274.5t-290.5 -110.5h-154l473 -643h-70l-473 643h-256l-90 -643h-53l199 1413h532q165 0 261 -110.5t71 -274.5zM371 1364l-97 -674h480q141 0 250 96t131 240q20 145 -62.5 241.5t-224.5 96.5h-477z
" />
    <glyph glyph-name="racute" unicode="&#x155;" horiz-adv-x="741" 
d="M809 1440l-268 -228h-58l250 228h76zM264 770q70 136 195 213.5t280 77.5h25l-6 -51h-27q-188 0 -320.5 -112t-170.5 -302l-84 -596h-50l148 1044h49z" />
    <glyph glyph-name="uni0156" unicode="&#x156;" horiz-adv-x="1232" 
d="M1188 1028q-23 -164 -149.5 -274.5t-290.5 -110.5h-154l473 -643h-70l-473 643h-256l-90 -643h-53l199 1413h532q165 0 261 -110.5t71 -274.5zM371 1364l-97 -674h480q141 0 250 96t131 240q20 145 -62.5 241.5t-224.5 96.5h-477zM420 -432l92 268h57l-108 -268h-41z" />
    <glyph glyph-name="uni0157" unicode="&#x157;" horiz-adv-x="741" 
d="M739 1061h25l-6 -51h-27q-188 0 -320.5 -112t-170.5 -302l-84 -596h-50l148 1044h49l-39 -274q70 136 195 213.5t280 77.5zM6 -432l92 268h58l-109 -268h-41z" />
    <glyph glyph-name="Rcaron" unicode="&#x158;" horiz-adv-x="1232" 
d="M799 1581h-66l-176 227h51l162 -198l217 198h51zM1188 1028q-23 -164 -149.5 -274.5t-290.5 -110.5h-154l473 -643h-70l-473 643h-256l-90 -643h-53l199 1413h532q165 0 261 -110.5t71 -274.5zM371 1364l-97 -674h480q141 0 250 96t131 240q20 145 -62.5 241.5
t-224.5 96.5h-477z" />
    <glyph glyph-name="rcaron" unicode="&#x159;" horiz-adv-x="741" 
d="M557 1212h-65l-177 228h52l161 -199l217 199h52zM264 770q70 136 195 213.5t280 77.5h25l-6 -51h-27q-188 0 -320.5 -112t-170.5 -302l-84 -596h-50l148 1044h49z" />
    <glyph glyph-name="Sacute" unicode="&#x15a;" horiz-adv-x="1185" 
d="M709 1581l249 227h76l-268 -227h-57zM532 -25q-151 0 -277.5 60t-197.5 164l37 37q65 -93 182.5 -152t264.5 -59q188 0 324.5 91t156.5 234q6 41 -1 78t-21 65t-41 53.5t-50.5 43t-61 34.5t-62 26t-63.5 19.5t-54.5 14l-46.5 10.5q-63 13 -118 30t-115.5 48.5
t-100.5 70.5t-62 99t-12 131q23 162 169 263.5t345 101.5q134 0 239.5 -48.5t163.5 -134.5l-36 -34q-44 71 -145 119.5t-230 48.5q-175 0 -303.5 -88.5t-147.5 -225.5q-9 -64 13.5 -117.5t60.5 -86.5t95 -60t103.5 -40t100.5 -23q38 -7 73 -16t84 -26.5t89 -38t80.5 -52
t66.5 -68t38.5 -87t4.5 -108.5q-23 -164 -179.5 -270.5t-365.5 -106.5z" />
    <glyph glyph-name="sacute" unicode="&#x15b;" horiz-adv-x="989" 
d="M553 1212l250 228h76l-269 -228h-57zM420 -25q-125 0 -221.5 45t-153.5 125l37 35q50 -74 139 -115.5t205 -41.5q145 0 251.5 66.5t121.5 172.5q5 33 -1.5 60.5t-18 48t-37 39t-47 30t-60 25t-64.5 20.5t-71 19q-67 18 -104.5 30t-90.5 37t-79 52t-43 71t-9 99
q18 128 133.5 202t265.5 74q109 0 194 -39.5t138 -109.5l-35 -37q-45 65 -123 102t-178 37q-132 0 -230.5 -62.5t-113.5 -160.5q-5 -34 1.5 -62.5t18.5 -49.5t38 -40t48 -31t61.5 -25.5t64.5 -20.5t71 -19q69 -18 104.5 -28.5t89.5 -35t79 -51t41 -70.5t8 -100
q-18 -132 -140 -211.5t-290 -79.5z" />
    <glyph glyph-name="Scircumflex" unicode="&#x15c;" horiz-adv-x="1185" 
d="M780 1776l-217 -195h-51l240 227h65l176 -227h-51zM719 1389q-175 0 -303.5 -88.5t-147.5 -225.5q-9 -64 13.5 -117.5t60.5 -86.5t95 -60t103.5 -40t100.5 -23q38 -7 73 -16t84 -26.5t89 -38t80.5 -52t66.5 -68t38.5 -87t4.5 -108.5q-23 -164 -179.5 -270.5
t-365.5 -106.5q-151 0 -277.5 60t-197.5 164l37 37q65 -93 182.5 -152t264.5 -59q188 0 324.5 91t156.5 234q6 41 -1 78t-21 65t-41 53.5t-50.5 43t-61 34.5t-62 26t-63.5 19.5t-54.5 14l-46.5 10.5q-63 13 -118 30t-115.5 48.5t-100.5 70.5t-62 99t-12 131
q23 162 169 263.5t345 101.5q134 0 239.5 -48.5t163.5 -134.5l-36 -34q-44 71 -145 119.5t-230 48.5z" />
    <glyph glyph-name="scircumflex" unicode="&#x15d;" horiz-adv-x="989" 
d="M623 1407l-217 -195h-52l240 228h65l177 -228h-52zM569 1022q-132 0 -230.5 -62.5t-113.5 -160.5q-5 -34 1.5 -62.5t18.5 -49.5t38 -40t48 -31t61.5 -25.5t64.5 -20.5t71 -19q69 -18 104.5 -28.5t89.5 -35t79 -51t41 -70.5t8 -100q-18 -132 -140 -211.5t-290 -79.5
q-125 0 -221.5 45t-153.5 125l37 35q50 -74 139 -115.5t205 -41.5q145 0 251.5 66.5t121.5 172.5q5 33 -1.5 60.5t-18 48t-37 39t-47 30t-60 25t-64.5 20.5t-71 19q-67 18 -104.5 30t-90.5 37t-79 52t-43 71t-9 99q18 128 133.5 202t265.5 74q109 0 194 -39.5t138 -109.5
l-35 -37q-45 65 -123 102t-178 37z" />
    <glyph glyph-name="Scedilla" unicode="&#x15e;" horiz-adv-x="1185" 
d="M719 1389q-175 0 -303.5 -88.5t-147.5 -225.5q-9 -64 13.5 -117.5t60.5 -86.5t95 -60t103.5 -40t100.5 -23q38 -7 73 -16t84 -26.5t89 -38t80.5 -52t66.5 -68t38.5 -87t4.5 -108.5q-23 -162 -176 -268t-360 -109l-64 -69q27 10 55 10q68 0 107 -47.5t29 -116.5
q-9 -70 -64.5 -118t-126.5 -48q-51 0 -89 27.5t-52 71.5l35 20q11 -37 40 -59.5t70 -22.5q56 0 98 37t48 92q9 54 -22 90.5t-85 36.5q-50 0 -88 -33l-31 17l99 112q-141 7 -259 67t-184 157l37 37q65 -93 182.5 -152t264.5 -59q188 0 324.5 91t156.5 234q6 41 -1 78t-21 65
t-41 53.5t-50.5 43t-61 34.5t-62 26t-63.5 19.5t-54.5 14l-46.5 10.5q-63 13 -118 30t-115.5 48.5t-100.5 70.5t-62 99t-12 131q23 162 169 263.5t345 101.5q134 0 239.5 -48.5t163.5 -134.5l-36 -34q-44 71 -145 119.5t-230 48.5z" />
    <glyph glyph-name="scedilla" unicode="&#x15f;" horiz-adv-x="989" 
d="M569 1022q-132 0 -230.5 -62.5t-113.5 -160.5q-5 -34 1.5 -62.5t18.5 -49.5t38 -40t48 -31t61.5 -25.5t64.5 -20.5t71 -19q69 -18 104.5 -28.5t89.5 -35t79 -51t41 -70.5t8 -100q-18 -129 -135.5 -208.5t-280.5 -82.5l-63 -69q27 10 55 10q67 0 106.5 -47.5t28.5 -116.5
q-9 -70 -64 -118t-126 -48q-51 0 -89.5 27.5t-52.5 71.5l35 20q11 -37 40.5 -59.5t70.5 -22.5q56 0 97.5 37t47.5 92q9 54 -21.5 90.5t-84.5 36.5q-50 0 -88 -33l-31 17l98 112q-116 6 -205 50.5t-143 119.5l37 35q50 -74 139 -115.5t205 -41.5q145 0 251.5 66.5
t121.5 172.5q5 33 -1.5 60.5t-18 48t-37 39t-47 30t-60 25t-64.5 20.5t-71 19q-67 18 -104.5 30t-90.5 37t-79 52t-43 71t-9 99q18 128 133.5 202t265.5 74q109 0 194 -39.5t138 -109.5l-35 -37q-45 65 -123 102t-178 37z" />
    <glyph glyph-name="Scaron" unicode="&#x160;" horiz-adv-x="1185" 
d="M784 1581h-65l-176 227h51l162 -198l217 198h51zM719 1389q-175 0 -303.5 -88.5t-147.5 -225.5q-9 -64 13.5 -117.5t60.5 -86.5t95 -60t103.5 -40t100.5 -23q38 -7 73 -16t84 -26.5t89 -38t80.5 -52t66.5 -68t38.5 -87t4.5 -108.5q-23 -164 -179.5 -270.5t-365.5 -106.5
q-151 0 -277.5 60t-197.5 164l37 37q65 -93 182.5 -152t264.5 -59q188 0 324.5 91t156.5 234q6 41 -1 78t-21 65t-41 53.5t-50.5 43t-61 34.5t-62 26t-63.5 19.5t-54.5 14l-46.5 10.5q-63 13 -118 30t-115.5 48.5t-100.5 70.5t-62 99t-12 131q23 162 169 263.5t345 101.5
q134 0 239.5 -48.5t163.5 -134.5l-36 -34q-44 71 -145 119.5t-230 48.5z" />
    <glyph glyph-name="scaron" unicode="&#x161;" horiz-adv-x="989" 
d="M627 1212h-66l-176 228h51l162 -199l217 199h51zM569 1022q-132 0 -230.5 -62.5t-113.5 -160.5q-5 -34 1.5 -62.5t18.5 -49.5t38 -40t48 -31t61.5 -25.5t64.5 -20.5t71 -19q69 -18 104.5 -28.5t89.5 -35t79 -51t41 -70.5t8 -100q-18 -132 -140 -211.5t-290 -79.5
q-125 0 -221.5 45t-153.5 125l37 35q50 -74 139 -115.5t205 -41.5q145 0 251.5 66.5t121.5 172.5q5 33 -1.5 60.5t-18 48t-37 39t-47 30t-60 25t-64.5 20.5t-71 19q-67 18 -104.5 30t-90.5 37t-79 52t-43 71t-9 99q18 128 133.5 202t265.5 74q109 0 194 -39.5t138 -109.5
l-35 -37q-45 65 -123 102t-178 37z" />
    <glyph glyph-name="uni0162" unicode="&#x162;" horiz-adv-x="1218" 
d="M561 0h-6l-84 -92q27 10 55 10q68 0 107 -47.5t29 -116.5q-9 -70 -64.5 -118t-126.5 -48q-51 0 -89 27.5t-52 71.5l35 20q11 -37 40 -59.5t70 -22.5q56 0 98 37t48 92q9 54 -22 90.5t-85 36.5q-50 0 -88 -33l-31 17l117 135h-4l192 1364h-512l7 49h1077l-6 -49h-514z" />
    <glyph glyph-name="uni0163" unicode="&#x163;" horiz-adv-x="808" 
d="M432 999l-108 -778q-14 -105 31 -150.5t143 -45.5q87 0 161 38l-6 -49q-80 -39 -168 -39q-29 0 -43 2l-63 -69q27 10 55 10q67 0 106.5 -47.5t28.5 -116.5q-9 -70 -64 -118t-126 -48q-51 0 -89 27.5t-52 71.5l34 20q11 -37 40.5 -59.5t70.5 -22.5q56 0 97.5 37t47.5 92
q9 54 -21.5 90.5t-84.5 36.5q-50 0 -88 -33l-31 17l103 119q-160 37 -134 231l111 784h-221l6 45h221l43 304h49l-43 -304h361l-6 -45h-361z" />
    <glyph glyph-name="Tcaron" unicode="&#x164;" horiz-adv-x="1218" 
d="M791 1581h-66l-176 227h51l162 -198l217 198h51zM1272 1413l-6 -49h-514l-191 -1364h-53l192 1364h-512l7 49h1077z" />
    <glyph glyph-name="tcaron" unicode="&#x165;" horiz-adv-x="808" 
d="M764 1528l-107 -350h-41l93 350h55zM432 999l-108 -778q-14 -105 31 -150.5t143 -45.5q87 0 161 38l-6 -49q-80 -39 -168 -39q-245 0 -213 240l111 784h-221l6 45h221l43 304h49l-43 -304h361l-6 -45h-361z" />
    <glyph glyph-name="Tbar" unicode="&#x166;" horiz-adv-x="1218" 
d="M1266 1364h-514l-88 -641h249l-6 -41h-250l-96 -682h-53l96 682h-244l5 41h245l90 641h-512l7 49h1077z" />
    <glyph glyph-name="tbar" unicode="&#x167;" horiz-adv-x="808" 
d="M793 999h-361l-57 -411h295l-6 -41h-295l-45 -326q-14 -105 31 -150.5t143 -45.5q87 0 161 38l-6 -49q-80 -39 -168 -39q-245 0 -213 240l47 332h-202l4 41h205l57 411h-221l6 45h221l43 304h49l-43 -304h361z" />
    <glyph glyph-name="Utilde" unicode="&#x168;" horiz-adv-x="1437" 
d="M1016 1595q-37 0 -68 15.5t-52.5 37.5t-42 44t-48 37.5t-60.5 15.5q-56 0 -99 -38.5t-50 -96.5h-41q9 75 65 125.5t130 50.5q37 0 67.5 -15t52 -37t42 -44t48 -37t60.5 -15q57 0 99 38.5t50 97.5h43q-11 -76 -66.5 -127.5t-129.5 -51.5zM641 -25q-156 0 -274 73
t-172.5 201.5t-32.5 285.5l123 878h53l-123 -878q-32 -217 93 -362.5t343 -145.5q217 0 382 145.5t196 362.5l123 878h51l-123 -878q-34 -239 -217 -399.5t-422 -160.5z" />
    <glyph glyph-name="utilde" unicode="&#x169;" horiz-adv-x="1236" 
d="M864 1227q-37 0 -67.5 15.5t-52 37.5t-42 43.5t-48 37t-60.5 15.5q-56 0 -99.5 -38.5t-50.5 -96.5h-41q9 75 65 125.5t130 50.5q37 0 67.5 -15t52 -36.5t42 -43.5t48 -37t60.5 -15q57 0 100 38.5t50 96.5h43q-11 -76 -67 -127t-130 -51zM541 -25q-203 0 -310 119.5
t-79 315.5l90 634h49l-88 -628q-25 -177 69 -284t275 -107q182 0 308 107t149 284l90 628h49l-90 -634q-28 -196 -168.5 -315.5t-343.5 -119.5z" />
    <glyph glyph-name="Umacron" unicode="&#x16a;" horiz-adv-x="1437" 
d="M670 1624l6 45h409l-6 -45h-409zM641 -25q-156 0 -274 73t-172.5 201.5t-32.5 285.5l123 878h53l-123 -878q-32 -217 93 -362.5t343 -145.5q217 0 382 145.5t196 362.5l123 878h51l-123 -878q-34 -239 -217 -399.5t-422 -160.5z" />
    <glyph glyph-name="umacron" unicode="&#x16b;" horiz-adv-x="1236" 
d="M518 1255l6 45h410l-6 -45h-410zM541 -25q-203 0 -310 119.5t-79 315.5l90 634h49l-88 -628q-25 -177 69 -284t275 -107q182 0 308 107t149 284l90 628h49l-90 -634q-28 -196 -168.5 -315.5t-343.5 -119.5z" />
    <glyph glyph-name="Ubreve" unicode="&#x16c;" horiz-adv-x="1437" 
d="M864 1561q-95 0 -150.5 64t-43.5 159h45q-11 -78 34 -131.5t121 -53.5q77 0 138 53.5t71 131.5h43q-12 -95 -86.5 -159t-171.5 -64zM641 -25q-156 0 -274 73t-172.5 201.5t-32.5 285.5l123 878h53l-123 -878q-32 -217 93 -362.5t343 -145.5q217 0 382 145.5t196 362.5
l123 878h51l-123 -878q-34 -239 -217 -399.5t-422 -160.5z" />
    <glyph glyph-name="ubreve" unicode="&#x16d;" horiz-adv-x="1236" 
d="M713 1192q-95 0 -151 64t-44 159h45q-10 -78 34.5 -131t121.5 -53t138 53t71 131h43q-12 -95 -86.5 -159t-171.5 -64zM541 -25q-203 0 -310 119.5t-79 315.5l90 634h49l-88 -628q-25 -177 69 -284t275 -107q182 0 308 107t149 284l90 628h49l-90 -634
q-28 -196 -168.5 -315.5t-343.5 -119.5z" />
    <glyph glyph-name="Uring" unicode="&#x16e;" horiz-adv-x="1437" 
d="M862 1548q-57 0 -89.5 38t-24.5 95q7 57 51.5 95.5t101.5 38.5t90 -38.5t25 -95.5q-7 -57 -52 -95t-102 -38zM868 1583q40 0 72.5 28.5t36.5 69.5q6 43 -17.5 71t-64.5 28q-40 0 -71.5 -28.5t-37.5 -70.5q-6 -41 18 -69.5t64 -28.5zM641 -25q-156 0 -274 73t-172.5 201.5
t-32.5 285.5l123 878h53l-123 -878q-32 -217 93 -362.5t343 -145.5q217 0 382 145.5t196 362.5l123 878h51l-123 -878q-34 -239 -217 -399.5t-422 -160.5z" />
    <glyph glyph-name="uring" unicode="&#x16f;" horiz-adv-x="1236" 
d="M711 1180q-57 0 -90 38t-25 95q7 57 52 95t102 38t89.5 -38t24.5 -95q-7 -57 -51.5 -95t-101.5 -38zM717 1214q40 0 72 29t36 70q6 43 -17.5 70.5t-64.5 27.5q-40 0 -71 -28t-37 -70q-6 -41 18 -70t64 -29zM541 -25q-203 0 -310 119.5t-79 315.5l90 634h49l-88 -628
q-25 -177 69 -284t275 -107q182 0 308 107t149 284l90 628h49l-90 -634q-28 -196 -168.5 -315.5t-343.5 -119.5z" />
    <glyph glyph-name="Uhungarumlaut" unicode="&#x170;" horiz-adv-x="1437" 
d="M670 1581l192 227h64l-207 -227h-49zM1006 1581l192 227h66l-207 -227h-51zM641 -25q-156 0 -274 73t-172.5 201.5t-32.5 285.5l123 878h53l-123 -878q-32 -217 93 -362.5t343 -145.5q217 0 382 145.5t196 362.5l123 878h51l-123 -878q-34 -239 -217 -399.5t-422 -160.5z
" />
    <glyph glyph-name="uhungarumlaut" unicode="&#x171;" horiz-adv-x="1236" 
d="M518 1212l193 228h63l-207 -228h-49zM854 1212l193 228h65l-207 -228h-51zM541 -25q-203 0 -310 119.5t-79 315.5l90 634h49l-88 -628q-25 -177 69 -284t275 -107q182 0 308 107t149 284l90 628h49l-90 -634q-28 -196 -168.5 -315.5t-343.5 -119.5z" />
    <glyph glyph-name="Uogonek" unicode="&#x172;" horiz-adv-x="1437" 
d="M1352 1413h51l-123 -878q-27 -193 -156.5 -339t-312.5 -198q-101 -44 -167.5 -106.5t-76.5 -129.5q-7 -57 25 -94t86 -37q59 0 115 35l12 -35q-67 -41 -137 -41q-71 0 -113 48t-33 118q21 132 197 224q-62 -5 -78 -5q-156 0 -274 73t-172.5 201.5t-32.5 285.5l123 878h53
l-123 -878q-32 -217 93 -362.5t343 -145.5q217 0 382 145.5t196 362.5z" />
    <glyph glyph-name="uogonek" unicode="&#x173;" horiz-adv-x="1236" 
d="M1094 1044h49l-90 -634q-21 -155 -116.5 -264.5t-238.5 -149.5q-99 -44 -164 -106t-75 -128q-7 -57 24.5 -94t85.5 -37q59 0 115 35l12 -35q-67 -41 -137 -41q-71 0 -112.5 48t-32.5 118q10 66 61.5 123.5t132.5 100.5q-57 -5 -67 -5q-203 0 -310 119.5t-79 315.5l90 634
h49l-88 -628q-25 -177 69 -284t275 -107q182 0 308 107t149 284z" />
    <glyph glyph-name="Wcircumflex" unicode="&#x174;" horiz-adv-x="2119" 
d="M1237 1776l-217 -195h-51l239 227h66l176 -227h-51zM2105 1413h56l-666 -1413h-57l-262 1343l-641 -1343h-60l-266 1413h57l250 -1350l641 1350h55l265 -1350z" />
    <glyph glyph-name="wcircumflex" unicode="&#x175;" horiz-adv-x="1806" 
d="M1028 1407l-217 -195h-51l239 228h66l176 -228h-51zM1763 1044h54l-547 -1044h-58l-243 987l-523 -987h-57l-252 1044h56l233 -993l524 993h56l241 -991z" />
    <glyph glyph-name="Ycircumflex" unicode="&#x176;" horiz-adv-x="1378" 
d="M866 1776l-217 -195h-51l240 227h65l176 -227h-51zM1397 1413h59l-735 -852l-80 -561h-51l78 561l-496 852h64l466 -801z" />
    <glyph glyph-name="ycircumflex" unicode="&#x177;" horiz-adv-x="1161" 
d="M707 1407l-218 -195h-51l240 228h65l177 -228h-52zM1122 1044h56l-816 -1318q-42 -69 -98.5 -104.5t-116.5 -35.5q-52 0 -101.5 26t-78.5 69l35 32q24 -36 62 -57t83 -21q101 0 175 111l155 248l-346 1050h57l326 -991z" />
    <glyph glyph-name="Ydieresis" unicode="&#x178;" horiz-adv-x="1378" 
d="M643 1610q-22 0 -34 14.5t-9 36.5q1 20 18.5 34.5t38.5 14.5q22 0 34 -14.5t9 -34.5q-3 -22 -19 -36.5t-38 -14.5zM1040 1610q-22 0 -34 14.5t-9 36.5q3 20 20.5 34.5t37.5 14.5q22 0 34 -14.5t9 -34.5q-3 -22 -19.5 -36.5t-38.5 -14.5zM1397 1413h59l-735 -852l-80 -561
h-51l78 561l-496 852h64l466 -801z" />
    <glyph glyph-name="Zacute" unicode="&#x179;" horiz-adv-x="1257" 
d="M1059 1808l-268 -227h-58l250 227h76zM1268 1413l-4 -39l-1162 -1325h990l-9 -49h-1056l6 39l1159 1325h-967l8 49h1035z" />
    <glyph glyph-name="zacute" unicode="&#x17a;" horiz-adv-x="1030" 
d="M897 1440l-268 -228h-58l250 228h76zM981 1044l-6 -34l-864 -963h743l-6 -47h-813l8 35l862 962h-721l6 47h791z" />
    <glyph glyph-name="Zdotaccent" unicode="&#x17b;" horiz-adv-x="1257" 
d="M778 1610q-21 0 -33.5 15t-9.5 36q3 22 20.5 36.5t39.5 14.5q21 0 33 -14.5t10 -36.5q-3 -22 -20.5 -36.5t-39.5 -14.5zM1268 1413l-4 -39l-1162 -1325h990l-9 -49h-1056l6 39l1159 1325h-967l8 49h1035z" />
    <glyph glyph-name="zdotaccent" unicode="&#x17c;" horiz-adv-x="1030" 
d="M616 1241q-21 0 -33.5 15t-9.5 36q3 22 20.5 36.5t39.5 14.5q21 0 33 -14.5t10 -36.5q-3 -22 -20.5 -36.5t-39.5 -14.5zM981 1044l-6 -34l-864 -963h743l-6 -47h-813l8 35l862 962h-721l6 47h791z" />
    <glyph glyph-name="Zcaron" unicode="&#x17d;" horiz-adv-x="1257" 
d="M807 1581h-66l-176 227h51l162 -198l217 198h52zM1268 1413l-4 -39l-1162 -1325h990l-9 -49h-1056l6 39l1159 1325h-967l8 49h1035z" />
    <glyph glyph-name="zcaron" unicode="&#x17e;" horiz-adv-x="1030" 
d="M645 1212h-65l-177 228h52l161 -199l218 199h51zM981 1044l-6 -34l-864 -963h743l-6 -47h-813l8 35l862 962h-721l6 47h791z" />
    <glyph glyph-name="florin" unicode="&#x192;" horiz-adv-x="970" 
d="M1030 1362q-163 0 -246 -61.5t-131 -213.5l-110 -352h278l-6 -49h-289l-237 -760q-55 -172 -152 -243.5t-284 -71.5l8 51q163 0 245 61.5t130 213.5l237 749h-266l6 49h274l115 363q53 172 150 243.5t284 71.5z" />
    <glyph glyph-name="uni01C4" unicode="&#x1c4;" horiz-adv-x="2740" 
d="M2292 1581h-66l-178 227h53l160 -196l219 196h51zM856 1413q200 0 349.5 -92t218.5 -253.5t42 -360.5q-28 -199 -143 -361t-290.5 -254t-375.5 -92h-532l199 1413h532zM2750 1413l-4 -39l-1161 -1325h989l-8 -49h-1057l7 39l1159 1325h-967l8 49h1034zM1411 707
q19 139 -14 260.5t-107 208.5t-188 137.5t-252 50.5h-479l-187 -1315h482q138 0 266 50.5t226.5 137.5t165.5 209t87 261z" />
    <glyph glyph-name="uni01C5" unicode="&#x1c5;" horiz-adv-x="2584" 
d="M2200 1212h-66l-176 228h51l162 -199l217 199h51zM856 1413q200 0 349.5 -92t218.5 -253.5t42 -360.5q-28 -199 -143 -361t-290.5 -254t-375.5 -92h-532l199 1413h532zM1411 707q19 139 -14 260.5t-107 208.5t-188 137.5t-252 50.5h-479l-187 -1315h482q138 0 266 50.5
t226.5 137.5t165.5 209t87 261zM2535 1044l-6 -34l-864 -963h743l-6 -47h-813l8 35l863 962h-721l6 47h790z" />
    <glyph glyph-name="uni01C6" unicode="&#x1c6;" horiz-adv-x="2412" 
d="M1182 725l104 750h49l-207 -1475h-49l45 319q-79 -156 -227.5 -250t-323.5 -94q-153 0 -267 71.5t-166 196.5t-31 279q21 153 109 278.5t223 197t288 71.5q175 0 296 -94t157 -250zM2028 1212h-66l-176 228h51l162 -199l217 199h51zM2363 1044l-6 -34l-864 -963h743
l-6 -47h-813l8 35l863 962h-721l6 47h790zM586 25q207 0 366.5 134.5t196.5 338.5l6 45q22 206 -98.5 341.5t-329.5 135.5q-212 0 -374 -142t-193 -356q-29 -214 92.5 -355.5t333.5 -141.5z" />
    <glyph glyph-name="uni01C7" unicode="&#x1c7;" horiz-adv-x="1968" 
d="M377 1413l-193 -1364h789l-6 -49h-842l199 1413h53zM1880 1413h53l-149 -1057q-23 -166 -145 -273.5t-291 -107.5q-126 0 -248 70l10 57q108 -75 244 -75q152 0 255 92t124 239z" />
    <glyph glyph-name="uni01C8" unicode="&#x1c8;" horiz-adv-x="1544" 
d="M1468 1430q20 0 31.5 -14.5t9.5 -35.5q-3 -20 -19 -33.5t-36 -13.5q-21 0 -32.5 13t-8.5 34q1 20 18 35t37 15zM973 49l-6 -49h-842l199 1413h53l-193 -1364h789zM1217 -180l172 1224h49l-172 -1230q-17 -115 -83.5 -171.5t-166.5 -56.5q-64 0 -113 27l6 47
q42 -27 107 -27q176 0 201 187z" />
    <glyph glyph-name="uni01C9" unicode="&#x1c9;" horiz-adv-x="829" 
d="M106 0l207 1475h49l-206 -1475h-50zM739 1333q-21 0 -32.5 13t-8.5 34q1 20 18.5 35t37.5 15t31.5 -14.5t9.5 -35.5q-3 -20 -19.5 -33.5t-36.5 -13.5zM301 -414q-64 0 -113 27l7 47q42 -27 106 -27q176 0 201 187l172 1224h49l-172 -1230q-17 -115 -83.5 -171.5
t-166.5 -56.5z" />
    <glyph glyph-name="uni01CA" unicode="&#x1ca;" horiz-adv-x="2398" 
d="M1219 74l186 1339h53l-198 -1413h-64l-829 1339l-189 -1339h-53l199 1413h65zM2310 1413h53l-149 -1057q-23 -166 -145 -273.5t-291 -107.5q-126 0 -248 70l10 57q108 -75 244 -75q152 0 255 92t124 239z" />
    <glyph glyph-name="uni01CB" unicode="&#x1cb;" horiz-adv-x="1953" 
d="M1878 1430q20 0 31.5 -14.5t9.5 -35.5q-3 -20 -19 -33.5t-36 -13.5q-21 0 -32.5 13t-8.5 34q1 20 18 35t37 15zM1405 1413h53l-198 -1413h-64l-829 1339l-189 -1339h-53l199 1413h65l830 -1339zM1626 -180l172 1224h49l-172 -1230q-17 -115 -83.5 -171.5t-166.5 -56.5
q-63 0 -112 27l6 47q42 -27 106 -27q176 0 201 187z" />
    <glyph glyph-name="uni01CC" unicode="&#x1cc;" horiz-adv-x="1710" 
d="M1634 1430q20 0 31.5 -14.5t9.5 -35.5q-3 -20 -19 -33.5t-36 -13.5q-21 0 -32.5 13t-8.5 34q1 20 18 35t37 15zM745 1069q203 0 310 -124t78 -327l-86 -618h-50l84 608q28 187 -68 299.5t-284 112.5q-184 0 -315 -103.5t-168 -277.5l-90 -639h-50l148 1044h49l-35 -247
q68 128 193 200t284 72zM1382 -180l172 1224h50l-172 -1230q-17 -115 -83.5 -171.5t-166.5 -56.5q-64 0 -113 27l6 47q42 -27 107 -27q175 0 200 187z" />
    <glyph glyph-name="uni01CD" unicode="&#x1cd;" horiz-adv-x="1447" 
d="M905 1581h-65l-176 227h51l162 -198l217 198h51zM1243 0l-131 440h-803l-254 -440h-57l817 1413h68l420 -1413h-60zM338 489h760l-256 869z" />
    <glyph glyph-name="uni01CE" unicode="&#x1ce;" 
d="M821 1212h-65l-176 228h51l162 -199l217 199h51zM1227 1044h49l-148 -1044h-49l45 319q-79 -156 -227.5 -250t-323.5 -94q-153 0 -267 71.5t-166 196.5t-31 279q21 153 109 278.5t223 197t288 71.5q176 0 296.5 -94t156.5 -252zM586 25q213 0 374.5 140.5t192.5 352.5v4
q29 214 -92 356t-334 142q-212 0 -374 -142t-193 -356q-29 -214 92.5 -355.5t333.5 -141.5z" />
    <glyph glyph-name="Gcaron" unicode="&#x1e6;" horiz-adv-x="1662" 
d="M1028 1581h-65l-177 227h52l161 -198l218 198h51zM948 694h633v-16q-28 -199 -143.5 -360t-292 -252t-377.5 -91q-154 0 -281.5 56.5t-210.5 153.5t-120 232.5t-15 289.5q28 205 147 372.5t301 263t388 95.5q191 0 338 -84.5t225 -231.5l-45 -30q-72 137 -209 215.5
t-317 78.5q-190 0 -357.5 -88.5t-278 -244t-136.5 -346.5q-27 -191 39.5 -347t209 -244.5t332.5 -88.5q180 0 340 79t267.5 221t136.5 318h-580z" />
    <glyph glyph-name="gcaron" unicode="&#x1e7;" horiz-adv-x="1144" 
d="M725 1212h-66l-176 228h52l161 -199l217 199h52zM1141 1151h71l-6 -47h-69q-71 0 -120.5 -42.5t-58.5 -111.5l-2 -18q102 -129 78 -309q-26 -189 -175.5 -317t-344.5 -128q-156 0 -264 84q-49 -21 -82 -65.5t-41 -96.5q-11 -75 38 -121.5t138 -46.5h445
q138 0 214.5 -65.5t63.5 -173.5l-53 -6q12 89 -53 142.5t-183 53.5h-444q-110 0 -170.5 57.5t-46.5 149.5q7 61 46.5 116.5t96.5 84.5q-61 61 -88 147t-12 185q26 191 175 318.5t345 127.5q169 0 281 -98q13 82 74 131t147 49zM981 623q25 169 -75 284t-273 115
q-174 0 -307 -115t-156 -284t76 -283.5t272 -114.5t306.5 114.5t156.5 283.5z" />
    <glyph glyph-name="uni01EA" unicode="&#x1ea;" horiz-adv-x="1693" 
d="M977 1438q205 0 359 -95.5t226 -263t44 -372.5q-36 -259 -213.5 -452.5t-425.5 -254.5q-102 -44 -169 -107t-77 -131q-7 -57 24.5 -94t85.5 -37q59 0 115 35l12 -35q-67 -41 -137 -41q-71 0 -112.5 48t-32.5 118q10 67 63.5 125t137.5 101q-61 -7 -107 -7
q-154 0 -282.5 56.5t-211.5 153.5t-120 232.5t-15 289.5q28 205 147 372.5t301 263t388 95.5zM1550 707q27 191 -39.5 346.5t-209 244t-332.5 88.5t-357.5 -88.5t-278 -244t-136.5 -346.5q-27 -191 39.5 -347t209 -244.5t332.5 -88.5q142 0 275 52t235 142.5t172 216.5
t90 269z" />
    <glyph glyph-name="uni01EB" unicode="&#x1eb;" horiz-adv-x="1312" 
d="M735 1069q153 0 268 -71.5t168.5 -197t32.5 -278.5q-26 -190 -153 -332t-308 -192q-101 -44 -166 -106t-75 -130q-7 -57 24.5 -94t85.5 -37q59 0 115 35l12 -35q-67 -41 -137 -41q-71 0 -112.5 48t-32.5 118q10 66 62 124t134 100q-62 -5 -73 -5q-154 0 -269.5 71.5
t-169 197t-32.5 278.5t110.5 278.5t225.5 197t290 71.5zM1153 522q29 214 -92 356t-334 142t-375.5 -142.5t-191.5 -355.5q-29 -214 92 -355.5t334 -141.5t375.5 142t191.5 355z" />
    <glyph glyph-name="uni01F1" unicode="&#x1f1;" horiz-adv-x="2740" 
d="M856 1413q200 0 349.5 -92t218.5 -253.5t42 -360.5q-28 -199 -143 -361t-290.5 -254t-375.5 -92h-532l199 1413h532zM2750 1413l-4 -39l-1161 -1325h989l-8 -49h-1057l7 39l1159 1325h-967l8 49h1034zM1411 707q19 139 -14 260.5t-107 208.5t-188 137.5t-252 50.5h-479
l-187 -1315h482q138 0 266 50.5t226.5 137.5t165.5 209t87 261z" />
    <glyph glyph-name="uni01F2" unicode="&#x1f2;" horiz-adv-x="2584" 
d="M856 1413q200 0 349.5 -92t218.5 -253.5t42 -360.5q-28 -199 -143 -361t-290.5 -254t-375.5 -92h-532l199 1413h532zM1411 707q19 139 -14 260.5t-107 208.5t-188 137.5t-252 50.5h-479l-187 -1315h482q138 0 266 50.5t226.5 137.5t165.5 209t87 261zM2535 1044l-6 -34
l-864 -963h743l-6 -47h-813l8 35l863 962h-721l6 47h790z" />
    <glyph glyph-name="uni01F3" unicode="&#x1f3;" horiz-adv-x="2412" 
d="M1182 725l104 750h49l-207 -1475h-49l45 319q-79 -156 -227.5 -250t-323.5 -94q-153 0 -267 71.5t-166 196.5t-31 279q21 153 109 278.5t223 197t288 71.5q175 0 296 -94t157 -250zM2363 1044l-6 -34l-864 -963h743l-6 -47h-813l8 35l863 962h-721l6 47h790zM586 25
q207 0 366.5 134.5t196.5 338.5l6 45q22 206 -98.5 341.5t-329.5 135.5q-212 0 -374 -142t-193 -356q-29 -214 92.5 -355.5t333.5 -141.5z" />
    <glyph glyph-name="uni01F4" unicode="&#x1f4;" horiz-adv-x="1662" 
d="M1278 1808l-268 -227h-58l250 227h76zM948 694h633v-16q-28 -199 -143.5 -360t-292 -252t-377.5 -91q-154 0 -281.5 56.5t-210.5 153.5t-120 232.5t-15 289.5q28 205 147 372.5t301 263t388 95.5q191 0 338 -84.5t225 -231.5l-45 -30q-72 137 -209 215.5t-317 78.5
q-190 0 -357.5 -88.5t-278 -244t-136.5 -346.5q-27 -191 39.5 -347t209 -244.5t332.5 -88.5q180 0 340 79t267.5 221t136.5 318h-580z" />
    <glyph glyph-name="uni01F5" unicode="&#x1f5;" horiz-adv-x="1144" 
d="M977 1440l-268 -228h-58l250 228h76zM1141 1151h71l-6 -47h-69q-71 0 -120.5 -42.5t-58.5 -111.5l-2 -18q102 -129 78 -309q-26 -189 -175.5 -317t-344.5 -128q-156 0 -264 84q-49 -21 -82 -65.5t-41 -96.5q-11 -75 38 -121.5t138 -46.5h445q138 0 214.5 -65.5
t63.5 -173.5l-53 -6q12 89 -53 142.5t-183 53.5h-444q-110 0 -170.5 57.5t-46.5 149.5q7 61 46.5 116.5t96.5 84.5q-61 61 -88 147t-12 185q26 191 175 318.5t345 127.5q169 0 281 -98q13 82 74 131t147 49zM981 623q25 169 -75 284t-273 115q-174 0 -307 -115t-156 -284
t76 -283.5t272 -114.5t306.5 114.5t156.5 283.5z" />
    <glyph glyph-name="AEacute" unicode="&#x1fc;" horiz-adv-x="1843" 
d="M1434 1808l-269 -227h-57l250 227h76zM1831 1364h-758l-90 -629h690l-6 -49h-690l-90 -637h770l-6 -49h-822l62 440h-588l-344 -440h-63l1105 1413h838zM342 489h557l121 869z" />
    <glyph glyph-name="aeacute" unicode="&#x1fd;" horiz-adv-x="2105" 
d="M1399 1440l-269 -228h-57l250 228h76zM1542 1069q151 0 264.5 -71.5t165.5 -197t31 -278.5q0 -8 -4 -20h-1026q-22 -206 101.5 -342.5t336.5 -136.5q141 0 267 63.5t206 171.5l35 -29q-90 -119 -225.5 -186.5t-288.5 -67.5q-160 0 -279.5 77t-171.5 208
q-89 -123 -250.5 -204t-322.5 -81t-254 83.5t-76 209.5q19 120 123 199.5t242 79.5h514l18 135q23 154 -69 247t-265 93q-125 0 -225 -48.5t-156 -133.5l-30 26q64 95 174 149t246 54q176 0 278 -88t100 -238q83 148 228 237t313 89zM1534 1022q-202 0 -360 -135.5
t-195 -339.5h977q16 134 -33.5 243t-152 170.5t-236.5 61.5zM393 23q151 0 306.5 79.5t240.5 200.5q-25 97 -14 199h-512q-120 0 -208 -66t-102 -166q-15 -106 67 -176.5t222 -70.5z" />
    <glyph glyph-name="Oslashacute" unicode="&#x1fe;" horiz-adv-x="1693" 
d="M1286 1808l-268 -227h-57l249 227h76zM1636 1413l-178 -172q91 -100 130 -237.5t18 -296.5q-29 -205 -148.5 -373t-301 -263.5t-386.5 -95.5q-277 0 -453 168l-149 -143h-59l180 172q-92 100 -131.5 238t-16.5 297q28 205 147 372.5t301 263t388 95.5q274 0 450 -168
l150 143h59zM197 707q-21 -146 14 -273t119 -221l1056 1018q-161 155 -417 155q-190 0 -357.5 -88.5t-278 -244t-136.5 -346.5zM1550 707q21 146 -14 273.5t-119 221.5l-1059 -1018q160 -157 420 -157q142 0 275 52t235 142.5t172 216.5t90 269z" />
    <glyph glyph-name="oslashacute" unicode="&#x1ff;" horiz-adv-x="1312" 
d="M1038 1440l-268 -228h-57l250 228h75zM1227 1044l-131 -124q142 -159 108 -398q-21 -153 -110 -278.5t-225 -197t-289 -71.5q-210 0 -338 125l-105 -100h-51l131 125q-67 75 -96 177t-12 220q21 153 110.5 278.5t225.5 197t290 71.5q204 0 336 -123l103 98h53zM160 522
q-30 -218 96 -360l776 747q-121 111 -305 111q-213 0 -375.5 -142.5t-191.5 -355.5zM1153 522q30 219 -96 361l-776 -746q115 -112 305 -112q213 0 375.5 142t191.5 355z" />
    <glyph glyph-name="uni0200" unicode="&#x200;" horiz-adv-x="1447" 
d="M733 1581h-51l-143 227h63zM1069 1581h-49l-143 227h63zM1243 0l-131 440h-803l-254 -440h-57l817 1413h68l420 -1413h-60zM338 489h760l-256 869z" />
    <glyph glyph-name="uni0201" unicode="&#x201;" 
d="M649 1212h-51l-143 228h63zM985 1212h-49l-143 228h63zM1227 1044h49l-148 -1044h-49l45 319q-79 -156 -227.5 -250t-323.5 -94q-153 0 -267 71.5t-166 196.5t-31 279q21 153 109 278.5t223 197t288 71.5q176 0 296.5 -94t156.5 -252zM586 25q213 0 374.5 140.5
t192.5 352.5v4q29 214 -92 356t-334 142q-212 0 -374 -142t-193 -356q-29 -214 92.5 -355.5t333.5 -141.5z" />
    <glyph glyph-name="uni0202" unicode="&#x202;" horiz-adv-x="1447" 
d="M895 1745q-78 0 -137.5 -52.5t-71.5 -131.5h-43q14 95 87.5 160t170.5 65q95 0 151.5 -65t43.5 -160h-45q12 79 -33.5 131.5t-122.5 52.5zM1243 0l-131 440h-803l-254 -440h-57l817 1413h68l420 -1413h-60zM338 489h760l-256 869z" />
    <glyph glyph-name="uni0203" unicode="&#x203;" 
d="M811 1376q-78 0 -137.5 -52.5t-71.5 -131.5h-43q14 95 87.5 160t170.5 65q95 0 151.5 -65t43.5 -160h-45q12 79 -33.5 131.5t-122.5 52.5zM1227 1044h49l-148 -1044h-49l45 319q-79 -156 -227.5 -250t-323.5 -94q-153 0 -267 71.5t-166 196.5t-31 279q21 153 109 278.5
t223 197t288 71.5q176 0 296.5 -94t156.5 -252zM586 25q213 0 374.5 140.5t192.5 352.5v4q29 214 -92 356t-334 142q-212 0 -374 -142t-193 -356q-29 -214 92.5 -355.5t333.5 -141.5z" />
    <glyph glyph-name="uni0204" unicode="&#x204;" horiz-adv-x="1220" 
d="M664 1581h-52l-143 227h63zM999 1581h-49l-143 227h63zM1210 1364h-839l-90 -629h772l-9 -49h-770l-90 -637h850l-6 -49h-903l199 1413h893z" />
    <glyph glyph-name="uni0205" unicode="&#x205;" horiz-adv-x="1290" 
d="M614 1212h-51l-143 228h63zM950 1212h-49l-143 228h63zM727 1069q151 0 264.5 -71.5t165.5 -197t31 -278.5q0 -8 -4 -20h-1026q-22 -207 102 -343t338 -136q141 0 267 63.5t206 171.5l35 -29q-92 -119 -227.5 -186.5t-288.5 -67.5q-157 0 -275 71.5t-172.5 197
t-33.5 278.5t109 278.5t222.5 197t286.5 71.5zM719 1022q-202 0 -360 -135.5t-195 -339.5h975q20 205 -98.5 340t-321.5 135z" />
    <glyph glyph-name="uni0206" unicode="&#x206;" horiz-adv-x="1220" 
d="M825 1745q-78 0 -137.5 -52.5t-71.5 -131.5h-43q14 95 87.5 160t170.5 65q95 0 151.5 -65t43.5 -160h-45q12 79 -33.5 131.5t-122.5 52.5zM1210 1364h-839l-90 -629h772l-9 -49h-770l-90 -637h850l-6 -49h-903l199 1413h893z" />
    <glyph glyph-name="uni0207" unicode="&#x207;" horiz-adv-x="1290" 
d="M776 1376q-78 0 -137.5 -52.5t-71.5 -131.5h-43q14 95 87.5 160t170.5 65q95 0 151.5 -65t43.5 -160h-45q12 79 -33.5 131.5t-122.5 52.5zM727 1069q151 0 264.5 -71.5t165.5 -197t31 -278.5q0 -8 -4 -20h-1026q-22 -207 102 -343t338 -136q141 0 267 63.5t206 171.5
l35 -29q-92 -119 -227.5 -186.5t-288.5 -67.5q-157 0 -275 71.5t-172.5 197t-33.5 278.5t109 278.5t222.5 197t286.5 71.5zM719 1022q-202 0 -360 -135.5t-195 -339.5h975q20 205 -98.5 340t-321.5 135z" />
    <glyph glyph-name="uni0208" unicode="&#x208;" horiz-adv-x="450" 
d="M184 1581l-143 227h63l132 -227h-52zM522 1581l-143 227h63l129 -227h-49zM125 0l199 1413h53l-199 -1413h-53z" />
    <glyph glyph-name="uni0209" unicode="&#x209;" horiz-adv-x="407" 
d="M111 1212l-144 228h64l131 -228h-51zM449 1212l-144 228h64l129 -228h-49zM106 0l148 1044h49l-147 -1044h-50z" />
    <glyph glyph-name="uni020A" unicode="&#x20a;" horiz-adv-x="450" 
d="M145 1561q14 95 87.5 160t170.5 65q95 0 151.5 -65t43.5 -160h-45q12 79 -33.5 131.5t-122.5 52.5q-78 0 -137.5 -52.5t-71.5 -131.5h-43zM125 0l199 1413h53l-199 -1413h-53z" />
    <glyph glyph-name="uni020B" unicode="&#x20b;" horiz-adv-x="407" 
d="M72 1192q14 95 87.5 160t170.5 65q95 0 151 -65t43 -160h-45q12 79 -33 131.5t-122 52.5q-78 0 -137.5 -52.5t-71.5 -131.5h-43zM106 0l148 1044h49l-147 -1044h-50z" />
    <glyph glyph-name="uni020C" unicode="&#x20c;" horiz-adv-x="1693" 
d="M805 1581l-143 227h63l131 -227h-51zM1143 1581l-144 227h64l129 -227h-49zM770 -25q-154 0 -282.5 56.5t-211.5 153.5t-120 232.5t-15 289.5q28 205 147 372.5t301 263t388 95.5q205 0 359 -95.5t226 -263t44 -372.5q-29 -205 -148.5 -373t-301 -263.5t-386.5 -95.5z
M778 27q142 0 275 52t235 142.5t172 216.5t90 269q27 191 -39.5 346.5t-209 244t-332.5 88.5t-357.5 -88.5t-278 -244t-136.5 -346.5q-27 -191 39.5 -347t209 -244.5t332.5 -88.5z" />
    <glyph glyph-name="uni020D" unicode="&#x20d;" horiz-adv-x="1312" 
d="M563 1212l-143 228h63l131 -228h-51zM901 1212l-143 228h63l129 -228h-49zM580 -25q-154 0 -269.5 71.5t-169 197t-32.5 278.5t110.5 278.5t225.5 197t290 71.5q153 0 268 -71.5t168.5 -197t32.5 -278.5t-110 -278.5t-225 -197t-289 -71.5zM586 25q213 0 375.5 142
t191.5 355q29 214 -92 356t-334 142t-375.5 -142.5t-191.5 -355.5q-29 -214 92 -355.5t334 -141.5z" />
    <glyph glyph-name="uni020E" unicode="&#x20e;" horiz-adv-x="1693" 
d="M766 1561q14 95 87.5 160t170.5 65q95 0 151.5 -65t43.5 -160h-45q12 79 -33.5 131.5t-122.5 52.5q-78 0 -137.5 -52.5t-71.5 -131.5h-43zM770 -25q-154 0 -282.5 56.5t-211.5 153.5t-120 232.5t-15 289.5q28 205 147 372.5t301 263t388 95.5q205 0 359 -95.5t226 -263
t44 -372.5q-29 -205 -148.5 -373t-301 -263.5t-386.5 -95.5zM778 27q142 0 275 52t235 142.5t172 216.5t90 269q27 191 -39.5 346.5t-209 244t-332.5 88.5t-357.5 -88.5t-278 -244t-136.5 -346.5q-27 -191 39.5 -347t209 -244.5t332.5 -88.5z" />
    <glyph glyph-name="uni020F" unicode="&#x20f;" horiz-adv-x="1312" 
d="M524 1192q14 95 87.5 160t170.5 65q95 0 151.5 -65t43.5 -160h-45q12 79 -33.5 131.5t-122.5 52.5q-78 0 -137.5 -52.5t-71.5 -131.5h-43zM580 -25q-154 0 -269.5 71.5t-169 197t-32.5 278.5t110.5 278.5t225.5 197t290 71.5q153 0 268 -71.5t168.5 -197t32.5 -278.5
t-110 -278.5t-225 -197t-289 -71.5zM586 25q213 0 375.5 142t191.5 355q29 214 -92 356t-334 142t-375.5 -142.5t-191.5 -355.5q-29 -214 92 -355.5t334 -141.5z" />
    <glyph glyph-name="uni0210" unicode="&#x210;" horiz-adv-x="1232" 
d="M627 1581h-52l-143 227h64zM963 1581h-50l-143 227h64zM1188 1028q-23 -164 -149.5 -274.5t-290.5 -110.5h-154l473 -643h-70l-473 643h-256l-90 -643h-53l199 1413h532q165 0 261 -110.5t71 -274.5zM371 1364l-97 -674h480q141 0 250 96t131 240q20 145 -62.5 241.5
t-224.5 96.5h-477z" />
    <glyph glyph-name="uni0211" unicode="&#x211;" horiz-adv-x="741" 
d="M387 1212h-51l-143 228h63zM723 1212h-49l-144 228h64zM739 1061h25l-6 -51h-27q-188 0 -320.5 -112t-170.5 -302l-84 -596h-50l148 1044h49l-39 -274q70 136 195 213.5t280 77.5z" />
    <glyph glyph-name="uni0212" unicode="&#x212;" horiz-adv-x="1232" 
d="M788 1745q-78 0 -137 -52t-71 -132h-43q14 95 87.5 160t170.5 65q95 0 151 -65t43 -160h-45q12 79 -33.5 131.5t-122.5 52.5zM1188 1028q-23 -164 -149.5 -274.5t-290.5 -110.5h-154l473 -643h-70l-473 643h-256l-90 -643h-53l199 1413h532q165 0 261 -110.5t71 -274.5z
M371 1364l-97 -674h480q141 0 250 96t131 240q20 145 -62.5 241.5t-224.5 96.5h-477z" />
    <glyph glyph-name="uni0213" unicode="&#x213;" horiz-adv-x="741" 
d="M549 1376q-78 0 -137.5 -52.5t-71.5 -131.5h-43q14 95 87.5 160t170.5 65q95 0 151.5 -65t43.5 -160h-45q12 79 -33.5 131.5t-122.5 52.5zM739 1061h25l-6 -51h-27q-188 0 -320.5 -112t-170.5 -302l-84 -596h-50l148 1044h49l-39 -274q70 136 195 213.5t280 77.5z" />
    <glyph glyph-name="uni0214" unicode="&#x214;" horiz-adv-x="1437" 
d="M678 1581l-143 227h63l131 -227h-51zM1016 1581l-144 227h64l129 -227h-49zM641 -25q-156 0 -274 73t-172.5 201.5t-32.5 285.5l123 878h53l-123 -878q-32 -217 93 -362.5t343 -145.5q217 0 382 145.5t196 362.5l123 878h51l-123 -878q-34 -239 -217 -399.5t-422 -160.5z
" />
    <glyph glyph-name="uni0215" unicode="&#x215;" horiz-adv-x="1236" 
d="M526 1212l-143 228h63l132 -228h-52zM864 1212l-143 228h63l129 -228h-49zM541 -25q-203 0 -310 119.5t-79 315.5l90 634h49l-88 -628q-25 -177 69 -284t275 -107q182 0 308 107t149 284l90 628h49l-90 -634q-28 -196 -168.5 -315.5t-343.5 -119.5z" />
    <glyph glyph-name="uni0216" unicode="&#x216;" horiz-adv-x="1437" 
d="M639 1561q14 95 87.5 160t170.5 65q95 0 151.5 -65t43.5 -160h-45q12 79 -33.5 131.5t-122.5 52.5q-78 0 -137.5 -52.5t-71.5 -131.5h-43zM641 -25q-156 0 -274 73t-172.5 201.5t-32.5 285.5l123 878h53l-123 -878q-32 -217 93 -362.5t343 -145.5q217 0 382 145.5
t196 362.5l123 878h51l-123 -878q-34 -239 -217 -399.5t-422 -160.5z" />
    <glyph glyph-name="uni0217" unicode="&#x217;" horiz-adv-x="1236" 
d="M487 1192q14 95 87.5 160t170.5 65q95 0 151.5 -65t43.5 -160h-45q12 79 -33.5 131.5t-122.5 52.5q-78 0 -137.5 -52.5t-71.5 -131.5h-43zM541 -25q-203 0 -310 119.5t-79 315.5l90 634h49l-88 -628q-25 -177 69 -284t275 -107q182 0 308 107t149 284l90 628h49l-90 -634
q-28 -196 -168.5 -315.5t-343.5 -119.5z" />
    <glyph glyph-name="uni0218" unicode="&#x218;" horiz-adv-x="1185" 
d="M532 -25q-151 0 -277.5 60t-197.5 164l37 37q65 -93 182.5 -152t264.5 -59q188 0 324.5 91t156.5 234q6 41 -1 78t-21 65t-41 53.5t-50.5 43t-61 34.5t-62 26t-63.5 19.5t-54.5 14l-46.5 10.5q-63 13 -118 30t-115.5 48.5t-100.5 70.5t-62 99t-12 131q23 162 169 263.5
t345 101.5q134 0 239.5 -48.5t163.5 -134.5l-36 -34q-44 71 -145 119.5t-230 48.5q-175 0 -303.5 -88.5t-147.5 -225.5q-9 -64 13.5 -117.5t60.5 -86.5t95 -60t103.5 -40t100.5 -23q38 -7 73 -16t84 -26.5t89 -38t80.5 -52t66.5 -68t38.5 -87t4.5 -108.5
q-23 -164 -179.5 -270.5t-365.5 -106.5zM403 -432l93 268h57l-109 -268h-41z" />
    <glyph glyph-name="uni0219" unicode="&#x219;" horiz-adv-x="989" 
d="M420 -25q-125 0 -221.5 45t-153.5 125l37 35q50 -74 139 -115.5t205 -41.5q145 0 251.5 66.5t121.5 172.5q5 33 -1.5 60.5t-18 48t-37 39t-47 30t-60 25t-64.5 20.5t-71 19q-67 18 -104.5 30t-90.5 37t-79 52t-43 71t-9 99q18 128 133.5 202t265.5 74q109 0 194 -39.5
t138 -109.5l-35 -37q-45 65 -123 102t-178 37q-132 0 -230.5 -62.5t-113.5 -160.5q-5 -34 1.5 -62.5t18.5 -49.5t38 -40t48 -31t61.5 -25.5t64.5 -20.5t71 -19q69 -18 104.5 -28.5t89.5 -35t79 -51t41 -70.5t8 -100q-18 -132 -140 -211.5t-290 -79.5zM299 -432l92 268h58
l-109 -268h-41z" />
    <glyph glyph-name="uni021A" unicode="&#x21a;" horiz-adv-x="1218" 
d="M1272 1413l-6 -49h-514l-191 -1364h-53l192 1364h-512l7 49h1077zM412 -432l92 268h57l-108 -268h-41z" />
    <glyph glyph-name="uni021B" unicode="&#x21b;" horiz-adv-x="808" 
d="M432 999l-108 -778q-14 -105 31 -150.5t143 -45.5q87 0 161 38l-6 -49q-80 -39 -168 -39q-245 0 -213 240l111 784h-221l6 45h221l43 304h49l-43 -304h361l-6 -45h-361zM264 -432l92 268h58l-109 -268h-41z" />
    <glyph glyph-name="uni0232" unicode="&#x232;" horiz-adv-x="1378" 
d="M1057 1669l-6 -45h-410l6 45h410zM1397 1413h59l-735 -852l-80 -561h-51l78 561l-496 852h64l466 -801z" />
    <glyph glyph-name="uni0233" unicode="&#x233;" horiz-adv-x="1161" 
d="M897 1300l-6 -45h-410l6 45h410zM1122 1044h56l-816 -1318q-42 -69 -98.5 -104.5t-116.5 -35.5q-52 0 -101.5 26t-78.5 69l35 32q24 -36 62 -57t83 -21q101 0 175 111l155 248l-346 1050h57l326 -991z" />
    <glyph glyph-name="uni0237" unicode="&#x237;" horiz-adv-x="421" 
d="M-106 -414q-64 0 -113 27l6 47q42 -27 107 -27q175 0 200 187l172 1224h49l-172 -1230q-17 -115 -83 -171.5t-166 -56.5z" />
    <glyph glyph-name="uni02BC" unicode="&#x2bc;" horiz-adv-x="98" 
d="M84 1124l92 351h55l-106 -351h-41z" />
    <glyph glyph-name="circumflex" unicode="&#x2c6;" horiz-adv-x="481" 
d="M580 1212h-52l-161 195l-217 -195h-52l240 228h65z" />
    <glyph glyph-name="caron" unicode="&#x2c7;" horiz-adv-x="481" 
d="M559 1440h51l-239 -228h-66l-176 228h51l162 -199z" />
    <glyph glyph-name="breve" unicode="&#x2d8;" horiz-adv-x="452" 
d="M319 1192q-95 0 -150.5 64t-43.5 159h45q-10 -78 34.5 -131t121.5 -53t138 53t71 131h43q-12 -95 -87 -159t-172 -64z" />
    <glyph glyph-name="dotaccent" unicode="&#x2d9;" horiz-adv-x="102" 
d="M152 1241q-21 0 -33.5 15t-9.5 36q3 22 20 36.5t39 14.5q21 0 33 -14.5t10 -36.5q-3 -22 -20 -36.5t-39 -14.5z" />
    <glyph glyph-name="ring" unicode="&#x2da;" horiz-adv-x="268" 
d="M225 1180q-57 0 -89.5 38t-24.5 95q7 57 51.5 95t101.5 38t90 -38t25 -95q-7 -57 -52 -95t-102 -38zM231 1214q40 0 72.5 29t36.5 70q6 43 -17.5 70.5t-64.5 27.5q-40 0 -71 -28t-37 -70q-6 -41 17.5 -70t63.5 -29z" />
    <glyph glyph-name="ogonek" unicode="&#x2db;" horiz-adv-x="301" 
d="M37 -412q-71 0 -113 48t-33 118q12 77 82 143t177 109h36l2 -6q-104 -44 -172.5 -107.5t-78.5 -132.5q-7 -57 24.5 -94t85.5 -37q59 0 115 35l12 -35q-67 -41 -137 -41z" />
    <glyph glyph-name="tilde" unicode="&#x2dc;" horiz-adv-x="636" 
d="M563 1227q-37 0 -67.5 15.5t-52 37.5t-42 43.5t-48 37t-60.5 15.5q-56 0 -99.5 -38.5t-50.5 -96.5h-41q9 75 65 125.5t130 50.5q37 0 67.5 -15t52 -36.5t42 -43.5t48 -37t60.5 -15q57 0 100 38.5t50 96.5h43q-11 -76 -67 -127t-130 -51z" />
    <glyph glyph-name="hungarumlaut" unicode="&#x2dd;" horiz-adv-x="563" 
d="M98 1212l193 228h63l-207 -228h-49zM434 1212l193 228h65l-207 -228h-51z" />
    <glyph glyph-name="gravecomb" unicode="&#x300;" horiz-adv-x="0" 
d="M41 1212l-205 228h74l188 -228h-57z" />
    <glyph glyph-name="acutecomb" unicode="&#x301;" horiz-adv-x="0" 
d="M-195 1212l250 228h76l-268 -228h-58z" />
    <glyph glyph-name="uni0302" unicode="&#x302;" horiz-adv-x="0" 
d="M98 1212h-51l-162 195l-217 -195h-51l240 228h65z" />
    <glyph glyph-name="tildecomb" unicode="&#x303;" horiz-adv-x="0" 
d="M-74 1227q-37 0 -67.5 15.5t-52 37.5t-42 43.5t-48 37t-60.5 15.5q-56 0 -99.5 -38.5t-50.5 -96.5h-41q9 75 65 125.5t130 50.5q37 0 67.5 -15t52 -36.5t42 -43.5t48 -37t60.5 -15q57 0 100 38.5t50 96.5h43q-11 -76 -67 -127t-130 -51z" />
    <glyph glyph-name="uni0304" unicode="&#x304;" horiz-adv-x="0" 
d="M-305 1255l6 45h410l-7 -45h-409z" />
    <glyph glyph-name="uni0306" unicode="&#x306;" horiz-adv-x="0" 
d="M-133 1192q-95 0 -151 64t-44 159h45q-10 -78 34.5 -131t121.5 -53t138 53t71 131h43q-12 -95 -86.5 -159t-171.5 -64z" />
    <glyph glyph-name="uni0307" unicode="&#x307;" horiz-adv-x="0" 
d="M49 1241q-21 0 -33.5 15t-9.5 36q3 22 20.5 36.5t39.5 14.5q21 0 33 -14.5t10 -36.5q-3 -22 -20.5 -36.5t-39.5 -14.5z" />
    <glyph glyph-name="uni0308" unicode="&#x308;" horiz-adv-x="0" 
d="M-346 1241q-22 0 -34 14.5t-9 36.5q1 20 18.5 34.5t38.5 14.5q22 0 34 -14.5t9 -34.5q-3 -22 -19 -36.5t-38 -14.5zM51 1241q-22 0 -34 14.5t-9 36.5q3 20 20.5 34.5t37.5 14.5q22 0 34 -14.5t9 -34.5q-3 -22 -19.5 -36.5t-38.5 -14.5z" />
    <glyph glyph-name="uni030A" unicode="&#x30a;" horiz-adv-x="0" 
d="M-43 1180q-57 0 -90 38t-25 95q7 57 52 95t102 38t90 -38t25 -95q-7 -57 -52 -95t-102 -38zM-37 1214q40 0 72.5 29t36.5 70q6 43 -17.5 70.5t-64.5 27.5q-40 0 -71.5 -28t-37.5 -70q-6 -41 18 -70t64 -29z" />
    <glyph glyph-name="uni030B" unicode="&#x30b;" horiz-adv-x="0" 
d="M-465 1212l193 228h63l-207 -228h-49zM-129 1212l192 228h66l-207 -228h-51z" />
    <glyph glyph-name="uni030C" unicode="&#x30c;" horiz-adv-x="0" 
d="M78 1440h51l-240 -228h-65l-176 228h51l162 -199z" />
    <glyph glyph-name="uni030F" unicode="&#x30f;" horiz-adv-x="0" 
d="M-291 1212l-143 228h63l131 -228h-51zM47 1212l-143 228h63l129 -228h-49z" />
    <glyph glyph-name="uni0311" unicode="&#x311;" horiz-adv-x="0" 
d="M-358 1192q14 95 87.5 160t170.5 65q95 0 151 -65t43 -160h-45q12 79 -33 131.5t-122 52.5q-78 0 -137.5 -52.5t-71.5 -131.5h-43z" />
    <glyph glyph-name="uni0312" unicode="&#x312;" horiz-adv-x="0" 
d="M-16 1192l106 270h43l-92 -270h-57z" />
    <glyph glyph-name="dotbelowcomb" unicode="&#x323;" horiz-adv-x="0" 
d="M-168 -299q-22 0 -34 14.5t-9 36.5t20 36.5t37 14.5q22 0 35 -14.5t10 -36.5t-20 -36.5t-39 -14.5z" />
    <glyph glyph-name="uni0326" unicode="&#x326;" horiz-adv-x="0" 
d="M-244 -432l92 268h58l-109 -268h-41z" />
    <glyph glyph-name="uni0327" unicode="&#x327;" horiz-adv-x="0" 
d="M-244 -82q67 0 106.5 -47.5t28.5 -116.5q-9 -70 -64 -118t-126 -48q-51 0 -89 27.5t-52 71.5l34 20q11 -37 40.5 -59.5t70.5 -22.5q56 0 97.5 37t47.5 92q9 54 -21.5 90.5t-84.5 36.5q-50 0 -88 -33l-31 17l117 135v4h43v-4l-84 -92q27 10 55 10z" />
    <glyph glyph-name="uni0328" unicode="&#x328;" horiz-adv-x="0" 
d="M-264 -412q-71 0 -113 48t-33 118q12 77 81.5 143t176.5 109h37l2 -6q-104 -44 -173 -107.5t-79 -132.5q-7 -57 25 -94t86 -37q59 0 115 35l12 -35q-67 -41 -137 -41z" />
    <glyph glyph-name="uni0335" unicode="&#x335;" horiz-adv-x="0" 
d="M-545 541l4 41h549l-6 -41h-547z" />
    <glyph glyph-name="uni0336" unicode="&#x336;" horiz-adv-x="0" 
d="M-1360 541l4 41h1366l-6 -41h-1364z" />
    <glyph glyph-name="uni0337" unicode="&#x337;" horiz-adv-x="0" 
d="M-1067 0l1087 1044h54l-1090 -1044h-51z" />
    <glyph glyph-name="uni0338" unicode="&#x338;" horiz-adv-x="0" 
d="M-1403 0l1469 1413h59l-1468 -1413h-60z" />
    <glyph glyph-name="uni03BC" unicode="&#x3bc;" horiz-adv-x="1277" 
d="M1124 1044h50l-148 -1044h-49l35 244q-66 -127 -188 -198t-275 -71q-140 0 -235 63.5t-128 174.5l-86 -602h-49l203 1433h49l-92 -645q-15 -171 79.5 -272.5t270.5 -101.5q188 0 319 110.5t156 294.5h2z" />
    <glyph glyph-name="uni1E0C" unicode="&#x1e0c;" horiz-adv-x="1554" 
d="M856 1413q200 0 349.5 -92t218.5 -253.5t42 -360.5q-28 -199 -143 -361t-290.5 -254t-375.5 -92h-532l199 1413h532zM1411 707q19 139 -14 260.5t-107 208.5t-188 137.5t-252 50.5h-479l-187 -1315h482q138 0 266 50.5t226.5 137.5t165.5 209t87 261zM657 -197
q22 0 35 -14.5t10 -36.5t-20 -36.5t-39 -14.5t-34 14.5t-9 36.5t20 36.5t37 14.5z" />
    <glyph glyph-name="uni1E0D" unicode="&#x1e0d;" 
d="M1286 1475h49l-207 -1475h-49l45 319q-79 -156 -227.5 -250t-323.5 -94q-153 0 -267 71.5t-166 196.5t-31 279q21 153 109 278.5t223 197t288 71.5q175 0 296 -94t157 -250zM586 25q207 0 366.5 134.5t196.5 338.5l6 45q22 206 -98.5 341.5t-329.5 135.5
q-212 0 -374 -142t-193 -356q-29 -214 92.5 -355.5t333.5 -141.5zM588 -197q22 0 35 -14.5t10 -36.5t-20.5 -36.5t-39.5 -14.5t-34 14.5t-9 36.5q3 21 20 36t38 15z" />
    <glyph glyph-name="uni1E24" unicode="&#x1e24;" horiz-adv-x="1519" 
d="M1393 1413h53l-199 -1413h-53l96 686h-1016l-96 -686h-53l199 1413h53l-96 -678h1015zM659 -197q22 0 35.5 -14.5t10.5 -36.5t-20.5 -36.5t-39.5 -14.5t-34 14.5t-9 36.5t20 36.5t37 14.5z" />
    <glyph glyph-name="uni1E25" unicode="&#x1e25;" horiz-adv-x="1288" 
d="M745 1069q203 0 310 -124t78 -327l-86 -618h-50l84 608q28 187 -68 299.5t-284 112.5q-187 0 -318.5 -105t-166.5 -284l-88 -631h-50l207 1475h49l-96 -680q69 130 194.5 202t284.5 72zM547 -197q22 0 35 -14.5t10 -36.5t-20.5 -36.5t-39.5 -14.5t-34 14.5t-9 36.5
q3 21 20 36t38 15z" />
    <glyph glyph-name="uni1E44" unicode="&#x1e44;" horiz-adv-x="1531" 
d="M920 1610q-21 0 -33.5 15t-9.5 36q3 22 20 36.5t39 14.5q21 0 33 -14.5t10 -36.5q-3 -22 -20 -36.5t-39 -14.5zM1405 1413h53l-198 -1413h-64l-829 1339l-189 -1339h-53l199 1413h65l830 -1339z" />
    <glyph glyph-name="uni1E45" unicode="&#x1e45;" horiz-adv-x="1288" 
d="M745 1241q-21 0 -33.5 15t-9.5 36q3 22 20.5 36.5t39.5 14.5q21 0 33 -14.5t10 -36.5q-3 -22 -20.5 -36.5t-39.5 -14.5zM745 1069q203 0 310 -124t78 -327l-86 -618h-50l84 608q28 187 -68 299.5t-284 112.5q-184 0 -315 -103.5t-168 -277.5l-90 -639h-50l148 1044h49
l-35 -247q68 128 193 200t284 72z" />
    <glyph glyph-name="uni1E5A" unicode="&#x1e5a;" horiz-adv-x="1232" 
d="M1188 1028q-23 -164 -149.5 -274.5t-290.5 -110.5h-154l473 -643h-70l-473 643h-256l-90 -643h-53l199 1413h532q165 0 261 -110.5t71 -274.5zM371 1364l-97 -674h480q141 0 250 96t131 240q20 145 -62.5 241.5t-224.5 96.5h-477zM516 -197q22 0 35 -14.5t10 -36.5
t-20 -36.5t-39 -14.5t-34 14.5t-9 36.5t20 36.5t37 14.5z" />
    <glyph glyph-name="uni1E5B" unicode="&#x1e5b;" horiz-adv-x="741" 
d="M739 1061h25l-6 -51h-27q-188 0 -320.5 -112t-170.5 -302l-84 -596h-50l148 1044h49l-39 -274q70 136 195 213.5t280 77.5zM102 -197q22 0 35 -14.5t10 -36.5t-20 -36.5t-39 -14.5t-34 14.5t-9 36.5t20 36.5t37 14.5z" />
    <glyph glyph-name="uni1E62" unicode="&#x1e62;" horiz-adv-x="1185" 
d="M532 -25q-151 0 -277.5 60t-197.5 164l37 37q65 -93 182.5 -152t264.5 -59q188 0 324.5 91t156.5 234q6 41 -1 78t-21 65t-41 53.5t-50.5 43t-61 34.5t-62 26t-63.5 19.5t-54.5 14l-46.5 10.5q-63 13 -118 30t-115.5 48.5t-100.5 70.5t-62 99t-12 131q23 162 169 263.5
t345 101.5q134 0 239.5 -48.5t163.5 -134.5l-36 -34q-44 71 -145 119.5t-230 48.5q-175 0 -303.5 -88.5t-147.5 -225.5q-9 -64 13.5 -117.5t60.5 -86.5t95 -60t103.5 -40t100.5 -23q38 -7 73 -16t84 -26.5t89 -38t80.5 -52t66.5 -68t38.5 -87t4.5 -108.5
q-23 -164 -179.5 -270.5t-365.5 -106.5zM485 -299q-22 0 -34 14.5t-9 36.5q3 21 20 36t38 15q22 0 35 -14.5t10 -36.5t-20.5 -36.5t-39.5 -14.5z" />
    <glyph glyph-name="uni1E63" unicode="&#x1e63;" horiz-adv-x="989" 
d="M420 -25q-125 0 -221.5 45t-153.5 125l37 35q50 -74 139 -115.5t205 -41.5q145 0 251.5 66.5t121.5 172.5q5 33 -1.5 60.5t-18 48t-37 39t-47 30t-60 25t-64.5 20.5t-71 19q-67 18 -104.5 30t-90.5 37t-79 52t-43 71t-9 99q18 128 133.5 202t265.5 74q109 0 194 -39.5
t138 -109.5l-35 -37q-45 65 -123 102t-178 37q-132 0 -230.5 -62.5t-113.5 -160.5q-5 -34 1.5 -62.5t18.5 -49.5t38 -40t48 -31t61.5 -25.5t64.5 -20.5t71 -19q69 -18 104.5 -28.5t89.5 -35t79 -51t41 -70.5t8 -100q-18 -132 -140 -211.5t-290 -79.5zM381 -299
q-22 0 -34 14.5t-9 36.5t20 36.5t37 14.5q22 0 35 -14.5t10 -36.5t-20 -36.5t-39 -14.5z" />
    <glyph glyph-name="uni1E6C" unicode="&#x1e6c;" horiz-adv-x="1218" 
d="M1272 1413l-6 -49h-514l-191 -1364h-53l192 1364h-512l7 49h1077zM508 -197q22 0 35 -14.5t10 -36.5t-20 -36.5t-39 -14.5t-34 14.5t-9 36.5t20 36.5t37 14.5z" />
    <glyph glyph-name="uni1E6D" unicode="&#x1e6d;" horiz-adv-x="808" 
d="M432 999l-108 -778q-14 -105 31 -150.5t143 -45.5q87 0 161 38l-6 -49q-80 -39 -168 -39q-245 0 -213 240l111 784h-221l6 45h221l43 304h49l-43 -304h361l-6 -45h-361zM360 -197q22 0 35.5 -14.5t10.5 -36.5t-20.5 -36.5t-39.5 -14.5t-34 14.5t-9 36.5t20 36.5t37 14.5z
" />
    <glyph glyph-name="Wgrave" unicode="&#x1e80;" horiz-adv-x="2119" 
d="M1251 1581h-57l-205 227h74zM2105 1413h56l-666 -1413h-57l-262 1343l-641 -1343h-60l-266 1413h57l250 -1350l641 1350h55l265 -1350z" />
    <glyph glyph-name="wgrave" unicode="&#x1e81;" horiz-adv-x="1806" 
d="M1044 1212h-57l-205 228h74zM1763 1044h54l-547 -1044h-58l-243 987l-523 -987h-57l-252 1044h56l233 -993l524 993h56l241 -991z" />
    <glyph glyph-name="Wacute" unicode="&#x1e82;" horiz-adv-x="2119" 
d="M1493 1808l-268 -227h-58l250 227h76zM2105 1413h56l-666 -1413h-57l-262 1343l-641 -1343h-60l-266 1413h57l250 -1350l641 1350h55l265 -1350z" />
    <glyph glyph-name="wacute" unicode="&#x1e83;" horiz-adv-x="1806" 
d="M1284 1440l-268 -228h-58l250 228h76zM1763 1044h54l-547 -1044h-58l-243 987l-523 -987h-57l-252 1044h56l233 -993l524 993h56l241 -991z" />
    <glyph glyph-name="Wdieresis" unicode="&#x1e84;" horiz-adv-x="2119" 
d="M1014 1610q-22 0 -34 14.5t-9 36.5q1 20 18.5 34.5t38.5 14.5q22 0 34 -14.5t9 -34.5q-3 -22 -19 -36.5t-38 -14.5zM1411 1610q-22 0 -34 14.5t-9 36.5q3 20 20 34.5t37 14.5q22 0 34 -14.5t9 -34.5q-3 -22 -19 -36.5t-38 -14.5zM2105 1413h56l-666 -1413h-57l-262 1343
l-641 -1343h-60l-266 1413h57l250 -1350l641 1350h55l265 -1350z" />
    <glyph glyph-name="wdieresis" unicode="&#x1e85;" horiz-adv-x="1806" 
d="M805 1241q-22 0 -34 14.5t-9 36.5q1 20 18.5 34.5t38.5 14.5q22 0 34 -14.5t9 -34.5q-3 -22 -19 -36.5t-38 -14.5zM1202 1241q-22 0 -34 14.5t-9 36.5q3 20 20.5 34.5t37.5 14.5q22 0 34 -14.5t9 -34.5q-3 -22 -19.5 -36.5t-38.5 -14.5zM1763 1044h54l-547 -1044h-58
l-243 987l-523 -987h-57l-252 1044h56l233 -993l524 993h56l241 -991z" />
    <glyph glyph-name="uni1E92" unicode="&#x1e92;" horiz-adv-x="1257" 
d="M1268 1413l-4 -39l-1162 -1325h990l-9 -49h-1056l6 39l1159 1325h-967l8 49h1035zM524 -197q22 0 35 -14.5t10 -36.5t-20 -36.5t-39 -14.5t-34 14.5t-9 36.5t20 36.5t37 14.5z" />
    <glyph glyph-name="uni1E93" unicode="&#x1e93;" horiz-adv-x="1030" 
d="M981 1044l-6 -34l-864 -963h743l-6 -47h-813l8 35l862 962h-721l6 47h791zM414 -197q22 0 35 -14.5t10 -36.5t-20.5 -36.5t-39.5 -14.5t-34 14.5t-9 36.5q3 21 20 36t38 15z" />
    <glyph glyph-name="uni1E9E" unicode="&#x1e9e;" horiz-adv-x="1294" 
d="M829 846q186 0 293.5 -124t81.5 -310q-26 -187 -168.5 -312t-328.5 -125q-65 0 -130.5 23t-105.5 59l8 62q31 -38 98 -65t134 -27q166 0 291 110.5t147 274.5q23 165 -70.5 275t-257.5 110h-131l6 39l447 528h-602q-76 0 -134 -51.5t-69 -128.5l-168 -1184h-53l168 1186
q13 98 87.5 162.5t172.5 64.5h667l-6 -43l-448 -524h71z" />
    <glyph glyph-name="uni1EA0" unicode="&#x1ea0;" horiz-adv-x="1447" 
d="M1303 0h-60l-131 440h-803l-254 -440h-57l817 1413h68zM338 489h760l-256 869zM621 -197q22 0 35 -14.5t10 -36.5t-20.5 -36.5t-39.5 -14.5t-34 14.5t-9 36.5q3 21 20 36t38 15z" />
    <glyph glyph-name="uni1EA1" unicode="&#x1ea1;" 
d="M1227 1044h49l-148 -1044h-49l45 319q-79 -156 -227.5 -250t-323.5 -94q-153 0 -267 71.5t-166 196.5t-31 279q21 153 109 278.5t223 197t288 71.5q176 0 296.5 -94t156.5 -252zM586 25q213 0 374.5 140.5t192.5 352.5v4q29 214 -92 356t-334 142q-212 0 -374 -142
t-193 -356q-29 -214 92.5 -355.5t333.5 -141.5zM590 -197q22 0 35 -14.5t10 -36.5t-20.5 -36.5t-39.5 -14.5t-34 14.5t-9 36.5q3 21 20 36t38 15z" />
    <glyph glyph-name="uni1EB8" unicode="&#x1eb8;" horiz-adv-x="1220" 
d="M1210 1364h-839l-90 -629h772l-9 -49h-770l-90 -637h850l-6 -49h-903l199 1413h893zM553 -197q22 0 35 -14.5t10 -36.5t-20 -36.5t-39 -14.5t-34 14.5t-9 36.5t20 36.5t37 14.5z" />
    <glyph glyph-name="uni1EB9" unicode="&#x1eb9;" horiz-adv-x="1290" 
d="M727 1069q151 0 264.5 -71.5t165.5 -197t31 -278.5q0 -8 -4 -20h-1026q-22 -207 102 -343t338 -136q141 0 267 63.5t206 171.5l35 -29q-92 -119 -227.5 -186.5t-288.5 -67.5q-157 0 -275 71.5t-172.5 197t-33.5 278.5t109 278.5t222.5 197t286.5 71.5zM719 1022
q-202 0 -360 -135.5t-195 -339.5h975q20 205 -98.5 340t-321.5 135zM555 -197q22 0 35 -14.5t10 -36.5t-20 -36.5t-39 -14.5t-34 14.5t-9 36.5t20 36.5t37 14.5z" />
    <glyph glyph-name="uni1EBC" unicode="&#x1ebc;" horiz-adv-x="1220" 
d="M680 1745q-56 0 -99.5 -38.5t-50.5 -96.5h-41q9 75 65 125.5t130 50.5q37 0 67.5 -15t52 -37t42 -44t48 -37t60.5 -15q57 0 100 39t50 97h43q-11 -76 -67 -127.5t-130 -51.5q-37 0 -67.5 15.5t-52 37.5t-42 44t-48 37.5t-60.5 15.5zM1210 1364h-839l-90 -629h772l-9 -49
h-770l-90 -637h850l-6 -49h-903l199 1413h893z" />
    <glyph glyph-name="uni1EBD" unicode="&#x1ebd;" horiz-adv-x="1290" 
d="M631 1376q-56 0 -99.5 -38.5t-50.5 -96.5h-41q9 75 65 125.5t130 50.5q37 0 67.5 -15t52 -36.5t42 -43.5t48 -37t60.5 -15q57 0 100 38.5t50 96.5h43q-11 -76 -67 -127t-130 -51q-37 0 -67.5 15.5t-52 37.5t-42 43.5t-48 37t-60.5 15.5zM727 1069q151 0 264.5 -71.5
t165.5 -197t31 -278.5q0 -8 -4 -20h-1026q-22 -207 102 -343t338 -136q141 0 267 63.5t206 171.5l35 -29q-92 -119 -227.5 -186.5t-288.5 -67.5q-157 0 -275 71.5t-172.5 197t-33.5 278.5t109 278.5t222.5 197t286.5 71.5zM719 1022q-202 0 -360 -135.5t-195 -339.5h975
q20 205 -98.5 340t-321.5 135z" />
    <glyph glyph-name="uni1ECA" unicode="&#x1eca;" horiz-adv-x="450" 
d="M125 0l199 1413h53l-199 -1413h-53zM111 -299q-22 0 -34 14.5t-9 36.5t20 36.5t37 14.5q22 0 35 -14.5t10 -36.5t-20 -36.5t-39 -14.5z" />
    <glyph glyph-name="uni1ECB" unicode="&#x1ecb;" horiz-adv-x="407" 
d="M317 1333q-20 0 -31.5 13t-9.5 34q1 20 18.5 35t37.5 15t31.5 -14.5t9.5 -35.5q-3 -20 -19.5 -33.5t-36.5 -13.5zM106 0l148 1044h49l-147 -1044h-50zM88 -299q-22 0 -34 14.5t-9 36.5t20 36.5t37 14.5q22 0 35 -14.5t10 -36.5t-20 -36.5t-39 -14.5z" />
    <glyph glyph-name="uni1ECC" unicode="&#x1ecc;" horiz-adv-x="1693" 
d="M770 -25q-154 0 -282.5 56.5t-211.5 153.5t-120 232.5t-15 289.5q28 205 147 372.5t301 263t388 95.5q205 0 359 -95.5t226 -263t44 -372.5q-29 -205 -148.5 -373t-301 -263.5t-386.5 -95.5zM778 27q142 0 275 52t235 142.5t172 216.5t90 269q27 191 -39.5 346.5
t-209 244t-332.5 88.5t-357.5 -88.5t-278 -244t-136.5 -346.5q-27 -191 39.5 -347t209 -244.5t332.5 -88.5zM731 -299q-22 0 -34 14.5t-9 36.5t20 36.5t37 14.5q22 0 35.5 -14.5t10.5 -36.5t-20.5 -36.5t-39.5 -14.5z" />
    <glyph glyph-name="uni1ECD" unicode="&#x1ecd;" horiz-adv-x="1312" 
d="M580 -25q-154 0 -269.5 71.5t-169 197t-32.5 278.5t110.5 278.5t225.5 197t290 71.5q153 0 268 -71.5t168.5 -197t32.5 -278.5t-110 -278.5t-225 -197t-289 -71.5zM586 25q213 0 375.5 142t191.5 355q29 214 -92 356t-334 142t-375.5 -142.5t-191.5 -355.5
q-29 -214 92 -355.5t334 -141.5zM541 -299q-22 0 -34 14.5t-9 36.5t20 36.5t37 14.5q22 0 35 -14.5t10 -36.5t-20 -36.5t-39 -14.5z" />
    <glyph glyph-name="uni1EE4" unicode="&#x1ee4;" horiz-adv-x="1437" 
d="M641 -25q-156 0 -274 73t-172.5 201.5t-32.5 285.5l123 878h53l-123 -878q-32 -217 93 -362.5t343 -145.5q217 0 382 145.5t196 362.5l123 878h51l-123 -878q-34 -239 -217 -399.5t-422 -160.5zM602 -299q-22 0 -34 14.5t-9 36.5t20 36.5t37 14.5q22 0 35.5 -14.5
t10.5 -36.5t-20.5 -36.5t-39.5 -14.5z" />
    <glyph glyph-name="uni1EE5" unicode="&#x1ee5;" horiz-adv-x="1236" 
d="M541 -25q-203 0 -310 119.5t-79 315.5l90 634h49l-88 -628q-25 -177 69 -284t275 -107q182 0 308 107t149 284l90 628h49l-90 -634q-28 -196 -168.5 -315.5t-343.5 -119.5zM502 -299q-22 0 -34 14.5t-9 36.5t20 36.5t37 14.5q22 0 35 -14.5t10 -36.5t-20 -36.5t-39 -14.5
z" />
    <glyph glyph-name="Ygrave" unicode="&#x1ef2;" horiz-adv-x="1378" 
d="M883 1581h-58l-204 227h73zM1397 1413h59l-735 -852l-80 -561h-51l78 561l-496 852h64l466 -801z" />
    <glyph glyph-name="ygrave" unicode="&#x1ef3;" horiz-adv-x="1161" 
d="M723 1212h-57l-205 228h74zM1122 1044h56l-816 -1318q-42 -69 -98.5 -104.5t-116.5 -35.5q-52 0 -101.5 26t-78.5 69l35 32q24 -36 62 -57t83 -21q101 0 175 111l155 248l-346 1050h57l326 -991z" />
    <glyph glyph-name="uni1EF8" unicode="&#x1ef8;" horiz-adv-x="1378" 
d="M717 1745q-56 0 -99.5 -38.5t-50.5 -96.5h-41q9 75 65 125.5t130 50.5q37 0 67.5 -15t52 -37t42 -44t48 -37t60.5 -15q57 0 100 39t50 97h43q-11 -76 -67 -127.5t-130 -51.5q-37 0 -67.5 15.5t-52 37.5t-42 44t-48 37.5t-60.5 15.5zM1397 1413h59l-735 -852l-80 -561h-51
l78 561l-496 852h64l466 -801z" />
    <glyph glyph-name="uni1EF9" unicode="&#x1ef9;" horiz-adv-x="1161" 
d="M557 1376q-56 0 -99 -38.5t-50 -96.5h-41q9 75 64.5 125.5t129.5 50.5q37 0 67.5 -15t52 -36.5t42 -43.5t48 -37t60.5 -15q57 0 100 38.5t50 96.5h43q-11 -76 -67 -127t-130 -51q-37 0 -67.5 15.5t-52 37.5t-42 43.5t-48 37t-60.5 15.5zM1122 1044h56l-816 -1318
q-42 -69 -98.5 -104.5t-116.5 -35.5q-52 0 -101.5 26t-78.5 69l35 32q24 -36 62 -57t83 -21q101 0 175 111l155 248l-346 1050h57l326 -991z" />
    <glyph glyph-name="endash" unicode="&#x2013;" horiz-adv-x="1245" 
d="M147 539l7 45h956l-6 -45h-957z" />
    <glyph glyph-name="emdash" unicode="&#x2014;" horiz-adv-x="2187" 
d="M147 539l7 45h1898l-6 -45h-1899z" />
    <glyph glyph-name="quoteleft" unicode="&#x2018;" horiz-adv-x="419" 
d="M205 997l215 416h47l-197 -416h-65z" />
    <glyph glyph-name="quoteright" unicode="&#x2019;" horiz-adv-x="419" 
d="M205 997l196 416h66l-215 -416h-47z" />
    <glyph glyph-name="quotesinglbase" unicode="&#x201a;" horiz-adv-x="434" 
d="M-29 -295l197 414h63l-215 -414h-45z" />
    <glyph glyph-name="quotedblleft" unicode="&#x201c;" horiz-adv-x="778" 
d="M205 997l215 416h47l-197 -416h-65zM565 997l215 416h45l-196 -416h-64z" />
    <glyph glyph-name="quotedblright" unicode="&#x201d;" horiz-adv-x="778" 
d="M205 997l196 416h66l-215 -416h-47zM565 997l197 416h63l-215 -416h-45z" />
    <glyph glyph-name="quotedblbase" unicode="&#x201e;" horiz-adv-x="794" 
d="M-29 -295l197 414h63l-215 -414h-45zM330 -295l196 414h66l-217 -414h-45z" />
    <glyph glyph-name="dagger" unicode="&#x2020;" horiz-adv-x="1011" 
d="M940 1044l-6 -45h-336l-197 -1388h-49l197 1388h-336l6 45h336l51 369h49l-51 -369h336z" />
    <glyph glyph-name="daggerdbl" unicode="&#x2021;" horiz-adv-x="1011" 
d="M934 999h-336l-133 -933h336l-4 -46h-338l-58 -409h-49l58 409h-334l4 46h336l133 933h-336l6 45h336l51 369h49l-51 -369h336z" />
    <glyph glyph-name="bullet" unicode="&#x2022;" horiz-adv-x="559" 
d="M266 426q-58 0 -90.5 38t-23.5 97q7 58 50.5 96.5t100.5 38.5q59 0 92.5 -38.5t24.5 -96.5q-7 -58 -51 -96.5t-103 -38.5z" />
    <glyph glyph-name="ellipsis" unicode="&#x2026;" horiz-adv-x="1267" 
d="M137 -8q-23 0 -36.5 16t-10.5 39q3 25 21 40t43 15q23 0 36.5 -15t10.5 -40q-3 -23 -21 -39t-43 -16zM559 -8q-23 0 -36.5 16t-10.5 39q3 25 20.5 40t42.5 15q24 0 37.5 -15.5t10.5 -39.5q-3 -23 -21 -39t-43 -16zM981 -8q-23 0 -36.5 16t-10.5 39q3 25 20.5 40t42.5 15
q23 0 36.5 -15t10.5 -40q-3 -24 -21 -39.5t-42 -15.5z" />
    <glyph glyph-name="perthousand" unicode="&#x2030;" horiz-adv-x="2379" 
d="M469 827q-131 0 -207 88t-57 218q19 131 118.5 218t229.5 87q132 0 206.5 -87t55.5 -218t-117.5 -218.5t-228.5 -87.5zM205 0l1222 1413h58l-1223 -1413h-57zM473 872q110 0 195 75.5t100 185.5q17 112 -46.5 186t-174.5 74q-109 0 -193.5 -74t-101.5 -186
q-15 -111 48 -186t173 -75zM1135 -25q-131 0 -206 88t-55 218q19 130 118.5 217.5t230.5 87.5t206 -87.5t56 -217.5q-19 -131 -118.5 -218.5t-231.5 -87.5zM1876 -25q-130 0 -205.5 87.5t-56.5 218.5q20 131 120 218t230 87q131 0 206 -87.5t56 -217.5q-20 -131 -120 -218.5
t-230 -87.5zM1143 20q109 0 193.5 74.5t101.5 186.5q15 110 -48.5 185t-172.5 75q-110 0 -195 -75t-100 -185q-17 -112 46.5 -186.5t174.5 -74.5zM1882 20q110 0 195 74.5t102 186.5q15 110 -48.5 185t-172.5 75q-110 0 -195 -74.5t-102 -185.5q-15 -112 48.5 -186.5
t172.5 -74.5z" />
    <glyph glyph-name="guilsinglleft" unicode="&#x2039;" horiz-adv-x="702" 
d="M621 950l-437 -409l322 -410h-64l-321 410l438 409h62z" />
    <glyph glyph-name="guilsinglright" unicode="&#x203a;" horiz-adv-x="702" 
d="M264 950l324 -409l-438 -410h-62l438 410l-323 409h61z" />
    <glyph glyph-name="fraction" unicode="&#x2044;" horiz-adv-x="329" 
d="M-446 0l1218 1413h55l-1218 -1413h-55z" />
    <glyph glyph-name="uni2070" unicode="&#x2070;" horiz-adv-x="811" 
d="M430 735q-139 0 -210.5 122.5t-45.5 316.5q28 193 133.5 315.5t245.5 122.5q141 0 213.5 -122.5t44.5 -315.5q-26 -193 -133 -316t-248 -123zM436 780q121 0 213 110t115 284q26 174 -35 283.5t-182 109.5q-119 0 -210 -109.5t-116 -283.5t35.5 -284t179.5 -110z" />
    <glyph glyph-name="uni2074" unicode="&#x2074;" horiz-adv-x="694" 
d="M750 1012l-7 -41h-133l-30 -221h-45l30 221h-442l-6 37l536 589h45l-82 -585h134zM168 1012h403l74 522z" />
    <glyph glyph-name="uni2075" unicode="&#x2075;" horiz-adv-x="700" 
d="M754 1556h-414l-86 -356q45 32 107 52t122 20q124 0 195.5 -76t56.5 -190q-17 -117 -115 -194t-227 -77q-174 0 -266 139l31 33q36 -58 99 -92.5t140 -34.5q110 0 193 64.5t98 161.5q12 97 -49 161t-166 64q-60 0 -123.5 -22.5t-109.5 -59.5l-35 14l100 434h455z" />
    <glyph glyph-name="uni2076" unicode="&#x2076;" horiz-adv-x="679" 
d="M471 1272q122 0 191.5 -75.5t54.5 -186.5q-17 -119 -114 -197t-230 -78q-139 0 -211.5 83t-52.5 231q28 194 189.5 352.5t385.5 210.5l4 -41q-190 -50 -324 -167.5t-190 -270.5q44 67 126 103t171 36zM670 1010q14 93 -47.5 157t-167.5 64q-66 0 -129 -21t-113.5 -71
t-58.5 -119q-15 -106 47 -174t180 -68q110 0 193 66t96 166z" />
    <glyph glyph-name="uni2077" unicode="&#x2077;" horiz-adv-x="653" 
d="M215 1597h539l-4 -32l-512 -815h-52l508 804h-485z" />
    <glyph glyph-name="uni2078" unicode="&#x2078;" horiz-adv-x="655" 
d="M723 1393q-9 -70 -62.5 -125t-134.5 -80q83 -25 125.5 -83.5t32.5 -135.5q-13 -100 -107.5 -167t-220.5 -67t-201 67t-61 167q10 77 70 135.5t149 83.5q-73 25 -111.5 80t-29.5 125q13 94 101.5 156.5t205.5 62.5q118 0 188 -62.5t56 -156.5zM422 1208q97 0 170.5 52.5
t83.5 128.5q12 78 -46 129t-157 51q-97 0 -169.5 -51t-84.5 -129q-11 -77 47.5 -129t155.5 -52zM637 973q12 83 -51.5 138.5t-169.5 55.5q-105 0 -184 -55.5t-89 -138.5q-12 -83 51 -139t168 -56t185 56t90 139z" />
    <glyph glyph-name="uni2079" unicode="&#x2079;" horiz-adv-x="681" 
d="M492 1612q141 0 214 -83t52 -231q-28 -199 -190.5 -360.5t-387.5 -202.5l-4 41q193 41 326.5 159.5t187.5 274.5q-43 -63 -124 -99t-171 -36q-121 0 -190.5 75.5t-54.5 186.5q17 119 113.5 197t228.5 78zM715 1327q15 106 -48 174t-182 68q-110 0 -192 -66t-94 -166
q-14 -93 47 -157t168 -64q66 0 128.5 21t113 71t59.5 119z" />
    <glyph glyph-name="franc" unicode="&#x20a3;" horiz-adv-x="1146" 
d="M1184 1364h-768l-88 -627h676l-7 -49h-678l-45 -326h496l-6 -47h-496l-45 -315h-53l45 315h-162l6 47h162l148 1051h821z" />
    <glyph glyph-name="lira" unicode="&#x20a4;" horiz-adv-x="1169" 
d="M819 1438q113 0 202.5 -50t145.5 -137l-37 -34q-114 169 -317 169q-160 0 -282 -104.5t-144 -261.5l-35 -242h500l-6 -45h-500l-22 -168h499l-8 -43h-498l-65 -473h762l-8 -49h-977l6 49h162l65 473h-160l7 43h159l23 168h-158l6 45h158l35 242q26 178 165.5 298
t321.5 120z" />
    <glyph glyph-name="peseta" unicode="&#x20a7;" horiz-adv-x="1280" 
d="M1329 1026l-4 -43h-117q-32 -166 -164.5 -276.5t-300.5 -110.5h-415l-84 -596h-54l138 983h-162l6 43h162l55 387h469q170 0 270.5 -110.5t85.5 -276.5h115zM436 1364l-49 -338h772q12 147 -75 242.5t-234 95.5h-414zM750 645q146 0 260 95.5t143 242.5h-772l-47 -338
h416z" />
    <glyph glyph-name="uni20A8" unicode="&#x20a8;" horiz-adv-x="2215" 
d="M856 1413q165 0 261 -110.5t71 -274.5q-23 -164 -149.5 -274.5t-290.5 -110.5h-154l473 -643h-70l-473 643h-256l-90 -643h-53l199 1413h532zM1135 1026q20 145 -62.5 241.5t-224.5 96.5h-477l-97 -674h480q141 0 250 96t131 240zM1796 1022q-132 0 -230.5 -62.5
t-113.5 -160.5q-5 -34 1.5 -62.5t18.5 -49.5t38 -40t48 -31t61.5 -25.5t64.5 -20.5t71 -19q69 -18 104.5 -28.5t89.5 -35t79 -51t41 -70.5t8 -100q-18 -132 -140 -211.5t-290 -79.5q-125 0 -221.5 45t-153.5 125l37 35q50 -74 139 -115.5t205 -41.5q145 0 251 66.5
t121 172.5q5 33 -1.5 60.5t-18 48t-37 39t-47 30t-60 25t-64.5 20.5t-71 19q-47 13 -74.5 21t-69 23.5t-66 29.5t-52.5 36t-41.5 47t-20.5 58.5t-1 73.5q18 128 133.5 202t265.5 74q109 0 194 -39.5t138 -109.5l-35 -37q-45 65 -123 102t-178 37z" />
    <glyph glyph-name="Euro" unicode="&#x20ac;" horiz-adv-x="1572" 
d="M1106 1438q283 0 469 -183l-10 -63q-81 93 -199.5 143.5t-263.5 50.5q-255 0 -462 -153.5t-284 -396.5h955l-27 -45h-940q-12 -52 -16 -84q-6 -43 -9 -84h855l-27 -45h-825q8 -243 171 -397t418 -154q144 0 277.5 51t241.5 143l-11 -63q-235 -183 -520 -183
q-276 0 -452.5 169.5t-182.5 433.5h-176l27 45h149q4 56 8 84q3 20 17 84h-170l26 45h156q80 264 304 433t501 169z" />
    <glyph glyph-name="uni20B1" unicode="&#x20b1;" horiz-adv-x="1280" 
d="M1346 1128l-7 -41h-122q0 -47 -5 -83q-6 -45 -20 -82h123l-4 -41h-135q-56 -127 -174 -206t-259 -79h-415l-84 -596h-54l123 881h-161l6 41h161l25 165h-164l6 41h162l41 285h469q141 0 236 -78.5t116 -206.5h136zM436 1364l-35 -236h752q-22 107 -103.5 171.5
t-201.5 64.5h-412zM1157 1004q5 38 2 83h-762l-24 -165h764q14 37 20 82zM748 645q119 0 219 64.5t153 171.5h-753l-33 -236h414z" />
    <glyph glyph-name="uni20B5" unicode="&#x20b5;" horiz-adv-x="1562" 
d="M1473 1094q-66 122 -190.5 194t-283.5 78l-186 -1319q162 6 305.5 77.5t245.5 194.5l41 -30q-111 -132 -268 -210.5t-332 -84.5l-19 -137h-45l19 137q-146 3 -267 59.5t-200 151t-113.5 225t-13.5 277.5q27 197 140.5 358.5t286.5 255.5t370 98l18 137h45l-18 -137
q172 -7 306.5 -86t207.5 -209zM221 707q-20 -137 12.5 -258t105 -208.5t184 -139t245.5 -54.5l186 1319q-182 -4 -341 -90.5t-263 -236t-129 -332.5z" />
    <glyph glyph-name="uni20B9" unicode="&#x20b9;" horiz-adv-x="1153" 
d="M850 1368q101 -60 139 -172h180l-32 -45h-136q9 -59 0 -125q-23 -164 -149.5 -275.5t-290.5 -111.5h-299l637 -639h-74l-645 649l4 39h381q143 0 252 96t131 242q9 64 -4 125h-694l6 45h674q-33 78 -103.5 124t-164.5 46h-381l6 47h913l-33 -45h-317z" />
    <glyph glyph-name="uni2116" unicode="&#x2116;" horiz-adv-x="2396" 
d="M2046 1438q157 0 246 -104t67 -261q-22 -156 -140.5 -260t-274.5 -104t-246 104t-68 260t141 260.5t275 104.5zM1219 74l186 1339h53l-198 -1413h-64l-829 1339l-189 -1339h-53l199 1413h65zM2310 1073q19 135 -59 226.5t-211 91.5t-237 -91.5t-124 -226.5
q-19 -135 59 -226t212 -91t237.5 91t122.5 226zM1569 453l6 47h680l-8 -47h-678z" />
    <glyph glyph-name="trademark" unicode="&#x2122;" horiz-adv-x="1419" 
d="M186 1376l7 37h442l-6 -37h-201l-78 -559h-39l80 559h-205zM1323 1413h55l-84 -596h-39l78 553l-305 -471h-37l-174 465l-78 -547h-39l84 596h58l174 -471z" />
    <glyph glyph-name="uni2150" unicode="&#x2150;" horiz-adv-x="1632" 
d="M1300 1413h56l-1219 -1413h-55zM379 1360l-221 -113l-17 35l258 131h31l-119 -848h-45zM1090 848h538l-4 -33l-512 -815h-51l508 805h-486z" />
    <glyph glyph-name="uni2151" unicode="&#x2151;" horiz-adv-x="1540" 
d="M1300 1413h56l-1219 -1413h-55zM379 1360l-221 -113l-17 35l258 131h31l-119 -848h-45zM1245 862q141 0 214 -82.5t52 -230.5q-28 -199 -190 -360.5t-387 -202.5l-4 41q193 41 326.5 159.5t187.5 274.5q-43 -63 -124 -99t-171 -36q-121 0 -191 75.5t-55 186.5
q17 119 113.5 196.5t228.5 77.5zM1468 578q15 106 -47.5 173.5t-181.5 67.5q-111 0 -193 -66t-94 -165q-14 -93 47 -157t168 -64q66 0 128.5 21t113 71t59.5 119z" />
    <glyph glyph-name="uni2152" unicode="&#x2152;" horiz-adv-x="2158" 
d="M82 0l1218 1413h56l-1219 -1413h-55zM379 1360l-221 -113l-17 35l258 131h31l-119 -848h-45zM1796 862q141 0 213.5 -122.5t44.5 -315.5q-26 -193 -133 -315.5t-248 -122.5q-139 0 -210.5 122t-45.5 316q28 193 133.5 315.5t245.5 122.5zM981 717l258 131h31l-119 -848
h-45l113 795l-222 -113zM2007 424q26 174 -35 283.5t-182 109.5q-119 0 -210 -109.5t-116 -283.5t35.5 -283.5t179.5 -109.5q121 0 213 109.5t115 283.5z" />
    <glyph glyph-name="uni2153" unicode="&#x2153;" horiz-adv-x="1529" 
d="M1300 1413h56l-1219 -1413h-55zM379 1360l-221 -113l-17 35l258 131h31l-119 -848h-45zM1487 649q-9 -66 -61 -121.5t-128 -78.5q82 -22 124 -82t32 -142q-15 -103 -107 -171t-219 -68q-84 0 -154.5 31.5t-115.5 91.5l31 32q80 -110 241 -110q109 0 188 56t91 142
t-48 143.5t-159 57.5h-135l6 39h135q89 0 156 50.5t76 125.5q11 74 -45 123t-152 49q-69 0 -133 -27t-109 -77l-22 30q113 119 274 119q114 0 180 -60.5t54 -152.5z" />
    <glyph glyph-name="uni2154" unicode="&#x2154;" horiz-adv-x="1734" 
d="M610 608l-6 -43h-538l4 35l419 397q60 58 92.5 104.5t39.5 100.5q12 80 -38.5 130t-138.5 50q-73 0 -137.5 -37t-109.5 -102l-33 25q53 74 129 116.5t160 42.5q105 0 165.5 -63t47.5 -162q-7 -59 -42 -112.5t-102 -116.5l-385 -365h473zM1505 1413h56l-1219 -1413h-55z
M1692 649q-9 -66 -61 -121.5t-128 -78.5q82 -22 124 -82t32 -142q-15 -103 -107 -171t-219 -68q-84 0 -154.5 31.5t-115.5 91.5l31 32q80 -110 241 -110q109 0 188 56t91 142t-48 143.5t-159 57.5h-135l6 39h135q89 0 156 50.5t76 125.5q11 74 -45 123t-152 49
q-69 0 -133 -27t-109 -77l-22 30q113 119 274 119q114 0 180 -60.5t54 -152.5z" />
    <glyph glyph-name="uni2155" unicode="&#x2155;" horiz-adv-x="1579" 
d="M1300 1413h56l-1219 -1413h-55zM379 1360l-221 -113l-17 35l258 131h31l-119 -848h-45zM1528 807h-414l-86 -356q44 32 106.5 51.5t122.5 19.5q124 0 195.5 -76t56.5 -190q-17 -117 -115 -193.5t-227 -76.5q-174 0 -266 139l31 33q36 -58 99 -92.5t140 -34.5
q110 0 193 64t98 161q12 97 -49 161t-166 64q-60 0 -123.5 -22.5t-109.5 -59.5l-35 15l100 434h455z" />
    <glyph glyph-name="uni2156" unicode="&#x2156;" horiz-adv-x="1783" 
d="M610 608l-6 -43h-538l4 35l419 397q60 58 92.5 104.5t39.5 100.5q12 80 -38.5 130t-138.5 50q-73 0 -137.5 -37t-109.5 -102l-33 25q53 74 129 116.5t160 42.5q105 0 165.5 -63t47.5 -162q-7 -59 -42 -112.5t-102 -116.5l-385 -365h473zM1505 1413h56l-1219 -1413h-55z
M1733 807h-414l-86 -356q44 32 106.5 51.5t122.5 19.5q124 0 195.5 -76t56.5 -190q-17 -117 -115 -193.5t-227 -76.5q-174 0 -266 139l31 33q36 -58 99 -92.5t140 -34.5q110 0 193 64t98 161q12 97 -49 161t-166 64q-60 0 -123.5 -22.5t-109.5 -59.5l-35 15l100 434h455z
" />
    <glyph glyph-name="uni2157" unicode="&#x2157;" horiz-adv-x="1732" 
d="M666 791q-15 -103 -107 -171.5t-219 -68.5q-84 0 -154.5 31.5t-115.5 91.5l30 33q40 -55 103.5 -83t138.5 -28q109 0 188 56.5t91 142.5t-48 143t-159 57h-135l6 39h135q89 0 155.5 50.5t75.5 125.5q11 74 -44.5 123t-151.5 49q-69 0 -133 -27t-109 -77l-23 31
q112 118 275 118q114 0 179.5 -60.5t53.5 -152.5q-9 -66 -60.5 -121.5t-127.5 -78.5q82 -22 124 -82t32 -141zM1454 1413h55l-1218 -1413h-55zM1681 807h-413l-86 -356q44 32 106.5 51.5t122.5 19.5q124 0 195.5 -76t56.5 -190q-17 -117 -115 -193.5t-227 -76.5
q-174 0 -266 139l30 33q36 -58 99.5 -92.5t140.5 -34.5q110 0 193 64t98 161q12 97 -49 161t-166 64q-60 0 -124 -22.5t-110 -59.5l-34 15l100 434h455z" />
    <glyph glyph-name="uni2158" unicode="&#x2158;" horiz-adv-x="1746" 
d="M510 565l31 221h-443l-6 37l537 590h45l-82 -586h133l-6 -41h-133l-31 -221h-45zM1468 1413h56l-1219 -1413h-55zM143 827h404l74 523zM1696 807h-414l-86 -356q44 32 106.5 51.5t122.5 19.5q124 0 195.5 -76t56.5 -190q-17 -117 -115 -193.5t-227 -76.5q-174 0 -266 139
l31 33q36 -58 99 -92.5t140 -34.5q110 0 193 64t98 161q12 97 -49 161t-166 64q-60 0 -123.5 -22.5t-109.5 -59.5l-35 15l100 434h455z" />
    <glyph glyph-name="uni2159" unicode="&#x2159;" horiz-adv-x="1445" 
d="M1300 1413h56l-1219 -1413h-55zM379 1360l-221 -113l-17 35l258 131h31l-119 -848h-45zM1133 522q122 0 191 -75.5t54 -186.5q-17 -119 -114 -196.5t-230 -77.5q-139 0 -211.5 82.5t-52.5 230.5q28 194 190 352.5t386 210.5l4 -41q-190 -50 -324 -167.5t-190 -270.5
q44 67 126 103t171 36zM1331 260q14 93 -47.5 157t-167.5 64q-66 0 -129 -21t-113.5 -71t-58.5 -119q-15 -106 47 -173.5t180 -67.5q110 0 193 65.5t96 165.5z" />
    <glyph glyph-name="uni215A" unicode="&#x215a;" horiz-adv-x="1617" 
d="M711 821q-17 -117 -115 -193.5t-227 -76.5q-86 0 -154.5 36.5t-112.5 102.5l31 33q36 -58 99.5 -92.5t140.5 -34.5q110 0 193 64t98 161q12 97 -49 161.5t-166 64.5q-60 0 -124 -22.5t-110 -59.5l-35 14l101 434h454l-6 -41h-414l-86 -356q44 32 107 51.5t123 19.5
q124 0 195.5 -76t56.5 -190zM1473 1413h55l-1219 -1413h-55zM1305 522q122 0 191 -75.5t54 -186.5q-17 -119 -114 -196.5t-230 -77.5q-139 0 -211.5 82.5t-52.5 230.5q28 194 190 352.5t386 210.5l4 -41q-190 -50 -324 -167.5t-190 -270.5q44 67 126 103t171 36zM1503 260
q14 93 -47.5 157t-167.5 64q-66 0 -129 -21t-113.5 -71t-58.5 -119q-15 -106 47 -173.5t180 -67.5q110 0 193 65.5t96 165.5z" />
    <glyph glyph-name="oneeighth" unicode="&#x215b;" horiz-adv-x="1525" 
d="M1300 1413h56l-1219 -1413h-55zM379 1360l-221 -113l-17 35l258 131h31l-119 -848h-45zM1487 643q-9 -70 -62.5 -125t-134.5 -80q83 -25 125.5 -83.5t32.5 -135.5q-13 -100 -107.5 -166.5t-220.5 -66.5t-201 66.5t-61 166.5q10 77 70 135.5t149 83.5q-73 25 -111.5 80
t-29.5 125q13 94 101.5 156.5t205.5 62.5q118 0 188 -62.5t56 -156.5zM1186 459q97 0 170.5 52t83.5 128q12 78 -46 129t-157 51q-97 0 -169.5 -51t-84.5 -129q-10 -76 48 -128t155 -52zM1401 223q12 83 -51.5 139t-169.5 56q-105 0 -184 -56t-89 -139q-12 -83 51 -138.5
t168 -55.5t185 55.5t90 138.5z" />
    <glyph glyph-name="threeeighths" unicode="&#x215c;" horiz-adv-x="1679" 
d="M666 791q-15 -103 -107 -171.5t-219 -68.5q-84 0 -154.5 31.5t-115.5 91.5l30 33q40 -55 103.5 -83t138.5 -28q109 0 188 56.5t91 142.5t-48 143t-159 57h-135l6 39h135q89 0 155.5 50.5t75.5 125.5q11 74 -44.5 123t-151.5 49q-69 0 -133 -27t-109 -77l-23 31
q112 118 275 118q114 0 179.5 -60.5t53.5 -152.5q-9 -66 -60.5 -121.5t-127.5 -78.5q82 -22 124 -82t32 -141zM1454 1413h55l-1218 -1413h-55zM1640 643q-9 -70 -62.5 -125t-133.5 -80q83 -25 125.5 -83.5t32.5 -135.5q-13 -100 -107.5 -166.5t-220.5 -66.5t-201 66.5
t-61 166.5q10 77 70 135.5t149 83.5q-73 25 -111.5 80t-29.5 125q13 94 101.5 156.5t205.5 62.5q118 0 187.5 -62.5t55.5 -156.5zM1339 459q97 0 170.5 52t83.5 128q12 78 -45.5 129t-156.5 51q-97 0 -169.5 -51t-84.5 -129q-11 -77 47 -128.5t155 -51.5zM1554 223
q12 83 -51.5 139t-169.5 56q-105 0 -183.5 -56t-88.5 -139q-12 -83 51 -138.5t168 -55.5t184.5 55.5t89.5 138.5z" />
    <glyph glyph-name="fiveeighths" unicode="&#x215d;" horiz-adv-x="1697" 
d="M711 821q-17 -117 -115 -193.5t-227 -76.5q-86 0 -154.5 36.5t-112.5 102.5l31 33q36 -58 99.5 -92.5t140.5 -34.5q110 0 193 64t98 161q12 97 -49 161.5t-166 64.5q-60 0 -124 -22.5t-110 -59.5l-35 14l101 434h454l-6 -41h-414l-86 -356q44 32 107 51.5t123 19.5
q124 0 195.5 -76t56.5 -190zM1473 1413h55l-1219 -1413h-55zM1659 643q-9 -70 -62.5 -125t-134.5 -80q83 -25 125.5 -83.5t32.5 -135.5q-13 -100 -107.5 -166.5t-220.5 -66.5t-201 66.5t-61 166.5q10 77 70 135.5t149 83.5q-73 25 -111.5 80t-29.5 125q13 94 101.5 156.5
t205.5 62.5q118 0 188 -62.5t56 -156.5zM1358 459q97 0 170.5 52t83.5 128q12 78 -46 129t-157 51q-97 0 -169.5 -51t-84.5 -129q-10 -76 48 -128t155 -52zM1573 223q12 83 -51.5 139t-169.5 56q-105 0 -184 -56t-89 -139q-12 -83 51 -138.5t168 -55.5t185 55.5t90 138.5z
" />
    <glyph glyph-name="seveneighths" unicode="&#x215e;" horiz-adv-x="1548" 
d="M1323 1413h55l-1218 -1413h-56zM213 565h-51l508 805h-486l6 43h539l-4 -33zM1509 643q-9 -70 -62.5 -125t-133.5 -80q82 -25 124.5 -83.5t32.5 -135.5q-13 -100 -107 -166.5t-220 -66.5t-201 66.5t-61 166.5q10 77 70 135.5t149 83.5q-73 25 -112 80t-30 125
q13 94 102 156.5t206 62.5q118 0 187.5 -62.5t55.5 -156.5zM1208 459q97 0 170.5 52t83.5 128q12 78 -45.5 129t-156.5 51q-97 0 -169.5 -51t-84.5 -129q-11 -77 47 -128.5t155 -51.5zM1423 223q12 83 -51.5 139t-169.5 56q-105 0 -183.5 -56t-88.5 -139q-12 -83 51 -138.5
t168 -55.5t184.5 55.5t89.5 138.5z" />
    <glyph glyph-name="uni215F" unicode="&#x215f;" horiz-adv-x="858" 
d="M1300 1413h56l-1219 -1413h-55zM379 1360l-221 -113l-17 35l258 131h31l-119 -848h-45z" />
    <glyph glyph-name="uni2189" unicode="&#x2189;" horiz-adv-x="1810" 
d="M786 989q-26 -193 -132.5 -315.5t-247.5 -122.5q-139 0 -210.5 122t-45.5 316q28 194 133.5 316t244.5 122q141 0 213.5 -122.5t44.5 -315.5zM1581 1413h55l-1218 -1413h-56zM197 989q-25 -174 35.5 -283.5t179.5 -109.5q121 0 212.5 109.5t114.5 283.5q26 174 -35 283.5
t-182 109.5q-119 0 -209.5 -109.5t-115.5 -283.5zM1767 649q-9 -66 -60.5 -121.5t-127.5 -78.5q82 -22 124 -82t32 -142q-15 -103 -107 -171t-219 -68q-84 0 -154.5 31.5t-115.5 91.5l30 32q80 -110 242 -110q109 0 188 56t91 142t-48 143.5t-159 57.5h-135l6 39h135
q89 0 155.5 50.5t75.5 125.5q11 74 -44.5 123t-151.5 49q-69 0 -133 -27t-109 -77l-22 30q113 119 274 119q114 0 179.5 -60.5t53.5 -152.5z" />
    <glyph glyph-name="arrowleft" unicode="&#x2190;" horiz-adv-x="1392" 
d="M1239 729l-6 -45h-948l311 -362l-35 -31l-356 416l473 415l24 -30l-409 -363h946z" />
    <glyph glyph-name="arrowup" unicode="&#x2191;" horiz-adv-x="1392" 
d="M1151 809l-35 -31l-311 359l-133 -947h-47l133 945l-410 -357l-26 31l473 414z" />
    <glyph glyph-name="arrowright" unicode="&#x2192;" horiz-adv-x="1392" 
d="M885 1122l356 -415l-473 -416l-27 31l410 362h-946l6 45h946l-309 363z" />
    <glyph glyph-name="arrowdown" unicode="&#x2193;" horiz-adv-x="1392" 
d="M1098 635l24 -31l-473 -414l-356 414l35 31l309 -356l135 944h45l-133 -947z" />
    <glyph glyph-name="uni2196" unicode="&#x2196;" horiz-adv-x="1392" 
d="M1049 367l-39 -33l-576 667l-72 -505h-45l84 583h584l-6 -45h-502z" />
    <glyph glyph-name="uni2197" unicode="&#x2197;" horiz-adv-x="1392" 
d="M557 1079h586l-84 -583h-41l74 512l-768 -674l-27 33l762 667l-508 4z" />
    <glyph glyph-name="uni2198" unicode="&#x2198;" horiz-adv-x="1392" 
d="M1079 918h45l-82 -584h-585l6 45h506l-572 668l37 32l574 -665z" />
    <glyph glyph-name="uni2199" unicode="&#x2199;" horiz-adv-x="1392" 
d="M1145 1047l-762 -668h504l-6 -45h-586l84 584h45l-74 -506l764 667z" />
    <glyph glyph-name="minus" unicode="&#x2212;" horiz-adv-x="1093" 
d="M154 582l6 45h805l-7 -45h-804z" />
    <glyph glyph-name="approxequal" unicode="&#x2248;" horiz-adv-x="1056" 
d="M729 684q-46 0 -83.5 19t-63.5 46.5t-50.5 55t-57 46.5t-71.5 19q-70 0 -122.5 -46t-61.5 -117h-47q12 91 78 151t156 60q45 0 82.5 -19.5t63 -47t50.5 -54.5t57.5 -46.5t71.5 -19.5q70 0 123 47t64 117h47q-12 -90 -79 -150.5t-157 -60.5zM676 307q-45 0 -82.5 19.5
t-63.5 46.5t-51 54.5t-57.5 47t-71.5 19.5q-70 0 -122.5 -46.5t-61.5 -117.5h-47q12 91 77.5 151t155.5 60q46 0 83.5 -19.5t64 -46.5t51.5 -54.5t57.5 -47t71.5 -19.5q69 0 122 47t60 117h47q-11 -90 -77 -150.5t-156 -60.5z" />
    <glyph glyph-name="notequal" unicode="&#x2260;" horiz-adv-x="1093" 
d="M979 731h-313l-162 -252h440l-8 -45h-463l-151 -235h-52l152 235h-289l6 45h314l161 252h-440l6 45h463l152 234h51l-152 -234h289z" />
    <glyph glyph-name="lessequal" unicode="&#x2264;" horiz-adv-x="950" 
d="M872 1008l-6 -52l-651 -258l580 -260l-9 -51l-620 285l6 51zM100 203l6 45h662l-8 -45h-660z" />
    <glyph glyph-name="greaterequal" unicode="&#x2265;" horiz-adv-x="950" 
d="M213 1008l621 -285l-9 -51l-698 -285l6 51l653 260l-579 258zM100 203l6 45h662l-8 -45h-660z" />
    <glyph glyph-name="uni279D" unicode="&#x279d;" horiz-adv-x="2215" 
d="M2060 707l-469 -412l54 389h-1440l6 45h1442l53 389z" />
    <glyph glyph-name="uni27F5" unicode="&#x27f5;" horiz-adv-x="2215" 
d="M2064 729l-6 -45h-1771l311 -362l-35 -31l-356 416l473 415l25 -30l-410 -363h1769z" />
    <glyph glyph-name="uni27F6" unicode="&#x27f6;" horiz-adv-x="2215" 
d="M1706 1122l356 -415l-473 -416l-26 31l411 362h-1771l6 45h1769l-309 363z" />
    <glyph glyph-name="G.ss05" horiz-adv-x="1703" 
d="M948 694h633l-96 -694h-49l59 436q-101 -215 -296 -338t-431 -123q-154 0 -281.5 56.5t-210.5 153.5t-120 232.5t-15 289.5q28 205 147 372.5t301 263t388 95.5q191 0 338 -84.5t225 -231.5l-45 -30q-72 137 -209 215.5t-317 78.5q-190 0 -357.5 -88.5t-278 -244
t-136.5 -346.5q-27 -191 39.5 -347t209 -244.5t332.5 -88.5q275 0 487.5 175.5t258.5 442.5h-582z" />
    <glyph glyph-name="uni01F4.ss05" horiz-adv-x="1703" 
d="M1278 1808l-268 -227h-58l250 227h76zM948 694h633l-96 -694h-49l59 436q-101 -215 -296 -338t-431 -123q-154 0 -281.5 56.5t-210.5 153.5t-120 232.5t-15 289.5q28 205 147 372.5t301 263t388 95.5q191 0 338 -84.5t225 -231.5l-45 -30q-72 137 -209 215.5t-317 78.5
q-190 0 -357.5 -88.5t-278 -244t-136.5 -346.5q-27 -191 39.5 -347t209 -244.5t332.5 -88.5q275 0 487.5 175.5t258.5 442.5h-582z" />
    <glyph glyph-name="Gbreve.ss05" horiz-adv-x="1703" 
d="M991 1561q-95 0 -150.5 64t-43.5 159h45q-11 -78 34 -131.5t121 -53.5q77 0 138 53.5t71 131.5h43q-12 -95 -86.5 -159t-171.5 -64zM948 694h633l-96 -694h-49l59 436q-101 -215 -296 -338t-431 -123q-154 0 -281.5 56.5t-210.5 153.5t-120 232.5t-15 289.5
q28 205 147 372.5t301 263t388 95.5q191 0 338 -84.5t225 -231.5l-45 -30q-72 137 -209 215.5t-317 78.5q-190 0 -357.5 -88.5t-278 -244t-136.5 -346.5q-27 -191 39.5 -347t209 -244.5t332.5 -88.5q275 0 487.5 175.5t258.5 442.5h-582z" />
    <glyph glyph-name="Gcaron.ss05" horiz-adv-x="1703" 
d="M1028 1581h-65l-177 227h52l161 -198l218 198h51zM948 694h633l-96 -694h-49l59 436q-101 -215 -296 -338t-431 -123q-154 0 -281.5 56.5t-210.5 153.5t-120 232.5t-15 289.5q28 205 147 372.5t301 263t388 95.5q191 0 338 -84.5t225 -231.5l-45 -30q-72 137 -209 215.5
t-317 78.5q-190 0 -357.5 -88.5t-278 -244t-136.5 -346.5q-27 -191 39.5 -347t209 -244.5t332.5 -88.5q275 0 487.5 175.5t258.5 442.5h-582z" />
    <glyph glyph-name="Gcircumflex.ss05" horiz-adv-x="1703" 
d="M1024 1776l-217 -195h-51l239 227h66l176 -227h-51zM948 694h633l-96 -694h-49l59 436q-101 -215 -296 -338t-431 -123q-154 0 -281.5 56.5t-210.5 153.5t-120 232.5t-15 289.5q28 205 147 372.5t301 263t388 95.5q191 0 338 -84.5t225 -231.5l-45 -30
q-72 137 -209 215.5t-317 78.5q-190 0 -357.5 -88.5t-278 -244t-136.5 -346.5q-27 -191 39.5 -347t209 -244.5t332.5 -88.5q275 0 487.5 175.5t258.5 442.5h-582z" />
    <glyph glyph-name="uni0122.ss05" horiz-adv-x="1703" 
d="M948 694h633l-96 -694h-49l59 436q-101 -215 -296 -338t-431 -123q-154 0 -281.5 56.5t-210.5 153.5t-120 232.5t-15 289.5q28 205 147 372.5t301 263t388 95.5q191 0 338 -84.5t225 -231.5l-45 -30q-72 137 -209 215.5t-317 78.5q-190 0 -357.5 -88.5t-278 -244
t-136.5 -346.5q-27 -191 39.5 -347t209 -244.5t332.5 -88.5q275 0 487.5 175.5t258.5 442.5h-582zM649 -432l92 268h58l-109 -268h-41z" />
    <glyph glyph-name="Gdotaccent.ss05" horiz-adv-x="1703" 
d="M999 1610q-21 0 -33.5 15t-9.5 36q3 22 20.5 36.5t39.5 14.5q21 0 33 -14.5t10 -36.5q-3 -22 -20.5 -36.5t-39.5 -14.5zM948 694h633l-96 -694h-49l59 436q-101 -215 -296 -338t-431 -123q-154 0 -281.5 56.5t-210.5 153.5t-120 232.5t-15 289.5q28 205 147 372.5
t301 263t388 95.5q191 0 338 -84.5t225 -231.5l-45 -30q-72 137 -209 215.5t-317 78.5q-190 0 -357.5 -88.5t-278 -244t-136.5 -346.5q-27 -191 39.5 -347t209 -244.5t332.5 -88.5q275 0 487.5 175.5t258.5 442.5h-582z" />
    <glyph glyph-name="i.loclTRK" horiz-adv-x="407" 
d="M305 1241q-21 0 -33.5 15t-9.5 36q3 22 20.5 36.5t39.5 14.5q21 0 33 -14.5t10 -36.5q-3 -22 -20.5 -36.5t-39.5 -14.5zM106 0l148 1044h49l-147 -1044h-50z" />
    <glyph glyph-name="a.ss01" horiz-adv-x="1157" 
d="M633 1069q195 0 298.5 -107.5t78.5 -287.5l-97 -674h-47l27 182q-61 -95 -178 -151t-260 -56q-186 0 -294.5 93.5t-88.5 240.5q22 147 156.5 240.5t320.5 93.5q141 0 242 -54.5t137 -146.5l30 228q23 160 -67.5 256t-267.5 96q-123 0 -228.5 -47t-171.5 -123l-28 29
q72 85 187.5 136.5t250.5 51.5zM469 23q170 0 295.5 81.5t142.5 204.5q19 123 -83.5 205t-274.5 82q-167 0 -287 -80t-139 -207q-17 -127 81 -206.5t265 -79.5z" />
    <glyph glyph-name="aacute.ss01" horiz-adv-x="1157" 
d="M952 1440l-268 -228h-57l250 228h75zM633 1069q195 0 298.5 -107.5t78.5 -287.5l-97 -674h-47l27 182q-61 -95 -178 -151t-260 -56q-186 0 -294.5 93.5t-88.5 240.5q22 147 156.5 240.5t320.5 93.5q141 0 242 -54.5t137 -146.5l30 228q23 160 -67.5 256t-267.5 96
q-123 0 -228.5 -47t-171.5 -123l-28 29q72 85 187.5 136.5t250.5 51.5zM469 23q170 0 295.5 81.5t142.5 204.5q19 123 -83.5 205t-274.5 82q-167 0 -287 -80t-139 -207q-17 -127 81 -206.5t265 -79.5z" />
    <glyph glyph-name="abreve.ss01" horiz-adv-x="1157" 
d="M666 1192q-95 0 -151 64t-44 159h45q-10 -78 34.5 -131t121.5 -53t138 53t71 131h43q-12 -95 -86.5 -159t-171.5 -64zM633 1069q195 0 298.5 -107.5t78.5 -287.5l-97 -674h-47l27 182q-61 -95 -178 -151t-260 -56q-186 0 -294.5 93.5t-88.5 240.5q22 147 156.5 240.5
t320.5 93.5q141 0 242 -54.5t137 -146.5l30 228q23 160 -67.5 256t-267.5 96q-123 0 -228.5 -47t-171.5 -123l-28 29q72 85 187.5 136.5t250.5 51.5zM469 23q170 0 295.5 81.5t142.5 204.5q19 123 -83.5 205t-274.5 82q-167 0 -287 -80t-139 -207q-17 -127 81 -206.5
t265 -79.5z" />
    <glyph glyph-name="uni01CE.ss01" horiz-adv-x="1157" 
d="M702 1212h-65l-176 228h51l162 -199l217 199h51zM633 1069q195 0 298.5 -107.5t78.5 -287.5l-97 -674h-47l27 182q-61 -95 -178 -151t-260 -56q-186 0 -294.5 93.5t-88.5 240.5q22 147 156.5 240.5t320.5 93.5q141 0 242 -54.5t137 -146.5l30 228q23 160 -67.5 256
t-267.5 96q-123 0 -228.5 -47t-171.5 -123l-28 29q72 85 187.5 136.5t250.5 51.5zM469 23q170 0 295.5 81.5t142.5 204.5q19 123 -83.5 205t-274.5 82q-167 0 -287 -80t-139 -207q-17 -127 81 -206.5t265 -79.5z" />
    <glyph glyph-name="acircumflex.ss01" horiz-adv-x="1157" 
d="M698 1407l-217 -195h-51l240 228h65l176 -228h-51zM633 1069q195 0 298.5 -107.5t78.5 -287.5l-97 -674h-47l27 182q-61 -95 -178 -151t-260 -56q-186 0 -294.5 93.5t-88.5 240.5q22 147 156.5 240.5t320.5 93.5q141 0 242 -54.5t137 -146.5l30 228q23 160 -67.5 256
t-267.5 96q-123 0 -228.5 -47t-171.5 -123l-28 29q72 85 187.5 136.5t250.5 51.5zM469 23q170 0 295.5 81.5t142.5 204.5q19 123 -83.5 205t-274.5 82q-167 0 -287 -80t-139 -207q-17 -127 81 -206.5t265 -79.5z" />
    <glyph glyph-name="uni0201.ss01" horiz-adv-x="1157" 
d="M530 1212h-51l-143 228h63zM866 1212h-49l-143 228h63zM633 1069q195 0 298.5 -107.5t78.5 -287.5l-97 -674h-47l27 182q-61 -95 -178 -151t-260 -56q-186 0 -294.5 93.5t-88.5 240.5q22 147 156.5 240.5t320.5 93.5q141 0 242 -54.5t137 -146.5l30 228q23 160 -67.5 256
t-267.5 96q-123 0 -228.5 -47t-171.5 -123l-28 29q72 85 187.5 136.5t250.5 51.5zM469 23q170 0 295.5 81.5t142.5 204.5q19 123 -83.5 205t-274.5 82q-167 0 -287 -80t-139 -207q-17 -127 81 -206.5t265 -79.5z" />
    <glyph glyph-name="adieresis.ss01" horiz-adv-x="1157" 
d="M475 1241q-22 0 -34 14.5t-9 36.5q1 20 18.5 34.5t38.5 14.5q22 0 34 -14.5t9 -34.5q-3 -22 -19 -36.5t-38 -14.5zM872 1241q-22 0 -34 14.5t-9 36.5q3 20 20.5 34.5t37.5 14.5q22 0 34 -14.5t9 -34.5q-3 -22 -19.5 -36.5t-38.5 -14.5zM633 1069q195 0 298.5 -107.5
t78.5 -287.5l-97 -674h-47l27 182q-61 -95 -178 -151t-260 -56q-186 0 -294.5 93.5t-88.5 240.5q22 147 156.5 240.5t320.5 93.5q141 0 242 -54.5t137 -146.5l30 228q23 160 -67.5 256t-267.5 96q-123 0 -228.5 -47t-171.5 -123l-28 29q72 85 187.5 136.5t250.5 51.5z
M469 23q170 0 295.5 81.5t142.5 204.5q19 123 -83.5 205t-274.5 82q-167 0 -287 -80t-139 -207q-17 -127 81 -206.5t265 -79.5z" />
    <glyph glyph-name="uni1EA1.ss01" horiz-adv-x="1157" 
d="M633 1069q195 0 298.5 -107.5t78.5 -287.5l-97 -674h-47l27 182q-61 -95 -178 -151t-260 -56q-186 0 -294.5 93.5t-88.5 240.5q22 147 156.5 240.5t320.5 93.5q141 0 242 -54.5t137 -146.5l30 228q23 160 -67.5 256t-267.5 96q-123 0 -228.5 -47t-171.5 -123l-28 29
q72 85 187.5 136.5t250.5 51.5zM469 23q170 0 295.5 81.5t142.5 204.5q19 123 -83.5 205t-274.5 82q-167 0 -287 -80t-139 -207q-17 -127 81 -206.5t265 -79.5zM469 -197q22 0 35 -14.5t10 -36.5t-20 -36.5t-39 -14.5t-34 14.5t-9 36.5t20 36.5t37 14.5z" />
    <glyph glyph-name="agrave.ss01" horiz-adv-x="1157" 
d="M713 1212h-58l-204 228h73zM633 1069q195 0 298.5 -107.5t78.5 -287.5l-97 -674h-47l27 182q-61 -95 -178 -151t-260 -56q-186 0 -294.5 93.5t-88.5 240.5q22 147 156.5 240.5t320.5 93.5q141 0 242 -54.5t137 -146.5l30 228q23 160 -67.5 256t-267.5 96
q-123 0 -228.5 -47t-171.5 -123l-28 29q72 85 187.5 136.5t250.5 51.5zM469 23q170 0 295.5 81.5t142.5 204.5q19 123 -83.5 205t-274.5 82q-167 0 -287 -80t-139 -207q-17 -127 81 -206.5t265 -79.5z" />
    <glyph glyph-name="uni0203.ss01" horiz-adv-x="1157" 
d="M692 1376q-78 0 -137.5 -52.5t-71.5 -131.5h-43q14 95 87.5 160t170.5 65q95 0 151.5 -65t43.5 -160h-45q12 79 -33.5 131.5t-122.5 52.5zM633 1069q195 0 298.5 -107.5t78.5 -287.5l-97 -674h-47l27 182q-61 -95 -178 -151t-260 -56q-186 0 -294.5 93.5t-88.5 240.5
q22 147 156.5 240.5t320.5 93.5q141 0 242 -54.5t137 -146.5l30 228q23 160 -67.5 256t-267.5 96q-123 0 -228.5 -47t-171.5 -123l-28 29q72 85 187.5 136.5t250.5 51.5zM469 23q170 0 295.5 81.5t142.5 204.5q19 123 -83.5 205t-274.5 82q-167 0 -287 -80t-139 -207
q-17 -127 81 -206.5t265 -79.5z" />
    <glyph glyph-name="amacron.ss01" horiz-adv-x="1157" 
d="M887 1300l-6 -45h-410l6 45h410zM633 1069q195 0 298.5 -107.5t78.5 -287.5l-97 -674h-47l27 182q-61 -95 -178 -151t-260 -56q-186 0 -294.5 93.5t-88.5 240.5q22 147 156.5 240.5t320.5 93.5q141 0 242 -54.5t137 -146.5l30 228q23 160 -67.5 256t-267.5 96
q-123 0 -228.5 -47t-171.5 -123l-28 29q72 85 187.5 136.5t250.5 51.5zM469 23q170 0 295.5 81.5t142.5 204.5q19 123 -83.5 205t-274.5 82q-167 0 -287 -80t-139 -207q-17 -127 81 -206.5t265 -79.5z" />
    <glyph glyph-name="aogonek.ss01" horiz-adv-x="1157" 
d="M633 1069q195 0 298.5 -107.5t78.5 -287.5l-97 -674h-6q-104 -44 -173 -107.5t-79 -132.5q-7 -57 25 -94t86 -37q59 0 115 35l12 -35q-67 -41 -137 -41q-71 0 -113 48t-33 118q12 77 81.5 143t174.5 109l27 176q-61 -95 -178 -151t-260 -56q-186 0 -294.5 93.5
t-88.5 240.5q22 147 156.5 240.5t320.5 93.5q141 0 242 -54.5t137 -146.5l30 228q23 160 -67.5 256t-267.5 96q-123 0 -228.5 -47t-171.5 -123l-28 29q72 85 187.5 136.5t250.5 51.5zM469 23q170 0 295.5 81.5t142.5 204.5q19 123 -83.5 205t-274.5 82q-167 0 -287 -80
t-139 -207q-17 -127 81 -206.5t265 -79.5z" />
    <glyph glyph-name="aring.ss01" horiz-adv-x="1157" 
d="M664 1180q-57 0 -90 38t-25 95q7 57 51.5 95t101.5 38t90 -38t25 -95q-7 -57 -51.5 -95t-101.5 -38zM588 1313q-6 -41 18 -70t64 -29t72 29t36 70q6 43 -17.5 70.5t-64.5 27.5q-40 0 -71 -28t-37 -70zM633 1069q195 0 298.5 -107.5t78.5 -287.5l-97 -674h-47l27 182
q-61 -95 -178 -151t-260 -56q-186 0 -294.5 93.5t-88.5 240.5q22 147 156.5 240.5t320.5 93.5q141 0 242 -54.5t137 -146.5l30 228q23 160 -67.5 256t-267.5 96q-123 0 -228.5 -47t-171.5 -123l-28 29q72 85 187.5 136.5t250.5 51.5zM469 23q170 0 295.5 81.5t142.5 204.5
q19 123 -83.5 205t-274.5 82q-167 0 -287 -80t-139 -207q-17 -127 81 -206.5t265 -79.5z" />
    <glyph glyph-name="atilde.ss01" horiz-adv-x="1157" 
d="M547 1376q-56 0 -99.5 -38.5t-50.5 -96.5h-41q9 75 65 125.5t130 50.5q37 0 67.5 -15t52 -36.5t42 -43.5t48 -37t60.5 -15q57 0 100 38.5t50 96.5h43q-11 -76 -67 -127t-130 -51q-37 0 -67.5 15.5t-52 37.5t-42 43.5t-48 37t-60.5 15.5zM633 1069q195 0 298.5 -107.5
t78.5 -287.5l-97 -674h-47l27 182q-61 -95 -178 -151t-260 -56q-186 0 -294.5 93.5t-88.5 240.5q22 147 156.5 240.5t320.5 93.5q141 0 242 -54.5t137 -146.5l30 228q23 160 -67.5 256t-267.5 96q-123 0 -228.5 -47t-171.5 -123l-28 29q72 85 187.5 136.5t250.5 51.5z
M469 23q170 0 295.5 81.5t142.5 204.5q19 123 -83.5 205t-274.5 82q-167 0 -287 -80t-139 -207q-17 -127 81 -206.5t265 -79.5z" />
    <glyph glyph-name="g.ss02" 
d="M1227 1044h49l-131 -931q-34 -238 -205 -382.5t-420 -144.5q-166 0 -281.5 67.5t-168.5 190.5l41 29q45 -114 152 -177t261 -63q229 0 385 132t187 350l30 221q-78 -153 -225.5 -245.5t-322.5 -92.5q-152 0 -266.5 70t-168 193.5t-32.5 273.5t108.5 272t222 192t287.5 70
q175 0 297 -92.5t156 -245.5zM590 45q209 0 369 135t194 338l4 31q23 203 -98.5 338t-331.5 135q-212 0 -373 -139.5t-192 -347.5q-29 -209 93.5 -349.5t334.5 -140.5z" />
    <glyph glyph-name="uni01F5.ss02" 
d="M1067 1440l-268 -228h-58l250 228h76zM1227 1044h49l-131 -931q-34 -238 -205 -382.5t-420 -144.5q-166 0 -281.5 67.5t-168.5 190.5l41 29q45 -114 152 -177t261 -63q229 0 385 132t187 350l30 221q-78 -153 -225.5 -245.5t-322.5 -92.5q-152 0 -266.5 70t-168 193.5
t-32.5 273.5t108.5 272t222 192t287.5 70q175 0 297 -92.5t156 -245.5zM590 45q209 0 369 135t194 338l4 31q23 203 -98.5 338t-331.5 135q-212 0 -373 -139.5t-192 -347.5q-29 -209 93.5 -349.5t334.5 -140.5z" />
    <glyph glyph-name="gbreve.ss02" 
d="M780 1192q-95 0 -150.5 64t-43.5 159h45q-11 -78 34 -131t121 -53q77 0 138 53t71 131h43q-12 -95 -86.5 -159t-171.5 -64zM1227 1044h49l-131 -931q-34 -238 -205 -382.5t-420 -144.5q-166 0 -281.5 67.5t-168.5 190.5l41 29q45 -114 152 -177t261 -63q229 0 385 132
t187 350l30 221q-78 -153 -225.5 -245.5t-322.5 -92.5q-152 0 -266.5 70t-168 193.5t-32.5 273.5t108.5 272t222 192t287.5 70q175 0 297 -92.5t156 -245.5zM590 45q209 0 369 135t194 338l4 31q23 203 -98.5 338t-331.5 135q-212 0 -373 -139.5t-192 -347.5
q-29 -209 93.5 -349.5t334.5 -140.5z" />
    <glyph glyph-name="gcaron.ss02" 
d="M817 1212h-65l-177 228h52l161 -199l218 199h51zM1227 1044h49l-131 -931q-34 -238 -205 -382.5t-420 -144.5q-166 0 -281.5 67.5t-168.5 190.5l41 29q45 -114 152 -177t261 -63q229 0 385 132t187 350l30 221q-78 -153 -225.5 -245.5t-322.5 -92.5q-152 0 -266.5 70
t-168 193.5t-32.5 273.5t108.5 272t222 192t287.5 70q175 0 297 -92.5t156 -245.5zM590 45q209 0 369 135t194 338l4 31q23 203 -98.5 338t-331.5 135q-212 0 -373 -139.5t-192 -347.5q-29 -209 93.5 -349.5t334.5 -140.5z" />
    <glyph glyph-name="gcircumflex.ss02" 
d="M813 1407l-217 -195h-51l239 228h66l176 -228h-51zM1227 1044h49l-131 -931q-34 -238 -205 -382.5t-420 -144.5q-166 0 -281.5 67.5t-168.5 190.5l41 29q45 -114 152 -177t261 -63q229 0 385 132t187 350l30 221q-78 -153 -225.5 -245.5t-322.5 -92.5q-152 0 -266.5 70
t-168 193.5t-32.5 273.5t108.5 272t222 192t287.5 70q175 0 297 -92.5t156 -245.5zM590 45q209 0 369 135t194 338l4 31q23 203 -98.5 338t-331.5 135q-212 0 -373 -139.5t-192 -347.5q-29 -209 93.5 -349.5t334.5 -140.5z" />
    <glyph glyph-name="uni0123.ss02" 
d="M874 1462l-92 -270h-57l106 270h43zM1227 1044h49l-131 -931q-34 -238 -205 -382.5t-420 -144.5q-166 0 -281.5 67.5t-168.5 190.5l41 29q45 -114 152 -177t261 -63q229 0 385 132t187 350l30 221q-78 -153 -225.5 -245.5t-322.5 -92.5q-152 0 -266.5 70t-168 193.5
t-32.5 273.5t108.5 272t222 192t287.5 70q175 0 297 -92.5t156 -245.5zM590 45q209 0 369 135t194 338l4 31q23 203 -98.5 338t-331.5 135q-212 0 -373 -139.5t-192 -347.5q-29 -209 93.5 -349.5t334.5 -140.5z" />
    <glyph glyph-name="gdotaccent.ss02" 
d="M786 1241q-21 0 -33.5 15t-9.5 36q3 22 20.5 36.5t39.5 14.5q21 0 33 -14.5t10 -36.5q-3 -22 -20.5 -36.5t-39.5 -14.5zM1227 1044h49l-131 -931q-34 -238 -205 -382.5t-420 -144.5q-166 0 -281.5 67.5t-168.5 190.5l41 29q45 -114 152 -177t261 -63q229 0 385 132
t187 350l30 221q-78 -153 -225.5 -245.5t-322.5 -92.5q-152 0 -266.5 70t-168 193.5t-32.5 273.5t108.5 272t222 192t287.5 70q175 0 297 -92.5t156 -245.5zM590 45q209 0 369 135t194 338l4 31q23 203 -98.5 338t-331.5 135q-212 0 -373 -139.5t-192 -347.5
q-29 -209 93.5 -349.5t334.5 -140.5z" />
    <glyph glyph-name="u.ss03" horiz-adv-x="1267" 
d="M1112 1044h49l-147 -1044h-49l34 240q-68 -125 -190.5 -195t-276.5 -70q-199 0 -302.5 120.5t-75.5 320.5l88 628h49l-86 -618q-26 -183 67.5 -292t276.5 -109q182 0 310.5 102.5t162.5 275.5z" />
    <glyph glyph-name="uacute.ss03" horiz-adv-x="1267" 
d="M1010 1440l-269 -228h-57l250 228h76zM1112 1044h49l-147 -1044h-49l34 240q-68 -125 -190.5 -195t-276.5 -70q-199 0 -302.5 120.5t-75.5 320.5l88 628h49l-86 -618q-26 -183 67.5 -292t276.5 -109q182 0 310.5 102.5t162.5 275.5z" />
    <glyph glyph-name="ubreve.ss03" horiz-adv-x="1267" 
d="M721 1192q-95 0 -151 64t-44 159h45q-10 -78 34.5 -131t121.5 -53t138 53t71 131h43q-12 -95 -86.5 -159t-171.5 -64zM1112 1044h49l-147 -1044h-49l34 240q-68 -125 -190.5 -195t-276.5 -70q-199 0 -302.5 120.5t-75.5 320.5l88 628h49l-86 -618q-26 -183 67.5 -292
t276.5 -109q182 0 310.5 102.5t162.5 275.5z" />
    <glyph glyph-name="ucircumflex.ss03" horiz-adv-x="1267" 
d="M754 1407l-217 -195h-52l240 228h66l176 -228h-52zM1112 1044h49l-147 -1044h-49l34 240q-68 -125 -190.5 -195t-276.5 -70q-199 0 -302.5 120.5t-75.5 320.5l88 628h49l-86 -618q-26 -183 67.5 -292t276.5 -109q182 0 310.5 102.5t162.5 275.5z" />
    <glyph glyph-name="uni0215.ss03" horiz-adv-x="1267" 
d="M586 1212h-51l-144 228h64zM922 1212h-50l-143 228h64zM1112 1044h49l-147 -1044h-49l34 240q-68 -125 -190.5 -195t-276.5 -70q-199 0 -302.5 120.5t-75.5 320.5l88 628h49l-86 -618q-26 -183 67.5 -292t276.5 -109q182 0 310.5 102.5t162.5 275.5z" />
    <glyph glyph-name="udieresis.ss03" horiz-adv-x="1267" 
d="M530 1241q-22 0 -34 14.5t-9 36.5q1 20 19 34.5t39 14.5q22 0 34 -14.5t9 -34.5q-3 -22 -19.5 -36.5t-38.5 -14.5zM928 1241q-22 0 -34 14.5t-9 36.5q3 20 20 34.5t37 14.5q22 0 34 -14.5t9 -34.5q-3 -22 -19 -36.5t-38 -14.5zM1112 1044h49l-147 -1044h-49l34 240
q-68 -125 -190.5 -195t-276.5 -70q-199 0 -302.5 120.5t-75.5 320.5l88 628h49l-86 -618q-26 -183 67.5 -292t276.5 -109q182 0 310.5 102.5t162.5 275.5z" />
    <glyph glyph-name="uni1EE5.ss03" horiz-adv-x="1267" 
d="M1112 1044h49l-147 -1044h-49l34 240q-68 -125 -190.5 -195t-276.5 -70q-199 0 -302.5 120.5t-75.5 320.5l88 628h49l-86 -618q-26 -183 67.5 -292t276.5 -109q182 0 310.5 102.5t162.5 275.5zM526 -197q22 0 35 -14.5t10 -36.5t-20 -36.5t-39 -14.5t-34 14.5t-9 36.5
t20 36.5t37 14.5z" />
    <glyph glyph-name="ugrave.ss03" horiz-adv-x="1267" 
d="M768 1212h-57l-205 228h74zM1112 1044h49l-147 -1044h-49l34 240q-68 -125 -190.5 -195t-276.5 -70q-199 0 -302.5 120.5t-75.5 320.5l88 628h49l-86 -618q-26 -183 67.5 -292t276.5 -109q182 0 310.5 102.5t162.5 275.5z" />
    <glyph glyph-name="uhungarumlaut.ss03" horiz-adv-x="1267" 
d="M784 1440l-206 -228h-50l193 228h63zM1122 1440l-207 -228h-51l193 228h65zM1112 1044h49l-147 -1044h-49l34 240q-68 -125 -190.5 -195t-276.5 -70q-199 0 -302.5 120.5t-75.5 320.5l88 628h49l-86 -618q-26 -183 67.5 -292t276.5 -109q182 0 310.5 102.5t162.5 275.5z
" />
    <glyph glyph-name="uni0217.ss03" horiz-adv-x="1267" 
d="M748 1376q-78 0 -137.5 -52.5t-71.5 -131.5h-43q14 95 87.5 160t170.5 65q95 0 151 -65t43 -160h-45q12 79 -33 131.5t-122 52.5zM1112 1044h49l-147 -1044h-49l34 240q-68 -125 -190.5 -195t-276.5 -70q-199 0 -302.5 120.5t-75.5 320.5l88 628h49l-86 -618
q-26 -183 67.5 -292t276.5 -109q182 0 310.5 102.5t162.5 275.5z" />
    <glyph glyph-name="umacron.ss03" horiz-adv-x="1267" 
d="M944 1300l-6 -45h-410l7 45h409zM1112 1044h49l-147 -1044h-49l34 240q-68 -125 -190.5 -195t-276.5 -70q-199 0 -302.5 120.5t-75.5 320.5l88 628h49l-86 -618q-26 -183 67.5 -292t276.5 -109q182 0 310.5 102.5t162.5 275.5z" />
    <glyph glyph-name="uogonek.ss03" horiz-adv-x="1267" 
d="M1014 0q-104 -44 -173 -107.5t-79 -132.5q-7 -57 24.5 -94t85.5 -37q59 0 115 35l12 -35q-67 -41 -137 -41q-71 0 -112.5 48t-32.5 118q12 75 79 140t169 108l34 238q-68 -125 -190.5 -195t-276.5 -70q-199 0 -302.5 120.5t-75.5 320.5l88 628h49l-86 -618
q-26 -183 67.5 -292t276.5 -109q182 0 310.5 102.5t162.5 275.5l90 641h49z" />
    <glyph glyph-name="uring.ss03" horiz-adv-x="1267" 
d="M719 1180q-57 0 -90 38t-25 95q7 57 52 95t102 38t89.5 -38t24.5 -95q-7 -57 -51.5 -95t-101.5 -38zM643 1313q-6 -41 18 -70t64 -29t72.5 29t36.5 70q6 43 -17.5 70.5t-64.5 27.5q-40 0 -71.5 -28t-37.5 -70zM1112 1044h49l-147 -1044h-49l34 240q-68 -125 -190.5 -195
t-276.5 -70q-199 0 -302.5 120.5t-75.5 320.5l88 628h49l-86 -618q-26 -183 67.5 -292t276.5 -109q182 0 310.5 102.5t162.5 275.5z" />
    <glyph glyph-name="utilde.ss03" horiz-adv-x="1267" 
d="M604 1376q-56 0 -99 -38.5t-50 -96.5h-41q9 75 64.5 125.5t129.5 50.5q37 0 68 -15t52.5 -36.5t42 -43.5t48 -37t60.5 -15q57 0 99.5 38.5t49.5 96.5h43q-11 -76 -67 -127t-130 -51q-37 0 -67.5 15.5t-52 37.5t-42 43.5t-48 37t-60.5 15.5zM1112 1044h49l-147 -1044h-49
l34 240q-68 -125 -190.5 -195t-276.5 -70q-199 0 -302.5 120.5t-75.5 320.5l88 628h49l-86 -618q-26 -183 67.5 -292t276.5 -109q182 0 310.5 102.5t162.5 275.5z" />
    <glyph glyph-name="w.ss04" horiz-adv-x="1906" 
d="M1761 1044h49l-94 -679q-26 -177 -150.5 -283.5t-305.5 -106.5q-146 0 -238 72t-109 197q-53 -126 -164 -197.5t-257 -71.5q-182 0 -277 106.5t-70 283.5l97 679h49l-94 -673q-23 -156 61 -251t244 -95q161 0 271.5 94.5t133.5 251.5l94 673h50l-95 -673
q-23 -156 61.5 -251t244.5 -95q161 0 271.5 94.5t133.5 251.5z" />
    <glyph glyph-name="wacute.ss04" horiz-adv-x="1906" 
d="M1333 1440l-268 -228h-57l249 228h76zM1761 1044h49l-94 -679q-26 -177 -150.5 -283.5t-305.5 -106.5q-146 0 -238 72t-109 197q-53 -126 -164 -197.5t-257 -71.5q-182 0 -277 106.5t-70 283.5l97 679h49l-94 -673q-23 -156 61 -251t244 -95q161 0 271.5 94.5
t133.5 251.5l94 673h50l-95 -673q-23 -156 61.5 -251t244.5 -95q161 0 271.5 94.5t133.5 251.5z" />
    <glyph glyph-name="wcircumflex.ss04" horiz-adv-x="1906" 
d="M1079 1407l-217 -195h-51l240 228h65l176 -228h-51zM1761 1044h49l-94 -679q-26 -177 -150.5 -283.5t-305.5 -106.5q-146 0 -238 72t-109 197q-53 -126 -164 -197.5t-257 -71.5q-182 0 -277 106.5t-70 283.5l97 679h49l-94 -673q-23 -156 61 -251t244 -95
q161 0 271.5 94.5t133.5 251.5l94 673h50l-95 -673q-23 -156 61.5 -251t244.5 -95q161 0 271.5 94.5t133.5 251.5z" />
    <glyph glyph-name="wdieresis.ss04" horiz-adv-x="1906" 
d="M856 1241q-22 0 -34 14.5t-9 36.5q1 20 18.5 34.5t38.5 14.5q22 0 34 -14.5t9 -34.5q-3 -22 -19 -36.5t-38 -14.5zM1253 1241q-22 0 -34 14.5t-9 36.5q3 20 20.5 34.5t37.5 14.5q22 0 34 -14.5t9 -34.5q-3 -22 -19.5 -36.5t-38.5 -14.5zM1761 1044h49l-94 -679
q-26 -177 -150.5 -283.5t-305.5 -106.5q-146 0 -238 72t-109 197q-53 -126 -164 -197.5t-257 -71.5q-182 0 -277 106.5t-70 283.5l97 679h49l-94 -673q-23 -156 61 -251t244 -95q161 0 271.5 94.5t133.5 251.5l94 673h50l-95 -673q-23 -156 61.5 -251t244.5 -95
q161 0 271.5 94.5t133.5 251.5z" />
    <glyph glyph-name="wgrave.ss04" horiz-adv-x="1906" 
d="M1094 1212h-58l-205 228h74zM1761 1044h49l-94 -679q-26 -177 -150.5 -283.5t-305.5 -106.5q-146 0 -238 72t-109 197q-53 -126 -164 -197.5t-257 -71.5q-182 0 -277 106.5t-70 283.5l97 679h49l-94 -673q-23 -156 61 -251t244 -95q161 0 271.5 94.5t133.5 251.5l94 673
h50l-95 -673q-23 -156 61.5 -251t244.5 -95q161 0 271.5 94.5t133.5 251.5z" />
    <glyph glyph-name="zero.subs" horiz-adv-x="811" 
d="M293 -248q-139 0 -210.5 122t-45.5 316q28 194 134 316.5t245 122.5q141 0 213.5 -123t44.5 -316q-26 -193 -133 -315.5t-248 -122.5zM299 -203q121 0 213 109.5t115 283.5q26 174 -35 284t-182 110q-119 0 -210 -110t-116 -284t35.5 -283.5t179.5 -109.5z" />
    <glyph glyph-name="one.subs" horiz-adv-x="425" 
d="M287 614h30l-118 -847h-45l112 794l-221 -112l-16 34z" />
    <glyph glyph-name="two.subs" horiz-adv-x="651" 
d="M553 403q-7 -60 -42 -113t-101 -116l-385 -364h473l-6 -43h-539l4 34l420 398q60 58 92 104t39 100q12 81 -38 131t-138 50q-73 0 -137.5 -37.5t-110.5 -102.5l-33 25q53 75 129 117.5t160 42.5q105 0 165.5 -63.5t47.5 -162.5z" />
    <glyph glyph-name="three.subs" horiz-adv-x="661" 
d="M586 416q-9 -66 -61 -122t-128 -79q82 -22 124 -82t32 -141q-15 -103 -107 -171.5t-219 -68.5q-84 0 -154.5 31.5t-115.5 91.5l31 33q80 -111 241 -111q109 0 188 56.5t91 142.5t-48 143.5t-159 57.5h-135l6 39h135q89 0 156 50.5t76 125.5q11 74 -45 123t-152 49
q-69 0 -133 -27.5t-109 -77.5l-22 31q113 119 274 119q114 0 180 -60.5t54 -152.5z" />
    <glyph glyph-name="four.subs" horiz-adv-x="694" 
d="M612 29l-6 -41h-133l-31 -221h-45l31 221h-442l-6 37l536 589h45l-82 -585h133zM31 29h403l74 522z" />
    <glyph glyph-name="five.subs" horiz-adv-x="700" 
d="M616 573h-413l-86 -356q45 32 107 52t122 20q124 0 195.5 -76t56.5 -190q-17 -117 -115 -194t-227 -77q-174 0 -266 139l30 33q36 -58 99.5 -92.5t140.5 -34.5q110 0 193 64.5t98 161.5q12 97 -49 161t-166 64q-60 0 -124 -22.5t-110 -59.5l-34 14l100 434h455z" />
    <glyph glyph-name="six.subs" horiz-adv-x="679" 
d="M334 289q122 0 191.5 -75.5t54.5 -186.5q-17 -119 -114 -197t-230 -78q-139 0 -212 83t-53 231q28 194 190 352.5t386 210.5l4 -41q-190 -50 -324 -167.5t-190 -270.5q44 67 126 103t171 36zM532 27q14 93 -47.5 157t-167.5 64q-66 0 -129 -21t-113.5 -71t-58.5 -119
q-15 -106 47.5 -174t180.5 -68q110 0 192.5 66t95.5 166z" />
    <glyph glyph-name="seven.subs" horiz-adv-x="653" 
d="M78 614h538l-4 -32l-512 -815h-51l508 804h-485z" />
    <glyph glyph-name="eight.subs" horiz-adv-x="655" 
d="M586 410q-9 -70 -62.5 -125t-134.5 -80q83 -25 125.5 -83.5t32.5 -135.5q-13 -100 -107.5 -167t-220.5 -67t-201 67t-61 167q10 77 70 135.5t149 83.5q-73 25 -111.5 80t-29.5 125q13 94 101.5 156.5t205.5 62.5q118 0 188 -62.5t56 -156.5zM285 225q97 0 170.5 52.5
t83.5 128.5q12 78 -46 129t-157 51q-97 0 -169.5 -51t-84.5 -129q-11 -77 47.5 -129t155.5 -52zM500 -10q12 83 -51.5 138.5t-169.5 55.5q-105 0 -184 -55.5t-89 -138.5q-12 -83 51 -139t168 -56t185 56t90 139z" />
    <glyph glyph-name="nine.subs" horiz-adv-x="681" 
d="M354 629q141 0 214.5 -83t52.5 -231q-28 -199 -190.5 -360.5t-387.5 -202.5l-4 41q193 41 326.5 159.5t187.5 274.5q-43 -63 -124 -99t-171 -36q-121 0 -191 75.5t-55 186.5q17 119 113.5 197t228.5 78zM578 344q15 106 -48 174t-182 68q-111 0 -193 -66t-94 -166
q-14 -93 47 -157t168 -64q66 0 129 21t113.5 71t59.5 119z" />
    <glyph glyph-name="zero.dnom" horiz-adv-x="811" 
d="M326 -14q-139 0 -210.5 122t-45.5 316q28 193 133.5 315.5t245.5 122.5q141 0 213.5 -122.5t44.5 -315.5q-26 -193 -133 -315.5t-248 -122.5zM332 31q121 0 212.5 109.5t114.5 283.5q26 174 -35 283.5t-182 109.5q-119 0 -209.5 -109.5t-115.5 -283.5t35.5 -283.5
t179.5 -109.5z" />
    <glyph glyph-name="one.dnom" horiz-adv-x="425" 
d="M319 848h31l-119 -848h-45l113 795l-221 -113l-17 35z" />
    <glyph glyph-name="two.dnom" horiz-adv-x="651" 
d="M586 637q-7 -59 -42 -112.5t-102 -116.5l-385 -365h473l-6 -43h-538l4 35l420 397q59 57 91.5 104t39.5 101q12 81 -38 130.5t-138 49.5q-73 0 -138 -37t-110 -102l-33 24q53 75 129 117.5t160 42.5q105 0 165.5 -63t47.5 -162z" />
    <glyph glyph-name="three.dnom" horiz-adv-x="661" 
d="M618 649q-9 -66 -60.5 -121.5t-127.5 -78.5q82 -22 124 -82t32 -142q-15 -103 -107 -171t-219 -68q-84 0 -154.5 31.5t-115.5 91.5l30 32q80 -110 242 -110q109 0 188 56t91 142t-48 143.5t-159 57.5h-135l6 39h135q89 0 155.5 50.5t75.5 125.5q11 74 -44.5 123
t-151.5 49q-69 0 -133 -27t-109 -77l-22 30q113 119 274 119q114 0 179.5 -60.5t53.5 -152.5z" />
    <glyph glyph-name="four.dnom" horiz-adv-x="694" 
d="M645 262l-6 -41h-133l-31 -221h-45l31 221h-443l-6 37l537 590h45l-82 -586h133zM63 262h404l74 522z" />
    <glyph glyph-name="five.dnom" horiz-adv-x="700" 
d="M649 807h-413l-86 -356q44 32 106.5 51.5t122.5 19.5q124 0 195.5 -76t56.5 -190q-17 -117 -115 -193.5t-227 -76.5q-174 0 -266 139l30 33q36 -58 99.5 -92.5t140.5 -34.5q110 0 193 64t98 161q12 97 -49 161t-166 64q-60 0 -124 -22.5t-110 -59.5l-35 15l101 434h454z
" />
    <glyph glyph-name="six.dnom" horiz-adv-x="679" 
d="M367 522q122 0 191 -75.5t54 -186.5q-17 -119 -114 -196.5t-230 -77.5q-139 0 -211.5 82.5t-52.5 230.5q28 194 190 352.5t386 210.5l4 -41q-190 -50 -324 -167.5t-190 -270.5q44 67 126 103t171 36zM565 260q14 93 -47.5 157t-167.5 64q-66 0 -129 -21t-113.5 -71
t-58.5 -119q-15 -106 47 -173.5t180 -67.5q110 0 193 65.5t96 165.5z" />
    <glyph glyph-name="seven.dnom" horiz-adv-x="653" 
d="M111 848h538l-4 -33l-512 -815h-51l508 805h-486z" />
    <glyph glyph-name="eight.dnom" horiz-adv-x="655" 
d="M618 643q-9 -70 -62.5 -125t-133.5 -80q83 -25 125.5 -83.5t32.5 -135.5q-13 -100 -107.5 -166.5t-220.5 -66.5t-201 66.5t-61 166.5q10 77 70 135.5t149 83.5q-73 25 -111.5 80t-29.5 125q13 94 101.5 156.5t205.5 62.5q118 0 187.5 -62.5t55.5 -156.5zM317 459
q97 0 170.5 52t83.5 128q12 78 -45.5 129t-156.5 51q-97 0 -169.5 -51t-84.5 -129q-11 -77 47 -128.5t155 -51.5zM532 223q12 83 -51.5 139t-169.5 56q-105 0 -183.5 -56t-88.5 -139q-12 -83 51 -138.5t168 -55.5t184.5 55.5t89.5 138.5z" />
    <glyph glyph-name="nine.dnom" horiz-adv-x="681" 
d="M387 862q141 0 214 -82.5t52 -230.5q-28 -199 -190 -360.5t-387 -202.5l-4 41q193 41 326.5 159.5t187.5 274.5q-43 -63 -124 -99t-171 -36q-121 0 -191 75.5t-55 186.5q17 119 113.5 196.5t228.5 77.5zM610 578q15 106 -47.5 173.5t-181.5 67.5q-111 0 -193 -66
t-94 -165q-14 -93 47 -157t168 -64q66 0 128.5 21t113 71t59.5 119z" />
    <glyph glyph-name="zero.numr" horiz-adv-x="811" 
d="M406 551q-139 0 -210.5 122t-45.5 316q28 194 133.5 316t244.5 122q141 0 213.5 -122.5t44.5 -315.5q-26 -193 -132.5 -315.5t-247.5 -122.5zM412 596q121 0 212.5 109.5t114.5 283.5q26 174 -35 283.5t-182 109.5q-119 0 -209.5 -109.5t-115.5 -283.5t35.5 -283.5
t179.5 -109.5z" />
    <glyph glyph-name="one.numr" horiz-adv-x="425" 
d="M399 1413h31l-119 -848h-45l113 795l-221 -113l-17 35z" />
    <glyph glyph-name="two.numr" horiz-adv-x="651" 
d="M666 1202q-7 -59 -42 -112.5t-102 -116.5l-385 -365h473l-6 -43h-538l4 35l419 397q60 58 92.5 104.5t39.5 100.5q12 80 -38.5 130t-138.5 50q-73 0 -137.5 -37t-109.5 -102l-33 25q53 74 129 116.5t160 42.5q105 0 165.5 -63t47.5 -162z" />
    <glyph glyph-name="three.numr" horiz-adv-x="661" 
d="M698 1214q-9 -66 -60.5 -121.5t-127.5 -78.5q82 -22 124 -82t32 -141q-15 -103 -107 -171.5t-219 -68.5q-84 0 -154.5 31.5t-115.5 91.5l30 33q40 -55 103.5 -83t138.5 -28q109 0 188 56.5t91 142.5t-48 143t-159 57h-135l6 39h135q89 0 155.5 50.5t75.5 125.5
q11 74 -44.5 123t-151.5 49q-69 0 -133 -27t-109 -77l-23 31q112 118 275 118q114 0 179.5 -60.5t53.5 -152.5z" />
    <glyph glyph-name="four.numr" horiz-adv-x="694" 
d="M725 827l-6 -41h-133l-31 -221h-45l31 221h-443l-6 37l537 590h45l-82 -586h133zM143 827h404l74 523z" />
    <glyph glyph-name="five.numr" horiz-adv-x="700" 
d="M729 1372h-414l-86 -356q44 32 107 51.5t123 19.5q124 0 195.5 -76t56.5 -190q-17 -117 -115 -193.5t-227 -76.5q-86 0 -154.5 36.5t-112.5 102.5l31 33q36 -58 99.5 -92.5t140.5 -34.5q110 0 193 64t98 161q12 97 -49 161.5t-166 64.5q-60 0 -124 -22.5t-110 -59.5
l-35 14l101 434h454z" />
    <glyph glyph-name="six.numr" horiz-adv-x="679" 
d="M446 1087q122 0 191.5 -75.5t54.5 -186.5q-17 -119 -114 -196.5t-230 -77.5q-139 0 -211.5 82.5t-52.5 230.5q28 194 189.5 352.5t385.5 210.5l5 -41q-190 -50 -324 -167.5t-190 -270.5q44 67 125.5 103t170.5 36zM645 825q14 93 -47.5 157.5t-167.5 64.5q-66 0 -129 -21
t-113.5 -71t-58.5 -119q-15 -106 47 -174t180 -68q110 0 193 65.5t96 165.5z" />
    <glyph glyph-name="seven.numr" horiz-adv-x="653" 
d="M190 1413h539l-4 -33l-512 -815h-51l508 805h-486z" />
    <glyph glyph-name="eight.numr" horiz-adv-x="655" 
d="M698 1208q-9 -70 -62 -124.5t-134 -79.5q82 -25 124.5 -84t32.5 -136q-13 -100 -107 -166.5t-220 -66.5t-201 66.5t-61 166.5q10 77 70 136t149 84q-73 25 -112 79.5t-30 124.5q13 94 102 156.5t206 62.5q118 0 187.5 -62.5t55.5 -156.5zM397 1024q97 0 170.5 52
t83.5 128q12 78 -45.5 129t-156.5 51q-97 0 -169.5 -51t-84.5 -129q-11 -77 47 -128.5t155 -51.5zM612 788q12 83 -51.5 139t-169.5 56q-105 0 -183.5 -56t-88.5 -139q-12 -83 51 -138.5t168 -55.5t184.5 55.5t89.5 138.5z" />
    <glyph glyph-name="nine.numr" horiz-adv-x="681" 
d="M467 1427q141 0 214 -82.5t52 -230.5q-28 -199 -190 -360.5t-387 -202.5l-4 41q193 41 326.5 159.5t187.5 274.5q-43 -63 -124 -99t-171 -36q-121 0 -191 75.5t-55 186.5q17 119 113.5 196.5t228.5 77.5zM690 1143q15 106 -47.5 173.5t-181.5 67.5q-111 0 -193 -66
t-94 -165q-14 -93 47 -157t168 -64q66 0 128.5 21t113 71t59.5 119z" />
    <glyph glyph-name="exclamdown.case" horiz-adv-x="462" 
d="M344 1311q-25 0 -38.5 16t-8.5 39q1 23 19.5 39t41.5 16q24 0 37.5 -15.5t10.5 -39.5q-3 -23 -21 -39t-41 -16zM133 0l49 348l107 746h47l-103 -746l-49 -348h-51z" />
    <glyph glyph-name="questiondown.case" horiz-adv-x="1038" 
d="M657 1311q-24 0 -37.5 16t-9.5 39q1 23 19.5 39t42.5 16t37 -15.5t10 -39.5q-3 -23 -21 -39t-41 -16zM467 -25q-166 0 -262 100t-76 249q8 60 36 117.5t67 104t84 91.5t90 88t83 84.5t65 89t34 94.5l10 88h51l-12 -88q-9 -59 -44 -118.5t-81.5 -106.5t-101 -101.5
t-101.5 -103t-82.5 -111t-44.5 -126.5q-17 -129 66.5 -215t226.5 -86q120 0 234 64t192 169l39 -29q-83 -115 -210.5 -184.5t-262.5 -69.5z" />
    <glyph glyph-name="periodcentered.case" horiz-adv-x="401" 
d="M219 651q-23 0 -37 16.5t-10 39.5q1 23 20 39t44 16q23 0 36 -15.5t11 -39.5q-5 -24 -23 -40t-41 -16z" />
    <glyph glyph-name="bullet.case" horiz-adv-x="559" 
d="M287 571q-58 0 -91 38.5t-24 97.5q7 58 51 96.5t101 38.5q59 0 92 -38.5t24 -96.5q-8 -59 -51.5 -97.5t-101.5 -38.5z" />
    <glyph glyph-name="asterisk.case" horiz-adv-x="819" 
d="M528 1124l21 -10l188 -119l-24 -34l-189 118l-16 15v-25l-35 -235h-39l33 235l6 27l-22 -17l-222 -118l-16 34l223 119l23 8l-21 11l-190 118l26 35l191 -119l16 -14v25l33 235h41l-35 -235l-6 -27l23 16l221 119l14 -35l-221 -118z" />
    <glyph glyph-name="slash.case" horiz-adv-x="1001" 
d="M-39 -215l1079 1843h52l-1080 -1843h-51z" />
    <glyph glyph-name="backslash.case" horiz-adv-x="1001" 
d="M780 -215l-559 1843h51l559 -1843h-51z" />
    <glyph glyph-name="parenleft.case" horiz-adv-x="634" 
d="M379 -256q-106 173 -147.5 436.5t-4.5 526.5q37 262 152.5 525t269.5 437h51q-153 -173 -267.5 -436t-151.5 -526q-37 -264 3.5 -527.5t145.5 -435.5h-51z" />
    <glyph glyph-name="parenright.case" horiz-adv-x="634" 
d="M-12 -256q152 175 268 439t152 524q37 261 -5 524.5t-145 437.5h51q105 -174 147 -437.5t5 -524.5t-153 -525t-269 -438h-51z" />
    <glyph glyph-name="braceleft.case" horiz-adv-x="788" 
d="M705 1669h147l-8 -45h-137q-64 0 -115 -46t-60 -112l-86 -626q-9 -44 -38.5 -81t-67.5 -50q35 -15 54.5 -53t13.5 -81l-89 -628q-9 -66 28.5 -112t101.5 -46h137l-4 -45h-148q-82 0 -130 56t-36 139l88 630q6 50 -19.5 82.5t-74.5 32.5h-80l8 47h80q47 0 83 32.5t44 82.5
l86 629q12 83 76 138.5t146 55.5z" />
    <glyph glyph-name="braceright.case" horiz-adv-x="788" 
d="M580 731h79l-8 -47h-80q-48 0 -84.5 -33t-42.5 -82l-90 -630q-10 -83 -72.5 -139t-144.5 -56h-147l6 45h137q64 0 114.5 46t59.5 112l88 628q6 44 36.5 81.5t70.5 52.5q-37 13 -56.5 50.5t-11.5 80.5l86 626q9 66 -28 112t-101 46h-137l6 45h148q82 0 128.5 -55.5
t34.5 -138.5l-86 -629q-8 -50 19 -82.5t76 -32.5z" />
    <glyph glyph-name="bracketleft.case" horiz-adv-x="669" 
d="M725 1624h-299l-256 -1835h297l-6 -45h-348l270 1925h348z" />
    <glyph glyph-name="bracketright.case" horiz-adv-x="669" 
d="M260 1669h350l-270 -1925h-350l6 45h299l258 1835h-299z" />
    <glyph glyph-name="hyphen.case" horiz-adv-x="835" 
d="M168 684l6 47h547l-6 -47h-547z" />
    <glyph glyph-name="endash.case" horiz-adv-x="1245" 
d="M168 686l6 45h956l-6 -45h-956z" />
    <glyph glyph-name="emdash.case" horiz-adv-x="2187" 
d="M168 686l6 45h1899l-7 -45h-1898z" />
    <glyph glyph-name="guillemotleft.case" horiz-adv-x="1183" 
d="M666 1116l-439 -409l324 -410h-64l-321 410l438 409h62zM1106 1116l-438 -409l323 -410h-63l-324 410l438 409h64z" />
    <glyph glyph-name="guillemotright.case" horiz-adv-x="1183" 
d="M309 1116l324 -409l-438 -410h-62l436 410l-321 409h61zM750 1116l323 -409l-438 -410h-62l437 410l-322 409h62z" />
    <glyph glyph-name="guilsinglleft.case" horiz-adv-x="743" 
d="M666 1116l-439 -409l324 -410h-64l-321 410l438 409h62z" />
    <glyph glyph-name="guilsinglright.case" horiz-adv-x="743" 
d="M309 1116l324 -409l-438 -410h-62l436 410l-321 409h61z" />
    <glyph glyph-name="plus.case" horiz-adv-x="1093" 
d="M979 729l-6 -45h-381l-53 -379h-47l53 379h-377l6 45h379l53 379h47l-53 -379h379z" />
    <glyph glyph-name="at.case" horiz-adv-x="1746" 
d="M1004 1440q154 0 282.5 -54.5t212.5 -148.5t121.5 -226t17.5 -282q-25 -174 -107.5 -284.5t-193.5 -110.5q-80 0 -122.5 48t-32.5 126l4 35q-56 -100 -154 -158.5t-213 -58.5q-164 0 -256 109t-69 272t146 271.5t284 108.5q116 0 197.5 -59t111.5 -160l27 195h49
l-78 -553q-8 -59 22.5 -95t89.5 -36q87 0 155.5 98.5t90.5 251.5q25 187 -43 339.5t-212.5 239.5t-336.5 87q-193 0 -362.5 -89.5t-281 -247t-138.5 -351.5q-20 -145 15 -272.5t113 -218.5t198 -143.5t264 -52.5q278 0 485 170l27 -38q-230 -179 -520 -179
q-154 0 -282.5 56.5t-211.5 153.5t-120.5 233.5t-16.5 290.5q29 206 148.5 374t301.5 263.5t388 95.5zM831 373q136 0 241.5 87.5t133.5 221.5l6 49q11 134 -70.5 221.5t-217.5 87.5q-142 0 -249.5 -95t-129.5 -238q-20 -143 62 -238.5t224 -95.5z" />
    <glyph glyph-name="uni030C.alt" horiz-adv-x="0" 
d="M-14 1124l92 351h55l-106 -351h-41z" />
    <glyph glyph-name="caron.alt" horiz-adv-x="98" 
d="M84 1124l92 351h55l-106 -351h-41z" />
    </font>
</defs>
</svg>
