<svg width="120" height="110" viewBox="0 0 120 110" fill="none" xmlns="http://www.w3.org/2000/svg">
<path d="M0.82733 108.997C0.734923 108.925 0.711967 108.866 0.709297 108.795C0.705745 108.7 0.740146 108.562 0.832163 108.342C0.882897 108.221 0.989523 108.11 1.30599 108.035C1.63348 107.958 2.1355 107.93 2.8999 107.948C3.48033 107.962 4.61957 107.858 6.16391 107.666C7.71518 107.474 9.6932 107.19 11.9622 106.84C16.5004 106.14 22.2093 105.174 28.0119 104.133C39.6085 102.052 51.6075 99.6668 55.3778 98.5127C66.3166 95.1643 76.0238 89.9824 83.3968 83.8751C90.7666 77.7705 95.8233 70.7255 97.4221 63.6442C98.5603 58.6016 97.8663 54.2021 95.2942 50.2632C94.8955 49.6529 94.499 49.089 94.1814 48.6718C94.023 48.4636 93.881 48.288 93.7671 48.1611C93.7107 48.0984 93.6578 48.0428 93.61 48.0003C93.5861 47.9792 93.5594 47.9577 93.5319 47.9394C93.5202 47.9316 93.5034 47.9213 93.483 47.9113L93.4106 47.8854C93.3345 47.8686 93.2669 47.8877 93.2405 47.8956C93.2043 47.9066 93.1676 47.9219 93.1341 47.9379C93.0665 47.9704 92.9853 48.0171 92.8955 48.0734C92.7141 48.1872 92.4751 48.3534 92.1983 48.5572C91.6434 48.9654 90.9201 49.5355 90.1621 50.1691C88.1595 51.8433 84.3572 54.2958 80.521 56.5034C76.6817 58.7127 72.8431 60.6569 70.7714 61.3294C63.0874 63.8243 56.263 64.3144 49.6413 62.858C46.6752 62.2059 44.5297 61.4762 42.8843 60.4963C41.2458 59.5205 40.0915 58.29 39.1196 56.6144C38.5233 55.5864 38.2001 54.9503 38.0276 54.3266C37.8563 53.7067 37.8296 53.0822 37.8601 52.0676C37.9033 50.6278 38.2966 49.094 38.9292 47.8882C41.4171 43.1469 46.9484 39.3284 53.7893 37.0602C60.6232 34.7944 68.724 34.0903 76.2963 35.5395C81.641 36.5627 87.7907 39.0694 91.207 41.6059C91.7091 41.9787 92.1802 42.3231 92.5342 42.5784C92.711 42.706 92.8591 42.8125 92.968 42.8884C93.0221 42.9262 93.0681 42.9566 93.103 42.9796C93.1201 42.9909 93.136 43.0016 93.1499 43.0101L93.2077 43.0399C93.2706 43.0658 93.3276 43.0624 93.3605 43.0565C93.3945 43.0503 93.4226 43.0389 93.4411 43.0302C93.4781 43.0129 93.5116 42.9897 93.5381 42.9697C93.5932 42.9283 93.6578 42.8697 93.7276 42.8017C93.8691 42.6637 94.0565 42.4614 94.2772 42.2126C94.7196 41.7137 95.3081 41.0112 95.9533 40.2154C97.2437 38.6238 98.7687 36.6496 99.8186 35.168C103.66 29.7467 106.375 24.4669 108.834 17.6354C109.49 15.8155 110.236 13.2552 110.773 11.1431C111.041 10.0872 111.258 9.13855 111.386 8.44712C111.449 8.10285 111.492 7.8146 111.506 7.60643C111.513 7.50468 111.515 7.40767 111.503 7.32833C111.498 7.29003 111.487 7.23742 111.461 7.18692C111.434 7.13554 111.373 7.05259 111.257 7.03073C111.181 7.01653 111.121 7.04022 111.104 7.04691C111.079 7.05702 111.058 7.06953 111.043 7.07855C111.014 7.09712 110.983 7.12081 110.955 7.14424C110.897 7.1923 110.823 7.26121 110.738 7.3441C110.565 7.51118 110.33 7.75195 110.051 8.04812C109.493 8.64156 108.75 9.46375 107.956 10.3711C106.368 12.1854 104.559 14.0721 103.936 14.5706C103.685 14.7712 103.491 14.9191 103.335 15.0223C103.176 15.1278 103.077 15.1734 103.015 15.1877C102.97 15.1981 102.959 15.1893 102.947 15.1808C102.918 15.1598 102.872 15.1087 102.803 14.9878C102.733 14.8652 102.699 14.7255 102.763 14.4787C102.831 14.2149 103.007 13.8441 103.358 13.2836C104.058 12.166 105.401 10.3758 107.762 7.31749C110.675 3.54502 111.89 2.24286 113.062 1.56717C113.563 1.27813 113.957 1.06713 114.278 0.929337C114.601 0.790507 114.829 0.735369 115.001 0.737643C115.299 0.7417 115.518 0.920581 115.863 1.51763C115.956 1.6802 116.082 2.00087 116.23 2.46601C116.376 2.92457 116.538 3.50442 116.71 4.17106C117.053 5.50414 117.431 7.17543 117.783 8.89745C118.491 12.3511 119.093 15.9774 119.128 17.4976C119.146 18.2766 118.927 18.8701 118.637 19.1804C118.494 19.3329 118.342 19.4101 118.197 19.4256C118.055 19.4405 117.889 19.4 117.704 19.2622C117.703 19.2598 117.7 19.2566 117.698 19.2525C117.685 19.2328 117.668 19.2019 117.647 19.1576C117.606 19.0689 117.556 18.9432 117.5 18.7814C117.388 18.4586 117.257 18.0108 117.113 17.4689C116.826 16.3856 116.498 14.9398 116.197 13.3945C115.896 11.8432 115.597 10.4264 115.359 9.39301C115.24 8.87679 115.135 8.45345 115.052 8.15619C115.011 8.00849 114.974 7.88696 114.942 7.79923C114.926 7.75659 114.91 7.71395 114.891 7.67845C114.882 7.66131 114.868 7.63659 114.849 7.61275C114.837 7.59873 114.787 7.5365 114.696 7.51604L114.695 7.51653C114.566 7.48827 114.476 7.55934 114.445 7.58838C114.41 7.62181 114.386 7.66039 114.371 7.68646C114.34 7.74163 114.312 7.81183 114.286 7.88537C114.234 8.03721 114.176 8.25292 114.115 8.51079C113.994 9.02894 113.858 9.74601 113.736 10.5374C112.146 20.8185 106.257 32.7835 98.1956 42.0816L95.7589 44.8923L95.6378 45.0321L95.736 45.1886L97.7675 48.4202C98.9389 50.2834 99.6881 51.7247 100.171 53.1976C100.653 54.6695 100.873 56.1859 100.973 58.2023C101.317 65.1356 97.7896 73.2635 91.3503 80.2564C83.2565 89.046 69.8655 96.9112 55.7116 101.173C50.9678 102.601 38.5675 104.896 26.9016 106.737C21.0727 107.658 15.4342 108.465 11.0365 108.993C8.83747 109.257 6.95088 109.45 5.5072 109.554C4.78524 109.606 4.17647 109.636 3.69622 109.64C3.21007 109.645 2.87455 109.624 2.68732 109.582C2.15355 109.464 1.74412 109.364 1.43502 109.267C1.12135 109.168 0.934272 109.081 0.82733 108.997ZM40.8116 55.297L40.8121 55.2979C40.813 55.2988 40.8158 55.3017 40.821 55.3074C40.8275 55.3145 40.8361 55.3244 40.8468 55.3365C40.8681 55.3606 40.8966 55.3926 40.9304 55.4325C40.9981 55.5122 41.0878 55.6197 41.1935 55.7475C41.4049 56.003 41.6786 56.3378 41.9632 56.6901C43.2992 58.3435 45.7 59.6708 48.5491 60.5229C51.4049 61.3771 54.7437 61.764 57.9902 61.5121C61.9879 61.2015 66.5569 60.2428 70.5999 58.8664C72.305 58.2859 75.282 56.7347 78.3317 54.9302C81.386 53.123 84.5397 51.0466 86.6015 49.4024C87.8302 48.4226 88.749 47.7032 89.3949 47.1547C89.7182 46.8802 89.9791 46.6439 90.179 46.4348C90.3774 46.2273 90.5275 46.0346 90.6172 45.848C90.71 45.6551 90.742 45.4603 90.691 45.263C90.6422 45.0738 90.5243 44.9133 90.3823 44.7692C90.2399 44.6249 90.0541 44.4788 89.8427 44.3229C89.6361 44.1707 89.3735 43.9863 89.1023 43.7885C86.4067 41.822 82.4191 40.1359 77.5877 38.9053C68.9116 36.6955 61.0133 37.0803 53.0354 40.106C48.6161 41.7822 45.1532 43.9284 42.9313 46.2711C40.7095 48.6136 39.7053 51.1812 40.288 53.6733C40.3771 54.0542 40.4746 54.417 40.5589 54.6953C40.6009 54.8339 40.6403 54.9547 40.6754 55.0475C40.6929 55.0935 40.711 55.1363 40.7284 55.1725C40.7412 55.1988 40.7682 55.2543 40.8116 55.297Z" fill="#223E3F" stroke="white" stroke-width="0.5"/>
</svg>
