<svg width="58" height="58" viewBox="0 0 58 58" fill="none" xmlns="http://www.w3.org/2000/svg">
<path d="M28.9275 4.8335C15.5875 4.8335 4.7608 15.6602 4.7608 29.0002C4.7608 42.3402 15.5875 53.1668 28.9275 53.1668C42.2675 53.1668 53.0941 42.3402 53.0941 29.0002C53.0941 15.6602 42.2916 4.8335 28.9275 4.8335ZM36.1775 34.3893L29.1691 38.4252C28.2991 38.9327 27.3325 39.1743 26.39 39.1743C25.4233 39.1743 24.4808 38.9327 23.6108 38.4252C21.8708 37.4102 20.8316 35.6218 20.8316 33.5918V25.496C20.8316 23.4902 21.8708 21.6777 23.6108 20.6627C25.3508 19.6477 27.4291 19.6477 29.1933 20.6627L36.2016 24.6985C37.9416 25.7135 38.9808 27.5018 38.9808 29.5318C38.9808 31.5618 37.9416 33.3743 36.1775 34.3893Z" fill="white"/>
</svg>
