<svg width="133" height="96" viewBox="0 0 133 96" fill="none" xmlns="http://www.w3.org/2000/svg">
<path d="M131.792 95.4475C131.742 95.5537 131.689 95.5894 131.621 95.6078C131.529 95.6324 131.387 95.6297 131.152 95.5891C131.022 95.5667 130.891 95.4873 130.747 95.1956C130.598 94.8937 130.46 94.4104 130.307 93.6613C130.19 93.0925 129.835 92.0052 129.303 90.5426C128.769 89.0735 128.051 87.2087 127.204 85.075C125.509 80.8074 123.293 75.4581 120.983 70.0343C116.366 59.1947 111.363 48.0308 109.396 44.6132C103.691 34.6977 96.4732 26.392 88.8743 20.568C81.2788 14.7467 73.2829 11.3899 66.0234 11.4119C60.854 11.428 56.7203 13.0864 53.4549 16.4728C52.9489 16.9976 52.4878 17.51 52.152 17.9127C51.9844 18.1136 51.8449 18.2911 51.7467 18.4306C51.6981 18.4995 51.6558 18.5635 51.625 18.6196C51.6097 18.6476 51.5948 18.6784 51.583 18.7092C51.578 18.7224 51.5717 18.7411 51.5665 18.7632L51.5575 18.8396C51.5581 18.9175 51.5918 18.9791 51.6054 19.003C51.6242 19.0359 51.6472 19.0683 51.6704 19.0973C51.7171 19.156 51.7808 19.2247 51.8557 19.2997C52.0071 19.4512 52.2225 19.647 52.4829 19.8714C53.0047 20.3211 53.7218 20.899 54.5086 21.4964C56.5875 23.0748 59.8268 26.2338 62.8349 29.4806C65.8454 32.7299 68.5973 36.0378 69.7153 37.9071C73.8623 44.8403 75.8631 51.3832 75.9215 58.1629C75.9478 61.1997 75.7154 63.454 75.1275 65.2766C74.542 67.0916 73.6001 68.4913 72.1837 69.8127C71.3147 70.6234 70.7668 71.0805 70.1973 71.3878C69.6314 71.6932 69.0286 71.8585 68.0328 72.0553C66.6196 72.3346 65.0367 72.2935 63.7201 71.946C58.5432 70.5791 53.5864 66.0396 49.8486 59.8775C46.1146 53.7217 43.6203 45.9823 43.3428 38.2777C43.1473 32.8394 44.2182 26.2853 45.9282 22.3891C46.1796 21.8165 46.4101 21.2804 46.58 20.8784C46.6649 20.6775 46.7356 20.5094 46.7853 20.3863C46.81 20.3251 46.8294 20.2735 46.8441 20.2344C46.8513 20.2151 46.8582 20.1972 46.8633 20.1819L46.8795 20.1189C46.8907 20.0517 46.8747 19.9969 46.8616 19.9662C46.848 19.9345 46.8306 19.9096 46.8179 19.8934C46.7928 19.8613 46.7627 19.8338 46.7373 19.8124C46.6847 19.7679 46.6131 19.7181 46.5313 19.6652C46.3652 19.5581 46.1261 19.4205 45.8344 19.261C45.2493 18.941 44.4331 18.5242 43.5134 18.0729C41.6739 17.1703 39.4092 16.1243 37.7307 15.4317C31.5888 12.8974 25.8362 11.4294 18.6281 10.5565C16.7078 10.324 14.0455 10.168 11.867 10.1161C10.7778 10.0901 9.80451 10.09 9.10211 10.1202C8.75238 10.1353 8.46192 10.1582 8.25581 10.1907C8.15507 10.2066 8.06014 10.2267 7.98533 10.2554C7.94921 10.2693 7.9003 10.2914 7.85689 10.3281C7.81274 10.3655 7.74561 10.4439 7.75019 10.5619C7.75326 10.6389 7.7899 10.6928 7.80012 10.7075C7.81556 10.7296 7.83252 10.7476 7.8445 10.7595C7.86916 10.784 7.89911 10.8087 7.92825 10.831C7.98806 10.8769 8.07167 10.9333 8.17157 10.9982C8.37292 11.129 8.66008 11.3044 9.01099 11.51C9.71411 11.9219 10.6814 12.4628 11.7432 13.0344C13.8661 14.1773 16.109 15.5197 16.734 16.0156C16.9853 16.2148 17.173 16.3717 17.3084 16.5003C17.4466 16.6318 17.513 16.7177 17.5408 16.7749C17.5612 16.8171 17.555 16.8295 17.5494 16.843C17.5354 16.8764 17.4958 16.932 17.3934 17.0266C17.2896 17.1223 17.161 17.1864 16.9061 17.1793C16.6338 17.1717 16.233 17.0828 15.6082 16.8656C14.3626 16.4327 12.318 15.5239 8.80973 13.9045C4.48225 11.907 2.94177 11.0133 2.02159 10.0219C1.62795 9.5977 1.33433 9.26072 1.12843 8.97886C0.920977 8.69483 0.816454 8.48538 0.780283 8.31722C0.717742 8.0259 0.84317 7.77223 1.34822 7.30296C1.48575 7.17524 1.77037 6.98152 2.19074 6.73343C2.60516 6.48884 3.13403 6.20067 3.74556 5.88463C4.96844 5.25265 6.51332 4.51167 8.11315 3.78339C11.3217 2.32277 14.7223 0.927043 16.1962 0.553388C16.9516 0.361839 17.579 0.44302 17.9462 0.656353C18.1267 0.761259 18.2359 0.892112 18.2835 1.03082C18.3296 1.16535 18.3273 1.33653 18.2341 1.54726C18.2321 1.54944 18.2296 1.55255 18.2262 1.55595C18.2097 1.57262 18.1834 1.59607 18.1448 1.62621C18.0677 1.68651 17.9563 1.76288 17.811 1.85373C17.5214 2.03489 17.1142 2.26291 16.6179 2.52371C15.626 3.04496 14.29 3.68813 12.8508 4.32569C11.4059 4.96591 10.0915 5.57332 9.13739 6.03635C8.66077 6.26764 8.27156 6.46454 8.00029 6.61165C7.8655 6.68476 7.75532 6.74802 7.67694 6.79878C7.63884 6.82347 7.60096 6.84902 7.57049 6.87503C7.55579 6.88761 7.53487 6.90701 7.51592 6.93107C7.50478 6.94521 7.45539 7.00834 7.45576 7.10161L7.45642 7.10233C7.45753 7.23379 7.54695 7.30587 7.58214 7.32945C7.62263 7.35652 7.6656 7.37131 7.6943 7.37986C7.75503 7.3979 7.82975 7.40972 7.90711 7.41808C8.06682 7.4353 8.29014 7.44412 8.55495 7.44533C9.08707 7.44775 9.81637 7.42016 10.6151 7.36275C20.9917 6.61773 33.9693 9.68817 44.8321 15.4707L48.1158 17.2186L48.2791 17.3054L48.4097 17.1748L51.1063 14.4732C52.661 12.9155 53.8988 11.8635 55.2269 11.0645C56.554 10.2661 57.983 9.713 59.9263 9.16546C66.608 7.28285 75.318 8.9068 83.5717 13.6229C93.946 19.5507 104.602 30.8484 111.915 43.6941C114.366 47.9995 119.37 59.5749 123.769 70.5353C125.967 76.0118 128.012 81.328 129.509 85.4969C130.257 87.5815 130.867 89.3773 131.29 90.7614C131.502 91.4535 131.667 92.0404 131.778 92.5075C131.891 92.9804 131.945 93.3121 131.947 93.5039C131.951 94.0506 131.944 94.4721 131.919 94.795C131.893 95.1227 131.849 95.3247 131.792 95.4475ZM70.5219 68.4575L70.5226 68.4568C70.5233 68.4557 70.5255 68.4524 70.5299 68.446C70.5354 68.438 70.5431 68.4274 70.5525 68.4144C70.5713 68.3882 70.5961 68.3533 70.6275 68.3114C70.69 68.2276 70.7749 68.1162 70.8758 67.9847C71.0777 67.7216 71.3429 67.38 71.6228 67.024C72.9364 65.3527 73.6943 62.7161 73.889 59.7488C74.0842 56.7743 73.7162 53.4334 72.746 50.3251C71.551 46.4975 69.5967 42.2578 67.3527 38.6239C66.4063 37.0915 64.2297 34.5358 61.7901 31.9657C59.3468 29.3918 56.6189 26.7811 54.5559 25.1383C53.3266 24.1593 52.4203 23.4242 51.7415 22.917C51.4018 22.6632 51.1132 22.4616 50.8647 22.3134C50.6182 22.1663 50.3968 22.0631 50.1949 22.0172C49.9862 21.9699 49.7892 21.9821 49.6082 22.0758C49.4347 22.1657 49.3045 22.3164 49.1958 22.487C49.0869 22.658 48.9859 22.8717 48.8812 23.1126C48.7789 23.3479 48.6578 23.6451 48.5255 23.9536C47.2103 27.0201 46.4567 31.2834 46.3354 36.2676C46.1179 45.2181 48.2559 52.8313 52.9858 59.9326C55.6061 63.8662 58.4711 66.7628 61.2506 68.4058C64.0298 70.0487 66.7568 70.4545 69.056 69.3303C69.4075 69.1584 69.7393 68.9823 69.9917 68.8381C70.1175 68.7662 70.2265 68.7008 70.3091 68.6459C70.3501 68.6186 70.3878 68.5914 70.4191 68.5663C70.4419 68.548 70.49 68.5093 70.5219 68.4575Z" fill="#223E3F" stroke="white" stroke-width="0.5"/>
</svg>
